<svg id="Layer_1" data-name="Layer 1" xmlns="http://www.w3.org/2000/svg" viewBox="0 0 260.61 85.14"><defs><style>.cls-1{fill:#f19120;}.cls-2{fill:#ffcc08;}.cls-3{fill:#43612d;}</style></defs><title>carrots</title><g id="_Group_" data-name="&lt;Group&gt;"><g id="_Group_2" data-name="&lt;Group&gt;"><path class="cls-1" d="M1053.74,1032.9c0.24,2.47-.74,4.4-0.49,6.88a7.42,7.42,0,0,1,0,2.26,4.44,4.44,0,0,1-2.27,2.86,11,11,0,0,1-3.44,1,166.12,166.12,0,0,1-17.36,2.27c-7.66.55-15.36,0.41-23,1.38-4.66.59-9.52,1.57-13.94-.17-1.84-.72-3.51-1.89-5.3-2.78a39,39,0,0,0-5.76-2.16,4.54,4.54,0,0,1,3.05-1.13c1.3,0.17,2.29-.8,3.47-1.41,5.89-3,12.18-3,18.56-4.41,7.84-1.68,14.2-4.36,22-6a84.62,84.62,0,0,1,20-1.34,4.61,4.61,0,0,1,3.23,1.06c0.84,0.86,1.73,1.5.68,2" transform="translate(-812.6 -965.61)"/></g><g id="_Group_3" data-name="&lt;Group&gt;"><path class="cls-2" d="M1035.51,1032.46a22.64,22.64,0,0,1,.18,4.67c-0.09,1.39-.31,2.76-0.3,4.15a7.15,7.15,0,0,0,1,3.95,71.68,71.68,0,0,0,.9-11.16,2.93,2.93,0,0,0-.36-1.6,0.85,0.85,0,0,0-1.32-.2" transform="translate(-812.6 -965.61)"/></g><g id="_Group_4" data-name="&lt;Group&gt;"><path class="cls-2" d="M1025.25,1034.94a15.81,15.81,0,0,0,1,11.06c-0.53-3.32-1.06-6.78-.16-10a2.19,2.19,0,0,0,.13-1,0.56,0.56,0,0,0-.72-0.48" transform="translate(-812.6 -965.61)"/></g><g id="_Group_5" data-name="&lt;Group&gt;"><path class="cls-2" d="M1013,1037.77a13.62,13.62,0,0,0,2.33,8.2,0.48,0.48,0,0,1,.11.51,0.31,0.31,0,0,1-.13.1,1,1,0,0,1-1.12-.34,3.58,3.58,0,0,1-.61-1.17,23.31,23.31,0,0,1-1.38-4.63,4.63,4.63,0,0,1,0-1.81,1.89,1.89,0,0,1,1-1.34" transform="translate(-812.6 -965.61)"/></g><g id="_Group_6" data-name="&lt;Group&gt;"><path class="cls-2" d="M1000.83,1039.67a10.33,10.33,0,0,0,.44,6.23,1.81,1.81,0,0,0,1.82,1.26c-0.09-1.06-1.09-1.83-1.13-2.89a4.79,4.79,0,0,1,.1-0.89,11.12,11.12,0,0,0-.26-3.66,1.41,1.41,0,0,0-.34-0.82,0.41,0.41,0,0,0-.68.18" transform="translate(-812.6 -965.61)"/></g><g id="_Group_7" data-name="&lt;Group&gt;"><path class="cls-2" d="M1043.11,1031.8a6.12,6.12,0,0,1,2.39,3.62,25,25,0,0,1,.62,4.53,2.58,2.58,0,0,0,.24,1,0.74,0.74,0,0,0,.83.42,1.17,1.17,0,0,0,.51-1.17c0-2.19-1.28-4.1-2.06-6.12a6.23,6.23,0,0,0-1-2,1.37,1.37,0,0,0-1.86-.31" transform="translate(-812.6 -965.61)"/></g><g id="_Group_8" data-name="&lt;Group&gt;"><path class="cls-3" d="M1050.91,1039.93c2,1.54,4.2,1,6.28.67a24.08,24.08,0,0,1,9.83.62,19.43,19.43,0,0,0,5.55,1.14,0.57,0.57,0,0,0,.54-0.27,2,2,0,0,0-.65-2.05,4.77,4.77,0,0,0-3.26-.77,88,88,0,0,1-12.52-.74,0.75,0.75,0,0,1-.69-0.51,1.26,1.26,0,0,1,.66-1.49c2.67-1.27,5.49-1.71,8.23-2.64a13.94,13.94,0,0,0,7.51-5.49c-0.92-.42-1.77.41-2.61,1-1.8,1.2-3.86,1.15-5.74,2a31.36,31.36,0,0,0-3.44,2.1,30,30,0,0,1-5,2.28,0.58,0.58,0,0,1-.87-0.43,1.23,1.23,0,0,1,.41-1.12,63.73,63.73,0,0,1,6.5-5.86c2.75-2,5.89-3.74,7.35-8.27a4.76,4.76,0,0,0-3.3,1.56,29.69,29.69,0,0,0-2.22,2.9,26.44,26.44,0,0,1-3.16,3.41,69.9,69.9,0,0,1-5.71,4.82,10.31,10.31,0,0,0-3.43,3.61,4.46,4.46,0,0,0-.53,2,2.23,2.23,0,0,0,.69,1.85" transform="translate(-812.6 -965.61)"/></g></g><g id="_Group_9" data-name="&lt;Group&gt;"><g id="_Group_10" data-name="&lt;Group&gt;"><path class="cls-1" d="M829,1012.32c-0.43,1.95.17,3.6-.26,5.55a6,6,0,0,0-.21,1.81,3.7,3.7,0,0,0,1.54,2.55,9.11,9.11,0,0,0,2.65,1.21,135.74,135.74,0,0,0,13.65,3.81c6.06,1.32,12.22,2.1,18.22,3.74,3.67,1,7.45,2.35,11.14,1.47,1.54-.37,3-1.11,4.5-1.61a30.82,30.82,0,0,1,4.81-1.06,3.76,3.76,0,0,0-2.33-1.25c-1.06,0-1.75-.9-2.64-1.52-4.42-3.08-9.44-3.83-14.4-5.66-6.1-2.24-10.93-5.11-17-7.35a68.84,68.84,0,0,0-15.85-3.37,3.65,3.65,0,0,0-2.68.48c-0.75.59-1.52,1-.74,1.54" transform="translate(-812.6 -965.61)"/></g><g id="_Group_11" data-name="&lt;Group&gt;"><path class="cls-2" d="M843.59,1014.06a18.11,18.11,0,0,0-.59,3.71c-0.06,1.12,0,2.24-.15,3.35a5.64,5.64,0,0,1-1.18,3,57.82,57.82,0,0,1,.35-9,2.32,2.32,0,0,1,.44-1.24,0.69,0.69,0,0,1,1.07,0" transform="translate(-812.6 -965.61)"/></g><g id="_Group_12" data-name="&lt;Group&gt;"><path class="cls-2" d="M851.56,1017.23a12.6,12.6,0,0,1-1.87,8.71c0.74-2.59,1.49-5.29,1.08-8a1.78,1.78,0,0,1,0-.85,0.44,0.44,0,0,1,.62-0.3" transform="translate(-812.6 -965.61)"/></g><g id="_Group_13" data-name="&lt;Group&gt;"><path class="cls-2" d="M861,1020.89a10.73,10.73,0,0,1-2.64,6.28,0.38,0.38,0,0,0-.13.39,0.26,0.26,0,0,0,.1.09,0.81,0.81,0,0,0,.93-0.14,2.79,2.79,0,0,0,.6-0.86,18.33,18.33,0,0,0,1.54-3.54,3.72,3.72,0,0,0,.17-1.44,1.57,1.57,0,0,0-.7-1.19" transform="translate(-812.6 -965.61)"/></g><g id="_Group_14" data-name="&lt;Group&gt;"><path class="cls-2" d="M870.61,1023.81a8.25,8.25,0,0,1-.94,4.93,1.42,1.42,0,0,1-1.57.8c0.17-.83,1-1.34,1.18-2.18a3.88,3.88,0,0,0,0-.72,8.87,8.87,0,0,1,.56-2.89,1.11,1.11,0,0,1,.35-0.62,0.34,0.34,0,0,1,.52.22" transform="translate(-812.6 -965.61)"/></g><g id="_Group_15" data-name="&lt;Group&gt;"><path class="cls-2" d="M837.59,1012.66a4.77,4.77,0,0,0-2.26,2.62,19.86,19.86,0,0,0-.93,3.54,2,2,0,0,1-.29.8,0.58,0.58,0,0,1-.71.24,1,1,0,0,1-.3-1c0.23-1.75,1.41-3.13,2.23-4.65a4.86,4.86,0,0,1,1-1.46,1.1,1.1,0,0,1,1.52,0" transform="translate(-812.6 -965.61)"/></g><g id="_Group_16" data-name="&lt;Group&gt;"><path class="cls-3" d="M830.59,1018.26c-1.75,1-3.44.3-5.08-.18a19.41,19.41,0,0,0-7.91-.64,15.5,15.5,0,0,1-4.54.28,0.47,0.47,0,0,1-.41-0.27,1.55,1.55,0,0,1,.72-1.56,3.8,3.8,0,0,1,2.68-.24,70.92,70.92,0,0,0,10.07.85,0.59,0.59,0,0,0,.6-0.33,1,1,0,0,0-.39-1.27c-2-1.32-4.22-2-6.32-3.06a11.63,11.63,0,0,1-5.48-5.25c0.77-.23,1.38.53,2,1.07,1.32,1.17,3,1.36,4.4,2.24a26.15,26.15,0,0,1,2.55,2.07,24.91,24.91,0,0,0,3.74,2.39,0.46,0.46,0,0,0,.74-0.25,1,1,0,0,0-.22-0.95,53.26,53.26,0,0,0-4.63-5.43c-2-1.95-4.35-3.66-5.08-7.45a4,4,0,0,1,2.49,1.62,24.74,24.74,0,0,1,1.49,2.57,22.08,22.08,0,0,0,2.2,3.09,58.41,58.41,0,0,0,4.1,4.5,8.61,8.61,0,0,1,2.4,3.27,3.64,3.64,0,0,1,.24,1.62,1.75,1.75,0,0,1-.73,1.4" transform="translate(-812.6 -965.61)"/></g></g><g id="_Group_17" data-name="&lt;Group&gt;"><g id="_Group_18" data-name="&lt;Group&gt;"><path class="cls-1" d="M946.6,1010.06c-0.83-1.81-2.31-2.77-3.15-4.58a6,6,0,0,0-.93-1.57,3.7,3.7,0,0,0-2.77-1.1,9.11,9.11,0,0,0-2.84.63,135.74,135.74,0,0,0-13.17,5.21c-5.63,2.61-11,5.72-16.78,8-3.53,1.41-7.35,2.63-9.77,5.56-1,1.22-1.71,2.69-2.61,4a30.82,30.82,0,0,1-3.19,3.75,3.76,3.76,0,0,0,2.62-.41c0.85-.62,1.94-0.34,3-0.38,5.38-.22,9.84-2.65,14.89-4.2,6.22-1.9,11.8-2.53,18-4.43a68.84,68.84,0,0,0,14.66-6.89,3.65,3.65,0,0,0,1.85-2c0.24-.93.61-1.72-0.34-1.67" transform="translate(-812.6 -965.61)"/></g><g id="_Group_19" data-name="&lt;Group&gt;"><path class="cls-2" d="M933.91,1017.49a18.11,18.11,0,0,0-1.77-3.31c-0.63-.93-1.34-1.8-1.9-2.76a5.64,5.64,0,0,1-.9-3.13,57.82,57.82,0,0,1,5.17,7.39,2.32,2.32,0,0,1,.4,1.25,0.69,0.69,0,0,1-.85.66" transform="translate(-812.6 -965.61)"/></g><g id="_Group_20" data-name="&lt;Group&gt;"><path class="cls-2" d="M925.66,1019.79a12.6,12.6,0,0,1-3.78-8.07c1,2.51,2,5.12,4,7a1.78,1.78,0,0,1,.52.67,0.44,0.44,0,0,1-.32.62" transform="translate(-812.6 -965.61)"/></g><g id="_Group_21" data-name="&lt;Group&gt;"><path class="cls-2" d="M915.88,1022.6a10.73,10.73,0,0,1-1.69-6.6,0.38,0.38,0,0,0-.13-0.39,0.26,0.26,0,0,0-.13,0,0.81,0.81,0,0,0-.65.67,2.79,2.79,0,0,0,0,1,18.33,18.33,0,0,0,.91,3.75,3.72,3.72,0,0,0,.74,1.25,1.57,1.57,0,0,0,1.27.52" transform="translate(-812.6 -965.61)"/></g><g id="_Group_22" data-name="&lt;Group&gt;"><path class="cls-2" d="M906.5,1026.05a8.25,8.25,0,0,1-2.23-4.5A1.42,1.42,0,0,1,905,1020c0.37,0.77,0,1.7.38,2.45a3.88,3.88,0,0,0,.43.58,8.87,8.87,0,0,1,1.3,2.64,1.11,1.11,0,0,1,.09.71,0.34,0.34,0,0,1-.55.14" transform="translate(-812.6 -965.61)"/></g><g id="_Group_23" data-name="&lt;Group&gt;"><path class="cls-2" d="M939.55,1015a4.77,4.77,0,0,0,.22-3.45,19.86,19.86,0,0,0-1.4-3.38,2,2,0,0,1-.25-0.82,0.58,0.58,0,0,1,.42-0.62,1,1,0,0,1,.84.61c0.87,1.53.77,3.35,1,5.05a4.86,4.86,0,0,1,.1,1.76,1.1,1.1,0,0,1-1.19.94" transform="translate(-812.6 -965.61)"/></g><g id="_Group_24" data-name="&lt;Group&gt;"><path class="cls-3" d="M941.74,1006.29c0.79-1.85,2.56-2.32,4.16-2.92a19.41,19.41,0,0,0,6.69-4.27,15.5,15.5,0,0,1,3.45-3,0.47,0.47,0,0,1,.49,0,1.55,1.55,0,0,1,.37,1.68,3.8,3.8,0,0,1-2,1.81,70.92,70.92,0,0,0-8.53,5.41,0.59,0.59,0,0,0-.28.63,1,1,0,0,0,1.08.78c2.4-.16,4.57-1,6.88-1.38a11.63,11.63,0,0,1,7.54.87c-0.48.65-1.42,0.41-2.24,0.35-1.76-.13-3.19.71-4.86,0.87a26.15,26.15,0,0,1-3.28-.11,24.91,24.91,0,0,0-4.43.35,0.46,0.46,0,0,0-.44.64,1,1,0,0,0,.75.62,53.26,53.26,0,0,0,7,1.53c2.77,0.34,5.68.29,8.55,2.86a4,4,0,0,1-3,.21,24.74,24.74,0,0,1-2.75-1.15,22.08,22.08,0,0,0-3.62-1.13,58.41,58.41,0,0,0-6-1.11,8.61,8.61,0,0,1-3.89-1.16,3.64,3.64,0,0,1-1.17-1.15A1.75,1.75,0,0,1,942,1006" transform="translate(-812.6 -965.61)"/></g></g><g id="_Group_25" data-name="&lt;Group&gt;"><g id="_Group_26" data-name="&lt;Group&gt;"><path class="cls-1" d="M924,991.8c-1.39-1.29-3-1.59-4.42-2.88a5.66,5.66,0,0,0-1.38-1,3.51,3.51,0,0,0-2.83,0,8.66,8.66,0,0,0-2.26,1.59,128.91,128.91,0,0,0-9.67,9.35c-4,4.33-7.59,9-11.82,13.13-2.59,2.52-5.5,5-6.56,8.43-0.44,1.44-.53,3-0.84,4.46a29.27,29.27,0,0,1-1.44,4.45A3.57,3.57,0,0,0,885,1028c0.52-.86,1.58-1,2.52-1.43,4.64-2.14,7.67-5.89,11.55-9.08,4.77-3.92,9.44-6.5,14.2-10.42a65.38,65.38,0,0,0,10.38-11.36,3.47,3.47,0,0,0,.9-2.43c-0.12-.9-0.09-1.73-0.91-1.34" transform="translate(-812.6 -965.61)"/></g><g id="_Group_27" data-name="&lt;Group&gt;"><path class="cls-2" d="M915.61,1002.92a17.2,17.2,0,0,0-2.76-2.26c-0.89-.59-1.83-1.09-2.67-1.74a5.35,5.35,0,0,1-1.92-2.43,54.91,54.91,0,0,1,7.22,4.62,2.2,2.2,0,0,1,.8,1,0.65,0.65,0,0,1-.51.89" transform="translate(-812.6 -965.61)"/></g><g id="_Group_28" data-name="&lt;Group&gt;"><path class="cls-2" d="M909.19,1007.93a12,12,0,0,1-6.24-5.72c1.76,1.85,3.62,3.77,6,4.71a1.69,1.69,0,0,1,.7.4,0.42,0.42,0,0,1-.06.65" transform="translate(-812.6 -965.61)"/></g><g id="_Group_29" data-name="&lt;Group&gt;"><path class="cls-2" d="M901.63,1013.94a10.19,10.19,0,0,1-3.88-5.18,0.36,0.36,0,0,0-.26-0.3,0.25,0.25,0,0,0-.12,0,0.77,0.77,0,0,0-.33.83,2.65,2.65,0,0,0,.42.9,17.41,17.41,0,0,0,2.16,3,3.53,3.53,0,0,0,1.1.83,1.49,1.49,0,0,0,1.31,0" transform="translate(-812.6 -965.61)"/></g><g id="_Group_30" data-name="&lt;Group&gt;"><path class="cls-2" d="M894.65,1020.37a7.83,7.83,0,0,1-3.58-3.14,1.35,1.35,0,0,1,.1-1.67c0.6,0.54.59,1.5,1.22,2a3.68,3.68,0,0,0,.59.35,8.42,8.42,0,0,1,2.1,1.85,1,1,0,0,1,.34.59,0.32,0.32,0,0,1-.44.32" transform="translate(-812.6 -965.61)"/></g><g id="_Group_31" data-name="&lt;Group&gt;"><path class="cls-2" d="M919.64,998.67a4.53,4.53,0,0,0-1.06-3.11,18.86,18.86,0,0,0-2.46-2.46,1.94,1.94,0,0,1-.52-0.63,0.56,0.56,0,0,1,.14-0.69,0.92,0.92,0,0,1,1,.23c1.32,1,1.89,2.66,2.74,4.06a4.62,4.62,0,0,1,.73,1.51,1,1,0,0,1-.7,1.26" transform="translate(-812.6 -965.61)"/></g><g id="_Group_32" data-name="&lt;Group&gt;"><path class="cls-3" d="M918.42,990.25c0-1.92,1.41-3,2.59-4.07a18.43,18.43,0,0,0,4.32-6.17,14.72,14.72,0,0,1,2-3.85,0.45,0.45,0,0,1,.42-0.2,1.47,1.47,0,0,1,.94,1.34,3.61,3.61,0,0,1-1.09,2.31,67.35,67.35,0,0,0-5.53,7.84,0.56,0.56,0,0,0,0,.65,1,1,0,0,0,1.23.29,57,57,0,0,0,5.54-3.71,11,11,0,0,1,6.93-2c-0.18.75-1.1,0.87-1.84,1.12-1.59.52-2.54,1.78-4,2.53a24.83,24.83,0,0,1-2.92,1.09,23.66,23.66,0,0,0-3.76,1.92,0.44,0.44,0,0,0-.15.72,1,1,0,0,0,.88.27,50.58,50.58,0,0,0,6.67-1.19c2.56-.71,5.09-1.8,8.54-0.59a3.75,3.75,0,0,1-2.52,1.26,23.49,23.49,0,0,1-2.83,0,21,21,0,0,0-3.58.32,55.47,55.47,0,0,0-5.66,1.2,8.17,8.17,0,0,1-3.83.39,3.46,3.46,0,0,1-1.44-.58,1.66,1.66,0,0,1-.8-1.27" transform="translate(-812.6 -965.61)"/></g></g><g id="_Group_33" data-name="&lt;Group&gt;"><g id="_Group_34" data-name="&lt;Group&gt;"><path class="cls-1" d="M975.25,981.79c-1.74,1-2.59,2.51-4.33,3.48a6,6,0,0,0-1.49,1,3.7,3.7,0,0,0-.89,2.84,9.11,9.11,0,0,0,.84,2.79,135.74,135.74,0,0,0,6.17,12.75c3,5.42,6.51,10.55,9.24,16.14,1.67,3.41,3.17,7.14,6.27,9.33,1.29,0.91,2.81,1.51,4.18,2.31a30.82,30.82,0,0,1,4,2.9,3.76,3.76,0,0,0-.6-2.58c-0.69-.8-0.48-1.91-0.61-3-0.62-5.35-3.37-9.62-5.28-14.54-2.36-6.06-3.39-11.58-5.75-17.64a68.84,68.84,0,0,0-8-14.12,3.65,3.65,0,0,0-2.13-1.69c-0.94-.17-1.76-0.48-1.64.47" transform="translate(-812.6 -965.61)"/></g><g id="_Group_35" data-name="&lt;Group&gt;"><path class="cls-2" d="M983.6,993.89a18.11,18.11,0,0,0-3.17,2c-0.88.69-1.69,1.47-2.62,2.1a5.64,5.64,0,0,1-3.06,1.12,57.82,57.82,0,0,1,7-5.7,2.32,2.32,0,0,1,1.22-.49,0.69,0.69,0,0,1,.72.8" transform="translate(-812.6 -965.61)"/></g><g id="_Group_36" data-name="&lt;Group&gt;"><path class="cls-2" d="M986.49,1002a12.6,12.6,0,0,1-7.77,4.36c2.43-1.15,5-2.38,6.69-4.46a1.78,1.78,0,0,1,.63-0.57,0.44,0.44,0,0,1,.64.27" transform="translate(-812.6 -965.61)"/></g><g id="_Group_37" data-name="&lt;Group&gt;"><path class="cls-2" d="M990,1011.5a10.73,10.73,0,0,1-6.46,2.18,0.38,0.38,0,0,0-.38.16,0.26,0.26,0,0,0,0,.13,0.81,0.81,0,0,0,.72.6,2.79,2.79,0,0,0,1-.12,18.33,18.33,0,0,0,3.67-1.18,3.72,3.72,0,0,0,1.19-.83,1.57,1.57,0,0,0,.43-1.31" transform="translate(-812.6 -965.61)"/></g><g id="_Group_38" data-name="&lt;Group&gt;"><path class="cls-2" d="M994.16,1020.59a8.25,8.25,0,0,1-4.32,2.55,1.42,1.42,0,0,1-1.64-.65c0.74-.42,1.69-0.1,2.41-0.56a3.88,3.88,0,0,0,.54-0.48,8.87,8.87,0,0,1,2.54-1.5,1.11,1.11,0,0,1,.7-0.14,0.34,0.34,0,0,1,.18.54" transform="translate(-812.6 -965.61)"/></g><g id="_Group_39" data-name="&lt;Group&gt;"><path class="cls-2" d="M980.68,988.46a4.77,4.77,0,0,0-3.46,0,19.86,19.86,0,0,0-3.27,1.65,2,2,0,0,1-.8.31,0.58,0.58,0,0,1-.64-0.37,1,1,0,0,1,.55-0.88c1.46-1,3.28-1,5-1.4a4.86,4.86,0,0,1,1.75-.23,1.1,1.1,0,0,1,1,1.12" transform="translate(-812.6 -965.61)"/></g><g id="_Group_40" data-name="&lt;Group&gt;"><path class="cls-3" d="M971.85,986.91c-1.91-.65-2.5-2.38-3.22-3.93a19.41,19.41,0,0,0-4.75-6.35,15.5,15.5,0,0,1-3.21-3.22,0.47,0.47,0,0,1-.06-0.49,1.55,1.55,0,0,1,1.65-.5,3.8,3.8,0,0,1,2,1.85,70.92,70.92,0,0,0,6,8.11,0.59,0.59,0,0,0,.65.23,1,1,0,0,0,.7-1.13c-0.34-2.38-1.3-4.49-1.89-6.76a11.63,11.63,0,0,1,.32-7.58c0.69,0.43.51,1.39,0.51,2.2,0,1.76.95,3.13,1.23,4.78a26.15,26.15,0,0,1,.13,3.28,24.91,24.91,0,0,0,.68,4.39,0.46,0.46,0,0,0,.67.39,1,1,0,0,0,.56-0.79,53.26,53.26,0,0,0,1-7.06c0.14-2.79-.13-5.68,2.22-8.74a4,4,0,0,1,.43,2.94,24.74,24.74,0,0,1-.94,2.82,22.08,22.08,0,0,0-.86,3.69,58.41,58.41,0,0,0-.66,6.05,8.61,8.61,0,0,1-.87,4,3.64,3.64,0,0,1-1.06,1.25,1.75,1.75,0,0,1-1.53.38" transform="translate(-812.6 -965.61)"/></g></g><g id="_Group_41" data-name="&lt;Group&gt;"><g id="_Group_42" data-name="&lt;Group&gt;"><path class="cls-1" d="M1013.71,991.6c0.15,2,1.2,3.4,1.36,5.39a6,6,0,0,0,.32,1.79,3.7,3.7,0,0,0,2.21,2,9.11,9.11,0,0,0,2.88.39,135.74,135.74,0,0,0,14.16-.3c6.18-.49,12.31-1.53,18.52-1.68,3.8-.1,7.81.09,11.09-1.82,1.37-.8,2.54-1.92,3.84-2.84a30.82,30.82,0,0,1,4.3-2.4,3.76,3.76,0,0,0-2.59-.53c-1,.29-1.93-0.36-3-0.69-5.12-1.67-10.15-.94-15.42-1.25-6.49-.38-11.94-1.73-18.43-2.12a68.84,68.84,0,0,0-16.15,1.35,3.65,3.65,0,0,0-2.43,1.23c-0.55.78-1.17,1.4-.26,1.69" transform="translate(-812.6 -965.61)"/></g><g id="_Group_43" data-name="&lt;Group&gt;"><path class="cls-2" d="M1028.19,989.05a18.11,18.11,0,0,0,.51,3.72c0.27,1.09.63,2.15,0.82,3.25a5.64,5.64,0,0,1-.25,3.25,57.82,57.82,0,0,1-2.27-8.73,2.32,2.32,0,0,1,.06-1.31,0.69,0.69,0,0,1,1-.32" transform="translate(-812.6 -965.61)"/></g><g id="_Group_44" data-name="&lt;Group&gt;"><path class="cls-2" d="M1036.72,989.78a12.6,12.6,0,0,1,.73,8.88c0-2.69-.1-5.5-1.27-7.94a1.78,1.78,0,0,1-.25-0.81,0.44,0.44,0,0,1,.51-0.47" transform="translate(-812.6 -965.61)"/></g><g id="_Group_45" data-name="&lt;Group&gt;"><path class="cls-2" d="M1046.87,990.55a10.73,10.73,0,0,1-.71,6.78,0.38,0.38,0,0,0,0,.42,0.26,0.26,0,0,0,.12.06,0.81,0.81,0,0,0,.85-0.41,2.79,2.79,0,0,0,.32-1,18.33,18.33,0,0,0,.45-3.83,3.72,3.72,0,0,0-.26-1.43,1.57,1.57,0,0,0-1-.93" transform="translate(-812.6 -965.61)"/></g><g id="_Group_46" data-name="&lt;Group&gt;"><path class="cls-2" d="M1056.86,990.57a8.25,8.25,0,0,1,.52,5,1.42,1.42,0,0,1-1.27,1.22c-0.08-.85.61-1.58,0.5-2.42a3.88,3.88,0,0,0-.21-0.69,8.87,8.87,0,0,1-.3-2.93,1.11,1.11,0,0,1,.16-0.69,0.34,0.34,0,0,1,.57.06" transform="translate(-812.6 -965.61)"/></g><g id="_Group_47" data-name="&lt;Group&gt;"><path class="cls-2" d="M1022,989.45a4.77,4.77,0,0,0-1.4,3.16,19.86,19.86,0,0,0,.14,3.66,2,2,0,0,1,0,.85,0.58,0.58,0,0,1-.61.43,1,1,0,0,1-.57-0.87c-0.28-1.74.44-3.4,0.79-5.09a4.86,4.86,0,0,1,.52-1.68,1.1,1.1,0,0,1,1.44-.47" transform="translate(-812.6 -965.61)"/></g><g id="_Group_48" data-name="&lt;Group&gt;"><path class="cls-3" d="M1016.95,996.83c-1.39,1.46-3.21,1.28-4.91,1.29a19.41,19.41,0,0,0-7.75,1.68,15.5,15.5,0,0,1-4.27,1.58,0.47,0.47,0,0,1-.47-0.15,1.55,1.55,0,0,1,.24-1.71,3.8,3.8,0,0,1,2.5-1,70.92,70.92,0,0,0,9.88-2.1,0.59,0.59,0,0,0,.48-0.49,1,1,0,0,0-.74-1.1c-2.31-.68-4.62-0.69-6.93-1.1a11.63,11.63,0,0,1-6.76-3.44c0.67-.45,1.47.11,2.22,0.45,1.6,0.73,3.24.44,4.86,0.88a26.15,26.15,0,0,1,3,1.25,24.91,24.91,0,0,0,4.27,1.21,0.46,0.46,0,0,0,.63-0.45,1,1,0,0,0-.48-0.84,53.26,53.26,0,0,0-6-3.86c-2.48-1.29-5.22-2.25-7-5.66a4,4,0,0,1,2.85.83,24.74,24.74,0,0,1,2.17,2,22.08,22.08,0,0,0,3,2.32,58.41,58.41,0,0,0,5.23,3.12,8.61,8.61,0,0,1,3.24,2.44,3.64,3.64,0,0,1,.7,1.48,1.75,1.75,0,0,1-.29,1.55" transform="translate(-812.6 -965.61)"/></g></g><g id="_Group_49" data-name="&lt;Group&gt;"><g id="_Group_50" data-name="&lt;Group&gt;"><path class="cls-1" d="M1056.83,1011.41c-0.25-2-1.37-3.34-1.62-5.31a6,6,0,0,0-.41-1.77,3.7,3.7,0,0,0-2.31-1.88,9.11,9.11,0,0,0-2.9-.25,135.74,135.74,0,0,0-14.13,1c-6.15.8-12.22,2.14-18.42,2.61-3.79.29-7.81,0.3-11,2.37-1.33.86-2.44,2-3.69,3a30.82,30.82,0,0,1-4.17,2.62,3.76,3.76,0,0,0,2.62.4c1-.34,2,0.26,3,0.54,5.2,1.41,10.18.43,15.46,0.48,6.5,0.06,12,1.14,18.51,1.19a68.84,68.84,0,0,0,16.06-2.15,3.65,3.65,0,0,0,2.36-1.35c0.51-.81,1.1-1.45.18-1.7" transform="translate(-812.6 -965.61)"/></g><g id="_Group_51" data-name="&lt;Group&gt;"><path class="cls-2" d="M1042.5,1014.68a18.11,18.11,0,0,0-.7-3.69c-0.32-1.07-.74-2.12-1-3.21a5.64,5.64,0,0,1,.09-3.26,57.82,57.82,0,0,1,2.71,8.61,2.32,2.32,0,0,1,0,1.31,0.69,0.69,0,0,1-1,.37" transform="translate(-812.6 -965.61)"/></g><g id="_Group_52" data-name="&lt;Group&gt;"><path class="cls-2" d="M1033.94,1014.38a12.6,12.6,0,0,1-1.17-8.84c0.17,2.69.38,5.49,1.67,7.87a1.78,1.78,0,0,1,.29.8,0.44,0.44,0,0,1-.49.49" transform="translate(-812.6 -965.61)"/></g><g id="_Group_53" data-name="&lt;Group&gt;"><path class="cls-2" d="M1023.77,1014.12a10.73,10.73,0,0,1,.37-6.81,0.38,0.38,0,0,0,0-.42,0.26,0.26,0,0,0-.12-0.05,0.81,0.81,0,0,0-.83.45,2.79,2.79,0,0,0-.27,1,18.33,18.33,0,0,0-.26,3.85,3.72,3.72,0,0,0,.33,1.42,1.57,1.57,0,0,0,1.05.88" transform="translate(-812.6 -965.61)"/></g><g id="_Group_54" data-name="&lt;Group&gt;"><path class="cls-2" d="M1013.79,1014.59a8.25,8.25,0,0,1-.77-5,1.42,1.42,0,0,1,1.21-1.28c0.12,0.84-.54,1.61-0.38,2.45a3.87,3.87,0,0,0,.24.68,8.87,8.87,0,0,1,.45,2.91,1.11,1.11,0,0,1-.12.7,0.34,0.34,0,0,1-.57,0" transform="translate(-812.6 -965.61)"/></g><g id="_Group_55" data-name="&lt;Group&gt;"><path class="cls-2" d="M1048.63,1014a4.77,4.77,0,0,0,1.24-3.22,19.86,19.86,0,0,0-.32-3.65,2,2,0,0,1,0-.86,0.58,0.58,0,0,1,.58-0.46,1,1,0,0,1,.62.84c0.37,1.72-.27,3.42-0.54,5.13a4.86,4.86,0,0,1-.43,1.71,1.1,1.1,0,0,1-1.42.54" transform="translate(-812.6 -965.61)"/></g><g id="_Group_56" data-name="&lt;Group&gt;"><path class="cls-3" d="M1053.34,1006.35c1.32-1.53,3.14-1.44,4.84-1.54a19.41,19.41,0,0,0,7.66-2.06A15.5,15.5,0,0,1,1070,1001a0.47,0.47,0,0,1,.47.12,1.55,1.55,0,0,1-.15,1.72,3.8,3.8,0,0,1-2.44,1.13,70.92,70.92,0,0,0-9.76,2.59,0.59,0.59,0,0,0-.46.51,1,1,0,0,0,.79,1.07c2.34,0.57,4.65.46,7,.75a11.63,11.63,0,0,1,6.92,3.1c-0.65.48-1.48,0-2.24-.34-1.64-.65-3.26-0.28-4.9-0.63a26.15,26.15,0,0,1-3.1-1.09,24.91,24.91,0,0,0-4.33-1,0.46,0.46,0,0,0-.61.48,1,1,0,0,0,.53.82,53.26,53.26,0,0,0,6.19,3.55c2.54,1.16,5.33,2,7.29,5.3a4,4,0,0,1-2.89-.69,24.74,24.74,0,0,1-2.27-1.92,22.08,22.08,0,0,0-3.11-2.17,58.41,58.41,0,0,0-5.38-2.86,8.61,8.61,0,0,1-3.36-2.28,3.64,3.64,0,0,1-.77-1.45,1.75,1.75,0,0,1,.21-1.56" transform="translate(-812.6 -965.61)"/></g></g><g id="_Group_57" data-name="&lt;Group&gt;"><g id="_Group_58" data-name="&lt;Group&gt;"><path class="cls-1" d="M829.17,995.7c-0.49,1.93.07,3.61-.42,5.54a6,6,0,0,0-.26,1.8,3.7,3.7,0,0,0,1.47,2.59,9.11,9.11,0,0,0,2.61,1.29,135.74,135.74,0,0,0,13.53,4.2c6,1.49,12.16,2.45,18.1,4.27,3.64,1.11,7.38,2.56,11.1,1.79,1.55-.32,3-1,4.54-1.48a30.82,30.82,0,0,1,4.84-.92,3.76,3.76,0,0,0-2.3-1.32c-1.06,0-1.72-1-2.6-1.6-4.33-3.2-9.33-4.1-14.23-6.07-6-2.42-10.78-5.42-16.81-7.84A68.84,68.84,0,0,0,833,994.12a3.65,3.65,0,0,0-2.69.4c-0.77.57-1.55,1-.78,1.52" transform="translate(-812.6 -965.61)"/></g><g id="_Group_59" data-name="&lt;Group&gt;"><path class="cls-2" d="M843.71,997.87a18.11,18.11,0,0,0-.69,3.69c-0.09,1.12-.08,2.24-0.25,3.35a5.64,5.64,0,0,1-1.27,3,57.82,57.82,0,0,1,.61-9,2.32,2.32,0,0,1,.48-1.22,0.69,0.69,0,0,1,1.07,0" transform="translate(-812.6 -965.61)"/></g><g id="_Group_60" data-name="&lt;Group&gt;"><path class="cls-2" d="M851.58,1001.26a12.6,12.6,0,0,1-2.12,8.66c0.82-2.56,1.64-5.25,1.31-7.93a1.78,1.78,0,0,1,0-.85,0.44,0.44,0,0,1,.63-0.28" transform="translate(-812.6 -965.61)"/></g><g id="_Group_61" data-name="&lt;Group&gt;"><path class="cls-2" d="M861,1005.2a10.73,10.73,0,0,1-2.82,6.21,0.38,0.38,0,0,0-.14.39,0.26,0.26,0,0,0,.09.1,0.81,0.81,0,0,0,.93-0.12,2.79,2.79,0,0,0,.62-0.84,18.33,18.33,0,0,0,1.64-3.49,3.72,3.72,0,0,0,.21-1.44,1.57,1.57,0,0,0-.66-1.21" transform="translate(-812.6 -965.61)"/></g><g id="_Group_62" data-name="&lt;Group&gt;"><path class="cls-2" d="M870.43,1008.39a8.25,8.25,0,0,1-1.09,4.9,1.42,1.42,0,0,1-1.59.75c0.2-.83,1.08-1.31,1.24-2.14a3.88,3.88,0,0,0,0-.72,8.87,8.87,0,0,1,.64-2.88,1.11,1.11,0,0,1,.37-0.61,0.34,0.34,0,0,1,.52.24" transform="translate(-812.6 -965.61)"/></g><g id="_Group_63" data-name="&lt;Group&gt;"><path class="cls-2" d="M837.75,996.29a4.77,4.77,0,0,0-2.33,2.55,19.86,19.86,0,0,0-1,3.52,2,2,0,0,1-.32.8,0.58,0.58,0,0,1-.71.22,1,1,0,0,1-.27-1c0.28-1.74,1.5-3.09,2.36-4.58a4.86,4.86,0,0,1,1-1.43,1.1,1.1,0,0,1,1.52,0" transform="translate(-812.6 -965.61)"/></g><g id="_Group_64" data-name="&lt;Group&gt;"><path class="cls-3" d="M830.59,1001.69c-1.78.95-3.45,0.2-5.07-.33a19.41,19.41,0,0,0-7.89-.87,15.5,15.5,0,0,1-4.55.14,0.47,0.47,0,0,1-.4-0.29,1.55,1.55,0,0,1,.76-1.54,3.8,3.8,0,0,1,2.69-.17,70.92,70.92,0,0,0,10,1.14,0.59,0.59,0,0,0,.61-0.31,1,1,0,0,0-.35-1.28c-2-1.38-4.16-2.12-6.23-3.24a11.63,11.63,0,0,1-5.32-5.41c0.78-.21,1.36.57,2,1.13,1.29,1.2,2.93,1.45,4.33,2.37a26.15,26.15,0,0,1,2.49,2.15,24.91,24.91,0,0,0,3.67,2.5,0.46,0.46,0,0,0,.74-0.23,1,1,0,0,0-.19-1,53.26,53.26,0,0,0-4.47-5.56c-1.95-2-4.24-3.79-4.86-7.59a4,4,0,0,1,2.44,1.69,24.74,24.74,0,0,1,1.42,2.61,22.08,22.08,0,0,0,2.11,3.15,58.41,58.41,0,0,0,4,4.62,8.61,8.61,0,0,1,2.3,3.34,3.64,3.64,0,0,1,.19,1.63,1.75,1.75,0,0,1-.77,1.38" transform="translate(-812.6 -965.61)"/></g></g><g id="_Group_65" data-name="&lt;Group&gt;"><g id="_Group_66" data-name="&lt;Group&gt;"><path class="cls-1" d="M977.54,1007.76c0.7,2.38.1,4.46,0.81,6.85a7.42,7.42,0,0,1,.42,2.23,4.44,4.44,0,0,1-1.69,3.24,11,11,0,0,1-3.18,1.65,166.12,166.12,0,0,1-16.62,5.49c-7.42,2-15,3.29-22.31,5.67-4.47,1.46-9.05,3.33-13.72,2.46-1.95-.36-3.81-1.2-5.73-1.73a39,39,0,0,0-6.07-1,4.54,4.54,0,0,1,2.79-1.68c1.31-.08,2.09-1.21,3.15-2,5.22-4.06,11.39-5.28,17.4-7.82,7.39-3.12,13.13-6.95,20.52-10.07a84.62,84.62,0,0,1,19.39-5.08,4.61,4.61,0,0,1,3.37.44c1,0.69,2,1.15,1.05,1.86" transform="translate(-812.6 -965.61)"/></g><g id="_Group_67" data-name="&lt;Group&gt;"><path class="cls-2" d="M959.56,1010.75a22.64,22.64,0,0,1,1.05,4.56c0.17,1.38.22,2.77,0.48,4.14a7.15,7.15,0,0,0,1.73,3.69A71.68,71.68,0,0,0,961.6,1012a2.93,2.93,0,0,0-.65-1.5,0.85,0.85,0,0,0-1.34,0" transform="translate(-812.6 -965.61)"/></g><g id="_Group_68" data-name="&lt;Group&gt;"><path class="cls-2" d="M949.94,1015.12a15.81,15.81,0,0,0,3.09,10.67c-1.15-3.16-2.32-6.46-2-9.79a2.19,2.19,0,0,0-.07-1.05,0.56,0.56,0,0,0-.8-0.33" transform="translate(-812.6 -965.61)"/></g><g id="_Group_69" data-name="&lt;Group&gt;"><path class="cls-2" d="M938.47,1020.2a13.62,13.62,0,0,0,3.83,7.62,0.48,0.48,0,0,1,.2.48,0.31,0.31,0,0,1-.11.12,1,1,0,0,1-1.17-.12,3.58,3.58,0,0,1-.82-1,23.31,23.31,0,0,1-2.22-4.28,4.63,4.63,0,0,1-.33-1.78,1.89,1.89,0,0,1,.76-1.51" transform="translate(-812.6 -965.61)"/></g><g id="_Group_70" data-name="&lt;Group&gt;"><path class="cls-2" d="M926.85,1024.36a10.33,10.33,0,0,0,1.6,6,1.81,1.81,0,0,0,2,.9c-0.29-1-1.42-1.59-1.65-2.63a4.79,4.79,0,0,1-.07-0.89,11.12,11.12,0,0,0-.94-3.55,1.41,1.41,0,0,0-.49-0.74,0.41,0.41,0,0,0-.63.31" transform="translate(-812.6 -965.61)"/></g><g id="_Group_71" data-name="&lt;Group&gt;"><path class="cls-2" d="M966.9,1008.68a6.12,6.12,0,0,1,3,3.11,25,25,0,0,1,1.46,4.33,2.58,2.58,0,0,0,.43,1,0.74,0.74,0,0,0,.9.25,1.17,1.17,0,0,0,.28-1.25c-0.44-2.15-2-3.79-3.18-5.62a6.23,6.23,0,0,0-1.35-1.75,1.37,1.37,0,0,0-1.89,0" transform="translate(-812.6 -965.61)"/></g><g id="_Group_72" data-name="&lt;Group&gt;"><path class="cls-3" d="M976.08,1015.19c2.27,1.13,4.31.18,6.29-.52a24.08,24.08,0,0,1,9.77-1.24,19.43,19.43,0,0,0,5.66.08,0.57,0.57,0,0,0,.48-0.36,2,2,0,0,0-1-1.89,4.77,4.77,0,0,0-3.35-.15,88,88,0,0,1-12.43,1.63,0.75,0.75,0,0,1-.78-0.37,1.26,1.26,0,0,1,.37-1.59c2.38-1.75,5.07-2.71,7.58-4.14a13.94,13.94,0,0,0,6.34-6.81c-1-.24-1.66.74-2.38,1.44-1.54,1.52-3.57,1.85-5.27,3a31.36,31.36,0,0,0-3,2.71,30,30,0,0,1-4.44,3.18,0.58,0.58,0,0,1-.94-0.26,1.23,1.23,0,0,1,.19-1.18,63.73,63.73,0,0,1,5.28-7c2.32-2.52,5.08-4.78,5.66-9.5a4.76,4.76,0,0,0-2.95,2.15,29.69,29.69,0,0,0-1.63,3.27,26.44,26.44,0,0,1-2.46,3.94,69.9,69.9,0,0,1-4.7,5.8,10.31,10.31,0,0,0-2.69,4.19,4.46,4.46,0,0,0-.16,2,2.23,2.23,0,0,0,1,1.69" transform="translate(-812.6 -965.61)"/></g></g><g id="_Group_73" data-name="&lt;Group&gt;"><g id="_Group_74" data-name="&lt;Group&gt;"><path class="cls-1" d="M1000.66,1026.62c0.5,1.93,1.79,3.13,2.29,5.06a6,6,0,0,0,.64,1.71,3.7,3.7,0,0,0,2.53,1.57,9.11,9.11,0,0,0,2.91-.12,135.74,135.74,0,0,0,13.89-2.81c6-1.58,11.84-3.68,17.93-4.94,3.72-.77,7.7-1.29,10.6-3.75,1.21-1,2.16-2.34,3.27-3.48a30.82,30.82,0,0,1,3.8-3.13,3.76,3.76,0,0,0-2.65-.06c-0.95.46-2,0-3-.16-5.33-.73-10.15.87-15.4,1.5-6.46.77-12.06,0.41-18.51,1.18a68.84,68.84,0,0,0-15.65,4.19,3.65,3.65,0,0,0-2.17,1.64c-0.4.87-.9,1.58,0,1.71" transform="translate(-812.6 -965.61)"/></g><g id="_Group_75" data-name="&lt;Group&gt;"><path class="cls-2" d="M1014.45,1021.54a18.11,18.11,0,0,0,1.16,3.57c0.45,1,1,2,1.39,3.06a5.64,5.64,0,0,1,.33,3.24,57.82,57.82,0,0,1-3.79-8.19,2.32,2.32,0,0,1-.17-1.3,0.69,0.69,0,0,1,1-.5" transform="translate(-812.6 -965.61)"/></g><g id="_Group_76" data-name="&lt;Group&gt;"><path class="cls-2" d="M1023,1020.74a12.6,12.6,0,0,1,2.29,8.61c-0.51-2.64-1.07-5.4-2.66-7.59a1.78,1.78,0,0,1-.39-0.76,0.44,0.44,0,0,1,.42-0.55" transform="translate(-812.6 -965.61)"/></g><g id="_Group_77" data-name="&lt;Group&gt;"><path class="cls-2" d="M1033.1,1019.7a10.73,10.73,0,0,1,.5,6.8,0.38,0.38,0,0,0,.06.41,0.26,0.26,0,0,0,.13,0,0.81,0.81,0,0,0,.76-0.55,2.79,2.79,0,0,0,.14-1,18.33,18.33,0,0,0-.23-3.85,3.72,3.72,0,0,0-.51-1.36,1.57,1.57,0,0,0-1.16-.74" transform="translate(-812.6 -965.61)"/></g><g id="_Group_78" data-name="&lt;Group&gt;"><path class="cls-2" d="M1042.94,1018a8.25,8.25,0,0,1,1.4,4.82,1.42,1.42,0,0,1-1,1.42c-0.22-.82.32-1.66,0.06-2.47a3.88,3.88,0,0,0-.33-0.64,8.87,8.87,0,0,1-.82-2.83,1.11,1.11,0,0,1,0-.71,0.34,0.34,0,0,1,.57,0" transform="translate(-812.6 -965.61)"/></g><g id="_Group_79" data-name="&lt;Group&gt;"><path class="cls-2" d="M1008.46,1023a4.77,4.77,0,0,0-.82,3.36,19.86,19.86,0,0,0,.78,3.58,2,2,0,0,1,.1.85,0.58,0.58,0,0,1-.52.53,1,1,0,0,1-.72-0.75c-0.59-1.66-.17-3.43-0.12-5.15a4.86,4.86,0,0,1,.21-1.75,1.1,1.1,0,0,1,1.34-.72" transform="translate(-812.6 -965.61)"/></g><g id="_Group_80" data-name="&lt;Group&gt;"><path class="cls-3" d="M1004.76,1031.19c-1.11,1.69-2.93,1.83-4.61,2.14a19.41,19.41,0,0,0-7.33,3,15.5,15.5,0,0,1-3.92,2.31,0.47,0.47,0,0,1-.49-0.06,1.55,1.55,0,0,1-.07-1.72,3.8,3.8,0,0,1,2.28-1.43,70.92,70.92,0,0,0,9.35-3.81,0.59,0.59,0,0,0,.39-0.57,1,1,0,0,0-.92-1c-2.39-.26-4.67.14-7,0.15a11.63,11.63,0,0,1-7.26-2.19c0.58-.56,1.47-0.15,2.26.05,1.71,0.44,3.27-.14,4.94,0a26.15,26.15,0,0,1,3.21.69,24.91,24.91,0,0,0,4.42.43,0.46,0.46,0,0,0,.54-0.55,1,1,0,0,0-.63-0.74,53.26,53.26,0,0,0-6.59-2.73c-2.67-.83-5.54-1.29-7.91-4.33a4,4,0,0,1,3,.32,24.74,24.74,0,0,1,2.5,1.61,22.08,22.08,0,0,0,3.36,1.75,58.41,58.41,0,0,0,5.7,2.15,8.61,8.61,0,0,1,3.62,1.83,3.64,3.64,0,0,1,.95,1.34,1.75,1.75,0,0,1,0,1.58" transform="translate(-812.6 -965.61)"/></g></g><g id="_Group_81" data-name="&lt;Group&gt;"><g id="_Group_82" data-name="&lt;Group&gt;"><path class="cls-1" d="M970.27,1032.9c0.24,2.47-.74,4.4-0.49,6.88a7.42,7.42,0,0,1,0,2.26,4.44,4.44,0,0,1-2.27,2.86,11,11,0,0,1-3.44,1,166.12,166.12,0,0,1-17.36,2.27c-7.66.55-15.36,0.41-23,1.38-4.66.59-9.52,1.57-13.94-.17-1.84-.72-3.51-1.89-5.3-2.78a39,39,0,0,0-5.76-2.16,4.54,4.54,0,0,1,3.05-1.13c1.3,0.17,2.29-.8,3.47-1.41,5.89-3,12.18-3,18.56-4.41,7.84-1.68,14.2-4.36,22-6a84.62,84.62,0,0,1,20-1.34,4.61,4.61,0,0,1,3.23,1.06c0.84,0.86,1.73,1.5.68,2" transform="translate(-812.6 -965.61)"/></g><g id="_Group_83" data-name="&lt;Group&gt;"><path class="cls-2" d="M952,1032.46a22.64,22.64,0,0,1,.18,4.67c-0.09,1.39-.31,2.76-0.3,4.15a7.15,7.15,0,0,0,1,3.95,71.68,71.68,0,0,0,.9-11.16,2.93,2.93,0,0,0-.36-1.6,0.85,0.85,0,0,0-1.32-.2" transform="translate(-812.6 -965.61)"/></g><g id="_Group_84" data-name="&lt;Group&gt;"><path class="cls-2" d="M941.78,1034.94a15.81,15.81,0,0,0,1,11.06c-0.53-3.32-1.06-6.78-.16-10a2.19,2.19,0,0,0,.13-1,0.56,0.56,0,0,0-.72-0.48" transform="translate(-812.6 -965.61)"/></g><g id="_Group_85" data-name="&lt;Group&gt;"><path class="cls-2" d="M929.56,1037.77a13.62,13.62,0,0,0,2.33,8.2,0.48,0.48,0,0,1,.11.51,0.31,0.31,0,0,1-.13.1,1,1,0,0,1-1.12-.34,3.58,3.58,0,0,1-.61-1.17,23.31,23.31,0,0,1-1.38-4.63,4.63,4.63,0,0,1,0-1.81,1.89,1.89,0,0,1,1-1.34" transform="translate(-812.6 -965.61)"/></g><g id="_Group_86" data-name="&lt;Group&gt;"><path class="cls-2" d="M917.36,1039.67a10.33,10.33,0,0,0,.44,6.23,1.81,1.81,0,0,0,1.82,1.26c-0.09-1.06-1.09-1.83-1.13-2.89a4.79,4.79,0,0,1,.1-0.89,11.12,11.12,0,0,0-.26-3.66,1.41,1.41,0,0,0-.34-0.82,0.41,0.41,0,0,0-.68.18" transform="translate(-812.6 -965.61)"/></g><g id="_Group_87" data-name="&lt;Group&gt;"><path class="cls-2" d="M959.65,1031.8a6.12,6.12,0,0,1,2.39,3.62,25,25,0,0,1,.62,4.53,2.58,2.58,0,0,0,.24,1,0.74,0.74,0,0,0,.83.42,1.17,1.17,0,0,0,.51-1.17c0-2.19-1.28-4.1-2.06-6.12a6.23,6.23,0,0,0-1-2,1.37,1.37,0,0,0-1.86-.31" transform="translate(-812.6 -965.61)"/></g><g id="_Group_88" data-name="&lt;Group&gt;"><path class="cls-3" d="M967.44,1039.93c2,1.54,4.2,1,6.28.67a24.08,24.08,0,0,1,9.83.62,19.43,19.43,0,0,0,5.55,1.14,0.57,0.57,0,0,0,.54-0.27A2,2,0,0,0,989,1040a4.77,4.77,0,0,0-3.26-.77,88,88,0,0,1-12.52-.74,0.75,0.75,0,0,1-.69-0.51,1.26,1.26,0,0,1,.66-1.49c2.67-1.27,5.49-1.71,8.23-2.64a13.94,13.94,0,0,0,7.51-5.49c-0.92-.42-1.77.41-2.61,1-1.8,1.2-3.86,1.15-5.74,2a31.36,31.36,0,0,0-3.44,2.1,30,30,0,0,1-5,2.28,0.58,0.58,0,0,1-.87-0.43,1.23,1.23,0,0,1,.41-1.12,63.73,63.73,0,0,1,6.5-5.86c2.75-2,5.89-3.74,7.35-8.27a4.76,4.76,0,0,0-3.3,1.56,29.69,29.69,0,0,0-2.22,2.9,26.44,26.44,0,0,1-3.16,3.41,69.9,69.9,0,0,1-5.71,4.82,10.31,10.31,0,0,0-3.43,3.61,4.46,4.46,0,0,0-.53,2,2.23,2.23,0,0,0,.69,1.85" transform="translate(-812.6 -965.61)"/></g></g><g id="_Group_89" data-name="&lt;Group&gt;"><g id="_Group_90" data-name="&lt;Group&gt;"><path class="cls-1" d="M833.45,1037.89c0.27,2.47,1.62,4.17,1.89,6.63a7.41,7.41,0,0,0,.47,2.21,4.53,4.53,0,0,0,2.82,2.37,11.19,11.19,0,0,0,3.58.35,167.3,167.3,0,0,0,17.51-1.09c7.63-.92,15.17-2.52,22.85-3,4.7-.31,9.67-0.28,13.65-2.82,1.66-1.06,3.07-2.52,4.64-3.73a38.56,38.56,0,0,1,5.22-3.21,4.61,4.61,0,0,0-3.23-.52c-1.25.41-2.41-.35-3.7-0.71-6.4-1.81-12.59-.66-19.13-0.78-8-.15-14.84-1.56-22.89-1.7a85,85,0,0,0-19.92,2.5,4.56,4.56,0,0,0-3,1.66c-0.65,1-1.39,1.8-.26,2.11" transform="translate(-812.6 -965.61)"/></g><g id="_Group_91" data-name="&lt;Group&gt;"><path class="cls-2" d="M851.26,1034a22.57,22.57,0,0,0,.78,4.61c0.37,1.34.87,2.65,1.15,4a7.07,7.07,0,0,1-.18,4.05,71.82,71.82,0,0,1-3.16-10.75,2.9,2.9,0,0,1,0-1.63,0.85,0.85,0,0,1,1.26-.45" transform="translate(-812.6 -965.61)"/></g><g id="_Group_92" data-name="&lt;Group&gt;"><path class="cls-2" d="M861.85,1034.45a15.73,15.73,0,0,1,1.25,11c-0.15-3.35-.34-6.84-1.89-9.81a2.2,2.2,0,0,1-.34-1,0.55,0.55,0,0,1,.61-0.61" transform="translate(-812.6 -965.61)"/></g><g id="_Group_93" data-name="&lt;Group&gt;"><path class="cls-2" d="M874.43,1034.9a13.45,13.45,0,0,1-.61,8.47,0.47,0.47,0,0,0,0,.52,0.32,0.32,0,0,0,.15.07,1,1,0,0,0,1-.55,3.52,3.52,0,0,0,.36-1.26,23,23,0,0,0,.41-4.79,4.63,4.63,0,0,0-.38-1.77,1.92,1.92,0,0,0-1.28-1.11" transform="translate(-812.6 -965.61)"/></g><g id="_Group_94" data-name="&lt;Group&gt;"><path class="cls-2" d="M886.8,1034.42a10.29,10.29,0,0,1,.84,6.18,1.78,1.78,0,0,1-1.53,1.58c-0.13-1.05.7-2,.52-3a4.81,4.81,0,0,0-.28-0.85,11.07,11.07,0,0,1-.49-3.63,1.39,1.39,0,0,1,.17-0.87,0.41,0.41,0,0,1,.7.05" transform="translate(-812.6 -965.61)"/></g><g id="_Group_95" data-name="&lt;Group&gt;"><path class="cls-2" d="M843.66,1034.78a6,6,0,0,0-1.61,4,24.83,24.83,0,0,0,.32,4.55,2.55,2.55,0,0,1,0,1.07,0.73,0.73,0,0,1-.73.57,1.19,1.19,0,0,1-.74-1c-0.42-2.15.42-4.26,0.78-6.38a6.12,6.12,0,0,1,.57-2.12,1.37,1.37,0,0,1,1.77-.66" transform="translate(-812.6 -965.61)"/></g><g id="_Group_96" data-name="&lt;Group&gt;"><path class="cls-3" d="M837.66,1044.22c-1.66,1.89-3.92,1.76-6,1.86a24.06,24.06,0,0,0-9.53,2.48,19.3,19.3,0,0,1-5.22,2.18,0.58,0.58,0,0,1-.58-0.16,2,2,0,0,1,.22-2.13,4.74,4.74,0,0,1,3-1.38,87.9,87.9,0,0,0,12.14-3.11,0.74,0.74,0,0,0,.58-0.63,1.28,1.28,0,0,0-1-1.34c-2.88-.74-5.74-0.63-8.62-1a14.22,14.22,0,0,1-8.5-3.94c0.82-.59,1.83.07,2.76,0.45,2,0.83,4,.39,6,0.84a32,32,0,0,1,3.81,1.4,30.51,30.51,0,0,0,5.34,1.29,0.58,0.58,0,0,0,.77-0.59,1.25,1.25,0,0,0-.63-1,65.1,65.1,0,0,0-7.58-4.5c-3.12-1.47-6.55-2.53-8.91-6.69a4.84,4.84,0,0,1,3.56.89,30.29,30.29,0,0,1,2.77,2.42,27,27,0,0,0,3.8,2.73,71.39,71.39,0,0,0,6.59,3.62,10.53,10.53,0,0,1,4.11,2.87,4.5,4.5,0,0,1,.92,1.81,2.2,2.2,0,0,1-.3,1.95" transform="translate(-812.6 -965.61)"/></g></g></svg>