<svg id="Layer_1" data-name="Layer 1" xmlns="http://www.w3.org/2000/svg" viewBox="0 0 194 92.18"><defs><style>.cls-1{fill:#ffeed5;}.cls-2{fill:#f4d49d;}.cls-3{fill:#44a84f;}.cls-4{fill:#9bc53d;}</style></defs><title>Untitled-4</title><g id="_Group_" data-name="&lt;Group&gt;"><g id="_Group_2" data-name="&lt;Group&gt;"><path class="cls-1" d="M-262.84,433a10.77,10.77,0,0,0-10.73,3.2,19.57,19.57,0,0,0-2,3c-0.78,1.32-1.54,3-.69,4.29,0.67,1,2.12,1.34,2.61,2.44,0.56,1.28-.53,2.72-0.31,4.1a2.27,2.27,0,0,0,1.85,1.84c1.2,0.18,2.47-.62,3.59-0.14,1.72,0.74,1.35,3.71,3,4.53a2,2,0,0,0,2.16-.39,2.63,2.63,0,0,0,.75-2.13,3.26,3.26,0,0,1,0-.86,2,2,0,0,1,1.83-1.25,3.57,3.57,0,0,0,2.2-.71,1.52,1.52,0,0,0-.45-2.31c-0.87-.39-1.91.13-2.83-0.13a2.35,2.35,0,0,1-1.41-2.66,6.86,6.86,0,0,1,1.49-2.9l1-1.42c0.66-.89,1.32-2.13.65-3-0.52-.68-1.54-0.67-2.3-1.07a2.34,2.34,0,0,1-.75-3.31,2.56,2.56,0,0,0,.47-0.7c0.08-.27-0.87-0.59-1.15-0.62" transform="translate(426.11 -384.84)"/></g><g id="_Group_3" data-name="&lt;Group&gt;"><path class="cls-2" d="M-276.92,440.48a5,5,0,0,0-2.19,5.22,4.57,4.57,0,0,1,.08,1.23c-0.19,1.19-1.57,1.71-2.45,2.54a3.69,3.69,0,0,0-.13,5c0.89,0.93,2.3,1.41,2.83,2.59a5.82,5.82,0,0,1,.08,2.86,2.59,2.59,0,0,0,.93,2.57c1.53,0.85,3.49-1.31,5-.5,0.92,0.48,1.13,1.79,2,2.34a3.22,3.22,0,0,0,2.07.22,1,1,0,0,0,.49-0.14,3.3,3.3,0,0,0,.51-1.08c0.43-.65,1.48-0.33,2.17-0.69,1.19-.62.59-2.7,1.65-3.54a2.18,2.18,0,0,1,.81-0.36,15.39,15.39,0,0,0,2-.52,2.13,2.13,0,0,0,1.35-1.42,2.82,2.82,0,0,0-.52-1.89,1.19,1.19,0,0,0-.58-0.61c-0.58-.19-1,0.49-1.46.92a2.11,2.11,0,0,1-2.72.1c-1.17-1-1.07-3-2.39-3.8s-3.25.51-4.72-.15a2.91,2.91,0,0,1-1.43-2.65c0-1.06.23-2.11,0.22-3.17a6,6,0,0,0-2.06-4.4C-275.85,440.77-276.08,440-276.92,440.48Z" transform="translate(426.11 -384.84)"/></g><g id="_Group_4" data-name="&lt;Group&gt;"><path class="cls-1" d="M-248.65,444.42l-2.9-.52a2,2,0,0,0-1,0,2.77,2.77,0,0,0-.84.58,7.72,7.72,0,0,1-2.8,1.22,6.85,6.85,0,0,0-2.76,1.29,2.43,2.43,0,0,0-.73,2.76,1.13,1.13,0,0,1,.24.91,0.82,0.82,0,0,1-.5.36c-0.87.32-1.78,0.53-2.62,0.93a3.62,3.62,0,0,0-1.94,1.89,2,2,0,0,0,.81,2.41,2.74,2.74,0,0,0,1.14.21,12.1,12.1,0,0,0,2.78-.25,2.28,2.28,0,0,0,1.65-1,4.6,4.6,0,0,0,.15-1.88,2.77,2.77,0,0,1,1.93-2.43c1.07-.32,2.33,0,3.28-0.56a6.14,6.14,0,0,0,1.23-1.34,1.76,1.76,0,0,1,1.57-.75,3.39,3.39,0,0,1,1.25.85,2.92,2.92,0,0,0,4.24-1,2.92,2.92,0,0,0-1.93-3.91c-1.25-.28-2.6.31-3.8-0.13" transform="translate(426.11 -384.84)"/></g><g id="_Group_5" data-name="&lt;Group&gt;"><path class="cls-3" d="M-279.61,452.43a5.27,5.27,0,0,1,.1-3.34c0.27-.47.68-0.87,0.92-1.36a4.93,4.93,0,0,0,.18-2.92c-0.05-.38,0-1.77-0.39-1.92s-0.55.14-.76,1c-0.4,1.61-2.79,2-2.8,3.7a10.07,10.07,0,0,1,0,2.69c-0.3,1-1.3,1.7-1.84,2.63-1.07,1.83-.08,4.3,1.61,5.57,1.4,1.06,3.29,1.61,4.18,3.13a6.07,6.07,0,0,1,.64,2.32A21.26,21.26,0,0,0-277,468a5.28,5.28,0,0,0,2.54,3.19c2.78,1.33,6.24-1,9.1.15,0.6,0.24,1.14.62,1.72,0.91,2.22,1.11,4.86.77,7.28,0.24A6.33,6.33,0,0,0-253,471a2.36,2.36,0,0,0,.1-3.32,3.46,3.46,0,0,0-1.46-.58l-5.92-1.34c-1.22-.28-2.63-0.72-3-1.91-0.2-.61-0.13-1.39-0.66-1.74a1.32,1.32,0,0,0-1.33.1,6.24,6.24,0,0,1-1.23.68c-1.52.44-2.75-1.4-4.31-1.7-1.29-.24-2.68.62-3.9,0.13a3.8,3.8,0,0,1-1.55-1.51c-1.56-2.25-3.17-4.66-3.28-7.39" transform="translate(426.11 -384.84)"/></g><g id="_Group_6" data-name="&lt;Group&gt;"><path class="cls-4" d="M-255.12,471.24c-0.48-1.28.28-1.43,1.32-2.32a23.81,23.81,0,0,1,3.51-2.09,8.83,8.83,0,0,0,3.35-3.38,11.62,11.62,0,0,1,.75-1.41c0.7-1,1.9-1.49,2.7-2.4,1.46-1.66,1.31-4.3,2.77-6,0.67-.76,1.6-1.23,2.29-2a5.72,5.72,0,0,0,1.16-5,16.92,16.92,0,0,0-2.07-4.87l-1.08-1.94a10.68,10.68,0,0,0-1.22-1.88c-1.24-1.43-2.26-2.45-4.14-2.62s-2.3-1.33-3.87-1.77c-0.66-.19-5.86-1.83-6.54-1.95s-1.06-1.12.37-1.8a13.82,13.82,0,0,1,4.28-.56c2.31,0.2,3.78,2.39,6.07,2.77s5.1,1.1,6.72,2.76c2.5,2.57,3.46,4.1,4.33,8.66,0.2,1.06,0,4.87.54,5.83,0.91,1.75,1.74,3,1.76,5a8.13,8.13,0,0,1-.84,4.52,11.26,11.26,0,0,1-3.28,2.78c-2.76,2-4.84,4.74-7.31,7.05s-5.66,4.27-9,4c-1.13-.1-2.42-0.66-2.62-1.78a2.16,2.16,0,0,1,.86-2,6.37,6.37,0,0,1,2-1" transform="translate(426.11 -384.84)"/></g><g id="_Group_7" data-name="&lt;Group&gt;"><path class="cls-1" d="M-248.57,458.45l1.38,3.79a5.22,5.22,0,0,1,.39,1.58,3.45,3.45,0,0,1-2.36,3.11,8.29,8.29,0,0,0-1.78.69,9.23,9.23,0,0,0-1,1c-1.75,1.61-4.68,1.41-6.55-.06a6.88,6.88,0,0,0-1.7-1.21,7.05,7.05,0,0,0-1.74-.25,4.74,4.74,0,0,1-4-3,1.73,1.73,0,0,1-.07-1,5.82,5.82,0,0,1,.39-0.77c0.33-.71.18-1.57,0.48-2.3a3.9,3.9,0,0,1,2.21-1.75c1.38-.62,2.92-1.26,4.37-0.8s2.41,1.86,3.87,2.14,2.62-.48,3.89-1c0.84-.33,2-0.44,2.45.35" transform="translate(426.11 -384.84)"/></g><g id="_Group_8" data-name="&lt;Group&gt;"><path class="cls-2" d="M-258.55,455.11c0.55-.51-0.14-1.06-0.09-1.78a2.23,2.23,0,0,1,.1-0.47,7.54,7.54,0,0,1,1.12-2.51A3.15,3.15,0,0,1-255,449c0.62,0,1.21.24,1.82,0.21a3.65,3.65,0,0,0,2.32-1.32,8.75,8.75,0,0,1,2-1.84,2,2,0,0,1,2.49.24,4.43,4.43,0,0,0,.79,1.21,2.58,2.58,0,0,0,1.77,0,3.36,3.36,0,0,1,3.2,1.37,3.57,3.57,0,0,1,.28,3.42,3.2,3.2,0,0,0-.4,1.16,2.46,2.46,0,0,0,.72,1.44,10.35,10.35,0,0,1,1.91,4,3.1,3.1,0,0,1,.08,1.33,4,4,0,0,1-1.54,2,9.14,9.14,0,0,1-3.46,2.14c-2.16.56-4.6-.46-6.57,0.59-0.55.29-1,.73-1.59,1a4.1,4.1,0,0,1-3.79-.71c-1.38-.94-2.69-2.32-4.4-2.18a5.34,5.34,0,0,1-2.18.17,2.21,2.21,0,0,1-1.1-1.14c-0.93-1.73-1.27-4.15.3-5.47C-261.16,455.59-260.1,456.55-258.55,455.11Z" transform="translate(426.11 -384.84)"/></g><g id="_Group_9" data-name="&lt;Group&gt;"><path class="cls-1" d="M-250,444.72a1.36,1.36,0,0,0,.3-1.69,3.53,3.53,0,0,1-.49-1.79,2.17,2.17,0,0,1,.47-0.92,8.7,8.7,0,0,1,2.87-2.42c0.67-.35,1.52-1,1.16-1.64a1.64,1.64,0,0,1-.25-0.43,0.68,0.68,0,0,1,.59-0.64,3.44,3.44,0,0,1,4,2,4.69,4.69,0,0,0,.57,1.35,3.27,3.27,0,0,0,.86.65,8.72,8.72,0,0,1,3.76,5,4.53,4.53,0,0,1,.09,2.46,21.65,21.65,0,0,0-.9,2.25c-0.15.86,0.18,1.74,0.08,2.61s0.3,1-1.12,3.18a20.89,20.89,0,0,1-2.17,2.56c-4.63,5.3-3.07-.11-3.5-0.4-1.08-.71.18-3.76-0.91-4.45a1.87,1.87,0,0,1-.73-1.61A16.58,16.58,0,0,1-245,449a5.52,5.52,0,0,0-.22-2.26,1.66,1.66,0,0,0-.74-1,2.62,2.62,0,0,0-1.41,0,3.75,3.75,0,0,1-2.38-.59l0-.53" transform="translate(426.11 -384.84)"/></g><g id="_Group_10" data-name="&lt;Group&gt;"><path class="cls-2" d="M-245.12,435.75a0.77,0.77,0,0,0-.55-0.93c-0.49-.28-2.16-0.22-2.41-0.73a4.61,4.61,0,0,0-4.2-2.57,14.62,14.62,0,0,1-3.09.25c-0.69-.12-1.31-0.51-2-0.67a6.59,6.59,0,0,0-2.06-.06c-1.57.12-3.36,0.36-4.2,1.7a5.06,5.06,0,0,0-.55,2.52,2.66,2.66,0,0,0,.41,1.87c0.63,0.73,1.83.57,2.61,1.14a2.39,2.39,0,0,1,.42,3,9.93,9.93,0,0,1-2.15,2.4,4.24,4.24,0,0,0-1.53,2.77,2.85,2.85,0,0,0,1.31,2.39,3.67,3.67,0,0,0,2.71.47,2.33,2.33,0,0,0,1.8-1.3,4.05,4.05,0,0,1,.19-0.54c0.41-.75,1.5-0.52,2.35-0.48a3.69,3.69,0,0,0,3.45-2.13,1.4,1.4,0,0,1,.32-0.53c0.64-.54,1.48.64,2.31,0.57s1-1.17.82-1.95-0.58-1.64-.21-2.35a2.19,2.19,0,0,1,.79-0.76c0.69-.45,1.35-0.93,2-1.39a3.78,3.78,0,0,0,1.42-2.65" transform="translate(426.11 -384.84)"/></g></g><g id="_Group_11" data-name="&lt;Group&gt;"><g id="_Group_12" data-name="&lt;Group&gt;"><path class="cls-1" d="M-406,437.17a10,10,0,0,0-9.92,3,18.1,18.1,0,0,0-1.9,2.76c-0.72,1.22-1.42,2.79-.64,4,0.62,0.93,2,1.24,2.41,2.26,0.52,1.18-.49,2.52-0.29,3.79a2.1,2.1,0,0,0,1.71,1.7c1.11,0.17,2.29-.58,3.32-0.13,1.59,0.69,1.24,3.43,2.81,4.19a1.84,1.84,0,0,0,2-.36,2.43,2.43,0,0,0,.69-2,3,3,0,0,1,0-.8,1.8,1.8,0,0,1,1.69-1.15,3.3,3.3,0,0,0,2-.66,1.4,1.4,0,0,0-.42-2.14c-0.8-.36-1.77.12-2.61-0.12a2.18,2.18,0,0,1-1.3-2.46,6.35,6.35,0,0,1,1.38-2.68l1-1.32c0.61-.82,1.22-2,0.6-2.78-0.48-.63-1.42-0.62-2.12-1a2.16,2.16,0,0,1-.7-3.06,2.37,2.37,0,0,0,.43-0.65c0.08-.25-0.8-0.54-1.06-0.57" transform="translate(426.11 -384.84)"/></g><g id="_Group_13" data-name="&lt;Group&gt;"><path class="cls-2" d="M-419,444.06a4.67,4.67,0,0,0-2,4.83A4.23,4.23,0,0,1-421,450c-0.18,1.1-1.45,1.58-2.26,2.35a3.41,3.41,0,0,0-.12,4.65c0.82,0.86,2.13,1.3,2.62,2.39a5.38,5.38,0,0,1,.08,2.64,2.4,2.4,0,0,0,.86,2.38c1.41,0.79,3.23-1.21,4.66-.46,0.85,0.45,1,1.65,1.87,2.16a3,3,0,0,0,1.91.21,1,1,0,0,0,.45-0.13,3.05,3.05,0,0,0,.47-1c0.4-.6,1.37-0.3,2-0.64,1.1-.58.55-2.5,1.52-3.27a2,2,0,0,1,.75-0.33,14.23,14.23,0,0,0,1.82-.48,2,2,0,0,0,1.25-1.31,2.61,2.61,0,0,0-.48-1.75,1.1,1.1,0,0,0-.54-0.56c-0.54-.18-0.94.46-1.35,0.85a2,2,0,0,1-2.51.09c-1.08-.9-1-2.81-2.21-3.51s-3,.47-4.36-0.14a2.69,2.69,0,0,1-1.33-2.45c0-1,.22-2,0.2-2.93a5.55,5.55,0,0,0-1.91-4.07C-418,444.33-418.23,443.6-419,444.06Z" transform="translate(426.11 -384.84)"/></g><g id="_Group_14" data-name="&lt;Group&gt;"><path class="cls-1" d="M-392.86,447.71l-2.68-.48a1.87,1.87,0,0,0-.89,0,2.56,2.56,0,0,0-.78.54,7.14,7.14,0,0,1-2.59,1.13,6.34,6.34,0,0,0-2.55,1.19,2.25,2.25,0,0,0-.68,2.56,1,1,0,0,1,.23.84,0.76,0.76,0,0,1-.46.33c-0.8.3-1.65,0.49-2.42,0.86a3.35,3.35,0,0,0-1.79,1.75,1.82,1.82,0,0,0,.75,2.23,2.53,2.53,0,0,0,1.05.2,11.19,11.19,0,0,0,2.57-.23,2.11,2.11,0,0,0,1.53-.89,4.26,4.26,0,0,0,.14-1.74,2.56,2.56,0,0,1,1.78-2.24c1-.29,2.16,0,3-0.52a5.68,5.68,0,0,0,1.14-1.24,1.63,1.63,0,0,1,1.45-.7,3.14,3.14,0,0,1,1.16.79,2.7,2.7,0,0,0,3.92-.95,2.7,2.7,0,0,0-1.78-3.62c-1.15-.25-2.41.29-3.52-0.12" transform="translate(426.11 -384.84)"/></g><g id="_Group_15" data-name="&lt;Group&gt;"><path class="cls-3" d="M-421.49,455.12a4.87,4.87,0,0,1,.09-3.09c0.25-.44.63-0.8,0.85-1.25a4.56,4.56,0,0,0,.16-2.7c0-.35,0-1.64-0.37-1.77s-0.5.13-.7,0.9c-0.37,1.49-2.58,1.89-2.59,3.42a9.31,9.31,0,0,1,0,2.49c-0.28,1-1.2,1.57-1.7,2.43-1,1.69-.07,4,1.49,5.15,1.3,1,3,1.49,3.86,2.9a5.62,5.62,0,0,1,.59,2.14,19.67,19.67,0,0,0,.66,3.81,4.88,4.88,0,0,0,2.34,2.95c2.57,1.23,5.77-.92,8.42.14,0.56,0.22,1.05.58,1.59,0.84,2.05,1,4.5.71,6.74,0.22a5.85,5.85,0,0,0,3.09-1.4,2.19,2.19,0,0,0,.09-3.07,3.2,3.2,0,0,0-1.35-.53l-5.47-1.24c-1.13-.26-2.44-0.67-2.8-1.77-0.18-.56-0.12-1.29-0.61-1.61a1.22,1.22,0,0,0-1.23.09,5.77,5.77,0,0,1-1.13.63c-1.41.41-2.54-1.3-4-1.57-1.2-.23-2.48.58-3.61,0.12a3.51,3.51,0,0,1-1.43-1.39c-1.44-2.08-2.93-4.31-3-6.84" transform="translate(426.11 -384.84)"/></g><g id="_Group_16" data-name="&lt;Group&gt;"><path class="cls-4" d="M-398.84,472.51c-0.45-1.18.26-1.32,1.22-2.15a22,22,0,0,1,3.25-1.93,8.17,8.17,0,0,0,3.09-3.12,10.75,10.75,0,0,1,.7-1.3c0.65-.91,1.76-1.38,2.5-2.22,1.35-1.53,1.21-4,2.56-5.52,0.62-.7,1.48-1.14,2.12-1.82a5.29,5.29,0,0,0,1.07-4.61,15.65,15.65,0,0,0-1.91-4.5l-1-1.8a9.87,9.87,0,0,0-1.13-1.74c-1.15-1.32-2.09-2.27-3.83-2.42s-2.13-1.23-3.58-1.64c-0.61-.17-5.42-1.7-6-1.8s-1-1,.35-1.66a12.78,12.78,0,0,1,4-.51c2.14,0.18,3.5,2.21,5.61,2.56s4.72,1,6.22,2.55c2.31,2.37,3.2,3.79,4,8,0.19,1,0,4.5.5,5.39,0.84,1.62,1.61,2.82,1.63,4.64a7.52,7.52,0,0,1-.78,4.18,10.41,10.41,0,0,1-3,2.57c-2.56,1.82-4.47,4.38-6.76,6.52s-5.24,4-8.36,3.66c-1-.1-2.24-0.61-2.43-1.64a2,2,0,0,1,.79-1.82,5.89,5.89,0,0,1,1.87-.9" transform="translate(426.11 -384.84)"/></g><g id="_Group_17" data-name="&lt;Group&gt;"><path class="cls-1" d="M-392.78,460.68l1.27,3.5a4.83,4.83,0,0,1,.36,1.46,3.19,3.19,0,0,1-2.18,2.88,7.67,7.67,0,0,0-1.64.64,8.54,8.54,0,0,0-.95.88A4.83,4.83,0,0,1-402,470a6.36,6.36,0,0,0-1.57-1.12,6.52,6.52,0,0,0-1.61-.23,4.38,4.38,0,0,1-3.73-2.73,1.6,1.6,0,0,1-.07-1,5.38,5.38,0,0,1,.36-0.71c0.31-.66.16-1.45,0.44-2.12a3.61,3.61,0,0,1,2-1.62c1.28-.57,2.7-1.16,4-0.74s2.23,1.72,3.58,2,2.42-.45,3.59-0.9c0.78-.3,1.86-0.4,2.27.33" transform="translate(426.11 -384.84)"/></g><g id="_Group_18" data-name="&lt;Group&gt;"><path class="cls-2" d="M-402,457.6c0.51-.47-0.13-1-0.08-1.64a2.06,2.06,0,0,1,.09-0.43,7,7,0,0,1,1-2.32,2.92,2.92,0,0,1,2.22-1.22c0.57,0,1.12.22,1.69,0.19a3.37,3.37,0,0,0,2.15-1.22,8.09,8.09,0,0,1,1.84-1.7,1.87,1.87,0,0,1,2.3.22,4.09,4.09,0,0,0,.73,1.12,2.38,2.38,0,0,0,1.64,0,3.11,3.11,0,0,1,3,1.26,3.3,3.3,0,0,1,.26,3.16,3,3,0,0,0-.37,1.07,2.27,2.27,0,0,0,.66,1.33,9.57,9.57,0,0,1,1.77,3.7,2.86,2.86,0,0,1,.08,1.23,3.71,3.71,0,0,1-1.43,1.87,8.45,8.45,0,0,1-3.2,2c-2,.52-4.26-0.42-6.07.54-0.51.27-.94,0.67-1.47,0.9a3.8,3.8,0,0,1-3.51-.66c-1.27-.87-2.49-2.15-4.07-2a4.94,4.94,0,0,1-2,.16,2,2,0,0,1-1-1.06c-0.86-1.6-1.17-3.84.28-5.06C-404.43,458-403.45,458.93-402,457.6Z" transform="translate(426.11 -384.84)"/></g><g id="_Group_19" data-name="&lt;Group&gt;"><path class="cls-1" d="M-394.11,448a1.26,1.26,0,0,0,.27-1.57,3.27,3.27,0,0,1-.45-1.65,2,2,0,0,1,.43-0.85,8,8,0,0,1,2.65-2.24c0.62-.32,1.41-0.91,1.07-1.51a1.52,1.52,0,0,1-.24-0.4,0.63,0.63,0,0,1,.55-0.59,3.18,3.18,0,0,1,3.74,1.84,4.34,4.34,0,0,0,.52,1.24,3,3,0,0,0,.8.6,8.07,8.07,0,0,1,3.48,4.65,4.19,4.19,0,0,1,.08,2.27,20,20,0,0,0-.83,2.08c-0.14.8,0.17,1.61,0.07,2.41s0.28,0.93-1,2.94a19.32,19.32,0,0,1-2,2.37c-4.29,4.9-2.84-.11-3.24-0.37-1-.66.16-3.47-0.84-4.12a1.73,1.73,0,0,1-.67-1.48,15.33,15.33,0,0,1,.22-1.68,5.11,5.11,0,0,0-.2-2.09,1.53,1.53,0,0,0-.68-1,2.42,2.42,0,0,0-1.3,0,3.47,3.47,0,0,1-2.21-.55l0-.49" transform="translate(426.11 -384.84)"/></g><g id="_Group_20" data-name="&lt;Group&gt;"><path class="cls-2" d="M-389.6,439.69a0.71,0.71,0,0,0-.51-0.86c-0.46-.26-2-0.2-2.23-0.67a4.27,4.27,0,0,0-3.89-2.37,13.52,13.52,0,0,1-2.86.23c-0.64-.12-1.21-0.47-1.84-0.62a6.1,6.1,0,0,0-1.91-.06c-1.45.11-3.11,0.34-3.88,1.57a4.68,4.68,0,0,0-.51,2.33,2.46,2.46,0,0,0,.38,1.73c0.58,0.68,1.69.53,2.41,1.06a2.21,2.21,0,0,1,.38,2.74,9.18,9.18,0,0,1-2,2.22,3.93,3.93,0,0,0-1.42,2.56,2.64,2.64,0,0,0,1.21,2.21,3.4,3.4,0,0,0,2.51.43,2.15,2.15,0,0,0,1.66-1.2,3.75,3.75,0,0,1,.18-0.5c0.38-.69,1.39-0.48,2.17-0.45a3.41,3.41,0,0,0,3.19-2,1.29,1.29,0,0,1,.3-0.49c0.59-.5,1.37.59,2.14,0.53s0.94-1.08.76-1.8a3.16,3.16,0,0,1-.2-2.17,2,2,0,0,1,.73-0.71c0.64-.42,1.25-0.86,1.88-1.29a3.5,3.5,0,0,0,1.31-2.45" transform="translate(426.11 -384.84)"/></g></g><g id="_Group_21" data-name="&lt;Group&gt;"><g id="_Group_22" data-name="&lt;Group&gt;"><path class="cls-1" d="M-288.54,407.27a9.12,9.12,0,0,0-9.48.14,16.57,16.57,0,0,0-2.36,2c-0.94.9-1.95,2.1-1.55,3.34,0.31,1,1.42,1.58,1.56,2.59,0.16,1.17-1.05,2.1-1.2,3.27a1.92,1.92,0,0,0,1.08,1.92c0.93,0.42,2.16.06,3,.71,1.23,1,.24,3.34,1.43,4.39a1.68,1.68,0,0,0,1.85.18,2.23,2.23,0,0,0,1.1-1.56,2.76,2.76,0,0,1,.17-0.71,1.65,1.65,0,0,1,1.77-.6,3,3,0,0,0,2-.07,1.28,1.28,0,0,0,.16-2c-0.62-.52-1.59-0.33-2.27-0.75a2,2,0,0,1-.54-2.49,5.81,5.81,0,0,1,1.88-2l1.18-.92c0.74-.57,1.56-1.43,1.22-2.3-0.27-.67-1.1-0.9-1.62-1.4a2,2,0,0,1,.15-2.87,2.17,2.17,0,0,0,.54-0.46,1.31,1.31,0,0,0-.79-0.77" transform="translate(426.11 -384.84)"/></g><g id="_Group_23" data-name="&lt;Group&gt;"><path class="cls-2" d="M-301.72,410.11a4.27,4.27,0,0,0-3,3.75,3.87,3.87,0,0,1-.22,1c-0.43.93-1.67,1-2.58,1.51a3.12,3.12,0,0,0-1.26,4.07c0.51,1,1.55,1.68,1.71,2.76a4.92,4.92,0,0,1-.59,2.35,2.19,2.19,0,0,0,.17,2.31c1.05,1,3.15-.27,4.22.75,0.64,0.61.51,1.72,1.11,2.37a2.73,2.73,0,0,0,1.63.66,0.88,0.88,0,0,0,.43,0,2.79,2.79,0,0,0,.67-0.76c0.5-.43,1.28.07,1.93-0.06,1.11-.23,1.1-2.07,2.15-2.51a1.84,1.84,0,0,1,.74-0.11,13,13,0,0,0,1.72,0,1.8,1.8,0,0,0,1.42-.85,2.39,2.39,0,0,0,0-1.66,1,1,0,0,0-.34-0.63c-0.43-.29-0.94.17-1.4,0.41a1.79,1.79,0,0,1-2.24-.55c-0.73-1.06-.17-2.72-1.07-3.64s-2.77-.33-3.81-1.2a2.46,2.46,0,0,1-.56-2.49c0.22-.87.68-1.66,0.9-2.53a5.08,5.08,0,0,0-.67-4.06C-300.92,410.59-300.92,409.89-301.72,410.11Z" transform="translate(426.11 -384.84)"/></g><g id="_Group_24" data-name="&lt;Group&gt;"><path class="cls-1" d="M-279.59,419.82l-2.25-1.09a1.71,1.71,0,0,0-.78-0.23,2.35,2.35,0,0,0-.82.28,6.54,6.54,0,0,1-2.56.35,5.8,5.8,0,0,0-2.55.42,2.06,2.06,0,0,0-1.23,2.09,1,1,0,0,1,0,.8,0.69,0.69,0,0,1-.49.18c-0.78.06-1.57,0-2.35,0.16a3.07,3.07,0,0,0-2,1.1,1.66,1.66,0,0,0,.1,2.15,2.32,2.32,0,0,0,.88.43,10.24,10.24,0,0,0,2.32.43,1.93,1.93,0,0,0,1.57-.4,3.9,3.9,0,0,0,.56-1.5,2.34,2.34,0,0,1,2.13-1.53c0.95,0,1.89.56,2.8,0.29a5.2,5.2,0,0,0,1.31-.81,1.49,1.49,0,0,1,1.45-.25,2.87,2.87,0,0,1,.82,1,2.47,2.47,0,0,0,3.69.14,2.47,2.47,0,0,0-.67-3.63c-1-.51-2.19-0.34-3.07-1" transform="translate(426.11 -384.84)"/></g><g id="_Group_25" data-name="&lt;Group&gt;"><path class="cls-3" d="M-306.66,419.23a4.46,4.46,0,0,1,.85-2.7c0.33-.32.75-0.55,1.06-0.89a4.18,4.18,0,0,0,.81-2.34c0-.32.37-1.45,0.12-1.65s-0.48,0-.84.62c-0.7,1.22-2.74,1-3.13,2.37a8.53,8.53,0,0,1-.58,2.2c-0.48.77-1.45,1.09-2.1,1.72-1.29,1.24-1.05,3.48,0,4.91,0.9,1.19,2.32,2.07,2.68,3.51a5.14,5.14,0,0,1,0,2,18,18,0,0,0-.36,3.52,4.47,4.47,0,0,0,1.33,3.18c2,1.72,5.31.62,7.38,2.21,0.44,0.33.78,0.77,1.19,1.14,1.55,1.41,3.79,1.74,5.88,1.87a5.36,5.36,0,0,0,3.07-.47,2,2,0,0,0,.84-2.68,2.93,2.93,0,0,0-1.06-.81l-4.52-2.45c-0.93-.51-2-1.19-2-2.25a2.5,2.5,0,0,0-.14-1.57,1.11,1.11,0,0,0-1.11-.22,5.29,5.29,0,0,1-1.16.27c-1.34,0-1.92-1.77-3.12-2.37-1-.5-2.32-0.11-3.21-0.79a3.21,3.21,0,0,1-.92-1.58c-0.75-2.19-1.52-4.53-1-6.78" transform="translate(426.11 -384.84)"/></g><g id="_Group_26" data-name="&lt;Group&gt;"><path class="cls-4" d="M-291,440.18c-0.1-1.15.56-1.1,1.61-1.59a20.16,20.16,0,0,1,3.34-.9,7.48,7.48,0,0,0,3.5-2,9.84,9.84,0,0,1,.94-1c0.8-.64,1.89-0.78,2.75-1.33,1.57-1,2.05-3.21,3.62-4.23,0.72-.47,1.59-0.64,2.32-1.08a4.85,4.85,0,0,0,2.09-3.8,14.33,14.33,0,0,0-.57-4.44l-0.43-1.83a9,9,0,0,0-.56-1.81c-0.68-1.45-1.28-2.52-2.77-3.08s-1.57-1.61-2.75-2.33c-0.49-.3-4.36-2.84-4.88-3.09s-0.61-1.16.72-1.38a11.7,11.7,0,0,1,3.61.53c1.84,0.69,2.53,2.82,4.31,3.65s3.91,2.06,4.84,3.79c1.45,2.66,1.88,4.13,1.54,8.05-0.08.91-1.08,4-.9,4.87,0.34,1.64.71,2.88,0.28,4.5a6.88,6.88,0,0,1-1.72,3.49,9.53,9.53,0,0,1-3.32,1.51c-2.7,1-5,2.75-7.58,4.07s-5.59,2.18-8.28,1.15a2.3,2.3,0,0,1-1.73-2.05,1.83,1.83,0,0,1,1.15-1.41,5.39,5.39,0,0,1,1.87-.33" transform="translate(426.11 -384.84)"/></g><g id="_Group_27" data-name="&lt;Group&gt;"><path class="cls-1" d="M-282.74,431.26l0.25,3.4a4.42,4.42,0,0,1,0,1.38,2.92,2.92,0,0,1-2.64,2,7,7,0,0,0-1.61.15,7.82,7.82,0,0,0-1.05.54,4.43,4.43,0,0,1-5.33-1.55,5.83,5.83,0,0,0-1.11-1.38,6,6,0,0,0-1.36-.6,4,4,0,0,1-2.61-3.33,1.46,1.46,0,0,1,.18-0.86,4.93,4.93,0,0,1,.49-0.53c0.44-.5.51-1.24,0.92-1.76a3.31,3.31,0,0,1,2.2-.92,5.37,5.37,0,0,1,3.74.35c1.05,0.69,1.54,2.07,2.66,2.63s2.25,0.21,3.39.1c0.76-.07,1.74.11,1.92,0.85" transform="translate(426.11 -384.84)"/></g><g id="_Group_28" data-name="&lt;Group&gt;"><path class="cls-2" d="M-290.11,426.25c0.57-.29.13-0.89,0.34-1.47a1.89,1.89,0,0,1,.19-0.36,6.39,6.39,0,0,1,1.49-1.79,2.67,2.67,0,0,1,2.26-.53c0.5,0.14.93,0.47,1.44,0.59a3.09,3.09,0,0,0,2.2-.54,7.41,7.41,0,0,1,2-1,1.71,1.71,0,0,1,2,.76,3.75,3.75,0,0,0,.36,1.17,2.18,2.18,0,0,0,1.45.39,2.85,2.85,0,0,1,2.3,1.85,3,3,0,0,1-.56,2.85,2.71,2.71,0,0,0-.59.85,2.08,2.08,0,0,0,.26,1.34,8.76,8.76,0,0,1,.64,3.69,2.62,2.62,0,0,1-.24,1.1,3.4,3.4,0,0,1-1.72,1.3,7.74,7.74,0,0,1-3.31.95c-1.88,0-3.65-1.43-5.48-1-0.51.11-1,.36-1.52,0.43a3.47,3.47,0,0,1-2.93-1.45c-0.91-1.08-1.66-2.51-3.08-2.79a4.53,4.53,0,0,1-1.81-.36,1.87,1.87,0,0,1-.63-1.18c-0.36-1.63-.08-3.67,1.5-4.39C-292.35,426-291.71,427.07-290.11,426.25Z" transform="translate(426.11 -384.84)"/></g><g id="_Group_29" data-name="&lt;Group&gt;"><path class="cls-1" d="M-280.76,419.75a1.16,1.16,0,0,0,.63-1.31,3,3,0,0,1,0-1.57,1.84,1.84,0,0,1,.59-0.64,7.36,7.36,0,0,1,2.9-1.31c0.62-.13,1.46-0.45,1.32-1.07a1.39,1.39,0,0,1-.11-0.41,0.58,0.58,0,0,1,.63-0.38,2.91,2.91,0,0,1,2.84,2.55,4,4,0,0,0,.15,1.23,2.77,2.77,0,0,0,.55.73,7.39,7.39,0,0,1,1.91,5,3.83,3.83,0,0,1-.49,2,18.33,18.33,0,0,0-1.25,1.63c-0.32.67-.25,1.46-0.54,2.14s0,0.89-1.64,2.33a17.69,17.69,0,0,1-2.36,1.59c-5,3.25-2.47-.8-2.76-1.13-0.71-.83,1-3,0.28-3.84a1.59,1.59,0,0,1-.22-1.48,14,14,0,0,1,.61-1.43,4.68,4.68,0,0,0,.34-1.89,1.4,1.4,0,0,0-.36-1,2.22,2.22,0,0,0-1.14-.35,3.18,3.18,0,0,1-1.81-1l0.16-.42" transform="translate(426.11 -384.84)"/></g><g id="_Group_30" data-name="&lt;Group&gt;"><path class="cls-2" d="M-274.72,413.55a0.65,0.65,0,0,0-.23-0.89c-0.34-.34-1.71-0.67-1.79-1.15a3.91,3.91,0,0,0-2.84-3.06,12.37,12.37,0,0,1-2.57-.51c-0.53-.26-0.95-0.71-1.46-1a5.58,5.58,0,0,0-1.67-.53c-1.3-.26-2.82-0.48-3.81.42a4.29,4.29,0,0,0-1,1.93,2.25,2.25,0,0,0-.1,1.62c0.35,0.74,1.36.89,1.86,1.53a2,2,0,0,1-.34,2.51,8.4,8.4,0,0,1-2.3,1.46,3.59,3.59,0,0,0-1.88,1.9,2.42,2.42,0,0,0,.52,2.25,3.11,3.11,0,0,0,2.1,1,2,2,0,0,0,1.76-.64,3.43,3.43,0,0,1,.28-0.39c0.51-.52,1.34-0.08,2,0.15a3.12,3.12,0,0,0,3.3-.95,1.18,1.18,0,0,1,.38-0.36c0.65-.29,1.06.86,1.75,1s1.09-.72,1.11-1.4a2.89,2.89,0,0,1,.37-2,1.86,1.86,0,0,1,.82-0.44c0.66-.21,1.32-0.45,2-0.67a3.2,3.2,0,0,0,1.77-1.83" transform="translate(426.11 -384.84)"/></g></g><g id="_Group_31" data-name="&lt;Group&gt;"><g id="_Group_32" data-name="&lt;Group&gt;"><path class="cls-1" d="M-266.66,411.89a8.59,8.59,0,0,0,3.84,8.06,15.61,15.61,0,0,0,2.61,1.25c1.14,0.45,2.56.84,3.47,0,0.71-.65.79-1.84,1.6-2.35s2.21,0.08,3.27-.26a1.81,1.81,0,0,0,1.22-1.68c0-1-.8-1.87-0.55-2.81,0.37-1.45,2.76-1.52,3.19-2.95a1.59,1.59,0,0,0-.58-1.66,2.1,2.1,0,0,0-1.77-.33,2.6,2.6,0,0,1-.67.14,1.55,1.55,0,0,1-1.21-1.28,2.84,2.84,0,0,0-.83-1.65,1.21,1.21,0,0,0-1.76.64c-0.2.73,0.34,1.49,0.25,2.24a1.88,1.88,0,0,1-1.92,1.44,5.47,5.47,0,0,1-2.47-.82l-1.25-.65c-0.78-.41-1.84-0.78-2.45-0.14s-0.34,1.29-.56,1.94a1.86,1.86,0,0,1-2.52,1,2,2,0,0,0-.61-0.28,1.23,1.23,0,0,0-.35,1" transform="translate(426.11 -384.84)"/></g><g id="_Group_33" data-name="&lt;Group&gt;"><path class="cls-2" d="M-259.06,422.07a4,4,0,0,0,4.38,1.08,3.64,3.64,0,0,1,1-.22c1,0,1.54,1,2.3,1.61a2.94,2.94,0,0,0,4-.52c0.63-.82.82-2,1.69-2.55a4.64,4.64,0,0,1,2.24-.42A2.07,2.07,0,0,0-241.6,420c0.48-1.31-1.46-2.59-1-3.91,0.27-.79,1.27-1.11,1.59-1.88a2.57,2.57,0,0,0-.08-1.66,0.83,0.83,0,0,0-.17-0.37,2.63,2.63,0,0,0-.92-0.27c-0.57-.26-0.44-1.13-0.81-1.63-0.64-.86-2.2-0.13-3-0.86a1.74,1.74,0,0,1-.38-0.59,12.27,12.27,0,0,0-.65-1.48,1.7,1.7,0,0,0-1.28-.89,2.25,2.25,0,0,0-1.42.64,1,1,0,0,0-.41.54c-0.08.48,0.51,0.74,0.9,1a1.68,1.68,0,0,1,.41,2.13c-0.62,1-2.26,1.21-2.7,2.35s0.8,2.5.47,3.74a2.32,2.32,0,0,1-1.91,1.46c-0.83.16-1.69,0.08-2.52,0.22a4.78,4.78,0,0,0-3.21,2.17C-259,421.19-259.56,421.47-259.06,422.07Z" transform="translate(426.11 -384.84)"/></g><g id="_Group_34" data-name="&lt;Group&gt;"><path class="cls-1" d="M-259.44,399.31l0,2.35a1.61,1.61,0,0,0,.11.76,2.21,2.21,0,0,0,.56.59,6.15,6.15,0,0,1,1.31,2.05,5.46,5.46,0,0,0,1.36,2,1.94,1.94,0,0,0,2.27.23,0.9,0.9,0,0,1,.69-0.31,0.65,0.65,0,0,1,.34.35c0.36,0.65.64,1.34,1.06,1.95a2.89,2.89,0,0,0,1.73,1.29,1.57,1.57,0,0,0,1.8-.93,2.18,2.18,0,0,0,0-.92,9.65,9.65,0,0,0-.54-2.16,1.82,1.82,0,0,0-1-1.18,3.67,3.67,0,0,0-1.5.11,2.21,2.21,0,0,1-2.15-1.22c-0.38-.81-0.26-1.84-0.85-2.51a4.89,4.89,0,0,0-1.21-.81,1.4,1.4,0,0,1-.79-1.15,2.7,2.7,0,0,1,.52-1.09,2.33,2.33,0,0,0-1.33-3.21,2.33,2.33,0,0,0-2.84,2c-0.06,1,.57,2,0.37,3" transform="translate(426.11 -384.84)"/></g><g id="_Group_35" data-name="&lt;Group&gt;"><path class="cls-3" d="M-249.31,422.71a4.2,4.2,0,0,1-2.64.33c-0.41-.16-0.77-0.43-1.18-0.56a3.93,3.93,0,0,0-2.32.22c-0.29.09-1.39,0.25-1.46,0.55s0.18,0.41.86,0.47c1.32,0.12,2,1.95,3.26,1.75a8,8,0,0,1,2.11-.37c0.85,0.11,1.5.81,2.3,1.12,1.57,0.61,3.4-.47,4.19-2,0.66-1.24.86-2.79,2-3.68a4.84,4.84,0,0,1,1.75-.79,17,17,0,0,0,3.15-1.07,4.21,4.21,0,0,0,2.2-2.39c0.71-2.36-1.55-4.79-1-7.19,0.11-.5.35-1,0.51-1.46,0.6-1.88,0-3.92-.71-5.77a5,5,0,0,0-1.61-2.45,1.88,1.88,0,0,0-2.63.33,2.76,2.76,0,0,0-.28,1.22l-0.33,4.83c-0.07,1-.24,2.16-1.13,2.62a2.36,2.36,0,0,0-1.29.74,1,1,0,0,0,.24,1,5,5,0,0,1,.69.88c0.54,1.14-.77,2.34-0.8,3.6,0,1,.82,2,0.59,3.05a3,3,0,0,1-1,1.41c-1.58,1.5-3.28,3.07-5.42,3.49" transform="translate(426.11 -384.84)"/></g><g id="_Group_36" data-name="&lt;Group&gt;"><path class="cls-4" d="M-237.52,401.09c-0.95.54-1.16,0-2-.75a19,19,0,0,1-2.08-2.51,7,7,0,0,0-3.07-2.22,9.27,9.27,0,0,1-1.2-.42c-0.86-.43-1.41-1.32-2.22-1.83-1.49-.94-3.55-0.5-5-1.44-0.68-.43-1.17-1.11-1.83-1.56a4.56,4.56,0,0,0-4.07-.3,13.49,13.49,0,0,0-3.58,2.23l-1.4,1.09a8.51,8.51,0,0,0-1.33,1.19c-1,1.15-1.66,2.08-1.55,3.59s-0.76,2-.92,3.27c-0.07.54-.72,4.84-0.73,5.39s-0.75,1-1.46-.07a11,11,0,0,1-1-3.3c-0.13-1.85,1.42-3.27,1.43-5.12s0.23-4.15,1.34-5.63c1.71-2.29,2.8-3.23,6.29-4.48,0.81-.29,3.83-0.64,4.52-1.14a8.49,8.49,0,0,1,3.74-2,6.48,6.48,0,0,1,3.66.11,9,9,0,0,1,2.6,2.24c1.89,1.93,4.33,3.23,6.46,4.89s4.06,3.93,4.23,6.63a2.16,2.16,0,0,1-1.08,2.29,1.72,1.72,0,0,1-1.66-.43,5.08,5.08,0,0,1-1-1.47" transform="translate(426.11 -384.84)"/></g><g id="_Group_37" data-name="&lt;Group&gt;"><path class="cls-1" d="M-248.4,397.51l2.81-1.55a4.16,4.16,0,0,1,1.2-.5,2.75,2.75,0,0,1,2.74,1.48,6.61,6.61,0,0,0,.76,1.32,7.36,7.36,0,0,0,.88.69,4.17,4.17,0,0,1,.76,5.17,5.49,5.49,0,0,0-.74,1.49,5.62,5.62,0,0,0,0,1.4,3.78,3.78,0,0,1-1.83,3.54,1.38,1.38,0,0,1-.8.19,4.64,4.64,0,0,1-.65-0.21c-0.6-.18-1.26.05-1.87-0.1a3.11,3.11,0,0,1-1.65-1.52,5.06,5.06,0,0,1-1.17-3.34c0.18-1.17,1.16-2.13,1.21-3.31s-0.7-2-1.25-2.94c-0.36-.62-0.59-1.53,0-2" transform="translate(426.11 -384.84)"/></g><g id="_Group_38" data-name="&lt;Group&gt;"><path class="cls-2" d="M-249.79,405.79c-0.47-.37-0.81.24-1.39,0.29a1.78,1.78,0,0,1-.38,0,6,6,0,0,1-2.11-.57,2.51,2.51,0,0,1-1.34-1.72c-0.08-.49,0-1-0.06-1.46a2.91,2.91,0,0,0-1.33-1.67,7,7,0,0,1-1.69-1.34,1.61,1.61,0,0,1-.12-2,3.53,3.53,0,0,0,.86-0.77,2.05,2.05,0,0,0-.23-1.39,2.68,2.68,0,0,1,.68-2.69,2.85,2.85,0,0,1,2.66-.64,2.55,2.55,0,0,0,1,.17,2,2,0,0,0,1-.74,8.25,8.25,0,0,1,2.91-2,2.47,2.47,0,0,1,1-.23,3.2,3.2,0,0,1,1.79,1,7.29,7.29,0,0,1,2.11,2.46c0.71,1.63.21,3.68,1.27,5.1,0.3,0.4.7,0.71,1,1.13a3.27,3.27,0,0,1-.1,3.08c-0.57,1.2-1.5,2.4-1.17,3.73a4.26,4.26,0,0,1,.4,1.69,1.76,1.76,0,0,1-.77,1c-1.25.95-3.11,1.51-4.35,0.44C-249.09,407.79-248.47,406.83-249.79,405.79Z" transform="translate(426.11 -384.84)"/></g><g id="_Group_39" data-name="&lt;Group&gt;"><path class="cls-1" d="M-259,400.34a1.09,1.09,0,0,0-1.37,0,2.82,2.82,0,0,1-1.35.61,1.73,1.73,0,0,1-.78-0.26,6.93,6.93,0,0,1-2.26-2c-0.36-.48-1-1.08-1.43-0.71a1.31,1.31,0,0,1-.31.25,0.54,0.54,0,0,1-.58-0.39,2.74,2.74,0,0,1,1.07-3.43,3.74,3.74,0,0,0,1-.61,2.61,2.61,0,0,0,.4-0.76,7,7,0,0,1,3.5-3.58,3.61,3.61,0,0,1,1.93-.38,17.26,17.26,0,0,0,1.88.43c0.7,0,1.35-.36,2-0.38s0.75-.36,2.64.49a16.66,16.66,0,0,1,2.29,1.4c4.75,3,.29,2.43.12,2.81-0.43.94-3,.32-3.4,1.27a1.49,1.49,0,0,1-1.17.77,13.22,13.22,0,0,1-1.46,0,4.4,4.4,0,0,0-1.75.45,1.32,1.32,0,0,0-.74.71,2.09,2.09,0,0,0,.15,1.12,3,3,0,0,1-.17,2l-0.42,0" transform="translate(426.11 -384.84)"/></g><g id="_Group_40" data-name="&lt;Group&gt;"><path class="cls-2" d="M-266.71,397.6a0.61,0.61,0,0,0-.67.55c-0.16.42,0.1,1.73-.28,2a3.68,3.68,0,0,0-1.5,3.63,11.65,11.65,0,0,1,.58,2.4c0,0.56-.24,1.09-0.28,1.65a5.26,5.26,0,0,0,.2,1.63c0.28,1.22.7,2.6,1.86,3.1a4,4,0,0,0,2.05.13,2.12,2.12,0,0,0,1.42-.55c0.5-.59.23-1.51,0.58-2.2a1.91,1.91,0,0,1,2.29-.69,7.92,7.92,0,0,1,2.16,1.4,3.38,3.38,0,0,0,2.37.87,2.28,2.28,0,0,0,1.72-1.33,2.93,2.93,0,0,0,0-2.2,1.86,1.86,0,0,0-1.24-1.26,3.23,3.23,0,0,1-.45-0.09c-0.64-.23-0.59-1.12-0.67-1.79a2.94,2.94,0,0,0-2.11-2.45,1.12,1.12,0,0,1-.46-0.19c-0.5-.44.32-1.25,0.17-1.89s-1-.66-1.64-0.4a2.72,2.72,0,0,1-1.83.46,1.75,1.75,0,0,1-.7-0.53c-0.44-.49-0.9-0.95-1.35-1.43a3,3,0,0,0-2.26-.79" transform="translate(426.11 -384.84)"/></g></g><g id="_Group_41" data-name="&lt;Group&gt;"><g id="_Group_42" data-name="&lt;Group&gt;"><path class="cls-1" d="M-385.58,401.73a8.59,8.59,0,0,0-7.83-4.3,15.61,15.61,0,0,0-2.84.51c-1.19.3-2.57,0.82-2.82,2-0.2.94,0.43,2,.08,2.85s-1.84,1.23-2.5,2.12a1.81,1.81,0,0,0,0,2.08c0.57,0.78,1.74,1.05,2.09,2,0.54,1.39-1.35,2.84-.87,4.26a1.59,1.59,0,0,0,1.43,1,2.1,2.1,0,0,0,1.63-.77,2.6,2.6,0,0,1,.47-0.5,1.55,1.55,0,0,1,1.73.34,2.84,2.84,0,0,0,1.64.85,1.21,1.21,0,0,0,1.06-1.55c-0.26-.71-1.14-1-1.51-1.68a1.88,1.88,0,0,1,.72-2.29,5.47,5.47,0,0,1,2.48-.78l1.39-.2c0.87-.13,1.95-0.45,2.07-1.32,0.09-.68-0.48-1.25-0.68-1.9a1.86,1.86,0,0,1,1.46-2.28,2,2,0,0,0,.66-0.13,1.23,1.23,0,0,0-.29-1" transform="translate(426.11 -384.84)"/></g><g id="_Group_43" data-name="&lt;Group&gt;"><path class="cls-2" d="M-397.7,397.92a4,4,0,0,0-4.19,1.68,3.64,3.64,0,0,1-.65.74c-0.78.56-1.85,0.07-2.81,0a2.94,2.94,0,0,0-2.93,2.74c0,1,.49,2.1.12,3.05a4.64,4.64,0,0,1-1.57,1.65,2.07,2.07,0,0,0-.93,2c0.37,1.34,2.7,1.25,3.1,2.58,0.24,0.79-.38,1.64-0.19,2.45a2.57,2.57,0,0,0,1,1.3,0.83,0.83,0,0,0,.35.2,2.63,2.63,0,0,0,.9-0.32c0.61-.12,1,0.66,1.61.85,1,0.33,1.87-1.18,2.93-1.05a1.74,1.74,0,0,1,.66.26,12.27,12.27,0,0,0,1.4.82,1.7,1.7,0,0,0,1.56,0,2.25,2.25,0,0,0,.78-1.35,1,1,0,0,0,0-.67c-0.22-.43-0.85-0.3-1.34-0.31a1.68,1.68,0,0,1-1.58-1.49c-0.1-1.21,1.13-2.31.82-3.48s-2.11-1.56-2.56-2.76a2.32,2.32,0,0,1,.7-2.3c0.58-.61,1.33-1,1.92-1.65a4.78,4.78,0,0,0,1.34-3.63C-397.27,398.69-396.94,398.11-397.7,397.92Z" transform="translate(426.11 -384.84)"/></g><g id="_Group_44" data-name="&lt;Group&gt;"><path class="cls-1" d="M-384.1,416.17l-1.33-1.94a1.61,1.61,0,0,0-.53-0.56,2.21,2.21,0,0,0-.8-0.15,6.15,6.15,0,0,1-2.26-.9,5.46,5.46,0,0,0-2.28-.84,1.94,1.94,0,0,0-2,1.13,0.9,0.9,0,0,1-.38.65,0.65,0.65,0,0,1-.48-0.08c-0.67-.31-1.3-0.71-2-1a2.89,2.89,0,0,0-2.16,0,1.57,1.57,0,0,0-.91,1.81,2.18,2.18,0,0,0,.52.77,9.65,9.65,0,0,0,1.7,1.44,1.82,1.82,0,0,0,1.47.4,3.67,3.67,0,0,0,1.15-1,2.21,2.21,0,0,1,2.46-.27c0.78,0.43,1.29,1.34,2.16,1.54a4.89,4.89,0,0,0,1.45-.05,1.4,1.4,0,0,1,1.31.47,2.7,2.7,0,0,1,.22,1.19,2.33,2.33,0,0,0,3,1.83,2.33,2.33,0,0,0,1.14-3.28c-0.54-.86-1.64-1.3-2.06-2.23" transform="translate(426.11 -384.84)"/></g><g id="_Group_45" data-name="&lt;Group&gt;"><path class="cls-3" d="M-406,403.09a4.2,4.2,0,0,1,1.95-1.81c0.42-.11.87-0.1,1.29-0.24A3.93,3.93,0,0,0-401,399.5c0.18-.24,1-1,0.87-1.3s-0.38-.23-1,0.12c-1.14.67-2.72-.44-3.67,0.48a8,8,0,0,1-1.5,1.53c-0.75.41-1.69,0.22-2.52,0.43-1.63.42-2.48,2.36-2.26,4,0.19,1.39.93,2.77,0.56,4.12a4.84,4.84,0,0,1-1,1.66,17,17,0,0,0-1.93,2.71,4.21,4.21,0,0,0-.39,3.22c0.8,2.32,4.06,3,5,5.25,0.2,0.48.28,1,.44,1.48,0.61,1.88,2.29,3.19,3.95,4.26a5,5,0,0,0,2.73,1,1.88,1.88,0,0,0,1.94-1.81,2.76,2.76,0,0,0-.49-1.15l-2.56-4.11c-0.53-.85-1.07-1.9-0.61-2.78a2.36,2.36,0,0,0,.62-1.35,1,1,0,0,0-.8-0.7,5,5,0,0,1-1.07-.31c-1.11-.61-0.75-2.35-1.45-3.39-0.59-.87-1.85-1.17-2.26-2.14a3,3,0,0,1,0-1.72c0.4-2.14.87-4.41,2.36-6" transform="translate(426.11 -384.84)"/></g><g id="_Group_46" data-name="&lt;Group&gt;"><path class="cls-4" d="M-402.93,427.52c0.45-1,1-.64,2.05-0.55a19,19,0,0,1,3.15.82,7,7,0,0,0,3.79,0,9.27,9.27,0,0,1,1.22-.36c1-.15,1.91.24,2.87,0.19,1.76-.1,3.17-1.67,4.93-1.77,0.8,0,1.6.22,2.4,0.2a4.56,4.56,0,0,0,3.47-2.14,13.49,13.49,0,0,0,1.6-3.9l0.5-1.7a8.51,8.51,0,0,0,.38-1.75c0.11-1.5.13-2.66-.84-3.82s-0.54-2-1.16-3.19c-0.26-.48-2.25-4.35-2.56-4.8s0-1.23,1.23-.8a11,11,0,0,1,2.71,2.11c1.18,1.42.76,3.48,1.83,5s2.24,3.51,2.2,5.36c-0.05,2.86-.38,4.26-2.48,7.31-0.49.71-2.74,2.75-3,3.57a8.49,8.49,0,0,1-1.86,3.81,6.48,6.48,0,0,1-3,2.05,9,9,0,0,1-3.42-.3c-2.66-.47-5.4-0.09-8.1-0.2s-5.6-.82-7.31-2.91a2.16,2.16,0,0,1-.46-2.48,1.72,1.72,0,0,1,1.6-.61,5.08,5.08,0,0,1,1.68.6" transform="translate(426.11 -384.84)"/></g><g id="_Group_47" data-name="&lt;Group&gt;"><path class="cls-1" d="M-392,424.07l-1.38,2.9a4.16,4.16,0,0,1-.68,1.11,2.75,2.75,0,0,1-3.09.4,6.61,6.61,0,0,0-1.39-.62,7.36,7.36,0,0,0-1.11,0,4.17,4.17,0,0,1-3.64-3.75,5.49,5.49,0,0,0-.27-1.64,5.62,5.62,0,0,0-.83-1.13,3.78,3.78,0,0,1-.58-3.94,1.38,1.38,0,0,1,.54-0.62,4.64,4.64,0,0,1,.65-0.21c0.59-.21,1-0.78,1.57-1a3.11,3.11,0,0,1,2.23.27,5.06,5.06,0,0,1,2.9,2c0.54,1.05.3,2.41,1,3.4s1.74,1.22,2.73,1.66c0.66,0.3,1.38.9,1.17,1.59" transform="translate(426.11 -384.84)"/></g><g id="_Group_48" data-name="&lt;Group&gt;"><path class="cls-2" d="M-395.71,416.54c0.6,0,.52-0.67,1-1a1.78,1.78,0,0,1,.32-0.2,6,6,0,0,1,2.05-.77,2.51,2.51,0,0,1,2.09.62c0.35,0.35.54,0.82,0.9,1.15a2.91,2.91,0,0,0,2.05.58,7,7,0,0,1,2.16.1,1.61,1.61,0,0,1,1.26,1.55,3.53,3.53,0,0,0-.25,1.12,2.05,2.05,0,0,0,1,1,2.68,2.68,0,0,1,1,2.58,2.85,2.85,0,0,1-1.78,2.07,2.55,2.55,0,0,0-.88.42,2,2,0,0,0-.41,1.21,8.25,8.25,0,0,1-1.2,3.32,2.47,2.47,0,0,1-.71.79,3.2,3.2,0,0,1-2,.26,7.29,7.29,0,0,1-3.15-.77c-1.52-.91-2.32-2.87-4-3.4-0.47-.15-1-0.17-1.44-0.35a3.27,3.27,0,0,1-1.72-2.55c-0.24-1.31-.19-2.83-1.23-3.72a4.26,4.26,0,0,1-1.32-1.14,1.76,1.76,0,0,1,0-1.26c0.46-1.5,1.64-3,3.27-2.9C-397.44,415.32-397.39,416.46-395.71,416.54Z" transform="translate(426.11 -384.84)"/></g><g id="_Group_49" data-name="&lt;Group&gt;"><path class="cls-1" d="M-385,415.56a1.09,1.09,0,0,0,1.13-.78,2.82,2.82,0,0,1,.74-1.28,1.73,1.73,0,0,1,.79-0.25,6.93,6.93,0,0,1,3,.27c0.57,0.18,1.41.31,1.58-.26a1.31,1.31,0,0,1,.1-0.39,0.54,0.54,0,0,1,.7,0,2.74,2.74,0,0,1,1.14,3.41,3.74,3.74,0,0,0-.45,1.07,2.61,2.61,0,0,0,.11.85,7,7,0,0,1-.74,5,3.61,3.61,0,0,1-1.34,1.43,17.26,17.26,0,0,0-1.78.75c-0.57.4-.89,1.08-1.44,1.51s-0.4.73-2.43,1.15a16.66,16.66,0,0,1-2.67.2c-5.6.34-1.65-1.8-1.73-2.21-0.2-1,2.23-2,2-3a1.49,1.49,0,0,1,.5-1.31,13.22,13.22,0,0,1,1.17-.89,4.4,4.4,0,0,0,1.16-1.39,1.32,1.32,0,0,0,.18-1,2.09,2.09,0,0,0-.77-0.82,3,3,0,0,1-1-1.68l0.32-.27" transform="translate(426.11 -384.84)"/></g><g id="_Group_50" data-name="&lt;Group&gt;"><path class="cls-2" d="M-377.2,413.3a0.61,0.61,0,0,0,.22-0.83c-0.12-.44-1.09-1.35-0.94-1.77a3.68,3.68,0,0,0-.9-3.82,11.65,11.65,0,0,1-1.87-1.61c-0.31-.46-0.45-1-0.73-1.5a5.26,5.26,0,0,0-1.12-1.21c-0.94-.82-2.09-1.7-3.32-1.43a4,4,0,0,0-1.74,1.1,2.12,2.12,0,0,0-.83,1.28c-0.06.77,0.7,1.36,0.81,2.12a1.91,1.91,0,0,1-1.45,1.9,7.92,7.92,0,0,1-2.57.13,3.38,3.38,0,0,0-2.43.68,2.28,2.28,0,0,0-.62,2.08,2.93,2.93,0,0,0,1.26,1.8,1.86,1.86,0,0,0,1.74.29,3.23,3.23,0,0,1,.41-0.19c0.65-.19,1.13.56,1.59,1.06a2.94,2.94,0,0,0,3.14.76,1.12,1.12,0,0,1,.48-0.12c0.66,0.06.46,1.2,1,1.63s1.23-.08,1.56-0.63a2.72,2.72,0,0,1,1.21-1.44,1.75,1.75,0,0,1,.87,0c0.64,0.14,1.29.24,1.93,0.38a3,3,0,0,0,2.3-.68" transform="translate(426.11 -384.84)"/></g></g><g id="_Group_51" data-name="&lt;Group&gt;"><g id="_Group_52" data-name="&lt;Group&gt;"><path class="cls-1" d="M-326.53,399.92a10.52,10.52,0,0,0-9.37-5.65,19.13,19.13,0,0,0-3.51.48c-1.47.3-3.19,0.87-3.56,2.32-0.29,1.14.43,2.42-.05,3.49-0.56,1.24-2.32,1.41-3.17,2.47a2.22,2.22,0,0,0-.11,2.55c0.66,1,2.08,1.38,2.46,2.5,0.59,1.73-1.8,3.42-1.28,5.17a2,2,0,0,0,1.71,1.31,2.57,2.57,0,0,0,2-.86,3.19,3.19,0,0,1,.6-0.59,1.91,1.91,0,0,1,2.1.5,3.49,3.49,0,0,0,2,1.13,1.48,1.48,0,0,0,1.37-1.85c-0.29-.89-1.35-1.29-1.77-2.13a2.3,2.3,0,0,1,1-2.77,6.71,6.71,0,0,1,3.07-.83l1.72-.18c1.07-.11,2.41-0.45,2.6-1.51,0.15-.82-0.53-1.55-0.73-2.37a2.29,2.29,0,0,1,1.9-2.72,2.51,2.51,0,0,0,.81-0.12c0.25-.12-0.15-1-0.31-1.24" transform="translate(426.11 -384.84)"/></g><g id="_Group_53" data-name="&lt;Group&gt;"><path class="cls-2" d="M-341.18,394.65a4.93,4.93,0,0,0-5.21,1.85,4.47,4.47,0,0,1-.84.87c-1,.65-2.27,0-3.44-0.1a3.6,3.6,0,0,0-3.72,3.21c-0.09,1.26.5,2.59,0,3.75a5.68,5.68,0,0,1-2,1.94,2.53,2.53,0,0,0-1.24,2.37c0.39,1.66,3.24,1.66,3.67,3.32,0.26,1-.55,2-0.36,3a3.15,3.15,0,0,0,1.2,1.64,1,1,0,0,0,.42.26,3.23,3.23,0,0,0,1.12-.34c0.75-.12,1.21.85,1.93,1.12,1.23,0.45,2.34-1.35,3.64-1.14a2.13,2.13,0,0,1,.79.35,15,15,0,0,0,1.67,1.08,2.08,2.08,0,0,0,1.91,0,2.76,2.76,0,0,0,1-1.62,1.16,1.16,0,0,0,.05-0.82c-0.24-.54-1-0.41-1.62-0.45a2.06,2.06,0,0,1-1.86-1.9c-0.07-1.49,1.5-2.77,1.18-4.22s-2.51-2-3-3.51a2.84,2.84,0,0,1,1-2.78c0.74-.72,1.68-1.22,2.43-1.93a5.86,5.86,0,0,0,1.82-4.38C-340.68,395.61-340.26,394.92-341.18,394.65Z" transform="translate(426.11 -384.84)"/></g><g id="_Group_54" data-name="&lt;Group&gt;"><path class="cls-1" d="M-325.43,417.68l-1.54-2.44a2,2,0,0,0-.63-0.71,2.71,2.71,0,0,0-1-.23,7.54,7.54,0,0,1-2.72-1.22,6.7,6.7,0,0,0-2.75-1.15,2.38,2.38,0,0,0-2.48,1.29,1.1,1.1,0,0,1-.5.78,0.8,0.8,0,0,1-.59-0.12c-0.81-.42-1.56-0.94-2.4-1.28a3.54,3.54,0,0,0-2.65-.16,1.92,1.92,0,0,0-1.21,2.17,2.68,2.68,0,0,0,.6,1,11.83,11.83,0,0,0,2,1.84,2.23,2.23,0,0,0,1.78.56,4.5,4.5,0,0,0,1.46-1.13,2.7,2.7,0,0,1,3-.2c0.93,0.57,1.51,1.71,2.56,2a6,6,0,0,0,1.78,0,1.72,1.72,0,0,1,1.58.64,3.32,3.32,0,0,1,.21,1.47,2.86,2.86,0,0,0,3.53,2.39,2.86,2.86,0,0,0,1.56-4c-0.62-1.08-1.94-1.68-2.41-2.83" transform="translate(426.11 -384.84)"/></g><g id="_Group_55" data-name="&lt;Group&gt;"><path class="cls-3" d="M-351.58,400.57a5.15,5.15,0,0,1,2.48-2.12c0.52-.11,1.07-0.08,1.59-0.22a4.82,4.82,0,0,0,2.23-1.79c0.24-.29,1.25-1.2,1.13-1.55s-0.46-.3-1.2.1c-1.43.77-3.31-.67-4.52,0.41a9.84,9.84,0,0,1-1.92,1.8c-0.94.47-2.08,0.18-3.11,0.4-2,.43-3.16,2.77-3,4.83,0.16,1.71,1,3.44.48,5.08a5.94,5.94,0,0,1-1.26,2,20.78,20.78,0,0,0-2.5,3.23,5.16,5.16,0,0,0-.64,3.93c0.87,2.89,4.82,3.85,5.88,6.68,0.22,0.59.3,1.23,0.47,1.84,0.66,2.33,2.64,4,4.62,5.42a6.19,6.19,0,0,0,3.3,1.42,2.31,2.31,0,0,0,2.46-2.11,3.38,3.38,0,0,0-.54-1.44l-2.93-5.16c-0.6-1.06-1.21-2.38-.61-3.44,0.31-.54.92-1,0.83-1.62a1.29,1.29,0,0,0-.95-0.9,6.1,6.1,0,0,1-1.3-.44c-1.32-.81-0.8-2.91-1.61-4.23-0.67-1.09-2.21-1.53-2.66-2.73a3.71,3.71,0,0,1,.07-2.11c0.6-2.6,1.28-5.36,3.19-7.23" transform="translate(426.11 -384.84)"/></g><g id="_Group_56" data-name="&lt;Group&gt;"><path class="cls-4" d="M-349.07,430.65c0.61-1.19,1.22-.74,2.54-0.57a23.27,23.27,0,0,1,3.82,1.16,8.63,8.63,0,0,0,4.64.2,11.36,11.36,0,0,1,1.52-.38c1.17-.14,2.33.4,3.51,0.37,2.16,0,4-1.89,6.13-1.92,1,0,1.94.35,2.93,0.36a5.59,5.59,0,0,0,4.36-2.44,16.54,16.54,0,0,0,2.16-4.7l0.7-2.06a10.44,10.44,0,0,0,.56-2.12c0.21-1.84.29-3.25-.83-4.72s-0.55-2.53-1.27-4c-0.3-.6-2.53-5.44-2.89-6s0.11-1.5,1.54-.91a13.5,13.5,0,0,1,3.21,2.73c1.38,1.8.76,4.3,2,6.21s2.56,4.41,2.43,6.67c-0.21,3.49-.68,5.2-3.41,8.83-0.63.84-3.49,3.24-3.86,4.22-0.67,1.81-1.06,3.26-2.47,4.58a8,8,0,0,1-3.82,2.36,11,11,0,0,1-4.17-.54c-3.24-.7-6.61-0.38-9.91-0.65s-6.81-1.28-8.81-3.93c-0.67-.89-1.12-2.18-0.44-3.07a2.11,2.11,0,0,1,2-.67,6.23,6.23,0,0,1,2,.82" transform="translate(426.11 -384.84)"/></g><g id="_Group_57" data-name="&lt;Group&gt;"><path class="cls-1" d="M-335.51,427l-1.83,3.49a5.11,5.11,0,0,1-.88,1.32,3.37,3.37,0,0,1-3.8.34,8.1,8.1,0,0,0-1.67-.83,9,9,0,0,0-1.36-.11,5.11,5.11,0,0,1-4.27-4.78,6.72,6.72,0,0,0-.24-2,6.89,6.89,0,0,0-1-1.42,4.63,4.63,0,0,1-.52-4.85,1.69,1.69,0,0,1,.7-0.73,5.69,5.69,0,0,1,.81-0.22c0.73-.23,1.25-0.91,2-1.16a3.82,3.82,0,0,1,2.72.44c1.36,0.59,2.83,1.29,3.45,2.63s0.25,3,1,4.21,2.07,1.58,3.26,2.17c0.79,0.39,1.64,1.17,1.36,2" transform="translate(426.11 -384.84)"/></g><g id="_Group_58" data-name="&lt;Group&gt;"><path class="cls-2" d="M-339.67,417.56c0.73,0.06.67-.79,1.23-1.23a2.18,2.18,0,0,1,.4-0.23,7.37,7.37,0,0,1,2.55-.84,3.08,3.08,0,0,1,2.53.86c0.41,0.44.62,1,1,1.46a3.56,3.56,0,0,0,2.48.81,8.55,8.55,0,0,1,2.64.23,2,2,0,0,1,1.47,2,4.33,4.33,0,0,0-.36,1.36,2.52,2.52,0,0,0,1.18,1.27,3.29,3.29,0,0,1,1.12,3.21,3.49,3.49,0,0,1-2.29,2.45,3.12,3.12,0,0,0-1.1.47,2.4,2.4,0,0,0-.57,1.46,10.12,10.12,0,0,1-1.63,4,3,3,0,0,1-.91.93,3.93,3.93,0,0,1-2.48.22,8.93,8.93,0,0,1-3.82-1.1c-1.82-1.19-2.7-3.63-4.74-4.36-0.57-.21-1.19-0.25-1.75-0.51a4,4,0,0,1-2-3.21c-0.23-1.61-.09-3.47-1.32-4.61a5.22,5.22,0,0,1-1.55-1.46,2.16,2.16,0,0,1,.11-1.55c0.64-1.81,2.17-3.65,4.15-3.38C-341.73,416-341.73,417.38-339.67,417.56Z" transform="translate(426.11 -384.84)"/></g><g id="_Group_59" data-name="&lt;Group&gt;"><path class="cls-1" d="M-326.53,416.9a1.33,1.33,0,0,0,1.42-.9,3.45,3.45,0,0,1,1-1.53,2.12,2.12,0,0,1,1-.27,8.5,8.5,0,0,1,3.64.48c0.69,0.25,1.71.45,1.95-.24a1.6,1.6,0,0,1,.15-0.47,0.66,0.66,0,0,1,.85,0,3.36,3.36,0,0,1,1.23,4.23,4.59,4.59,0,0,0-.6,1.29,3.19,3.19,0,0,0,.1,1,8.53,8.53,0,0,1-1.16,6,4.42,4.42,0,0,1-1.72,1.68,21.16,21.16,0,0,0-2.22.83c-0.72.46-1.14,1.28-1.84,1.77s-0.53.88-3,1.28a20.42,20.42,0,0,1-3.28.11c-6.88.14-1.93-2.29-2-2.79-0.19-1.25,2.83-2.34,2.62-3.59a1.83,1.83,0,0,1,.68-1.58,16.2,16.2,0,0,1,1.47-1,5.4,5.4,0,0,0,1.49-1.64,1.62,1.62,0,0,0,.27-1.22,2.56,2.56,0,0,0-.9-1,3.67,3.67,0,0,1-1.14-2.11l0.41-.32" transform="translate(426.11 -384.84)"/></g><g id="_Group_60" data-name="&lt;Group&gt;"><path class="cls-2" d="M-316.84,414.52a0.75,0.75,0,0,0,.31-1c-0.12-.54-1.27-1.7-1.06-2.22a4.51,4.51,0,0,0-.91-4.73,14.29,14.29,0,0,1-2.21-2.07c-0.36-.58-0.49-1.28-0.82-1.88a6.44,6.44,0,0,0-1.31-1.54c-1.11-1.06-2.47-2.19-4-1.92a5,5,0,0,0-2.19,1.26A2.6,2.6,0,0,0-330.1,402c-0.11.94,0.79,1.7,0.89,2.64a2.34,2.34,0,0,1-1.87,2.25,9.7,9.7,0,0,1-3.15,0,4.15,4.15,0,0,0-3,.71,2.79,2.79,0,0,0-.86,2.52,3.59,3.59,0,0,0,1.45,2.27,2.27,2.27,0,0,0,2.12.45,4,4,0,0,1,.52-0.21c0.81-.2,1.36.74,1.89,1.38a3.61,3.61,0,0,0,3.81,1.09,1.37,1.37,0,0,1,.6-0.12c0.81,0.11.51,1.49,1.11,2.05s1.51,0,1.95-.69a3.34,3.34,0,0,1,1.56-1.7,2.14,2.14,0,0,1,1.07.07c0.78,0.2,1.56.36,2.35,0.56a3.7,3.7,0,0,0,2.85-.72" transform="translate(426.11 -384.84)"/></g></g><g id="_Group_61" data-name="&lt;Group&gt;"><g id="_Group_62" data-name="&lt;Group&gt;"><path class="cls-1" d="M-296.7,443.52a9.12,9.12,0,0,0-8-5.08,16.57,16.57,0,0,0-3,.35c-1.28.23-2.78,0.69-3.13,1.94-0.27,1,.32,2.1-0.11,3s-2,1.18-2.79,2.08a1.92,1.92,0,0,0-.15,2.2c0.55,0.87,1.77,1.24,2.08,2.21,0.48,1.51-1.63,2.92-1.21,4.45a1.68,1.68,0,0,0,1.45,1.16,2.23,2.23,0,0,0,1.78-.7,2.76,2.76,0,0,1,.53-0.5,1.65,1.65,0,0,1,1.81.47,3,3,0,0,0,1.68,1,1.28,1.28,0,0,0,1.23-1.57c-0.23-.77-1.14-1.15-1.49-1.88a2,2,0,0,1,.92-2.38,5.81,5.81,0,0,1,2.68-.66l1.49-.12c0.93-.07,2.1-0.34,2.28-1.26,0.14-.71-0.43-1.36-0.59-2.06a2,2,0,0,1,1.7-2.32,2.17,2.17,0,0,0,.71-0.09,1.31,1.31,0,0,0-.24-1.08" transform="translate(426.11 -384.84)"/></g><g id="_Group_63" data-name="&lt;Group&gt;"><path class="cls-2" d="M-309.29,438.66a4.27,4.27,0,0,0-4.55,1.5,3.87,3.87,0,0,1-.74.74c-0.87.54-2-.05-3-0.15a3.12,3.12,0,0,0-3.29,2.71c-0.1,1.09.38,2.25-.08,3.24a4.92,4.92,0,0,1-1.78,1.64,2.19,2.19,0,0,0-1.12,2c0.31,1.45,2.78,1.5,3.12,2.94,0.2,0.86-.51,1.72-0.37,2.59a2.73,2.73,0,0,0,1,1.45,0.88,0.88,0,0,0,.36.23,2.79,2.79,0,0,0,1-.27c0.66-.09,1,0.76,1.65,1,1.06,0.41,2.06-1.12,3.18-.91a1.84,1.84,0,0,1,.68.32,13,13,0,0,0,1.42,1,1.8,1.8,0,0,0,1.65.07,2.39,2.39,0,0,0,.92-1.38,1,1,0,0,0,.06-0.71c-0.2-.48-0.88-0.38-1.4-0.42a1.79,1.79,0,0,1-1.57-1.68c0-1.29,1.35-2.37,1.1-3.63s-2.13-1.8-2.53-3.1a2.46,2.46,0,0,1,.9-2.39c0.66-.61,1.48-1,2.15-1.62a5.08,5.08,0,0,0,1.66-3.76C-308.88,439.51-308.5,438.92-309.29,438.66Z" transform="translate(426.11 -384.84)"/></g><g id="_Group_64" data-name="&lt;Group&gt;"><path class="cls-1" d="M-296.1,458.92l-1.28-2.14a1.71,1.71,0,0,0-.53-0.62,2.35,2.35,0,0,0-.84-0.21,6.54,6.54,0,0,1-2.33-1.11,5.8,5.8,0,0,0-2.36-1,2.06,2.06,0,0,0-2.17,1.07,1,1,0,0,1-.45.66,0.69,0.69,0,0,1-.5-0.12c-0.69-.38-1.33-0.84-2.05-1.16a3.07,3.07,0,0,0-2.29-.19,1.66,1.66,0,0,0-1.09,1.85,2.32,2.32,0,0,0,.5.85,10.24,10.24,0,0,0,1.7,1.64,1.93,1.93,0,0,0,1.53.52A3.9,3.9,0,0,0-307,458a2.34,2.34,0,0,1,2.62-.11c0.8,0.51,1.27,1.51,2.18,1.78a5.2,5.2,0,0,0,1.54,0,1.49,1.49,0,0,1,1.36.59,2.87,2.87,0,0,1,.15,1.27,2.47,2.47,0,0,0,3,2.14,2.47,2.47,0,0,0,1.43-3.4c-0.52-.95-1.65-1.49-2-2.5" transform="translate(426.11 -384.84)"/></g><g id="_Group_65" data-name="&lt;Group&gt;"><path class="cls-3" d="M-318.41,443.59a4.46,4.46,0,0,1,2.19-1.79c0.46-.09.93,0,1.38-0.16a4.18,4.18,0,0,0,2-1.51c0.21-.24,1.11-1,1-1.32s-0.39-.27-1,0.06c-1.25.64-2.85-.65-3.92,0.26a8.53,8.53,0,0,1-1.7,1.52c-0.83.38-1.81,0.12-2.7,0.29-1.76.33-2.79,2.34-2.67,4.12,0.1,1.49.8,3,.32,4.41a5.14,5.14,0,0,1-1.13,1.69,18,18,0,0,0-2.23,2.74,4.47,4.47,0,0,0-.63,3.39c0.69,2.52,4.1,3.43,5,5.9,0.18,0.52.23,1.07,0.37,1.6,0.52,2,2.21,3.53,3.89,4.79a5.36,5.36,0,0,0,2.83,1.3,2,2,0,0,0,2.17-1.78,2.93,2.93,0,0,0-.44-1.26l-2.43-4.53c-0.5-.93-1-2.08-0.46-3a2.5,2.5,0,0,0,.75-1.39,1.11,1.11,0,0,0-.8-0.8,5.29,5.29,0,0,1-1.12-.4c-1.13-.73-0.63-2.54-1.31-3.7-0.56-1-1.88-1.37-2.25-2.42a3.21,3.21,0,0,1,.1-1.83c0.57-2.24,1.22-4.62,2.9-6.2" transform="translate(426.11 -384.84)"/></g><g id="_Group_66" data-name="&lt;Group&gt;"><path class="cls-4" d="M-316.83,469.68c0.55-1,1.07-.61,2.21-0.45a20.16,20.16,0,0,1,3.29,1.08,7.48,7.48,0,0,0,4,.26,9.84,9.84,0,0,1,1.32-.3c1-.1,2,0.39,3,0.39,1.87,0,3.48-1.55,5.35-1.55,0.85,0,1.68.34,2.53,0.37a4.85,4.85,0,0,0,3.83-2,14.33,14.33,0,0,0,2-4l0.64-1.77a9,9,0,0,0,.52-1.83c0.22-1.59.31-2.81-.63-4.1s-0.43-2.21-1-3.46c-0.25-.52-2.08-4.76-2.39-5.26s0.13-1.3,1.36-.76a11.7,11.7,0,0,1,2.73,2.42c1.16,1.59.57,3.74,1.6,5.41s2.13,3.87,2,5.83c-0.25,3-.69,4.49-3.13,7.58-0.56.72-3.09,2.73-3.42,3.58-0.62,1.55-1,2.8-2.23,3.92a6.88,6.88,0,0,1-3.35,2,9.53,9.53,0,0,1-3.6-.55c-2.79-.67-5.71-0.46-8.57-0.75s-5.87-1.24-7.55-3.58a2.3,2.3,0,0,1-.32-2.66,1.83,1.83,0,0,1,1.73-.54,5.39,5.39,0,0,1,1.74.75" transform="translate(426.11 -384.84)"/></g><g id="_Group_67" data-name="&lt;Group&gt;"><path class="cls-1" d="M-305,466.76l-1.66,3a4.42,4.42,0,0,1-.79,1.13,2.92,2.92,0,0,1-3.3.22,7,7,0,0,0-1.43-.75,7.82,7.82,0,0,0-1.18-.12A4.43,4.43,0,0,1-317,466a5.83,5.83,0,0,0-.17-1.76A6,6,0,0,0-318,463a4,4,0,0,1-.35-4.21,1.46,1.46,0,0,1,.62-0.62A4.93,4.93,0,0,1-317,458c0.64-.18,1.1-0.76,1.73-1a3.31,3.31,0,0,1,2.35.43,5.37,5.37,0,0,1,2.94,2.34c0.5,1.15.16,2.57,0.78,3.66s1.77,1.41,2.78,1.94c0.68,0.36,1.4,1,1.14,1.76" transform="translate(426.11 -384.84)"/></g><g id="_Group_68" data-name="&lt;Group&gt;"><path class="cls-2" d="M-308.43,458.53c0.63,0.07.6-.67,1.09-1a1.89,1.89,0,0,1,.35-0.2,6.39,6.39,0,0,1,2.22-.68,2.67,2.67,0,0,1,2.17.8c0.34,0.39.52,0.9,0.88,1.28a3.09,3.09,0,0,0,2.13.75,7.41,7.41,0,0,1,2.28.25,1.71,1.71,0,0,1,1.23,1.72,3.75,3.75,0,0,0-.34,1.17,2.18,2.18,0,0,0,1,1.12,2.85,2.85,0,0,1,.91,2.81,3,3,0,0,1-2,2.08,2.71,2.71,0,0,0-1,.39,2.08,2.08,0,0,0-.52,1.26,8.76,8.76,0,0,1-1.49,3.44,2.62,2.62,0,0,1-.8.79,3.4,3.4,0,0,1-2.15.14,7.74,7.74,0,0,1-3.29-1c-1.55-1.07-2.27-3.2-4-3.87-0.49-.19-1-0.24-1.5-0.47a3.47,3.47,0,0,1-1.65-2.82c-0.16-1.4,0-3-1.05-4a4.53,4.53,0,0,1-1.32-1.3,1.87,1.87,0,0,1,.12-1.34c0.59-1.56,1.95-3.11,3.66-2.85C-310.19,457.13-310.21,458.34-308.43,458.53Z" transform="translate(426.11 -384.84)"/></g><g id="_Group_69" data-name="&lt;Group&gt;"><path class="cls-1" d="M-297,458.22a1.16,1.16,0,0,0,1.25-.75,3,3,0,0,1,.87-1.3,1.84,1.84,0,0,1,.85-0.21,7.36,7.36,0,0,1,3.14.49c0.59,0.23,1.47.43,1.69-.17a1.39,1.39,0,0,1,.14-0.4,0.58,0.58,0,0,1,.74,0,2.91,2.91,0,0,1,1,3.69,4,4,0,0,0-.55,1.11,2.77,2.77,0,0,0,.06.91,7.39,7.39,0,0,1-1.12,5.2,3.83,3.83,0,0,1-1.52,1.42,18.33,18.33,0,0,0-1.94.68c-0.63.38-1,1.09-1.63,1.5s-0.47.75-2.66,1a17.69,17.69,0,0,1-2.84,0c-6,0-1.63-2-1.69-2.46-0.14-1.08,2.5-2,2.34-3.06a1.59,1.59,0,0,1,.62-1.36,14,14,0,0,1,1.3-.86,4.68,4.68,0,0,0,1.32-1.39,1.4,1.4,0,0,0,.26-1.05,2.22,2.22,0,0,0-.76-0.92,3.18,3.18,0,0,1-.95-1.85l0.36-.26" transform="translate(426.11 -384.84)"/></g><g id="_Group_70" data-name="&lt;Group&gt;"><path class="cls-2" d="M-288.6,456.35a0.65,0.65,0,0,0,.29-0.87c-0.09-.47-1.06-1.5-0.87-1.94a3.91,3.91,0,0,0-.7-4.11,12.37,12.37,0,0,1-1.87-1.83c-0.3-.51-0.4-1.12-0.67-1.64a5.58,5.58,0,0,0-1.11-1.36c-0.94-.94-2.1-1.94-3.42-1.74a4.29,4.29,0,0,0-1.92,1,2.25,2.25,0,0,0-1,1.3c-0.12.81,0.65,1.49,0.72,2.3a2,2,0,0,1-1.66,1.91,8.4,8.4,0,0,1-2.73,0,3.59,3.59,0,0,0-2.62.56,2.42,2.42,0,0,0-.8,2.17,3.11,3.11,0,0,0,1.21,2,2,2,0,0,0,1.83.43,3.43,3.43,0,0,1,.45-0.17c0.71-.15,1.16.67,1.61,1.23a3.12,3.12,0,0,0,3.28,1,1.18,1.18,0,0,1,.52-0.09c0.7,0.11.41,1.3,0.92,1.8s1.31,0,1.7-.56a2.89,2.89,0,0,1,1.38-1.44,1.86,1.86,0,0,1,.93.08c0.67,0.19,1.35.35,2,.53a3.2,3.2,0,0,0,2.48-.57" transform="translate(426.11 -384.84)"/></g></g><g id="_Group_71" data-name="&lt;Group&gt;"><g id="_Group_72" data-name="&lt;Group&gt;"><path class="cls-1" d="M-347.26,439.11a9.84,9.84,0,0,0-9.72-3.17,17.88,17.88,0,0,0-3.09,1.18c-1.27.59-2.72,1.47-2.75,2.87,0,1.1.9,2.11,0.69,3.19-0.24,1.25-1.81,1.77-2.36,2.92a2.07,2.07,0,0,0,.43,2.34c0.81,0.76,2.18.82,2.77,1.76,0.91,1.45-.92,3.49-0.07,5a1.82,1.82,0,0,0,1.83.83,2.4,2.4,0,0,0,1.67-1.21,3,3,0,0,1,.42-0.67,1.78,1.78,0,0,1,2,0,3.26,3.26,0,0,0,2,.61,1.39,1.39,0,0,0,.86-2c-0.45-.75-1.5-0.89-2.06-1.57a2.15,2.15,0,0,1,.32-2.73,6.27,6.27,0,0,1,2.62-1.4l1.53-.52c1-.33,2.1-0.92,2-1.92,0-.78-0.81-1.3-1.17-2a2.14,2.14,0,0,1,1.15-2.88,2.34,2.34,0,0,0,.71-0.28c0.2-.16-0.35-0.89-0.54-1.06" transform="translate(426.11 -384.84)"/></g><g id="_Group_73" data-name="&lt;Group&gt;"><path class="cls-2" d="M-361.71,437.4a4.61,4.61,0,0,0-4.36,2.79,4.17,4.17,0,0,1-.58,1c-0.76.8-2.07,0.47-3.16,0.64a3.37,3.37,0,0,0-2.71,3.71c0.18,1.17,1,2.25.78,3.41a5.31,5.31,0,0,1-1.42,2.19,2.37,2.37,0,0,0-.63,2.42c0.71,1.43,3.3.83,4,2.24,0.44,0.84-.08,1.93.3,2.8a2.94,2.94,0,0,0,1.44,1.24,1,1,0,0,0,.44.15,3,3,0,0,0,.95-0.55c0.66-.27,1.28.52,2,0.61,1.22,0.15,1.85-1.72,3.07-1.81a2,2,0,0,1,.8.15A14.05,14.05,0,0,0-359,459a1.94,1.94,0,0,0,1.75-.37,2.58,2.58,0,0,0,.59-1.69,1.09,1.09,0,0,0-.12-0.76c-0.34-.44-1-0.16-1.57-0.07a1.93,1.93,0,0,1-2.09-1.34c-0.37-1.34.78-2.84,0.18-4.09s-2.71-1.31-3.47-2.56a2.66,2.66,0,0,1,.3-2.74c0.53-.81,1.27-1.46,1.81-2.27a5.48,5.48,0,0,0,.73-4.38C-361.06,438.17-360.82,437.45-361.71,437.4Z" transform="translate(426.11 -384.84)"/></g><g id="_Group_74" data-name="&lt;Group&gt;"><path class="cls-1" d="M-342.51,455l-1.91-1.89a1.85,1.85,0,0,0-.72-0.51,2.53,2.53,0,0,0-.93,0,7.05,7.05,0,0,1-2.74-.53,6.26,6.26,0,0,0-2.74-.46,2.22,2.22,0,0,0-2,1.7,1,1,0,0,1-.29.81,0.75,0.75,0,0,1-.56,0c-0.82-.21-1.62-0.52-2.45-0.66a3.31,3.31,0,0,0-2.44.42,1.79,1.79,0,0,0-.64,2.23,2.5,2.5,0,0,0,.75.75,11.05,11.05,0,0,0,2.22,1.25,2.08,2.08,0,0,0,1.74.14,4.2,4.2,0,0,0,1.09-1.34,2.53,2.53,0,0,1,2.71-.82c1,0.32,1.73,1.24,2.76,1.28A5.61,5.61,0,0,0-347,457a1.61,1.61,0,0,1,1.57.25,3.1,3.1,0,0,1,.5,1.29,2.67,2.67,0,0,0,3.72,1.43,2.67,2.67,0,0,0,.58-3.94c-0.79-.85-2.12-1.12-2.79-2.07" transform="translate(426.11 -384.84)"/></g><g id="_Group_75" data-name="&lt;Group&gt;"><path class="cls-3" d="M-369.94,445a4.81,4.81,0,0,1,1.81-2.46c0.45-.21,1-0.3,1.4-0.54a4.51,4.51,0,0,0,1.65-2.1c0.15-.31.89-1.35,0.7-1.65s-0.48-.18-1.07.34c-1.14,1-3.16.08-4,1.32a9.2,9.2,0,0,1-1.36,2c-0.76.62-1.86,0.6-2.75,1-1.75.82-2.29,3.19-1.68,5,0.51,1.52,1.64,2.92,1.51,4.52a5.55,5.55,0,0,1-.73,2.07,19.42,19.42,0,0,0-1.6,3.47,4.82,4.82,0,0,0,.25,3.71c1.4,2.44,5.21,2.49,6.76,4.84,0.33,0.49.53,1.06,0.82,1.58,1.09,2,3.26,3.1,5.35,4a5.78,5.78,0,0,0,3.3.6,2.16,2.16,0,0,0,1.8-2.44,3.16,3.16,0,0,0-.8-1.19l-3.75-4.08c-0.77-.84-1.6-1.91-1.28-3,0.17-.56.63-1.11,0.41-1.65a1.2,1.2,0,0,0-1.05-.62,5.7,5.7,0,0,1-1.28-.12c-1.37-.46-1.34-2.48-2.36-3.51-0.84-.85-2.34-0.92-3-1.92a3.47,3.47,0,0,1-.38-1.94c0-2.5,0-5.15,1.38-7.26" transform="translate(426.11 -384.84)"/></g><g id="_Group_76" data-name="&lt;Group&gt;"><path class="cls-4" d="M-361.3,471.83c0.3-1.21,1-.93,2.2-1.06a21.75,21.75,0,0,1,3.72.25,8.06,8.06,0,0,0,4.27-.8,10.62,10.62,0,0,1,1.3-.67c1-.37,2.2-0.13,3.27-0.4,2-.49,3.22-2.55,5.18-3,0.89-.22,1.84-0.09,2.75-0.29a5.23,5.23,0,0,0,3.46-3.15,15.46,15.46,0,0,0,1-4.73l0.2-2a9.75,9.75,0,0,0,.06-2c-0.19-1.72-.42-3-1.75-4.12s-1-2.19-2-3.34c-0.4-.48-3.45-4.42-3.9-4.86s-0.21-1.39,1.21-1.16a12.62,12.62,0,0,1,3.5,1.8c1.63,1.35,1.6,3.76,3.12,5.23s3.27,3.47,3.62,5.56c0.55,3.23.48,4.88-1.24,8.76-0.4.9-2.5,3.68-2.62,4.66-0.23,1.79-.28,3.19-1.28,4.69a7.43,7.43,0,0,1-3,3,10.28,10.28,0,0,1-3.91.39c-3.1,0-6.09,1-9.16,1.5s-6.47.27-8.85-1.72c-0.8-.67-1.48-1.75-1-2.7a2,2,0,0,1,1.67-1,5.82,5.82,0,0,1,2,.31" transform="translate(426.11 -384.84)"/></g><g id="_Group_77" data-name="&lt;Group&gt;"><path class="cls-1" d="M-349.73,465.63l-0.93,3.56a4.77,4.77,0,0,1-.53,1.39,3.15,3.15,0,0,1-3.39,1.11,7.57,7.57,0,0,0-1.7-.4,8.43,8.43,0,0,0-1.26.18,4.77,4.77,0,0,1-4.89-3.45,6.28,6.28,0,0,0-.65-1.79,6.44,6.44,0,0,0-1.18-1.09,4.33,4.33,0,0,1-1.5-4.31,1.58,1.58,0,0,1,.48-0.81,5.32,5.32,0,0,1,.69-0.37c0.62-.36.95-1.09,1.55-1.48a3.57,3.57,0,0,1,2.57-.17c1.36,0.25,2.85.57,3.7,1.66s0.85,2.65,1.8,3.62,2.22,1,3.43,1.29c0.8,0.19,1.74.72,1.66,1.54" transform="translate(426.11 -384.84)"/></g><g id="_Group_78" data-name="&lt;Group&gt;"><path class="cls-2" d="M-355.5,457.94c0.68-.1.45-0.86,0.86-1.38a2,2,0,0,1,.32-0.3,6.89,6.89,0,0,1,2.14-1.3,2.88,2.88,0,0,1,2.49.25c0.46,0.32.78,0.81,1.26,1.1a3.33,3.33,0,0,0,2.43.21,8,8,0,0,1,2.45-.35,1.85,1.85,0,0,1,1.75,1.47,4,4,0,0,0,0,1.32,2.35,2.35,0,0,0,1.34.91,3.07,3.07,0,0,1,1.7,2.69,3.26,3.26,0,0,1-1.56,2.71,2.92,2.92,0,0,0-.9.66,2.25,2.25,0,0,0-.21,1.45,9.46,9.46,0,0,1-.64,4,2.83,2.83,0,0,1-.63,1,3.67,3.67,0,0,1-2.21.72,8.35,8.35,0,0,1-3.71-.19c-1.91-.7-3.22-2.73-5.24-3-0.56-.07-1.14,0-1.7-0.09a3.75,3.75,0,0,1-2.48-2.51c-0.55-1.42-.81-3.14-2.17-3.92a4.88,4.88,0,0,1-1.72-1,2,2,0,0,1-.23-1.43c0.2-1.78,1.2-3.78,3.07-4C-357.72,456.94-357.42,458.21-355.5,457.94Z" transform="translate(426.11 -384.84)"/></g><g id="_Group_79" data-name="&lt;Group&gt;"><path class="cls-1" d="M-343.68,454.56a1.25,1.25,0,0,0,1.1-1.12,3.23,3.23,0,0,1,.56-1.6,2,2,0,0,1,.83-0.45,7.94,7.94,0,0,1,3.41-.33c0.68,0.08,1.65.05,1.72-.63a1.5,1.5,0,0,1,0-.46,0.62,0.62,0,0,1,.78-0.17,3.14,3.14,0,0,1,2,3.6,4.29,4.29,0,0,0-.27,1.3,3,3,0,0,0,.31.93,8,8,0,0,1,.22,5.73,4.14,4.14,0,0,1-1.21,1.9A19.78,19.78,0,0,0-336,464.5c-0.56.57-.77,1.41-1.3,2s-0.3.91-2.49,1.81a19.08,19.08,0,0,1-3,.8c-6.23,1.58-2.24-1.68-2.42-2.12-0.44-1.1,2.08-2.73,1.63-3.82a1.71,1.71,0,0,1,.29-1.58,15.14,15.14,0,0,1,1.12-1.25,5,5,0,0,0,1-1.81,1.51,1.51,0,0,0,0-1.17,2.39,2.39,0,0,0-1-.76,3.43,3.43,0,0,1-1.49-1.68l0.31-.37" transform="translate(426.11 -384.84)"/></g><g id="_Group_80" data-name="&lt;Group&gt;"><path class="cls-2" d="M-335.36,450.35a0.7,0.7,0,0,0,.07-1c-0.22-.47-1.51-1.28-1.43-1.8a4.22,4.22,0,0,0-1.83-4.11A13.35,13.35,0,0,1-341,442c-0.45-.45-0.72-1.06-1.14-1.54a6,6,0,0,0-1.52-1.12c-1.24-.73-2.71-1.47-4-0.9a4.62,4.62,0,0,0-1.73,1.61,2.43,2.43,0,0,0-.67,1.62c0.09,0.88,1.08,1.38,1.37,2.21a2.19,2.19,0,0,1-1.23,2.44,9.07,9.07,0,0,1-2.86.69,3.88,3.88,0,0,0-2.59,1.28,2.61,2.61,0,0,0-.25,2.48,3.36,3.36,0,0,0,1.8,1.76,2.13,2.13,0,0,0,2,0,3.7,3.7,0,0,1,.43-0.3c0.7-.35,1.4.39,2,0.86a3.37,3.37,0,0,0,3.7.19,1.28,1.28,0,0,1,.52-0.23c0.76-.07.78,1.25,1.44,1.63s1.37-.35,1.63-1a3.12,3.12,0,0,1,1.06-1.88,2,2,0,0,1,1-.16c0.75,0,1.5,0,2.25,0a3.45,3.45,0,0,0,2.44-1.26" transform="translate(426.11 -384.84)"/></g></g></svg>