<svg id="Layer_1" data-name="Layer 1" xmlns="http://www.w3.org/2000/svg" viewBox="0 0 194.63 86.62"><defs><style>.cls-1{fill:#44a84f;}.cls-2{fill:#9bc53d;}.cls-3{fill:#ffeed5;}</style></defs><title>courgette</title><g id="_Group_" data-name="&lt;Group&gt;"><g id="_Group_2" data-name="&lt;Group&gt;"><path class="cls-1" d="M-118.66,1013l-7.66-4.21c-4.54-2.49-9.13-5-14.1-6.45-2.82-.82-6-1.25-8.56.18a17.33,17.33,0,0,1-1.68,1,7.15,7.15,0,0,0-1,.44,3.68,3.68,0,0,0-1.2,1.59,5.7,5.7,0,0,0-.78,2.47c0,1.5,1.15,2.72,2.26,3.72a32,32,0,0,0,11.46,7,46.2,46.2,0,0,0,5.11,1.21c3.67,0.73,7.34,1.45,11.06,1.84a6.6,6.6,0,0,0,2.08,0,2.4,2.4,0,0,0,1.66-1.16c0.66-1.29-.36-3,0.42-4.25,0.2-.32.52-0.57,0.72-0.89a3.27,3.27,0,0,0,.11-2.39" transform="translate(153.69 -936.02)"/><path class="cls-1" d="M-118.64,1012.92c-5.07-2.78-10.07-5.78-15.33-8.19-3.64-1.67-8.16-3.78-12.29-3.16-4.28.64-9.72,4.47-6.29,9.06,5.92,7.93,17.86,9.78,26.88,10.92,1.7,0.21,4.54.93,5.65-1a38.56,38.56,0,0,0,1.13-5.13,4.85,4.85,0,0,0,.12-2.43c0-.06-0.1,0-0.09,0-0.12-.9-0.88,4.31-1.11,4.82-0.92,2.06-1.76,3.46-3.84,3.83-1.64.29-5.49-.78-7.38-1.12-6.31-1.16-15.47-2.71-19.58-8.36-2-2.76-3.08-6.52.1-8.7-0.16.11,1.14-.65,1.28-0.72,4.08-2,8.24-.84,12.2.68,6.45,2.47,12.45,6.23,18.49,9.54a0,0,0,0,0,0-.08h0Z" transform="translate(153.69 -936.02)"/></g><g id="_Group_3" data-name="&lt;Group&gt;"><path class="cls-2" d="M-119.24,1013a8,8,0,0,1,5.12,2,1.14,1.14,0,0,1,.35.46,1.24,1.24,0,0,1-.11.81l-0.23.59a1,1,0,0,1-.17.32,0.72,0.72,0,0,1-.83.05c-0.27-.14-0.48-0.36-0.73-0.52a3.93,3.93,0,0,0-1.43-.39,10.54,10.54,0,0,1-1.92-.51,0.9,0.9,0,0,1-.41-0.24,0.33,0.33,0,0,1,0-.44c0.05,0,.12-0.07.17-0.11a0.38,0.38,0,0,0,.06-0.43c-0.06-.14-0.16-0.26-0.23-0.4a1,1,0,0,1,.57-1.31" transform="translate(153.69 -936.02)"/><path class="cls-2" d="M-119.24,1013.08a8.16,8.16,0,0,1,3.89,1.13,4.28,4.28,0,0,1,1.05.76,1.79,1.79,0,0,1,.25,1.64s-1.52.29-1.52,0.29a5.36,5.36,0,0,1-.58-0.33c-0.92-.36-3-0.11-3.23-1.43a1.78,1.78,0,0,0,.12-0.24c-0.15-.58-0.58-1.48.27-1.89,0.07,0,0-.13-0.06-0.1a1.06,1.06,0,0,0-.68,1.11,2.28,2.28,0,0,1,.1,1.14,1,1,0,0,0-.11.26,1.54,1.54,0,0,0,1.29.77c0.57,0.16,1.15.22,1.72,0.36a9.72,9.72,0,0,1,1.6.81c1.12,0.45,1.77-1.31,1.27-2.12a5.75,5.75,0,0,0-2.43-1.63,8.49,8.49,0,0,0-2.94-.64,0.06,0.06,0,0,0,0,.12h0Z" transform="translate(153.69 -936.02)"/></g><g id="_Group_4" data-name="&lt;Group&gt;"><path class="cls-2" d="M-115.34,1019.4l-0.35,1.32a0.77,0.77,0,0,1-.3.52,0.76,0.76,0,0,1-.41.05l-3.79-.23a1.06,1.06,0,0,1-.42-0.08,0.36,0.36,0,0,1-.21-0.34,1.74,1.74,0,0,1,.46-0.53,0.92,0.92,0,0,0-.05-0.75,0.56,0.56,0,0,1,.15-0.69,0.57,0.57,0,0,1,.27,0c1.52,0.05,3,.73,4.51.65" transform="translate(153.69 -936.02)"/><path class="cls-2" d="M-115.39,1019.38a2.61,2.61,0,0,1-.68,1.58,2.54,2.54,0,0,1-1.8.17,10.72,10.72,0,0,1-1.89-.12c-0.35-.09-0.76-0.16-0.72-0.7,0-.08.18-0.11,0.18-0.19s0-.38,0-0.4c0.19-.53-1.18-0.58.64-1a3.34,3.34,0,0,1,1.11.18,14.34,14.34,0,0,0,3,.44,0.06,0.06,0,0,0,0-.12,17.87,17.87,0,0,1-3.37-.52,2.45,2.45,0,0,0-1.46-.08,0.7,0.7,0,0,0-.16.75,0.79,0.79,0,0,1-.1.86,0.59,0.59,0,0,0-.2.17,1.63,1.63,0,0,0-.11.24,0.5,0.5,0,0,0,.47.45,11.91,11.91,0,0,0,2.74.18,3.52,3.52,0,0,0,1.72,0c0.5-.29.54-1.38,0.67-1.86a0.06,0.06,0,0,0-.11,0h0Z" transform="translate(153.69 -936.02)"/></g><g id="_Group_5" data-name="&lt;Group&gt;"><path class="cls-3" d="M-119.6,1015.87a1.35,1.35,0,0,0-.6,1.07,2.8,2.8,0,0,0,.25,1.24,1.32,1.32,0,0,0,.28.47,1.49,1.49,0,0,0,.77.31l3.23,0.65a0.92,0.92,0,0,0,.67,0,0.91,0.91,0,0,0,.29-0.38,1.58,1.58,0,0,0,.22-1.42,1.52,1.52,0,0,0-.69-0.56,32.32,32.32,0,0,0-3.7-1.63,1.18,1.18,0,0,0-.46-0.1,0.41,0.41,0,0,0-.37.24" transform="translate(153.69 -936.02)"/></g><g id="_Group_6" data-name="&lt;Group&gt;"><path class="cls-3" d="M-152.65,1005.37c1.39,0.47,2.81.8,4.23,1.17a207.84,207.84,0,0,1,22.49,7.66c1.37,0.52,2.73,1,4.07,1.65a1,1,0,0,1,.77.92,7.38,7.38,0,0,1-2.89-1c-3-1.4-6.46-1.63-9.48-3-1.09-.49-2.11-1.13-3.19-1.66-5-2.47-10.91-2.58-16-5a0.61,0.61,0,0,1-.46-0.56,0.32,0.32,0,0,1,.52-0.14" transform="translate(153.69 -936.02)"/></g><g id="_Group_7" data-name="&lt;Group&gt;"><path class="cls-3" d="M-153,1007.63c2.07,2.67,5.34,4.06,8.54,5.14,1.9,0.64,3.83,1.2,5.76,1.76l18,5.24a0.87,0.87,0,0,1-.91.35,24.14,24.14,0,0,1-4.38-.63c-1.14-.27-2.26-0.63-3.38-1l-13.41-4.26a27.51,27.51,0,0,1-7.89-3.46,13.78,13.78,0,0,1-2.27-2.05,1,1,0,0,1-.3-0.54,0.35,0.35,0,0,1,.38-0.38" transform="translate(153.69 -936.02)"/></g><g id="_Group_8" data-name="&lt;Group&gt;"><path class="cls-3" d="M-150.3,1004.54a18.71,18.71,0,0,1,4.14.28,74,74,0,0,1,22.55,8.1,13.5,13.5,0,0,0,3.21,1.47,13.5,13.5,0,0,0-4.88-3.54c-2.88-1.41-5.9-2.54-8.9-3.66a61.87,61.87,0,0,0-7.07-2.31c-1.87-.45-3.78-0.72-5.68-1a15.24,15.24,0,0,0-2.77-.23,1,1,0,0,0-.75.25,0.39,0.39,0,0,0,.14.64" transform="translate(153.69 -936.02)"/></g></g><g id="_Group_9" data-name="&lt;Group&gt;"><g id="_Group_10" data-name="&lt;Group&gt;"><path class="cls-1" d="M-82.7,986.54l9.06,5.92c5.37,3.51,10.8,7.05,16.81,9.32,3.4,1.28,7.3,2.11,10.6.59a21.48,21.48,0,0,1,2.17-1,8.85,8.85,0,0,0,1.32-.44A4.56,4.56,0,0,0-41.1,999a7.06,7.06,0,0,0,1.21-3c0.14-1.85-1.16-3.47-2.44-4.81a39.68,39.68,0,0,0-13.49-9.74,57.25,57.25,0,0,0-6.19-2c-4.46-1.25-8.93-2.5-13.49-3.33a8.18,8.18,0,0,0-2.58-.18,3,3,0,0,0-2.16,1.27c-0.94,1.53.16,3.78-.92,5.21-0.28.38-.69,0.65-1,1a4.05,4.05,0,0,0-.36,2.94" transform="translate(153.69 -936.02)"/><path class="cls-1" d="M-82.72,986.58c9,5.9,19.43,15,30.46,16.5,5.82,0.81,16.11-3.83,10.91-10.8-6.78-9.09-17.77-12.25-28.2-14.83-2.6-.64-7.85-2.87-10.26-0.62-1,1-.54,1.89-0.89,3.11-0.82,2.9-2,3.71-1.85,6.54,0,0.06.1,0.06,0.1,0-0.37-6.18,1.1-2.34,1.57-4.56,0.57-2.75,0-5.42,5.37-5.67,3.17-.15,7.12,1.58,10.14,2.4,8.65,2.35,16.14,5.35,22.43,12,3.42,3.64,3.54,7.84-1.12,10.61-0.44.26-4.1,1.67-3.62,1.54-4.91,1.29-10.48-1.45-14.69-3.61-7.08-3.65-13.64-8.38-20.3-12.73-0.05,0-.1,0,0,0.08h0Z" transform="translate(153.69 -936.02)"/></g><g id="_Group_11" data-name="&lt;Group&gt;"><path class="cls-2" d="M-82,986.52a9.89,9.89,0,0,1-6.13-3,1.41,1.41,0,0,1-.39-0.61,1.53,1.53,0,0,1,.22-1l0.34-.71a1.17,1.17,0,0,1,.24-0.38,0.89,0.89,0,0,1,1,0c0.32,0.2.56,0.49,0.86,0.71a4.87,4.87,0,0,0,1.72.62,13.07,13.07,0,0,1,2.32.81,1.11,1.11,0,0,1,.48.34,0.4,0.4,0,0,1,0,.54c-0.07.05-.15,0.07-0.22,0.12a0.47,0.47,0,0,0-.12.52c0.06,0.18.18,0.34,0.25,0.52a1.2,1.2,0,0,1-.83,1.57" transform="translate(153.69 -936.02)"/><path class="cls-2" d="M-82,986.46a10.22,10.22,0,0,1-4.7-1.78,5.9,5.9,0,0,1-1.23-1c-0.19-.29-0.46-2.13,0-2.4s1.6,0.17,2,.36c0.14,0.06.27,0.17,0.41,0.24,1.15,0.56,3.88.45,3.85,2.1a12.79,12.79,0,0,1-.67,2.59c-0.07,0,0,.14,0,0.11a1.3,1.3,0,0,0,.95-1.3,2.88,2.88,0,0,1-.12-1c0,0.15.25-.75,0.25-0.71a1.28,1.28,0,0,0-1.05-.89c-0.76-.32-1.55-0.47-2.32-0.72a15,15,0,0,1-2.12-1.21c-1.32-.66-2.31,1.46-1.76,2.47a7.23,7.23,0,0,0,2.85,2.24A10.49,10.49,0,0,0-82,986.58c0.07,0,.07-0.11,0-0.12h0Z" transform="translate(153.69 -936.02)"/></g><g id="_Group_12" data-name="&lt;Group&gt;"><path class="cls-2" d="M-86.2,978.27l0.56-1.6a1,1,0,0,1,.42-0.61,1,1,0,0,1,.51,0l4.66,0.65a1.31,1.31,0,0,1,.51.14,0.45,0.45,0,0,1,.23.44,2.16,2.16,0,0,1-.62.61,1.14,1.14,0,0,0,0,.93,0.7,0.7,0,0,1-.25.84,0.71,0.71,0,0,1-.34,0c-1.88-.21-3.63-1.19-5.52-1.24" transform="translate(153.69 -936.02)"/><path class="cls-2" d="M-86.14,978.29a7.17,7.17,0,0,1,.28-0.8,2.57,2.57,0,0,1,1.92-1.28,11.07,11.07,0,0,1,2.07.29,6.46,6.46,0,0,1,2.07.3s0.06,0.84.06,0.85-0.21.11-.24,0.22-0.05.57-.08,0.64a0.52,0.52,0,0,1-.45.53,0.58,0.58,0,0,1-.92.43,4.37,4.37,0,0,1-.92-0.24,17.47,17.47,0,0,0-3.69-.83c-0.07,0-.07.11,0,0.12a22.12,22.12,0,0,1,4.11,1,3.16,3.16,0,0,0,1.77.25c0.41-.26.2-0.52,0.27-0.91-0.1.56,0.69-1.48,0.6-1.66a0.82,0.82,0,0,0-.76-0.5c-1.25-.3-2.61-0.36-3.88-0.54a2.64,2.64,0,0,0-1.35-.07c-0.61.29-.81,1.69-1,2.23,0,0.07.09,0.1,0.11,0h0Z" transform="translate(153.69 -936.02)"/></g><g id="_Group_13" data-name="&lt;Group&gt;"><path class="cls-3" d="M-81.26,983a1.67,1.67,0,0,0,.85-1.26,3.46,3.46,0,0,0-.19-1.56,1.64,1.64,0,0,0-.3-0.61,1.84,1.84,0,0,0-.92-0.46L-85.75,978a1.14,1.14,0,0,0-.83,0,1.13,1.13,0,0,0-.4.44,2,2,0,0,0-.41,1.73,1.88,1.88,0,0,0,.79.75,40.05,40.05,0,0,0,4.42,2.37,1.46,1.46,0,0,0,.55.17,0.51,0.51,0,0,0,.48-0.26" transform="translate(153.69 -936.02)"/></g><g id="_Group_14" data-name="&lt;Group&gt;"><path class="cls-3" d="M-41.42,999.15c-1.67-.71-3.4-1.26-5.12-1.84-9.29-3.17-18.19-7.39-27.06-11.61-1.64-.78-3.28-1.56-4.87-2.43a1.25,1.25,0,0,1-.87-1.21,9.15,9.15,0,0,1,3.47,1.51c3.59,2,7.82,2.63,11.43,4.61,1.3,0.71,2.51,1.6,3.78,2.36,5.95,3.53,13.23,4.23,19.24,7.65a0.76,0.76,0,0,1,.52.74,0.39,0.39,0,0,1-.65.13" transform="translate(153.69 -936.02)"/></g><g id="_Group_15" data-name="&lt;Group&gt;"><path class="cls-3" d="M-40.74,996.4c-2.3-3.49-6.22-5.53-10.07-7.16-2.29-1-4.62-1.84-6.94-2.72l-21.76-8.18a1.08,1.08,0,0,1,1.16-.34,29.92,29.92,0,0,1,5.35,1.2c1.39,0.45,2.74,1,4.09,1.54l16.16,6.55c3.31,1.34,6.68,2.72,9.42,5A17.08,17.08,0,0,1-40.73,995a1.19,1.19,0,0,1,.31.7,0.43,0.43,0,0,1-.51.44" transform="translate(153.69 -936.02)"/></g><g id="_Group_16" data-name="&lt;Group&gt;"><path class="cls-3" d="M-44.41,1000a23.19,23.19,0,0,1-5.09-.74A91.74,91.74,0,0,1-76.6,987.06a16.73,16.73,0,0,0-3.83-2.12,16.73,16.73,0,0,0,5.7,4.84c3.43,2,7,3.69,10.65,5.36a76.67,76.67,0,0,0,8.51,3.53c2.27,0.73,4.6,1.25,6.92,1.77a18.89,18.89,0,0,0,3.4.54,1.29,1.29,0,0,0,.95-0.23,0.49,0.49,0,0,0-.11-0.81" transform="translate(153.69 -936.02)"/></g></g><g id="_Group_17" data-name="&lt;Group&gt;"><g id="_Group_18" data-name="&lt;Group&gt;"><path class="cls-1" d="M-33,963.33l9.43,5.32c5.59,3.16,11.24,6.34,17.38,8.2,3.48,1.06,7.42,1.63,10.61-.1a21.48,21.48,0,0,1,2.1-1.17,8.85,8.85,0,0,0,1.29-.53,4.56,4.56,0,0,0,1.51-2,7.06,7.06,0,0,0,1-3.05c0-1.85-1.38-3.38-2.74-4.64a39.68,39.68,0,0,0-14.1-8.84A57.25,57.25,0,0,0-12.84,955c-4.54-1-9.08-1.91-13.68-2.44a8.18,8.18,0,0,0-2.58,0,3,3,0,0,0-2.07,1.41c-0.84,1.59.4,3.76-.58,5.26-0.26.4-.65,0.69-0.9,1.09a4.05,4.05,0,0,0-.17,3" transform="translate(153.69 -936.02)"/><path class="cls-1" d="M-33.05,963.37c9.36,5.28,20.38,13.67,31.47,14.48C3.8,978.24,14,973.44,9,966.91c-6.89-9.11-19-11.63-29.55-13.51-2.68-.48-8.08-2.29-10.28,0-1,1-.42,1.92-0.68,3.16-0.63,2.95-1.77,3.84-1.42,6.65,0,0.06.1,0.06,0.1,0-0.78-6.19.94-2.4,1.26-4.66s-0.23-5.16,3.7-6.12c3.15-.77,8.4,1.2,11.56,1.84C-7.4,956.11.07,958.66,6.9,964.88c3.58,3.26,3.71,7.85-.42,10.66,0.35-.24-2.49,1.34-2.11,1.18-5.24,2.27-10.55.34-15.48-1.72-7.62-3.18-14.72-7.65-21.89-11.7a0,0,0,0,0,0,.08h0Z" transform="translate(153.69 -936.02)"/></g><g id="_Group_19" data-name="&lt;Group&gt;"><path class="cls-2" d="M-32.32,963.26a9.89,9.89,0,0,1-6.32-2.59,1.41,1.41,0,0,1-.43-0.58,1.53,1.53,0,0,1,.15-1l0.29-.73A1.17,1.17,0,0,1-38.4,958a0.89,0.89,0,0,1,1-.05c0.33,0.17.59,0.45,0.9,0.65a4.87,4.87,0,0,0,1.76.51,13.07,13.07,0,0,1,2.37.66,1.11,1.11,0,0,1,.5.31,0.4,0.4,0,0,1,0,.54c-0.06.05-.15,0.08-0.21,0.13a0.47,0.47,0,0,0-.08.53c0.07,0.18.2,0.33,0.28,0.5a1.2,1.2,0,0,1-.72,1.62" transform="translate(153.69 -936.02)"/><path class="cls-2" d="M-32.32,963.21a10.13,10.13,0,0,1-4.81-1.46,5.32,5.32,0,0,1-1.29-1c-0.27-.33-0.69-1.64-0.29-2,0,0,1.91-.34,1.91-0.34a6.64,6.64,0,0,1,.72.42c1.15,0.47,3.74.17,4,1.85a2.33,2.33,0,0,0-.15.29c0.18,0.72.7,1.86-.37,2.35-0.07,0,0,.13.06,0.1A1.3,1.3,0,0,0-31.7,962a2.91,2.91,0,0,1-.11-1.43,1.26,1.26,0,0,0,.13-0.3c-0.17-.67-1-0.79-1.58-1s-1.42-.29-2.12-0.47a12.1,12.1,0,0,1-2-1c-1.37-.57-2.18,1.59-1.59,2.58a7.11,7.11,0,0,0,3,2,10.51,10.51,0,0,0,3.63.83c0.07,0,.07-0.11,0-0.12h0Z" transform="translate(153.69 -936.02)"/></g><g id="_Group_20" data-name="&lt;Group&gt;"><path class="cls-3" d="M-31.83,959.74a1.67,1.67,0,0,0,.77-1.32,3.46,3.46,0,0,0-.29-1.54,1.64,1.64,0,0,0-.34-0.59,1.84,1.84,0,0,0-.94-0.4l-4-.85a1.14,1.14,0,0,0-.83,0,1.13,1.13,0,0,0-.37.47,2,2,0,0,0-.3,1.76,1.88,1.88,0,0,0,.84.7,40.05,40.05,0,0,0,4.56,2.08,1.46,1.46,0,0,0,.56.13,0.51,0.51,0,0,0,.47-0.29" transform="translate(153.69 -936.02)"/></g><g id="_Group_21" data-name="&lt;Group&gt;"><path class="cls-3" d="M9,973.23c-1.71-.6-3.48-1-5.23-1.51-9.48-2.56-18.63-6.19-27.76-9.82-1.68-.67-3.37-1.34-5-2.11a1.25,1.25,0,0,1-.94-1.15,9.15,9.15,0,0,1,3.57,1.28c3.71,1.78,8,2.12,11.7,3.86,1.35,0.63,2.6,1.43,3.93,2.11,6.17,3.14,13.48,3.35,19.7,6.38a0.76,0.76,0,0,1,.56.71,0.39,0.39,0,0,1-.64.17" transform="translate(153.69 -936.02)"/></g><g id="_Group_22" data-name="&lt;Group&gt;"><path class="cls-3" d="M9.48,970.43C7,967.1,2.92,965.32-1,963.94c-2.35-.82-4.73-1.54-7.11-2.26l-22.25-6.75a1.08,1.08,0,0,1,1.13-.42,29.92,29.92,0,0,1,5.41.84c1.41,0.36,2.8.81,4.18,1.27l16.56,5.48c3.39,1.12,6.85,2.28,9.72,4.4a17.08,17.08,0,0,1,2.78,2.57,1.19,1.19,0,0,1,.36.68,0.43,0.43,0,0,1-.48.47" transform="translate(153.69 -936.02)"/></g><g id="_Group_23" data-name="&lt;Group&gt;"><path class="cls-3" d="M6,974.22a23.19,23.19,0,0,1-5.13-.4A91.74,91.74,0,0,1-26.9,963.45a16.73,16.73,0,0,0-4-1.86,16.73,16.73,0,0,0,6,4.46c3.55,1.79,7.27,3.23,11,4.66a76.67,76.67,0,0,0,8.72,3c2.31,0.58,4.67,1,7,1.32a18.89,18.89,0,0,0,3.43.32,1.29,1.29,0,0,0,.93-0.3,0.49,0.49,0,0,0-.17-0.8" transform="translate(153.69 -936.02)"/></g></g><g id="_Group_24" data-name="&lt;Group&gt;"><g id="_Group_25" data-name="&lt;Group&gt;"><path class="cls-1" d="M-101.82,984.39l-9.43-7.92c-5.59-4.69-11.24-9.43-17.72-12.8-3.67-1.91-8-3.37-11.88-2.1a24.42,24.42,0,0,1-2.59.87,10.07,10.07,0,0,0-1.55.32,5.19,5.19,0,0,0-2.1,1.87,8,8,0,0,0-1.76,3.2c-0.41,2.07.84,4.07,2.1,5.76,3.8,5.09,8.35,9.74,13.91,12.82a65.1,65.1,0,0,0,6.73,3.08c4.87,2,9.75,4,14.79,5.58a9.31,9.31,0,0,0,2.88.55,3.39,3.39,0,0,0,2.61-1.14c1.27-1.6.33-4.29,1.75-5.76,0.37-.39.87-0.64,1.23-1a4.61,4.61,0,0,0,.81-3.27" transform="translate(153.69 -936.02)"/><path class="cls-1" d="M-101.78,984.35c-9.33-7.83-19.54-18.88-31.51-22.57-5.88-1.81-19.12,1.17-14.81,9.81,5.53,11.08,17.67,16.38,28.48,20.61,3,1.16,10.91,5.75,13.81,2.34,0.63-.75.44-1.49,0.78-2.34,1.28-3.21,3-4.57,3-7.77a0.06,0.06,0,0,0-.11,0c-0.11,4.26-6.62,10.89-10.06,10.34-4.11-.65-8.49-3.06-12.32-4.65-8.53-3.52-17.24-8.37-22.23-16.55-5.33-8.75,4.77-13.53,11.88-12.09,4.16,0.84,8.11,3.35,11.6,5.69,7.57,5.09,14.4,11.39,21.37,17.25,0.05,0,.13,0,0.08-0.08h0Z" transform="translate(153.69 -936.02)"/></g><g id="_Group_26" data-name="&lt;Group&gt;"><path class="cls-2" d="M-102.62,984.31a11.25,11.25,0,0,1,6.52,4.22,1.61,1.61,0,0,1,.36.74,1.74,1.74,0,0,1-.38,1.09l-0.48.76a1.33,1.33,0,0,1-.32.39,1,1,0,0,1-1.17-.15c-0.33-.26-0.56-0.63-0.87-0.92a5.53,5.53,0,0,0-1.86-.93,14.86,14.86,0,0,1-2.51-1.23,1.26,1.26,0,0,1-.5-0.45,0.46,0.46,0,0,1,.12-0.6c0.08,0,.18-0.06.27-0.1a0.53,0.53,0,0,0,.2-0.58c0-.21-0.15-0.41-0.21-0.62a1.36,1.36,0,0,1,1.15-1.66" transform="translate(153.69 -936.02)"/><path class="cls-2" d="M-102.64,984.37a11.58,11.58,0,0,1,5.17,2.73,5.74,5.74,0,0,1,.69.71,3.37,3.37,0,0,1,.48,2.7c-0.92,1.86-2.11.26-2.84-.29-1.22-.92-4.55-1.11-4.29-3a2.62,2.62,0,0,0,.24-0.29c0-.86-0.71-2.15.9-2.55a0.07,0.07,0,0,0,0-.13,1.48,1.48,0,0,0-1.24,1.34c0,0.18.11,0.39,0.1,0.55a5.44,5.44,0,0,1-.28,1.07,1.3,1.3,0,0,0-.21.32c0,0.83,1.22,1.23,1.81,1.51s1.54,0.59,2.26,1,1.21,1.16,1.94,1.55c1.32,0.7,2.58-1.58,2.13-2.67-1-2.41-4.43-4-6.79-4.6a0.07,0.07,0,0,0,0,.13h0Z" transform="translate(153.69 -936.02)"/></g><g id="_Group_27" data-name="&lt;Group&gt;"><path class="cls-2" d="M-99,994.2l-0.85,1.73a1.08,1.08,0,0,1-.56.63,1.07,1.07,0,0,1-.58,0l-5.17-1.36a1.49,1.49,0,0,1-.56-0.23,0.51,0.51,0,0,1-.2-0.53,2.46,2.46,0,0,1,.78-0.6,1.3,1.3,0,0,0,.13-1,0.79,0.79,0,0,1,.39-0.92,0.81,0.81,0,0,1,.38,0c2.09,0.49,3.93,1.83,6.06,2.14" transform="translate(153.69 -936.02)"/><path class="cls-2" d="M-99,994.16a3.69,3.69,0,0,1-1.38,2c-0.82.41-1.67,0-2.55-.25a15.12,15.12,0,0,1-2.59-.68,1,1,0,0,1-.81-1.2c0-.1.27-0.11,0.3-0.21s0.16-.5.18-0.53a1.22,1.22,0,0,0,0-.37q-0.17-.83,1.19-0.88a3.6,3.6,0,0,1,1,.36,25.19,25.19,0,0,0,4.53,1.64c0.08,0,.12-0.11,0-0.13a20,20,0,0,1-4-1.44c-0.51-.21-1.88-1-2.46-0.72a1,1,0,0,0-.43,1,1.14,1.14,0,0,1-.38,1.18,1.11,1.11,0,0,0-.32.17,1.55,1.55,0,0,0-.22.29,0.69,0.69,0,0,0,.51.74,16.49,16.49,0,0,0,3.74,1c0.63,0.17,1.69.71,2.36,0.49s1.13-1.76,1.43-2.38c0-.08-0.08-0.14-0.11-0.07h0Z" transform="translate(153.69 -936.02)"/></g><g id="_Group_28" data-name="&lt;Group&gt;"><path class="cls-3" d="M-103.91,988.15a1.9,1.9,0,0,0-1.13,1.31,3.94,3.94,0,0,0,0,1.78,1.87,1.87,0,0,0,.26.73,2.1,2.1,0,0,0,1,.64l4.28,1.78a1.3,1.3,0,0,0,.93.14,1.29,1.29,0,0,0,.51-0.45,2.22,2.22,0,0,0,.7-1.9,2.14,2.14,0,0,0-.8-1,45.55,45.55,0,0,0-4.67-3.27,1.66,1.66,0,0,0-.6-0.26,0.58,0.58,0,0,0-.58.23" transform="translate(153.69 -936.02)"/></g><g id="_Group_29" data-name="&lt;Group&gt;"><path class="cls-3" d="M-146.71,964.55c1.79,1,3.67,1.88,5.53,2.78,10.06,4.84,19.53,10.81,29,16.77,1.74,1.1,3.49,2.2,5.17,3.4a1.42,1.42,0,0,1,.81,1.48,10.4,10.4,0,0,1-3.72-2.18c-3.78-2.76-8.47-4-12.28-6.75-1.37-1-2.61-2.14-4-3.17-6.24-4.8-14.37-6.56-20.69-11.25a0.87,0.87,0,0,1-.48-0.91,0.45,0.45,0,0,1,.75-0.05" transform="translate(153.69 -936.02)"/></g><g id="_Group_30" data-name="&lt;Group&gt;"><path class="cls-3" d="M-147.86,967.58c2.12,4.25,6.27,7.09,10.4,9.45,2.45,1.4,5,2.71,7.47,4l23.46,12.19a1.23,1.23,0,0,1-1.35.23,34,34,0,0,1-5.88-2.07c-1.5-.69-3-1.49-4.41-2.29l-17.36-9.58c-3.56-2-7.18-4-10-6.94a19.42,19.42,0,0,1-2.57-3.46,1.36,1.36,0,0,1-.26-0.83,0.49,0.49,0,0,1,.63-0.43" transform="translate(153.69 -936.02)"/></g><g id="_Group_31" data-name="&lt;Group&gt;"><path class="cls-3" d="M-143.23,964.06a26.37,26.37,0,0,1,5.65,1.52A104.32,104.32,0,0,1-108.64,983a19,19,0,0,0,4,2.91,19,19,0,0,0-5.78-6.24c-3.6-2.74-7.45-5.13-11.3-7.5a87.18,87.18,0,0,0-9.13-5.14c-2.46-1.14-5-2-7.58-2.94a21.48,21.48,0,0,0-3.76-1.07,1.46,1.46,0,0,0-1.1.14,0.56,0.56,0,0,0,0,.93" transform="translate(153.69 -936.02)"/></g></g><g id="_Group_32" data-name="&lt;Group&gt;"><g id="_Group_33" data-name="&lt;Group&gt;"><path class="cls-1" d="M-124.08,961.41l9.37,5.43c5.55,3.22,11.16,6.47,17.28,8.41,3.46,1.1,7.4,1.72,10.61,0a21.48,21.48,0,0,1,2.11-1.15,8.85,8.85,0,0,0,1.3-.51,4.56,4.56,0,0,0,1.54-1.94,7.06,7.06,0,0,0,1-3c0-1.85-1.34-3.4-2.69-4.67a39.68,39.68,0,0,0-14-9,57.25,57.25,0,0,0-6.29-1.65c-4.52-1-9.05-2-13.65-2.6a8.18,8.18,0,0,0-2.58,0,3,3,0,0,0-2.09,1.39c-0.85,1.58.36,3.76-.64,5.26-0.26.39-.65,0.69-0.91,1.08a4.05,4.05,0,0,0-.21,3" transform="translate(153.69 -936.02)"/><path class="cls-1" d="M-124.1,961.46c9.29,5.39,20.22,13.91,31.29,14.86,5.33,0.45,15.62-4.21,10.76-10.81-6.78-9.2-18.91-11.86-29.38-13.86-2.6-.5-8-2.4-10.28-0.08-1,1-.44,1.92-0.72,3.15-0.67,2.94-1.82,3.82-1.5,6.63,0,0.06.1,0.06,0.1,0-0.7-6.19,1-2.39,1.32-4.64s-0.16-5.21,3.77-6.07c3.13-.68,8.48,1.32,11.54,2,8.84,1.9,16.28,4.54,23,10.83,3.55,3.31,3.6,7.88-.55,10.65-0.42.28-4,1.89-3.53,1.74-4.61,1.48-9.87-.68-14.06-2.49-7.58-3.27-14.62-7.83-21.75-12a0,0,0,0,0,0,.08h0Z" transform="translate(153.69 -936.02)"/></g><g id="_Group_34" data-name="&lt;Group&gt;"><path class="cls-2" d="M-123.37,961.36a9.89,9.89,0,0,1-6.29-2.67,1.41,1.41,0,0,1-.42-0.59,1.53,1.53,0,0,1,.17-1l0.3-.73a1.17,1.17,0,0,1,.22-0.39,0.89,0.89,0,0,1,1,0c0.33,0.18.58,0.46,0.89,0.66a4.87,4.87,0,0,0,1.75.53,13.07,13.07,0,0,1,2.36.69,1.11,1.11,0,0,1,.5.32,0.4,0.4,0,0,1,0,.54c-0.06.05-.15,0.08-0.22,0.13a0.47,0.47,0,0,0-.09.53c0.07,0.18.2,0.33,0.28,0.5a1.2,1.2,0,0,1-.74,1.61" transform="translate(153.69 -936.02)"/><path class="cls-2" d="M-123.37,961.3a10.13,10.13,0,0,1-4.79-1.52,5.32,5.32,0,0,1-1.28-1c-0.26-.33-0.67-1.65-0.27-2,0,0,1.91-.32,1.92-0.32a6.64,6.64,0,0,1,.71.43c1.12,0.47,3.77.23,4,1.89a2.2,2.2,0,0,0-.15.29c0.17,0.73.62,1.89-.4,2.35-0.07,0,0,.13.06,0.1a1.3,1.3,0,0,0,.86-1.35,3,3,0,0,1-.09-1.43,1,1,0,0,0,.13-0.3c-0.17-.67-1-0.8-1.56-1s-1.41-.31-2.12-0.49a12.12,12.12,0,0,1-2-1.05c-1.36-.58-2.2,1.56-1.62,2.56a7.12,7.12,0,0,0,3,2.08,10.52,10.52,0,0,0,3.62.88c0.07,0,.07-0.11,0-0.12h0Z" transform="translate(153.69 -936.02)"/></g><g id="_Group_35" data-name="&lt;Group&gt;"><path class="cls-3" d="M-122.83,957.84a1.67,1.67,0,0,0,.78-1.31,3.46,3.46,0,0,0-.27-1.55,1.64,1.64,0,0,0-.34-0.59,1.84,1.84,0,0,0-.94-0.41l-4-.9a1.14,1.14,0,0,0-.83,0,1.13,1.13,0,0,0-.38.46,2,2,0,0,0-.32,1.75,1.88,1.88,0,0,0,.83.71,40.05,40.05,0,0,0,4.54,2.13,1.46,1.46,0,0,0,.56.14,0.51,0.51,0,0,0,.47-0.29" transform="translate(153.69 -936.02)"/></g><g id="_Group_36" data-name="&lt;Group&gt;"><path class="cls-3" d="M-82.19,971.82c-1.7-.62-3.46-1.08-5.21-1.57-9.45-2.67-18.56-6.42-27.64-10.15-1.68-.69-3.35-1.38-5-2.17a1.25,1.25,0,0,1-.93-1.16,9.15,9.15,0,0,1,3.55,1.33c3.69,1.82,7.95,2.21,11.66,4,1.34,0.64,2.59,1.46,3.9,2.15,6.13,3.21,13.44,3.52,19.62,6.62a0.76,0.76,0,0,1,.55.71,0.39,0.39,0,0,1-.64.16" transform="translate(153.69 -936.02)"/></g><g id="_Group_37" data-name="&lt;Group&gt;"><path class="cls-3" d="M-81.65,969c-2.48-3.36-6.5-5.19-10.43-6.61-2.34-.84-4.71-1.6-7.08-2.35l-22.16-7a1.08,1.08,0,0,1,1.14-.4,29.92,29.92,0,0,1,5.4.91c1.41,0.37,2.79.85,4.16,1.32l16.49,5.68c3.38,1.16,6.82,2.36,9.67,4.51a17.08,17.08,0,0,1,2.75,2.61,1.19,1.19,0,0,1,.35.68,0.43,0.43,0,0,1-.48.47" transform="translate(153.69 -936.02)"/></g><g id="_Group_38" data-name="&lt;Group&gt;"><path class="cls-3" d="M-85.13,972.77a23.19,23.19,0,0,1-5.12-.46,91.74,91.74,0,0,1-27.7-10.7,16.73,16.73,0,0,0-3.94-1.91,16.73,16.73,0,0,0,5.94,4.53c3.53,1.83,7.23,3.31,10.93,4.79a76.67,76.67,0,0,0,8.69,3.07c2.3,0.61,4.66,1,7,1.4a18.89,18.89,0,0,0,3.42.36,1.29,1.29,0,0,0,.93-0.28,0.49,0.49,0,0,0-.16-0.8" transform="translate(153.69 -936.02)"/></g></g><g id="_Group_39" data-name="&lt;Group&gt;"><g id="_Group_40" data-name="&lt;Group&gt;"><path class="cls-1" d="M9.95,993l-6.53-5.77c-3.87-3.42-7.78-6.87-12.3-9.36-2.56-1.41-5.56-2.53-8.37-1.7a17.28,17.28,0,0,1-1.85.57,7.12,7.12,0,0,0-1.1.2,3.67,3.67,0,0,0-1.52,1.29,5.68,5.68,0,0,0-1.3,2.23c-0.33,1.46.52,2.89,1.38,4.11A31.92,31.92,0,0,0-12,993.84a46.05,46.05,0,0,0,4.7,2.3c3.41,1.51,6.82,3,10.36,4.21a6.58,6.58,0,0,0,2,.44,2.4,2.4,0,0,0,1.87-.76c0.92-1.11.31-3,1.34-4,0.27-.27.62-0.44,0.89-0.71a3.26,3.26,0,0,0,.63-2.3" transform="translate(153.69 -936.02)"/><path class="cls-1" d="M10,992.93c-4.32-3.81-8.54-7.82-13.11-11.32-3-2.32-6.77-5.18-10.69-5.68-4.82-.61-11.49,2.38-8.25,8,4.71,8.14,13.24,11.92,21.6,15.2,1.74,0.68,5.62,2.91,7.43,1,0.66-.71,1-2.63,1.44-3.41,0.77-1.5,1.3-2,1.44-3.67,0-.05-0.07,0-0.08,0,0.1-1.18-2,4.77-2.23,5-3.65,4.28-9.2.61-13.12-1.1-5.54-2.42-10.31-5.23-14.19-10-1.54-1.88-3.31-5.09-2.67-7.64,0.26-1,3.61-2.86,5.23-3.09,4.52-.63,8.41,1.51,12,4C0.15,983.91,5,988.62,9.92,993c0,0,.09,0,0.06-0.06h0Z" transform="translate(153.69 -936.02)"/></g><g id="_Group_41" data-name="&lt;Group&gt;"><path class="cls-2" d="M9.38,992.89a8,8,0,0,1,4.54,3.1,1.14,1.14,0,0,1,.24.53,1.23,1.23,0,0,1-.29.76l-0.35.53a0.94,0.94,0,0,1-.24.27,0.71,0.71,0,0,1-.82-0.13c-0.23-.19-0.38-0.46-0.6-0.66a3.91,3.91,0,0,0-1.3-.69,10.51,10.51,0,0,1-1.76-.92,0.89,0.89,0,0,1-.34-0.33,0.33,0.33,0,0,1,.1-0.42c0.06,0,.13,0,0.19-0.07a0.38,0.38,0,0,0,.15-0.4c0-.15-0.1-0.29-0.14-0.44a1,1,0,0,1,.84-1.15" transform="translate(153.69 -936.02)"/><path class="cls-2" d="M9.36,992.93A8.16,8.16,0,0,1,13,995c0.63,0.62,1.31,1.4.86,2.3a1.22,1.22,0,0,1-1.64.33c-0.19-.1-0.41-0.44-0.58-0.56-0.75-.52-2.7-0.75-2.81-1.76-0.17-1.59.07,0.46,0.14-.56,0-.61-0.38-1.55.69-1.8a0,0,0,0,0,0-.09,1,1,0,0,0-.9.93c0,0.13.07,0.27,0.06,0.39a3.37,3.37,0,0,1-.22.75,0.9,0.9,0,0,0-.15.23c0,0.59.84,0.89,1.25,1.1a17.58,17.58,0,0,1,1.89.9c0.39,0.27.63,0.72,1,.95,0.93,0.52,1.83-1.06,1.55-1.85a5.54,5.54,0,0,0-1.88-2,8.37,8.37,0,0,0-2.84-1.35,0,0,0,0,0,0,.09h0Z" transform="translate(153.69 -936.02)"/></g><g id="_Group_42" data-name="&lt;Group&gt;"><path class="cls-2" d="M11.77,999.94l-0.63,1.21a0.77,0.77,0,0,1-.41.44,0.76,0.76,0,0,1-.41,0l-3.63-1.06a1.06,1.06,0,0,1-.39-0.17,0.36,0.36,0,0,1-.13-0.38,1.74,1.74,0,0,1,.56-0.41,0.92,0.92,0,0,0,.11-0.74,0.56,0.56,0,0,1,.29-0.64,0.57,0.57,0,0,1,.27,0c1.47,0.38,2.75,1.37,4.25,1.62" transform="translate(153.69 -936.02)"/><path class="cls-2" d="M11.73,999.92a2.6,2.6,0,0,1-1,1.39,2.52,2.52,0,0,1-1.8-.22,10.68,10.68,0,0,1-1.82-.53,0.69,0.69,0,0,1-.55-0.86c0-.07.19-0.07,0.22-0.14s0.12-.35.13-0.37a0.86,0.86,0,0,0,0-.26q-0.11-.59.86-0.6a3.29,3.29,0,0,1,1,.42,14,14,0,0,0,2.84,1.09c0.06,0,.08-0.08,0-0.09a17.84,17.84,0,0,1-3.16-1.24,2.52,2.52,0,0,0-1.39-.4,0.69,0.69,0,0,0-.32.68,0.81,0.81,0,0,1-.29.83,0.68,0.68,0,0,0-.23.12,1.34,1.34,0,0,0-.16.2,0.49,0.49,0,0,0,.35.53,11.7,11.7,0,0,0,2.63.77,3.54,3.54,0,0,0,1.66.39c0.54-.17.83-1.22,1.06-1.66a0,0,0,0,0-.08,0h0Z" transform="translate(153.69 -936.02)"/></g><g id="_Group_43" data-name="&lt;Group&gt;"><path class="cls-3" d="M8.4,995.58a1.34,1.34,0,0,0-.82.91,2.79,2.79,0,0,0,0,1.26,1.32,1.32,0,0,0,.17.52,1.48,1.48,0,0,0,.68.47l3,1.34a0.92,0.92,0,0,0,.66.11,0.91,0.91,0,0,0,.37-0.31,1.57,1.57,0,0,0,.53-1.33,1.51,1.51,0,0,0-.55-0.69,32.22,32.22,0,0,0-3.24-2.4,1.17,1.17,0,0,0-.42-0.2,0.41,0.41,0,0,0-.42.15" transform="translate(153.69 -936.02)"/></g><g id="_Group_44" data-name="&lt;Group&gt;"><path class="cls-3" d="M-21.45,978.13c1.25,0.76,2.56,1.4,3.86,2.06a207.18,207.18,0,0,1,20.2,12.37c1.21,0.81,2.43,1.62,3.59,2.5a1,1,0,0,1,.55,1.06,7.36,7.36,0,0,1-2.59-1.61c-2.62-2-5.92-3-8.56-5-1-.72-1.81-1.56-2.74-2.31-4.33-3.5-10-4.9-14.43-8.32a0.61,0.61,0,0,1-.32-0.65,0.32,0.32,0,0,1,.53,0" transform="translate(153.69 -936.02)"/></g><g id="_Group_45" data-name="&lt;Group&gt;"><path class="cls-3" d="M-22.31,980.25c1.43,3,4.31,5.12,7.18,6.86,1.71,1,3.46,2,5.21,3l16.37,9a0.87,0.87,0,0,1-1,.14,24.07,24.07,0,0,1-4.12-1.57c-1.05-.52-2.06-1.11-3.08-1.7l-12.11-7.08a27.43,27.43,0,0,1-6.91-5.09,13.74,13.74,0,0,1-1.76-2.49,1,1,0,0,1-.17-0.59,0.35,0.35,0,0,1,.45-0.29" transform="translate(153.69 -936.02)"/></g><g id="_Group_46" data-name="&lt;Group&gt;"><path class="cls-3" d="M-19,977.84A18.65,18.65,0,0,1-15,979,73.8,73.8,0,0,1,5.15,991.83,13.46,13.46,0,0,0,8,994a13.46,13.46,0,0,0-4-4.51c-2.49-2-5.18-3.76-7.86-5.5a61.67,61.67,0,0,0-6.37-3.8c-1.72-.85-3.51-1.53-5.31-2.21a15.19,15.19,0,0,0-2.64-.83,1,1,0,0,0-.78.08,0.39,0.39,0,0,0,0,.66" transform="translate(153.69 -936.02)"/></g></g><g id="_Group_47" data-name="&lt;Group&gt;"><g id="_Group_48" data-name="&lt;Group&gt;"><path class="cls-1" d="M-24.59,990l-3.82-7.83c-2.27-4.64-4.56-9.32-7.78-13.36-1.82-2.29-4.17-4.47-7.08-4.77a17.28,17.28,0,0,1-1.92-.18,7.12,7.12,0,0,0-1.09-.24,3.67,3.67,0,0,0-1.9.61,5.68,5.68,0,0,0-2.06,1.56c-0.86,1.22-.63,2.87-0.3,4.33a31.92,31.92,0,0,0,5.31,12.28,46.05,46.05,0,0,0,3.46,3.92c2.57,2.7,5.15,5.4,8,7.86a6.58,6.58,0,0,0,1.71,1.18,2.4,2.4,0,0,0,2,0c1.28-.67,1.45-2.67,2.78-3.22,0.35-.14.74-0.16,1.09-0.31a3.26,3.26,0,0,0,1.46-1.88" transform="translate(153.69 -936.02)"/><path class="cls-1" d="M-24.56,989.93c-2.53-5.18-4.89-10.49-7.78-15.48-2-3.39-4.53-7.77-8.19-9.63-4-2-10.31-1.9-10.31,3.75,0,9.73,9.1,18.39,15.61,24.34,1.25,1.15,3.17,3.36,5.16,2.45,0.88-.41,2-2,2.63-2.6,1.22-1,2-1.36,2.73-2.83,0,0,0-.08-0.07,0,0.52-1-3.25,3.08-3.67,3.3-5.29,2.67-7.36-.82-10.71-4.25-4.71-4.82-10.59-10.9-11.14-18.06-0.26-3.31,1.4-7.19,5.1-7a12.68,12.68,0,0,1,2.8.58c4.34,1.3,6.8,4.85,9.12,8.58,3.34,5.38,5.88,11.28,8.66,17,0,0,.09,0,0.07,0h0Z" transform="translate(153.69 -936.02)"/></g><g id="_Group_49" data-name="&lt;Group&gt;"><path class="cls-2" d="M-25.09,989.67a8,8,0,0,1,3,4.6,1.14,1.14,0,0,1,0,.58,1.23,1.23,0,0,1-.56.59l-0.53.35a0.94,0.94,0,0,1-.32.16,0.71,0.71,0,0,1-.71-0.44c-0.14-.26-0.18-0.57-0.3-0.84a3.91,3.91,0,0,0-.94-1.14A10.51,10.51,0,0,1-26.69,992a0.89,0.89,0,0,1-.19-0.43,0.33,0.33,0,0,1,.25-0.35c0.07,0,.14,0,0.2,0a0.38,0.38,0,0,0,.3-0.31c0-.15,0-0.31,0-0.46a1,1,0,0,1,1.22-.74" transform="translate(153.69 -936.02)"/><path class="cls-2" d="M-25.12,989.7a8.17,8.17,0,0,1,2.52,3.17c0.39,0.89.69,1.67,0,2.53-0.38.44-.62,0.3-1.09,0-0.88-.52-0.31-0.24-0.71-0.77a9.13,9.13,0,0,0-.81-1,5.06,5.06,0,0,1-1.4-1.64c-0.09-.58,1.63-2.24,1.76-2.22s0.08-.08,0-0.09a1.11,1.11,0,0,0-1.17.47c-0.22.28-.41,0.73-0.61,1a1,1,0,0,0-.22.15,1.55,1.55,0,0,0,.61,1.35c0.37,0.46.81,0.84,1.19,1.28s0.52,1.38,1,1.82c0.7,0.63,2-.46,2-1.23a5.28,5.28,0,0,0-.86-2.4,8.34,8.34,0,0,0-2.21-2.52s-0.11,0-.07.07h0Z" transform="translate(153.69 -936.02)"/></g><g id="_Group_50" data-name="&lt;Group&gt;"><path class="cls-2" d="M-25.58,997.11l-1,.87a0.77,0.77,0,0,1-.54.25,0.76,0.76,0,0,1-.36-0.2l-3-2.37a1.06,1.06,0,0,1-.29-0.31,0.36,0.36,0,0,1,0-.4,1.74,1.74,0,0,1,.68-0.16,0.92,0.92,0,0,0,.39-0.64,0.56,0.56,0,0,1,.52-0.48,0.57,0.57,0,0,1,.24.13c1.21,0.92,2,2.32,3.3,3.13" transform="translate(153.69 -936.02)"/><path class="cls-2" d="M-25.61,997.07a2,2,0,0,1-2.33.57,9.26,9.26,0,0,1-1.33-1.07c-0.45-.36-1.66-1-1-1.7a3,3,0,0,0,.36-0.14c0.31-.34.42-1,1.24-0.71a4.31,4.31,0,0,1,1,1,11.81,11.81,0,0,0,2,1.89s0.1,0,0-.08a12.78,12.78,0,0,1-2.11-2c-0.29-.31-1-1.25-1.45-1.26s-0.36.26-.57,0.5-0.64.46-.85,0.68a0.4,0.4,0,0,0-.22.13,0.61,0.61,0,0,0,.28.76c0.72,0.69,1.58,1.27,2.36,1.89a2.43,2.43,0,0,0,1,.68c0.54,0,1.25-.83,1.61-1.13,0,0,0-.1-0.07-0.07h0Z" transform="translate(153.69 -936.02)"/></g><g id="_Group_51" data-name="&lt;Group&gt;"><path class="cls-3" d="M-27,991.79a1.34,1.34,0,0,0-1.11.52,2.79,2.79,0,0,0-.51,1.15,1.32,1.32,0,0,0,0,.55,1.48,1.48,0,0,0,.44.69l2.25,2.38a0.92,0.92,0,0,0,.56.35A0.91,0.91,0,0,0-25,997.3a1.57,1.57,0,0,0,1-1,1.51,1.51,0,0,0-.24-0.85A32.22,32.22,0,0,0-26.29,992a1.17,1.17,0,0,0-.31-0.34,0.41,0.41,0,0,0-.44,0" transform="translate(153.69 -936.02)"/></g><g id="_Group_52" data-name="&lt;Group&gt;"><path class="cls-3" d="M-47.92,964.24c0.86,1.18,1.83,2.27,2.78,3.38a207.18,207.18,0,0,1,13.92,19.16c0.81,1.21,1.62,2.42,2.36,3.68a1,1,0,0,1,.1,1.19,7.36,7.36,0,0,1-1.78-2.48c-1.65-2.87-4.32-5-6-7.89-0.61-1-1.07-2.14-1.64-3.19-2.66-4.89-7.4-8.37-10.14-13.21a0.61,0.61,0,0,1-.05-0.72,0.32,0.32,0,0,1,.5.18" transform="translate(153.69 -936.02)"/></g><g id="_Group_53" data-name="&lt;Group&gt;"><path class="cls-3" d="M-49.52,965.86c0.15,3.36,2,6.38,4,9.09,1.18,1.61,2.43,3.18,3.68,4.74l11.66,14.62a0.87,0.87,0,0,1-.94-0.24,24.07,24.07,0,0,1-3.2-3c-0.77-.88-1.48-1.81-2.19-2.75L-45,977.11a27.43,27.43,0,0,1-4.44-7.35,13.74,13.74,0,0,1-.67-3,1,1,0,0,1,.07-0.61,0.35,0.35,0,0,1,.53-0.09" transform="translate(153.69 -936.02)"/></g><g id="_Group_54" data-name="&lt;Group&gt;"><path class="cls-3" d="M-45.52,964.92a18.65,18.65,0,0,1,3.21,2.61,73.8,73.8,0,0,1,13.71,19.56,13.46,13.46,0,0,0,1.78,3,13.46,13.46,0,0,0-1.94-5.69c-1.54-2.81-3.35-5.45-5.15-8.09a61.67,61.67,0,0,0-4.43-5.95c-1.26-1.44-2.66-2.76-4.05-4.08a15.19,15.19,0,0,0-2.12-1.78,1,1,0,0,0-.75-0.23,0.39,0.39,0,0,0-.25.61" transform="translate(153.69 -936.02)"/></g></g><g id="_Group_55" data-name="&lt;Group&gt;"><g id="_Group_56" data-name="&lt;Group&gt;"><path class="cls-1" d="M-88.14,950l3.81,7.83c2.26,4.64,4.55,9.33,7.76,13.37,1.82,2.29,4.16,4.47,7.07,4.78a17.28,17.28,0,0,1,1.92.18,7.12,7.12,0,0,0,1.09.24,3.67,3.67,0,0,0,1.9-.61,5.68,5.68,0,0,0,2.06-1.56c0.86-1.22.63-2.87,0.3-4.33a31.92,31.92,0,0,0-5.29-12.29A46.05,46.05,0,0,0-71,953.73c-2.57-2.7-5.14-5.41-7.94-7.87a6.58,6.58,0,0,0-1.71-1.19,2.4,2.4,0,0,0-2,0c-1.28.67-1.45,2.67-2.79,3.22-0.35.14-.74,0.16-1.09,0.31A3.26,3.26,0,0,0-88,950.07" transform="translate(153.69 -936.02)"/><path class="cls-1" d="M-88.17,950c2.52,5.18,4.88,10.5,7.76,15.49,2,3.4,4.52,7.78,8.18,9.64,4,2,10.31,1.91,10.32-3.74,0-9.73-9.07-18.4-15.58-24.36-1.25-1.15-3.16-3.37-5.16-2.45-0.88.41-2,2-2.63,2.6-1.22,1-2,1.36-2.73,2.83a0,0,0,0,0,.07,0c-0.52,1,3.25-3.08,3.68-3.29,5.29-2.66,7.36.84,10.7,4.26,4.7,4.82,10.57,10.91,11.11,18.08,0.25,3.31-1.41,7.19-5.11,7a12.68,12.68,0,0,1-2.8-.58c-4.34-1.3-6.79-4.86-9.11-8.6-3.33-5.38-5.87-11.29-8.63-17,0,0-.09,0-0.07,0h0Z" transform="translate(153.69 -936.02)"/></g><g id="_Group_57" data-name="&lt;Group&gt;"><path class="cls-3" d="M-64.85,975.78c-0.86-1.18-1.83-2.27-2.77-3.39a207.18,207.18,0,0,1-13.89-19.18c-0.81-1.21-1.62-2.43-2.36-3.68a1,1,0,0,1-.1-1.19,7.36,7.36,0,0,1,1.77,2.48c1.64,2.87,4.31,5,6,7.9,0.6,1,1.07,2.14,1.64,3.19,2.65,4.9,7.39,8.38,10.13,13.23a0.61,0.61,0,0,1,0,.72,0.32,0.32,0,0,1-.5-0.18" transform="translate(153.69 -936.02)"/></g><g id="_Group_58" data-name="&lt;Group&gt;"><path class="cls-3" d="M-63.24,974.16c-0.15-3.36-2-6.38-4-9.1-1.18-1.61-2.43-3.18-3.67-4.74l-11.64-14.63a0.87,0.87,0,0,1,.94.24,24.07,24.07,0,0,1,3.2,3c0.77,0.88,1.48,1.82,2.19,2.75l8.46,11.19a27.43,27.43,0,0,1,4.43,7.35,13.74,13.74,0,0,1,.67,3,1,1,0,0,1-.07.61,0.35,0.35,0,0,1-.53.09" transform="translate(153.69 -936.02)"/></g><g id="_Group_59" data-name="&lt;Group&gt;"><path class="cls-3" d="M-67.24,975.1a18.65,18.65,0,0,1-3.21-2.61,73.8,73.8,0,0,1-13.68-19.58,13.46,13.46,0,0,0-1.77-3A13.46,13.46,0,0,0-84,955.56c1.53,2.81,3.34,5.46,5.14,8.1a61.67,61.67,0,0,0,4.42,6c1.26,1.44,2.66,2.76,4,4.08a15.19,15.19,0,0,0,2.12,1.78,1,1,0,0,0,.75.23,0.39,0.39,0,0,0,.25-0.61" transform="translate(153.69 -936.02)"/></g></g><g id="_Group_60" data-name="&lt;Group&gt;"><g id="_Group_61" data-name="&lt;Group&gt;"><path class="cls-1" d="M-39.44,936.06l-7.08,5.07c-4.2,3-8.44,6-11.88,9.89-2,2.18-3.71,4.85-3.53,7.77a17.28,17.28,0,0,1,.14,1.93,7.12,7.12,0,0,0-.05,1.12,3.67,3.67,0,0,0,.91,1.77,5.68,5.68,0,0,0,1.88,1.77c1.34,0.64,2.94.14,4.32-.42a31.92,31.92,0,0,0,11.23-7.28,46.05,46.05,0,0,0,3.3-4.07c2.24-3,4.48-6,6.43-9.15a6.58,6.58,0,0,0,.88-1.88,2.4,2.4,0,0,0-.32-2c-0.88-1.15-2.88-1-3.64-2.21-0.2-.32-0.29-0.71-0.49-1a3.26,3.26,0,0,0-2.1-1.13" transform="translate(153.69 -936.02)"/><path class="cls-1" d="M-39.46,936c-7,5-18.38,10.81-21.83,19.25-1.74,4.25-.72,11.2,5.13,10.22,9.1-1.53,15.63-10.94,20.37-17.89,1.26-1.85,3.86-4.59,2.6-7-0.94-1.82-4.23-3.74-6.25-4.39a0,0,0,0,0,0,.08c-0.85-.27,4.06,3,4.36,3.29,3.4,3.65.15,6.77-1.82,9.54-4.11,5.8-8.26,11.18-14.76,14.43-1.25.63-3.14,1.84-4.5,1.9-6.63.29-6.32-7.47-4.76-10.77,1.23-2.59,3.51-4.73,5.6-6.63,4.89-4.44,10.55-8.09,15.92-11.92,0,0,0-.1,0-0.07h0Z" transform="translate(153.69 -936.02)"/></g><g id="_Group_62" data-name="&lt;Group&gt;"><path class="cls-3" d="M-60.93,963.33c1-1,1.93-2.18,2.87-3.3a207.18,207.18,0,0,1,16.59-16.91c1.06-1,2.12-2,3.24-2.94a1,1,0,0,1,1.16-.3,7.36,7.36,0,0,1-2.15,2.16c-2.56,2.1-4.25,5.1-6.79,7.22-0.92.77-1.93,1.41-2.87,2.15-4.38,3.43-7,8.69-11.35,12.2a0.61,0.61,0,0,1-.71.17,0.32,0.32,0,0,1,.1-0.52" transform="translate(153.69 -936.02)"/></g><g id="_Group_63" data-name="&lt;Group&gt;"><path class="cls-3" d="M-59.06,964.64c3.29-.71,6-3,8.3-5.46,1.39-1.43,2.73-2.92,4.06-4.41l12.48-13.93a0.87,0.87,0,0,1-.08,1,24.07,24.07,0,0,1-2.45,3.66c-0.74.91-1.54,1.76-2.35,2.62l-9.62,10.21a27.43,27.43,0,0,1-6.51,5.6A13.74,13.74,0,0,1-58,965a1,1,0,0,1-.62,0,0.35,0.35,0,0,1-.18-0.51" transform="translate(153.69 -936.02)"/></g><g id="_Group_64" data-name="&lt;Group&gt;"><path class="cls-3" d="M-60.66,960.85a18.65,18.65,0,0,1,2-3.6,73.8,73.8,0,0,1,17-16.77,13.46,13.46,0,0,0,2.7-2.26,13.46,13.46,0,0,0-5.29,2.86c-2.51,2-4.82,4.2-7.13,6.42a61.67,61.67,0,0,0-5.13,5.35c-1.21,1.49-2.28,3.08-3.35,4.67a15.19,15.19,0,0,0-1.4,2.39,1,1,0,0,0-.1.78,0.39,0.39,0,0,0,.64.15" transform="translate(153.69 -936.02)"/></g></g><g id="_Group_65" data-name="&lt;Group&gt;"><g id="_Group_66" data-name="&lt;Group&gt;"><path class="cls-1" d="M14.72,958.46l3.81,7.83c2.26,4.64,4.55,9.33,7.76,13.37,1.82,2.29,4.16,4.47,7.07,4.78a17.28,17.28,0,0,1,1.92.18,7.12,7.12,0,0,0,1.09.24,3.67,3.67,0,0,0,1.9-.61,5.68,5.68,0,0,0,2.06-1.56c0.86-1.22.63-2.87,0.3-4.33a31.92,31.92,0,0,0-5.29-12.29,46.05,46.05,0,0,0-3.46-3.93c-2.57-2.7-5.14-5.41-7.94-7.87a6.58,6.58,0,0,0-1.71-1.19,2.4,2.4,0,0,0-2,0c-1.28.67-1.45,2.67-2.79,3.22-0.35.14-.74,0.16-1.09,0.31a3.26,3.26,0,0,0-1.47,1.88" transform="translate(153.69 -936.02)"/><path class="cls-1" d="M14.69,958.48c2.52,5.18,4.88,10.5,7.76,15.49,2,3.4,4.52,7.78,8.18,9.64,4,2,10.31,1.91,10.32-3.74,0-9.73-9.07-18.4-15.58-24.36-1.25-1.15-3.16-3.37-5.16-2.45-0.88.41-2,2-2.63,2.6-1.22,1-2,1.36-2.73,2.83a0,0,0,0,0,.07,0c-0.52,1,3.25-3.08,3.68-3.29,5.29-2.66,7.36.84,10.7,4.26,4.7,4.82,10.57,10.91,11.11,18.08,0.25,3.31-1.41,7.19-5.11,7a12.68,12.68,0,0,1-2.8-.58c-4.34-1.3-6.79-4.86-9.11-8.6-3.33-5.38-5.87-11.29-8.63-17,0,0-.09,0-0.07,0h0Z" transform="translate(153.69 -936.02)"/></g><g id="_Group_67" data-name="&lt;Group&gt;"><path class="cls-2" d="M15.22,958.74a8,8,0,0,1-3-4.6,1.14,1.14,0,0,1,0-.58,1.23,1.23,0,0,1,.56-0.59l0.53-.35a0.94,0.94,0,0,1,.32-0.16,0.71,0.71,0,0,1,.71.44c0.14,0.27.18,0.57,0.3,0.84a3.91,3.91,0,0,0,.93,1.14,10.51,10.51,0,0,1,1.27,1.52,0.89,0.89,0,0,1,.19.43,0.33,0.33,0,0,1-.25.35c-0.07,0-.14,0-0.2,0a0.38,0.38,0,0,0-.3.31c0,0.15,0,.31,0,0.46a1,1,0,0,1-1.22.74" transform="translate(153.69 -936.02)"/><path class="cls-2" d="M15.26,958.71a8.17,8.17,0,0,1-2.51-3.17c-0.39-.89-0.68-1.68,0-2.53,0.38-.44.62-0.3,1.09,0,0.88,0.52.31,0.24,0.71,0.77a9.13,9.13,0,0,0,.81,1,4.75,4.75,0,0,1,1.39,1.64c0.09,0.59-1.64,2.24-1.77,2.22s-0.08.08,0,.09a1.11,1.11,0,0,0,1.17-.47c0.22-.28.41-0.73,0.62-1a1,1,0,0,0,.22-0.15,1.55,1.55,0,0,0-.61-1.35c-0.37-.46-0.81-0.84-1.19-1.28s-0.52-1.38-1-1.83c-0.7-.63-2,0.46-2.05,1.23a5.28,5.28,0,0,0,.85,2.4,8.34,8.34,0,0,0,2.2,2.52s0.11,0,.07-0.07h0Z" transform="translate(153.69 -936.02)"/></g><g id="_Group_68" data-name="&lt;Group&gt;"><path class="cls-3" d="M38,984.21c-0.86-1.18-1.83-2.27-2.77-3.39a207.18,207.18,0,0,1-13.89-19.18c-0.81-1.21-1.62-2.43-2.36-3.68a1,1,0,0,1-.1-1.19,7.36,7.36,0,0,1,1.77,2.48c1.64,2.87,4.31,5,6,7.9,0.6,1,1.07,2.14,1.64,3.19,2.65,4.9,7.39,8.38,10.13,13.23a0.61,0.61,0,0,1,0,.72,0.32,0.32,0,0,1-.5-0.18" transform="translate(153.69 -936.02)"/></g><g id="_Group_69" data-name="&lt;Group&gt;"><path class="cls-3" d="M39.62,982.59c-0.15-3.36-2-6.38-4-9.1-1.18-1.61-2.43-3.18-3.67-4.74L20.31,954.11a0.87,0.87,0,0,1,.94.24,24.07,24.07,0,0,1,3.2,3c0.77,0.88,1.48,1.82,2.19,2.75l8.46,11.19a27.43,27.43,0,0,1,4.43,7.35,13.74,13.74,0,0,1,.67,3,1,1,0,0,1-.07.61,0.35,0.35,0,0,1-.53.09" transform="translate(153.69 -936.02)"/></g><g id="_Group_70" data-name="&lt;Group&gt;"><path class="cls-3" d="M35.62,983.53a18.65,18.65,0,0,1-3.21-2.61,73.8,73.8,0,0,1-13.68-19.58,13.46,13.46,0,0,0-1.77-3A13.46,13.46,0,0,0,18.88,964c1.53,2.81,3.34,5.46,5.14,8.1a61.67,61.67,0,0,0,4.42,6c1.26,1.44,2.66,2.76,4,4.08a15.19,15.19,0,0,0,2.12,1.78,1,1,0,0,0,.75.23,0.39,0.39,0,0,0,.25-0.61" transform="translate(153.69 -936.02)"/></g></g><g id="_Group_71" data-name="&lt;Group&gt;"><g id="_Group_72" data-name="&lt;Group&gt;"><path class="cls-1" d="M-127.17,1001.51l8.18,7.09c4.85,4.21,9.75,8.45,15.4,11.5,3.2,1.73,6.94,3.08,10.42,2a21.48,21.48,0,0,1,2.29-.73,8.85,8.85,0,0,0,1.37-.26,4.56,4.56,0,0,0,1.87-1.62,7.06,7.06,0,0,0,1.6-2.79c0.39-1.81-.68-3.59-1.76-5.1a39.68,39.68,0,0,0-12.05-11.47,57.25,57.25,0,0,0-5.87-2.8c-4.25-1.84-8.52-3.68-12.92-5.12a8.18,8.18,0,0,0-2.53-.52,3,3,0,0,0-2.31,1c-1.14,1.39-.35,3.76-1.62,5-0.33.34-.77,0.55-1.1,0.89a4.05,4.05,0,0,0-.76,2.87" transform="translate(153.69 -936.02)"/><path class="cls-1" d="M-127.21,1001.55c8.14,7.06,17.76,18.14,28.71,20.64,5.73,1.31,15.38-2.18,11.52-9.4-5.17-9.68-15.53-14.31-25.14-18.18-2.45-1-8.87-4.83-11.4-2-0.56.64-.42,1.34-0.72,2.05-1.05,2.45-2.58,4.15-2.78,6.79,0,0.06.09,0.06,0.1,0,0.23-3,3.3-6.09,5.45-7.44q2-2.75,4.45-1.2,1.64,0.58,3.26,1.21c2.16,0.84,4.29,1.74,6.41,2.66,7.42,3.18,13.53,7.1,18.48,13.62a24.29,24.29,0,0,1,1.81,2.5q2.57,5-1.74,6.93a11,11,0,0,1-7.39,2.68c-4.26-.11-8.42-2.78-11.84-5.12-6.81-4.65-12.88-10.46-19.1-15.85,0,0-.12,0-0.07.07h0Z" transform="translate(153.69 -936.02)"/></g><g id="_Group_73" data-name="&lt;Group&gt;"><path class="cls-2" d="M-126.46,1001.59a9.89,9.89,0,0,1-5.67-3.8,1.41,1.41,0,0,1-.31-0.66,1.53,1.53,0,0,1,.35-1l0.43-.66a1.17,1.17,0,0,1,.29-0.34,0.89,0.89,0,0,1,1,.15c0.29,0.24.48,0.56,0.75,0.82A4.87,4.87,0,0,0-128,997a13.07,13.07,0,0,1,2.19,1.12,1.11,1.11,0,0,1,.43.4,0.4,0.4,0,0,1-.12.53c-0.07,0-.16,0-0.24.09a0.47,0.47,0,0,0-.19.5c0,0.19.13,0.36,0.18,0.55a1.2,1.2,0,0,1-1,1.44" transform="translate(153.69 -936.02)"/><path class="cls-2" d="M-126.45,1001.54a10.14,10.14,0,0,1-4.51-2.47c-0.79-.76-1.64-1.72-1.09-2.85a1.41,1.41,0,0,1,2-.43c0.14,0.11.25,0.3,0.38,0.42,1,0.87,3.7,1.07,3.86,2.42,0.23,2-.1-0.57-0.16.7,0,0.76.49,1.93-.83,2.24a0.06,0.06,0,0,0,0,.11,1.3,1.3,0,0,0,1.11-1.17c0-.15-0.09-0.34-0.08-0.48a4.8,4.8,0,0,1,.27-0.93,1.14,1.14,0,0,0,.19-0.28c0-.73-1.06-1.09-1.57-1.36-0.69-.35-1.54-0.56-2.18-1s-0.91-1-1.48-1.3c-1.16-.64-2.27,1.34-1.9,2.32A6.79,6.79,0,0,0-130,1000a10.4,10.4,0,0,0,3.55,1.65,0.06,0.06,0,0,0,0-.11h0Z" transform="translate(153.69 -936.02)"/></g><g id="_Group_74" data-name="&lt;Group&gt;"><path class="cls-2" d="M-129.52,992.85l0.77-1.51a1,1,0,0,1,.5-0.55,1,1,0,0,1,.51,0l4.53,1.27a1.31,1.31,0,0,1,.49.21,0.45,0.45,0,0,1,.17.47,2.16,2.16,0,0,1-.7.52,1.14,1.14,0,0,0-.13.92,0.7,0.7,0,0,1-.36.8,0.71,0.71,0,0,1-.34,0c-1.83-.46-3.43-1.67-5.3-2" transform="translate(153.69 -936.02)"/><path class="cls-2" d="M-129.47,992.88a3.24,3.24,0,0,1,1.25-1.74,3.13,3.13,0,0,1,2.23.26,13.28,13.28,0,0,1,2.26.64,0.86,0.86,0,0,1,.7,1.07c0,0.09-.24.09-0.27,0.18s-0.15.44-.16,0.46a1.07,1.07,0,0,0,0,.32q0.14,0.74-1.06.75a4.09,4.09,0,0,1-1.31-.51,17.47,17.47,0,0,0-3.54-1.33c-0.07,0-.1.1,0,0.11a22.17,22.17,0,0,1,3.95,1.5,3.14,3.14,0,0,0,1.74.49,0.86,0.86,0,0,0,.39-0.85,1,1,0,0,1,.35-1,0.89,0.89,0,0,0,.28-0.15,1.54,1.54,0,0,0,.2-0.25,0.61,0.61,0,0,0-.44-0.66,14.53,14.53,0,0,0-3.27-.93,4.41,4.41,0,0,0-2.07-.46c-0.68.21-1,1.53-1.29,2.07,0,0.07.07,0.13,0.1,0.06h0Z" transform="translate(153.69 -936.02)"/></g><g id="_Group_75" data-name="&lt;Group&gt;"><path class="cls-3" d="M-125.28,998.23a1.67,1.67,0,0,0,1-1.14,3.46,3.46,0,0,0,0-1.57,1.64,1.64,0,0,0-.22-0.65,1.84,1.84,0,0,0-.85-0.58l-3.74-1.63a1.14,1.14,0,0,0-.82-0.13,1.13,1.13,0,0,0-.46.39,2,2,0,0,0-.64,1.66,1.88,1.88,0,0,0,.69.85,40.05,40.05,0,0,0,4.06,2.94,1.46,1.46,0,0,0,.53.24,0.51,0.51,0,0,0,.51-0.19" transform="translate(153.69 -936.02)"/></g><g id="_Group_76" data-name="&lt;Group&gt;"><path class="cls-3" d="M-88,1019.58c-1.56-.93-3.2-1.71-4.82-2.52-8.78-4.4-17-9.78-25.25-15.15-1.52-1-3-2-4.49-3.06a1.25,1.25,0,0,1-.7-1.31,9.15,9.15,0,0,1,3.24,2c3.28,2.48,7.39,3.66,10.7,6.11,1.19,0.88,2.27,1.92,3.43,2.85,5.42,4.3,12.54,6,18,10.18a0.76,0.76,0,0,1,.41.8,0.39,0.39,0,0,1-.66,0" transform="translate(153.69 -936.02)"/></g><g id="_Group_77" data-name="&lt;Group&gt;"><path class="cls-3" d="M-86.93,1016.94c-1.81-3.77-5.41-6.32-9-8.45-2.14-1.27-4.33-2.45-6.51-3.63l-20.46-11a1.08,1.08,0,0,1,1.19-.18,29.92,29.92,0,0,1,5.14,1.91c1.31,0.63,2.58,1.35,3.84,2.08l15.13,8.67c3.1,1.78,6.26,3.6,8.65,6.25a17.08,17.08,0,0,1,2.21,3.08,1.19,1.19,0,0,1,.22.74,0.43,0.43,0,0,1-.56.37" transform="translate(153.69 -936.02)"/></g><g id="_Group_78" data-name="&lt;Group&gt;"><path class="cls-3" d="M-91,1020a23.19,23.19,0,0,1-4.95-1.42,91.74,91.74,0,0,1-25.2-15.7,16.73,16.73,0,0,0-3.51-2.62,16.73,16.73,0,0,0,5,5.56c3.12,2.46,6.48,4.61,9.83,6.75a76.67,76.67,0,0,0,8,4.65c2.15,1,4.39,1.86,6.62,2.69a18.89,18.89,0,0,0,3.29,1,1.29,1.29,0,0,0,1-.11,0.49,0.49,0,0,0,0-.82" transform="translate(153.69 -936.02)"/></g></g><g id="_Group_79" data-name="&lt;Group&gt;"><g id="_Group_80" data-name="&lt;Group&gt;"><path class="cls-1" d="M-46.91,1010.18l-9.71-4.79c-5.76-2.84-11.58-5.7-17.81-7.22-3.53-.86-7.5-1.22-10.59.69a21.48,21.48,0,0,1-2,1.29,8.85,8.85,0,0,0-1.26.6,4.56,4.56,0,0,0-1.4,2,7.06,7.06,0,0,0-.84,3.1c0.08,1.85,1.57,3.3,3,4.48a39.68,39.68,0,0,0,14.57,8,57.25,57.25,0,0,0,6.39,1.22c4.58,0.7,9.17,1.4,13.8,1.67a8.18,8.18,0,0,0,2.58-.14,3,3,0,0,0,2-1.52c0.75-1.64-.61-3.73.29-5.29,0.24-.41.61-0.73,0.84-1.14a4.05,4.05,0,0,0,0-3" transform="translate(153.69 -936.02)"/><path class="cls-1" d="M-46.88,1010.14c-9.64-4.75-21.12-12.47-32.23-12.7-5.33-.11-15.29,5.28-10,11.51,7,8.28,18.46,10.27,28.54,11.62,3,0.4,9.6,2.42,12-.4,0.92-1.09.31-1.94,0.51-3.19,0.46-2.93,1.54-4,1-6.73,0-.06-0.1,0-0.09,0-0.06-.31-0.77,4.24-1.16,5.34-0.73,2.07-.57,5.14-3.84,5.67-3.7.6-9.11-.89-12.72-1.43-8-1.2-14.89-3.44-21.33-8.48a24.29,24.29,0,0,1-2.38-2q-3.76-4.22-.07-7.15a11,11,0,0,1,6.47-4.47c4.14-1,8.85.55,12.75,1.95,7.77,2.77,15.11,6.85,22.5,10.48,0.06,0,.11-0.06,0-0.08h0Z" transform="translate(153.69 -936.02)"/></g><g id="_Group_81" data-name="&lt;Group&gt;"><path class="cls-2" d="M-47.61,1010.29a9.89,9.89,0,0,1,6.45,2.24,1.41,1.41,0,0,1,.46.56,1.53,1.53,0,0,1-.1,1l-0.25.75a1.17,1.17,0,0,1-.2.4,0.89,0.89,0,0,1-1,.11c-0.34-.16-0.61-0.42-0.94-0.6a4.87,4.87,0,0,0-1.79-.41,13.07,13.07,0,0,1-2.4-.53,1.11,1.11,0,0,1-.52-0.28,0.4,0.4,0,0,1,0-.54c0.06-.06.14-0.09,0.21-0.14a0.47,0.47,0,0,0,.05-0.53c-0.08-.17-0.22-0.32-0.31-0.48a1.2,1.2,0,0,1,.63-1.65" transform="translate(153.69 -936.02)"/><path class="cls-2" d="M-47.61,1010.35a10.14,10.14,0,0,1,5.08,1.31,4.89,4.89,0,0,1,1.33.91,2.45,2.45,0,0,1,.23,1.88l-1.58.67q-0.22-.17-0.46-0.31c-0.2-.08-0.38-0.21-0.59-0.28-1.21-.41-3.9,0-4.09-1.61a19.93,19.93,0,0,1,.37-2.67,0.06,0.06,0,0,0-.06-0.1,1.3,1.3,0,0,0-.77,1.4A2.94,2.94,0,0,1-48,1013a1.24,1.24,0,0,0-.12.31c0.21,0.67,1,.73,1.62.88s1.28,0.2,1.92.32a5.11,5.11,0,0,1,1.62.54,4.33,4.33,0,0,0,.63.4c1.4,0.5,2.09-1.7,1.45-2.66a6.51,6.51,0,0,0-2.68-1.71,10.34,10.34,0,0,0-4.09-.8,0.06,0.06,0,0,0,0,.12h0Z" transform="translate(153.69 -936.02)"/></g><g id="_Group_82" data-name="&lt;Group&gt;"><path class="cls-2" d="M-42.43,1018l-0.36,1.65a1,1,0,0,1-.35.66,1,1,0,0,1-.51.09l-4.7-.08a1.31,1.31,0,0,1-.52-0.08,0.45,0.45,0,0,1-.28-0.41,2.16,2.16,0,0,1,.54-0.68,1.14,1.14,0,0,0-.11-0.92,0.7,0.7,0,0,1,.14-0.86,0.71,0.71,0,0,1,.33-0.06c1.89,0,3.74.74,5.62,0.56" transform="translate(153.69 -936.02)"/><path class="cls-2" d="M-42.49,1018a3.24,3.24,0,0,1-.76,2,3.13,3.13,0,0,1-2.23.32,13.28,13.28,0,0,1-2.35,0,0.86,0.86,0,0,1-.94-0.85c0-.09.21-0.15,0.21-0.24s0-.46,0-0.49c0.2-.68-1.52-0.67.75-1.31a4.09,4.09,0,0,1,1.39.16,17.47,17.47,0,0,0,3.76.39c0.07,0,.07-0.12,0-0.12a22.18,22.18,0,0,1-4.2-.45,3.14,3.14,0,0,0-1.8,0,0.86,0.86,0,0,0-.16.92,1,1,0,0,1-.08,1.09,0.9,0.9,0,0,0-.23.21,1.55,1.55,0,0,0-.13.29,0.61,0.61,0,0,0,.6.52,14.55,14.55,0,0,0,3.4.07,4.41,4.41,0,0,0,2.12-.08c0.6-.38.59-1.74,0.73-2.33,0-.07-0.1-0.1-0.11,0h0Z" transform="translate(153.69 -936.02)"/></g><g id="_Group_83" data-name="&lt;Group&gt;"><path class="cls-3" d="M-47.91,1013.84a1.67,1.67,0,0,0-.69,1.36,3.46,3.46,0,0,0,.37,1.52,1.64,1.64,0,0,0,.37.57,1.84,1.84,0,0,0,1,.35l4,0.63a1.14,1.14,0,0,0,.82-0.08,1.13,1.13,0,0,0,.34-0.49,2,2,0,0,0,.2-1.77,1.88,1.88,0,0,0-.88-0.65,40.05,40.05,0,0,0-4.67-1.82,1.46,1.46,0,0,0-.57-0.1,0.51,0.51,0,0,0-.45.32" transform="translate(153.69 -936.02)"/></g><g id="_Group_84" data-name="&lt;Group&gt;"><path class="cls-3" d="M-89.4,1002.65c1.74,0.5,3.53.84,5.3,1.21,9.61,2,18.95,5.14,28.26,8.25,1.72,0.57,3.44,1.15,5.12,1.82a1.25,1.25,0,0,1,1,1.1,9.15,9.15,0,0,1-3.63-1.08c-3.8-1.57-8.08-1.67-11.9-3.2-1.38-.55-2.68-1.28-4-1.88-6.33-2.79-13.65-2.6-20-5.27a0.76,0.76,0,0,1-.6-0.67,0.39,0.39,0,0,1,.63-0.2" transform="translate(153.69 -936.02)"/></g><g id="_Group_85" data-name="&lt;Group&gt;"><path class="cls-3" d="M-89.75,1005.47c2.7,3.19,6.84,4.74,10.86,5.89,2.39,0.68,4.81,1.27,7.22,1.86l22.59,5.5a1.08,1.08,0,0,1-1.11.48,29.92,29.92,0,0,1-5.45-.54c-1.43-.28-2.84-0.66-4.24-1l-16.84-4.54c-3.45-.93-7-1.89-10-3.85a17.08,17.08,0,0,1-2.92-2.41,1.19,1.19,0,0,1-.4-0.66,0.43,0.43,0,0,1,.45-0.5" transform="translate(153.69 -936.02)"/></g><g id="_Group_86" data-name="&lt;Group&gt;"><path class="cls-3" d="M-86.53,1001.49a23.19,23.19,0,0,1,5.14.12A91.74,91.74,0,0,1-53,1010.4,16.73,16.73,0,0,0-49,1012a16.73,16.73,0,0,0-6.24-4.12c-3.65-1.59-7.44-2.82-11.22-4a76.67,76.67,0,0,0-8.88-2.48c-2.34-.45-4.71-0.69-7.09-0.92a18.89,18.89,0,0,0-3.44-.13,1.29,1.29,0,0,0-.91.35,0.49,0.49,0,0,0,.21.79" transform="translate(153.69 -936.02)"/></g></g><g id="_Group_87" data-name="&lt;Group&gt;"><g id="_Group_88" data-name="&lt;Group&gt;"><path class="cls-1" d="M11.86,984.48l3,10.4c1.79,6.17,3.61,12.39,6.69,18,1.75,3.19,4.16,6.35,7.66,7.35a21.48,21.48,0,0,1,2.32.63,8.85,8.85,0,0,0,1.29.53,4.56,4.56,0,0,0,2.45-.34,7.06,7.06,0,0,0,2.85-1.48c1.31-1.31,1.38-3.39,1.28-5.24a39.68,39.68,0,0,0-3.9-16.17,57.25,57.25,0,0,0-3.41-5.54c-2.58-3.85-5.16-7.71-8.08-11.31a8.18,8.18,0,0,0-1.84-1.81,3,3,0,0,0-2.47-.44c-1.71.55-2.34,3-4.1,3.36-0.46.1-.95,0-1.41,0.15a4.05,4.05,0,0,0-2.19,2" transform="translate(153.69 -936.02)"/><path class="cls-1" d="M11.82,984.49c3,10.39,5,24.86,12.9,32.93,4.45,4.56,14.71,6.28,14.78-2.38,0.1-12.33-6.6-22.28-13.79-31.71-1.33-1.74-3.25-5.13-6-4.32-1.12.33-.79,0.67-1.68,1.32-1.58,1.15-1,.45-3.81,2.19a6.11,6.11,0,0,0-2.22,2c0,0.05,0,.1.08,0-0.59.84,5.63-3.95,6-4.19,5.34-3.36,9.83,6.1,12,9.36,4.89,7.19,8.45,14.06,9.13,22.9,0.24,3.15.7,7-4,8.34-2.06.6-5.29-.46-7.24-1.37-4-1.88-6.2-6-8-9.89-3.7-8-5.69-16.84-8.14-25.28a0,0,0,0,0-.09,0h0Z" transform="translate(153.69 -936.02)"/></g><g id="_Group_89" data-name="&lt;Group&gt;"><path class="cls-2" d="M12.42,984.93a9.89,9.89,0,0,1-2.7-6.27,1.41,1.41,0,0,1,.1-0.72,1.53,1.53,0,0,1,.81-0.61l0.72-.32a1.17,1.17,0,0,1,.43-0.13,0.89,0.89,0,0,1,.78.68c0.11,0.35.1,0.73,0.19,1.1a4.87,4.87,0,0,0,.9,1.59,13.07,13.07,0,0,1,1.23,2.13A1.11,1.11,0,0,1,15,983a0.4,0.4,0,0,1-.38.38c-0.08,0-.16,0-0.25-0.06a0.47,0.47,0,0,0-.43.32c-0.07.18-.09,0.37-0.14,0.56a1.2,1.2,0,0,1-1.65.65" transform="translate(153.69 -936.02)"/><path class="cls-2" d="M12.46,984.89A10.18,10.18,0,0,1,10,980.37c-0.22-1-.51-2.46.63-3a2.18,2.18,0,0,1,1.95.75,7.71,7.71,0,0,1,.24,1c0.5,1.16,2.54,2.72,1.57,4.11-0.27.39-3.35,1.16-2.22,1.53a0.06,0.06,0,0,0,0,.11,1.38,1.38,0,0,0,1.52-.33c0.33-.29.67-0.82,1-1.14a1.22,1.22,0,0,0,.3-0.14c0.36-.71-0.35-1.61-0.71-2.21a11.14,11.14,0,0,1-1.44-2.4,3.86,3.86,0,0,0-.37-1.45c-0.73-.91-2.55.17-2.77,1.08a7.15,7.15,0,0,0,.7,3.54,10.48,10.48,0,0,0,2,3.15,0.06,0.06,0,0,0,.08-0.08h0Z" transform="translate(153.69 -936.02)"/></g><g id="_Group_90" data-name="&lt;Group&gt;"><path class="cls-2" d="M14.59,975.93l1.47-.85a1,1,0,0,1,.72-0.19,1,1,0,0,1,.41.32l3.11,3.53a1.31,1.31,0,0,1,.29.44,0.45,0.45,0,0,1-.11.49,2.16,2.16,0,0,1-.87.06,1.14,1.14,0,0,0-.61.7,0.7,0.7,0,0,1-.73.48,0.71,0.71,0,0,1-.27-0.21c-1.29-1.38-2-3.26-3.38-4.53" transform="translate(153.69 -936.02)"/><path class="cls-2" d="M14.62,976c0.76-.44,1.59-1.15,2.52-0.73A8,8,0,0,1,18.7,977a8.18,8.18,0,0,1,1.4,1.59q0.51,0.42-.19,1.06h-0.3l-0.16.08a3.21,3.21,0,0,0-.5.64c-1,.84-1.87-1-2.25-1.55a14.43,14.43,0,0,0-2-2.71,0.06,0.06,0,0,0-.08.08,14.26,14.26,0,0,1,2,2.69,5.74,5.74,0,0,0,1.5,2,0.55,0.55,0,0,0,.76-0.12,4.46,4.46,0,0,0,.27-0.42,1.76,1.76,0,0,1,.93-0.51,0.8,0.8,0,0,0,.46-0.08,0.61,0.61,0,0,0,0-.79,15.18,15.18,0,0,0-2-2.33c-0.41-.47-1-1.58-1.68-1.74s-1.69.73-2.22,1a0.06,0.06,0,0,0,.06.1h0Z" transform="translate(153.69 -936.02)"/></g><g id="_Group_91" data-name="&lt;Group&gt;"><path class="cls-3" d="M15.24,982.75a1.67,1.67,0,0,0,1.47-.41,3.46,3.46,0,0,0,.87-1.3,1.64,1.64,0,0,0,.17-0.66,1.84,1.84,0,0,0-.4-0.94L15.09,976a1.14,1.14,0,0,0-.61-0.55,1.13,1.13,0,0,0-.59.08,2,2,0,0,0-1.44,1,1.88,1.88,0,0,0,.11,1.09,40.05,40.05,0,0,0,1.81,4.68,1.46,1.46,0,0,0,.31.49,0.51,0.51,0,0,0,.54.12" transform="translate(153.69 -936.02)"/></g><g id="_Group_92" data-name="&lt;Group&gt;"><path class="cls-3" d="M35,1020.93c-0.81-1.62-1.76-3.17-2.68-4.73-5-8.46-9-17.46-13-26.43-0.74-1.66-1.47-3.31-2.11-5a1.25,1.25,0,0,1,.13-1.48A9.15,9.15,0,0,1,19,986.69c1.41,3.86,4.22,7.09,5.67,10.94,0.52,1.39.86,2.84,1.34,4.25,2.21,6.56,7.29,11.82,9.62,18.34a0.76,0.76,0,0,1-.09.9,0.39,0.39,0,0,1-.58-0.33" transform="translate(153.69 -936.02)"/></g><g id="_Group_93" data-name="&lt;Group&gt;"><path class="cls-3" d="M37.29,1019.28c0.53-4.15-1.12-8.24-3-12-1.11-2.23-2.3-4.41-3.5-6.58L19.63,980.33a1.08,1.08,0,0,1,1.1.49A29.92,29.92,0,0,1,24,985.21c0.76,1.24,1.43,2.54,2.1,3.83l8,15.49c1.64,3.17,3.3,6.42,3.88,9.94a17.08,17.08,0,0,1,.19,3.79,1.19,1.19,0,0,1-.22.74,0.43,0.43,0,0,1-.67,0" transform="translate(153.69 -936.02)"/></g><g id="_Group_94" data-name="&lt;Group&gt;"><path class="cls-3" d="M32.19,1019.59a23.19,23.19,0,0,1-3.38-3.87,91.74,91.74,0,0,1-12.65-26.86,16.73,16.73,0,0,0-1.53-4.1,16.73,16.73,0,0,0,1.17,7.38c1.29,3.76,2.94,7.39,4.59,11a76.67,76.67,0,0,0,4.16,8.22c1.24,2,2.67,3.95,4.1,5.85a18.89,18.89,0,0,0,2.22,2.63,1.29,1.29,0,0,0,.87.44,0.49,0.49,0,0,0,.44-0.69" transform="translate(153.69 -936.02)"/></g></g><g id="_Group_95" data-name="&lt;Group&gt;"><g id="_Group_96" data-name="&lt;Group&gt;"><path class="cls-1" d="M-34.67,1012.16l11.84,4.21c7,2.49,14.11,5,21.51,5.91,4.19,0.52,8.81.39,12.11-2.23a24.93,24.93,0,0,1,2.16-1.76,10.28,10.28,0,0,0,1.37-.86,5.29,5.29,0,0,0,1.34-2.54,8.19,8.19,0,0,0,.54-3.69c-0.35-2.12-2.25-3.59-4.06-4.76-5.45-3.51-11.46-6.34-17.88-7.3a66.44,66.44,0,0,0-7.53-.55c-5.38-.19-10.76-0.37-16.13-0.06a9.5,9.5,0,0,0-3,.5,3.46,3.46,0,0,0-2.09,2c-0.64,2,1.21,4.22.38,6.13-0.22.5-.6,0.92-0.81,1.43a4.7,4.7,0,0,0,.39,3.42" transform="translate(153.69 -936.02)"/><path class="cls-1" d="M-34.68,1012.21c6.87,2.44,13.71,5.05,20.67,7.21,5.89,1.83,12.82,3.94,19.08,3,6.9-1.07,15.91-9.19,8.2-15.26-10.52-8.28-23.61-8.83-36.38-8.82-2.85,0-9.36-1-11.13,2.29-0.68,1.25,0,2.25,0,3.57,0.08,3.27-1.25,4.77-.29,7.89a0.06,0.06,0,0,0,.11,0c-2.79-9.09.95-2.24,0.64-6-0.28-3.37-2.89-5.54,4.39-7.43,3.76-1,8.72-.17,12.54-0.06,10.27,0.29,19.39,1.78,28.21,7.49,4.77,3.08,5.85,8,1.56,12.22A14.79,14.79,0,0,1,6.6,1022c-4.91,1.3-10.41,0-15.2-1.15-8.87-2.19-17.45-5.68-26-8.74-0.07,0-.1.08,0,0.11h0Z" transform="translate(153.69 -936.02)"/></g><g id="_Group_97" data-name="&lt;Group&gt;"><path class="cls-2" d="M-33.87,1011.94a11.48,11.48,0,0,1-7.74-1.71,1.64,1.64,0,0,1-.61-0.58,1.78,1.78,0,0,1,0-1.17l0.19-.9a1.36,1.36,0,0,1,.17-0.49,1,1,0,0,1,1.17-.27c0.41,0.13.76,0.4,1.16,0.56a5.65,5.65,0,0,0,2.11.23,15.16,15.16,0,0,1,2.84.28,1.29,1.29,0,0,1,.63.25,0.47,0.47,0,0,1,.1.62c-0.06.08-.16,0.12-0.22,0.19a0.54,0.54,0,0,0,0,.62c0.12,0.19.29,0.33,0.42,0.51a1.39,1.39,0,0,1-.51,2" transform="translate(153.69 -936.02)"/><path class="cls-2" d="M-33.87,1011.87a11.75,11.75,0,0,1-6.7-1.12c-1-.51-2.19-1.74-1.46-2.92,0.88-1.44,1.72-.59,2.72-0.3,1.5,0.45,4.74-.55,5.19,1.39a17.41,17.41,0,0,1-.06,3.12c-0.07,0,0,.17.07,0.12a1.5,1.5,0,0,0,.74-1.53,11.72,11.72,0,0,1-.44-1.31c0,0.19.07-.91,0.09-0.86-0.27-.75-1.34-0.72-2-0.8a19.42,19.42,0,0,0-2-.11,13.25,13.25,0,0,1-3-.79c-1.49-.35-2.15,1.8-1.59,2.93,0.49,1,2.28,1.52,3.25,1.84a12,12,0,0,0,5.15.47c0.09,0,.09-0.14,0-0.13h0Z" transform="translate(153.69 -936.02)"/></g><g id="_Group_98" data-name="&lt;Group&gt;"><path class="cls-2" d="M-40.87,1003.79l0.2-2a1.11,1.11,0,0,1,.31-0.8,1.1,1.1,0,0,1,.57-0.17l5.43-.54a1.52,1.52,0,0,1,.61,0,0.52,0.52,0,0,1,.38.44,2.51,2.51,0,0,1-.54.85,1.32,1.32,0,0,0,.25,1,0.81,0.81,0,0,1,0,1,0.83,0.83,0,0,1-.38.11c-2.17.28-4.42-.35-6.56,0.11" transform="translate(153.69 -936.02)"/><path class="cls-2" d="M-40.8,1003.79l0.1-1c0.09-.9-0.07-1.15.8-1.6a7.5,7.5,0,0,1,2.83-.55,9.21,9.21,0,0,1,2.44-.24,1.23,1.23,0,0,1,.88.89c0,0.11-.22.2-0.21,0.31s0.08,0.7.08,0.74c-0.25,1.41-1,1.48-2.11,1.45a22.46,22.46,0,0,0-4.66.06c-0.09,0,0,.14,0,0.13a25.67,25.67,0,0,1,4.9,0c0.45,0,1.71.19,2.08-.22s0.12-.25.19-0.69a1,1,0,0,0-.13-0.38,1.65,1.65,0,0,1,.17-1.53c0-.44.3-0.26,0-0.66s-1.1-.19-1.47-0.16c-1.45.13-2.9,0.27-4.34,0.43a1.57,1.57,0,0,0-1.35.48,6.77,6.77,0,0,0-.34,2.57c0,0.09.13,0.09,0.13,0h0Z" transform="translate(153.69 -936.02)"/></g><g id="_Group_99" data-name="&lt;Group&gt;"><path class="cls-3" d="M-34,1007.81a1.94,1.94,0,0,0,.61-1.66,4,4,0,0,0-.63-1.71,1.9,1.9,0,0,0-.51-0.61,2.14,2.14,0,0,0-1.16-.27l-4.73-.18a1.33,1.33,0,0,0-.94.2,1.32,1.32,0,0,0-.33.61,2.27,2.27,0,0,0,0,2.07,2.18,2.18,0,0,0,1.1.63,46.48,46.48,0,0,0,5.63,1.46,1.69,1.69,0,0,0,.67,0,0.59,0.59,0,0,0,.47-0.43" transform="translate(153.69 -936.02)"/></g><g id="_Group_100" data-name="&lt;Group&gt;"><path class="cls-3" d="M15.33,1015.1c-2.08-.34-4.18-0.49-6.27-0.68-11.35-1-22.54-3.37-33.69-5.7-2.06-.43-4.12-0.86-6.15-1.41a1.44,1.44,0,0,1-1.31-1.13,10.62,10.62,0,0,1,4.33.76c4.6,1.29,9.54.83,14.15,2.08,1.66,0.45,3.26,1.12,4.91,1.62C-1,1013,7.38,1011.8,15.1,1014a0.88,0.88,0,0,1,.78.69,0.46,0.46,0,0,1-.7.32" transform="translate(153.69 -936.02)"/></g><g id="_Group_101" data-name="&lt;Group&gt;"><path class="cls-3" d="M15.35,1011.81c-3.55-3.31-8.52-4.54-13.31-5.32-2.85-.47-5.71-0.82-8.57-1.17L-33.31,1002a1.25,1.25,0,0,1,1.21-.7,34.72,34.72,0,0,1,6.36-.11c1.69,0.12,3.36.37,5,.62l20,3c4.1,0.61,8.28,1.24,12,3.09a19.82,19.82,0,0,1,3.69,2.39,1.38,1.38,0,0,1,.54.71,0.5,0.5,0,0,1-.45.63" transform="translate(153.69 -936.02)"/></g><g id="_Group_102" data-name="&lt;Group&gt;"><path class="cls-3" d="M12.18,1016.82a26.91,26.91,0,0,1-5.94.56,106.47,106.47,0,0,1-33.88-6.31,19.42,19.42,0,0,0-4.9-1.34,19.41,19.41,0,0,0,7.75,3.9c4.42,1.34,9,2.24,13.48,3.14a89,89,0,0,0,10.57,1.66c2.76,0.21,5.53.16,8.29,0.11a21.92,21.92,0,0,0,4-.31,1.49,1.49,0,0,0,1-.52,0.57,0.57,0,0,0-.35-0.88" transform="translate(153.69 -936.02)"/></g></g></svg>