<svg id="Layer_1" data-name="Layer 1" xmlns="http://www.w3.org/2000/svg" viewBox="0 0 284.77 104.23"><defs><style>.cls-1{fill:#9bc53d;}.cls-2{fill:#43612d;}.cls-3{fill:#44a84f;}</style></defs><title>cucumbers</title><g id="_Group_" data-name="&lt;Group&gt;"><g id="_Group_2" data-name="&lt;Group&gt;"><path class="cls-1" d="M668.85,974.42c-3.25.41-5.43,2.52-7,5.42s0.47,6.66,2.68,9.07,5.68,3,8.92,3.31c10.1,0.87,20.27-.34,30.26-2.07,7.44-1.29,14.94-2.91,21.61-6.45,3.83-2,7.53-4.94,8.87-9.07a4,4,0,0,0,.22-2.06c-0.33-1.56-2.12-2.72-1.89-4.3a3.39,3.39,0,0,0-.14-1.85,2.8,2.8,0,0,0-1.61-.82c-5.5-.31-10.37,1.14-15.61,2.84s-9.86,4.21-15,5.82A43.22,43.22,0,0,1,679,975.47c-3.26-.64-6.56-1.66-9.84-1.1" transform="translate(-523.06 -952.17)"/></g><g id="_Group_3" data-name="&lt;Group&gt;"><path class="cls-2" d="M731.41,974.76c-0.36.78-3,1.8-4.29,2.93-2.08,1.83-4.85,2.61-7.54,3.27-9,2.21-18.2,3.69-27.38,5.17a48.54,48.54,0,0,1-21.84-.18l-5.85-1.07a1.94,1.94,0,0,1-1.27-.58l8.11,0.8a85.35,85.35,0,0,0,9.93.59c2.15,0,4.3-.24,6.44-0.44,7.73-.73,15.38-1.71,23.07-2.79a29,29,0,0,0,6.43-1.58c4.91-1.9,9-5.21,14.19-6.12" transform="translate(-523.06 -952.17)"/></g><g id="_Group_4" data-name="&lt;Group&gt;"><path class="cls-2" d="M727.42,969.19c-2.56.12-4.81,1.78-7.12,2.89-3.66,1.76-7.83,2.45-11.74,3.55-8.48,2.39-16.7,4.61-25.48,4-5.43-.4-11.06-1.48-16.49-1.29-0.54,0-1.27.29-1.14,0.82l4.85,0a32.43,32.43,0,0,1,5.16.24c1.48,0.23,2.92.66,4.4,0.92a29.49,29.49,0,0,0,6.12.34c10.27-.33,20.25-3.32,30.07-6.37,4.18-1.3,12.3-4.2,12.32-4.47s-0.63-.36-0.95-0.54" transform="translate(-523.06 -952.17)"/></g><g id="_Group_5" data-name="&lt;Group&gt;"><path class="cls-2" d="M731,970.43a7.7,7.7,0,0,0,4,.32,0.82,0.82,0,0,0,.47-0.15,0.64,0.64,0,0,0,.18-0.3,1.52,1.52,0,0,0-.54-1.63,2.3,2.3,0,0,0-.79-0.34,3.17,3.17,0,0,0-2.75.41,2.27,2.27,0,0,0-.85,1.67" transform="translate(-523.06 -952.17)"/></g></g><g id="_Group_6" data-name="&lt;Group&gt;"><g id="_Group_7" data-name="&lt;Group&gt;"><path class="cls-1" d="M728.4,973.28c3.27,0.09,5.75-1.68,7.7-4.31s0.54-6.65-1.29-9.37-5.16-3.85-8.32-4.61c-9.85-2.38-20.09-2.72-30.22-2.5-7.55.16-15.21,0.63-22.34,3.12-4.09,1.43-8.19,3.75-10.13,7.63a4,4,0,0,0-.53,2c0.09,1.59,1.69,3,1.22,4.53a3.39,3.39,0,0,0-.14,1.85,2.8,2.8,0,0,0,1.47,1.05c5.39,1.13,10.42.44,15.85-.46s10.38-2.68,15.67-3.5a43.22,43.22,0,0,1,21.16,2c3.13,1.12,6.24,2.63,9.56,2.57" transform="translate(-523.06 -952.17)"/></g><g id="_Group_8" data-name="&lt;Group&gt;"><path class="cls-2" d="M666.6,963.53c0.47-.72,3.24-1.33,4.68-2.25,2.33-1.5,5.19-1.85,8-2.1,9.25-.82,18.55-0.91,27.84-1a48.54,48.54,0,0,1,21.57,3.47l5.62,1.94a1.94,1.94,0,0,1,1.17.76l-7.9-2a85.35,85.35,0,0,0-9.73-2.08c-2.13-.28-4.28-0.41-6.43-0.53-7.75-.44-15.47-0.63-23.23-0.72a29,29,0,0,0-6.59.59c-5.14,1.14-9.68,3.8-14.95,3.92" transform="translate(-523.06 -952.17)"/></g><g id="_Group_9" data-name="&lt;Group&gt;"><path class="cls-2" d="M669.7,969.63c2.55,0.26,5-1,7.47-1.78,3.89-1.19,8.1-1.24,12.14-1.74,8.74-1.08,17.2-2,25.79-.08,5.3,1.22,10.71,3.13,16.11,3.76,0.54,0.06,1.3-.1,1.25-0.63l-4.8-.7a32.43,32.43,0,0,1-5.06-1c-1.43-.45-2.79-1.09-4.21-1.57a29.49,29.49,0,0,0-6-1.25c-10.21-1.22-20.52.23-30.68,1.78-4.32.66-12.79,2.3-12.86,2.56s0.57,0.45.86,0.67" transform="translate(-523.06 -952.17)"/></g><g id="_Group_10" data-name="&lt;Group&gt;"><path class="cls-2" d="M666.35,967.86a7.7,7.7,0,0,0-3.86-.91,0.82,0.82,0,0,0-.49.07,0.64,0.64,0,0,0-.22.27,1.52,1.52,0,0,0,.28,1.7,2.3,2.3,0,0,0,.73.46,3.17,3.17,0,0,0,2.78,0,2.27,2.27,0,0,0,1.09-1.53" transform="translate(-523.06 -952.17)"/></g></g><g id="_Group_11" data-name="&lt;Group&gt;"><g id="_Group_12" data-name="&lt;Group&gt;"><path class="cls-1" d="M588.46,987.82c3.07-.53,5-2.63,6.38-5.44s-0.74-6.3-2.94-8.49-5.52-2.63-8.61-2.75c-9.62-.39-19.22,1.2-28.62,3.28-7,1.55-14.05,3.41-20.23,7.06-3.55,2.09-6.93,5-8,9a3.84,3.84,0,0,0-.12,2c0.38,1.47,2.13,2.49,2,4a3.22,3.22,0,0,0,.21,1.75,2.66,2.66,0,0,0,1.56.71c5.23,0.05,9.79-1.53,14.68-3.37s9.17-4.42,13.95-6.18a41.06,41.06,0,0,1,20.08-2.07c3.12,0.46,6.3,1.29,9.38.62" transform="translate(-523.06 -952.17)"/></g><g id="_Group_13" data-name="&lt;Group&gt;"><path class="cls-2" d="M529.08,990.22c0.31-.75,2.77-1.84,3.94-3,1.89-1.83,4.49-2.69,7-3.43,8.47-2.49,17.11-4.29,25.75-6.09a46.11,46.11,0,0,1,20.73-.78l5.6,0.76a1.85,1.85,0,0,1,1.23.49l-7.73-.41a81.07,81.07,0,0,0-9.45-.13c-2,.13-4.07.42-6.09,0.7-7.3,1-14.52,2.29-21.77,3.65a27.51,27.51,0,0,0-6,1.78c-4.58,2-8.31,5.33-13.2,6.42" transform="translate(-523.06 -952.17)"/></g><g id="_Group_14" data-name="&lt;Group&gt;"><path class="cls-2" d="M533.1,995.32c2.42-.23,4.49-1.9,6.63-3,3.4-1.83,7.32-2.66,11-3.88,7.94-2.63,15.64-5.1,24-4.86,5.17,0.15,10.56.92,15.71,0.51,0.51,0,1.19-.33,1-0.82l-4.6.24a30.8,30.8,0,0,1-4.91,0c-1.42-.15-2.8-0.5-4.21-0.68a28,28,0,0,0-5.82-.05c-9.73.76-19.07,4-28.25,7.35-3.91,1.41-11.49,4.52-11.5,4.78s0.62,0.31.92,0.47" transform="translate(-523.06 -952.17)"/></g><g id="_Group_15" data-name="&lt;Group&gt;"><path class="cls-2" d="M529.65,994.3a7.31,7.31,0,0,0-3.76-.13,0.78,0.78,0,0,0-.44.16,0.61,0.61,0,0,0-.15.29,1.44,1.44,0,0,0,.58,1.53,2.18,2.18,0,0,0,.76.29,3,3,0,0,0,2.59-.51,2.16,2.16,0,0,0,.73-1.62" transform="translate(-523.06 -952.17)"/></g></g><g id="_Group_16" data-name="&lt;Group&gt;"><g id="_Group_17" data-name="&lt;Group&gt;"><path class="cls-1" d="M798.34,1013.36a10.11,10.11,0,0,0,7.69-3.88c1.9-2.24.32-5.45-1.62-7.58s-5.38-2.89-8.61-3.36c-10.1-1.47-20.51-1.24-30.81-.58-7.67.49-15.44,1.25-22.6,3.63-4.11,1.36-8.2,3.45-10,6.71a2.82,2.82,0,0,0-.47,1.66c0.15,1.29,1.82,2.37,1.39,3.64a2.25,2.25,0,0,0-.08,1.51,2.89,2.89,0,0,0,1.53.79c5.52,0.66,10.61-.15,16.1-1.14,5.34-1,10.46-2.68,15.81-3.62a54.26,54.26,0,0,1,21.58.61c3.22,0.76,6.43,1.84,9.81,1.63" transform="translate(-523.06 -952.17)"/></g><g id="_Group_18" data-name="&lt;Group&gt;"><path class="cls-2" d="M735.19,1008.41c0.46-.61,3.25-1.24,4.68-2.06,2.32-1.34,5.22-1.76,8-2.09,9.38-1.12,18.83-1.64,28.27-2.16a82,82,0,0,1,11.55-.09,78.57,78.57,0,0,1,10.49,1.87l5.78,1.31a2,2,0,0,1,1.21.57l-8.1-1.26c-3.3-.51-6.6-1-10-1.22-2.18-.13-4.37-0.12-6.56-0.12-7.9,0-15.74.24-23.64,0.54a36.63,36.63,0,0,0-6.68.8c-5.19,1.18-9.71,3.56-15.06,3.92" transform="translate(-523.06 -952.17)"/></g><g id="_Group_19" data-name="&lt;Group&gt;"><path class="cls-2" d="M738.54,1013.23c2.6,0.09,5.07-1.09,7.53-1.82,3.91-1.16,8.2-1.4,12.28-2,8.85-1.31,17.42-2.5,26.21-1.31,5.43,0.73,11,2,16.51,2.28,0.55,0,1.32-.14,1.25-0.58l-4.9-.33a40.2,40.2,0,0,1-5.18-.58c-1.47-.3-2.87-0.75-4.33-1.08a36.47,36.47,0,0,0-6.14-.73c-10.42-.5-20.86,1.18-31.13,2.93-4.37.74-12.93,2.49-13,2.71s0.6,0.34.89,0.51" transform="translate(-523.06 -952.17)"/></g><g id="_Group_20" data-name="&lt;Group&gt;"><path class="cls-2" d="M735.07,1012a9.41,9.41,0,0,0-4-.55,1,1,0,0,0-.49.08,0.57,0.57,0,0,0-.21.23,1.06,1.06,0,0,0,.34,1.37,2.46,2.46,0,0,0,.76.34,4,4,0,0,0,2.83-.12,2,2,0,0,0,1.06-1.3" transform="translate(-523.06 -952.17)"/></g></g><g id="_Group_21" data-name="&lt;Group&gt;"><g id="_Group_22" data-name="&lt;Group&gt;"><path class="cls-3" d="M733.46,1010.38c3.27,0.09,5.75-1.68,7.7-4.31s0.54-6.65-1.29-9.37-5.16-3.85-8.32-4.61c-9.85-2.38-20.09-2.72-30.22-2.5-7.55.16-15.21,0.63-22.34,3.12-4.09,1.43-8.19,3.75-10.13,7.63a4,4,0,0,0-.53,2c0.09,1.59,1.69,3,1.22,4.53a3.39,3.39,0,0,0-.14,1.85,2.8,2.8,0,0,0,1.47,1.05c5.39,1.13,10.42.44,15.85-.46s10.38-2.68,15.67-3.5a43.22,43.22,0,0,1,21.16,2c3.13,1.12,6.24,2.63,9.56,2.57" transform="translate(-523.06 -952.17)"/></g><g id="_Group_23" data-name="&lt;Group&gt;"><path class="cls-2" d="M671.66,1000.63c0.47-.72,3.24-1.33,4.68-2.25,2.33-1.5,5.19-1.85,8-2.1,9.25-.82,18.55-0.91,27.84-1a48.54,48.54,0,0,1,21.57,3.47l5.62,1.94a1.94,1.94,0,0,1,1.17.76l-7.9-2a85.35,85.35,0,0,0-9.73-2.08c-2.13-.28-4.28-0.41-6.43-0.53-7.75-.44-15.47-0.63-23.23-0.72a29,29,0,0,0-6.59.59c-5.14,1.14-9.68,3.8-14.95,3.92" transform="translate(-523.06 -952.17)"/></g><g id="_Group_24" data-name="&lt;Group&gt;"><path class="cls-2" d="M674.76,1006.73c2.55,0.26,5-1,7.47-1.78,3.89-1.19,8.1-1.24,12.14-1.74,8.74-1.08,17.2-2,25.79-.08,5.3,1.22,10.71,3.13,16.11,3.76,0.54,0.06,1.3-.1,1.25-0.63l-4.8-.7a32.43,32.43,0,0,1-5.06-1c-1.43-.45-2.79-1.09-4.21-1.57a29.49,29.49,0,0,0-6-1.25c-10.21-1.22-20.52.23-30.68,1.78-4.32.66-12.79,2.3-12.86,2.56s0.57,0.45.86,0.67" transform="translate(-523.06 -952.17)"/></g><g id="_Group_25" data-name="&lt;Group&gt;"><path class="cls-2" d="M671.41,1005a7.7,7.7,0,0,0-3.86-.91,0.82,0.82,0,0,0-.49.07,0.64,0.64,0,0,0-.22.27,1.52,1.52,0,0,0,.28,1.7,2.3,2.3,0,0,0,.73.46,3.17,3.17,0,0,0,2.78,0,2.27,2.27,0,0,0,1.09-1.53" transform="translate(-523.06 -952.17)"/></g></g><g id="_Group_26" data-name="&lt;Group&gt;"><g id="_Group_27" data-name="&lt;Group&gt;"><path class="cls-1" d="M600.68,1006.22a11.57,11.57,0,0,0,8.31-5.29c1.91-2.76-.25-6.24-2.71-8.44s-6.45-2.68-10.19-2.84c-11.66-.53-23.5.91-35.15,2.83-8.68,1.43-17.44,3.17-25.33,6.69-4.53,2-8.95,4.86-10.68,8.78a3.23,3.23,0,0,0-.35,1.94c0.31,1.46,2.34,2.49,2,4a2.58,2.58,0,0,0,.08,1.73,3.31,3.31,0,0,0,1.83.72c6.36,0.13,12.06-1.37,18.21-3.12,6-1.7,11.61-4.24,17.6-5.91a62.09,62.09,0,0,1,24.64-1.76c3.75,0.5,7.53,1.36,11.35.75" transform="translate(-523.06 -952.17)"/></g><g id="_Group_28" data-name="&lt;Group&gt;"><path class="cls-2" d="M528.21,1007.73c0.45-.74,3.56-1.78,5.1-2.88,2.49-1.78,5.74-2.59,8.89-3.29,10.55-2.34,21.26-4,31.95-5.66a93.81,93.81,0,0,1,13.14-1.41,89.91,89.91,0,0,1,12.16.94l6.73,0.83a2.34,2.34,0,0,1,1.44.51l-9.37-.51c-3.81-.21-7.64-0.42-11.48-0.26-2.5.1-5,.35-7.48,0.61-9,.91-17.9,2.05-26.86,3.3a41.92,41.92,0,0,0-7.52,1.67c-5.77,1.93-10.66,5.16-16.71,6.17" transform="translate(-523.06 -952.17)"/></g><g id="_Group_29" data-name="&lt;Group&gt;"><path class="cls-2" d="M532.58,1012.84c3-.19,5.65-1.81,8.37-2.92,4.32-1.76,9.18-2.53,13.76-3.68,9.93-2.49,19.55-4.82,29.7-4.46,6.27,0.22,12.75,1.07,19.05.73,0.62,0,1.48-.31,1.36-0.8l-5.62.17a46,46,0,0,1-6-.07c-1.71-.17-3.36-0.53-5.06-0.74a41.73,41.73,0,0,0-7.08-.14c-11.92.61-23.61,3.71-35.12,6.87-4.9,1.34-14.44,4.3-14.48,4.56s0.72,0.32,1.07.48" transform="translate(-523.06 -952.17)"/></g><g id="_Group_30" data-name="&lt;Group&gt;"><path class="cls-2" d="M528.49,1011.78a10.77,10.77,0,0,0-4.56-.18,1.17,1.17,0,0,0-.55.15,0.66,0.66,0,0,0-.22.29,1.21,1.21,0,0,0,.55,1.52,2.82,2.82,0,0,0,.9.3,4.52,4.52,0,0,0,3.21-.46,2.23,2.23,0,0,0,1.05-1.6" transform="translate(-523.06 -952.17)"/></g></g><g id="_Group_31" data-name="&lt;Group&gt;"><g id="_Group_32" data-name="&lt;Group&gt;"><path class="cls-1" d="M663.06,1010.25a11.08,11.08,0,0,0,8.12-4.82c1.91-2.59-.05-6-2.34-8.17s-6.1-2.76-9.67-3c-11.15-.85-22.53.17-33.74,1.66-8.35,1.11-16.8,2.51-24.45,5.64-4.4,1.8-8.71,4.39-10.49,8.08a3.09,3.09,0,0,0-.39,1.85c0.26,1.41,2.16,2.46,1.79,3.87a2.47,2.47,0,0,0,0,1.66,3.17,3.17,0,0,0,1.73.75c6.08,0.31,11.59-1,17.53-2.44,5.77-1.45,11.25-3.71,17-5.13a59.49,59.49,0,0,1,23.65-.94c3.57,0.59,7.17,1.53,10.85,1.06" transform="translate(-523.06 -952.17)"/></g><g id="_Group_33" data-name="&lt;Group&gt;"><path class="cls-2" d="M593.61,1009.52c0.46-.7,3.46-1.59,5-2.61,2.43-1.63,5.58-2.31,8.61-2.88,10.18-1.92,20.48-3.19,30.76-4.45a89.88,89.88,0,0,1,12.63-1,86.14,86.14,0,0,1,11.62,1.27l6.42,1a2.24,2.24,0,0,1,1.37.53l-9-.77c-3.64-.31-7.3-0.63-11-0.6-2.39,0-4.79.19-7.18,0.36-8.64.6-17.2,1.43-25.82,2.35a40.16,40.16,0,0,0-7.25,1.37c-5.59,1.67-10.36,4.62-16.19,5.4" transform="translate(-523.06 -952.17)"/></g><g id="_Group_34" data-name="&lt;Group&gt;"><path class="cls-2" d="M597.64,1014.54c2.85-.09,5.47-1.56,8.11-2.54,4.19-1.56,8.86-2.14,13.29-3.11,9.59-2.09,18.87-4,28.58-3.38,6,0.4,12.17,1.4,18.23,1.27,0.6,0,1.43-.25,1.32-0.72h-5.39a44.07,44.07,0,0,1-5.71-.25c-1.63-.21-3.2-0.61-4.82-0.86a40,40,0,0,0-6.77-.34c-11.43.22-22.73,2.84-33.84,5.52-4.73,1.14-14,3.68-14,3.93s0.68,0.33,1,.49" transform="translate(-523.06 -952.17)"/></g><g id="_Group_35" data-name="&lt;Group&gt;"><path class="cls-2" d="M593.75,1013.4a10.32,10.32,0,0,0-4.37-.31,1.13,1.13,0,0,0-.53.13,0.63,0.63,0,0,0-.22.27,1.16,1.16,0,0,0,.48,1.47,2.7,2.7,0,0,0,.85.31,4.33,4.33,0,0,0,3.09-.35,2.13,2.13,0,0,0,1.06-1.5" transform="translate(-523.06 -952.17)"/></g></g><g id="_Group_36" data-name="&lt;Group&gt;"><g id="_Group_37" data-name="&lt;Group&gt;"><path class="cls-3" d="M610.42,975.45a11.08,11.08,0,0,0,9-2.86c2.44-2.09,1.3-5.84-.44-8.48s-5.32-4.06-8.74-5.13c-10.67-3.34-22-4.91-33.25-6-8.39-.8-16.93-1.33-25.1,0-4.69.76-9.48,2.31-12,5.51a3.09,3.09,0,0,0-.8,1.71c-0.07,1.43,1.56,2.88.87,4.18a2.47,2.47,0,0,0-.35,1.62,3.17,3.17,0,0,0,1.52,1.12c5.86,1.68,11.51,1.68,17.63,1.57,6-.11,11.79-1.08,17.75-1.16a59.49,59.49,0,0,1,23.25,4.41c3.35,1.38,6.64,3.11,10.33,3.47" transform="translate(-523.06 -952.17)"/></g><g id="_Group_38" data-name="&lt;Group&gt;"><path class="cls-2" d="M542.92,959.09c0.6-.58,3.73-0.77,5.43-1.42,2.74-1,6-1,9-.87,10.35,0.42,20.67,1.5,31,2.59a89.88,89.88,0,0,1,12.52,1.91,86.14,86.14,0,0,1,11,3.85l6,2.42a2.24,2.24,0,0,1,1.21.82l-8.55-2.77c-3.48-1.13-7-2.26-10.57-3.06-2.34-.52-4.71-0.9-7.08-1.27-8.55-1.36-17.08-2.48-25.68-3.53a40.16,40.16,0,0,0-7.37-.29c-5.82.37-11.14,2.17-17,1.62" transform="translate(-523.06 -952.17)"/></g><g id="_Group_39" data-name="&lt;Group&gt;"><path class="cls-2" d="M545.71,964.9c2.8,0.55,5.68-.29,8.47-0.65,4.44-.57,9.12-0.09,13.64,0,9.81,0.13,19.29.32,28.61,3.14,5.75,1.74,11.55,4.11,17.47,5.34,0.59,0.12,1.45.07,1.45-.41l-5.25-1.21a44.07,44.07,0,0,1-5.51-1.53c-1.54-.58-3-1.32-4.5-1.92a40,40,0,0,0-6.52-1.86c-11.19-2.36-22.78-2.35-34.21-2.24-4.86,0-14.43.45-14.53,0.68s0.59,0.47.88,0.71" transform="translate(-523.06 -952.17)"/></g><g id="_Group_40" data-name="&lt;Group&gt;"><path class="cls-2" d="M542.18,962.91a10.32,10.32,0,0,0-4.18-1.29,1.13,1.13,0,0,0-.55,0,0.63,0.63,0,0,0-.27.21,1.16,1.16,0,0,0,.14,1.54,2.7,2.7,0,0,0,.76.5,4.33,4.33,0,0,0,3.08.36,2.13,2.13,0,0,0,1.37-1.22" transform="translate(-523.06 -952.17)"/></g></g><g id="_Group_41" data-name="&lt;Group&gt;"><g id="_Group_42" data-name="&lt;Group&gt;"><path class="cls-3" d="M592.83,1028.73c3.26-.31,5.51-2.36,7.13-5.2s-0.27-6.67-2.4-9.15-5.59-3.2-8.81-3.58c-10.07-1.18-20.27-.28-30.3,1.15-7.47,1.06-15,2.45-21.8,5.78-3.89,1.91-7.68,4.71-9.14,8.79a4,4,0,0,0-.28,2.05c0.28,1.57,2,2.78,1.76,4.35a3.39,3.39,0,0,0,.08,1.85,2.8,2.8,0,0,0,1.59.87c5.49,0.48,10.4-.82,15.68-2.36s10-3.9,15.14-5.36a43.22,43.22,0,0,1,21.24-.56c3.24,0.74,6.51,1.86,9.8,1.4" transform="translate(-523.06 -952.17)"/></g><g id="_Group_43" data-name="&lt;Group&gt;"><path class="cls-2" d="M530.31,1026.47c0.38-.77,3.06-1.71,4.38-2.8,2.13-1.77,4.93-2.46,7.64-3,9.09-1.93,18.31-3.13,27.52-4.33a48.54,48.54,0,0,1,21.83.85l5.82,1.25a1.94,1.94,0,0,1,1.25.62l-8.08-1a85.35,85.35,0,0,0-9.91-.89c-2.15,0-4.3.11-6.45,0.25-7.75.49-15.43,1.23-23.15,2.08a29,29,0,0,0-6.47,1.38c-5,1.75-9.16,4.93-14.37,5.68" transform="translate(-523.06 -952.17)"/></g><g id="_Group_44" data-name="&lt;Group&gt;"><path class="cls-2" d="M534.12,1032.15c2.56,0,4.86-1.63,7.2-2.67,3.72-1.65,7.9-2.21,11.84-3.19,8.55-2.13,16.83-4.1,25.59-3.18,5.41,0.57,11,1.82,16.45,1.79,0.54,0,1.28-.25,1.16-0.78l-4.85-.11a32.43,32.43,0,0,1-5.15-.4c-1.47-.27-2.9-0.75-4.37-1.06a29.49,29.49,0,0,0-6.11-.52c-10.28,0-20.35,2.7-30.25,5.45-4.21,1.17-12.42,3.82-12.46,4.09s0.62,0.38.93,0.57" transform="translate(-523.06 -952.17)"/></g><g id="_Group_45" data-name="&lt;Group&gt;"><path class="cls-2" d="M530.58,1030.8a7.7,7.7,0,0,0-3.94-.44,0.82,0.82,0,0,0-.47.13,0.64,0.64,0,0,0-.19.3,1.52,1.52,0,0,0,.48,1.65,2.3,2.3,0,0,0,.78.37,3.17,3.17,0,0,0,2.76-.32,2.27,2.27,0,0,0,.9-1.65" transform="translate(-523.06 -952.17)"/></g></g><g id="_Group_46" data-name="&lt;Group&gt;"><g id="_Group_47" data-name="&lt;Group&gt;"><path class="cls-3" d="M654.55,993.52c3.17-.3,5.35-2.29,6.92-5.05s-0.26-6.48-2.33-8.89-5.43-3.11-8.56-3.48c-9.78-1.15-19.68-.27-29.43,1.11-7.26,1-14.59,2.38-21.17,5.62-3.78,1.86-7.46,4.57-8.88,8.54a3.92,3.92,0,0,0-.28,2c0.27,1.53,2,2.7,1.7,4.23a3.29,3.29,0,0,0,.08,1.8,2.72,2.72,0,0,0,1.54.84c5.33,0.46,10.1-.8,15.23-2.29s9.7-3.79,14.7-5.21a42,42,0,0,1,20.63-.54c3.15,0.71,6.32,1.8,9.52,1.36" transform="translate(-523.06 -952.17)"/></g><g id="_Group_48" data-name="&lt;Group&gt;"><path class="cls-2" d="M593.83,991.33c0.37-.75,3-1.66,4.25-2.72,2.07-1.72,4.79-2.39,7.42-2.95,8.82-1.87,17.78-3,26.73-4.2a47.14,47.14,0,0,1,21.2.83l5.65,1.21a1.89,1.89,0,0,1,1.21.6l-7.85-1a82.88,82.88,0,0,0-9.62-.87c-2.09,0-4.18.11-6.26,0.24-7.52.48-15,1.2-22.48,2a28.13,28.13,0,0,0-6.28,1.34c-4.82,1.7-8.89,4.79-14,5.52" transform="translate(-523.06 -952.17)"/></g><g id="_Group_49" data-name="&lt;Group&gt;"><path class="cls-2" d="M597.53,996.85c2.48,0,4.72-1.58,7-2.59,3.61-1.6,7.67-2.14,11.5-3.1,8.3-2.07,16.34-4,24.85-3.08,5.25,0.55,10.69,1.76,16,1.74,0.52,0,1.24-.25,1.13-0.76l-4.71-.11a31.49,31.49,0,0,1-5-.38c-1.43-.26-2.82-0.73-4.24-1a28.64,28.64,0,0,0-5.93-.51c-10,0-19.76,2.62-29.37,5.29-4.09,1.14-12.07,3.71-12.1,4s0.6,0.37.9,0.55" transform="translate(-523.06 -952.17)"/></g><g id="_Group_50" data-name="&lt;Group&gt;"><path class="cls-2" d="M594.09,995.54a7.48,7.48,0,0,0-3.83-.43,0.8,0.8,0,0,0-.46.13,0.63,0.63,0,0,0-.18.29,1.47,1.47,0,0,0,.47,1.6,2.23,2.23,0,0,0,.75.36,3.08,3.08,0,0,0,2.68-.31,2.21,2.21,0,0,0,.87-1.6" transform="translate(-523.06 -952.17)"/></g></g><g id="_Group_51" data-name="&lt;Group&gt;"><g id="_Group_52" data-name="&lt;Group&gt;"><path class="cls-1" d="M656.49,1029.58c2.85-.27,4.81-2.06,6.23-4.55s-0.23-5.83-2.1-8-4.88-2.8-7.7-3.13c-8.8-1-17.72-.25-26.49,1-6.53.93-13.13,2.14-19.05,5.06-3.4,1.67-6.71,4.12-8,7.68a3.53,3.53,0,0,0-.25,1.79c0.25,1.37,1.78,2.43,1.53,3.81a3,3,0,0,0,.07,1.62,2.45,2.45,0,0,0,1.39.76c4.79,0.42,9.09-.72,13.71-2.06s8.73-3.41,13.23-4.69a37.78,37.78,0,0,1,18.57-.49c2.83,0.64,5.69,1.62,8.57,1.23" transform="translate(-523.06 -952.17)"/></g><g id="_Group_53" data-name="&lt;Group&gt;"><path class="cls-2" d="M601.84,1027.61c0.34-.67,2.67-1.49,3.83-2.45,1.86-1.55,4.31-2.15,6.68-2.65,7.94-1.69,16-2.74,24.06-3.78a42.43,42.43,0,0,1,19.08.74l5.08,1.09a1.7,1.7,0,0,1,1.09.54l-7.07-.92a74.6,74.6,0,0,0-8.66-.78c-1.88,0-3.76.1-5.64,0.22-6.77.43-13.49,1.08-20.23,1.82a25.32,25.32,0,0,0-5.66,1.21c-4.34,1.53-8,4.31-12.56,5" transform="translate(-523.06 -952.17)"/></g><g id="_Group_54" data-name="&lt;Group&gt;"><path class="cls-2" d="M605.17,1032.57c2.24,0,4.25-1.43,6.29-2.33,3.25-1.44,6.9-1.93,10.35-2.79,7.47-1.86,14.71-3.58,22.37-2.78,4.73,0.5,9.62,1.59,14.38,1.57,0.47,0,1.12-.22,1-0.68l-4.24-.1a28.35,28.35,0,0,1-4.5-.35c-1.29-.24-2.54-0.65-3.82-0.92a25.78,25.78,0,0,0-5.34-.46c-9,0-17.78,2.36-26.44,4.76-3.68,1-10.86,3.34-10.89,3.57s0.54,0.33.81,0.5" transform="translate(-523.06 -952.17)"/></g><g id="_Group_55" data-name="&lt;Group&gt;"><path class="cls-2" d="M602.07,1031.39a6.73,6.73,0,0,0-3.44-.38,0.72,0.72,0,0,0-.41.11,0.56,0.56,0,0,0-.16.26,1.33,1.33,0,0,0,.42,1.44,2,2,0,0,0,.68.32,2.77,2.77,0,0,0,2.42-.28,2,2,0,0,0,.78-1.44" transform="translate(-523.06 -952.17)"/></g></g><g id="_Group_56" data-name="&lt;Group&gt;"><g id="_Group_57" data-name="&lt;Group&gt;"><path class="cls-1" d="M730.77,1025.4c3.39-.32,5.72-2.45,7.4-5.4s-0.28-6.92-2.5-9.5-5.8-3.32-9.15-3.72c-10.45-1.23-21-.29-31.47,1.19-7.76,1.1-15.6,2.55-22.63,6-4,2-8,4.89-9.49,9.13a4.2,4.2,0,0,0-.29,2.13c0.29,1.63,2.12,2.89,1.82,4.52a3.52,3.52,0,0,0,.09,1.92,2.91,2.91,0,0,0,1.65.9c5.7,0.49,10.8-.85,16.29-2.45,5.34-1.55,10.37-4.05,15.72-5.57a44.88,44.88,0,0,1,22.06-.58c3.36,0.76,6.76,1.93,10.18,1.46" transform="translate(-523.06 -952.17)"/></g><g id="_Group_58" data-name="&lt;Group&gt;"><path class="cls-2" d="M665.85,1023.06c0.4-.8,3.18-1.77,4.55-2.91,2.21-1.84,5.12-2.55,7.93-3.15,9.43-2,19-3.25,28.58-4.49a50.4,50.4,0,0,1,22.66.88l6,1.29a2,2,0,0,1,1.3.64l-8.39-1.09a88.62,88.62,0,0,0-10.29-.93c-2.23,0-4.47.11-6.7,0.26-8,.51-16,1.28-24,2.16a30.07,30.07,0,0,0-6.72,1.43c-5.16,1.81-9.51,5.12-14.92,5.9" transform="translate(-523.06 -952.17)"/></g><g id="_Group_59" data-name="&lt;Group&gt;"><path class="cls-2" d="M669.81,1029c2.66,0,5-1.69,7.48-2.77,3.86-1.71,8.2-2.29,12.29-3.31,8.88-2.21,17.47-4.26,26.57-3.3,5.62,0.59,11.43,1.89,17.08,1.86,0.56,0,1.33-.26,1.21-0.81l-5-.12a33.67,33.67,0,0,1-5.35-.41c-1.53-.28-3-0.78-4.54-1.1a30.62,30.62,0,0,0-6.34-.54c-10.67,0-21.13,2.8-31.41,5.66-4.38,1.22-12.9,4-12.93,4.25s0.64,0.39,1,.59" transform="translate(-523.06 -952.17)"/></g><g id="_Group_60" data-name="&lt;Group&gt;"><path class="cls-2" d="M666.13,1027.56a8,8,0,0,0-4.09-.46,0.85,0.85,0,0,0-.49.14,0.67,0.67,0,0,0-.19.31,1.58,1.58,0,0,0,.5,1.71,2.39,2.39,0,0,0,.81.38,3.29,3.29,0,0,0,2.87-.33,2.36,2.36,0,0,0,.93-1.71" transform="translate(-523.06 -952.17)"/></g></g><g id="_Group_61" data-name="&lt;Group&gt;"><g id="_Group_62" data-name="&lt;Group&gt;"><path class="cls-1" d="M798.88,997c3.4,0.08,6-1.76,8-4.49s0.54-6.91-1.36-9.73-5.37-4-8.65-4.76c-10.24-2.45-20.86-2.76-31.39-2.51-7.84.18-15.79,0.7-23.18,3.31-4.25,1.5-8.49,3.92-10.5,7.95a4.2,4.2,0,0,0-.54,2.08c0.1,1.65,1.76,3.12,1.28,4.7a3.52,3.52,0,0,0-.14,1.92,2.91,2.91,0,0,0,1.53,1.09c5.6,1.16,10.82.42,16.46-.52,5.48-.91,10.77-2.81,16.26-3.68a44.88,44.88,0,0,1,22,2c3.25,1.15,6.49,2.71,9.93,2.64" transform="translate(-523.06 -952.17)"/></g><g id="_Group_63" data-name="&lt;Group&gt;"><path class="cls-2" d="M734.68,987c0.49-.74,3.36-1.39,4.86-2.35,2.41-1.56,5.39-1.94,8.25-2.2,9.6-.88,19.26-1,28.91-1.11a50.4,50.4,0,0,1,22.4,3.54l5.84,2a2,2,0,0,1,1.21.79l-8.21-2.07a88.62,88.62,0,0,0-10.11-2.13c-2.22-.29-4.45-0.41-6.68-0.53-8-.44-16.06-0.61-24.12-0.68a30.07,30.07,0,0,0-6.84.63c-5.34,1.2-10,4-15.51,4.11" transform="translate(-523.06 -952.17)"/></g><g id="_Group_64" data-name="&lt;Group&gt;"><path class="cls-2" d="M737.92,993.36c2.64,0.26,5.21-1.09,7.75-1.87,4-1.25,8.41-1.31,12.6-1.84,9.08-1.15,17.85-2.18,26.78-.15,5.51,1.25,11.13,3.22,16.74,3.86,0.56,0.06,1.35-.11,1.29-0.66l-5-.71a33.67,33.67,0,0,1-5.26-1c-1.49-.46-2.9-1.13-4.38-1.62a30.62,30.62,0,0,0-6.23-1.28c-10.6-1.24-21.31.3-31.85,1.93-4.49.69-13.28,2.42-13.34,2.7s0.59,0.47.89,0.7" transform="translate(-523.06 -952.17)"/></g><g id="_Group_65" data-name="&lt;Group&gt;"><path class="cls-2" d="M734.43,991.54a8,8,0,0,0-4-.93,0.85,0.85,0,0,0-.51.08,0.67,0.67,0,0,0-.23.28,1.58,1.58,0,0,0,.3,1.76,2.39,2.39,0,0,0,.76.47,3.29,3.29,0,0,0,2.89,0,2.36,2.36,0,0,0,1.13-1.59" transform="translate(-523.06 -952.17)"/></g></g><g id="_Group_66" data-name="&lt;Group&gt;"><g id="_Group_67" data-name="&lt;Group&gt;"><path class="cls-3" d="M794.33,1031.26c3.26-.31,5.51-2.36,7.13-5.2s-0.27-6.67-2.4-9.15-5.59-3.2-8.81-3.58c-10.07-1.18-20.27-.28-30.3,1.15-7.47,1.06-15,2.45-21.8,5.78-3.89,1.91-7.68,4.71-9.14,8.79a4,4,0,0,0-.28,2.05c0.28,1.57,2,2.78,1.76,4.35a3.39,3.39,0,0,0,.08,1.85,2.8,2.8,0,0,0,1.59.87c5.49,0.48,10.4-.82,15.68-2.36s10-3.9,15.14-5.36a43.22,43.22,0,0,1,21.24-.56c3.24,0.74,6.51,1.86,9.8,1.4" transform="translate(-523.06 -952.17)"/></g><g id="_Group_68" data-name="&lt;Group&gt;"><path class="cls-2" d="M731.81,1029c0.38-.77,3.06-1.71,4.38-2.8,2.13-1.77,4.93-2.46,7.64-3,9.09-1.93,18.31-3.13,27.52-4.33a48.54,48.54,0,0,1,21.83.85l5.82,1.25a1.94,1.94,0,0,1,1.25.62l-8.08-1a85.35,85.35,0,0,0-9.91-.89c-2.15,0-4.3.11-6.45,0.25-7.75.49-15.43,1.23-23.15,2.08a29,29,0,0,0-6.47,1.38c-5,1.75-9.16,4.93-14.37,5.68" transform="translate(-523.06 -952.17)"/></g><g id="_Group_69" data-name="&lt;Group&gt;"><path class="cls-2" d="M735.62,1034.68c2.56,0,4.86-1.63,7.2-2.67,3.72-1.65,7.9-2.21,11.84-3.19,8.55-2.13,16.83-4.1,25.59-3.18,5.41,0.57,11,1.82,16.45,1.79,0.54,0,1.28-.25,1.16-0.78l-4.85-.11a32.43,32.43,0,0,1-5.15-.4c-1.47-.27-2.9-0.75-4.37-1.06a29.49,29.49,0,0,0-6.11-.52c-10.28,0-20.35,2.7-30.25,5.45-4.21,1.17-12.42,3.82-12.46,4.09s0.62,0.38.93,0.57" transform="translate(-523.06 -952.17)"/></g><g id="_Group_70" data-name="&lt;Group&gt;"><path class="cls-2" d="M732.08,1033.33a7.7,7.7,0,0,0-3.94-.44,0.82,0.82,0,0,0-.47.13,0.64,0.64,0,0,0-.19.3A1.52,1.52,0,0,0,728,1035a2.3,2.3,0,0,0,.78.37,3.17,3.17,0,0,0,2.76-.32,2.27,2.27,0,0,0,.9-1.65" transform="translate(-523.06 -952.17)"/></g></g><g id="_Group_71" data-name="&lt;Group&gt;"><g id="_Group_72" data-name="&lt;Group&gt;"><path class="cls-3" d="M535.32,1035.13c-3.33.21-5.68,2.22-7.42,5.06s0.06,6.79,2.16,9.38,5.58,3.43,8.85,3.92c10.2,1.52,20.61.93,30.86-.21,7.64-.84,15.36-2,22.35-5.19,4-1.82,8-4.55,9.58-8.65a4.11,4.11,0,0,0,.35-2.08c-0.24-1.61-2-2.9-1.65-4.48a3.45,3.45,0,0,0,0-1.89,2.85,2.85,0,0,0-1.58-.93c-5.56-.66-10.6.51-16,1.9s-10.28,3.66-15.57,5a44,44,0,0,1-21.62-.11c-3.27-.85-6.56-2.09-9.92-1.74" transform="translate(-523.06 -952.17)"/></g><g id="_Group_73" data-name="&lt;Group&gt;"><path class="cls-2" d="M598.84,1039.4c-0.41.77-3.16,1.64-4.54,2.71-2.22,1.73-5.09,2.35-7.87,2.85-9.3,1.68-18.72,2.6-28.13,3.53a49.39,49.39,0,0,1-22.17-1.56l-5.88-1.45a2,2,0,0,1-1.25-.67l8.19,1.32a86.85,86.85,0,0,0,10.05,1.22c2.19,0.09,4.38,0,6.57,0,7.9-.26,15.73-0.77,23.61-1.38a29.47,29.47,0,0,0,6.63-1.2c5.11-1.62,9.47-4.73,14.79-5.33" transform="translate(-523.06 -952.17)"/></g><g id="_Group_74" data-name="&lt;Group&gt;"><path class="cls-2" d="M595.14,1033.5c-2.6,0-5,1.5-7.41,2.49-3.83,1.56-8.1,2-12.14,2.87-8.76,1.89-17.25,3.64-26.13,2.42-5.48-.75-11.14-2.2-16.67-2.35-0.55,0-1.31.22-1.21,0.76l4.93,0.27a33,33,0,0,1,5.22.56c1.49,0.32,2.93.85,4.41,1.21a30,30,0,0,0,6.2.73c10.45,0.31,20.78-2.1,30.94-4.59,4.32-1.06,12.76-3.49,12.8-3.77s-0.62-.4-0.93-0.61" transform="translate(-523.06 -952.17)"/></g><g id="_Group_75" data-name="&lt;Group&gt;"><path class="cls-2" d="M598.7,1035a7.83,7.83,0,0,0,4,.57,0.84,0.84,0,0,0,.49-0.12,0.66,0.66,0,0,0,.2-0.3,1.54,1.54,0,0,0-.44-1.69,2.34,2.34,0,0,0-.78-0.4,3.22,3.22,0,0,0-2.82.24,2.31,2.31,0,0,0-1,1.65" transform="translate(-523.06 -952.17)"/></g></g><g id="_Group_76" data-name="&lt;Group&gt;"><g id="_Group_77" data-name="&lt;Group&gt;"><path class="cls-3" d="M722.69,1050.41c3.79-.24,6.46-2.53,8.44-5.76s-0.07-7.73-2.45-10.68-6.35-3.9-10.07-4.46c-11.61-1.73-23.45-1.05-35.12.24-8.69,1-17.48,2.3-25.44,5.91-4.57,2.07-9.06,5.17-10.9,9.85a4.68,4.68,0,0,0-.4,2.36c0.27,1.83,2.26,3.29,1.87,5.1a3.93,3.93,0,0,0,0,2.15,3.25,3.25,0,0,0,1.8,1.06c6.33,0.75,12.06-.58,18.24-2.16,6-1.55,11.7-4.16,17.71-5.66a50,50,0,0,1,24.61.12c3.72,1,7.47,2.38,11.29,2" transform="translate(-523.06 -952.17)"/></g><g id="_Group_78" data-name="&lt;Group&gt;"><path class="cls-2" d="M650.41,1045.55c0.47-.87,3.6-1.86,5.17-3.08,2.53-2,5.8-2.67,9-3.24,10.59-1.91,21.3-3,32-4a56.21,56.21,0,0,1,25.23,1.77l6.69,1.65a2.25,2.25,0,0,1,1.42.76l-9.32-1.5a98.83,98.83,0,0,0-11.44-1.39c-2.49-.11-5,0-7.47.05-9,.29-17.9.87-26.87,1.57a33.54,33.54,0,0,0-7.54,1.36c-5.81,1.84-10.77,5.38-16.83,6.06" transform="translate(-523.06 -952.17)"/></g><g id="_Group_79" data-name="&lt;Group&gt;"><path class="cls-2" d="M654.61,1052.27c3,0,5.69-1.71,8.43-2.83,4.36-1.77,9.22-2.27,13.82-3.26,10-2.15,19.63-4.14,29.74-2.76,6.24,0.85,12.67,2.5,19,2.67,0.62,0,1.49-.25,1.37-0.86l-5.61-.31a37.55,37.55,0,0,1-5.95-.64c-1.7-.37-3.33-1-5-1.38a34.15,34.15,0,0,0-7.05-.83c-11.9-.35-23.65,2.39-35.21,5.22-4.92,1.2-14.52,4-14.56,4.29s0.7,0.46,1.06.69" transform="translate(-523.06 -952.17)"/></g><g id="_Group_80" data-name="&lt;Group&gt;"><path class="cls-2" d="M650.57,1050.58a8.91,8.91,0,0,0-4.54-.65,1,1,0,0,0-.55.14,0.75,0.75,0,0,0-.23.34,1.76,1.76,0,0,0,.5,1.93,2.66,2.66,0,0,0,.89.45,3.67,3.67,0,0,0,3.21-.27,2.63,2.63,0,0,0,1.1-1.87" transform="translate(-523.06 -952.17)"/></g></g><g id="_Group_81" data-name="&lt;Group&gt;"><g id="_Group_82" data-name="&lt;Group&gt;"><path class="cls-1" d="M588.75,1036.81c-3.25.41-5.43,2.52-7,5.42s0.47,6.66,2.68,9.07,5.68,3,8.92,3.31c10.1,0.87,20.27-.34,30.26-2.07,7.44-1.29,14.94-2.91,21.61-6.45,3.83-2,7.53-4.94,8.87-9.07a4,4,0,0,0,.22-2.06c-0.33-1.56-2.12-2.72-1.89-4.3a3.39,3.39,0,0,0-.14-1.85,2.8,2.8,0,0,0-1.61-.82c-5.5-.31-10.37,1.14-15.61,2.84s-9.86,4.21-15,5.82a43.22,43.22,0,0,1-21.22,1.21c-3.26-.64-6.56-1.66-9.84-1.1" transform="translate(-523.06 -952.17)"/></g><g id="_Group_83" data-name="&lt;Group&gt;"><path class="cls-2" d="M651.31,1037.15c-0.36.78-3,1.8-4.29,2.93-2.08,1.83-4.85,2.61-7.54,3.27-9,2.21-18.2,3.69-27.38,5.17a48.54,48.54,0,0,1-21.84-.18l-5.85-1.07a1.94,1.94,0,0,1-1.27-.58l8.11,0.8a85.35,85.35,0,0,0,9.93.59c2.15,0,4.3-.24,6.44-0.44,7.73-.73,15.38-1.71,23.07-2.79a29,29,0,0,0,6.43-1.58c4.91-1.9,9-5.21,14.19-6.12" transform="translate(-523.06 -952.17)"/></g><g id="_Group_84" data-name="&lt;Group&gt;"><path class="cls-2" d="M647.33,1031.58c-2.56.12-4.81,1.78-7.12,2.89-3.66,1.76-7.83,2.45-11.74,3.55-8.48,2.39-16.7,4.61-25.48,4-5.43-.4-11.06-1.48-16.49-1.29-0.54,0-1.27.29-1.14,0.82l4.85,0a32.43,32.43,0,0,1,5.16.24c1.48,0.23,2.92.66,4.4,0.92a29.49,29.49,0,0,0,6.12.34c10.27-.33,20.25-3.32,30.07-6.37,4.18-1.3,12.3-4.2,12.32-4.47s-0.63-.36-0.95-0.54" transform="translate(-523.06 -952.17)"/></g><g id="_Group_85" data-name="&lt;Group&gt;"><path class="cls-2" d="M650.91,1032.82a7.7,7.7,0,0,0,4,.32,0.82,0.82,0,0,0,.47-0.15,0.64,0.64,0,0,0,.18-0.3,1.52,1.52,0,0,0-.54-1.63,2.3,2.3,0,0,0-.79-0.34,3.17,3.17,0,0,0-2.75.41,2.27,2.27,0,0,0-.85,1.67" transform="translate(-523.06 -952.17)"/></g></g><g id="_Group_86" data-name="&lt;Group&gt;"><g id="_Group_87" data-name="&lt;Group&gt;"><path class="cls-1" d="M739.67,1036.81c-3.25.41-5.43,2.52-7,5.42s0.47,6.66,2.68,9.07,5.68,3,8.92,3.31c10.1,0.87,20.27-.34,30.26-2.07,7.44-1.29,14.94-2.91,21.61-6.45,3.83-2,7.53-4.94,8.87-9.07a4,4,0,0,0,.22-2.06c-0.33-1.56-2.12-2.72-1.89-4.3a3.39,3.39,0,0,0-.14-1.85,2.8,2.8,0,0,0-1.61-.82c-5.5-.31-10.37,1.14-15.61,2.84s-9.86,4.21-15,5.82a43.22,43.22,0,0,1-21.22,1.21c-3.26-.64-6.56-1.66-9.84-1.1" transform="translate(-523.06 -952.17)"/></g><g id="_Group_88" data-name="&lt;Group&gt;"><path class="cls-2" d="M802.23,1037.15c-0.36.78-3,1.8-4.29,2.93-2.08,1.83-4.85,2.61-7.54,3.27-9,2.21-18.2,3.69-27.38,5.17a48.54,48.54,0,0,1-21.84-.18l-5.85-1.07a1.94,1.94,0,0,1-1.27-.58l8.11,0.8a85.35,85.35,0,0,0,9.93.59c2.15,0,4.3-.24,6.44-0.44,7.73-.73,15.38-1.71,23.07-2.79a29,29,0,0,0,6.43-1.58c4.91-1.9,9-5.21,14.19-6.12" transform="translate(-523.06 -952.17)"/></g><g id="_Group_89" data-name="&lt;Group&gt;"><path class="cls-2" d="M798.24,1031.58c-2.56.12-4.81,1.78-7.12,2.89-3.66,1.76-7.83,2.45-11.74,3.55-8.48,2.39-16.7,4.61-25.48,4-5.43-.4-11.06-1.48-16.49-1.29-0.54,0-1.27.29-1.14,0.82l4.85,0a32.43,32.43,0,0,1,5.16.24c1.48,0.23,2.92.66,4.4,0.92a29.49,29.49,0,0,0,6.12.34c10.27-.33,20.25-3.32,30.07-6.37,4.18-1.3,12.3-4.2,12.32-4.47s-0.63-.36-0.95-0.54" transform="translate(-523.06 -952.17)"/></g><g id="_Group_90" data-name="&lt;Group&gt;"><path class="cls-2" d="M801.83,1032.82a7.7,7.7,0,0,0,4,.32,0.82,0.82,0,0,0,.47-0.15,0.64,0.64,0,0,0,.18-0.3,1.52,1.52,0,0,0-.54-1.63,2.3,2.3,0,0,0-.79-0.34,3.17,3.17,0,0,0-2.75.41,2.27,2.27,0,0,0-.85,1.67" transform="translate(-523.06 -952.17)"/></g></g></svg>