<svg id="Layer_1" data-name="Layer 1" xmlns="http://www.w3.org/2000/svg" viewBox="0 0 282.53 92.37"><defs><style>.cls-1{fill:#9bc53d;}.cls-2{fill:#44a84f;}.cls-3{fill:#43612d;}</style></defs><title>green_peppers</title><g id="_Group_" data-name="&lt;Group&gt;"><g id="_Group_2" data-name="&lt;Group&gt;"><path class="cls-1" d="M-54,781.83c0.31,2.6.11,5.44-1.51,7.51s-4.18,2.9-6.63,3.67l-7.41,2.35a29.43,29.43,0,0,1-4.07,1.08,14.82,14.82,0,0,1-8.93-1.34,6.27,6.27,0,0,1,3.73-1.51c0.69,0,1.38,0,2.06,0a19.89,19.89,0,0,0,3.5-.39l9.41-1.61c1.45-.25,3.11-0.65,3.73-2s-0.27-3.46.74-4.73c0.59-.75,1.81-1.23,1.68-2.17a9.86,9.86,0,0,1-.41-1.18,1.16,1.16,0,0,1,.43-0.84,2.36,2.36,0,0,1,2.49-.4,2.36,2.36,0,0,1,1.36,2.12" transform="translate(104.59 -705.11)"/></g><g id="_Group_3" data-name="&lt;Group&gt;"><path class="cls-2" d="M-58.77,783.72c-1.17.06-.81-0.6-1.22-1.69s-0.46-2.3-.83-3.41a2.16,2.16,0,0,0-.9-1.29,2.46,2.46,0,0,0-1.75,0c-2.76.67-5.36,1.88-8.12,2.55-4.23,1-8.75.79-12.84,2.3-2,.72-3.94,2.07-4.33,4.12-0.35,1.83.68,3.62,1.76,5.13a10.76,10.76,0,0,0,3.94,3.72,2.31,2.31,0,0,0,1,.26,3.07,3.07,0,0,0,1-.29c6.16-2.43,13.25-1.58,19.41-4A4.69,4.69,0,0,0-59,789.2c0.76-1.41.16-3.3,1.07-4.62a0.85,0.85,0,0,0,.21-0.43c0-.42-0.59-0.5-1-0.43" transform="translate(104.59 -705.11)"/></g><g id="_Group_4" data-name="&lt;Group&gt;"><path class="cls-2" d="M-56,772.09a1.94,1.94,0,0,0,1-1.69,3.31,3.31,0,0,0-.64-1.93,6.88,6.88,0,0,0-3.11-2.37,18.65,18.65,0,0,0-3.83-1,14.5,14.5,0,0,0-2.31-.28,16.4,16.4,0,0,0-3,.33c-1.19.2-2.38,0.38-3.58,0.5a45.07,45.07,0,0,0-6,.67,13.44,13.44,0,0,0-4.38,1.9A4.68,4.68,0,0,0-83,769.75a0.49,0.49,0,0,0,.37.25c1.06,0.28,3-.93,4.07-1.13l10.63-2a6.29,6.29,0,0,1,3.76.06,4.93,4.93,0,0,1,1.65,1.35,11.61,11.61,0,0,1,1.68,2.6,8.46,8.46,0,0,0,1,1.81,1.94,1.94,0,0,0,1.8.79" transform="translate(104.59 -705.11)"/></g><g id="_Group_5" data-name="&lt;Group&gt;"><path class="cls-1" d="M-59.63,772.91l-0.81,2.57a4.47,4.47,0,0,1-1.28,2.3,4.9,4.9,0,0,1-2.38.73c-3.62.51-7.09,1.83-10.71,2.32-1.54.21-3.11,0.26-4.64,0.52a43.63,43.63,0,0,0-5.5,1.5,4.25,4.25,0,0,1-3.27.09,2.83,2.83,0,0,1-1.3-1.94,7.11,7.11,0,0,1,0-2.4,11.4,11.4,0,0,1,1.35-4.37,12.76,12.76,0,0,1,3.66-3.54,12.22,12.22,0,0,1,4.1-2.15c1.92-.47,3.95-0.06,5.89-0.4,1.11-.19,2.18-0.62,3.3-0.77,0.84-.11,1.88-0.73,2.73-0.79,1.29-.09,2.36.23,3.64,0.06a1.59,1.59,0,0,1,.71,0,1.55,1.55,0,0,1,.62.47,16.57,16.57,0,0,1,2.83,3.52c0.38,0.75.65,1.51,1,2.26" transform="translate(104.59 -705.11)"/></g><g id="_Group_6" data-name="&lt;Group&gt;"><path class="cls-1" d="M-58.58,774l1,3.56a2.56,2.56,0,0,0,.24.62,2.09,2.09,0,0,0,.41.47,2,2,0,0,0,1.46.64,1.75,1.75,0,0,0,1.21-.81c0.87-1.26.64-3,.23-4.44a3.71,3.71,0,0,0-.87-1.75,1.42,1.42,0,0,0-1.8-.21,3.28,3.28,0,0,1-.75.69c-0.35.14-.77-0.06-1.12,0.07a0.67,0.67,0,0,0-.44.6,0.67,0.67,0,0,0,.4.62" transform="translate(104.59 -705.11)"/></g><g id="_Group_7" data-name="&lt;Group&gt;"><path class="cls-3" d="M-57.4,777.46a21.83,21.83,0,0,0-.64-3.08c-0.21-.73-0.74-1.62-1.47-1.42a1.54,1.54,0,0,0-.85,1.16l-1,3.19a2.89,2.89,0,0,0-.17.81,2.9,2.9,0,0,0,.2.95l1.23,3.69a3.37,3.37,0,0,0,1.16,1.89,1.17,1.17,0,0,0,1.79-.61,6.45,6.45,0,0,0-.25-1.18,1.52,1.52,0,0,1,1.64-1.45,3.52,3.52,0,0,1,2.15,1.12,3.11,3.11,0,0,1,1.13,1.88,2.8,2.8,0,0,1-.88,2c-0.51.56-1.13,1-1.6,1.63a1,1,0,0,0-.13,1.28,1.05,1.05,0,0,0,.63.2,20.24,20.24,0,0,0,3.15,0,1.31,1.31,0,0,0,.79-0.25,1.29,1.29,0,0,0,.32-0.62,14.72,14.72,0,0,0,.46-6,2.46,2.46,0,0,0-.54-1.43,2.67,2.67,0,0,0-1.18-.59l-3.17-1c-1.18-.36-2.54-0.91-2.83-2.11" transform="translate(104.59 -705.11)"/></g></g><g id="_Group_8" data-name="&lt;Group&gt;"><g id="_Group_9" data-name="&lt;Group&gt;"><path class="cls-1" d="M-43.47,767.63c1.62-2.06,3.77-3.92,6.38-4.24s5,0.91,7.29,2.09l6.9,3.58a29.43,29.43,0,0,1,3.64,2.12,14.82,14.82,0,0,1,5.37,7.26,6.27,6.27,0,0,1-3.71-1.57c-0.51-.46-0.94-1-1.43-1.49a19.89,19.89,0,0,0-2.75-2.2l-7.79-5.51c-1.2-.85-2.66-1.74-4-1.23s-2.25,2.63-3.87,2.82c-0.95.11-2.15-.41-2.72,0.35a9.86,9.86,0,0,1-.54,1.12,1.16,1.16,0,0,1-.9.28,2.36,2.36,0,0,1-2-1.48,2.36,2.36,0,0,1,.53-2.46" transform="translate(104.59 -705.11)"/></g><g id="_Group_10" data-name="&lt;Group&gt;"><path class="cls-2" d="M-38.78,769.63c0.87,0.78.15,1-.33,2.06s-1.3,2-1.83,3a2.16,2.16,0,0,0-.27,1.55A2.46,2.46,0,0,0-40,777.49c2.42,1.47,5.12,2.47,7.54,3.94,3.72,2.26,6.75,5.63,10.7,7.45,1.89,0.87,4.25,1.32,6,.15,1.54-1,2.08-3,2.39-4.87a10.76,10.76,0,0,0-.15-5.42,2.31,2.31,0,0,0-.53-0.9A3.07,3.07,0,0,0-15,777.3c-6.08-2.64-10.48-8.25-16.56-10.88a4.69,4.69,0,0,0-3.14-.47c-1.53.46-2.45,2.22-4,2.51a0.85,0.85,0,0,0-.45.16c-0.3.29,0.07,0.77,0.4,1" transform="translate(104.59 -705.11)"/></g><g id="_Group_11" data-name="&lt;Group&gt;"><path class="cls-2" d="M-48.93,775.93a1.94,1.94,0,0,0-1.91.48,3.31,3.31,0,0,0-.91,1.82,6.88,6.88,0,0,0,.52,3.88,18.65,18.65,0,0,0,2,3.42,14.5,14.5,0,0,0,1.43,1.83,16.4,16.4,0,0,0,2.35,1.89c1,0.7,2,1.42,2.88,2.18a45.07,45.07,0,0,0,4.73,3.79A13.44,13.44,0,0,0-33.38,797a4.68,4.68,0,0,0,1.88-.28,0.49,0.49,0,0,0-.08-0.44c-0.55-.94-2.77-1.46-3.68-2.07l-8.95-6.08a6.29,6.29,0,0,1-2.62-2.7,4.93,4.93,0,0,1-.21-2.12,11.61,11.61,0,0,1,.65-3,8.46,8.46,0,0,0,.6-2,1.94,1.94,0,0,0-.71-1.83" transform="translate(104.59 -705.11)"/></g><g id="_Group_12" data-name="&lt;Group&gt;"><path class="cls-1" d="M-45.82,777.89l2.39-1.24a4.47,4.47,0,0,1,2.53-.72,4.9,4.9,0,0,1,2.2,1.17c2.92,2.19,6.31,3.72,9.21,5.94,1.24,0.95,2.38,2,3.65,2.91a43.63,43.63,0,0,0,5,2.83A4.25,4.25,0,0,1-18.51,791a2.83,2.83,0,0,1-.46,2.29A7.11,7.11,0,0,1-20.69,795a11.4,11.4,0,0,1-4,2.13,12.76,12.76,0,0,1-5.09-.09,12.22,12.22,0,0,1-4.42-1.38c-1.68-1-2.84-2.74-4.44-3.88-0.92-.65-2-1.1-2.87-1.79-0.67-.52-1.84-0.81-2.49-1.37-1-.84-1.51-1.83-2.53-2.62a1.59,1.59,0,0,1-.49-0.52,1.55,1.55,0,0,1-.11-0.77,16.57,16.57,0,0,1,.48-4.49c0.26-.8.61-1.53,0.87-2.33" transform="translate(104.59 -705.11)"/></g><g id="_Group_13" data-name="&lt;Group&gt;"><path class="cls-1" d="M-45.79,776.38l1.81-3.23a2.56,2.56,0,0,0,.27-0.61,2.09,2.09,0,0,0,0-.62,2,2,0,0,0-.58-1.48,1.75,1.75,0,0,0-1.43-.28c-1.51.28-2.55,1.64-3.3,3a3.71,3.71,0,0,0-.62,1.86,1.42,1.42,0,0,0,1.12,1.42,3.28,3.28,0,0,1,1,0c0.35,0.15.5,0.58,0.84,0.75a0.67,0.67,0,0,0,.73-0.11,0.67,0.67,0,0,0,.16-0.72" transform="translate(104.59 -705.11)"/></g><g id="_Group_14" data-name="&lt;Group&gt;"><path class="cls-3" d="M-44.18,773.1a21.83,21.83,0,0,0-1.73,2.63c-0.37.66-.62,1.67,0,2a1.54,1.54,0,0,0,1.42-.22l3-1.55a2.89,2.89,0,0,0,.69-0.45,2.9,2.9,0,0,0,.53-0.81l1.74-3.48A3.37,3.37,0,0,0-38,769.1a1.17,1.17,0,0,0-1.7-.83,6.45,6.45,0,0,0-.66,1,1.52,1.52,0,0,1-2.18-.13,3.52,3.52,0,0,1-.73-2.31,3.11,3.11,0,0,1,.53-2.13,2.8,2.8,0,0,1,2.06-.82c0.76,0,1.53.08,2.28,0a1,1,0,0,0,1-.81,1.05,1.05,0,0,0-.31-0.59,20.24,20.24,0,0,0-2.23-2.23,1.31,1.31,0,0,0-.73-0.39,1.29,1.29,0,0,0-.67.21A14.72,14.72,0,0,0-45.91,764a2.46,2.46,0,0,0-.63,1.39,2.67,2.67,0,0,0,.41,1.25l1.55,2.94c0.58,1.09,1.15,2.44.51,3.49" transform="translate(104.59 -705.11)"/></g></g><g id="_Group_15" data-name="&lt;Group&gt;"><g id="_Group_16" data-name="&lt;Group&gt;"><path class="cls-1" d="M34.37,777c0.14-2.62.83-5.38,2.78-7.14s4.62-2.14,7.16-2.48l7.7-1a29.43,29.43,0,0,1,4.2-.36,14.82,14.82,0,0,1,8.57,2.85,6.27,6.27,0,0,1-3.94.85c-0.68-.08-1.35-0.27-2-0.4A19.89,19.89,0,0,0,55.3,769l-9.55,0c-1.47,0-3.17.11-4,1.31s-0.33,3.45-1.54,4.53c-0.71.64-2,.9-2,1.85a9.86,9.86,0,0,1,.2,1.23,1.16,1.16,0,0,1-.57.75,2.3,2.3,0,0,1-3.5-2.35" transform="translate(104.59 -705.11)"/></g><g id="_Group_17" data-name="&lt;Group&gt;"><path class="cls-2" d="M39.37,775.9c1.16,0.14.7,0.73,0.92,1.88s0.06,2.34.23,3.5a2.16,2.16,0,0,0,.66,1.42,2.46,2.46,0,0,0,1.71.33c2.83-.19,5.6-0.93,8.44-1.11,4.35-.29,8.76.72,13-0.06,2.05-.37,4.24-1.36,5-3.32,0.66-1.74,0-3.68-.85-5.36a10.76,10.76,0,0,0-3.24-4.35,2.31,2.31,0,0,0-.95-0.43,3.07,3.07,0,0,0-1.08.1c-6.49,1.34-13.32-.72-19.81.62a4.69,4.69,0,0,0-2.84,1.42c-1,1.25-.73,3.22-1.84,4.37a0.85,0.85,0,0,0-.28.39c-0.08.41,0.49,0.59,0.91,0.59" transform="translate(104.59 -705.11)"/></g><g id="_Group_18" data-name="&lt;Group&gt;"><path class="cls-2" d="M34.68,786.89a1.94,1.94,0,0,0-1.28,1.49,3.31,3.31,0,0,0,.3,2,6.88,6.88,0,0,0,2.66,2.87,18.65,18.65,0,0,0,3.6,1.64,14.5,14.5,0,0,0,2.23.68,16.4,16.4,0,0,0,3,.19c1.21,0,2.41,0,3.61.13a45.07,45.07,0,0,0,6,.38,13.44,13.44,0,0,0,4.64-1.12,4.68,4.68,0,0,0,1.37-1.31,0.49,0.49,0,0,0-.32-0.31c-1-.45-3.11.4-4.2,0.42l-10.82.17a6.29,6.29,0,0,1-3.69-.7,4.93,4.93,0,0,1-1.39-1.62,11.61,11.61,0,0,1-1.21-2.85,8.46,8.46,0,0,0-.64-2A1.94,1.94,0,0,0,37,785.91" transform="translate(104.59 -705.11)"/></g><g id="_Group_19" data-name="&lt;Group&gt;"><path class="cls-1" d="M38.36,786.7l1.24-2.39a4.47,4.47,0,0,1,1.65-2,4.9,4.9,0,0,1,2.47-.31c3.65,0.11,7.3-.59,10.95-0.44,1.56,0.06,3.11.27,4.66,0.28a43.63,43.63,0,0,0,5.68-.53,4.25,4.25,0,0,1,3.23.48,2.83,2.83,0,0,1,.94,2.14,7.11,7.11,0,0,1-.45,2.36,11.4,11.4,0,0,1-2.08,4.07,12.76,12.76,0,0,1-4.22,2.85A12.22,12.22,0,0,1,58,794.58c-2,.13-3.9-0.61-5.87-0.62-1.13,0-2.25.24-3.38,0.19-0.85,0-2,.39-2.82.31-1.28-.13-2.29-0.63-3.58-0.68a1.59,1.59,0,0,1-.7-0.14,1.55,1.55,0,0,1-.53-0.57A16.57,16.57,0,0,1,39,789.11c-0.25-.8-0.38-1.6-0.63-2.4" transform="translate(104.59 -705.11)"/></g><g id="_Group_20" data-name="&lt;Group&gt;"><path class="cls-1" d="M37.51,785.46l-0.38-3.68a2.56,2.56,0,0,0-.13-0.66,2.09,2.09,0,0,0-.32-0.53,2,2,0,0,0-1.33-.88,1.75,1.75,0,0,0-1.34.59c-1.07,1.09-1.14,2.81-1,4.33a3.71,3.71,0,0,0,.56,1.87,1.42,1.42,0,0,0,1.74.52,3.28,3.28,0,0,1,.85-0.55c0.37-.07.75,0.19,1.12,0.13a0.66,0.66,0,0,0,.25-1.19" transform="translate(104.59 -705.11)"/></g><g id="_Group_21" data-name="&lt;Group&gt;"><path class="cls-3" d="M36.94,781.84A21.83,21.83,0,0,0,37,785c0.08,0.76.45,1.72,1.21,1.65a1.54,1.54,0,0,0,1-1l1.53-3a2.17,2.17,0,0,0,.27-1.74l-0.58-3.84A3.37,3.37,0,0,0,39.7,775a1.17,1.17,0,0,0-1.87.3,6.45,6.45,0,0,0,0,1.21A1.52,1.52,0,0,1,36,777.67a3.52,3.52,0,0,1-1.93-1.47,3.11,3.11,0,0,1-.79-2,2.8,2.8,0,0,1,1.21-1.86c0.6-.46,1.29-0.82,1.85-1.33a1,1,0,0,0,.35-1.23,1.05,1.05,0,0,0-.59-0.3,20.24,20.24,0,0,0-3.1-.54,1.31,1.31,0,0,0-.82.11,1.29,1.29,0,0,0-.42.56,14.72,14.72,0,0,0-1.49,5.83,2.46,2.46,0,0,0,.29,1.5,2.67,2.67,0,0,0,1.06.78l3,1.51c1.1,0.56,2.34,1.33,2.43,2.56" transform="translate(104.59 -705.11)"/></g></g><g id="_Group_22" data-name="&lt;Group&gt;"><g id="_Group_23" data-name="&lt;Group&gt;"><path class="cls-1" d="M-82.08,735.21c2.56,0.57,5.17,1.71,6.58,3.92s1.34,4.91,1.26,7.48l-0.25,7.77a29.43,29.43,0,0,1-.34,4.2,14.82,14.82,0,0,1-4.23,8,6.27,6.27,0,0,1-.18-4c0.19-.66.49-1.28,0.73-1.93a19.89,19.89,0,0,0,.8-3.43l1.6-9.41c0.25-1.45.42-3.15-.63-4.17s-3.35-.9-4.22-2.27c-0.51-.81-0.56-2.12-1.49-2.3a9.86,9.86,0,0,1-1.24,0,1.16,1.16,0,0,1-.64-0.69,2.36,2.36,0,0,1,.45-2.48,2.36,2.36,0,0,1,2.45-.58" transform="translate(104.59 -705.11)"/></g><g id="_Group_24" data-name="&lt;Group&gt;"><path class="cls-2" d="M-81.86,740.31c-0.33,1.12-.83.57-2,0.59s-2.32-.33-3.49-0.35a2.16,2.16,0,0,0-1.51.42,2.46,2.46,0,0,0-.61,1.64c-0.28,2.82,0,5.68-.29,8.5-0.43,4.33-2.16,8.52-2.09,12.87,0,2.09.65,4.41,2.45,5.45,1.61,0.93,3.64.56,5.43,0A10.76,10.76,0,0,0-79.17,767a2.31,2.31,0,0,0,.58-0.86,3.07,3.07,0,0,0,.08-1.08c-0.25-6.62,2.91-13,2.66-19.64a4.69,4.69,0,0,0-.93-3c-1.07-1.18-3.06-1.25-4-2.54a0.85,0.85,0,0,0-.34-0.34c-0.39-.15-0.66.39-0.73,0.8" transform="translate(104.59 -705.11)"/></g><g id="_Group_25" data-name="&lt;Group&gt;"><path class="cls-2" d="M-91.93,733.87a1.94,1.94,0,0,0-1.26-1.51,3.31,3.31,0,0,0-2,0,6.88,6.88,0,0,0-3.27,2.15,18.65,18.65,0,0,0-2.21,3.28,14.5,14.5,0,0,0-1,2.08,16.4,16.4,0,0,0-.69,2.94c-0.21,1.19-.43,2.37-0.72,3.54a45.07,45.07,0,0,0-1.37,5.9,13.44,13.44,0,0,0,.34,4.76,4.68,4.68,0,0,0,1.07,1.57,0.49,0.49,0,0,0,.36-0.27c0.61-.91.12-3.13,0.28-4.21l1.62-10.7a6.29,6.29,0,0,1,1.3-3.52,4.93,4.93,0,0,1,1.82-1.11,11.61,11.61,0,0,1,3-.72,8.46,8.46,0,0,0,2-.31,1.94,1.94,0,0,0,1.34-1.43" transform="translate(104.59 -705.11)"/></g><g id="_Group_26" data-name="&lt;Group&gt;"><path class="cls-1" d="M-92.35,737.53l2.16,1.62a4.47,4.47,0,0,1,1.74,2,4.9,4.9,0,0,1-.1,2.49c-0.72,3.58-.63,7.29-1.37,10.87-0.32,1.52-.78,3-1,4.55a43.63,43.63,0,0,0-.41,5.69,4.25,4.25,0,0,1-1,3.11,2.83,2.83,0,0,1-2.27.58,7.11,7.11,0,0,1-2.25-.83,11.4,11.4,0,0,1-3.67-2.72,12.76,12.76,0,0,1-2.12-4.63,12.22,12.22,0,0,1-.67-4.58c0.2-2,1.25-3.74,1.58-5.69,0.19-1.11.14-2.26,0.37-3.36,0.18-.83-0.06-2,0.16-2.83,0.34-1.24,1-2.15,1.27-3.42a1.59,1.59,0,0,1,.26-0.66,1.55,1.55,0,0,1,.65-0.43,16.57,16.57,0,0,1,4.26-1.5c0.83-.11,1.65-0.11,2.48-0.22" transform="translate(104.59 -705.11)"/></g><g id="_Group_27" data-name="&lt;Group&gt;"><path class="cls-1" d="M-91,736.9l3.69,0.23a2.56,2.56,0,0,0,.67,0,2.09,2.09,0,0,0,.58-0.23A2,2,0,0,0-85,735.72a1.75,1.75,0,0,0-.37-1.42c-0.9-1.24-2.58-1.59-4.11-1.69a3.71,3.71,0,0,0-1.94.24,1.42,1.42,0,0,0-.8,1.63,3.28,3.28,0,0,1,.4.93c0,0.38-.31.7-0.31,1.08a0.67,0.67,0,0,0,.42.61,0.67,0.67,0,0,0,.72-0.17" transform="translate(104.59 -705.11)"/></g><g id="_Group_28" data-name="&lt;Group&gt;"><path class="cls-3" d="M-87.32,736.93a21.83,21.83,0,0,0-3.12-.42c-0.76,0-1.77.16-1.82,0.92a1.54,1.54,0,0,0,.81,1.19l2.68,2a2.89,2.89,0,0,0,.71.43,2.9,2.9,0,0,0,1,.12l3.89,0.06a3.37,3.37,0,0,0,2.17-.46,1.17,1.17,0,0,0,0-1.89,6.45,6.45,0,0,0-1.2-.16,1.52,1.52,0,0,1-.82-2A3.52,3.52,0,0,1-81.28,735a3.11,3.11,0,0,1,2.15-.45,2.8,2.8,0,0,1,1.63,1.5c0.36,0.67.59,1.41,1,2a1,1,0,0,0,1.16.55,1.05,1.05,0,0,0,.39-0.53,20.24,20.24,0,0,0,1-3,1.31,1.31,0,0,0,0-.83,1.29,1.29,0,0,0-.48-0.51,14.72,14.72,0,0,0-5.51-2.43,2.46,2.46,0,0,0-1.53,0,2.67,2.67,0,0,0-.95.91l-2,2.67c-0.73,1-1.7,2.09-2.93,2" transform="translate(104.59 -705.11)"/></g></g><g id="_Group_29" data-name="&lt;Group&gt;"><g id="_Group_30" data-name="&lt;Group&gt;"><path class="cls-1" d="M-59.2,760.25c-2.32.44-4.89,0.43-6.84-.9s-2.86-3.58-3.71-5.74l-2.56-6.51a26.51,26.51,0,0,1-1.22-3.59,13.35,13.35,0,0,1,.66-8.1,5.65,5.65,0,0,1,1.58,3.26c0.08,0.62,0,1.24.09,1.86a17.91,17.91,0,0,0,.56,3.12l2,8.36c0.31,1.28.78,2.75,2,3.23s3.09-.45,4.3.38c0.71,0.49,1.21,1.56,2.05,1.37a8.88,8.88,0,0,1,1-.44,1,1,0,0,1,.78.34,2.12,2.12,0,0,1,.51,2.21,2.12,2.12,0,0,1-1.82,1.36" transform="translate(104.59 -705.11)"/></g><g id="_Group_31" data-name="&lt;Group&gt;"><path class="cls-2" d="M-61.19,756.11c-0.13-1,.49-0.76,1.44-1.2s2-.56,3-0.95a1.94,1.94,0,0,0,1.1-.89,2.21,2.21,0,0,0-.08-1.57c-0.77-2.44-2-4.7-2.78-7.14-1.18-3.74-1.25-7.82-2.85-11.4-0.77-1.71-2.1-3.42-4-3.64-1.66-.2-3.21.83-4.51,1.9A9.69,9.69,0,0,0-72.92,735a2.08,2.08,0,0,0-.18.92,2.77,2.77,0,0,0,.32.92c2.56,5.39,2.22,11.81,4.79,17.2a4.22,4.22,0,0,0,1.85,2.18c1.31,0.6,3-.06,4.22.68a0.76,0.76,0,0,0,.4.16c0.37,0,.41-0.56.32-0.92" transform="translate(104.59 -705.11)"/></g><g id="_Group_32" data-name="&lt;Group&gt;"><path class="cls-2" d="M-50.57,757.85a1.74,1.74,0,0,0,1.58.8,3,3,0,0,0,1.69-.7A6.2,6.2,0,0,0-45.36,755a16.8,16.8,0,0,0,.66-3.5,13.06,13.06,0,0,0,.11-2.09,14.78,14.78,0,0,0-.48-2.67c-0.25-1.06-.49-2.12-0.66-3.19a40.6,40.6,0,0,0-1-5.37,12.11,12.11,0,0,0-2-3.82,4.21,4.21,0,0,0-1.44-.92,0.44,0.44,0,0,0-.2.35c-0.18,1,1,2.63,1.27,3.59l2.47,9.43a5.67,5.67,0,0,1,.18,3.38,4.44,4.44,0,0,1-1.11,1.57,10.45,10.45,0,0,1-2.24,1.67,7.62,7.62,0,0,0-1.57,1,1.75,1.75,0,0,0-.6,1.66" transform="translate(104.59 -705.11)"/></g><g id="_Group_33" data-name="&lt;Group&gt;"><path class="cls-1" d="M-51.53,754.67l-2.36-.57a4,4,0,0,1-2.14-1,4.42,4.42,0,0,1-.8-2.1c-0.68-3.22-2.08-6.26-2.73-9.48-0.28-1.37-.43-2.78-0.75-4.14A39.3,39.3,0,0,0-62,732.51a3.83,3.83,0,0,1-.28-2.93,2.55,2.55,0,0,1,1.67-1.28,6.4,6.4,0,0,1,2.16-.12,10.27,10.27,0,0,1,4,.95A11.49,11.49,0,0,1-51,732.2a11,11,0,0,1,2.19,3.55c0.54,1.69.3,3.54,0.72,5.27,0.24,1,.69,1.92.89,2.91,0.15,0.75.77,1.64,0.88,2.4,0.16,1.15-.06,2.14.17,3.28a1.44,1.44,0,0,1,0,.64,1.39,1.39,0,0,1-.38.59,14.93,14.93,0,0,1-3,2.76c-0.65.39-1.32,0.68-2,1.07" transform="translate(104.59 -705.11)"/></g><g id="_Group_34" data-name="&lt;Group&gt;"><path class="cls-1" d="M-52.44,755.68l-3.14,1.12a2.31,2.31,0,0,0-.55.25,1.88,1.88,0,0,0-.4.4A1.82,1.82,0,0,0-57,758.8a1.57,1.57,0,0,0,.81,1c1.19,0.7,2.7.39,4-.07a3.34,3.34,0,0,0,1.52-.89,1.28,1.28,0,0,0,.08-1.63,3,3,0,0,1-.66-0.63c-0.14-.31,0-0.69-0.13-1a0.61,0.61,0,0,0-.56-0.36,0.61,0.61,0,0,0-.54.39" transform="translate(104.59 -705.11)"/></g><g id="_Group_35" data-name="&lt;Group&gt;"><path class="cls-3" d="M-55.48,757a19.66,19.66,0,0,0,2.73-.76c0.64-.23,1.41-0.76,1.18-1.41a1.39,1.39,0,0,0-1.09-.69l-2.93-.7a2.61,2.61,0,0,0-.74-0.1,2.61,2.61,0,0,0-.84.24l-3.24,1.33A3,3,0,0,0-62,756a1.05,1.05,0,0,0,.66,1.57,5.81,5.81,0,0,0,1-.3,1.37,1.37,0,0,1,1.4,1.38,3.17,3.17,0,0,1-.87,2,2.8,2.8,0,0,1-1.62,1.13,2.52,2.52,0,0,1-1.88-.66c-0.53-.43-1-1-1.56-1.33a0.89,0.89,0,0,0-1.16,0,1,1,0,0,0-.14.58,18.23,18.23,0,0,0,.19,2.83,1.18,1.18,0,0,0,.27.7,1.16,1.16,0,0,0,.58.25,13.25,13.25,0,0,0,5.42,0,2.21,2.21,0,0,0,1.25-.57A2.41,2.41,0,0,0-58,762.5l0.69-2.91c0.25-1.08.66-2.34,1.72-2.68" transform="translate(104.59 -705.11)"/></g></g><g id="_Group_36" data-name="&lt;Group&gt;"><g id="_Group_37" data-name="&lt;Group&gt;"><path class="cls-1" d="M59.41,730.34c-1.06,2.11-2.64,4.14-4.88,4.88s-4.58.09-6.81-.55L41,732.72a26.51,26.51,0,0,1-3.59-1.22,13.35,13.35,0,0,1-6-5.46,5.65,5.65,0,0,1,3.55.73c0.53,0.31,1,.72,1.53,1.06a17.91,17.91,0,0,0,2.82,1.45l7.86,3.49c1.21,0.54,2.66,1.06,3.78.37s1.52-2.72,2.92-3.18c0.82-.27,2,0,2.34-0.79a8.88,8.88,0,0,1,.28-1.09,1,1,0,0,1,.74-0.41,2.07,2.07,0,0,1,2,3.21" transform="translate(104.59 -705.11)"/></g><g id="_Group_38" data-name="&lt;Group&gt;"><path class="cls-2" d="M54.91,729.4c-0.91-.54-0.31-0.85-0.07-1.88s0.8-2,1.08-3a1.94,1.94,0,0,0,0-1.41,2.21,2.21,0,0,0-1.29-.9c-2.4-.87-5-1.27-7.36-2.14-3.69-1.34-7-3.77-10.77-4.68-1.83-.44-4-0.41-5.3.93s-1.3,3.05-1.24,4.73A9.69,9.69,0,0,0,31,725.83a2.08,2.08,0,0,0,.62.7,2.77,2.77,0,0,0,.93.31c5.84,1.25,10.72,5.43,16.56,6.67a4.22,4.22,0,0,0,2.86-.14c1.27-.68,1.77-2.4,3.1-2.93a0.76,0.76,0,0,0,.37-0.22c0.21-.31-0.19-0.66-0.54-0.82" transform="translate(104.59 -705.11)"/></g><g id="_Group_39" data-name="&lt;Group&gt;"><path class="cls-2" d="M62.76,722a1.74,1.74,0,0,0,1.6-.76,3,3,0,0,0,.48-1.77,6.2,6.2,0,0,0-1.15-3.33,16.8,16.8,0,0,0-2.38-2.66,13.06,13.06,0,0,0-1.59-1.37,14.78,14.78,0,0,0-2.41-1.25c-1-.44-2-0.9-2.93-1.42a40.6,40.6,0,0,0-4.85-2.5,12.11,12.11,0,0,0-4.23-.76,4.21,4.21,0,0,0-1.61.58,0.44,0.44,0,0,0,.15.37c0.66,0.74,2.71.8,3.62,1.18l9,3.79a5.67,5.67,0,0,1,2.79,1.92,4.44,4.44,0,0,1,.56,1.84,10.45,10.45,0,0,1,0,2.79,7.62,7.62,0,0,0-.18,1.84,1.75,1.75,0,0,0,1,1.49" transform="translate(104.59 -705.11)"/></g><g id="_Group_40" data-name="&lt;Group&gt;"><path class="cls-1" d="M59.66,720.86l-1.89,1.52a4,4,0,0,1-2.11,1.09,4.42,4.42,0,0,1-2.15-.64c-3-1.42-6.23-2.16-9.19-3.61-1.26-.61-2.46-1.35-3.74-1.92a39.3,39.3,0,0,0-4.88-1.62,3.83,3.83,0,0,1-2.49-1.57,2.55,2.55,0,0,1,0-2.11,6.4,6.4,0,0,1,1.22-1.78,10.27,10.27,0,0,1,3.19-2.6,11.49,11.49,0,0,1,4.51-.82,11,11,0,0,1,4.15.43c1.67,0.61,3,1.92,4.61,2.64,0.93,0.41,1.94.62,2.85,1.07,0.69,0.34,1.77.39,2.44,0.77,1,0.57,1.66,1.35,2.7,1.86a1.44,1.44,0,0,1,.52.37,1.39,1.39,0,0,1,.23.66,14.93,14.93,0,0,1,.37,4c-0.09.75-.26,1.46-0.35,2.21" transform="translate(104.59 -705.11)"/></g><g id="_Group_41" data-name="&lt;Group&gt;"><path class="cls-1" d="M59.91,722.19l-1,3.17a2.31,2.31,0,0,0-.13.59,1.88,1.88,0,0,0,.07.56,1.82,1.82,0,0,0,.78,1.2,1.57,1.57,0,0,0,1.32,0c1.28-.51,2-1.9,2.39-3.21a3.34,3.34,0,0,0,.22-1.75,1.28,1.28,0,0,0-1.24-1.06,3,3,0,0,1-.9.14c-0.33-.07-0.55-0.43-0.88-0.51a0.59,0.59,0,0,0-.64.89" transform="translate(104.59 -705.11)"/></g><g id="_Group_42" data-name="&lt;Group&gt;"><path class="cls-3" d="M59.06,725.38a19.66,19.66,0,0,0,1.06-2.63c0.21-.65.25-1.58-0.4-1.8a1.39,1.39,0,0,0-1.22.44l-2.34,1.9a2,2,0,0,0-.85,1.34L54.39,728a3,3,0,0,0-.08,2,1.05,1.05,0,0,0,1.65.43,5.81,5.81,0,0,0,.4-1,1.37,1.37,0,0,1,2-.27,3.17,3.17,0,0,1,1.06,1.91,2.8,2.8,0,0,1-.09,2,2.52,2.52,0,0,1-1.67,1.09c-0.67.16-1.36,0.2-2,.43a0.89,0.89,0,0,0-.74.89,1,1,0,0,0,.38.46,18.23,18.23,0,0,0,2.36,1.57,1.18,1.18,0,0,0,.72.21,1.16,1.16,0,0,0,.55-0.31,13.25,13.25,0,0,0,3.34-4.27,2.21,2.21,0,0,0,.31-1.34,2.41,2.41,0,0,0-.59-1L60,728.44c-0.7-.86-1.45-1.95-1.07-3" transform="translate(104.59 -705.11)"/></g></g><g id="_Group_43" data-name="&lt;Group&gt;"><g id="_Group_44" data-name="&lt;Group&gt;"><path class="cls-1" d="M153.09,740.47c2,1.53,3.72,3.58,4,6s-0.86,4.75-2,6.91L151.73,760a27.89,27.89,0,0,1-2,3.45,14,14,0,0,1-6.88,5.09,5.94,5.94,0,0,1,1.49-3.51c0.44-.49.95-0.9,1.41-1.35a18.85,18.85,0,0,0,2.09-2.61l5.23-7.39c0.8-1.14,1.65-2.52,1.17-3.83s-2.5-2.14-2.68-3.67c-0.11-.9.39-2-0.33-2.58a9.35,9.35,0,0,1-1.06-.52,1.1,1.1,0,0,1-.27-0.85,2.18,2.18,0,0,1,3.73-1.43" transform="translate(104.59 -705.11)"/></g><g id="_Group_45" data-name="&lt;Group&gt;"><path class="cls-2" d="M151.18,744.92c-0.74.83-.94,0.14-2-0.31s-1.85-1.23-2.84-1.73a2,2,0,0,0-1.47-.26,2.33,2.33,0,0,0-1.19,1.15c-1.4,2.3-2.34,4.85-3.74,7.15-2.15,3.53-5.33,6.4-7.06,10.14-0.83,1.8-1.25,4-.14,5.67,1,1.46,2.88,2,4.62,2.26a10.2,10.2,0,0,0,5.13-.14,2.19,2.19,0,0,0,.85-0.5,2.91,2.91,0,0,0,.51-0.89c2.5-5.76,7.82-9.94,10.32-15.7a4.45,4.45,0,0,0,.44-3c-0.43-1.45-2.1-2.32-2.38-3.81a0.8,0.8,0,0,0-.15-0.43c-0.27-.28-0.73.06-1,0.38" transform="translate(104.59 -705.11)"/></g><g id="_Group_46" data-name="&lt;Group&gt;"><path class="cls-2" d="M145.22,735.3a1.84,1.84,0,0,0-.46-1.81,3.14,3.14,0,0,0-1.72-.86,6.52,6.52,0,0,0-3.67.5,17.68,17.68,0,0,0-3.24,1.9,13.75,13.75,0,0,0-1.74,1.36,15.55,15.55,0,0,0-1.79,2.23c-0.66.93-1.34,1.85-2.07,2.73a42.72,42.72,0,0,0-3.59,4.48,12.74,12.74,0,0,0-1.66,4.21,4.43,4.43,0,0,0,.27,1.78,0.46,0.46,0,0,0,.42-0.08c0.89-.53,1.38-2.63,2-3.49l5.77-8.48a6,6,0,0,1,2.56-2.48,4.67,4.67,0,0,1,2-.2,11,11,0,0,1,2.87.62,8,8,0,0,0,1.87.57,1.84,1.84,0,0,0,1.73-.67" transform="translate(104.59 -705.11)"/></g><g id="_Group_47" data-name="&lt;Group&gt;"><path class="cls-1" d="M143.36,738.25l1.18,2.27a4.24,4.24,0,0,1,.68,2.4,4.65,4.65,0,0,1-1.11,2.08c-2.08,2.77-3.52,6-5.63,8.73-0.9,1.17-1.91,2.26-2.76,3.46a41.36,41.36,0,0,0-2.68,4.69,4,4,0,0,1-2.13,2.25,2.68,2.68,0,0,1-2.17-.43,6.74,6.74,0,0,1-1.59-1.63,10.81,10.81,0,0,1-2-3.83,12.09,12.09,0,0,1,.09-4.83,11.59,11.59,0,0,1,1.3-4.19c1-1.6,2.6-2.69,3.68-4.21,0.62-.87,1-1.87,1.7-2.72,0.49-.64.77-1.75,1.3-2.36,0.8-.92,1.74-1.43,2.48-2.4a1.51,1.51,0,0,1,.49-0.46,1.47,1.47,0,0,1,.73-0.1,15.71,15.71,0,0,1,4.25.46c0.75,0.25,1.45.58,2.21,0.82" transform="translate(104.59 -705.11)"/></g><g id="_Group_48" data-name="&lt;Group&gt;"><path class="cls-1" d="M144.79,738.27l3.06,1.71a2.43,2.43,0,0,0,.58.26,2,2,0,0,0,.59,0,1.92,1.92,0,0,0,1.4-.55,1.66,1.66,0,0,0,.27-1.36c-0.26-1.43-1.56-2.41-2.82-3.13a3.51,3.51,0,0,0-1.76-.59,1.34,1.34,0,0,0-1.35,1.06,3.11,3.11,0,0,1,0,1c-0.15.33-.55,0.47-0.71,0.8a0.62,0.62,0,0,0,.79.85" transform="translate(104.59 -705.11)"/></g><g id="_Group_49" data-name="&lt;Group&gt;"><path class="cls-3" d="M147.9,739.8a20.69,20.69,0,0,0-2.49-1.64c-0.63-.35-1.58-0.59-1.94,0a1.46,1.46,0,0,0,.21,1.35l1.47,2.81a2.06,2.06,0,0,0,1.2,1.16l3.3,1.65a3.2,3.2,0,0,0,2,.49,1.11,1.11,0,0,0,.79-1.61,6.12,6.12,0,0,0-1-.63,1.44,1.44,0,0,1,.13-2.07,3.34,3.34,0,0,1,2.19-.69,3,3,0,0,1,2,.5,2.65,2.65,0,0,1,.78,2c0,0.72-.07,1.45,0,2.16a0.93,0.93,0,0,0,.76.95,1,1,0,0,0,.56-0.29,19.19,19.19,0,0,0,2.11-2.11,1.24,1.24,0,0,0,.37-0.7,1.22,1.22,0,0,0-.2-0.63,14,14,0,0,0-3.71-4.33,2.33,2.33,0,0,0-1.32-.6A2.53,2.53,0,0,0,154,738l-2.78,1.47c-1,.55-2.31,1.09-3.31.49" transform="translate(104.59 -705.11)"/></g></g><g id="_Group_50" data-name="&lt;Group&gt;"><g id="_Group_51" data-name="&lt;Group&gt;"><path class="cls-1" d="M92.09,742.68c2.11,1.65,4,3.86,4.33,6.52s-0.93,5.12-2.14,7.45l-3.66,7.05a30.08,30.08,0,0,1-2.16,3.72A15.15,15.15,0,0,1,81,772.91a6.41,6.41,0,0,1,1.61-3.79c0.47-.52,1-1,1.52-1.46a20.33,20.33,0,0,0,2.25-2.81l5.64-8c0.87-1.22,1.77-2.72,1.26-4.13-0.57-1.56-2.69-2.3-2.89-4-0.11-1,.42-2.2-0.36-2.78a10.08,10.08,0,0,1-1.14-.56,1.19,1.19,0,0,1-.29-0.92,2.35,2.35,0,0,1,4-1.54" transform="translate(104.59 -705.11)"/></g><g id="_Group_52" data-name="&lt;Group&gt;"><path class="cls-2" d="M90,747.48c-0.8.89-1,.16-2.11-0.34s-2-1.33-3.06-1.87a2.2,2.2,0,0,0-1.58-.28A2.51,2.51,0,0,0,82,746.23c-1.51,2.48-2.52,5.23-4,7.71-2.31,3.8-5.75,6.9-7.62,10.94-0.89,1.94-1.35,4.35-.15,6.11,1.07,1.57,3.11,2.13,5,2.44a11,11,0,0,0,5.54-.15,2.37,2.37,0,0,0,.92-0.54,3.14,3.14,0,0,0,.55-1c2.7-6.21,8.44-10.71,11.13-16.93a4.79,4.79,0,0,0,.48-3.21c-0.47-1.56-2.27-2.5-2.57-4.11a0.87,0.87,0,0,0-.16-0.46c-0.29-.31-0.78.07-1,0.41" transform="translate(104.59 -705.11)"/></g><g id="_Group_53" data-name="&lt;Group&gt;"><path class="cls-2" d="M83.6,737.1a2,2,0,0,0-.49-1.95,3.39,3.39,0,0,0-1.86-.93,7,7,0,0,0-4,.53,19.06,19.06,0,0,0-3.49,2,14.83,14.83,0,0,0-1.87,1.46,16.77,16.77,0,0,0-1.93,2.4c-0.72,1-1.45,2-2.23,2.95a46.08,46.08,0,0,0-3.87,4.84A13.74,13.74,0,0,0,62.1,753a4.78,4.78,0,0,0,.29,1.92,0.5,0.5,0,0,0,.45-0.09c1-.57,1.49-2.83,2.12-3.76l6.22-9.15a6.43,6.43,0,0,1,2.76-2.67A5,5,0,0,1,76.1,739a11.86,11.86,0,0,1,3.1.67,8.65,8.65,0,0,0,2,.61,2,2,0,0,0,1.87-.73" transform="translate(104.59 -705.11)"/></g><g id="_Group_54" data-name="&lt;Group&gt;"><path class="cls-1" d="M81.59,740.29l1.27,2.45a4.57,4.57,0,0,1,.74,2.59,5,5,0,0,1-1.2,2.25c-2.24,3-3.8,6.45-6.07,9.42-1,1.27-2.06,2.44-3,3.73a44.6,44.6,0,0,0-2.89,5.06,4.34,4.34,0,0,1-2.3,2.42,2.89,2.89,0,0,1-2.34-.47A7.27,7.27,0,0,1,64.11,766a11.66,11.66,0,0,1-2.18-4.13,13,13,0,0,1,.09-5.2,12.49,12.49,0,0,1,1.41-4.52c1-1.72,2.81-2.9,4-4.54,0.67-.94,1.13-2,1.83-2.94,0.53-.69.83-1.88,1.4-2.54,0.86-1,1.87-1.55,2.68-2.59a1.63,1.63,0,0,1,.53-0.5,1.58,1.58,0,0,1,.79-0.11,16.94,16.94,0,0,1,4.59.5c0.81,0.27,1.57.62,2.38,0.89" transform="translate(104.59 -705.11)"/></g><g id="_Group_55" data-name="&lt;Group&gt;"><path class="cls-1" d="M83.13,740.31l3.3,1.85a2.62,2.62,0,0,0,.62.28,2.13,2.13,0,0,0,.64,0,2.07,2.07,0,0,0,1.51-.59,1.79,1.79,0,0,0,.29-1.47c-0.28-1.54-1.68-2.6-3-3.37a3.79,3.79,0,0,0-1.9-.63,1.45,1.45,0,0,0-1.45,1.15,3.36,3.36,0,0,1,0,1c-0.16.35-.6,0.51-0.76,0.86a0.67,0.67,0,0,0,.85.91" transform="translate(104.59 -705.11)"/></g><g id="_Group_56" data-name="&lt;Group&gt;"><path class="cls-3" d="M86.49,742a22.32,22.32,0,0,0-2.69-1.76c-0.68-.38-1.7-0.63-2.09,0a1.58,1.58,0,0,0,.22,1.45l1.59,3A2.22,2.22,0,0,0,84.82,746l3.56,1.77a3.45,3.45,0,0,0,2.2.53,1.2,1.2,0,0,0,.85-1.73,6.6,6.6,0,0,0-1-.67,1.55,1.55,0,0,1,.14-2.23,3.6,3.6,0,0,1,2.36-.75,3.18,3.18,0,0,1,2.18.54,2.86,2.86,0,0,1,.84,2.11c0,0.78-.08,1.56,0,2.33a1,1,0,0,0,.82,1,1.08,1.08,0,0,0,.6-0.32,20.69,20.69,0,0,0,2.28-2.28,1.34,1.34,0,0,0,.39-0.75,1.32,1.32,0,0,0-.22-0.68,15,15,0,0,0-4-4.67,2.51,2.51,0,0,0-1.42-.64,2.73,2.73,0,0,0-1.28.42l-3,1.59c-1.12.59-2.49,1.18-3.57,0.53" transform="translate(104.59 -705.11)"/></g></g><g id="_Group_57" data-name="&lt;Group&gt;"><g id="_Group_58" data-name="&lt;Group&gt;"><path class="cls-1" d="M59.79,742.39a8.28,8.28,0,0,1,3.46,5.2c0.25,2.08-.74,4.08-1.71,5.94l-2.92,5.62a24,24,0,0,1-1.73,3A12.08,12.08,0,0,1,51,766.49a5.11,5.11,0,0,1,1.28-3c0.37-.42.82-0.77,1.22-1.16a16.21,16.21,0,0,0,1.79-2.24l4.49-6.35c0.69-1,1.41-2.17,1-3.29s-2.15-1.84-2.3-3.15c-0.09-.77.34-1.75-0.29-2.22a8,8,0,0,1-.91-0.44,1,1,0,0,1-.23-0.73,1.88,1.88,0,0,1,3.21-1.23" transform="translate(104.59 -705.11)"/></g><g id="_Group_59" data-name="&lt;Group&gt;"><path class="cls-2" d="M58.16,746.21c-0.64.71-.81,0.12-1.68-0.27s-1.59-1.06-2.44-1.49a1.76,1.76,0,0,0-1.26-.22,2,2,0,0,0-1,1c-1.2,2-2,4.17-3.21,6.15-1.85,3-4.59,5.5-6.07,8.72-0.71,1.54-1.08,3.47-.12,4.87,0.85,1.25,2.48,1.7,4,1.94a8.77,8.77,0,0,0,4.42-.12,1.89,1.89,0,0,0,.73-0.43,2.51,2.51,0,0,0,.44-0.77c2.15-5,6.73-8.54,8.87-13.5a3.82,3.82,0,0,0,.38-2.56c-0.37-1.25-1.81-2-2-3.28a0.69,0.69,0,0,0-.13-0.37c-0.23-.24-0.62.05-0.82,0.33" transform="translate(104.59 -705.11)"/></g><g id="_Group_60" data-name="&lt;Group&gt;"><path class="cls-2" d="M53,737.93a1.58,1.58,0,0,0-.39-1.55,2.7,2.7,0,0,0-1.48-.74,5.61,5.61,0,0,0-3.16.43,15.2,15.2,0,0,0-2.78,1.63,11.82,11.82,0,0,0-1.49,1.17,13.37,13.37,0,0,0-1.54,1.92c-0.57.8-1.15,1.59-1.78,2.35A36.74,36.74,0,0,0,37.3,747a11,11,0,0,0-1.43,3.62,3.81,3.81,0,0,0,.23,1.53,0.4,0.4,0,0,0,.36-0.07c0.77-.45,1.19-2.26,1.69-3l5-7.3a5.13,5.13,0,0,1,2.2-2.13,4,4,0,0,1,1.73-.17,9.46,9.46,0,0,1,2.47.53,6.9,6.9,0,0,0,1.6.49,1.58,1.58,0,0,0,1.49-.58" transform="translate(104.59 -705.11)"/></g><g id="_Group_61" data-name="&lt;Group&gt;"><path class="cls-1" d="M51.42,740.48l1,2a3.64,3.64,0,0,1,.59,2.06,4,4,0,0,1-1,1.79c-1.79,2.38-3,5.14-4.84,7.51-0.77,1-1.64,1.94-2.37,3a35.57,35.57,0,0,0-2.31,4,3.46,3.46,0,0,1-1.83,1.93,2.31,2.31,0,0,1-1.87-.37,5.8,5.8,0,0,1-1.36-1.4,9.3,9.3,0,0,1-1.74-3.29,10.4,10.4,0,0,1,.07-4.15,10,10,0,0,1,1.12-3.6c0.84-1.37,2.24-2.31,3.17-3.62,0.53-.75.9-1.61,1.46-2.34,0.42-.55.66-1.5,1.12-2,0.69-.8,1.49-1.23,2.13-2.07a1.3,1.3,0,0,1,.42-0.4,1.26,1.26,0,0,1,.63-0.09,13.51,13.51,0,0,1,3.66.39c0.65,0.21,1.25.5,1.9,0.71" transform="translate(104.59 -705.11)"/></g><g id="_Group_62" data-name="&lt;Group&gt;"><path class="cls-1" d="M52.65,740.49L55.29,742a2.09,2.09,0,0,0,.5.22,1.7,1.7,0,0,0,.51,0,1.65,1.65,0,0,0,1.21-.47,1.42,1.42,0,0,0,.23-1.17,4.37,4.37,0,0,0-2.43-2.69,3,3,0,0,0-1.51-.5,1.16,1.16,0,0,0-1.16.92,2.68,2.68,0,0,1,0,.83c-0.12.28-.48,0.41-0.61,0.69a0.53,0.53,0,0,0,.68.73" transform="translate(104.59 -705.11)"/></g><g id="_Group_63" data-name="&lt;Group&gt;"><path class="cls-3" d="M55.33,741.81a17.8,17.8,0,0,0-2.14-1.41c-0.54-.3-1.36-0.51-1.66,0a1.26,1.26,0,0,0,.18,1.16L53,744a1.77,1.77,0,0,0,1,1l2.84,1.41a2.75,2.75,0,0,0,1.76.42,1,1,0,0,0,.68-1.38,5.26,5.26,0,0,0-.83-0.54,1.24,1.24,0,0,1,.11-1.78,2.87,2.87,0,0,1,1.89-.6,2.53,2.53,0,0,1,1.74.43,2.28,2.28,0,0,1,.67,1.68c0,0.62-.06,1.24,0,1.86a0.8,0.8,0,0,0,.66.81,0.86,0.86,0,0,0,.48-0.25,16.5,16.5,0,0,0,1.82-1.82,1.06,1.06,0,0,0,.31-0.6,1,1,0,0,0-.17-0.54,12,12,0,0,0-3.19-3.72,2,2,0,0,0-1.13-.51,2.18,2.18,0,0,0-1,.34l-2.39,1.26c-0.89.47-2,.94-2.85,0.42" transform="translate(104.59 -705.11)"/></g></g><g id="_Group_64" data-name="&lt;Group&gt;"><g id="_Group_65" data-name="&lt;Group&gt;"><path class="cls-1" d="M171.35,734.07a8.28,8.28,0,0,1-4.21,4.61c-2,.75-4.14.26-6.18-0.22L154.8,737a24,24,0,0,1-3.3-1,12.08,12.08,0,0,1-5.67-4.69,5.11,5.11,0,0,1,3.24.52c0.5,0.26.94,0.61,1.42,0.9a16.21,16.21,0,0,0,2.61,1.2l7.25,2.83c1.11,0.44,2.44.85,3.44,0.18s1.27-2.53,2.51-3c0.73-.27,1.78-0.09,2.08-0.81a8,8,0,0,1,.21-1,1,1,0,0,1,.66-0.4,1.88,1.88,0,0,1,2,2.82" transform="translate(104.59 -705.11)"/></g><g id="_Group_66" data-name="&lt;Group&gt;"><path class="cls-2" d="M167.24,733.41c-0.84-.45-0.32-0.76-0.14-1.7s0.64-1.8.86-2.73a1.76,1.76,0,0,0-.09-1.28,2,2,0,0,0-1.2-.76c-2.21-.69-4.53-0.95-6.74-1.64-3.39-1.06-6.44-3.13-9.93-3.79-1.67-.32-3.62-0.21-4.76,1.06s-1,2.81-.93,4.32a8.77,8.77,0,0,0,1.18,4.26,1.89,1.89,0,0,0,.59.61,2.51,2.51,0,0,0,.85.24c5.33,0.9,9.91,4.47,15.24,5.36a3.82,3.82,0,0,0,2.58-.25c1.12-.66,1.5-2.24,2.69-2.78a0.69,0.69,0,0,0,.33-0.22c0.18-.29-0.2-0.59-0.52-0.72" transform="translate(104.59 -705.11)"/></g><g id="_Group_67" data-name="&lt;Group&gt;"><path class="cls-2" d="M174,726.43a1.58,1.58,0,0,0,1.41-.76,2.7,2.7,0,0,0,.36-1.62,5.61,5.61,0,0,0-1.17-3,15.2,15.2,0,0,0-2.26-2.31,11.82,11.82,0,0,0-1.49-1.17,13.37,13.37,0,0,0-2.23-1c-0.91-.36-1.82-0.74-2.71-1.16a36.74,36.74,0,0,0-4.49-2.07,11,11,0,0,0-3.86-.51,3.81,3.81,0,0,0-1.43.59,0.4,0.4,0,0,0,.15.33c0.62,0.64,2.48.61,3.32,0.92l8.28,3.06a5.13,5.13,0,0,1,2.6,1.62,4,4,0,0,1,.58,1.64,9.46,9.46,0,0,1,.08,2.52,6.9,6.9,0,0,0-.09,1.67,1.58,1.58,0,0,0,.92,1.31" transform="translate(104.59 -705.11)"/></g><g id="_Group_68" data-name="&lt;Group&gt;"><path class="cls-1" d="M171.18,725.49l-1.65,1.45a3.64,3.64,0,0,1-1.86,1.07,4,4,0,0,1-2-.49c-2.74-1.16-5.72-1.7-8.45-2.89-1.17-.5-2.28-1.12-3.46-1.59a35.57,35.57,0,0,0-4.47-1.27,3.46,3.46,0,0,1-2.32-1.31,2.31,2.31,0,0,1-.09-1.9,5.8,5.8,0,0,1,1-1.66,9.3,9.3,0,0,1,2.78-2.48,10.4,10.4,0,0,1,4-.93,10,10,0,0,1,3.77.22c1.53,0.48,2.78,1.61,4.28,2.2,0.86,0.33,1.78.48,2.62,0.85,0.64,0.28,1.62.28,2.24,0.6,0.94,0.48,1.56,1.15,2.52,1.57a1.3,1.3,0,0,1,.49.31,1.26,1.26,0,0,1,.24.59,13.51,13.51,0,0,1,.5,3.65c0,0.68-.18,1.33-0.23,2" transform="translate(104.59 -705.11)"/></g><g id="_Group_69" data-name="&lt;Group&gt;"><path class="cls-1" d="M171.46,726.69l-0.79,2.91a2.09,2.09,0,0,0-.1.54,1.7,1.7,0,0,0,.09.5,1.65,1.65,0,0,0,.75,1.06,1.42,1.42,0,0,0,1.19-.06,4.37,4.37,0,0,0,2-3,3,3,0,0,0,.13-1.59,1.16,1.16,0,0,0-1.17-.9,2.68,2.68,0,0,1-.81.17c-0.3-.05-0.51-0.36-0.81-0.43a0.53,0.53,0,0,0-.54.83" transform="translate(104.59 -705.11)"/></g><g id="_Group_70" data-name="&lt;Group&gt;"><path class="cls-3" d="M170.83,729.6a17.8,17.8,0,0,0,.85-2.42c0.16-.6.16-1.44-0.43-1.61a1.26,1.26,0,0,0-1.08.45l-2,1.81a1.77,1.77,0,0,0-.72,1.24l-0.69,3.09a2.75,2.75,0,0,0,0,1.81,1,1,0,0,0,1.51.32,5.26,5.26,0,0,0,.32-0.93,1.24,1.24,0,0,1,1.75-.32,2.87,2.87,0,0,1,1,1.69,2.53,2.53,0,0,1,0,1.79,2.28,2.28,0,0,1-1.47,1.05c-0.6.17-1.22,0.24-1.8,0.47a0.8,0.8,0,0,0-.63.83,0.86,0.86,0,0,0,.36.4,16.5,16.5,0,0,0,2.2,1.33,1.06,1.06,0,0,0,.66.16,1,1,0,0,0,.48-0.3,12,12,0,0,0,2.85-4,2,2,0,0,0,.23-1.23,2.18,2.18,0,0,0-.57-0.91l-1.8-2c-0.67-.75-1.39-1.7-1.09-2.66" transform="translate(104.59 -705.11)"/></g></g><g id="_Group_71" data-name="&lt;Group&gt;"><g id="_Group_72" data-name="&lt;Group&gt;"><path class="cls-1" d="M113.21,746.17a8.28,8.28,0,0,1,5.36,3.19c1.13,1.76,1.1,4,1,6.09l-0.2,6.33a24,24,0,0,1-.27,3.42,12.08,12.08,0,0,1-3.44,6.5,5.11,5.11,0,0,1-.15-3.28c0.16-.54.4-1,0.59-1.58a16.21,16.21,0,0,0,.65-2.8l1.3-7.67c0.2-1.18.34-2.57-.52-3.4s-2.73-.73-3.44-1.85c-0.42-.66-0.45-1.73-1.22-1.88a8,8,0,0,1-1,0,1,1,0,0,1-.53-0.56,1.88,1.88,0,0,1,2.36-2.5" transform="translate(104.59 -705.11)"/></g><g id="_Group_73" data-name="&lt;Group&gt;"><path class="cls-2" d="M113.39,750.33c-0.27.92-.68,0.46-1.63,0.48s-1.89-.27-2.85-0.29a1.76,1.76,0,0,0-1.23.34,2,2,0,0,0-.5,1.33c-0.23,2.3,0,4.63-.24,6.93-0.35,3.53-1.76,6.94-1.7,10.49,0,1.7.53,3.59,2,4.45,1.31,0.76,3,.46,4.42,0a8.77,8.77,0,0,0,3.93-2,1.89,1.89,0,0,0,.48-0.7,2.51,2.51,0,0,0,.06-0.88c-0.2-5.4,2.37-10.61,2.16-16a3.82,3.82,0,0,0-.76-2.47c-0.88-1-2.5-1-3.26-2.07a0.69,0.69,0,0,0-.28-0.28c-0.32-.12-0.54.32-0.6,0.65" transform="translate(104.59 -705.11)"/></g><g id="_Group_74" data-name="&lt;Group&gt;"><path class="cls-2" d="M105.18,745.09a1.58,1.58,0,0,0-1-1.23,2.7,2.7,0,0,0-1.66,0,5.61,5.61,0,0,0-2.67,1.75,15.2,15.2,0,0,0-1.8,2.68,11.82,11.82,0,0,0-.84,1.7,13.37,13.37,0,0,0-.56,2.39c-0.17,1-.35,1.93-0.59,2.89a36.74,36.74,0,0,0-1.11,4.81,11,11,0,0,0,.28,3.88,3.81,3.81,0,0,0,.87,1.28,0.4,0.4,0,0,0,.29-0.22c0.5-.74.09-2.55,0.23-3.43l1.32-8.72A5.13,5.13,0,0,1,99,750a4,4,0,0,1,1.49-.9,9.46,9.46,0,0,1,2.46-.59,6.9,6.9,0,0,0,1.66-.26,1.58,1.58,0,0,0,1.09-1.17" transform="translate(104.59 -705.11)"/></g><g id="_Group_75" data-name="&lt;Group&gt;"><path class="cls-1" d="M104.84,748.07l1.76,1.32A3.64,3.64,0,0,1,108,751a4,4,0,0,1-.08,2c-0.58,2.92-.51,5.95-1.12,8.86-0.26,1.24-.64,2.46-0.85,3.71a35.57,35.57,0,0,0-.34,4.64,3.46,3.46,0,0,1-.82,2.53,2.31,2.31,0,0,1-1.85.47,5.8,5.8,0,0,1-1.84-.68,9.3,9.3,0,0,1-3-2.22,10.4,10.4,0,0,1-1.73-3.77,10,10,0,0,1-.55-3.73c0.16-1.6,1-3.05,1.29-4.64,0.15-.91.11-1.84,0.3-2.74,0.14-.68-0.05-1.64.13-2.31,0.28-1,.81-1.76,1-2.79a1.3,1.3,0,0,1,.21-0.54,1.26,1.26,0,0,1,.53-0.35,13.51,13.51,0,0,1,3.47-1.23c0.68-.09,1.34-0.09,2-0.18" transform="translate(104.59 -705.11)"/></g><g id="_Group_76" data-name="&lt;Group&gt;"><path class="cls-1" d="M106,747.56l3,0.19a2.09,2.09,0,0,0,.54,0,1.7,1.7,0,0,0,.47-0.19,1.65,1.65,0,0,0,.88-0.95,1.42,1.42,0,0,0-.3-1.15,4.37,4.37,0,0,0-3.35-1.38,3,3,0,0,0-1.58.2,1.16,1.16,0,0,0-.65,1.33,2.68,2.68,0,0,1,.33.76c0,0.31-.25.57-0.25,0.88a0.53,0.53,0,0,0,.93.36" transform="translate(104.59 -705.11)"/></g><g id="_Group_77" data-name="&lt;Group&gt;"><path class="cls-3" d="M108.94,747.58a17.8,17.8,0,0,0-2.54-.34c-0.62,0-1.44.13-1.49,0.75a1.26,1.26,0,0,0,.66,1l2.19,1.63a1.77,1.77,0,0,0,1.36.45l3.17,0a2.75,2.75,0,0,0,1.77-.38,1,1,0,0,0,0-1.54,5.26,5.26,0,0,0-1-.13,1.24,1.24,0,0,1-.67-1.65,2.87,2.87,0,0,1,1.44-1.35,2.53,2.53,0,0,1,1.75-.36,2.28,2.28,0,0,1,1.33,1.22c0.29,0.55.48,1.15,0.82,1.67a0.8,0.8,0,0,0,.94.45,0.86,0.86,0,0,0,.32-0.43,16.5,16.5,0,0,0,.85-2.42,1.06,1.06,0,0,0,0-.68,1,1,0,0,0-.39-0.41,12,12,0,0,0-4.49-2,2,2,0,0,0-1.25,0,2.18,2.18,0,0,0-.77.74L111.4,746c-0.6.81-1.38,1.71-2.39,1.61" transform="translate(104.59 -705.11)"/></g></g><g id="_Group_78" data-name="&lt;Group&gt;"><g id="_Group_79" data-name="&lt;Group&gt;"><path class="cls-1" d="M101.55,785.42a8.28,8.28,0,0,1-1.23,6.12c-1.29,1.65-3.41,2.36-5.41,3l-6,1.91a24,24,0,0,1-3.32.88,12.08,12.08,0,0,1-7.28-1.09,5.11,5.11,0,0,1,3-1.23c0.56,0,1.12,0,1.68,0a16.21,16.21,0,0,0,2.85-.32l7.67-1.32c1.18-.2,2.53-0.53,3-1.62s-0.22-2.82.6-3.86c0.48-.61,1.48-1,1.37-1.77a8,8,0,0,1-.33-1,1,1,0,0,1,.35-0.68,1.88,1.88,0,0,1,3.14,1.4" transform="translate(104.59 -705.11)"/></g><g id="_Group_80" data-name="&lt;Group&gt;"><path class="cls-2" d="M97.68,787c-1,.05-0.66-0.49-1-1.38s-0.38-1.87-.67-2.78a1.76,1.76,0,0,0-.73-1,2,2,0,0,0-1.42,0c-2.25.55-4.37,1.53-6.62,2.08-3.45.84-7.13,0.64-10.46,1.87-1.6.59-3.21,1.69-3.53,3.36-0.28,1.49.55,3,1.43,4.18a8.77,8.77,0,0,0,3.21,3,1.89,1.89,0,0,0,.82.22,2.51,2.51,0,0,0,.85-0.23c5-2,10.8-1.28,15.82-3.27a3.82,3.82,0,0,0,2.08-1.54c0.62-1.15.13-2.69,0.87-3.76a0.69,0.69,0,0,0,.17-0.35c0-.34-0.48-0.4-0.81-0.35" transform="translate(104.59 -705.11)"/></g><g id="_Group_81" data-name="&lt;Group&gt;"><path class="cls-2" d="M99.91,777.48a1.58,1.58,0,0,0,.82-1.38,2.7,2.7,0,0,0-.53-1.57,5.61,5.61,0,0,0-2.54-1.93,15.2,15.2,0,0,0-3.12-.81,11.82,11.82,0,0,0-1.88-.23,13.37,13.37,0,0,0-2.44.27c-1,.16-1.94.31-2.92,0.4a36.74,36.74,0,0,0-4.91.55,11,11,0,0,0-3.57,1.55,3.81,3.81,0,0,0-.92,1.25,0.4,0.4,0,0,0,.3.21c0.86,0.22,2.44-.76,3.32-0.92l8.67-1.65a5.13,5.13,0,0,1,3.06,0,4,4,0,0,1,1.35,1.1A9.46,9.46,0,0,1,96,776.47a6.9,6.9,0,0,0,.79,1.48,1.58,1.58,0,0,0,1.46.64" transform="translate(104.59 -705.11)"/></g><g id="_Group_82" data-name="&lt;Group&gt;"><path class="cls-1" d="M97,778.15l-0.66,2.1a3.64,3.64,0,0,1-1,1.87,4,4,0,0,1-1.94.59c-2.95.42-5.78,1.49-8.73,1.89-1.26.17-2.53,0.21-3.78,0.43a35.57,35.57,0,0,0-4.49,1.22,3.46,3.46,0,0,1-2.66.07,2.31,2.31,0,0,1-1.06-1.59,5.8,5.8,0,0,1,0-2,9.3,9.3,0,0,1,1.1-3.56,10.4,10.4,0,0,1,3-2.88,10,10,0,0,1,3.34-1.76c1.56-.38,3.22-0.05,4.8-0.32,0.91-.16,1.77-0.5,2.69-0.62,0.69-.09,1.53-0.59,2.22-0.64,1-.08,1.93.18,3,0a1.3,1.3,0,0,1,.58,0,1.26,1.26,0,0,1,.51.38,13.51,13.51,0,0,1,2.31,2.87c0.31,0.61.53,1.23,0.84,1.84" transform="translate(104.59 -705.11)"/></g><g id="_Group_83" data-name="&lt;Group&gt;"><path class="cls-1" d="M97.83,779l0.82,2.9a2.09,2.09,0,0,0,.19.51,1.7,1.7,0,0,0,.33.38,1.65,1.65,0,0,0,1.19.52,1.42,1.42,0,0,0,1-.66,4.37,4.37,0,0,0,.19-3.62,3,3,0,0,0-.71-1.43,1.16,1.16,0,0,0-1.47-.17,2.68,2.68,0,0,1-.61.56c-0.29.11-.62,0-0.92,0.05a0.53,0.53,0,0,0,0,1" transform="translate(104.59 -705.11)"/></g><g id="_Group_84" data-name="&lt;Group&gt;"><path class="cls-3" d="M98.8,781.86a17.8,17.8,0,0,0-.52-2.51c-0.17-.6-0.6-1.32-1.2-1.15a1.26,1.26,0,0,0-.69.95l-0.82,2.6a1.77,1.77,0,0,0,0,1.43l1,3a2.75,2.75,0,0,0,.94,1.54,1,1,0,0,0,1.46-.5,5.26,5.26,0,0,0-.2-1,1.24,1.24,0,0,1,1.34-1.18,2.87,2.87,0,0,1,1.75.91,2.53,2.53,0,0,1,.92,1.54,2.28,2.28,0,0,1-.71,1.66c-0.42.46-.92,0.84-1.3,1.33a0.8,0.8,0,0,0-.11,1,0.86,0.86,0,0,0,.52.16,16.5,16.5,0,0,0,2.57,0,1.06,1.06,0,0,0,.65-0.2,1,1,0,0,0,.26-0.51,12,12,0,0,0,.38-4.89,2,2,0,0,0-.44-1.17,2.18,2.18,0,0,0-1-.48l-2.59-.8c-1-.3-2.07-0.74-2.31-1.72" transform="translate(104.59 -705.11)"/></g></g><g id="_Group_85" data-name="&lt;Group&gt;"><g id="_Group_86" data-name="&lt;Group&gt;"><path class="cls-1" d="M19.94,713.54c2.87,0.86,5.76,2.37,7.19,5s1.14,5.71.84,8.63L27.06,736a33.67,33.67,0,0,1-.72,4.77,17,17,0,0,1-5.47,8.76,7.18,7.18,0,0,1,.11-4.61c0.27-.74.67-1.43,1-2.15a22.76,22.76,0,0,0,1.18-3.85l2.59-10.61c0.4-1.63.73-3.56-.39-4.81s-3.75-1.29-4.63-2.93c-0.52-1-.46-2.46-1.52-2.75a11.28,11.28,0,0,1-1.42-.11,1.33,1.33,0,0,1-.68-0.84,2.63,2.63,0,0,1,3.56-3.26" transform="translate(104.59 -705.11)"/></g><g id="_Group_87" data-name="&lt;Group&gt;"><path class="cls-2" d="M19.78,719.38c-0.47,1.26-1,.58-2.33.52s-2.62-.56-4-0.69a2.47,2.47,0,0,0-1.76.36,2.81,2.81,0,0,0-.83,1.82c-0.55,3.2-.47,6.48-1,9.68C9,736,6.73,740.61,6.45,745.59c-0.13,2.38.38,5.08,2.36,6.42,1.76,1.2,4.11.94,6.19,0.49a12.31,12.31,0,0,0,5.7-2.44,2.65,2.65,0,0,0,.74-0.94,3.52,3.52,0,0,0,.18-1.23c0.25-7.58,4.37-14.62,4.62-22.2a5.37,5.37,0,0,0-.82-3.54c-1.13-1.44-3.39-1.67-4.36-3.22a1,1,0,0,0-.36-0.41c-0.43-.2-0.79.39-0.9,0.85" transform="translate(104.59 -705.11)"/></g><g id="_Group_88" data-name="&lt;Group&gt;"><path class="cls-2" d="M8.81,711.22a2.22,2.22,0,0,0-1.31-1.83,3.79,3.79,0,0,0-2.32-.2,7.87,7.87,0,0,0-3.91,2.19,21.34,21.34,0,0,0-2.79,3.57,16.6,16.6,0,0,0-1.35,2.3,18.77,18.77,0,0,0-1,3.3c-0.33,1.34-.68,2.67-1.11,4a51.57,51.57,0,0,0-2,6.63,15.38,15.38,0,0,0,0,5.47,5.35,5.35,0,0,0,1.09,1.88,0.56,0.56,0,0,0,.43-0.27c0.77-1,.39-3.56.66-4.79l2.71-12.08a7.2,7.2,0,0,1,1.77-3.92,5.64,5.64,0,0,1,2.17-1.12,13.28,13.28,0,0,1,3.5-.58,9.69,9.69,0,0,0,2.35-.19A2.22,2.22,0,0,0,9.29,714" transform="translate(104.59 -705.11)"/></g><g id="_Group_89" data-name="&lt;Group&gt;"><path class="cls-1" d="M8,715.36l2.33,2a5.11,5.11,0,0,1,1.83,2.39,5.61,5.61,0,0,1-.32,2.83c-1.11,4-1.3,8.27-2.44,12.3-0.48,1.72-1.14,3.38-1.56,5.11a49.93,49.93,0,0,0-.93,6.46c-0.14,1.27-.38,2.69-1.4,3.47a3.24,3.24,0,0,1-2.63.48A8.13,8.13,0,0,1,.41,749.3a13.05,13.05,0,0,1-4-3.4,14.6,14.6,0,0,1-2-5.45,14,14,0,0,1-.4-5.28c0.38-2.22,1.73-4.17,2.26-6.36,0.31-1.25.34-2.57,0.7-3.81,0.27-.94.09-2.3,0.41-3.22,0.49-1.39,1.31-2.38,1.72-3.8a1.82,1.82,0,0,1,.34-0.74,1.77,1.77,0,0,1,.78-0.44,19,19,0,0,1,5-1.37c1-.06,1.89,0,2.84-0.06" transform="translate(104.59 -705.11)"/></g><g id="_Group_90" data-name="&lt;Group&gt;"><path class="cls-1" d="M9.65,714.75l4.2,0.56a2.93,2.93,0,0,0,.76,0,2.39,2.39,0,0,0,.68-0.22,2.31,2.31,0,0,0,1.33-1.24,2,2,0,0,0-.3-1.65c-0.93-1.49-2.82-2-4.56-2.26a4.24,4.24,0,0,0-2.24.12,1.62,1.62,0,0,0-1,1.79,3.76,3.76,0,0,1,.38,1.1c0,0.43-.41.78-0.44,1.21a0.75,0.75,0,0,0,1.26.6" transform="translate(104.59 -705.11)"/></g><g id="_Group_91" data-name="&lt;Group&gt;"><path class="cls-3" d="M13.82,715.09a25,25,0,0,0-3.53-.73c-0.86-.11-2,0-2.16.9A1.77,1.77,0,0,0,9,716.68l2.9,2.5a3.31,3.31,0,0,0,.77.55,3.31,3.31,0,0,0,1.09.22l4.43,0.38a3.86,3.86,0,0,0,2.51-.35c0.72-.48.93-1.74,0.17-2.16a7.39,7.39,0,0,0-1.36-.28,1.74,1.74,0,0,1-.78-2.38,4,4,0,0,1,2.15-1.75,3.56,3.56,0,0,1,2.49-.33,3.2,3.2,0,0,1,1.74,1.85c0.35,0.8.56,1.66,1,2.42a1.13,1.13,0,0,0,1.28.72,1.2,1.2,0,0,0,.49-0.58,23.16,23.16,0,0,0,1.43-3.31,1.49,1.49,0,0,0,.1-0.94,1.47,1.47,0,0,0-.51-0.62,16.84,16.84,0,0,0-6.09-3.22,2.81,2.81,0,0,0-1.75-.09,3.06,3.06,0,0,0-1.16,1l-2.47,2.89c-0.92,1.07-2.11,2.25-3.5,2" transform="translate(104.59 -705.11)"/></g></g><g id="_Group_92" data-name="&lt;Group&gt;"><g id="_Group_93" data-name="&lt;Group&gt;"><path class="cls-1" d="M-22.24,712.69c2.87,0.86,5.76,2.37,7.19,5s1.14,5.71.84,8.63l-0.91,8.84a33.67,33.67,0,0,1-.72,4.77,17,17,0,0,1-5.47,8.76,7.18,7.18,0,0,1,.11-4.61c0.27-.74.67-1.43,1-2.15A22.76,22.76,0,0,0-19,738.1l2.59-10.61c0.4-1.63.73-3.56-.39-4.81s-3.75-1.29-4.63-2.93c-0.52-1-.46-2.46-1.52-2.75a11.28,11.28,0,0,1-1.42-.11,1.33,1.33,0,0,1-.68-0.84,2.7,2.7,0,0,1,.71-2.79,2.7,2.7,0,0,1,2.85-.47" transform="translate(104.59 -705.11)"/></g><g id="_Group_94" data-name="&lt;Group&gt;"><path class="cls-2" d="M-22.4,718.53c-0.47,1.26-1,.58-2.33.52s-2.62-.56-4-0.69a2.47,2.47,0,0,0-1.76.36,2.81,2.81,0,0,0-.83,1.82c-0.55,3.2-.47,6.48-1,9.68-0.84,4.91-3.15,9.55-3.43,14.52-0.13,2.38.38,5.08,2.36,6.42,1.76,1.2,4.11.94,6.19,0.49a12.31,12.31,0,0,0,5.7-2.44,2.65,2.65,0,0,0,.74-0.94,3.52,3.52,0,0,0,.18-1.23c0.25-7.58,4.37-14.62,4.62-22.2a5.37,5.37,0,0,0-.82-3.54c-1.13-1.44-3.39-1.67-4.36-3.22a1,1,0,0,0-.36-0.41c-0.43-.2-0.79.39-0.9,0.85" transform="translate(104.59 -705.11)"/></g><g id="_Group_95" data-name="&lt;Group&gt;"><path class="cls-2" d="M-33.37,710.38a2.22,2.22,0,0,0-1.31-1.83,3.79,3.79,0,0,0-2.32-.2,7.87,7.87,0,0,0-3.91,2.19,21.34,21.34,0,0,0-2.79,3.57A16.6,16.6,0,0,0-45,716.4a18.77,18.77,0,0,0-1,3.3c-0.33,1.34-.68,2.67-1.11,4a51.57,51.57,0,0,0-2,6.63,15.38,15.38,0,0,0,0,5.47,5.35,5.35,0,0,0,1.09,1.88,0.56,0.56,0,0,0,.43-0.27c0.77-1,.39-3.56.66-4.79l2.71-12.08a7.2,7.2,0,0,1,1.77-3.92,5.64,5.64,0,0,1,2.17-1.12,13.28,13.28,0,0,1,3.5-.58,9.69,9.69,0,0,0,2.35-.19,2.22,2.22,0,0,0,1.65-1.53" transform="translate(104.59 -705.11)"/></g><g id="_Group_96" data-name="&lt;Group&gt;"><path class="cls-1" d="M-34.14,714.52l2.33,2A5.11,5.11,0,0,1-30,718.93a5.61,5.61,0,0,1-.32,2.83c-1.11,4-1.3,8.27-2.44,12.3-0.48,1.72-1.14,3.38-1.56,5.11a49.93,49.93,0,0,0-.93,6.46c-0.14,1.27-.38,2.69-1.4,3.47a3.24,3.24,0,0,1-2.63.48,8.13,8.13,0,0,1-2.51-1.13,13.05,13.05,0,0,1-4-3.4,14.6,14.6,0,0,1-2-5.45,14,14,0,0,1-.4-5.28c0.38-2.22,1.73-4.17,2.26-6.36,0.31-1.25.34-2.57,0.7-3.81,0.27-.94.09-2.3,0.41-3.22,0.49-1.39,1.31-2.38,1.72-3.8a1.82,1.82,0,0,1,.34-0.74,1.77,1.77,0,0,1,.78-0.44,19,19,0,0,1,5-1.37c1-.06,1.89,0,2.84-0.06" transform="translate(104.59 -705.11)"/></g><g id="_Group_97" data-name="&lt;Group&gt;"><path class="cls-1" d="M-32.53,713.91l4.2,0.56a2.93,2.93,0,0,0,.76,0,2.39,2.39,0,0,0,.68-0.22A2.31,2.31,0,0,0-25.56,713a2,2,0,0,0-.3-1.65c-0.93-1.49-2.82-2-4.56-2.26a4.24,4.24,0,0,0-2.24.12,1.62,1.62,0,0,0-1,1.79,3.76,3.76,0,0,1,.38,1.1c0,0.43-.41.78-0.44,1.21a0.77,0.77,0,0,0,.43.73,0.77,0.77,0,0,0,.84-0.13" transform="translate(104.59 -705.11)"/></g><g id="_Group_98" data-name="&lt;Group&gt;"><path class="cls-3" d="M-28.35,714.24a25,25,0,0,0-3.53-.73c-0.86-.11-2,0-2.16.9a1.77,1.77,0,0,0,.83,1.42l2.9,2.5a3.31,3.31,0,0,0,.77.55,3.31,3.31,0,0,0,1.09.22l4.43,0.38a3.86,3.86,0,0,0,2.51-.35c0.72-.48.93-1.74,0.17-2.16a7.39,7.39,0,0,0-1.36-.28,1.74,1.74,0,0,1-.78-2.38,4,4,0,0,1,2.15-1.75,3.56,3.56,0,0,1,2.49-.33,3.2,3.2,0,0,1,1.74,1.85c0.35,0.8.56,1.66,1,2.42a1.13,1.13,0,0,0,1.28.72,1.2,1.2,0,0,0,.49-0.58,23.16,23.16,0,0,0,1.43-3.31,1.49,1.49,0,0,0,.1-0.94,1.47,1.47,0,0,0-.51-0.62,16.84,16.84,0,0,0-6.09-3.22,2.81,2.81,0,0,0-1.75-.09,3.06,3.06,0,0,0-1.16,1l-2.47,2.89c-0.92,1.07-2.11,2.25-3.5,2" transform="translate(104.59 -705.11)"/></g></g><g id="_Group_99" data-name="&lt;Group&gt;"><g id="_Group_100" data-name="&lt;Group&gt;"><path class="cls-1" d="M99.45,714.54c1.2-2.75,3.06-5.43,5.85-6.52s5.81-.42,8.67.24l8.66,2a33.67,33.67,0,0,1,4.64,1.31,17,17,0,0,1,8,6.51,7.18,7.18,0,0,1-4.56-.68c-0.7-.36-1.33-0.84-2-1.24a22.76,22.76,0,0,0-3.68-1.65l-10.21-3.88c-1.57-.6-3.44-1.16-4.83-0.21s-1.75,3.56-3.48,4.23c-1,.39-2.5.15-2.91,1.17a11.28,11.28,0,0,1-.28,1.4,1.33,1.33,0,0,1-.91.57,2.63,2.63,0,0,1-2.8-3.93" transform="translate(104.59 -705.11)"/></g><g id="_Group_101" data-name="&lt;Group&gt;"><path class="cls-2" d="M105.22,715.42c1.19,0.62.45,1.06,0.22,2.38s-0.88,2.53-1.17,3.84a2.47,2.47,0,0,0,.14,1.79,2.81,2.81,0,0,0,1.7,1c3.11,0.94,6.38,1.27,9.48,2.21,4.77,1.45,9.08,4.31,14,5.2,2.35,0.43,5.09.25,6.67-1.54,1.41-1.6,1.44-4,1.25-6.08a12.31,12.31,0,0,0-1.71-6,2.65,2.65,0,0,0-.84-0.85,3.52,3.52,0,0,0-1.2-.33c-7.49-1.19-14-6.15-21.46-7.33a5.37,5.37,0,0,0-3.61.38c-1.56.94-2.08,3.16-3.74,3.93a1,1,0,0,0-.45.31c-0.25.41,0.29,0.83,0.74,1" transform="translate(104.59 -705.11)"/></g><g id="_Group_102" data-name="&lt;Group&gt;"><path class="cls-2" d="M95.77,725.3a2.22,2.22,0,0,0-2,1.08,3.79,3.79,0,0,0-.49,2.28A7.87,7.87,0,0,0,95,732.8a21.34,21.34,0,0,0,3.2,3.21,16.6,16.6,0,0,0,2.11,1.62,18.77,18.77,0,0,0,3.14,1.42c1.29,0.49,2.57,1,3.82,1.59a51.57,51.57,0,0,0,6.32,2.84,15.38,15.38,0,0,0,5.42.67,5.35,5.35,0,0,0,2-.85,0.56,0.56,0,0,0-.22-0.46c-0.88-.89-3.49-0.82-4.67-1.25l-11.65-4.19a7.2,7.2,0,0,1-3.67-2.24,5.64,5.64,0,0,1-.84-2.29,13.28,13.28,0,0,1-.14-3.54,9.69,9.69,0,0,0,.1-2.35,2.22,2.22,0,0,0-1.31-1.82" transform="translate(104.59 -705.11)"/></g><g id="_Group_103" data-name="&lt;Group&gt;"><path class="cls-1" d="M99.79,726.58l2.3-2.06a5.11,5.11,0,0,1,2.6-1.52,5.61,5.61,0,0,1,2.77.67c3.86,1.6,8,2.32,11.9,3.95,1.64,0.69,3.21,1.55,4.88,2.18a49.93,49.93,0,0,0,6.3,1.72c1.25,0.3,2.62.71,3.27,1.82a3.24,3.24,0,0,1,.15,2.67,8.13,8.13,0,0,1-1.43,2.35,13.05,13.05,0,0,1-3.87,3.52,14.6,14.6,0,0,1-5.67,1.35,14,14,0,0,1-5.29-.26c-2.16-.65-3.93-2.23-6-3-1.21-.46-2.5-0.66-3.69-1.16-0.9-.38-2.27-0.37-3.15-0.81-1.32-.66-2.2-1.6-3.56-2.18a1.82,1.82,0,0,1-.69-0.43,1.77,1.77,0,0,1-.34-0.82,19,19,0,0,1-.75-5.11c0.06-1,.24-1.87.3-2.83" transform="translate(104.59 -705.11)"/></g><g id="_Group_104" data-name="&lt;Group&gt;"><path class="cls-1" d="M99.38,724.9l1.08-4.1a2.93,2.93,0,0,0,.13-0.75,2.39,2.39,0,0,0-.13-0.7,2.31,2.31,0,0,0-1.07-1.47,2,2,0,0,0-1.67.1c-1.59.74-2.35,2.55-2.81,4.24a4.24,4.24,0,0,0-.16,2.23,1.62,1.62,0,0,0,1.65,1.25,3.76,3.76,0,0,1,1.14-.24c0.43,0.07.72,0.5,1.15,0.59a0.75,0.75,0,0,0,.75-1.18" transform="translate(104.59 -705.11)"/></g><g id="_Group_105" data-name="&lt;Group&gt;"><path class="cls-3" d="M100.23,720.8a25,25,0,0,0-1.16,3.41c-0.22.84-.21,2,0.63,2.25a1.77,1.77,0,0,0,1.51-.65l2.84-2.57a2.48,2.48,0,0,0,1-1.75l0.93-4.35a3.86,3.86,0,0,0,0-2.54c-0.39-.77-1.61-1.13-2.12-0.44a7.39,7.39,0,0,0-.44,1.31,1.74,1.74,0,0,1-2.46.48,4,4,0,0,1-1.47-2.35,3.56,3.56,0,0,1,0-2.52,3.2,3.2,0,0,1,2-1.5c0.83-.25,1.71-0.35,2.52-0.68a1.13,1.13,0,0,0,.88-1.18,1.2,1.2,0,0,0-.51-0.56,23.16,23.16,0,0,0-3.11-1.83,1.49,1.49,0,0,0-.92-0.22,1.47,1.47,0,0,0-.68.43,16.84,16.84,0,0,0-3.94,5.64,2.81,2.81,0,0,0-.3,1.72,3.06,3.06,0,0,0,.81,1.27L98.77,717c1,1,2,2.37,1.57,3.72" transform="translate(104.59 -705.11)"/></g></g><g id="_Group_106" data-name="&lt;Group&gt;"><g id="_Group_107" data-name="&lt;Group&gt;"><path class="cls-1" d="M112.12,782.57c-0.48-2.21-.53-4.66.69-6.56s3.35-2.83,5.39-3.69l6.17-2.61a25.36,25.36,0,0,1,3.41-1.26,12.77,12.77,0,0,1,7.77.42,5.41,5.41,0,0,1-3.08,1.6c-0.59.09-1.18,0.08-1.77,0.13a17.14,17.14,0,0,0-3,.62l-7.94,2.15c-1.22.33-2.61,0.81-3,2s0.51,2.94-.25,4.12c-0.45.69-1.46,1.2-1.26,2a8.5,8.5,0,0,1,.45,1,1,1,0,0,1-.3.75,2,2,0,0,1-3.45-1.16" transform="translate(104.59 -705.11)"/></g><g id="_Group_108" data-name="&lt;Group&gt;"><path class="cls-2" d="M116,780.55c1-.15.74,0.45,1.19,1.35s0.58,1.93,1,2.86a1.86,1.86,0,0,0,.88,1,2.12,2.12,0,0,0,1.5-.11c2.31-.8,4.45-2,6.76-2.85,3.55-1.23,7.44-1.39,10.83-3,1.62-.78,3.21-2.1,3.38-3.89,0.15-1.6-.88-3-1.93-4.26a9.27,9.27,0,0,0-3.68-2.88,2,2,0,0,0-.89-0.15,2.65,2.65,0,0,0-.88.33c-5.09,2.59-11.24,2.43-16.33,5a4,4,0,0,0-2,1.83c-0.54,1.27.13,2.85-.54,4a0.73,0.73,0,0,0-.14.39c0,0.36.54,0.38,0.89,0.29" transform="translate(104.59 -705.11)"/></g><g id="_Group_109" data-name="&lt;Group&gt;"><path class="cls-2" d="M114.63,790.76a1.67,1.67,0,0,0-.73,1.53,2.85,2.85,0,0,0,.71,1.6,5.93,5.93,0,0,0,2.86,1.78,16.07,16.07,0,0,0,3.37.54,12.5,12.5,0,0,0,2,.06,14.14,14.14,0,0,0,2.55-.53c1-.27,2-0.52,3-0.72a38.84,38.84,0,0,0,5.11-1.06,11.59,11.59,0,0,0,3.6-2,4,4,0,0,0,.84-1.4,0.42,0.42,0,0,0-.34-0.19c-0.93-.15-2.49,1-3.4,1.3l-9,2.6a5.42,5.42,0,0,1-3.23.26,4.25,4.25,0,0,1-1.53-1,10,10,0,0,1-1.65-2.1,7.29,7.29,0,0,0-1-1.48,1.67,1.67,0,0,0-1.61-.53" transform="translate(104.59 -705.11)"/></g><g id="_Group_110" data-name="&lt;Group&gt;"><path class="cls-1" d="M117.65,789.76l0.49-2.27a3.85,3.85,0,0,1,.91-2.08,4.23,4.23,0,0,1,2-.82c3.06-.74,5.93-2.15,9-2.86,1.31-.3,2.64-0.48,3.94-0.83a37.6,37.6,0,0,0,4.6-1.73,3.66,3.66,0,0,1,2.8-.34,2.44,2.44,0,0,1,1.27,1.56,6.13,6.13,0,0,1,.17,2.06,9.83,9.83,0,0,1-.8,3.86,11,11,0,0,1-2.86,3.33,10.53,10.53,0,0,1-3.34,2.18c-1.61.56-3.38,0.38-5,.82-0.94.25-1.82,0.71-2.77,0.92-0.72.16-1.55,0.78-2.27,0.9-1.1.18-2,0-3.13,0.25a1.37,1.37,0,0,1-.61,0,1.33,1.33,0,0,1-.57-0.35,14.28,14.28,0,0,1-2.71-2.79c-0.39-.61-0.68-1.25-1.07-1.86" transform="translate(104.59 -705.11)"/></g><g id="_Group_111" data-name="&lt;Group&gt;"><path class="cls-1" d="M116.66,788.92l-1.15-3a2.21,2.21,0,0,0-.25-0.52,1.8,1.8,0,0,0-.39-0.37,1.74,1.74,0,0,0-1.3-.43,1.5,1.5,0,0,0-1,.8,4.62,4.62,0,0,0,.16,3.83,3.19,3.19,0,0,0,.89,1.43,1.22,1.22,0,0,0,1.56,0,2.83,2.83,0,0,1,.58-0.65c0.29-.15.66,0,1-0.15a0.56,0.56,0,0,0-.06-1.05" transform="translate(104.59 -705.11)"/></g><g id="_Group_112" data-name="&lt;Group&gt;"><path class="cls-3" d="M115.36,786a18.81,18.81,0,0,0,.8,2.59c0.24,0.61.77,1.33,1.38,1.09a1.33,1.33,0,0,0,.64-1.06l0.6-2.82a1.87,1.87,0,0,0-.17-1.51l-1.36-3.06a2.91,2.91,0,0,0-1.15-1.53,1,1,0,0,0-1.48.67,5.56,5.56,0,0,0,.31,1,1.31,1.31,0,0,1-1.29,1.38,3,3,0,0,1-1.94-.78,2.68,2.68,0,0,1-1.13-1.52,2.41,2.41,0,0,1,.59-1.82c0.4-.52.89-1,1.24-1.53a0.85,0.85,0,0,0,0-1.11,0.91,0.91,0,0,0-.56-0.12,17.45,17.45,0,0,0-2.7.26,1.13,1.13,0,0,0-.66.28,1.11,1.11,0,0,0-.22.56,12.68,12.68,0,0,0,.09,5.19,2.12,2.12,0,0,0,.58,1.18,2.3,2.3,0,0,0,1.06.41l2.8,0.58c1,0.22,2.25.57,2.6,1.58" transform="translate(104.59 -705.11)"/></g></g><g id="_Group_113" data-name="&lt;Group&gt;"><g id="_Group_114" data-name="&lt;Group&gt;"><path class="cls-1" d="M170,764.5c2.2,1.41,4.25,3.37,4.8,5.92s-0.43,5.05-1.39,7.42l-2.9,7.17a29.31,29.31,0,0,1-1.76,3.81,14.76,14.76,0,0,1-6.69,6,6.25,6.25,0,0,1,1.21-3.82c0.41-.55.9-1,1.34-1.56a19.81,19.81,0,0,0,1.92-2.93l4.73-8.25c0.73-1.27,1.47-2.8.84-4.12s-2.82-2-3.16-3.57c-0.2-.93.21-2.17-0.6-2.66a9.82,9.82,0,0,1-1.16-.43,1.16,1.16,0,0,1-.37-0.86,2.29,2.29,0,0,1,3.76-1.87" transform="translate(104.59 -705.11)"/></g><g id="_Group_115" data-name="&lt;Group&gt;"><path class="cls-2" d="M168.42,769.34c-0.69.94-1,.24-2.07-0.13s-2.06-1.1-3.14-1.53a2.15,2.15,0,0,0-1.56-.13,2.45,2.45,0,0,0-1.13,1.32c-1.23,2.54-2,5.31-3.2,7.85-1.89,3.9-4.95,7.22-6.38,11.31-0.69,2-.91,4.34.41,5.94,1.18,1.43,3.21,1.78,5.06,1.91a10.71,10.71,0,0,0,5.36-.66,2.3,2.3,0,0,0,.84-0.61,3.06,3.06,0,0,0,.45-1c2-6.27,7.2-11.17,9.24-17.44a4.67,4.67,0,0,0,.17-3.16c-0.6-1.47-2.43-2.22-2.87-3.75a0.84,0.84,0,0,0-.2-0.43c-0.31-.27-0.75.14-1,0.49" transform="translate(104.59 -705.11)"/></g><g id="_Group_116" data-name="&lt;Group&gt;"><path class="cls-2" d="M161.22,759.87a1.93,1.93,0,0,0-.66-1.85,3.3,3.3,0,0,0-1.89-.73,6.85,6.85,0,0,0-3.79.88,18.57,18.57,0,0,0-3.2,2.31,14.44,14.44,0,0,0-1.68,1.59,16.34,16.34,0,0,0-1.65,2.51c-0.6,1-1.22,2.07-1.89,3.06a44.88,44.88,0,0,0-3.31,5,13.39,13.39,0,0,0-1.32,4.57,4.66,4.66,0,0,0,.46,1.84,0.49,0.49,0,0,0,.43-0.12c0.88-.64,1.19-2.88,1.71-3.84l5.19-9.44a6.27,6.27,0,0,1,2.43-2.85,4.91,4.91,0,0,1,2.09-.41,11.56,11.56,0,0,1,3.06.36,8.43,8.43,0,0,0,2,.41,1.93,1.93,0,0,0,1.75-.88" transform="translate(104.59 -705.11)"/></g><g id="_Group_117" data-name="&lt;Group&gt;"><path class="cls-1" d="M159.57,763.14L161,765.4a4.45,4.45,0,0,1,1,2.44,4.88,4.88,0,0,1-1,2.29c-1.9,3.1-3.09,6.6-5,9.69-0.82,1.32-1.77,2.55-2.54,3.9a43.45,43.45,0,0,0-2.34,5.18,4.23,4.23,0,0,1-2,2.56,2.82,2.82,0,0,1-2.32-.24,7.08,7.08,0,0,1-1.82-1.55,11.36,11.36,0,0,1-2.49-3.81,12.71,12.71,0,0,1-.39-5.06,12.17,12.17,0,0,1,.95-4.51c0.86-1.77,2.45-3.07,3.43-4.77,0.56-1,.91-2.06,1.5-3,0.45-.72.63-1.9,1.12-2.59,0.75-1,1.67-1.67,2.36-2.76a1.59,1.59,0,0,1,.47-0.53,1.54,1.54,0,0,1,.75-0.18,16.5,16.5,0,0,1,4.49.06c0.81,0.18,1.58.46,2.39,0.64" transform="translate(104.59 -705.11)"/></g><g id="_Group_118" data-name="&lt;Group&gt;"><path class="cls-1" d="M161.07,763l3.37,1.49a2.55,2.55,0,0,0,.63.21,2.08,2.08,0,0,0,.62,0,2,2,0,0,0,1.41-.72,1.74,1.74,0,0,0,.15-1.45c-0.42-1.47-1.87-2.37-3.26-3a3.69,3.69,0,0,0-1.9-.44,1.41,1.41,0,0,0-1.3,1.25,3.27,3.27,0,0,1,.05,1c-0.12.36-.53,0.55-0.66,0.91a0.65,0.65,0,0,0,.91.81" transform="translate(104.59 -705.11)"/></g><g id="_Group_119" data-name="&lt;Group&gt;"><path class="cls-3" d="M164.47,764.31a21.74,21.74,0,0,0-2.77-1.46c-0.69-.3-1.71-0.46-2,0.23a1.54,1.54,0,0,0,.35,1.39l1.82,2.79a2.16,2.16,0,0,0,1.37,1.09l3.61,1.39a3.36,3.36,0,0,0,2.19.31,1.16,1.16,0,0,0,.67-1.76,6.43,6.43,0,0,0-1.07-.56,1.51,1.51,0,0,1-.07-2.18,3.51,3.51,0,0,1,2.22-.94,3.1,3.1,0,0,1,2.17.32,2.78,2.78,0,0,1,1,2c0.1,0.75.07,1.52,0.24,2.26a1,1,0,0,0,.89.91,1,1,0,0,0,.55-0.36,20.16,20.16,0,0,0,2-2.42,1.3,1.3,0,0,0,.31-0.76,1.28,1.28,0,0,0-.27-0.64,14.65,14.65,0,0,0-4.31-4.16,2.45,2.45,0,0,0-1.44-.49,2.66,2.66,0,0,0-1.2.53l-2.76,1.81c-1,.67-2.31,1.37-3.41.84" transform="translate(104.59 -705.11)"/></g></g><g id="_Group_120" data-name="&lt;Group&gt;"><g id="_Group_121" data-name="&lt;Group&gt;"><path class="cls-1" d="M-1.79,748.29a8.28,8.28,0,0,1,3.46,5.2c0.25,2.08-.74,4.08-1.71,5.94L-3,765.05a24,24,0,0,1-1.73,3,12.08,12.08,0,0,1-5.92,4.37,5.11,5.11,0,0,1,1.28-3c0.37-.42.82-0.77,1.22-1.16A16.21,16.21,0,0,0-6.31,766l4.49-6.35c0.69-1,1.41-2.17,1-3.29s-2.15-1.84-2.3-3.15c-0.09-.77.34-1.75-0.29-2.22a8,8,0,0,1-.91-0.44,1,1,0,0,1-.23-0.73,1.92,1.92,0,0,1,1.2-1.67,1.92,1.92,0,0,1,2,.43" transform="translate(104.59 -705.11)"/></g><g id="_Group_122" data-name="&lt;Group&gt;"><path class="cls-2" d="M-3.42,752.12c-0.64.71-.81,0.12-1.68-0.27s-1.59-1.06-2.44-1.49a1.76,1.76,0,0,0-1.26-.22,2,2,0,0,0-1,1c-1.2,2-2,4.17-3.21,6.15-1.85,3-4.59,5.5-6.07,8.72-0.71,1.54-1.08,3.47-.12,4.87,0.85,1.25,2.48,1.7,4,1.94a8.77,8.77,0,0,0,4.42-.12,1.89,1.89,0,0,0,.73-0.43,2.51,2.51,0,0,0,.44-0.77c2.15-5,6.73-8.54,8.87-13.5a3.82,3.82,0,0,0,.38-2.56c-0.37-1.25-1.81-2-2-3.28a0.69,0.69,0,0,0-.13-0.37c-0.23-.24-0.62.05-0.82,0.33" transform="translate(104.59 -705.11)"/></g><g id="_Group_123" data-name="&lt;Group&gt;"><path class="cls-2" d="M-8.55,743.84a1.58,1.58,0,0,0-.39-1.55,2.7,2.7,0,0,0-1.48-.74,5.61,5.61,0,0,0-3.16.43,15.2,15.2,0,0,0-2.78,1.63,11.82,11.82,0,0,0-1.49,1.17,13.37,13.37,0,0,0-1.54,1.92c-0.57.8-1.15,1.59-1.78,2.35a36.74,36.74,0,0,0-3.09,3.86,11,11,0,0,0-1.43,3.62,3.81,3.81,0,0,0,.23,1.53,0.4,0.4,0,0,0,.36-0.07c0.77-.45,1.19-2.26,1.69-3l5-7.3a5.13,5.13,0,0,1,2.2-2.13,4,4,0,0,1,1.73-.17,9.46,9.46,0,0,1,2.47.53,6.9,6.9,0,0,0,1.6.49A1.58,1.58,0,0,0-9,745.82" transform="translate(104.59 -705.11)"/></g><g id="_Group_124" data-name="&lt;Group&gt;"><path class="cls-1" d="M-10.15,746.38l1,2a3.64,3.64,0,0,1,.59,2.06,4,4,0,0,1-1,1.79c-1.79,2.38-3,5.14-4.84,7.51-0.77,1-1.64,1.94-2.37,3a35.57,35.57,0,0,0-2.31,4,3.46,3.46,0,0,1-1.83,1.93,2.31,2.31,0,0,1-1.87-.37,5.8,5.8,0,0,1-1.36-1.4,9.3,9.3,0,0,1-1.74-3.29,10.4,10.4,0,0,1,.07-4.15,10,10,0,0,1,1.12-3.6c0.84-1.37,2.24-2.31,3.17-3.62,0.53-.75.9-1.61,1.46-2.34,0.42-.55.66-1.5,1.12-2,0.69-.8,1.49-1.23,2.13-2.07a1.3,1.3,0,0,1,.42-0.4,1.26,1.26,0,0,1,.63-0.09,13.51,13.51,0,0,1,3.66.39c0.65,0.21,1.25.5,1.9,0.71" transform="translate(104.59 -705.11)"/></g><g id="_Group_125" data-name="&lt;Group&gt;"><path class="cls-1" d="M-8.92,746.4l2.63,1.47a2.09,2.09,0,0,0,.5.22,1.7,1.7,0,0,0,.51,0,1.65,1.65,0,0,0,1.21-.47,1.42,1.42,0,0,0,.23-1.17,4.37,4.37,0,0,0-2.43-2.69,3,3,0,0,0-1.51-.5,1.16,1.16,0,0,0-1.16.92A2.68,2.68,0,0,1-9,745c-0.12.28-.48,0.41-0.61,0.69a0.55,0.55,0,0,0,.09.6,0.55,0.55,0,0,0,.59.13" transform="translate(104.59 -705.11)"/></g><g id="_Group_126" data-name="&lt;Group&gt;"><path class="cls-3" d="M-6.24,747.71a17.8,17.8,0,0,0-2.14-1.41c-0.54-.3-1.36-0.51-1.66,0a1.26,1.26,0,0,0,.18,1.16l1.26,2.42a2.36,2.36,0,0,0,.37.57,2.36,2.36,0,0,0,.66.43l2.84,1.41a2.75,2.75,0,0,0,1.76.42,1,1,0,0,0,.68-1.38,5.26,5.26,0,0,0-.83-0.54A1.24,1.24,0,0,1-3,749a2.87,2.87,0,0,1,1.89-.6,2.53,2.53,0,0,1,1.74.43,2.28,2.28,0,0,1,.67,1.68c0,0.62-.06,1.24,0,1.86a0.8,0.8,0,0,0,.66.81A0.86,0.86,0,0,0,2.42,753a16.5,16.5,0,0,0,1.82-1.82,1.06,1.06,0,0,0,.31-0.6A1,1,0,0,0,4.38,750a12,12,0,0,0-3.19-3.72,2,2,0,0,0-1.13-.51,2.18,2.18,0,0,0-1,.34l-2.39,1.26c-0.89.47-2,.94-2.85,0.42" transform="translate(104.59 -705.11)"/></g></g><g id="_Group_127" data-name="&lt;Group&gt;"><g id="_Group_128" data-name="&lt;Group&gt;"><path class="cls-1" d="M22.47,756.56c2.87,0.86,5.76,2.37,7.19,5s1.14,5.71.84,8.63L29.59,779a33.67,33.67,0,0,1-.72,4.77,17,17,0,0,1-5.47,8.76,7.18,7.18,0,0,1,.11-4.61c0.27-.74.67-1.43,1-2.15A22.76,22.76,0,0,0,25.69,782l2.59-10.61c0.4-1.63.73-3.56-.39-4.81s-3.75-1.29-4.63-2.93c-0.52-1-.46-2.46-1.52-2.75a11.28,11.28,0,0,1-1.42-.11,1.33,1.33,0,0,1-.68-0.84,2.63,2.63,0,0,1,3.56-3.26" transform="translate(104.59 -705.11)"/></g><g id="_Group_129" data-name="&lt;Group&gt;"><path class="cls-2" d="M22.31,762.4c-0.47,1.26-1,.58-2.33.52s-2.62-.56-4-0.69a2.47,2.47,0,0,0-1.76.36,2.81,2.81,0,0,0-.83,1.82c-0.55,3.2-.47,6.48-1,9.68C11.57,779,9.26,783.63,9,788.61c-0.13,2.38.38,5.08,2.36,6.42,1.76,1.2,4.11.94,6.19,0.49a12.31,12.31,0,0,0,5.7-2.44,2.65,2.65,0,0,0,.74-0.94,3.52,3.52,0,0,0,.18-1.23c0.25-7.58,4.37-14.62,4.62-22.2a5.37,5.37,0,0,0-.82-3.54c-1.13-1.44-3.39-1.67-4.36-3.22a1,1,0,0,0-.36-0.41c-0.43-.2-0.79.39-0.9,0.85" transform="translate(104.59 -705.11)"/></g><g id="_Group_130" data-name="&lt;Group&gt;"><path class="cls-2" d="M11.34,754.24A2.22,2.22,0,0,0,10,752.41a3.79,3.79,0,0,0-2.32-.2A7.87,7.87,0,0,0,3.8,754.4,21.34,21.34,0,0,0,1,758a16.6,16.6,0,0,0-1.35,2.3,18.77,18.77,0,0,0-1,3.3c-0.33,1.34-.68,2.67-1.11,4a51.57,51.57,0,0,0-2,6.63,15.38,15.38,0,0,0,0,5.47,5.35,5.35,0,0,0,1.09,1.88A0.56,0.56,0,0,0-3,781.24c0.77-1,.39-3.56.66-4.79l2.71-12.08a7.2,7.2,0,0,1,1.77-3.92,5.64,5.64,0,0,1,2.17-1.12,13.28,13.28,0,0,1,3.5-.58,9.69,9.69,0,0,0,2.35-.19A2.22,2.22,0,0,0,11.82,757" transform="translate(104.59 -705.11)"/></g><g id="_Group_131" data-name="&lt;Group&gt;"><path class="cls-1" d="M10.56,758.38l2.33,2a5.11,5.11,0,0,1,1.83,2.39,5.61,5.61,0,0,1-.32,2.83c-1.11,4-1.3,8.27-2.44,12.3-0.48,1.72-1.14,3.38-1.56,5.11a49.93,49.93,0,0,0-.93,6.46c-0.14,1.27-.38,2.69-1.4,3.47a3.24,3.24,0,0,1-2.63.48,8.13,8.13,0,0,1-2.51-1.13,13.05,13.05,0,0,1-4-3.4,14.6,14.6,0,0,1-2-5.45,14,14,0,0,1-.4-5.28c0.38-2.22,1.73-4.17,2.26-6.36,0.31-1.25.34-2.57,0.7-3.81,0.27-.94.09-2.3,0.41-3.22,0.49-1.39,1.31-2.38,1.72-3.8A1.82,1.82,0,0,1,2,760.25a1.77,1.77,0,0,1,.78-0.44,19,19,0,0,1,5-1.37c1-.06,1.89,0,2.84-0.06" transform="translate(104.59 -705.11)"/></g><g id="_Group_132" data-name="&lt;Group&gt;"><path class="cls-1" d="M12.18,757.77l4.2,0.56a2.93,2.93,0,0,0,.76,0,2.39,2.39,0,0,0,.68-0.22,2.31,2.31,0,0,0,1.33-1.24,2,2,0,0,0-.3-1.65c-0.93-1.49-2.82-2-4.56-2.26a4.24,4.24,0,0,0-2.24.12,1.62,1.62,0,0,0-1,1.79,3.76,3.76,0,0,1,.38,1.1c0,0.43-.41.78-0.44,1.21a0.75,0.75,0,0,0,1.26.6" transform="translate(104.59 -705.11)"/></g><g id="_Group_133" data-name="&lt;Group&gt;"><path class="cls-3" d="M16.35,758.11a25,25,0,0,0-3.53-.73c-0.86-.11-2,0-2.16.9a1.77,1.77,0,0,0,.83,1.42l2.9,2.5a3.31,3.31,0,0,0,.77.55,3.31,3.31,0,0,0,1.09.22l4.43,0.38a3.86,3.86,0,0,0,2.51-.35c0.72-.48.93-1.74,0.17-2.16a7.39,7.39,0,0,0-1.36-.28,1.74,1.74,0,0,1-.78-2.38,4,4,0,0,1,2.15-1.75,3.56,3.56,0,0,1,2.49-.33A3.2,3.2,0,0,1,27.63,758c0.35,0.8.56,1.66,1,2.42a1.13,1.13,0,0,0,1.28.72,1.2,1.2,0,0,0,.49-0.58,23.16,23.16,0,0,0,1.43-3.31,1.49,1.49,0,0,0,.1-0.94,1.47,1.47,0,0,0-.51-0.62,16.84,16.84,0,0,0-6.09-3.22,2.81,2.81,0,0,0-1.75-.09,3.06,3.06,0,0,0-1.16,1L20,756.19c-0.92,1.07-2.11,2.25-3.5,2" transform="translate(104.59 -705.11)"/></g></g></svg>