<svg id="Layer_1" data-name="Layer 1" xmlns="http://www.w3.org/2000/svg" viewBox="0 0 282.18 95.49"><defs><style>.cls-1{fill:#ed1f24;}.cls-2{fill:#f05423;}.cls-3{fill:#43612d;}</style></defs><title>r_peppers</title><g id="_Group_" data-name="&lt;Group&gt;"><g id="_Group_2" data-name="&lt;Group&gt;"><path class="cls-1" d="M490.2,356.4c2.87,0.86,5.76,2.37,7.19,5s1.14,5.71.84,8.63l-0.91,8.84a33.67,33.67,0,0,1-.72,4.77,17,17,0,0,1-5.47,8.76,7.18,7.18,0,0,1,.11-4.61c0.27-.74.67-1.43,1-2.15a22.76,22.76,0,0,0,1.18-3.85L496,371.2c0.4-1.63.73-3.56-.39-4.81s-3.75-1.29-4.63-2.93c-0.52-1-.46-2.46-1.52-2.75a11.28,11.28,0,0,1-1.42-.11,1.33,1.33,0,0,1-.68-0.84,2.63,2.63,0,0,1,3.56-3.26" transform="translate(-217.51 -302.41)"/></g><g id="_Group_3" data-name="&lt;Group&gt;"><path class="cls-2" d="M490,362.24c-0.47,1.26-1,.58-2.33.52s-2.62-.56-4-0.69a2.47,2.47,0,0,0-1.76.36,2.81,2.81,0,0,0-.83,1.82c-0.55,3.2-.47,6.48-1,9.68-0.84,4.91-3.15,9.55-3.43,14.52-0.13,2.38.38,5.08,2.36,6.42,1.76,1.2,4.11.94,6.19,0.49a12.31,12.31,0,0,0,5.7-2.44,2.65,2.65,0,0,0,.74-0.94,3.52,3.52,0,0,0,.18-1.23c0.25-7.58,4.37-14.62,4.62-22.2a5.37,5.37,0,0,0-.82-3.54c-1.13-1.44-3.39-1.67-4.36-3.22a1,1,0,0,0-.36-0.41c-0.43-.2-0.79.39-0.9,0.85" transform="translate(-217.51 -302.41)"/></g><g id="_Group_4" data-name="&lt;Group&gt;"><path class="cls-2" d="M479.07,354.08a2.22,2.22,0,0,0-1.31-1.83,3.79,3.79,0,0,0-2.32-.2,7.87,7.87,0,0,0-3.91,2.19,21.34,21.34,0,0,0-2.79,3.57,16.6,16.6,0,0,0-1.35,2.3,18.77,18.77,0,0,0-1,3.3c-0.33,1.34-.68,2.67-1.11,4a51.57,51.57,0,0,0-2,6.63,15.38,15.38,0,0,0,0,5.47,5.35,5.35,0,0,0,1.09,1.88,0.56,0.56,0,0,0,.43-0.27c0.77-1,.39-3.56.66-4.79l2.71-12.08a7.2,7.2,0,0,1,1.77-3.92,5.64,5.64,0,0,1,2.17-1.12,13.28,13.28,0,0,1,3.5-.58,9.69,9.69,0,0,0,2.35-.19,2.22,2.22,0,0,0,1.65-1.53" transform="translate(-217.51 -302.41)"/></g><g id="_Group_5" data-name="&lt;Group&gt;"><path class="cls-1" d="M478.29,358.23l2.33,2a5.11,5.11,0,0,1,1.83,2.39,5.61,5.61,0,0,1-.32,2.83c-1.11,4-1.3,8.27-2.44,12.3-0.48,1.72-1.14,3.38-1.56,5.11a49.93,49.93,0,0,0-.93,6.46c-0.14,1.27-.38,2.69-1.4,3.47a3.24,3.24,0,0,1-2.63.48,8.13,8.13,0,0,1-2.51-1.13,13.05,13.05,0,0,1-4-3.4,14.6,14.6,0,0,1-2-5.45,14,14,0,0,1-.4-5.28c0.38-2.22,1.73-4.17,2.26-6.36,0.31-1.25.34-2.57,0.7-3.81,0.27-.94.09-2.3,0.41-3.22,0.49-1.39,1.31-2.38,1.72-3.8a1.82,1.82,0,0,1,.34-0.74,1.77,1.77,0,0,1,.78-0.44,19,19,0,0,1,5-1.37c1-.06,1.89,0,2.84-0.06" transform="translate(-217.51 -302.41)"/></g><g id="_Group_6" data-name="&lt;Group&gt;"><path class="cls-1" d="M479.91,357.62l4.2,0.56a2.93,2.93,0,0,0,.76,0,2.39,2.39,0,0,0,.68-0.22,2.31,2.31,0,0,0,1.33-1.24,2,2,0,0,0-.3-1.65c-0.93-1.49-2.82-2-4.56-2.26a4.24,4.24,0,0,0-2.24.12,1.62,1.62,0,0,0-1,1.79,3.76,3.76,0,0,1,.38,1.1c0,0.43-.41.78-0.44,1.21a0.75,0.75,0,0,0,1.26.6" transform="translate(-217.51 -302.41)"/></g><g id="_Group_7" data-name="&lt;Group&gt;"><path class="cls-3" d="M484.08,358a25,25,0,0,0-3.53-.73c-0.86-.11-2,0-2.16.9a1.77,1.77,0,0,0,.83,1.42l2.9,2.5a2.48,2.48,0,0,0,1.86.77l4.43,0.38a3.86,3.86,0,0,0,2.51-.35c0.72-.48.93-1.74,0.17-2.16a7.39,7.39,0,0,0-1.36-.28A1.74,1.74,0,0,1,489,358a4,4,0,0,1,2.15-1.75,3.56,3.56,0,0,1,2.49-.33,3.2,3.2,0,0,1,1.74,1.85c0.35,0.8.56,1.66,1,2.42a1.13,1.13,0,0,0,1.28.72,1.2,1.2,0,0,0,.49-0.58,23.16,23.16,0,0,0,1.43-3.31,1.49,1.49,0,0,0,.1-0.94,1.47,1.47,0,0,0-.51-0.62,16.84,16.84,0,0,0-6.09-3.22,2.81,2.81,0,0,0-1.75-.09,3.06,3.06,0,0,0-1.16,1L487.68,356c-0.92,1.07-2.11,2.25-3.5,2" transform="translate(-217.51 -302.41)"/></g></g><g id="_Group_8" data-name="&lt;Group&gt;"><g id="_Group_9" data-name="&lt;Group&gt;"><path class="cls-1" d="M244.73,356.4c2.87,0.86,5.76,2.37,7.19,5s1.14,5.71.84,8.63l-0.91,8.84a33.67,33.67,0,0,1-.72,4.77,17,17,0,0,1-5.47,8.76,7.18,7.18,0,0,1,.11-4.61c0.27-.74.67-1.43,1-2.15a22.76,22.76,0,0,0,1.18-3.85l2.59-10.61c0.4-1.63.73-3.56-.39-4.81s-3.75-1.29-4.63-2.93c-0.52-1-.46-2.46-1.52-2.75a11.28,11.28,0,0,1-1.42-.11,1.33,1.33,0,0,1-.68-0.84,2.63,2.63,0,0,1,3.56-3.26" transform="translate(-217.51 -302.41)"/></g><g id="_Group_10" data-name="&lt;Group&gt;"><path class="cls-2" d="M244.57,362.24c-0.47,1.26-1,.58-2.33.52s-2.62-.56-4-0.69a2.47,2.47,0,0,0-1.76.36,2.81,2.81,0,0,0-.83,1.82c-0.55,3.2-.47,6.48-1,9.68-0.84,4.91-3.15,9.55-3.43,14.52-0.13,2.38.38,5.08,2.36,6.42,1.76,1.2,4.11.94,6.19,0.49a12.31,12.31,0,0,0,5.7-2.44,2.65,2.65,0,0,0,.74-0.94,3.52,3.52,0,0,0,.18-1.23c0.25-7.58,4.37-14.62,4.62-22.2a5.37,5.37,0,0,0-.82-3.54c-1.13-1.44-3.39-1.67-4.36-3.22a1,1,0,0,0-.36-0.41c-0.43-.2-0.79.39-0.9,0.85" transform="translate(-217.51 -302.41)"/></g><g id="_Group_11" data-name="&lt;Group&gt;"><path class="cls-2" d="M233.6,354.08a2.22,2.22,0,0,0-1.31-1.83,3.79,3.79,0,0,0-2.32-.2,7.87,7.87,0,0,0-3.91,2.19,21.34,21.34,0,0,0-2.79,3.57,16.6,16.6,0,0,0-1.35,2.3,18.77,18.77,0,0,0-1,3.3c-0.33,1.34-.68,2.67-1.11,4a51.57,51.57,0,0,0-2,6.63,15.38,15.38,0,0,0,0,5.47,5.35,5.35,0,0,0,1.09,1.88,0.56,0.56,0,0,0,.43-0.27c0.77-1,.39-3.56.66-4.79l2.71-12.08a7.2,7.2,0,0,1,1.77-3.92,5.64,5.64,0,0,1,2.17-1.12,13.28,13.28,0,0,1,3.5-.58,9.69,9.69,0,0,0,2.35-.19,2.22,2.22,0,0,0,1.65-1.53" transform="translate(-217.51 -302.41)"/></g><g id="_Group_12" data-name="&lt;Group&gt;"><path class="cls-1" d="M232.83,358.23l2.33,2a5.11,5.11,0,0,1,1.83,2.39,5.61,5.61,0,0,1-.32,2.83c-1.11,4-1.3,8.27-2.44,12.3-0.48,1.72-1.14,3.38-1.56,5.11a49.93,49.93,0,0,0-.93,6.46c-0.14,1.27-.38,2.69-1.4,3.47a3.24,3.24,0,0,1-2.63.48,8.13,8.13,0,0,1-2.51-1.13,13.05,13.05,0,0,1-4-3.4,14.6,14.6,0,0,1-2-5.45,14,14,0,0,1-.4-5.28c0.38-2.22,1.73-4.17,2.26-6.36,0.31-1.25.34-2.57,0.7-3.81,0.27-.94.09-2.3,0.41-3.22,0.49-1.39,1.31-2.38,1.72-3.8a1.82,1.82,0,0,1,.34-0.74,1.77,1.77,0,0,1,.78-0.44,19,19,0,0,1,5-1.37c1-.06,1.89,0,2.84-0.06" transform="translate(-217.51 -302.41)"/></g><g id="_Group_13" data-name="&lt;Group&gt;"><path class="cls-1" d="M234.44,357.62l4.2,0.56a2.93,2.93,0,0,0,.76,0,2.39,2.39,0,0,0,.68-0.22,2.31,2.31,0,0,0,1.33-1.24,2,2,0,0,0-.3-1.65c-0.93-1.49-2.82-2-4.56-2.26a4.24,4.24,0,0,0-2.24.12,1.62,1.62,0,0,0-1,1.79,3.76,3.76,0,0,1,.38,1.1c0,0.43-.41.78-0.44,1.21a0.75,0.75,0,0,0,1.26.6" transform="translate(-217.51 -302.41)"/></g><g id="_Group_14" data-name="&lt;Group&gt;"><path class="cls-3" d="M238.62,358a25,25,0,0,0-3.53-.73c-0.86-.11-2,0-2.16.9a1.77,1.77,0,0,0,.83,1.42l2.9,2.5a2.48,2.48,0,0,0,1.86.77L243,363.2a3.86,3.86,0,0,0,2.51-.35c0.72-.48.93-1.74,0.17-2.16a7.39,7.39,0,0,0-1.36-.28,1.74,1.74,0,0,1-.78-2.38,4,4,0,0,1,2.15-1.75,3.56,3.56,0,0,1,2.49-.33,3.2,3.2,0,0,1,1.74,1.85c0.35,0.8.56,1.66,1,2.42a1.13,1.13,0,0,0,1.28.72,1.2,1.2,0,0,0,.49-0.58,23.16,23.16,0,0,0,1.43-3.31,1.49,1.49,0,0,0,.1-0.94,1.47,1.47,0,0,0-.51-0.62,16.84,16.84,0,0,0-6.09-3.22,2.81,2.81,0,0,0-1.75-.09,3.06,3.06,0,0,0-1.16,1L242.22,356c-0.92,1.07-2.11,2.25-3.5,2" transform="translate(-217.51 -302.41)"/></g></g><g id="_Group_15" data-name="&lt;Group&gt;"><g id="_Group_16" data-name="&lt;Group&gt;"><path class="cls-1" d="M433.69,386.31c-1.08-2-1.81-4.34-1.17-6.51s2.44-3.66,4.16-5.06l5.21-4.24a25.43,25.43,0,0,1,2.93-2.16,12.8,12.8,0,0,1,7.6-1.76,5.42,5.42,0,0,1-2.52,2.4c-0.54.25-1.12,0.41-1.67,0.62a17.18,17.18,0,0,0-2.69,1.42l-7,4.29c-1.08.66-2.29,1.51-2.36,2.78s1.31,2.69.91,4c-0.24.79-1.07,1.56-.66,2.28a8.52,8.52,0,0,1,.7.82,1,1,0,0,1-.08.81,2,2,0,0,1-3.64-.16" transform="translate(-217.51 -302.41)"/></g><g id="_Group_17" data-name="&lt;Group&gt;"><path class="cls-2" d="M436.9,383.28c0.92-.42.84,0.22,1.52,1s1.1,1.7,1.75,2.48a1.86,1.86,0,0,0,1.13.75,2.12,2.12,0,0,0,1.41-.53c2-1.42,3.71-3.21,5.72-4.63,3.07-2.17,6.78-3.41,9.58-5.92,1.34-1.2,2.51-2.92,2.17-4.69-0.3-1.58-1.69-2.69-3-3.57a9.3,9.3,0,0,0-4.35-1.74,2,2,0,0,0-.89.11,2.66,2.66,0,0,0-.75.56C447,371,441,372.54,436.83,376.46a4.05,4.05,0,0,0-1.45,2.33c-0.16,1.37.92,2.7,0.61,4a0.73,0.73,0,0,0,0,.41c0.13,0.34.63,0.21,0.94,0" transform="translate(-217.51 -302.41)"/></g><g id="_Group_18" data-name="&lt;Group&gt;"><path class="cls-2" d="M438.4,393.49a1.67,1.67,0,0,0-.27,1.68,2.86,2.86,0,0,0,1.13,1.35,6,6,0,0,0,3.25.92,16.11,16.11,0,0,0,3.4-.42,12.53,12.53,0,0,0,1.95-.51,14.17,14.17,0,0,0,2.3-1.22c0.89-.54,1.79-1.06,2.72-1.54a38.94,38.94,0,0,0,4.63-2.45,11.61,11.61,0,0,0,2.92-2.92,4,4,0,0,0,.42-1.59,0.42,0.42,0,0,0-.38-0.08c-0.94.12-2.11,1.7-2.91,2.2l-7.9,5a5.44,5.44,0,0,1-3,1.15,4.26,4.26,0,0,1-1.76-.56,10,10,0,0,1-2.18-1.56,7.31,7.31,0,0,0-1.36-1.15,1.67,1.67,0,0,0-1.69-.06" transform="translate(-217.51 -302.41)"/></g><g id="_Group_19" data-name="&lt;Group&gt;"><path class="cls-1" d="M441,391.69l-0.16-2.33a3.86,3.86,0,0,1,.3-2.25,4.24,4.24,0,0,1,1.68-1.34c2.74-1.56,5.11-3.72,7.87-5.26,1.17-.66,2.41-1.2,3.56-1.89a37.7,37.7,0,0,0,3.95-3,3.67,3.67,0,0,1,2.6-1.11,2.44,2.44,0,0,1,1.66,1.15,6.14,6.14,0,0,1,.74,1.94,9.85,9.85,0,0,1,.3,3.94,11,11,0,0,1-1.82,4,10.56,10.56,0,0,1-2.61,3c-1.39,1-3.15,1.3-4.61,2.19-0.83.51-1.55,1.19-2.4,1.66-0.64.36-1.28,1.18-1.94,1.5-1,.48-2,0.57-2.95,1.11a1.38,1.38,0,0,1-.58.21,1.34,1.34,0,0,1-.65-0.18,14.32,14.32,0,0,1-3.39-1.93c-0.54-.48-1-1-1.55-1.49" transform="translate(-217.51 -302.41)"/></g><g id="_Group_20" data-name="&lt;Group&gt;"><path class="cls-1" d="M439.84,391.16l-1.94-2.54a2.21,2.21,0,0,0-.39-0.43,1.8,1.8,0,0,0-.48-0.25,1.75,1.75,0,0,0-1.37,0,1.51,1.51,0,0,0-.72,1,4.63,4.63,0,0,0,1.23,3.64,3.2,3.2,0,0,0,1.26,1.13,1.22,1.22,0,0,0,1.51-.4,2.84,2.84,0,0,1,.38-0.79c0.24-.22.63-0.2,0.88-0.41a0.57,0.57,0,0,0-.35-1" transform="translate(-217.51 -302.41)"/></g><g id="_Group_21" data-name="&lt;Group&gt;"><path class="cls-3" d="M437.79,388.75a18.86,18.86,0,0,0,1.49,2.27c0.4,0.52,1.11,1.07,1.63.67a1.33,1.33,0,0,0,.32-1.2L441,387.61a1.87,1.87,0,0,0-.58-1.4l-2.16-2.57a2.91,2.91,0,0,0-1.53-1.15,1,1,0,0,0-1.24,1.06,5.58,5.58,0,0,0,.58.87,1.31,1.31,0,0,1-.86,1.69,3,3,0,0,1-2.08-.22,2.69,2.69,0,0,1-1.51-1.15,2.42,2.42,0,0,1,.06-1.91c0.24-.61.58-1.18,0.76-1.82a0.85,0.85,0,0,0-.3-1.07,0.91,0.91,0,0,0-.57,0,17.49,17.49,0,0,0-2.53,1,1.13,1.13,0,0,0-.56.45,1.11,1.11,0,0,0-.06.6,12.71,12.71,0,0,0,1.53,5,2.12,2.12,0,0,0,.89,1,2.31,2.31,0,0,0,1.13.1l2.86-.22c1.06-.08,2.33-0.08,2.95.79" transform="translate(-217.51 -302.41)"/></g></g><g id="_Group_22" data-name="&lt;Group&gt;"><g id="_Group_23" data-name="&lt;Group&gt;"><path class="cls-1" d="M456.91,348.84c1.27,2.35,2.14,5.13,1.38,7.69s-2.88,4.32-4.92,6l-6.15,5a30,30,0,0,1-3.46,2.55,15.13,15.13,0,0,1-9,2.08,6.4,6.4,0,0,1,3-2.83c0.64-.29,1.32-0.48,2-0.73a20.3,20.3,0,0,0,3.18-1.68l8.33-5.06c1.28-.78,2.71-1.79,2.79-3.28,0.1-1.66-1.55-3.18-1.07-4.77,0.28-.93,1.26-1.85.78-2.69a10.06,10.06,0,0,1-.83-1,1.19,1.19,0,0,1,.1-1,2.35,2.35,0,0,1,4.3.18" transform="translate(-217.51 -302.41)"/></g><g id="_Group_24" data-name="&lt;Group&gt;"><path class="cls-2" d="M453.13,352.42c-1.09.5-1-.26-1.8-1.15s-1.3-2-2.06-2.93a2.2,2.2,0,0,0-1.34-.88,2.51,2.51,0,0,0-1.67.62c-2.37,1.67-4.39,3.79-6.75,5.46-3.63,2.57-8,4-11.32,7-1.59,1.42-3,3.45-2.56,5.54,0.36,1.87,2,3.18,3.6,4.21a11,11,0,0,0,5.13,2.06,2.36,2.36,0,0,0,1.06-.13,3.14,3.14,0,0,0,.89-0.66c4.94-4.62,12-6.47,16.92-11.09a4.79,4.79,0,0,0,1.71-2.75c0.19-1.62-1.08-3.2-.72-4.78a0.86,0.86,0,0,0,0-.49c-0.15-.4-0.74-0.25-1.11,0" transform="translate(-217.51 -302.41)"/></g><g id="_Group_25" data-name="&lt;Group&gt;"><path class="cls-2" d="M451.35,340.35a2,2,0,0,0,.32-2,3.38,3.38,0,0,0-1.34-1.59,7,7,0,0,0-3.84-1.08,19,19,0,0,0-4,.49,14.8,14.8,0,0,0-2.3.6,16.74,16.74,0,0,0-2.72,1.44c-1.05.64-2.12,1.26-3.21,1.82a46,46,0,0,0-5.47,2.89,13.72,13.72,0,0,0-3.44,3.45,4.78,4.78,0,0,0-.5,1.87,0.5,0.5,0,0,0,.45.1c1.11-.14,2.49-2,3.44-2.6l9.33-5.91a6.42,6.42,0,0,1,3.59-1.35,5,5,0,0,1,2.07.66,11.85,11.85,0,0,1,2.57,1.84,8.64,8.64,0,0,0,1.6,1.36,2,2,0,0,0,2,.08" transform="translate(-217.51 -302.41)"/></g><g id="_Group_26" data-name="&lt;Group&gt;"><path class="cls-1" d="M448.25,342.48l0.19,2.75a4.56,4.56,0,0,1-.35,2.66,5,5,0,0,1-2,1.58c-3.24,1.85-6,4.4-9.3,6.22-1.39.78-2.85,1.42-4.21,2.24a44.54,44.54,0,0,0-4.66,3.49,4.34,4.34,0,0,1-3.07,1.31,2.89,2.89,0,0,1-2-1.36,7.26,7.26,0,0,1-.87-2.29,11.64,11.64,0,0,1-.36-4.65,13,13,0,0,1,2.15-4.73,12.48,12.48,0,0,1,3.08-3.58c1.64-1.16,3.72-1.54,5.44-2.59,1-.6,1.83-1.4,2.84-2,0.76-.42,1.51-1.4,2.29-1.77,1.19-.57,2.33-0.67,3.48-1.31a1.63,1.63,0,0,1,.68-0.25,1.58,1.58,0,0,1,.76.21,16.92,16.92,0,0,1,4,2.28c0.64,0.57,1.19,1.19,1.83,1.76" transform="translate(-217.51 -302.41)"/></g><g id="_Group_27" data-name="&lt;Group&gt;"><path class="cls-1" d="M449.65,343.11l2.29,3a2.61,2.61,0,0,0,.46.5,2.13,2.13,0,0,0,.57.29,2.06,2.06,0,0,0,1.62.06,1.78,1.78,0,0,0,.85-1.23c0.35-1.52-.51-3.05-1.45-4.3a3.78,3.78,0,0,0-1.49-1.33,1.45,1.45,0,0,0-1.79.48,3.35,3.35,0,0,1-.45.93c-0.28.26-.75,0.23-1,0.49a0.67,0.67,0,0,0,.42,1.17" transform="translate(-217.51 -302.41)"/></g><g id="_Group_28" data-name="&lt;Group&gt;"><path class="cls-3" d="M452.08,346a22.28,22.28,0,0,0-1.76-2.68c-0.47-.62-1.31-1.26-1.93-0.79a1.58,1.58,0,0,0-.37,1.42l0.25,3.41A2.21,2.21,0,0,0,449,349l2.55,3a3.44,3.44,0,0,0,1.81,1.36,1.19,1.19,0,0,0,1.47-1.25,6.59,6.59,0,0,0-.68-1,1.55,1.55,0,0,1,1-2,3.6,3.6,0,0,1,2.46.25,3.17,3.17,0,0,1,1.78,1.36,2.85,2.85,0,0,1-.07,2.26c-0.28.73-.69,1.4-0.9,2.15a1,1,0,0,0,.35,1.26,1.07,1.07,0,0,0,.67-0.05,20.66,20.66,0,0,0,3-1.18,1.33,1.33,0,0,0,.66-0.53,1.31,1.31,0,0,0,.07-0.71,15,15,0,0,0-1.81-5.87,2.51,2.51,0,0,0-1-1.16,2.73,2.73,0,0,0-1.34-.12l-3.38.26c-1.26.1-2.75,0.09-3.48-.94" transform="translate(-217.51 -302.41)"/></g></g><g id="_Group_29" data-name="&lt;Group&gt;"><g id="_Group_30" data-name="&lt;Group&gt;"><path class="cls-1" d="M409.71,311.44c2-1.83,4.42-3.37,7.09-3.28s4.91,1.7,7,3.25l6.4,4.69a30,30,0,0,1,3.34,2.7,15.13,15.13,0,0,1,4.28,8.16,6.4,6.4,0,0,1-3.49-2.16c-0.45-.54-0.8-1.16-1.21-1.73a20.3,20.3,0,0,0-2.43-2.65l-7-6.78c-1.08-1-2.41-2.17-3.88-1.87-1.63.32-2.68,2.3-4.34,2.24-1,0-2.11-.75-2.8-0.07a10.06,10.06,0,0,1-.72,1,1.19,1.19,0,0,1-1,.15,2.35,2.35,0,0,1-.91-4.21" transform="translate(-217.51 -302.41)"/></g><g id="_Group_31" data-name="&lt;Group&gt;"><path class="cls-2" d="M414.13,314.2c0.76,0.92,0,1-.65,2s-1.61,1.77-2.31,2.74a2.2,2.2,0,0,0-.52,1.52,2.51,2.51,0,0,0,1,1.46c2.22,1.87,4.78,3.29,7,5.15,3.4,2.86,5.93,6.73,9.63,9.19,1.77,1.18,4.08,2,6,1.08,1.72-.82,2.57-2.74,3.17-4.54a11,11,0,0,0,.7-5.49,2.36,2.36,0,0,0-.39-1,3.14,3.14,0,0,0-.87-0.69c-5.72-3.61-9.29-10-15-13.56a4.79,4.79,0,0,0-3.09-1c-1.61.22-2.82,1.86-4.45,1.91a0.86,0.86,0,0,0-.48.09c-0.35.24-.05,0.78,0.25,1.08" transform="translate(-217.51 -302.41)"/></g><g id="_Group_32" data-name="&lt;Group&gt;"><path class="cls-2" d="M402.9,319a2,2,0,0,0-2,.19,3.38,3.38,0,0,0-1.2,1.69,7,7,0,0,0-.08,4,19,19,0,0,0,1.49,3.76,14.8,14.8,0,0,0,1.16,2.07,16.74,16.74,0,0,0,2.08,2.27c0.88,0.86,1.75,1.73,2.57,2.65a46,46,0,0,0,4.18,4.56,13.72,13.72,0,0,0,4.21,2.46,4.78,4.78,0,0,0,1.94,0,0.5,0.5,0,0,0,0-.46c-0.41-1-2.57-1.9-3.39-2.67L405.77,332a6.42,6.42,0,0,1-2.22-3.13,5,5,0,0,1,.12-2.17,11.85,11.85,0,0,1,1.13-3,8.64,8.64,0,0,0,.91-1.89,2,2,0,0,0-.43-2" transform="translate(-217.51 -302.41)"/></g><g id="_Group_33" data-name="&lt;Group&gt;"><path class="cls-1" d="M405.74,321.43l2.61-.88a4.56,4.56,0,0,1,2.66-.33,5,5,0,0,1,2,1.52c2.61,2.67,5.78,4.73,8.37,7.42,1.1,1.15,2.09,2.4,3.23,3.51a44.54,44.54,0,0,0,4.55,3.63,4.34,4.34,0,0,1,2,2.64,2.89,2.89,0,0,1-.82,2.24,7.26,7.26,0,0,1-2,1.42,11.64,11.64,0,0,1-4.41,1.52,13,13,0,0,1-5.12-.88,12.48,12.48,0,0,1-4.24-2.08c-1.54-1.3-2.43-3.21-3.88-4.61-0.83-.8-1.82-1.42-2.62-2.25-0.6-.63-1.73-1.11-2.29-1.77-0.85-1-1.24-2.08-2.15-3a1.63,1.63,0,0,1-.41-0.6,1.58,1.58,0,0,1,0-.79,16.92,16.92,0,0,1,1.19-4.45c0.39-.76.85-1.45,1.24-2.21" transform="translate(-217.51 -302.41)"/></g><g id="_Group_34" data-name="&lt;Group&gt;"><path class="cls-1" d="M406,319.91l2.33-3a2.61,2.61,0,0,0,.37-0.57,2.13,2.13,0,0,0,.14-0.62,2.06,2.06,0,0,0-.36-1.58,1.78,1.78,0,0,0-1.4-.51c-1.56,0-2.82,1.26-3.79,2.49a3.78,3.78,0,0,0-.91,1.78,1.45,1.45,0,0,0,.91,1.61,3.35,3.35,0,0,1,1,.2c0.33,0.21.41,0.67,0.73,0.88a0.67,0.67,0,0,0,1-.7" transform="translate(-217.51 -302.41)"/></g><g id="_Group_35" data-name="&lt;Group&gt;"><path class="cls-3" d="M408.14,316.85a22.28,22.28,0,0,0-2.15,2.38c-0.48.61-.89,1.58-0.28,2.07a1.58,1.58,0,0,0,1.47,0l3.23-1.1a2.21,2.21,0,0,0,1.43-1.09l2.29-3.24a3.44,3.44,0,0,0,.86-2.09,1.19,1.19,0,0,0-1.58-1.1,6.59,6.59,0,0,0-.82.92,1.55,1.55,0,0,1-2.18-.48,3.6,3.6,0,0,1-.38-2.45,3.17,3.17,0,0,1,.87-2.07,2.85,2.85,0,0,1,2.21-.51c0.77,0.09,1.53.32,2.3,0.33a1,1,0,0,0,1.13-.66,1.07,1.07,0,0,0-.22-0.64,20.66,20.66,0,0,0-1.9-2.6,1.33,1.33,0,0,0-.68-0.5,1.31,1.31,0,0,0-.7.11,15,15,0,0,0-5.22,3.24,2.51,2.51,0,0,0-.85,1.31,2.73,2.73,0,0,0,.22,1.33l1.11,3.2c0.41,1.19.78,2.64,0,3.6" transform="translate(-217.51 -302.41)"/></g></g><g id="_Group_36" data-name="&lt;Group&gt;"><g id="_Group_37" data-name="&lt;Group&gt;"><path class="cls-1" d="M299.39,306.28c2.57,0.74,5.16,2.07,6.45,4.41s1.06,5.09.81,7.7l-0.75,7.9a30,30,0,0,1-.61,4.26,15.13,15.13,0,0,1-4.82,7.86,6.4,6.4,0,0,1,.07-4.11c0.24-.66.59-1.28,0.86-1.92a20.3,20.3,0,0,0,1-3.44l2.24-9.49c0.34-1.46.63-3.18-.38-4.29s-3.35-1.13-4.15-2.58c-0.47-.85-0.43-2.19-1.37-2.44a10.06,10.06,0,0,1-1.27-.09,1.19,1.19,0,0,1-.61-0.74,2.35,2.35,0,0,1,3.15-2.94" transform="translate(-217.51 -302.41)"/></g><g id="_Group_38" data-name="&lt;Group&gt;"><path class="cls-2" d="M299.29,311.49c-0.41,1.12-.88.52-2.08,0.48s-2.34-.48-3.53-0.58a2.2,2.2,0,0,0-1.57.33,2.51,2.51,0,0,0-.73,1.63c-0.47,2.86-.38,5.79-0.84,8.65-0.72,4.39-2.75,8.54-3,13-0.1,2.13.38,4.53,2.15,5.71,1.58,1.06,3.67.81,5.53,0.39a11,11,0,0,0,5.07-2.21A2.36,2.36,0,0,0,301,338a3.14,3.14,0,0,0,.15-1.1c0.17-6.76,3.8-13.08,4-19.84a4.79,4.79,0,0,0-.76-3.15c-1-1.27-3-1.47-3.91-2.84a0.86,0.86,0,0,0-.33-0.37c-0.39-.17-0.7.35-0.8,0.77" transform="translate(-217.51 -302.41)"/></g><g id="_Group_39" data-name="&lt;Group&gt;"><path class="cls-2" d="M289.45,304.28a2,2,0,0,0-1.19-1.62,3.38,3.38,0,0,0-2.07-.16,7,7,0,0,0-3.47,2,19,19,0,0,0-2.47,3.2,14.8,14.8,0,0,0-1.19,2.06,16.74,16.74,0,0,0-.89,2.95c-0.29,1.2-.59,2.39-1,3.56a46,46,0,0,0-1.77,5.93,13.72,13.72,0,0,0,0,4.88,4.78,4.78,0,0,0,1,1.67,0.5,0.5,0,0,0,.38-0.25c0.68-.89.32-3.18,0.56-4.27l2.34-10.8a6.42,6.42,0,0,1,1.55-3.51,5,5,0,0,1,1.93-1,11.85,11.85,0,0,1,3.12-.54,8.64,8.64,0,0,0,2.09-.19,2,2,0,0,0,1.46-1.37" transform="translate(-217.51 -302.41)"/></g><g id="_Group_40" data-name="&lt;Group&gt;"><path class="cls-1" d="M288.78,308l2.09,1.79a4.56,4.56,0,0,1,1.65,2.12,5,5,0,0,1-.27,2.53c-1,3.61-1.11,7.39-2.09,11-0.42,1.53-1,3-1.36,4.57a44.54,44.54,0,0,0-.79,5.77,4.34,4.34,0,0,1-1.22,3.1,2.89,2.89,0,0,1-2.34.44,7.26,7.26,0,0,1-2.24-1,11.64,11.64,0,0,1-3.56-3,13,13,0,0,1-1.86-4.85,12.48,12.48,0,0,1-.39-4.71c0.33-2,1.51-3.73,2-5.69,0.26-1.12.29-2.29,0.6-3.4,0.23-.84.06-2.05,0.35-2.88,0.43-1.25,1.16-2.13,1.51-3.4a1.63,1.63,0,0,1,.3-0.66,1.58,1.58,0,0,1,.69-0.4,16.92,16.92,0,0,1,4.43-1.26c0.85-.06,1.68,0,2.54-0.07" transform="translate(-217.51 -302.41)"/></g><g id="_Group_41" data-name="&lt;Group&gt;"><path class="cls-1" d="M290.22,307.43L294,307.9a2.61,2.61,0,0,0,.68,0,2.13,2.13,0,0,0,.6-0.2,2.06,2.06,0,0,0,1.18-1.12,1.78,1.78,0,0,0-.28-1.47c-0.84-1.32-2.53-1.78-4.08-2a3.78,3.78,0,0,0-2,.12,1.45,1.45,0,0,0-.92,1.61,3.35,3.35,0,0,1,.35,1c0,0.39-.36.7-0.38,1.08a0.67,0.67,0,0,0,1.13.52" transform="translate(-217.51 -302.41)"/></g><g id="_Group_42" data-name="&lt;Group&gt;"><path class="cls-3" d="M293.94,307.7a22.28,22.28,0,0,0-3.15-.63c-0.77-.1-1.82,0-1.92.82a1.58,1.58,0,0,0,.75,1.26l2.6,2.21a2.21,2.21,0,0,0,1.67.67l4,0.31a3.44,3.44,0,0,0,2.24-.33,1.19,1.19,0,0,0,.14-1.92,6.59,6.59,0,0,0-1.21-.24,1.55,1.55,0,0,1-.71-2.12,3.6,3.6,0,0,1,1.91-1.58,3.17,3.17,0,0,1,2.22-.32,2.85,2.85,0,0,1,1.56,1.64c0.32,0.71.51,1.47,0.89,2.15a1,1,0,0,0,1.15.64,1.07,1.07,0,0,0,.44-0.52,20.66,20.66,0,0,0,1.26-3,1.33,1.33,0,0,0,.08-0.84,1.31,1.31,0,0,0-.46-0.55,15,15,0,0,0-5.45-2.83,2.51,2.51,0,0,0-1.56-.06,2.73,2.73,0,0,0-1,.87L297.14,306c-0.81,1-1.86,2-3.11,1.82" transform="translate(-217.51 -302.41)"/></g></g><g id="_Group_43" data-name="&lt;Group&gt;"><g id="_Group_44" data-name="&lt;Group&gt;"><path class="cls-1" d="M249.71,321.48c2.31,1.36,4.49,3.28,5.16,5.87s-0.23,5.19-1.12,7.66l-2.68,7.47a30,30,0,0,1-1.64,4,15.13,15.13,0,0,1-6.61,6.42,6.4,6.4,0,0,1,1.08-4c0.39-.58.88-1.09,1.31-1.65a20.3,20.3,0,0,0,1.85-3.08l4.51-8.64c0.69-1.33,1.39-2.93.69-4.25s-3-1.92-3.38-3.53c-0.24-.94.13-2.23-0.73-2.7a10.06,10.06,0,0,1-1.21-.4,1.19,1.19,0,0,1-.41-0.87,2.35,2.35,0,0,1,3.78-2.07" transform="translate(-217.51 -302.41)"/></g><g id="_Group_45" data-name="&lt;Group&gt;"><path class="cls-2" d="M248.32,326.51c-0.67,1-1,.29-2.13-0.05s-2.15-1-3.28-1.44a2.2,2.2,0,0,0-1.6-.07,2.51,2.51,0,0,0-1.11,1.4c-1.16,2.65-1.79,5.51-3,8.17-1.78,4.07-4.77,7.59-6.08,11.84-0.62,2-.76,4.48.67,6.07,1.27,1.41,3.36,1.69,5.26,1.75a11,11,0,0,0,5.46-.89,2.36,2.36,0,0,0,.84-0.65,3.14,3.14,0,0,0,.42-1c1.84-6.51,6.92-11.73,8.75-18.24a4.79,4.79,0,0,0,0-3.24c-0.67-1.49-2.58-2.17-3.09-3.72a0.86,0.86,0,0,0-.22-0.44c-0.33-.26-0.77.17-1,0.55" transform="translate(-217.51 -302.41)"/></g><g id="_Group_46" data-name="&lt;Group&gt;"><path class="cls-2" d="M240.57,317.09a2,2,0,0,0-.75-1.86,3.38,3.38,0,0,0-2-.67,7,7,0,0,0-3.85,1.06,19,19,0,0,0-3.18,2.49,14.8,14.8,0,0,0-1.66,1.7,16.74,16.74,0,0,0-1.59,2.64c-0.57,1.09-1.16,2.17-1.81,3.22a46,46,0,0,0-3.18,5.3,13.72,13.72,0,0,0-1.16,4.73,4.78,4.78,0,0,0,.54,1.86,0.5,0.5,0,0,0,.43-0.14c0.88-.69,1.1-3,1.6-4l4.93-9.89a6.42,6.42,0,0,1,2.37-3,5,5,0,0,1,2.12-.5,11.85,11.85,0,0,1,3.15.25,8.64,8.64,0,0,0,2.07.33,2,2,0,0,0,1.75-1" transform="translate(-217.51 -302.41)"/></g><g id="_Group_47" data-name="&lt;Group&gt;"><path class="cls-1" d="M239,320.52l1.59,2.25a4.56,4.56,0,0,1,1.08,2.46,5,5,0,0,1-.88,2.38c-1.82,3.26-2.9,6.89-4.75,10.13-0.79,1.38-1.71,2.69-2.45,4.09a44.54,44.54,0,0,0-2.19,5.4,4.34,4.34,0,0,1-2,2.7,2.89,2.89,0,0,1-2.38-.15,7.26,7.26,0,0,1-1.93-1.51,11.64,11.64,0,0,1-2.71-3.8,13,13,0,0,1-.6-5.16,12.48,12.48,0,0,1,.79-4.66c0.81-1.84,2.39-3.24,3.32-5,0.53-1,.84-2.15,1.42-3.15,0.43-.75.57-2,1-2.7,0.72-1.1,1.65-1.78,2.3-2.92a1.63,1.63,0,0,1,.46-0.56,1.58,1.58,0,0,1,.77-0.21,16.92,16.92,0,0,1,4.61-.12c0.84,0.15,1.63.41,2.48,0.56" transform="translate(-217.51 -302.41)"/></g><g id="_Group_48" data-name="&lt;Group&gt;"><path class="cls-1" d="M240.54,320.33l3.52,1.38a2.61,2.61,0,0,0,.65.19,2.13,2.13,0,0,0,.63,0,2.06,2.06,0,0,0,1.42-.79,1.78,1.78,0,0,0,.09-1.49c-0.49-1.49-2-2.35-3.46-2.93a3.78,3.78,0,0,0-2-.37,1.45,1.45,0,0,0-1.28,1.33,3.35,3.35,0,0,1,.1,1c-0.11.37-.52,0.59-0.64,1a0.67,0.67,0,0,0,1,.79" transform="translate(-217.51 -302.41)"/></g><g id="_Group_49" data-name="&lt;Group&gt;"><path class="cls-3" d="M244.08,321.52a22.28,22.28,0,0,0-2.9-1.39c-0.72-.28-1.77-0.4-2.06.32a1.58,1.58,0,0,0,.41,1.41l2,2.79a2.21,2.21,0,0,0,1.45,1.06l3.76,1.28a3.44,3.44,0,0,0,2.25.23,1.19,1.19,0,0,0,.61-1.83,6.59,6.59,0,0,0-1.12-.53,1.55,1.55,0,0,1-.16-2.23,3.6,3.6,0,0,1,2.24-1.06,3.17,3.17,0,0,1,2.23.24,2.85,2.85,0,0,1,1.11,2c0.14,0.76.13,1.55,0.34,2.3a1,1,0,0,0,1,.9,1.07,1.07,0,0,0,.55-0.39,20.66,20.66,0,0,0,2-2.56,1.33,1.33,0,0,0,.29-0.8,1.31,1.31,0,0,0-.31-0.64,15,15,0,0,0-4.59-4.09,2.51,2.51,0,0,0-1.49-.45,2.73,2.73,0,0,0-1.21.59l-2.76,2c-1,.73-2.31,1.5-3.46,1" transform="translate(-217.51 -302.41)"/></g></g><g id="_Group_50" data-name="&lt;Group&gt;"><g id="_Group_51" data-name="&lt;Group&gt;"><path class="cls-1" d="M405.46,343.78c1.27,2.35,2.14,5.13,1.38,7.69s-2.88,4.32-4.92,6l-6.15,5a30,30,0,0,1-3.46,2.55,15.13,15.13,0,0,1-9,2.08,6.4,6.4,0,0,1,3-2.83c0.64-.29,1.32-0.48,2-0.73a20.3,20.3,0,0,0,3.18-1.68l8.33-5.06c1.28-.78,2.71-1.79,2.79-3.28,0.1-1.66-1.55-3.18-1.07-4.77,0.28-.93,1.26-1.85.78-2.69a10.06,10.06,0,0,1-.83-1,1.19,1.19,0,0,1,.1-1,2.35,2.35,0,0,1,4.3.18" transform="translate(-217.51 -302.41)"/></g><g id="_Group_52" data-name="&lt;Group&gt;"><path class="cls-2" d="M401.67,347.36c-1.09.5-1-.26-1.8-1.15s-1.3-2-2.06-2.93a2.2,2.2,0,0,0-1.34-.88,2.51,2.51,0,0,0-1.67.62c-2.37,1.67-4.39,3.79-6.75,5.46-3.63,2.57-8,4-11.32,7-1.59,1.42-3,3.45-2.56,5.54,0.36,1.87,2,3.18,3.6,4.21a11,11,0,0,0,5.13,2.06,2.36,2.36,0,0,0,1.06-.13,3.14,3.14,0,0,0,.89-0.66c4.94-4.62,12-6.47,16.92-11.09a4.79,4.79,0,0,0,1.71-2.75c0.19-1.62-1.08-3.2-.72-4.78a0.86,0.86,0,0,0,0-.49c-0.15-.4-0.74-0.25-1.11,0" transform="translate(-217.51 -302.41)"/></g><g id="_Group_53" data-name="&lt;Group&gt;"><path class="cls-2" d="M399.9,335.29a2,2,0,0,0,.32-2,3.38,3.38,0,0,0-1.34-1.59,7,7,0,0,0-3.84-1.08,19,19,0,0,0-4,.49,14.8,14.8,0,0,0-2.3.6,16.74,16.74,0,0,0-2.72,1.44c-1.05.64-2.12,1.26-3.21,1.82a46,46,0,0,0-5.47,2.89,13.72,13.72,0,0,0-3.44,3.45,4.78,4.78,0,0,0-.5,1.87,0.5,0.5,0,0,0,.45.1c1.11-.14,2.49-2,3.44-2.6l9.33-5.91a6.42,6.42,0,0,1,3.59-1.35,5,5,0,0,1,2.07.66,11.85,11.85,0,0,1,2.57,1.84,8.64,8.64,0,0,0,1.6,1.36,2,2,0,0,0,2,.08" transform="translate(-217.51 -302.41)"/></g><g id="_Group_54" data-name="&lt;Group&gt;"><path class="cls-1" d="M396.79,337.42l0.19,2.75a4.56,4.56,0,0,1-.35,2.66,5,5,0,0,1-2,1.58c-3.24,1.85-6,4.4-9.3,6.22-1.39.78-2.85,1.42-4.21,2.24a44.54,44.54,0,0,0-4.66,3.49,4.34,4.34,0,0,1-3.07,1.31,2.89,2.89,0,0,1-2-1.36,7.26,7.26,0,0,1-.87-2.29,11.64,11.64,0,0,1-.36-4.65,13,13,0,0,1,2.15-4.73,12.48,12.48,0,0,1,3.08-3.58c1.64-1.16,3.72-1.54,5.44-2.59,1-.6,1.83-1.4,2.84-2,0.76-.42,1.51-1.4,2.29-1.77,1.19-.57,2.33-0.67,3.48-1.31a1.63,1.63,0,0,1,.68-0.25,1.58,1.58,0,0,1,.76.21,16.92,16.92,0,0,1,4,2.28c0.64,0.57,1.19,1.19,1.83,1.76" transform="translate(-217.51 -302.41)"/></g><g id="_Group_55" data-name="&lt;Group&gt;"><path class="cls-1" d="M398.2,338.05l2.29,3a2.61,2.61,0,0,0,.46.5,2.13,2.13,0,0,0,.57.29,2.06,2.06,0,0,0,1.62.06,1.78,1.78,0,0,0,.85-1.23c0.35-1.52-.51-3.05-1.45-4.3a3.78,3.78,0,0,0-1.49-1.33,1.45,1.45,0,0,0-1.79.48,3.35,3.35,0,0,1-.45.93c-0.28.26-.75,0.23-1,0.49a0.67,0.67,0,0,0,.42,1.17" transform="translate(-217.51 -302.41)"/></g><g id="_Group_56" data-name="&lt;Group&gt;"><path class="cls-3" d="M400.62,340.9a22.28,22.28,0,0,0-1.76-2.68c-0.47-.62-1.31-1.26-1.93-0.79a1.58,1.58,0,0,0-.37,1.42l0.25,3.41a2.21,2.21,0,0,0,.69,1.66l2.55,3a3.44,3.44,0,0,0,1.81,1.36,1.19,1.19,0,0,0,1.47-1.25,6.59,6.59,0,0,0-.68-1,1.55,1.55,0,0,1,1-2,3.6,3.6,0,0,1,2.46.25,3.17,3.17,0,0,1,1.78,1.36,2.85,2.85,0,0,1-.07,2.26c-0.28.73-.69,1.4-0.9,2.15a1,1,0,0,0,.35,1.26,1.07,1.07,0,0,0,.67-0.05,20.66,20.66,0,0,0,3-1.18,1.33,1.33,0,0,0,.66-0.53,1.31,1.31,0,0,0,.07-0.71,15,15,0,0,0-1.81-5.87,2.51,2.51,0,0,0-1-1.16,2.73,2.73,0,0,0-1.34-.12l-3.38.26c-1.26.1-2.75,0.09-3.48-.94" transform="translate(-217.51 -302.41)"/></g></g><g id="_Group_57" data-name="&lt;Group&gt;"><g id="_Group_58" data-name="&lt;Group&gt;"><path class="cls-1" d="M336.29,337c1.27,2.35,2.14,5.13,1.38,7.69s-2.88,4.32-4.92,6l-6.15,5a30,30,0,0,1-3.46,2.55,15.13,15.13,0,0,1-9,2.08,6.4,6.4,0,0,1,3-2.83c0.64-.29,1.32-0.48,2-0.73a20.3,20.3,0,0,0,3.18-1.68l8.33-5.06c1.28-.78,2.71-1.79,2.79-3.28,0.1-1.66-1.55-3.18-1.07-4.77,0.28-.93,1.26-1.85.78-2.69a10.06,10.06,0,0,1-.83-1,1.19,1.19,0,0,1,.1-1,2.35,2.35,0,0,1,4.3.18" transform="translate(-217.51 -302.41)"/></g><g id="_Group_59" data-name="&lt;Group&gt;"><path class="cls-2" d="M332.5,340.61c-1.09.5-1-.26-1.8-1.15s-1.3-2-2.06-2.93a2.2,2.2,0,0,0-1.34-.88,2.51,2.51,0,0,0-1.67.62c-2.37,1.67-4.39,3.79-6.75,5.46-3.63,2.57-8,4-11.32,7-1.59,1.42-3,3.45-2.56,5.54,0.36,1.87,2,3.18,3.6,4.21a11,11,0,0,0,5.13,2.06,2.36,2.36,0,0,0,1.06-.13,3.14,3.14,0,0,0,.89-0.66c4.94-4.62,12-6.47,16.92-11.09a4.79,4.79,0,0,0,1.71-2.75c0.19-1.62-1.08-3.2-.72-4.78a0.86,0.86,0,0,0,0-.49c-0.15-.4-0.74-0.25-1.11,0" transform="translate(-217.51 -302.41)"/></g><g id="_Group_60" data-name="&lt;Group&gt;"><path class="cls-2" d="M330.73,328.55a2,2,0,0,0,.32-2,3.38,3.38,0,0,0-1.34-1.59,7,7,0,0,0-3.84-1.08,19,19,0,0,0-4,.49,14.8,14.8,0,0,0-2.3.6,16.74,16.74,0,0,0-2.72,1.44c-1.05.64-2.12,1.26-3.21,1.82a46,46,0,0,0-5.47,2.89,13.72,13.72,0,0,0-3.44,3.45,4.78,4.78,0,0,0-.5,1.87,0.5,0.5,0,0,0,.45.1c1.11-.14,2.49-2,3.44-2.6l9.33-5.91a6.42,6.42,0,0,1,3.59-1.35,5,5,0,0,1,2.07.66,11.85,11.85,0,0,1,2.57,1.84,8.64,8.64,0,0,0,1.6,1.36,2,2,0,0,0,2,.08" transform="translate(-217.51 -302.41)"/></g><g id="_Group_61" data-name="&lt;Group&gt;"><path class="cls-1" d="M327.63,330.67l0.19,2.75a4.56,4.56,0,0,1-.35,2.66,5,5,0,0,1-2,1.58c-3.24,1.85-6,4.4-9.3,6.22-1.39.78-2.85,1.42-4.21,2.24a44.54,44.54,0,0,0-4.66,3.49,4.34,4.34,0,0,1-3.07,1.31,2.89,2.89,0,0,1-2-1.36,7.26,7.26,0,0,1-.87-2.29,11.64,11.64,0,0,1-.36-4.65,13,13,0,0,1,2.15-4.73,12.48,12.48,0,0,1,3.08-3.58c1.64-1.16,3.72-1.54,5.44-2.59,1-.6,1.83-1.4,2.84-2,0.76-.42,1.51-1.4,2.29-1.77,1.19-.57,2.33-0.67,3.48-1.31a1.63,1.63,0,0,1,.68-0.25,1.58,1.58,0,0,1,.76.21,16.92,16.92,0,0,1,4,2.28c0.64,0.57,1.19,1.19,1.83,1.76" transform="translate(-217.51 -302.41)"/></g><g id="_Group_62" data-name="&lt;Group&gt;"><path class="cls-1" d="M329,331.3l2.29,3a2.61,2.61,0,0,0,.46.5,2.13,2.13,0,0,0,.57.29,2.06,2.06,0,0,0,1.62.06,1.78,1.78,0,0,0,.85-1.23c0.35-1.52-.51-3.05-1.45-4.3a3.78,3.78,0,0,0-1.49-1.33,1.45,1.45,0,0,0-1.79.48,3.35,3.35,0,0,1-.45.93c-0.28.26-.75,0.23-1,0.49a0.67,0.67,0,0,0,.42,1.17" transform="translate(-217.51 -302.41)"/></g><g id="_Group_63" data-name="&lt;Group&gt;"><path class="cls-3" d="M331.45,334.15a22.28,22.28,0,0,0-1.76-2.68c-0.47-.62-1.31-1.26-1.93-0.79a1.58,1.58,0,0,0-.37,1.42l0.25,3.41a2.21,2.21,0,0,0,.69,1.66l2.55,3a3.44,3.44,0,0,0,1.81,1.36,1.19,1.19,0,0,0,1.47-1.25,6.59,6.59,0,0,0-.68-1,1.55,1.55,0,0,1,1-2,3.6,3.6,0,0,1,2.46.25,3.17,3.17,0,0,1,1.78,1.36,2.85,2.85,0,0,1-.07,2.26c-0.28.73-.69,1.4-0.9,2.15a1,1,0,0,0,.35,1.26,1.07,1.07,0,0,0,.67-0.05,20.66,20.66,0,0,0,3-1.18,1.33,1.33,0,0,0,.66-0.53,1.31,1.31,0,0,0,.07-0.71,15,15,0,0,0-1.81-5.87,2.51,2.51,0,0,0-1-1.16,2.73,2.73,0,0,0-1.34-.12l-3.38.26c-1.26.1-2.75,0.09-3.48-.94" transform="translate(-217.51 -302.41)"/></g></g><g id="_Group_64" data-name="&lt;Group&gt;"><g id="_Group_65" data-name="&lt;Group&gt;"><path class="cls-1" d="M317.73,369.93c1.27,2.35,2.14,5.13,1.38,7.69s-2.88,4.32-4.92,6l-6.15,5a30,30,0,0,1-3.46,2.55,15.13,15.13,0,0,1-9,2.08,6.4,6.4,0,0,1,3-2.83c0.64-.29,1.32-0.48,2-0.73a20.3,20.3,0,0,0,3.18-1.68l8.33-5.06c1.28-.78,2.71-1.79,2.79-3.28,0.1-1.66-1.55-3.18-1.07-4.77,0.28-.93,1.26-1.85.78-2.69a10.06,10.06,0,0,1-.83-1,1.19,1.19,0,0,1,.1-1,2.35,2.35,0,0,1,4.3.18" transform="translate(-217.51 -302.41)"/></g><g id="_Group_66" data-name="&lt;Group&gt;"><path class="cls-2" d="M313.95,373.51c-1.09.5-1-.26-1.8-1.15s-1.3-2-2.06-2.93a2.2,2.2,0,0,0-1.34-.88,2.51,2.51,0,0,0-1.67.62c-2.37,1.67-4.39,3.79-6.75,5.46-3.63,2.57-8,4-11.32,7-1.59,1.42-3,3.45-2.56,5.54,0.36,1.87,2,3.18,3.6,4.21a11,11,0,0,0,5.13,2.06,2.36,2.36,0,0,0,1.06-.13,3.14,3.14,0,0,0,.89-0.66c4.94-4.62,12-6.47,16.92-11.09a4.79,4.79,0,0,0,1.71-2.75c0.19-1.62-1.08-3.2-.72-4.78a0.86,0.86,0,0,0,0-.49c-0.15-.4-0.74-0.25-1.11,0" transform="translate(-217.51 -302.41)"/></g><g id="_Group_67" data-name="&lt;Group&gt;"><path class="cls-2" d="M312.17,361.44a2,2,0,0,0,.32-2,3.38,3.38,0,0,0-1.34-1.59,7,7,0,0,0-3.84-1.08,19,19,0,0,0-4,.49,14.8,14.8,0,0,0-2.3.6,16.74,16.74,0,0,0-2.72,1.44c-1.05.64-2.12,1.26-3.21,1.82A46,46,0,0,0,289.6,364a13.72,13.72,0,0,0-3.44,3.45,4.78,4.78,0,0,0-.5,1.87,0.5,0.5,0,0,0,.45.1c1.11-.14,2.49-2,3.44-2.6l9.33-5.91a6.42,6.42,0,0,1,3.59-1.35,5,5,0,0,1,2.07.66,11.85,11.85,0,0,1,2.57,1.84,8.64,8.64,0,0,0,1.6,1.36,2,2,0,0,0,2,.08" transform="translate(-217.51 -302.41)"/></g><g id="_Group_68" data-name="&lt;Group&gt;"><path class="cls-1" d="M309.07,363.57l0.19,2.75a4.56,4.56,0,0,1-.35,2.66,5,5,0,0,1-2,1.58c-3.24,1.85-6,4.4-9.3,6.22-1.39.78-2.85,1.42-4.21,2.24a44.54,44.54,0,0,0-4.66,3.49,4.34,4.34,0,0,1-3.07,1.31,2.89,2.89,0,0,1-2-1.36,7.26,7.26,0,0,1-.87-2.29,11.64,11.64,0,0,1-.36-4.65,13,13,0,0,1,2.15-4.73,12.48,12.48,0,0,1,3.08-3.58c1.64-1.16,3.72-1.54,5.44-2.59,1-.6,1.83-1.4,2.84-2,0.76-.42,1.51-1.4,2.29-1.77,1.19-.57,2.33-0.67,3.48-1.31a1.63,1.63,0,0,1,.68-0.25,1.58,1.58,0,0,1,.76.21,16.92,16.92,0,0,1,4,2.28c0.64,0.57,1.19,1.19,1.83,1.76" transform="translate(-217.51 -302.41)"/></g><g id="_Group_69" data-name="&lt;Group&gt;"><path class="cls-1" d="M310.47,364.2l2.29,3a2.61,2.61,0,0,0,.46.5,2.13,2.13,0,0,0,.57.29,2.06,2.06,0,0,0,1.62.06,1.78,1.78,0,0,0,.85-1.23c0.35-1.52-.51-3.05-1.45-4.3a3.78,3.78,0,0,0-1.49-1.33,1.45,1.45,0,0,0-1.79.48,3.35,3.35,0,0,1-.45.93c-0.28.26-.75,0.23-1,0.49a0.67,0.67,0,0,0,.42,1.17" transform="translate(-217.51 -302.41)"/></g><g id="_Group_70" data-name="&lt;Group&gt;"><path class="cls-3" d="M312.89,367a22.28,22.28,0,0,0-1.76-2.68c-0.47-.62-1.31-1.26-1.93-0.79a1.58,1.58,0,0,0-.37,1.42l0.25,3.41a2.21,2.21,0,0,0,.69,1.66l2.55,3a3.44,3.44,0,0,0,1.81,1.36,1.19,1.19,0,0,0,1.47-1.25,6.59,6.59,0,0,0-.68-1,1.55,1.55,0,0,1,1-2,3.6,3.6,0,0,1,2.46.25,3.17,3.17,0,0,1,1.78,1.36,2.85,2.85,0,0,1-.07,2.26c-0.28.73-.69,1.4-0.9,2.15a1,1,0,0,0,.35,1.26,1.07,1.07,0,0,0,.67-0.05,20.66,20.66,0,0,0,3-1.18,1.33,1.33,0,0,0,.66-0.53A1.31,1.31,0,0,0,324,375a15,15,0,0,0-1.81-5.87,2.51,2.51,0,0,0-1-1.16,2.73,2.73,0,0,0-1.34-.12l-3.38.26c-1.26.1-2.75,0.09-3.48-.94" transform="translate(-217.51 -302.41)"/></g></g><g id="_Group_71" data-name="&lt;Group&gt;"><g id="_Group_72" data-name="&lt;Group&gt;"><path class="cls-1" d="M389.69,374.74c0.27-3,1.18-6.12,3.48-8s5.37-2.25,8.3-2.53l8.85-.86a33.67,33.67,0,0,1,4.82-.24,17,17,0,0,1,9.67,3.62,7.18,7.18,0,0,1-4.54.8c-0.78-.12-1.53-0.37-2.3-0.54a22.76,22.76,0,0,0-4-.4L403,366.11c-1.68-.07-3.63,0-4.64,1.33s-0.52,3.93-2,5.12c-0.84.7-2.32,0.94-2.39,2a11.28,11.28,0,0,1,.18,1.41,1.33,1.33,0,0,1-.69.83,2.63,2.63,0,0,1-3.9-2.84" transform="translate(-217.51 -302.41)"/></g><g id="_Group_73" data-name="&lt;Group&gt;"><path class="cls-2" d="M395.44,373.74c1.32,0.21.76,0.86,1,2.18s0,2.68.11,4a2.47,2.47,0,0,0,.7,1.65,2.81,2.81,0,0,0,1.95.45c3.25-.1,6.45-0.82,9.69-0.92,5-.15,10,1.2,14.91.49,2.36-.34,4.91-1.38,5.83-3.58,0.82-2,.1-4.21-0.75-6.16a12.31,12.31,0,0,0-3.52-5.11,2.65,2.65,0,0,0-1.06-.54,3.52,3.52,0,0,0-1.24.07c-7.48,1.25-15.2-1.39-22.68-.13a5.37,5.37,0,0,0-3.3,1.51c-1.18,1.39-1,3.66-2.29,4.92a1,1,0,0,0-.33.44c-0.11.46,0.54,0.69,1,.72" transform="translate(-217.51 -302.41)"/></g><g id="_Group_74" data-name="&lt;Group&gt;"><path class="cls-2" d="M389.62,386.11a2.22,2.22,0,0,0-1.53,1.65,3.79,3.79,0,0,0,.26,2.31,7.87,7.87,0,0,0,2.92,3.4,21.34,21.34,0,0,0,4.05,2,16.6,16.6,0,0,0,2.52.87,18.77,18.77,0,0,0,3.43.35c1.38,0.06,2.76.14,4.13,0.3a51.57,51.57,0,0,0,6.9.69,15.38,15.38,0,0,0,5.36-1.09,5.35,5.35,0,0,0,1.63-1.44,0.56,0.56,0,0,0-.35-0.37c-1.12-.56-3.57.33-4.82,0.3l-12.38-.26a7.2,7.2,0,0,1-4.19-1A5.64,5.64,0,0,1,396,392a13.28,13.28,0,0,1-1.26-3.31,9.69,9.69,0,0,0-.65-2.26,2.22,2.22,0,0,0-1.82-1.31" transform="translate(-217.51 -302.41)"/></g><g id="_Group_75" data-name="&lt;Group&gt;"><path class="cls-1" d="M393.83,386l1.52-2.69a5.11,5.11,0,0,1,2-2.27,5.61,5.61,0,0,1,2.84-.25c4.17,0.29,8.37-.36,12.54,0,1.78,0.14,3.54.45,5.32,0.52a49.93,49.93,0,0,0,6.52-.37c1.28-.11,2.71-0.16,3.68.68a3.24,3.24,0,0,1,1,2.49,8.13,8.13,0,0,1-.61,2.68,13.05,13.05,0,0,1-2.55,4.56,14.6,14.6,0,0,1-4.94,3.08,14,14,0,0,1-5.1,1.43c-2.25.07-4.43-.87-6.68-1-1.29-.05-2.58.17-3.87,0.07-1-.08-2.27.37-3.24,0.23-1.46-.2-2.59-0.82-4.06-0.93a1.82,1.82,0,0,1-.79-0.19,1.77,1.77,0,0,1-.58-0.67,19,19,0,0,1-2.33-4.61c-0.25-.93-0.37-1.85-0.62-2.78" transform="translate(-217.51 -302.41)"/></g><g id="_Group_76" data-name="&lt;Group&gt;"><path class="cls-1" d="M392.91,384.59l-0.28-4.23a2.93,2.93,0,0,0-.12-0.76,2.39,2.39,0,0,0-.35-0.62,2.31,2.31,0,0,0-1.48-1.06,2,2,0,0,0-1.55.62c-1.27,1.21-1.42,3.16-1.31,4.91a4.24,4.24,0,0,0,.56,2.17,1.62,1.62,0,0,0,2,.66,3.76,3.76,0,0,1,1-.59c0.43-.07.84,0.25,1.27,0.19a0.75,0.75,0,0,0,.34-1.36" transform="translate(-217.51 -302.41)"/></g><g id="_Group_77" data-name="&lt;Group&gt;"><path class="cls-3" d="M392.41,380.43a25,25,0,0,0,0,3.6c0.06,0.87.44,2,1.31,1.93a1.77,1.77,0,0,0,1.23-1.09l1.88-3.34a2.48,2.48,0,0,0,.38-2l-0.5-4.42a3.86,3.86,0,0,0-.84-2.39c-0.62-.61-1.88-0.56-2.15.26a7.39,7.39,0,0,0,0,1.38,1.74,1.74,0,0,1-2.18,1.23,4,4,0,0,1-2.14-1.76,3.56,3.56,0,0,1-.82-2.38A3.2,3.2,0,0,1,390,369.4c0.71-.5,1.51-0.88,2.17-1.44a1.13,1.13,0,0,0,.46-1.4,1.2,1.2,0,0,0-.66-0.37,23.16,23.16,0,0,0-3.53-.75,1.49,1.49,0,0,0-.94.09,1.47,1.47,0,0,0-.51.62,16.84,16.84,0,0,0-1.95,6.61,2.81,2.81,0,0,0,.26,1.73,3.06,3.06,0,0,0,1.18.94l3.32,1.85c1.23,0.69,2.62,1.62,2.67,3" transform="translate(-217.51 -302.41)"/></g></g><g id="_Group_78" data-name="&lt;Group&gt;"><g id="_Group_79" data-name="&lt;Group&gt;"><path class="cls-1" d="M251.81,378.28c0.26-2.33,1-4.75,2.85-6.21s4.23-1.66,6.52-1.83l6.92-.52a26.28,26.28,0,0,1,3.76-.1,13.23,13.23,0,0,1,7.48,3,5.6,5.6,0,0,1-3.55.55c-0.61-.11-1.19-0.32-1.78-0.46a17.76,17.76,0,0,0-3.12-.38l-8.51-.53c-1.31-.08-2.84-0.07-3.65,1s-0.48,3.06-1.61,4c-0.67.53-1.83,0.69-1.9,1.54a8.8,8.8,0,0,1,.11,1.11,1,1,0,0,1-.55.64,2.06,2.06,0,0,1-3-2.28" transform="translate(-217.51 -302.41)"/></g><g id="_Group_80" data-name="&lt;Group&gt;"><path class="cls-2" d="M256.32,377.6c1,0.19.58,0.68,0.72,1.72s-0.07,2.09,0,3.13a1.93,1.93,0,0,0,.52,1.3,2.19,2.19,0,0,0,1.51.39c2.53,0,5-.53,7.58-0.55,3.89,0,7.77,1.11,11.63.64,1.85-.23,3.85-1,4.61-2.69,0.68-1.52.15-3.28-.48-4.82a9.61,9.61,0,0,0-2.66-4,2.07,2.07,0,0,0-.82-0.44,2.74,2.74,0,0,0-1,0c-5.86.85-11.84-1.35-17.69-.49a4.19,4.19,0,0,0-2.6,1.12c-0.95,1.07-.82,2.84-1.87,3.8a0.76,0.76,0,0,0-.27.33c-0.09.36,0.41,0.55,0.78,0.58" transform="translate(-217.51 -302.41)"/></g><g id="_Group_81" data-name="&lt;Group&gt;"><path class="cls-2" d="M251.56,387.15a1.73,1.73,0,0,0-1.22,1.26,3,3,0,0,0,.16,1.81,6.14,6.14,0,0,0,2.22,2.7,16.65,16.65,0,0,0,3.13,1.65,13,13,0,0,0,1.95.72,14.65,14.65,0,0,0,2.67.33c1.07,0.07,2.15.16,3.22,0.3a40.25,40.25,0,0,0,5.37.65,12,12,0,0,0,4.2-.76,4.18,4.18,0,0,0,1.29-1.1,0.44,0.44,0,0,0-.27-0.29c-0.86-.46-2.79.19-3.77,0.15l-9.66-.42a5.62,5.62,0,0,1-3.25-.82,4.4,4.4,0,0,1-1.16-1.51,10.36,10.36,0,0,1-.93-2.61,7.56,7.56,0,0,0-.47-1.78,1.73,1.73,0,0,0-1.4-1.05" transform="translate(-217.51 -302.41)"/></g><g id="_Group_82" data-name="&lt;Group&gt;"><path class="cls-1" d="M254.85,387.17l1.24-2.07a4,4,0,0,1,1.58-1.74,4.38,4.38,0,0,1,2.22-.14c3.25,0.29,6.54-.14,9.78.18,1.38,0.14,2.75.41,4.14,0.5a39,39,0,0,0,5.09-.17,3.79,3.79,0,0,1,2.86.6,2.53,2.53,0,0,1,.73,2,6.35,6.35,0,0,1-.52,2.08,10.18,10.18,0,0,1-2.07,3.52A11.39,11.39,0,0,1,276,394.2a10.91,10.91,0,0,1-4,1c-1.76,0-3.44-.75-5.2-0.86-1-.06-2,0.09-3,0-0.76-.08-1.78.25-2.53,0.13-1.14-.18-2-0.68-3.15-0.8a1.42,1.42,0,0,1-.61-0.16A1.38,1.38,0,0,1,257,393a14.8,14.8,0,0,1-1.74-3.64c-0.18-.73-0.26-1.45-0.43-2.18" transform="translate(-217.51 -302.41)"/></g><g id="_Group_83" data-name="&lt;Group&gt;"><path class="cls-1" d="M254.16,386l-0.15-3.3a2.29,2.29,0,0,0-.08-0.59,1.86,1.86,0,0,0-.26-0.49,1.81,1.81,0,0,0-1.14-.85,1.56,1.56,0,0,0-1.22.46,4.78,4.78,0,0,0-1.11,3.81,3.31,3.31,0,0,0,.4,1.7,1.27,1.27,0,0,0,1.52.55,2.93,2.93,0,0,1,.79-0.44c0.33,0,.65.21,1,0.17a0.59,0.59,0,0,0,.29-1.05" transform="translate(-217.51 -302.41)"/></g><g id="_Group_84" data-name="&lt;Group&gt;"><path class="cls-3" d="M253.84,382.76a19.49,19.49,0,0,0-.08,2.81c0,0.68.31,1.56,1,1.53a1.38,1.38,0,0,0,1-.83l1.52-2.57a1.94,1.94,0,0,0,.33-1.54l-0.31-3.46a3,3,0,0,0-.62-1.88A1,1,0,0,0,255,377a5.76,5.76,0,0,0,0,1.08,1.36,1.36,0,0,1-1.72.92,3.15,3.15,0,0,1-1.64-1.41,2.78,2.78,0,0,1-.6-1.87,2.5,2.5,0,0,1,1.18-1.59c0.56-.38,1.2-0.66,1.72-1.09a0.88,0.88,0,0,0,.38-1.08,0.94,0.94,0,0,0-.51-0.3A18.08,18.08,0,0,0,251,371a1.17,1.17,0,0,0-.74.05,1.15,1.15,0,0,0-.41.47,13.14,13.14,0,0,0-1.63,5.12,2.19,2.19,0,0,0,.17,1.35,2.38,2.38,0,0,0,.9.76l2.56,1.5c1,0.56,2,1.31,2,2.41" transform="translate(-217.51 -302.41)"/></g></g><g id="_Group_85" data-name="&lt;Group&gt;"><g id="_Group_86" data-name="&lt;Group&gt;"><path class="cls-1" d="M359.36,335.25c2.33,0.21,4.77.92,6.28,2.72s1.75,4.19,2,6.48l0.67,6.91a26.28,26.28,0,0,1,.18,3.76,13.23,13.23,0,0,1-2.83,7.55,5.6,5.6,0,0,1-.62-3.54c0.1-.61.29-1.19,0.42-1.79a17.76,17.76,0,0,0,.31-3.13l0.34-8.52c0.05-1.31,0-2.84-1-3.62s-3.07-.41-4-1.53c-0.54-.66-0.74-1.81-1.59-1.87a8.8,8.8,0,0,1-1.1.14,1,1,0,0,1-.65-0.54,2.06,2.06,0,0,1,2.22-3" transform="translate(-217.51 -302.41)"/></g><g id="_Group_87" data-name="&lt;Group&gt;"><path class="cls-2" d="M360.13,339.74c-0.16,1-.67.6-1.7,0.76s-2.09,0-3.13.09a1.93,1.93,0,0,0-1.29.55,2.19,2.19,0,0,0-.35,1.52c0.07,2.53.64,5,.72,7.57,0.11,3.89-.94,7.79-0.38,11.64,0.27,1.84,1.08,3.83,2.8,4.55,1.53,0.64,3.29.08,4.81-.58a9.61,9.61,0,0,0,4-2.74,2.07,2.07,0,0,0,.42-0.83,2.74,2.74,0,0,0-.05-1c-1-5.84,1.09-11.86.1-17.7a4.19,4.19,0,0,0-1.18-2.58c-1.09-.92-2.85-0.76-3.84-1.79a0.76,0.76,0,0,0-.34-0.26c-0.36-.08-0.54.42-0.56,0.79" transform="translate(-217.51 -302.41)"/></g><g id="_Group_88" data-name="&lt;Group&gt;"><path class="cls-2" d="M350.48,335.19a1.73,1.73,0,0,0-1.29-1.19,3,3,0,0,0-1.8.2,6.14,6.14,0,0,0-2.65,2.28,16.65,16.65,0,0,0-1.58,3.16,13,13,0,0,0-.68,2,14.65,14.65,0,0,0-.27,2.68c0,1.08-.11,2.15-0.23,3.22a40.25,40.25,0,0,0-.54,5.38,12,12,0,0,0,.85,4.18,4.18,4.18,0,0,0,1.13,1.27,0.44,0.44,0,0,0,.29-0.28c0.44-.87-0.25-2.78-0.23-3.76l0.21-9.66a5.62,5.62,0,0,1,.75-3.27,4.4,4.4,0,0,1,1.49-1.19,10.36,10.36,0,0,1,2.59-1,7.56,7.56,0,0,0,1.76-.51,1.73,1.73,0,0,0,1-1.42" transform="translate(-217.51 -302.41)"/></g><g id="_Group_89" data-name="&lt;Group&gt;"><path class="cls-1" d="M350.53,338.48l2.1,1.19a4,4,0,0,1,1.77,1.54,4.38,4.38,0,0,1,.19,2.22c-0.22,3.26.28,6.53,0,9.78-0.11,1.39-.35,2.76-0.41,4.15a39,39,0,0,0,.29,5.09,3.79,3.79,0,0,1-.53,2.87,2.53,2.53,0,0,1-1.94.77,6.35,6.35,0,0,1-2.09-.48,10.18,10.18,0,0,1-3.56-2,11.39,11.39,0,0,1-2.41-3.86,10.91,10.91,0,0,1-1.12-4c-0.05-1.76.68-3.46,0.75-5.22,0-1-.14-2-0.06-3,0.06-.76-0.29-1.77-0.18-2.53,0.16-1.14.64-2,.73-3.17a1.42,1.42,0,0,1,.15-0.62,1.38,1.38,0,0,1,.53-0.45,14.8,14.8,0,0,1,3.6-1.82c0.72-.19,1.44-0.29,2.17-0.48" transform="translate(-217.51 -302.41)"/></g><g id="_Group_90" data-name="&lt;Group&gt;"><path class="cls-1" d="M351.67,337.77l3.3-.22a2.29,2.29,0,0,0,.59-0.09,1.86,1.86,0,0,0,.49-0.27,1.81,1.81,0,0,0,.83-1.15,1.56,1.56,0,0,0-.49-1.21,4.78,4.78,0,0,0-3.83-1,3.31,3.31,0,0,0-1.69.44,1.27,1.27,0,0,0-.52,1.53,2.93,2.93,0,0,1,.46.78c0.05,0.33-.19.66-0.15,1a0.59,0.59,0,0,0,1.06.26" transform="translate(-217.51 -302.41)"/></g><g id="_Group_91" data-name="&lt;Group&gt;"><path class="cls-3" d="M354.91,337.38a19.49,19.49,0,0,0-2.81,0c-0.68,0-1.55.35-1.51,1a1.38,1.38,0,0,0,.85,1l2.6,1.47a1.94,1.94,0,0,0,1.54.3l3.45-.39a3,3,0,0,0,1.87-.66,1,1,0,0,0-.2-1.68,5.76,5.76,0,0,0-1.08,0,1.36,1.36,0,0,1-1-1.7A3.15,3.15,0,0,1,360,335a2.78,2.78,0,0,1,1.86-.64,2.5,2.5,0,0,1,1.62,1.14c0.39,0.55.68,1.18,1.13,1.7a0.88,0.88,0,0,0,1.09.36A0.94,0.94,0,0,0,366,337a18.08,18.08,0,0,0,.59-2.75,1.17,1.17,0,0,0-.07-0.74,1.15,1.15,0,0,0-.48-0.4,13.14,13.14,0,0,0-5.15-1.52,2.19,2.19,0,0,0-1.35.2,2.38,2.38,0,0,0-.74.92l-1.44,2.59c-0.54,1-1.26,2-2.37,2.08" transform="translate(-217.51 -302.41)"/></g></g><g id="_Group_92" data-name="&lt;Group&gt;"><g id="_Group_93" data-name="&lt;Group&gt;"><path class="cls-1" d="M492.48,330.14c1.3,2.16,2.24,4.74,1.63,7.19s-2.54,4.2-4.38,5.84l-5.59,5a28.35,28.35,0,0,1-3.16,2.55,14.28,14.28,0,0,1-8.38,2.34,6,6,0,0,1,2.69-2.8c0.59-.3,1.22-0.51,1.83-0.77a19.16,19.16,0,0,0,2.92-1.72l7.64-5.13c1.17-.79,2.47-1.8,2.49-3.21,0-1.57-1.6-2.93-1.21-4.45,0.22-.89,1.11-1.79.62-2.57a9.5,9.5,0,0,1-.82-0.87,1.12,1.12,0,0,1,.05-0.91,2.22,2.22,0,0,1,4.06,0" transform="translate(-217.51 -302.41)"/></g><g id="_Group_94" data-name="&lt;Group&gt;"><path class="cls-2" d="M489.06,333.68c-1,.52-0.95-0.2-1.74-1s-1.31-1.84-2.07-2.67a2.08,2.08,0,0,0-1.3-.78,2.37,2.37,0,0,0-1.55.66c-2.16,1.68-4,3.76-6.13,5.44-3.31,2.57-7.38,4.14-10.38,7.08-1.44,1.41-2.65,3.37-2.18,5.33,0.42,1.74,2,2.91,3.57,3.82a10.36,10.36,0,0,0,4.93,1.72,2.23,2.23,0,0,0,1-.16,3,3,0,0,0,.81-0.66c4.46-4.57,11-6.6,15.48-11.17a4.52,4.52,0,0,0,1.5-2.67c0.11-1.53-1.16-3-.88-4.48a0.82,0.82,0,0,0,0-.46c-0.16-.37-0.71-0.2-1,0" transform="translate(-217.51 -302.41)"/></g><g id="_Group_95" data-name="&lt;Group&gt;"><path class="cls-2" d="M486.88,322.38a1.87,1.87,0,0,0,.22-1.88,3.19,3.19,0,0,0-1.33-1.44,6.63,6.63,0,0,0-3.67-.86,18,18,0,0,0-3.76.63,14,14,0,0,0-2.14.66,15.8,15.8,0,0,0-2.51,1.47c-1,.64-1.94,1.27-3,1.85a43.42,43.42,0,0,0-5,3,13,13,0,0,0-3.1,3.4,4.51,4.51,0,0,0-.39,1.79,0.47,0.47,0,0,0,.42.08c1-.18,2.26-2,3.13-2.6l8.55-6a6.06,6.06,0,0,1,3.33-1.43,4.75,4.75,0,0,1,2,.54,11.18,11.18,0,0,1,2.5,1.63,8.15,8.15,0,0,0,1.57,1.21,1.87,1.87,0,0,0,1.89,0" transform="translate(-217.51 -302.41)"/></g><g id="_Group_96" data-name="&lt;Group&gt;"><path class="cls-1" d="M484,324.51l0.3,2.58a4.31,4.31,0,0,1-.22,2.53,4.72,4.72,0,0,1-1.81,1.58c-3,1.88-5.51,4.4-8.5,6.25-1.28.79-2.63,1.45-3.88,2.29a42,42,0,0,0-4.25,3.49,4.09,4.09,0,0,1-2.84,1.36,2.73,2.73,0,0,1-1.91-1.2,6.85,6.85,0,0,1-.92-2.12,11,11,0,0,1-.53-4.37,12.29,12.29,0,0,1,1.83-4.55,11.77,11.77,0,0,1,2.76-3.51c1.5-1.16,3.44-1.61,5-2.67,0.9-.61,1.67-1.4,2.6-2,0.7-.43,1.36-1.38,2.09-1.77,1.1-.59,2.17-0.73,3.23-1.38a1.54,1.54,0,0,1,.63-0.26,1.49,1.49,0,0,1,.73.17,16,16,0,0,1,3.87,2c0.63,0.51,1.17,1.07,1.8,1.58" transform="translate(-217.51 -302.41)"/></g><g id="_Group_97" data-name="&lt;Group&gt;"><path class="cls-1" d="M485.39,325l2.29,2.73a2.47,2.47,0,0,0,.45.46,2,2,0,0,0,.55.25,2,2,0,0,0,1.53,0,1.68,1.68,0,0,0,.75-1.19c0.27-1.45-.61-2.86-1.55-4a3.57,3.57,0,0,0-1.46-1.19,1.37,1.37,0,0,0-1.66.52,3.16,3.16,0,0,1-.38.9c-0.26.26-.7,0.25-1,0.5a0.63,0.63,0,0,0,.44,1.09" transform="translate(-217.51 -302.41)"/></g><g id="_Group_98" data-name="&lt;Group&gt;"><path class="cls-3" d="M487.8,327.63a21,21,0,0,0-1.78-2.46c-0.47-.56-1.29-1.13-1.85-0.66a1.49,1.49,0,0,0-.29,1.35l0.38,3.2a2.09,2.09,0,0,0,.72,1.53l2.54,2.76a3.25,3.25,0,0,0,1.76,1.21,1.13,1.13,0,0,0,1.33-1.24,6.22,6.22,0,0,0-.69-0.94,1.46,1.46,0,0,1,.87-1.92,3.39,3.39,0,0,1,2.33.14,3,3,0,0,1,1.74,1.21,2.69,2.69,0,0,1,0,2.14c-0.23.7-.59,1.35-0.76,2.06a1,1,0,0,0,.38,1.17,1,1,0,0,0,.63-0.08,19.5,19.5,0,0,0,2.77-1.24,1.26,1.26,0,0,0,.6-0.53,1.24,1.24,0,0,0,0-.67,14.18,14.18,0,0,0-2-5.46,2.37,2.37,0,0,0-1-1,2.57,2.57,0,0,0-1.27-.06l-3.17.39c-1.18.14-2.59,0.2-3.32-.73" transform="translate(-217.51 -302.41)"/></g></g><g id="_Group_99" data-name="&lt;Group&gt;"><g id="_Group_100" data-name="&lt;Group&gt;"><path class="cls-1" d="M326.49,364.55c1.53-2.35,3.66-4.53,6.4-5.11s5.42,0.5,8,1.55l7.68,3.17a31.48,31.48,0,0,1,4.08,1.92,15.85,15.85,0,0,1,6.4,7.23,6.71,6.71,0,0,1-4.1-1.33c-0.59-.44-1.1-1-1.66-1.46a21.27,21.27,0,0,0-3.14-2.09l-8.82-5.15c-1.36-.79-3-1.6-4.42-0.94-1.57.74-2.16,3-3.86,3.37-1,.21-2.33-0.24-2.87.63a10.55,10.55,0,0,1-.48,1.24,1.24,1.24,0,0,1-.93.39,2.46,2.46,0,0,1-2-4.06" transform="translate(-217.51 -302.41)"/></g><g id="_Group_101" data-name="&lt;Group&gt;"><path class="cls-2" d="M331.68,366.25c1,0.75.25,1-.16,2.23s-1.2,2.2-1.67,3.36a2.31,2.31,0,0,0-.15,1.67,2.63,2.63,0,0,0,1.41,1.23c2.72,1.35,5.68,2.15,8.4,3.5,4.18,2.07,7.71,5.37,12.1,6.94,2.1,0.75,4.65,1,6.38-.4,1.54-1.26,1.93-3.43,2.09-5.42a11.51,11.51,0,0,0-.66-5.76,2.48,2.48,0,0,0-.64-0.91,3.29,3.29,0,0,0-1.05-.49c-6.72-2.25-11.94-7.82-18.66-10.05a5,5,0,0,0-3.39-.21c-1.59.63-2.4,2.59-4,3.05a0.91,0.91,0,0,0-.47.21c-0.29.34,0.14,0.81,0.52,1" transform="translate(-217.51 -302.41)"/></g><g id="_Group_102" data-name="&lt;Group&gt;"><path class="cls-2" d="M321.45,373.9a2.07,2.07,0,0,0-2,.69,3.54,3.54,0,0,0-.8,2,7.36,7.36,0,0,0,.92,4.08,20,20,0,0,0,2.45,3.45,15.51,15.51,0,0,0,1.7,1.82,17.55,17.55,0,0,0,2.68,1.79c1.11,0.65,2.21,1.33,3.28,2.06a48.21,48.21,0,0,0,5.39,3.59,14.38,14.38,0,0,0,4.9,1.45,5,5,0,0,0,2-.48,0.52,0.52,0,0,0-.13-0.46c-0.68-1-3.09-1.3-4.11-1.87l-10.1-5.65a6.73,6.73,0,0,1-3-2.63,5.27,5.27,0,0,1-.42-2.24,12.41,12.41,0,0,1,.41-3.29,9.05,9.05,0,0,0,.45-2.15,2.07,2.07,0,0,0-.93-1.88" transform="translate(-217.51 -302.41)"/></g><g id="_Group_103" data-name="&lt;Group&gt;"><path class="cls-1" d="M325,375.7l2.44-1.55a4.78,4.78,0,0,1,2.63-1,5.24,5.24,0,0,1,2.45,1c3.32,2.07,7.07,3.37,10.37,5.47,1.41,0.89,2.73,1.92,4.16,2.76a46.67,46.67,0,0,0,5.54,2.56,4.55,4.55,0,0,1,2.74,2.18,3,3,0,0,1-.27,2.49,7.6,7.6,0,0,1-1.68,1.94,12.2,12.2,0,0,1-4.11,2.65,13.65,13.65,0,0,1-5.43.38,13.07,13.07,0,0,1-4.84-1.05c-1.89-.93-3.28-2.66-5.1-3.72-1-.61-2.21-1-3.23-1.64-0.77-.49-2-0.69-2.78-1.23-1.12-.81-1.78-1.81-2.95-2.55a1.7,1.7,0,0,1-.57-0.5,1.65,1.65,0,0,1-.18-0.81,17.73,17.73,0,0,1,.1-4.83c0.2-.87.5-1.69,0.71-2.56" transform="translate(-217.51 -302.41)"/></g><g id="_Group_104" data-name="&lt;Group&gt;"><path class="cls-1" d="M324.84,374.09l1.62-3.61a2.74,2.74,0,0,0,.23-0.67,2.23,2.23,0,0,0,0-.67,2.16,2.16,0,0,0-.76-1.52,1.87,1.87,0,0,0-1.56-.17c-1.58.44-2.56,2-3.24,3.48a4,4,0,0,0-.49,2,1.52,1.52,0,0,0,1.33,1.41,3.51,3.51,0,0,1,1.08-.05c0.38,0.13.59,0.57,1,.72a0.7,0.7,0,0,0,.87-1" transform="translate(-217.51 -302.41)"/></g><g id="_Group_105" data-name="&lt;Group&gt;"><path class="cls-3" d="M326.25,370.44a23.35,23.35,0,0,0-1.59,3c-0.33.74-.51,1.83,0.23,2.17a1.65,1.65,0,0,0,1.49-.36l3-1.93a2.32,2.32,0,0,0,1.18-1.46l1.53-3.87a3.61,3.61,0,0,0,.35-2.35,1.25,1.25,0,0,0-1.89-.73A6.9,6.9,0,0,0,330,366a1.63,1.63,0,0,1-2.34.06,3.77,3.77,0,0,1-1-2.4,3.32,3.32,0,0,1,.36-2.32,3,3,0,0,1,2.12-1.07c0.81-.11,1.63-0.06,2.43-0.24a1.05,1.05,0,0,0,1-1,1.12,1.12,0,0,0-.38-0.6,21.65,21.65,0,0,0-2.58-2.17,1.4,1.4,0,0,0-.82-0.34,1.38,1.38,0,0,0-.69.29,15.74,15.74,0,0,0-4.5,4.6,2.63,2.63,0,0,0-.54,1.54,2.86,2.86,0,0,0,.56,1.29l1.93,3c0.72,1.11,1.46,2.49.87,3.67" transform="translate(-217.51 -302.41)"/></g></g><g id="_Group_106" data-name="&lt;Group&gt;"><g id="_Group_107" data-name="&lt;Group&gt;"><path class="cls-1" d="M259,339.24c1.53-2.35,3.66-4.53,6.4-5.11s5.42,0.5,8,1.55l7.68,3.17a31.48,31.48,0,0,1,4.08,1.92,15.85,15.85,0,0,1,6.4,7.23,6.71,6.71,0,0,1-4.1-1.33c-0.59-.44-1.1-1-1.66-1.46a21.27,21.27,0,0,0-3.14-2.09L273.82,338c-1.36-.79-3-1.6-4.42-0.94-1.57.74-2.16,3-3.86,3.37-1,.21-2.33-0.24-2.87.63a10.55,10.55,0,0,1-.48,1.24,1.24,1.24,0,0,1-.93.39,2.46,2.46,0,0,1-2-4.06" transform="translate(-217.51 -302.41)"/></g><g id="_Group_108" data-name="&lt;Group&gt;"><path class="cls-2" d="M264.2,340.94c1,0.75.25,1-.16,2.23s-1.2,2.2-1.67,3.36a2.31,2.31,0,0,0-.15,1.67,2.63,2.63,0,0,0,1.41,1.23c2.72,1.35,5.68,2.15,8.4,3.5,4.18,2.07,7.71,5.37,12.1,6.94,2.1,0.75,4.65,1,6.38-.4,1.54-1.26,1.93-3.43,2.09-5.42a11.51,11.51,0,0,0-.66-5.76,2.48,2.48,0,0,0-.64-0.91,3.29,3.29,0,0,0-1.05-.49c-6.72-2.25-11.94-7.82-18.66-10.05a5,5,0,0,0-3.39-.21c-1.59.63-2.4,2.59-4,3.05a0.91,0.91,0,0,0-.47.21c-0.29.34,0.14,0.81,0.52,1" transform="translate(-217.51 -302.41)"/></g><g id="_Group_109" data-name="&lt;Group&gt;"><path class="cls-2" d="M254,348.6a2.07,2.07,0,0,0-2,.69,3.54,3.54,0,0,0-.8,2,7.36,7.36,0,0,0,.92,4.08,20,20,0,0,0,2.45,3.45,15.51,15.51,0,0,0,1.7,1.82,17.55,17.55,0,0,0,2.68,1.79c1.11,0.65,2.21,1.33,3.28,2.06a48.21,48.21,0,0,0,5.39,3.59,14.38,14.38,0,0,0,4.9,1.45,5,5,0,0,0,2-.48,0.52,0.52,0,0,0-.13-0.46c-0.68-1-3.09-1.3-4.11-1.87l-10.1-5.65a6.73,6.73,0,0,1-3-2.63,5.27,5.27,0,0,1-.42-2.24,12.41,12.41,0,0,1,.41-3.29,9.05,9.05,0,0,0,.45-2.15,2.07,2.07,0,0,0-.93-1.88" transform="translate(-217.51 -302.41)"/></g><g id="_Group_110" data-name="&lt;Group&gt;"><path class="cls-1" d="M257.47,350.4l2.44-1.55a4.78,4.78,0,0,1,2.63-1,5.24,5.24,0,0,1,2.45,1c3.32,2.07,7.07,3.37,10.37,5.47,1.41,0.89,2.73,1.92,4.16,2.76a46.67,46.67,0,0,0,5.54,2.56,4.55,4.55,0,0,1,2.74,2.18,3,3,0,0,1-.27,2.49,7.6,7.6,0,0,1-1.68,1.94,12.2,12.2,0,0,1-4.11,2.65,13.65,13.65,0,0,1-5.43.38,13.07,13.07,0,0,1-4.84-1.05c-1.89-.93-3.28-2.66-5.1-3.72-1-.61-2.21-1-3.23-1.64-0.77-.49-2-0.69-2.78-1.23-1.12-.81-1.78-1.81-2.95-2.55a1.7,1.7,0,0,1-.57-0.5,1.65,1.65,0,0,1-.18-0.81,17.73,17.73,0,0,1,.1-4.83c0.2-.87.5-1.69,0.71-2.56" transform="translate(-217.51 -302.41)"/></g><g id="_Group_111" data-name="&lt;Group&gt;"><path class="cls-1" d="M257.36,348.79l1.62-3.61a2.74,2.74,0,0,0,.23-0.67,2.23,2.23,0,0,0,0-.67,2.16,2.16,0,0,0-.76-1.52,1.87,1.87,0,0,0-1.56-.17c-1.58.44-2.56,2-3.24,3.48a4,4,0,0,0-.49,2,1.52,1.52,0,0,0,1.33,1.41,3.51,3.51,0,0,1,1.08-.05c0.38,0.13.59,0.57,1,.72a0.7,0.7,0,0,0,.87-1" transform="translate(-217.51 -302.41)"/></g><g id="_Group_112" data-name="&lt;Group&gt;"><path class="cls-3" d="M258.77,345.13a23.35,23.35,0,0,0-1.59,3c-0.33.74-.51,1.83,0.23,2.17a1.65,1.65,0,0,0,1.49-.36l3-1.93a2.32,2.32,0,0,0,1.18-1.46l1.53-3.87a3.61,3.61,0,0,0,.35-2.35,1.25,1.25,0,0,0-1.89-.73,6.9,6.9,0,0,0-.61,1.14,1.63,1.63,0,0,1-2.34.06,3.77,3.77,0,0,1-1-2.4,3.32,3.32,0,0,1,.36-2.32,3,3,0,0,1,2.12-1.07c0.81-.11,1.63-0.06,2.43-0.24a1.05,1.05,0,0,0,1-1,1.12,1.12,0,0,0-.38-0.6,21.65,21.65,0,0,0-2.58-2.17,1.4,1.4,0,0,0-.82-0.34,1.38,1.38,0,0,0-.69.29,15.74,15.74,0,0,0-4.5,4.6,2.63,2.63,0,0,0-.54,1.54,2.86,2.86,0,0,0,.56,1.29l1.93,3c0.72,1.11,1.46,2.49.87,3.67" transform="translate(-217.51 -302.41)"/></g></g><g id="_Group_113" data-name="&lt;Group&gt;"><g id="_Group_114" data-name="&lt;Group&gt;"><path class="cls-1" d="M377.07,366.46c2.33,0.21,4.77.92,6.28,2.72s1.75,4.19,2,6.48l0.67,6.91a26.28,26.28,0,0,1,.18,3.76,13.23,13.23,0,0,1-2.83,7.55,5.6,5.6,0,0,1-.62-3.54c0.1-.61.29-1.19,0.42-1.79a17.76,17.76,0,0,0,.31-3.13l0.34-8.52c0.05-1.31,0-2.84-1-3.62s-3.07-.41-4-1.53c-0.54-.66-0.74-1.81-1.59-1.87a8.8,8.8,0,0,1-1.1.14,1,1,0,0,1-.65-0.54,2.06,2.06,0,0,1,2.22-3" transform="translate(-217.51 -302.41)"/></g><g id="_Group_115" data-name="&lt;Group&gt;"><path class="cls-2" d="M377.85,370.95c-0.16,1-.67.6-1.7,0.76s-2.09,0-3.13.09a1.93,1.93,0,0,0-1.29.55,2.19,2.19,0,0,0-.35,1.52c0.07,2.53.64,5,.72,7.57,0.11,3.89-.94,7.79-0.38,11.64,0.27,1.84,1.08,3.83,2.8,4.55,1.53,0.64,3.29.08,4.81-.58a9.61,9.61,0,0,0,4-2.74,2.07,2.07,0,0,0,.42-0.83,2.74,2.74,0,0,0-.05-1c-1-5.84,1.09-11.86.1-17.7a4.19,4.19,0,0,0-1.18-2.58c-1.09-.92-2.85-0.76-3.84-1.79a0.76,0.76,0,0,0-.34-0.26c-0.36-.08-0.54.42-0.56,0.79" transform="translate(-217.51 -302.41)"/></g><g id="_Group_116" data-name="&lt;Group&gt;"><path class="cls-2" d="M368.2,366.4a1.73,1.73,0,0,0-1.29-1.19,3,3,0,0,0-1.8.2,6.14,6.14,0,0,0-2.65,2.28,16.65,16.65,0,0,0-1.58,3.16,13,13,0,0,0-.68,2,14.65,14.65,0,0,0-.27,2.68c0,1.08-.11,2.15-0.23,3.22a40.25,40.25,0,0,0-.54,5.38,12,12,0,0,0,.85,4.18,4.18,4.18,0,0,0,1.13,1.27,0.44,0.44,0,0,0,.29-0.28c0.44-.87-0.25-2.78-0.23-3.76l0.21-9.66a5.62,5.62,0,0,1,.75-3.27,4.4,4.4,0,0,1,1.49-1.19,10.36,10.36,0,0,1,2.59-1,7.56,7.56,0,0,0,1.76-.51,1.73,1.73,0,0,0,1-1.42" transform="translate(-217.51 -302.41)"/></g><g id="_Group_117" data-name="&lt;Group&gt;"><path class="cls-1" d="M368.24,369.69l2.1,1.19a4,4,0,0,1,1.77,1.54,4.38,4.38,0,0,1,.19,2.22c-0.22,3.26.28,6.53,0,9.78-0.11,1.39-.35,2.76-0.41,4.15a39,39,0,0,0,.29,5.09,3.79,3.79,0,0,1-.53,2.87,2.53,2.53,0,0,1-1.94.77,6.35,6.35,0,0,1-2.09-.48,10.18,10.18,0,0,1-3.56-2,11.39,11.39,0,0,1-2.41-3.86,10.91,10.91,0,0,1-1.12-4c-0.05-1.76.68-3.46,0.75-5.22,0-1-.14-2-0.06-3,0.06-.76-0.29-1.77-0.18-2.53,0.16-1.14.64-2,.73-3.17a1.42,1.42,0,0,1,.15-0.62,1.38,1.38,0,0,1,.53-0.45,14.8,14.8,0,0,1,3.6-1.82c0.72-.19,1.44-0.29,2.17-0.48" transform="translate(-217.51 -302.41)"/></g><g id="_Group_118" data-name="&lt;Group&gt;"><path class="cls-1" d="M369.38,369l3.3-.22a2.29,2.29,0,0,0,.59-0.09,1.86,1.86,0,0,0,.49-0.27,1.81,1.81,0,0,0,.83-1.15,1.56,1.56,0,0,0-.49-1.21,4.78,4.78,0,0,0-3.83-1,3.31,3.31,0,0,0-1.69.44,1.27,1.27,0,0,0-.52,1.53,2.93,2.93,0,0,1,.46.78c0.05,0.33-.19.66-0.15,1a0.59,0.59,0,0,0,1.06.26" transform="translate(-217.51 -302.41)"/></g><g id="_Group_119" data-name="&lt;Group&gt;"><path class="cls-3" d="M372.63,368.59a19.49,19.49,0,0,0-2.81,0c-0.68,0-1.55.35-1.51,1a1.38,1.38,0,0,0,.85,1l2.6,1.47a1.94,1.94,0,0,0,1.54.3l3.45-.39a3,3,0,0,0,1.87-.66,1,1,0,0,0-.2-1.68,5.76,5.76,0,0,0-1.08,0,1.36,1.36,0,0,1-1-1.7,3.15,3.15,0,0,1,1.38-1.67,2.78,2.78,0,0,1,1.86-.64,2.5,2.5,0,0,1,1.62,1.14c0.39,0.55.68,1.18,1.13,1.7a0.88,0.88,0,0,0,1.09.36,0.94,0.94,0,0,0,.29-0.52,18.08,18.08,0,0,0,.59-2.75,1.17,1.17,0,0,0-.07-0.74,1.15,1.15,0,0,0-.48-0.4,13.14,13.14,0,0,0-5.15-1.52,2.19,2.19,0,0,0-1.35.2,2.38,2.38,0,0,0-.74.92l-1.44,2.59c-0.54,1-1.26,2-2.37,2.08" transform="translate(-217.51 -302.41)"/></g></g></svg>