<svg id="Layer_1" data-name="Layer 1" xmlns="http://www.w3.org/2000/svg" viewBox="0 0 280.2 99.5"><defs><style>.cls-1{fill:#ed1f24;}.cls-2{fill:#43612d;}.cls-3{fill:#3e7638;}.cls-4{fill:#f05423;}.cls-5{fill:#f05323;}</style></defs><title>tomatoes</title><g id="_Group_" data-name="&lt;Group&gt;"><g id="_Group_2" data-name="&lt;Group&gt;"><path class="cls-1" d="M282.38,1018.61a16.61,16.61,0,0,0-8.53,1.17,12.92,12.92,0,0,0-6.73,8.65,17.83,17.83,0,0,0,1.16,11.08,14.48,14.48,0,0,0,2.46,4,17.35,17.35,0,0,0,10.52,5.9,25.08,25.08,0,0,0,10.46-.52,14.82,14.82,0,0,0,6.62-5.1,23,23,0,0,0,4-6.84,14.06,14.06,0,0,0,.53-7.83,20.17,20.17,0,0,0-1.33-3.61,17.81,17.81,0,0,0-2.18-3.81,10.28,10.28,0,0,0-8-3.81c-3,0-6,1.41-8.92.84" transform="translate(-240.35 -952.1)"/></g><g id="_Group_3" data-name="&lt;Group&gt;"><path class="cls-2" d="M289.16,1022.18c3.88,0.91,3.84-1.5,6,1.86,1.06,1.66,1.46,3.67,2.58,5.29a10.32,10.32,0,0,0-6.5-10.91c2.33,0,4.67-.46,7-0.16s4.72,1.65,5.28,3.91a4.74,4.74,0,0,0-2.65-4.94,9.27,9.27,0,0,0-5.89-.57c-2,.35-3.89,1-5.86,1.39a1.22,1.22,0,0,1,.55-1.68c0.63-.33,1.47.21,2.28-0.36-1.07-2.3-4.49-.15-5.33,1.79-0.81.22-2,.19-2.12-0.64s0.82-1.48.35-2a2.23,2.23,0,0,0-1.6,2.83,10.54,10.54,0,0,0-7.13-1.37,17.07,17.07,0,0,0-6.82,2.75,4.75,4.75,0,0,0-1.71,1.64,3.9,3.9,0,0,1-1,1.77,0,0,0,0,0,0,.06c1.23,0.16,2.28-.42,4.15-2.39,1.32-1.39,3.7-1.76,5.36-2.13s3.53-.48,4.76.64a14.36,14.36,0,0,0-7.45,7.53c3-2.18,3-3.94,6.31-5.15,2.78-1,4.88-1.74,5.79-.88A13.26,13.26,0,0,0,289.16,1022.18Z" transform="translate(-240.35 -952.1)"/></g><g id="_Group_4" data-name="&lt;Group&gt;"><path class="cls-2" d="M284.23,1018.68c0.32,0.06.5-.64,0.53-0.32a0.87,0.87,0,0,0,.56.69,2.57,2.57,0,0,0,.92.15,1.29,1.29,0,0,0,.59-0.07c0.53-.24.49-1,0.49-1.56a8.23,8.23,0,0,1,.48-2.38l0.55-1.78a31.35,31.35,0,0,1,1.14-3.29,1,1,0,0,0-1.26-.24,2.62,2.62,0,0,0-1,1,13.1,13.1,0,0,0-1.47,2.86,26.18,26.18,0,0,0-.77,2.67l-0.49,2" transform="translate(-240.35 -952.1)"/></g><path id="_Path_" data-name="&lt;Path&gt;" class="cls-3" d="M270.89,1020.45" transform="translate(-240.35 -952.1)"/></g><g id="_Group_5" data-name="&lt;Group&gt;"><g id="_Group_6" data-name="&lt;Group&gt;"><path class="cls-1" d="M494.34,1020.13a16.61,16.61,0,0,0-7.09,4.88,12.92,12.92,0,0,0-2.13,10.75,17.83,17.83,0,0,0,6,9.38,14.48,14.48,0,0,0,4,2.49,17.35,17.35,0,0,0,12,.55,25.08,25.08,0,0,0,9.12-5.16,14.82,14.82,0,0,0,3.62-7.52,23,23,0,0,0,.48-7.9,14.06,14.06,0,0,0-3-7.24,20.17,20.17,0,0,0-2.81-2.63,17.82,17.82,0,0,0-3.66-2.43,10.28,10.28,0,0,0-8.9.21c-2.66,1.38-4.71,3.94-7.59,4.75" transform="translate(-240.35 -952.1)"/></g><g id="_Group_7" data-name="&lt;Group&gt;"><path class="cls-2" d="M502,1020.28c3.88-.93,2.76-3.06,6.18-1,1.69,1,3,2.62,4.68,3.58a10.32,10.32,0,0,0-10.7-6.83c2.08-1,4-2.51,6.16-3.27s5-.64,6.48,1.13a4.74,4.74,0,0,0-4.59-3.22,9.27,9.27,0,0,0-5.52,2.14c-1.61,1.2-3,2.67-4.62,3.87a1.22,1.22,0,0,1-.27-1.75c0.42-.58,1.41-0.47,1.88-1.34-2-1.58-4.08,1.88-4,4-0.63.56-1.72,1.08-2.18,0.37s0.07-1.69-.59-2a2.23,2.23,0,0,0-.16,3.25,10.54,10.54,0,0,0-7,2,17.07,17.07,0,0,0-4.86,5.52,4.75,4.75,0,0,0-.8,2.24A3.9,3.9,0,0,1,482,1031a0,0,0,0,0,0,.05c1.17-.41,1.85-1.39,2.64-4,0.55-1.83,2.52-3.23,3.83-4.31s2.93-2,4.54-1.56a14.36,14.36,0,0,0-3.28,10.07c1.72-3.3.89-4.85,3.33-7.44,2-2.15,3.58-3.75,4.78-3.39A13.26,13.26,0,0,0,502,1020.28Z" transform="translate(-240.35 -952.1)"/></g><g id="_Group_8" data-name="&lt;Group&gt;"><path class="cls-2" d="M496,1019.36c0.31-.09.16-0.8,0.33-0.52a0.87,0.87,0,0,0,.81.36,2.57,2.57,0,0,0,.88-0.28,1.29,1.29,0,0,0,.49-0.32c0.36-.45,0-1.1-0.26-1.62a8.23,8.23,0,0,1-.64-2.35l-0.31-1.84a31.35,31.35,0,0,1-.45-3.45,1,1,0,0,0-1.24.35,2.62,2.62,0,0,0-.45,1.31,13.1,13.1,0,0,0,0,3.22,26.18,26.18,0,0,0,.51,2.73l0.44,2" transform="translate(-240.35 -952.1)"/></g><path id="_Path_2" data-name="&lt;Path&gt;" class="cls-3" d="M484.9,1026.93" transform="translate(-240.35 -952.1)"/></g><g id="_Group_9" data-name="&lt;Group&gt;"><g id="_Group_10" data-name="&lt;Group&gt;"><path class="cls-4" d="M312.11,1025.79a13.07,13.07,0,0,0-6.39,2.24,10.16,10.16,0,0,0-3.83,7.72,14,14,0,0,0,2.63,8.36,11.39,11.39,0,0,0,2.53,2.72,13.65,13.65,0,0,0,9,2.89,19.73,19.73,0,0,0,8-2,11.66,11.66,0,0,0,4.3-5,18.09,18.09,0,0,0,2-5.9,11.06,11.06,0,0,0-.82-6.12,15.87,15.87,0,0,0-1.59-2.57,14,14,0,0,0-2.28-2.6,8.09,8.09,0,0,0-6.8-1.67c-2.31.5-4.38,2-6.74,2" transform="translate(-240.35 -952.1)"/></g><g id="_Group_11" data-name="&lt;Group&gt;"><path class="cls-2" d="M317.89,1027.51c3.13,0.09,2.72-1.76,4.9.49,1.08,1.11,1.7,2.6,2.82,3.68a8.12,8.12,0,0,0-6.72-7.39,42.73,42.73,0,0,1,5.35-1.22c1.83-.13,3.9.53,4.68,2.19a3.73,3.73,0,0,0-2.82-3.39,7.29,7.29,0,0,0-4.63.49c-1.47.58-2.83,1.4-4.3,2a1,1,0,0,1,.16-1.38c0.44-.35,1.17-0.07,1.7-0.63-1.18-1.61-3.49.59-3.83,2.22-0.59.29-1.52,0.46-1.73-.16s0.4-1.27,0-1.61a1.75,1.75,0,0,0-.79,2.44,8.29,8.29,0,0,0-5.71.06,13.43,13.43,0,0,0-4.82,3.19A3.74,3.74,0,0,0,301,1030a3.07,3.07,0,0,1-.53,1.53,0,0,0,0,0,0,0c1-.07,1.69-0.68,2.83-2.5,0.8-1.27,2.58-1.94,3.79-2.48s2.64-.93,3.77-0.25a11.3,11.3,0,0,0-4.56,7c2-2.15,1.67-3.5,4.05-5,2-1.22,3.49-2.11,4.32-1.59A10.43,10.43,0,0,0,317.89,1027.51Z" transform="translate(-240.35 -952.1)"/></g><g id="_Group_12" data-name="&lt;Group&gt;"><path class="cls-2" d="M313.54,1025.55c0.26,0,.29-0.57.36-0.33a0.69,0.69,0,0,0,.54.44,2,2,0,0,0,.73,0,1,1,0,0,0,.44-0.15,1.24,1.24,0,0,0,.13-1.28,6.47,6.47,0,0,1,0-1.91l0.14-1.46a24.66,24.66,0,0,1,.37-2.71,0.81,0.81,0,0,0-1,0,2.06,2.06,0,0,0-.61.9,10.31,10.31,0,0,0-.68,2.44,20.59,20.59,0,0,0-.17,2.18l-0.07,1.59" transform="translate(-240.35 -952.1)"/></g><path id="_Path_3" data-name="&lt;Path&gt;" class="cls-3" d="M303.55,1029" transform="translate(-240.35 -952.1)"/></g><g id="_Group_13" data-name="&lt;Group&gt;"><g id="_Group_14" data-name="&lt;Group&gt;"><path class="cls-4" d="M261.21,1024.92a13.07,13.07,0,0,0-5.14-4.4,10.16,10.16,0,0,0-8.6.56,14,14,0,0,0-5.91,6.47,11.39,11.39,0,0,0-1.08,3.55,13.65,13.65,0,0,0,2,9.27,19.73,19.73,0,0,0,5.77,5.88,11.66,11.66,0,0,0,6.45,1.23,18.09,18.09,0,0,0,6.1-1.24,11.06,11.06,0,0,0,4.88-3.77,15.87,15.87,0,0,0,1.43-2.67,14,14,0,0,0,1.11-3.27,8.09,8.09,0,0,0-2-6.72c-1.59-1.74-3.94-2.78-5.15-4.81" transform="translate(-240.35 -952.1)"/></g><g id="_Group_15" data-name="&lt;Group&gt;"><path class="cls-2" d="M262.62,1030.78c1.49,2.76,2.89,1.47,2,4.49-0.42,1.49-1.4,2.78-1.77,4.28a8.12,8.12,0,0,0,3-9.52,42.73,42.73,0,0,1,3.74,4c1,1.52,1.49,3.64.45,5.15a3.73,3.73,0,0,0,1.52-4.14,7.29,7.29,0,0,0-2.74-3.76c-1.24-1-2.64-1.75-3.88-2.72a1,1,0,0,1,1.27-.56c0.52,0.2.65,1,1.4,1.15,0.8-1.83-2.26-2.72-3.84-2.2-0.55-.37-1.16-1.09-0.73-1.58s1.29-.29,1.37-0.85a1.75,1.75,0,0,0-2.5.54,8.29,8.29,0,0,0-2.91-4.91,13.43,13.43,0,0,0-5.18-2.58,3.74,3.74,0,0,0-1.86-.15,3.07,3.07,0,0,1-1.59.31,0,0,0,0,0,0,0c0.55,0.81,1.43,1.12,3.58,1.19,1.5,0,3,1.26,4,2s2.13,1.82,2.11,3.13a11.3,11.3,0,0,0-8.32-.45c2.86,0.64,3.87-.31,6.32,1,2,1.11,3.57,2,3.54,2.94A10.43,10.43,0,0,0,262.62,1030.78Z" transform="translate(-240.35 -952.1)"/></g><g id="_Group_16" data-name="&lt;Group&gt;"><path class="cls-2" d="M262.13,1026c0.13,0.22.64,0,.46,0.14a0.69,0.69,0,0,0-.11.69,2,2,0,0,0,.39.62,1,1,0,0,0,.35.31,1.24,1.24,0,0,0,1.18-.53,6.47,6.47,0,0,1,1.65-1l1.33-.61a24.66,24.66,0,0,1,2.53-1,0.81,0.81,0,0,0-.52-0.87,2.06,2.06,0,0,0-1.08-.07,10.31,10.31,0,0,0-2.45.63,20.59,20.59,0,0,0-2,.94l-1.41.74" transform="translate(-240.35 -952.1)"/></g><path id="_Path_4" data-name="&lt;Path&gt;" class="cls-3" d="M254.13,1019.12" transform="translate(-240.35 -952.1)"/></g><g id="_Group_17" data-name="&lt;Group&gt;"><g id="_Group_18" data-name="&lt;Group&gt;"><path class="cls-4" d="M259.49,972.24a13.07,13.07,0,0,0-5,4.54,10.16,10.16,0,0,0-.54,8.6,14,14,0,0,0,5.66,6.68A11.39,11.39,0,0,0,263,993.6a13.65,13.65,0,0,0,9.45-.83,19.73,19.73,0,0,0,6.57-5,11.66,11.66,0,0,0,2-6.24,18.09,18.09,0,0,0-.45-6.21,11.06,11.06,0,0,0-3.12-5.32,15.87,15.87,0,0,0-2.46-1.75,14,14,0,0,0-3.1-1.51,8.09,8.09,0,0,0-6.91,1.09c-1.93,1.36-3.26,3.56-5.42,4.5" transform="translate(-240.35 -952.1)"/></g><g id="_Group_19" data-name="&lt;Group&gt;"><path class="cls-2" d="M265.49,971.59c2.93-1.13,1.83-2.68,4.71-1.45,1.42,0.61,2.58,1.74,4,2.3a8.12,8.12,0,0,0-9.06-4.21,42.73,42.73,0,0,1,4.46-3.2c1.64-.83,3.8-1,5.17.2a3.73,3.73,0,0,0-3.91-2,7.29,7.29,0,0,0-4.08,2.24c-1.13,1.11-2.07,2.39-3.19,3.5a1,1,0,0,1-.39-1.33c0.26-.49,1-0.52,1.32-1.24-1.71-1-3,1.89-2.67,3.53-0.43.5-1.22,1-1.66,0.52s-0.12-1.32-.67-1.46a1.75,1.75,0,0,0,.22,2.55,8.29,8.29,0,0,0-5.24,2.27,13.43,13.43,0,0,0-3.21,4.81,3.74,3.74,0,0,0-.39,1.83A3.07,3.07,0,0,1,251,982a0,0,0,0,0,0,0c0.87-.44,1.3-1.28,1.64-3.4,0.24-1.48,1.62-2.78,2.54-3.76s2.08-1.88,3.37-1.69a11.3,11.3,0,0,0-1.5,8.19c1-2.76.18-3.88,1.82-6.14,1.36-1.89,2.4-3.29,3.37-3.14A10.43,10.43,0,0,0,265.49,971.59Z" transform="translate(-240.35 -952.1)"/></g><g id="_Group_20" data-name="&lt;Group&gt;"><path class="cls-2" d="M260.72,971.47c0.23-.1,0-0.64.2-0.44a0.69,0.69,0,0,0,.67.2,2,2,0,0,0,.66-0.31,1,1,0,0,0,.35-0.3,1.24,1.24,0,0,0-.37-1.23,6.47,6.47,0,0,1-.74-1.76l-0.43-1.4a24.66,24.66,0,0,1-.71-2.64,0.81,0.81,0,0,0-.93.4,2.06,2.06,0,0,0-.21,1.06,10.31,10.31,0,0,0,.32,2.51,20.59,20.59,0,0,0,.69,2.08l0.55,1.49" transform="translate(-240.35 -952.1)"/></g><path id="_Path_5" data-name="&lt;Path&gt;" class="cls-3" d="M252.85,978.53" transform="translate(-240.35 -952.1)"/></g><g id="_Group_21" data-name="&lt;Group&gt;"><g id="_Group_22" data-name="&lt;Group&gt;"><path class="cls-4" d="M406.49,987.21a13.07,13.07,0,0,0-5.72,3.61,10.16,10.16,0,0,0-2,8.38,14,14,0,0,0,4.43,7.56,11.39,11.39,0,0,0,3.07,2.08,13.65,13.65,0,0,0,9.45.8,19.73,19.73,0,0,0,7.32-3.78,11.66,11.66,0,0,0,3.08-5.8,18.09,18.09,0,0,0,.62-6.19,11.06,11.06,0,0,0-2.16-5.78,15.87,15.87,0,0,0-2.13-2.15,14,14,0,0,0-2.8-2,8.09,8.09,0,0,0-7-.11c-2.14,1-3.82,2.95-6.11,3.5" transform="translate(-240.35 -952.1)"/></g><g id="_Group_23" data-name="&lt;Group&gt;"><path class="cls-2" d="M412.51,987.59c3.08-.61,2.26-2.32,4.89-0.62,1.3,0.84,2.24,2.15,3.57,3a8.12,8.12,0,0,0-8.2-5.7,42.73,42.73,0,0,1,4.94-2.38c1.75-.53,3.92-0.35,5.05,1.09a3.73,3.73,0,0,0-3.51-2.67,7.29,7.29,0,0,0-4.4,1.51c-1.3.9-2.45,2-3.75,2.9a1,1,0,0,1-.16-1.38c0.35-.44,1.12-0.33,1.52-1-1.51-1.3-3.27,1.35-3.24,3-0.51.42-1.38,0.79-1.72,0.23s0.11-1.32-.41-1.55a1.75,1.75,0,0,0-.22,2.55,8.29,8.29,0,0,0-5.55,1.34,13.43,13.43,0,0,0-4,4.19,3.74,3.74,0,0,0-.69,1.73,3.07,3.07,0,0,1-.18,1.61,0,0,0,0,0,0,0c0.93-.29,1.5-1,2.2-3.07,0.49-1.42,2.08-2.47,3.14-3.27s2.37-1.49,3.61-1.09a11.3,11.3,0,0,0-2.89,7.81c1.46-2.54.85-3.79,2.84-5.74,1.66-1.63,2.93-2.83,3.86-2.52A10.43,10.43,0,0,0,412.51,987.59Z" transform="translate(-240.35 -952.1)"/></g><g id="_Group_24" data-name="&lt;Group&gt;"><path class="cls-2" d="M407.83,986.66c0.25-.06.15-0.62,0.27-0.4a0.69,0.69,0,0,0,.63.31,2,2,0,0,0,.7-0.19,1,1,0,0,0,.4-0.24,1.24,1.24,0,0,0-.16-1.28,6.47,6.47,0,0,1-.43-1.86l-0.19-1.45a24.66,24.66,0,0,1-.25-2.73,0.81,0.81,0,0,0-1,.24,2.06,2.06,0,0,0-.39,1,10.31,10.31,0,0,0-.12,2.53,20.59,20.59,0,0,0,.32,2.16l0.29,1.56" transform="translate(-240.35 -952.1)"/></g><path id="_Path_6" data-name="&lt;Path&gt;" class="cls-3" d="M398.86,992.27" transform="translate(-240.35 -952.1)"/></g><g id="_Group_25" data-name="&lt;Group&gt;"><g id="_Group_26" data-name="&lt;Group&gt;"><path class="cls-4" d="M453.8,974a16.89,16.89,0,0,0-8.73-.64,13.13,13.13,0,0,0-8.53,7.17,18.13,18.13,0,0,0-1.2,11.26,14.72,14.72,0,0,0,1.6,4.53,17.65,17.65,0,0,0,9.21,8.1,25.5,25.5,0,0,0,10.52,1.7,15.07,15.07,0,0,0,7.66-3.66,23.39,23.39,0,0,0,5.41-6,14.3,14.3,0,0,0,2.19-7.67,20.51,20.51,0,0,0-.56-3.87,18.12,18.12,0,0,0-1.35-4.25,10.46,10.46,0,0,0-7.19-5.49c-3-.6-6.24.13-9-1.06" transform="translate(-240.35 -952.1)"/></g><g id="_Group_27" data-name="&lt;Group&gt;"><path class="cls-2" d="M459.77,979c3.67,1.73,4.14-.68,5.56,3.12,0.7,1.87.68,4,1.44,5.81a10.49,10.49,0,0,0-4.15-12.23c2.32,0.5,4.74.53,7,1.32s4.34,2.65,4.42,5a4.82,4.82,0,0,0-1.59-5.47,9.43,9.43,0,0,0-5.74-1.81c-2-.07-4.08.2-6.12,0.14a1.24,1.24,0,0,1,.9-1.55c0.7-.19,1.42.52,2.34,0.13-0.57-2.52-4.44-1.1-5.68.65-0.85,0-2-.24-2-1.09s1.13-1.29.77-1.93a2.27,2.27,0,0,0-2.19,2.48,10.72,10.72,0,0,0-6.8-2.88,17.36,17.36,0,0,0-7.37,1.28,4.83,4.83,0,0,0-2.05,1.27,4,4,0,0,1-1.42,1.54,0,0,0,0,0,0,.06c1.19,0.42,2.35.07,4.64-1.5,1.6-1.1,4.05-1,5.78-1s3.61,0.27,4.59,1.65a14.6,14.6,0,0,0-9,5.9c3.47-1.53,3.79-3.29,7.37-3.78,3-.41,5.22-0.7,5.94.35A13.48,13.48,0,0,0,459.77,979Z" transform="translate(-240.35 -952.1)"/></g><g id="_Group_28" data-name="&lt;Group&gt;"><path class="cls-2" d="M455.63,974.42c0.3,0.13.63-.53,0.59-0.2a0.89,0.89,0,0,0,.41.8,2.62,2.62,0,0,0,.88.34,1.32,1.32,0,0,0,.6.06c0.58-.13.7-0.87,0.82-1.45a8.37,8.37,0,0,1,1-2.27l0.92-1.65a31.88,31.88,0,0,1,1.84-3,1,1,0,0,0-1.2-.51,2.66,2.66,0,0,0-1.18.75,13.33,13.33,0,0,0-2.07,2.54,26.63,26.63,0,0,0-1.33,2.5l-0.9,1.84" transform="translate(-240.35 -952.1)"/></g><path id="_Path_7" data-name="&lt;Path&gt;" class="cls-3" d="M442,973.35" transform="translate(-240.35 -952.1)"/></g><g id="_Group_29" data-name="&lt;Group&gt;"><g id="_Group_30" data-name="&lt;Group&gt;"><path class="cls-4" d="M386,971.28a12.86,12.86,0,0,0-6.64-.49,10,10,0,0,0-6.49,5.46,13.8,13.8,0,0,0-.91,8.57,11.2,11.2,0,0,0,1.21,3.45,13.43,13.43,0,0,0,7,6.16,19.41,19.41,0,0,0,8,1.3,11.47,11.47,0,0,0,5.83-2.79,17.8,17.8,0,0,0,4.11-4.54,10.88,10.88,0,0,0,1.67-5.84,15.61,15.61,0,0,0-.43-2.95,13.79,13.79,0,0,0-1-3.24,8,8,0,0,0-5.47-4.18c-2.28-.46-4.75.1-6.88-0.81" transform="translate(-240.35 -952.1)"/></g><g id="_Group_31" data-name="&lt;Group&gt;"><path class="cls-2" d="M390.59,975.1c2.79,1.32,3.15-.52,4.23,2.37,0.53,1.42.51,3,1.09,4.42a8,8,0,0,0-3.16-9.31,42,42,0,0,1,5.31,1c1.7,0.6,3.3,2,3.36,3.82a3.67,3.67,0,0,0-1.21-4.16,7.18,7.18,0,0,0-4.37-1.38c-1.55-.05-3.11.15-4.66,0.1a0.94,0.94,0,0,1,.69-1.18c0.53-.15,1.08.4,1.78,0.1-0.44-1.92-3.38-.84-4.33.49-0.65,0-1.56-.18-1.5-0.83s0.86-1,.59-1.47a1.73,1.73,0,0,0-1.67,1.89,8.16,8.16,0,0,0-5.17-2.19,13.21,13.21,0,0,0-5.61,1,3.68,3.68,0,0,0-1.56,1,3,3,0,0,1-1.08,1.17,0,0,0,0,0,0,0c0.91,0.32,1.79.05,3.53-1.14,1.22-.84,3.08-0.74,4.4-0.75s2.75,0.2,3.5,1.25a11.11,11.11,0,0,0-6.86,4.49c2.64-1.16,2.88-2.5,5.61-2.88,2.27-.31,4-0.53,4.52.27A10.26,10.26,0,0,0,390.59,975.1Z" transform="translate(-240.35 -952.1)"/></g><g id="_Group_32" data-name="&lt;Group&gt;"><path class="cls-2" d="M387.44,971.63c0.23,0.1.48-.4,0.45-0.16a0.68,0.68,0,0,0,.31.61,2,2,0,0,0,.67.26,1,1,0,0,0,.45,0,1.22,1.22,0,0,0,.63-1.1,6.37,6.37,0,0,1,.75-1.73l0.7-1.26a24.26,24.26,0,0,1,1.4-2.3,0.8,0.8,0,0,0-.92-0.39,2,2,0,0,0-.9.57,10.14,10.14,0,0,0-1.57,1.93,20.26,20.26,0,0,0-1,1.9l-0.69,1.4" transform="translate(-240.35 -952.1)"/></g><path id="_Path_8" data-name="&lt;Path&gt;" class="cls-3" d="M377.06,970.82" transform="translate(-240.35 -952.1)"/></g><g id="_Group_33" data-name="&lt;Group&gt;"><g id="_Group_34" data-name="&lt;Group&gt;"><path class="cls-4" d="M412.18,957.79a12.86,12.86,0,0,0-6.64-.49,10,10,0,0,0-6.49,5.46,13.8,13.8,0,0,0-.91,8.57,11.2,11.2,0,0,0,1.21,3.45,13.43,13.43,0,0,0,7,6.16,19.41,19.41,0,0,0,8,1.3,11.47,11.47,0,0,0,5.83-2.79,17.8,17.8,0,0,0,4.11-4.54,10.88,10.88,0,0,0,1.67-5.84,15.61,15.61,0,0,0-.43-2.95,13.79,13.79,0,0,0-1-3.24,8,8,0,0,0-5.47-4.18c-2.28-.46-4.75.1-6.88-0.81" transform="translate(-240.35 -952.1)"/></g><g id="_Group_35" data-name="&lt;Group&gt;"><path class="cls-2" d="M416.73,961.61c2.79,1.32,3.15-.52,4.23,2.37,0.53,1.42.51,3,1.09,4.42a8,8,0,0,0-3.16-9.31,42,42,0,0,1,5.31,1c1.7,0.6,3.3,2,3.36,3.82a3.67,3.67,0,0,0-1.21-4.16,7.18,7.18,0,0,0-4.37-1.38c-1.55-.05-3.11.15-4.66,0.1a0.94,0.94,0,0,1,.69-1.18c0.53-.15,1.08.4,1.78,0.1-0.44-1.92-3.38-.84-4.33.49-0.65,0-1.56-.18-1.5-0.83s0.86-1,.59-1.47a1.73,1.73,0,0,0-1.67,1.89,8.16,8.16,0,0,0-5.17-2.19,13.21,13.21,0,0,0-5.61,1,3.68,3.68,0,0,0-1.56,1,3,3,0,0,1-1.08,1.17,0,0,0,0,0,0,0c0.91,0.32,1.79.05,3.53-1.14,1.22-.84,3.08-0.74,4.4-0.75s2.75,0.2,3.5,1.25a11.11,11.11,0,0,0-6.86,4.49c2.64-1.16,2.88-2.5,5.61-2.88,2.27-.31,4-0.53,4.52.27A10.26,10.26,0,0,0,416.73,961.61Z" transform="translate(-240.35 -952.1)"/></g><g id="_Group_36" data-name="&lt;Group&gt;"><path class="cls-2" d="M413.57,958.14c0.23,0.1.48-.4,0.45-0.16a0.68,0.68,0,0,0,.31.61,2,2,0,0,0,.67.26,1,1,0,0,0,.45,0,1.22,1.22,0,0,0,.63-1.1,6.37,6.37,0,0,1,.75-1.73l0.7-1.26a24.26,24.26,0,0,1,1.4-2.3,0.8,0.8,0,0,0-.92-0.39,2,2,0,0,0-.9.57,10.14,10.14,0,0,0-1.57,1.93,20.26,20.26,0,0,0-1,1.9l-0.69,1.4" transform="translate(-240.35 -952.1)"/></g><path id="_Path_9" data-name="&lt;Path&gt;" class="cls-3" d="M403.19,957.33" transform="translate(-240.35 -952.1)"/></g><g id="_Group_37" data-name="&lt;Group&gt;"><g id="_Group_38" data-name="&lt;Group&gt;"><path class="cls-4" d="M295.84,968.75a12.86,12.86,0,0,0-6.64-.49,10,10,0,0,0-6.49,5.46,13.8,13.8,0,0,0-.91,8.57,11.2,11.2,0,0,0,1.21,3.45,13.43,13.43,0,0,0,7,6.16,19.41,19.41,0,0,0,8,1.3,11.47,11.47,0,0,0,5.83-2.79,17.8,17.8,0,0,0,4.11-4.54,10.88,10.88,0,0,0,1.67-5.84,15.61,15.61,0,0,0-.43-2.95,13.79,13.79,0,0,0-1-3.24,8,8,0,0,0-5.47-4.18c-2.28-.46-4.75.1-6.88-0.81" transform="translate(-240.35 -952.1)"/></g><g id="_Group_39" data-name="&lt;Group&gt;"><path class="cls-2" d="M300.38,972.57c2.79,1.32,3.15-.52,4.23,2.37,0.53,1.42.51,3,1.09,4.42a8,8,0,0,0-3.16-9.31,42,42,0,0,1,5.31,1c1.7,0.6,3.3,2,3.36,3.82a3.67,3.67,0,0,0-1.21-4.16,7.18,7.18,0,0,0-4.37-1.38c-1.55-.05-3.11.15-4.66,0.1a0.94,0.94,0,0,1,.69-1.18c0.53-.15,1.08.4,1.78,0.1-0.44-1.92-3.38-.84-4.33.49-0.65,0-1.56-.18-1.5-0.83s0.86-1,.59-1.47a1.73,1.73,0,0,0-1.67,1.89,8.16,8.16,0,0,0-5.17-2.19,13.21,13.21,0,0,0-5.61,1,3.68,3.68,0,0,0-1.56,1,3,3,0,0,1-1.08,1.17,0,0,0,0,0,0,0c0.91,0.32,1.79.05,3.53-1.14,1.22-.84,3.08-0.74,4.4-0.75s2.75,0.2,3.5,1.25a11.11,11.11,0,0,0-6.86,4.49c2.64-1.16,2.88-2.5,5.61-2.88,2.27-.31,4-0.53,4.52.27A10.26,10.26,0,0,0,300.38,972.57Z" transform="translate(-240.35 -952.1)"/></g><g id="_Group_40" data-name="&lt;Group&gt;"><path class="cls-2" d="M297.22,969.1c0.23,0.1.48-.4,0.45-0.16a0.68,0.68,0,0,0,.31.61,2,2,0,0,0,.67.26,1,1,0,0,0,.45,0,1.22,1.22,0,0,0,.63-1.1,6.37,6.37,0,0,1,.75-1.73l0.7-1.26a24.26,24.26,0,0,1,1.4-2.3,0.8,0.8,0,0,0-.92-0.39,2,2,0,0,0-.9.57,10.14,10.14,0,0,0-1.57,1.93,20.26,20.26,0,0,0-1,1.9l-0.69,1.4" transform="translate(-240.35 -952.1)"/></g><path id="_Path_10" data-name="&lt;Path&gt;" class="cls-3" d="M286.85,968.29" transform="translate(-240.35 -952.1)"/></g><g id="_Group_41" data-name="&lt;Group&gt;"><g id="_Group_42" data-name="&lt;Group&gt;"><path class="cls-4" d="M471.46,1001.34a13.07,13.07,0,0,0-6.39,2.24,10.16,10.16,0,0,0-3.83,7.72,14,14,0,0,0,2.63,8.36,11.39,11.39,0,0,0,2.53,2.72,13.65,13.65,0,0,0,9,2.89,19.73,19.73,0,0,0,8-2,11.66,11.66,0,0,0,4.3-5,18.09,18.09,0,0,0,2-5.9,11.06,11.06,0,0,0-.82-6.12,15.87,15.87,0,0,0-1.59-2.57,14,14,0,0,0-2.28-2.6,8.09,8.09,0,0,0-6.8-1.67c-2.31.5-4.38,2-6.74,2" transform="translate(-240.35 -952.1)"/></g><g id="_Group_43" data-name="&lt;Group&gt;"><path class="cls-2" d="M477.24,1003.06c3.13,0.09,2.72-1.76,4.9.49,1.08,1.11,1.7,2.6,2.82,3.68a8.12,8.12,0,0,0-6.72-7.39,42.73,42.73,0,0,1,5.35-1.22c1.83-.13,3.9.53,4.68,2.19a3.73,3.73,0,0,0-2.82-3.39,7.29,7.29,0,0,0-4.63.49c-1.47.58-2.83,1.4-4.3,2a1,1,0,0,1,.16-1.38c0.44-.35,1.17-0.07,1.7-0.63-1.18-1.61-3.49.59-3.83,2.22-0.59.29-1.52,0.46-1.73-.16s0.4-1.27,0-1.61a1.75,1.75,0,0,0-.79,2.44,8.29,8.29,0,0,0-5.71.06,13.43,13.43,0,0,0-4.82,3.19,3.74,3.74,0,0,0-1.06,1.53,3.07,3.07,0,0,1-.53,1.53,0,0,0,0,0,0,0c1-.07,1.69-0.68,2.83-2.5,0.8-1.27,2.58-1.94,3.79-2.48s2.64-.93,3.77-0.25a11.3,11.3,0,0,0-4.56,7c2-2.15,1.67-3.5,4.05-5,2-1.22,3.49-2.11,4.32-1.59A10.43,10.43,0,0,0,477.24,1003.06Z" transform="translate(-240.35 -952.1)"/></g><g id="_Group_44" data-name="&lt;Group&gt;"><path class="cls-2" d="M472.89,1001.1c0.26,0,.29-0.57.36-0.33a0.69,0.69,0,0,0,.54.44,2,2,0,0,0,.73,0A1,1,0,0,0,475,1001a1.24,1.24,0,0,0,.13-1.28,6.47,6.47,0,0,1,0-1.91l0.14-1.46a24.66,24.66,0,0,1,.37-2.71,0.81,0.81,0,0,0-1,0,2.06,2.06,0,0,0-.61.9,10.31,10.31,0,0,0-.68,2.44,20.59,20.59,0,0,0-.17,2.18l-0.07,1.59" transform="translate(-240.35 -952.1)"/></g><path id="_Path_11" data-name="&lt;Path&gt;" class="cls-3" d="M462.89,1004.56" transform="translate(-240.35 -952.1)"/></g><g id="_Group_45" data-name="&lt;Group&gt;"><g id="_Group_46" data-name="&lt;Group&gt;"><path class="cls-4" d="M441.1,1024.95a13.07,13.07,0,0,0-6.39,2.24,10.16,10.16,0,0,0-3.83,7.72,14,14,0,0,0,2.63,8.36A11.39,11.39,0,0,0,436,1046a13.65,13.65,0,0,0,9,2.89,19.73,19.73,0,0,0,8-2,11.66,11.66,0,0,0,4.3-5,18.09,18.09,0,0,0,2-5.9,11.06,11.06,0,0,0-.82-6.12,15.87,15.87,0,0,0-1.59-2.57,14,14,0,0,0-2.28-2.6,8.09,8.09,0,0,0-6.8-1.67c-2.31.5-4.38,2-6.74,2" transform="translate(-240.35 -952.1)"/></g><g id="_Group_47" data-name="&lt;Group&gt;"><path class="cls-2" d="M446.89,1026.66c3.13,0.09,2.72-1.76,4.9.49,1.08,1.11,1.7,2.6,2.82,3.68a8.12,8.12,0,0,0-6.72-7.39,42.73,42.73,0,0,1,5.35-1.22c1.83-.13,3.9.53,4.68,2.19a3.73,3.73,0,0,0-2.82-3.39,7.29,7.29,0,0,0-4.63.49c-1.47.58-2.83,1.4-4.3,2a1,1,0,0,1,.16-1.38c0.44-.35,1.17-0.07,1.7-0.63-1.18-1.61-3.49.59-3.83,2.22-0.59.29-1.52,0.46-1.73-.16s0.4-1.27,0-1.61a1.75,1.75,0,0,0-.79,2.44,8.29,8.29,0,0,0-5.71.06,13.43,13.43,0,0,0-4.82,3.19,3.74,3.74,0,0,0-1.06,1.53,3.07,3.07,0,0,1-.53,1.53,0,0,0,0,0,0,0c1-.07,1.69-0.68,2.83-2.5,0.8-1.27,2.58-1.94,3.79-2.48s2.64-.93,3.77-0.25a11.3,11.3,0,0,0-4.56,7c2-2.15,1.67-3.5,4.05-5,2-1.22,3.49-2.11,4.32-1.59A10.43,10.43,0,0,0,446.89,1026.66Z" transform="translate(-240.35 -952.1)"/></g><g id="_Group_48" data-name="&lt;Group&gt;"><path class="cls-2" d="M442.54,1024.71c0.26,0,.29-0.57.36-0.33a0.69,0.69,0,0,0,.54.44,2,2,0,0,0,.73,0,1,1,0,0,0,.44-0.15,1.24,1.24,0,0,0,.13-1.28,6.47,6.47,0,0,1,0-1.91l0.14-1.46a24.66,24.66,0,0,1,.37-2.71,0.81,0.81,0,0,0-1,0,2.06,2.06,0,0,0-.61.9,10.31,10.31,0,0,0-.68,2.44,20.59,20.59,0,0,0-.17,2.18l-0.07,1.59" transform="translate(-240.35 -952.1)"/></g><path id="_Path_12" data-name="&lt;Path&gt;" class="cls-3" d="M432.54,1028.17" transform="translate(-240.35 -952.1)"/></g><g id="_Group_49" data-name="&lt;Group&gt;"><g id="_Group_50" data-name="&lt;Group&gt;"><path class="cls-1" d="M348.94,1019.63a16.61,16.61,0,0,0-8.56-.94,12.92,12.92,0,0,0-8.64,6.75,17.83,17.83,0,0,0-1.58,11,14.48,14.48,0,0,0,1.41,4.51,17.35,17.35,0,0,0,8.77,8.29,25.08,25.08,0,0,0,10.27,2,14.82,14.82,0,0,0,7.66-3.33,23,23,0,0,0,5.52-5.67,14.06,14.06,0,0,0,2.43-7.46,20.17,20.17,0,0,0-.41-3.82,17.81,17.81,0,0,0-1.18-4.23,10.28,10.28,0,0,0-6.87-5.65c-2.92-.69-6.13-0.09-8.85-1.36" transform="translate(-240.35 -952.1)"/></g><g id="_Group_51" data-name="&lt;Group&gt;"><path class="cls-2" d="M354.64,1024.71c3.54,1.83,4.09-.52,5.35,3.26,0.62,1.86.52,3.92,1.21,5.76a10.32,10.32,0,0,0-3.64-12.17c2.26,0.57,4.64.69,6.8,1.55s4.17,2.75,4.17,5.08a4.74,4.74,0,0,0-1.37-5.43,9.27,9.27,0,0,0-5.57-2c-2-.14-4,0.05-6-0.08a1.22,1.22,0,0,1,.94-1.5c0.69-.16,1.38.56,2.3,0.21-0.47-2.49-4.32-1.24-5.61.44-0.84,0-2-.31-1.9-1.14s1.15-1.23.83-1.87a2.23,2.23,0,0,0-2.24,2.36,10.54,10.54,0,0,0-6.58-3.07,17.07,17.07,0,0,0-7.28,1,4.75,4.75,0,0,0-2.06,1.17,3.9,3.9,0,0,1-1.45,1.46,0,0,0,0,0,0,.06c1.16,0.45,2.31.15,4.61-1.31,1.61-1,4-.81,5.71-0.76s3.54,0.39,4.46,1.78a14.36,14.36,0,0,0-9.06,5.48c3.46-1.38,3.84-3.1,7.37-3.46,2.95-.3,5.15-0.5,5.83.55A13.26,13.26,0,0,0,354.64,1024.71Z" transform="translate(-240.35 -952.1)"/></g><g id="_Group_52" data-name="&lt;Group&gt;"><path class="cls-2" d="M350.71,1020.14c0.29,0.14.64-.5,0.59-0.18a0.87,0.87,0,0,0,.38.8,2.57,2.57,0,0,0,.85.37,1.29,1.29,0,0,0,.59.08c0.57-.1.72-0.83,0.86-1.4a8.23,8.23,0,0,1,1-2.19l1-1.59a31.35,31.35,0,0,1,1.91-2.91,1,1,0,0,0-1.16-.54,2.62,2.62,0,0,0-1.19.7,13.1,13.1,0,0,0-2.12,2.42,26.18,26.18,0,0,0-1.4,2.41l-1,1.78" transform="translate(-240.35 -952.1)"/></g><path id="_Path_13" data-name="&lt;Path&gt;" class="cls-3" d="M337.35,1018.61" transform="translate(-240.35 -952.1)"/></g><g id="_Group_53" data-name="&lt;Group&gt;"><g id="_Group_54" data-name="&lt;Group&gt;"><path class="cls-5" d="M373.87,1024.87a14.06,14.06,0,0,0-6.43,3.43,10.93,10.93,0,0,0-2.81,8.84,15.09,15.09,0,0,0,4.17,8.45,12.25,12.25,0,0,0,3.14,2.47,14.68,14.68,0,0,0,10.08,1.6,21.22,21.22,0,0,0,8.15-3.48,12.54,12.54,0,0,0,3.76-6,19.47,19.47,0,0,0,1.15-6.6,11.9,11.9,0,0,0-1.87-6.37,17.07,17.07,0,0,0-2.11-2.47,15.07,15.07,0,0,0-2.85-2.39,8.7,8.7,0,0,0-7.5-.67c-2.37.91-4.33,2.86-6.84,3.28" transform="translate(-240.35 -952.1)"/></g><g id="_Group_55" data-name="&lt;Group&gt;"><path class="cls-2" d="M380.28,1025.7c3.35-.41,2.61-2.32,5.3-0.28,1.33,1,2.24,2.49,3.6,3.45a8.73,8.73,0,0,0-8.36-6.76c1.85-.68,3.57-1.73,5.49-2.17s4.23-.07,5.34,1.56a4,4,0,0,0-3.55-3.14,7.85,7.85,0,0,0-4.84,1.28c-1.47.86-2.78,2-4.25,2.82a1,1,0,0,1-.06-1.49c0.41-.44,1.23-0.27,1.71-1-1.52-1.51-3.61,1.2-3.71,3-0.58.41-1.54,0.74-1.87,0.11s0.22-1.41-.32-1.7a1.89,1.89,0,0,0-.44,2.72,8.92,8.92,0,0,0-6.06,1,14.45,14.45,0,0,0-4.61,4.18,4,4,0,0,0-.88,1.81,3.3,3.3,0,0,1-.31,1.71,0,0,0,0,0,0,0c1-.24,1.69-1,2.6-3.12,0.64-1.49,2.42-2.48,3.63-3.26s2.66-1.42,4-.89a12.15,12.15,0,0,0-3.71,8.16c1.76-2.62,1.2-4,3.5-5.94,1.91-1.62,3.36-2.81,4.34-2.4A11.22,11.22,0,0,0,380.28,1025.7Z" transform="translate(-240.35 -952.1)"/></g><g id="_Group_56" data-name="&lt;Group&gt;"><path class="cls-2" d="M375.35,1024.38c0.27,0,.21-0.66.32-0.41a0.74,0.74,0,0,0,.65.38,2.18,2.18,0,0,0,.77-0.15,1.09,1.09,0,0,0,.45-0.23,1.34,1.34,0,0,0-.07-1.39,7,7,0,0,1-.32-2l-0.09-1.57A26.53,26.53,0,0,1,377,1016a0.87,0.87,0,0,0-1.07.18,2.21,2.21,0,0,0-.5,1.06,11.09,11.09,0,0,0-.33,2.7,22.16,22.16,0,0,0,.17,2.35l0.19,1.7" transform="translate(-240.35 -952.1)"/></g><path id="_Path_14" data-name="&lt;Path&gt;" class="cls-3" d="M365.29,1029.69" transform="translate(-240.35 -952.1)"/></g><g id="_Group_57" data-name="&lt;Group&gt;"><g id="_Group_58" data-name="&lt;Group&gt;"><path class="cls-5" d="M314,996.2a14.06,14.06,0,0,0-6.43,3.43,10.93,10.93,0,0,0-2.81,8.84,15.09,15.09,0,0,0,4.17,8.45,12.25,12.25,0,0,0,3.14,2.47,14.68,14.68,0,0,0,10.08,1.6,21.22,21.22,0,0,0,8.15-3.48,12.54,12.54,0,0,0,3.76-6,19.47,19.47,0,0,0,1.15-6.6,11.9,11.9,0,0,0-1.87-6.37,17.07,17.07,0,0,0-2.11-2.47,15.07,15.07,0,0,0-2.85-2.39,8.7,8.7,0,0,0-7.5-.67c-2.37.91-4.33,2.86-6.84,3.28" transform="translate(-240.35 -952.1)"/></g><g id="_Group_59" data-name="&lt;Group&gt;"><path class="cls-2" d="M320.42,997c3.35-.41,2.61-2.32,5.3-0.28,1.33,1,2.24,2.49,3.6,3.45a8.73,8.73,0,0,0-8.36-6.76c1.85-.68,3.57-1.73,5.49-2.17s4.23-.07,5.34,1.56a4,4,0,0,0-3.55-3.14,7.85,7.85,0,0,0-4.84,1.28c-1.47.86-2.78,2-4.25,2.82a1,1,0,0,1-.06-1.49c0.41-.44,1.23-0.27,1.71-1-1.52-1.51-3.61,1.2-3.71,3-0.58.41-1.54,0.74-1.87,0.11s0.22-1.41-.32-1.7a1.89,1.89,0,0,0-.44,2.72,8.92,8.92,0,0,0-6.06,1,14.45,14.45,0,0,0-4.61,4.18,4,4,0,0,0-.88,1.81,3.3,3.3,0,0,1-.31,1.71,0,0,0,0,0,0,0c1-.24,1.69-1,2.6-3.12,0.64-1.49,2.42-2.48,3.63-3.26s2.66-1.42,4-.89a12.15,12.15,0,0,0-3.71,8.16c1.76-2.62,1.2-4,3.5-5.94,1.91-1.62,3.36-2.81,4.34-2.4A11.22,11.22,0,0,0,320.42,997Z" transform="translate(-240.35 -952.1)"/></g><g id="_Group_60" data-name="&lt;Group&gt;"><path class="cls-2" d="M315.49,995.71c0.27,0,.21-0.66.32-0.41a0.74,0.74,0,0,0,.65.38,2.18,2.18,0,0,0,.77-0.15,1.09,1.09,0,0,0,.45-0.23,1.34,1.34,0,0,0-.07-1.39,7,7,0,0,1-.32-2l-0.09-1.57a26.53,26.53,0,0,1-.05-2.94,0.87,0.87,0,0,0-1.07.18,2.21,2.21,0,0,0-.5,1.06,11.09,11.09,0,0,0-.33,2.7,22.16,22.16,0,0,0,.17,2.35l0.19,1.7" transform="translate(-240.35 -952.1)"/></g><path id="_Path_15" data-name="&lt;Path&gt;" class="cls-3" d="M305.43,1001" transform="translate(-240.35 -952.1)"/></g><g id="_Group_61" data-name="&lt;Group&gt;"><g id="_Group_62" data-name="&lt;Group&gt;"><g id="_Group_63" data-name="&lt;Group&gt;"><path class="cls-1" d="M410.41,1020.39a16.61,16.61,0,0,0-8.55,1,12.92,12.92,0,0,0-6.89,8.52,17.83,17.83,0,0,0,1,11.1,14.48,14.48,0,0,0,2.39,4.07,17.35,17.35,0,0,0,10.41,6.1,25.08,25.08,0,0,0,10.47-.32,14.82,14.82,0,0,0,6.71-5,23,23,0,0,0,4.1-6.77,14.06,14.06,0,0,0,.68-7.82,20.17,20.17,0,0,0-1.26-3.63,17.82,17.82,0,0,0-2.1-3.85,10.28,10.28,0,0,0-8-4c-3,0-6,1.29-8.93.67" transform="translate(-240.35 -952.1)"/></g><g id="_Group_64" data-name="&lt;Group&gt;"><path class="cls-2" d="M417.11,1024.09c3.86,1,3.87-1.43,5.95,2,1,1.68,1.39,3.7,2.47,5.34a10.32,10.32,0,0,0-6.29-11c2.33,0,4.67-.37,7,0s4.69,1.74,5.21,4a4.74,4.74,0,0,0-2.56-5,9.27,9.27,0,0,0-5.88-.68c-2,.32-3.9,1-5.89,1.28a1.22,1.22,0,0,1,.58-1.67c0.64-.32,1.47.24,2.29-0.31-1-2.32-4.49-.23-5.37,1.69-0.82.2-2,.15-2.1-0.68s0.85-1.46.38-2a2.23,2.23,0,0,0-1.65,2.8,10.54,10.54,0,0,0-7.1-1.5,17.07,17.07,0,0,0-6.87,2.62,4.75,4.75,0,0,0-1.75,1.61,3.9,3.9,0,0,1-1.08,1.75,0,0,0,0,0,0,.06c1.23,0.18,2.28-.37,4.2-2.31,1.34-1.36,3.73-1.69,5.4-2s3.54-.42,4.74.73a14.36,14.36,0,0,0-7.59,7.39c3.06-2.12,3-3.88,6.4-5,2.8-1,4.91-1.65,5.8-.77A13.26,13.26,0,0,0,417.11,1024.09Z" transform="translate(-240.35 -952.1)"/></g></g><g id="_Group_65" data-name="&lt;Group&gt;"><path class="cls-2" d="M412.25,1020.49c0.32,0.07.51-.63,0.53-0.31a0.87,0.87,0,0,0,.55.7,2.57,2.57,0,0,0,.91.16,1.29,1.29,0,0,0,.59-0.06c0.53-.23.51-1,0.52-1.55a8.23,8.23,0,0,1,.53-2.37l0.58-1.77a31.35,31.35,0,0,1,1.21-3.26,1,1,0,0,0-1.26-.27,2.62,2.62,0,0,0-1,.95,13.1,13.1,0,0,0-1.52,2.84,26.18,26.18,0,0,0-.82,2.66l-0.52,1.95" transform="translate(-240.35 -952.1)"/></g><path id="_Path_16" data-name="&lt;Path&gt;" class="cls-3" d="M398.89,1022" transform="translate(-240.35 -952.1)"/></g><g id="_Group_66" data-name="&lt;Group&gt;"><g id="_Group_67" data-name="&lt;Group&gt;"><g id="_Group_68" data-name="&lt;Group&gt;"><path class="cls-1" d="M434.76,1001.36a11.42,11.42,0,0,0-5.88.7,8.88,8.88,0,0,0-4.74,5.86,12.26,12.26,0,0,0,.65,7.63,10,10,0,0,0,1.64,2.8,11.93,11.93,0,0,0,7.16,4.19,17.24,17.24,0,0,0,7.2-.22,10.19,10.19,0,0,0,4.61-3.42,15.82,15.82,0,0,0,2.82-4.65,9.67,9.67,0,0,0,.47-5.37,13.87,13.87,0,0,0-.87-2.5,12.25,12.25,0,0,0-1.45-2.65,7.07,7.07,0,0,0-5.48-2.72c-2.06,0-4.12.89-6.14,0.46" transform="translate(-240.35 -952.1)"/></g><g id="_Group_69" data-name="&lt;Group&gt;"><path class="cls-2" d="M439.37,1003.9c2.66,0.68,2.66-1,4.09,1.35,0.71,1.15,1,2.54,1.7,3.67a7.1,7.1,0,0,0-4.33-7.58,37.35,37.35,0,0,1,4.8,0c1.58,0.24,3.22,1.2,3.58,2.76a3.26,3.26,0,0,0-1.76-3.43,6.38,6.38,0,0,0-4-.47c-1.36.22-2.68,0.66-4,.88a0.84,0.84,0,0,1,.4-1.15c0.44-.22,1,0.16,1.57-0.22-0.7-1.6-3.09-.16-3.69,1.16-0.56.14-1.39,0.11-1.45-.47s0.58-1,.26-1.38a1.53,1.53,0,0,0-1.14,1.93,7.25,7.25,0,0,0-4.88-1,11.74,11.74,0,0,0-4.72,1.8,3.27,3.27,0,0,0-1.2,1.11,2.68,2.68,0,0,1-.74,1.2,0,0,0,0,0,0,0c0.85,0.12,1.57-.26,2.89-1.59,0.92-.94,2.57-1.16,3.71-1.39a3.66,3.66,0,0,1,3.26.5,9.87,9.87,0,0,0-5.22,5.08c2.11-1.46,2.09-2.67,4.4-3.46,1.93-.66,3.38-1.13,4-0.53A9.11,9.11,0,0,0,439.37,1003.9Z" transform="translate(-240.35 -952.1)"/></g></g><g id="_Group_70" data-name="&lt;Group&gt;"><path class="cls-2" d="M436,1001.43c0.22,0,.35-0.43.37-0.21a0.6,0.6,0,0,0,.38.48,1.77,1.77,0,0,0,.63.11,0.89,0.89,0,0,0,.4,0,1.09,1.09,0,0,0,.36-1.07,5.66,5.66,0,0,1,.36-1.63l0.4-1.22a21.55,21.55,0,0,1,.83-2.24,0.71,0.71,0,0,0-.86-0.18,1.8,1.8,0,0,0-.69.65,9,9,0,0,0-1,1.95,18,18,0,0,0-.56,1.83l-0.36,1.34" transform="translate(-240.35 -952.1)"/></g><path id="_Path_17" data-name="&lt;Path&gt;" class="cls-3" d="M426.84,1002.48" transform="translate(-240.35 -952.1)"/></g><g id="_Group_71" data-name="&lt;Group&gt;"><g id="_Group_72" data-name="&lt;Group&gt;"><g id="_Group_73" data-name="&lt;Group&gt;"><path class="cls-1" d="M390.17,998.63a11.42,11.42,0,0,0-5-3.12,8.88,8.88,0,0,0-7.36,1.62,12.26,12.26,0,0,0-4.25,6.37,10,10,0,0,0-.46,3.21,11.93,11.93,0,0,0,3,7.74,17.24,17.24,0,0,0,5.77,4.32,10.19,10.19,0,0,0,5.74.2,15.82,15.82,0,0,0,5.11-1.88,9.67,9.67,0,0,0,3.72-3.91,13.87,13.87,0,0,0,.88-2.49,12.25,12.25,0,0,0,.52-3,7.07,7.07,0,0,0-2.59-5.54c-1.61-1.3-3.78-1.88-5.09-3.47" transform="translate(-240.35 -952.1)"/></g><g id="_Group_74" data-name="&lt;Group&gt;"><path class="cls-2" d="M392.2,1003.49c1.65,2.19,2.69.89,2.35,3.61-0.17,1.34-.84,2.59-1,3.93a7.1,7.1,0,0,0,1.35-8.63,37.35,37.35,0,0,1,3.76,3c1.09,1.17,1.77,2.95,1.08,4.39a3.26,3.26,0,0,0,.76-3.78,6.38,6.38,0,0,0-2.87-2.88c-1.2-.68-2.51-1.16-3.71-1.84a0.84,0.84,0,0,1,1-.65c0.48,0.1.69,0.76,1.36,0.81,0.44-1.69-2.31-2-3.61-1.39-0.53-.24-1.15-0.78-0.84-1.27s1.08-.42,1.07-0.91a1.53,1.53,0,0,0-2.09.8,7.25,7.25,0,0,0-3.17-3.85,11.74,11.74,0,0,0-4.82-1.54,3.27,3.27,0,0,0-1.63.12,2.68,2.68,0,0,1-1.33.48,0,0,0,0,0,0,0c0.58,0.62,1.39.78,3.25,0.56,1.3-.16,2.73.69,3.77,1.22a3.66,3.66,0,0,1,2.24,2.42,9.87,9.87,0,0,0-7.25.72c2.56,0.17,3.3-.78,5.6,0,1.92,0.69,3.35,1.22,3.45,2.07A9.11,9.11,0,0,0,392.2,1003.49Z" transform="translate(-240.35 -952.1)"/></g></g><g id="_Group_75" data-name="&lt;Group&gt;"><path class="cls-2" d="M391.12,999.48c0.14,0.17.55-.12,0.42,0.06a0.6,0.6,0,0,0,0,.61,1.77,1.77,0,0,0,.42.48,0.89,0.89,0,0,0,.34.22,1.09,1.09,0,0,0,.95-0.61,5.66,5.66,0,0,1,1.3-1.05l1.07-.7a21.55,21.55,0,0,1,2-1.24,0.71,0.71,0,0,0-.56-0.68,1.8,1.8,0,0,0-.94.08,9,9,0,0,0-2,.87,18,18,0,0,0-1.58,1.08l-1.12.82" transform="translate(-240.35 -952.1)"/></g><path id="_Path_18" data-name="&lt;Path&gt;" class="cls-3" d="M383.29,994.57" transform="translate(-240.35 -952.1)"/></g><g id="_Group_76" data-name="&lt;Group&gt;"><g id="_Group_77" data-name="&lt;Group&gt;"><g id="_Group_78" data-name="&lt;Group&gt;"><path class="cls-1" d="M480.28,966a11.42,11.42,0,0,0-5.88.7,8.88,8.88,0,0,0-4.74,5.86,12.26,12.26,0,0,0,.65,7.63,10,10,0,0,0,1.64,2.8,11.93,11.93,0,0,0,7.16,4.19,17.24,17.24,0,0,0,7.2-.22,10.19,10.19,0,0,0,4.61-3.42,15.82,15.82,0,0,0,2.82-4.65,9.67,9.67,0,0,0,.47-5.37,13.87,13.87,0,0,0-.87-2.5,12.25,12.25,0,0,0-1.45-2.65,7.07,7.07,0,0,0-5.48-2.72c-2.06,0-4.12.89-6.14,0.46" transform="translate(-240.35 -952.1)"/></g><g id="_Group_79" data-name="&lt;Group&gt;"><path class="cls-2" d="M484.89,968.49c2.66,0.68,2.66-1,4.09,1.35,0.71,1.15,1,2.54,1.7,3.67a7.1,7.1,0,0,0-4.33-7.58,37.35,37.35,0,0,1,4.8,0c1.58,0.24,3.22,1.2,3.58,2.76a3.26,3.26,0,0,0-1.76-3.43,6.38,6.38,0,0,0-4-.47c-1.36.22-2.68,0.66-4,.88a0.84,0.84,0,0,1,.4-1.15c0.44-.22,1,0.16,1.57-0.22-0.7-1.6-3.09-.16-3.69,1.16-0.56.14-1.39,0.11-1.45-.47s0.58-1,.26-1.38a1.53,1.53,0,0,0-1.14,1.93,7.25,7.25,0,0,0-4.88-1,11.74,11.74,0,0,0-4.72,1.8,3.27,3.27,0,0,0-1.2,1.11,2.68,2.68,0,0,1-.74,1.2,0,0,0,0,0,0,0c0.85,0.12,1.57-.26,2.89-1.59,0.92-.94,2.57-1.16,3.71-1.39a3.66,3.66,0,0,1,3.26.5,9.87,9.87,0,0,0-5.22,5.08c2.11-1.46,2.09-2.67,4.4-3.46,1.93-.66,3.38-1.13,4-0.53A9.11,9.11,0,0,0,484.89,968.49Z" transform="translate(-240.35 -952.1)"/></g></g><g id="_Group_80" data-name="&lt;Group&gt;"><path class="cls-2" d="M481.55,966c0.22,0,.35-0.43.37-0.21a0.6,0.6,0,0,0,.38.48,1.77,1.77,0,0,0,.63.11,0.89,0.89,0,0,0,.4,0,1.09,1.09,0,0,0,.36-1.07,5.66,5.66,0,0,1,.36-1.63l0.4-1.22a21.55,21.55,0,0,1,.83-2.24,0.71,0.71,0,0,0-.86-0.18,1.8,1.8,0,0,0-.69.65,9,9,0,0,0-1,1.95,18,18,0,0,0-.56,1.83l-0.36,1.34" transform="translate(-240.35 -952.1)"/></g><path id="_Path_19" data-name="&lt;Path&gt;" class="cls-3" d="M472.37,967.07" transform="translate(-240.35 -952.1)"/></g><g id="_Group_81" data-name="&lt;Group&gt;"><g id="_Group_82" data-name="&lt;Group&gt;"><g id="_Group_83" data-name="&lt;Group&gt;"><path class="cls-1" d="M500.08,985.77a14.37,14.37,0,0,0-7.39.88,11.17,11.17,0,0,0-6,7.37,15.42,15.42,0,0,0,.82,9.6,12.52,12.52,0,0,0,2.07,3.52,15,15,0,0,0,9,5.27,21.69,21.69,0,0,0,9.06-.28,12.82,12.82,0,0,0,5.81-4.3A19.9,19.9,0,0,0,517,1002a12.17,12.17,0,0,0,.59-6.76,17.45,17.45,0,0,0-1.09-3.14,15.41,15.41,0,0,0-1.82-3.33,8.9,8.9,0,0,0-6.89-3.42c-2.6,0-5.19,1.12-7.73.58" transform="translate(-240.35 -952.1)"/></g><g id="_Group_84" data-name="&lt;Group&gt;"><path class="cls-2" d="M505.88,989c3.34,0.85,3.34-1.24,5.15,1.7,0.89,1.45,1.21,3.2,2.14,4.62a8.93,8.93,0,0,0-5.44-9.54c2,0,4-.32,6,0s4.05,1.51,4.5,3.47a4.1,4.1,0,0,0-2.21-4.31,8,8,0,0,0-5.08-.59c-1.72.27-3.38,0.83-5.09,1.11a1.06,1.06,0,0,1,.5-1.44c0.55-.27,1.27.2,2-0.27-0.89-2-3.88-.2-4.64,1.46-0.71.17-1.75,0.13-1.82-.59s0.73-1.26.33-1.74a1.93,1.93,0,0,0-1.43,2.42,9.12,9.12,0,0,0-6.14-1.3,14.77,14.77,0,0,0-5.94,2.27,4.11,4.11,0,0,0-1.51,1.39,3.37,3.37,0,0,1-.94,1.51,0,0,0,0,0,0,.05c1.06,0.16,2-.32,3.63-2,1.16-1.18,3.23-1.46,4.67-1.75s3.06-.36,4.1.63a12.42,12.42,0,0,0-6.57,6.39c2.65-1.84,2.63-3.36,5.54-4.35,2.42-.83,4.25-1.43,5-0.67A11.47,11.47,0,0,0,505.88,989Z" transform="translate(-240.35 -952.1)"/></g></g><g id="_Group_85" data-name="&lt;Group&gt;"><path class="cls-2" d="M501.67,985.86c0.27,0.06.44-.55,0.46-0.27a0.76,0.76,0,0,0,.47.6,2.23,2.23,0,0,0,.79.14,1.12,1.12,0,0,0,.51-0.05,1.37,1.37,0,0,0,.45-1.34,7.12,7.12,0,0,1,.45-2.05l0.5-1.53a27.11,27.11,0,0,1,1-2.82,0.89,0.89,0,0,0-1.09-.23,2.26,2.26,0,0,0-.87.82,11.33,11.33,0,0,0-1.32,2.45,22.65,22.65,0,0,0-.71,2.3l-0.45,1.69" transform="translate(-240.35 -952.1)"/></g><path id="_Path_20" data-name="&lt;Path&gt;" class="cls-3" d="M490.11,987.18" transform="translate(-240.35 -952.1)"/></g><g id="_Group_86" data-name="&lt;Group&gt;"><g id="_Group_87" data-name="&lt;Group&gt;"><g id="_Group_88" data-name="&lt;Group&gt;"><path class="cls-1" d="M470.17,1026.66a11.42,11.42,0,0,0-5.88.7,8.88,8.88,0,0,0-4.74,5.86,12.26,12.26,0,0,0,.65,7.63,10,10,0,0,0,1.64,2.8,11.93,11.93,0,0,0,7.16,4.19,17.24,17.24,0,0,0,7.2-.22,10.19,10.19,0,0,0,4.61-3.42,15.82,15.82,0,0,0,2.82-4.65,9.67,9.67,0,0,0,.47-5.37,13.87,13.87,0,0,0-.87-2.5,12.25,12.25,0,0,0-1.45-2.65,7.07,7.07,0,0,0-5.48-2.72c-2.06,0-4.12.89-6.14,0.46" transform="translate(-240.35 -952.1)"/></g><g id="_Group_89" data-name="&lt;Group&gt;"><path class="cls-2" d="M474.78,1029.2c2.66,0.68,2.66-1,4.09,1.35,0.71,1.15,1,2.54,1.7,3.67a7.1,7.1,0,0,0-4.33-7.58,37.35,37.35,0,0,1,4.8,0c1.58,0.24,3.22,1.2,3.58,2.76a3.26,3.26,0,0,0-1.76-3.43,6.38,6.38,0,0,0-4-.47c-1.36.22-2.68,0.66-4,.88a0.84,0.84,0,0,1,.4-1.15c0.44-.22,1,0.16,1.57-0.22-0.7-1.6-3.09-.16-3.69,1.16-0.56.14-1.39,0.11-1.45-.47s0.58-1,.26-1.38a1.53,1.53,0,0,0-1.14,1.93,7.25,7.25,0,0,0-4.88-1,11.74,11.74,0,0,0-4.72,1.8,3.27,3.27,0,0,0-1.2,1.11,2.68,2.68,0,0,1-.74,1.2,0,0,0,0,0,0,0c0.85,0.12,1.57-.26,2.89-1.59,0.92-.94,2.57-1.16,3.71-1.39a3.66,3.66,0,0,1,3.26.5,9.87,9.87,0,0,0-5.22,5.08c2.11-1.46,2.09-2.67,4.4-3.46,1.93-.66,3.38-1.13,4-0.53A9.11,9.11,0,0,0,474.78,1029.2Z" transform="translate(-240.35 -952.1)"/></g></g><g id="_Group_90" data-name="&lt;Group&gt;"><path class="cls-2" d="M471.44,1026.73c0.22,0,.35-0.43.37-0.21a0.6,0.6,0,0,0,.38.48,1.77,1.77,0,0,0,.63.11,0.89,0.89,0,0,0,.4,0,1.09,1.09,0,0,0,.36-1.07,5.66,5.66,0,0,1,.36-1.63l0.4-1.22a21.55,21.55,0,0,1,.83-2.24,0.71,0.71,0,0,0-.86-0.18,1.8,1.8,0,0,0-.69.65,9,9,0,0,0-1,1.95,18,18,0,0,0-.56,1.83l-0.36,1.34" transform="translate(-240.35 -952.1)"/></g><path id="_Path_21" data-name="&lt;Path&gt;" class="cls-3" d="M462.25,1027.77" transform="translate(-240.35 -952.1)"/></g><g id="_Group_91" data-name="&lt;Group&gt;"><g id="_Group_92" data-name="&lt;Group&gt;"><g id="_Group_93" data-name="&lt;Group&gt;"><path class="cls-1" d="M355.92,973.06a16.61,16.61,0,0,0-7.5-4.22,12.92,12.92,0,0,0-10.59,2.83,17.83,17.83,0,0,0-5.77,9.53,14.48,14.48,0,0,0-.47,4.7A17.35,17.35,0,0,0,336.41,997a25.08,25.08,0,0,0,8.65,5.91,14.82,14.82,0,0,0,8.35-.07,23,23,0,0,0,7.3-3.05,14.06,14.06,0,0,0,5.16-5.92,20.17,20.17,0,0,0,1.12-3.68,17.82,17.82,0,0,0,.57-4.35,10.28,10.28,0,0,0-4.11-7.89c-2.41-1.78-5.61-2.49-7.61-4.72" transform="translate(-240.35 -952.1)"/></g><g id="_Group_94" data-name="&lt;Group&gt;"><path class="cls-2" d="M359.16,980c2.54,3.07,4,1.12,3.65,5.09-0.16,2-1.05,3.81-1.15,5.78a10.32,10.32,0,0,0,1.41-12.62c1.85,1.41,4,2.45,5.66,4.09s2.76,4.17,1.84,6.31a4.74,4.74,0,0,0,.87-5.54,9.27,9.27,0,0,0-4.35-4c-1.79-.91-3.72-1.53-5.51-2.43a1.22,1.22,0,0,1,1.45-1c0.7,0.12,1,1.06,2,1.09,0.54-2.48-3.49-2.83-5.33-1.79-0.78-.32-1.72-1.06-1.3-1.79s1.54-.68,1.49-1.4a2.23,2.23,0,0,0-3,1.29,10.54,10.54,0,0,0-4.85-5.4,17.07,17.07,0,0,0-7.1-1.93,4.75,4.75,0,0,0-2.36.27,3.9,3.9,0,0,1-1.9.78,0,0,0,0,0,0,.06c0.89,0.87,2.06,1,4.76.6,1.89-.31,4,0.83,5.55,1.54s3.1,1.74,3.4,3.38a14.36,14.36,0,0,0-10.49,1.5c3.73,0.09,4.75-1.35,8.14-.3,2.83,0.88,4.94,1.56,5.15,2.79A13.26,13.26,0,0,0,359.16,980Z" transform="translate(-240.35 -952.1)"/></g></g><g id="_Group_95" data-name="&lt;Group&gt;"><path class="cls-2" d="M357.35,974.23c0.22,0.24.79-.21,0.61,0.06a0.87,0.87,0,0,0,0,.89,2.57,2.57,0,0,0,.64.67,1.29,1.29,0,0,0,.51.3c0.57,0.13,1-.49,1.34-0.95a8.23,8.23,0,0,1,1.82-1.61l1.51-1.09a31.35,31.35,0,0,1,2.9-1.93,1,1,0,0,0-.86-1,2.62,2.62,0,0,0-1.37.18,13.1,13.1,0,0,0-2.9,1.4,26.18,26.18,0,0,0-2.23,1.67l-1.57,1.27" transform="translate(-240.35 -952.1)"/></g><path id="_Path_22" data-name="&lt;Path&gt;" class="cls-3" d="M345.65,967.59" transform="translate(-240.35 -952.1)"/></g><g id="_Group_96" data-name="&lt;Group&gt;"><g id="_Group_97" data-name="&lt;Group&gt;"><g id="_Group_98" data-name="&lt;Group&gt;"><path class="cls-1" d="M259.44,995.94a13.88,13.88,0,0,0-6.69-2.64,10.79,10.79,0,0,0-8.44,3.54,14.89,14.89,0,0,0-3.69,8.54,12.09,12.09,0,0,0,.14,3.94,14.5,14.5,0,0,0,5.24,8.6,21,21,0,0,0,7.83,3.91,12.38,12.38,0,0,0,6.91-1,19.22,19.22,0,0,0,5.7-3.35A11.75,11.75,0,0,0,270,1012a16.85,16.85,0,0,0,.51-3.17,14.88,14.88,0,0,0,0-3.67,8.59,8.59,0,0,0-4.3-6.07c-2.2-1.2-4.92-1.42-6.84-3" transform="translate(-240.35 -952.1)"/></g><g id="_Group_99" data-name="&lt;Group&gt;"><path class="cls-2" d="M262.91,1001.31c2.45,2.25,3.41.48,3.6,3.8,0.09,1.64-.44,3.27-0.29,4.91a8.62,8.62,0,0,0-.26-10.61,45.38,45.38,0,0,1,5.14,2.74c1.56,1.17,2.76,3.14,2.24,5a4,4,0,0,0,.09-4.68,7.75,7.75,0,0,0-4.06-2.82c-1.58-.55-3.25-0.84-4.84-1.39a1,1,0,0,1,1.09-1c0.59,0,1,.75,1.81.67,0.17-2.11-3.21-1.95-4.62-.88-0.68-.18-1.55-0.69-1.28-1.34s1.2-.74,1.08-1.32a1.86,1.86,0,0,0-2.33,1.41,8.8,8.8,0,0,0-4.63-3.92,14.26,14.26,0,0,0-6.09-.79,4,4,0,0,0-1.92.49,3.26,3.26,0,0,1-1.49.86,0,0,0,0,0,0,0c0.83,0.62,1.83.63,4,0,1.53-.47,3.42.23,4.77,0.64s2.77,1.09,3.2,2.41a12,12,0,0,0-8.51,2.43c3.09-.35,3.78-1.65,6.7-1.17,2.44,0.4,4.26.73,4.58,1.73A11.08,11.08,0,0,0,262.91,1001.31Z" transform="translate(-240.35 -952.1)"/></g></g><g id="_Group_100" data-name="&lt;Group&gt;"><path class="cls-2" d="M260.76,996.75c0.21,0.17.63-.26,0.51,0a0.73,0.73,0,0,0,.13.73,2.15,2.15,0,0,0,.61.48,1.08,1.08,0,0,0,.46.19,1.32,1.32,0,0,0,1-.94,6.88,6.88,0,0,1,1.33-1.54l1.13-1.07a26.19,26.19,0,0,1,2.18-1.92,0.86,0.86,0,0,0-.82-0.69,2.19,2.19,0,0,0-1.11.3,11,11,0,0,0-2.24,1.48,21.87,21.87,0,0,0-1.65,1.63l-1.16,1.23" transform="translate(-240.35 -952.1)"/></g><path id="_Path_23" data-name="&lt;Path&gt;" class="cls-3" d="M250.33,992.58" transform="translate(-240.35 -952.1)"/></g><g id="_Group_101" data-name="&lt;Group&gt;"><g id="_Group_102" data-name="&lt;Group&gt;"><g id="_Group_103" data-name="&lt;Group&gt;"><path class="cls-1" d="M290.64,991.73a13.88,13.88,0,0,0-6.69-2.64,10.79,10.79,0,0,0-8.44,3.54,14.89,14.89,0,0,0-3.69,8.54,12.09,12.09,0,0,0,.14,3.94,14.5,14.5,0,0,0,5.24,8.6,21,21,0,0,0,7.83,3.91,12.38,12.38,0,0,0,6.91-1,19.22,19.22,0,0,0,5.7-3.35,11.75,11.75,0,0,0,3.6-5.48,16.85,16.85,0,0,0,.51-3.17,14.88,14.88,0,0,0,0-3.67,8.59,8.59,0,0,0-4.3-6.07c-2.2-1.2-4.92-1.42-6.84-3" transform="translate(-240.35 -952.1)"/></g><g id="_Group_104" data-name="&lt;Group&gt;"><path class="cls-2" d="M294.11,997.1c2.45,2.25,3.41.48,3.6,3.8,0.09,1.64-.44,3.27-0.29,4.91a8.62,8.62,0,0,0-.26-10.61,45.38,45.38,0,0,1,5.14,2.74c1.56,1.17,2.76,3.14,2.24,5a4,4,0,0,0,.09-4.68,7.75,7.75,0,0,0-4.06-2.82c-1.58-.55-3.25-0.84-4.84-1.39a1,1,0,0,1,1.09-1c0.59,0,1,.75,1.81.67,0.17-2.11-3.21-1.95-4.62-.88-0.68-.18-1.55-0.69-1.28-1.34s1.2-.74,1.08-1.32a1.86,1.86,0,0,0-2.33,1.41,8.8,8.8,0,0,0-4.63-3.92,14.26,14.26,0,0,0-6.09-.79,4,4,0,0,0-1.92.49,3.26,3.26,0,0,1-1.49.86,0,0,0,0,0,0,0c0.83,0.62,1.83.63,4,0,1.53-.47,3.42.23,4.77,0.64s2.77,1.09,3.2,2.41a12,12,0,0,0-8.51,2.43c3.09-.35,3.78-1.65,6.7-1.17,2.44,0.4,4.26.73,4.58,1.73A11.08,11.08,0,0,0,294.11,997.1Z" transform="translate(-240.35 -952.1)"/></g></g><g id="_Group_105" data-name="&lt;Group&gt;"><path class="cls-2" d="M292,992.53c0.21,0.17.63-.26,0.51,0a0.73,0.73,0,0,0,.13.73,2.15,2.15,0,0,0,.61.48,1.08,1.08,0,0,0,.46.19,1.32,1.32,0,0,0,1-.94,6.88,6.88,0,0,1,1.33-1.54l1.13-1.07a26.19,26.19,0,0,1,2.18-1.92,0.86,0.86,0,0,0-.82-0.69,2.19,2.19,0,0,0-1.11.3,11,11,0,0,0-2.24,1.48,21.87,21.87,0,0,0-1.65,1.63l-1.16,1.23" transform="translate(-240.35 -952.1)"/></g><path id="_Path_24" data-name="&lt;Path&gt;" class="cls-3" d="M281.52,988.36" transform="translate(-240.35 -952.1)"/></g><g id="_Group_106" data-name="&lt;Group&gt;"><g id="_Group_107" data-name="&lt;Group&gt;"><g id="_Group_108" data-name="&lt;Group&gt;"><path class="cls-1" d="M359.72,999.68a11.42,11.42,0,0,0-5.88.7,8.88,8.88,0,0,0-4.74,5.86,12.26,12.26,0,0,0,.65,7.63,10,10,0,0,0,1.64,2.8,11.93,11.93,0,0,0,7.16,4.19,17.24,17.24,0,0,0,7.2-.22,10.19,10.19,0,0,0,4.61-3.42,15.82,15.82,0,0,0,2.82-4.65,9.67,9.67,0,0,0,.47-5.37,13.87,13.87,0,0,0-.87-2.5,12.25,12.25,0,0,0-1.45-2.65,7.07,7.07,0,0,0-5.48-2.72c-2.06,0-4.12.89-6.14,0.46" transform="translate(-240.35 -952.1)"/></g><g id="_Group_109" data-name="&lt;Group&gt;"><path class="cls-2" d="M364.33,1002.22c2.66,0.68,2.66-1,4.09,1.35,0.71,1.15,1,2.54,1.7,3.67a7.1,7.1,0,0,0-4.33-7.58,37.35,37.35,0,0,1,4.8,0c1.58,0.24,3.22,1.2,3.58,2.76a3.26,3.26,0,0,0-1.76-3.43,6.38,6.38,0,0,0-4-.47c-1.36.22-2.68,0.66-4,.88a0.84,0.84,0,0,1,.4-1.15c0.44-.22,1,0.16,1.57-0.22-0.7-1.6-3.09-.16-3.69,1.16-0.56.14-1.39,0.11-1.45-.47s0.58-1,.26-1.38a1.53,1.53,0,0,0-1.14,1.93,7.25,7.25,0,0,0-4.88-1,11.74,11.74,0,0,0-4.72,1.8,3.27,3.27,0,0,0-1.2,1.11,2.68,2.68,0,0,1-.74,1.2,0,0,0,0,0,0,0c0.85,0.12,1.57-.26,2.89-1.59,0.92-.94,2.57-1.16,3.71-1.39a3.66,3.66,0,0,1,3.26.5,9.87,9.87,0,0,0-5.22,5.08c2.11-1.46,2.09-2.67,4.4-3.46,1.93-.66,3.38-1.13,4-0.53A9.11,9.11,0,0,0,364.33,1002.22Z" transform="translate(-240.35 -952.1)"/></g></g><g id="_Group_110" data-name="&lt;Group&gt;"><path class="cls-2" d="M361,999.75c0.22,0,.35-0.43.37-0.21a0.6,0.6,0,0,0,.38.48,1.77,1.77,0,0,0,.63.11,0.89,0.89,0,0,0,.4,0,1.09,1.09,0,0,0,.36-1.07,5.66,5.66,0,0,1,.36-1.63l0.4-1.22a21.55,21.55,0,0,1,.83-2.24,0.71,0.71,0,0,0-.86-0.18,1.8,1.8,0,0,0-.69.65,9,9,0,0,0-1,1.95,18,18,0,0,0-.56,1.83l-0.36,1.34" transform="translate(-240.35 -952.1)"/></g><path id="_Path_25" data-name="&lt;Path&gt;" class="cls-3" d="M351.8,1000.79" transform="translate(-240.35 -952.1)"/></g></svg>