<?xml version="1.0" encoding="utf-8"?>
<!-- Generator: Adobe Illustrator 19.2.0, SVG Export Plug-In . SVG Version: 6.00 Build 0)  -->
<svg version="1.1" id="Layer_1" xmlns="http://www.w3.org/2000/svg" xmlns:xlink="http://www.w3.org/1999/xlink" x="0px" y="0px"
	 viewBox="0 0 194 92.2" style="enable-background:new 0 0 194 92.2;" xml:space="preserve">
<style type="text/css">
	.st0{fill:#FFEED5;}
	.st1{fill:#F4D49D;}
	.st2{fill:#44A84F;}
	.st3{fill:#9BC53D;}
</style>
<g id="XMLID_500_">
	<g id="XMLID_509_">
		<path class="st0" d="M163.3,48.2c-3.8-1.1-8.1,0.2-10.7,3.2c-0.8,0.9-1.4,1.9-2,3c-0.8,1.3-1.5,3-0.7,4.3c0.7,1,2.1,1.3,2.6,2.4
			c0.6,1.3-0.5,2.7-0.3,4.1c0.1,0.9,0.9,1.7,1.8,1.8c1.2,0.2,2.5-0.6,3.6-0.1c1.7,0.7,1.3,3.7,3,4.5c0.7,0.3,1.6,0.1,2.2-0.4
			c0.6-0.5,0.8-1.4,0.8-2.1c0-0.3-0.1-0.6,0-0.9c0.1-0.8,1-1.1,1.8-1.2c0.8-0.1,1.7-0.1,2.2-0.7c0.6-0.7,0.4-1.9-0.5-2.3
			c-0.9-0.4-1.9,0.1-2.8-0.1c-1.1-0.3-1.6-1.6-1.4-2.7c0.2-1.1,0.8-2,1.5-2.9c0.3-0.5,0.7-0.9,1-1.4c0.7-0.9,1.3-2.1,0.6-3
			c-0.5-0.7-1.5-0.7-2.3-1.1c-1.1-0.6-1.5-2.3-0.8-3.3c0.2-0.2,0.4-0.4,0.5-0.7c0.1-0.3-0.9-0.6-1.1-0.6"/>
	</g>
	<g id="XMLID_508_">
		<path class="st1" d="M149.2,55.6c-2,1.2-2.4,3.3-2.2,5.2c0,0.4,0.1,0.8,0.1,1.2c-0.2,1.2-1.6,1.7-2.4,2.5c-1.4,1.3-1.4,3.7-0.1,5
			c0.9,0.9,2.3,1.4,2.8,2.6c0.4,0.9,0.2,1.9,0.1,2.9c-0.1,1,0.1,2.1,0.9,2.6c1.5,0.8,3.5-1.3,5-0.5c0.9,0.5,1.1,1.8,2,2.3
			c0.6,0.4,1.4,0.3,2.1,0.2c0.2,0,0.3,0,0.5-0.1c0.3-0.2,0.3-0.7,0.5-1.1c0.4-0.7,1.5-0.3,2.2-0.7c1.2-0.6,0.6-2.7,1.6-3.5
			c0.2-0.2,0.5-0.3,0.8-0.4c0.7-0.2,1.3-0.3,2-0.5c0.6-0.3,1.2-0.8,1.3-1.4c0.1-0.7-0.2-1.3-0.5-1.9c-0.1-0.2-0.3-0.5-0.6-0.6
			c-0.6-0.2-1,0.5-1.5,0.9c-0.7,0.7-2,0.7-2.7,0.1c-1.2-1-1.1-3-2.4-3.8c-1.4-0.8-3.3,0.5-4.7-0.1c-1-0.4-1.4-1.6-1.4-2.6
			c0-1.1,0.2-2.1,0.2-3.2c0-1.7-0.8-3.3-2.1-4.4C150.3,55.9,150,55.1,149.2,55.6z"/>
	</g>
	<g id="XMLID_507_">
		<path class="st0" d="M177.5,59.6c-1-0.2-1.9-0.3-2.9-0.5c-0.3-0.1-0.7-0.1-1,0c-0.3,0.1-0.6,0.4-0.8,0.6c-0.8,0.6-1.8,0.9-2.8,1.2
			c-1,0.3-2,0.6-2.8,1.3c-0.8,0.7-1.2,1.8-0.7,2.8c0.1,0.3,0.4,0.6,0.2,0.9c-0.1,0.2-0.3,0.3-0.5,0.4c-0.9,0.3-1.8,0.5-2.6,0.9
			c-0.8,0.4-1.6,1-1.9,1.9c-0.3,0.9,0,2,0.8,2.4c0.3,0.2,0.8,0.2,1.1,0.2c0.9,0,1.9-0.1,2.8-0.3c0.6-0.1,1.3-0.4,1.7-1
			c0.3-0.6,0.1-1.2,0.2-1.9c0.1-1.1,0.9-2.1,1.9-2.4c1.1-0.3,2.3,0,3.3-0.6c0.5-0.3,0.8-0.9,1.2-1.3c0.4-0.5,1-0.9,1.6-0.8
			c0.5,0.1,0.8,0.5,1.3,0.9c1.3,1,3.5,0.5,4.2-1c0.7-1.5-0.3-3.6-1.9-3.9c-1.2-0.3-2.6,0.3-3.8-0.1"/>
	</g>
	<g id="XMLID_506_">
		<path class="st2" d="M146.5,67.6c-0.4-1.5-0.2-2.9,0.1-3.3s0.7-0.9,0.9-1.4c0.4-0.9,0.3-1.9,0.2-2.9c-0.1-0.4,0-1.8-0.4-1.9
			c-0.2-0.1-0.5,0.1-0.8,1c-0.4,1.6-2.8,2-2.8,3.7c0,0.9,0.3,1.8,0,2.7c-0.3,1-1.3,1.7-1.8,2.6c-1.1,1.8-0.1,4.3,1.6,5.6
			c1.4,1.1,3.3,1.6,4.2,3.1c0.4,0.7,0.5,1.5,0.6,2.3c0.2,1.4,0.3,2.8,0.7,4.1c0.4,1.3,1.3,2.6,2.5,3.2c2.8,1.3,6.2-1,9.1,0.1
			c0.6,0.2,1.1,0.6,1.7,0.9c2.2,1.1,4.9,0.8,7.3,0.2c1.2-0.3,2.5-0.6,3.3-1.5c0.9-0.9,1.1-2.5,0.1-3.3c-0.4-0.3-0.9-0.5-1.5-0.6
			c-2-0.4-3.9-0.9-5.9-1.3c-1.2-0.3-2.6-0.7-3-1.9c-0.2-0.6-0.1-1.4-0.7-1.7c-0.4-0.3-0.9-0.1-1.3,0.1s-0.8,0.6-1.2,0.7
			c-1.5,0.4-2.8-1.4-4.3-1.7c-1.3-0.2-2.7,0.6-3.9,0.1c-0.7-0.3-1.1-0.9-1.6-1.5C148.2,72.7,146.6,70.3,146.5,67.6"/>
	</g>
	<g id="XMLID_505_">
		<path class="st3" d="M171,86.4c-0.5-1.3,0.3-1.4,1.3-2.3s2.3-1.4,3.5-2.1c1.4-0.8,2.6-2,3.3-3.4c0.2-0.5,0.4-1,0.8-1.4
			c0.7-1,1.9-1.5,2.7-2.4c1.5-1.7,1.3-4.3,2.8-6c0.7-0.8,1.6-1.2,2.3-2c1.2-1.3,1.5-3.2,1.2-5c-0.3-1.7-1.2-3.3-2.1-4.9
			c-0.4-0.6-0.7-1.3-1.1-1.9c-0.4-0.7-0.7-1.3-1.2-1.9c-1.2-1.4-2.3-2.5-4.1-2.6c-1.9-0.2-2.3-1.3-3.9-1.8c-0.7-0.2-5.9-1.8-6.5-1.9
			c-0.7-0.1-1.1-1.1,0.4-1.8c0.6-0.3,3.2-0.7,4.3-0.6c2.3,0.2,3.8,2.4,6.1,2.8c2.3,0.4,5.1,1.1,6.7,2.8c2.5,2.6,3.5,4.1,4.3,8.7
			c0.2,1.1,0,4.9,0.5,5.8c0.9,1.8,1.7,3,1.8,5c0,1.6,0,3.2-0.8,4.5c-0.8,1.2-2.1,1.9-3.3,2.8c-2.8,2-4.8,4.7-7.3,7.1
			c-2.5,2.3-5.7,4.3-9,4c-1.1-0.1-2.4-0.7-2.6-1.8c-0.1-0.7,0.3-1.5,0.9-2c0.6-0.5,1.3-0.7,2-1"/>
	</g>
	<g id="XMLID_504_">
		<path class="st0" d="M177.5,73.6c0.5,1.3,0.9,2.5,1.4,3.8c0.2,0.5,0.4,1,0.4,1.6c0,1.4-1.1,2.6-2.4,3.1c-0.6,0.2-1.2,0.3-1.8,0.7
			c-0.4,0.3-0.7,0.6-1,1c-1.7,1.6-4.7,1.4-6.6-0.1c-0.6-0.4-1-1-1.7-1.2c-0.6-0.2-1.2-0.2-1.7-0.2c-1.7-0.2-3.5-1.3-4-3
			c-0.1-0.3-0.2-0.7-0.1-1c0.1-0.3,0.3-0.5,0.4-0.8c0.3-0.7,0.2-1.6,0.5-2.3c0.4-0.9,1.3-1.4,2.2-1.8c1.4-0.6,2.9-1.3,4.4-0.8
			c1.4,0.4,2.4,1.9,3.9,2.1c1.3,0.3,2.6-0.5,3.9-1c0.8-0.3,2-0.4,2.5,0.4"/>
	</g>
	<g id="XMLID_503_">
		<path class="st1" d="M167.6,70.3c0.6-0.5-0.1-1.1-0.1-1.8c0-0.2,0.1-0.3,0.1-0.5c0.3-0.9,0.6-1.8,1.1-2.5s1.4-1.3,2.4-1.3
			c0.6,0,1.2,0.2,1.8,0.2c0.9,0,1.7-0.7,2.3-1.3c0.6-0.7,1.2-1.4,2-1.8s2-0.5,2.5,0.2c0.3,0.4,0.4,0.9,0.8,1.2
			c0.5,0.3,1.2,0.1,1.8,0c1.2-0.2,2.5,0.4,3.2,1.4c0.7,1,0.8,2.3,0.3,3.4c-0.2,0.4-0.4,0.8-0.4,1.2c0,0.5,0.4,1,0.7,1.4
			c0.9,1.2,1.6,2.5,1.9,4c0.1,0.4,0.2,0.9,0.1,1.3c-0.2,0.8-0.9,1.5-1.5,2c-1,0.9-2.1,1.8-3.5,2.1c-2.2,0.6-4.6-0.5-6.6,0.6
			c-0.5,0.3-1,0.7-1.6,1c-1.3,0.5-2.7,0-3.8-0.7c-1.4-0.9-2.7-2.3-4.4-2.2c-0.7,0.1-1.5,0.4-2.2,0.2c-0.5-0.2-0.8-0.7-1.1-1.1
			c-0.9-1.7-1.3-4.1,0.3-5.5C164.9,70.7,166,71.7,167.6,70.3z"/>
	</g>
	<g id="XMLID_502_">
		<path class="st0" d="M176.1,59.9c0.5-0.3,0.5-1.1,0.3-1.7c-0.2-0.6-0.6-1.2-0.5-1.8c0.1-0.3,0.3-0.6,0.5-0.9
			c0.8-1,1.8-1.8,2.9-2.4c0.7-0.3,1.5-1,1.2-1.6c-0.1-0.1-0.2-0.3-0.3-0.4c-0.1-0.3,0.3-0.5,0.6-0.6c1.6-0.5,3.5,0.4,4,2
			c0.2,0.5,0.3,1,0.6,1.3c0.2,0.3,0.6,0.5,0.9,0.6c1.8,1.1,3.2,3,3.8,5c0.2,0.8,0.3,1.7,0.1,2.5c-0.2,0.8-0.8,1.5-0.9,2.2
			c-0.1,0.9,0.2,1.7,0.1,2.6c-0.1,1,0.3,1-1.1,3.2c-0.5,0.8-0.5,0.7-2.2,2.6c-4.6,5.3-3.1-0.1-3.5-0.4c-1.1-0.7,0.2-3.8-0.9-4.5
			c-0.5-0.3-0.7-1-0.7-1.6c0-0.6,0.2-1.2,0.2-1.8c0.1-0.8,0-1.5-0.2-2.3c-0.1-0.4-0.3-0.9-0.7-1c-0.4-0.2-0.9-0.1-1.4,0
			c-0.8,0.1-1.7-0.1-2.4-0.6c0-0.2,0-0.4,0-0.5"/>
	</g>
	<g id="XMLID_501_">
		<path class="st1" d="M181,50.9c0-0.6,0-0.6-0.5-0.9c-0.5-0.3-2.2-0.2-2.4-0.7c-0.8-1.6-2.5-2.6-4.2-2.6c-1,0-2.1,0.4-3.1,0.2
			c-0.7-0.1-1.3-0.5-2-0.7c-0.7-0.2-1.4-0.1-2.1-0.1c-1.6,0.1-3.4,0.4-4.2,1.7c-0.5,0.7-0.5,1.6-0.6,2.5c0,0.7,0,1.4,0.4,1.9
			c0.6,0.7,1.8,0.6,2.6,1.1c0.9,0.6,0.9,2,0.4,3c-0.5,1-1.4,1.6-2.1,2.4s-1.5,1.7-1.5,2.8c0,0.9,0.5,1.9,1.3,2.4
			c0.8,0.5,1.8,0.7,2.7,0.5c0.8-0.2,1.5-0.6,1.8-1.3c0.1-0.2,0.1-0.4,0.2-0.5c0.4-0.7,1.5-0.5,2.3-0.5c1.4,0.1,2.9-0.8,3.4-2.1
			c0.1-0.2,0.2-0.4,0.3-0.5c0.6-0.5,1.5,0.6,2.3,0.6c0.8-0.1,1-1.2,0.8-1.9s-0.6-1.6-0.2-2.4c0.2-0.3,0.5-0.6,0.8-0.8
			c0.7-0.5,1.4-0.9,2-1.4C180.9,52.7,181,50.9,181,50.9"/>
	</g>
</g>
<g id="XMLID_490_">
	<g id="XMLID_499_">
		<path class="st0" d="M20.1,52.3c-3.5-1-7.5,0.2-9.9,3c-0.7,0.8-1.3,1.8-1.9,2.8c-0.7,1.2-1.4,2.8-0.6,4c0.6,0.9,2,1.2,2.4,2.3
			c0.5,1.2-0.5,2.5-0.3,3.8c0.1,0.9,0.9,1.6,1.7,1.7c1.1,0.2,2.3-0.6,3.3-0.1c1.6,0.7,1.2,3.4,2.8,4.2c0.6,0.3,1.5,0.1,2-0.4
			s0.8-1.3,0.7-2c0-0.3-0.1-0.5,0-0.8c0.1-0.7,1-1.1,1.7-1.2s1.5-0.1,2-0.7c0.6-0.6,0.4-1.8-0.4-2.1c-0.8-0.4-1.8,0.1-2.6-0.1
			c-1-0.3-1.5-1.5-1.3-2.5c0.2-1,0.8-1.9,1.4-2.7c0.3-0.4,0.6-0.9,1-1.3c0.6-0.8,1.2-2,0.6-2.8c-0.5-0.6-1.4-0.6-2.1-1
			c-1.1-0.6-1.4-2.1-0.7-3.1c0.2-0.2,0.4-0.4,0.4-0.6s-0.8-0.5-1.1-0.6"/>
	</g>
	<g id="XMLID_498_">
		<path class="st1" d="M7.1,59.2c-1.8,1.1-2.2,3-2,4.8c0,0.4,0.1,0.8,0.1,1.1c-0.2,1.1-1.5,1.6-2.3,2.3c-1.3,1.2-1.3,3.4-0.1,4.6
			c0.8,0.9,2.1,1.3,2.6,2.4c0.4,0.8,0.2,1.8,0.1,2.6c-0.1,0.9,0.1,1.9,0.9,2.4c1.4,0.8,3.2-1.2,4.7-0.5c0.9,0.4,1,1.7,1.9,2.2
			c0.6,0.3,1.3,0.3,1.9,0.2c0.2,0,0.3,0,0.4-0.1c0.3-0.2,0.3-0.7,0.5-1c0.4-0.6,1.4-0.3,2-0.6c1.1-0.6,0.5-2.5,1.5-3.3
			c0.2-0.2,0.5-0.3,0.7-0.3c0.6-0.2,1.2-0.2,1.8-0.5c0.6-0.2,1.1-0.7,1.2-1.3c0.1-0.6-0.2-1.2-0.5-1.7c-0.1-0.2-0.3-0.5-0.5-0.6
			c-0.5-0.2-0.9,0.5-1.3,0.8c-0.7,0.6-1.8,0.7-2.5,0.1c-1.1-0.9-1-2.8-2.2-3.5c-1.3-0.7-3,0.5-4.4-0.1c-0.9-0.4-1.3-1.5-1.3-2.4
			c0-1,0.2-2,0.2-2.9c0-1.5-0.7-3.1-1.9-4.1C8.1,59.5,7.9,58.8,7.1,59.2z"/>
	</g>
	<g id="XMLID_497_">
		<path class="st0" d="M33.3,62.9c-0.9-0.2-1.8-0.3-2.7-0.5c-0.3-0.1-0.6-0.1-0.9,0c-0.3,0.1-0.5,0.3-0.8,0.5
			c-0.7,0.6-1.7,0.9-2.6,1.1c-0.9,0.3-1.8,0.6-2.6,1.2s-1.1,1.7-0.7,2.6c0.1,0.3,0.4,0.6,0.2,0.8c-0.1,0.2-0.3,0.3-0.5,0.3
			c-0.8,0.3-1.6,0.5-2.4,0.9s-1.5,0.9-1.8,1.8s0,1.8,0.7,2.2c0.3,0.2,0.7,0.2,1.1,0.2c0.9,0,1.7-0.1,2.6-0.2
			c0.6-0.1,1.2-0.3,1.5-0.9c0.3-0.5,0.1-1.2,0.1-1.7c0.1-1,0.8-2,1.8-2.2c1-0.3,2.2,0,3-0.5c0.5-0.3,0.8-0.8,1.1-1.2
			c0.4-0.4,0.9-0.8,1.5-0.7c0.5,0.1,0.8,0.5,1.2,0.8c1.2,0.9,3.3,0.4,3.9-0.9c0.7-1.4-0.3-3.3-1.8-3.6c-1.2-0.3-2.4,0.3-3.5-0.1"/>
	</g>
	<g id="XMLID_496_">
		<path class="st2" d="M4.6,70.3c-0.4-1.4-0.2-2.6,0.1-3.1c0.3-0.4,0.6-0.8,0.9-1.3c0.4-0.8,0.3-1.8,0.2-2.7c0-0.3,0-1.6-0.4-1.8
			c-0.2-0.1-0.5,0.1-0.7,0.9c-0.4,1.5-2.6,1.9-2.6,3.4c0,0.8,0.3,1.7,0,2.5c-0.3,1-1.2,1.6-1.7,2.4c-1,1.7-0.1,4,1.5,5.2
			c1.3,1,3,1.5,3.9,2.9c0.4,0.6,0.5,1.4,0.6,2.1c0.2,1.3,0.3,2.6,0.7,3.8s1.2,2.4,2.3,2.9c2.6,1.2,5.8-0.9,8.4,0.1
			c0.6,0.2,1.1,0.6,1.6,0.8c2.1,1,4.5,0.7,6.7,0.2c1.1-0.2,2.3-0.6,3.1-1.4s1-2.3,0.1-3.1c-0.4-0.3-0.9-0.4-1.4-0.5
			c-1.8-0.4-3.6-0.8-5.5-1.2c-1.1-0.3-2.4-0.7-2.8-1.8c-0.2-0.6-0.1-1.3-0.6-1.6c-0.4-0.2-0.9-0.1-1.2,0.1c-0.4,0.2-0.7,0.5-1.1,0.6
			c-1.4,0.4-2.5-1.3-4-1.6c-1.2-0.2-2.5,0.6-3.6,0.1c-0.6-0.3-1-0.8-1.4-1.4C6.2,75,4.7,72.8,4.6,70.3"/>
	</g>
	<g id="XMLID_495_">
		<path class="st3" d="M27.3,87.7c-0.4-1.2,0.3-1.3,1.2-2.1c1-0.8,2.2-1.3,3.2-1.9c1.3-0.8,2.4-1.8,3.1-3.1c0.2-0.4,0.4-0.9,0.7-1.3
			c0.7-0.9,1.8-1.4,2.5-2.2c1.3-1.5,1.2-4,2.6-5.5c0.6-0.7,1.5-1.1,2.1-1.8c1.1-1.2,1.4-3,1.1-4.6c-0.3-1.6-1.1-3.1-1.9-4.5
			c-0.3-0.6-0.7-1.2-1-1.8c-0.3-0.6-0.7-1.2-1.1-1.7c-1.1-1.3-2.1-2.3-3.8-2.4c-1.7-0.2-2.1-1.2-3.6-1.6c-0.6-0.2-5.4-1.7-6-1.8
			c-0.6-0.1-1-1,0.3-1.7c0.6-0.3,2.9-0.6,4-0.5c2.1,0.2,3.5,2.2,5.6,2.6c2.1,0.3,4.7,1,6.2,2.5c2.3,2.4,3.2,3.8,4,8
			c0.2,1,0,4.5,0.5,5.4c0.8,1.6,1.6,2.8,1.6,4.6c0,1.4,0,3-0.8,4.2c-0.7,1.1-1.9,1.8-3,2.6c-2.6,1.8-4.5,4.4-6.8,6.5
			c-2.3,2.1-5.2,4-8.4,3.7c-1-0.1-2.2-0.6-2.4-1.6c-0.1-0.7,0.3-1.4,0.8-1.8c0.5-0.4,1.2-0.7,1.9-0.9"/>
	</g>
	<g id="XMLID_494_">
		<path class="st0" d="M33.3,75.8c0.4,1.2,0.8,2.3,1.3,3.5c0.2,0.5,0.3,1,0.4,1.5c0,1.3-1,2.4-2.2,2.9c-0.6,0.2-1.2,0.3-1.6,0.6
			c-0.4,0.2-0.6,0.6-0.9,0.9c-1.6,1.5-4.3,1.3-6.1-0.1c-0.5-0.4-1-0.9-1.6-1.1c-0.5-0.2-1.1-0.2-1.6-0.2c-1.6-0.2-3.2-1.2-3.7-2.7
			c-0.1-0.3-0.2-0.6-0.1-1c0.1-0.3,0.2-0.5,0.4-0.7c0.3-0.7,0.2-1.5,0.4-2.1c0.3-0.8,1.2-1.3,2-1.6c1.3-0.6,2.7-1.2,4-0.7
			c1.3,0.4,2.2,1.7,3.6,2c1.2,0.2,2.4-0.4,3.6-0.9c0.8-0.3,1.9-0.4,2.3,0.3"/>
	</g>
	<g id="XMLID_493_">
		<path class="st1" d="M24.1,72.8c0.5-0.5-0.1-1-0.1-1.6c0-0.1,0.1-0.3,0.1-0.4c0.2-0.8,0.5-1.6,1-2.3c0.5-0.7,1.3-1.2,2.2-1.2
			c0.6,0,1.1,0.2,1.7,0.2c0.8,0,1.6-0.6,2.1-1.2c0.6-0.6,1.1-1.3,1.8-1.7c0.7-0.4,1.8-0.4,2.3,0.2c0.3,0.4,0.3,0.9,0.7,1.1
			c0.5,0.3,1.1,0.1,1.6,0c1.1-0.2,2.3,0.4,3,1.3c0.6,0.9,0.7,2.1,0.3,3.2c-0.2,0.4-0.4,0.7-0.4,1.1c0,0.5,0.4,0.9,0.7,1.3
			c0.8,1.1,1.5,2.4,1.8,3.7c0.1,0.4,0.2,0.8,0.1,1.2c-0.2,0.8-0.8,1.4-1.4,1.9c-1,0.8-2,1.7-3.2,2c-2,0.5-4.3-0.4-6.1,0.5
			c-0.5,0.3-0.9,0.7-1.5,0.9c-1.2,0.5-2.5,0-3.5-0.7c-1.3-0.9-2.5-2.1-4.1-2c-0.7,0.1-1.4,0.4-2,0.2c-0.5-0.2-0.8-0.6-1-1.1
			c-0.9-1.6-1.2-3.8,0.3-5.1C21.7,73.2,22.7,74.1,24.1,72.8z"/>
	</g>
	<g id="XMLID_492_">
		<path class="st0" d="M32,63.1c0.5-0.3,0.5-1,0.3-1.6c-0.2-0.5-0.5-1.1-0.5-1.7c0.1-0.3,0.2-0.6,0.4-0.9c0.7-0.9,1.6-1.7,2.7-2.2
			c0.6-0.3,1.4-0.9,1.1-1.5c-0.1-0.1-0.2-0.2-0.2-0.4c-0.1-0.3,0.3-0.5,0.5-0.6c1.5-0.4,3.2,0.4,3.7,1.8c0.2,0.4,0.2,0.9,0.5,1.2
			c0.2,0.3,0.5,0.4,0.8,0.6c1.7,1,3,2.7,3.5,4.6c0.2,0.7,0.3,1.5,0.1,2.3c-0.2,0.7-0.7,1.3-0.8,2.1c-0.1,0.8,0.2,1.6,0.1,2.4
			c-0.1,0.9,0.3,0.9-1,2.9c-0.5,0.8-0.5,0.6-2,2.4c-4.3,4.9-2.8-0.1-3.2-0.4c-1-0.7,0.2-3.5-0.8-4.1c-0.5-0.3-0.7-0.9-0.7-1.5
			c0-0.6,0.2-1.1,0.2-1.7c0.1-0.7,0-1.4-0.2-2.1c-0.1-0.4-0.3-0.8-0.7-1c-0.4-0.2-0.9-0.1-1.3,0c-0.8,0.1-1.6-0.1-2.2-0.5
			c0-0.2,0-0.3,0-0.5"/>
	</g>
	<g id="XMLID_491_">
		<path class="st1" d="M36.5,54.8c0-0.5,0-0.6-0.5-0.9c-0.5-0.3-2-0.2-2.2-0.7c-0.7-1.5-2.3-2.4-3.9-2.4c-1,0-1.9,0.4-2.9,0.2
			c-0.6-0.1-1.2-0.5-1.8-0.6c-0.6-0.2-1.3-0.1-1.9-0.1c-1.4,0.1-3.1,0.3-3.9,1.6c-0.4,0.7-0.5,1.5-0.5,2.3c0,0.6,0,1.3,0.4,1.7
			c0.6,0.7,1.7,0.5,2.4,1.1c0.8,0.6,0.8,1.9,0.4,2.7c-0.5,0.9-1.3,1.5-2,2.2c-0.7,0.7-1.4,1.6-1.4,2.6c0,0.9,0.5,1.7,1.2,2.2
			c0.7,0.5,1.7,0.6,2.5,0.4c0.7-0.1,1.4-0.5,1.7-1.2c0.1-0.2,0.1-0.3,0.2-0.5c0.4-0.7,1.4-0.5,2.2-0.4c1.3,0.1,2.6-0.8,3.2-2
			c0.1-0.2,0.1-0.4,0.3-0.5c0.6-0.5,1.4,0.6,2.1,0.5c0.7-0.1,0.9-1.1,0.8-1.8c-0.2-0.7-0.5-1.5-0.2-2.2c0.2-0.3,0.4-0.5,0.7-0.7
			c0.6-0.4,1.3-0.9,1.9-1.3C36.4,56.5,36.5,54.8,36.5,54.8"/>
	</g>
</g>
<g id="XMLID_480_">
	<g id="XMLID_489_">
		<path class="st0" d="M137.6,22.4c-2.8-1.7-6.7-1.7-9.5,0.1c-0.9,0.6-1.6,1.3-2.4,2c-0.9,0.9-1.9,2.1-1.5,3.3
			c0.3,1,1.4,1.6,1.6,2.6c0.2,1.2-1.1,2.1-1.2,3.3c-0.1,0.8,0.4,1.6,1.1,1.9c0.9,0.4,2.2,0.1,3,0.7c1.2,1,0.2,3.3,1.4,4.4
			c0.5,0.4,1.3,0.5,1.9,0.2c0.6-0.3,1-0.9,1.1-1.6c0-0.2,0.1-0.5,0.2-0.7c0.3-0.6,1.1-0.7,1.8-0.6c0.7,0.1,1.4,0.3,2-0.1
			c0.7-0.4,0.8-1.5,0.2-2c-0.6-0.5-1.6-0.3-2.3-0.8c-0.8-0.5-0.9-1.6-0.5-2.5c0.4-0.8,1.1-1.4,1.9-2c0.4-0.3,0.8-0.6,1.2-0.9
			c0.7-0.6,1.6-1.4,1.2-2.3c-0.3-0.7-1.1-0.9-1.6-1.4c-0.8-0.8-0.7-2.2,0.1-2.9c0.2-0.1,0.4-0.3,0.5-0.5c0.1-0.2-0.6-0.7-0.8-0.8"/>
	</g>
	<g id="XMLID_488_">
		<path class="st1" d="M124.4,25.3c-1.9,0.5-2.7,2.1-3,3.8c-0.1,0.3-0.1,0.7-0.2,1c-0.4,0.9-1.7,1-2.6,1.5c-1.4,0.7-2,2.7-1.3,4.1
			c0.5,1,1.6,1.7,1.7,2.8c0.1,0.8-0.3,1.6-0.6,2.3s-0.4,1.7,0.2,2.3c1.1,1,3.1-0.3,4.2,0.8c0.6,0.6,0.5,1.7,1.1,2.4
			c0.4,0.4,1,0.6,1.6,0.7c0.1,0,0.3,0,0.4,0c0.3-0.1,0.4-0.5,0.7-0.8c0.5-0.4,1.3,0.1,1.9-0.1c1.1-0.2,1.1-2.1,2.2-2.5
			c0.2-0.1,0.5-0.1,0.7-0.1c0.6,0,1.2,0.1,1.7,0c0.6-0.1,1.2-0.3,1.4-0.8c0.3-0.5,0.1-1.1,0-1.7c-0.1-0.2-0.1-0.5-0.3-0.6
			c-0.4-0.3-0.9,0.2-1.4,0.4c-0.7,0.4-1.8,0.1-2.2-0.5c-0.7-1.1-0.2-2.7-1.1-3.6c-1-1-2.8-0.3-3.8-1.2c-0.7-0.6-0.8-1.6-0.6-2.5
			c0.2-0.9,0.7-1.7,0.9-2.5c0.4-1.4,0.1-2.9-0.7-4.1C125.2,25.7,125.2,25,124.4,25.3z"/>
	</g>
	<g id="XMLID_487_">
		<path class="st0" d="M146.5,35c-0.7-0.4-1.5-0.7-2.2-1.1c-0.2-0.1-0.5-0.2-0.8-0.2c-0.3,0-0.6,0.2-0.8,0.3
			c-0.8,0.3-1.7,0.3-2.6,0.4c-0.9,0-1.8,0-2.5,0.4s-1.4,1.2-1.2,2.1c0.1,0.3,0.2,0.6,0,0.8c-0.1,0.1-0.3,0.2-0.5,0.2
			c-0.8,0.1-1.6,0-2.3,0.2c-0.8,0.1-1.6,0.5-2,1.1c-0.5,0.6-0.5,1.6,0.1,2.1c0.2,0.2,0.6,0.3,0.9,0.4c0.8,0.2,1.5,0.4,2.3,0.4
			c0.6,0,1.2,0,1.6-0.4c0.4-0.4,0.4-1,0.6-1.5c0.3-0.9,1.2-1.5,2.1-1.5c0.9,0,1.9,0.6,2.8,0.3c0.5-0.1,0.9-0.5,1.3-0.8
			c0.4-0.3,1-0.5,1.5-0.3c0.4,0.2,0.6,0.6,0.8,1c0.8,1.1,2.8,1.2,3.7,0.1c0.9-1.1,0.6-3-0.7-3.6c-1-0.5-2.2-0.3-3.1-1"/>
	</g>
	<g id="XMLID_486_">
		<path class="st2" d="M119.5,34.4c0-1.3,0.5-2.4,0.8-2.7c0.3-0.3,0.8-0.6,1.1-0.9c0.6-0.6,0.7-1.5,0.8-2.3c0-0.3,0.4-1.5,0.1-1.7
			c-0.1-0.1-0.5,0-0.8,0.6c-0.7,1.2-2.7,1-3.1,2.4c-0.2,0.7-0.2,1.6-0.6,2.2c-0.5,0.8-1.4,1.1-2.1,1.7c-1.3,1.2-1.1,3.5,0,4.9
			c0.9,1.2,2.3,2.1,2.7,3.5c0.2,0.7,0.1,1.4,0,2c-0.2,1.2-0.4,2.3-0.4,3.5c0.1,1.2,0.4,2.4,1.3,3.2c2,1.7,5.3,0.6,7.4,2.2
			c0.4,0.3,0.8,0.8,1.2,1.1c1.6,1.4,3.8,1.7,5.9,1.9c1.1,0.1,2.2,0.1,3.1-0.5c0.9-0.5,1.4-1.8,0.8-2.7c-0.3-0.4-0.7-0.6-1.1-0.8
			c-1.5-0.8-3-1.6-4.5-2.5c-0.9-0.5-2-1.2-2-2.3c0-0.5,0.2-1.2-0.1-1.6c-0.3-0.3-0.7-0.3-1.1-0.2c-0.4,0.1-0.8,0.3-1.2,0.3
			c-1.3,0-1.9-1.8-3.1-2.4c-1-0.5-2.3-0.1-3.2-0.8c-0.5-0.4-0.7-1-0.9-1.6C119.7,39,118.9,36.6,119.5,34.4"/>
	</g>
	<g id="XMLID_485_">
		<path class="st3" d="M135.1,55.3c-0.1-1.2,0.6-1.1,1.6-1.6c1-0.5,2.2-0.6,3.3-0.9c1.3-0.4,2.6-1,3.5-2c0.3-0.3,0.6-0.7,0.9-1
			c0.8-0.6,1.9-0.8,2.8-1.3c1.6-1,2.1-3.2,3.6-4.2c0.7-0.5,1.6-0.6,2.3-1.1c1.3-0.8,2-2.3,2.1-3.8c0.1-1.5-0.2-3-0.6-4.4
			c-0.1-0.6-0.3-1.2-0.4-1.8c-0.1-0.6-0.3-1.2-0.6-1.8c-0.7-1.4-1.3-2.5-2.8-3.1c-1.5-0.6-1.6-1.6-2.7-2.3c-0.5-0.3-4.4-2.8-4.9-3.1
			c-0.5-0.2-0.6-1.2,0.7-1.4c0.6-0.1,2.7,0.2,3.6,0.5c1.8,0.7,2.5,2.8,4.3,3.6c1.8,0.8,3.9,2.1,4.8,3.8c1.4,2.7,1.9,4.1,1.5,8.1
			c-0.1,0.9-1.1,4-0.9,4.9c0.3,1.6,0.7,2.9,0.3,4.5c-0.3,1.3-0.7,2.6-1.7,3.5c-0.9,0.8-2.2,1.1-3.3,1.5c-2.7,1-5,2.7-7.6,4.1
			c-2.5,1.3-5.6,2.2-8.3,1.2c-0.9-0.3-1.8-1.1-1.7-2.1c0.1-0.6,0.6-1.2,1.2-1.4s1.2-0.3,1.9-0.3"/>
	</g>
	<g id="XMLID_484_">
		<path class="st0" d="M143.4,46.4c0.1,1.1,0.2,2.3,0.3,3.4c0,0.5,0.1,0.9,0,1.4c-0.3,1.1-1.5,1.9-2.6,2c-0.5,0-1.1,0-1.6,0.2
			c-0.4,0.1-0.7,0.4-1.1,0.5c-1.8,0.9-4.1,0.1-5.3-1.6c-0.3-0.5-0.6-1-1.1-1.4c-0.4-0.3-0.9-0.4-1.4-0.6c-1.4-0.6-2.5-1.8-2.6-3.3
			c0-0.3,0-0.6,0.2-0.9c0.1-0.2,0.3-0.4,0.5-0.5c0.4-0.5,0.5-1.2,0.9-1.8c0.5-0.6,1.4-0.8,2.2-0.9c1.3-0.2,2.7-0.4,3.7,0.3
			c1.1,0.7,1.5,2.1,2.7,2.6c1,0.5,2.2,0.2,3.4,0.1c0.8-0.1,1.7,0.1,1.9,0.9"/>
	</g>
	<g id="XMLID_483_">
		<path class="st1" d="M136,41.4c0.6-0.3,0.1-0.9,0.3-1.5c0-0.1,0.1-0.2,0.2-0.4c0.4-0.7,0.9-1.3,1.5-1.8c0.6-0.5,1.5-0.7,2.3-0.5
			c0.5,0.1,0.9,0.5,1.4,0.6c0.8,0.2,1.5-0.2,2.2-0.5c0.7-0.4,1.3-0.9,2-1s1.7,0.1,2,0.8c0.2,0.4,0.1,0.8,0.4,1.2
			c0.3,0.4,0.9,0.3,1.4,0.4c1.1,0.1,2,0.9,2.3,1.8c0.3,1,0.1,2.1-0.6,2.8c-0.2,0.3-0.5,0.5-0.6,0.9c-0.1,0.4,0.1,0.9,0.3,1.3
			c0.5,1.2,0.7,2.4,0.6,3.7c0,0.4-0.1,0.8-0.2,1.1c-0.3,0.6-1.1,1-1.7,1.3c-1,0.5-2.1,1-3.3,0.9c-1.9,0-3.6-1.4-5.5-1
			c-0.5,0.1-1,0.4-1.5,0.4c-1.1,0.1-2.2-0.6-2.9-1.5c-0.9-1.1-1.7-2.5-3.1-2.8c-0.6-0.1-1.3,0-1.8-0.4c-0.4-0.3-0.5-0.7-0.6-1.2
			c-0.4-1.6-0.1-3.7,1.5-4.4C133.8,41.2,134.4,42.2,136,41.4z"/>
	</g>
	<g id="XMLID_482_">
		<path class="st0" d="M145.4,34.9c0.5-0.1,0.7-0.8,0.6-1.3c-0.1-0.5-0.2-1.1,0-1.6c0.1-0.3,0.4-0.5,0.6-0.6
			c0.9-0.6,1.8-1.1,2.9-1.3c0.6-0.1,1.5-0.4,1.3-1.1c0-0.1-0.1-0.3-0.1-0.4c0-0.3,0.4-0.4,0.6-0.4c1.4,0,2.7,1.2,2.8,2.5
			c0,0.4,0,0.8,0.2,1.2c0.1,0.3,0.3,0.5,0.6,0.7c1.2,1.3,1.9,3.1,1.9,5c0,0.7-0.1,1.4-0.5,2c-0.4,0.6-1,1-1.2,1.6
			c-0.3,0.7-0.3,1.5-0.5,2.1c-0.3,0.8,0,0.9-1.6,2.3c-0.6,0.6-0.6,0.4-2.4,1.6c-5,3.3-2.5-0.8-2.8-1.1c-0.7-0.8,1-3,0.3-3.8
			c-0.3-0.4-0.4-1-0.2-1.5s0.4-0.9,0.6-1.4c0.2-0.6,0.4-1.2,0.3-1.9c0-0.4-0.1-0.8-0.4-1c-0.3-0.3-0.7-0.3-1.1-0.4
			c-0.7-0.1-1.3-0.5-1.8-1c0.1-0.1,0.1-0.3,0.2-0.4"/>
	</g>
	<g id="XMLID_481_">
		<path class="st1" d="M151.4,28.7c0.1-0.5,0.1-0.5-0.2-0.9c-0.3-0.3-1.7-0.7-1.8-1.1c-0.3-1.5-1.4-2.7-2.8-3.1
			c-0.9-0.2-1.8-0.1-2.6-0.5c-0.5-0.3-0.9-0.7-1.5-1c-0.5-0.3-1.1-0.4-1.7-0.5c-1.3-0.3-2.8-0.5-3.8,0.4c-0.5,0.5-0.8,1.2-1,1.9
			c-0.2,0.5-0.3,1.1-0.1,1.6c0.3,0.7,1.4,0.9,1.9,1.5c0.6,0.7,0.3,1.8-0.3,2.5s-1.5,1-2.3,1.5c-0.8,0.4-1.6,1-1.9,1.9
			c-0.2,0.8,0,1.6,0.5,2.2c0.5,0.6,1.3,0.9,2.1,1c0.7,0.1,1.4-0.1,1.8-0.6c0.1-0.1,0.2-0.3,0.3-0.4c0.5-0.5,1.3-0.1,2,0.1
			c1.2,0.4,2.5,0,3.3-0.9c0.1-0.1,0.2-0.3,0.4-0.4c0.6-0.3,1.1,0.9,1.8,1c0.7,0.1,1.1-0.7,1.1-1.4c0-0.7-0.1-1.5,0.4-2
			c0.2-0.2,0.5-0.3,0.8-0.4c0.7-0.2,1.3-0.4,2-0.7C150.9,30.1,151.4,28.7,151.4,28.7"/>
	</g>
</g>
<g id="XMLID_470_">
	<g id="XMLID_479_">
		<path class="st0" d="M159.4,27c-0.4,3.1,1.2,6.4,3.8,8.1c0.8,0.5,1.7,0.9,2.6,1.2c1.1,0.5,2.6,0.8,3.5,0c0.7-0.6,0.8-1.8,1.6-2.4
			c0.9-0.6,2.2,0.1,3.3-0.3c0.7-0.2,1.2-0.9,1.2-1.7c0-1-0.8-1.9-0.6-2.8c0.4-1.4,2.8-1.5,3.2-2.9c0.2-0.6-0.1-1.3-0.6-1.7
			c-0.5-0.4-1.2-0.5-1.8-0.3c-0.2,0.1-0.4,0.1-0.7,0.1c-0.6,0-1-0.7-1.2-1.3c-0.2-0.6-0.3-1.3-0.8-1.6c-0.6-0.4-1.6-0.1-1.8,0.6
			c-0.2,0.7,0.3,1.5,0.2,2.2c-0.1,0.9-1,1.4-1.9,1.4s-1.7-0.4-2.5-0.8c-0.4-0.2-0.8-0.4-1.2-0.7c-0.8-0.4-1.8-0.8-2.4-0.1
			c-0.5,0.5-0.3,1.3-0.6,1.9c-0.3,1-1.6,1.5-2.5,1c-0.2-0.1-0.4-0.2-0.6-0.3c-0.2,0-0.4,0.8-0.3,1"/>
	</g>
	<g id="XMLID_478_">
		<path class="st1" d="M167.1,37.2c1.2,1.4,2.9,1.5,4.4,1.1c0.3-0.1,0.6-0.2,1-0.2c1,0,1.5,1,2.3,1.6c1.2,0.9,3.1,0.7,4-0.5
			c0.6-0.8,0.8-2,1.7-2.5c0.6-0.4,1.5-0.4,2.2-0.4c0.8-0.1,1.6-0.3,1.9-1.1c0.5-1.3-1.5-2.6-1-3.9c0.3-0.8,1.3-1.1,1.6-1.9
			c0.2-0.5,0.1-1.1-0.1-1.7c0-0.1-0.1-0.3-0.2-0.4c-0.2-0.2-0.6-0.1-0.9-0.3c-0.6-0.3-0.4-1.1-0.8-1.6c-0.6-0.9-2.2-0.1-3-0.9
			c-0.2-0.2-0.3-0.4-0.4-0.6c-0.2-0.5-0.4-1-0.7-1.5c-0.3-0.5-0.7-0.9-1.3-0.9c-0.5,0-1,0.3-1.4,0.6c-0.2,0.1-0.4,0.3-0.4,0.5
			c-0.1,0.5,0.5,0.7,0.9,1c0.6,0.5,0.8,1.4,0.4,2.1c-0.6,1-2.3,1.2-2.7,2.3c-0.5,1.2,0.8,2.5,0.5,3.7c-0.2,0.8-1.1,1.3-1.9,1.5
			c-0.8,0.2-1.7,0.1-2.5,0.2c-1.3,0.2-2.5,1-3.2,2.2C167.2,36.3,166.6,36.6,167.1,37.2z"/>
	</g>
	<g id="XMLID_477_">
		<path class="st0" d="M166.7,14.5c0,0.8,0,1.6,0,2.4c0,0.3,0,0.5,0.1,0.8c0.1,0.2,0.4,0.4,0.6,0.6c0.6,0.5,1,1.3,1.3,2.1
			c0.3,0.7,0.7,1.5,1.4,2s1.6,0.7,2.3,0.2c0.2-0.2,0.4-0.4,0.7-0.3c0.2,0,0.3,0.2,0.3,0.3c0.4,0.6,0.6,1.3,1.1,1.9
			c0.4,0.6,1,1.2,1.7,1.3s1.6-0.2,1.8-0.9c0.1-0.3,0.1-0.6,0-0.9c-0.1-0.7-0.3-1.5-0.5-2.2c-0.2-0.5-0.5-1-1-1.2
			c-0.5-0.2-1,0.1-1.5,0.1c-0.9,0.1-1.8-0.4-2.1-1.2c-0.4-0.8-0.3-1.8-0.8-2.5c-0.3-0.4-0.8-0.6-1.2-0.8c-0.4-0.3-0.8-0.7-0.8-1.1
			c0-0.4,0.3-0.7,0.5-1.1c0.6-1.2-0.1-2.8-1.3-3.2c-1.3-0.4-2.8,0.7-2.8,2c-0.1,1,0.6,2,0.4,3"/>
	</g>
	<g id="XMLID_476_">
		<path class="st2" d="M176.8,37.9c-1.2,0.5-2.2,0.5-2.6,0.3c-0.4-0.2-0.8-0.4-1.2-0.6c-0.8-0.2-1.6,0-2.3,0.2
			c-0.3,0.1-1.4,0.3-1.5,0.5c0,0.2,0.2,0.4,0.9,0.5c1.3,0.1,2,1.9,3.3,1.8c0.7-0.1,1.4-0.5,2.1-0.4c0.9,0.1,1.5,0.8,2.3,1.1
			c1.6,0.6,3.4-0.5,4.2-2c0.7-1.2,0.9-2.8,2-3.7c0.5-0.4,1.1-0.6,1.7-0.8c1.1-0.3,2.2-0.6,3.2-1.1c1-0.5,1.9-1.3,2.2-2.4
			c0.7-2.4-1.6-4.8-1-7.2c0.1-0.5,0.4-1,0.5-1.5c0.6-1.9,0-3.9-0.7-5.8c-0.4-0.9-0.8-1.9-1.6-2.4c-0.8-0.6-2.1-0.5-2.6,0.3
			c-0.2,0.4-0.2,0.8-0.3,1.2c-0.1,1.6-0.2,3.2-0.3,4.8c-0.1,1-0.2,2.2-1.1,2.6c-0.5,0.2-1.1,0.3-1.3,0.7c-0.2,0.3,0,0.7,0.2,1
			c0.2,0.3,0.5,0.5,0.7,0.9c0.5,1.1-0.8,2.3-0.8,3.6c0,1,0.8,2,0.6,3.1c-0.1,0.6-0.6,1-1,1.4C180.6,35.9,178.9,37.4,176.8,37.9"/>
	</g>
	<g id="XMLID_475_">
		<path class="st3" d="M188.6,16.3c-0.9,0.5-1.2,0-2-0.8c-0.8-0.7-1.4-1.7-2.1-2.5c-0.8-1-1.9-1.8-3.1-2.2c-0.4-0.1-0.8-0.2-1.2-0.4
			c-0.9-0.4-1.4-1.3-2.2-1.8c-1.5-0.9-3.6-0.5-5-1.4c-0.7-0.4-1.2-1.1-1.8-1.6c-1.2-0.8-2.7-0.8-4.1-0.3c-1.3,0.5-2.5,1.4-3.6,2.2
			c-0.5,0.4-0.9,0.7-1.4,1.1c-0.5,0.4-0.9,0.7-1.3,1.2c-1,1.2-1.7,2.1-1.6,3.6s-0.8,2-0.9,3.3c-0.1,0.5-0.7,4.8-0.7,5.4
			c0,0.5-0.8,1-1.5-0.1c-0.3-0.4-0.9-2.4-1-3.3c-0.1-1.8,1.4-3.3,1.4-5.1c0-1.8,0.2-4.2,1.3-5.6c1.7-2.3,2.8-3.2,6.3-4.5
			c0.8-0.3,3.8-0.6,4.5-1.1c1.3-0.9,2.2-1.7,3.7-2c1.2-0.2,2.5-0.4,3.7,0.1c1.1,0.5,1.8,1.4,2.6,2.2c1.9,1.9,4.3,3.2,6.5,4.9
			s4.1,3.9,4.2,6.6c0.1,0.9-0.2,2-1.1,2.3c-0.6,0.2-1.2,0-1.7-0.4c-0.4-0.4-0.7-0.9-1-1.5"/>
	</g>
	<g id="XMLID_474_">
		<path class="st0" d="M177.7,12.7c0.9-0.5,1.9-1,2.8-1.6c0.4-0.2,0.8-0.4,1.2-0.5c1.1-0.2,2.2,0.5,2.7,1.5c0.3,0.4,0.4,0.9,0.8,1.3
			c0.3,0.3,0.6,0.5,0.9,0.7c1.5,1.2,1.7,3.5,0.8,5.2c-0.3,0.5-0.6,0.9-0.7,1.5c-0.1,0.5,0,0.9,0,1.4c0.1,1.4-0.6,2.9-1.8,3.5
			c-0.2,0.1-0.5,0.2-0.8,0.2c-0.2,0-0.4-0.1-0.7-0.2c-0.6-0.2-1.3,0.1-1.9-0.1c-0.7-0.2-1.2-0.9-1.7-1.5c-0.7-1-1.3-2.1-1.2-3.3
			c0.2-1.2,1.2-2.1,1.2-3.3c0-1.1-0.7-2-1.2-2.9c-0.4-0.6-0.6-1.5,0-2"/>
	</g>
	<g id="XMLID_473_">
		<path class="st1" d="M176.3,20.9c-0.5-0.4-0.8,0.2-1.4,0.3c-0.1,0-0.3,0-0.4,0c-0.7-0.1-1.5-0.2-2.1-0.6c-0.7-0.4-1.2-1-1.3-1.7
			c-0.1-0.5,0-1-0.1-1.5c-0.1-0.7-0.7-1.3-1.3-1.7c-0.6-0.4-1.2-0.8-1.7-1.3s-0.6-1.5-0.1-2c0.3-0.3,0.7-0.4,0.9-0.8
			c0.2-0.4-0.1-0.9-0.2-1.4c-0.3-0.9,0-2,0.7-2.7s1.7-0.9,2.7-0.6c0.3,0.1,0.6,0.2,1,0.2c0.4-0.1,0.7-0.4,1-0.7
			c0.8-0.9,1.8-1.6,2.9-2c0.3-0.1,0.7-0.2,1-0.2c0.7,0,1.3,0.5,1.8,1c0.8,0.7,1.7,1.5,2.1,2.5c0.7,1.6,0.2,3.7,1.3,5.1
			c0.3,0.4,0.7,0.7,1,1.1c0.6,0.9,0.4,2.1-0.1,3.1c-0.6,1.2-1.5,2.4-1.2,3.7c0.1,0.6,0.5,1.1,0.4,1.7c-0.1,0.4-0.4,0.7-0.8,1
			c-1.3,0.9-3.1,1.5-4.3,0.4C177,22.9,177.6,22,176.3,20.9z"/>
	</g>
	<g id="XMLID_472_">
		<path class="st0" d="M167.1,15.5c-0.3-0.4-0.9-0.3-1.4,0c-0.4,0.3-0.8,0.6-1.3,0.6c-0.3,0-0.5-0.1-0.8-0.3c-0.9-0.5-1.7-1.2-2.3-2
			c-0.4-0.5-1-1.1-1.4-0.7c-0.1,0.1-0.2,0.2-0.3,0.3c-0.2,0.1-0.5-0.2-0.6-0.4c-0.6-1.2-0.1-2.8,1.1-3.4c0.3-0.2,0.7-0.3,1-0.6
			c0.2-0.2,0.3-0.5,0.4-0.8c0.7-1.6,1.9-2.9,3.5-3.6c0.6-0.3,1.3-0.5,1.9-0.4c0.6,0.1,1.2,0.4,1.9,0.4c0.7,0,1.4-0.4,2-0.4
			c0.8,0,0.8-0.4,2.6,0.5c0.7,0.3,0.6,0.3,2.3,1.4c4.7,3,0.3,2.4,0.1,2.8c-0.4,0.9-3,0.3-3.4,1.3c-0.2,0.4-0.7,0.7-1.2,0.8
			s-1,0-1.5,0c-0.6,0-1.2,0.2-1.8,0.5c-0.3,0.2-0.6,0.4-0.7,0.7c-0.1,0.4,0.1,0.7,0.1,1.1c0.2,0.6,0.1,1.3-0.2,2c-0.1,0-0.3,0-0.4,0
			"/>
	</g>
	<g id="XMLID_471_">
		<path class="st1" d="M159.4,12.8c-0.5,0.1-0.5,0.1-0.7,0.5c-0.2,0.4,0.1,1.7-0.3,2c-1.1,0.8-1.8,2.3-1.5,3.6
			c0.2,0.8,0.6,1.6,0.6,2.4c0,0.6-0.2,1.1-0.3,1.6c0,0.6,0.1,1.1,0.2,1.6c0.3,1.2,0.7,2.6,1.9,3.1c0.6,0.3,1.4,0.2,2.1,0.1
			c0.5-0.1,1.1-0.2,1.4-0.6c0.5-0.6,0.2-1.5,0.6-2.2c0.4-0.8,1.5-1,2.3-0.7c0.8,0.3,1.5,0.9,2.2,1.4c0.7,0.5,1.5,1,2.4,0.9
			c0.8-0.1,1.4-0.6,1.7-1.3c0.3-0.7,0.3-1.5,0-2.2c-0.2-0.6-0.6-1.1-1.2-1.3c-0.1,0-0.3,0-0.4-0.1c-0.6-0.2-0.6-1.1-0.7-1.8
			c-0.1-1.1-1-2.1-2.1-2.5c-0.2,0-0.3-0.1-0.5-0.2c-0.5-0.4,0.3-1.2,0.2-1.9c-0.1-0.6-1-0.7-1.6-0.4c-0.6,0.3-1.2,0.7-1.8,0.5
			c-0.3-0.1-0.5-0.3-0.7-0.5c-0.4-0.5-0.9-0.9-1.3-1.4C160.8,12.6,159.4,12.8,159.4,12.8"/>
	</g>
</g>
<g id="XMLID_460_">
	<g id="XMLID_469_">
		<path class="st0" d="M40.5,16.9c-1.5-2.7-4.7-4.5-7.8-4.3c-1,0.1-1.9,0.3-2.8,0.5c-1.2,0.3-2.6,0.8-2.8,2c-0.2,0.9,0.4,2,0.1,2.8
			c-0.4,1-1.8,1.2-2.5,2.1c-0.4,0.6-0.4,1.5,0,2.1c0.6,0.8,1.7,1.1,2.1,2c0.5,1.4-1.4,2.8-0.9,4.3c0.2,0.6,0.8,1,1.4,1
			c0.6,0,1.2-0.3,1.6-0.8c0.1-0.2,0.3-0.4,0.5-0.5c0.5-0.4,1.2,0,1.7,0.3c0.5,0.4,1,0.9,1.6,0.9c0.7,0,1.3-0.9,1.1-1.6
			c-0.3-0.7-1.1-1-1.5-1.7c-0.4-0.8,0-1.8,0.7-2.3s1.6-0.7,2.5-0.8c0.5-0.1,0.9-0.1,1.4-0.2c0.9-0.1,1.9-0.4,2.1-1.3
			c0.1-0.7-0.5-1.2-0.7-1.9c-0.3-1,0.4-2.1,1.5-2.3c0.2,0,0.5,0,0.7-0.1c0.2-0.1-0.2-0.8-0.3-1"/>
	</g>
	<g id="XMLID_468_">
		<path class="st1" d="M28.4,13.1c-1.8-0.4-3.2,0.5-4.2,1.7c-0.2,0.3-0.4,0.5-0.7,0.7c-0.8,0.6-1.8,0.1-2.8,0
			c-1.5-0.1-2.9,1.3-2.9,2.7c0,1,0.5,2.1,0.1,3.1c-0.3,0.7-1,1.2-1.6,1.6c-0.6,0.5-1.1,1.2-0.9,2c0.4,1.3,2.7,1.2,3.1,2.6
			c0.2,0.8-0.4,1.6-0.2,2.5c0.1,0.5,0.6,0.9,1,1.3c0.1,0.1,0.2,0.2,0.4,0.2c0.3,0.1,0.6-0.3,0.9-0.3c0.6-0.1,1,0.7,1.6,0.8
			c1,0.3,1.9-1.2,2.9-1.1c0.2,0,0.5,0.1,0.7,0.3c0.5,0.3,0.9,0.6,1.4,0.8c0.5,0.2,1.1,0.3,1.6,0c0.4-0.3,0.6-0.8,0.8-1.4
			c0.1-0.2,0.1-0.5,0-0.7c-0.2-0.4-0.9-0.3-1.3-0.3c-0.8,0-1.5-0.7-1.6-1.5c-0.1-1.2,1.1-2.3,0.8-3.5c-0.3-1.2-2.1-1.6-2.6-2.8
			c-0.3-0.8,0.1-1.7,0.7-2.3s1.3-1,1.9-1.7c0.9-0.9,1.4-2.3,1.3-3.6C28.8,13.8,29.2,13.3,28.4,13.1z"/>
	</g>
	<g id="XMLID_467_">
		<path class="st0" d="M42,31.3c-0.4-0.6-0.9-1.3-1.3-1.9c-0.1-0.2-0.3-0.4-0.5-0.6c-0.2-0.1-0.5-0.1-0.8-0.2
			c-0.8-0.1-1.5-0.5-2.3-0.9c-0.7-0.4-1.5-0.8-2.3-0.8c-0.8,0-1.7,0.4-2,1.1c-0.1,0.2-0.1,0.6-0.4,0.7c-0.2,0.1-0.3,0-0.5-0.1
			c-0.7-0.3-1.3-0.7-2-1c-0.7-0.3-1.5-0.3-2.2,0s-1.1,1.1-0.9,1.8c0.1,0.3,0.3,0.5,0.5,0.8c0.5,0.5,1.1,1,1.7,1.4
			c0.4,0.3,1,0.6,1.5,0.4c0.5-0.1,0.8-0.6,1.2-1c0.7-0.6,1.7-0.7,2.5-0.3c0.8,0.4,1.3,1.3,2.2,1.5c0.5,0.1,1,0,1.5-0.1
			c0.5,0,1,0.1,1.3,0.5c0.2,0.3,0.2,0.8,0.2,1.2c0.2,1.3,1.7,2.3,3,1.8s1.8-2.2,1.1-3.3c-0.5-0.9-1.6-1.3-2.1-2.2"/>
	</g>
	<g id="XMLID_466_">
		<path class="st2" d="M20.1,18.2c0.6-1.1,1.5-1.7,1.9-1.8s0.9-0.1,1.3-0.2c0.8-0.2,1.3-0.9,1.8-1.5c0.2-0.2,1-1,0.9-1.3
			c-0.1-0.2-0.4-0.2-1,0.1c-1.1,0.7-2.7-0.4-3.7,0.5c-0.5,0.5-0.9,1.2-1.5,1.5c-0.8,0.4-1.7,0.2-2.5,0.4c-1.6,0.4-2.5,2.4-2.3,4
			c0.2,1.4,0.9,2.8,0.6,4.1c-0.2,0.6-0.6,1.2-1,1.7c-0.7,0.9-1.4,1.7-1.9,2.7c-0.5,1-0.8,2.2-0.4,3.2c0.8,2.3,4.1,3,5,5.2
			c0.2,0.5,0.3,1,0.4,1.5c0.6,1.9,2.3,3.2,3.9,4.3c0.8,0.5,1.7,1.1,2.7,1c1,0,2-0.8,1.9-1.8c0-0.4-0.3-0.8-0.5-1.2
			c-0.9-1.4-1.7-2.7-2.6-4.1c-0.5-0.8-1.1-1.9-0.6-2.8c0.2-0.5,0.7-0.9,0.6-1.4c-0.1-0.4-0.4-0.6-0.8-0.7c-0.4-0.1-0.7-0.1-1.1-0.3
			c-1.1-0.6-0.7-2.3-1.5-3.4c-0.6-0.9-1.9-1.2-2.3-2.1c-0.2-0.5-0.1-1.2,0-1.7C18.2,22.1,18.6,19.8,20.1,18.2"/>
	</g>
	<g id="XMLID_465_">
		<path class="st3" d="M23.2,42.7c0.5-1,1-0.6,2.1-0.6c1.1,0.1,2.1,0.5,3.2,0.8c1.2,0.3,2.6,0.4,3.8,0c0.4-0.1,0.8-0.3,1.2-0.4
			c1-0.2,1.9,0.2,2.9,0.2c1.8-0.1,3.2-1.7,4.9-1.8c0.8,0,1.6,0.2,2.4,0.2c1.4,0,2.7-1,3.5-2.1c0.8-1.2,1.2-2.5,1.6-3.9
			c0.2-0.6,0.3-1.1,0.5-1.7c0.2-0.6,0.3-1.2,0.4-1.7c0.1-1.5,0.1-2.7-0.8-3.8c-1-1.2-0.5-2-1.2-3.2c-0.3-0.5-2.2-4.4-2.6-4.8
			c-0.3-0.4,0-1.2,1.2-0.8c0.5,0.2,2.1,1.4,2.7,2.1c1.2,1.4,0.8,3.5,1.8,5s2.2,3.5,2.2,5.4c-0.1,2.9-0.4,4.3-2.5,7.3
			c-0.5,0.7-2.7,2.8-3,3.6c-0.5,1.5-0.8,2.7-1.9,3.8c-0.9,0.9-1.8,1.8-3,2.1c-1.1,0.2-2.3-0.1-3.4-0.3c-2.7-0.5-5.4-0.1-8.1-0.2
			c-2.7-0.1-5.6-0.8-7.3-2.9c-0.6-0.7-1-1.7-0.5-2.5c0.3-0.5,1-0.7,1.6-0.6c0.6,0.1,1.1,0.3,1.7,0.6"/>
	</g>
	<g id="XMLID_464_">
		<path class="st0" d="M34.1,39.2c-0.5,1-0.9,1.9-1.4,2.9c-0.2,0.4-0.4,0.8-0.7,1.1C31.3,44,30,44.1,29,43.6
			c-0.5-0.2-0.9-0.5-1.4-0.6c-0.4-0.1-0.7,0-1.1,0c-1.9-0.1-3.4-1.9-3.6-3.8c-0.1-0.6,0-1.1-0.3-1.6c-0.2-0.4-0.5-0.8-0.8-1.1
			c-0.9-1.1-1.2-2.7-0.6-3.9c0.1-0.2,0.3-0.5,0.5-0.6c0.2-0.1,0.4-0.1,0.7-0.2c0.6-0.2,1-0.8,1.6-1c0.7-0.3,1.5,0,2.2,0.3
			c1.1,0.4,2.3,1,2.9,2c0.5,1.1,0.3,2.4,1,3.4c0.6,0.9,1.7,1.2,2.7,1.7c0.7,0.3,1.4,0.9,1.2,1.6"/>
	</g>
	<g id="XMLID_463_">
		<path class="st1" d="M30.4,31.7c0.6,0,0.5-0.7,1-1c0.1-0.1,0.2-0.1,0.3-0.2c0.6-0.3,1.3-0.7,2.1-0.8s1.6,0.1,2.1,0.6
			c0.3,0.3,0.5,0.8,0.9,1.2c0.5,0.5,1.3,0.6,2.1,0.6s1.5-0.1,2.2,0.1c0.7,0.2,1.4,0.9,1.3,1.5c-0.1,0.4-0.3,0.7-0.2,1.1
			c0.1,0.5,0.6,0.7,1,1c0.8,0.6,1.2,1.6,1,2.6c-0.2,0.9-0.9,1.7-1.8,2.1c-0.3,0.1-0.6,0.2-0.9,0.4c-0.3,0.3-0.4,0.8-0.4,1.2
			c-0.2,1.2-0.6,2.3-1.2,3.3c-0.2,0.3-0.4,0.6-0.7,0.8c-0.6,0.4-1.3,0.3-2,0.3c-1.1-0.1-2.2-0.2-3.2-0.8c-1.5-0.9-2.3-2.9-4-3.4
			c-0.5-0.1-1-0.2-1.4-0.4c-1-0.4-1.5-1.5-1.7-2.6c-0.2-1.3-0.2-2.8-1.2-3.7c-0.4-0.4-1.1-0.6-1.3-1.1c-0.2-0.4-0.1-0.9,0-1.3
			c0.5-1.5,1.6-3,3.3-2.9C28.7,30.5,28.7,31.6,30.4,31.7z"/>
	</g>
	<g id="XMLID_462_">
		<path class="st0" d="M41.1,30.7c0.5,0.1,0.9-0.3,1.1-0.8c0.2-0.5,0.3-1,0.7-1.3c0.2-0.2,0.5-0.2,0.8-0.3c1-0.1,2,0,3,0.3
			c0.6,0.2,1.4,0.3,1.6-0.3c0-0.1,0-0.3,0.1-0.4c0.1-0.2,0.5-0.1,0.7,0c1.2,0.6,1.7,2.2,1.1,3.4c-0.2,0.4-0.4,0.7-0.4,1.1
			c0,0.3,0.1,0.6,0.1,0.9c0.4,1.7,0.1,3.5-0.7,5c-0.3,0.6-0.8,1.1-1.3,1.4c-0.6,0.3-1.2,0.4-1.8,0.8c-0.6,0.4-0.9,1.1-1.4,1.5
			c-0.6,0.5-0.4,0.7-2.4,1.1c-0.8,0.2-0.7,0.1-2.7,0.2c-5.6,0.3-1.7-1.8-1.7-2.2c-0.2-1,2.2-2,2-3c-0.1-0.5,0.2-1,0.5-1.3
			c0.3-0.3,0.8-0.6,1.2-0.9c0.5-0.4,0.9-0.9,1.2-1.4c0.2-0.3,0.3-0.7,0.2-1c-0.1-0.4-0.5-0.6-0.8-0.8c-0.5-0.4-0.9-1-1-1.7
			c0.1-0.1,0.2-0.2,0.3-0.3"/>
	</g>
	<g id="XMLID_461_">
		<path class="st1" d="M48.9,28.5c0.3-0.3,0.4-0.4,0.2-0.8c-0.1-0.4-1.1-1.3-0.9-1.8c0.5-1.3,0.1-2.9-0.9-3.8
			c-0.6-0.6-1.4-0.9-1.9-1.6c-0.3-0.5-0.4-1-0.7-1.5c-0.3-0.5-0.7-0.8-1.1-1.2c-0.9-0.8-2.1-1.7-3.3-1.4c-0.7,0.2-1.2,0.6-1.7,1.1
			c-0.4,0.4-0.8,0.8-0.8,1.3c-0.1,0.8,0.7,1.4,0.8,2.1c0.1,0.9-0.6,1.6-1.4,1.9s-1.7,0.1-2.6,0.1s-1.8,0.1-2.4,0.7
			c-0.6,0.5-0.8,1.3-0.6,2.1s0.6,1.4,1.3,1.8c0.5,0.3,1.2,0.5,1.7,0.3c0.1-0.1,0.3-0.1,0.4-0.2c0.7-0.2,1.1,0.6,1.6,1.1
			c0.8,0.8,2.1,1.2,3.1,0.8c0.2-0.1,0.3-0.1,0.5-0.1c0.7,0.1,0.5,1.2,1,1.6c0.5,0.4,1.2-0.1,1.6-0.6c0.3-0.6,0.6-1.2,1.2-1.4
			c0.3-0.1,0.6,0,0.9,0c0.6,0.1,1.3,0.2,1.9,0.4C47.8,29.4,48.9,28.5,48.9,28.5"/>
	</g>
</g>
<g id="XMLID_450_">
	<g id="XMLID_459_">
		<path class="st0" d="M99.6,15.1c-1.7-3.4-5.5-5.7-9.4-5.7c-1.2,0-2.4,0.2-3.5,0.5c-1.5,0.3-3.2,0.9-3.6,2.3
			c-0.3,1.1,0.4,2.4-0.1,3.5c-0.6,1.2-2.3,1.4-3.2,2.5c-0.6,0.7-0.6,1.8-0.1,2.5c0.7,1,2.1,1.4,2.5,2.5c0.6,1.7-1.8,3.4-1.3,5.2
			c0.2,0.7,0.9,1.2,1.7,1.3c0.8,0.1,1.5-0.3,2-0.9c0.2-0.2,0.4-0.4,0.6-0.6c0.7-0.4,1.5,0,2.1,0.5c0.6,0.5,1.2,1.1,2,1.1
			c0.9,0,1.6-1,1.4-1.8c-0.3-0.9-1.3-1.3-1.8-2.1c-0.5-1,0.1-2.2,1-2.8c0.9-0.6,2-0.7,3.1-0.8c0.6-0.1,1.1-0.1,1.7-0.2
			c1.1-0.1,2.4-0.4,2.6-1.5c0.1-0.8-0.5-1.6-0.7-2.4c-0.3-1.2,0.6-2.6,1.9-2.7c0.3,0,0.6,0,0.8-0.1c0.3-0.1-0.1-1-0.3-1.2"/>
	</g>
	<g id="XMLID_458_">
		<path class="st1" d="M84.9,9.8c-2.1-0.6-3.9,0.4-5.2,1.9c-0.3,0.3-0.5,0.6-0.8,0.9c-1,0.6-2.3,0-3.4-0.1c-1.8-0.1-3.6,1.4-3.7,3.2
			c-0.1,1.3,0.5,2.6,0,3.7c-0.4,0.9-1.3,1.4-2,1.9c-0.7,0.6-1.5,1.4-1.2,2.4c0.4,1.7,3.2,1.7,3.7,3.3c0.3,1-0.5,2-0.4,3
			c0.1,0.7,0.7,1.2,1.2,1.6c0.1,0.1,0.3,0.2,0.4,0.3c0.4,0.1,0.7-0.3,1.1-0.3c0.8-0.1,1.2,0.9,1.9,1.1c1.2,0.5,2.3-1.3,3.6-1.1
			c0.3,0,0.5,0.2,0.8,0.3c0.6,0.4,1.1,0.8,1.7,1.1c0.6,0.3,1.3,0.4,1.9,0c0.6-0.3,0.8-1,1-1.6c0.1-0.3,0.2-0.6,0.1-0.8
			c-0.2-0.5-1-0.4-1.6-0.5c-1-0.1-1.8-0.9-1.9-1.9c-0.1-1.5,1.5-2.8,1.2-4.2c-0.3-1.5-2.5-2-3-3.5c-0.3-1,0.2-2.1,1-2.8
			c0.7-0.7,1.7-1.2,2.4-1.9c1.2-1.1,1.9-2.8,1.8-4.4C85.4,10.8,85.8,10.1,84.9,9.8z"/>
	</g>
	<g id="XMLID_457_">
		<path class="st0" d="M100.7,32.8c-0.5-0.8-1-1.6-1.5-2.4c-0.2-0.3-0.3-0.5-0.6-0.7c-0.3-0.2-0.6-0.2-1-0.2c-1-0.1-1.9-0.7-2.7-1.2
			s-1.8-1-2.7-1.1c-1-0.1-2.1,0.4-2.5,1.3c-0.1,0.3-0.2,0.7-0.5,0.8c-0.2,0.1-0.4,0-0.6-0.1c-0.8-0.4-1.6-0.9-2.4-1.3
			s-1.8-0.5-2.6-0.2c-0.8,0.3-1.5,1.3-1.2,2.2c0.1,0.4,0.3,0.7,0.6,1c0.6,0.7,1.3,1.3,2,1.8c0.5,0.4,1.2,0.7,1.8,0.6
			c0.6-0.2,1-0.7,1.5-1.1c0.8-0.7,2.1-0.8,3-0.2c0.9,0.6,1.5,1.7,2.6,2c0.6,0.2,1.2,0,1.8,0s1.3,0.1,1.6,0.6c0.3,0.4,0.2,1,0.2,1.5
			c0.1,1.6,2,2.9,3.5,2.4c1.6-0.5,2.4-2.6,1.6-4c-0.6-1.1-1.9-1.7-2.4-2.8"/>
	</g>
	<g id="XMLID_456_">
		<path class="st2" d="M74.5,15.7c0.8-1.3,2-2,2.5-2.1c0.5-0.1,1.1-0.1,1.6-0.2c0.9-0.3,1.6-1,2.2-1.8c0.2-0.3,1.3-1.2,1.1-1.5
			c-0.1-0.2-0.5-0.3-1.2,0.1c-1.4,0.8-3.3-0.7-4.5,0.4c-0.7,0.6-1.1,1.4-1.9,1.8c-0.9,0.5-2.1,0.2-3.1,0.4c-2,0.4-3.2,2.8-3,4.8
			c0.2,1.7,1,3.4,0.5,5.1c-0.2,0.8-0.7,1.4-1.3,2c-0.9,1-1.8,2-2.5,3.2c-0.7,1.2-1,2.6-0.6,3.9c0.9,2.9,4.8,3.9,5.9,6.7
			c0.2,0.6,0.3,1.2,0.5,1.8c0.7,2.3,2.6,4,4.6,5.4c1,0.7,2.1,1.4,3.3,1.4c1.2,0,2.5-0.9,2.5-2.1c0-0.5-0.3-1-0.5-1.4
			c-1-1.7-2-3.4-2.9-5.2C77,37.4,76.4,36.1,77,35c0.3-0.5,0.9-1,0.8-1.6c-0.1-0.5-0.5-0.8-0.9-0.9s-0.9-0.2-1.3-0.4
			c-1.3-0.8-0.8-2.9-1.6-4.2c-0.7-1.1-2.2-1.5-2.7-2.7c-0.2-0.7-0.1-1.4,0.1-2.1C71.9,20.4,72.6,17.6,74.5,15.7"/>
	</g>
	<g id="XMLID_455_">
		<path class="st3" d="M77,45.8c0.6-1.2,1.2-0.7,2.5-0.6c1.3,0.2,2.5,0.8,3.8,1.2c1.5,0.5,3.1,0.6,4.6,0.2c0.5-0.1,1-0.3,1.5-0.4
			c1.2-0.1,2.3,0.4,3.5,0.4c2.2,0,4-1.9,6.1-1.9c1,0,1.9,0.3,2.9,0.4c1.7,0,3.3-1.1,4.4-2.4c1-1.4,1.6-3.1,2.2-4.7
			c0.2-0.7,0.5-1.4,0.7-2.1c0.2-0.7,0.5-1.4,0.6-2.1c0.2-1.8,0.3-3.2-0.8-4.7c-1.1-1.5-0.6-2.5-1.3-4c-0.3-0.6-2.5-5.4-2.9-6
			c-0.4-0.6,0.1-1.5,1.5-0.9c0.6,0.3,2.5,1.9,3.2,2.7c1.4,1.8,0.8,4.3,2,6.2c1.2,1.9,2.6,4.4,2.4,6.7c-0.2,3.5-0.7,5.2-3.4,8.8
			c-0.6,0.8-3.5,3.2-3.9,4.2c-0.7,1.8-1.1,3.3-2.5,4.6c-1.1,1-2.3,2.1-3.8,2.4c-1.4,0.2-2.8-0.2-4.2-0.5c-3.2-0.7-6.6-0.4-9.9-0.6
			c-3.3-0.3-6.8-1.3-8.8-3.9c-0.7-0.9-1.1-2.2-0.4-3.1c0.4-0.6,1.3-0.8,2-0.7s1.4,0.5,2,0.8"/>
	</g>
	<g id="XMLID_454_">
		<path class="st0" d="M90.6,42.1c-0.6,1.2-1.2,2.3-1.8,3.5c-0.2,0.5-0.5,1-0.9,1.3c-1,0.9-2.6,1-3.8,0.3c-0.6-0.3-1.1-0.7-1.7-0.8
			c-0.4-0.1-0.9-0.1-1.4-0.1c-2.3-0.2-4.1-2.5-4.3-4.8c0-0.7,0-1.4-0.2-2c-0.2-0.5-0.6-1-1-1.4c-1-1.4-1.4-3.4-0.5-4.9
			c0.2-0.3,0.4-0.6,0.7-0.7c0.3-0.1,0.5-0.1,0.8-0.2c0.7-0.2,1.3-0.9,2-1.2c0.9-0.3,1.9,0.1,2.7,0.4c1.4,0.6,2.8,1.3,3.5,2.6
			c0.6,1.3,0.2,3,1,4.2c0.7,1.1,2.1,1.6,3.3,2.2c0.8,0.4,1.6,1.2,1.4,2"/>
	</g>
	<g id="XMLID_453_">
		<path class="st1" d="M86.4,32.7c0.7,0.1,0.7-0.8,1.2-1.2c0.1-0.1,0.3-0.2,0.4-0.2c0.8-0.4,1.6-0.8,2.6-0.8
			c0.9-0.1,1.9,0.2,2.5,0.9c0.4,0.4,0.6,1,1,1.5c0.6,0.6,1.6,0.8,2.5,0.8c0.9,0,1.8-0.1,2.6,0.2s1.6,1.1,1.5,2
			c-0.1,0.5-0.4,0.9-0.4,1.4c0.1,0.6,0.7,0.9,1.2,1.3c1,0.8,1.4,2.1,1.1,3.2s-1.2,2.1-2.3,2.4c-0.4,0.1-0.8,0.2-1.1,0.5
			c-0.4,0.4-0.5,0.9-0.6,1.5c-0.2,1.4-0.8,2.8-1.6,4c-0.2,0.4-0.5,0.7-0.9,0.9c-0.7,0.4-1.6,0.3-2.5,0.2c-1.3-0.2-2.7-0.4-3.8-1.1
			c-1.8-1.2-2.7-3.6-4.7-4.4c-0.6-0.2-1.2-0.3-1.7-0.5c-1.2-0.6-1.8-1.9-2-3.2c-0.2-1.6-0.1-3.5-1.3-4.6c-0.5-0.5-1.3-0.8-1.6-1.5
			c-0.2-0.5-0.1-1.1,0.1-1.5c0.6-1.8,2.2-3.6,4.2-3.4C84.4,31.1,84.4,32.5,86.4,32.7z"/>
	</g>
	<g id="XMLID_452_">
		<path class="st0" d="M99.6,32.1c0.6,0.2,1.1-0.4,1.4-0.9s0.5-1.2,1-1.5c0.3-0.2,0.6-0.2,1-0.3c1.2-0.1,2.5,0.1,3.6,0.5
			c0.7,0.3,1.7,0.5,1.9-0.2c0.1-0.2,0-0.3,0.1-0.5c0.2-0.3,0.6-0.2,0.9,0c1.4,0.8,2,2.8,1.2,4.2c-0.2,0.4-0.5,0.8-0.6,1.3
			c-0.1,0.3,0,0.7,0.1,1c0.4,2.1,0,4.3-1.2,6c-0.4,0.7-1,1.3-1.7,1.7c-0.7,0.3-1.5,0.4-2.2,0.8c-0.7,0.5-1.1,1.3-1.8,1.8
			c-0.8,0.6-0.5,0.9-3,1.3c-1,0.2-0.9,0.1-3.3,0.1c-6.9,0.1-1.9-2.3-2-2.8c-0.2-1.2,2.8-2.3,2.6-3.6c-0.1-0.6,0.2-1.2,0.7-1.6
			c0.4-0.4,1-0.7,1.5-1c0.6-0.4,1.1-1,1.5-1.6c0.2-0.4,0.4-0.8,0.3-1.2c-0.1-0.4-0.6-0.7-0.9-1c-0.6-0.5-1-1.3-1.1-2.1
			c0.1-0.1,0.3-0.2,0.4-0.3"/>
	</g>
	<g id="XMLID_451_">
		<path class="st1" d="M109.3,29.7c0.4-0.4,0.4-0.4,0.3-1c-0.1-0.5-1.3-1.7-1.1-2.2c0.6-1.6,0.3-3.5-0.9-4.7
			c-0.7-0.7-1.7-1.2-2.2-2.1c-0.4-0.6-0.5-1.3-0.8-1.9c-0.3-0.6-0.8-1.1-1.3-1.5c-1.1-1.1-2.5-2.2-4-1.9c-0.8,0.2-1.5,0.7-2.2,1.3
			c-0.5,0.4-1,0.9-1.1,1.5c-0.1,0.9,0.8,1.7,0.9,2.6c0.1,1.1-0.8,2-1.9,2.3c-1,0.3-2.1,0.1-3.1,0c-1.1-0.1-2.2,0-3,0.7
			c-0.7,0.6-1,1.6-0.9,2.5c0.1,0.9,0.7,1.7,1.4,2.3c0.6,0.4,1.4,0.7,2.1,0.4c0.2-0.1,0.3-0.2,0.5-0.2c0.8-0.2,1.4,0.7,1.9,1.4
			c0.9,1.1,2.5,1.5,3.8,1.1c0.2-0.1,0.4-0.1,0.6-0.1c0.8,0.1,0.5,1.5,1.1,2.1c0.6,0.5,1.5,0,1.9-0.7s0.8-1.5,1.6-1.7
			c0.4-0.1,0.7,0,1.1,0.1c0.8,0.2,1.6,0.4,2.3,0.6C107.9,30.8,109.3,29.7,109.3,29.7"/>
	</g>
</g>
<g id="XMLID_440_">
	<g id="XMLID_449_">
		<path class="st0" d="M129.4,58.7c-1.4-3-4.7-5.1-8-5.1c-1,0-2,0.2-3,0.4c-1.3,0.2-2.8,0.7-3.1,1.9c-0.3,1,0.3,2.1-0.1,3
			c-0.5,1.1-2,1.2-2.8,2.1c-0.5,0.6-0.6,1.5-0.1,2.2c0.5,0.9,1.8,1.2,2.1,2.2c0.5,1.5-1.6,2.9-1.2,4.5c0.2,0.6,0.8,1.1,1.5,1.2
			c0.7,0.1,1.3-0.2,1.8-0.7c0.2-0.2,0.3-0.4,0.5-0.5c0.6-0.3,1.3,0,1.8,0.5c0.5,0.4,1,1,1.7,1c0.8,0,1.4-0.8,1.2-1.6
			c-0.2-0.8-1.1-1.1-1.5-1.9c-0.4-0.8,0.1-1.9,0.9-2.4c0.8-0.5,1.8-0.6,2.7-0.7c0.5,0,1-0.1,1.5-0.1c0.9-0.1,2.1-0.3,2.3-1.3
			c0.1-0.7-0.4-1.4-0.6-2.1c-0.2-1.1,0.6-2.2,1.7-2.3c0.2,0,0.5,0,0.7-0.1c0.2-0.1-0.1-0.9-0.2-1.1"/>
	</g>
	<g id="XMLID_448_">
		<path class="st1" d="M116.8,53.8c-1.8-0.6-3.4,0.3-4.6,1.5c-0.2,0.3-0.4,0.6-0.7,0.7c-0.9,0.5-2-0.1-3-0.2
			c-1.6-0.2-3.1,1.1-3.3,2.7c-0.1,1.1,0.4,2.3-0.1,3.2c-0.3,0.7-1.1,1.2-1.8,1.6s-1.3,1.2-1.1,2c0.3,1.4,2.8,1.5,3.1,2.9
			c0.2,0.9-0.5,1.7-0.4,2.6c0.1,0.6,0.6,1,1,1.4c0.1,0.1,0.2,0.2,0.4,0.2c0.3,0.1,0.6-0.2,1-0.3c0.7-0.1,1,0.8,1.6,1
			c1.1,0.4,2.1-1.1,3.2-0.9c0.2,0,0.5,0.2,0.7,0.3c0.5,0.3,0.9,0.7,1.4,1c0.5,0.3,1.2,0.4,1.7,0.1c0.5-0.3,0.7-0.8,0.9-1.4
			c0.1-0.2,0.2-0.5,0.1-0.7c-0.2-0.5-0.9-0.4-1.4-0.4c-0.8-0.1-1.6-0.8-1.6-1.7c0-1.3,1.4-2.4,1.1-3.6c-0.3-1.3-2.1-1.8-2.5-3.1
			c-0.3-0.9,0.2-1.8,0.9-2.4s1.5-1,2.1-1.6c1.1-0.9,1.7-2.3,1.7-3.8C117.2,54.7,117.6,54.1,116.8,53.8z"/>
	</g>
	<g id="XMLID_447_">
		<path class="st0" d="M130,74.1c-0.4-0.7-0.9-1.4-1.3-2.1c-0.1-0.2-0.3-0.5-0.5-0.6c-0.2-0.2-0.6-0.2-0.8-0.2
			c-0.9-0.1-1.6-0.6-2.3-1.1c-0.7-0.5-1.5-0.9-2.4-1c-0.9-0.1-1.8,0.3-2.2,1.1c-0.1,0.3-0.2,0.6-0.4,0.7c-0.2,0-0.3,0-0.5-0.1
			c-0.7-0.4-1.3-0.8-2.1-1.2s-1.6-0.5-2.3-0.2c-0.7,0.3-1.3,1.1-1.1,1.9c0.1,0.3,0.3,0.6,0.5,0.8c0.5,0.6,1.1,1.2,1.7,1.6
			c0.4,0.3,1,0.7,1.5,0.5c0.5-0.1,0.9-0.6,1.3-0.9c0.7-0.6,1.8-0.6,2.6-0.1c0.8,0.5,1.3,1.5,2.2,1.8c0.5,0.1,1,0,1.5,0
			c0.5,0,1.1,0.1,1.4,0.6c0.2,0.4,0.1,0.8,0.1,1.3c0.1,1.4,1.7,2.5,3,2.1c1.4-0.4,2.1-2.2,1.4-3.4c-0.5-0.9-1.6-1.5-2-2.5"/>
	</g>
	<g id="XMLID_446_">
		<path class="st2" d="M107.7,58.7c0.8-1.1,1.7-1.7,2.2-1.8c0.5-0.1,0.9,0,1.4-0.2c0.8-0.2,1.4-0.9,2-1.5c0.2-0.2,1.1-1,1-1.3
			c-0.1-0.2-0.4-0.3-1,0.1c-1.3,0.6-2.9-0.6-3.9,0.3c-0.6,0.5-1,1.2-1.7,1.5c-0.8,0.4-1.8,0.1-2.7,0.3c-1.8,0.3-2.8,2.3-2.7,4.1
			c0.1,1.5,0.8,3,0.3,4.4c-0.2,0.6-0.7,1.2-1.1,1.7c-0.8,0.9-1.6,1.7-2.2,2.7c-0.6,1-0.9,2.3-0.6,3.4c0.7,2.5,4.1,3.4,5,5.9
			c0.2,0.5,0.2,1.1,0.4,1.6c0.5,2,2.2,3.5,3.9,4.8c0.8,0.6,1.8,1.2,2.8,1.3c1.1,0,2.2-0.7,2.2-1.8c0-0.4-0.2-0.9-0.4-1.3
			c-0.8-1.5-1.6-3-2.4-4.5c-0.5-0.9-1-2.1-0.5-3c0.3-0.5,0.8-0.9,0.7-1.4c-0.1-0.4-0.4-0.7-0.8-0.8c-0.4-0.1-0.8-0.2-1.1-0.4
			c-1.1-0.7-0.6-2.5-1.3-3.7c-0.6-1-1.9-1.4-2.2-2.4c-0.2-0.6-0.1-1.2,0.1-1.8C105.4,62.7,106,60.3,107.7,58.7"/>
	</g>
	<g id="XMLID_445_">
		<path class="st3" d="M109.3,84.8c0.5-1,1.1-0.6,2.2-0.4c1.1,0.2,2.2,0.7,3.3,1.1c1.3,0.4,2.7,0.6,4,0.3c0.4-0.1,0.9-0.3,1.3-0.3
			c1-0.1,2,0.4,3,0.4c1.9,0,3.5-1.6,5.3-1.5c0.9,0,1.7,0.3,2.5,0.4c1.5,0.1,2.9-0.8,3.8-2c0.9-1.2,1.5-2.6,2-4
			c0.2-0.6,0.4-1.2,0.6-1.8c0.2-0.6,0.4-1.2,0.5-1.8c0.2-1.6,0.3-2.8-0.6-4.1s-0.4-2.2-1-3.5c-0.2-0.5-2.1-4.8-2.4-5.3
			c-0.3-0.5,0.1-1.3,1.4-0.8c0.5,0.2,2.2,1.7,2.7,2.4c1.2,1.6,0.6,3.7,1.6,5.4c1,1.7,2.1,3.9,2,5.8c-0.3,3-0.7,4.5-3.1,7.6
			c-0.6,0.7-3.1,2.7-3.4,3.6c-0.6,1.6-1,2.8-2.2,3.9c-1,0.9-2.1,1.8-3.4,2c-1.2,0.2-2.4-0.3-3.6-0.6c-2.8-0.7-5.7-0.5-8.6-0.8
			c-2.9-0.3-5.9-1.2-7.6-3.6c-0.6-0.8-0.9-1.9-0.3-2.7c0.4-0.5,1.1-0.7,1.7-0.5c0.6,0.1,1.2,0.4,1.7,0.7"/>
	</g>
	<g id="XMLID_444_">
		<path class="st0" d="M121.1,81.9c-0.6,1-1.1,2-1.7,3c-0.2,0.4-0.5,0.8-0.8,1.1c-0.9,0.8-2.3,0.8-3.3,0.2c-0.5-0.3-0.9-0.6-1.4-0.8
			c-0.4-0.1-0.8-0.1-1.2-0.1c-2-0.2-3.5-2.2-3.6-4.2c0-0.6,0-1.2-0.2-1.8c-0.2-0.5-0.5-0.8-0.8-1.2c-0.9-1.2-1.1-2.9-0.4-4.2
			c0.2-0.3,0.3-0.5,0.6-0.6c0.2-0.1,0.5-0.1,0.7-0.2c0.6-0.2,1.1-0.8,1.7-1c0.8-0.3,1.6,0.1,2.3,0.4c1.2,0.5,2.4,1.2,2.9,2.3
			c0.5,1.2,0.2,2.6,0.8,3.7c0.6,1,1.8,1.4,2.8,1.9c0.7,0.4,1.4,1,1.1,1.8"/>
	</g>
	<g id="XMLID_443_">
		<path class="st1" d="M117.7,73.7c0.6,0.1,0.6-0.7,1.1-1c0.1-0.1,0.2-0.1,0.4-0.2c0.7-0.3,1.4-0.6,2.2-0.7c0.8-0.1,1.6,0.2,2.2,0.8
			c0.3,0.4,0.5,0.9,0.9,1.3c0.5,0.6,1.4,0.7,2.1,0.7c0.8,0,1.6,0,2.3,0.3c0.7,0.3,1.4,1,1.2,1.7c-0.1,0.4-0.4,0.8-0.3,1.2
			c0.1,0.5,0.6,0.8,1,1.1c0.8,0.7,1.2,1.8,0.9,2.8c-0.2,1-1.1,1.8-2,2.1c-0.3,0.1-0.7,0.2-1,0.4c-0.4,0.3-0.4,0.8-0.5,1.3
			c-0.2,1.2-0.8,2.4-1.5,3.4c-0.2,0.3-0.5,0.6-0.8,0.8c-0.6,0.4-1.4,0.2-2.2,0.1c-1.1-0.2-2.3-0.4-3.3-1c-1.6-1.1-2.3-3.2-4-3.9
			c-0.5-0.2-1-0.2-1.5-0.5c-1-0.5-1.5-1.7-1.6-2.8c-0.2-1.4,0-3-1.1-4c-0.4-0.4-1.1-0.7-1.3-1.3c-0.2-0.4,0-0.9,0.1-1.3
			c0.6-1.6,1.9-3.1,3.7-2.8C115.9,72.3,115.9,73.5,117.7,73.7z"/>
	</g>
	<g id="XMLID_442_">
		<path class="st0" d="M129.1,73.4c0.5,0.2,1-0.3,1.2-0.8c0.2-0.5,0.4-1,0.9-1.3c0.3-0.2,0.6-0.2,0.8-0.2c1.1-0.1,2.1,0.1,3.1,0.5
			c0.6,0.2,1.5,0.4,1.7-0.2c0-0.1,0-0.3,0.1-0.4c0.2-0.2,0.5-0.1,0.7,0c1.2,0.7,1.6,2.5,1,3.7c-0.2,0.4-0.5,0.7-0.5,1.1
			c-0.1,0.3,0,0.6,0.1,0.9c0.3,1.8-0.1,3.7-1.1,5.2c-0.4,0.6-0.9,1.1-1.5,1.4c-0.6,0.3-1.3,0.3-1.9,0.7c-0.6,0.4-1,1.1-1.6,1.5
			c-0.7,0.5-0.5,0.8-2.7,1c-0.8,0.1-0.7,0-2.8,0c-6,0-1.6-2-1.7-2.5c-0.1-1.1,2.5-2,2.3-3.1c-0.1-0.5,0.2-1,0.6-1.4
			c0.4-0.3,0.9-0.6,1.3-0.9c0.5-0.4,1-0.8,1.3-1.4c0.2-0.3,0.4-0.7,0.3-1.1c-0.1-0.4-0.5-0.6-0.8-0.9c-0.5-0.5-0.9-1.2-0.9-1.9
			c0.1-0.1,0.2-0.2,0.4-0.3"/>
	</g>
	<g id="XMLID_441_">
		<path class="st1" d="M137.5,71.5c0.4-0.3,0.4-0.4,0.3-0.9c-0.1-0.5-1.1-1.5-0.9-1.9c0.6-1.4,0.3-3-0.7-4.1
			c-0.6-0.6-1.4-1.1-1.9-1.8c-0.3-0.5-0.4-1.1-0.7-1.6c-0.3-0.5-0.7-0.9-1.1-1.4c-0.9-0.9-2.1-1.9-3.4-1.7c-0.7,0.1-1.3,0.6-1.9,1
			c-0.4,0.3-0.9,0.8-1,1.3c-0.1,0.8,0.6,1.5,0.7,2.3c0.1,0.9-0.8,1.7-1.7,1.9c-0.9,0.2-1.8,0-2.7,0c-0.9-0.1-1.9,0-2.6,0.6
			c-0.6,0.5-0.9,1.4-0.8,2.2s0.6,1.5,1.2,2c0.5,0.4,1.2,0.7,1.8,0.4c0.2-0.1,0.3-0.1,0.5-0.2c0.7-0.2,1.2,0.7,1.6,1.2
			c0.8,1,2.1,1.4,3.3,1c0.2-0.1,0.3-0.1,0.5-0.1c0.7,0.1,0.4,1.3,0.9,1.8c0.5,0.5,1.3,0,1.7-0.6c0.4-0.6,0.7-1.3,1.4-1.4
			c0.3-0.1,0.6,0,0.9,0.1c0.7,0.2,1.3,0.3,2,0.5C136.3,72.4,137.5,71.5,137.5,71.5"/>
	</g>
</g>
<g id="XMLID_8_">
	<g id="XMLID_439_">
		<path class="st0" d="M78.9,54.3c-2.3-2.8-6.2-4-9.7-3.2c-1.1,0.3-2.1,0.7-3.1,1.2c-1.3,0.6-2.7,1.5-2.7,2.9c0,1.1,0.9,2.1,0.7,3.2
			c-0.2,1.2-1.8,1.8-2.4,2.9C61.2,62,61.4,63,62,63.6c0.8,0.8,2.2,0.8,2.8,1.8c0.9,1.5-0.9,3.5-0.1,5c0.4,0.6,1.1,0.9,1.8,0.8
			s1.3-0.6,1.7-1.2c0.1-0.2,0.2-0.5,0.4-0.7c0.5-0.5,1.4-0.3,2,0c0.6,0.3,1.3,0.8,2,0.6c0.8-0.2,1.3-1.3,0.9-2
			c-0.4-0.7-1.5-0.9-2.1-1.6c-0.6-0.8-0.4-2,0.3-2.7c0.7-0.7,1.7-1.1,2.6-1.4c0.5-0.2,1-0.3,1.5-0.5c1-0.3,2.1-0.9,2-1.9
			c0-0.8-0.8-1.3-1.2-2c-0.5-1,0-2.5,1.2-2.9c0.2-0.1,0.5-0.1,0.7-0.3c0.2-0.2-0.3-0.9-0.5-1.1"/>
	</g>
	<g id="XMLID_438_">
		<path class="st1" d="M64.4,52.6c-2.1-0.1-3.5,1.2-4.4,2.8c-0.2,0.3-0.3,0.7-0.6,1c-0.8,0.8-2.1,0.5-3.2,0.6c-1.7,0.3-3,2-2.7,3.7
			c0.2,1.2,1,2.3,0.8,3.4c-0.2,0.9-0.9,1.5-1.4,2.2c-0.6,0.7-1,1.6-0.6,2.4c0.7,1.4,3.3,0.8,4,2.2c0.4,0.8-0.1,1.9,0.3,2.8
			c0.3,0.6,0.9,0.9,1.4,1.2c0.1,0.1,0.3,0.1,0.4,0.1c0.4,0,0.6-0.4,0.9-0.5c0.7-0.3,1.3,0.5,2,0.6c1.2,0.1,1.8-1.7,3.1-1.8
			c0.3,0,0.5,0.1,0.8,0.1c0.6,0.2,1.1,0.5,1.7,0.6c0.6,0.1,1.3,0.1,1.7-0.4c0.4-0.4,0.5-1.1,0.6-1.7c0-0.3,0-0.5-0.1-0.8
			c-0.3-0.4-1-0.2-1.6-0.1c-0.9,0.1-1.8-0.5-2.1-1.3c-0.4-1.3,0.8-2.8,0.2-4.1c-0.6-1.3-2.7-1.3-3.5-2.6c-0.5-0.8-0.2-1.9,0.3-2.7
			c0.5-0.8,1.3-1.5,1.8-2.3c0.8-1.3,1.1-2.9,0.7-4.4C65.1,53.3,65.3,52.6,64.4,52.6z"/>
	</g>
	<g id="XMLID_437_">
		<path class="st0" d="M83.6,70.2c-0.6-0.6-1.3-1.3-1.9-1.9c-0.2-0.2-0.4-0.4-0.7-0.5c-0.3-0.1-0.6,0-0.9,0
			c-0.9,0.1-1.8-0.2-2.7-0.5c-0.9-0.3-1.8-0.6-2.7-0.5c-0.9,0.1-1.9,0.8-2,1.7c0,0.3,0,0.7-0.3,0.8c-0.2,0.1-0.4,0.1-0.6,0
			c-0.8-0.2-1.6-0.5-2.5-0.7c-0.8-0.1-1.8-0.1-2.4,0.4s-1.1,1.5-0.6,2.2c0.2,0.3,0.5,0.5,0.7,0.8c0.7,0.5,1.4,0.9,2.2,1.3
			c0.6,0.2,1.2,0.4,1.7,0.1c0.5-0.3,0.7-0.9,1.1-1.3c0.6-0.8,1.8-1.1,2.7-0.8c1,0.3,1.7,1.2,2.8,1.3c0.6,0,1.1-0.2,1.6-0.4
			s1.2-0.2,1.6,0.2c0.3,0.3,0.4,0.8,0.5,1.3c0.5,1.5,2.4,2.2,3.7,1.4s1.6-2.8,0.6-3.9c-0.8-0.9-2.1-1.1-2.8-2.1"/>
	</g>
	<g id="XMLID_436_">
		<path class="st2" d="M56.2,60.1c0.5-1.3,1.4-2.2,1.8-2.5s1-0.3,1.4-0.5c0.8-0.4,1.2-1.3,1.6-2.1c0.2-0.3,0.9-1.4,0.7-1.6
			c-0.1-0.2-0.5-0.2-1.1,0.3c-1.1,1-3.2,0.1-4,1.3c-0.5,0.7-0.7,1.5-1.4,2c-0.8,0.6-1.9,0.6-2.7,1c-1.7,0.8-2.3,3.2-1.7,5
			c0.5,1.5,1.6,2.9,1.5,4.5c-0.1,0.7-0.4,1.4-0.7,2.1C51,70.9,50.4,72,50,73.2c-0.4,1.2-0.4,2.6,0.2,3.7c1.4,2.4,5.2,2.5,6.8,4.8
			c0.3,0.5,0.5,1.1,0.8,1.6c1.1,2,3.3,3.1,5.4,4c1.1,0.4,2.2,0.8,3.3,0.6c1.1-0.2,2.1-1.4,1.8-2.4c-0.1-0.5-0.5-0.8-0.8-1.2
			c-1.3-1.4-2.5-2.7-3.8-4.1c-0.8-0.8-1.6-1.9-1.3-3c0.2-0.6,0.6-1.1,0.4-1.7c-0.2-0.4-0.6-0.6-1.1-0.6c-0.4,0-0.9,0-1.3-0.1
			c-1.4-0.5-1.3-2.5-2.4-3.5c-0.8-0.9-2.3-0.9-3-1.9c-0.4-0.6-0.4-1.3-0.4-1.9C54.8,64.9,54.8,62.2,56.2,60.1"/>
	</g>
	<g id="XMLID_435_">
		<path class="st3" d="M64.8,87c0.3-1.2,1-0.9,2.2-1.1c1.2-0.1,2.5,0.2,3.7,0.3c1.5,0.1,3-0.1,4.3-0.8c0.4-0.2,0.8-0.5,1.3-0.7
			c1-0.4,2.2-0.1,3.3-0.4c2-0.5,3.2-2.6,5.2-3c0.9-0.2,1.8-0.1,2.7-0.3c1.6-0.3,2.8-1.7,3.5-3.1s0.8-3.1,1-4.7
			c0.1-0.7,0.1-1.3,0.2-2c0.1-0.7,0.1-1.4,0.1-2c-0.2-1.7-0.4-3-1.8-4.1c-1.3-1.1-1-2.2-2-3.3c-0.4-0.5-3.5-4.4-3.9-4.9
			c-0.4-0.4-0.2-1.4,1.2-1.2c0.6,0.1,2.7,1.1,3.5,1.8c1.6,1.3,1.6,3.8,3.1,5.2c1.5,1.5,3.3,3.5,3.6,5.6c0.5,3.2,0.5,4.9-1.2,8.8
			c-0.4,0.9-2.5,3.7-2.6,4.7c-0.2,1.8-0.3,3.2-1.3,4.7c-0.8,1.2-1.7,2.4-3,3c-1.2,0.5-2.6,0.4-3.9,0.4c-3.1,0-6.1,1-9.2,1.5
			c-3.1,0.5-6.5,0.3-8.8-1.7c-0.8-0.7-1.5-1.8-1-2.7c0.3-0.6,1-1,1.7-1s1.4,0.1,2,0.3"/>
	</g>
	<g id="XMLID_434_">
		<path class="st0" d="M76.4,80.8c-0.3,1.2-0.6,2.4-0.9,3.6c-0.1,0.5-0.3,1-0.5,1.4c-0.7,1.1-2.2,1.4-3.4,1.1
			c-0.6-0.1-1.1-0.4-1.7-0.4c-0.4,0-0.8,0.1-1.3,0.2c-2.1,0.3-4.2-1.4-4.9-3.4c-0.2-0.6-0.3-1.3-0.7-1.8c-0.3-0.4-0.8-0.7-1.2-1.1
			c-1.2-1-1.9-2.8-1.5-4.3c0.1-0.3,0.2-0.6,0.5-0.8c0.2-0.2,0.5-0.2,0.7-0.4c0.6-0.4,0.9-1.1,1.6-1.5c0.7-0.5,1.7-0.3,2.6-0.2
			c1.4,0.3,2.8,0.6,3.7,1.7c0.8,1.1,0.9,2.6,1.8,3.6c0.9,0.9,2.2,1,3.4,1.3c0.8,0.2,1.7,0.7,1.7,1.5"/>
	</g>
	<g id="XMLID_433_">
		<path class="st1" d="M70.6,73.1c0.7-0.1,0.4-0.9,0.9-1.4c0.1-0.1,0.2-0.2,0.3-0.3c0.6-0.5,1.3-1,2.1-1.3s1.8-0.2,2.5,0.3
			c0.5,0.3,0.8,0.8,1.3,1.1c0.7,0.4,1.6,0.4,2.4,0.2s1.6-0.4,2.5-0.3c0.8,0.1,1.7,0.7,1.8,1.5c0,0.4-0.2,0.9,0,1.3
			c0.2,0.5,0.8,0.7,1.3,0.9c1,0.5,1.7,1.6,1.7,2.7c0,1.1-0.6,2.1-1.6,2.7c-0.3,0.2-0.7,0.4-0.9,0.7c-0.3,0.4-0.2,1-0.2,1.5
			c0.1,1.4-0.1,2.7-0.6,4c-0.1,0.4-0.3,0.8-0.6,1c-0.6,0.5-1.4,0.6-2.2,0.7c-1.2,0.1-2.5,0.2-3.7-0.2c-1.9-0.7-3.2-2.7-5.2-3
			c-0.6-0.1-1.1,0-1.7-0.1c-1.2-0.2-2-1.4-2.5-2.5c-0.5-1.4-0.8-3.1-2.2-3.9c-0.6-0.3-1.3-0.5-1.7-1c-0.3-0.4-0.3-0.9-0.2-1.4
			c0.2-1.8,1.2-3.8,3.1-4C68.4,72.1,68.7,73.4,70.6,73.1z"/>
	</g>
	<g id="XMLID_432_">
		<path class="st0" d="M82.4,69.7c0.6,0.1,1-0.6,1.1-1.1c0.1-0.6,0.2-1.2,0.6-1.6c0.2-0.2,0.5-0.4,0.8-0.4c1.1-0.4,2.3-0.5,3.4-0.3
			c0.7,0.1,1.7,0.1,1.7-0.6c0-0.2,0-0.3,0-0.5c0.1-0.3,0.5-0.3,0.8-0.2c1.4,0.5,2.4,2.1,2,3.6c-0.1,0.4-0.3,0.9-0.3,1.3
			c0,0.3,0.2,0.6,0.3,0.9c0.8,1.8,0.9,3.9,0.2,5.7c-0.2,0.7-0.6,1.4-1.2,1.9c-0.6,0.5-1.3,0.7-1.8,1.2c-0.6,0.6-0.8,1.4-1.3,2
			c-0.6,0.7-0.3,0.9-2.5,1.8c-0.8,0.3-0.8,0.2-3,0.8c-6.2,1.6-2.2-1.7-2.4-2.1c-0.4-1.1,2.1-2.7,1.6-3.8c-0.2-0.5,0-1.1,0.3-1.6
			c0.3-0.5,0.8-0.8,1.1-1.2c0.5-0.5,0.8-1.1,1-1.8c0.1-0.4,0.2-0.8,0-1.2c-0.2-0.4-0.7-0.5-1-0.8c-0.7-0.4-1.2-1-1.5-1.7
			c0.1-0.1,0.2-0.2,0.3-0.4"/>
	</g>
	<g id="XMLID_430_">
		<path class="st1" d="M90.8,65.5c0.3-0.4,0.3-0.5,0.1-1c-0.2-0.5-1.5-1.3-1.4-1.8c0.2-1.6-0.5-3.3-1.8-4.1
			c-0.8-0.5-1.8-0.7-2.4-1.4c-0.5-0.5-0.7-1.1-1.1-1.5c-0.4-0.5-1-0.8-1.5-1.1c-1.2-0.7-2.7-1.5-4-0.9c-0.7,0.3-1.2,1-1.7,1.6
			c-0.4,0.5-0.7,1-0.7,1.6c0.1,0.9,1.1,1.4,1.4,2.2c0.3,0.9-0.4,2-1.2,2.4s-1.9,0.5-2.9,0.7s-2,0.5-2.6,1.3
			c-0.5,0.7-0.6,1.7-0.3,2.5c0.3,0.8,1,1.4,1.8,1.8c0.6,0.3,1.4,0.4,2,0c0.1-0.1,0.3-0.2,0.4-0.3c0.7-0.3,1.4,0.4,2,0.9
			c1,0.8,2.6,0.9,3.7,0.2c0.2-0.1,0.3-0.2,0.5-0.2c0.8-0.1,0.8,1.3,1.4,1.6c0.6,0.4,1.4-0.3,1.6-1c0.3-0.7,0.4-1.5,1.1-1.9
			c0.3-0.2,0.7-0.2,1-0.2c0.8,0,1.5,0,2.3,0C89.7,66.8,90.8,65.5,90.8,65.5"/>
	</g>
</g>
</svg>
