<svg id="Layer_1" data-name="Layer 1" xmlns="http://www.w3.org/2000/svg" viewBox="0 0 198.7 94.41"><defs><style>.cls-1{fill:#ffeed5;}.cls-2{fill:#f4d49d;}.cls-3{fill:#44a84f;}.cls-4{fill:#9bc53d;}.cls-5{fill:#a51d2f;stroke:#ef3938;stroke-width:3px;}.cls-5,.cls-6{stroke-miterlimit:10;}.cls-6{fill:none;stroke:#ef3a39;stroke-width:4px;}.cls-7{font-size:15.18px;fill:#fff;font-family:AlenbiSans;}</style></defs><title>Untitled-7</title><g id="_Group_" data-name="&lt;Group&gt;"><g id="_Group_2" data-name="&lt;Group&gt;"><path class="cls-1" d="M278.76-135.93a11,11,0,0,0-11,3.27,20,20,0,0,0-2.1,3.06c-0.8,1.35-1.58,3.09-.71,4.4,0.68,1,2.18,1.37,2.67,2.5,0.57,1.31-.54,2.79-0.32,4.2a2.32,2.32,0,0,0,1.89,1.89c1.23,0.19,2.53-.64,3.67-0.15,1.76,0.76,1.38,3.8,3.11,4.64a2,2,0,0,0,2.22-.4,2.7,2.7,0,0,0,.77-2.18,3.34,3.34,0,0,1,0-.88,2,2,0,0,1,1.87-1.28,3.65,3.65,0,0,0,2.26-.73,1.55,1.55,0,0,0-.46-2.37c-0.89-.4-2,0.13-2.89-0.13a2.41,2.41,0,0,1-1.44-2.72,7,7,0,0,1,1.53-3l1.07-1.46c0.67-.91,1.35-2.18.66-3.08-0.54-.7-1.58-0.69-2.35-1.1a2.4,2.4,0,0,1-.77-3.39,2.63,2.63,0,0,0,.48-0.72c0.09-.28-0.89-0.6-1.17-0.64" transform="translate(-111.54 185.27)"/></g><g id="_Group_3" data-name="&lt;Group&gt;"><path class="cls-2" d="M264.34-128.29c-2,1.21-2.47,3.33-2.24,5.35a4.68,4.68,0,0,1,.08,1.26c-0.19,1.22-1.61,1.75-2.51,2.6a3.78,3.78,0,0,0-.13,5.15c0.91,1,2.36,1.44,2.9,2.65a6,6,0,0,1,.09,2.93,2.65,2.65,0,0,0,1,2.63c1.57,0.87,3.58-1.34,5.16-.51,0.94,0.5,1.16,1.83,2.07,2.39a3.3,3.3,0,0,0,2.12.23,1.07,1.07,0,0,0,.5-0.14,3.38,3.38,0,0,0,.53-1.11c0.44-.67,1.52-0.33,2.22-0.71,1.22-.64.61-2.77,1.68-3.63a2.23,2.23,0,0,1,.83-0.37,15.76,15.76,0,0,0,2-.53,2.18,2.18,0,0,0,1.38-1.45,2.89,2.89,0,0,0-.53-1.93,1.22,1.22,0,0,0-.6-0.62c-0.59-.19-1,0.51-1.49.94a2.16,2.16,0,0,1-2.78.1c-1.2-1-1.09-3.12-2.44-3.89s-3.33.52-4.83-.15a3,3,0,0,1-1.47-2.71c0-1.08.24-2.16,0.22-3.24a6.14,6.14,0,0,0-2.11-4.5C265.44-128,265.2-128.81,264.34-128.29Z" transform="translate(-111.54 185.27)"/></g><g id="_Group_4" data-name="&lt;Group&gt;"><path class="cls-1" d="M293.3-124.25l-3-.53a2.07,2.07,0,0,0-1,0,2.84,2.84,0,0,0-.86.6,7.91,7.91,0,0,1-2.86,1.25,7,7,0,0,0-2.83,1.32,2.49,2.49,0,0,0-.75,2.83,1.15,1.15,0,0,1,.25.94,0.84,0.84,0,0,1-.51.37c-0.89.33-1.83,0.55-2.68,1a3.71,3.71,0,0,0-2,1.94,2,2,0,0,0,.83,2.47,2.8,2.8,0,0,0,1.17.22,12.39,12.39,0,0,0,2.85-.26,2.33,2.33,0,0,0,1.69-1,4.71,4.71,0,0,0,.16-1.93,2.83,2.83,0,0,1,2-2.48c1.1-.32,2.39,0,3.36-0.58a6.29,6.29,0,0,0,1.26-1.38,1.8,1.8,0,0,1,1.61-.77,3.47,3.47,0,0,1,1.28.87,3,3,0,0,0,4.34-1,3,3,0,0,0-2-4c-1.28-.28-2.67.32-3.89-0.13" transform="translate(-111.54 185.27)"/></g><g id="_Group_5" data-name="&lt;Group&gt;"><path class="cls-3" d="M261.59-116a5.39,5.39,0,0,1,.1-3.42c0.28-.49.69-0.89,0.95-1.39a5.05,5.05,0,0,0,.18-3c-0.06-.38,0-1.81-0.4-2s-0.56.14-.77,1c-0.41,1.65-2.86,2.09-2.87,3.79a10.31,10.31,0,0,1,0,2.76c-0.31,1.06-1.33,1.74-1.88,2.69-1.09,1.87-.08,4.4,1.65,5.71,1.44,1.08,3.37,1.65,4.28,3.21a6.22,6.22,0,0,1,.65,2.37,21.78,21.78,0,0,0,.73,4.22,5.41,5.41,0,0,0,2.6,3.27c2.85,1.36,6.39-1,9.32.15,0.62,0.25,1.16.64,1.76,0.93,2.27,1.13,5,.79,7.46.24A6.48,6.48,0,0,0,288.8-97a2.42,2.42,0,0,0,.1-3.4,3.54,3.54,0,0,0-1.5-.59l-6.06-1.37c-1.25-.28-2.7-0.74-3.1-2-0.2-.62-0.13-1.42-0.68-1.79a1.35,1.35,0,0,0-1.37.1,6.39,6.39,0,0,1-1.26.7c-1.56.46-2.82-1.44-4.41-1.74-1.32-.25-2.74.64-4,0.14a3.89,3.89,0,0,1-1.59-1.54c-1.6-2.3-3.25-4.77-3.36-7.57" transform="translate(-111.54 185.27)"/></g><g id="_Group_6" data-name="&lt;Group&gt;"><path class="cls-4" d="M286.68-96.79c-0.49-1.31.29-1.46,1.35-2.38a24.38,24.38,0,0,1,3.6-2.14,9,9,0,0,0,3.43-3.46,11.9,11.9,0,0,1,.77-1.44c0.72-1,1.95-1.53,2.77-2.46,1.49-1.7,1.34-4.41,2.83-6.11,0.68-.78,1.64-1.26,2.35-2A5.86,5.86,0,0,0,305-121.9a17.33,17.33,0,0,0-2.12-5l-1.1-2a10.94,10.94,0,0,0-1.25-1.93c-1.27-1.46-2.31-2.51-4.24-2.68s-2.35-1.36-4-1.81c-0.67-.19-6-1.88-6.7-2s-1.09-1.15.38-1.84a14.15,14.15,0,0,1,4.38-.57c2.37,0.2,3.87,2.45,6.22,2.83s5.23,1.12,6.88,2.82c2.56,2.63,3.55,4.2,4.44,8.87,0.21,1.08,0,5,.55,6,0.93,1.79,1.78,3.12,1.81,5.14a8.33,8.33,0,0,1-.86,4.62,11.53,11.53,0,0,1-3.36,2.85c-2.83,2-5,4.85-7.49,7.22s-5.8,4.38-9.26,4.06c-1.16-.11-2.48-0.67-2.69-1.82a2.21,2.21,0,0,1,.88-2,6.52,6.52,0,0,1,2.07-1" transform="translate(-111.54 185.27)"/></g><g id="_Group_7" data-name="&lt;Group&gt;"><path class="cls-1" d="M293.38-109.88l1.41,3.88a5.35,5.35,0,0,1,.4,1.62,3.53,3.53,0,0,1-2.42,3.19,8.49,8.49,0,0,0-1.82.71,9.45,9.45,0,0,0-1,1c-1.79,1.65-4.8,1.44-6.71-.06a7,7,0,0,0-1.74-1.24,7.22,7.22,0,0,0-1.78-.26,4.85,4.85,0,0,1-4.13-3,1.77,1.77,0,0,1-.08-1.06,6,6,0,0,1,.4-0.78c0.34-.73.18-1.61,0.49-2.35a4,4,0,0,1,2.26-1.8c1.41-.64,3-1.29,4.47-0.82s2.47,1.9,4,2.19,2.68-.5,4-1c0.86-.33,2.06-0.45,2.51.36" transform="translate(-111.54 185.27)"/></g><g id="_Group_8" data-name="&lt;Group&gt;"><path class="cls-2" d="M283.16-113.3c0.56-.52-0.14-1.08-0.09-1.82a2.28,2.28,0,0,1,.1-0.48,7.72,7.72,0,0,1,1.15-2.57,3.23,3.23,0,0,1,2.45-1.35c0.63,0,1.24.24,1.87,0.21a3.73,3.73,0,0,0,2.38-1.35,9,9,0,0,1,2-1.88,2.07,2.07,0,0,1,2.55.24,4.53,4.53,0,0,0,.8,1.24,2.64,2.64,0,0,0,1.82,0,3.44,3.44,0,0,1,3.28,1.4,3.66,3.66,0,0,1,.29,3.5,3.27,3.27,0,0,0-.41,1.19,2.52,2.52,0,0,0,.74,1.47,10.6,10.6,0,0,1,2,4.09,3.17,3.17,0,0,1,.08,1.36,4.11,4.11,0,0,1-1.58,2.08,9.36,9.36,0,0,1-3.55,2.19c-2.21.57-4.72-.47-6.72,0.6-0.56.3-1,.75-1.62,1a4.2,4.2,0,0,1-3.88-.73c-1.41-1-2.75-2.38-4.5-2.23a5.47,5.47,0,0,1-2.23.17,2.26,2.26,0,0,1-1.12-1.17c-1-1.78-1.3-4.25.31-5.6C280.48-112.81,281.57-111.83,283.16-113.3Z" transform="translate(-111.54 185.27)"/></g><g id="_Group_9" data-name="&lt;Group&gt;"><path class="cls-1" d="M291.91-123.95a1.4,1.4,0,0,0,.3-1.73,3.62,3.62,0,0,1-.5-1.83,2.22,2.22,0,0,1,.48-0.94,8.91,8.91,0,0,1,2.94-2.48c0.68-.36,1.56-1,1.19-1.68a1.68,1.68,0,0,1-.26-0.45,0.7,0.7,0,0,1,.61-0.65,3.52,3.52,0,0,1,4.15,2,4.81,4.81,0,0,0,.58,1.38,3.35,3.35,0,0,0,.88.66,8.93,8.93,0,0,1,3.85,5.15,4.64,4.64,0,0,1,.09,2.52,22.18,22.18,0,0,0-.92,2.3c-0.15.88,0.19,1.79,0.08,2.67s0.31,1-1.15,3.26a21.4,21.4,0,0,1-2.23,2.62c-4.75,5.43-3.14-.12-3.58-0.41-1.1-.73.18-3.85-0.93-4.56a1.92,1.92,0,0,1-.74-1.64,17,17,0,0,1,.24-1.87,5.66,5.66,0,0,0-.22-2.31A1.7,1.7,0,0,0,296-123a2.68,2.68,0,0,0-1.44,0,3.84,3.84,0,0,1-2.44-.6l0-.54" transform="translate(-111.54 185.27)"/></g><g id="_Group_10" data-name="&lt;Group&gt;"><path class="cls-2" d="M296.91-133.14a0.79,0.79,0,0,0-.56-1c-0.51-.29-2.21-0.22-2.46-0.75a4.73,4.73,0,0,0-4.31-2.63,15,15,0,0,1-3.16.25c-0.7-.13-1.34-0.52-2-0.69a6.75,6.75,0,0,0-2.11-.07c-1.6.12-3.44,0.37-4.3,1.74a5.18,5.18,0,0,0-.57,2.58,2.72,2.72,0,0,0,.42,1.92c0.65,0.75,1.87.59,2.67,1.17a2.45,2.45,0,0,1,.43,3,10.17,10.17,0,0,1-2.2,2.46,4.35,4.35,0,0,0-1.57,2.84,2.92,2.92,0,0,0,1.34,2.45,3.76,3.76,0,0,0,2.78.48,2.38,2.38,0,0,0,1.84-1.33,4.15,4.15,0,0,1,.2-0.55c0.42-.77,1.53-0.53,2.4-0.49a3.78,3.78,0,0,0,3.53-2.18,1.43,1.43,0,0,1,.33-0.55c0.66-.55,1.52.66,2.37,0.59s1-1.19.84-2-0.6-1.68-.22-2.41a2.25,2.25,0,0,1,.81-0.78c0.7-.46,1.38-1,2.09-1.42a3.87,3.87,0,0,0,1.45-2.72" transform="translate(-111.54 185.27)"/></g></g><g id="_Group_11" data-name="&lt;Group&gt;"><g id="_Group_12" data-name="&lt;Group&gt;"><path class="cls-1" d="M132.15-131.68a10.2,10.2,0,0,0-10.16,3,18.54,18.54,0,0,0-1.94,2.83c-0.74,1.25-1.46,2.86-.65,4.07,0.63,1,2,1.27,2.47,2.31,0.53,1.21-.5,2.58-0.3,3.88a2.15,2.15,0,0,0,1.75,1.74c1.13,0.17,2.34-.59,3.4-0.13,1.63,0.7,1.28,3.52,2.87,4.29a1.89,1.89,0,0,0,2-.37,2.49,2.49,0,0,0,.71-2,3.09,3.09,0,0,1,0-.82A1.85,1.85,0,0,1,134-114a3.38,3.38,0,0,0,2.09-.67,1.44,1.44,0,0,0-.43-2.19c-0.82-.37-1.81.12-2.68-0.12a2.23,2.23,0,0,1-1.34-2.52,6.5,6.5,0,0,1,1.41-2.74l1-1.35c0.62-.84,1.25-2,0.61-2.85-0.5-.64-1.46-0.64-2.17-1a2.22,2.22,0,0,1-.71-3.14,2.43,2.43,0,0,0,.44-0.66c0.08-.25-0.82-0.56-1.09-0.59" transform="translate(-111.54 185.27)"/></g><g id="_Group_13" data-name="&lt;Group&gt;"><path class="cls-2" d="M118.81-124.62a4.78,4.78,0,0,0-2.07,4.95,4.33,4.33,0,0,1,.08,1.17c-0.18,1.13-1.49,1.62-2.32,2.4a3.49,3.49,0,0,0-.12,4.76c0.84,0.89,2.18,1.33,2.68,2.45a5.51,5.51,0,0,1,.08,2.71,2.46,2.46,0,0,0,.89,2.43c1.45,0.8,3.31-1.24,4.77-.47,0.87,0.46,1.07,1.69,1.91,2.21a3,3,0,0,0,2,.21,1,1,0,0,0,.46-0.13,3.13,3.13,0,0,0,.49-1c0.41-.62,1.4-0.31,2.06-0.65,1.13-.59.56-2.56,1.56-3.35a2.06,2.06,0,0,1,.77-0.34,14.57,14.57,0,0,0,1.86-.49,2,2,0,0,0,1.28-1.34,2.67,2.67,0,0,0-.49-1.79,1.13,1.13,0,0,0-.55-0.57c-0.55-.18-1,0.47-1.38.87a2,2,0,0,1-2.57.09c-1.11-.92-1-2.88-2.26-3.6s-3.08.48-4.47-.14a2.76,2.76,0,0,1-1.36-2.51c0-1,.22-2,0.21-3a5.68,5.68,0,0,0-2-4.17C119.83-124.34,119.61-125.1,118.81-124.62Z" transform="translate(-111.54 185.27)"/></g><g id="_Group_14" data-name="&lt;Group&gt;"><path class="cls-1" d="M145.6-120.88l-2.75-.49a1.92,1.92,0,0,0-.91,0,2.63,2.63,0,0,0-.8.55,7.31,7.31,0,0,1-2.65,1.16,6.49,6.49,0,0,0-2.61,1.22,2.3,2.3,0,0,0-.69,2.62,1.07,1.07,0,0,1,.23.87,0.77,0.77,0,0,1-.47.34c-0.82.31-1.69,0.51-2.48,0.88a3.43,3.43,0,0,0-1.84,1.79,1.86,1.86,0,0,0,.76,2.28,2.59,2.59,0,0,0,1.08.2,11.46,11.46,0,0,0,2.63-.24,2.16,2.16,0,0,0,1.57-.91,4.36,4.36,0,0,0,.14-1.78,2.62,2.62,0,0,1,1.83-2.3c1-.3,2.21,0,3.1-0.53a5.81,5.81,0,0,0,1.17-1.27,1.67,1.67,0,0,1,1.49-.71,3.21,3.21,0,0,1,1.18.81,2.77,2.77,0,0,0,4-1,2.77,2.77,0,0,0-1.83-3.7c-1.18-.26-2.47.3-3.6-0.12" transform="translate(-111.54 185.27)"/></g><g id="_Group_15" data-name="&lt;Group&gt;"><path class="cls-3" d="M116.27-113.3a5,5,0,0,1,.09-3.16c0.26-.45.64-0.82,0.87-1.28a4.67,4.67,0,0,0,.17-2.77c-0.05-.36,0-1.68-0.37-1.82s-0.52.13-.72,0.92c-0.38,1.52-2.64,1.93-2.66,3.5a9.54,9.54,0,0,1,0,2.55c-0.28,1-1.23,1.61-1.74,2.49-1,1.73-.08,4.07,1.52,5.28,1.33,1,3.12,1.53,4,3a5.75,5.75,0,0,1,.6,2.2,20.14,20.14,0,0,0,.68,3.9,5,5,0,0,0,2.4,3c2.63,1.26,5.91-.94,8.62.14,0.57,0.23,1.08.59,1.63,0.86,2.1,1,4.61.73,6.9,0.22a6,6,0,0,0,3.17-1.44,2.24,2.24,0,0,0,.09-3.14,3.27,3.27,0,0,0-1.39-.55l-5.61-1.27c-1.15-.26-2.49-0.68-2.86-1.81-0.19-.57-0.12-1.32-0.63-1.65a1.25,1.25,0,0,0-1.26.1,5.91,5.91,0,0,1-1.16.65c-1.44.42-2.61-1.33-4.08-1.61-1.22-.23-2.54.59-3.69,0.13a3.6,3.6,0,0,1-1.47-1.43c-1.48-2.13-3-4.41-3.1-7" transform="translate(-111.54 185.27)"/></g><g id="_Group_16" data-name="&lt;Group&gt;"><path class="cls-4" d="M139.47-95.48c-0.46-1.21.27-1.35,1.25-2.2a22.55,22.55,0,0,1,3.33-2,8.36,8.36,0,0,0,3.17-3.2,11,11,0,0,1,.71-1.34c0.67-.93,1.8-1.41,2.56-2.27,1.38-1.57,1.24-4.08,2.62-5.65,0.63-.72,1.52-1.17,2.17-1.86a5.42,5.42,0,0,0,1.09-4.72,16,16,0,0,0-2-4.61l-1-1.84a10.11,10.11,0,0,0-1.16-1.78c-1.18-1.35-2.14-2.33-3.92-2.48s-2.18-1.26-3.67-1.68c-0.62-.18-5.55-1.74-6.19-1.84s-1-1.06.35-1.7a13.09,13.09,0,0,1,4-.53c2.19,0.19,3.58,2.26,5.75,2.62s4.83,1,6.37,2.61c2.37,2.43,3.28,3.88,4.1,8.2,0.19,1,0,4.61.51,5.52,0.86,1.66,1.64,2.89,1.67,4.76a7.7,7.7,0,0,1-.8,4.28,10.66,10.66,0,0,1-3.11,2.64c-2.62,1.86-4.58,4.49-6.93,6.68s-5.36,4-8.56,3.75c-1.07-.1-2.29-0.62-2.49-1.68a2,2,0,0,1,.81-1.86,6,6,0,0,1,1.91-.92" transform="translate(-111.54 185.27)"/></g><g id="_Group_17" data-name="&lt;Group&gt;"><path class="cls-1" d="M145.67-107.59L147-104a5,5,0,0,1,.37,1.5,3.26,3.26,0,0,1-2.24,2.95,7.85,7.85,0,0,0-1.68.65,8.74,8.74,0,0,0-1,.9,5,5,0,0,1-6.21-.06,6.52,6.52,0,0,0-1.61-1.15,6.68,6.68,0,0,0-1.65-.24,4.49,4.49,0,0,1-3.82-2.8,1.64,1.64,0,0,1-.07-1,5.51,5.51,0,0,1,.37-0.73c0.32-.67.17-1.49,0.46-2.17a3.7,3.7,0,0,1,2.09-1.66c1.31-.59,2.77-1.19,4.14-0.76s2.29,1.76,3.67,2,2.48-.46,3.68-0.92c0.8-.31,1.91-0.41,2.32.33" transform="translate(-111.54 185.27)"/></g><g id="_Group_18" data-name="&lt;Group&gt;"><path class="cls-2" d="M136.22-110.75c0.52-.48-0.13-1-0.08-1.68a2.11,2.11,0,0,1,.1-0.44,7.14,7.14,0,0,1,1.06-2.38,3,3,0,0,1,2.27-1.25c0.58,0,1.15.23,1.73,0.2a3.45,3.45,0,0,0,2.2-1.25,8.29,8.29,0,0,1,1.89-1.74,1.92,1.92,0,0,1,2.36.22,4.19,4.19,0,0,0,.74,1.14,2.44,2.44,0,0,0,1.68,0,3.19,3.19,0,0,1,3,1.29,3.38,3.38,0,0,1,.26,3.24,3,3,0,0,0-.38,1.1,2.33,2.33,0,0,0,.68,1.36,9.81,9.81,0,0,1,1.81,3.79,2.93,2.93,0,0,1,.08,1.26,3.8,3.8,0,0,1-1.46,1.92,8.66,8.66,0,0,1-3.28,2c-2,.53-4.36-0.43-6.22.55-0.52.28-1,.69-1.5,0.92a3.89,3.89,0,0,1-3.59-.68c-1.3-.89-2.55-2.2-4.17-2.06a5.06,5.06,0,0,1-2.06.16,2.09,2.09,0,0,1-1-1.08c-0.88-1.64-1.2-3.93.28-5.18C133.74-110.3,134.75-109.4,136.22-110.75Z" transform="translate(-111.54 185.27)"/></g><g id="_Group_19" data-name="&lt;Group&gt;"><path class="cls-1" d="M144.31-120.6a1.29,1.29,0,0,0,.28-1.6,3.34,3.34,0,0,1-.46-1.69,2.06,2.06,0,0,1,.44-0.87,8.24,8.24,0,0,1,2.72-2.29c0.63-.33,1.44-0.93,1.1-1.55a1.55,1.55,0,0,1-.24-0.41,0.64,0.64,0,0,1,.56-0.6,3.26,3.26,0,0,1,3.84,1.88,4.45,4.45,0,0,0,.54,1.27,3.1,3.1,0,0,0,.82.61,8.26,8.26,0,0,1,3.56,4.76,4.29,4.29,0,0,1,.09,2.33,20.51,20.51,0,0,0-.85,2.13c-0.14.82,0.17,1.65,0.07,2.47s0.29,1-1.06,3a19.79,19.79,0,0,1-2.06,2.43c-4.39,5-2.9-.11-3.31-0.38-1-.68.17-3.56-0.86-4.22a1.77,1.77,0,0,1-.69-1.52,15.7,15.7,0,0,1,.23-1.73,5.23,5.23,0,0,0-.21-2.14,1.57,1.57,0,0,0-.7-1,2.48,2.48,0,0,0-1.34,0,3.55,3.55,0,0,1-2.26-.56l0-.5" transform="translate(-111.54 185.27)"/></g><g id="_Group_20" data-name="&lt;Group&gt;"><path class="cls-2" d="M148.94-129.1a0.73,0.73,0,0,0-.52-0.88c-0.47-.27-2-0.2-2.28-0.69a4.37,4.37,0,0,0-4-2.43,13.84,13.84,0,0,1-2.92.24c-0.65-.12-1.24-0.48-1.88-0.64a6.24,6.24,0,0,0-2-.06c-1.48.11-3.18,0.34-4,1.61a4.79,4.79,0,0,0-.52,2.39,2.52,2.52,0,0,0,.38,1.77c0.6,0.69,1.73.54,2.47,1.08a2.27,2.27,0,0,1,.39,2.81,9.4,9.4,0,0,1-2,2.27,4,4,0,0,0-1.45,2.62,2.7,2.7,0,0,0,1.24,2.26,3.48,3.48,0,0,0,2.57.44,2.2,2.2,0,0,0,1.7-1.23,3.84,3.84,0,0,1,.18-0.51c0.39-.71,1.42-0.49,2.22-0.46a3.5,3.5,0,0,0,3.27-2,1.33,1.33,0,0,1,.31-0.5c0.61-.51,1.4.61,2.19,0.54s1-1.1.77-1.85a3.23,3.23,0,0,1-.2-2.23,2.08,2.08,0,0,1,.75-0.72c0.65-.43,1.28-0.88,1.93-1.32a3.58,3.58,0,0,0,1.34-2.51" transform="translate(-111.54 185.27)"/></g></g><g id="_Group_21" data-name="&lt;Group&gt;"><g id="_Group_22" data-name="&lt;Group&gt;"><path class="cls-1" d="M252.45-162.31a9.34,9.34,0,0,0-9.71.14,17,17,0,0,0-2.41,2c-1,.92-2,2.15-1.59,3.42,0.32,1,1.46,1.62,1.6,2.65,0.17,1.2-1.08,2.15-1.23,3.35a2,2,0,0,0,1.11,2c1,0.43,2.21.06,3,.73,1.26,1,.25,3.42,1.47,4.49a1.73,1.73,0,0,0,1.9.18,2.28,2.28,0,0,0,1.13-1.6,2.83,2.83,0,0,1,.17-0.73,1.69,1.69,0,0,1,1.82-.61,3.09,3.09,0,0,0,2-.07,1.31,1.31,0,0,0,.17-2c-0.63-.53-1.62-0.34-2.33-0.77a2,2,0,0,1-.55-2.55A6,6,0,0,1,251-153.8l1.21-.94c0.76-.59,1.6-1.47,1.25-2.36-0.28-.69-1.13-0.92-1.66-1.44a2,2,0,0,1,.15-2.94,2.22,2.22,0,0,0,.56-0.47c0.13-.2-0.59-0.69-0.81-0.79" transform="translate(-111.54 185.27)"/></g><g id="_Group_23" data-name="&lt;Group&gt;"><path class="cls-2" d="M238.94-159.4a4.38,4.38,0,0,0-3.05,3.84,4,4,0,0,1-.22,1c-0.44.95-1.71,1.06-2.64,1.54a3.2,3.2,0,0,0-1.29,4.16c0.52,1,1.59,1.72,1.75,2.82a5,5,0,0,1-.6,2.4,2.25,2.25,0,0,0,.18,2.36c1.08,1.07,3.22-.27,4.32.77,0.65,0.62.52,1.76,1.13,2.42a2.79,2.79,0,0,0,1.67.67,0.9,0.9,0,0,0,.44,0,2.86,2.86,0,0,0,.68-0.78c0.51-.44,1.31.08,2-0.06,1.14-.24,1.13-2.12,2.21-2.57a1.89,1.89,0,0,1,.76-0.11,13.34,13.34,0,0,0,1.76,0,1.84,1.84,0,0,0,1.46-.87,2.45,2.45,0,0,0,0-1.7,1,1,0,0,0-.35-0.64c-0.44-.29-1,0.17-1.43.42a1.83,1.83,0,0,1-2.29-.56c-0.75-1.09-.17-2.79-1.1-3.73s-2.84-.34-3.9-1.23a2.52,2.52,0,0,1-.57-2.55c0.22-.89.69-1.7,0.93-2.59a5.2,5.2,0,0,0-.69-4.16C239.77-158.9,239.76-159.62,238.94-159.4Z" transform="translate(-111.54 185.27)"/></g><g id="_Group_24" data-name="&lt;Group&gt;"><path class="cls-1" d="M261.61-149.45l-2.3-1.11a1.76,1.76,0,0,0-.8-0.24,2.4,2.4,0,0,0-.84.29,6.69,6.69,0,0,1-2.62.36,5.94,5.94,0,0,0-2.61.43,2.11,2.11,0,0,0-1.26,2.14,1,1,0,0,1,0,.82,0.71,0.71,0,0,1-.5.18c-0.8.06-1.61,0-2.41,0.16a3.14,3.14,0,0,0-2.07,1.12,1.7,1.7,0,0,0,.11,2.2,2.37,2.37,0,0,0,.9.45,10.49,10.49,0,0,0,2.38.44,2,2,0,0,0,1.61-.41,4,4,0,0,0,.57-1.54,2.4,2.4,0,0,1,2.18-1.57c1,0,1.94.58,2.87,0.3a5.32,5.32,0,0,0,1.34-.83,1.53,1.53,0,0,1,1.49-.26,2.94,2.94,0,0,1,.84,1,2.53,2.53,0,0,0,3.78.14,2.53,2.53,0,0,0-.69-3.72c-1-.52-2.25-0.35-3.14-1" transform="translate(-111.54 185.27)"/></g><g id="_Group_25" data-name="&lt;Group&gt;"><path class="cls-3" d="M233.89-150.05a4.57,4.57,0,0,1,.87-2.76c0.34-.33.77-0.56,1.09-0.91a4.28,4.28,0,0,0,.83-2.4c0-.33.38-1.49,0.12-1.69s-0.49,0-.86.64c-0.71,1.25-2.81,1-3.21,2.43a8.73,8.73,0,0,1-.6,2.26c-0.49.79-1.48,1.11-2.15,1.76-1.32,1.27-1.08,3.57,0,5,0.92,1.21,2.37,2.12,2.75,3.6a5.27,5.27,0,0,1,0,2.08,18.44,18.44,0,0,0-.37,3.6,4.58,4.58,0,0,0,1.37,3.26c2,1.77,5.44.64,7.56,2.26,0.45,0.34.8,0.79,1.22,1.16,1.59,1.45,3.88,1.78,6,1.91a5.49,5.49,0,0,0,3.15-.48,2,2,0,0,0,.86-2.75,3,3,0,0,0-1.08-.83l-4.63-2.51c-1-.52-2-1.22-2.07-2.3a2.56,2.56,0,0,0-.14-1.61,1.14,1.14,0,0,0-1.14-.23,5.41,5.41,0,0,1-1.18.28c-1.38,0-2-1.82-3.2-2.43-1-.51-2.38-0.11-3.29-0.81a3.29,3.29,0,0,1-.94-1.62c-0.77-2.24-1.55-4.64-1-6.94" transform="translate(-111.54 185.27)"/></g><g id="_Group_26" data-name="&lt;Group&gt;"><path class="cls-4" d="M249.91-128.6c-0.1-1.18.57-1.13,1.65-1.63a20.65,20.65,0,0,1,3.42-.92,7.66,7.66,0,0,0,3.59-2,10.08,10.08,0,0,1,1-1c0.82-.65,1.94-0.8,2.82-1.37,1.61-1,2.1-3.28,3.71-4.33,0.73-.48,1.63-0.65,2.38-1.1a5,5,0,0,0,2.14-3.89,14.67,14.67,0,0,0-.58-4.55l-0.44-1.87a9.26,9.26,0,0,0-.58-1.86c-0.7-1.48-1.31-2.58-2.84-3.16s-1.61-1.65-2.82-2.39c-0.51-.31-4.46-2.91-5-3.16s-0.62-1.19.73-1.41a12,12,0,0,1,3.7.54c1.88,0.71,2.59,2.88,4.41,3.74s4,2.11,5,3.88c1.48,2.73,1.93,4.23,1.58,8.25-0.08.93-1.11,4.08-.92,5,0.34,1.68.73,3,.29,4.61a7.05,7.05,0,0,1-1.76,3.57,9.76,9.76,0,0,1-3.4,1.55c-2.77,1-5.15,2.81-7.76,4.17s-5.73,2.23-8.48,1.18c-0.92-.35-1.86-1.12-1.77-2.1a1.87,1.87,0,0,1,1.18-1.44,5.52,5.52,0,0,1,1.91-.34" transform="translate(-111.54 185.27)"/></g><g id="_Group_27" data-name="&lt;Group&gt;"><path class="cls-1" d="M258.38-137.73l0.26,3.49a4.53,4.53,0,0,1,0,1.41,3,3,0,0,1-2.7,2,7.19,7.19,0,0,0-1.65.16,8,8,0,0,0-1.08.55,4.53,4.53,0,0,1-5.45-1.59,6,6,0,0,0-1.14-1.41,6.12,6.12,0,0,0-1.39-.62,4.11,4.11,0,0,1-2.67-3.41,1.5,1.5,0,0,1,.18-0.88,5,5,0,0,1,.5-0.55c0.45-.52.52-1.27,0.94-1.8a3.39,3.39,0,0,1,2.25-.95,5.5,5.5,0,0,1,3.83.36c1.08,0.7,1.58,2.12,2.73,2.7s2.3,0.21,3.47.1c0.78-.07,1.78.11,2,0.87" transform="translate(-111.54 185.27)"/></g><g id="_Group_28" data-name="&lt;Group&gt;"><path class="cls-2" d="M250.83-142.86c0.58-.3.13-0.91,0.35-1.5a1.93,1.93,0,0,1,.19-0.37,6.54,6.54,0,0,1,1.53-1.83,2.73,2.73,0,0,1,2.31-.54c0.51,0.14,1,.48,1.47.6a3.16,3.16,0,0,0,2.25-.56,7.59,7.59,0,0,1,2.09-1.07,1.75,1.75,0,0,1,2,.78,3.84,3.84,0,0,0,.37,1.19,2.23,2.23,0,0,0,1.48.4,2.92,2.92,0,0,1,2.35,1.89,3.09,3.09,0,0,1-.57,2.92,2.77,2.77,0,0,0-.61.88,2.13,2.13,0,0,0,.26,1.37,9,9,0,0,1,.65,3.78,2.69,2.69,0,0,1-.24,1.13,3.48,3.48,0,0,1-1.77,1.33,7.92,7.92,0,0,1-3.39,1c-1.93,0-3.74-1.46-5.62-1.06-0.53.11-1,.37-1.55,0.44a3.56,3.56,0,0,1-3-1.49c-0.93-1.11-1.7-2.57-3.16-2.85a4.63,4.63,0,0,1-1.86-.37,1.92,1.92,0,0,1-.65-1.21c-0.37-1.67-.08-3.76,1.54-4.5C248.54-143.08,249.2-142,250.83-142.86Z" transform="translate(-111.54 185.27)"/></g><g id="_Group_29" data-name="&lt;Group&gt;"><path class="cls-1" d="M260.41-149.52a1.18,1.18,0,0,0,.65-1.34,3.06,3.06,0,0,1,0-1.61,1.88,1.88,0,0,1,.61-0.66,7.54,7.54,0,0,1,3-1.35c0.64-.13,1.5-0.46,1.35-1.09a1.42,1.42,0,0,1-.11-0.42,0.59,0.59,0,0,1,.65-0.39,3,3,0,0,1,2.91,2.61,4.07,4.07,0,0,0,.16,1.26,2.83,2.83,0,0,0,.57.74,7.56,7.56,0,0,1,2,5.08,3.93,3.93,0,0,1-.5,2.07,18.77,18.77,0,0,0-1.28,1.67c-0.33.68-.26,1.5-0.55,2.2s0,0.91-1.68,2.39a18.12,18.12,0,0,1-2.42,1.63c-5.11,3.33-2.53-.82-2.83-1.16-0.73-.85,1-3.09.29-3.93a1.62,1.62,0,0,1-.23-1.51,14.38,14.38,0,0,1,.63-1.46,4.79,4.79,0,0,0,.35-1.94,1.44,1.44,0,0,0-.37-1,2.27,2.27,0,0,0-1.17-.36,3.25,3.25,0,0,1-1.85-1.05l0.16-.43" transform="translate(-111.54 185.27)"/></g><g id="_Group_30" data-name="&lt;Group&gt;"><path class="cls-2" d="M266.6-155.87a0.66,0.66,0,0,0-.24-0.91c-0.35-.35-1.75-0.69-1.84-1.17a4,4,0,0,0-2.91-3.13,12.67,12.67,0,0,1-2.64-.52c-0.54-.27-1-0.73-1.5-1a5.72,5.72,0,0,0-1.71-.54c-1.33-.27-2.89-0.49-3.9.43a4.39,4.39,0,0,0-1.06,2,2.3,2.3,0,0,0-.1,1.66c0.36,0.76,1.39.91,1.91,1.57a2.08,2.08,0,0,1-.35,2.57,8.61,8.61,0,0,1-2.36,1.5,3.68,3.68,0,0,0-1.93,2,2.48,2.48,0,0,0,.53,2.3,3.19,3.19,0,0,0,2.15,1,2,2,0,0,0,1.81-.66,3.51,3.51,0,0,1,.29-0.4c0.52-.53,1.37-0.08,2.07.15a3.2,3.2,0,0,0,3.38-1,1.21,1.21,0,0,1,.39-0.37c0.66-.3,1.08.88,1.8,1s1.12-.73,1.14-1.43a3,3,0,0,1,.38-2,1.9,1.9,0,0,1,.84-0.45c0.68-.22,1.35-0.46,2-0.68a3.28,3.28,0,0,0,1.81-1.88" transform="translate(-111.54 185.27)"/></g></g><g id="_Group_31" data-name="&lt;Group&gt;"><g id="_Group_32" data-name="&lt;Group&gt;"><path class="cls-1" d="M274.85-157.57a8.79,8.79,0,0,0,3.93,8.25,16,16,0,0,0,2.67,1.28c1.16,0.46,2.63.86,3.55,0,0.73-.66.81-1.88,1.64-2.41s2.26,0.08,3.35-.27a1.85,1.85,0,0,0,1.25-1.72c0-1-.81-1.92-0.57-2.88,0.38-1.48,2.83-1.56,3.27-3a1.63,1.63,0,0,0-.59-1.7,2.15,2.15,0,0,0-1.81-.34,2.66,2.66,0,0,1-.69.14,1.59,1.59,0,0,1-1.24-1.32,2.91,2.91,0,0,0-.85-1.69,1.24,1.24,0,0,0-1.81.66c-0.21.75,0.35,1.52,0.25,2.3a1.92,1.92,0,0,1-2,1.47,5.6,5.6,0,0,1-2.53-.84l-1.28-.67c-0.8-.42-1.89-0.8-2.51-0.14s-0.35,1.33-.58,2a1.91,1.91,0,0,1-2.58,1,2.09,2.09,0,0,0-.62-0.29,1.26,1.26,0,0,0-.36,1" transform="translate(-111.54 185.27)"/></g><g id="_Group_33" data-name="&lt;Group&gt;"><path class="cls-2" d="M282.64-147.15a4.12,4.12,0,0,0,4.49,1.11,3.73,3.73,0,0,1,1-.22c1,0,1.58,1.05,2.36,1.65a3,3,0,0,0,4.07-.53c0.64-.84.84-2,1.73-2.61a4.75,4.75,0,0,1,2.3-.43,2.12,2.12,0,0,0,2-1.08c0.49-1.34-1.5-2.65-1-4,0.27-.8,1.3-1.14,1.63-1.92a2.63,2.63,0,0,0-.08-1.7,0.85,0.85,0,0,0-.17-0.37,2.69,2.69,0,0,0-.94-0.28c-0.58-.26-0.45-1.15-0.83-1.67-0.65-.88-2.25-0.14-3.06-0.88a1.78,1.78,0,0,1-.39-0.61,12.56,12.56,0,0,0-.67-1.52,1.74,1.74,0,0,0-1.31-.91,2.31,2.31,0,0,0-1.46.66,1,1,0,0,0-.42.55c-0.08.49,0.53,0.76,0.92,1.06a1.72,1.72,0,0,1,.42,2.18c-0.64,1.07-2.32,1.24-2.76,2.4s0.82,2.56.48,3.83a2.38,2.38,0,0,1-2,1.49c-0.85.16-1.73,0.08-2.58,0.22a4.9,4.9,0,0,0-3.29,2.22C282.74-148,282.13-147.76,282.64-147.15Z" transform="translate(-111.54 185.27)"/></g><g id="_Group_34" data-name="&lt;Group&gt;"><path class="cls-1" d="M282.25-170.46l0,2.41a1.65,1.65,0,0,0,.11.78,2.26,2.26,0,0,0,.58.6,6.3,6.3,0,0,1,1.34,2.1,5.59,5.59,0,0,0,1.39,2.06,2,2,0,0,0,2.32.24,0.92,0.92,0,0,1,.71-0.31,0.67,0.67,0,0,1,.35.36c0.37,0.66.66,1.37,1.08,2a3,3,0,0,0,1.77,1.33,1.6,1.6,0,0,0,1.84-1,2.24,2.24,0,0,0,0-.95,9.88,9.88,0,0,0-.55-2.21,1.86,1.86,0,0,0-1-1.21,3.76,3.76,0,0,0-1.54.12,2.26,2.26,0,0,1-2.2-1.25c-0.39-.83-0.27-1.89-0.87-2.57a5,5,0,0,0-1.24-.82,1.44,1.44,0,0,1-.81-1.17,2.77,2.77,0,0,1,.53-1.12,2.39,2.39,0,0,0-1.36-3.29,2.39,2.39,0,0,0-2.91,2c-0.06,1,.58,2.06.38,3.08" transform="translate(-111.54 185.27)"/></g><g id="_Group_35" data-name="&lt;Group&gt;"><path class="cls-3" d="M292.62-146.49a4.3,4.3,0,0,1-2.71.34c-0.42-.16-0.79-0.44-1.21-0.57a4,4,0,0,0-2.38.23c-0.3.09-1.42,0.26-1.5,0.56s0.18,0.42.88,0.49c1.35,0.12,2,2,3.34,1.8a8.22,8.22,0,0,1,2.17-.38c0.87,0.11,1.54.83,2.35,1.15,1.61,0.63,3.48-.48,4.29-2,0.68-1.27.88-2.86,2-3.76a5,5,0,0,1,1.79-.81,17.37,17.37,0,0,0,3.23-1.1,4.31,4.31,0,0,0,2.25-2.45c0.72-2.41-1.59-4.91-1-7.36,0.12-.52.36-1,0.52-1.5,0.61-1.93,0-4-.73-5.91a5.17,5.17,0,0,0-1.65-2.51,1.93,1.93,0,0,0-2.69.34,2.82,2.82,0,0,0-.28,1.25l-0.33,4.95c-0.07,1-.25,2.22-1.16,2.68a2.41,2.41,0,0,0-1.32.75,1.08,1.08,0,0,0,.25,1.06,5.1,5.1,0,0,1,.71.9c0.55,1.17-.78,2.4-0.82,3.69,0,1.07.84,2.08,0.6,3.13a3.1,3.1,0,0,1-1,1.44c-1.62,1.54-3.36,3.15-5.55,3.58" transform="translate(-111.54 185.27)"/></g><g id="_Group_36" data-name="&lt;Group&gt;"><path class="cls-4" d="M304.7-168.63c-1,.55-1.19,0-2-0.77a19.44,19.44,0,0,1-2.13-2.57,7.21,7.21,0,0,0-3.15-2.27,9.49,9.49,0,0,1-1.23-.43c-0.88-.44-1.44-1.35-2.28-1.88-1.52-1-3.64-.51-5.16-1.48-0.7-.44-1.2-1.14-1.88-1.6a4.67,4.67,0,0,0-4.17-.3,13.82,13.82,0,0,0-3.67,2.28l-1.43,1.11a8.72,8.72,0,0,0-1.36,1.22c-1,1.18-1.7,2.13-1.59,3.67s-0.78,2-.94,3.35c-0.07.55-.74,5-0.74,5.52s-0.77,1-1.5-.07a11.28,11.28,0,0,1-1-3.38c-0.13-1.89,1.45-3.35,1.47-5.25s0.24-4.25,1.37-5.77c1.75-2.34,2.87-3.31,6.44-4.59,0.83-.3,3.92-0.65,4.63-1.17a8.7,8.7,0,0,1,3.83-2.06,6.64,6.64,0,0,1,3.75.11,9.19,9.19,0,0,1,2.66,2.3c1.94,2,4.43,3.3,6.62,5s4.16,4,4.34,6.79a2.22,2.22,0,0,1-1.1,2.34,1.77,1.77,0,0,1-1.7-.44,5.2,5.2,0,0,1-1-1.5" transform="translate(-111.54 185.27)"/></g><g id="_Group_37" data-name="&lt;Group&gt;"><path class="cls-1" d="M293.56-172.3l2.88-1.59a4.27,4.27,0,0,1,1.23-.52,2.81,2.81,0,0,1,2.81,1.51,6.77,6.77,0,0,0,.78,1.35,7.54,7.54,0,0,0,.9.7,4.27,4.27,0,0,1,.78,5.29,5.62,5.62,0,0,0-.76,1.53,5.76,5.76,0,0,0,0,1.43,3.87,3.87,0,0,1-1.87,3.62,1.41,1.41,0,0,1-.82.19,4.75,4.75,0,0,1-.67-0.22c-0.62-.18-1.29.06-1.91-0.1a3.19,3.19,0,0,1-1.69-1.56,5.18,5.18,0,0,1-1.2-3.42c0.18-1.2,1.19-2.18,1.24-3.39s-0.72-2.05-1.28-3c-0.37-.64-0.61-1.57,0-2" transform="translate(-111.54 185.27)"/></g><g id="_Group_38" data-name="&lt;Group&gt;"><path class="cls-2" d="M292.13-163.82c-0.48-.38-0.83.24-1.42,0.29a1.82,1.82,0,0,1-.39,0,6.16,6.16,0,0,1-2.16-.59,2.58,2.58,0,0,1-1.37-1.77c-0.08-.5,0-1-0.06-1.5a3,3,0,0,0-1.36-1.71,7.15,7.15,0,0,1-1.73-1.37,1.65,1.65,0,0,1-.13-2,3.62,3.62,0,0,0,.88-0.79,2.1,2.1,0,0,0-.24-1.43,2.75,2.75,0,0,1,.7-2.76,2.91,2.91,0,0,1,2.72-.66,2.61,2.61,0,0,0,1,.18,2,2,0,0,0,1.07-.76,8.45,8.45,0,0,1,3-2,2.53,2.53,0,0,1,1.06-.23,3.28,3.28,0,0,1,1.83,1,7.46,7.46,0,0,1,2.16,2.52c0.72,1.67.21,3.77,1.3,5.22,0.3,0.41.72,0.73,1,1.16a3.35,3.35,0,0,1-.1,3.15c-0.58,1.23-1.53,2.46-1.2,3.82a4.36,4.36,0,0,1,.41,1.73,1.8,1.8,0,0,1-.78,1c-1.28,1-3.19,1.55-4.45.45C292.84-161.77,293.48-162.75,292.13-163.82Z" transform="translate(-111.54 185.27)"/></g><g id="_Group_39" data-name="&lt;Group&gt;"><path class="cls-1" d="M282.66-169.4a1.11,1.11,0,0,0-1.4,0,2.88,2.88,0,0,1-1.38.62,1.77,1.77,0,0,1-.8-0.26,7.1,7.1,0,0,1-2.32-2c-0.37-.49-1-1.1-1.47-0.73a1.34,1.34,0,0,1-.32.26,0.56,0.56,0,0,1-.59-0.4,2.81,2.81,0,0,1,1.09-3.52,3.83,3.83,0,0,0,1-.63,2.67,2.67,0,0,0,.41-0.78,7.12,7.12,0,0,1,3.58-3.67,3.7,3.7,0,0,1,2-.38,17.68,17.68,0,0,0,1.93.44c0.71,0,1.38-.37,2.1-0.39s0.77-.37,2.71.5a17.06,17.06,0,0,1,2.34,1.43c4.86,3.07.3,2.49,0.12,2.87-0.44,1-3.05.33-3.48,1.3a1.53,1.53,0,0,1-1.2.79,13.54,13.54,0,0,1-1.5,0,4.51,4.51,0,0,0-1.79.46,1.35,1.35,0,0,0-.75.73,2.14,2.14,0,0,0,.15,1.14,3.06,3.06,0,0,1-.17,2l-0.43,0" transform="translate(-111.54 185.27)"/></g><g id="_Group_40" data-name="&lt;Group&gt;"><path class="cls-2" d="M274.81-172.21a0.63,0.63,0,0,0-.68.56c-0.16.43,0.1,1.77-.28,2a3.77,3.77,0,0,0-1.54,3.72,11.94,11.94,0,0,1,.59,2.46c0,0.57-.24,1.12-0.29,1.69a5.38,5.38,0,0,0,.21,1.67c0.29,1.25.72,2.66,1.9,3.17a4.13,4.13,0,0,0,2.1.13,2.17,2.17,0,0,0,1.46-.56c0.51-.6.23-1.55,0.59-2.25a2,2,0,0,1,2.34-.71,8.11,8.11,0,0,1,2.21,1.43,3.47,3.47,0,0,0,2.43.89,2.33,2.33,0,0,0,1.76-1.36,3,3,0,0,0,0-2.25,1.9,1.9,0,0,0-1.27-1.29,3.31,3.31,0,0,1-.46-0.09c-0.66-.24-0.61-1.14-0.68-1.83a3,3,0,0,0-2.16-2.51,1.14,1.14,0,0,1-.47-0.19c-0.51-.45.33-1.28,0.17-1.94s-1.07-.67-1.68-0.41a2.79,2.79,0,0,1-1.87.47,1.79,1.79,0,0,1-.72-0.54c-0.45-.5-0.92-1-1.38-1.47a3.09,3.09,0,0,0-2.32-.81" transform="translate(-111.54 185.27)"/></g></g><g id="_Group_41" data-name="&lt;Group&gt;"><g id="_Group_42" data-name="&lt;Group&gt;"><path class="cls-1" d="M153-168a8.79,8.79,0,0,0-8-4.4,16,16,0,0,0-2.91.52c-1.21.3-2.63,0.84-2.89,2.06-0.2,1,.44,2,0.08,2.92s-1.89,1.26-2.56,2.17a1.85,1.85,0,0,0,0,2.13c0.58,0.8,1.78,1.08,2.14,2,0.56,1.42-1.39,2.91-.89,4.36a1.63,1.63,0,0,0,1.47,1,2.15,2.15,0,0,0,1.67-.79,2.66,2.66,0,0,1,.48-0.52,1.59,1.59,0,0,1,1.77.35,2.91,2.91,0,0,0,1.68.87,1.24,1.24,0,0,0,1.08-1.59c-0.27-.73-1.17-1-1.55-1.72a1.92,1.92,0,0,1,.74-2.34,5.6,5.6,0,0,1,2.54-.8l1.43-.21c0.89-.13,2-0.46,2.12-1.35,0.09-.69-0.49-1.28-0.69-1.95a1.91,1.91,0,0,1,1.49-2.34,2.09,2.09,0,0,0,.67-0.13,1.26,1.26,0,0,0-.3-1" transform="translate(-111.54 185.27)"/></g><g id="_Group_43" data-name="&lt;Group&gt;"><path class="cls-2" d="M140.64-171.88a4.12,4.12,0,0,0-4.29,1.73,3.73,3.73,0,0,1-.67.75c-0.8.57-1.89,0.07-2.88,0a3,3,0,0,0-3,2.81c0,1.05.5,2.15,0.12,3.13a4.75,4.75,0,0,1-1.61,1.69,2.12,2.12,0,0,0-1,2c0.38,1.38,2.77,1.28,3.18,2.64,0.25,0.81-.39,1.68-0.2,2.51a2.63,2.63,0,0,0,1.06,1.33,0.85,0.85,0,0,0,.36.2,2.69,2.69,0,0,0,.92-0.32c0.63-.13,1,0.67,1.65.87,1,0.33,1.91-1.21,3-1.08a1.78,1.78,0,0,1,.67.26,12.56,12.56,0,0,0,1.43.84,1.74,1.74,0,0,0,1.6,0,2.31,2.31,0,0,0,.8-1.39,1,1,0,0,0,0-.69c-0.22-.45-0.87-0.31-1.37-0.32a1.72,1.72,0,0,1-1.61-1.52c-0.11-1.24,1.16-2.36.84-3.57s-2.16-1.6-2.62-2.83a2.38,2.38,0,0,1,.72-2.35c0.6-.63,1.36-1.07,2-1.69a4.9,4.9,0,0,0,1.37-3.72C141.08-171.1,141.41-171.69,140.64-171.88Z" transform="translate(-111.54 185.27)"/></g><g id="_Group_44" data-name="&lt;Group&gt;"><path class="cls-1" d="M154.57-153.19l-1.37-2a1.65,1.65,0,0,0-.55-0.57,2.26,2.26,0,0,0-.82-0.15,6.3,6.3,0,0,1-2.31-.92,5.59,5.59,0,0,0-2.33-.86,2,2,0,0,0-2,1.16,0.92,0.92,0,0,1-.39.67,0.67,0.67,0,0,1-.49-0.08c-0.69-.32-1.33-0.73-2-1a3,3,0,0,0-2.21,0,1.6,1.6,0,0,0-.94,1.85,2.24,2.24,0,0,0,.53.78,9.88,9.88,0,0,0,1.74,1.47,1.86,1.86,0,0,0,1.51.41,3.76,3.76,0,0,0,1.18-1,2.26,2.26,0,0,1,2.52-.27c0.8,0.44,1.32,1.37,2.21,1.58a5,5,0,0,0,1.49-.05,1.44,1.44,0,0,1,1.34.48,2.77,2.77,0,0,1,.22,1.22,2.39,2.39,0,0,0,3,1.87A2.39,2.39,0,0,0,156-152c-0.56-.88-1.68-1.33-2.11-2.28" transform="translate(-111.54 185.27)"/></g><g id="_Group_45" data-name="&lt;Group&gt;"><path class="cls-3" d="M132.15-166.58a4.3,4.3,0,0,1,2-1.86c0.43-.11.89-0.1,1.32-0.24a4,4,0,0,0,1.8-1.57c0.19-.25,1-1,0.89-1.33s-0.39-.24-1,0.12c-1.17.69-2.79-.45-3.76,0.49a8.22,8.22,0,0,1-1.54,1.57c-0.77.42-1.73,0.22-2.58,0.44-1.67.43-2.54,2.42-2.31,4.13,0.19,1.42,1,2.84.58,4.22a5,5,0,0,1-1,1.7,17.37,17.37,0,0,0-2,2.78,4.31,4.31,0,0,0-.4,3.3c0.82,2.38,4.16,3.05,5.14,5.37,0.21,0.49.29,1,.46,1.52,0.63,1.92,2.34,3.27,4,4.37a5.17,5.17,0,0,0,2.8,1.07,1.93,1.93,0,0,0,2-1.85,2.82,2.82,0,0,0-.5-1.18l-2.62-4.21c-0.54-.87-1.09-1.94-0.63-2.85a2.41,2.41,0,0,0,.63-1.38,1.08,1.08,0,0,0-.82-0.72,5.1,5.1,0,0,1-1.1-.32c-1.13-.63-0.76-2.4-1.49-3.48-0.6-.89-1.9-1.2-2.31-2.19a3.1,3.1,0,0,1,0-1.77c0.41-2.19.89-4.52,2.41-6.15" transform="translate(-111.54 185.27)"/></g><g id="_Group_46" data-name="&lt;Group&gt;"><path class="cls-4" d="M135.28-141.56c0.47-1,1-.66,2.1-0.57a19.44,19.44,0,0,1,3.23.84,7.21,7.21,0,0,0,3.88,0,9.49,9.49,0,0,1,1.25-.37c1-.15,2,0.25,2.94.19,1.8-.1,3.25-1.71,5.05-1.82,0.82,0,1.64.23,2.46,0.2a4.67,4.67,0,0,0,3.56-2.19,13.82,13.82,0,0,0,1.64-4l0.51-1.74a8.72,8.72,0,0,0,.39-1.79c0.12-1.54.13-2.72-.86-3.91s-0.55-2.1-1.19-3.27c-0.27-.49-2.3-4.46-2.62-4.92s0-1.26,1.26-.81a11.28,11.28,0,0,1,2.78,2.17c1.21,1.46.78,3.57,1.87,5.11s2.29,3.59,2.26,5.49c-0.06,2.92-.39,4.36-2.54,7.49-0.5.72-2.8,2.82-3.08,3.66a8.7,8.7,0,0,1-1.9,3.91,6.64,6.64,0,0,1-3.11,2.1,9.19,9.19,0,0,1-3.5-.31c-2.73-.48-5.53-0.09-8.3-0.2s-5.73-.84-7.49-3a2.22,2.22,0,0,1-.47-2.54,1.77,1.77,0,0,1,1.64-.63,5.2,5.2,0,0,1,1.72.61" transform="translate(-111.54 185.27)"/></g><g id="_Group_47" data-name="&lt;Group&gt;"><path class="cls-1" d="M146.47-145.1l-1.41,3a4.27,4.27,0,0,1-.69,1.14,2.81,2.81,0,0,1-3.16.41,6.77,6.77,0,0,0-1.42-.64,7.54,7.54,0,0,0-1.14,0,4.27,4.27,0,0,1-3.72-3.84,5.62,5.62,0,0,0-.27-1.68,5.76,5.76,0,0,0-.85-1.15,3.87,3.87,0,0,1-.6-4,1.41,1.41,0,0,1,.56-0.64,4.75,4.75,0,0,1,.67-0.21c0.6-.21,1-0.8,1.61-1a3.19,3.19,0,0,1,2.28.27,5.18,5.18,0,0,1,3,2.08c0.55,1.08.31,2.47,1,3.48s1.79,1.25,2.8,1.7c0.67,0.3,1.41.92,1.2,1.63" transform="translate(-111.54 185.27)"/></g><g id="_Group_48" data-name="&lt;Group&gt;"><path class="cls-2" d="M142.68-152.81c0.61,0,.53-0.68,1-1.07a1.82,1.82,0,0,1,.33-0.21,6.16,6.16,0,0,1,2.1-.79,2.58,2.58,0,0,1,2.14.63c0.35,0.36.56,0.84,0.93,1.18a3,3,0,0,0,2.1.59,7.15,7.15,0,0,1,2.21.1,1.65,1.65,0,0,1,1.29,1.58,3.62,3.62,0,0,0-.25,1.15,2.1,2.1,0,0,0,1,1,2.75,2.75,0,0,1,1,2.65,2.91,2.91,0,0,1-1.83,2.12,2.61,2.61,0,0,0-.9.43,2,2,0,0,0-.42,1.24,8.45,8.45,0,0,1-1.23,3.4,2.53,2.53,0,0,1-.72.81,3.28,3.28,0,0,1-2.06.27,7.46,7.46,0,0,1-3.23-.78c-1.56-.93-2.38-2.94-4.11-3.48-0.48-.15-1-0.17-1.48-0.36a3.35,3.35,0,0,1-1.76-2.61c-0.24-1.34-.19-2.89-1.26-3.81a4.36,4.36,0,0,1-1.35-1.17,1.8,1.8,0,0,1,0-1.29c0.47-1.53,1.68-3.12,3.35-3C140.9-154.05,141-152.89,142.68-152.81Z" transform="translate(-111.54 185.27)"/></g><g id="_Group_49" data-name="&lt;Group&gt;"><path class="cls-1" d="M153.62-153.81a1.11,1.11,0,0,0,1.15-.8,2.88,2.88,0,0,1,.76-1.31,1.77,1.77,0,0,1,.8-0.26,7.1,7.1,0,0,1,3.05.28c0.58,0.19,1.44.32,1.62-.27a1.34,1.34,0,0,1,.11-0.4,0.56,0.56,0,0,1,.71,0,2.81,2.81,0,0,1,1.17,3.49,3.83,3.83,0,0,0-.46,1.1,2.67,2.67,0,0,0,.12.87,7.12,7.12,0,0,1-.76,5.07,3.7,3.7,0,0,1-1.38,1.46,17.68,17.68,0,0,0-1.82.77c-0.59.41-.91,1.11-1.47,1.54s-0.41.75-2.49,1.17a17.06,17.06,0,0,1-2.74.21c-5.74.35-1.69-1.85-1.77-2.26-0.2-1,2.28-2.05,2.06-3.09a1.53,1.53,0,0,1,.52-1.34,13.54,13.54,0,0,1,1.2-.91,4.51,4.51,0,0,0,1.19-1.42,1.35,1.35,0,0,0,.19-1,2.14,2.14,0,0,0-.79-0.84,3.06,3.06,0,0,1-1-1.72l0.33-.28" transform="translate(-111.54 185.27)"/></g><g id="_Group_50" data-name="&lt;Group&gt;"><path class="cls-2" d="M161.64-156.12a0.63,0.63,0,0,0,.23-0.86c-0.12-.45-1.11-1.38-1-1.82a3.77,3.77,0,0,0-.92-3.92,11.94,11.94,0,0,1-1.92-1.65c-0.32-.47-0.46-1-0.75-1.54a5.38,5.38,0,0,0-1.15-1.24c-1-.84-2.14-1.74-3.4-1.46a4.13,4.13,0,0,0-1.78,1.13,2.17,2.17,0,0,0-.85,1.31c-0.06.79,0.72,1.39,0.83,2.17a2,2,0,0,1-1.48,1.94,8.11,8.11,0,0,1-2.63.13,3.47,3.47,0,0,0-2.49.7,2.33,2.33,0,0,0-.64,2.13,3,3,0,0,0,1.29,1.84,1.9,1.9,0,0,0,1.79.3,3.31,3.31,0,0,1,.42-0.2c0.67-.19,1.16.57,1.63,1.09a3,3,0,0,0,3.22.78,1.14,1.14,0,0,1,.49-0.12c0.68,0.07.48,1.23,1,1.67s1.26-.08,1.6-0.64a2.79,2.79,0,0,1,1.24-1.47,1.79,1.79,0,0,1,.9,0c0.66,0.14,1.32.25,2,.39a3.09,3.09,0,0,0,2.36-.7" transform="translate(-111.54 185.27)"/></g></g><g id="_Group_51" data-name="&lt;Group&gt;"><g id="_Group_52" data-name="&lt;Group&gt;"><path class="cls-1" d="M213.54-169.83a10.78,10.78,0,0,0-9.6-5.79,19.59,19.59,0,0,0-3.59.5c-1.5.31-3.27,0.89-3.64,2.38-0.29,1.17.44,2.47-.05,3.57-0.57,1.27-2.37,1.45-3.25,2.53a2.27,2.27,0,0,0-.12,2.61c0.67,1,2.13,1.41,2.52,2.56,0.61,1.77-1.84,3.5-1.31,5.3a2,2,0,0,0,1.75,1.34,2.64,2.64,0,0,0,2.08-.88,3.26,3.26,0,0,1,.61-0.61,2,2,0,0,1,2.15.51,3.57,3.57,0,0,0,2,1.15,1.52,1.52,0,0,0,1.41-1.89c-0.29-.91-1.38-1.33-1.81-2.18a2.36,2.36,0,0,1,1-2.83,6.87,6.87,0,0,1,3.15-.85l1.76-.18c1.1-.11,2.47-0.46,2.66-1.55,0.15-.84-0.54-1.59-0.75-2.42a2.34,2.34,0,0,1,1.95-2.79,2.57,2.57,0,0,0,.83-0.12c0.26-.12-0.15-1-0.31-1.27" transform="translate(-111.54 185.27)"/></g><g id="_Group_53" data-name="&lt;Group&gt;"><path class="cls-2" d="M198.53-175.23a5.05,5.05,0,0,0-5.34,1.9,4.58,4.58,0,0,1-.86.89c-1,.66-2.32,0-3.53-0.1a3.69,3.69,0,0,0-3.81,3.29c-0.09,1.29.51,2.65,0,3.84a5.82,5.82,0,0,1-2.06,2,2.59,2.59,0,0,0-1.27,2.42c0.4,1.7,3.32,1.7,3.76,3.4,0.26,1-.56,2-0.37,3.07a3.22,3.22,0,0,0,1.23,1.68,1,1,0,0,0,.43.27,3.3,3.3,0,0,0,1.15-.35c0.77-.12,1.24.88,2,1.14,1.26,0.46,2.4-1.38,3.73-1.17a2.18,2.18,0,0,1,.81.36,15.4,15.4,0,0,0,1.71,1.11,2.13,2.13,0,0,0,2,0,2.83,2.83,0,0,0,1-1.66,1.19,1.19,0,0,0,.05-0.84c-0.25-.56-1.05-0.42-1.66-0.46a2.11,2.11,0,0,1-1.9-1.95c-0.07-1.52,1.53-2.84,1.2-4.33s-2.57-2.07-3.07-3.59a2.91,2.91,0,0,1,1-2.85c0.76-.74,1.72-1.25,2.49-2a6,6,0,0,0,1.86-4.49C199-174.24,199.47-175,198.53-175.23Z" transform="translate(-111.54 185.27)"/></g><g id="_Group_54" data-name="&lt;Group&gt;"><path class="cls-1" d="M214.66-151.64l-1.57-2.5a2,2,0,0,0-.64-0.72,2.78,2.78,0,0,0-1-.23,7.73,7.73,0,0,1-2.79-1.25,6.86,6.86,0,0,0-2.81-1.17,2.43,2.43,0,0,0-2.54,1.32,1.13,1.13,0,0,1-.51.8,0.82,0.82,0,0,1-.6-0.13c-0.82-.43-1.6-1-2.45-1.31A3.63,3.63,0,0,0,197-157a2,2,0,0,0-1.24,2.22,2.74,2.74,0,0,0,.61,1,12.11,12.11,0,0,0,2.06,1.89,2.28,2.28,0,0,0,1.83.58,4.61,4.61,0,0,0,1.5-1.16,2.77,2.77,0,0,1,3.1-.21c1,0.58,1.55,1.75,2.63,2a6.14,6.14,0,0,0,1.82,0,1.76,1.76,0,0,1,1.62.66,3.4,3.4,0,0,1,.21,1.5,2.92,2.92,0,0,0,3.61,2.45,2.92,2.92,0,0,0,1.6-4.06c-0.64-1.11-2-1.72-2.47-2.9" transform="translate(-111.54 185.27)"/></g><g id="_Group_55" data-name="&lt;Group&gt;"><path class="cls-3" d="M187.87-169.16a5.27,5.27,0,0,1,2.54-2.17c0.54-.12,1.1-0.08,1.63-0.23a4.94,4.94,0,0,0,2.28-1.84c0.24-.29,1.28-1.23,1.15-1.59s-0.47-.31-1.23.1c-1.46.78-3.39-.69-4.63,0.41a10.08,10.08,0,0,1-2,1.85c-1,.48-2.13.19-3.19,0.41-2.07.44-3.24,2.84-3,4.94,0.16,1.75,1,3.52.49,5.2a6.08,6.08,0,0,1-1.29,2,21.29,21.29,0,0,0-2.57,3.3,5.29,5.29,0,0,0-.65,4c0.89,3,4.94,3.95,6,6.84,0.23,0.61.3,1.26,0.48,1.89,0.67,2.39,2.71,4.12,4.73,5.55A6.34,6.34,0,0,0,192-137a2.37,2.37,0,0,0,2.52-2.17,3.46,3.46,0,0,0-.56-1.47l-3-5.29c-0.62-1.09-1.24-2.44-.62-3.52,0.31-.56.94-1,0.85-1.66a1.32,1.32,0,0,0-1-.92,6.25,6.25,0,0,1-1.33-.45c-1.35-.83-0.82-3-1.65-4.33-0.69-1.12-2.26-1.56-2.72-2.8a3.8,3.8,0,0,1,.07-2.16c0.61-2.67,1.31-5.49,3.26-7.41" transform="translate(-111.54 185.27)"/></g><g id="_Group_56" data-name="&lt;Group&gt;"><path class="cls-4" d="M190.45-138.36c0.62-1.22,1.25-.75,2.61-0.59a23.83,23.83,0,0,1,3.91,1.19,8.84,8.84,0,0,0,4.75.2,11.64,11.64,0,0,1,1.55-.39c1.2-.14,2.39.4,3.59,0.38,2.21,0,4.07-1.93,6.28-2,1,0,2,.36,3,0.37a5.73,5.73,0,0,0,4.47-2.5,16.94,16.94,0,0,0,2.21-4.81l0.71-2.11a10.69,10.69,0,0,0,.57-2.17c0.22-1.88.3-3.33-.85-4.83s-0.57-2.6-1.3-4.06c-0.31-.61-2.59-5.58-3-6.15s0.12-1.54,1.58-.93a13.83,13.83,0,0,1,3.29,2.79c1.41,1.85.78,4.41,2,6.36s2.63,4.52,2.49,6.83c-0.22,3.58-.7,5.32-3.49,9-0.65.86-3.58,3.31-4,4.33-0.69,1.85-1.09,3.34-2.53,4.69a8.14,8.14,0,0,1-3.91,2.42,11.27,11.27,0,0,1-4.27-.55c-3.32-.72-6.77-0.39-10.15-0.66s-7-1.31-9-4c-0.68-.91-1.14-2.23-0.45-3.14a2.16,2.16,0,0,1,2-.69,6.38,6.38,0,0,1,2.08.84" transform="translate(-111.54 185.27)"/></g><g id="_Group_57" data-name="&lt;Group&gt;"><path class="cls-1" d="M204.33-142.13l-1.88,3.57a5.23,5.23,0,0,1-.91,1.36,3.45,3.45,0,0,1-3.89.35,8.3,8.3,0,0,0-1.71-.85,9.24,9.24,0,0,0-1.39-.12c-2.37-.21-4.2-2.52-4.37-4.89a6.89,6.89,0,0,0-.25-2.08,7.06,7.06,0,0,0-1-1.46,4.74,4.74,0,0,1-.53-5,1.73,1.73,0,0,1,.71-0.75,5.83,5.83,0,0,1,.83-0.23c0.75-.23,1.28-0.93,2-1.19a3.91,3.91,0,0,1,2.78.45c1.39,0.6,2.9,1.32,3.53,2.69s0.25,3,1,4.31,2.12,1.61,3.34,2.22c0.81,0.4,1.68,1.2,1.39,2.05" transform="translate(-111.54 185.27)"/></g><g id="_Group_58" data-name="&lt;Group&gt;"><path class="cls-2" d="M200.07-151.77c0.75,0.06.69-.81,1.26-1.26a2.23,2.23,0,0,1,.41-0.24,7.55,7.55,0,0,1,2.61-.86,3.16,3.16,0,0,1,2.59.88c0.42,0.46.64,1.06,1.08,1.49a3.65,3.65,0,0,0,2.54.83,8.76,8.76,0,0,1,2.7.24,2,2,0,0,1,1.5,2,4.43,4.43,0,0,0-.37,1.4,2.58,2.58,0,0,0,1.21,1.3,3.37,3.37,0,0,1,1.15,3.29,3.57,3.57,0,0,1-2.34,2.51,3.2,3.2,0,0,0-1.13.49,2.46,2.46,0,0,0-.58,1.5A10.36,10.36,0,0,1,211-134.1a3.1,3.1,0,0,1-.93,1,4,4,0,0,1-2.54.22,9.15,9.15,0,0,1-3.92-1.12c-1.87-1.22-2.76-3.72-4.86-4.47-0.59-.21-1.22-0.26-1.79-0.52a4.11,4.11,0,0,1-2-3.29c-0.23-1.65-.09-3.56-1.35-4.72a5.35,5.35,0,0,1-1.59-1.5,2.21,2.21,0,0,1,.11-1.58c0.66-1.86,2.22-3.73,4.25-3.47C198-153.38,198-151.95,200.07-151.77Z" transform="translate(-111.54 185.27)"/></g><g id="_Group_59" data-name="&lt;Group&gt;"><path class="cls-1" d="M213.53-152.44a1.37,1.37,0,0,0,1.45-.92,3.53,3.53,0,0,1,1-1.56,2.17,2.17,0,0,1,1-.27,8.7,8.7,0,0,1,3.73.49c0.71,0.26,1.75.47,2-.25a1.64,1.64,0,0,1,.15-0.48,0.68,0.68,0,0,1,.87,0,3.44,3.44,0,0,1,1.26,4.34,4.7,4.7,0,0,0-.61,1.33,3.27,3.27,0,0,0,.1,1.07,8.73,8.73,0,0,1-1.19,6.17,4.53,4.53,0,0,1-1.76,1.72,21.67,21.67,0,0,0-2.27.85c-0.74.47-1.17,1.31-1.88,1.81s-0.54.9-3.11,1.31a20.91,20.91,0,0,1-3.36.12c-7,.14-2-2.35-2.06-2.86-0.2-1.28,2.9-2.4,2.68-3.68a1.87,1.87,0,0,1,.7-1.62,16.6,16.6,0,0,1,1.51-1.05,5.53,5.53,0,0,0,1.52-1.68,1.66,1.66,0,0,0,.28-1.25,2.62,2.62,0,0,0-.92-1.07,3.76,3.76,0,0,1-1.17-2.16l0.42-.32" transform="translate(-111.54 185.27)"/></g><g id="_Group_60" data-name="&lt;Group&gt;"><path class="cls-2" d="M223.46-154.88a0.77,0.77,0,0,0,.32-1c-0.12-.55-1.3-1.74-1.08-2.27a4.62,4.62,0,0,0-.93-4.84,14.63,14.63,0,0,1-2.26-2.12c-0.37-.59-0.51-1.31-0.84-1.92a6.6,6.6,0,0,0-1.34-1.57c-1.14-1.08-2.53-2.24-4.09-2a5.07,5.07,0,0,0-2.24,1.29,2.66,2.66,0,0,0-1.11,1.56c-0.12,1,.81,1.74.91,2.7a2.4,2.4,0,0,1-1.92,2.31,9.94,9.94,0,0,1-3.22,0,4.25,4.25,0,0,0-3.08.73,2.86,2.86,0,0,0-.89,2.58,3.68,3.68,0,0,0,1.48,2.32,2.33,2.33,0,0,0,2.17.46,4.06,4.06,0,0,1,.53-0.22c0.83-.2,1.39.76,1.94,1.41a3.69,3.69,0,0,0,3.9,1.12,1.4,1.4,0,0,1,.61-0.12c0.83,0.11.52,1.53,1.13,2.1s1.55,0,2-.71,0.82-1.54,1.6-1.74a2.2,2.2,0,0,1,1.1.07c0.8,0.2,1.6.37,2.4,0.57a3.78,3.78,0,0,0,2.92-.74" transform="translate(-111.54 185.27)"/></g></g><g id="_Group_61" data-name="&lt;Group&gt;"><g id="_Group_62" data-name="&lt;Group&gt;"><path class="cls-1" d="M244.08-125.18a9.34,9.34,0,0,0-8.2-5.21,17,17,0,0,0-3.12.36c-1.31.24-2.85,0.71-3.2,2-0.28,1,.33,2.15-0.12,3.09s-2.08,1.2-2.86,2.13a2,2,0,0,0-.15,2.26c0.56,0.89,1.81,1.27,2.13,2.27,0.49,1.55-1.66,3-1.24,4.56a1.73,1.73,0,0,0,1.49,1.19,2.28,2.28,0,0,0,1.82-.72,2.83,2.83,0,0,1,.54-0.52,1.69,1.69,0,0,1,1.85.49,3.09,3.09,0,0,0,1.72,1,1.31,1.31,0,0,0,1.26-1.61c-0.24-.79-1.17-1.18-1.52-1.92a2,2,0,0,1,.94-2.43,6,6,0,0,1,2.74-.67l1.53-.12c1-.08,2.15-0.35,2.34-1.29,0.15-.73-0.44-1.39-0.6-2.11a2,2,0,0,1,1.74-2.38,2.22,2.22,0,0,0,.72-0.09c0.22-.1-0.11-0.9-0.25-1.1" transform="translate(-111.54 185.27)"/></g><g id="_Group_63" data-name="&lt;Group&gt;"><path class="cls-2" d="M231.19-130.15a4.38,4.38,0,0,0-4.66,1.54,4,4,0,0,1-.76.75c-0.89.55-2-.06-3.05-0.16a3.2,3.2,0,0,0-3.36,2.77c-0.1,1.11.39,2.31-.08,3.32a5,5,0,0,1-1.82,1.68,2.25,2.25,0,0,0-1.15,2.07c0.31,1.48,2.84,1.54,3.19,3,0.21,0.88-.53,1.76-0.38,2.65a2.79,2.79,0,0,0,1,1.48,0.9,0.9,0,0,0,.37.24,2.86,2.86,0,0,0,1-.28c0.67-.09,1.05.78,1.69,1,1.09,0.42,2.11-1.15,3.25-.94a1.89,1.89,0,0,1,.7.32,13.34,13.34,0,0,0,1.46,1,1.84,1.84,0,0,0,1.69.07,2.45,2.45,0,0,0,.94-1.41,1,1,0,0,0,.06-0.73c-0.21-.49-0.9-0.39-1.43-0.43a1.83,1.83,0,0,1-1.61-1.72c0-1.32,1.39-2.43,1.13-3.72s-2.18-1.84-2.59-3.17a2.52,2.52,0,0,1,.92-2.45c0.67-.62,1.51-1,2.2-1.66a5.2,5.2,0,0,0,1.7-3.85C231.61-129.29,232-129.89,231.19-130.15Z" transform="translate(-111.54 185.27)"/></g><g id="_Group_64" data-name="&lt;Group&gt;"><path class="cls-1" d="M244.7-109.4l-1.31-2.19a1.76,1.76,0,0,0-.54-0.64,2.4,2.4,0,0,0-.86-0.22,6.69,6.69,0,0,1-2.39-1.14,5.94,5.94,0,0,0-2.41-1.07,2.11,2.11,0,0,0-2.23,1.09,1,1,0,0,1-.46.68A0.71,0.71,0,0,1,234-113c-0.71-.39-1.36-0.86-2.1-1.18a3.14,3.14,0,0,0-2.34-.19,1.7,1.7,0,0,0-1.12,1.9,2.37,2.37,0,0,0,.51.87,10.49,10.49,0,0,0,1.74,1.68,2,2,0,0,0,1.57.54,4,4,0,0,0,1.32-1,2.4,2.4,0,0,1,2.68-.12c0.82,0.52,1.3,1.55,2.23,1.82a5.32,5.32,0,0,0,1.58,0,1.53,1.53,0,0,1,1.39.6,2.94,2.94,0,0,1,.15,1.3,2.53,2.53,0,0,0,3.08,2.19,2.53,2.53,0,0,0,1.46-3.49c-0.53-1-1.69-1.53-2.08-2.56" transform="translate(-111.54 185.27)"/></g><g id="_Group_65" data-name="&lt;Group&gt;"><path class="cls-3" d="M221.84-125.11a4.57,4.57,0,0,1,2.24-1.83c0.47-.09,1,0,1.41-0.17a4.28,4.28,0,0,0,2-1.55c0.21-.25,1.13-1,1-1.35s-0.4-.28-1.07.06c-1.28.65-2.92-.66-4,0.27a8.73,8.73,0,0,1-1.74,1.56c-0.85.39-1.85,0.12-2.77,0.29-1.8.34-2.86,2.39-2.73,4.22,0.11,1.52.82,3.07,0.32,4.51a5.27,5.27,0,0,1-1.16,1.73,18.44,18.44,0,0,0-2.29,2.81,4.58,4.58,0,0,0-.64,3.47c0.71,2.58,4.2,3.52,5.08,6,0.19,0.53.24,1.1,0.38,1.64,0.54,2.08,2.26,3.62,4,4.9a5.49,5.49,0,0,0,2.89,1.33A2,2,0,0,0,227-99a3,3,0,0,0-.45-1.29l-2.49-4.64c-0.51-1-1-2.13-.47-3.06a2.56,2.56,0,0,0,.76-1.42,1.14,1.14,0,0,0-.82-0.82,5.41,5.41,0,0,1-1.14-.41c-1.16-.74-0.65-2.6-1.34-3.79-0.58-1-1.93-1.4-2.3-2.48a3.29,3.29,0,0,1,.1-1.87c0.58-2.3,1.24-4.73,3-6.35" transform="translate(-111.54 185.27)"/></g><g id="_Group_66" data-name="&lt;Group&gt;"><path class="cls-4" d="M223.47-98.38c0.56-1,1.1-.63,2.27-0.46a20.65,20.65,0,0,1,3.37,1.11,7.66,7.66,0,0,0,4.11.27,10.08,10.08,0,0,1,1.35-.31c1-.1,2.06.4,3.11,0.4,1.92,0,3.56-1.59,5.48-1.58,0.87,0,1.72.35,2.59,0.38a5,5,0,0,0,3.92-2.08,14.67,14.67,0,0,0,2-4.12l0.66-1.81a9.26,9.26,0,0,0,.54-1.87c0.23-1.62.32-2.87-.64-4.2s-0.44-2.26-1-3.54c-0.25-.54-2.14-4.88-2.44-5.39s0.13-1.33,1.39-.78a12,12,0,0,1,2.8,2.48c1.18,1.63.59,3.83,1.64,5.55s2.19,4,2,6c-0.26,3.1-.71,4.6-3.2,7.76-0.58.73-3.16,2.8-3.51,3.67-0.63,1.59-1,2.87-2.28,4a7.05,7.05,0,0,1-3.43,2,9.76,9.76,0,0,1-3.69-.57c-2.86-.69-5.85-0.47-8.78-0.77s-6-1.27-7.73-3.66c-0.58-.8-0.95-2-0.33-2.73a1.87,1.87,0,0,1,1.78-.56,5.52,5.52,0,0,1,1.79.77" transform="translate(-111.54 185.27)"/></g><g id="_Group_67" data-name="&lt;Group&gt;"><path class="cls-1" d="M235.56-101.37l-1.7,3.06a4.53,4.53,0,0,1-.81,1.16,3,3,0,0,1-3.38.23,7.19,7.19,0,0,0-1.46-.77,8,8,0,0,0-1.21-.13,4.53,4.53,0,0,1-3.69-4.32,6,6,0,0,0-.18-1.8,6.12,6.12,0,0,0-.83-1.28,4.11,4.11,0,0,1-.36-4.32,1.5,1.5,0,0,1,.63-0.64,5,5,0,0,1,.72-0.18c0.66-.19,1.13-0.78,1.78-1a3.39,3.39,0,0,1,2.4.45,5.5,5.5,0,0,1,3,2.4c0.51,1.18.16,2.64,0.8,3.75s1.81,1.44,2.85,2c0.69,0.37,1.43,1.07,1.16,1.81" transform="translate(-111.54 185.27)"/></g><g id="_Group_68" data-name="&lt;Group&gt;"><path class="cls-2" d="M232.07-109.8c0.65,0.07.61-.69,1.11-1.07a1.93,1.93,0,0,1,.36-0.2,6.54,6.54,0,0,1,2.28-.69,2.73,2.73,0,0,1,2.23.82c0.35,0.4.53,0.93,0.9,1.31a3.16,3.16,0,0,0,2.19.77,7.59,7.59,0,0,1,2.34.26,1.75,1.75,0,0,1,1.26,1.76,3.84,3.84,0,0,0-.34,1.2,2.23,2.23,0,0,0,1,1.15,2.92,2.92,0,0,1,.93,2.87,3.09,3.09,0,0,1-2.08,2.13,2.77,2.77,0,0,0-1,.4,2.13,2.13,0,0,0-.53,1.29,9,9,0,0,1-1.53,3.52,2.69,2.69,0,0,1-.82.81,3.48,3.48,0,0,1-2.21.14,7.92,7.92,0,0,1-3.37-1c-1.59-1.09-2.32-3.27-4.12-4-0.5-.19-1.05-0.25-1.54-0.48a3.56,3.56,0,0,1-1.69-2.89c-0.17-1.43,0-3.08-1.08-4.12a4.63,4.63,0,0,1-1.35-1.33,1.92,1.92,0,0,1,.12-1.37c0.61-1.59,2-3.19,3.75-2.92C230.27-111.24,230.24-110,232.07-109.8Z" transform="translate(-111.54 185.27)"/></g><g id="_Group_69" data-name="&lt;Group&gt;"><path class="cls-1" d="M243.73-110.12a1.18,1.18,0,0,0,1.28-.77,3.06,3.06,0,0,1,.89-1.34,1.88,1.88,0,0,1,.87-0.22,7.54,7.54,0,0,1,3.22.5c0.61,0.24,1.51.44,1.73-.17a1.42,1.42,0,0,1,.14-0.41,0.59,0.59,0,0,1,.76,0,3,3,0,0,1,1,3.78,4.07,4.07,0,0,0-.56,1.14,2.83,2.83,0,0,0,.07.93,7.56,7.56,0,0,1-1.15,5.32,3.93,3.93,0,0,1-1.56,1.46,18.77,18.77,0,0,0-2,.69c-0.65.39-1,1.11-1.67,1.53s-0.49.77-2.72,1.08a18.12,18.12,0,0,1-2.91,0c-6.1,0-1.67-2.07-1.73-2.52-0.15-1.11,2.56-2,2.4-3.13a1.62,1.62,0,0,1,.64-1.39,14.38,14.38,0,0,1,1.33-.88,4.79,4.79,0,0,0,1.35-1.43,1.44,1.44,0,0,0,.27-1.08,2.27,2.27,0,0,0-.78-0.94,3.25,3.25,0,0,1-1-1.9l0.37-.27" transform="translate(-111.54 185.27)"/></g><g id="_Group_70" data-name="&lt;Group&gt;"><path class="cls-2" d="M252.38-112a0.66,0.66,0,0,0,.3-0.89c-0.1-.48-1.09-1.54-0.89-2a4,4,0,0,0-.71-4.21,12.67,12.67,0,0,1-1.92-1.88c-0.31-.52-0.41-1.14-0.69-1.68a5.72,5.72,0,0,0-1.13-1.39c-1-1-2.15-2-3.5-1.78a4.39,4.39,0,0,0-2,1.07,2.3,2.3,0,0,0-1,1.33c-0.12.83,0.66,1.52,0.74,2.36a2.08,2.08,0,0,1-1.7,2,8.61,8.61,0,0,1-2.79,0,3.68,3.68,0,0,0-2.68.57,2.48,2.48,0,0,0-.82,2.22,3.19,3.19,0,0,0,1.24,2,2,2,0,0,0,1.87.44,3.51,3.51,0,0,1,.46-0.18c0.72-.16,1.19.69,1.65,1.26a3.2,3.2,0,0,0,3.36,1,1.21,1.21,0,0,1,.53-0.09c0.72,0.12.42,1.33,0.94,1.84s1.34,0,1.74-.57a3,3,0,0,1,1.42-1.48,1.9,1.9,0,0,1,.95.08c0.69,0.19,1.38.35,2.07,0.54a3.28,3.28,0,0,0,2.54-.58" transform="translate(-111.54 185.27)"/></g></g><g id="sign"><g id="_Group_71" data-name="&lt;Group&gt;"><rect id="_Rectangle_" data-name="&lt;Rectangle&gt;" class="cls-5" x="167.15" y="-181.47" width="72.6" height="29.35" rx="4" ry="4" transform="matrix(1, 0, 0, 1, -111.33, 185.53)"/><line id="_Path_" data-name="&lt;Path&gt;" class="cls-6" x1="90.78" y1="32.98" x2="90.84" y2="79.37"/></g><text class="cls-7" transform="matrix(1, 0, 0, 1, 68.49, 22.93)">תיבורכ</text></g><g id="_Group_72" data-name="&lt;Group&gt;"><g id="_Group_73" data-name="&lt;Group&gt;"><path class="cls-1" d="M192.3-129.69a10.07,10.07,0,0,0-10-3.25,18.31,18.31,0,0,0-3.17,1.21c-1.3.6-2.79,1.5-2.81,2.94,0,1.13.92,2.16,0.71,3.27-0.25,1.28-1.85,1.82-2.42,3a2.12,2.12,0,0,0,.44,2.4c0.83,0.78,2.23.84,2.84,1.8,0.93,1.49-.94,3.57-0.07,5.1a1.86,1.86,0,0,0,1.87.85,2.46,2.46,0,0,0,1.71-1.24,3,3,0,0,1,.43-0.68,1.82,1.82,0,0,1,2.07,0,3.34,3.34,0,0,0,2.08.63,1.42,1.42,0,0,0,.88-2c-0.46-.76-1.54-0.92-2.11-1.6a2.2,2.2,0,0,1,.33-2.8,6.42,6.42,0,0,1,2.69-1.44l1.56-.54c1-.34,2.15-0.94,2.1-2,0-.8-0.83-1.34-1.2-2a2.19,2.19,0,0,1,1.18-2.95,2.4,2.4,0,0,0,.73-0.29c0.21-.16-0.36-0.91-0.55-1.09" transform="translate(-111.54 185.27)"/></g><g id="_Group_74" data-name="&lt;Group&gt;"><path class="cls-2" d="M177.5-131.45a4.72,4.72,0,0,0-4.46,2.86,4.28,4.28,0,0,1-.59,1c-0.78.82-2.12,0.48-3.23,0.65a3.45,3.45,0,0,0-2.77,3.8c0.19,1.19,1,2.31.8,3.5a5.44,5.44,0,0,1-1.46,2.24,2.43,2.43,0,0,0-.65,2.47c0.72,1.47,3.38.85,4.14,2.3,0.45,0.86-.08,2,0.31,2.87a3,3,0,0,0,1.47,1.27,1,1,0,0,0,.45.15,3.09,3.09,0,0,0,1-.56c0.68-.27,1.31.54,2,0.63,1.25,0.15,1.89-1.76,3.15-1.85a2,2,0,0,1,.81.15,14.39,14.39,0,0,0,1.79.65,2,2,0,0,0,1.79-.38,2.64,2.64,0,0,0,.6-1.73,1.11,1.11,0,0,0-.13-0.78c-0.34-.45-1-0.16-1.61-0.07a2,2,0,0,1-2.14-1.37c-0.38-1.37.8-2.91,0.18-4.19s-2.78-1.34-3.55-2.62a2.72,2.72,0,0,1,.3-2.8c0.54-.83,1.3-1.5,1.85-2.32a5.61,5.61,0,0,0,.75-4.48C178.17-130.65,178.41-131.39,177.5-131.45Z" transform="translate(-111.54 185.27)"/></g><g id="_Group_75" data-name="&lt;Group&gt;"><path class="cls-1" d="M197.16-113.37l-2-1.94a1.89,1.89,0,0,0-.74-0.52,2.59,2.59,0,0,0-1,0,7.22,7.22,0,0,1-2.8-.55,6.41,6.41,0,0,0-2.81-.47,2.28,2.28,0,0,0-2,1.74,1.05,1.05,0,0,1-.3.83,0.77,0.77,0,0,1-.57,0c-0.84-.21-1.66-0.54-2.51-0.68a3.39,3.39,0,0,0-2.5.43,1.84,1.84,0,0,0-.66,2.28,2.56,2.56,0,0,0,.76.77,11.32,11.32,0,0,0,2.27,1.28,2.13,2.13,0,0,0,1.78.14,4.31,4.31,0,0,0,1.12-1.37,2.59,2.59,0,0,1,2.77-.84c1,0.33,1.78,1.27,2.82,1.31a5.74,5.74,0,0,0,1.66-.38,1.65,1.65,0,0,1,1.61.26,3.17,3.17,0,0,1,.51,1.32,2.73,2.73,0,0,0,3.81,1.47,2.73,2.73,0,0,0,.6-4c-0.81-.88-2.17-1.14-2.86-2.12" transform="translate(-111.54 185.27)"/></g><g id="_Group_76" data-name="&lt;Group&gt;"><path class="cls-3" d="M169.08-123.67a4.93,4.93,0,0,1,1.85-2.52c0.46-.22,1-0.31,1.43-0.55A4.62,4.62,0,0,0,174-128.9c0.16-.32.91-1.39,0.72-1.69s-0.49-.18-1.1.35c-1.17,1-3.23.09-4.13,1.35a9.42,9.42,0,0,1-1.4,2.1c-0.78.64-1.9,0.62-2.81,1-1.79.84-2.35,3.27-1.72,5.14,0.52,1.56,1.68,3,1.55,4.63a5.68,5.68,0,0,1-.74,2.12,19.89,19.89,0,0,0-1.64,3.55,4.94,4.94,0,0,0,.26,3.8c1.43,2.5,5.33,2.55,6.93,5,0.34,0.51.54,1.08,0.84,1.61,1.12,2,3.33,3.18,5.48,4.06a5.92,5.92,0,0,0,3.38.61,2.21,2.21,0,0,0,1.84-2.5,3.23,3.23,0,0,0-.82-1.22l-3.84-4.18c-0.79-.86-1.64-2-1.31-3.08,0.17-.57.64-1.14,0.42-1.69a1.23,1.23,0,0,0-1.08-.63,5.84,5.84,0,0,1-1.31-.13c-1.41-.47-1.37-2.54-2.41-3.6-0.87-.88-2.39-0.95-3.07-2a3.55,3.55,0,0,1-.39-2c0-2.56,0-5.27,1.41-7.43" transform="translate(-111.54 185.27)"/></g><g id="_Group_77" data-name="&lt;Group&gt;"><path class="cls-4" d="M177.92-96.17c0.31-1.24,1-1,2.25-1.09A22.27,22.27,0,0,1,184-97a8.26,8.26,0,0,0,4.37-.82,10.87,10.87,0,0,1,1.33-.68c1.06-.38,2.26-0.14,3.35-0.41,2-.5,3.3-2.62,5.3-3.12,0.92-.23,1.89-0.09,2.81-0.29a5.35,5.35,0,0,0,3.54-3.22,15.83,15.83,0,0,0,1-4.85l0.2-2.07a10,10,0,0,0,.06-2.1c-0.2-1.76-.43-3.09-1.8-4.22s-1.06-2.24-2-3.42c-0.41-.49-3.54-4.53-4-5s-0.22-1.43,1.24-1.18a12.93,12.93,0,0,1,3.59,1.85c1.67,1.38,1.64,3.85,3.2,5.36s3.34,3.56,3.71,5.7c0.56,3.3.49,5-1.27,9-0.41.92-2.56,3.77-2.68,4.77-0.23,1.83-.28,3.27-1.31,4.8a7.61,7.61,0,0,1-3,3,10.53,10.53,0,0,1-4,.4c-3.17,0-6.24,1.07-9.38,1.54s-6.63.28-9.06-1.76c-0.82-.68-1.51-1.79-1.07-2.76a2,2,0,0,1,1.71-1.06,6,6,0,0,1,2.07.32" transform="translate(-111.54 185.27)"/></g><g id="_Group_78" data-name="&lt;Group&gt;"><path class="cls-1" d="M189.77-102.53l-1,3.65a4.89,4.89,0,0,1-.54,1.43,3.22,3.22,0,0,1-3.47,1.14,7.75,7.75,0,0,0-1.74-.41,8.64,8.64,0,0,0-1.29.19,4.89,4.89,0,0,1-5-3.53,6.44,6.44,0,0,0-.67-1.84,6.6,6.6,0,0,0-1.21-1.12,4.43,4.43,0,0,1-1.53-4.41,1.62,1.62,0,0,1,.49-0.83,5.44,5.44,0,0,1,.71-0.38c0.63-.37,1-1.12,1.59-1.51a3.65,3.65,0,0,1,2.63-.18c1.39,0.26,2.92.59,3.79,1.71s0.87,2.71,1.84,3.71,2.28,1,3.51,1.32c0.82,0.2,1.78.73,1.7,1.58" transform="translate(-111.54 185.27)"/></g><g id="_Group_79" data-name="&lt;Group&gt;"><path class="cls-2" d="M183.86-110.41c0.69-.1.46-0.88,0.88-1.41a2.08,2.08,0,0,1,.33-0.31,7.06,7.06,0,0,1,2.2-1.33,3,3,0,0,1,2.55.26c0.47,0.33.8,0.83,1.29,1.13a3.41,3.41,0,0,0,2.49.22,8.19,8.19,0,0,1,2.51-.36,1.89,1.89,0,0,1,1.79,1.51,4.14,4.14,0,0,0,0,1.35,2.41,2.41,0,0,0,1.37.93,3.15,3.15,0,0,1,1.74,2.76,3.34,3.34,0,0,1-1.6,2.78,3,3,0,0,0-.93.68,2.3,2.3,0,0,0-.21,1.49,9.69,9.69,0,0,1-.66,4.09,2.9,2.9,0,0,1-.64,1.07,3.76,3.76,0,0,1-2.27.74,8.55,8.55,0,0,1-3.8-.2c-2-.72-3.3-2.8-5.36-3-0.58-.07-1.17,0-1.74-0.1a3.84,3.84,0,0,1-2.54-2.57c-0.56-1.45-.83-3.22-2.23-4a5,5,0,0,1-1.76-1,2.07,2.07,0,0,1-.24-1.46c0.21-1.83,1.23-3.87,3.14-4.05C181.59-111.43,181.9-110.13,183.86-110.41Z" transform="translate(-111.54 185.27)"/></g><g id="_Group_80" data-name="&lt;Group&gt;"><path class="cls-1" d="M196-113.86a1.28,1.28,0,0,0,1.13-1.15,3.3,3.3,0,0,1,.57-1.63,2,2,0,0,1,.85-0.46,8.13,8.13,0,0,1,3.5-.34c0.7,0.09,1.69.05,1.76-.64a1.53,1.53,0,0,1,0-.47,0.64,0.64,0,0,1,.8-0.18,3.22,3.22,0,0,1,2.06,3.68,4.39,4.39,0,0,0-.28,1.34,3.06,3.06,0,0,0,.32,1,8.16,8.16,0,0,1,.22,5.87,4.24,4.24,0,0,1-1.24,1.94,20.26,20.26,0,0,0-1.89,1.25c-0.57.58-.79,1.44-1.33,2s-0.3.93-2.56,1.85a19.55,19.55,0,0,1-3,.82c-6.38,1.61-2.3-1.72-2.48-2.17-0.45-1.12,2.13-2.8,1.67-3.91a1.75,1.75,0,0,1,.29-1.62,15.51,15.51,0,0,1,1.15-1.28,5.17,5.17,0,0,0,1-1.85,1.55,1.55,0,0,0,0-1.2,2.45,2.45,0,0,0-1.07-.78,3.51,3.51,0,0,1-1.52-1.72l0.32-.38" transform="translate(-111.54 185.27)"/></g><g id="_Group_81" data-name="&lt;Group&gt;"><path class="cls-2" d="M204.49-118.18a0.72,0.72,0,0,0,.07-1c-0.23-.48-1.55-1.31-1.46-1.84a4.32,4.32,0,0,0-1.87-4.21,13.67,13.67,0,0,1-2.51-1.45c-0.46-.46-0.74-1.08-1.17-1.57a6.17,6.17,0,0,0-1.56-1.15c-1.27-.74-2.78-1.51-4.14-0.92a4.74,4.74,0,0,0-1.77,1.65,2.49,2.49,0,0,0-.68,1.66c0.1,0.9,1.1,1.42,1.4,2.27a2.24,2.24,0,0,1-1.26,2.5,9.29,9.29,0,0,1-2.93.7,4,4,0,0,0-2.65,1.32,2.67,2.67,0,0,0-.26,2.54,3.44,3.44,0,0,0,1.84,1.8,2.18,2.18,0,0,0,2.07,0,3.79,3.79,0,0,1,.44-0.31c0.71-.36,1.43.4,2.06,0.88a3.45,3.45,0,0,0,3.79.19,1.31,1.31,0,0,1,.53-0.24c0.78-.07.8,1.28,1.48,1.67s1.4-.36,1.67-1.07a3.19,3.19,0,0,1,1.09-1.92,2.05,2.05,0,0,1,1-.17c0.77,0,1.54,0,2.31,0a3.54,3.54,0,0,0,2.5-1.29" transform="translate(-111.54 185.27)"/></g></g></svg>