<svg id="Layer_1" data-name="Layer 1" xmlns="http://www.w3.org/2000/svg" viewBox="0 0 258.78 100.54"><defs><style>.cls-1{fill:#ffcc08;}.cls-2{fill:#eea820;}.cls-3{fill:#44a84f;}</style></defs><title>y_peppers</title><g id="_Group_" data-name="&lt;Group&gt;"><g id="_Group_2" data-name="&lt;Group&gt;"><path class="cls-1" d="M425.53,596.06c0.52-2.79,1.66-5.66,4-7.27s5.26-1.64,8-1.65l8.41,0a31.87,31.87,0,0,1,4.56.21,16,16,0,0,1,8.79,4.28A6.79,6.79,0,0,1,455,592c-0.72-.18-1.41-0.49-2.12-0.71a21.54,21.54,0,0,0-3.74-.73l-10.25-1.38c-1.57-.21-3.42-0.33-4.49.84s-0.84,3.66-2.3,4.65c-0.85.58-2.27,0.68-2.44,1.7a10.68,10.68,0,0,1,0,1.35,1.26,1.26,0,0,1-.72.72,2.49,2.49,0,0,1-3.42-3" transform="translate(-418.73 -519.2)"/></g><g id="_Group_3" data-name="&lt;Group&gt;"><path class="cls-2" d="M431,595.63c1.23,0.31.64,0.88,0.72,2.14s-0.27,2.52-.25,3.79a2.34,2.34,0,0,0,.51,1.62,2.66,2.66,0,0,0,1.79.6c3.07,0.2,6.15-.2,9.22,0,4.71,0.31,9.3,2,14,1.79,2.26-.11,4.74-0.86,5.81-2.86,1-1.78.47-4-.16-5.87a11.65,11.65,0,0,0-2.86-5.12,2.51,2.51,0,0,0-1-.6,3.33,3.33,0,0,0-1.18,0c-7.16.51-14.2-2.67-21.36-2.14a5.08,5.08,0,0,0-3.25,1.13c-1.24,1.21-1.24,3.36-2.6,4.43a0.92,0.92,0,0,0-.35.38c-0.14.43,0.45,0.7,0.89,0.76" transform="translate(-418.73 -519.2)"/></g><g id="_Group_4" data-name="&lt;Group&gt;"><path class="cls-2" d="M424.46,606.77a2.1,2.1,0,0,0-1.59,1.42,3.59,3.59,0,0,0,0,2.2,7.45,7.45,0,0,0,2.45,3.46,20.19,20.19,0,0,0,3.64,2.27,15.71,15.71,0,0,0,2.29,1,17.76,17.76,0,0,0,3.2.63c1.29,0.18,2.58.38,3.86,0.65a48.81,48.81,0,0,0,6.44,1.26,14.56,14.56,0,0,0,5.14-.55,5.07,5.07,0,0,0,1.66-1.21,0.53,0.53,0,0,0-.3-0.38c-1-.63-3.39,0-4.57-0.15l-11.64-1.35a6.82,6.82,0,0,1-3.86-1.28,5.34,5.34,0,0,1-1.27-1.93,12.57,12.57,0,0,1-.89-3.23,9.17,9.17,0,0,0-.41-2.19A2.1,2.1,0,0,0,427,606" transform="translate(-418.73 -519.2)"/></g><g id="_Group_5" data-name="&lt;Group&gt;"><path class="cls-1" d="M428.43,607.09l1.68-2.39a4.84,4.84,0,0,1,2.07-2,5.31,5.31,0,0,1,2.7,0c3.91,0.64,7.92.41,11.82,1.08,1.66,0.29,3.3.74,5,1a47.25,47.25,0,0,0,6.17.23,4.6,4.6,0,0,1,3.4,1,3.06,3.06,0,0,1,.71,2.43,7.7,7.7,0,0,1-.81,2.47,12.35,12.35,0,0,1-2.81,4.07,13.82,13.82,0,0,1-4.93,2.47,13.24,13.24,0,0,1-4.93.9c-2.13-.14-4.1-1.21-6.21-1.5-1.21-.16-2.45-0.07-3.65-0.28-0.91-.16-2.18.14-3.07-0.07-1.36-.32-2.37-1-3.75-1.24A1.73,1.73,0,0,1,431,615a1.67,1.67,0,0,1-.49-0.69,18,18,0,0,1-1.79-4.55c-0.15-.89-0.19-1.78-0.34-2.67" transform="translate(-418.73 -519.2)"/></g><g id="_Group_6" data-name="&lt;Group&gt;"><path class="cls-1" d="M427.7,605.63l0.11-4a2.77,2.77,0,0,0,0-.72,2.26,2.26,0,0,0-.27-0.62,2.19,2.19,0,0,0-1.3-1.13,1.89,1.89,0,0,0-1.52.45c-1.31,1-1.62,2.85-1.67,4.51a4,4,0,0,0,.34,2.09,1.53,1.53,0,0,0,1.79.8,3.56,3.56,0,0,1,1-.47c0.41,0,.77.31,1.18,0.29a0.71,0.71,0,0,0,.44-1.25" transform="translate(-418.73 -519.2)"/></g><g id="_Group_7" data-name="&lt;Group&gt;"><path class="cls-3" d="M427.6,601.66a23.64,23.64,0,0,0-.34,3.39c0,0.82.24,1.91,1.06,1.94a1.67,1.67,0,0,0,1.25-.92l2.07-3a2.35,2.35,0,0,0,.54-1.83l-0.08-4.21a3.65,3.65,0,0,0-.58-2.33,1.27,1.27,0,0,0-2,.05,7,7,0,0,0-.12,1.3,1.65,1.65,0,0,1-2.16,1,3.82,3.82,0,0,1-1.86-1.85,3.37,3.37,0,0,1-.56-2.31,3,3,0,0,1,1.57-1.82c0.71-.41,1.5-0.69,2.18-1.17a1.07,1.07,0,0,0,.55-1.27,1.14,1.14,0,0,0-.59-0.41,21.92,21.92,0,0,0-3.26-1,1.41,1.41,0,0,0-.9,0,1.39,1.39,0,0,0-.53.54,15.94,15.94,0,0,0-2.42,6.05,2.66,2.66,0,0,0,.09,1.65,2.89,2.89,0,0,0,1,1l3,2c1.1,0.76,2.33,1.76,2.25,3.09" transform="translate(-418.73 -519.2)"/></g></g><g id="_Group_8" data-name="&lt;Group&gt;"><g id="_Group_9" data-name="&lt;Group&gt;"><path class="cls-1" d="M477.65,595.18c-2.34,1.6-5.17,2.83-8,2.31s-4.88-2.56-6.85-4.52l-6-5.93a31.87,31.87,0,0,1-3.08-3.37,16,16,0,0,1-3.19-9.24,6.79,6.79,0,0,1,3.32,2.83c0.38,0.64.65,1.34,1,2a21.54,21.54,0,0,0,2.13,3.16l6.27,8.22c1,1.26,2.19,2.66,3.77,2.58,1.76-.08,3.18-2,4.91-1.66,1,0.19,2.09,1.13,2.93.52a10.68,10.68,0,0,1,.92-1,1.26,1.26,0,0,1,1,0,2.49,2.49,0,0,1,.28,4.56" transform="translate(-418.73 -519.2)"/></g><g id="_Group_10" data-name="&lt;Group&gt;"><path class="cls-2" d="M473.45,591.58c-0.65-1.09.17-1.08,1-2s2-1.6,2.86-2.5a2.34,2.34,0,0,0,.78-1.51,2.66,2.66,0,0,0-.84-1.69c-2-2.31-4.49-4.21-6.52-6.52-3.11-3.55-5.15-8-8.64-11.17-1.67-1.52-4-2.74-6.13-2.09-1.93.58-3.13,2.47-4,4.26a11.65,11.65,0,0,0-1.6,5.65,2.51,2.51,0,0,0,.25,1.1,3.33,3.33,0,0,0,.8.86c5.42,4.7,8.16,11.92,13.59,16.62a5.08,5.08,0,0,0,3.09,1.5c1.73,0,3.25-1.5,5-1.29a0.92,0.92,0,0,0,.52,0c0.4-.2.18-0.81-0.09-1.17" transform="translate(-418.73 -519.2)"/></g><g id="_Group_11" data-name="&lt;Group&gt;"><path class="cls-2" d="M486,588.37a2.1,2.1,0,0,0,2.13.12,3.59,3.59,0,0,0,1.53-1.59,7.45,7.45,0,0,0,.72-4.18,20.19,20.19,0,0,0-1-4.18,15.71,15.71,0,0,0-.89-2.36,17.76,17.76,0,0,0-1.82-2.71c-0.79-1-1.56-2.1-2.27-3.19a48.81,48.81,0,0,0-3.66-5.44,14.56,14.56,0,0,0-4-3.25,5.07,5.07,0,0,0-2-.32,0.53,0.53,0,0,0-.06.48c0.27,1.16,2.39,2.41,3.13,3.33l7.28,9.19a6.82,6.82,0,0,1,1.83,3.64,5.34,5.34,0,0,1-.47,2.26,12.57,12.57,0,0,1-1.66,2.92,9.17,9.17,0,0,0-1.25,1.84,2.1,2.1,0,0,0,.14,2.12" transform="translate(-418.73 -519.2)"/></g><g id="_Group_12" data-name="&lt;Group&gt;"><path class="cls-1" d="M483.4,585.33l-2.88.51a4.84,4.84,0,0,1-2.85-.07,5.31,5.31,0,0,1-1.89-1.92c-2.31-3.21-5.31-5.89-7.59-9.12-1-1.38-1.81-2.85-2.83-4.19a47.25,47.25,0,0,0-4.2-4.53,4.6,4.6,0,0,1-1.72-3.09,3.06,3.06,0,0,1,1.22-2.22,7.7,7.7,0,0,1,2.32-1.17,12.35,12.35,0,0,1,4.87-.89,13.82,13.82,0,0,1,5.23,1.74,13.24,13.24,0,0,1,4.12,2.85c1.41,1.6,2,3.75,3.33,5.45,0.74,1,1.69,1.78,2.39,2.78,0.53,0.75,1.64,1.44,2.12,2.22,0.73,1.19,1,2.38,1.77,3.53a1.73,1.73,0,0,1,.34.69,1.67,1.67,0,0,1-.14.83,18,18,0,0,1-2,4.48c-0.53.74-1.13,1.39-1.65,2.13" transform="translate(-418.73 -519.2)"/></g><g id="_Group_13" data-name="&lt;Group&gt;"><path class="cls-1" d="M482.89,586.88L480,589.64a2.77,2.77,0,0,0-.48.54,2.26,2.26,0,0,0-.24.63,2.19,2.19,0,0,0,.12,1.72,1.89,1.89,0,0,0,1.39.76c1.65,0.2,3.16-.87,4.38-2a4,4,0,0,0,1.24-1.72,1.53,1.53,0,0,0-.7-1.83,3.56,3.56,0,0,1-1-.37c-0.31-.27-0.33-0.77-0.63-1a0.71,0.71,0,0,0-1.19.57" transform="translate(-418.73 -519.2)"/></g><g id="_Group_14" data-name="&lt;Group&gt;"><path class="cls-3" d="M480.16,589.76a23.64,23.64,0,0,0,2.64-2.16c0.6-.57,1.18-1.52.62-2.12a1.67,1.67,0,0,0-1.54-.24l-3.57.64a2.35,2.35,0,0,0-1.67.91l-2.92,3a3.65,3.65,0,0,0-1.24,2.06,1.27,1.27,0,0,0,1.48,1.41,7,7,0,0,0,1-.83,1.65,1.65,0,0,1,2.21.85,3.82,3.82,0,0,1,0,2.63,3.37,3.37,0,0,1-1.24,2,3,3,0,0,1-2.39.18c-0.8-.21-1.55-0.57-2.36-0.71a1.07,1.07,0,0,0-1.29.51,1.14,1.14,0,0,0,.13.71,21.92,21.92,0,0,0,1.58,3,1.41,1.41,0,0,0,.63.64,1.39,1.39,0,0,0,.76,0,15.94,15.94,0,0,0,6-2.57,2.66,2.66,0,0,0,1.1-1.23,2.89,2.89,0,0,0,0-1.43l-0.65-3.54c-0.24-1.31-.4-2.89.6-3.78" transform="translate(-418.73 -519.2)"/></g></g><g id="_Group_15" data-name="&lt;Group&gt;"><g id="_Group_16" data-name="&lt;Group&gt;"><path class="cls-1" d="M510.85,586.83c2.17,1,4.27,2.55,5.08,4.8s0.22,4.64-.37,6.91l-1.77,6.87a26.87,26.87,0,0,1-1.14,3.68,13.53,13.53,0,0,1-5.36,6.26,5.73,5.73,0,0,1,.64-3.62c0.3-.55.7-1,1-1.58a18.16,18.16,0,0,0,1.39-2.9l3.31-8.07c0.51-1.24,1-2.72.27-3.85s-2.8-1.47-3.3-2.86c-0.29-.82-0.07-2-0.87-2.35a9,9,0,0,1-1.11-.25,1.06,1.06,0,0,1-.44-0.74,2.1,2.1,0,0,1,3.19-2.15" transform="translate(-418.73 -519.2)"/></g><g id="_Group_17" data-name="&lt;Group&gt;"><path class="cls-2" d="M510,591.42c-0.52.94-.85,0.34-1.9,0.13s-2-.75-3-1a2,2,0,0,0-1.43.07,2.24,2.24,0,0,0-.87,1.34c-0.81,2.46-1.14,5.06-2,7.52-1.25,3.78-3.62,7.16-4.44,11.05-0.39,1.86-.3,4.05,1.09,5.35,1.25,1.15,3.13,1.23,4.83,1.12a9.82,9.82,0,0,0,4.79-1.24,2.11,2.11,0,0,0,.69-0.65,2.81,2.81,0,0,0,.29-0.95c1.1-5.95,5.19-11,6.29-17a4.28,4.28,0,0,0-.23-2.89c-0.72-1.27-2.48-1.72-3.06-3.06a0.77,0.77,0,0,0-.24-0.37c-0.32-.21-0.67.22-0.81,0.57" transform="translate(-418.73 -519.2)"/></g><g id="_Group_18" data-name="&lt;Group&gt;"><path class="cls-2" d="M502.35,583.67a1.77,1.77,0,0,0-.82-1.6,3,3,0,0,0-1.81-.44,6.28,6.28,0,0,0-3.34,1.26,17,17,0,0,0-2.63,2.48,13.24,13.24,0,0,0-1.34,1.65,15,15,0,0,0-1.2,2.48c-0.42,1-.86,2-1.35,3a41.15,41.15,0,0,0-2.4,5,12.27,12.27,0,0,0-.65,4.31,4.27,4.27,0,0,0,.64,1.61,0.45,0.45,0,0,0,.37-0.16c0.73-.69.73-2.76,1.09-3.7l3.58-9.21a5.75,5.75,0,0,1,1.86-2.88,4.5,4.5,0,0,1,1.85-.62,10.6,10.6,0,0,1,2.83,0,7.73,7.73,0,0,0,1.87.13,1.77,1.77,0,0,0,1.48-1" transform="translate(-418.73 -519.2)"/></g><g id="_Group_19" data-name="&lt;Group&gt;"><path class="cls-1" d="M501.24,586.85l1.6,1.88a4.08,4.08,0,0,1,1.16,2.1,4.48,4.48,0,0,1-.59,2.2c-1.35,3.05-2,6.37-3.39,9.41-0.59,1.3-1.3,2.53-1.84,3.85a39.84,39.84,0,0,0-1.5,5,3.88,3.88,0,0,1-1.52,2.57,2.58,2.58,0,0,1-2.13.06,6.49,6.49,0,0,1-1.84-1.19,10.41,10.41,0,0,1-2.73-3.16,11.65,11.65,0,0,1-1-4.55,11.16,11.16,0,0,1,.32-4.22c0.57-1.71,1.86-3.09,2.54-4.75,0.39-1,.57-2,1-2.92,0.32-.71.35-1.81,0.71-2.49,0.55-1,1.32-1.72,1.81-2.79a1.46,1.46,0,0,1,.36-0.54,1.41,1.41,0,0,1,.66-0.25,15.13,15.13,0,0,1,4.09-.49c0.76,0.07,1.49.23,2.25,0.29" transform="translate(-418.73 -519.2)"/></g><g id="_Group_20" data-name="&lt;Group&gt;"><path class="cls-1" d="M502.59,586.56l3.25,0.94a2.34,2.34,0,0,0,.6.12,1.9,1.9,0,0,0,.56-0.09,1.85,1.85,0,0,0,1.2-.82,1.59,1.59,0,0,0,0-1.33c-0.56-1.28-2-1.93-3.33-2.33a3.38,3.38,0,0,0-1.78-.17,1.29,1.29,0,0,0-1,1.29,3,3,0,0,1,.17.91c-0.07.34-.42,0.57-0.49,0.9a0.6,0.6,0,0,0,.92.62" transform="translate(-418.73 -519.2)"/></g><g id="_Group_21" data-name="&lt;Group&gt;"><path class="cls-3" d="M505.84,587.32a19.93,19.93,0,0,0-2.69-1c-0.67-.19-1.61-0.21-1.81.45a1.41,1.41,0,0,0,.49,1.22l2,2.32a2,2,0,0,0,1.38.83l3.45,0.83a3.08,3.08,0,0,0,2,0,1.07,1.07,0,0,0,.39-1.68,5.89,5.89,0,0,0-1-.38,1.39,1.39,0,0,1-.33-2,3.22,3.22,0,0,1,1.91-1.12,2.84,2.84,0,0,1,2,0,2.55,2.55,0,0,1,1.15,1.66c0.18,0.67.25,1.37,0.49,2a0.9,0.9,0,0,0,.92.72,1,1,0,0,0,.46-0.4,18.48,18.48,0,0,0,1.53-2.44,1.19,1.19,0,0,0,.19-0.73,1.17,1.17,0,0,0-.33-0.55,13.44,13.44,0,0,0-4.42-3.26,2.24,2.24,0,0,0-1.37-.28,2.44,2.44,0,0,0-1,.62l-2.29,2c-0.85.74-1.93,1.53-3,1.17" transform="translate(-418.73 -519.2)"/></g></g><g id="_Group_22" data-name="&lt;Group&gt;"><g id="_Group_23" data-name="&lt;Group&gt;"><path class="cls-1" d="M639.66,591.59c0.52-2.79,1.66-5.66,4-7.27s5.26-1.64,8-1.65l8.41,0a31.87,31.87,0,0,1,4.56.21,16,16,0,0,1,8.79,4.28,6.79,6.79,0,0,1-4.35.35c-0.72-.18-1.41-0.49-2.12-0.71a21.54,21.54,0,0,0-3.74-.73L653,584.65c-1.57-.21-3.42-0.33-4.49.84s-0.84,3.66-2.3,4.65c-0.85.58-2.27,0.68-2.44,1.7a10.68,10.68,0,0,1,0,1.35,1.26,1.26,0,0,1-.72.72,2.49,2.49,0,0,1-3.42-3" transform="translate(-418.73 -519.2)"/></g><g id="_Group_24" data-name="&lt;Group&gt;"><path class="cls-2" d="M645.17,591.16c1.23,0.31.64,0.88,0.72,2.14s-0.27,2.52-.25,3.79a2.34,2.34,0,0,0,.51,1.62,2.66,2.66,0,0,0,1.79.6c3.07,0.2,6.15-.2,9.22,0,4.71,0.31,9.3,2,14,1.79,2.26-.11,4.74-0.86,5.81-2.86,1-1.78.47-4-.16-5.87a11.65,11.65,0,0,0-2.86-5.12,2.51,2.51,0,0,0-1-.6,3.33,3.33,0,0,0-1.18,0c-7.16.51-14.2-2.67-21.36-2.14a5.08,5.08,0,0,0-3.25,1.13c-1.24,1.21-1.24,3.36-2.6,4.43a0.92,0.92,0,0,0-.35.38c-0.14.43,0.45,0.7,0.89,0.76" transform="translate(-418.73 -519.2)"/></g><g id="_Group_25" data-name="&lt;Group&gt;"><path class="cls-2" d="M638.58,602.29a2.1,2.1,0,0,0-1.59,1.42,3.59,3.59,0,0,0,0,2.2,7.45,7.45,0,0,0,2.45,3.46,20.19,20.19,0,0,0,3.64,2.27,15.71,15.71,0,0,0,2.29,1,17.76,17.76,0,0,0,3.2.63c1.29,0.18,2.58.38,3.86,0.65a48.81,48.81,0,0,0,6.44,1.26,14.56,14.56,0,0,0,5.14-.55,5.07,5.07,0,0,0,1.66-1.21,0.53,0.53,0,0,0-.3-0.38c-1-.63-3.39,0-4.57-0.15l-11.64-1.35a6.82,6.82,0,0,1-3.86-1.28,5.34,5.34,0,0,1-1.27-1.93,12.57,12.57,0,0,1-.89-3.23,9.17,9.17,0,0,0-.41-2.19,2.1,2.1,0,0,0-1.6-1.4" transform="translate(-418.73 -519.2)"/></g><g id="_Group_26" data-name="&lt;Group&gt;"><path class="cls-1" d="M642.56,602.61l1.68-2.39a4.84,4.84,0,0,1,2.07-2,5.31,5.31,0,0,1,2.7,0c3.91,0.64,7.92.41,11.82,1.08,1.66,0.29,3.3.74,5,1a47.25,47.25,0,0,0,6.17.23,4.6,4.6,0,0,1,3.4,1,3.06,3.06,0,0,1,.71,2.43,7.7,7.7,0,0,1-.81,2.47,12.35,12.35,0,0,1-2.81,4.07,13.82,13.82,0,0,1-4.93,2.47,13.24,13.24,0,0,1-4.93.9c-2.13-.14-4.1-1.21-6.21-1.5-1.21-.16-2.45-0.07-3.65-0.28-0.91-.16-2.18.14-3.07-0.07-1.36-.32-2.37-1-3.75-1.24a1.73,1.73,0,0,1-.73-0.25,1.67,1.67,0,0,1-.49-0.69,18,18,0,0,1-1.79-4.55c-0.15-.89-0.19-1.78-0.34-2.67" transform="translate(-418.73 -519.2)"/></g><g id="_Group_27" data-name="&lt;Group&gt;"><path class="cls-1" d="M641.82,601.15l0.11-4a2.77,2.77,0,0,0,0-.72,2.26,2.26,0,0,0-.27-0.62,2.19,2.19,0,0,0-1.3-1.13,1.89,1.89,0,0,0-1.52.45c-1.31,1-1.62,2.85-1.67,4.51a4,4,0,0,0,.34,2.09,1.53,1.53,0,0,0,1.79.8,3.56,3.56,0,0,1,1-.47c0.41,0,.77.31,1.18,0.29a0.71,0.71,0,0,0,.44-1.25" transform="translate(-418.73 -519.2)"/></g><g id="_Group_28" data-name="&lt;Group&gt;"><path class="cls-3" d="M641.72,597.19a23.64,23.64,0,0,0-.34,3.39c0,0.82.24,1.91,1.06,1.94a1.67,1.67,0,0,0,1.25-.92l2.07-3a2.35,2.35,0,0,0,.54-1.83l-0.08-4.21a3.65,3.65,0,0,0-.58-2.33,1.27,1.27,0,0,0-2,.05,7,7,0,0,0-.12,1.3,1.65,1.65,0,0,1-2.16,1,3.82,3.82,0,0,1-1.86-1.85,3.37,3.37,0,0,1-.56-2.31,3,3,0,0,1,1.57-1.82c0.71-.41,1.5-0.69,2.18-1.17a1.07,1.07,0,0,0,.55-1.27,1.14,1.14,0,0,0-.59-0.41,21.92,21.92,0,0,0-3.26-1,1.41,1.41,0,0,0-.9,0,1.39,1.39,0,0,0-.53.54,15.94,15.94,0,0,0-2.42,6.05,2.66,2.66,0,0,0,.09,1.65,2.89,2.89,0,0,0,1,1l3,2c1.1,0.76,2.33,1.76,2.25,3.09" transform="translate(-418.73 -519.2)"/></g></g><g id="_Group_29" data-name="&lt;Group&gt;"><g id="_Group_30" data-name="&lt;Group&gt;"><path class="cls-1" d="M641,542.37c2.43,0.79,4.87,2.13,6,4.4s0.86,4.89.55,7.38l-0.95,7.52a28.71,28.71,0,0,1-.71,4.05,14.46,14.46,0,0,1-4.83,7.37,6.12,6.12,0,0,1,.19-3.92c0.25-.62.6-1.2,0.88-1.81a19.41,19.41,0,0,0,1.08-3.26l2.41-9c0.37-1.38.69-3-.24-4.11s-3.17-1.17-3.89-2.59c-0.42-.83-0.35-2.11-1.24-2.37a9.62,9.62,0,0,1-1.21-.12,1.14,1.14,0,0,1-.56-0.73,2.25,2.25,0,0,1,3.09-2.71" transform="translate(-418.73 -519.2)"/></g><g id="_Group_31" data-name="&lt;Group&gt;"><path class="cls-2" d="M640.71,547.34c-0.42,1.06-.86.47-2,0.39s-2.22-.53-3.36-0.66a2.1,2.1,0,0,0-1.51.27,2.4,2.4,0,0,0-.74,1.53c-0.53,2.72-.53,5.52-1.06,8.24-0.81,4.17-2.87,8.08-3.21,12.31-0.16,2,.23,4.34,1.88,5.52,1.48,1.05,3.48.88,5.27,0.54a10.5,10.5,0,0,0,4.91-2,2.26,2.26,0,0,0,.65-0.78,3,3,0,0,0,.17-1c0.36-6.45,4-12.38,4.37-18.84a4.58,4.58,0,0,0-.63-3c-0.94-1.25-2.86-1.49-3.66-2.83a0.83,0.83,0,0,0-.3-0.36c-0.37-.18-0.68.32-0.79,0.71" transform="translate(-418.73 -519.2)"/></g><g id="_Group_32" data-name="&lt;Group&gt;"><path class="cls-2" d="M631.52,540.18a1.89,1.89,0,0,0-1.09-1.58,3.23,3.23,0,0,0-2-.22,6.71,6.71,0,0,0-3.37,1.79,18.19,18.19,0,0,0-2.45,3,14.15,14.15,0,0,0-1.19,1.93,16,16,0,0,0-.93,2.79c-0.31,1.14-.64,2.27-1,3.38a44,44,0,0,0-1.87,5.61,13.12,13.12,0,0,0-.1,4.66,4.56,4.56,0,0,0,.89,1.62,0.48,0.48,0,0,0,.37-0.23c0.68-.83.4-3,0.66-4.07L622,548.6a6.14,6.14,0,0,1,1.59-3.31,4.81,4.81,0,0,1,1.87-.91,11.32,11.32,0,0,1,3-.43,8.26,8.26,0,0,0,2-.12,1.89,1.89,0,0,0,1.43-1.27" transform="translate(-418.73 -519.2)"/></g><g id="_Group_33" data-name="&lt;Group&gt;"><path class="cls-1" d="M630.77,543.69l1.95,1.77a4.36,4.36,0,0,1,1.52,2.07,4.78,4.78,0,0,1-.33,2.41c-1,3.42-1.27,7-2.32,10.44-0.45,1.45-1,2.86-1.43,4.33a42.57,42.57,0,0,0-.92,5.49,4.15,4.15,0,0,1-1.26,2.93,2.76,2.76,0,0,1-2.25.36,6.94,6.94,0,0,1-2.11-1,11.13,11.13,0,0,1-3.32-3,12.45,12.45,0,0,1-1.64-4.69,11.93,11.93,0,0,1-.23-4.51c0.37-1.89,1.55-3.52,2.05-5.38,0.29-1.06.34-2.18,0.67-3.23,0.25-.79.12-2,0.41-2.74,0.44-1.18,1.17-2,1.54-3.2a1.56,1.56,0,0,1,.31-0.62,1.51,1.51,0,0,1,.67-0.36,16.17,16.17,0,0,1,4.27-1.07c0.82,0,1.61,0,2.43,0" transform="translate(-418.73 -519.2)"/></g><g id="_Group_34" data-name="&lt;Group&gt;"><path class="cls-1" d="M632.16,543.2l3.57,0.56a2.5,2.5,0,0,0,.65,0,2,2,0,0,0,.58-0.17,2,2,0,0,0,1.16-1,1.7,1.7,0,0,0-.23-1.41c-0.76-1.28-2.37-1.78-3.84-2a3.62,3.62,0,0,0-1.91.06,1.38,1.38,0,0,0-.92,1.51,3.2,3.2,0,0,1,.3.94c0,0.37-.36.66-0.4,1a0.64,0.64,0,0,0,1.06.53" transform="translate(-418.73 -519.2)"/></g><g id="_Group_35" data-name="&lt;Group&gt;"><path class="cls-3" d="M635.72,543.57a21.3,21.3,0,0,0-3-.69c-0.73-.11-1.74,0-1.86.73a1.51,1.51,0,0,0,.68,1.23L634,547a2.12,2.12,0,0,0,1.57.69l3.77,0.41a3.29,3.29,0,0,0,2.15-.25,1.14,1.14,0,0,0,.19-1.83,6.3,6.3,0,0,0-1.15-.26,1.48,1.48,0,0,1-.62-2,3.44,3.44,0,0,1,1.87-1.45,3,3,0,0,1,2.13-.24,2.73,2.73,0,0,1,1.45,1.61c0.29,0.69.45,1.42,0.79,2.08a1,1,0,0,0,1.08.64,1,1,0,0,0,.43-0.48,19.75,19.75,0,0,0,1.29-2.79,1.27,1.27,0,0,0,.1-0.8,1.26,1.26,0,0,0-.42-0.54,14.36,14.36,0,0,0-5.13-2.86,2.4,2.4,0,0,0-1.49-.11,2.61,2.61,0,0,0-1,.8L638.82,542c-0.8.9-1.84,1.88-3,1.65" transform="translate(-418.73 -519.2)"/></g></g><g id="_Group_36" data-name="&lt;Group&gt;"><g id="_Group_37" data-name="&lt;Group&gt;"><path class="cls-1" d="M523.16,608.41c1.07,2.63,2.76,5.21,5.38,6.31s5.49,0.54,8.21,0L545,613a31.87,31.87,0,0,0,4.42-1.12,16,16,0,0,0,7.75-6,6.79,6.79,0,0,0-4.33.54c-0.67.33-1.28,0.76-1.93,1.13a21.54,21.54,0,0,1-3.52,1.47l-9.76,3.42c-1.5.53-3.29,1-4.57,0.08s-1.57-3.41-3.19-4.09c-1-.4-2.36-0.21-2.73-1.17a10.68,10.68,0,0,0-.23-1.33,1.26,1.26,0,0,0-.85-0.56,2.49,2.49,0,0,0-2.74,3.65" transform="translate(-418.73 -519.2)"/></g><g id="_Group_38" data-name="&lt;Group&gt;"><path class="cls-2" d="M528.64,607.71c1.14-.56.45-1,0.27-2.24s-0.77-2.42-1-3.66a2.34,2.34,0,0,1,.17-1.69,2.66,2.66,0,0,1,1.63-1c3-.81,6.06-1,9-1.86,4.55-1.25,8.7-3.86,13.36-4.58,2.23-.35,4.82-0.11,6.27,1.62,1.29,1.55,1.26,3.78,1,5.79a11.65,11.65,0,0,1-1.77,5.6,2.51,2.51,0,0,1-.81.78,3.33,3.33,0,0,1-1.14.28c-7.11.94-13.37,5.48-20.48,6.41a5.08,5.08,0,0,1-3.41-.45c-1.46-.93-1.89-3-3.44-3.81a0.92,0.92,0,0,1-.42-0.3c-0.23-.39.3-0.78,0.72-0.93" transform="translate(-418.73 -519.2)"/></g><g id="_Group_39" data-name="&lt;Group&gt;"><path class="cls-2" d="M519.94,598.14a2.1,2.1,0,0,1-1.84-1.07,3.59,3.59,0,0,1-.41-2.17,7.45,7.45,0,0,1,1.7-3.88,20.19,20.19,0,0,1,3.1-3,15.71,15.71,0,0,1,2-1.48,17.76,17.76,0,0,1,3-1.27c1.23-.44,2.45-0.89,3.65-1.41a48.81,48.81,0,0,1,6.05-2.54,14.56,14.56,0,0,1,5.15-.5,5.07,5.07,0,0,1,1.87.85,0.53,0.53,0,0,1-.22.43c-0.86.82-3.32,0.69-4.45,1.07l-11.13,3.68a6.82,6.82,0,0,0-3.53,2,5.34,5.34,0,0,0-.85,2.15,12.57,12.57,0,0,0-.22,3.35,9.17,9.17,0,0,1,0,2.23,2.1,2.1,0,0,1-1.28,1.69" transform="translate(-418.73 -519.2)"/></g><g id="_Group_40" data-name="&lt;Group&gt;"><path class="cls-1" d="M523.77,597l2.12,2a4.84,4.84,0,0,0,2.42,1.5A5.31,5.31,0,0,0,531,600c3.7-1.42,7.67-2,11.36-3.44,1.57-.62,3.08-1.39,4.67-1.95a47.25,47.25,0,0,1,6-1.48,4.6,4.6,0,0,0,3.14-1.64,3.06,3.06,0,0,0,.2-2.52,7.7,7.7,0,0,0-1.3-2.25,12.35,12.35,0,0,0-3.58-3.42,13.82,13.82,0,0,0-5.33-1.42,13.24,13.24,0,0,0-5,.12c-2.06.57-3.77,2-5.78,2.72-1.15.4-2.39,0.56-3.52,1-0.86.34-2.16,0.3-3,.69-1.27.59-2.12,1.46-3.42,2a1.73,1.73,0,0,0-.66.39,1.67,1.67,0,0,0-.34.77,18,18,0,0,0-.83,4.82c0,0.91.18,1.78,0.21,2.68" transform="translate(-418.73 -519.2)"/></g><g id="_Group_41" data-name="&lt;Group&gt;"><path class="cls-1" d="M523.35,598.6l0.92,3.9a2.77,2.77,0,0,1,.1.72,2.26,2.26,0,0,1-.14.66,2.19,2.19,0,0,1-1,1.37,1.89,1.89,0,0,1-1.58-.13c-1.49-.74-2.16-2.47-2.55-4.08a4,4,0,0,1-.09-2.12,1.53,1.53,0,0,1,1.59-1.15,3.56,3.56,0,0,0,1.07.26c0.41-.06.69-0.46,1.1-0.53a0.71,0.71,0,0,1,.68,1.13" transform="translate(-418.73 -519.2)"/></g><g id="_Group_42" data-name="&lt;Group&gt;"><path class="cls-3" d="M524.05,602.5a23.64,23.64,0,0,1-1-3.25c-0.19-.8-0.15-1.92.65-2.11a1.67,1.67,0,0,1,1.42.65l2.63,2.5a2.35,2.35,0,0,1,.9,1.68l0.77,4.14a3.65,3.65,0,0,1-.1,2.4,1.27,1.27,0,0,1-2,.36,7,7,0,0,1-.39-1.25,1.65,1.65,0,0,0-2.31-.51,3.82,3.82,0,0,0-1.45,2.19,3.37,3.37,0,0,0-.08,2.38,3,3,0,0,0,1.9,1.47c0.78,0.26,1.61.37,2.37,0.7a1.07,1.07,0,0,1,.8,1.14,1.14,1.14,0,0,1-.5.52,21.92,21.92,0,0,1-3,1.66,1.41,1.41,0,0,1-.88.18,1.39,1.39,0,0,1-.63-0.42,15.94,15.94,0,0,1-3.59-5.44,2.66,2.66,0,0,1-.24-1.64,2.89,2.89,0,0,1,.8-1.18l2.49-2.6c0.92-1,1.92-2.19,1.57-3.48" transform="translate(-418.73 -519.2)"/></g></g><g id="_Group_43" data-name="&lt;Group&gt;"><g id="_Group_44" data-name="&lt;Group&gt;"><path class="cls-1" d="M565.71,554.32c-1.07-2.63-2.76-5.21-5.38-6.31s-5.49-.54-8.21,0l-8.25,1.68a31.87,31.87,0,0,0-4.42,1.12,16,16,0,0,0-7.75,6,6.79,6.79,0,0,0,4.33-.54c0.67-.33,1.28-0.76,1.93-1.13a21.54,21.54,0,0,1,3.52-1.47l9.76-3.42c1.5-.53,3.29-1,4.57-0.08s1.57,3.41,3.19,4.09c1,0.4,2.36.21,2.73,1.17a10.68,10.68,0,0,0,.23,1.33,1.26,1.26,0,0,0,.85.56,2.49,2.49,0,0,0,2.74-3.65" transform="translate(-418.73 -519.2)"/></g><g id="_Group_45" data-name="&lt;Group&gt;"><path class="cls-2" d="M560.22,555c-1.14.56-.45,1-0.27,2.24s0.77,2.42,1,3.66a2.34,2.34,0,0,1-.17,1.69,2.66,2.66,0,0,1-1.63,1c-3,.81-6.06,1-9,1.86-4.55,1.25-8.7,3.86-13.36,4.58-2.23.35-4.82,0.11-6.27-1.62-1.29-1.55-1.26-3.78-1-5.79a11.65,11.65,0,0,1,1.77-5.6,2.51,2.51,0,0,1,.81-0.78,3.33,3.33,0,0,1,1.14-.28c7.11-.94,13.37-5.48,20.48-6.41a5.08,5.08,0,0,1,3.41.45c1.46,0.93,1.89,3,3.44,3.81a0.92,0.92,0,0,1,.42.3c0.23,0.39-.3.78-0.72,0.93" transform="translate(-418.73 -519.2)"/></g><g id="_Group_46" data-name="&lt;Group&gt;"><path class="cls-2" d="M568.92,564.59a2.1,2.1,0,0,1,1.84,1.07,3.59,3.59,0,0,1,.41,2.17,7.45,7.45,0,0,1-1.7,3.88,20.19,20.19,0,0,1-3.1,3,15.71,15.71,0,0,1-2,1.48,17.76,17.76,0,0,1-3,1.27c-1.23.44-2.45,0.89-3.65,1.41a48.81,48.81,0,0,1-6.05,2.54,14.56,14.56,0,0,1-5.15.5,5.07,5.07,0,0,1-1.87-.85,0.53,0.53,0,0,1,.22-0.43c0.86-.82,3.32-0.69,4.45-1.07l11.13-3.68a6.82,6.82,0,0,0,3.53-2,5.34,5.34,0,0,0,.85-2.15,12.57,12.57,0,0,0,.22-3.35,9.17,9.17,0,0,1,0-2.23,2.1,2.1,0,0,1,1.28-1.69" transform="translate(-418.73 -519.2)"/></g><g id="_Group_47" data-name="&lt;Group&gt;"><path class="cls-1" d="M565.09,565.7l-2.12-2a4.84,4.84,0,0,0-2.42-1.5,5.31,5.31,0,0,0-2.64.56c-3.7,1.42-7.67,2-11.36,3.44-1.57.62-3.08,1.39-4.67,1.95a47.25,47.25,0,0,1-6,1.48,4.6,4.6,0,0,0-3.14,1.64,3.06,3.06,0,0,0-.2,2.52,7.7,7.7,0,0,0,1.3,2.25,12.35,12.35,0,0,0,3.58,3.42,13.82,13.82,0,0,0,5.33,1.42,13.24,13.24,0,0,0,5-.12c2.06-.57,3.77-2,5.78-2.72,1.15-.4,2.39-0.56,3.52-1,0.86-.34,2.16-0.3,3-0.69,1.27-.59,2.12-1.46,3.42-2a1.73,1.73,0,0,0,.66-0.39,1.67,1.67,0,0,0,.34-0.77,18,18,0,0,0,.83-4.82c0-.91-0.18-1.78-0.21-2.68" transform="translate(-418.73 -519.2)"/></g><g id="_Group_48" data-name="&lt;Group&gt;"><path class="cls-1" d="M565.52,564.13l-0.92-3.9a2.77,2.77,0,0,1-.1-0.72,2.26,2.26,0,0,1,.14-0.66,2.19,2.19,0,0,1,1-1.37,1.89,1.89,0,0,1,1.58.13c1.49,0.74,2.16,2.47,2.55,4.08a4,4,0,0,1,.09,2.12,1.53,1.53,0,0,1-1.59,1.15,3.56,3.56,0,0,0-1.07-.26c-0.41.06-.69,0.46-1.1,0.53a0.71,0.71,0,0,1-.68-1.13" transform="translate(-418.73 -519.2)"/></g><g id="_Group_49" data-name="&lt;Group&gt;"><path class="cls-3" d="M564.82,560.22a23.64,23.64,0,0,1,1,3.25c0.19,0.8.15,1.92-.65,2.11a1.67,1.67,0,0,1-1.42-.65l-2.63-2.5a2.35,2.35,0,0,1-.9-1.68l-0.77-4.14a3.65,3.65,0,0,1,.1-2.4,1.27,1.27,0,0,1,2-.36,7,7,0,0,1,.39,1.25,1.65,1.65,0,0,0,2.31.51,3.82,3.82,0,0,0,1.45-2.19,3.37,3.37,0,0,0,.08-2.38,3,3,0,0,0-1.9-1.47c-0.78-.26-1.61-0.37-2.37-0.7a1.07,1.07,0,0,1-.8-1.14,1.14,1.14,0,0,1,.5-0.52,21.92,21.92,0,0,1,3-1.66,1.41,1.41,0,0,1,.88-0.18,1.39,1.39,0,0,1,.63.42,15.94,15.94,0,0,1,3.59,5.44,2.66,2.66,0,0,1,.24,1.64,2.89,2.89,0,0,1-.8,1.18l-2.49,2.6c-0.92,1-1.92,2.19-1.57,3.48" transform="translate(-418.73 -519.2)"/></g></g><g id="_Group_50" data-name="&lt;Group&gt;"><g id="_Group_51" data-name="&lt;Group&gt;"><path class="cls-1" d="M616.13,576.3c2.84,0,5.87.58,7.88,2.58s2.59,4.87,3.11,7.6l1.58,8.26a31.87,31.87,0,0,1,.64,4.52,16,16,0,0,1-2.57,9.43,6.79,6.79,0,0,1-1.15-4.21c0-.74.22-1.47,0.31-2.21a21.54,21.54,0,0,0,0-3.81l-0.54-10.32c-0.08-1.59-.31-3.43-1.66-4.26s-3.75-.15-5-1.4c-0.73-.73-1.09-2.11-2.12-2.08a10.68,10.68,0,0,1-1.32.29,1.26,1.26,0,0,1-.84-0.57,2.49,2.49,0,0,1,2.34-3.93" transform="translate(-418.73 -519.2)"/></g><g id="_Group_52" data-name="&lt;Group&gt;"><path class="cls-2" d="M617.58,581.63c-0.08,1.27-.74.8-2,1.1s-2.53.2-3.77,0.46a2.34,2.34,0,0,0-1.5.8,2.66,2.66,0,0,0-.26,1.87c0.37,3.05,1.34,6,1.71,9.06,0.57,4.68-.26,9.51.84,14.1,0.53,2.2,1.73,4.5,3.88,5.18,1.92,0.61,4-.27,5.74-1.24a11.65,11.65,0,0,0,4.51-3.76,2.51,2.51,0,0,0,.41-1.05A3.33,3.33,0,0,0,627,607c-1.83-6.94,0-14.45-1.85-21.38a5.08,5.08,0,0,0-1.71-3c-1.42-1-3.53-.59-4.83-1.73a0.92,0.92,0,0,0-.44-0.28c-0.45-.06-0.61.57-0.59,1" transform="translate(-418.73 -519.2)"/></g><g id="_Group_53" data-name="&lt;Group&gt;"><path class="cls-2" d="M605.41,577.22a2.1,2.1,0,0,0-1.69-1.3,3.59,3.59,0,0,0-2.16.45,7.45,7.45,0,0,0-2.95,3,20.19,20.19,0,0,0-1.56,4,15.71,15.71,0,0,0-.6,2.45,17.77,17.77,0,0,0,0,3.27c0.06,1.3.11,2.61,0.08,3.92a48.81,48.81,0,0,0,0,6.56,14.56,14.56,0,0,0,1.49,5,5.07,5.07,0,0,0,1.5,1.41,0.53,0.53,0,0,0,.32-0.37c0.43-1.11-.62-3.33-0.7-4.52l-0.83-11.69a6.82,6.82,0,0,1,.54-4,5.34,5.34,0,0,1,1.66-1.6,12.57,12.57,0,0,1,3-1.48,9.17,9.17,0,0,0,2.07-.81,2.1,2.1,0,0,0,1.08-1.83" transform="translate(-418.73 -519.2)"/></g><g id="_Group_54" data-name="&lt;Group&gt;"><path class="cls-1" d="M605.83,581.19l2.66,1.2a4.84,4.84,0,0,1,2.31,1.67,5.31,5.31,0,0,1,.48,2.65c0.09,4,1.07,7.86,1.13,11.81,0,1.69-.11,3.37,0,5.06a47.25,47.25,0,0,0,.91,6.11,4.6,4.6,0,0,1-.32,3.52,3.06,3.06,0,0,1-2.26,1.15,7.7,7.7,0,0,1-2.58-.34,12.35,12.35,0,0,1-4.52-2,13.82,13.82,0,0,1-3.34-4.39,13.24,13.24,0,0,1-1.8-4.68c-0.26-2.12.43-4.25,0.32-6.38-0.06-1.22-.39-2.42-0.4-3.64,0-.92-0.54-2.11-0.5-3,0.06-1.4.54-2.51,0.53-3.91a1.73,1.73,0,0,1,.11-0.76,1.67,1.67,0,0,1,.58-0.61,18,18,0,0,1,4.14-2.6c0.85-.31,1.71-0.51,2.56-0.82" transform="translate(-418.73 -519.2)"/></g><g id="_Group_55" data-name="&lt;Group&gt;"><path class="cls-1" d="M607.13,580.2l4-.63a2.77,2.77,0,0,0,.7-0.18,2.26,2.26,0,0,0,.56-0.38,2.19,2.19,0,0,0,.87-1.49,1.89,1.89,0,0,0-.72-1.41c-1.25-1.09-3.11-1.06-4.74-.81a4,4,0,0,0-2,.72,1.53,1.53,0,0,0-.45,1.91,3.56,3.56,0,0,1,.65.89c0.1,0.4-.16.82-0.07,1.22a0.71,0.71,0,0,0,1.31.2" transform="translate(-418.73 -519.2)"/></g><g id="_Group_56" data-name="&lt;Group&gt;"><path class="cls-3" d="M611,579.37a23.64,23.64,0,0,0-3.39.3c-0.81.13-1.83,0.59-1.71,1.4a1.67,1.67,0,0,0,1.14,1.06l3.31,1.48a2.35,2.35,0,0,0,1.9.19l4.12-.86a3.65,3.65,0,0,0,2.18-1,1.27,1.27,0,0,0-.43-2,7,7,0,0,0-1.3.12,1.65,1.65,0,0,1-1.35-1.95,3.82,3.82,0,0,1,1.48-2.17,3.37,3.37,0,0,1,2.17-1,3,3,0,0,1,2.08,1.2c0.54,0.62,1,1.35,1.55,1.92a1.07,1.07,0,0,0,1.36.31,1.14,1.14,0,0,0,.29-0.66,21.92,21.92,0,0,0,.4-3.39,1.41,1.41,0,0,0-.16-0.88A1.39,1.39,0,0,0,624,573a15.94,15.94,0,0,0-6.39-1.26,2.66,2.66,0,0,0-1.61.4,2.89,2.89,0,0,0-.79,1.19l-1.45,3.29c-0.54,1.22-1.3,2.61-2.62,2.78" transform="translate(-418.73 -519.2)"/></g></g><g id="_Group_57" data-name="&lt;Group&gt;"><g id="_Group_58" data-name="&lt;Group&gt;"><path class="cls-1" d="M577.48,555.94c0.92-2.15,2.34-4.26,4.51-5.14s4.53-.38,6.77.11l6.78,1.48a26.28,26.28,0,0,1,3.63,1,13.24,13.24,0,0,1,6.32,5,5.6,5.6,0,0,1-3.56-.49c-0.55-.28-1-0.64-1.58-1a17.76,17.76,0,0,0-2.88-1.26l-8-2.94c-1.23-.45-2.7-0.88-3.77-0.12s-1.33,2.79-2.68,3.33c-0.79.32-2,.14-2.26,0.94a8.81,8.81,0,0,1-.21,1.09,1,1,0,0,1-.71.45,2.06,2.06,0,0,1-2.22-3" transform="translate(-418.73 -519.2)"/></g><g id="_Group_59" data-name="&lt;Group&gt;"><path class="cls-2" d="M582,556.58c0.93,0.47.36,0.82,0.2,1.85s-0.66,2-.88,3a1.93,1.93,0,0,0,.12,1.4,2.19,2.19,0,0,0,1.34.8c2.43,0.71,5,.93,7.42,1.64,3.74,1.09,7.13,3.28,11,3.93,1.84,0.31,4,.15,5.19-1.26,1.08-1.26,1.09-3.1.92-4.76a9.61,9.61,0,0,0-1.39-4.64,2.07,2.07,0,0,0-.66-0.65,2.75,2.75,0,0,0-.94-0.24c-5.85-.86-11-4.67-16.81-5.53a4.19,4.19,0,0,0-2.82.33c-1.21.75-1.6,2.48-2.88,3.1a0.76,0.76,0,0,0-.35.24c-0.19.32,0.23,0.64,0.58,0.77" transform="translate(-418.73 -519.2)"/></g><g id="_Group_60" data-name="&lt;Group&gt;"><path class="cls-2" d="M574.71,564.37a1.73,1.73,0,0,0-1.53.86,3,3,0,0,0-.36,1.78,6.15,6.15,0,0,0,1.35,3.22,16.65,16.65,0,0,0,2.52,2.48,13,13,0,0,0,1.66,1.25,14.65,14.65,0,0,0,2.47,1.08c1,0.37,2,.77,3,1.21a40.25,40.25,0,0,0,5,2.16,12,12,0,0,0,4.24.48,4.18,4.18,0,0,0,1.55-.68,0.44,0.44,0,0,0-.17-0.36c-0.7-.68-2.73-0.61-3.65-0.93l-9.13-3.16a5.62,5.62,0,0,1-2.88-1.72,4.4,4.4,0,0,1-.68-1.78,10.37,10.37,0,0,1-.14-2.76,7.56,7.56,0,0,0,.06-1.84,1.73,1.73,0,0,0-1-1.41" transform="translate(-418.73 -519.2)"/></g><g id="_Group_61" data-name="&lt;Group&gt;"><path class="cls-1" d="M577.85,565.34l1.78-1.63a4,4,0,0,1,2-1.21,4.38,4.38,0,0,1,2.17.5c3,1.21,6.3,1.74,9.32,3,1.29,0.53,2.52,1.18,3.83,1.66a39,39,0,0,0,4.93,1.29,3.8,3.8,0,0,1,2.57,1.39,2.53,2.53,0,0,1,.14,2.08,6.35,6.35,0,0,1-1.09,1.84,10.19,10.19,0,0,1-3,2.78,11.39,11.39,0,0,1-4.41,1.11A10.92,10.92,0,0,1,592,578c-1.69-.49-3.08-1.71-4.74-2.31-0.95-.35-2-0.49-2.89-0.87-0.7-.29-1.78-0.27-2.46-0.6-1-.5-1.73-1.23-2.8-1.67a1.42,1.42,0,0,1-.54-0.33,1.38,1.38,0,0,1-.27-0.64,14.8,14.8,0,0,1-.63-4c0-.75.17-1.46,0.21-2.21" transform="translate(-418.73 -519.2)"/></g><g id="_Group_62" data-name="&lt;Group&gt;"><path class="cls-1" d="M577.52,564l0.8-3.21a2.29,2.29,0,0,0,.09-0.59,1.86,1.86,0,0,0-.11-0.55,1.81,1.81,0,0,0-.85-1.14,1.56,1.56,0,0,0-1.3.09A4.79,4.79,0,0,0,574,562a3.31,3.31,0,0,0-.1,1.74,1.27,1.27,0,0,0,1.3,1,2.93,2.93,0,0,1,.88-0.2c0.33,0.05.57,0.39,0.9,0.45a0.59,0.59,0,0,0,.57-0.93" transform="translate(-418.73 -519.2)"/></g><g id="_Group_63" data-name="&lt;Group&gt;"><path class="cls-3" d="M578.15,560.82a19.5,19.5,0,0,0-.88,2.67c-0.16.66-.15,1.58,0.51,1.75a1.38,1.38,0,0,0,1.17-.52l2.2-2a1.94,1.94,0,0,0,.76-1.38l0.69-3.4a3,3,0,0,0-.05-2,1,1,0,0,0-1.66-.32,5.76,5.76,0,0,0-.33,1,1.36,1.36,0,0,1-1.91.39,3.15,3.15,0,0,1-1.17-1.82,2.78,2.78,0,0,1,0-2,2.5,2.5,0,0,1,1.58-1.19c0.65-.2,1.33-0.29,2-0.55a0.88,0.88,0,0,0,.67-0.93,0.94,0.94,0,0,0-.4-0.43,18.08,18.08,0,0,0-2.44-1.4,1.17,1.17,0,0,0-.72-0.16,1.15,1.15,0,0,0-.52.34,13.14,13.14,0,0,0-3,4.44,2.19,2.19,0,0,0-.22,1.35,2.39,2.39,0,0,0,.65,1l2,2.17c0.75,0.81,1.56,1.83,1.26,2.89" transform="translate(-418.73 -519.2)"/></g></g><g id="_Group_64" data-name="&lt;Group&gt;"><g id="_Group_65" data-name="&lt;Group&gt;"><path class="cls-1" d="M537,524.8c2.16,0.91,4.27,2.33,5.15,4.5s0.39,4.53-.09,6.77l-1.47,6.78a26.28,26.28,0,0,1-1,3.64,13.24,13.24,0,0,1-5,6.33,5.6,5.6,0,0,1,.48-3.56c0.28-.55.64-1,0.95-1.58a17.76,17.76,0,0,0,1.25-2.89l2.92-8c0.45-1.23.87-2.7,0.11-3.77s-2.8-1.32-3.34-2.67c-0.32-.79-0.15-2-0.94-2.26a8.81,8.81,0,0,1-1.09-.21,1,1,0,0,1-.46-0.71,2.06,2.06,0,0,1,3-2.23" transform="translate(-418.73 -519.2)"/></g><g id="_Group_66" data-name="&lt;Group&gt;"><path class="cls-2" d="M536.36,529.31c-0.47.93-.82,0.36-1.85,0.2s-2-.66-3-0.87a1.93,1.93,0,0,0-1.4.13,2.19,2.19,0,0,0-.8,1.34c-0.7,2.44-.92,5-1.62,7.42-1.08,3.74-3.27,7.13-3.91,11-0.31,1.84-.14,4,1.28,5.19,1.26,1.08,3.11,1.08,4.76.91a9.61,9.61,0,0,0,4.63-1.4,2.07,2.07,0,0,0,.65-0.66,2.75,2.75,0,0,0,.24-0.94c0.85-5.86,4.65-11,5.49-16.83a4.19,4.19,0,0,0-.33-2.81c-0.75-1.21-2.49-1.59-3.11-2.87a0.76,0.76,0,0,0-.24-0.35c-0.32-.19-0.64.24-0.77,0.58" transform="translate(-418.73 -519.2)"/></g><g id="_Group_67" data-name="&lt;Group&gt;"><path class="cls-2" d="M528.56,522a1.73,1.73,0,0,0-.86-1.53,3,3,0,0,0-1.78-.36,6.15,6.15,0,0,0-3.22,1.36,16.65,16.65,0,0,0-2.47,2.53,13,13,0,0,0-1.24,1.66,14.65,14.65,0,0,0-1.07,2.47c-0.37,1-.76,2-1.2,3a40.25,40.25,0,0,0-2.15,5,12,12,0,0,0-.47,4.24,4.18,4.18,0,0,0,.68,1.55,0.44,0.44,0,0,0,.36-0.18c0.68-.7.61-2.73,0.92-3.66l3.14-9.14a5.62,5.62,0,0,1,1.71-2.89,4.4,4.4,0,0,1,1.78-.68,10.37,10.37,0,0,1,2.76-.15,7.56,7.56,0,0,0,1.84.05,1.73,1.73,0,0,0,1.41-1" transform="translate(-418.73 -519.2)"/></g><g id="_Group_68" data-name="&lt;Group&gt;"><path class="cls-1" d="M527.6,525.19l1.63,1.77a4,4,0,0,1,1.22,2,4.38,4.38,0,0,1-.49,2.17c-1.2,3-1.72,6.31-3,9.33-0.52,1.29-1.17,2.53-1.65,3.83a39,39,0,0,0-1.28,4.93,3.8,3.8,0,0,1-1.38,2.57,2.53,2.53,0,0,1-2.08.14,6.35,6.35,0,0,1-1.85-1.09,10.19,10.19,0,0,1-2.79-3,11.39,11.39,0,0,1-1.12-4.41,10.92,10.92,0,0,1,.15-4.13c0.49-1.69,1.7-3.09,2.3-4.74,0.35-.95.48-2,0.87-2.89,0.29-.7.27-1.78,0.6-2.46,0.5-1,1.22-1.73,1.66-2.8a1.42,1.42,0,0,1,.33-0.54,1.38,1.38,0,0,1,.64-0.27,14.8,14.8,0,0,1,4-.64c0.75,0,1.46.16,2.21,0.2" transform="translate(-418.73 -519.2)"/></g><g id="_Group_69" data-name="&lt;Group&gt;"><path class="cls-1" d="M528.9,524.85l3.21,0.8a2.29,2.29,0,0,0,.59.09,1.86,1.86,0,0,0,.55-0.11,1.81,1.81,0,0,0,1.14-.85,1.56,1.56,0,0,0-.09-1.3,4.79,4.79,0,0,0-3.34-2.14,3.31,3.31,0,0,0-1.74-.1,1.27,1.27,0,0,0-1,1.3,2.93,2.93,0,0,1,.2.88c-0.05.33-.39,0.57-0.45,0.9a0.59,0.59,0,0,0,.93.57" transform="translate(-418.73 -519.2)"/></g><g id="_Group_70" data-name="&lt;Group&gt;"><path class="cls-3" d="M532.11,525.47a19.5,19.5,0,0,0-2.67-.87c-0.66-.16-1.58-0.14-1.75.51a1.38,1.38,0,0,0,.52,1.17l2,2.19a1.94,1.94,0,0,0,1.38.76l3.4,0.68a3,3,0,0,0,2-.06,1,1,0,0,0,.32-1.66,5.76,5.76,0,0,0-1-.33,1.36,1.36,0,0,1-.4-1.91,3.15,3.15,0,0,1,1.82-1.17,2.78,2.78,0,0,1,2,0,2.5,2.5,0,0,1,1.19,1.58c0.21,0.65.29,1.33,0.56,2a0.88,0.88,0,0,0,.93.67,0.94,0.94,0,0,0,.43-0.4,18.08,18.08,0,0,0,1.4-2.44,1.17,1.17,0,0,0,.16-0.72,1.15,1.15,0,0,0-.34-0.52,13.14,13.14,0,0,0-4.45-3,2.19,2.19,0,0,0-1.35-.22,2.39,2.39,0,0,0-1,.65l-2.16,2c-0.8.75-1.83,1.57-2.89,1.26" transform="translate(-418.73 -519.2)"/></g></g><g id="_Group_71" data-name="&lt;Group&gt;"><g id="_Group_72" data-name="&lt;Group&gt;"><path class="cls-1" d="M549.48,527.25c0.34-2.32,1.19-4.72,3.07-6.11s4.29-1.51,6.58-1.61l6.93-.28a26.28,26.28,0,0,1,3.76,0,13.24,13.24,0,0,1,7.38,3.25,5.6,5.6,0,0,1-3.57.42c-0.6-.13-1.18-0.36-1.77-0.52a17.76,17.76,0,0,0-3.11-.49l-8.49-.82c-1.3-.13-2.83-0.17-3.68.83s-0.58,3-1.75,3.9c-0.69.51-1.85,0.63-2,1.48a8.81,8.81,0,0,1,.07,1.11,1,1,0,0,1-.57.62,2.06,2.06,0,0,1-2.92-2.39" transform="translate(-418.73 -519.2)"/></g><g id="_Group_73" data-name="&lt;Group&gt;"><path class="cls-2" d="M554,526.73c1,0.22.56,0.7,0.66,1.74s-0.14,2.09-.09,3.13a1.93,1.93,0,0,0,.47,1.32,2.19,2.19,0,0,0,1.5.44c2.53,0.07,5.06-.35,7.59-0.28,3.89,0.11,7.72,1.38,11.6,1,1.86-.16,3.88-0.86,4.7-2.53,0.73-1.49.27-3.28-.31-4.84a9.61,9.61,0,0,0-2.51-4.13,2.07,2.07,0,0,0-.81-0.47,2.75,2.75,0,0,0-1,0c-5.88.64-11.78-1.76-17.67-1.11a4.19,4.19,0,0,0-2.64,1c-1,1-.92,2.81-2,3.73a0.76,0.76,0,0,0-.28.32c-0.1.36,0.39,0.56,0.76,0.6" transform="translate(-418.73 -519.2)"/></g><g id="_Group_74" data-name="&lt;Group&gt;"><path class="cls-2" d="M548.92,536.11a1.73,1.73,0,0,0-1.27,1.22,3,3,0,0,0,.1,1.81,6.15,6.15,0,0,0,2.12,2.78,16.65,16.65,0,0,0,3.07,1.76,13,13,0,0,0,1.92.79,14.65,14.65,0,0,0,2.66.42c1.07,0.11,2.14.23,3.2,0.41a40.25,40.25,0,0,0,5.35.84,12,12,0,0,0,4.22-.61,4.18,4.18,0,0,0,1.33-1.05,0.44,0.44,0,0,0-.26-0.3c-0.85-.49-2.8.1-3.77,0l-9.64-.76a5.62,5.62,0,0,1-3.22-.93,4.4,4.4,0,0,1-1.1-1.55,10.37,10.37,0,0,1-.84-2.64,7.56,7.56,0,0,0-.41-1.79,1.73,1.73,0,0,0-1.36-1.1" transform="translate(-418.73 -519.2)"/></g><g id="_Group_75" data-name="&lt;Group&gt;"><path class="cls-1" d="M552.21,536.25l1.31-2a4,4,0,0,1,1.64-1.68,4.38,4.38,0,0,1,2.22-.07c3.24,0.41,6.54.09,9.77,0.52,1.38,0.18,2.74.5,4.12,0.64a39,39,0,0,0,5.09,0,3.8,3.8,0,0,1,2.83.69,2.53,2.53,0,0,1,.66,2,6.35,6.35,0,0,1-.59,2.06,10.19,10.19,0,0,1-2.19,3.44,11.39,11.39,0,0,1-4,2.18,10.92,10.92,0,0,1-4,.89c-1.76,0-3.41-.87-5.17-1-1-.1-2,0-3-0.12-0.75-.1-1.79.19-2.53,0-1.13-.22-2-0.75-3.13-0.91a1.42,1.42,0,0,1-.61-0.18,1.38,1.38,0,0,1-.42-0.55,14.8,14.8,0,0,1-1.61-3.69c-0.15-.73-0.21-1.46-0.36-2.19" transform="translate(-418.73 -519.2)"/></g><g id="_Group_76" data-name="&lt;Group&gt;"><path class="cls-1" d="M551.56,535.07l0-3.31a2.29,2.29,0,0,0-.06-0.59,1.86,1.86,0,0,0-.24-0.5,1.81,1.81,0,0,0-1.11-.89,1.56,1.56,0,0,0-1.24.42,4.79,4.79,0,0,0-1.24,3.77,3.31,3.31,0,0,0,.34,1.71,1.27,1.27,0,0,0,1.5.6,2.93,2.93,0,0,1,.8-0.42c0.34,0,.65.23,1,0.21a0.59,0.59,0,0,0,.32-1" transform="translate(-418.73 -519.2)"/></g><g id="_Group_77" data-name="&lt;Group&gt;"><path class="cls-3" d="M551.35,531.81a19.5,19.5,0,0,0-.17,2.8c0,0.68.26,1.57,0.94,1.57a1.38,1.38,0,0,0,1-.8l1.61-2.52a1.94,1.94,0,0,0,.39-1.52l-0.19-3.47a3,3,0,0,0-.55-1.9,1,1,0,0,0-1.68.11,5.76,5.76,0,0,0-.06,1.08,1.36,1.36,0,0,1-1.75.86,3.15,3.15,0,0,1-1.59-1.47,2.78,2.78,0,0,1-.53-1.89,2.5,2.5,0,0,1,1.23-1.55c0.58-.36,1.22-0.62,1.76-1a0.88,0.88,0,0,0,.42-1.07,0.94,0.94,0,0,0-.5-0.32,18.08,18.08,0,0,0-2.72-.74,1.17,1.17,0,0,0-.74,0,1.15,1.15,0,0,0-.42.46A13.14,13.14,0,0,0,546,525.5a2.19,2.19,0,0,0,.13,1.36,2.39,2.39,0,0,0,.87.79l2.5,1.59c0.93,0.59,2,1.38,1.95,2.48" transform="translate(-418.73 -519.2)"/></g></g><g id="_Group_78" data-name="&lt;Group&gt;"><g id="_Group_79" data-name="&lt;Group&gt;"><path class="cls-1" d="M616,526.3c2.17,0.87,4.31,2.24,5.24,4.39s0.48,4.52,0,6.77L620,544.28a26.28,26.28,0,0,1-.9,3.66,13.24,13.24,0,0,1-4.86,6.43,5.6,5.6,0,0,1,.41-3.57c0.26-.56.62-1.06,0.92-1.6a17.76,17.76,0,0,0,1.19-2.91l2.76-8.07c0.42-1.24.82-2.72,0-3.77s-2.82-1.27-3.39-2.6c-0.33-.78-0.19-1.95-1-2.24a8.81,8.81,0,0,1-1.1-.18,1,1,0,0,1-.47-0.7,2.06,2.06,0,0,1,3-2.29" transform="translate(-418.73 -519.2)"/></g><g id="_Group_80" data-name="&lt;Group&gt;"><path class="cls-2" d="M615.5,530.83c-0.45.94-.81,0.38-1.85,0.24s-2-.62-3-0.81a1.93,1.93,0,0,0-1.39.16,2.19,2.19,0,0,0-.77,1.35c-0.65,2.45-.82,5-1.47,7.46-1,3.76-3.12,7.2-3.68,11-0.27,1.84-.06,4,1.38,5.16,1.29,1.05,3.13,1,4.78.81a9.61,9.61,0,0,0,4.6-1.49,2.07,2.07,0,0,0,.64-0.68,2.75,2.75,0,0,0,.22-0.94c0.73-5.87,4.43-11.06,5.15-16.94a4.19,4.19,0,0,0-.39-2.81c-0.78-1.2-2.52-1.54-3.17-2.81a0.76,0.76,0,0,0-.25-0.35c-0.32-.18-0.64.25-0.76,0.6" transform="translate(-418.73 -519.2)"/></g><g id="_Group_81" data-name="&lt;Group&gt;"><path class="cls-2" d="M607.54,523.72a1.73,1.73,0,0,0-.89-1.51,3,3,0,0,0-1.79-.32,6.15,6.15,0,0,0-3.19,1.43,16.65,16.65,0,0,0-2.42,2.58,13,13,0,0,0-1.21,1.69,14.65,14.65,0,0,0-1,2.49c-0.35,1-.72,2-1.14,3a40.25,40.25,0,0,0-2,5,12,12,0,0,0-.38,4.25,4.18,4.18,0,0,0,.72,1.54,0.44,0.44,0,0,0,.36-0.18c0.67-.71.55-2.74,0.85-3.67l3-9.2a5.62,5.62,0,0,1,1.65-2.92,4.4,4.4,0,0,1,1.77-.72,10.37,10.37,0,0,1,2.76-.21,7.56,7.56,0,0,0,1.84,0,1.73,1.73,0,0,0,1.39-1.07" transform="translate(-418.73 -519.2)"/></g><g id="_Group_82" data-name="&lt;Group&gt;"><path class="cls-1" d="M606.65,526.89l1.67,1.74a4,4,0,0,1,1.26,2,4.38,4.38,0,0,1-.45,2.18c-1.14,3.06-1.59,6.34-2.76,9.39-0.5,1.3-1.12,2.55-1.57,3.86a39,39,0,0,0-1.18,5,3.8,3.8,0,0,1-1.33,2.6,2.53,2.53,0,0,1-2.08.19,6.35,6.35,0,0,1-1.87-1.05,10.19,10.19,0,0,1-2.85-2.93,11.39,11.39,0,0,1-1.21-4.38,10.92,10.92,0,0,1,.06-4.13c0.45-1.7,1.64-3.12,2.2-4.79,0.33-1,.44-2,0.81-2.91,0.27-.71.23-1.78,0.55-2.48,0.48-1,1.19-1.76,1.6-2.83a1.42,1.42,0,0,1,.32-0.55,1.38,1.38,0,0,1,.63-0.29,14.8,14.8,0,0,1,4-.72c0.75,0,1.47.13,2.21,0.16" transform="translate(-418.73 -519.2)"/></g><g id="_Group_83" data-name="&lt;Group&gt;"><path class="cls-1" d="M607.95,526.53l3.22,0.73a2.29,2.29,0,0,0,.59.08,1.86,1.86,0,0,0,.54-0.12,1.81,1.81,0,0,0,1.12-.87,1.56,1.56,0,0,0-.12-1.3,4.79,4.79,0,0,0-3.38-2.08,3.31,3.31,0,0,0-1.75-.06,1.27,1.27,0,0,0-.93,1.32,2.93,2.93,0,0,1,.22.88c0,0.34-.37.58-0.43,0.91a0.59,0.59,0,0,0,.94.55" transform="translate(-418.73 -519.2)"/></g><g id="_Group_84" data-name="&lt;Group&gt;"><path class="cls-3" d="M611.17,527.08a19.5,19.5,0,0,0-2.69-.81c-0.66-.15-1.58-0.11-1.74.55a1.38,1.38,0,0,0,.55,1.16l2.08,2.15a1.94,1.94,0,0,0,1.39.73l3.42,0.61a3,3,0,0,0,2-.1,1,1,0,0,0,.28-1.66,5.76,5.76,0,0,0-1-.31,1.36,1.36,0,0,1-.44-1.91,3.15,3.15,0,0,1,1.8-1.21,2.78,2.78,0,0,1,2-.09,2.5,2.5,0,0,1,1.22,1.56c0.22,0.64.32,1.33,0.6,1.95a0.88,0.88,0,0,0,.94.65,0.94,0.94,0,0,0,.42-0.41,18.08,18.08,0,0,0,1.35-2.47,1.17,1.17,0,0,0,.14-0.73,1.15,1.15,0,0,0-.35-0.52,13.14,13.14,0,0,0-4.51-2.93,2.19,2.19,0,0,0-1.35-.19,2.39,2.39,0,0,0-1,.67l-2.12,2.07c-0.79.77-1.8,1.6-2.86,1.32" transform="translate(-418.73 -519.2)"/></g></g><g id="_Group_85" data-name="&lt;Group&gt;"><g id="_Group_86" data-name="&lt;Group&gt;"><path class="cls-1" d="M441.7,556.87c2.15,0.92,4.26,2.34,5.14,4.51s0.38,4.53-.11,6.77l-1.48,6.78a26.28,26.28,0,0,1-1,3.63,13.24,13.24,0,0,1-5,6.32,5.6,5.6,0,0,1,.49-3.56c0.28-.55.64-1,1-1.58a17.76,17.76,0,0,0,1.26-2.88l2.94-8c0.45-1.23.88-2.7,0.12-3.77s-2.79-1.33-3.33-2.68c-0.32-.79-0.14-2-0.94-2.26a8.81,8.81,0,0,1-1.09-.21,1,1,0,0,1-.45-0.71,2.06,2.06,0,0,1,3-2.22" transform="translate(-418.73 -519.2)"/></g><g id="_Group_87" data-name="&lt;Group&gt;"><path class="cls-2" d="M441.06,561.38c-0.47.93-.82,0.36-1.85,0.2s-2-.66-3-0.88a1.93,1.93,0,0,0-1.4.12,2.19,2.19,0,0,0-.8,1.34c-0.71,2.43-.93,5-1.64,7.42-1.09,3.74-3.28,7.13-3.93,11-0.31,1.84-.15,4,1.26,5.19,1.26,1.08,3.1,1.09,4.76.92a9.61,9.61,0,0,0,4.64-1.39,2.07,2.07,0,0,0,.65-0.66,2.75,2.75,0,0,0,.24-0.94c0.86-5.85,4.67-11,5.53-16.81a4.19,4.19,0,0,0-.33-2.82c-0.75-1.21-2.48-1.6-3.1-2.88a0.76,0.76,0,0,0-.24-0.35c-0.32-.19-0.64.23-0.77,0.58" transform="translate(-418.73 -519.2)"/></g><g id="_Group_88" data-name="&lt;Group&gt;"><path class="cls-2" d="M433.27,554.1a1.73,1.73,0,0,0-.86-1.53,3,3,0,0,0-1.78-.36,6.15,6.15,0,0,0-3.22,1.35,16.65,16.65,0,0,0-2.48,2.52,13,13,0,0,0-1.25,1.66,14.65,14.65,0,0,0-1.08,2.47c-0.37,1-.77,2-1.21,3a40.25,40.25,0,0,0-2.16,5,12,12,0,0,0-.48,4.24,4.18,4.18,0,0,0,.68,1.55,0.44,0.44,0,0,0,.36-0.17c0.68-.7.61-2.73,0.93-3.65l3.16-9.13a5.62,5.62,0,0,1,1.72-2.88,4.4,4.4,0,0,1,1.78-.68,10.37,10.37,0,0,1,2.76-.14,7.56,7.56,0,0,0,1.84.06,1.73,1.73,0,0,0,1.41-1" transform="translate(-418.73 -519.2)"/></g><g id="_Group_89" data-name="&lt;Group&gt;"><path class="cls-1" d="M432.3,557.24l1.63,1.78a4,4,0,0,1,1.21,2,4.38,4.38,0,0,1-.5,2.17c-1.21,3-1.74,6.3-3,9.32-0.53,1.29-1.18,2.52-1.66,3.83a39,39,0,0,0-1.29,4.93,3.8,3.8,0,0,1-1.39,2.57,2.53,2.53,0,0,1-2.08.14,6.35,6.35,0,0,1-1.84-1.09,10.19,10.19,0,0,1-2.78-3,11.39,11.39,0,0,1-1.11-4.41,10.92,10.92,0,0,1,.16-4.13c0.49-1.69,1.71-3.08,2.31-4.74,0.35-.95.49-2,0.87-2.89,0.29-.7.27-1.78,0.6-2.46,0.5-1,1.23-1.73,1.67-2.8a1.42,1.42,0,0,1,.33-0.54,1.38,1.38,0,0,1,.64-0.27,14.8,14.8,0,0,1,4-.63c0.75,0,1.46.17,2.21,0.21" transform="translate(-418.73 -519.2)"/></g><g id="_Group_90" data-name="&lt;Group&gt;"><path class="cls-1" d="M433.61,556.91l3.21,0.8a2.29,2.29,0,0,0,.59.09,1.86,1.86,0,0,0,.55-0.11,1.81,1.81,0,0,0,1.14-.85,1.56,1.56,0,0,0-.09-1.3,4.79,4.79,0,0,0-3.34-2.15,3.31,3.31,0,0,0-1.74-.1,1.27,1.27,0,0,0-1,1.3,2.93,2.93,0,0,1,.2.88c-0.05.33-.39,0.57-0.45,0.9a0.59,0.59,0,0,0,.93.57" transform="translate(-418.73 -519.2)"/></g><g id="_Group_91" data-name="&lt;Group&gt;"><path class="cls-3" d="M436.82,557.53a19.5,19.5,0,0,0-2.67-.88c-0.66-.16-1.58-0.15-1.75.51a1.38,1.38,0,0,0,.52,1.17l2,2.2a1.94,1.94,0,0,0,1.38.76l3.4,0.69a3,3,0,0,0,2-.05,1,1,0,0,0,.32-1.66,5.76,5.76,0,0,0-1-.33,1.36,1.36,0,0,1-.39-1.91,3.15,3.15,0,0,1,1.82-1.17,2.78,2.78,0,0,1,2,0,2.5,2.5,0,0,1,1.19,1.58c0.2,0.65.29,1.33,0.55,2a0.88,0.88,0,0,0,.93.67,0.94,0.94,0,0,0,.43-0.4,18.08,18.08,0,0,0,1.4-2.44,1.17,1.17,0,0,0,.16-0.72,1.15,1.15,0,0,0-.34-0.52,13.14,13.14,0,0,0-4.44-3,2.19,2.19,0,0,0-1.35-.22,2.39,2.39,0,0,0-1,.65l-2.17,2c-0.81.75-1.83,1.56-2.89,1.26" transform="translate(-418.73 -519.2)"/></g></g><g id="_Group_92" data-name="&lt;Group&gt;"><g id="_Group_93" data-name="&lt;Group&gt;"><path class="cls-1" d="M490.09,553.82c1.11-2.61,2.84-5.17,5.47-6.23s5.49-.46,8.21.13l8.22,1.8a31.87,31.87,0,0,1,4.41,1.19,16,16,0,0,1,7.66,6.07,6.79,6.79,0,0,1-4.32-.6c-0.67-.34-1.27-0.78-1.91-1.16a21.54,21.54,0,0,0-3.5-1.52l-9.71-3.56c-1.49-.55-3.27-1.06-4.57-0.15s-1.61,3.39-3.25,4c-1,.38-2.37.17-2.75,1.14a10.68,10.68,0,0,1-.25,1.32,1.26,1.26,0,0,1-.86.55,2.49,2.49,0,0,1-2.69-3.69" transform="translate(-418.73 -519.2)"/></g><g id="_Group_94" data-name="&lt;Group&gt;"><path class="cls-2" d="M495.57,554.59c1.13,0.57.44,1,.24,2.25s-0.81,2.41-1.07,3.65a2.34,2.34,0,0,0,.15,1.69,2.66,2.66,0,0,0,1.62,1c3,0.86,6,1.13,9,2,4.53,1.32,8.64,4,13.29,4.77,2.23,0.38,4.82.18,6.29-1.53,1.31-1.53,1.32-3.76,1.12-5.77a11.65,11.65,0,0,0-1.69-5.62,2.51,2.51,0,0,0-.8-0.79,3.33,3.33,0,0,0-1.14-.3c-7.1-1-13.29-5.67-20.39-6.7a5.08,5.08,0,0,0-3.41.4c-1.47.91-1.93,3-3.49,3.76a0.92,0.92,0,0,0-.43.3c-0.23.39,0.28,0.78,0.71,0.94" transform="translate(-418.73 -519.2)"/></g><g id="_Group_95" data-name="&lt;Group&gt;"><path class="cls-2" d="M486.73,564a2.1,2.1,0,0,0-1.86,1,3.59,3.59,0,0,0-.44,2.16,7.45,7.45,0,0,0,1.64,3.91,20.19,20.19,0,0,0,3.06,3,15.71,15.71,0,0,0,2,1.51,17.76,17.76,0,0,0,3,1.31c1.22,0.45,2.44.93,3.63,1.47a48.81,48.81,0,0,0,6,2.62,14.56,14.56,0,0,0,5.14.58,5.07,5.07,0,0,0,1.88-.83,0.53,0.53,0,0,0-.21-0.44c-0.85-.83-3.31-0.74-4.43-1.13l-11.08-3.83a6.82,6.82,0,0,1-3.5-2.08,5.34,5.34,0,0,1-.82-2.16,12.57,12.57,0,0,1-.17-3.35,9.17,9.17,0,0,0,.07-2.23,2.1,2.1,0,0,0-1.26-1.71" transform="translate(-418.73 -519.2)"/></g><g id="_Group_96" data-name="&lt;Group&gt;"><path class="cls-1" d="M490.54,565.21l2.15-2a4.84,4.84,0,0,1,2.44-1.47,5.31,5.31,0,0,1,2.63.6c3.68,1.47,7.64,2.11,11.31,3.6,1.56,0.64,3.06,1.43,4.64,2a47.25,47.25,0,0,0,6,1.56,4.6,4.6,0,0,1,3.11,1.68,3.06,3.06,0,0,1,.17,2.53,7.7,7.7,0,0,1-1.33,2.24,12.35,12.35,0,0,1-3.62,3.37,13.82,13.82,0,0,1-5.35,1.34,13.24,13.24,0,0,1-5-.19c-2.05-.6-3.74-2.07-5.74-2.8-1.15-.42-2.38-0.59-3.51-1.06-0.85-.35-2.16-0.33-3-0.73-1.26-.61-2.1-1.49-3.39-2a1.73,1.73,0,0,1-.65-0.4,1.67,1.67,0,0,1-.33-0.78,18,18,0,0,1-.76-4.83c0-.91.2-1.77,0.25-2.68" transform="translate(-418.73 -519.2)"/></g><g id="_Group_97" data-name="&lt;Group&gt;"><path class="cls-1" d="M490.14,563.63l1-3.89a2.77,2.77,0,0,0,.11-0.71,2.26,2.26,0,0,0-.13-0.66,2.19,2.19,0,0,0-1-1.38,1.89,1.89,0,0,0-1.58.11c-1.5.72-2.2,2.44-2.61,4a4,4,0,0,0-.12,2.12,1.53,1.53,0,0,0,1.58,1.17,3.56,3.56,0,0,1,1.07-.24c0.41,0.06.69,0.47,1.09,0.54a0.71,0.71,0,0,0,.7-1.12" transform="translate(-418.73 -519.2)"/></g><g id="_Group_98" data-name="&lt;Group&gt;"><path class="cls-3" d="M490.9,559.74a23.64,23.64,0,0,0-1.06,3.24c-0.2.8-.18,1.92,0.62,2.12a1.67,1.67,0,0,0,1.42-.63l2.66-2.46a2.35,2.35,0,0,0,.92-1.67l0.83-4.13a3.65,3.65,0,0,0-.06-2.4,1.27,1.27,0,0,0-2-.39,7,7,0,0,0-.4,1.25,1.65,1.65,0,0,1-2.32.48,3.82,3.82,0,0,1-1.42-2.21,3.37,3.37,0,0,1,0-2.38,3,3,0,0,1,1.92-1.44c0.79-.25,1.62-0.35,2.38-0.67a1.07,1.07,0,0,0,.82-1.13,1.14,1.14,0,0,0-.49-0.53,21.92,21.92,0,0,0-3-1.7,1.41,1.41,0,0,0-.88-0.2,1.39,1.39,0,0,0-.64.41,15.94,15.94,0,0,0-3.67,5.38,2.66,2.66,0,0,0-.27,1.63,2.89,2.89,0,0,0,.79,1.19l2.45,2.63c0.91,1,1.89,2.22,1.52,3.51" transform="translate(-418.73 -519.2)"/></g></g><g id="_Group_99" data-name="&lt;Group&gt;"><g id="_Group_100" data-name="&lt;Group&gt;"><path class="cls-1" d="M442,531c1.11-2.61,2.84-5.17,5.47-6.23s5.49-.46,8.21.13l8.22,1.8a31.87,31.87,0,0,1,4.41,1.19A16,16,0,0,1,476,534a6.79,6.79,0,0,1-4.32-.6c-0.67-.34-1.27-0.78-1.91-1.16a21.54,21.54,0,0,0-3.5-1.52l-9.71-3.56c-1.49-.55-3.27-1.06-4.57-0.15s-1.61,3.39-3.25,4c-1,.38-2.37.17-2.75,1.14a10.68,10.68,0,0,1-.25,1.32,1.26,1.26,0,0,1-.86.55,2.49,2.49,0,0,1-2.69-3.69" transform="translate(-418.73 -519.2)"/></g><g id="_Group_101" data-name="&lt;Group&gt;"><path class="cls-2" d="M447.48,531.82c1.13,0.57.44,1,.24,2.25s-0.81,2.41-1.07,3.65a2.34,2.34,0,0,0,.15,1.69,2.66,2.66,0,0,0,1.62,1c3,0.86,6,1.13,9,2,4.53,1.32,8.64,4,13.29,4.77,2.23,0.38,4.82.18,6.29-1.53,1.31-1.53,1.32-3.76,1.12-5.77a11.65,11.65,0,0,0-1.69-5.62,2.51,2.51,0,0,0-.8-0.79,3.33,3.33,0,0,0-1.14-.3c-7.1-1-13.29-5.67-20.39-6.7a5.08,5.08,0,0,0-3.41.4c-1.47.91-1.93,3-3.49,3.76a0.92,0.92,0,0,0-.43.3c-0.23.39,0.28,0.78,0.71,0.94" transform="translate(-418.73 -519.2)"/></g><g id="_Group_102" data-name="&lt;Group&gt;"><path class="cls-2" d="M438.65,541.27a2.1,2.1,0,0,0-1.86,1,3.59,3.59,0,0,0-.44,2.16,7.45,7.45,0,0,0,1.64,3.91,20.19,20.19,0,0,0,3.06,3,15.71,15.71,0,0,0,2,1.51,17.76,17.76,0,0,0,3,1.31c1.22,0.45,2.44.93,3.63,1.47a48.81,48.81,0,0,0,6,2.62,14.56,14.56,0,0,0,5.14.58,5.07,5.07,0,0,0,1.88-.83,0.53,0.53,0,0,0-.21-0.44c-0.85-.83-3.31-0.74-4.43-1.13L447,552.64a6.82,6.82,0,0,1-3.5-2.08,5.34,5.34,0,0,1-.82-2.16,12.57,12.57,0,0,1-.17-3.35,9.17,9.17,0,0,0,.07-2.23,2.1,2.1,0,0,0-1.26-1.71" transform="translate(-418.73 -519.2)"/></g><g id="_Group_103" data-name="&lt;Group&gt;"><path class="cls-1" d="M442.46,542.44l2.15-2a4.84,4.84,0,0,1,2.44-1.47,5.31,5.31,0,0,1,2.63.6c3.68,1.47,7.64,2.11,11.31,3.6,1.56,0.64,3.06,1.43,4.64,2a47.25,47.25,0,0,0,6,1.56,4.6,4.6,0,0,1,3.11,1.68,3.06,3.06,0,0,1,.17,2.53,7.7,7.7,0,0,1-1.33,2.24,12.35,12.35,0,0,1-3.62,3.37,13.82,13.82,0,0,1-5.35,1.34,13.24,13.24,0,0,1-5-.19c-2.05-.6-3.74-2.07-5.74-2.8-1.15-.42-2.38-0.59-3.51-1.06-0.85-.35-2.16-0.33-3-0.73-1.26-.61-2.1-1.49-3.39-2a1.73,1.73,0,0,1-.65-0.4,1.67,1.67,0,0,1-.33-0.78,18,18,0,0,1-.76-4.83c0-.91.2-1.77,0.25-2.68" transform="translate(-418.73 -519.2)"/></g><g id="_Group_104" data-name="&lt;Group&gt;"><path class="cls-1" d="M442.06,540.85l1-3.89a2.77,2.77,0,0,0,.11-0.71,2.26,2.26,0,0,0-.13-0.66,2.19,2.19,0,0,0-1-1.38,1.89,1.89,0,0,0-1.58.11c-1.5.72-2.2,2.44-2.61,4a4,4,0,0,0-.12,2.12,1.53,1.53,0,0,0,1.58,1.17,3.56,3.56,0,0,1,1.07-.24c0.41,0.06.69,0.47,1.09,0.54a0.71,0.71,0,0,0,.7-1.12" transform="translate(-418.73 -519.2)"/></g><g id="_Group_105" data-name="&lt;Group&gt;"><path class="cls-3" d="M442.82,537a23.64,23.64,0,0,0-1.06,3.24c-0.2.8-.18,1.92,0.62,2.12a1.67,1.67,0,0,0,1.42-.63l2.66-2.46a2.35,2.35,0,0,0,.92-1.67l0.83-4.13a3.65,3.65,0,0,0-.06-2.4,1.27,1.27,0,0,0-2-.39,7,7,0,0,0-.4,1.25,1.65,1.65,0,0,1-2.32.48,3.82,3.82,0,0,1-1.42-2.21,3.37,3.37,0,0,1,0-2.38,3,3,0,0,1,1.92-1.44c0.79-.25,1.62-0.35,2.38-0.67a1.07,1.07,0,0,0,.82-1.13,1.14,1.14,0,0,0-.49-0.53,21.92,21.92,0,0,0-3-1.7,1.41,1.41,0,0,0-.88-0.2,1.39,1.39,0,0,0-.64.41,15.94,15.94,0,0,0-3.67,5.38,2.66,2.66,0,0,0-.27,1.63,2.89,2.89,0,0,0,.79,1.19l2.45,2.63c0.91,1,1.89,2.22,1.52,3.51" transform="translate(-418.73 -519.2)"/></g></g><g id="_Group_106" data-name="&lt;Group&gt;"><g id="_Group_107" data-name="&lt;Group&gt;"><path class="cls-1" d="M580,586c2.1,0.6,4.23,1.67,5.29,3.58s0.89,4.15.7,6.29l-0.57,6.46a24.55,24.55,0,0,1-.48,3.48,12.37,12.37,0,0,1-3.9,6.44,5.23,5.23,0,0,1,0-3.36c0.19-.54.47-1,0.7-1.57a16.59,16.59,0,0,0,.83-2.82l1.78-7.76c0.27-1.19.5-2.6-.33-3.51s-2.75-.9-3.41-2.09c-0.39-.7-0.36-1.79-1.13-2a8.23,8.23,0,0,1-1-.06,1,1,0,0,1-.5-0.6,1.92,1.92,0,0,1,2.56-2.42" transform="translate(-418.73 -519.2)"/></g><g id="_Group_108" data-name="&lt;Group&gt;"><path class="cls-2" d="M580,590.29c-0.33.92-.72,0.43-1.7,0.4s-1.92-.38-2.89-0.46a1.8,1.8,0,0,0-1.28.28,2.05,2.05,0,0,0-.59,1.33c-0.37,2.34-.28,4.73-0.65,7.07-0.57,3.59-2.2,7-2.35,10.62-0.07,1.74.33,3.7,1.78,4.66,1.3,0.86,3,.64,4.52.29a9,9,0,0,0,4.13-1.83,1.93,1.93,0,0,0,.53-0.69,2.56,2.56,0,0,0,.12-0.9c0.11-5.53,3-10.71,3.14-16.23a3.91,3.91,0,0,0-.63-2.57c-0.84-1-2.49-1.19-3.21-2.31a0.71,0.71,0,0,0-.27-0.3c-0.32-.14-0.57.29-0.65,0.63" transform="translate(-418.73 -519.2)"/></g><g id="_Group_109" data-name="&lt;Group&gt;"><path class="cls-2" d="M571.87,584.46a1.62,1.62,0,0,0-1-1.32,2.76,2.76,0,0,0-1.69-.12,5.74,5.74,0,0,0-2.83,1.63,15.56,15.56,0,0,0-2,2.63,12.1,12.1,0,0,0-1,1.69,13.69,13.69,0,0,0-.71,2.41c-0.23,1-.47,2-0.77,2.92a37.61,37.61,0,0,0-1.42,4.85,11.22,11.22,0,0,0,.06,4,3.9,3.9,0,0,0,.81,1.36,0.41,0.41,0,0,0,.31-0.2c0.55-.73.25-2.6,0.43-3.5L564,592a5.25,5.25,0,0,1,1.25-2.87,4.11,4.11,0,0,1,1.57-.84,9.68,9.68,0,0,1,2.54-.46,7.06,7.06,0,0,0,1.71-.16,1.62,1.62,0,0,0,1.19-1.13" transform="translate(-418.73 -519.2)"/></g><g id="_Group_110" data-name="&lt;Group&gt;"><path class="cls-1" d="M571.35,587.49l1.72,1.45a3.73,3.73,0,0,1,1.36,1.72,4.09,4.09,0,0,1-.2,2.07c-0.77,3-.87,6-1.66,9-0.34,1.26-.8,2.48-1.09,3.74a36.4,36.4,0,0,0-.61,4.72,3.55,3.55,0,0,1-1,2.54,2.36,2.36,0,0,1-1.91.37,5.93,5.93,0,0,1-1.84-.8,9.52,9.52,0,0,1-2.93-2.44,10.65,10.65,0,0,1-1.55-4,10.2,10.2,0,0,1-.34-3.85c0.26-1.62,1.22-3.06,1.59-4.66,0.21-.92.22-1.87,0.47-2.78,0.19-.69,0-1.68.27-2.35,0.34-1,.93-1.75,1.22-2.79a1.33,1.33,0,0,1,.24-0.54,1.29,1.29,0,0,1,.56-0.33,13.83,13.83,0,0,1,3.62-1c0.7-.05,1.38,0,2.07-0.07" transform="translate(-418.73 -519.2)"/></g><g id="_Group_111" data-name="&lt;Group&gt;"><path class="cls-1" d="M572.52,587l3.07,0.37a2.14,2.14,0,0,0,.56,0,1.74,1.74,0,0,0,.49-0.17,1.69,1.69,0,0,0,1-.92,1.46,1.46,0,0,0-.24-1.2,4.47,4.47,0,0,0-3.34-1.6,3.09,3.09,0,0,0-1.63.11,1.18,1.18,0,0,0-.74,1.32,2.74,2.74,0,0,1,.29.8c0,0.32-.29.57-0.31,0.89a0.55,0.55,0,0,0,.93.42" transform="translate(-418.73 -519.2)"/></g><g id="_Group_112" data-name="&lt;Group&gt;"><path class="cls-3" d="M575.57,587.23a18.21,18.21,0,0,0-2.58-.5c-0.63-.07-1.48,0-1.56.68a1.29,1.29,0,0,0,.62,1l2.14,1.8a1.81,1.81,0,0,0,1.37.54l3.23,0.24a2.81,2.81,0,0,0,1.83-.28,1,1,0,0,0,.1-1.57,5.39,5.39,0,0,0-1-.19,1.27,1.27,0,0,1-.59-1.73,2.94,2.94,0,0,1,1.55-1.3,2.59,2.59,0,0,1,1.81-.27,2.33,2.33,0,0,1,1.29,1.33c0.27,0.58.43,1.2,0.74,1.75a0.82,0.82,0,0,0,.94.51,0.88,0.88,0,0,0,.35-0.42,16.89,16.89,0,0,0,1-2.43,1.09,1.09,0,0,0,.06-0.69,1.07,1.07,0,0,0-.38-0.45,12.28,12.28,0,0,0-4.47-2.28,2,2,0,0,0-1.27,0,2.23,2.23,0,0,0-.83.72l-1.77,2.13c-0.66.79-1.51,1.66-2.53,1.51" transform="translate(-418.73 -519.2)"/></g></g></svg>