<?xml version="1.0" encoding="utf-8"?>
<!-- Generator: Adobe Illustrator 16.0.2, SVG Export Plug-In . SVG Version: 6.00 Build 0)  -->
<!DOCTYPE svg PUBLIC "-//W3C//DTD SVG 1.1//EN" "http://www.w3.org/Graphics/SVG/1.1/DTD/svg11.dtd">
<svg version="1.1" id="Layer_1" xmlns="http://www.w3.org/2000/svg" xmlns:xlink="http://www.w3.org/1999/xlink" x="0px" y="0px"
	 width="136.5px" height="35.704px" viewBox="0 0 136.5 35.704" enable-background="new 0 0 136.5 35.704" xml:space="preserve">
<path fill="#A03242" d="M49.1,33.753c19.93-0.301,40.681-0.307,60.61-0.608c1.656-0.025,3.349-0.057,4.906-0.618
	c3.88-1.399,5.881-5.583,7.49-9.382c0.42,2.544,1.567,4.964,3.27,6.899c0.815,0.926,1.844,1.784,3.072,1.9
	c1.229,0.117,2.601-0.826,2.522-2.058c-0.035-0.558-0.345-1.056-0.644-1.527c-0.93-1.465-1.858-2.931-2.789-4.396
	c1.674-0.581,3.426-1.215,4.585-2.553c1.161-1.338,1.44-3.614,0.11-4.782c-0.95-0.835-2.339-0.847-3.564-1.154
	c-1.228-0.309-2.55-1.327-2.261-2.559c0.311-1.318,2.257-1.818,2.39-3.166c-0.367-0.763-1.42-0.972-2.213-0.672
	c-0.791,0.299-1.38,0.963-1.935,1.604c-1.187,1.369-2.374,2.738-3.561,4.108c1.041-3.432-1.135-7.188-4.173-9.095
	c-3.036-1.906-6.733-2.375-10.303-2.72c-17.433-1.688-34.991-1.52-52.496-0.954c-0.686,0.021-4.945-0.171-5.347,0.386
	c-0.319,0.443,3.198,1.308,3.249,1.851c0.97,10.193,0.394,19.343-1.854,29.331"/>
<path fill="#D06728" d="M53.531,33.261c-1.111,1.626-4.229,0.873-5.984-0.02c-1.756-0.894-2.895-2.685-3.567-4.535
	c-1.012-2.78-1.154-5.789-1.285-8.744c-0.126-2.833-0.248-5.709,0.401-8.469c0.306-1.303,0.78-2.558,1.252-3.808
	c0.812-2.15,1.894-4.565,4.095-5.23c1.791-0.541,3.777,0.354,5.009,1.764c1.232,1.409,1.85,3.243,2.342,5.048
	c1.442,5.3,2.053,10.871,1.33,16.316C56.694,28.819,57.47,30.799,53.531,33.261"/>
<path fill="#A03242" d="M27.47,9.338c2.506-0.362,2.626-1.887,6.317-1.066c0.31,0.068,1.607,0.429,1.889,0.574
	c0.199,0.104,1.101,0.867,1.23,1.053c2.849,4.07,1.823,9.919-1.157,13.895c-2.98,3.975-7.503,6.462-11.971,8.634
	c-1.359,0.661-2.765,1.315-4.271,1.432c-1.507,0.115-3.154-0.416-3.974-1.686c-0.342-0.53-0.512-1.244-0.187-1.784
	c0.236-0.393,0.676-0.606,1.079-0.825c3.194-1.739,5.271-4.945,7.213-8.021l4.659-7.381c0.766-1.212-1.021-3.324-0.5-4.66"/>
<path fill="#D06728" d="M3.237,29.623c-0.457-3.269,2.035-5.979,3.734-8.809c1.697-2.83,4.097-5.178,6.659-7.257
	c3.132-2.541,6.638-4.769,10.57-5.661c1.208-0.273,2.505-0.412,3.66,0.035c2.09,0.81,3.063,3.314,2.96,5.552
	c-0.207,4.514-3.638,8.188-7.178,10.993c-4.629,3.67-10.012,6.7-15.892,7.278C5.919,31.935,3.526,31.441,3.237,29.623"/>
</svg>
