<?xml version="1.0" encoding="utf-8"?>
<!-- Generator: Adobe Illustrator 16.0.2, SVG Export Plug-In . SVG Version: 6.00 Build 0)  -->
<!DOCTYPE svg PUBLIC "-//W3C//DTD SVG 1.1//EN" "http://www.w3.org/Graphics/SVG/1.1/DTD/svg11.dtd">
<svg version="1.1" id="Layer_1" xmlns="http://www.w3.org/2000/svg" xmlns:xlink="http://www.w3.org/1999/xlink" x="0px" y="0px"
	 width="64px" height="34.854px" viewBox="0 0 64 34.854" enable-background="new 0 0 64 34.854" xml:space="preserve">
<path fill="#A03242" d="M41.38,3.887c-0.041,1.6-0.084,3.197-0.125,4.797c-0.041,1.526-0.115,3.16-1.025,4.389
	c-0.612,0.826-1.53,1.361-2.422,1.873c-1.94,1.113-3.879,2.227-5.818,3.34c-0.574,0.33-1.162,0.665-1.813,0.791
	c-0.924,0.18-1.867-0.076-2.799-0.21c-5.025-0.718-9.869,2.162-14.935,2.478c-1.974,0.124-4.483-0.635-4.67-2.604
	c-0.12-1.257,0.813-2.342,1.685-3.257c2.823-2.968,5.682-5.965,9.123-8.188s7.572-3.633,11.631-3.078
	c2.359,0.322,4.842,1.274,7.021,0.315c0.811-0.357,1.511-0.962,2.366-1.189c0.856-0.228,1.989,0.146,2.112,1.021"/>
<path fill="#7F1B29" d="M11.103,31.897c-1.995-0.549-4.23-0.56-6.087-1.543c-0.661-0.351-1.834-1.191-1.87-2.027
	C3.133,28.03,3.37,27.841,3.428,27.58c0.06-0.271-0.006-0.51,0.051-0.781c0.11-0.53,0.302-0.969,0.788-1.269
	c0.6-0.368,1.335-0.415,2.038-0.452c-0.365,0.322-0.988-0.062-1.067-0.542c-0.08-0.479,0.182-0.943,0.434-1.358
	c0.598-0.988,1.229-2.01,2.199-2.638c0.172-0.11,0.367-0.212,0.57-0.187c0.162,0.02,0.303,0.117,0.453,0.179
	c0.505,0.209,1.075,0.021,1.607-0.108c0.531-0.128,1.178-0.16,1.537,0.252c0.117,0.136,0.19,0.308,0.324,0.428
	c0.709,0.644,1.471-0.416,1.92-0.829c0.754-0.697,1.717-1.268,2.612-1.768c1.193-0.665,2.468-1.163,3.834-1.302
	c2.366-0.242,4.601,0.219,6.944-0.473c0.75-0.221,1.556-0.443,2.301-0.206c0.871,0.276,1.436,1.104,2.206,1.598
	c1.675,1.073,3.851,0.377,5.831,0.182c1.9-0.188,3.847,0.137,5.583,0.93c1.226,0.56,2.438,1.486,2.682,2.811
	c0.241,1.311-0.571,2.634-1.667,3.39s-2.432,1.062-3.732,1.348c-8.426,1.854-16.894,3.523-25.394,5.006
	C14.032,32.042,12.522,32.288,11.103,31.897"/>
<path fill="#7F1B29" d="M11.222,8.642c2.769-4.64,8.647-7.188,13.927-6.037c1.291,0.282,2.53,0.759,3.763,1.232
	c1.921,0.74,3.844,1.479,5.764,2.218c2.475,0.952,4.991,1.928,7.065,3.579c1.319,1.05,2.51,2.612,2.216,4.273
	c-0.415,2.35-3.318,3.196-5.697,3.398c-2.604,0.223-5.226,0.256-7.836,0.103c-2.17-0.129-4.399-0.409-6.293-1.479
	c-2.498-1.413-4.339-4.15-7.176-4.587c-1.303-0.201-2.668,0.129-3.933-0.238c-1.267-0.366-2.316-1.993-1.443-2.98"/>
<path fill="#7F1B29" d="M61.028,31.683c-5.236,1.331-11.199-1.017-14.123-5.559c-0.717-1.11-1.258-2.323-1.795-3.53l-2.517-5.64
	c-1.08-2.421-2.173-4.89-2.478-7.522c-0.192-1.676,0.068-3.622,1.448-4.592c1.954-1.371,4.608,0.08,6.435,1.616
	c2.002,1.683,3.883,3.509,5.621,5.461c1.446,1.623,2.828,3.396,3.412,5.49c0.771,2.765,0.143,6.004,1.844,8.316
	c0.779,1.061,1.979,1.792,2.617,2.944c0.637,1.153,0.231,3.047-1.084,3.129"/>
</svg>
