<?xml version="1.0" encoding="utf-8"?>
<!-- Generator: Adobe Illustrator 16.0.2, SVG Export Plug-In . SVG Version: 6.00 Build 0)  -->
<!DOCTYPE svg PUBLIC "-//W3C//DTD SVG 1.1//EN" "http://www.w3.org/Graphics/SVG/1.1/DTD/svg11.dtd">
<svg version="1.1" id="Layer_1" xmlns="http://www.w3.org/2000/svg" xmlns:xlink="http://www.w3.org/1999/xlink" x="0px" y="0px"
	 width="98px" height="48.979px" viewBox="0 0 98 48.979" enable-background="new 0 0 98 48.979" xml:space="preserve">
<path fill="#F6BB97" d="M6.02,36.145c-2.279-1.56-3.646-4.364-3.469-7.121c0.245-3.822,13.113-6.898,15.876-9.552
	c3.938-3.78,8.018-7.435,12.455-10.615c4.462-3.2,9.434-5.966,14.881-6.655c2.739-0.346,5.516-0.158,8.27,0.044
	c4.296,0.314,8.63,0.668,12.754,1.917c1.661,0.503,3.275,1.147,4.887,1.793l10.696,4.275c1.939,0.774,4.23,2.067,4.106,4.152
	c-0.071,1.207-0.98,2.18-1.876,2.992c-6.932,6.273-16.078,9.475-25.139,11.779c-9.059,2.305-18.376,3.895-26.948,7.621
	c-2.119,0.921-4.282,1.99-6.593,1.939c-1.168-0.025-2.308-0.341-3.433-0.653c-2.764-0.768-15.583-1.561-17.954-3.174"/>
<path fill="#F47E6F" d="M23.821,42.426c-1.735-0.592-1.928-3.052-1.201-4.735c0.726-1.683,2.036-3.157,2.262-4.977
	c0.083-0.672,0.011-1.359,0.138-2.024c0.345-1.797,2.013-2.993,3.582-3.93c7.371-4.396,28.526-7.276,36.62-10.129
	c1.829-0.645,3.676-1.293,5.6-1.543c2.087-0.271,4.217-0.065,6.298-0.379c2.107-0.317,4.102-1.158,6.188-1.591
	c2.087-0.432,4.429-0.397,6.144,0.869c0.882,0.651,1.521,1.572,2.133,2.482c1.546,2.299,3.072,4.775,3.246,7.54
	c0.258,4.109-2.481,7.732-5.076,10.931c-1.27,1.564-2.55,3.139-4.094,4.433c-2.505,2.098-5.592,3.363-8.676,4.44
	c-4.982,1.74-10.136,3.079-15.396,3.498c-5.133,0.41-23.438-0.093-28.107-2.265c-1.316-0.612-2.59-1.357-4.003-1.689
	c-1.885-0.441-3.924-0.123-5.73-0.818"/>
<path fill="#FFF6DA" d="M90.901,27.113c-14.133,1.726-28.29,3.886-42.47,5.164c-7.368,0.664-14.813,0.359-22.171,1.137
	c-0.605,0.064-0.611,1.021,0,0.955c7.357-0.777,14.802-0.48,22.171-1.137c14.179-1.262,28.339-3.44,42.47-5.164
	C91.504,27.994,91.512,27.039,90.901,27.113"/>
<path fill="#FFF6DA" d="M11.76,30.021c9.916-3.084,17.173-9.512,25.829-14.838c10.561-6.495,24.134-3.134,35.441-0.445
	c0.598,0.142,0.853-0.779,0.254-0.921c-9.868-2.346-22.632-5.701-32.424-1.463c-4.215,1.825-7.847,4.821-11.557,7.47
	c-5.543,3.957-11.255,7.241-17.798,9.276C10.921,29.282,11.171,30.204,11.76,30.021"/>
</svg>
