<?xml version="1.0" encoding="utf-8"?>
<!-- Generator: Adobe Illustrator 16.0.2, SVG Export Plug-In . SVG Version: 6.00 Build 0)  -->
<!DOCTYPE svg PUBLIC "-//W3C//DTD SVG 1.1//EN" "http://www.w3.org/Graphics/SVG/1.1/DTD/svg11.dtd">
<svg version="1.1" id="Layer_1" xmlns="http://www.w3.org/2000/svg" xmlns:xlink="http://www.w3.org/1999/xlink" x="0px" y="0px"
	 width="72.5px" height="47.5px" viewBox="0 0 72.5 47.5" enable-background="new 0 0 72.5 47.5" xml:space="preserve">
<path fill="#B72027" d="M2.494,35.742c0.566,3.218,0.034,2.65,2.27,5.034c0.836,0.893,4.311,1.599,5.513,1.827
	c1.462,0.279,2.837,0.375,3.913-0.655c1.075-1.028,0.998-1.324,1.538-0.237c-0.415,2.171,0.04-0.496,0,0
	c-0.038,0.467-0.193,1.263,0.012,1.686c0.275,0.568,0.961,0.786,1.577,0.925c6.433,1.451,13.147,0.519,19.637-0.664
	c1.879-0.342,3.777-0.713,5.507-1.526c1.347-0.634,2.562-1.525,3.922-2.13c2.013-0.896,4.254-1.129,6.349-1.815
	c5.588-1.829,8.638-1.203,12.32-5.787c1.471-1.83,3.357-3.406,4.264-5.572c0.905-2.166,1.166-4.717,0.152-6.834
	c-7.355,1.927-14.863,3.274-22.429,4.027c-0.813,0.081-1.667,0.148-2.41-0.189c-1.936-0.882-1.845-3.691-3.124-5.392
	c-1.164-1.548-3.309-1.971-5.179-2.284c-3.118-0.521-6.268-0.848-9.427-0.935c-1.381-0.037-2.78-0.006-4.086,0.431
	c-2.486,0.831-4.259,2.986-5.858,5.063c-2.326,3.017-4.701,6.456-4.398,10.253c0.033,0.418,0.097,0.858-0.073,1.241
	c-0.131,0.292-0.38,0.511-0.63,0.71c-2.565,2.046-6.084,0.797-9.334,0.336"/>
<path fill="#F47E6F" d="M5.529,37.553c1.098,0.764,1.659,0.948,3.018,0.874c1.336-0.072,2.795-0.853,3.797-1.739
	c1.111-0.982,1.339-2.593,1.668-4.04c1.123-4.938,4.287-9.378,8.587-12.051c4.3-2.674,9.683-3.547,14.607-2.37
	c0.274,0.066,0.56,0.145,0.769,0.335c0.284,0.26,0.366,0.672,0.403,1.057c0.444,4.601-3.208,8.666-7.271,10.872
	c-4.063,2.204-8.698,3.203-12.732,5.462c-0.894,0.5-1.781,1.088-2.324,1.954c-0.543,0.868-0.653,2.08-0.012,2.879
	c0.481,0.601,1.268,0.853,2.015,1.039c6.325,1.572,13.077,0.539,19.17-1.772c6.094-2.313,11.637-5.847,17.092-9.412
	c3.11-2.033,6.208-4.084,9.293-6.153c1.979-1.326,4.024-2.739,5.17-4.827c0.849-1.547,1.127-3.334,1.316-5.088
	c0.174-1.614,0.276-3.296-0.291-4.817c-1.327-3.561-5.604-4.865-9.331-5.603c-4.204-0.83-8.432-1.535-12.678-2.115
	c-2.96-0.404-5.956-0.747-8.931-0.472c-3.062,0.283-6.024,1.215-8.919,2.254c-2.933,1.055-5.831,2.229-8.558,3.738
	C12.374,12.549,5.522,21.303,2.843,31.251c-0.297,1.1-0.541,2.29-0.148,3.359C3.087,35.681,1.963,35.656,5.529,37.553"/>
</svg>
