<?xml version="1.0" encoding="utf-8"?>
<!-- Generator: Adobe Illustrator 16.0.2, SVG Export Plug-In . SVG Version: 6.00 Build 0)  -->
<!DOCTYPE svg PUBLIC "-//W3C//DTD SVG 1.1//EN" "http://www.w3.org/Graphics/SVG/1.1/DTD/svg11.dtd">
<svg version="1.1" id="Layer_1" xmlns="http://www.w3.org/2000/svg" xmlns:xlink="http://www.w3.org/1999/xlink" x="0px" y="0px"
	 width="92px" height="47.5px" viewBox="0 0 92 47.5" enable-background="new 0 0 92 47.5" xml:space="preserve">
<path fill="#C9A877" d="M8.499,8.338c3.89-2.862,8.6-4.6,13.416-4.949c1.774-0.129,3.566-0.075,5.319-0.377
	c1.531-0.265,3.022-0.798,4.576-0.856c1.641-0.062,3.251,0.41,4.804,0.942c8.517,2.916,16.354,7.795,22.729,14.149
	c2.946,2.937,5.706,6.271,9.513,7.948c2.59,1.143,5.554,1.419,8.312,0.776c1.734-0.405,3.368-1.156,5.077-1.657
	c2.331-0.683,4.798-0.896,7.211-0.617c0.349,0.04,0.797,0.207,0.765,0.558c-0.016,0.171-0.152,0.303-0.28,0.417
	c-1.402,1.247-2.901,2.386-4.481,3.398c0.127,0.793-0.71,1.575-1.492,1.396c0.608,0.749-0.04,1.965-0.955,2.269
	c-0.914,0.304-1.908-0.004-2.823-0.311c1.521,0.256,2.953,1.007,4.028,2.11c-0.651,0.251-0.862,1.129-0.621,1.785
	c0.242,0.656,0.8,1.136,1.336,1.586l-1.245,0.439c1.157,0.557,1.966,1.777,2.025,3.062c0.661,0.703,1.148,1.568,1.406,2.497
	c-0.456-0.225-1.044-0.149-1.429,0.184c0.403,0.483,0.807,0.968,1.21,1.451c-0.859,0.307-1.77-0.228-2.525-0.737
	c-4.073-2.751-8.154-5.507-11.939-8.642c-0.966-0.799-1.923-1.63-3.036-2.202c-2.76-1.418-6.104-1.062-9.079-0.186
	c-1.832,0.538-3.609,1.259-5.464,1.71c-2.076,0.505-4.219,0.666-6.349,0.824c-3.477,0.259-6.971,0.518-10.447,0.25
	C25.386,34.58,14.335,26.806,4.586,18.65c-0.784-0.656-1.601-1.369-1.917-2.342c-0.551-1.701,0.507-3.66,2.011-4.628
	C6.689,10.388,7.639,8.728,8.499,8.338"/>
<path fill="#FFF6DA" d="M3.009,13.084c2.112,1.056,4.224,2.113,6.336,3.169c0.35,0.175,0.75,0.425,0.758,0.816
	c-0.566,0.376-1.321,0.189-1.967-0.021c-1.984-0.646-3.931-1.406-5.83-2.271c-0.093-0.042-0.194-0.093-0.239-0.185
	c-0.05-0.104-0.014-0.228,0.023-0.338c0.104-0.308,0.215-0.627,0.439-0.863c0.225-0.235,0.598-0.363,0.884-0.209"/>
<path fill="#90766D" d="M82.115,31.881c-7.73-0.515-17.075-5.535-23.304-10.142c-2.013-1.489-3.992-3.028-6.098-4.384
	c-4.538-2.919-9.587-4.932-14.601-6.928c-2.136-0.85-4.314-1.71-6.608-1.864c-1.638-0.109-3.277,0.146-4.919,0.205
	c-2.775,0.102-5.57-0.365-8.162-1.364c-1.045-0.403-3.3-1.337-2.946-2.399c0.268-0.802,0.478-0.699,1.313-0.834
	c6.642-1.07,12.178-3.46,18.635-1.571c2.925,0.855,8.841,3.302,11.461,4.858c6.202,3.682,11.966,8.101,17.132,13.133
	c1.723,1.678,3.137,4.031,5.445,4.709c2.893,0.851,4.428,1.212,6.816,0.605c1.799-0.458,3.438-0.829,4.615-1.338
	c2.75-1.185,8.027-2.505,9.324-0.719c0.676,0.933-2.496,2.839-4.366,4.105c-0.116,0.078-0.357,2.443-2.424,1.279
	c-0.498-0.28,1.597,0.263,0.873,1.495c-0.289,0.493-0.896,1.355-2.009,1.252"/>
<path fill="#2F2D37" d="M11.032,9.082c0.044-0.76,1.035-1.008,1.565-1.421c0.154-0.119,0.315-0.241,0.507-0.276
	c0.163-0.028,0.87-0.049,1.032-0.01c0.696,0.169,0.834,0.214,1.53,0.383c0.159,0.038,0.347,0.267,0.444,0.397
	c0.087,0.117,0.093,0.273,0.088,0.42c-0.019,0.5-0.132,1.007-0.407,1.424c-0.354,0.538-0.957,0.887-1.59,1.003
	c-0.634,0.115-1.294,0.013-1.896-0.215c-0.364-0.139-0.72-0.329-0.976-0.622C11.074,9.871,10.931,9.458,11.032,9.082"/>
<path fill="#FFF6DA" d="M12.791,8.968c0.271,0.201,0.622,0.019,0.958,0.052c0.335,0.033,0.723,0.195,0.772,0.528
	c0.046,0.304-0.242,0.577-0.547,0.63c-0.304,0.052-0.609-0.054-0.899-0.159c-0.266-0.095-0.531-0.191-0.776-0.33
	c-0.063-0.035-0.125-0.075-0.165-0.135c-0.1-0.149-0.012-0.365,0.138-0.464C12.423,8.991,12.61,8.978,12.791,8.968"/>
<path fill="#90766D" d="M22.272,5.383c0.753-0.052,1.348,0.688,1.513,1.424c0.164,0.737,0.044,1.509,0.133,2.259
	c0.112,0.938,0.551,1.823,0.599,2.768c0.039,0.754-0.174,1.496-0.427,2.207c-1.725,4.853-5.503,8.939-10.207,11.038
	c1.644,0.609,3.353-0.618,4.648-1.797c3.463-3.151,6.917-7.001,7.086-11.681c0.041-1.113-0.112-2.227-0.318-3.322
	c-0.162-0.865-0.368-1.747-0.868-2.473c-0.499-0.724-1.356-1.264-2.229-1.147C21.44,4.875,20.988,4.941,22.272,5.383"/>
<path fill="#90766D" d="M24.063,23.566c4.919,0.995,10.346-1.554,12.72-5.976c0.071-0.132,0.143-0.279,0.113-0.426
	c-0.081-0.42-0.713-0.315-1.086-0.104c-2.592,1.469-5.385,2.994-8.355,2.759c4.108-1.386,5.685-6.726,9.652-8.473
	c0.723-0.318,1.537-0.526,2.071-1.107s0.538-1.725-0.206-1.989c-0.165-0.06-0.345-0.066-0.52-0.066
	c-3.063,0.001-5.756,2.023-7.854,4.257c-2.099,2.234-3.907,4.809-6.46,6.503c0.692,0.227,1.391,0.569,1.791,1.178
	c0.399,0.608,0.38,1.538-0.207,1.97c-0.386,0.283-0.901,0.292-1.36,0.429c-0.458,0.137-0.931,0.545-0.815,1.009
	c0.238,0.115,1.121-0.088,0.717,0.346"/>
</svg>
