<?xml version="1.0" encoding="utf-8"?>
<!-- Generator: Adobe Illustrator 16.0.2, SVG Export Plug-In . SVG Version: 6.00 Build 0)  -->
<!DOCTYPE svg PUBLIC "-//W3C//DTD SVG 1.1//EN" "http://www.w3.org/Graphics/SVG/1.1/DTD/svg11.dtd">
<svg version="1.1" id="Layer_1" xmlns="http://www.w3.org/2000/svg" xmlns:xlink="http://www.w3.org/1999/xlink" x="0px" y="0px"
	 width="150px" height="123.953px" viewBox="0 0 150 123.953" enable-background="new 0 0 150 123.953" xml:space="preserve">
<g>
	<path fill="#44A84F" d="M58.479,56.854l0.429,0.541c0.232,0.295,0.73,0.238,0.976,0c0.292-0.285,0.229-0.686,0-0.977l-0.428-0.541
		c-0.233-0.294-0.732-0.239-0.977,0C58.187,56.163,58.25,56.563,58.479,56.854"/>
	<path fill="#44A84F" d="M67.04,52.138c0.394,0.372,0.788,0.744,1.183,1.116c0.646,0.609,1.624-0.365,0.976-0.976
		c-0.395-0.372-0.788-0.744-1.183-1.116C67.369,50.553,66.391,51.527,67.04,52.138"/>
	<path fill="#046937" d="M48.369,51.177c-0.094-0.903-0.149-1.88,0.33-2.65c0.919-1.479,3.197-1.377,4.434-2.603
		c1.039-1.029,1.155-2.822,2.371-3.635c0.328-0.219,0.71-0.344,1.096-0.425c2.213-0.467,4.455,0.455,6.528,1.355
		c6.257,2.72,12.622,5.507,17.775,9.979c2.504,2.173,4.671,4.703,6.771,7.267c1.154,1.408,2.301,2.846,3.094,4.484
		c2.281,4.712,1.294,10.416-0.913,15.162c-0.793,1.701-1.744,3.351-3.034,4.714c-2.612,2.759-6.396,4.122-10.147,4.725
		c-1.521,0.246-3.096,0.379-4.595,0.021c-1.442-0.346-2.736-1.125-4.003-1.895c-2.878-1.747-5.807-3.536-8.003-6.086
		c-2.127-2.47-3.448-5.512-5.101-8.32c-1.716-2.917-3.895-5.904-3.673-9.28C51.299,63.99,48.855,55.818,48.369,51.177"/>
	<path fill="#44A84F" d="M60.708,46.877c0.568,0,0.569-0.884,0-0.884S60.137,46.877,60.708,46.877"/>
	<path fill="#5F3B2E" d="M51.77,46.449c-0.538,0.199-1.132-0.295-1.253-0.855s0.091-1.136,0.314-1.663
		c0.348-0.819,0.764-1.655,1.478-2.187c0.714-0.532,1.807-0.654,2.459-0.049c0.173,0.16,0.31,0.375,0.318,0.611
		c0.007,0.148-0.04,0.295-0.086,0.437c-0.339,1.056-0.733,2.144-1.537,2.908c-0.803,0.764-2.133,1.088-3.032,0.44"/>
	<path fill="#44A84F" d="M59.158,51.038c0.143,0.181,0.285,0.361,0.428,0.541c0.233,0.295,0.731,0.239,0.977,0
		c0.291-0.284,0.229-0.685,0-0.976c-0.144-0.18-0.286-0.36-0.429-0.541c-0.232-0.294-0.731-0.239-0.976,0
		C58.866,50.349,58.927,50.747,59.158,51.038"/>
	<path fill="#44A84F" d="M59.291,57.093c0.888,0,0.889-1.38,0-1.38S58.401,57.093,59.291,57.093"/>
	<path fill="#44A84F" d="M64.9,55.201c0.202,0.135,0.403,0.27,0.605,0.403c0.741,0.495,1.433-0.7,0.697-1.191
		c-0.202-0.134-0.404-0.269-0.606-0.402C64.856,53.516,64.165,54.71,64.9,55.201"/>
	<path fill="#44A84F" d="M73.687,51.568l0.323,0.038c0.372,0.043,0.686-0.349,0.689-0.689c0.004-0.409-0.321-0.647-0.689-0.69
		l-0.323-0.038c-0.373-0.043-0.687,0.349-0.69,0.69C72.993,51.288,73.318,51.525,73.687,51.568"/>
	<path fill="#44A84F" d="M76.55,59.805c0.023,0.274,0.048,0.551,0.072,0.826c0.075,0.878,1.455,0.886,1.38,0
		c-0.024-0.275-0.048-0.552-0.072-0.826C77.854,58.927,76.473,58.918,76.55,59.805"/>
	<path fill="#44A84F" d="M74.738,76.249c0.888,0,0.889-1.38,0-1.38S73.848,76.249,74.738,76.249"/>
	<path fill="#44A84F" d="M69.637,64.959c0.466,0.218,0.931,0.436,1.397,0.653c0.8,0.374,1.501-0.814,0.697-1.19
		c-0.467-0.218-0.933-0.437-1.398-0.654C69.535,63.393,68.833,64.582,69.637,64.959"/>
	<path fill="#44A84F" d="M77.88,68.775c0.144,0.181,0.285,0.361,0.429,0.541c0.232,0.295,0.73,0.239,0.976,0
		c0.292-0.285,0.23-0.685,0-0.976c-0.143-0.181-0.286-0.36-0.428-0.541c-0.233-0.294-0.732-0.239-0.977,0
		C77.588,68.086,77.651,68.484,77.88,68.775"/>
	<path fill="#44A84F" d="M82.764,71.009l-0.038,0.323c-0.043,0.373,0.349,0.687,0.689,0.69c0.409,0.004,0.647-0.321,0.69-0.69
		c0.013-0.107,0.025-0.215,0.038-0.323c0.043-0.372-0.35-0.686-0.69-0.689C83.044,70.315,82.807,70.641,82.764,71.009"/>
	<path fill="#44A84F" d="M83.282,64.787c0.347,0.313,0.692,0.625,1.038,0.938c0.657,0.594,1.636-0.379,0.977-0.977
		c-0.347-0.313-0.692-0.625-1.038-0.938C83.6,63.217,82.621,64.19,83.282,64.787"/>
	<path fill="#44A84F" d="M71.769,58.594c0.045,0.551,0.091,1.103,0.136,1.653c0.07,0.879,1.452,0.886,1.38,0
		c-0.045-0.551-0.09-1.103-0.135-1.653C73.078,57.715,71.698,57.707,71.769,58.594"/>
	<path fill="#44A84F" d="M63.87,62.421c0.084,0.228,0.169,0.454,0.253,0.683c0.307,0.825,1.641,0.468,1.331-0.367
		c-0.084-0.227-0.169-0.455-0.253-0.682C64.893,61.229,63.559,61.586,63.87,62.421"/>
	<path fill="#44A84F" d="M67.352,50.924c0.358,0.206,0.715,0.413,1.073,0.619c0.77,0.444,1.466-0.747,0.696-1.191l-1.073-0.619
		C67.278,49.288,66.583,50.479,67.352,50.924"/>
	<path fill="#44A84F" d="M54.727,53.513c0.034,0.168,0.069,0.336,0.104,0.503c0.182,0.869,1.512,0.501,1.331-0.366
		c-0.035-0.168-0.069-0.336-0.104-0.504C55.875,52.276,54.545,52.645,54.727,53.513"/>
	<path fill="#44A84F" d="M58.384,45.11l2.116,1.549c0.717,0.525,1.406-0.672,0.696-1.191l-2.116-1.549
		C58.364,43.394,57.674,44.59,58.384,45.11"/>
	<path fill="#44A84F" d="M81.836,78.551c0.888,0,0.889-1.381,0-1.381S80.947,78.551,81.836,78.551"/>
	<path fill="#44A84F" d="M89.621,72.437l-0.726,2.045c-0.297,0.839,1.035,1.199,1.331,0.366l0.726-2.044
		C91.249,71.965,89.917,71.604,89.621,72.437"/>
	<path fill="#44A84F" d="M73.125,71.659c0.332,0.421,0.666,0.842,0.998,1.263c0.233,0.294,0.731,0.239,0.976,0
		c0.292-0.286,0.229-0.686,0-0.976c-0.333-0.422-0.665-0.843-0.998-1.264c-0.233-0.294-0.732-0.238-0.976,0
		C72.832,70.969,72.894,71.368,73.125,71.659"/>
	<path fill="#44A84F" d="M62.834,67.192c0.343,0.305,0.556,0.644,0.669,1.089c0.218,0.86,1.55,0.495,1.331-0.367
		c-0.168-0.66-0.515-1.244-1.024-1.698C63.149,65.628,62.169,66.601,62.834,67.192"/>
	<path fill="#44A84F" d="M57.909,62.725c0.07,0.336,0.14,0.671,0.21,1.007c0.182,0.869,1.512,0.501,1.331-0.367
		c-0.069-0.336-0.14-0.671-0.21-1.007C59.058,61.488,57.728,61.856,57.909,62.725"/>
	<path fill="#44A84F" d="M53.4,60.061c0.414,0.678,0.677,1.414,0.747,2.209c0.077,0.878,1.457,0.886,1.38,0
		c-0.091-1.039-0.39-2.013-0.936-2.905C54.129,58.607,52.935,59.3,53.4,60.061"/>
	<path fill="#44A84F" d="M58.039,71.864c0.189,0.239,0.38,0.48,0.57,0.721c0.233,0.295,0.731,0.24,0.976,0
		c0.292-0.285,0.229-0.686,0-0.975c-0.19-0.241-0.38-0.481-0.57-0.723c-0.233-0.294-0.732-0.239-0.976,0
		C57.746,71.174,57.808,71.573,58.039,71.864"/>
	<path fill="#44A84F" d="M64.263,76.029c0.592,0.715,1.283,1.318,2.055,1.831c0.742,0.492,1.434-0.701,0.696-1.191
		c-0.675-0.448-1.258-0.991-1.775-1.615C64.672,74.37,63.7,75.351,64.263,76.029"/>
	<path fill="#44A84F" d="M67.486,73.688c0.603,0.435,1.092,0.988,1.478,1.622c0.46,0.758,1.652,0.065,1.19-0.697
		c-0.512-0.844-1.172-1.539-1.972-2.116C67.462,71.977,66.772,73.173,67.486,73.688"/>
	<path fill="#44A84F" d="M65.628,82.498c0.557,0.344,1.114,0.688,1.672,1.032c0.757,0.468,1.45-0.726,0.695-1.191
		c-0.557-0.344-1.113-0.688-1.672-1.032C65.567,80.839,64.873,82.032,65.628,82.498"/>
	<path fill="#44A84F" d="M70.736,80.804c0.501,0.386,1.001,0.772,1.502,1.158c0.299,0.229,0.771,0.043,0.944-0.248
		c0.212-0.354,0.046-0.718-0.247-0.944c-0.501-0.386-1.002-0.771-1.503-1.156c-0.297-0.23-0.769-0.044-0.944,0.247
		C70.277,80.214,70.442,80.578,70.736,80.804"/>
	<path fill="#44A84F" d="M77.617,83.571c0.312,0.145,0.621,0.291,0.932,0.436c0.8,0.374,1.5-0.814,0.696-1.19
		c-0.31-0.146-0.621-0.291-0.931-0.437C77.514,82.005,76.813,83.194,77.617,83.571"/>
	<path fill="#44A84F" d="M84.382,81.813c0.047,0.061,0.095,0.12,0.143,0.181c0.233,0.295,0.731,0.238,0.976,0
		c0.292-0.285,0.229-0.686,0-0.976c-0.047-0.06-0.095-0.121-0.143-0.181c-0.232-0.294-0.731-0.239-0.976,0
		C84.09,81.123,84.152,81.521,84.382,81.813"/>
	<path fill="#44A84F" d="M81.318,57.553c0.285,0.361,0.571,0.721,0.856,1.082c0.233,0.295,0.73,0.239,0.976,0
		c0.292-0.285,0.23-0.686,0-0.977c-0.286-0.359-0.57-0.721-0.855-1.082c-0.233-0.294-0.732-0.238-0.977,0
		C81.026,56.862,81.088,57.262,81.318,57.553"/>
	<path fill="#44A84F" d="M73.615,87.105l0.428,0.541c0.232,0.295,0.73,0.239,0.976,0c0.292-0.285,0.23-0.685,0-0.976L74.59,86.13
		c-0.233-0.294-0.731-0.239-0.976,0C73.322,86.416,73.384,86.814,73.615,87.105"/>
	<path fill="#44A84F" d="M66.615,60.094c0.189,0.24,0.38,0.481,0.57,0.722c0.233,0.295,0.731,0.24,0.976,0
		c0.292-0.285,0.229-0.686,0-0.976c-0.19-0.24-0.38-0.48-0.57-0.722c-0.232-0.294-0.731-0.239-0.976,0
		C66.323,59.404,66.384,59.803,66.615,60.094"/>
	<path fill="#44A84F" d="M75.624,63.968c0.068,0.336,0.138,0.672,0.207,1.007c0.179,0.87,1.509,0.502,1.331-0.366l-0.207-1.008
		C76.775,62.731,75.444,63.1,75.624,63.968"/>
	<path fill="#44A84F" d="M70.294,55.06c0.25,0.193,0.501,0.387,0.751,0.579c0.298,0.229,0.77,0.043,0.943-0.248
		c0.212-0.353,0.046-0.717-0.247-0.943c-0.251-0.193-0.501-0.387-0.751-0.578c-0.298-0.23-0.77-0.044-0.943,0.247
		C69.835,54.47,70,54.834,70.294,55.06"/>
	<path fill="#44A84F" d="M68.887,71.492c0.284,0.361,0.57,0.721,0.855,1.082c0.233,0.295,0.731,0.239,0.977,0
		c0.292-0.285,0.229-0.686,0-0.977c-0.286-0.359-0.571-0.721-0.856-1.082c-0.232-0.294-0.732-0.238-0.976,0
		C68.595,70.802,68.657,71.201,68.887,71.492"/>
	<path fill="#44A84F" d="M65.078,71.866c0.095,0.12,0.19,0.24,0.285,0.361c0.232,0.294,0.732,0.239,0.976,0
		c0.292-0.286,0.23-0.686,0-0.977l-0.284-0.36c-0.233-0.294-0.732-0.239-0.977,0C64.786,71.177,64.847,71.575,65.078,71.866"/>
	<path fill="#44A84F" d="M77.932,72.547c0.428,0.541,0.855,1.082,1.284,1.623c0.232,0.295,0.731,0.239,0.976,0
		c0.292-0.285,0.23-0.685,0-0.975c-0.428-0.542-0.856-1.083-1.284-1.624c-0.232-0.294-0.731-0.239-0.976,0
		C77.64,71.857,77.702,72.256,77.932,72.547"/>
	<path fill="#44A84F" d="M87.311,65.128l0.713,0.902c0.232,0.294,0.731,0.238,0.976,0c0.292-0.286,0.23-0.686,0-0.977l-0.713-0.902
		c-0.232-0.294-0.732-0.238-0.976,0C87.019,64.438,87.081,64.837,87.311,65.128"/>
	<path fill="#44A84F" d="M62.033,76.914c0.19,0.24,0.381,0.48,0.571,0.721c0.233,0.295,0.731,0.24,0.976,0
		c0.291-0.285,0.229-0.685,0-0.975c-0.19-0.241-0.381-0.481-0.57-0.723c-0.233-0.294-0.732-0.238-0.977,0
		C61.741,76.224,61.803,76.623,62.033,76.914"/>
	<path fill="#44A84F" d="M84.674,74.182c0.023,0.274,0.045,0.551,0.068,0.826c0.07,0.879,1.452,0.887,1.379,0
		c-0.022-0.275-0.045-0.552-0.067-0.826C85.982,73.303,84.602,73.294,84.674,74.182"/>
	<path fill="#44A84F" d="M81.037,86.847c0.721-0.021,1.403-0.229,1.987-0.658c0.707-0.521,0.02-1.719-0.697-1.191
		c-0.392,0.288-0.8,0.455-1.29,0.47C80.151,85.491,80.147,86.872,81.037,86.847"/>
	<path fill="#44A84F" d="M74.726,54.699l0.353,1.187c0.252,0.85,1.584,0.488,1.33-0.367l-0.353-1.187
		C75.803,53.483,74.472,53.845,74.726,54.699"/>
	<path fill="#44A84F" d="M50.069,52.14c0.289,0.472,0.468,0.972,0.507,1.525c0.063,0.881,1.443,0.888,1.381,0
		c-0.058-0.799-0.276-1.537-0.696-2.222C50.797,50.688,49.603,51.379,50.069,52.14"/>
	<path fill="#44A84F" d="M63.583,49.59c0.189,0.24,0.38,0.481,0.57,0.722c0.233,0.295,0.731,0.239,0.976,0
		c0.292-0.285,0.229-0.686,0-0.976c-0.19-0.241-0.38-0.48-0.57-0.722c-0.233-0.294-0.732-0.239-0.976,0
		C63.291,48.9,63.353,49.299,63.583,49.59"/>
	<path fill="#44A84F" d="M55.8,47.536c0.096,0.12,0.19,0.24,0.285,0.361c0.233,0.294,0.732,0.239,0.977,0
		c0.291-0.286,0.229-0.686,0-0.977c-0.096-0.119-0.19-0.239-0.285-0.36c-0.233-0.294-0.732-0.239-0.977,0
		C55.508,46.847,55.571,47.245,55.8,47.536"/>
</g>
</svg>
