<?xml version="1.0" encoding="utf-8"?>
<!-- Generator: Adobe Illustrator 16.0.2, SVG Export Plug-In . SVG Version: 6.00 Build 0)  -->
<!DOCTYPE svg PUBLIC "-//W3C//DTD SVG 1.1//EN" "http://www.w3.org/Graphics/SVG/1.1/DTD/svg11.dtd">
<svg version="1.1" id="Layer_1" xmlns="http://www.w3.org/2000/svg" xmlns:xlink="http://www.w3.org/1999/xlink" x="0px" y="0px"
	 width="43.763px" height="48.5px" viewBox="0 0 43.763 48.5" enable-background="new 0 0 43.763 48.5" xml:space="preserve">
<g>
	<path fill="#44A84F" d="M10.174,15.563l0.429,0.541c0.232,0.295,0.73,0.238,0.976,0c0.292-0.285,0.229-0.686,0-0.977l-0.428-0.541
		c-0.233-0.294-0.732-0.239-0.977,0C9.882,14.872,9.944,15.271,10.174,15.563"/>
	<path fill="#44A84F" d="M18.734,10.847c0.394,0.372,0.788,0.744,1.183,1.116c0.646,0.609,1.624-0.365,0.976-0.976
		c-0.395-0.372-0.788-0.744-1.183-1.116C19.063,9.262,18.086,10.236,18.734,10.847"/>
	<path fill="#046937" d="M0.063,9.886c-0.094-0.903-0.149-1.88,0.33-2.65c0.919-1.479,3.197-1.377,4.434-2.603
		c1.039-1.029,1.155-2.822,2.371-3.635c0.328-0.219,0.71-0.344,1.096-0.425c2.213-0.467,4.455,0.455,6.528,1.355
		c6.257,2.72,12.622,5.507,17.775,9.979c2.504,2.173,4.671,4.703,6.771,7.267c1.154,1.408,2.301,2.846,3.094,4.484
		c2.281,4.712,1.294,10.416-0.913,15.162c-0.793,1.701-1.744,3.351-3.034,4.714c-2.612,2.759-6.396,4.122-10.147,4.725
		c-1.521,0.246-3.096,0.379-4.595,0.021c-1.442-0.346-2.736-1.125-4.003-1.895c-2.878-1.747-5.807-3.536-8.003-6.086
		c-2.127-2.47-3.448-5.512-5.101-8.32c-1.716-2.917-3.895-5.904-3.673-9.28C2.994,22.699,0.55,14.527,0.063,9.886"/>
	<path fill="#44A84F" d="M12.402,5.586c0.568,0,0.569-0.884,0-0.884S11.832,5.586,12.402,5.586"/>
	<path fill="#5F3B2E" d="M3.465,5.158C2.927,5.357,2.333,4.863,2.212,4.303S2.303,3.167,2.526,2.64
		C2.874,1.82,3.29,0.984,4.004,0.453c0.714-0.532,1.807-0.654,2.459-0.049c0.173,0.16,0.31,0.375,0.318,0.611
		c0.007,0.148-0.04,0.295-0.086,0.437C6.356,2.508,5.962,3.596,5.158,4.36c-0.803,0.764-2.133,1.088-3.032,0.44"/>
	<path fill="#44A84F" d="M10.853,9.747c0.143,0.181,0.285,0.361,0.428,0.541c0.233,0.295,0.731,0.239,0.977,0
		c0.291-0.284,0.229-0.685,0-0.976c-0.144-0.18-0.286-0.36-0.429-0.541c-0.232-0.294-0.731-0.239-0.976,0
		C10.561,9.058,10.622,9.456,10.853,9.747"/>
	<path fill="#44A84F" d="M10.985,15.802c0.888,0,0.889-1.38,0-1.38S10.096,15.802,10.985,15.802"/>
	<path fill="#44A84F" d="M16.595,13.91c0.202,0.135,0.403,0.27,0.605,0.403c0.741,0.495,1.433-0.7,0.697-1.191
		c-0.202-0.134-0.404-0.269-0.606-0.402C16.551,12.225,15.859,13.419,16.595,13.91"/>
	<path fill="#44A84F" d="M25.382,10.277l0.323,0.038c0.372,0.043,0.686-0.349,0.689-0.689c0.004-0.409-0.321-0.647-0.689-0.69
		l-0.323-0.038c-0.373-0.043-0.687,0.349-0.69,0.69C24.688,9.997,25.013,10.234,25.382,10.277"/>
	<path fill="#44A84F" d="M28.245,18.514c0.023,0.274,0.048,0.551,0.072,0.826c0.075,0.878,1.455,0.886,1.38,0
		c-0.024-0.275-0.048-0.552-0.072-0.826C29.549,17.636,28.168,17.627,28.245,18.514"/>
	<path fill="#44A84F" d="M26.433,34.958c0.888,0,0.889-1.38,0-1.38S25.543,34.958,26.433,34.958"/>
	<path fill="#44A84F" d="M21.332,23.668c0.466,0.218,0.931,0.436,1.397,0.653c0.8,0.374,1.501-0.814,0.697-1.19
		c-0.467-0.218-0.933-0.437-1.398-0.654C21.229,22.102,20.528,23.291,21.332,23.668"/>
	<path fill="#44A84F" d="M29.575,27.484c0.144,0.181,0.285,0.361,0.429,0.541c0.232,0.295,0.73,0.239,0.976,0
		c0.292-0.285,0.23-0.685,0-0.976c-0.143-0.181-0.286-0.36-0.428-0.541c-0.233-0.294-0.732-0.239-0.977,0
		C29.283,26.795,29.346,27.193,29.575,27.484"/>
	<path fill="#44A84F" d="M34.459,29.718l-0.038,0.323c-0.043,0.373,0.349,0.687,0.689,0.69c0.409,0.004,0.647-0.321,0.69-0.69
		c0.013-0.107,0.025-0.215,0.038-0.323c0.043-0.372-0.35-0.686-0.69-0.689C34.739,29.024,34.502,29.35,34.459,29.718"/>
	<path fill="#44A84F" d="M34.977,23.496c0.347,0.313,0.692,0.625,1.038,0.938c0.657,0.594,1.636-0.379,0.977-0.977
		c-0.347-0.313-0.692-0.625-1.038-0.938C35.295,21.926,34.315,22.899,34.977,23.496"/>
	<path fill="#44A84F" d="M23.464,17.303c0.045,0.551,0.091,1.103,0.136,1.653c0.07,0.879,1.452,0.886,1.38,0
		c-0.045-0.551-0.09-1.103-0.135-1.653C24.772,16.424,23.393,16.416,23.464,17.303"/>
	<path fill="#44A84F" d="M15.564,21.13c0.084,0.228,0.169,0.454,0.253,0.683c0.307,0.825,1.641,0.468,1.331-0.367
		c-0.084-0.227-0.169-0.455-0.253-0.682C16.588,19.938,15.254,20.295,15.564,21.13"/>
	<path fill="#44A84F" d="M19.047,9.633c0.358,0.206,0.715,0.413,1.073,0.619c0.77,0.444,1.466-0.747,0.696-1.191l-1.073-0.619
		C18.973,7.997,18.277,9.188,19.047,9.633"/>
	<path fill="#44A84F" d="M6.422,12.222c0.034,0.168,0.069,0.336,0.104,0.503c0.182,0.869,1.512,0.501,1.331-0.366
		c-0.035-0.168-0.069-0.336-0.104-0.504C7.57,10.985,6.24,11.354,6.422,12.222"/>
	<path fill="#44A84F" d="M10.079,3.819l2.116,1.549c0.717,0.525,1.406-0.672,0.696-1.191l-2.116-1.549
		C10.059,2.103,9.369,3.299,10.079,3.819"/>
	<path fill="#44A84F" d="M33.531,37.26c0.888,0,0.889-1.381,0-1.381S32.642,37.26,33.531,37.26"/>
	<path fill="#44A84F" d="M41.315,31.146L40.59,33.19c-0.297,0.839,1.035,1.199,1.331,0.366l0.726-2.044
		C42.943,30.674,41.611,30.313,41.315,31.146"/>
	<path fill="#44A84F" d="M24.819,30.368c0.332,0.421,0.666,0.842,0.998,1.263c0.233,0.294,0.731,0.239,0.976,0
		c0.292-0.286,0.229-0.686,0-0.976c-0.333-0.422-0.665-0.843-0.998-1.264c-0.233-0.294-0.732-0.238-0.976,0
		C24.526,29.678,24.589,30.077,24.819,30.368"/>
	<path fill="#44A84F" d="M14.529,25.901c0.343,0.305,0.556,0.644,0.669,1.089c0.218,0.86,1.55,0.495,1.331-0.367
		c-0.168-0.66-0.515-1.244-1.024-1.698C14.844,24.337,13.864,25.31,14.529,25.901"/>
	<path fill="#44A84F" d="M9.604,21.434c0.07,0.336,0.14,0.671,0.21,1.007c0.182,0.869,1.512,0.501,1.331-0.367
		c-0.069-0.336-0.14-0.671-0.21-1.007C10.753,20.197,9.423,20.565,9.604,21.434"/>
	<path fill="#44A84F" d="M5.095,18.77c0.414,0.678,0.677,1.414,0.747,2.209c0.077,0.878,1.457,0.886,1.38,0
		c-0.091-1.039-0.39-2.013-0.936-2.905C5.824,17.316,4.63,18.009,5.095,18.77"/>
	<path fill="#44A84F" d="M9.733,30.573c0.189,0.239,0.38,0.48,0.57,0.721c0.233,0.295,0.731,0.24,0.976,0
		c0.292-0.285,0.229-0.686,0-0.975c-0.19-0.241-0.38-0.481-0.57-0.723c-0.233-0.294-0.732-0.239-0.976,0
		C9.44,29.883,9.503,30.282,9.733,30.573"/>
	<path fill="#44A84F" d="M15.958,34.738c0.592,0.715,1.283,1.318,2.055,1.831c0.742,0.492,1.434-0.701,0.696-1.191
		c-0.675-0.448-1.258-0.991-1.775-1.615C16.367,33.079,15.395,34.06,15.958,34.738"/>
	<path fill="#44A84F" d="M19.181,32.397c0.603,0.435,1.092,0.988,1.478,1.622c0.46,0.758,1.652,0.065,1.19-0.697
		c-0.512-0.844-1.172-1.539-1.972-2.116C19.157,30.686,18.467,31.882,19.181,32.397"/>
	<path fill="#44A84F" d="M17.323,41.207c0.557,0.344,1.114,0.688,1.672,1.032c0.757,0.468,1.45-0.726,0.695-1.191
		c-0.557-0.344-1.113-0.688-1.672-1.032C17.262,39.548,16.567,40.741,17.323,41.207"/>
	<path fill="#44A84F" d="M22.431,39.513c0.501,0.386,1.001,0.772,1.502,1.158c0.299,0.229,0.771,0.043,0.944-0.248
		c0.212-0.354,0.046-0.718-0.247-0.944c-0.501-0.386-1.002-0.771-1.503-1.156c-0.297-0.23-0.769-0.044-0.944,0.247
		C21.972,38.923,22.137,39.287,22.431,39.513"/>
	<path fill="#44A84F" d="M29.312,42.28c0.312,0.145,0.621,0.291,0.932,0.436c0.8,0.374,1.5-0.814,0.696-1.19
		c-0.31-0.146-0.621-0.291-0.931-0.437C29.209,40.714,28.508,41.903,29.312,42.28"/>
	<path fill="#44A84F" d="M36.077,40.521c0.047,0.061,0.095,0.12,0.143,0.181c0.233,0.295,0.731,0.238,0.976,0
		c0.292-0.285,0.229-0.686,0-0.976c-0.047-0.06-0.095-0.121-0.143-0.181c-0.232-0.294-0.731-0.239-0.976,0
		C35.785,39.832,35.847,40.23,36.077,40.521"/>
	<path fill="#44A84F" d="M33.013,16.262c0.285,0.361,0.571,0.721,0.856,1.082c0.233,0.295,0.73,0.239,0.976,0
		c0.292-0.285,0.23-0.686,0-0.977c-0.286-0.359-0.57-0.721-0.855-1.082c-0.233-0.294-0.732-0.238-0.977,0
		C32.721,15.571,32.783,15.971,33.013,16.262"/>
	<path fill="#44A84F" d="M25.31,45.814l0.428,0.541c0.232,0.295,0.73,0.239,0.976,0c0.292-0.285,0.23-0.685,0-0.976l-0.428-0.541
		c-0.233-0.294-0.731-0.239-0.976,0C25.017,45.125,25.079,45.523,25.31,45.814"/>
	<path fill="#44A84F" d="M18.31,18.803c0.189,0.24,0.38,0.481,0.57,0.722c0.233,0.295,0.731,0.24,0.976,0
		c0.292-0.285,0.229-0.686,0-0.976c-0.19-0.24-0.38-0.48-0.57-0.722c-0.232-0.294-0.731-0.239-0.976,0
		C18.018,18.113,18.079,18.512,18.31,18.803"/>
	<path fill="#44A84F" d="M27.318,22.677c0.068,0.336,0.138,0.672,0.207,1.007c0.179,0.87,1.509,0.502,1.331-0.366l-0.207-1.008
		C28.47,21.44,27.139,21.809,27.318,22.677"/>
	<path fill="#44A84F" d="M21.989,13.769c0.25,0.193,0.501,0.387,0.751,0.579c0.298,0.229,0.77,0.043,0.943-0.248
		c0.212-0.353,0.046-0.717-0.247-0.943c-0.251-0.193-0.501-0.387-0.751-0.578c-0.298-0.23-0.77-0.044-0.943,0.247
		C21.53,13.179,21.694,13.543,21.989,13.769"/>
	<path fill="#44A84F" d="M20.582,30.201c0.284,0.361,0.57,0.721,0.855,1.082c0.233,0.295,0.731,0.239,0.977,0
		c0.292-0.285,0.229-0.686,0-0.977c-0.286-0.359-0.571-0.721-0.856-1.082c-0.232-0.294-0.732-0.238-0.976,0
		C20.29,29.511,20.352,29.91,20.582,30.201"/>
	<path fill="#44A84F" d="M16.772,30.575c0.095,0.12,0.19,0.24,0.285,0.361c0.232,0.294,0.732,0.239,0.976,0
		c0.292-0.286,0.23-0.686,0-0.977l-0.284-0.36c-0.233-0.294-0.732-0.239-0.977,0C16.48,29.886,16.542,30.284,16.772,30.575"/>
	<path fill="#44A84F" d="M29.627,31.256c0.428,0.541,0.855,1.082,1.284,1.623c0.232,0.295,0.731,0.239,0.976,0
		c0.292-0.285,0.23-0.685,0-0.975c-0.428-0.542-0.856-1.083-1.284-1.624c-0.232-0.294-0.731-0.239-0.976,0
		C29.335,30.566,29.396,30.965,29.627,31.256"/>
	<path fill="#44A84F" d="M39.006,23.837l0.713,0.902c0.232,0.294,0.731,0.238,0.976,0c0.292-0.286,0.23-0.686,0-0.977l-0.713-0.902
		c-0.232-0.294-0.732-0.238-0.976,0C38.714,23.146,38.775,23.546,39.006,23.837"/>
	<path fill="#44A84F" d="M13.728,35.623c0.19,0.24,0.381,0.48,0.571,0.721c0.233,0.295,0.731,0.24,0.976,0
		c0.291-0.285,0.229-0.685,0-0.975c-0.19-0.241-0.381-0.481-0.57-0.723c-0.233-0.294-0.732-0.238-0.977,0
		C13.436,34.933,13.498,35.332,13.728,35.623"/>
	<path fill="#44A84F" d="M36.369,32.891c0.023,0.274,0.045,0.551,0.068,0.826c0.07,0.879,1.452,0.887,1.379,0
		c-0.022-0.275-0.045-0.552-0.067-0.826C37.677,32.012,36.297,32.003,36.369,32.891"/>
	<path fill="#44A84F" d="M32.731,45.556c0.721-0.021,1.403-0.229,1.987-0.658c0.707-0.521,0.02-1.719-0.697-1.191
		c-0.392,0.288-0.8,0.455-1.29,0.47C31.846,44.2,31.842,45.581,32.731,45.556"/>
	<path fill="#44A84F" d="M26.421,13.408l0.353,1.187c0.252,0.85,1.584,0.488,1.33-0.367l-0.353-1.187
		C27.498,12.192,26.167,12.554,26.421,13.408"/>
	<path fill="#44A84F" d="M1.764,10.849c0.289,0.472,0.468,0.972,0.507,1.525c0.063,0.881,1.443,0.888,1.381,0
		c-0.058-0.799-0.276-1.537-0.696-2.222C2.492,9.396,1.298,10.088,1.764,10.849"/>
	<path fill="#44A84F" d="M15.278,8.299c0.189,0.24,0.38,0.481,0.57,0.722c0.233,0.295,0.731,0.239,0.976,0
		c0.292-0.285,0.229-0.686,0-0.976c-0.19-0.241-0.38-0.48-0.57-0.722c-0.233-0.294-0.732-0.239-0.976,0
		C14.985,7.609,15.048,8.008,15.278,8.299"/>
	<path fill="#44A84F" d="M7.495,6.245c0.096,0.12,0.19,0.24,0.285,0.361c0.233,0.294,0.732,0.239,0.977,0
		c0.291-0.286,0.229-0.686,0-0.977c-0.096-0.119-0.19-0.239-0.285-0.36c-0.233-0.294-0.732-0.239-0.977,0
		C7.203,5.556,7.266,5.954,7.495,6.245"/>
</g>
</svg>
