<?xml version="1.0" encoding="utf-8"?>
<!-- Generator: Adobe Illustrator 16.0.2, SVG Export Plug-In . SVG Version: 6.00 Build 0)  -->
<!DOCTYPE svg PUBLIC "-//W3C//DTD SVG 1.1//EN" "http://www.w3.org/Graphics/SVG/1.1/DTD/svg11.dtd">
<svg version="1.1" id="Layer_1" xmlns="http://www.w3.org/2000/svg" xmlns:xlink="http://www.w3.org/1999/xlink" x="0px" y="0px"
	 width="30.558px" height="43.675px" viewBox="0 0 30.558 43.675" enable-background="new 0 0 30.558 43.675" xml:space="preserve">
<g>
	<path fill="#9BC53D" d="M28.211,9.504c-1.403-3.934-6.628-5.134-10.606-3.86c-1.262,0.404-2.406,1.109-3.498,1.861
		C6.102,13.017,0.037,22.016,0,31.735c-0.006,1.535,0.141,3.095,0.713,4.52c1.024,2.548,3.332,4.414,5.864,5.477
		c2.532,1.064,5.298,1.421,8.029,1.705c3.346,0.348,6.945,0.551,9.85-1.147c3.231-1.888,4.842-5.778,5.067-9.514
		c0.224-3.736-0.705-7.431-1.431-11.103c-0.725-3.672,1.143-6.947,0.829-10.677C28.887,10.584,28.211,9.504,28.211,9.504"/>
	<path fill="#5F3B2E" d="M26.719,0.127c1.636,0.206,3.623,0.924,3.839,1.605c-1.042,1.19-2.576,1.936-4.155,2.021
		c-0.488,0.026-0.996-0.004-1.445,0.189c-0.83,0.358-1.172,1.331-1.424,2.199l-0.622,2.135c-0.143,0.491-0.323,1.03-0.768,1.281
		c-0.777,0.437-1.768-0.413-1.819-1.302c-0.052-0.89,0.488-1.693,1.004-2.42c0.944-1.33,1.889-2.661,2.834-3.991
		C24.756,1.009,25.864-0.437,26.719,0.127"/>
</g>
</svg>
