<?xml version="1.0" encoding="utf-8"?>
<!-- Generator: Adobe Illustrator 16.0.2, SVG Export Plug-In . SVG Version: 6.00 Build 0)  -->
<!DOCTYPE svg PUBLIC "-//W3C//DTD SVG 1.1//EN" "http://www.w3.org/Graphics/SVG/1.1/DTD/svg11.dtd">
<svg version="1.1" id="Layer_1" xmlns="http://www.w3.org/2000/svg" xmlns:xlink="http://www.w3.org/1999/xlink" x="0px" y="0px"
	 width="74.228px" height="40.333px" viewBox="0 0 74.228 40.333" enable-background="new 0 0 74.228 40.333" xml:space="preserve">
<g>
	<path fill="#C9A877" d="M0.44,4.333c1.223-2.282,4.691-3.39,7.278-3.432C26.192,0.601,44.667,0.301,63.141,0
		c2.31-0.037,6.373,1.941,7.901,3.674C48.172,5.775,23.396,5.298,0.44,4.635"/>
	<path fill="#F4D49D" d="M0.06,39.764c18.268,0.689,36.557,0.753,54.828,0.188c6.474-0.201,12.864-0.449,19.34-0.363
		c-1.87-9.668-2.456-19.584-1.738-29.404c0.095-1.282,0.209-2.584-0.047-3.844c-0.257-1.26,0.194-1.903-0.945-2.497
		c-0.958-0.498-3.161-0.352-4.24-0.326C48.94,3.94,30.555,3.637,12.239,4.061C10.315,4.105,8.393,4.15,6.469,4.194
		c-1.007,0.022-2.014,0.047-3.022,0.07C2.852,4.278,0.893,3.993,0.44,4.333c-0.788,0.595-0.278,4.236-0.281,5.313
		c-0.008,2.008-0.015,4.016-0.021,6.023C0.112,23.701,0.086,31.732,0.06,39.764"/>
	<path fill="#EEA820" d="M34.925,34.852c-1.699,0.238-3.351-1.217-3.626-2.912c-0.275-1.694,0.625-3.438,1.984-4.486
		c1.358-1.05,3.104-1.486,4.819-1.585c2.609-0.15,5.28,0.448,7.502,1.828c2.221,1.38,3.966,3.555,4.691,6.065
		c-4.748-2.535-11.024-1.837-15.1,1.68"/>
	<path fill="#FFEED7" d="M31.224,32.38c-0.234,1.581,0.693,3.264,2.157,3.908c2,0.882,4.263-0.131,6.364-0.731
		c2.855-0.815,5.932-0.847,8.802-0.088c0.523,0.139,1.147,0.281,1.553-0.078c0.377-0.335,0.338-0.971,0.042-1.379
		s-0.775-0.638-1.244-0.824c-3.825-1.528-8.34-1.215-11.918,0.826c-0.764,0.437-1.549,0.964-2.429,0.939
		c-1.329-0.036-2.261-1.277-2.983-2.393"/>
	<path fill="#EEA820" d="M31.674,34.815c-0.559,0.867,0.023,2.099,0.926,2.597c0.903,0.498,1.992,0.468,3.021,0.425
		c4.359-0.183,8.718-0.364,13.077-0.547c0.375-0.016,0.764-0.035,1.094-0.211c0.331-0.177,0.586-0.558,0.488-0.921
		c-0.109-0.416-0.589-0.598-1.006-0.702c-2.61-0.657-5.371-0.706-8.002-0.142c-1.686,0.362-3.325,0.973-5.042,1.107
		c-1.718,0.134-3.611-0.311-4.67-1.67"/>
	<path fill="#EEA820" d="M63.849,34.013c-4.785-0.488-9.882-1.103-13.576-4.183c-1.426-1.188-2.641-2.975-2.257-4.792
		c0.248-1.177,1.149-2.145,2.22-2.693c1.07-0.551,2.295-0.727,3.498-0.753c2.398-0.056,4.807,0.456,6.977,1.479
		c1.457,0.688,2.828,1.626,3.787,2.921c0.959,1.294,1.464,2.979,1.115,4.551c-0.348,1.572-1.645,2.959-3.24,3.178"/>
	<path fill="#FFEED7" d="M47.894,25.332c-0.898,1.521-1.816,3.388-1.017,4.963c0.615,1.212,2.022,1.753,3.309,2.192
		c2.663,0.909,4.531,2.265,7.988,2.729c1.651,0.222,3.256,1.084,4.877,0.702c1.622-0.382,2.325-2.119,1.767-3.689
		c-3.157,1.758-5.922,1.777-9.246,0.36c-3.325-1.418-6.416-4.212-7.334-7.708"/>
	<path fill="#EEA820" d="M46.749,29.215c-0.571,0.631-0.449,1.669,0.051,2.358c0.499,0.688,1.281,1.106,2.044,1.484
		c4.171,2.065,8.592,3.625,13.136,4.632c0.689,0.152,1.637,0.154,1.845-0.52c0.13-0.425-0.167-0.885-0.559-1.095
		c-0.391-0.21-0.851-0.234-1.294-0.264c-5.617-0.378-11.098-2.559-15.438-6.143"/>
</g>
</svg>
