<?xml version="1.0" encoding="utf-8"?>
<!-- Generator: Adobe Illustrator 16.0.2, SVG Export Plug-In . SVG Version: 6.00 Build 0)  -->
<!DOCTYPE svg PUBLIC "-//W3C//DTD SVG 1.1//EN" "http://www.w3.org/Graphics/SVG/1.1/DTD/svg11.dtd">
<svg version="1.1" id="Layer_1" xmlns="http://www.w3.org/2000/svg" xmlns:xlink="http://www.w3.org/1999/xlink" x="0px" y="0px"
	 width="52.4px" height="88.376px" viewBox="0 0 52.4 88.376" enable-background="new 0 0 52.4 88.376" xml:space="preserve">
<g>
	<path fill="#D2A12A" d="M51.175,4.852c0.498-1.317,0.938-2.972-0.033-3.992c-0.611-0.643-1.578-0.772-2.465-0.82
		c-2.363-0.128-4.744,0.054-7.061,0.539c-2.574,0.539-5.143,1.456-7.762,1.202c-1.279-0.124-2.514-0.525-3.775-0.755
		c-2.598-0.474-5.268-0.222-7.895,0.032C17.138,1.545,12.038,2.042,7.241,3.682c-0.555,0.19-1.125,0.406-1.539,0.822
		c-0.549,0.552-0.736,1.359-0.9,2.121c-2.08,9.733-4.172,19.578-3.904,29.527c0.148,5.545,1.029,11.102,0.42,16.613
		c-0.309,2.777-0.992,5.508-1.221,8.293c-0.268,3.217,0.074,6.449,0.418,9.658c0.514,4.82,1.025,9.643,1.541,14.464
		c0.074,0.704,0.174,1.462,0.656,1.979c0.529,0.563,1.367,0.682,2.137,0.752c3.254,0.297,6.525,0.313,9.793,0.328
		c9.365,0.045,18.734,0.092,28.102,0.137c2.287,0.011,4.973-0.18,6.217-2.1c0.559-0.859,0.701-1.914,0.83-2.93
		c1.049-8.182,2.096-16.484,0.918-24.648c-0.316-2.205-0.799-4.4-0.793-6.629c0.006-3.14,0.973-6.186,1.578-9.267
		c2.412-12.259-0.891-24.963,0.336-37.397"/>
	<path fill="#FFDB9C" d="M7.241,3.412c-0.557,0.19-1.125,0.406-1.539,0.822C5.153,4.786,4.966,5.593,4.804,6.355
		C2.722,16.088,0.63,25.933,0.897,35.882c0.148,5.545,1.029,11.102,0.42,16.613c-0.309,2.777-0.99,5.508-1.223,8.293
		c-0.266,3.217,0.076,6.449,0.418,9.658c0.516,4.82,1.027,9.643,1.541,14.463c0.076,0.705,0.176,1.463,0.658,1.979
		c0.529,0.563,1.367,0.683,2.137,0.752c3.254,0.298,6.525,0.313,9.791,0.329c1.395,0.008,2.789,0.014,4.184,0.02
		c0.412-29.067,1.383-58.129,2.924-87.159C16.843,1.304,11.899,1.82,7.241,3.412"/>
	<path fill="#FFEDD5" d="M14.067,4.243c-0.324-0.365-0.65-0.729-0.977-1.094c-0.354-0.397-0.936,0.188-0.582,0.583
		c0.324,0.365,0.65,0.73,0.977,1.094C13.839,5.223,14.419,4.638,14.067,4.243"/>
	<path fill="#FFEDD5" d="M13.8,35.166c0.441-0.163,0.885-0.325,1.326-0.487c0.475-0.177,0.27-0.944-0.213-0.767
		c-0.441,0.162-0.883,0.325-1.324,0.488C13.112,34.575,13.319,35.343,13.8,35.166"/>
	<path fill="#FFEDD5" d="M7.146,68.624c-0.328-0.375-0.654-0.752-0.982-1.129c-0.357-0.408-0.949,0.188-0.596,0.596
		c0.328,0.377,0.654,0.753,0.982,1.129C6.905,69.628,7.499,69.032,7.146,68.624"/>
	<path fill="#FFEDD5" d="M9.3,84.93c-0.646-0.013-1.293-0.025-1.938-0.037c-0.701-0.013-0.701,1.077,0,1.09
		c0.645,0.013,1.291,0.024,1.938,0.037C10.001,86.032,10.001,84.942,9.3,84.93"/>
	<path fill="#FFEDD5" d="M6.185,77.547c0.459-0.158,0.918-0.317,1.377-0.476c0.494-0.17,0.283-0.963-0.219-0.789
		c-0.459,0.158-0.918,0.316-1.377,0.475C5.472,76.928,5.685,77.72,6.185,77.547"/>
	<path fill="#FFEDD5" d="M2.474,74.168c0.52-0.254,1.041-0.507,1.561-0.761c0.566-0.275,0.072-1.118-0.492-0.844
		c-0.521,0.254-1.043,0.508-1.563,0.761C1.413,73.599,1.909,74.442,2.474,74.168"/>
	<path fill="#FFEDD5" d="M3.271,49.263c-0.004-0.533-0.008-1.067-0.01-1.601c-0.004-0.579-0.902-0.581-0.9,0
		c0.004,0.533,0.006,1.067,0.01,1.601C2.372,49.841,3.272,49.843,3.271,49.263"/>
	<path fill="#FFEDD5" d="M5.169,84.325l-0.373-1.893c-0.137-0.684-1.182-0.395-1.047,0.289l0.373,1.893
		C4.257,85.299,5.304,85.009,5.169,84.325"/>
	<path fill="#FFEDD5" d="M17.505,87.018c0.27-0.448,0.541-0.899,0.811-1.348c0.293-0.49-0.471-0.935-0.764-0.447l-0.811,1.349
		C16.446,87.061,17.212,87.506,17.505,87.018"/>
	<path fill="#FFEDD5" d="M4.142,51.366c-0.508,0.383-1.014,0.767-1.52,1.149c-0.23,0.175-0.35,0.463-0.191,0.733
		c0.133,0.227,0.5,0.367,0.732,0.192c0.506-0.384,1.012-0.767,1.52-1.149c0.229-0.174,0.35-0.463,0.191-0.733
		C4.741,51.331,4.372,51.19,4.142,51.366"/>
	<path fill="#FFEDD5" d="M7.179,62.468c-0.42-0.491-0.838-0.981-1.256-1.473c-0.191-0.223-0.574-0.195-0.77,0
		c-0.221,0.223-0.191,0.547,0,0.771c0.418,0.489,0.836,0.981,1.256,1.471c0.189,0.224,0.572,0.197,0.77,0
		C7.399,63.016,7.368,62.691,7.179,62.468"/>
	<path fill="#FFEDD5" d="M16.862,75.843c0.047,0.637,0.092,1.272,0.139,1.908c0.049,0.688,1.125,0.693,1.076,0
		c-0.045-0.636-0.092-1.271-0.139-1.908C17.89,75.155,16.812,75.149,16.862,75.843"/>
	<path fill="#FFEDD5" d="M15.181,8.713c-0.064-0.533-0.127-1.067-0.189-1.6c-0.029-0.245-0.188-0.451-0.453-0.453
		c-0.223-0.003-0.482,0.21-0.453,0.453c0.063,0.533,0.125,1.067,0.189,1.6c0.029,0.245,0.188,0.45,0.453,0.453
		C14.95,9.169,15.21,8.957,15.181,8.713"/>
	<path fill="#FFEDD5" d="M9.558,60.343c0.355-0.362,0.709-0.725,1.064-1.088c0.385-0.394-0.219-1-0.605-0.604
		c-0.354,0.362-0.709,0.726-1.063,1.088C8.567,60.132,9.173,60.738,9.558,60.343"/>
	<path fill="#FFEDD5" d="M3.44,65.452c0.467,0.244,0.934,0.49,1.4,0.734c0.506,0.266,0.957-0.501,0.449-0.768
		c-0.467-0.245-0.934-0.49-1.4-0.735C3.384,64.418,2.933,65.185,3.44,65.452"/>
	<path fill="#FFEDD5" d="M13.396,47.034c0.539-0.334,1.08-0.666,1.619-1c0.586-0.36,0.049-1.287-0.539-0.924
		c-0.541,0.332-1.08,0.666-1.619,1C12.269,46.471,12.806,47.397,13.396,47.034"/>
	<path fill="#FFEDD5" d="M7.409,39.557c0.199,0.456,0.4,0.912,0.602,1.368c0.092,0.209,0.395,0.254,0.576,0.15
		c0.215-0.123,0.242-0.368,0.15-0.575c-0.201-0.455-0.402-0.911-0.604-1.367c-0.092-0.21-0.393-0.254-0.574-0.151
		C7.343,39.104,7.317,39.35,7.409,39.557"/>
	<path fill="#FFEDD5" d="M18.028,8.024c0.586,0.054,1.172,0.108,1.758,0.161c0.637,0.059,0.633-0.935,0-0.993
		c-0.586-0.054-1.172-0.107-1.758-0.161C17.392,6.972,17.396,7.966,18.028,8.024"/>
	<path fill="#FFEDD5" d="M1.948,61.114c0.344-0.358,0.688-0.717,1.031-1.078c0.373-0.389-0.221-0.983-0.594-0.592
		c-0.344,0.358-0.688,0.719-1.029,1.078C0.983,60.911,1.575,61.506,1.948,61.114"/>
	<path fill="#FFEDD5" d="M0.933,65.142c0.537-0.221,1.074-0.441,1.611-0.663c0.242-0.101,0.42-0.325,0.342-0.603
		c-0.064-0.231-0.355-0.444-0.604-0.342c-0.537,0.221-1.074,0.441-1.609,0.662c-0.244,0.101-0.42,0.326-0.344,0.604
		C0.396,65.03,0.687,65.243,0.933,65.142"/>
	<path fill="#FFEDD5" d="M8.079,81.019c-0.398-0.302-0.797-0.604-1.193-0.904c-0.184-0.138-0.473-0.029-0.578,0.15
		c-0.125,0.217-0.031,0.439,0.15,0.577c0.398,0.302,0.797,0.603,1.195,0.905c0.182,0.137,0.471,0.027,0.576-0.151
		C8.356,81.379,8.261,81.157,8.079,81.019"/>
	<path fill="#FFEDD5" d="M17.636,68.517l-1.578-0.337c-0.57-0.122-0.814,0.752-0.242,0.875c0.527,0.112,1.053,0.226,1.578,0.337
		C17.962,69.514,18.206,68.639,17.636,68.517"/>
	<path fill="#FFEDD5" d="M17.878,24.636c0.574-0.117,1.146-0.234,1.721-0.35c0.621-0.127,0.359-1.08-0.264-0.953
		c-0.572,0.117-1.146,0.233-1.721,0.351C16.993,23.81,17.255,24.763,17.878,24.636"/>
	<path fill="#FFEDD5" d="M7.196,7.524c-0.09-0.501-0.18-1.001-0.27-1.502C6.829,5.479,6.003,5.709,6.099,6.25
		c0.09,0.501,0.18,1.001,0.27,1.502C6.464,8.295,7.292,8.065,7.196,7.524"/>
	<path fill="#FFEDD5" d="M11.06,46.056c-0.428,0.236-0.855,0.474-1.285,0.711c-0.465,0.257-0.049,0.971,0.416,0.713
		c0.43-0.237,0.857-0.475,1.285-0.711C11.94,46.512,11.524,45.798,11.06,46.056"/>
	<path fill="#FFEDD5" d="M16.146,62.56c0.469-0.146,0.938-0.293,1.404-0.439c0.506-0.16,0.291-0.959-0.221-0.799l-1.402,0.44
		C15.421,61.921,15.636,62.72,16.146,62.56"/>
	<path fill="#FFEDD5" d="M9.946,5.155C9.585,4.63,9.226,4.105,8.864,3.581c-0.389-0.566-1.32-0.03-0.926,0.542
		c0.359,0.525,0.721,1.05,1.08,1.575C9.407,6.265,10.339,5.728,9.946,5.155"/>
	<path fill="#FFEDD5" d="M17.128,44.987c0.109,0.609,0.221,1.219,0.332,1.827c0.119,0.661,1.129,0.382,1.008-0.278
		c-0.111-0.608-0.223-1.217-0.332-1.826C18.015,44.05,17.007,44.329,17.128,44.987"/>
	<path fill="#FFEDD5" d="M7.065,54.599l-0.797,1.583c-0.289,0.571,0.57,1.077,0.859,0.503c0.266-0.527,0.531-1.055,0.799-1.583
		C8.214,54.53,7.354,54.024,7.065,54.599"/>
	<path fill="#FFEDD5" d="M11.354,50.924c-0.563,0.306-1.125,0.61-1.688,0.917c-0.611,0.332-0.066,1.266,0.545,0.932l1.688-0.916
		C12.511,51.524,11.966,50.592,11.354,50.924"/>
	<path fill="#FFEDD5" d="M13.034,20.554c-0.51-0.038-1.02-0.076-1.529-0.115c-0.553-0.041-0.551,0.821,0,0.863
		c0.51,0.038,1.02,0.076,1.529,0.114C13.587,21.458,13.585,20.595,13.034,20.554"/>
	<path fill="#FFEDD5" d="M6.55,13.651l-1.512,0.032c-0.547,0.012-0.549,0.862,0,0.851c0.504-0.011,1.008-0.022,1.512-0.032
		C7.097,14.49,7.099,13.64,6.55,13.651"/>
	<path fill="#FFEDD5" d="M7.054,35.186c-0.35,0.513-0.697,1.024-1.047,1.536c-0.379,0.559,0.525,1.081,0.902,0.528
		c0.35-0.513,0.699-1.024,1.047-1.536C8.337,35.155,7.431,34.633,7.054,35.186"/>
	<path fill="#FFEDD5" d="M10.997,32.581c0.355-0.375,0.711-0.75,1.068-1.125c0.387-0.406-0.229-1.025-0.617-0.617
		c-0.355,0.375-0.713,0.75-1.068,1.125C9.993,32.372,10.608,32.989,10.997,32.581"/>
	<path fill="#FFEDD5" d="M8.062,27.653l1.285,1.34c0.467,0.484,1.203-0.253,0.738-0.738L8.8,26.916
		C8.335,26.43,7.597,27.169,8.062,27.653"/>
	<path fill="#FFEDD5" d="M13.206,50.198l0.951,1.109c0.344,0.402,0.924-0.181,0.58-0.58l-0.949-1.109
		C13.442,49.216,12.864,49.799,13.206,50.198"/>
	<path fill="#FFEDD5" d="M5.267,10.934c0.547-0.103,1.094-0.206,1.639-0.308c0.594-0.112,0.342-1.016-0.248-0.905
		C6.11,9.824,5.565,9.927,5.019,10.03C4.425,10.141,4.677,11.045,5.267,10.934"/>
	<path fill="#FFEDD5" d="M10.655,68.685c-0.523,0.155-1.047,0.313-1.57,0.469c-0.566,0.17-0.326,1.059,0.244,0.889l1.57-0.469
		C11.466,69.403,11.226,68.513,10.655,68.685"/>
	<path fill="#FFEDD5" d="M9.532,44.22c0.568-0.326,1.139-0.651,1.707-0.978c0.619-0.354,0.061-1.31-0.559-0.956l-1.709,0.978
		C8.354,43.617,8.911,44.574,9.532,44.22"/>
	<path fill="#FFEDD5" d="M14.62,30.44c0.211,0.448,0.422,0.896,0.633,1.344c0.23,0.486,0.951,0.063,0.723-0.422
		c-0.211-0.447-0.422-0.896-0.635-1.344C15.112,29.532,14.392,29.956,14.62,30.44"/>
	<path fill="#FFEDD5" d="M9.181,17.731c-0.484,0.129-0.967,0.258-1.451,0.388c-0.525,0.14-0.303,0.956,0.225,0.815
		c0.484-0.129,0.969-0.26,1.451-0.389C9.931,18.406,9.708,17.59,9.181,17.731"/>
	<path fill="#FFEDD5" d="M18.108,4.141l1.297-0.787c0.469-0.284,0.039-1.021-0.432-0.737l-1.297,0.787
		C17.208,3.689,17.636,4.427,18.108,4.141"/>
	<path fill="#FFEDD5" d="M10.454,14.042c-0.441,0.372-0.883,0.745-1.326,1.117c-0.199,0.17-0.174,0.514,0,0.689
		c0.201,0.2,0.488,0.171,0.691,0c0.439-0.372,0.883-0.744,1.324-1.117c0.201-0.17,0.174-0.514,0-0.689
		C10.944,13.843,10.655,13.872,10.454,14.042"/>
	<path fill="#FFEDD5" d="M6.294,51.825c0.379,0.503,0.756,1.006,1.135,1.51c0.172,0.229,0.459,0.346,0.727,0.189
		c0.225-0.131,0.363-0.495,0.189-0.727c-0.377-0.502-0.756-1.006-1.133-1.509c-0.172-0.229-0.459-0.347-0.729-0.19
		C6.259,51.23,6.122,51.595,6.294,51.825"/>
	<path fill="#FFEDD5" d="M16.026,79.231c-0.436-0.291-0.871-0.582-1.309-0.873c-0.475-0.316-0.918,0.449-0.447,0.764
		c0.438,0.291,0.873,0.582,1.309,0.873C16.054,80.313,16.499,79.546,16.026,79.231"/>
	<path fill="#FFEDD5" d="M12.927,82.764c0.482,0.108,0.967,0.218,1.449,0.327c0.525,0.117,0.748-0.688,0.223-0.807
		c-0.482-0.108-0.967-0.218-1.449-0.326C12.624,81.839,12.401,82.645,12.927,82.764"/>
	<path fill="#FFEDD5" d="M1.854,55.726c0.385,0.326,0.77,0.65,1.154,0.977c0.416,0.352,1.02-0.247,0.602-0.602
		c-0.385-0.325-0.77-0.651-1.154-0.978C2.04,54.772,1.435,55.371,1.854,55.726"/>
	<path fill="#FFEDD5" d="M11.706,86.622c0.305-0.422,0.611-0.844,0.916-1.267c0.139-0.192,0.033-0.489-0.158-0.601
		c-0.223-0.131-0.461-0.035-0.602,0.158c-0.305,0.422-0.609,0.844-0.916,1.265c-0.139,0.192-0.031,0.489,0.158,0.603
		C11.327,86.909,11.565,86.814,11.706,86.622"/>
	<path fill="#FFEDD5" d="M5.849,19.091c-0.584,0.213-1.168,0.427-1.752,0.64c-0.629,0.229-0.357,1.244,0.279,1.013
		c0.584-0.215,1.168-0.428,1.752-0.641C6.757,19.872,6.485,18.858,5.849,19.091"/>
	<path fill="#FFEDD5" d="M6.28,48.577c-0.531-0.069-1.061-0.139-1.59-0.208c-0.244-0.032-0.449,0.229-0.451,0.45
		c-0.002,0.271,0.211,0.42,0.451,0.451c0.529,0.069,1.059,0.139,1.59,0.209c0.242,0.03,0.447-0.23,0.451-0.451
		C6.733,48.758,6.521,48.608,6.28,48.577"/>
	<path fill="#FFEDD5" d="M11.126,28.185c0.521,0.406,1.043,0.813,1.564,1.219c0.238,0.185,0.557,0.23,0.789,0
		c0.193-0.193,0.24-0.604,0-0.789l-1.564-1.219c-0.238-0.185-0.557-0.23-0.789,0C10.933,27.589,10.888,27.999,11.126,28.185"/>
	<path fill="#FFEDD5" d="M4.729,22.182c-0.564-0.187-1.129-0.373-1.693-0.56c-0.615-0.203-0.879,0.766-0.268,0.967
		c0.564,0.187,1.129,0.373,1.693,0.56C5.077,23.352,5.339,22.384,4.729,22.182"/>
	<path fill="#FFEDD5" d="M15.079,43.599c0.453-0.41,0.908-0.82,1.361-1.229c0.494-0.447-0.238-1.176-0.73-0.73
		c-0.453,0.41-0.906,0.819-1.361,1.229C13.854,43.315,14.587,44.043,15.079,43.599"/>
	<path fill="#FFEDD5" d="M5.761,41.265c-0.375,0.336-0.75,0.674-1.125,1.01c-0.408,0.365,0.195,0.965,0.602,0.602
		c0.375-0.337,0.75-0.673,1.125-1.01C6.772,41.5,6.169,40.899,5.761,41.265"/>
	<path fill="#C9A877" d="M6.308,30.997c-0.389,0.869,0.023,1.898,0.955,2.187c0.654,0.202,0.936-0.823,0.281-1.024
		c-0.234-0.073-0.42-0.402-0.318-0.627c0.115-0.262,0.074-0.57-0.191-0.727C6.808,30.674,6.423,30.733,6.308,30.997"/>
	<path fill="#C9A877" d="M13.017,65.823c-0.615,0.604-0.613,1.707,0.072,2.264c0.219,0.179,0.525,0.216,0.742,0
		c0.184-0.185,0.221-0.563,0-0.741c-0.244-0.199-0.311-0.546-0.072-0.781C14.243,66.091,13.501,65.349,13.017,65.823"/>
	<path fill="#C9A877" d="M18.71,11.327c-0.678,0.388-0.932,1.36-0.457,2.005c0.152,0.207,0.414,0.31,0.652,0.171
		c0.203-0.12,0.322-0.444,0.17-0.652c-0.168-0.229-0.148-0.551,0.117-0.702C19.724,11.845,19.245,11.022,18.71,11.327"/>
	<path fill="#C9A877" d="M17.079,21.645c0.076-0.737-0.672-1.385-1.451-1.385v0.877c0.779,0,0.602,0.246,0.574,0.508
		c-0.025,0.235,0.219,0.438,0.438,0.438C16.897,22.083,17.054,21.882,17.079,21.645"/>
	<path fill="#C9A877" d="M3.813,28.791c-0.596-0.713-1.764-0.714-2.395-0.054c-0.492,0.516,0.291,1.302,0.783,0.785
		c0.244-0.256,0.611-0.205,0.826,0.053c0.193,0.23,0.586,0.199,0.785,0C4.042,29.349,4.007,29.021,3.813,28.791"/>
	<path fill="#C9A877" d="M14.983,38.571c0.699,0.251,1.512-0.211,1.682-0.926c0.133-0.557-0.725-0.794-0.857-0.236
		c-0.064,0.272-0.332,0.397-0.588,0.305c-0.227-0.082-0.486,0.092-0.549,0.311C14.604,38.271,14.755,38.49,14.983,38.571"/>
	<path fill="#C9A877" d="M16.911,34.07c0.35,0.872,1.361,1.293,2.209,0.83c0.594-0.325,0.064-1.233-0.531-0.908
		c-0.195,0.107-0.566,0.046-0.664-0.202c-0.107-0.263-0.352-0.447-0.648-0.367C17.026,33.492,16.804,33.806,16.911,34.07"/>
	<path fill="#C9A877" d="M13.944,55.744c0.746-0.183,1.23-1.04,0.961-1.771c-0.088-0.236-0.316-0.397-0.574-0.326
		c-0.227,0.063-0.414,0.337-0.326,0.574c0.1,0.267-0.021,0.553-0.309,0.623C13.112,54.987,13.36,55.888,13.944,55.744"/>
	<path fill="#C9A877" d="M5.497,59.689c0.705-0.541,0.848-1.563,0.209-2.228c-0.443-0.463-1.148,0.244-0.703,0.705
		c0.152,0.16,0.186,0.513-0.01,0.662c-0.213,0.164-0.326,0.429-0.178,0.682C4.938,59.721,5.282,59.854,5.497,59.689"/>
	<path fill="#C9A877" d="M18.403,42.546c0.643-0.557,0.643-1.629,0.023-2.2c-0.482-0.444-1.205,0.274-0.721,0.721
		c0.234,0.216,0.215,0.554-0.023,0.759C17.187,42.257,17.909,42.975,18.403,42.546"/>
	<path fill="#C9A877" d="M9.679,73.034c-0.891,0.365-1.324,1.404-0.84,2.272c0.34,0.606,1.271,0.063,0.932-0.545
		c-0.111-0.201-0.055-0.584,0.195-0.687c0.27-0.111,0.461-0.359,0.377-0.664C10.272,73.155,9.95,72.923,9.679,73.034"/>
	<path fill="#C9A877" d="M14.419,59.196c0.58,0.467,1.43,0.363,1.84-0.277c0.289-0.45-0.43-0.867-0.717-0.418
		c-0.1,0.156-0.379,0.236-0.537,0.109c-0.174-0.141-0.416-0.171-0.586,0C14.272,58.755,14.243,59.056,14.419,59.196"/>
	<path fill="#C9A877" d="M4.624,24.469c-0.898-0.162-1.73,0.47-1.789,1.388c-0.018,0.272,0.244,0.504,0.504,0.504
		c0.287,0,0.486-0.23,0.504-0.504c0.014-0.226,0.281-0.459,0.514-0.416c0.268,0.047,0.543-0.074,0.619-0.353
		C5.044,24.844,4.894,24.517,4.624,24.469"/>
	<path fill="#C9A877" d="M18.321,26.735c-0.553,0.629-0.43,1.576,0.252,2.055c0.205,0.143,0.514,0.036,0.631-0.166
		c0.137-0.229,0.039-0.488-0.164-0.631c-0.18-0.126-0.209-0.445-0.066-0.605C19.364,26.943,18.716,26.29,18.321,26.735"/>
	<path fill="#C9A877" d="M16.845,66.423c0.857-0.125,1.4-1.076,1.18-1.887c-0.176-0.639-1.17-0.367-0.994,0.273
		c0.08,0.293-0.135,0.572-0.461,0.619c-0.275,0.041-0.426,0.391-0.359,0.635C16.29,66.359,16.567,66.464,16.845,66.423"/>
	<path fill="#C9A877" d="M12.724,12.18c0.471,0.652,1.387,0.774,1.99,0.226c0.426-0.386-0.205-1.016-0.631-0.631
		c-0.15,0.136-0.463,0.13-0.59-0.045c-0.139-0.196-0.387-0.29-0.609-0.16C12.69,11.682,12.583,11.984,12.724,12.18"/>
	<path fill="#C9A877" d="M11.265,34.983c-0.125-0.694-0.887-1.129-1.551-0.937c-0.518,0.149-0.299,0.96,0.223,0.81
		c0.258-0.074,0.475,0.1,0.52,0.351c0.041,0.223,0.311,0.35,0.516,0.293C11.208,35.436,11.306,35.208,11.265,34.983"/>
	<path fill="#C9A877" d="M15.313,75.524c-0.043-0.912-0.865-1.531-1.75-1.387c-0.264,0.043-0.412,0.373-0.346,0.611
		c0.078,0.281,0.346,0.391,0.611,0.346c0.234-0.037,0.482,0.213,0.492,0.43C14.351,76.16,15.345,76.164,15.313,75.524"/>
	<path fill="#C9A877" d="M15.099,16.027c0.426,0.653,1.299,0.762,1.893,0.274c0.18-0.146,0.152-0.451,0-0.603
		c-0.176-0.176-0.424-0.146-0.602,0c-0.16,0.131-0.449,0.061-0.555-0.101C15.534,15.139,14.798,15.566,15.099,16.027"/>
	<path fill="#C9A877" d="M17.214,81.683c-0.615,0.262-0.826,1.058-0.516,1.621c0.246,0.444,0.928,0.047,0.682-0.397
		c-0.123-0.224,0.018-0.452,0.232-0.543c0.197-0.083,0.236-0.371,0.141-0.539C17.638,81.62,17.409,81.601,17.214,81.683"/>
	<path fill="#C9A877" d="M18.499,54.411c-0.723-0.385-1.578-0.031-1.873,0.715c-0.088,0.226,0.098,0.492,0.313,0.551
		c0.254,0.068,0.461-0.088,0.549-0.313c0.08-0.203,0.385-0.275,0.561-0.183C18.558,55.45,19.009,54.681,18.499,54.411"/>
	<path fill="#C9A877" d="M2.231,33.522c0.309,0.61,1.139,0.828,1.711,0.458c0.439-0.286,0.031-0.996-0.414-0.708
		c-0.215,0.141-0.473,0.064-0.588-0.164C2.702,32.638,1.995,33.053,2.231,33.522"/>
	<path fill="#C9A877" d="M4.747,84.911c-0.842,0.349-1.252,1.332-0.791,2.154c0.322,0.574,1.205,0.06,0.883-0.516
		c-0.107-0.189-0.057-0.555,0.18-0.652c0.256-0.105,0.438-0.339,0.357-0.629C5.31,85.028,5.005,84.806,4.747,84.911"/>
	<path fill="#C9A877" d="M3.249,39.347c0.758-0.322,1.021-1.321,0.627-2.012c-0.313-0.543-1.156-0.053-0.842,0.494
		c0.15,0.266-0.002,0.559-0.277,0.676c-0.242,0.103-0.295,0.459-0.174,0.666C2.728,39.423,3.007,39.449,3.249,39.347"/>
	<path fill="#C9A877" d="M19.339,38.44c0.244-0.703-0.221-1.521-0.943-1.684c-0.561-0.126-0.799,0.735-0.238,0.862
		c0.271,0.061,0.41,0.323,0.318,0.584C18.288,38.748,19.151,38.981,19.339,38.44"/>
	<path fill="#C9A877" d="M11.587,72.401c0.689,0.428,1.697,0.162,2.047-0.584c0.113-0.242,0.068-0.531-0.176-0.674
		c-0.215-0.125-0.561-0.065-0.676,0.176c-0.127,0.272-0.432,0.396-0.697,0.231C11.544,71.216,11.048,72.067,11.587,72.401"/>
	<path fill="#C9A877" d="M9.63,48.779c-0.357-0.69-1.316-0.942-1.965-0.507c-0.498,0.336-0.027,1.15,0.475,0.811
		c0.242-0.162,0.545-0.09,0.68,0.17C9.097,49.79,9.907,49.316,9.63,48.779"/>
	<path fill="#C9A877" d="M6.175,27.612c-0.906-0.033-1.734,0.797-1.654,1.713c0.025,0.295,0.234,0.551,0.551,0.551
		c0.277,0,0.578-0.254,0.551-0.551c-0.029-0.336,0.217-0.623,0.553-0.61C6.886,28.741,6.884,27.638,6.175,27.612"/>
	<path fill="#C9A877" d="M3.942,76.036c-0.83-0.146-1.592,0.432-1.65,1.279c-0.039,0.596,0.891,0.594,0.93,0
		c0.014-0.211,0.26-0.422,0.475-0.385c0.246,0.045,0.5-0.065,0.57-0.324C4.329,76.384,4.19,76.08,3.942,76.036"/>
	<path fill="#C9A877" d="M5.642,44.343c-0.686,0.616-0.686,1.785,0.004,2.397c0.533,0.474,1.322-0.31,0.787-0.785
		c-0.26-0.229-0.264-0.596-0.006-0.828C6.96,44.648,6.171,43.865,5.642,44.343"/>
	<path fill="#C9A877" d="M12.886,18.847c0.869-0.525,1.004-1.662,0.402-2.437c-0.184-0.235-0.588-0.192-0.779,0
		c-0.232,0.231-0.184,0.543,0,0.778c0.166,0.212,0.029,0.582-0.18,0.708C11.726,18.263,12.278,19.216,12.886,18.847"/>
	<path fill="#C9A877" d="M12.405,37.205c-0.813-0.424-1.781-0.024-2.1,0.82c-0.098,0.253,0.105,0.55,0.35,0.616
		c0.281,0.078,0.521-0.096,0.617-0.35c0.09-0.234,0.436-0.318,0.625-0.22C12.472,38.37,12.979,37.504,12.405,37.205"/>
	<path fill="#C9A877" d="M7.718,72.06c-0.447-0.768-1.557-1.057-2.287-0.508c-0.234,0.175-0.355,0.469-0.195,0.742
		c0.135,0.23,0.506,0.371,0.742,0.194c0.258-0.192,0.627-0.183,0.803,0.119C7.132,73.21,8.071,72.665,7.718,72.06"/>
	<path fill="#C9A877" d="M11.069,54.799c-0.799,0.405-1.088,1.506-0.592,2.25c0.381,0.575,1.316,0.036,0.93-0.543
		c-0.186-0.279-0.096-0.624,0.205-0.776C12.229,55.415,11.685,54.485,11.069,54.799"/>
	<path fill="#C9A877" d="M11.429,82.341c0.248-0.742-0.244-1.609-1.012-1.771c-0.592-0.124-0.846,0.786-0.25,0.911
		c0.287,0.06,0.443,0.331,0.352,0.607C10.327,82.667,11.237,82.914,11.429,82.341"/>
	<path fill="#C9A877" d="M3.001,44.337c0.525-0.605,0.408-1.513-0.25-1.967c-0.471-0.322-0.912,0.442-0.447,0.762
		c0.172,0.119,0.209,0.424,0.074,0.58C2.005,44.14,2.628,44.767,3.001,44.337"/>
	<path fill="#C9A877" d="M3.202,68.281c-0.9-0.177-1.732,0.457-1.803,1.371c-0.021,0.272,0.246,0.504,0.504,0.504
		c0.289,0,0.48-0.231,0.504-0.504c0.018-0.233,0.303-0.442,0.527-0.399c0.268,0.053,0.543-0.076,0.619-0.352
		C3.622,68.653,3.47,68.335,3.202,68.281"/>
	<path fill="#C9A877" d="M18.515,17.706c-0.162,0.707,0.324,1.332,1.023,1.425c0.211,0.026,0.393-0.199,0.393-0.392
		c0-0.232-0.182-0.361-0.393-0.39c-0.186-0.024-0.309-0.271-0.271-0.437C19.378,17.424,18.624,17.215,18.515,17.706"/>
	<path fill="#C9A877" d="M9.917,65.362c-0.553-0.845-1.693-0.986-2.459-0.35c-0.23,0.191-0.197,0.585,0,0.783
		c0.227,0.227,0.553,0.19,0.783,0c0.205-0.172,0.582-0.086,0.721,0.125C9.349,66.515,10.308,65.96,9.917,65.362"/>
	<path fill="#C9A877" d="M4.519,16.18c-0.617,0.293-0.834,1.114-0.484,1.688c0.271,0.447,0.975,0.039,0.701-0.41
		c-0.135-0.223-0.031-0.469,0.193-0.576C5.401,16.657,4.989,15.956,4.519,16.18"/>
	<path fill="#C9A877" d="M9.517,22.57c0.105-0.801-0.602-1.512-1.381-1.528c-0.613-0.012-0.613,0.942,0,0.955
		c0.311,0.006,0.465,0.297,0.428,0.573c-0.035,0.256,0.244,0.478,0.477,0.478C9.325,23.048,9.483,22.827,9.517,22.57"/>
	<path fill="#C9A877" d="M10.931,63.784c0.789,0.222,1.713-0.305,1.844-1.137c0.041-0.268-0.068-0.541-0.352-0.617
		c-0.236-0.066-0.574,0.081-0.615,0.35c-0.049,0.305-0.313,0.52-0.609,0.438C10.575,62.642,10.31,63.608,10.931,63.784"/>
	<path fill="#C9A877" d="M11.22,76.556c-0.869,0.238-1.445,1.257-1.096,2.117c0.113,0.276,0.369,0.473,0.68,0.387
		c0.262-0.072,0.498-0.402,0.387-0.68c-0.121-0.295-0.027-0.664,0.324-0.76C12.198,77.433,11.909,76.367,11.22,76.556"/>
	<path fill="#C9A877" d="M8.864,24.511c-0.709-0.555-1.75-0.43-2.234,0.363c-0.338,0.557,0.533,1.063,0.871,0.51
		c0.117-0.191,0.455-0.311,0.65-0.16c0.213,0.168,0.504,0.209,0.713,0C9.038,25.05,9.079,24.68,8.864,24.511"/>
	<path fill="#C9A877" d="M18.058,72.188c-0.352-0.736-1.35-1-2.033-0.57c-0.531,0.334-0.041,1.18,0.494,0.844
		c0.262-0.164,0.566-0.051,0.695,0.22c0.113,0.239,0.453,0.301,0.668,0.176C18.126,72.715,18.171,72.428,18.058,72.188"/>
	<path fill="#C9A877" d="M4.003,79.479c-0.73-0.039-1.375,0.605-1.342,1.334c0.025,0.563,0.902,0.565,0.875,0
		c-0.012-0.273,0.193-0.473,0.467-0.458C4.565,80.386,4.563,79.51,4.003,79.479"/>
	<path fill="#C9A877" d="M16.532,49.246c-0.158,0.96,0.523,1.864,1.516,1.905c0.697,0.027,0.695-1.056,0-1.084
		c-0.24-0.01-0.51-0.306-0.473-0.533c0.049-0.288-0.074-0.584-0.377-0.666C16.938,48.797,16.579,48.956,16.532,49.246"/>
	<path fill="#C9A877" d="M12.724,39.552c-0.617,0.604-0.615,1.708,0.066,2.268c0.221,0.18,0.529,0.215,0.742,0
		c0.188-0.186,0.223-0.563,0-0.744c-0.244-0.199-0.305-0.547-0.064-0.78C13.95,39.821,13.208,39.079,12.724,39.552"/>
	<path fill="#C9A877" d="M19.583,31.46c0.027-0.783-0.676-1.486-1.467-1.428c-0.256,0.018-0.475,0.204-0.475,0.475
		c0,0.241,0.217,0.492,0.475,0.473c0.291-0.021,0.529,0.182,0.52,0.48C18.614,32.07,19.562,32.069,19.583,31.46"/>
	<path fill="#C9A877" d="M15.763,85.913c-0.428-0.508-1.254-0.51-1.707-0.039c-0.354,0.365,0.205,0.926,0.559,0.559
		c0.176-0.182,0.434-0.145,0.59,0.039C15.532,86.862,16.089,86.3,15.763,85.913"/>
	<path fill="#C9A877" d="M9.901,8.484c0.703,0.272,1.525-0.193,1.713-0.906c0.146-0.56-0.719-0.798-0.865-0.239
		c-0.074,0.278-0.357,0.377-0.609,0.28C9.913,7.532,9.647,7.716,9.589,7.933C9.519,8.187,9.675,8.396,9.901,8.484"/>
	<path fill="#C9A877" d="M16.45,27.476c0.209-0.951-0.471-1.836-1.426-1.926c-0.287-0.027-0.533,0.265-0.533,0.532
		c0,0.312,0.246,0.505,0.533,0.533c0.248,0.022,0.445,0.363,0.396,0.577C15.274,27.86,16.302,28.146,16.45,27.476"/>
	<path fill="#C9A877" d="M12.786,25.239c0.535-0.418,0.537-1.254,0.082-1.727c-0.357-0.371-0.924,0.195-0.566,0.567
		c0.18,0.187,0.105,0.448-0.08,0.594c-0.172,0.134-0.139,0.425,0,0.565C12.388,25.41,12.618,25.373,12.786,25.239"/>
	<path fill="#C9A877" d="M10.429,11.551c-0.207-0.735-1.064-1.22-1.793-0.921c-0.232,0.095-0.398,0.31-0.326,0.574
		c0.061,0.221,0.34,0.422,0.574,0.326c0.254-0.104,0.563-0.022,0.645,0.269C9.69,12.377,10.591,12.131,10.429,11.551"/>
	<path fill="#010101" d="M26.091,20.263c3.762-1.192,7.52-2.386,11.279-3.578c0.74-0.233,1.496-0.472,2.271-0.445
		c0.813,0.027,1.586,0.341,2.338,0.65c1.623,0.668,3.244,1.334,4.865,2.002c0.584,0.239,1.205,0.508,1.547,1.039
		c0.316,0.491,0.33,1.11,0.338,1.693c0.008,0.943,0.018,1.887,0.027,2.829c0.002,0.326-0.002,0.68-0.203,0.937
		c-0.225,0.289-0.619,0.365-0.98,0.42c-6.676,0.991-13.541,0.688-20.105-0.887c-0.598-0.143-1.215-0.307-1.695-0.691
		c-1.021-0.819-1.064-2.514-0.23-3.522c0.834-1.01,2.324-1.33,3.582-0.966"/>
</g>
</svg>
