<?xml version="1.0" encoding="utf-8"?>
<!-- Generator: Adobe Illustrator 16.0.2, SVG Export Plug-In . SVG Version: 6.00 Build 0)  -->
<!DOCTYPE svg PUBLIC "-//W3C//DTD SVG 1.1//EN" "http://www.w3.org/Graphics/SVG/1.1/DTD/svg11.dtd">
<svg version="1.1" id="Layer_1" xmlns="http://www.w3.org/2000/svg" xmlns:xlink="http://www.w3.org/1999/xlink" x="0px" y="0px"
	 width="74.229px" height="40.333px" viewBox="0 0 74.229 40.333" enable-background="new 0 0 74.229 40.333" xml:space="preserve">
<g>
	<path fill="#2B2F82" d="M0.779,3.948c1.222-2.283,4.353-3.004,6.94-3.047c18.475-0.299,36.948-0.6,55.422-0.9
		c2.31-0.037,5.688,1.516,7.215,3.248C47.487,5.351,23.735,4.61,0.779,3.948"/>
	<path fill="#2C3A96" d="M0.061,39.765c18.267,0.689,36.557,0.752,54.828,0.188c6.474-0.201,12.864-0.449,19.34-0.363
		c-1.87-9.668-2.456-19.584-1.738-29.404c0.095-1.283,0.209-2.584-0.047-3.844c-0.257-1.26,0.194-1.904-0.946-2.498
		c-0.958-0.498-3.16-0.352-4.239-0.326C48.941,3.94,30.556,3.638,12.239,4.062c-1.923,0.043-3.846,0.088-5.77,0.133
		c-1.007,0.023-2.015,0.047-3.022,0.07C2.853,4.278,0.894,3.993,0.441,4.333c-0.788,0.594-0.279,4.236-0.282,5.313
		c-0.007,2.008-0.014,4.016-0.02,6.023C0.113,23.7,0.087,31.731,0.061,39.765"/>
	<path fill="#5E3C15" d="M34.926,34.853c-1.7,0.238-3.351-1.217-3.626-2.912c-0.276-1.695,0.625-3.438,1.984-4.486
		c1.358-1.049,3.104-1.486,4.818-1.586c2.61-0.15,5.281,0.449,7.502,1.83c2.222,1.379,3.967,3.553,4.692,6.064
		c-4.748-2.535-11.025-1.838-15.1,1.68"/>
	<path fill="#5E3C15" d="M63.85,34.013c-4.785-0.488-9.882-1.102-13.576-4.182c-1.426-1.189-2.642-2.975-2.257-4.793
		c0.248-1.176,1.148-2.145,2.22-2.693c1.07-0.549,2.295-0.727,3.498-0.752c2.397-0.057,4.807,0.455,6.976,1.479
		c1.457,0.688,2.829,1.625,3.787,2.92c0.959,1.295,1.464,2.979,1.116,4.553c-0.348,1.57-1.646,2.959-3.241,3.176"/>
	<path fill="#FFEED7" d="M47.895,25.331c-0.899,1.521-1.817,3.389-1.017,4.963c0.614,1.213,2.022,1.754,3.309,2.193
		c2.663,0.908,4.531,2.264,7.988,2.729c1.65,0.221,3.256,1.084,4.877,0.701c1.622-0.381,2.325-2.119,1.767-3.689
		c-3.157,1.76-5.922,1.777-9.247,0.361c-3.324-1.418-6.416-4.213-7.334-7.709"/>
	<path fill="#5E3C15" d="M46.75,29.216c-0.571,0.631-0.449,1.668,0.051,2.357c0.499,0.689,1.28,1.107,2.044,1.484
		c4.171,2.066,8.592,3.625,13.136,4.633c0.689,0.152,1.636,0.154,1.844-0.52c0.13-0.426-0.167-0.885-0.558-1.096
		c-0.391-0.209-0.852-0.234-1.294-0.264c-5.617-0.377-11.098-2.559-15.438-6.143"/>
</g>
</svg>
