<?xml version="1.0" encoding="utf-8"?>
<!-- Generator: Adobe Illustrator 16.0.2, SVG Export Plug-In . SVG Version: 6.00 Build 0)  -->
<!DOCTYPE svg PUBLIC "-//W3C//DTD SVG 1.1//EN" "http://www.w3.org/Graphics/SVG/1.1/DTD/svg11.dtd">
<svg version="1.1" id="Layer_1" xmlns="http://www.w3.org/2000/svg" xmlns:xlink="http://www.w3.org/1999/xlink" x="0px" y="0px"
	 width="36.681px" height="91.856px" viewBox="0 0 36.681 91.856" enable-background="new 0 0 36.681 91.856" xml:space="preserve">
<g>
	<path fill="#F4D49D" d="M18.772,90.473c-1.075-0.415-1.717-1.558-1.918-2.691c-0.201-1.135-0.05-2.298-0.017-3.449
		c0.059-2.123-0.287-4.232-0.518-6.344c-0.378-3.451-0.448-6.937-0.209-10.4c0.375-5.457,1.514-10.847,1.727-16.313
		c0.066-1.694,0.043-3.392,0.02-5.088c-0.027-1.991-0.055-3.985-0.253-5.968c-0.283-2.844-0.917-5.721-0.391-8.532
		c1.248,1.212,0.962,3.229,0.977,4.969c0.016,1.886,0.494,3.735,0.688,5.612c0.187,1.819,0.105,3.655,0.023,5.482
		c-0.284,6.305-0.568,12.611-1.086,18.901c-0.363,4.411-0.827,8.831-0.726,13.264c0.05,2.148,0.232,4.298,0.636,6.411
		c0.205,1.075,0.432,2.188,0.804,3.221c0.488,1.349,0.831,0.839,2.133,0.768c1.815-0.099,3.597,0.53,5.415,0.563
		c3.437,0.06,6.515-1.979,9.34-3.938c0.211-0.145,0.426-0.296,0.57-0.508c0.218-0.322,0.24-0.734,0.243-1.124
		c0.031-3.122-0.595-6.212-0.752-9.33c-0.303-6.02,1.147-12.063,0.464-18.053c-0.2-1.759-0.584-3.503-0.602-5.273
		c-0.017-1.661,0.289-3.308,0.419-4.964c0.347-4.444-0.268-7.632-0.356-12.089c-0.052-2.633,0.4-4.83-0.061-7.018
		c-0.316-1.496-1.085-4.318-1.603-5.757c-0.919-2.557-2.857-4.23-4.863-6.061c-1.842-1.681-6.415,0.246-5.435-2.95
		c0.415-1.355,1.612-4.873,2.336-6.093c0.936-1.578,1.565-3.443,1.216-5.244c-0.145-0.756-0.512-1.533-1.202-1.874
		c-1.206-0.595-2.682,0.409-3.971,0.028c-0.636-0.188-1.204-0.706-1.861-0.622c-0.607,0.078-1.016,0.638-1.521,0.983
		C17.196,1.84,15.316,1.41,14.23,2.45c-1.239,1.188-0.522,3.251,0.267,4.774c1.595,3.079,3.19,6.159,4.785,9.238
		c-2.011,0.264-3.94,1.126-5.478,2.448c-0.938,0.807-1.726,1.771-2.467,2.763c-3.009,4.021-5.376,8.674-5.881,13.671
		c-0.172,1.703-0.127,3.429-0.429,5.114c-0.301,1.676-0.939,3.272-1.316,4.934c-0.469,2.07-0.526,4.208-0.581,6.33
		c-0.088,3.435,0.289,6.976-0.146,10.345c-0.51,3.945-1.019,7.891-1.528,11.835c-0.611,4.73-1.09,10.002,1.769,13.819
		c2.869,3.833,8.401,4.873,13.03,3.647c0.88-0.233,1.748-0.536,2.63-0.76"/>
	<path fill="#EEA820" d="M10.827,22.55c1.132-1.962,3.191-3.17,5.159-4.29c1.119-0.637,2.244-1.277,3.454-1.717
		c1.441-0.524,2.976-0.756,4.508-0.823c2.29-0.103,4.661,0.174,6.671,1.275c2.011,1.103,3.604,3.142,3.726,5.431
		c-2.853-0.807-5.738-1.499-8.645-2.077c-3.541-0.704-7.418-1.191-10.592,0.53c-1.559,0.844-2.966,2.219-4.738,2.264"/>
	<path fill="#F19121" d="M10.422,23.272c-0.616,0.967-1.157,1.981-1.616,3.033c1.794-0.235,3.254-1.565,4.992-2.066
		c1.736-0.5,3.589-0.137,5.358,0.229c5.047,1.044,10.094,2.087,15.141,3.131c0.108,0.021,0.22,0.045,0.328,0.021
		c0.353-0.077,0.427-0.541,0.423-0.901c-0.014-1.539-0.097-3.247-1.187-4.332c-0.512-0.511-1.191-0.815-1.869-1.067
		c-2.376-0.885-4.913-1.249-7.438-1.48c-2.893-0.265-5.862-0.354-8.65,0.462c-2.788,0.814-5.4,2.663-6.509,5.35"/>
	<path fill="#EEA820" d="M8.092,27.159c-0.308,0.742-0.501,1.531-0.57,2.331c-0.024,0.275-0.028,0.57,0.119,0.803
		c0.341,0.542,1.16,0.371,1.76,0.148c2.697-1.002,5.492-1.741,8.333-2.203c1.656-0.271,3.35-0.445,5.011-0.203
		c3.95,0.574,7.205,3.395,11.023,4.56c0.325,0.099,0.689,0.183,0.995,0.034c0.273-0.132,0.432-0.417,0.574-0.685
		c0.415-0.783,0.842-1.669,0.596-2.521c-0.28-0.963-1.302-1.482-2.239-1.84c-3.751-1.426-7.758-2.014-11.729-2.593
		c-1.577-0.229-3.155-0.46-4.733-0.69c-0.992-0.145-2.008-0.288-2.99-0.09c-1.08,0.22-2.032,0.834-2.954,1.438
		c-1.207,0.789-2.413,1.577-3.62,2.366"/>
	<path fill="#F19121" d="M7.333,30.292c-0.599,0.942-1.213,1.928-1.343,3.037s0.38,2.379,1.434,2.749
		c0.995,0.351,2.058-0.179,3.012-0.629c6.91-3.261,15.274-2.793,22.179,0.479c0.643,0.305,1.372,0.639,2.038,0.386
		c0.82-0.312,1.088-1.419,0.771-2.238c-0.317-0.817-1.042-1.398-1.756-1.908c-2.733-1.956-5.806-3.49-9.093-4.193
		s-6.799-0.541-9.902,0.75c-1.101,0.459-2.148,1.056-3.289,1.403c-1.445,0.44-3.046,0.485-4.316,1.305"/>
	<path fill="#EEA820" d="M29.284,34.729c1.894,0.71,3.787,1.42,5.681,2.13c0.185,0.07,0.384,0.151,0.485,0.321
		c0.193,0.329-0.11,0.741-0.447,0.92c-0.664,0.354-1.468,0.285-2.21,0.165c-3.805-0.615-7.473-2.346-11.321-2.13
		c-1.727,0.096-3.404,0.585-5.063,1.07c-2.197,0.643-4.407,1.291-6.454,2.314c-1.028,0.515-2.06,1.135-3.208,1.182
		c-1.149,0.046-2.434-0.759-2.414-1.907c0.021-1.146,1.214-1.862,2.263-2.32c4.166-1.815,8.598-3.138,13.138-3.353
		c4.539-0.215,9.204,0.729,13.044,3.16"/>
	<path fill="#F19121" d="M34.592,38.655c0.591-0.148,1.193,0.43,1.208,1.04c0.015,0.608-0.423,1.159-0.961,1.445
		s-1.162,0.356-1.771,0.396c-4.6,0.295-9.156-0.857-13.746-1.287c-4.59-0.43-9.596-0.002-13.141,2.945
		c-0.507,0.42-1.138,0.921-1.747,0.671c-0.629-0.257-0.698-1.196-0.296-1.744c0.402-0.548,1.084-0.798,1.727-1.021
		c2.642-0.913,5.285-1.827,7.927-2.741c1.583-0.547,3.18-1.099,4.843-1.299c0.842-0.102,1.695-0.111,2.533-0.241
		c0.62-0.097,1.228-0.256,1.845-0.364c3.971-0.697,7.966,0.786,11.724,2.246"/>
	<path fill="#EEA820" d="M33.485,41.512c0.801,0.383,1.566,0.842,2.279,1.368c0.276,0.204,0.573,0.482,0.533,0.823
		c-0.032,0.268-0.265,0.463-0.493,0.605c-1.604,1.007-3.683,0.849-5.502,0.321c-1.819-0.527-3.546-1.388-5.413-1.704
		c-1.093-0.185-2.209-0.179-3.317-0.13c-4.826,0.214-9.616,1.238-14.107,3.018c-0.659,0.261-1.365,0.544-2.057,0.39
		s-1.272-0.97-0.911-1.58c0.137-0.231,0.373-0.381,0.6-0.523c0.986-0.614,1.972-1.229,2.958-1.844
		c1.57-0.979,3.168-1.97,4.954-2.453c2.081-0.563,4.281-0.398,6.427-0.203c5.078,0.465,10.152,1.09,15.123,2.222"/>
	<path fill="#F19121" d="M34.396,45.291c0.591-0.148,1.193,0.43,1.208,1.04c0.015,0.608-0.423,1.158-0.961,1.445
		c-0.538,0.286-1.162,0.356-1.771,0.396c-4.6,0.295-9.156-0.857-13.746-1.287S9.53,46.882,5.985,49.83
		C5.478,50.25,4.847,50.75,4.238,50.5c-0.629-0.258-0.698-1.196-0.296-1.744c0.402-0.548,1.084-0.798,1.727-1.021
		c2.642-0.914,5.285-1.828,7.927-2.742c1.583-0.547,3.18-1.098,4.843-1.298c0.842-0.102,1.695-0.111,2.533-0.241
		c0.62-0.097,1.228-0.257,1.845-0.364c3.971-0.697,7.966,0.786,11.724,2.246"/>
	<path fill="#EEA820" d="M33.29,48.148c0.801,0.382,1.566,0.841,2.279,1.368c0.276,0.204,0.573,0.482,0.533,0.823
		c-0.032,0.268-0.265,0.463-0.493,0.605c-1.604,1.007-3.683,0.849-5.502,0.321c-1.819-0.528-3.546-1.388-5.413-1.704
		c-1.093-0.185-2.209-0.179-3.317-0.13C16.55,49.646,11.76,50.67,7.269,52.45c-0.659,0.261-1.365,0.544-2.057,0.39
		s-1.272-0.97-0.911-1.58c0.137-0.231,0.373-0.381,0.6-0.523c0.986-0.614,1.972-1.229,2.958-1.844
		c1.57-0.979,3.168-1.97,4.954-2.453c2.081-0.563,4.281-0.398,6.427-0.203c5.078,0.465,10.152,1.09,15.123,2.222"/>
	<path fill="#F19121" d="M3.284,57.642c7.329-3.124,15.662-2.228,23.568-3.219c0.806-0.101,1.626-0.222,2.423-0.069
		c0.795,0.152,1.51,0.565,2.246,0.901c0.735,0.336,1.551,0.605,2.343,0.442c0.793-0.162,1.516-0.895,1.408-1.695
		c-0.153-1.137-1.601-1.479-2.742-1.6c-1.915-0.203-3.816-0.539-5.685-1.007c-1.26-0.314-2.509-0.689-3.792-0.892
		c-3.18-0.5-6.418,0.079-9.584,0.657c-1.643,0.3-3.285,0.599-4.928,0.898c-1.143,0.208-2.301,0.423-3.348,0.927
		s-1.986,1.343-2.348,2.446c-0.149,0.453-0.177,1.005,0.145,1.357c0.431,0.471,1.193,0.328,1.805,0.146"/>
	<path fill="#F19121" d="M32.979,51.635c0.647,0.129,1.293,0.258,1.94,0.386c0.389,0.078,0.854,0.228,0.935,0.615
		c0.066,0.319-0.196,0.632-0.503,0.739c-0.308,0.106-0.645,0.06-0.967,0.011c-2.416-0.366-4.822-0.796-7.216-1.287
		c-1.78-0.365-3.571-0.768-5.388-0.761c-1.603,0.006-3.185,0.329-4.766,0.595c-4.529,0.761-9.278,1.032-13.628-0.439
		c0.983-1.316,2.839-1.532,4.48-1.616c5.251-0.268,10.512-0.318,15.767-0.149c3.433,0.11,6.993,0.349,10.016,1.982"/>
	<path fill="#EEA820" d="M32.998,53.906c1.177,0.573,2.302,1.255,3.355,2.034c0.169,0.125,0.354,0.294,0.325,0.502
		c-0.016,0.108-0.089,0.2-0.165,0.278c-0.855,0.883-2.295,0.889-3.453,0.479c-1.158-0.41-2.169-1.156-3.304-1.626
		c-1.616-0.671-3.406-0.755-5.154-0.83c-2.527-0.109-5.083-0.217-7.564,0.278c-1.649,0.329-3.237,0.919-4.884,1.258
		c-2.515,0.519-5.152,0.438-7.631-0.233c0.189-0.954,1.16-1.517,2.054-1.901c2.66-1.147,5.523-1.819,8.415-1.978
		c1.306-0.071,2.618-0.039,3.918-0.177c1.359-0.145,2.697-0.474,4.062-0.533c2.599-0.112,5.128,0.757,7.584,1.615
		c1.087,0.38,2.175,0.76,3.262,1.141"/>
	<path fill="#F19121" d="M31.995,56.953c1.699,0.778,3.631,1.861,3.842,3.718c-3.568,0.385-6.695-2.452-10.25-2.941
		c-3.238-0.445-6.662,1.085-9.731-0.039c-0.055-0.02-0.114-0.045-0.143-0.096c-0.029-0.054-0.016-0.121,0.001-0.18
		c0.256-0.901,1.078-1.554,1.964-1.854c0.887-0.302,1.843-0.31,2.78-0.313c1.988-0.005,3.983,0.004,5.956,0.249
		c2.7,0.339,5.343,1.128,7.787,2.325"/>
	<path fill="#EEA820" d="M32.665,60.575c0.955,0.529,1.91,1.058,2.865,1.587c0.25,0.138,0.522,0.304,0.599,0.579
		c0.104,0.373-0.232,0.752-0.608,0.843c-0.375,0.091-0.767-0.021-1.138-0.132c-3.921-1.157-7.941-1.976-12.002-2.444
		c-0.71-0.082-1.44-0.158-2.074-0.485c-0.635-0.328-1.162-0.974-1.126-1.687c0.009-0.184,0.067-0.383,0.221-0.481
		c0.096-0.063,0.213-0.075,0.325-0.087c4.767-0.49,9.658,0.286,14.039,2.226"/>
	<path fill="#F19121" d="M32.85,63.399c0.893,0.204,1.748,0.575,2.508,1.088c0.331,0.224,0.681,0.591,0.541,0.965
		c-0.157,0.42-0.747,0.41-1.187,0.322c-1.89-0.377-3.784-0.754-5.627-1.318c-1.163-0.355-2.307-0.785-3.498-1.03
		c-1.956-0.402-4.085-0.324-5.794-1.358c-0.124-0.074-0.255-0.169-0.284-0.311c-0.025-0.126,0.039-0.253,0.12-0.354
		c0.501-0.622,1.466-0.498,2.244-0.315c4.069,0.955,8.138,1.908,12.207,2.862"/>
	<path fill="#EEA820" d="M33.58,65.867c0.593,0.313,1.148,0.697,1.648,1.144c0.179,0.16,0.357,0.336,0.437,0.562
		c0.144,0.411-0.081,0.87-0.393,1.175c-0.7,0.679-1.787,0.817-2.741,0.616c-0.955-0.199-1.819-0.688-2.689-1.13
		c-2.117-1.074-4.36-1.901-6.667-2.462c-1.323-0.321-2.81-0.647-3.556-1.787c-0.084-0.127-0.158-0.28-0.115-0.427
		c0.066-0.219,0.341-0.283,0.569-0.306c4.982-0.503,10.11,0.552,14.488,2.981"/>
	<path fill="#F19121" d="M33.691,69.267c0.293,0.351,0.816,0.352,1.259,0.461c0.444,0.109,0.916,0.56,0.69,0.955
		c-0.116,0.205-0.368,0.283-0.598,0.327c-1.134,0.218-2.303,0.037-3.442-0.158c-2.128-0.362-4.248-0.772-6.358-1.227
		c-1.585-0.342-3.179-0.714-4.642-1.411c-0.587-0.28-1.232-0.765-1.151-1.41c0.062-0.493,0.56-0.837,1.053-0.895
		c0.493-0.06,0.983,0.101,1.456,0.253c4.15,1.337,8.421,2.302,12.743,2.878"/>
	<path fill="#EEA820" d="M32.309,70.492c0.87,0.394,1.741,0.787,2.611,1.182c0.267,0.121,0.577,0.296,0.6,0.568
		c0.021,0.254-0.227,0.426-0.457,0.536c-2.557,1.229-5.793,0.514-8.708-0.306c-2.358-0.662-4.703-1.378-7.033-2.146
		c-0.285-0.095-0.581-0.196-0.8-0.399c-0.219-0.204-0.333-0.542-0.175-0.762c0.146-0.203,0.448-0.233,0.716-0.242
		c2.115-0.071,4.261,0.094,6.38,0.49c2.677,0.5,5.361,1.372,8.029,1.25"/>
	<path fill="#F19121" d="M33.037,73.865c0.576,0.187,1.152,0.373,1.728,0.56c0.306,0.099,0.697,0.368,0.547,0.617
		c-0.048,0.079-0.141,0.121-0.23,0.158c-2.088,0.857-4.613,0.858-6.862,0.004c-1.013-0.385-1.974-0.935-3.021-1.188
		c-1.629-0.395-3.323-0.032-4.94-0.483c-0.69-0.191-1.445-0.664-1.49-1.331c-0.036-0.53,0.424-0.959,0.951-1.094
		c0.527-0.134,1.106-0.041,1.663,0.06c3.964,0.711,7.896,1.722,11.744,3.02"/>
	<path fill="#EEA820" d="M21.305,73.925c-1.358-0.35-2.792-0.295-4.041,0.155c0.486,1.005,1.484,1.752,2.546,2.209
		s2.201,0.663,3.323,0.89c2.968,0.602,5.913,1.374,8.812,2.314c0.706,0.229,1.428,0.471,2.153,0.466
		c0.725-0.004,1.468-0.311,1.74-0.926c0.361-0.818-0.247-1.85-1.067-2.402c-0.821-0.552-1.81-0.771-2.741-1.096
		c-1.451-0.505-2.823-1.294-4.317-1.599c-0.84-0.17-1.69-0.181-2.533-0.191c-1.274-0.016-2.548-0.031-3.822-0.047"/>
	<path fill="#F19121" d="M18.712,77.775c1.256-0.982,3.154-0.854,4.852-0.574c3.793,0.624,7.538,1.766,11.079,3.381
		c0.705,0.321,1.488,0.758,1.673,1.468c0.22,0.844-0.603,1.582-1.487,1.672c-0.884,0.09-1.784-0.27-2.644-0.595
		c-3.856-1.459-7.894-2.378-11.933-2.717c-0.343-0.029-0.704-0.06-1.001-0.246c-0.772-0.486-0.57-1.558-0.265-2.323"/>
	<path fill="#EEA820" d="M20.081,83.441c-0.628-0.209-0.952-0.975-0.761-1.546c0.191-0.57,0.772-0.937,1.391-1.068
		c0.62-0.133,1.282-0.067,1.932-0.003c1.051,0.105,2.106,0.211,3.147,0.444c1.368,0.307,2.689,0.828,4.003,1.347
		c0.986,0.389,1.973,0.779,2.959,1.168c0.777,0.308,1.605,0.652,2.092,1.313c0.487,0.662,0.395,1.728-0.37,1.939
		c-0.369,0.103-0.781-0.016-1.169-0.123c-1.304-0.359-2.633-0.604-3.964-0.729c-1.125-0.106-2.254-0.127-3.375-0.317
		c-2.109-0.357-4.112-1.3-5.99-2.381"/>
	<path fill="#ED2024" d="M5.699,34.509c3.029,0.608,5.978-1.069,8.909-2.046c2.148-0.715,4.418-1.063,6.681-1.027
		c0.029,2.756,0.903,5.435,1.145,8.181c0.195,2.212-0.024,4.438-0.253,6.647c-1.19,11.499-2.667,23.048-1.901,34.582
		c0.23,3.464,0.788,7.188,3.223,9.664c-1.131-1.056-2.938-0.541-4.403-0.044c-1.712,0.58-3.47,1.053-5.269,1.233
		c-3.128,0.314-6.397-0.301-9.024-2.027c-2.628-1.726-4.54-4.617-4.778-7.752c-0.122-1.604,0.18-3.21,0.251-4.817
		c0.084-1.897-0.154-3.794-0.194-5.693c-0.05-2.346,0.201-4.688,0.451-7.021c0.895-8.333,1.79-16.668,3.033-24.956
		c0.153-1.024,0.326-2.085,0.909-2.942c0.68-1,0.405-1.473,1.492-2.005"/>
	<path fill="#F4D49D" d="M18.924,31.737c-0.868,0.026-1.519,0.876-1.674,1.731c-0.154,0.855,0.05,1.727,0.154,2.59
		c0.232,1.925-0.038,3.872-0.046,5.812c-0.011,2.771,0.515,5.514,0.761,8.273c0.827,9.277-1.509,18.668-0.247,27.896
		c0.256,1.875,0.659,3.726,0.971,5.592c0.423,2.528,0.611,4.125,0.698,6.687c0.611-0.269,0.623-0.183,0.477-0.835
		c-1.61-7.168-1.829-14.584-1.499-21.924c0.308-6.875,1.088-13.813-0.06-20.599c-0.722-4.27-2.161-8.845-0.286-12.747
		c0.352-0.733,1.18-1.861,0.841-2.602"/>
	<path fill="#F4D49D" d="M6.885,35.226c-0.526,1.609-0.586,3.032-0.893,4.775C5.727,41.506,5.634,43.493,5.381,45
		c-0.278,1.659-0.46,3.333-0.631,5.006C3.647,60.799,3.018,71.642,2.865,82.491c-0.029,2.073-0.037,4.179,0.518,6.177
		c0.355-0.315,0.247-0.88,0.164-1.348c-0.193-1.083-0.091-2.194,0.009-3.289C4.453,74.171,4.6,64.587,5.205,54.707
		c0.106-1.723,0.669-3.746,0.774-5.469c0.155-2.521,0.309-5.043,0.464-7.564c0.142-2.318,0.283-4.637,0.425-6.956"/>
</g>
</svg>
