<?xml version="1.0" encoding="utf-8"?>
<!-- Generator: Adobe Illustrator 16.0.2, SVG Export Plug-In . SVG Version: 6.00 Build 0)  -->
<!DOCTYPE svg PUBLIC "-//W3C//DTD SVG 1.1//EN" "http://www.w3.org/Graphics/SVG/1.1/DTD/svg11.dtd">
<svg version="1.1" id="Layer_1" xmlns="http://www.w3.org/2000/svg" xmlns:xlink="http://www.w3.org/1999/xlink" x="0px" y="0px"
	 width="32.238px" height="77.533px" viewBox="0 0 32.238 77.533" enable-background="new 0 0 32.238 77.533" xml:space="preserve">
<g>
	<path fill="#E8A756" d="M0.151,36.628C0.949,31.515,1.749,26.38,1.82,21.205c0.031-2.25-0.076-4.506,0.117-6.748
		C2.284,10.41,3.622,6.452,5.799,3.023C6.273,2.277,6.8,1.541,7.52,1.026c0.83-0.596,1.857-0.852,2.872-0.962
		c4.264-0.466,8.709,1.629,11.065,5.214c-2.273-0.229-4.283,1.358-6.012,2.853c-2.06,1.779-3.295,4.476-4.823,6.728
		c-1.527,2.253-2.044,6.062-2.975,5.007c5.575-2.931,10.53-6.22,16.805-6.76c0.463-0.04,0.962-0.044,1.349,0.212
		c0.317,0.211,0.507,0.564,0.664,0.912c1.361,3.014,1.192,6.466,0.997,9.767c-0.05,0.834-0.106,1.696-0.479,2.444
		c-0.502,1.008-1.494,1.658-2.404,2.319c-9.234,6.729-13.209,19.005-12.37,30.399c0.252-1.466,1.717-2.425,3.157-2.798
		s2.967-0.349,4.388-0.791c2.624-0.818,4.492-3.082,6.202-5.234c2.072-2.608,4.156-5.234,5.753-8.159
		c0.622,1.783,0.568,3.723,0.468,5.608c-0.231,4.375-0.678,8.8-2.216,12.903c-1.489,3.972-3.944,7.496-6.375,10.972
		c-0.826,1.182-1.663,2.376-2.746,3.327c-2.289,2.011-5.501,2.74-8.539,2.502c-2.154-0.168-4.369-0.847-5.863-2.409
		c-0.77-0.805-1.309-1.801-1.784-2.809C1.028,64.574,0.732,55.787,0.5,47.282C0.398,43.561-0.303,40.324,0.151,36.628"/>
	<path fill="#CC965B" d="M32.001,42.524c0.543-1.459-0.384-3.285-1.173-4.627c-0.79-1.342-1.831-2.547-2.41-3.993
		c-0.686-1.71-0.669-3.62-0.44-5.449c0.115-0.912-0.158-2.275-1.057-2.082c-0.267,0.057-0.474,0.261-0.666,0.455
		c-1.914,1.944-3.211,2.229-5.125,4.175c-0.967,0.981-2.556,3.632-3.339,4.767c-0.79,1.146-2.433,4.074-2.974,5.357
		c-2.531,6.004-3.644,12.897-2.937,19.376c1.14-1.587,3.843-3.806,5.767-4.146c3.629-0.642,7.251-2.456,9.098-5.645
		c1.136-1.963,1.677-2.795,2.813-4.759c1.066-1.845,3.153-2.249,2.211-4.16"/>
	<path fill="#CC965B" d="M26.558,14.487c-2.005-1.272-4.342-0.829-6.502,0.156c-2.159,0.987-3.976,2.574-5.933,3.919
		c-1.958,1.344-4.207,2.486-6.579,2.379c0.184-1.411,0.834-2.712,1.474-3.982c2.249-4.464,4.773-9.213,9.225-11.484
		c0.913-0.465,2.001-0.812,2.946-0.417c1.309,0.547,1.71,2.304,1.28,3.655c-0.187,0.59-0.463,1.324-0.015,1.753
		c0.159,0.152,0.378,0.222,0.584,0.298C24.699,11.376,26.04,12.795,26.558,14.487"/>
</g>
</svg>
