<?xml version="1.0" encoding="utf-8"?>
<!-- Generator: Adobe Illustrator 16.0.2, SVG Export Plug-In . SVG Version: 6.00 Build 0)  -->
<!DOCTYPE svg PUBLIC "-//W3C//DTD SVG 1.1//EN" "http://www.w3.org/Graphics/SVG/1.1/DTD/svg11.dtd">
<svg version="1.1" id="Layer_1" xmlns="http://www.w3.org/2000/svg" xmlns:xlink="http://www.w3.org/1999/xlink" x="0px" y="0px"
	 width="61.159px" height="98.144px" viewBox="0 0 61.159 98.144" enable-background="new 0 0 61.159 98.144" xml:space="preserve">
<g>
	<path fill="#44612D" d="M32.136,37.75c2.343-6.01,2.833-12.726,5.985-18.353c2.298-4.102,5.852-7.331,8.758-11.027
		c0.855-1.087,1.676-2.264,1.937-3.621c-1.224,7.518-3.603,14.805-6.383,21.897c-0.981,2.502-2.029,5.013-3.632,7.17
		c-1.603,2.157-3.835,3.955-6.459,4.532"/>
	<path fill="#44A84F" d="M40.14,27.95c2.01-1.728,4.113-3.347,6.297-4.848c2.292-1.575,4.882-3.313,5.428-6.04
		c-0.574,3.523-2.28,6.753-4.108,9.82c-2.686,4.509-5.692,8.827-8.987,12.912c-1.027,1.273-1.985,3.81-3.392,4.645
		c-1.406,0.835-3.339-0.096-4.815-0.801c1.461-1.966,2.689-4.105,3.65-6.358"/>
	<path fill="#9BC53D" d="M34.176,50.663c-0.196-2.136-0.374-4.385,0.511-6.34c0.422-0.933,1.066-1.745,1.703-2.546l6.615-8.322
		c2.148-2.703,4.38-5.477,7.412-7.129c2.679-1.459,5.771-1.923,8.79-2.364c0.093-0.014,0.189-0.027,0.281-0.006
		c0.399,0.093,0.378,0.678,0.203,1.049c-0.631,1.336-1.938,2.193-3.163,3.019c-8.888,5.995-16.497,13.877-22.173,22.972"/>
	<path fill="#44612D" d="M34.51,48.114c-1.75,0.397-3.456-0.898-4.468-2.379c-1.586-2.32-3.268-6.118-3.803-8.877
		c-0.42-2.162,0.273-3.459,0.822-5.593c0.057-0.223,0.137-0.46,0.324-0.595c0.463-0.332,1.042,0.199,1.392,0.648
		c0.911,1.17,2.053,2.158,3.341,2.89c0.468,0.266,0.971,0.512,1.301,0.937c0.367,0.472,0.465,1.093,0.547,1.685
		c0.503,3.631,0.868,7.281,1.091,10.939"/>
	<path fill="#9BC53D" d="M30.581,46.207c-2.001-1.845-4.002-3.689-6.002-5.534c-2.496-2.301-5.013-4.626-6.949-7.414
		c-2.32-3.34-3.739-7.25-6.163-10.515c-2.236-3.011-5.442-5.787-5.559-9.536c1.326,2.284,3.723,3.683,5.895,5.185
		c2.545,1.761,4.897,3.783,7.217,5.831c1.837,1.622,3.674,3.281,5.087,5.283c2.787,3.953,3.696,8.89,4.534,13.653"/>
	<path fill="#9BC53D" d="M41.065,53.306c-2.626,0.715-5.252,1.429-7.878,2.144c-3.275,0.891-6.582,1.788-9.973,1.947
		c-4.063,0.19-8.128-0.686-12.182-0.367C7.293,57.324,3.237,58.564,0,56.671c2.639,0.09,5.098-1.196,7.524-2.238
		c2.844-1.22,5.807-2.139,8.775-3.016c2.35-0.694,4.732-1.368,7.179-1.501c4.83-0.261,9.494,1.593,13.975,3.414"/>
	<path fill="#44A84F" d="M25.294,32.95c-2.235-1.786-2.09-2.282-3.056-4.825c-0.655-1.724-0.542-3.628-0.644-5.469
		c-0.192-3.454-1.183-6.861-2.874-9.879C16.265,8.396,12.351,4.791,10.846,0c2.383,2.159,5.239,3.711,7.912,5.499
		c2.672,1.787,5.254,3.917,6.69,6.794c0.913,1.83,1.317,3.876,2.193,5.723c0.787,1.657,1.936,3.115,2.834,4.715
		c1.672,2.977,2.451,6.449,2.211,9.855c-0.063,0.882-0.393,1.972-1.271,2.078c-0.62,0.075-1.152-0.411-1.742-0.618
		c-0.807-0.283-1.693-0.032-2.547-0.054c-0.855-0.022-1.862-0.556-1.807-1.409"/>
	<path fill="#9BC53D" d="M27.622,24.206c-0.278-2.606-0.539-5.336,0.446-7.764c0.84-2.072,2.5-3.692,3.646-5.613
		c1.033-1.732,1.641-3.717,1.755-5.731c0.625,4.13,1.251,8.26,1.876,12.389c0.514,3.393,1.029,6.827,0.7,10.243
		c-0.241,2.508-0.941,4.971-2.054,7.231c-0.175,0.354-0.513,0.765-0.877,0.612c-0.166-0.07-0.264-0.239-0.349-0.397
		c-1.045-1.93-2.089-3.86-3.134-5.79c-1.145-2.115-2.324-4.378-2.163-6.777"/>
	<path fill="#44A84F" d="M34.644,49.949c1.588-3.795,4.324-7.102,7.755-9.373c1.979-1.31,4.163-2.272,6.293-3.321
		c3.596-1.77,7.058-3.797,10.498-5.854c-1.642,6.446-6.101,12.12-11.974,15.241c-2.276,1.209-4.728,2.042-7.169,2.87
		c-1.842,0.625-3.776,1.258-5.696,0.949"/>
	<path fill="#9BC53D" d="M35.304,50.061c3.831-0.663,7.662-1.326,11.493-1.989c0.975-0.169,1.958-0.338,2.946-0.29
		c1.185,0.058,2.331,0.427,3.452,0.816c1.696,0.588,3.424,1.258,4.724,2.496c2.03,1.934,2.659,4.876,3.188,7.63
		c0.086,0.443,0.111,1.02-0.294,1.222c-0.343,0.172-0.768-0.089-0.944-0.43c-0.177-0.342-0.189-0.74-0.27-1.116
		c-0.484-2.238-3.141-3.126-5.378-3.616c-2.683-0.588-5.403-1.179-8.146-1.046c-2.267,0.109-4.528,0.713-6.779,0.428
		c-2.251-0.285-4.603-1.855-4.715-4.121"/>
	<path fill="#44A84F" d="M34.271,48.365c-2.703-1.904-5.435-3.833-7.599-6.333c-1.446-1.671-2.616-3.571-4.12-5.19
		c-1.657-1.784-3.681-3.185-5.746-4.475c-4.042-2.525-8.492-4.735-13.255-4.896c0.759,1.101,1.938,1.824,3.045,2.573
		C13.2,34.508,18.292,40.843,22.993,47.28c0.504,0.69,1.031,1.406,1.784,1.809c0.638,0.34,1.377,0.424,2.096,0.501
		c3.074,0.33,6.148,0.659,9.222,0.989"/>
	<path fill="#FFCB0B" d="M48.486,60.019c0.404,2.373,0.5,4.798,0.284,7.196c-1.353-0.747-2.308-2.19-3.795-2.61
		c-0.578-0.164-1.256-0.188-1.647-0.644c-0.335-0.39-0.33-0.958-0.307-1.471c0.052-1.193,0.104-2.386,0.156-3.579
		c0.016-0.377,0.041-0.779,0.267-1.08c0.453-0.602,1.42-0.45,2.045-0.029c0.625,0.42,1.125,1.045,1.832,1.304
		c0.458,0.167,1.028,0.206,1.285,0.619"/>
	<path fill="#EEA820" d="M42.73,63.849c-1.965-0.382-3.93-0.765-5.896-1.147c-0.209-0.04-0.426-0.084-0.598-0.209
		c-0.245-0.177-0.356-0.481-0.451-0.767c-0.707-2.127-1.261-4.305-1.656-6.51c-0.027-0.151-0.044-0.33,0.069-0.432
		c0.114-0.103,0.291-0.067,0.438-0.025c1.767,0.492,3.578,0.831,5.404,1.011c0.679,0.067,1.376,0.115,2.003,0.387
		c0.882,0.382,1.631,1.199,2.592,1.174"/>
	<path fill="#EEA820" d="M56.473,77.032c0.654,2.983-0.967,6.484-2.098,9.321c-0.42-0.827-0.854-1.671-1.53-2.307
		c-0.527-0.495-1.175-0.839-1.814-1.176c-0.562-0.297-1.123-0.593-1.685-0.89c-0.258-0.136-0.526-0.281-0.69-0.522
		c-0.304-0.447-0.152-1.051,0.036-1.557c0.451-1.215,1.046-2.377,1.769-3.452c0.781-1.161,1.761-2.42,1.496-3.793
		c0.617,1.118,1.52,2.077,2.597,2.762c0.632,0.402,1.392,0.798,1.563,1.527"/>
	<path fill="#EEA820" d="M54.968,86.626c-0.524,1.514-1.113,3.004-1.766,4.467c-0.263,0.589-0.542,1.182-0.965,1.669
		c-0.387,0.446-0.88,0.786-1.379,1.1c-1.406,0.884-2.911,1.609-4.479,2.156c-0.143,0.05-0.295,0.099-0.443,0.066
		c-0.174-0.038-0.306-0.181-0.4-0.332c-0.342-0.549-0.329-1.256-0.152-1.878c0.177-0.623,0.501-1.191,0.757-1.785
		c0.457-1.057,0.703-2.204,0.721-3.356c0.003-0.24,0-0.494,0.122-0.701c0.198-0.337,0.661-0.424,1.041-0.332
		c0.379,0.092,0.709,0.32,1.061,0.488c0.686,0.327,1.478,0.428,2.222,0.283c0.153-0.03,0.308-0.071,0.434-0.162
		c0.149-0.106,0.245-0.269,0.336-0.427l1.513-2.611c0.05-0.088,0.115-0.185,0.215-0.199c0.092-0.013,0.176,0.049,0.248,0.108
		l0.686,0.561"/>
	<path fill="#FFCB0B" d="M47.361,86.522c-2.518-0.884-5.014-1.832-7.484-2.843c-0.553,1.035-0.725,2.491-1.232,3.549
		c-0.685,1.432-2.295,1.801-2.399,3.385c1.791,0.922,3.704,1.577,5.61,2.229c0.914,0.313,2.201,1.43,3.116,1.743
		c0.331,0.113,0.289-0.577,0.62-0.464c0.08,0.027,0.167,0.055,0.247,0.028c0.11-0.037,0.162-0.159,0.202-0.268
		c0.967-2.68,1.653-5.462,2.042-8.284"/>
	<path fill="#FFCB0B" d="M47.617,87.426c0.517-2.042,1.034-4.084,1.551-6.125c0.014-0.055,0.03-0.114,0.071-0.152
		c0.119-0.11,0.3,0.025,0.403,0.148c1.146,1.37,2.282,1.8,3.864,2.629c0.481,0.251,1.348,1.384,1.176,1.898
		c-0.067,0.201-0.241,0.344-0.406,0.476c-0.624,0.499-1.247,0.997-1.871,1.495c-0.412,0.33-0.848,0.67-1.368,0.76
		c-0.74,0.127-1.858,0.189-2.5-0.202"/>
	<path fill="#EEA820" d="M49.694,80.447c-1.764-1.28-3.529-2.56-5.293-3.84c-0.096-0.07-0.21-0.144-0.325-0.117
		c-0.134,0.031-0.857,0.164-0.903,0.294c-0.715,2.025-1.355,3.708-1.854,5.881c-0.098,0.427-0.672,0.649-0.672,1.087
		c-0.001,0.45,0.393,0.791,0.771,1.036c2.08,1.348,4.62,1.733,7.073,2.086c0.124,0.018,0.254,0.036,0.371-0.006
		c0.323-0.114,0.35-0.552,0.332-0.895c-0.082-1.585,0.148-3.186,0.673-4.684"/>
	<path fill="#FFCB0B" d="M43.895,76.504c0.085-1.081,0.687-2.043,1.271-2.956c0.641-1.001,1.282-2.003,1.923-3.005
		c0.024-0.037,0.049-0.076,0.087-0.098c0.089-0.052,0.199,0.003,0.288,0.055c0.635,0.367,1.369,0.559,2.103,0.551
		c0.686-0.007,1.455-0.164,1.997,0.257c0.362,0.282,0.516,0.754,0.592,1.207c0.168,1.005,0.042,2.058-0.358,2.995
		c-0.292,0.683-0.722,1.296-1.148,1.904c-0.613,0.874-1.225,1.747-1.837,2.62c-0.174,0.248-0.437,0.529-0.725,0.435
		c-0.146-0.047-0.244-0.18-0.332-0.307c-0.856-1.238-1.708-2.601-3.08-3.224c-0.564-0.256-1.281-0.461-1.443-1.06"/>
	<path fill="#EEA820" d="M43.763,76.756c-0.905,0.297-1.895-0.124-2.654-0.698c-0.76-0.574-1.401-1.308-2.226-1.784
		c-0.402-0.232-0.86-0.413-1.131-0.79c-0.533-0.744-0.467-2.246-0.126-3.095c0.364-0.907,0.972-1.385,1.021-2.362
		c0.011-0.213,0.023-0.449,0.171-0.604c0.107-0.112,0.266-0.158,0.418-0.191c0.816-0.182,1.677-0.159,2.482,0.066
		c0.817,0.228,1.563,0.654,2.298,1.076c0.968,0.556,1.935,1.111,2.903,1.666c0.231,0.132,0.469,0.271,0.624,0.488
		c0.429,0.598,0.038,1.424-0.376,2.032c-1.061,1.556-2.279,3.005-3.631,4.316"/>
	<path fill="#EEA820" d="M37.652,72.248c-1.177,1.494-2.562,2.44-3.693,3.97c-0.515,0.698-0.807,1.991-0.997,2.838
		c-0.038,0.171-0.062,0.357,0.014,0.515c0.104,0.219,0.357,0.316,0.587,0.393c2.449,0.824,4.899,1.648,7.348,2.472
		c0.096,0.032,0.197,0.064,0.295,0.043c0.168-0.036,0.263-0.208,0.337-0.363c0.781-1.646,1.498-3.321,2.148-5.022"/>
	<path fill="#FFCB0B" d="M32.716,80.68c-0.249,2.143-0.679,4.265-1.282,6.336c-0.032,0.111-0.065,0.236-0.013,0.34
		c0.038,0.077,0.115,0.126,0.188,0.172c0.729,0.453,1.459,0.907,2.188,1.361c0.896,0.557,1.813,1.123,2.839,1.365
		c0.143,0.034,0.293,0.061,0.434,0.021c0.311-0.087,0.444-0.439,0.559-0.74c0.424-1.119,1.171-2.114,2.127-2.834
		c0.509-0.384,1.091-0.706,1.45-1.234c0.615-0.905,0.397-2.116,0.156-3.184c-0.073-0.321-0.165-0.671-0.435-0.86
		c-0.319-0.222-0.747-0.13-1.133-0.084c-2.434,0.294-4.613-1.577-7.05-1.853"/>
	<path fill="#EEA820" d="M31.758,79.537c-1.53-0.571-3.059-1.142-4.589-1.712c-0.247-0.093-0.549-0.178-0.755-0.013
		c-0.136,0.109-0.182,0.293-0.219,0.464c-0.524,2.392-1.048,4.785-1.572,7.178c-0.022,0.101-0.044,0.206-0.019,0.307
		c0.076,0.298,0.475,0.341,0.784,0.336c1.157-0.018,2.318,0.181,3.403,0.585c0.498,0.185,0.987,0.414,1.513,0.487
		c0.525,0.073,1.114-0.04,1.462-0.441c0.265-0.305,0.351-0.721,0.42-1.119c0.405-2.318,0.578-4.677,0.514-7.029"/>
	<path fill="#FFCB0B" d="M24.86,86.034c-0.745,2.279-0.864,4.708-0.977,7.103c-0.009,0.19-0.015,0.392,0.079,0.558
		c0.076,0.134,0.208,0.226,0.337,0.312c1.968,1.313,4.112,2.363,6.355,3.113c0.081,0.027,0.17,0.054,0.248,0.021
		c0.114-0.048,0.146-0.191,0.162-0.313c0.406-3.123,4.158-8.488,1.357-10.337"/>
	<path fill="#EEA820" d="M31.398,97.539c1.116,0.68,2.512,0.636,3.818,0.57c3.06-0.154,6.126-0.309,9.159-0.747
		c0.668-0.097,1.368-0.222,1.889-0.652c0.521-0.429,0.77-1.265,0.348-1.792c-0.384-0.481-1.092-0.497-1.673-0.698
		c-1.034-0.358-1.712-1.348-2.659-1.896c-1.108-0.64-2.482-0.623-3.652-1.143c-0.793-0.352-1.458-0.935-2.196-1.392
		c-1.091-0.674-2.354-1.07-3.635-1.138c-0.177-0.009-0.371-0.007-0.505,0.108c-0.116,0.097-0.159,0.254-0.195,0.401
		c-0.595,2.377-1.074,4.783-1.438,7.207"/>
	<path fill="#EEA820" d="M23.962,93.695c-0.807-2.924-1.852-7.392-2.658-10.316c-0.344-1.247-1.325-4.145-1.896-5.338
		c0.794,0.963,2.543,3.432,3.879,4.044c0.649,0.297,1.387,0.574,1.675,1.079c0.209,0.368,0.141,0.798,0.061,1.209
		c-0.425,2.179-0.093,4.95-0.974,7.097"/>
	<path fill="#FFCB0B" d="M20.898,80.434c-2.402-3.033-3.605-6.99-3.3-10.847c0.019-0.237,0.085-0.527,0.316-0.588
		c0.181-0.048,0.357,0.08,0.501,0.201c2.771,2.318,5.384,3.565,7.941,7.369c0.213,0.317,0.82,0.275,0.919,0.644
		c0.086,0.32-0.251,0.948-0.308,1.274c-0.309,1.744-0.677,3.608-1.94,4.849"/>
	<path fill="#FFCB0B" d="M17.84,68.438c1.081-2.207,1.891-4.547,2.406-6.949c1.523,0.538,3.046,1.076,4.569,1.614
		c0.427,0.151,0.896,0.339,1.092,0.749c0.115,0.242,0.112,0.525,0.067,0.789c-0.205,1.226-0.888,3.396-1.457,4.501
		c-0.834,1.62-1.16,2.492-2.551,3.668"/>
	<path fill="#EEA820" d="M24.811,67.318c1.524,1.986,3.465,3.65,5.662,4.851c0.151,0.083,0.319,0.183,0.358,0.35
		c0.046,0.194-0.1,0.374-0.236,0.519c-1.406,1.505-2.812,3.01-4.219,4.515c-1.316-1.353-2.554-2.782-3.706-4.277
		c-0.119-0.154-0.242-0.321-0.259-0.515c-0.013-0.158,0.045-0.312,0.105-0.458c0.775-1.841,2.222-3.586,1.955-5.566"/>
	<path fill="#EEA820" d="M26.807,61.483c1.524,1.986,3.465,3.65,5.662,4.851c0.151,0.083,0.319,0.183,0.358,0.35
		c0.046,0.194-0.1,0.374-0.236,0.519c-1.406,1.505-2.812,3.01-4.219,4.515c-1.316-1.353-2.554-2.782-3.706-4.277
		c-0.119-0.154-0.242-0.321-0.259-0.515c-0.013-0.158,0.045-0.312,0.105-0.458c0.775-1.841,2.222-3.586,1.955-5.566"/>
	<path fill="#FFCB0B" d="M30.778,72.295c1.35,1.083,3.083,1.68,4.814,1.658c-0.205,1.099-0.417,2.209-0.863,3.234
		c-0.445,1.026-1.15,1.975-2.133,2.51c-0.328,0.178-0.703,0.311-1.073,0.252c-0.334-0.054-0.622-0.255-0.909-0.434
		c-1.071-0.668-2.296-1.084-3.551-1.208c0.267-1.227-1.126-1.988-0.21-2.847c0.571-0.535,2.912-1.63,3.159-2.374"/>
	<path fill="#FFCB0B" d="M40.125,67.298c-2.405,0.195-4.859-0.257-7.037-1.298c-0.223-0.107-0.457-0.222-0.705-0.21
		c-0.438,0.021-0.749,0.421-0.988,0.788c-0.928,1.422-1.741,2.918-2.428,4.471c-0.046,0.103-0.092,0.212-0.082,0.325
		c0.014,0.159,0.136,0.286,0.251,0.397c1.492,1.453,3.243,3.01,5.323,2.9c0.702-0.037,1.505-0.239,2.034,0.223
		c0.191,0.167,0.452,0.421,0.64,0.251c0.06-0.054,0.083-0.136,0.103-0.214c0.58-2.292,0.421-4.852,1.727-6.822"/>
	<path fill="#FFCB0B" d="M36.323,62.059c-0.376,1.475-0.534,3.006-0.465,4.526c0.006,0.148,0.018,0.305,0.105,0.425
		c0.11,0.151,0.309,0.203,0.491,0.244c2.215,0.501,4.43,1.001,6.644,1.501c0.269,0.061,0.583,0.112,0.793-0.067
		c0.205-0.175,0.209-0.486,0.197-0.756c-0.062-1.331-0.123-2.663-0.185-3.995c-0.008-0.182-0.019-0.373-0.116-0.527
		c-0.22-0.351-0.725-0.329-1.139-0.316c-2.123,0.064-4.171-1.243-6.268-0.904"/>
	<path fill="#EEA820" d="M35.068,54.918c-2.776,1.406-5.552,2.813-8.328,4.219c-1.02,0.516-2.042,1.034-3.112,1.432
		c-1.032,0.383-2.507,0.221-2.831,1.282c2.398,1.017,5.046,2.614,7.444,3.632c1.466,0.621,2.948,1.248,4.516,1.508
		c1.066,0.176,2.158,0.179,3.225,0.02c0.229-0.035,0.471-0.083,0.642-0.241c0.251-0.232,0.269-0.62,0.26-0.965
		c-0.046-1.635-0.33-3.263-0.842-4.817c-0.371-1.128-0.866-2.237-0.953-3.422c-0.068-0.936,0.128-1.89,0.561-2.719"/>
	<path fill="#FFCB0B" d="M49.456,70.742c0,0-2.234-11.303-0.77-11.214c3.32,0.202,4.408,9.347,5.571,11.354
		c0.473,0.815,1.045,1.572,1.462,2.417c0.993,2.012,1.031,4.343,1.049,6.585c0.002,0.246-0.007,0.52-0.181,0.694
		c-0.355,0.352-0.939-0.041-1.244-0.437c-0.931-1.209-1.646-2.688-2.995-3.402c-0.258-0.136-0.545-0.25-0.718-0.486
		c-0.154-0.211-0.188-0.484-0.218-0.744C51.081,72.578,49.787,73.673,49.456,70.742"/>
	<path fill="#EEA820" d="M49.73,65.557c0.267,1.983-0.359,4.225-0.092,6.207c-1.62-0.31-3.24-0.621-4.861-0.932
		c-0.228-0.044-0.468-0.093-0.643-0.245c-0.239-0.208-0.298-0.551-0.341-0.864c-0.34-2.458-0.66-4.917-0.961-7.38
		c2.238,1.223,3.752,1.612,6.15,2.48"/>
	<path fill="#44612D" d="M37.414,50.241c-6.094-0.839-13.876-1.592-19.061-4.903c-1.516-0.969-2.971-2.156-4.732-2.522
		c-1.248-0.26-2.54-0.081-3.802,0.098c-1.389,0.198-2.777,0.395-4.165,0.593c1.441,1.332,3.374,1.962,5.178,2.737
		c4.024,1.727,7.636,4.313,11.669,6.021c2.507,1.062,5.261,1.76,8.001,1.631c2.172-0.103,4.245-0.858,6.402-1.063
		c3.993-0.379,10.703,0.257,13.823,3.003c1.173,1.032,1.892,2.475,2.532,3.901c0.871,1.938,1.664,3.976,1.681,6.101
		c-0.865-2.956-3.598-4.966-6.367-6.315c-4.027-1.962-8.431-2.994-12.793-4.011C36.121,54.3,37,53.25,38.133,52.701"/>
	<path fill="#44612D" d="M36.922,52.688c-1.795,1.712-4.29,2.503-6.749,2.825c-2.459,0.322-4.955,0.229-7.425,0.451
		c-1.218,0.109-2.452,0.301-3.55,0.841c-1.633,0.804-2.83,2.326-3.562,3.993c-0.731,1.667-1.042,3.486-1.279,5.291
		c2.06-0.306,3.395-2.252,5.032-3.54c2.474-1.947,5.752-2.418,8.818-3.135c3.065-0.716,6.334-1.962,7.848-4.722"/>
</g>
</svg>
