<?xml version="1.0" encoding="utf-8"?>
<!-- Generator: Adobe Illustrator 16.0.2, SVG Export Plug-In . SVG Version: 6.00 Build 0)  -->
<!DOCTYPE svg PUBLIC "-//W3C//DTD SVG 1.1//EN" "http://www.w3.org/Graphics/SVG/1.1/DTD/svg11.dtd">
<svg version="1.1" id="Layer_1" xmlns="http://www.w3.org/2000/svg" xmlns:xlink="http://www.w3.org/1999/xlink" x="0px" y="0px"
	 width="34.116px" height="27.2px" viewBox="0 0 34.116 27.2" enable-background="new 0 0 34.116 27.2" xml:space="preserve">
<g>
	<path fill="#F19121" d="M28.856,2.94c1.763,0.355,3.101,1.836,3.919,3.438c2.027,3.969,1.536,8.808-0.012,12.988
		c-0.609,1.646-1.456,3.332-2.969,4.223c-0.901,0.531-1.955,0.729-2.92,1.132c-1.262,0.527-2.367,1.403-3.667,1.83
		c-0.818,0.269-1.684,0.349-2.542,0.418c-4.813,0.387-9.784,0.46-14.319-1.197c-0.918-0.335-1.823-0.746-2.577-1.369
		c-1.234-1.019-1.965-2.519-2.523-4.02c-1.026-2.758-1.593-5.771-1.015-8.656c0.578-2.886,2.45-5.616,5.192-6.686
		C6.514,4.616,7.69,4.463,8.85,4.297c6.787-0.975,13.705-2.525,20.421-1.143"/>
	<path fill="#44A84F" d="M21.225,5.69c-0.043,0.616-0.471,1.191-1.051,1.407c-0.111,0.042-0.242,0.069-0.342,0.005
		c-0.093-0.059-0.127-0.176-0.183-0.271c-0.214-0.362-0.737-0.376-1.139-0.254c-0.403,0.121-0.802,0.335-1.218,0.272
		c-0.304-0.045-0.566-0.232-0.858-0.329c-0.292-0.095-0.605-0.094-0.912-0.09c-0.799,0.011-1.772,0.156-2.064,0.899
		c-0.204,0.518,1.312,0.179,1.735,0.541c0.423,0.363,1.944,1.459,2.487,1.584c0.126,0.029-1.967,0.077-1.875,0.168
		c0.181,0.179,0.197-0.161,0,0c-0.197,0.162-0.625,1.063-0.813,0.892c-1.94-1.762-2.738-0.869-4.13-1.603
		c-0.634-0.335-2.233-0.947-2.225-1.665c0.008-0.718,0.526-1.451,1.239-1.531c0.279-0.032,0.562,0.034,0.842,0.011
		c0.281-0.021,0.587-0.174,0.645-0.449c-2.055-0.366-3.755,2.121-5.83,1.9C4.528,7.072,3.713,6.347,2.98,5.652
		c1.174,0.198,2.426-0.114,3.37-0.842C5.649,4.46,4.794,4.626,4.083,4.954c-0.712,0.329-1.348,0.809-2.07,1.112
		C1.826,5.773,1.971,5.363,2.237,5.14C2.503,4.917,2.854,4.832,3.19,4.745c1.818-0.472,3.567-1.206,5.177-2.172
		c0.188-0.112,0.386-0.244,0.454-0.451C8.858,2.008,8.85,1.885,8.866,1.767c0.039-0.294,0.237-0.562,0.507-0.686
		C9.096,1.113,8.976,0.679,9.16,0.47C9.343,0.26,9.654,0.23,9.932,0.217c0.774-0.039,1.549-0.078,2.323-0.117
		c0.6-0.029,1.206-0.059,1.798,0.041c0.3,0.052,0.594,0.136,0.896,0.171c0.393,0.047,0.791,0.011,1.185-0.026
		c0.656-0.062,1.311-0.122,1.967-0.184c1.224-0.113,2.498-0.222,3.649,0.209c-0.242,0.32-0.576,0.57-0.951,0.714
		c0.348,0.328,0.905,0.298,1.357,0.14c0.452-0.159,0.871-0.422,1.342-0.504c0.504-0.087,1.017,0.043,1.511,0.176
		c0.394,0.106,0.787,0.214,1.178,0.332c0.924,0.277,1.868,0.622,2.548,1.306c0.239,0.24,0.444,0.521,0.728,0.706
		c0.254,0.166,0.556,0.244,0.815,0.4c0.26,0.156,0.488,0.437,0.435,0.735c-2.483-0.385-5.024-0.396-7.511-0.03
		c-0.089,0.013-0.181,0.026-0.258,0.075c-0.082,0.05-0.139,0.133-0.187,0.216c-0.236,0.404-0.431,0.952-0.896,1.005
		c-0.14,0.016-0.283-0.021-0.42,0.01c-0.136,0.03-0.267,0.175-0.206,0.301"/>
	<path fill="#9BC53D" d="M10.635,4.505c0.502-0.762,1.358-1.28,2.265-1.371c0.956-0.096,1.98,0.246,2.851-0.159
		c0.393-0.183,0.719-0.507,1.138-0.616c0.468-0.123,0.958,0.044,1.413,0.208c0.395,0.143,0.79,0.286,1.186,0.429
		c0.297,0.107,0.601,0.219,0.838,0.428c0.495,0.438,0.543,1.29,0.1,1.78c-0.543,0.602-1.483,0.543-2.291,0.488
		c-1.065-0.072-2.136-0.053-3.198,0.059c-0.365,0.039-0.741,0.091-1.06,0.273c-0.298,0.17-0.566,0.456-0.909,0.444
		c-0.758-0.025-0.77-1.307-1.463-1.613c-0.313-0.139-0.789-0.11-0.869-0.442"/>
	<path fill="#5F3B2E" d="M15.032,4.746c0.423-0.685,1.061-1.234,1.801-1.554c0.023,0.308,0.132,0.609,0.313,0.86
		c0.041,0.058,0.088,0.119,0.086,0.189c-0.002,0.086-0.076,0.151-0.144,0.205c-0.195,0.154-0.39,0.31-0.585,0.463
		c-0.151,0.119-0.309,0.242-0.497,0.278c-0.232,0.044-0.464-0.051-0.68-0.143c-0.163-0.07-0.358-0.241-0.251-0.383"/>
</g>
</svg>
