<?xml version="1.0" encoding="utf-8"?>
<!-- Generator: Adobe Illustrator 16.0.2, SVG Export Plug-In . SVG Version: 6.00 Build 0)  -->
<!DOCTYPE svg PUBLIC "-//W3C//DTD SVG 1.1//EN" "http://www.w3.org/Graphics/SVG/1.1/DTD/svg11.dtd">
<svg version="1.1" id="Layer_1" xmlns="http://www.w3.org/2000/svg" xmlns:xlink="http://www.w3.org/1999/xlink" x="0px" y="0px"
	 width="51.013px" height="87.33px" viewBox="0 0 51.013 87.33" enable-background="new 0 0 51.013 87.33" xml:space="preserve">
<g>
	<path fill="#9BC53D" d="M1.88,8.023c0.705-1.472,2.941-2.198,4.519-2.619c1.577-0.422,3.235-0.382,4.867-0.338
		c9.708,0.256,19.417,0.512,29.125,0.77c2.815,0.073,6.19,0.489,7.411,3.027c0.417,0.865,0.495,1.85,0.566,2.808
		c1.449,19.354,2.9,38.738,2.606,58.145c-0.058,3.81-0.185,7.642-0.951,11.376c-0.251,1.226-0.606,2.504-1.502,3.381
		c-0.712,0.697-1.653,1.238-2.646,1.319c-8.159,0.661-14.542-0.479-21.866-1.096c-6.746-0.569-13.664,0.386-20.221-1.296
		c-0.543-0.139-1.1-0.306-1.515-0.68c-0.664-0.597-0.812-1.568-0.896-2.457c-0.293-3.095-0.31-6.209-0.325-9.317l-0.248-45.91
		C0.773,19.409,0.747,13.637,1.88,8.023"/>
	<path fill="#046937" d="M20.288,37.902c-0.239-1.688,0.002-4.089,1.85-4.627c1.113-0.322,2.107,0.332,2.82,1.037
		c1.207,1.195,2.078,3.242,0.71,4.68c-0.843,0.885-2.229,1.097-3.297,0.797C21.305,39.488,21.078,38.595,20.288,37.902"/>
	<path fill="#046937" d="M18.808,19.913c-0.009-1.727,0.563-4.102,2.489-4.386c1.161-0.173,2.067,0.622,2.687,1.427
		c1.047,1.364,1.639,3.536,0.068,4.79c-0.966,0.771-2.386,0.793-3.415,0.346C19.609,21.643,19.504,20.715,18.808,19.913"/>
	<path fill="#046937" d="M16.894,7.782c1.289,0.523,2.883,1.679,2.502,3.203c-0.229,0.918-1.098,1.349-1.888,1.562
		c-1.338,0.361-3.138,0.135-3.59-1.42c-0.278-0.957,0.144-2.021,0.792-2.651C15.358,7.848,16.082,8.055,16.894,7.782"/>
	<path fill="#046937" d="M26.352,76.229c1.458,0.96,3.138,2.771,2.299,4.555c-0.506,1.074-1.683,1.392-2.706,1.462
		c-1.736,0.118-3.896-0.601-4.073-2.624c-0.108-1.246,0.669-2.455,1.622-3.07C24.445,75.936,25.285,76.368,26.352,76.229"/>
	<path fill="#046937" d="M12.245,13.124c1.053,0.748,2.247,2.131,1.58,3.427c-0.402,0.781-1.279,0.986-2.039,1.01
		c-1.286,0.042-2.863-0.545-2.941-2.047c-0.049-0.924,0.559-1.797,1.278-2.227C10.845,12.856,11.453,13.198,12.245,13.124"/>
	<path fill="#046937" d="M12.874,81.683c-0.412-1.232-0.563-3.064,0.748-3.723c0.789-0.396,1.625-0.042,2.256,0.388
		c1.07,0.73,2.006,2.144,1.178,3.41c-0.51,0.779-1.52,1.129-2.361,1.051C13.854,82.73,13.561,82.092,12.874,81.683"/>
	<path fill="#046937" d="M8.177,71.082c0.029,1.257-0.353,2.995-1.752,3.23c-0.844,0.142-1.516-0.424-1.977-1.002
		c-0.781-0.979-1.244-2.553-0.119-3.488c0.693-0.576,1.729-0.611,2.483-0.3C7.567,69.833,7.657,70.508,8.177,71.082"/>
	<path fill="#046937" d="M8.812,80.458c-1.127,0.736-2.926,1.369-3.93,0.228c-0.606-0.689-0.471-1.619-0.205-2.366
		c0.45-1.265,1.623-2.575,3.111-2.077c0.915,0.307,1.532,1.229,1.676,2.093C9.606,79.198,9.042,79.66,8.812,80.458"/>
	<path fill="#046937" d="M31.357,63.914c-0.441-1.573-0.518-3.885,1.17-4.63c1.016-0.448,2.043,0.049,2.81,0.628
		c1.298,0.981,2.385,2.814,1.269,4.354c-0.688,0.948-1.979,1.324-3.03,1.175S32.195,64.471,31.357,63.914"/>
	<path fill="#046937" d="M11.34,59.243c0.466-1.669,1.666-3.807,3.606-3.555c1.169,0.151,1.826,1.167,2.203,2.113
		c0.638,1.604,0.615,3.864-1.244,4.646c-1.145,0.48-2.521,0.112-3.393-0.602S11.794,60.208,11.34,59.243"/>
	<path fill="#046937" d="M26.35,27.914c-0.634,1.611-2.049,3.612-3.952,3.161c-1.146-0.271-1.694-1.347-1.972-2.327
		c-0.469-1.661-0.214-3.905,1.715-4.491c1.188-0.36,2.521,0.147,3.313,0.948C26.245,26.004,25.998,26.906,26.35,27.914"/>
	<path fill="#046937" d="M2.21,23.992c0.043-1.557,0.628-3.682,2.375-3.883c1.052-0.121,1.846,0.621,2.38,1.366
		c0.903,1.261,1.375,3.237-0.077,4.322c-0.895,0.668-2.177,0.646-3.091,0.212S2.815,24.736,2.21,23.992"/>
	<path fill="#046937" d="M35.567,77.754c0.418,1.347,0.538,3.335-0.898,4.019c-0.865,0.411-1.762,0.008-2.438-0.475
		c-1.142-0.814-2.123-2.368-1.195-3.722c0.569-0.833,1.674-1.188,2.583-1.085C34.528,76.596,34.832,77.294,35.567,77.754"/>
	<path fill="#046937" d="M7.114,34.388c-1.475,0.28-3.596,0.169-4.146-1.434c-0.331-0.966,0.204-1.867,0.795-2.523
		c1.001-1.111,2.765-1.963,4.085-0.818c0.814,0.704,1.057,1.915,0.838,2.866C8.467,33.428,7.69,33.665,7.114,34.388"/>
	<path fill="#046937" d="M35.245,51.186c0.039,1.335-0.356,3.183-1.842,3.44c-0.895,0.155-1.611-0.441-2.104-1.053
		c-0.837-1.035-1.337-2.703-0.146-3.704c0.733-0.614,1.832-0.658,2.636-0.333C34.593,49.862,34.691,50.578,35.245,51.186"/>
	<path fill="#046937" d="M7.516,51.145c-1.323-0.006-3.14-0.46-3.345-1.938c-0.123-0.89,0.492-1.579,1.113-2.048
		c1.053-0.793,2.721-1.232,3.67-0.021c0.586,0.746,0.592,1.835,0.242,2.619C8.847,50.542,8.135,50.616,7.516,51.145"/>
	<path fill="#046937" d="M31.33,36.184c0.071-1.381,0.638-3.254,2.191-3.394c0.938-0.085,1.625,0.591,2.083,1.264
		c0.775,1.14,1.15,2.903-0.163,3.834c-0.808,0.574-1.945,0.526-2.748,0.121C31.892,37.604,31.851,36.857,31.33,36.184"/>
	<path fill="#046937" d="M26.355,12.831c-1.706-0.223-3.974-1.104-3.998-3.046c-0.014-1.17,0.892-1.959,1.77-2.461
		c1.486-0.853,3.711-1.146,4.738,0.572c0.634,1.057,0.464,2.463-0.114,3.419C28.171,12.271,27.24,12.25,26.355,12.831"/>
	<path fill="#046937" d="M37.464,8.215c0.427,1.355,0.557,3.364-0.891,4.059c-0.872,0.418-1.777,0.016-2.461-0.468
		c-1.157-0.819-2.153-2.383-1.223-3.753c0.572-0.843,1.685-1.206,2.603-1.105C36.41,7.05,36.72,7.754,37.464,8.215"/>
	<path fill="#046937" d="M30.133,14.085c2.061-0.271,4.983,0.051,5.615,2.309c0.382,1.361-0.429,2.563-1.297,3.424
		c-1.47,1.457-3.974,2.494-5.71,0.81c-1.068-1.037-1.309-2.73-0.931-4.026C28.189,15.305,29.281,15.039,30.133,14.085"/>
	<path fill="#046937" d="M23.348,73.293c-1.641-1.148-3.509-3.279-2.489-5.296c0.614-1.216,1.974-1.543,3.15-1.591
		c1.994-0.077,4.448,0.814,4.586,3.142c0.084,1.432-0.847,2.793-1.959,3.468S24.575,73.169,23.348,73.293"/>
	<path fill="#046937" d="M24.595,62.071c0.058,2.313-0.644,5.513-3.218,5.947c-1.553,0.262-2.788-0.777-3.64-1.84
		c-1.439-1.8-2.294-4.694-0.224-6.418c1.274-1.062,3.178-1.128,4.568-0.558C23.473,59.775,23.639,61.016,24.595,62.071"/>
	<path fill="#046937" d="M16.95,54.211c-1.945,0.008-4.621-0.638-4.94-2.81c-0.193-1.309,0.702-2.329,1.61-3.025
		c1.537-1.178,3.984-1.844,5.396-0.074c0.869,1.089,0.892,2.69,0.387,3.849C18.899,53.309,17.854,53.426,16.95,54.211"/>
	<path fill="#046937" d="M12.386,41.579c0.141-1.617,0.877-3.791,2.706-3.895c1.101-0.062,1.882,0.759,2.392,1.565
		c0.864,1.367,1.233,3.45-0.343,4.491c-0.971,0.64-2.303,0.539-3.227,0.031C12.989,43.267,12.97,42.389,12.386,41.579"/>
	<path fill="#046937" d="M20.585,46.768c1.539-1.487,4.154-3.011,6.062-1.529c1.149,0.893,1.215,2.385,1.024,3.629
		c-0.324,2.106-1.762,4.499-4.23,4.168c-1.519-0.204-2.756-1.458-3.237-2.763C19.723,48.969,20.464,48.079,20.585,46.768"/>
	<path fill="#046937" d="M30.699,66.68c1.868-0.6,4.638-0.794,5.607,1.197c0.584,1.2,0.033,2.454-0.627,3.4
		c-1.121,1.602-3.272,2.988-5.169,1.716c-1.168-0.783-1.678-2.316-1.545-3.584C29.1,68.142,30.068,67.71,30.699,66.68"/>
	<path fill="#046937" d="M8.063,36.838c1.49,1.482,3.035,4.021,1.617,5.922c-0.854,1.146-2.317,1.238-3.543,1.074
		c-2.074-0.278-4.449-1.643-4.172-4.073c0.172-1.495,1.379-2.733,2.65-3.229C5.888,36.034,6.774,36.744,8.063,36.838"/>
	<path fill="#046937" d="M5.788,9.815c1.787,0.605,4.038,2.041,3.646,4.134c-0.234,1.262-1.377,1.916-2.43,2.268
		c-1.783,0.598-4.238,0.438-4.977-1.632c-0.453-1.272,0.031-2.749,0.859-3.653C3.715,10.029,4.711,10.25,5.788,9.815"/>
	<path fill="#046937" d="M8.189,62.477c2.048,0.045,4.848,0.8,5.125,3.096c0.167,1.383-0.804,2.433-1.779,3.141
		c-1.651,1.199-4.248,1.833-5.687-0.07c-0.885-1.171-0.864-2.857-0.301-4.063S7.216,63.278,8.189,62.477"/>
	<path fill="#046937" d="M3.718,54.283c2.067-0.568,5.098-0.652,6.064,1.565c0.582,1.336-0.075,2.679-0.84,3.681
		c-1.297,1.697-3.709,3.111-5.721,1.635c-1.238-0.907-1.724-2.604-1.521-3.981C1.903,55.806,2.981,55.379,3.718,54.283"/>
	<path fill="#046937" d="M34.074,24.166c1.05,1.568,1.964,4.079,0.379,5.504c-0.955,0.857-2.26,0.682-3.311,0.32
		c-1.779-0.61-3.631-2.232-2.957-4.324c0.415-1.288,1.697-2.166,2.905-2.379C32.299,23.072,32.954,23.855,34.074,24.166"/>
	<path fill="#046937" d="M27.292,61.444c-2.001-0.063-4.729-0.822-4.979-3.068c-0.151-1.353,0.806-2.371,1.765-3.054
		c1.625-1.157,4.166-1.754,5.555,0.118c0.854,1.151,0.82,2.8,0.26,3.973C29.33,60.586,28.25,60.669,27.292,61.444"/>
	<path fill="#046937" d="M19.465,75.703c-1.505,1.151-3.959,2.225-5.486,0.729c-0.919-0.902-0.825-2.22-0.53-3.294
		c0.498-1.82,2.006-3.777,4.143-3.235c1.314,0.334,2.274,1.563,2.564,2.758C20.445,73.856,19.705,74.563,19.465,75.703"/>
	<path fill="#046937" d="M37.167,57.624c-0.933-1.344-1.761-3.506-0.408-4.763c0.814-0.757,1.949-0.623,2.863-0.326
		c1.551,0.504,3.179,1.883,2.625,3.705c-0.341,1.122-1.439,1.901-2.482,2.104C38.722,58.545,38.142,57.877,37.167,57.624"/>
	<path fill="#046937" d="M16.778,28.78c1.307,1.437,2.618,3.852,1.223,5.542c-0.842,1.018-2.196,1.038-3.32,0.83
		c-1.903-0.353-4.034-1.721-3.666-3.951c0.226-1.373,1.398-2.461,2.594-2.862C14.806,27.938,15.591,28.635,16.778,28.78"/>
	<path fill="#046937" d="M30.413,38.589c1.747,1.278,3.717,3.622,2.568,5.779c-0.691,1.299-2.166,1.622-3.439,1.646
		c-2.155,0.04-4.787-0.98-4.883-3.498c-0.059-1.55,0.979-2.998,2.195-3.702S29.086,38.695,30.413,38.589"/>
	<path fill="#046937" d="M12.38,26.882c-1.595-1.092-3.419-3.132-2.453-5.089c0.582-1.179,1.89-1.508,3.025-1.565
		c1.924-0.095,4.303,0.743,4.457,2.988c0.096,1.382-0.79,2.705-1.857,3.367S13.563,26.751,12.38,26.882"/>
	<path fill="#B72027" d="M49.917,12.521c-0.03-0.958-1.376,0.865-1.549,0c-0.506-2.538-2.985-5.913-1.757-5.835
		c3.542,0.226-7.084-0.452-10.626-0.678c-0.182,7.424-0.694,14.82-0.605,22.256c0.104,8.633,1.018,17.16,0.915,25.794
		c-0.072,6.084-0.646,12.075-0.8,18.15c-0.11,4.389-0.051,10.136-0.125,14.52c1.466,0.058,1.941-0.083,3.4,0.214
		c3.033,0.618,6.732,0.461,10.113-0.2c0.411-0.081,0.801-0.622,1.097-1.319c0.37-0.877,0.519-2.153,0.623-3.381
		c0.316-3.733,0.369-7.565,0.394-11.376C51.119,51.26,50.519,31.874,49.917,12.521"/>
	<path fill="#010101" d="M0.062,21.658C0,16.178,0,13.49,0.81,7.733C1.144,5.364,1.36,2.542,3.188,1.088
		C4.326,0.182,5.869,0.12,7.302,0.1c10.729-0.154,21.461-0.129,32.19,0.076c3.77,0.071,8.192,0.539,10.134,3.898
		c0.883,1.529,1.047,3.378,1.153,5.158c0.28,4.708-0.181,9.432-0.406,14.143C34.021,23.33,18.159,23.286,1.808,23.24
		c-0.875-0.002-2.115-0.548-1.738-1.368"/>
</g>
</svg>
