<?xml version="1.0" encoding="utf-8"?>
<!-- Generator: Adobe Illustrator 16.0.2, SVG Export Plug-In . SVG Version: 6.00 Build 0)  -->
<!DOCTYPE svg PUBLIC "-//W3C//DTD SVG 1.1//EN" "http://www.w3.org/Graphics/SVG/1.1/DTD/svg11.dtd">
<svg version="1.1" id="Layer_1" xmlns="http://www.w3.org/2000/svg" xmlns:xlink="http://www.w3.org/1999/xlink" x="0px" y="0px"
	 width="49.377px" height="66.917px" viewBox="0 0 49.377 66.917" enable-background="new 0 0 49.377 66.917" xml:space="preserve">
<g>
	<path fill="#9BC53D" d="M0,4.643C0.576,22.72,1.151,40.749,1.726,58.771c0.016,0.49,0.037,1.004,0.242,1.424
		c0.257,0.525,0.746,0.794,1.209,1.02c6.854,3.356,14.319,4.191,21.666,4.991c7.6,0.828,15.679,1.546,22.446-2.798
		c0.636-0.408,1.289-0.904,1.601-1.701c0.25-0.642,0.239-1.387,0.224-2.1c-0.387-17.25-0.772-34.498-1.16-51.787
		c-8.332,3.286-17.261,3.146-26.008,2.975C17.338,10.705,6.235,10.039,0,4.643"/>
	<path fill="#9BC53D" d="M0.66,25.34c0.576,11.561,0.491,24.811,1.065,36.335c0.016,0.314,0.036,0.643,0.242,0.911
		c0.257,0.336,0.746,0.509,1.208,0.652c6.854,2.147,14.321,2.68,21.666,3.192c7.601,0.528,15.679,0.988,22.447-1.789
		c0.636-0.262,1.29-0.578,1.6-1.088c0.251-0.411,0.24-0.888,0.225-1.344c-0.387-11.032-0.772-22.063-1.159-33.12
		c-8.333,2.102-17.262,2.012-26.008,1.903c-4.607-0.058-15.094-3.525-21.328-6.976L0.66,25.34z"/>
	<path fill="#046937" d="M37.282,60.8c-0.053,1.339-0.576,3.162-2.082,3.317c-0.906,0.094-1.583-0.553-2.035-1.199
		c-0.765-1.094-1.149-2.799,0.11-3.718c0.776-0.566,1.879-0.534,2.662-0.151C36.72,59.431,36.77,60.154,37.282,60.8"/>
	<path fill="#046937" d="M43.392,40.779c-0.016-1.34,0.413-3.187,1.908-3.42c0.9-0.141,1.609,0.47,2.094,1.092
		c0.821,1.053,1.295,2.736,0.082,3.719c-0.746,0.605-1.849,0.63-2.649,0.289C44.025,42.117,43.938,41.398,43.392,40.779"/>
	<path fill="#046937" d="M35.011,41.159c1.311,0.284,3.014,1.117,2.906,2.626c-0.065,0.909-0.819,1.462-1.534,1.796
		c-1.21,0.564-2.956,0.648-3.644-0.754c-0.422-0.862-0.198-1.943,0.313-2.647S34.286,41.552,35.011,41.159"/>
	<path fill="#046937" d="M29.135,54.466c0.219-1.322,0.965-3.066,2.477-3.034c0.912,0.02,1.502,0.745,1.87,1.442
		c0.624,1.181,0.795,2.921-0.57,3.676c-0.84,0.466-1.93,0.297-2.659-0.179C29.523,55.895,29.563,55.171,29.135,54.466"/>
	<path fill="#046937" d="M4.748,38.958c0.932,0.963,1.888,2.601,0.961,3.797c-0.56,0.72-1.493,0.762-2.273,0.643
		c-1.319-0.202-2.819-1.101-2.612-2.648c0.127-0.952,0.911-1.727,1.729-2.029C3.369,38.419,3.926,38.883,4.748,38.958"/>
	<path fill="#046937" d="M9.412,37.942c0.774,1.093,1.472,2.857,0.374,3.899c-0.661,0.627-1.592,0.527-2.344,0.291
		c-1.273-0.4-2.619-1.516-2.182-3.013c0.27-0.922,1.163-1.569,2.016-1.744C8.131,37.201,8.61,37.743,9.412,37.942"/>
	<path fill="#046937" d="M15.051,31.81c1.087-0.784,2.845-1.495,3.896-0.406c0.633,0.656,0.541,1.587,0.311,2.341
		c-0.39,1.277-1.495,2.632-2.996,2.206c-0.923-0.262-1.578-1.15-1.76-2.002C14.32,33.097,14.859,32.612,15.051,31.81"/>
	<path fill="#046937" d="M43.186,45.19c-0.288,1.309-1.126,3.01-2.635,2.898c-0.909-0.068-1.46-0.824-1.791-1.54
		c-0.561-1.212-0.64-2.958,0.765-3.64c0.863-0.42,1.943-0.194,2.646,0.321C42.874,43.744,42.795,44.464,43.186,45.19"/>
	<path fill="#046937" d="M16.76,47.824c0.219-1.322,0.967-3.065,2.479-3.032c0.912,0.02,1.502,0.746,1.87,1.444
		c0.623,1.181,0.792,2.92-0.573,3.675c-0.841,0.465-1.931,0.295-2.659-0.181C17.147,49.252,17.188,48.528,16.76,47.824"/>
	<path fill="#046937" d="M41.066,30.882c1.206-0.585,3.06-0.982,3.907,0.272c0.51,0.755,0.259,1.656-0.099,2.359
		c-0.604,1.191-1.925,2.335-3.331,1.657c-0.864-0.418-1.355-1.406-1.388-2.276C40.124,32.024,40.738,31.639,41.066,30.882"/>
	<path fill="#046937" d="M30.236,62.395c0.976,0.919,2.007,2.51,1.137,3.748c-0.523,0.745-1.456,0.831-2.239,0.748
		c-1.328-0.14-2.867-0.968-2.733-2.521c0.082-0.957,0.83-1.769,1.632-2.108C28.833,61.921,29.412,62.358,30.236,62.395"/>
	<path fill="#046937" d="M5.129,52.198c0.606-1.195,1.843-2.633,3.276-2.147c0.863,0.293,1.207,1.162,1.349,1.938
		c0.24,1.314-0.121,3.024-1.649,3.334c-0.942,0.19-1.932-0.298-2.483-0.972C5.07,53.677,5.326,53,5.129,52.198"/>
	<path fill="#046937" d="M36.212,53.868c-1.138-0.709-2.461-2.067-1.852-3.451c0.367-0.834,1.264-1.101,2.049-1.174
		c1.329-0.124,3.001,0.385,3.176,1.936c0.107,0.954-0.467,1.897-1.186,2.387C37.68,54.057,37.026,53.742,36.212,53.868"/>
	<path fill="#046937" d="M26.568,46.154c-1.231-0.529-2.745-1.672-2.35-3.133c0.236-0.88,1.083-1.279,1.848-1.469
		c1.296-0.323,3.026-0.071,3.432,1.435c0.25,0.928-0.175,1.946-0.813,2.539C28.049,46.119,27.355,45.907,26.568,46.154"/>
	<path fill="#046937" d="M45.86,52.66c1.313,0.27,3.025,1.084,2.934,2.594c-0.055,0.91-0.803,1.472-1.514,1.812
		c-1.204,0.578-2.949,0.68-3.651-0.713c-0.432-0.858-0.221-1.941,0.284-2.651C44.417,52.992,45.139,53.061,45.86,52.66"/>
	<path fill="#046937" d="M7.949,47.375c-0.588,1.51-1.903,3.387-3.685,2.973c-1.074-0.25-1.592-1.255-1.854-2.171
		c-0.444-1.552-0.215-3.653,1.588-4.208c1.11-0.341,2.358,0.13,3.103,0.874C7.845,45.587,7.616,46.435,7.949,47.375"/>
	<path fill="#046937" d="M11.303,52.877c0.604-1.504,1.94-3.367,3.717-2.934c1.07,0.262,1.578,1.272,1.83,2.191
		c0.429,1.557,0.176,3.655-1.633,4.19c-1.113,0.33-2.356-0.154-3.092-0.907C11.389,54.666,11.626,53.821,11.303,52.877"/>
	<path fill="#046937" d="M17.191,63.791c-0.882,1.359-2.552,2.931-4.212,2.163c-1-0.463-1.304-1.552-1.375-2.503
		c-0.12-1.609,0.532-3.62,2.41-3.797c1.156-0.109,2.283,0.606,2.86,1.486C17.452,62.02,17.057,62.803,17.191,63.791"/>
	<path fill="#046937" d="M40.947,66.389c-1.61-0.181-3.763-0.972-3.818-2.8c-0.034-1.103,0.805-1.86,1.623-2.349
		c1.387-0.827,3.476-1.143,4.474,0.458c0.615,0.984,0.48,2.312-0.049,3.222C42.646,65.831,41.771,65.828,40.947,66.389"/>
	<path fill="#046937" d="M45.35,52.528c-0.825,1.395-2.428,3.034-4.119,2.336c-1.018-0.421-1.366-1.497-1.477-2.443
		c-0.188-1.604,0.381-3.639,2.25-3.894c1.149-0.157,2.306,0.51,2.919,1.365C45.537,50.748,45.174,51.546,45.35,52.528"/>
	<path fill="#046937" d="M48.679,59.543c0.354,1.581,0.309,3.874-1.401,4.523c-1.03,0.391-2.02-0.154-2.749-0.768
		c-1.234-1.04-2.216-2.912-1.028-4.378c0.73-0.902,2.029-1.208,3.063-1.005S47.878,58.948,48.679,59.543"/>
	<path fill="#046937" d="M19.646,57.705c-1.394-0.828-3.029-2.435-2.327-4.124c0.423-1.017,1.499-1.363,2.445-1.472
		c1.604-0.183,3.64,0.389,3.89,2.259c0.154,1.15-0.515,2.304-1.371,2.916C21.425,57.895,20.627,57.531,19.646,57.705"/>
	<path fill="#046937" d="M4.015,37.316c-1.424-0.774-3.119-2.317-2.482-4.032c0.384-1.033,1.445-1.42,2.389-1.564
		c1.595-0.245,3.65,0.249,3.972,2.108c0.198,1.144-0.426,2.323-1.259,2.966C5.801,37.438,4.99,37.105,4.015,37.316"/>
	<path fill="#046937" d="M20.143,33.399c1.031-1.25,2.87-2.62,4.431-1.668c0.941,0.574,1.118,1.691,1.08,2.643
		c-0.063,1.613-0.94,3.536-2.826,3.497c-1.161-0.023-2.199-0.862-2.673-1.802C19.682,35.129,20.164,34.396,20.143,33.399"/>
	<path fill="#046937" d="M17.583,60.1c-1.262,1.017-3.338,1.99-4.677,0.743c-0.807-0.751-0.756-1.88-0.526-2.806
		c0.387-1.567,1.633-3.274,3.473-2.857c1.132,0.256,1.98,1.286,2.255,2.302C18.382,58.498,17.763,59.119,17.583,60.1"/>
	<path fill="#046937" d="M32.354,33.542c-0.455,1.555-1.605,3.539-3.416,3.279c-1.091-0.157-1.693-1.114-2.034-2.004
		c-0.575-1.508-0.526-3.621,1.222-4.328c1.076-0.436,2.36-0.074,3.166,0.604C32.097,31.771,31.942,32.633,32.354,33.542"/>
	<path fill="#046937" d="M42.432,41.118c-1.593,0.296-3.882,0.165-4.468-1.567c-0.354-1.044,0.229-2.014,0.868-2.72
		c1.086-1.195,2.993-2.105,4.414-0.865c0.874,0.764,1.131,2.073,0.891,3.097C43.896,40.088,43.056,40.34,42.432,41.118"/>
	<path fill="#046937" d="M29.407,36.146c1.471,0.681,3.262,2.112,2.736,3.864c-0.315,1.055-1.352,1.51-2.282,1.715
		c-1.576,0.346-3.659-0.015-4.101-1.849c-0.271-1.129,0.277-2.345,1.066-3.041C27.617,36.138,28.448,36.418,29.407,36.146"/>
	<path fill="#046937" d="M9.164,37.392c0.111-1.617,0.811-3.8,2.635-3.934c1.099-0.081,1.892,0.725,2.416,1.522
		c0.885,1.35,1.29,3.424-0.267,4.489c-0.959,0.656-2.289,0.578-3.222,0.088C9.795,39.067,9.761,38.191,9.164,37.392"/>
	<path fill="#046937" d="M10.425,62.331c-1.267,1.012-3.346,1.978-4.68,0.725c-0.804-0.755-0.747-1.884-0.516-2.808
		c0.394-1.566,1.646-3.268,3.484-2.844c1.131,0.261,1.975,1.294,2.246,2.311C11.229,60.732,10.608,61.351,10.425,62.331"/>
	<path fill="#F05423" d="M19.11,42.855c0.646-1.223,1.292-2.446,1.938-3.669c0.098-0.183,0.205-0.378,0.393-0.466
		c0.162-0.077,0.35-0.059,0.527-0.039c1.111,0.123,2.223,0.247,3.333,0.37c-0.46,1.408-1.081,2.763-1.844,4.032
		c-0.083,0.137-0.178,0.282-0.328,0.336c-0.147,0.053-0.311,0.004-0.46-0.046C21.633,43.024,20.104,43.309,19.11,42.855"/>
	<path fill="#F05423" d="M0.926,26.957c1.382-0.05,2.765-0.101,4.147-0.151c0.206-0.007,0.43-0.01,0.6,0.107
		c0.146,0.102,0.225,0.274,0.297,0.438c0.447,1.025,0.895,2.049,1.342,3.074c-1.45,0.303-2.934,0.442-4.415,0.413
		c-0.16-0.003-0.333-0.013-0.455-0.117c-0.12-0.102-0.159-0.267-0.189-0.422C2.038,29.228,1.027,28.045,0.926,26.957"/>
	<path fill="#F05423" d="M34.349,32.803c0.97,0.986,1.94,1.972,2.91,2.958c0.146,0.147,0.297,0.309,0.326,0.514
		c0.024,0.177-0.05,0.352-0.123,0.515c-0.454,1.022-0.908,2.043-1.36,3.065c-1.203-0.865-2.308-1.866-3.286-2.978
		c-0.105-0.12-0.215-0.255-0.221-0.415c-0.006-0.157,0.091-0.297,0.184-0.424C33.423,35.156,33.614,33.613,34.349,32.803"/>
	<path fill="#F05423" d="M31.934,58.124c-0.577,1.257-1.154,2.514-1.731,3.772c-0.086,0.187-0.184,0.388-0.364,0.486
		c-0.157,0.086-0.348,0.078-0.525,0.068c-1.116-0.061-2.233-0.123-3.349-0.184c0.382-1.432,0.925-2.819,1.617-4.129
		c0.074-0.141,0.161-0.291,0.309-0.354c0.145-0.061,0.311-0.021,0.462,0.021C29.405,58.095,30.915,57.726,31.934,58.124"/>
	<path fill="#F05423" d="M36.259,56.904c1.241-0.609,2.483-1.218,3.726-1.827c0.187-0.091,0.388-0.184,0.591-0.146
		c0.176,0.033,0.318,0.158,0.45,0.279c0.826,0.753,1.652,1.507,2.477,2.26c-1.199,0.867-2.499,1.599-3.862,2.176
		c-0.148,0.062-0.311,0.123-0.463,0.078c-0.151-0.044-0.254-0.179-0.346-0.308C38.198,58.525,36.794,57.856,36.259,56.904"/>
	<path fill="#F05423" d="M5.303,60.159c-1.146-0.775-2.292-1.55-3.438-2.325c-0.172-0.116-0.353-0.245-0.421-0.44
		c-0.059-0.169-0.021-0.355,0.018-0.529c0.244-1.091,0.487-2.182,0.73-3.273c1.35,0.61,2.63,1.374,3.808,2.271
		c0.128,0.097,0.263,0.207,0.3,0.362c0.036,0.153-0.03,0.31-0.097,0.453C5.744,57.669,5.861,59.22,5.303,60.159"/>
	<path fill="#F05423" d="M22.352,58.901c0.501,1.289,1.002,2.579,1.503,3.868c0.075,0.192,0.151,0.401,0.096,0.601
		c-0.048,0.173-0.185,0.303-0.316,0.425l-2.463,2.276c-0.763-1.271-1.381-2.627-1.838-4.035c-0.051-0.152-0.098-0.319-0.039-0.468
		c0.056-0.147,0.199-0.238,0.336-0.317C20.571,60.696,21.357,59.354,22.352,58.901"/>
	<path fill="#F05423" d="M20.815,40.228l-3.682,1.916c-0.184,0.095-0.383,0.193-0.588,0.16c-0.176-0.029-0.32-0.151-0.456-0.268
		c-0.844-0.734-1.687-1.467-2.53-2.201c1.18-0.895,2.461-1.658,3.811-2.267c0.146-0.066,0.307-0.131,0.461-0.09
		c0.152,0.041,0.258,0.174,0.353,0.3C18.836,38.654,20.256,39.289,20.815,40.228"/>
	<path fill="#F05423" d="M23.754,59.396l-0.142-4.147c-0.008-0.207-0.011-0.43,0.107-0.6c0.103-0.147,0.275-0.225,0.439-0.296
		c1.024-0.445,2.051-0.89,3.076-1.335c0.3,1.45,0.436,2.935,0.403,4.415c-0.004,0.16-0.014,0.334-0.118,0.455
		c-0.102,0.12-0.268,0.158-0.422,0.189C26.026,58.289,24.842,59.295,23.754,59.396"/>
	<path fill="#F05423" d="M29.116,50.605c0.177-1.372,0.355-2.744,0.532-4.116c0.026-0.205,0.06-0.425,0.204-0.573
		c0.125-0.129,0.308-0.178,0.48-0.222c1.084-0.273,2.168-0.546,3.252-0.818c0.062,1.479-0.046,2.966-0.316,4.422
		c-0.03,0.157-0.068,0.327-0.19,0.43c-0.12,0.101-0.29,0.112-0.447,0.117C31.539,49.881,30.206,50.683,29.116,50.605"/>
	<path fill="#F05423" d="M6.964,31.041c1.249-0.595,2.497-1.191,3.746-1.786c0.187-0.089,0.391-0.18,0.594-0.14
		c0.175,0.035,0.314,0.162,0.445,0.284c0.818,0.762,1.635,1.525,2.453,2.287c-1.21,0.854-2.517,1.571-3.888,2.133
		c-0.147,0.061-0.311,0.121-0.463,0.074C9.7,33.847,9.6,33.711,9.509,33.581C8.888,32.683,7.49,31.999,6.964,31.041"/>
	<path fill="#F05423" d="M47.407,50.932c-1.138-0.787-2.275-1.573-3.414-2.36c-0.17-0.117-0.35-0.248-0.416-0.444
		c-0.057-0.17-0.017-0.355,0.024-0.529l0.763-3.266c1.344,0.625,2.616,1.401,3.785,2.31c0.126,0.098,0.259,0.21,0.295,0.366
		c0.035,0.153-0.033,0.309-0.101,0.451C47.874,48.447,47.977,49.999,47.407,50.932"/>
	<path fill="#F05423" d="M21.608,49.532c1.171-0.737,2.342-1.473,3.514-2.21c0.175-0.11,0.365-0.224,0.571-0.208
		c0.179,0.015,0.333,0.124,0.478,0.23c0.899,0.663,1.801,1.325,2.701,1.987c-1.103,0.989-2.316,1.853-3.612,2.571
		c-0.14,0.077-0.295,0.155-0.452,0.127c-0.155-0.028-0.272-0.152-0.376-0.27C23.71,50.939,22.242,50.422,21.608,49.532"/>
	<path fill="#F05423" d="M12.165,44.463c0.785,1.138,1.571,2.277,2.357,3.415c0.117,0.17,0.24,0.356,0.232,0.563
		c-0.006,0.179-0.11,0.337-0.209,0.486l-1.869,2.784c-1.036-1.059-1.951-2.235-2.724-3.499c-0.084-0.137-0.169-0.288-0.146-0.446
		c0.021-0.156,0.14-0.278,0.254-0.387C10.849,46.622,11.303,45.134,12.165,44.463"/>
	<path fill="#F05423" d="M15.884,44.41c-1.352,0.294-2.703,0.589-4.055,0.883c-0.202,0.044-0.42,0.087-0.609,0.001
		c-0.162-0.074-0.27-0.229-0.369-0.378c-0.622-0.929-1.243-1.858-1.865-2.787c1.373-0.555,2.809-0.955,4.271-1.189
		c0.158-0.025,0.33-0.046,0.469,0.034c0.136,0.079,0.203,0.235,0.261,0.382C14.387,42.372,15.591,43.357,15.884,44.41"/>
	<path fill="#EC2227" d="M0.435,27.261c8.592,0.754,36.141,2.826,44.714,1.878c1.354-0.149,2.893-0.446,3.583-1.619
		c0.377-0.641,0.415-1.419,0.432-2.162c0.141-5.83,0.595-12.898-0.49-18.628C32.396,8.148,15.26,10.479,0.001,4.643
		c0.128,5.901,0.142,13.493,0.617,19.375"/>
	<path fill="#6E6D74" d="M0.658,5.271c2.475,1.737,5.491,2.494,8.458,3.073c12.006,2.343,24.473,2.309,36.467-0.101
		c1.152-0.231,2.409-0.553,3.09-1.513c0.932-1.313,0.268-3.266-1.002-4.257c-1.271-0.99-2.944-1.258-4.542-1.454
		c-7.9-0.968-15.882-0.992-23.839-1.016C13.37-0.015,7.275,0,1.795,2.233c-0.447,0.182-0.9,0.387-1.229,0.741
		C-0.47,4.093,0.823,6.288,2.304,5.923"/>
	<path fill="#C0BEBE" d="M2.108,3.788C8.542,0.49,46.953,1.241,46.953,5.212C32.3,8.247,16.956,7.893,2.459,4.185"/>
</g>
</svg>
