<?xml version="1.0" encoding="utf-8"?>
<!-- Generator: Adobe Illustrator 16.0.2, SVG Export Plug-In . SVG Version: 6.00 Build 0)  -->
<!DOCTYPE svg PUBLIC "-//W3C//DTD SVG 1.1//EN" "http://www.w3.org/Graphics/SVG/1.1/DTD/svg11.dtd">
<svg version="1.1" id="Layer_1" xmlns="http://www.w3.org/2000/svg" xmlns:xlink="http://www.w3.org/1999/xlink" x="0px" y="0px"
	 width="103.256px" height="93.715px" viewBox="0 0 103.256 93.715" enable-background="new 0 0 103.256 93.715"
	 xml:space="preserve">
<g>
	<path fill="#FFEDD5" d="M7.218,6.401C4.704,4.881,3.699,2.721,2.59,0c10.948,1.195,22.005,0.234,33.015,0.457
		c10.045,0.204,20.042,1.394,30.071,1.984c6.136,0.361,14.687-1.15,20.832-1.014c6.305,0.139,10.336-0.43,16.64-0.29
		c0.308,0.385-0.097,3.354-0.531,3.587c-0.456,0.245-1.14,1.392-1.641,1.283c-1.552-0.336-2.947,0.409-4.464,0.879
		c-3.338,1.036-6.997,0.005-10.462,0C59.971,6.85,33.296,6.437,7.218,6.401"/>
	<path fill="#FFEDD5" d="M4.702,82.14c-1.753,0.909-3.281,2.25-4.411,3.87c-0.211,0.305-0.411,0.714-0.205,1.022
		c0.162,0.241,0.493,0.286,0.783,0.303c4.666,0.287,9.363-0.376,14.015,0.077c5.128,0.499,10.052,2.339,15.179,2.857
		c3.114,0.314,6.254,0.137,9.383,0.059c9.054-0.224,18.104,0.401,27.139,1.025c11.394,0.786,22.788,1.573,34.181,2.361
		c-1.681-2.372-2.332-3.956-4.013-6.327c-0.286-0.402-0.508-1.052-0.958-1.258c-0.663-0.304-2.544-0.62-3.253-0.45
		c-2.44,0.587-4.994,0.256-7.487-0.03c-16.235-1.863-32.628-1.611-48.969-1.495c-2.334,0.017-4.676,0.03-6.992-0.26
		c-2.052-0.259-4.067-0.753-6.105-1.104c-5.168-0.891-8.016-1.419-13.26-1.385c-1.283,0.008-3.616,0.271-4.834,0.674"/>
	<path fill="#44A84F" d="M21.531,36.326c4.437,0.107,8.767,1.292,13.073,2.366c19.422,4.839,39.379,7.508,59.389,7.985
		c0.355-5.157,1.047-10.279,2.241-15.337c0.675-2.856,1.509-5.755,1.216-8.676c-0.147-1.455-0.572-2.884-0.565-4.346
		c0.025-4.775,4.53-8.516,5.024-13.266c-1.387,0.863-3.115,0.897-4.748,0.906C67.18,6.107,37.199,6.253,7.217,6.401l0.832,1.484
		C7.213,12.959,7.265,18.132,7.32,23.274c0.041,3.898,0.082,7.797,0.124,11.694c0.009,0.871,0.022,1.742,0.043,2.614
		c1.383-0.122,2.765-0.247,4.143-0.413C14.922,36.771,18.216,36.246,21.531,36.326"/>
	<path fill="#B4C681" d="M34.604,38.692c-4.307-1.073-8.636-2.26-13.073-2.366c-3.315-0.08-6.609,0.445-9.901,0.844
		c-1.378,0.167-2.76,0.291-4.143,0.413c0.054,2.235,0.183,4.467,0.592,6.661c0.569,3.05,1.669,6.031,1.68,9.133
		c0.006,2.163-0.521,4.288-0.769,6.438c-0.373,3.222-0.123,6.485-0.358,9.721c-0.327,4.511-1.609,8.95-3.738,12.94
		c10.299-3.144,21.098,2.249,31.835,3.065c3.647,0.277,7.311,0.019,10.966-0.104c5.376-0.181,10.756-0.07,16.133,0.039
		c10.656,0.219,21.312,0.437,31.967,0.655c-1.363-13.089-2.701-26.388-1.802-39.452C73.983,46.2,54.026,43.532,34.604,38.692"/>
	<path fill="#079247" d="M31.371,51.513c-0.147-0.605-0.301-1.228-0.664-1.733c-0.362-0.506-0.988-0.875-1.598-0.75
		c-0.577,0.118-0.985,0.626-1.3,1.124c-0.437,0.69-0.809,1.485-0.704,2.294c0.141,1.085,1.252,1.945,2.337,1.809
		c1.085-0.135,1.951-1.242,1.82-2.327"/>
	<path fill="#079247" d="M60.03,52.757c-0.122,0.61-0.245,1.239-0.13,1.851c0.115,0.612,0.526,1.211,1.131,1.355
		c0.574,0.137,1.157-0.152,1.653-0.47c0.688-0.441,1.361-1.004,1.608-1.782c0.33-1.042-0.314-2.291-1.355-2.627
		c-1.041-0.335-2.293,0.303-2.633,1.342"/>
	<path fill="#079247" d="M73.328,79.629c0.616,0.093,1.25,0.185,1.855,0.04c0.606-0.145,1.184-0.584,1.299-1.196
		c0.109-0.579-0.208-1.147-0.55-1.628c-0.474-0.665-1.069-1.31-1.858-1.519c-1.057-0.279-2.274,0.424-2.558,1.479
		c-0.284,1.056,0.414,2.276,1.468,2.565"/>
	<path fill="#079247" d="M80.856,79.142c-0.598,0.173-1.212,0.354-1.702,0.738c-0.49,0.386-0.831,1.026-0.68,1.63
		c0.144,0.571,0.669,0.956,1.181,1.249c0.708,0.406,1.518,0.743,2.322,0.604c1.078-0.188,1.888-1.336,1.705-2.415
		c-0.183-1.078-1.327-1.895-2.406-1.715"/>
	<path fill="#079247" d="M23.695,63.344c0.418-0.462,0.845-0.938,1.059-1.523c0.214-0.584,0.167-1.31-0.279-1.743
		c-0.422-0.411-1.072-0.462-1.661-0.442c-0.816,0.027-1.682,0.166-2.292,0.709c-0.818,0.727-0.903,2.129-0.181,2.95
		c0.723,0.82,2.125,0.913,2.949,0.194"/>
	<path fill="#079247" d="M25.823,71.439c0.405-0.473,0.819-0.962,1.017-1.552c0.199-0.59,0.132-1.313-0.326-1.734
		c-0.433-0.399-1.084-0.433-1.672-0.397c-0.815,0.049-1.677,0.212-2.273,0.771c-0.797,0.748-0.845,2.152-0.1,2.953
		c0.745,0.801,2.149,0.855,2.953,0.114"/>
	<path fill="#079247" d="M46.188,45.51c-0.41,0.469-0.829,0.953-1.033,1.541c-0.205,0.588-0.146,1.312,0.307,1.738
		c0.429,0.403,1.079,0.443,1.668,0.414c0.816-0.041,1.679-0.193,2.281-0.747c0.805-0.739,0.867-2.144,0.131-2.951
		c-0.736-0.81-2.14-0.879-2.952-0.146"/>
	<path fill="#079247" d="M89.441,79.735c-0.512,0.355-1.036,0.722-1.378,1.243c-0.341,0.52-0.461,1.237-0.125,1.761
		c0.318,0.496,0.939,0.693,1.517,0.809c0.801,0.159,1.676,0.221,2.394-0.168c0.961-0.522,1.363-1.868,0.846-2.832
		c-0.517-0.964-1.861-1.372-2.827-0.86"/>
	<path fill="#079247" d="M61.503,78.941c0.308,0.541,0.627,1.097,1.115,1.482c0.487,0.388,1.19,0.57,1.743,0.283
		c0.522-0.272,0.774-0.873,0.94-1.438c0.231-0.783,0.37-1.649,0.046-2.399c-0.433-1.004-1.738-1.525-2.744-1.097
		s-1.534,1.731-1.11,2.738"/>
	<path fill="#079247" d="M18.207,42c0.572-0.246,1.159-0.501,1.598-0.942c0.438-0.442,0.698-1.121,0.474-1.701
		c-0.213-0.55-0.782-0.867-1.326-1.095c-0.753-0.315-1.598-0.551-2.379-0.312c-1.046,0.319-1.709,1.558-1.394,2.606
		c0.314,1.047,1.55,1.716,2.599,1.405"/>
	<path fill="#079247" d="M38.022,71.841c-0.443,0.438-0.896,0.891-1.142,1.462c-0.247,0.572-0.24,1.298,0.181,1.757
		c0.399,0.434,1.044,0.521,1.634,0.533c0.816,0.019,1.689-0.072,2.328-0.58c0.857-0.679,1.021-2.075,0.345-2.935
		c-0.676-0.859-2.071-1.03-2.934-0.358"/>
	<path fill="#079247" d="M39.94,63.293c0.508-0.361,1.028-0.734,1.363-1.259c0.336-0.524,0.447-1.242,0.105-1.763
		c-0.323-0.493-0.946-0.682-1.525-0.791c-0.803-0.149-1.679-0.2-2.392,0.196c-0.955,0.533-1.343,1.884-0.815,2.841
		c0.529,0.958,1.878,1.352,2.838,0.828"/>
	<path fill="#079247" d="M20.653,75.237c-0.622-0.034-1.261-0.065-1.85,0.136c-0.59,0.201-1.123,0.694-1.18,1.313
		c-0.053,0.588,0.316,1.123,0.702,1.569c0.535,0.617,1.188,1.202,1.994,1.335c1.079,0.178,2.223-0.638,2.406-1.716
		s-0.628-2.226-1.705-2.414"/>
	<path fill="#079247" d="M20.855,54.068c-0.071-0.618-0.148-1.254-0.445-1.801c-0.298-0.547-0.873-0.991-1.494-0.942
		c-0.587,0.046-1.054,0.5-1.428,0.955c-0.519,0.631-0.986,1.374-0.982,2.191c0.006,1.093,1.003,2.084,2.097,2.083
		c1.093-0.001,2.089-0.994,2.093-2.087"/>
	<path fill="#079247" d="M67.163,72.928c0.354,0.512,0.721,1.037,1.241,1.379c0.52,0.343,1.237,0.463,1.761,0.128
		c0.497-0.318,0.694-0.938,0.81-1.516c0.161-0.801,0.223-1.676-0.166-2.395c-0.52-0.962-1.866-1.365-2.83-0.85
		c-0.964,0.515-1.375,1.859-0.863,2.826"/>
	<path fill="#079247" d="M54.081,66.669c-0.555-0.283-1.127-0.571-1.747-0.625c-0.62-0.056-1.308,0.179-1.611,0.723
		c-0.286,0.515-0.166,1.155,0.007,1.719c0.239,0.781,0.599,1.581,1.282,2.029c0.914,0.599,2.291,0.317,2.895-0.595
		s0.327-2.289-0.582-2.898"/>
	<path fill="#079247" d="M78.371,61.015c-0.605,0.149-1.226,0.305-1.731,0.669c-0.505,0.364-0.872,0.991-0.745,1.601
		c0.119,0.576,0.629,0.982,1.128,1.297c0.691,0.435,1.486,0.805,2.296,0.696c1.084-0.144,1.941-1.258,1.802-2.343
		c-0.139-1.084-1.249-1.945-2.334-1.812"/>
	<path fill="#079247" d="M15.348,59.426c-0.147-0.604-0.301-1.227-0.664-1.732c-0.362-0.507-0.988-0.875-1.598-0.75
		c-0.577,0.117-0.984,0.626-1.3,1.124c-0.437,0.689-0.809,1.483-0.704,2.294c0.141,1.085,1.252,1.944,2.337,1.809
		c1.085-0.135,1.951-1.243,1.82-2.328"/>
	<path fill="#079247" d="M58.793,61.395c0.118,0.611,0.242,1.24,0.579,1.764c0.338,0.522,0.945,0.922,1.561,0.827
		c0.582-0.092,1.013-0.579,1.352-1.062c0.47-0.668,0.88-1.442,0.814-2.257c-0.088-1.09-1.157-2.003-2.247-1.92
		c-1.09,0.083-2.008,1.146-1.93,2.238"/>
	<path fill="#079247" d="M48.039,57.73c0.373-0.498,0.755-1.014,0.914-1.615c0.16-0.602,0.047-1.319-0.437-1.71
		c-0.459-0.37-1.11-0.361-1.695-0.287c-0.81,0.101-1.66,0.32-2.218,0.916c-0.747,0.799-0.703,2.203,0.092,2.954
		s2.2,0.714,2.954-0.078"/>
	<path fill="#079247" d="M55.782,81.984c0.132,0.607,0.27,1.234,0.62,1.749s0.966,0.898,1.579,0.79c0.58-0.104,1-0.603,1.328-1.091
		c0.454-0.68,0.846-1.464,0.761-2.276c-0.114-1.088-1.203-1.976-2.291-1.867s-1.981,1.194-1.878,2.282"/>
	<path fill="#079247" d="M87.785,62.535c-0.499,0.373-1.01,0.759-1.332,1.291c-0.323,0.533-0.417,1.253-0.063,1.765
		c0.336,0.484,0.963,0.659,1.545,0.753c0.806,0.132,1.683,0.161,2.386-0.254c0.942-0.555,1.297-1.915,0.745-2.859
		c-0.551-0.944-1.909-1.306-2.856-0.758"/>
	<path fill="#079247" d="M58.957,70.67c0.355,0.512,0.723,1.036,1.243,1.378c0.521,0.341,1.237,0.46,1.761,0.124
		c0.496-0.318,0.693-0.939,0.808-1.517c0.159-0.802,0.221-1.677-0.169-2.394c-0.522-0.961-1.868-1.364-2.832-0.847
		c-0.963,0.518-1.372,1.861-0.859,2.828"/>
	<path fill="#079247" d="M12.996,43.458c-0.588-0.204-1.194-0.411-1.816-0.38s-1.271,0.357-1.496,0.938
		c-0.213,0.55-0.006,1.167,0.242,1.702c0.343,0.741,0.81,1.482,1.548,1.833c0.988,0.469,2.313,0,2.786-0.986s0.01-2.313-0.973-2.791
		"/>
	<path fill="#079247" d="M19.748,45.354c-0.418,0.462-0.847,0.938-1.062,1.521c-0.216,0.584-0.171,1.31,0.275,1.745
		c0.421,0.411,1.071,0.463,1.66,0.445c0.816-0.025,1.682-0.163,2.294-0.704c0.819-0.726,0.908-2.127,0.187-2.949
		c-0.721-0.823-2.123-0.918-2.949-0.201"/>
	<path fill="#9BC53D" d="M78.276,70.779c-0.555,0.211-0.769,0.932-0.611,1.505c0.158,0.573,0.584,1.027,1.001,1.451
		c0.253,0.257,0.52,0.521,0.861,0.643c0.747,0.269,1.561-0.238,2.053-0.861c0.564-0.714,0.895-1.647,0.738-2.543
		c-0.157-0.896-0.87-1.711-1.771-1.836s-1.876,0.581-1.906,1.489"/>
	<path fill="#9BC53D" d="M75.585,49.735c-0.416-0.424-1.162-0.331-1.624,0.043c-0.461,0.373-0.707,0.946-0.928,1.497
		c-0.135,0.336-0.27,0.686-0.245,1.047c0.053,0.792,0.844,1.335,1.612,1.536c0.879,0.23,1.868,0.161,2.626-0.341
		c0.758-0.503,1.219-1.483,0.973-2.358c-0.246-0.876-1.284-1.487-2.129-1.151"/>
	<path fill="#9BC53D" d="M68.449,64.945c-0.453,0.386-0.412,1.137-0.072,1.623c0.341,0.487,0.895,0.772,1.429,1.031
		c0.325,0.158,0.666,0.317,1.027,0.318c0.794,0.003,1.391-0.748,1.646-1.5c0.292-0.861,0.292-1.853-0.156-2.644
		c-0.448-0.792-1.394-1.32-2.284-1.137c-0.891,0.184-1.574,1.176-1.297,2.043"/>
	<path fill="#9BC53D" d="M51.773,60.377c0.072,0.59,0.721,0.97,1.315,0.954c0.594-0.017,1.137-0.321,1.648-0.625
		c0.311-0.185,0.631-0.381,0.831-0.683c0.439-0.661,0.141-1.573-0.346-2.2c-0.558-0.718-1.385-1.263-2.292-1.324
		c-0.907-0.063-1.869,0.435-2.207,1.279c-0.337,0.845,0.115,1.961,0.991,2.208"/>
	<path fill="#9BC53D" d="M34.145,82.174c0.108,0.584,0.779,0.923,1.371,0.871c0.592-0.054,1.115-0.392,1.607-0.726
		c0.299-0.203,0.606-0.418,0.787-0.73c0.398-0.688,0.044-1.579-0.48-2.175c-0.601-0.683-1.46-1.177-2.37-1.183
		c-0.909-0.006-1.839,0.55-2.123,1.413c-0.285,0.864,0.235,1.951,1.124,2.144"/>
	<path fill="#9BC53D" d="M68.647,46.887c-0.162-0.572-0.861-0.848-1.445-0.741c-0.585,0.107-1.075,0.492-1.533,0.87
		c-0.279,0.229-0.566,0.473-0.717,0.801c-0.333,0.722,0.101,1.576,0.679,2.121c0.661,0.624,1.562,1.037,2.468,0.959
		c0.906-0.078,1.781-0.717,1.984-1.604c0.204-0.887-0.414-1.92-1.317-2.029"/>
	<path fill="#9BC53D" d="M56.386,46.511c-0.425-0.416-1.169-0.308-1.622,0.076c-0.454,0.385-0.687,0.962-0.897,1.518
		c-0.128,0.338-0.255,0.691-0.223,1.052c0.07,0.79,0.873,1.316,1.645,1.502c0.884,0.212,1.871,0.121,2.618-0.397
		s1.187-1.509,0.923-2.378c-0.265-0.87-1.315-1.459-2.153-1.105"/>
	<path fill="#9BC53D" d="M82.587,59.092c0.334,0.491,1.085,0.531,1.606,0.245c0.52-0.287,0.863-0.807,1.178-1.311
		c0.192-0.307,0.386-0.628,0.426-0.987c0.087-0.789-0.596-1.463-1.316-1.797c-0.825-0.382-1.81-0.488-2.645-0.127
		c-0.835,0.36-1.462,1.245-1.374,2.149c0.088,0.905,1.001,1.69,1.892,1.509"/>
	<path fill="#9BC53D" d="M26.904,77.126c-0.585,0.102-0.932,0.769-0.886,1.361c0.045,0.592,0.378,1.119,0.706,1.614
		c0.2,0.302,0.412,0.611,0.723,0.796c0.682,0.405,1.578,0.062,2.18-0.455c0.689-0.595,1.192-1.447,1.209-2.356
		c0.016-0.909-0.53-1.845-1.39-2.14c-0.86-0.294-1.953,0.214-2.155,1.1"/>
	<path fill="#9BC53D" d="M71.585,81.337c0.015-0.595-0.572-1.064-1.162-1.136c-0.59-0.07-1.171,0.152-1.721,0.377
		c-0.335,0.138-0.68,0.285-0.922,0.554c-0.531,0.59-0.369,1.536,0.021,2.227c0.447,0.792,1.186,1.453,2.074,1.646
		c0.889,0.193,1.914-0.158,2.37-0.944c0.457-0.787,0.173-1.957-0.657-2.329"/>
	<path fill="#9BC53D" d="M40.259,53.958c0.561-0.194,0.795-0.909,0.653-1.486c-0.141-0.577-0.554-1.043-0.959-1.479
		c-0.246-0.265-0.506-0.536-0.842-0.668c-0.739-0.289-1.568,0.195-2.077,0.805c-0.584,0.696-0.942,1.621-0.81,2.521
		c0.131,0.9,0.822,1.735,1.718,1.885c0.897,0.151,1.893-0.527,1.948-1.435"/>
	<path fill="#9BC53D" d="M67.978,56.929c-0.523,0.281-0.641,1.024-0.41,1.571c0.23,0.548,0.712,0.942,1.18,1.309
		c0.285,0.224,0.584,0.449,0.938,0.526c0.775,0.169,1.517-0.44,1.923-1.122c0.467-0.78,0.674-1.749,0.402-2.617
		s-1.085-1.583-1.995-1.59c-0.909-0.007-1.785,0.82-1.696,1.725"/>
	<path fill="#9BC53D" d="M54.213,80.078c0.594,0.012,1.062-0.576,1.13-1.166c0.069-0.592-0.156-1.172-0.384-1.721
		c-0.138-0.334-0.287-0.679-0.557-0.92c-0.592-0.527-1.537-0.363-2.227,0.031c-0.79,0.45-1.447,1.191-1.637,2.081
		c-0.19,0.889,0.166,1.912,0.954,2.366c0.788,0.453,1.958,0.164,2.326-0.668"/>
	<path fill="#9BC53D" d="M84.37,50.846c0.575-0.149,0.866-0.842,0.773-1.429c-0.094-0.586-0.468-1.085-0.836-1.551
		c-0.223-0.285-0.46-0.576-0.785-0.735c-0.713-0.348-1.578,0.067-2.136,0.632c-0.638,0.647-1.07,1.539-1.013,2.446
		c0.058,0.908,0.678,1.796,1.559,2.02c0.882,0.224,1.929-0.372,2.059-1.271"/>
	<path fill="#9BC53D" d="M29.711,43.613c0.594-0.014,1.035-0.622,1.078-1.215c0.042-0.594-0.209-1.163-0.46-1.701
		c-0.153-0.328-0.317-0.666-0.597-0.895c-0.615-0.502-1.552-0.295-2.224,0.129c-0.769,0.484-1.393,1.255-1.544,2.151
		c-0.15,0.897,0.251,1.903,1.059,2.321c0.807,0.418,1.962,0.078,2.294-0.77"/>
	<path fill="#9BC53D" d="M12.028,75c-0.396-0.442-1.146-0.384-1.624-0.031s-0.749,0.913-0.996,1.454
		c-0.15,0.329-0.3,0.673-0.292,1.034c0.017,0.794,0.783,1.372,1.541,1.608c0.868,0.271,1.859,0.246,2.638-0.223
		c0.78-0.467,1.286-1.425,1.08-2.311s-1.215-1.544-2.074-1.246"/>
	<path fill="#9BC53D" d="M89.242,71.396c-0.434-0.406-1.175-0.281-1.62,0.111c-0.446,0.394-0.667,0.977-0.864,1.536
		c-0.12,0.341-0.24,0.697-0.2,1.057c0.087,0.789,0.901,1.298,1.676,1.466c0.889,0.192,1.873,0.081,2.609-0.453
		c0.736-0.535,1.155-1.534,0.872-2.398c-0.284-0.863-1.347-1.43-2.176-1.058"/>
	<path fill="#9BC53D" d="M43.649,83.795c0.406,0.433,1.154,0.356,1.624-0.008c0.47-0.363,0.728-0.931,0.961-1.477
		c0.143-0.333,0.285-0.68,0.268-1.041c-0.036-0.793-0.815-1.354-1.578-1.571c-0.874-0.25-1.864-0.202-2.633,0.283
		c-0.768,0.486-1.251,1.456-1.024,2.337c0.227,0.881,1.251,1.514,2.103,1.197"/>
	<path fill="#9BC53D" d="M39.394,45.964c0.593-0.029,1.019-0.649,1.046-1.243c0.027-0.593-0.238-1.157-0.504-1.688
		c-0.161-0.324-0.334-0.657-0.62-0.878c-0.628-0.486-1.559-0.256-2.219,0.186c-0.757,0.504-1.361,1.29-1.488,2.19
		c-0.127,0.9,0.3,1.896,1.118,2.293S38.69,46.851,39,45.997"/>
	<path fill="#9BC53D" d="M46.767,66.539c0.416-0.424,0.309-1.168-0.074-1.622c-0.383-0.455-0.96-0.689-1.516-0.9
		c-0.338-0.128-0.691-0.256-1.051-0.224c-0.791,0.068-1.318,0.87-1.505,1.641c-0.213,0.885-0.124,1.871,0.393,2.619
		s1.506,1.19,2.377,0.927c0.87-0.263,1.461-1.312,1.108-2.149"/>
	<path fill="#9BC53D" d="M31.055,58.373c-0.368-0.466-1.12-0.454-1.619-0.131c-0.499,0.321-0.804,0.864-1.083,1.39
		c-0.17,0.319-0.341,0.653-0.356,1.014c-0.031,0.793,0.697,1.418,1.439,1.7c0.85,0.324,1.84,0.36,2.648-0.059
		c0.807-0.419,1.37-1.345,1.219-2.241s-1.118-1.615-1.994-1.371"/>
	<path fill="#9BC53D" d="M13.991,70.454c0.373,0.462,1.125,0.44,1.62,0.112c0.496-0.327,0.795-0.873,1.068-1.401
		c0.167-0.321,0.334-0.657,0.344-1.019c0.023-0.793-0.712-1.409-1.457-1.684c-0.854-0.314-1.844-0.339-2.647,0.088
		c-0.802,0.428-1.355,1.36-1.194,2.255c0.161,0.896,1.135,1.604,2.008,1.35"/>
	<path fill="#9BC53D" d="M45.961,76.581c0.236,0.545,0.966,0.725,1.531,0.542c0.565-0.185,0.999-0.632,1.404-1.066
		c0.246-0.265,0.497-0.544,0.603-0.89c0.234-0.759-0.31-1.55-0.955-2.013c-0.739-0.529-1.686-0.818-2.574-0.621
		c-0.888,0.198-1.669,0.948-1.753,1.854c-0.084,0.906,0.666,1.848,1.575,1.837"/>
	<path fill="#9BC53D" d="M91.882,53.471c0.501-0.319,0.564-1.068,0.293-1.598s-0.781-0.887-1.275-1.217
		c-0.3-0.201-0.615-0.405-0.973-0.455c-0.786-0.111-1.481,0.551-1.836,1.261c-0.407,0.813-0.542,1.795-0.207,2.641
		c0.336,0.845,1.2,1.498,2.108,1.438c0.907-0.06,1.719-0.95,1.564-1.846"/>
	<path fill="#9BC53D" d="M31.214,68.447c-0.479,0.351-0.493,1.103-0.189,1.613c0.304,0.51,0.836,0.835,1.35,1.133
		c0.313,0.181,0.641,0.364,1.002,0.391c0.791,0.061,1.441-0.646,1.75-1.377c0.353-0.838,0.425-1.826,0.035-2.647
		c-0.389-0.822-1.294-1.418-2.195-1.3c-0.902,0.119-1.655,1.06-1.442,1.944"/>
</g>
</svg>
