<?xml version="1.0" encoding="utf-8"?>
<!-- Generator: Adobe Illustrator 16.0.2, SVG Export Plug-In . SVG Version: 6.00 Build 0)  -->
<!DOCTYPE svg PUBLIC "-//W3C//DTD SVG 1.1//EN" "http://www.w3.org/Graphics/SVG/1.1/DTD/svg11.dtd">
<svg version="1.1" id="Layer_1" xmlns="http://www.w3.org/2000/svg" xmlns:xlink="http://www.w3.org/1999/xlink" x="0px" y="0px"
	 width="33.526px" height="92.086px" viewBox="0 0 33.526 92.086" enable-background="new 0 0 33.526 92.086" xml:space="preserve">
<g>
	<path fill="#FFFFFF" d="M0.281,7.079c0.336,4.585,0.671,9.17,1.007,13.755c0.326,4.458,0.651,8.944,0.165,13.387
		c-0.31,2.825-0.044,5.608-0.298,8.438c-0.246,2.733-0.134,5.483-0.149,8.227C0.929,63.838,0.068,75.737,0.453,89.572
		c0.01,0.389,0.229,0.785,0.56,0.992c0.232,0.146,0.521,0.162,0.793,0.174c10.211,0.449,20.422,0.898,30.633,1.348
		c2.063-15.603,0.578-31.201,0.469-46.939c-0.022-3.173-0.351-8.683-0.6-11.846c-0.72-9.13-1.645-16.092-0.491-25.177"/>
	<path fill="#D06728" d="M10.863,4.215C8.076,4.443,5.303,4.828,2.559,5.368C1.833,5.51,0.31,5.289,0,7.087
		c0.617,0.495,2.228-0.085,3.019-0.067c9.427,0.216,19.154,0.388,28.584,0.376c0.425,0,0.247-0.463,0.365-0.871
		c0.073-0.252,0.306-0.539,0.057-0.619C30.449,5.4,30.457,5.35,29.511,5.323C23.291,5.154,17.084,4.384,10.863,4.215"/>
	<path fill="#44A84F" d="M11.277,6.149c0.568-1.896,0.594-3.951,0.073-5.86c0.274-0.248,0.682-0.267,1.053-0.271
		C15.331-0.017,18.261,0,21.188,0.07c0.195,0.005,0.408,0.016,0.556,0.143c0.158,0.135,0.197,0.36,0.226,0.567l0.526,3.844
		c0.022,0.159,0.038,0.34-0.064,0.464c-0.104,0.123-0.283,0.14-0.443,0.148C18.384,5.407,14.886,6.209,11.277,6.149"/>
	<path fill="#EEA820" d="M0.081,7.084c0.19,4.699,0.94,7.998,1.016,12.422c0.005,0.275-0.05,1.478,0.075,1.724
		c0.188,0.373,1.491,0.46,1.892,0.581c9.761,2.961,19.521,5.921,29.282,8.881c-0.704-7.589-0.885-15.72-0.51-23.333
		c-10.294-0.93-19.268,0.15-30.829-0.553"/>
	<g>
		<path fill="#F19121" d="M22.18,70.314c0.914,0.184,1.607,0.951,2.031,1.781c1.05,2.056,0.795,4.563-0.007,6.729
			c-0.315,0.853-0.754,1.726-1.538,2.188c-0.467,0.275-1.013,0.377-1.513,0.586c-0.653,0.273-1.226,0.727-1.899,0.948
			c-0.424,0.139-0.872,0.181-1.317,0.216c-2.493,0.2-5.068,0.238-7.418-0.62c-0.476-0.174-0.943-0.387-1.334-0.709
			c-0.64-0.527-1.019-1.305-1.308-2.082c-0.531-1.429-0.825-2.99-0.526-4.484c0.3-1.495,1.27-2.91,2.69-3.464
			c0.564-0.22,1.174-0.3,1.774-0.386c3.517-0.505,7.101-1.308,10.58-0.592"/>
		<path fill="#44A84F" d="M18.227,71.738c-0.022,0.319-0.243,0.617-0.544,0.729c-0.058,0.022-0.126,0.036-0.178,0.003
			c-0.048-0.031-0.065-0.091-0.095-0.141c-0.11-0.188-0.382-0.195-0.59-0.132s-0.415,0.174-0.631,0.141
			c-0.157-0.023-0.293-0.12-0.444-0.17c-0.151-0.049-0.313-0.048-0.473-0.046c-0.414,0.005-0.918,0.081-1.069,0.466
			c-0.105,0.268,0.68,0.093,0.899,0.28c0.219,0.188,1.007,0.756,1.288,0.821c0.065,0.015-1.02,0.04-0.972,0.087
			c0.094,0.092,0.103-0.083,0,0c-0.103,0.084-0.324,0.55-0.421,0.462c-1.005-0.913-1.419-0.45-2.14-0.83
			c-0.328-0.174-1.157-0.491-1.152-0.863c0.004-0.372,0.272-0.752,0.642-0.793c0.145-0.017,0.291,0.018,0.437,0.006
			c0.146-0.011,0.304-0.09,0.334-0.233c-1.064-0.189-1.945,1.099-3.021,0.984c-0.521-0.055-0.942-0.43-1.322-0.79
			c0.608,0.103,1.257-0.059,1.745-0.436c-0.363-0.182-0.806-0.096-1.174,0.074c-0.369,0.17-0.699,0.419-1.072,0.576
			c-0.097-0.152-0.022-0.364,0.115-0.48c0.139-0.115,0.32-0.159,0.494-0.205c0.941-0.244,1.848-0.625,2.682-1.125
			c0.098-0.058,0.2-0.126,0.235-0.234c0.02-0.059,0.015-0.123,0.023-0.184c0.021-0.152,0.123-0.291,0.263-0.355
			c-0.144,0.017-0.205-0.208-0.11-0.317c0.096-0.108,0.256-0.124,0.399-0.131c0.401-0.02,0.803-0.041,1.204-0.061
			c0.312-0.015,0.625-0.03,0.932,0.021c0.155,0.027,0.308,0.07,0.464,0.088c0.203,0.024,0.41,0.006,0.614-0.014
			c0.34-0.032,0.679-0.063,1.019-0.095c0.635-0.059,1.295-0.115,1.891,0.108c-0.125,0.166-0.299,0.296-0.493,0.37
			c0.181,0.17,0.47,0.154,0.704,0.072c0.233-0.083,0.451-0.219,0.694-0.261c0.262-0.045,0.527,0.022,0.783,0.091
			c0.204,0.055,0.407,0.111,0.61,0.172c0.479,0.144,0.967,0.322,1.319,0.676c0.124,0.125,0.23,0.271,0.378,0.366
			c0.131,0.086,0.288,0.126,0.422,0.207c0.135,0.081,0.253,0.227,0.226,0.381c-1.286-0.2-2.603-0.205-3.892-0.016
			c-0.046,0.007-0.094,0.014-0.134,0.039c-0.042,0.026-0.072,0.069-0.097,0.112c-0.122,0.209-0.223,0.493-0.464,0.521
			c-0.073,0.008-0.146-0.01-0.218,0.005c-0.07,0.016-0.139,0.09-0.107,0.156"/>
	</g>
</g>
</svg>
