<?xml version="1.0" encoding="utf-8"?>
<!-- Generator: Adobe Illustrator 16.0.2, SVG Export Plug-In . SVG Version: 6.00 Build 0)  -->
<!DOCTYPE svg PUBLIC "-//W3C//DTD SVG 1.1//EN" "http://www.w3.org/Graphics/SVG/1.1/DTD/svg11.dtd">
<svg version="1.1" id="Layer_1" xmlns="http://www.w3.org/2000/svg" xmlns:xlink="http://www.w3.org/1999/xlink" x="0px" y="0px"
	 width="56.563px" height="50.054px" viewBox="0 0 56.563 50.054" enable-background="new 0 0 56.563 50.054" xml:space="preserve">
<g>
	<path fill="#F69F1D" d="M30.109,0.631c1.502,0.199,3.393-0.96,4.338,0.224c0.238,0.297,0.348,0.7,0.655,0.924
		c0.306,0.223,0.717,0.204,1.096,0.209c1.222,0.016,2.413,0.382,3.547,0.835c2.26,0.904,4.368,2.172,6.274,3.687
		c4.56,3.626,7.946,8.707,9.536,14.312c1.449,5.112,1.393,10.706-0.548,15.652c-1.941,4.947-5.833,9.177-10.764,11.158
		c-2.986,1.2-6.23,1.566-9.427,1.92c-2.725,0.303-5.463,0.605-8.201,0.467c-3.693-0.186-7.298-1.17-10.828-2.275
		c-5.43-1.699-11.231-4.084-13.904-9.107c-1.481-2.783-1.787-6.031-1.865-9.183c-0.137-5.568,0.448-11.437,3.593-16.034
		c1.317-1.924,3.03-3.542,4.779-5.084c3.05-2.689,6.309-5.231,10.058-6.807c3.748-1.576,8.067-2.114,11.898-0.749"/>
	<path fill="#F19121" d="M29.336,1.447C28.937,2.261,28.56,3.309,29.147,4c0.426,0.501,1.205,0.554,1.821,0.324
		c0.616-0.229,1.116-0.682,1.634-1.087c0.105-0.082,0.223-0.167,0.356-0.161c0.302,0.012,0.385,0.439,0.277,0.721
		c-0.107,0.281-0.314,0.553-0.261,0.85c0.07,0.392,0.549,0.562,0.946,0.542c0.397-0.021,0.801-0.152,1.185-0.048
		c0.384,0.103,0.687,0.612,0.412,0.899c-0.081,0.085-0.194,0.13-0.306,0.165c-0.561,0.175-1.185,0.144-1.726-0.086
		c-0.705-0.3-1.279-0.922-2.038-1.029c-0.568-0.079-1.127,0.149-1.681,0.297c-0.554,0.147-1.205,0.196-1.643-0.174
		c-0.67-0.565-0.582-1.881-1.429-2.107c-0.368-0.099-0.835,0.055-1.09-0.228c-0.177-0.199-0.132-0.524,0.028-0.736
		c0.161-0.212,0.408-0.338,0.646-0.457c0.547-0.272,1.147-0.552,1.744-0.427c0.347,0.073,0.783,0.25,0.997-0.032"/>
</g>
</svg>
