<?xml version="1.0" encoding="utf-8"?>
<!-- Generator: Adobe Illustrator 16.0.2, SVG Export Plug-In . SVG Version: 6.00 Build 0)  -->
<!DOCTYPE svg PUBLIC "-//W3C//DTD SVG 1.1//EN" "http://www.w3.org/Graphics/SVG/1.1/DTD/svg11.dtd">
<svg version="1.1" id="Layer_1" xmlns="http://www.w3.org/2000/svg" xmlns:xlink="http://www.w3.org/1999/xlink" x="0px" y="0px"
	 width="34.304px" height="121.312px" viewBox="0 0 34.304 121.312" enable-background="new 0 0 34.304 121.312"
	 xml:space="preserve">
<g>
	<path fill="#2AAAE2" d="M9.448,7.583C9.42,5.613,9.487,3.642,9.647,1.679c0.02-0.24,0.046-0.494,0.189-0.688
		c0.177-0.241,0.49-0.332,0.781-0.4c1.56-0.356,3.167-0.435,4.764-0.511c2.784-0.134,5.698-0.243,8.217,0.952
		c0.395,0.187,0.795,0.425,1,0.811c0.197,0.372,0.18,0.815,0.165,1.235c-0.056,1.467-0.037,2.937,0.054,4.401
		c-0.858-1.005-2.355-1.097-3.677-1.077c-2.169,0.03-4.337,0.15-6.497,0.359c-1.631,0.159-3.287,0.375-4.781,1.049"/>
	<path fill="#FFEED7" d="M24.73,14.185c0.912,1.978,2.26,3.715,3.507,5.5c1.436,2.054,2.76,4.209,3.624,6.561
		c2.722,7.415,0.567,15.692,1.604,23.522c0.307,2.315,0.89,4.706,0.223,6.944c-0.416,1.395-1.313,2.758-1.019,4.183
		c0.103,0.501,0.349,0.959,0.536,1.435c0.528,1.344,0.58,2.822,0.624,4.266c0.06,1.917,0.119,3.835,0.178,5.753
		c0.055,1.77-0.249,3.05-0.513,4.756c-0.591,3.82-0.549,7.709-0.52,11.564c0.042,5.429,0.083,10.857,0.125,16.286
		c0.007,0.983-0.005,2.033-0.556,2.846c-0.074,0.109-0.16,0.229-0.139,0.358c0.035,0.209,0.298,0.267,0.483,0.368
		c0.514,0.282,0.496,1.013,0.407,1.591c-0.359,2.339-0.743,4.675-1.152,7.007c-0.076,0.435-0.158,0.882-0.397,1.253
		c-0.295,0.46-0.794,0.745-1.295,0.963c-1.67,0.727-3.522,0.888-5.337,1.039c-4.638,0.387-9.279,0.774-13.93,0.919
		c-0.677,0.02-1.364,0.036-2.024-0.116c-0.791-0.181-1.506-0.589-2.239-0.935c-1.615-0.761-3.367-1.228-5.145-1.373
		c-0.659-2.687-1.105-5.425-1.331-8.182c-0.032-0.383-0.055-0.78,0.089-1.135c0.135-0.328,0.404-0.591,0.515-0.927
		c0.185-0.553-0.097-1.139-0.291-1.689c-0.44-1.253-0.434-2.615-0.422-3.944C0.391,96.74,0.446,90.48,0.5,84.222
		c0.027-3.119,0.192-6.272,0.082-9.389c-0.097-2.742,0.574-5.445,0.61-8.211c0.028-2.039-0.19-4.101,0.202-6.103
		c0.171-0.875,0.46-1.747,0.399-2.638c-0.06-0.891-0.595-1.837-1.471-2.009c0.138-6.041-0.039-12.086,0.218-18.125
		c0.118-2.767-0.493-5.416-0.163-8.222c0.363-3.073,1.357-6.074,2.932-8.74c1.218-2.06,2.755-3.908,4.288-5.745
		c0.463-0.557,0.932-1.117,1.498-1.569c0.43-0.343,0.931-0.637,1.196-1.119c0.24-0.434,0.251-0.953,0.258-1.448
		c0.012-1.019,0.024-2.038,0.037-3.056c0.002-0.206,0.015-0.436,0.162-0.58c0.127-0.122,0.317-0.145,0.493-0.161
		c4.227-0.391,8.48-0.518,12.724-0.38c0.114,0.003-0.258,3.197-0.252,3.42C23.749,11.543,24.147,12.922,24.73,14.185"/>
	<path fill="#F4D49D" d="M16.254,29.177c-1.619-0.061-3.246,0.078-4.833,0.413c-0.332,0.07-0.677,0.156-0.931,0.383
		c-0.393,0.353-0.453,0.938-0.483,1.466c-0.433,7.299-0.45,14.623-0.056,21.923c0.012,0.212,0.027,0.434,0.144,0.611
		c0.145,0.219,0.411,0.319,0.66,0.398c3.907,1.238,8.125,0.743,12.191,0.236c0.375-0.046,0.771-0.102,1.065-0.337
		c0.321-0.254,0.46-0.669,0.559-1.066c0.389-1.568,0.391-3.202,0.39-4.817L24.956,31.29c0-0.294-0.007-0.613-0.183-0.85
		c-0.214-0.286-0.603-0.362-0.957-0.417c-2.2-0.343-4.401-0.687-6.601-1.028L16.254,29.177z"/>
	<path fill="#FFFFFF" d="M0.701,64.958c10.926,0.215,21.403,0.397,32.328,0.092c0.231-0.006,0.5,0.003,0.641,0.188
		c0.09,0.121,0.098,0.282,0.101,0.431c0.042,2.291-0.125,4.588,0.085,6.871c0.133,1.438,0.414,2.864,0.445,4.308
		c0.039,1.894-0.353,3.766-0.63,5.64c-0.884,5.957-0.622,12.014-0.429,18.032c0.046,1.446,0.056,3.006-0.785,4.186
		c-1.313,1.841-3.995,1.905-6.262,1.754c-5.279-0.35-10.57-0.857-15.853-0.558c-3.219,0.181-6.676,0.613-9.472-0.982
		c-0.31-0.177-0.621-0.394-0.763-0.721c-0.094-0.216-0.101-0.458-0.105-0.694c-0.041-3.022,0.478-6.021,0.668-9.038
		c0.116-1.842,0.11-3.688,0.104-5.533L0.701,64.958"/>
</g>
</svg>
