<?xml version="1.0" encoding="utf-8"?>
<!-- Generator: Adobe Illustrator 16.0.2, SVG Export Plug-In . SVG Version: 6.00 Build 0)  -->
<!DOCTYPE svg PUBLIC "-//W3C//DTD SVG 1.1//EN" "http://www.w3.org/Graphics/SVG/1.1/DTD/svg11.dtd">
<svg version="1.1" id="Layer_1" xmlns="http://www.w3.org/2000/svg" xmlns:xlink="http://www.w3.org/1999/xlink" x="0px" y="0px"
	 width="35.707px" height="60.302px" viewBox="0 0 35.707 60.302" enable-background="new 0 0 35.707 60.302" xml:space="preserve">
<g>
	<path fill="#EEA820" d="M34.872,3.306c0.339-0.897,0.639-2.025-0.023-2.72c-0.416-0.439-1.076-0.526-1.68-0.559
		c-1.609-0.087-3.232,0.037-4.811,0.367c-1.756,0.367-3.506,0.992-5.289,0.819c-0.871-0.084-1.713-0.357-2.573-0.514
		c-1.771-0.323-3.589-0.151-5.38,0.021C11.678,1.052,8.203,1.392,4.934,2.509c-0.379,0.129-0.767,0.277-1.049,0.56
		C3.51,3.445,3.383,3.995,3.272,4.514c-1.418,6.633-2.844,13.341-2.661,20.121c0.101,3.778,0.702,7.564,0.286,11.32
		c-0.209,1.893-0.676,3.753-0.832,5.651C-0.117,43.798,0.117,46,0.35,48.187c0.35,3.286,0.699,6.571,1.049,9.856
		c0.052,0.48,0.119,0.997,0.449,1.349c0.36,0.384,0.931,0.465,1.455,0.513c2.217,0.202,4.446,0.213,6.672,0.223
		c6.383,0.031,12.768,0.062,19.15,0.093c1.559,0.008,3.389-0.123,4.236-1.43c0.38-0.586,0.478-1.305,0.566-1.997
		c0.713-5.575,1.428-11.233,0.625-16.796c-0.217-1.502-0.543-2.999-0.541-4.517c0.004-2.139,0.664-4.215,1.076-6.314
		c1.645-8.354-0.607-17.011,0.229-25.483"/>
	<path fill="#F4D49D" d="M4.958,2.668C4.58,2.797,4.191,2.945,3.91,3.228C3.535,3.604,3.408,4.154,3.296,4.673
		c-1.418,6.633-2.843,13.341-2.66,20.121c0.1,3.778,0.7,7.564,0.285,11.321c-0.21,1.893-0.676,3.752-0.833,5.65
		c-0.181,2.192,0.052,4.395,0.285,6.582c0.351,3.285,0.7,6.57,1.05,9.856c0.051,0.479,0.119,0.996,0.449,1.348
		c0.359,0.384,0.932,0.465,1.455,0.513c2.217,0.202,4.445,0.213,6.673,0.224c0.95,0.004,1.899,0.009,2.849,0.014
		c0.282-19.808,0.943-39.611,1.992-59.393C11.5,1.232,8.131,1.583,4.958,2.668"/>
	<path fill="#C9A877" d="M3.574,15.692c-0.532-0.029-0.588,0.925-0.142,0.802C3.801,16.394,3.75,15.932,3.574,15.692"/>
	<path fill="#FFCB0B" d="M1.389,52.831c-0.342-0.433,0.484-1.088,0.828-0.655C2.56,52.608,1.733,53.263,1.389,52.831"/>
	<path fill="#FFCB0B" d="M4.958,57.306c0,0.552-1.056,0.553-1.056,0C3.903,56.753,4.958,56.753,4.958,57.306"/>
	<path fill="#FFCB0B" d="M2.02,56.49c-0.151-0.531,0.863-0.819,1.015-0.288C3.186,56.734,2.17,57.021,2.02,56.49"/>
	<path fill="#FFCB0B" d="M5.954,40.046c-0.217-0.508,0.752-0.923,0.97-0.415S6.17,40.554,5.954,40.046"/>
	<path fill="#FFCB0B" d="M7.79,52.542c-0.524-0.174-0.192-1.175,0.332-1.001C8.647,51.715,8.313,52.716,7.79,52.542"/>
	<path fill="#FFCB0B" d="M1.786,15.031c0.364-0.415,1.157,0.281,0.793,0.696C2.213,16.142,1.422,15.446,1.786,15.031"/>
	<path fill="#FFCB0B" d="M7.685,33.954c0.094,0.544-0.946,0.724-1.04,0.179C6.552,33.588,7.59,33.41,7.685,33.954"/>
	<path fill="#FFCB0B" d="M8.918,20.024c0.301-0.463,1.186,0.113,0.884,0.576C9.501,21.063,8.618,20.487,8.918,20.024"/>
	<path fill="#FFCB0B" d="M12.661,34.385c0.266,0.484-0.658,0.992-0.925,0.508S12.395,33.901,12.661,34.385"/>
	<path fill="#FFCB0B" d="M11.502,1.456c0.301-0.464,1.186,0.11,0.885,0.574C12.087,2.493,11.203,1.92,11.502,1.456"/>
	<path fill="#FFCB0B" d="M7.668,19.291c-0.395-0.386,0.344-1.14,0.738-0.754S8.064,19.677,7.668,19.291"/>
	<path fill="#FFCB0B" d="M8.553,29.958c-0.211,0.51-1.186,0.105-0.974-0.405C7.792,29.042,8.766,29.448,8.553,29.958"/>
	<path fill="#FFCB0B" d="M6.502,28.299c-0.494-0.247-0.023-1.191,0.471-0.944C7.468,27.602,6.997,28.546,6.502,28.299"/>
	<path fill="#FFCB0B" d="M5.342,16.102c0.537-0.129,0.785,0.896,0.248,1.026C5.053,17.256,4.805,16.23,5.342,16.102"/>
	<path fill="#FFCB0B" d="M0.701,43.157c-0.248-0.493,0.694-0.968,0.942-0.474C1.891,43.176,0.949,43.65,0.701,43.157"/>
	<path fill="#FFCB0B" d="M10.215,8.551c-0.5,0.234-0.947-0.722-0.445-0.956C10.27,7.361,10.716,8.317,10.215,8.551"/>
	<path fill="#FFCB0B" d="M9.989,25.87c-0.4-0.381,0.326-1.145,0.727-0.765C11.116,25.485,10.389,26.25,9.989,25.87"/>
	<path fill="#FFCB0B" d="M11.755,51.759c-0.539-0.122-0.306-1.151,0.231-1.029C12.526,50.852,12.294,51.881,11.755,51.759"/>
	<path fill="#FFCB0B" d="M12.416,37.224c-0.552,0.01-0.571-1.045-0.019-1.055C12.95,36.16,12.967,37.214,12.416,37.224"/>
	<path fill="#FFCB0B" d="M7.934,24.368c0.504,0.226,0.071,1.189-0.433,0.963S7.43,24.142,7.934,24.368"/>
	<path fill="#FFCB0B" d="M8.136,43.174c-0.551,0.041-0.628-1.012-0.077-1.052C8.61,42.081,8.688,43.133,8.136,43.174"/>
	<path fill="#FFCB0B" d="M11.537,39.979c-0.135,0.536-1.157,0.279-1.022-0.257C10.648,39.186,11.672,39.443,11.537,39.979"/>
	<path fill="#FFCB0B" d="M3.273,33.576c0.133-0.536,1.157-0.282,1.024,0.254C4.164,34.366,3.139,34.112,3.273,33.576"/>
	<path fill="#FFCB0B" d="M6.421,44.722c-0.196-0.516,0.79-0.891,0.985-0.375C7.603,44.863,6.618,45.238,6.421,44.722"/>
	<path fill="#FFCB0B" d="M3.717,22.212c0.535-0.134,0.792,0.89,0.256,1.024C3.437,23.369,3.181,22.346,3.717,22.212"/>
	<path fill="#FFCB0B" d="M4.81,11.707c-0.171-0.525,0.832-0.852,1.003-0.327S4.981,12.232,4.81,11.707"/>
	<path fill="#FFCB0B" d="M2.307,50.082c0.129,0.537-0.897,0.782-1.025,0.244C1.154,49.789,2.18,49.544,2.307,50.082"/>
	<path fill="#FFCB0B" d="M11.495,48.628c-0.085-0.546,0.958-0.707,1.043-0.161C12.622,49.013,11.58,49.174,11.495,48.628"/>
	<path fill="#FFCB0B" d="M7.812,8.009c0.202,0.514-0.78,0.9-0.981,0.386C6.627,7.881,7.61,7.495,7.812,8.009"/>
	<path fill="#FFCB0B" d="M8.848,41.405c-0.529-0.156-0.23-1.168,0.299-1.012C9.677,40.55,9.378,41.561,8.848,41.405"/>
	<path fill="#FFCB0B" d="M11.373,21.271c-0.328,0.444-1.177-0.182-0.849-0.627C10.851,20.201,11.7,20.828,11.373,21.271"/>
	<path fill="#FFCB0B" d="M9.151,58.334c0.459,0.308-0.129,1.184-0.588,0.876C8.104,58.902,8.692,58.026,9.151,58.334"/>
	<path fill="#FFCB0B" d="M4.54,55.336c-0.432,0.344-1.089-0.481-0.657-0.825C4.315,54.167,4.971,54.993,4.54,55.336"/>
	<path fill="#FFCB0B" d="M9.887,27.746c0.509,0.216,0.098,1.187-0.412,0.971C8.966,28.502,9.378,27.53,9.887,27.746"/>
	<path fill="#FFCB0B" d="M5.327,49.02c0.07,0.548-0.976,0.682-1.046,0.134C4.209,48.605,5.256,48.472,5.327,49.02"/>
	<path fill="#FFCB0B" d="M8.312,10.936c0.399-0.382,1.128,0.381,0.729,0.763C8.641,12.081,7.913,11.318,8.312,10.936"/>
	<path fill="#FFCB0B" d="M8.981,16.169c-0.489-0.258,0.004-1.191,0.492-0.933C9.961,15.494,9.469,16.427,8.981,16.169"/>
	<path fill="#FFCB0B" d="M10.415,10.322c-0.367-0.414,0.424-1.113,0.791-0.699C11.57,10.037,10.78,10.736,10.415,10.322"/>
	<path fill="#FFCB0B" d="M12.207,45.898c0.399,0.381-0.327,1.145-0.728,0.765C11.08,46.282,11.806,45.517,12.207,45.898"/>
	<path fill="#FFCB0B" d="M6.101,32.71c0.377,0.403-0.394,1.124-0.771,0.721C4.953,33.027,5.723,32.307,6.101,32.71"/>
	<path fill="#FFCB0B" d="M8.301,9.37c0.012-0.552,1.066-0.532,1.056,0.02C9.346,9.943,8.292,9.922,8.301,9.37"/>
	<path fill="#FFCB0B" d="M12.489,14.35c0.087-0.545,1.129-0.378,1.042,0.167C13.443,15.062,12.402,14.895,12.489,14.35"/>
	<path fill="#FFCB0B" d="M2.211,54.02c0.551,0.035,0.484,1.088-0.068,1.053C1.592,55.037,1.661,53.985,2.211,54.02"/>
	<path fill="#FFCB0B" d="M3.708,11.573c0.265,0.485-0.663,0.989-0.927,0.504C2.518,11.591,3.445,11.088,3.708,11.573"/>
	<path fill="#FFCB0B" d="M4.438,9.81c0.398,0.383-0.334,1.143-0.731,0.759C3.309,10.186,4.041,9.426,4.438,9.81"/>
	<path fill="#FFCB0B" d="M2.543,24.702c0.26-0.487,1.191,0.009,0.932,0.496C3.215,25.686,2.284,25.189,2.543,24.702"/>
	<path fill="#FFCB0B" d="M4.434,36.421c-0.164,0.528-1.171,0.215-1.008-0.313C3.59,35.582,4.598,35.894,4.434,36.421"/>
	<path fill="#FFCB0B" d="M5.613,53.057c-0.505-0.223-0.079-1.188,0.427-0.965C6.545,52.315,6.118,53.28,5.613,53.057"/>
	<path fill="#FFCB0B" d="M3.137,28.495c-0.331-0.442,0.513-1.075,0.845-0.633C4.313,28.303,3.469,28.937,3.137,28.495"/>
	<path fill="#FFCB0B" d="M7.899,20.974c0.432,0.345-0.228,1.169-0.659,0.823C6.809,21.452,7.469,20.628,7.899,20.974"/>
	<path fill="#FFCB0B" d="M6.862,50.755c-0.348,0.43-1.169-0.233-0.822-0.663C6.387,49.663,7.208,50.325,6.862,50.755"/>
	<path fill="#FFCB0B" d="M8.918,13.234c0.464,0.3-0.109,1.186-0.574,0.885C7.881,13.819,8.455,12.934,8.918,13.234"/>
	<path fill="#FFCB0B" d="M7.585,12.604c-0.115,0.54-1.147,0.32-1.032-0.22S7.7,12.064,7.585,12.604"/>
	<path fill="#FFCB0B" d="M12.804,2.945c0.417,0.362-0.274,1.159-0.69,0.797C11.696,3.38,12.387,2.583,12.804,2.945"/>
	<path fill="#FFCB0B" d="M8.651,32.287C8.612,32.837,7.559,32.76,7.6,32.21C7.639,31.66,8.692,31.735,8.651,32.287"/>
	<path fill="#FFCB0B" d="M3.889,6.385C4.438,6.453,4.309,7.5,3.76,7.432C3.211,7.364,3.342,6.317,3.889,6.385"/>
	<path fill="#FFCB0B" d="M10.325,34.464c0.522,0.178,0.182,1.177-0.341,0.999C9.461,35.284,9.801,34.286,10.325,34.464"/>
	<path fill="#FFCB0B" d="M4.426,29.979c-0.386-0.396,0.37-1.132,0.756-0.737C5.567,29.639,4.813,30.375,4.426,29.979"/>
	<path fill="#FFCB0B" d="M2.364,40.86c0.343,0.433-0.483,1.089-0.826,0.656C1.194,41.083,2.02,40.427,2.364,40.86"/>
	<path fill="#FFCB0B" d="M2.108,18.352c-0.549,0.07-0.684-0.976-0.136-1.046C2.52,17.234,2.655,18.281,2.108,18.352"/>
	<path fill="#FFCB0B" d="M9.708,33.439c-0.403-0.378,0.32-1.147,0.722-0.769C10.833,33.049,10.112,33.818,9.708,33.439"/>
	<path fill="#FFCB0B" d="M10.178,57.678c-0.551,0.02-0.59-1.035-0.036-1.054C10.694,56.604,10.731,57.658,10.178,57.678"/>
	<path fill="#FFCB0B" d="M12.25,24.994c0.457-0.311,1.05,0.561,0.594,0.872C12.387,26.177,11.793,25.305,12.25,24.994"/>
	<path fill="#FFCB0B" d="M2.533,44.174c0.071-0.548,1.118-0.411,1.046,0.136C3.507,44.858,2.461,44.722,2.533,44.174"/>
	<path fill="#FFCB0B" d="M9.152,38.452c-0.505-0.224-0.078-1.188,0.427-0.965C10.083,37.71,9.657,38.674,9.152,38.452"/>
	<path fill="#FFCB0B" d="M5.632,18.366c0.112-0.541,1.146-0.326,1.033,0.215S5.52,18.907,5.632,18.366"/>
	<path fill="#FFCB0B" d="M4.028,46.435c-0.158-0.529,0.852-0.833,1.011-0.305C5.199,46.659,4.188,46.964,4.028,46.435"/>
	<path fill="#FFCB0B" d="M12.957,10.934c0.08,0.547-0.964,0.699-1.044,0.153C11.833,10.54,12.876,10.387,12.957,10.934"/>
	<path fill="#FFCB0B" d="M9.833,11.688c0.142-0.534,1.162-0.262,1.019,0.272C10.709,12.494,9.69,12.222,9.833,11.688"/>
	<path fill="#FFCB0B" d="M4.586,44c-0.072-0.548,0.975-0.685,1.046-0.137S4.659,44.549,4.586,44"/>
	<path fill="#FFCB0B" d="M6.977,47.916c0.136,0.536-0.887,0.794-1.022,0.258C5.82,47.638,6.842,47.38,6.977,47.916"/>
	<path fill="#FFCB0B" d="M12.86,41.316c-0.154,0.531-1.168,0.236-1.014-0.294C12,40.491,13.013,40.786,12.86,41.316"/>
	<path fill="#FFCB0B" d="M1.848,22.581c0.517,0.194,0.146,1.182-0.37,0.988S1.331,22.387,1.848,22.581"/>
	<path fill="#FFCB0B" d="M3.805,14.971c-0.389-0.393,0.363-1.134,0.75-0.741C4.944,14.625,4.192,15.364,3.805,14.971"/>
	<path fill="#FFCB0B" d="M5.014,13.505c0.07-0.548,1.117-0.412,1.045,0.136C5.989,14.189,4.943,14.053,5.014,13.505"/>
	<path fill="#FFCB0B" d="M4.13,39.65c0.526-0.167,0.847,0.838,0.319,1.005C3.923,40.823,3.604,39.817,4.13,39.65"/>
	<path fill="#FFCB0B" d="M5.981,24.925c0.354,0.424-0.455,1.101-0.809,0.677C4.817,25.178,5.627,24.501,5.981,24.925"/>
	<path fill="#FFCB0B" d="M11.893,23.431c0.021-0.552,1.074-0.514,1.055,0.038C12.928,24.021,11.874,23.983,11.893,23.431"/>
	<path fill="#FFCB0B" d="M9.663,43.654c0.316,0.452-0.547,1.058-0.864,0.606C8.481,43.808,9.345,43.202,9.663,43.654"/>
	<path fill="#FFCB0B" d="M12.743,29.567c0.258,0.489-0.677,0.98-0.934,0.492C11.551,29.57,12.484,29.078,12.743,29.567"/>
	<path fill="#FFCB0B" d="M5.436,34.798c0.536-0.135,0.793,0.888,0.258,1.023C5.157,35.957,4.901,34.933,5.436,34.798"/>
	<path fill="#FFCB0B" d="M10.542,17.477c0.507,0.22,0.086,1.188-0.421,0.967C9.616,18.224,10.036,17.257,10.542,17.477"/>
	<path fill="#FFCB0B" d="M1.338,45.793c-0.543,0.102-0.738-0.935-0.195-1.037S1.881,45.691,1.338,45.793"/>
	<path fill="#FFCB0B" d="M12.408,21.967c-0.343-0.433,0.485-1.088,0.827-0.655C13.578,21.746,12.75,22.4,12.408,21.967"/>
	<path fill="#C9A877" d="M12.407,38.417c-0.189-0.497-1.084-0.159-0.789,0.198C11.86,38.911,12.261,38.675,12.407,38.417"/>
	<path fill="#C9A877" d="M10.585,13.242c0.002,0.533,0.958,0.534,0.81,0.095C11.272,12.974,10.813,13.053,10.585,13.242"/>
	<path fill="#C9A877" d="M13.715,1.553c-0.435,0.308,0.115,1.091,0.389,0.716C14.331,1.96,14,1.631,13.715,1.553"/>
	<path fill="#C9A877" d="M2.922,13.513c0.07-0.528-0.878-0.658-0.789-0.203C2.207,13.687,2.67,13.67,2.922,13.513"/>
	<path fill="#C9A877" d="M9.663,45.618c-0.339-0.411-1.078,0.194-0.686,0.44C9.301,46.26,9.606,45.909,9.663,45.618"/>
	<path fill="#C9A877" d="M10.495,30.32c-0.444-0.294-0.976,0.501-0.528,0.621C10.336,31.041,10.525,30.615,10.495,30.32"/>
	<path fill="#C9A877" d="M6.431,31.102c0.532-0.016,0.509-0.972,0.074-0.812C6.145,30.422,6.237,30.878,6.431,31.102"/>
	<path fill="#C9A877" d="M13.627,6.753c-0.531,0.023-0.494,0.979-0.062,0.812C13.924,7.428,13.827,6.974,13.627,6.753"/>
	<path fill="#C9A877" d="M5.583,5.958C5.296,6.407,6.1,6.925,6.212,6.476C6.305,6.104,5.877,5.921,5.583,5.958"/>
	<path fill="#C9A877" d="M8.686,39.228c-0.188-0.498-1.084-0.164-0.791,0.195C8.137,39.719,8.54,39.484,8.686,39.228"/>
	<path fill="#C9A877" d="M9.961,55.028c-0.365-0.388-1.063,0.264-0.656,0.484C9.643,55.693,9.924,55.322,9.961,55.028"/>
	<path fill="#C9A877" d="M6.795,37.219c0.255,0.468,1.098,0.017,0.759-0.299C7.274,36.658,6.909,36.944,6.795,37.219"/>
	<path fill="#C9A877" d="M10.401,36.272c-0.488,0.213-0.109,1.091,0.234,0.781C10.92,36.796,10.665,36.406,10.401,36.272"/>
	<path fill="#C9A877" d="M11.969,8.735c0.528-0.061,0.424-1.011,0.004-0.815C11.626,8.082,11.756,8.529,11.969,8.735"/>
	<path fill="#C9A877" d="M10.122,42.239c0.229,0.481,1.095,0.076,0.773-0.258C10.629,41.704,10.249,41.971,10.122,42.239"/>
	<path fill="#C9A877" d="M7.528,17.25c0.474,0.243,0.914-0.605,0.455-0.675C7.605,16.518,7.464,16.96,7.528,17.25"/>
	<path fill="#C9A877" d="M10.614,49.063c-0.527-0.075-0.666,0.872-0.211,0.787C10.78,49.781,10.768,49.316,10.614,49.063"/>
	<path fill="#C9A877" d="M11.345,15.118c-0.418-0.33-1.015,0.418-0.578,0.575C11.128,15.822,11.351,15.415,11.345,15.118"/>
	<path fill="#C9A877" d="M2.716,38.931c0.339,0.411,1.079-0.195,0.687-0.44C3.078,38.288,2.772,38.64,2.716,38.931"/>
	<path fill="#C9A877" d="M3.7,50.839c-0.007,0.532,0.949,0.55,0.809,0.109C4.391,50.583,3.932,50.654,3.7,50.839"/>
	<path fill="#C9A877" d="M6.065,41.655c-0.173,0.504,0.73,0.818,0.734,0.355C6.801,41.626,6.343,41.551,6.065,41.655"/>
	<path fill="#C9A877" d="M3.234,20.56c-0.128,0.517,0.799,0.751,0.762,0.289C3.965,20.467,3.501,20.432,3.234,20.56"/>
	<path fill="#C9A877" d="M9.778,50.851c-0.532,0.026-0.489,0.982-0.059,0.813C10.077,51.524,9.977,51.07,9.778,50.851"/>
	<path fill="#C9A877" d="M2.47,35.357c0.255-0.468-0.583-0.929-0.664-0.473C1.739,35.262,2.179,35.413,2.47,35.357"/>
	<path fill="#C9A877" d="M5.174,27.014c0-0.533-0.955-0.539-0.81-0.099C4.486,27.279,4.945,27.202,5.174,27.014"/>
	<path fill="#C9A877" d="M6.989,46.126c-0.264,0.463,0.565,0.94,0.654,0.486C7.718,46.236,7.282,46.077,6.989,46.126"/>
	<path fill="#C9A877" d="M5.654,8.182C5.211,7.886,4.676,8.677,5.124,8.8C5.493,8.901,5.683,8.477,5.654,8.182"/>
	<path fill="#C9A877" d="M8.268,54.375c0.154-0.51-0.762-0.79-0.746-0.327C7.533,54.431,7.994,54.49,8.268,54.375"/>
	<path fill="#C9A877" d="M12.379,32.677c0.438-0.303-0.101-1.092-0.379-0.721C11.77,32.263,12.094,32.596,12.379,32.677"/>
	<path fill="#C9A877" d="M6.155,54.279c-0.53,0.046-0.453,0.999-0.027,0.814C6.479,54.941,6.362,54.491,6.155,54.279"/>
	<path fill="#C9A877" d="M1.663,36.767c-0.311,0.433,0.464,0.994,0.6,0.551C2.375,36.952,1.958,36.747,1.663,36.767"/>
	<path fill="#C9A877" d="M1.987,58.304c0.385,0.367,1.047-0.322,0.629-0.518C2.268,57.623,2.007,58.008,1.987,58.304"/>
	<path fill="#C9A877" d="M11.654,54.006c0.455,0.277,0.956-0.537,0.504-0.64C11.785,53.281,11.612,53.712,11.654,54.006"/>
	<path fill="#C9A877" d="M1.209,47.243c-0.013,0.532,0.943,0.558,0.807,0.116C1.902,46.993,1.442,47.06,1.209,47.243"/>
	<path fill="#C9A877" d="M13.307,4.609c0.083,0.526,1.028,0.381,0.814-0.03C13.944,4.239,13.504,4.387,13.307,4.609"/>
	<path fill="#C9A877" d="M12.012,55.366c-0.482-0.225-0.891,0.64-0.43,0.692C11.963,56.101,12.086,55.653,12.012,55.366"/>
	<path fill="#C9A877" d="M5.68,57.028c0.444,0.293,0.976-0.502,0.527-0.621C5.837,56.308,5.649,56.733,5.68,57.028"/>
	<path fill="#C9A877" d="M12.039,57.972c0.481-0.229,0.074-1.094-0.26-0.772C11.502,57.466,11.77,57.846,12.039,57.972"/>
	<path fill="#C9A877" d="M8.088,23.272c0.428,0.315,0.998-0.452,0.558-0.594C8.281,22.562,8.072,22.977,8.088,23.272"/>
	<path fill="#C9A877" d="M12.737,18.381c0.458-0.272-0.027-1.096-0.33-0.745C12.157,17.926,12.458,18.281,12.737,18.381"/>
	<path fill="#C9A877" d="M11.717,27.758c0.326,0.42,1.084-0.164,0.697-0.42C12.096,27.126,11.782,27.469,11.717,27.758"/>
	<path fill="#C9A877" d="M13.088,16.592c0.297-0.442-0.495-0.978-0.617-0.531C12.37,16.431,12.793,16.621,13.088,16.592"/>
	<path fill="#C9A877" d="M8.006,4.05c-0.23-0.48-1.094-0.07-0.772,0.262C7.5,4.587,7.881,4.319,8.006,4.05"/>
	<path fill="#C9A877" d="M5.462,23.047c-0.022,0.532,0.933,0.576,0.804,0.131C6.161,22.81,5.7,22.868,5.462,23.047"/>
	<path fill="#C9A877" d="M12.378,43.927c0.468-0.254,0.016-1.097-0.3-0.758C11.817,43.449,12.103,43.816,12.378,43.927"/>
	<path fill="#C9A877" d="M1.026,38.992c-0.385,0.368,0.271,1.063,0.488,0.653C1.692,39.306,1.319,39.027,1.026,38.992"/>
	<path fill="#C9A877" d="M5.665,38.08c0.061-0.529-0.889-0.643-0.793-0.188C4.952,38.266,5.416,38.241,5.665,38.08"/>
	<path fill="#C9A877" d="M2.865,48.721c0.482,0.226,0.892-0.638,0.433-0.691C2.917,47.986,2.792,48.434,2.865,48.721"/>
	<path fill="#C9A877" d="M3.932,4.607C3.587,5.013,4.313,5.635,4.486,5.205C4.628,4.849,4.229,4.612,3.932,4.607"/>
	<path fill="#C9A877" d="M9.641,4.373c-0.167-0.506-1.076-0.21-0.799,0.161C9.072,4.841,9.483,4.624,9.641,4.373"/>
	<path fill="#C9A877" d="M8.346,26.149c-0.393,0.359,0.25,1.068,0.475,0.663C9.006,26.478,8.641,26.191,8.346,26.149"/>
	<path fill="#C9A877" d="M1.931,33.2c0.495-0.194,0.151-1.086-0.204-0.789C1.433,32.657,1.672,33.056,1.931,33.2"/>
	<path fill="#C9A877" d="M4.891,32.012c0.521-0.111,0.326-1.047-0.073-0.812C4.488,31.395,4.659,31.827,4.891,32.012"/>
	<path fill="#C9A877" d="M1.438,26.535c-0.135,0.515,0.791,0.76,0.758,0.297C2.169,26.45,1.707,26.41,1.438,26.535"/>
	<path fill="#C9A877" d="M6.514,9.944c-0.279,0.453,0.531,0.96,0.638,0.509C7.239,10.079,6.809,9.904,6.514,9.944"/>
	<path fill="#C9A877" d="M3.846,53.211c0.374-0.379-0.303-1.054-0.507-0.638C3.17,52.917,3.551,53.185,3.846,53.211"/>
	<path fill="#C9A877" d="M3.712,18.657c0,0.532,0.956,0.538,0.81,0.098C4.399,18.391,3.942,18.469,3.712,18.657"/>
	<path fill="#C9A877" d="M13.211,12.126c-0.528,0.065-0.416,1.015,0.003,0.815C13.559,12.775,13.426,12.33,13.211,12.126"/>
	<path fill="#C9A877" d="M1.652,29.793c0.263,0.463,1.097-0.005,0.752-0.315C2.118,29.222,1.758,29.516,1.652,29.793"/>
	<path fill="#C9A877" d="M11.799,5.548c-0.201,0.493,0.684,0.858,0.713,0.395C12.536,5.562,12.083,5.46,11.799,5.548"/>
	<path fill="#C9A877" d="M11.574,58.692c-0.532-0.029-0.588,0.925-0.142,0.802C11.801,59.394,11.75,58.932,11.574,58.692"/>
	<path fill="#C9A877" d="M5.421,20.852c0.315,0.428,1.088-0.136,0.709-0.402C5.817,20.23,5.494,20.564,5.421,20.852"/>
	<path fill="#C9A877" d="M5.735,4.563c0.51,0.155,0.792-0.759,0.328-0.746C5.68,3.828,5.622,4.289,5.735,4.563"/>
	<path fill="#C9A877" d="M3.788,42.188c0.264,0.463,1.098-0.007,0.752-0.316C4.252,41.617,3.894,41.911,3.788,42.188"/>
	<path fill="#C9A877" d="M5.879,59.022c0.322,0.424,1.086-0.15,0.703-0.411C6.266,58.396,5.948,58.734,5.879,59.022"/>
	<path fill="#C9A877" d="M1.774,19.785c-0.518,0.124-0.299,1.055,0.095,0.809C2.194,20.391,2.012,19.964,1.774,19.785"/>
	<path fill="#C9A877" d="M8.68,49.424c-0.152-0.51-1.069-0.24-0.803,0.139C8.098,49.876,8.516,49.67,8.68,49.424"/>
	<path fill="#C9A877" d="M7.76,56.323c-0.467,0.255-0.014,1.097,0.303,0.757C8.323,56.798,8.036,56.434,7.76,56.323"/>
	<path fill="#C9A877" d="M10.081,52.806c-0.438,0.305,0.107,1.091,0.383,0.719C10.692,53.217,10.367,52.886,10.081,52.806"/>
	<path fill="#C9A877" d="M8.385,6.134C8.086,5.693,7.292,6.225,7.66,6.507C7.965,6.74,8.301,6.419,8.385,6.134"/>
	<path fill="#C9A877" d="M10.153,2.719c0.338-0.412-0.398-1.022-0.564-0.589C9.453,2.489,9.856,2.72,10.153,2.719"/>
	<path fill="#C9A877" d="M9.961,47.839c0.09-0.525-0.852-0.692-0.781-0.233C9.24,47.984,9.704,47.986,9.961,47.839"/>
	<path fill="#C9A877" d="M10.599,6.446c-0.078-0.527-1.024-0.391-0.815,0.022C9.958,6.81,10.401,6.666,10.599,6.446"/>
	<path fill="#C9A877" d="M6.434,15.292c0.325,0.422,1.086-0.159,0.7-0.417C6.817,14.662,6.5,15.003,6.434,15.292"/>
	<path fill="#C9A877" d="M13.407,10.084c0.533-0.02,0.5-0.976,0.068-0.812C13.116,9.408,13.21,9.863,13.407,10.084"/>
	<path fill="#C9A877" d="M10.545,23.562c0.385-0.368-0.272-1.062-0.488-0.652C9.877,23.249,10.25,23.527,10.545,23.562"/>
	<path fill="#C9A877" d="M12.275,20.05c0.485,0.217,0.88-0.654,0.419-0.699C12.313,19.314,12.196,19.764,12.275,20.05"/>
	<path fill="#C9A877" d="M2.646,31.531C2.832,32.03,3.73,31.7,3.438,31.339C3.197,31.041,2.793,31.274,2.646,31.531"/>
	<path fill="#C9A877" d="M3.434,58.711c-0.092,0.524,0.848,0.695,0.779,0.237C4.157,58.569,3.692,58.565,3.434,58.711"/>
	<path fill="#C9A877" d="M7.913,35.565c0.356,0.395,1.07-0.242,0.666-0.469C8.245,34.907,7.956,35.272,7.913,35.565"/>
	<path fill="#C9A877" d="M10.875,4.756c0.532-0.03,0.483-0.985,0.052-0.813C10.571,4.085,10.673,4.539,10.875,4.756"/>
	<path fill="#C9A877" d="M10.615,44.659c0.341,0.409,1.077-0.2,0.685-0.443C10.973,44.015,10.669,44.367,10.615,44.659"/>
	<path fill="#C9A877" d="M5.024,2.781C4.491,2.782,4.489,3.738,4.928,3.59C5.292,3.468,5.213,3.01,5.024,2.781"/>
	<path fill="#C9A877" d="M7.108,2.301C7.069,2.832,8.022,2.909,7.907,2.459C7.813,2.088,7.35,2.13,7.108,2.301"/>
	<path fill="#C9A877" d="M3.489,8.614C3.007,8.386,2.593,9.247,3.053,9.303C3.433,9.349,3.56,8.902,3.489,8.614"/>
	<path fill="#010101" d="M17.779,13.807c2.562-0.812,5.124-1.625,7.687-2.437c0.502-0.16,1.019-0.322,1.547-0.304
		c0.554,0.018,1.08,0.232,1.594,0.443c1.104,0.455,2.21,0.909,3.314,1.364c0.398,0.163,0.82,0.347,1.053,0.709
		c0.217,0.334,0.228,0.756,0.23,1.153c0.007,0.643,0.014,1.285,0.02,1.928c0.002,0.222-0.002,0.463-0.139,0.638
		c-0.152,0.196-0.422,0.249-0.668,0.286c-4.549,0.676-9.229,0.47-13.699-0.604c-0.408-0.098-0.828-0.209-1.156-0.471
		c-0.696-0.559-0.726-1.713-0.157-2.401c0.567-0.688,1.585-0.906,2.442-0.657"/>
</g>
</svg>
