<?xml version="1.0" encoding="utf-8"?>
<!-- Generator: Adobe Illustrator 16.0.2, SVG Export Plug-In . SVG Version: 6.00 Build 0)  -->
<!DOCTYPE svg PUBLIC "-//W3C//DTD SVG 1.1//EN" "http://www.w3.org/Graphics/SVG/1.1/DTD/svg11.dtd">
<svg version="1.1" id="Layer_1" xmlns="http://www.w3.org/2000/svg" xmlns:xlink="http://www.w3.org/1999/xlink" x="0px" y="0px"
	 width="71.458px" height="86.605px" viewBox="0 0 71.458 86.605" enable-background="new 0 0 71.458 86.605" xml:space="preserve">
<g>
	<path fill="#FFCB0B" d="M2.314,6.52C2.312,25.997,3.09,46.349,1.391,65.753c-0.245,2.802-0.429,5.059,0,7.838
		C2,77.545,2.278,81.273,0.996,85.063c6.327-0.054,12.658,0.276,18.946,0.988c3.963,0.449,8.175-0.135,12.15,0.19
		c12.259,1.003,23.516-2.198,36.493-1.052c0.382,0.033,0.807-0.128,1.024-0.445c0.169-0.247,0.158-0.571,0.142-0.871
		c-1.416-25.432-1.871-50.918-1.365-76.385c0.006-0.33-0.005-0.703-0.25-0.924c-0.207-0.188-0.514-0.2-0.793-0.202
		c-6.538-0.055-13.077-0.109-19.615-0.163c-3.183-0.026-6.368-0.053-9.547,0.104c-3.434,0.171-6.854,0.558-10.282,0.815
		C19.458,7.754,10.961,7.61,2.548,6.688"/>
	<path fill="#D06728" d="M12.804,45.992c0.143-4.599,0.286-9.197,0.429-13.796c0.015-0.464,0.039-0.959,0.307-1.339
		c0.212-0.299,0.548-0.484,0.878-0.643c4.475-2.139,9.728-1.164,14.636-0.448c5.376,0.782,10.805,1.197,16.238,1.24
		c2.323,0.019,4.663-0.029,6.95,0.379c0.354,0.063,0.731,0.152,0.972,0.418c0.208,0.231,0.275,0.553,0.333,0.858
		c1.569,8.321,1.774,16.898,0.606,25.286c-0.066,0.47-0.157,0.98-0.513,1.295c-0.366,0.321-0.899,0.339-1.385,0.339
		c-12.297,0.013-24.595-0.356-36.869-1.108c-0.204-0.014-0.427-0.033-0.575-0.177c-0.138-0.133-0.173-0.338-0.2-0.527
		c-0.575-4.024-1.149-8.047-1.724-12.071"/>
	<path fill="#2AAAE2" d="M10.758,47.124c-3.069,0.61-8.611,1.389-9.618,4.958C0.373,54.8,1.093,58.721,1.093,61.55
		c-0.001,3.351-0.002,6.7-0.002,10.051c-0.001,2.15-0.002,4.315-0.379,6.434c-0.388,2.183-1.159,4.496-0.295,6.538
		c16.042,2.12,32.302,2.584,48.438,1.384c0.277-0.021,0.572-0.048,0.792-0.217c0.278-0.213,0.362-0.59,0.421-0.936
		c0.577-3.381,0.556-6.831,0.533-10.262c-0.037-5.532-0.174-11.411-3.203-16.041c-2.173-3.321-5.585-5.591-8.903-7.768
		c-2.307-1.514-4.659-3.048-7.311-3.813c-2.528-0.728-5.201-0.72-7.832-0.706C19.146,46.237,14.896,46.301,10.758,47.124"/>
	<path fill="#D06728" d="M2.177,7.062C-0.076,5.607-0.707,2.157,0.885,0c23.467,1.153,46.977,1.457,70.466,0.907
		c0.584,2.373-1.309,4.783-3.585,5.674C65.49,7.47,62.953,7.238,60.517,7.04c-9.616-0.783-19.289-0.831-28.915-0.187
		C21.843,7.508,12.009,8.87,2.33,7.457"/>
	<path fill="#EEA820" d="M31.908,64.4c-0.868-5.338-1.961-10.639-3.275-15.885c3.152,1.479,5.786,3.897,7.972,6.606
		c1.049,1.301,2.013,2.682,3.215,3.842c2.619,2.527,6.334,3.984,8.188,7.116C42.592,65.002,37.399,64.977,31.908,64.4"/>
	<path fill="#FFEDD5" d="M32.567,55.996c0.089-0.069,0.187-0.089,0.293-0.057c0.629,0.05,0.625-0.93,0-0.98
		c-0.289-0.022-0.538,0.044-0.788,0.191C31.529,55.47,32.022,56.317,32.567,55.996"/>
	<path fill="#FFEDD5" d="M38.456,61.643c-0.025,0.109-0.089,0.189-0.191,0.24c-0.54,0.325-0.048,1.172,0.494,0.846
		c0.246-0.147,0.426-0.326,0.543-0.591C39.555,61.565,38.711,61.066,38.456,61.643"/>
	<path fill="#FFEDD5" d="M35.398,57.029c0.053,0.028,0.105,0.058,0.158,0.086c0.468,0.421,1.163-0.271,0.693-0.693
		c-0.264-0.237-0.501-0.33-0.851-0.373C34.774,55.973,34.779,56.953,35.398,57.029"/>
	<path fill="#FFEDD5" d="M33.001,59.339c-0.112,0.016-0.206-0.019-0.282-0.1c-0.517-0.362-1.008,0.487-0.494,0.846
		c0.238,0.167,0.486,0.234,0.776,0.234C33.631,60.318,33.633,59.339,33.001,59.339"/>
	<path fill="#FFEDD5" d="M35.686,59.778c0.099,0.053,0.157,0.136,0.174,0.25c0.167,0.607,1.112,0.349,0.945-0.261
		c-0.075-0.276-0.204-0.497-0.426-0.683C35.897,58.686,35.2,59.375,35.686,59.778"/>
	<path fill="#FFEDD5" d="M33.947,63.394c0.105-0.032,0.204-0.017,0.296,0.045c0.551,0.308,1.045-0.538,0.494-0.846
		c-0.252-0.142-0.499-0.208-0.79-0.179C33.326,62.477,33.319,63.458,33.947,63.394"/>
	<path fill="#FFEDD5" d="M43.348,63.877c0-0.11,0.04-0.202,0.121-0.274c0.382-0.502-0.469-0.991-0.846-0.495
		c-0.178,0.234-0.243,0.479-0.255,0.77C42.343,64.508,43.323,64.506,43.348,63.877"/>
	<path fill="#FFEDD5" d="M30.827,52.295c0.11,0.027,0.186,0.096,0.227,0.205c0.307,0.551,1.154,0.057,0.846-0.495
		c-0.138-0.249-0.32-0.432-0.578-0.557C30.757,51.175,30.259,52.02,30.827,52.295"/>
	<path fill="#D06728" d="M12.642,77.656c3.547-5.933,7.094-11.866,10.641-17.799c6.908,3.922,13.707,8.034,20.389,12.331
		c-2.976-0.344-5.981,0.098-8.936,0.584c-7.571,1.246-15.092,2.794-22.54,4.639"/>
	<path fill="#C9A877" d="M26.496,72.321c0.089-0.07,0.187-0.089,0.293-0.057c0.629,0.05,0.625-0.931,0-0.98
		C26.5,71.262,26.25,71.328,26,71.476C25.458,71.794,25.95,72.643,26.496,72.321"/>
	<path fill="#C9A877" d="M31.405,68.779c-0.025,0.109-0.089,0.189-0.191,0.24c-0.54,0.325-0.048,1.172,0.494,0.846
		c0.246-0.148,0.426-0.327,0.543-0.591C32.505,68.702,31.661,68.203,31.405,68.779"/>
	<path fill="#C9A877" d="M23.362,64.336c0.053,0.029,0.105,0.059,0.158,0.086c0.468,0.422,1.163-0.27,0.693-0.692
		c-0.264-0.237-0.501-0.33-0.851-0.373C22.738,63.28,22.743,64.261,23.362,64.336"/>
	<path fill="#C9A877" d="M19.511,70.299c-0.112,0.015-0.206-0.02-0.282-0.101c-0.517-0.361-1.008,0.487-0.494,0.847
		c0.238,0.167,0.486,0.233,0.776,0.233C20.142,71.277,20.144,70.299,19.511,70.299"/>
	<path fill="#C9A877" d="M22.109,69.203c0.099,0.054,0.157,0.137,0.174,0.25c0.167,0.607,1.112,0.35,0.945-0.261
		c-0.075-0.276-0.204-0.497-0.426-0.682C22.32,68.11,21.623,68.801,22.109,69.203"/>
	<path fill="#C9A877" d="M18.124,74.606c0.105-0.032,0.204-0.017,0.296,0.045c0.551,0.309,1.045-0.538,0.494-0.846
		c-0.252-0.141-0.499-0.208-0.79-0.179C17.502,73.689,17.496,74.671,18.124,74.606"/>
	<path fill="#C9A877" d="M37.049,70.648c0-0.11,0.04-0.202,0.121-0.274c0.382-0.502-0.469-0.991-0.846-0.495
		c-0.178,0.234-0.243,0.479-0.255,0.77C36.043,71.279,37.023,71.277,37.049,70.648"/>
	<path fill="#C9A877" d="M27.224,66.245c0.11,0.028,0.186,0.096,0.227,0.205c0.307,0.551,1.154,0.057,0.846-0.495
		c-0.138-0.249-0.32-0.431-0.578-0.556C27.154,65.125,26.656,65.971,27.224,66.245"/>
	<path fill="#EEA820" d="M28.952,77.049c-2.691,1.31-5.281,2.827-7.739,4.536c1.769,0.449,3.574,0.741,5.376,1.032
		c4.652,0.753,9.304,1.506,13.955,2.258c1.14-2.925,2.279-5.851,3.419-8.777c0.084-0.217,0.167-0.468,0.057-0.674
		c-0.151-0.283-0.549-0.286-0.868-0.251C38.3,75.704,33.804,76.519,28.952,77.049"/>
	<path fill="#FFEDD5" d="M32.211,81.965c0.089-0.07,0.187-0.089,0.293-0.057c0.629,0.05,0.625-0.931,0-0.98
		c-0.289-0.022-0.538,0.044-0.788,0.191C31.173,81.438,31.666,82.286,32.211,81.965"/>
	<path fill="#FFEDD5" d="M25.581,80.351c-0.025,0.109-0.089,0.189-0.191,0.24c-0.54,0.325-0.048,1.172,0.494,0.846
		c0.246-0.147,0.426-0.326,0.543-0.591C26.681,80.274,25.837,79.775,25.581,80.351"/>
	<path fill="#FFEDD5" d="M40.75,77.839c0.053,0.029,0.105,0.059,0.158,0.086c0.468,0.421,1.163-0.27,0.693-0.692
		c-0.264-0.237-0.501-0.33-0.851-0.373C40.125,76.783,40.13,77.764,40.75,77.839"/>
	<path fill="#FFEDD5" d="M36.079,81.776c-0.112,0.015-0.206-0.02-0.282-0.101c-0.517-0.361-1.008,0.487-0.494,0.846
		c0.238,0.168,0.486,0.234,0.776,0.234C36.709,82.755,36.711,81.776,36.079,81.776"/>
	<path fill="#FFEDD5" d="M33.688,78.275c0.099,0.054,0.157,0.137,0.174,0.25c0.167,0.607,1.112,0.35,0.945-0.261
		c-0.075-0.276-0.204-0.497-0.426-0.682C33.899,77.183,33.202,77.873,33.688,78.275"/>
	<path fill="#FFEDD5" d="M39.388,82.688c0.105-0.032,0.204-0.017,0.296,0.045c0.551,0.309,1.045-0.538,0.494-0.846
		c-0.252-0.142-0.499-0.208-0.79-0.179C38.768,81.771,38.76,82.752,39.388,82.688"/>
	<path fill="#FFEDD5" d="M29.846,79.856c0-0.11,0.04-0.202,0.121-0.274c0.382-0.502-0.469-0.991-0.846-0.495
		c-0.178,0.234-0.243,0.479-0.255,0.77C28.841,80.487,29.821,80.485,29.846,79.856"/>
	<path fill="#FFEDD5" d="M37.43,79.334c0.11,0.028,0.186,0.097,0.227,0.205c0.307,0.552,1.154,0.058,0.846-0.494
		c-0.138-0.249-0.32-0.432-0.578-0.557C37.36,78.215,36.862,79.06,37.43,79.334"/>
	<path fill="#D06728" d="M2.534,66.774c3.306,2.314,6.88,4.213,10.363,6.253c3.45,2.021,6.817,4.184,10.088,6.484
		c-5.576,2.45-11.417,4.3-17.388,5.502c-1.542-6.108-2.68-12.317-3.402-18.575"/>
	<path fill="#C9A877" d="M10.721,76.018c0.089-0.069,0.187-0.089,0.293-0.057c0.629,0.05,0.625-0.93,0-0.979
		c-0.289-0.023-0.538,0.044-0.788,0.19C9.683,75.491,10.176,76.339,10.721,76.018"/>
	<path fill="#C9A877" d="M18.319,78.709c-0.025,0.109-0.089,0.188-0.191,0.24c-0.54,0.324-0.048,1.172,0.494,0.846
		c0.246-0.148,0.426-0.327,0.543-0.591C19.419,78.632,18.575,78.133,18.319,78.709"/>
	<path fill="#C9A877" d="M6.262,79.745c0.053,0.029,0.105,0.059,0.158,0.086c0.468,0.421,1.163-0.27,0.693-0.692
		c-0.264-0.237-0.501-0.33-0.851-0.373C5.638,78.689,5.643,79.669,6.262,79.745"/>
	<path fill="#C9A877" d="M9.42,81.428c-0.112,0.016-0.206-0.019-0.282-0.1c-0.517-0.362-1.008,0.487-0.494,0.846
		c0.238,0.167,0.486,0.234,0.776,0.234C10.05,82.407,10.052,81.428,9.42,81.428"/>
	<path fill="#C9A877" d="M6.088,74.221c0.099,0.054,0.157,0.137,0.174,0.25c0.167,0.607,1.112,0.35,0.945-0.261
		c-0.075-0.276-0.204-0.497-0.426-0.682C6.299,73.128,5.602,73.818,6.088,74.221"/>
	<path fill="#C9A877" d="M13.358,81.139c0.105-0.032,0.204-0.018,0.296,0.045c0.551,0.308,1.045-0.538,0.494-0.847
		c-0.252-0.141-0.499-0.208-0.79-0.179C12.737,80.222,12.73,81.202,13.358,81.139"/>
	<path fill="#C9A877" d="M15.167,77.349c0-0.109,0.04-0.202,0.121-0.273c0.382-0.502-0.469-0.991-0.846-0.495
		c-0.178,0.233-0.243,0.478-0.255,0.769C14.161,77.979,15.141,77.978,15.167,77.349"/>
	<path fill="#C9A877" d="M4.398,70.771c0.11,0.028,0.186,0.096,0.227,0.205c0.307,0.551,1.154,0.057,0.846-0.495
		c-0.138-0.249-0.32-0.431-0.578-0.556C4.328,69.651,3.83,70.497,4.398,70.771"/>
</g>
</svg>
