<?xml version="1.0" encoding="utf-8"?>
<!-- Generator: Adobe Illustrator 16.0.2, SVG Export Plug-In . SVG Version: 6.00 Build 0)  -->
<!DOCTYPE svg PUBLIC "-//W3C//DTD SVG 1.1//EN" "http://www.w3.org/Graphics/SVG/1.1/DTD/svg11.dtd">
<svg version="1.1" id="Layer_1" xmlns="http://www.w3.org/2000/svg" xmlns:xlink="http://www.w3.org/1999/xlink" x="0px" y="0px"
	 width="56.827px" height="44.033px" viewBox="0 0 56.827 44.033" enable-background="new 0 0 56.827 44.033" xml:space="preserve">
<g>
	<path fill="#2C3A96" d="M53.54,6.938c-0.64,9.514-1.28,19.038-2.656,28.474c-0.247,1.688-0.518,3.375-0.811,5.056
		c-0.169,0.969-0.42,2.05-1.258,2.563c-0.509,0.313-1.134,0.345-1.729,0.368c-13.286,0.538-26.64,1.074-39.847-0.475
		c-0.332-0.039-0.7-0.099-0.903-0.364c-0.184-0.238-0.175-0.565-0.159-0.866c0.081-1.631,0.084-3.271-0.125-4.891
		c-0.219-1.69-0.667-3.341-0.934-5.024c-0.336-2.126-0.378-4.285-0.459-6.437c-0.224-5.9-0.748-11.805-1.982-17.579
		c-0.102-0.47-0.182-1.029,0.155-1.372c0.292-0.295,0.763-0.227,1.177-0.256C22.589,4.811,35.911,5.021,53.62,6.803"/>
	<path fill="#FFFFFF" d="M44.885,6.212c-0.797,11.139-1.064,22.315-0.8,33.479c0.032,1.355,0.072,2.715,0.275,4.055
		c-7.272,0.028-11.304,0.396-19.233,0.077c-4.075-0.164-10.785,0.799-14.682-0.41c-0.381-0.116-0.778-0.275-1-0.607
		c-0.19-0.287-0.213-0.652-0.229-0.997c-0.162-3.51-0.3-7.021-0.414-10.533c-0.051-1.565-0.096-3.135,0.02-4.696
		c0.298-4.042,1.672-8.053,1.106-12.065c-0.315-2.241-1.229-4.397-1.25-6.661C8.673,7.242,8.755,6.58,9.176,6.141
		c0.476-0.499,1.233-0.566,1.919-0.598c7.357-0.354,14.726-0.358,22.089-0.363c2.11-0.001,4.229-0.002,6.318,0.299
		c1.68,0.242,4.131,0.197,5.712,0.818"/>
	<path fill="#FFF6DA" d="M30.541,23.015c0.473-0.408,0.945-0.816,1.418-1.225c0.161-0.14,0.328-0.281,0.53-0.352
		c0.169-0.059,0.352-0.062,0.53-0.063c1.385-0.019,2.771-0.037,4.157-0.055c0.119-0.002,0.249,0,0.34,0.077
		c0.101,0.085,0.118,0.23,0.128,0.362c0.168,2.297,0.046,4.615-0.361,6.883c-0.077,0.423-0.188,0.887-0.54,1.135
		c-0.249,0.176-0.568,0.207-0.871,0.229c-2.375,0.178-4.759,0.215-7.136,0.11c-0.107-0.005-0.236-0.023-0.278-0.123
		c-0.028-0.064-0.005-0.14,0.02-0.207c0.789-2.13,2.498-4.077,2.246-6.335"/>
	<path fill="#F4D49D" d="M23.905,24.08c1.084-0.752,2.168-1.505,3.251-2.257c0.239-0.165,0.487-0.335,0.772-0.386
		c0.347-0.063,0.697,0.057,1.032,0.166c1.521,0.495,3.135,0.593,4.698,0.901c0.878,0.174-0.313,1.662-0.57,2.47l-1.586,4.961
		c-0.226,0.707-0.634,1.554-1.376,1.546c-0.21-0.002-0.41-0.08-0.606-0.156c-2-0.78-4-1.559-5.999-2.339
		c-0.298-0.116-0.61-0.242-0.808-0.494c-0.183-0.235-0.237-0.543-0.284-0.838c-0.107-0.664-0.206-1.348-0.056-2.003
		c0.151-0.656,0.612-1.284,1.269-1.433"/>
	<path fill="#FFF6DA" d="M19.956,24.61c2.669,0.154,7.259-0.001,7.904,0.614c0.544,0.52-1.357,3.158-2.839,4.854
		c-0.283,0.324-0.838,1.161-0.965,1.232c-0.124,0.07-0.273,0.073-0.416,0.075c-2.731,0.033-7.395-0.04-8.192-0.051
		C12.749,31.296,18.453,26.852,19.956,24.61"/>
	<path fill="#2C3A96" d="M2.438,3.858c0.354-1.14,0.765-2.362,1.734-3.058C5.324-0.023,6.881,0.149,8.29,0.299
		c4.267,0.454,8.572,0.362,12.863,0.271c8.723-0.186,17.445-0.372,26.169-0.558c1.491-0.032,3.044-0.051,4.398,0.575
		s2.286,2.769,1.952,4.223c-3.292,0.348-6.463-0.281-9.761-0.561c-1.424-0.119-2.842-0.299-4.267-0.413
		c-1.965-0.158-3.937-0.193-5.906-0.229c-6.373-0.113-12.747-0.227-19.12-0.341c-3.454-0.062-6.972,0.64-10.425,0.697
		C3.47,3.977,2.735,3.262,2.217,3.768"/>
	<path fill="#416FB6" d="M52.096,6.791c1.468,0.473,2.982,0.797,4.515,0.966c0.518-0.849,0.045-2.021-0.762-2.602
		c-0.806-0.581-1.839-0.723-2.827-0.835C39.73,2.795,26.307,2.98,12.929,3.169C9.792,3.214,6.652,3.258,3.52,3.462
		C2.645,3.519,1.731,3.601,0.99,4.07C0.25,4.54-0.244,5.521,0.125,6.317c0.773,0.212,1.586,0.228,2.389,0.236
		C19.155,6.749,32.21,6.819,52.385,7.046"/>
</g>
</svg>
