<?xml version="1.0" encoding="utf-8"?>
<!-- Generator: Adobe Illustrator 16.0.2, SVG Export Plug-In . SVG Version: 6.00 Build 0)  -->
<!DOCTYPE svg PUBLIC "-//W3C//DTD SVG 1.1//EN" "http://www.w3.org/Graphics/SVG/1.1/DTD/svg11.dtd">
<svg version="1.1" id="Layer_1" xmlns="http://www.w3.org/2000/svg" xmlns:xlink="http://www.w3.org/1999/xlink" x="0px" y="0px"
	 width="98.667px" height="31px" viewBox="0 0 98.667 31" enable-background="new 0 0 98.667 31" xml:space="preserve">
<g>
	<path fill="#D06728" d="M96.616,8.412c1.432,1.074,0.014,3.306-1.172,4.648c-1.184,1.342-2.986,1.925-4.697,2.45
		c-2.533,0.777-5.064,1.554-7.596,2.331c-4.041,1.24-8.23,0.753-12.115,2.415c-12.514,5.356-18.902,4.294-30.531,7.528
		c-6.924,1.925-14.975,0.923-21.178-1.89c-4.357-1.977-8.461-3.521-12.242-6.453c-1.723-1.337-3.285-2.902-5.162-4.014
		c3.82-4.469,7.869-9.104,13.342-11.251c1.996-0.783,4.115-1.204,6.236-1.517c10.26-1.515,20.703-0.593,31.033,0.331
		c1.818,0.163,3.637,0.326,5.436,0.639c1.129,0.196,2.262,0.452,3.404,0.405c1.83-0.077,3.682-0.923,5.432-0.388
		c0.744,0.227,1.395,0.688,2.119,0.97c1.951,0.759,4.127,0.14,6.199-0.163c5.402-0.791,10.854,0.646,16.123,2.071
		c1.486,0.402,2.971,0.804,4.455,1.213"/>
	<path fill="#F4D49D" d="M86.454,9.317c0.506,0.086,0.865,0.667,0.715,1.157s-0.771,0.771-1.24,0.559
		c-0.271-0.504-1.49-0.482-0.809-1.712c0.387-0.147,1.24-0.03,1.582,0.202"/>
	<path fill="#F4D49D" d="M76.175,14.27c0.504,0.086,0.863,0.667,0.713,1.157c-0.15,0.49-0.771,0.771-1.238,0.559
		c-0.271-0.504-1.492-0.482-0.811-1.712c0.387-0.147,1.24-0.03,1.584,0.202"/>
	<path fill="#F4D49D" d="M45.517,16.21l-0.23,3.197c-0.047,0.651-0.111,1.35-0.533,1.848c-0.422,0.498-1.338,0.614-1.676,0.055
		c-0.129-0.211-0.148-0.468-0.162-0.715c-0.051-0.976-0.043-1.983,0.318-2.892c0.359-0.91,1.135-1.71,2.104-1.843"/>
	<path fill="#F4D49D" d="M36.979,20.621c0.52,0.369,0.135,0.954-0.016,1.574c-0.574,1.076-1.518,0.861-2.473,0.232
		c-0.17-0.822,0.281-1.731,1.037-2.097c0.352-0.17,0.781-0.224,1.131-0.048L36.979,20.621z"/>
	<path fill="#F4D49D" d="M26.321,8.578c0.52,0.369,0.135,0.954-0.016,1.574c-0.574,1.076-1.52,0.861-2.473,0.232
		c-0.17-0.822,0.279-1.731,1.035-2.097c0.354-0.17,0.783-0.224,1.133-0.048L26.321,8.578z"/>
	<path fill="#F4D49D" d="M29.321,16.068c0.52,0.369,0.135,0.954-0.016,1.574c-0.574,1.076-1.518,0.861-2.473,0.232
		c-0.17-0.822,0.279-1.731,1.035-2.097c0.354-0.17,0.783-0.224,1.133-0.048L29.321,16.068z"/>
	<path fill="#F4D49D" d="M5.382,14.086c0.52,0.369,0.408,0.628,0.258,1.248c-0.574,1.076-1.422,1.732-3.717,0.093
		c0.082-0.454,0.988-0.962,1.713-1.984c0.225-0.32,1.033-0.236,1.248,0.108L5.382,14.086z"/>
	<path fill="#F4D49D" d="M19.815,14.714c-0.932-0.115-1.754-0.071-2.289,0.701c-0.234,0.342-0.295,0.779-0.258,1.193
		c0.051,0.559,0.281,1.116,0.703,1.486c0.422,0.37,1.049,0.524,1.568,0.311c0.664-0.272,0.998-1.059,0.963-1.777
		c-0.035-0.717-0.053-0.971-0.369-1.616L19.815,14.714z"/>
	<path fill="#F4D49D" d="M44.21,7.738c-0.475-0.018-0.316,0.289-0.758,0.473c-0.439,0.183-0.809,0.625-0.752,1.097
		c0.051,0.403,0.395,0.719,0.777,0.855c0.383,0.135,0.799,0.124,1.205,0.108c0.178-0.007,0.363-0.017,0.521-0.102
		c0.385-0.208,0.422-0.753,0.301-1.173c-0.123-0.42-0.143-0.854-0.383-0.975c-0.209-0.002-0.443-0.185-0.676-0.29L44.21,7.738z"/>
	<path fill="#F4D49D" d="M54.562,14.502c0.514,0.764,0.686,1.7,0.846,2.606c0.131,0.737,0.256,1.524-0.037,2.213
		s-1.182,1.175-1.813,0.775c-0.314-0.198-0.488-0.555-0.611-0.906c-0.314-0.888-0.41-1.852-0.277-2.785
		c0.068-0.484,0.207-0.976,0.521-1.35c0.314-0.375,0.836-0.605,1.303-0.462c0.469,0.143,0.779,0.733,0.541,1.159"/>
	<path fill="#F4D49D" d="M64.884,11.439c0.514,0.764,0.688,1.7,0.848,2.606c0.131,0.737,0.256,1.524-0.037,2.213
		s-1.184,1.175-1.816,0.775c-0.313-0.198-0.486-0.555-0.609-0.906c-0.314-0.888-0.41-1.852-0.277-2.785
		c0.068-0.484,0.207-0.976,0.521-1.35c0.314-0.375,0.836-0.605,1.305-0.462c0.467,0.143,0.777,0.733,0.539,1.159"/>
</g>
</svg>
