<?xml version="1.0" encoding="utf-8"?>
<!-- Generator: Adobe Illustrator 16.0.2, SVG Export Plug-In . SVG Version: 6.00 Build 0)  -->
<!DOCTYPE svg PUBLIC "-//W3C//DTD SVG 1.1//EN" "http://www.w3.org/Graphics/SVG/1.1/DTD/svg11.dtd">
<svg version="1.1" id="Layer_1" xmlns="http://www.w3.org/2000/svg" xmlns:xlink="http://www.w3.org/1999/xlink" x="0px" y="0px"
	 width="66.238px" height="119.673px" viewBox="0 0 66.238 119.673" enable-background="new 0 0 66.238 119.673"
	 xml:space="preserve">
<g>
	<path fill="#079247" d="M2.385,0.136c5.34-0.327,10.695-0.003,16.035,0.32c7.889,0.478,15.775,0.956,23.663,1.434
		C47.1,2.194,52.116,2.499,57.131,2.802c0.349,0.021,0.726,0.054,0.986,0.285c0.316,0.28,0.357,0.751,0.373,1.174
		c0.361,10.271,2.189,17.561,2.835,29.585c0.192,3.579,1.336,7.774,1.928,11.311c1.068,6.376-1.348,12.756-2.202,19.165
		c-0.566,4.249-0.443,8.557-0.319,12.842c0.358,12.386,0.717,24.771,1.074,37.156c0.021,0.722,0.033,1.482-0.312,2.116
		c-0.573,1.054-1.898,1.394-3.08,1.597c-4.13,0.712-8.327,1.037-12.517,0.971c-3.677-0.058-7.341-0.416-10.999-0.773
		c-11.146-1.09-22.292-2.18-33.438-3.27c-0.36-0.035-0.748-0.081-1.021-0.32c-0.365-0.318-0.402-0.863-0.411-1.348
		c-0.147-8.253,0.292-16.503,0.73-24.745c0.205-3.866,0.411-7.732,0.617-11.598c0.336-6.325-0.844-12.464-0.069-18.751
		c0.631-5.111-0.082-11.003,0-16.151c0.23-14.301-2.83-28.016,0.242-41.985"/>
	<path fill="#046937" d="M63.733,50.037c2.643,19.983,1.094,40.277,2.426,60.391c0.12,1.82,0.234,3.774-0.712,5.335
		c-0.947,1.56-3.414,2.295-4.604,0.912c-0.329-8.279-0.656-16.559-0.985-24.836c-0.527-13.284-0.38-25.044,3-37.901
		c0.256-0.973,0.089-3.88,1.09-3.984"/>
	<path fill="#EEA820" d="M18.28,68.833c1.547-1.175,4.127-2.02,6.11-1.771c1.709,0.215,4.083,1.813,4.31,3.752
		c0.118,1.009-0.409,2.688-0.738,3.676c-0.441,1.329-1.503,3.566-3.193,3.714c-1.381,0.12-2.337-1.225-3.213-2.043
		c-0.799-0.745-1.831-1.514-2.387-2.47c-0.9-1.553-0.508-3.421-0.203-5.051c0.168-0.895-1.203-1.278-1.371-0.379
		c-0.325,1.741-0.672,3.621-0.032,5.333c0.702,1.881,2.602,3.226,4.023,4.54c1.021,0.943,1.765,1.701,3.217,1.493
		c1.665-0.239,3.022-1.587,3.8-3.003c0.896-1.634,1.534-3.935,1.52-5.811c-0.012-1.705-1.336-3.027-2.604-4.024
		c-2.66-2.092-7.421-1.112-9.956,0.815C16.843,68.151,17.549,69.386,18.28,68.833"/>
	<path fill="#EEA820" d="M47.497,77.636c-2.642,1.701-4.55,6.233-2.618,9.106c1.796,2.671,6.484,4.453,9.415,2.821
		c2.609-1.454,3.682-6.057,1.81-8.438c-1.908-2.43-6.909-4.124-9.634-2.428c-0.775,0.482-0.062,1.714,0.718,1.229
		c1.945-1.212,4.959,0.031,6.714,1.164c2.447,1.58,2.099,6.021-0.545,7.317c-2.142,1.05-5.409-0.329-6.921-2.029
		c-1.959-2.204-0.36-6.137,1.779-7.515C48.981,78.371,48.269,77.138,47.497,77.636"/>
	<path fill="#EEA820" d="M30.442,87.227c-1.707-0.485-4.221-1.849-5.966-1.059c-1.43,0.647-2.198,2.57-2.54,3.981
		c-0.831,3.423-1.087,8.005,2.949,9.248c1.617,0.497,4.422,0.779,5.934-0.162c1.359-0.846,1.976-2.813,2.499-4.235
		c1.222-3.317,0.714-7.813-3.485-8.338c-0.906-0.114-0.898,1.31,0,1.422c4.193,0.525,2.558,5.915,1.386,8.26
		c-0.744,1.489-1.247,1.932-2.987,1.972c-1.293,0.029-2.857,0.018-3.969-0.729c-2.089-1.406-1.453-5.722-0.764-7.757
		c0.648-1.922,1.418-2.455,3.354-2.143c1.07,0.173,2.167,0.615,3.211,0.912C30.946,88.849,31.322,87.477,30.442,87.227"/>
	<path fill="#EEA820" d="M56.227,97.727c-1.055-2.817-3.72-6.013-6.902-3.755c-2.748,1.95-7.06,5.675-3.756,9.038
		c2.403,2.448,7.309,3.629,10.229,1.518c2.669-1.929,2.356-5.543-0.492-7.027c-0.812-0.423-1.531,0.805-0.718,1.228
		c3.031,1.58,1.329,4.871-1.372,5.391c-1.953,0.376-4.427-0.437-5.986-1.589c-2.869-2.12-0.406-4.41,1.387-6.06
		c0.836-0.768,2.088-1.858,3.327-1.788c1.593,0.089,2.449,2.187,2.912,3.423C55.173,98.956,56.549,98.587,56.227,97.727"/>
	<path fill="#EEA820" d="M41.411,105.454c-0.574-1.756-0.41-3.743-2.073-4.908c-1.578-1.104-3.852-0.965-5.668-0.77
		c-4.409,0.473-6.87,3.103-6.725,7.548c0.118,3.646,2.134,7.177,6.197,6.975c4.681-0.234,7.001-4.64,8.149-8.618
		c0.255-0.881-1.117-1.257-1.371-0.378c-0.775,2.684-1.939,5.606-4.571,6.969c-3.911,2.024-6.84-1.174-6.981-4.947
		c-0.143-3.778,2.059-5.795,5.699-6.157c1.15-0.115,2.646-0.255,3.716,0.226c1.739,0.781,1.73,2.834,2.256,4.439
		C40.323,106.698,41.697,106.328,41.411,105.454"/>
	<path fill="#EEA820" d="M53.813,72.314c-2.177,3.366-7.162,2.49-8.024-1.49c-0.586-2.705,1.897-4.806,3.517-6.742
		c0.984-1.179,1.747-1.679,3.264-0.771c0.886,0.53,1.653,1.532,2.084,2.442c1.262,2.665,0.091,5.633-2.536,6.865
		c-0.828,0.39-0.107,1.615,0.718,1.229c3.468-1.628,4.732-5.787,2.872-9.125c-0.802-1.437-2.256-2.899-3.852-3.412
		c-1.938-0.624-2.712,0.745-3.874,2.146c-1.188,1.437-3.559,3.524-3.903,5.461c-0.271,1.519,0.661,3.717,1.601,4.876
		c2.615,3.228,7.227,2.545,9.363-0.76C55.541,72.261,54.309,71.547,53.813,72.314"/>
	<path fill="#EEA820" d="M18.725,86.539c-2.22,3.433-7.097,2.407-8.024-1.489c-0.518-2.174,2.022-5.693,3.834-7.123
		c1.021-0.808,1.702-1.145,2.946-0.392c1.236,0.749,2.171,2.228,2.493,3.616c0.494,2.132,0.271,5.193-1.883,6.28
		c-0.817,0.413-0.098,1.641,0.718,1.229c3.173-1.604,3.436-6.515,1.984-9.4c-0.787-1.564-2.267-3.089-3.941-3.689
		c-1.813-0.649-2.511,0.378-3.641,1.73c-1.269,1.517-3.753,3.719-4.209,5.746c-0.348,1.539,0.654,3.796,1.588,4.97
		c2.588,3.26,7.244,2.518,9.363-0.759C20.453,86.486,19.221,85.772,18.725,86.539"/>
	<path fill="#EEA820" d="M38.208,78.612c3.96,1.68,3.663,6.338-0.031,8.242c-2.304,1.188-4.818-0.978-6.814-2.117
		c-1.261-0.722-2.318-1.056-1.952-2.688c0.223-0.988,1.059-2.024,1.786-2.671c1.852-1.642,6.283-2.699,8.039-0.344
		c0.541,0.726,1.777,0.017,1.229-0.718c-4.74-6.356-16.879,3.363-11.104,6.901c1.927,1.182,4.758,3.402,7.068,3.604
		c1.594,0.138,3.631-1.183,4.665-2.305c2.786-3.02,1.445-7.601-2.168-9.134C38.093,77.03,37.367,78.254,38.208,78.612"/>
	<path fill="#EEA820" d="M18.293,97.578c3.96,1.681,3.663,6.338-0.031,8.243c-2.304,1.188-4.818-0.978-6.814-2.118
		c-1.261-0.721-2.318-1.055-1.951-2.687c0.222-0.988,1.058-2.025,1.785-2.671c1.852-1.643,6.283-2.699,8.039-0.345
		c0.541,0.727,1.777,0.018,1.229-0.718c-4.74-6.355-16.879,3.364-11.104,6.902c1.928,1.181,4.759,3.402,7.068,3.603
		c1.594,0.139,3.631-1.182,4.665-2.304c2.786-3.02,1.446-7.601-2.168-9.134C18.178,95.996,17.453,97.221,18.293,97.578"/>
	<path fill="#EEA820" d="M40.106,118.252c-0.246-3.263,1.501-6.798,5.15-6.951c1.657-0.07,3.205,0.666,3.96,2.185
		c0.723,1.456,0.682,5.322-2.204,4.742c-0.895-0.18-1.276,1.191-0.378,1.372c2.37,0.476,4.172-1.43,4.413-3.708
		c0.229-2.16-0.843-4.318-2.77-5.345c-5.28-2.816-9.974,2.671-9.594,7.705C38.752,119.159,40.175,119.167,40.106,118.252"/>
	<path fill="#EEA820" d="M60.935,32.917c-2.708-0.384-6.018-1.215-8.546,0.275c-2.021,1.191-2.884,3.644-2.489,5.896
		c0.771,4.407,8.686,10.47,11.829,4.858c0.446-0.8-0.781-1.518-1.229-0.718c-1.505,2.689-5.138,1.071-6.795-0.425
		c-1.459-1.318-2.611-3.182-2.47-5.211c0.342-4.917,6.083-3.763,9.322-3.303C61.452,34.417,61.838,33.045,60.935,32.917"/>
</g>
</svg>
