<?xml version="1.0" encoding="utf-8"?>
<!-- Generator: Adobe Illustrator 16.0.2, SVG Export Plug-In . SVG Version: 6.00 Build 0)  -->
<!DOCTYPE svg PUBLIC "-//W3C//DTD SVG 1.1//EN" "http://www.w3.org/Graphics/SVG/1.1/DTD/svg11.dtd">
<svg version="1.1" id="Layer_1" xmlns="http://www.w3.org/2000/svg" xmlns:xlink="http://www.w3.org/1999/xlink" x="0px" y="0px"
	 width="145.387px" height="37.693px" viewBox="0 0 145.387 37.693" enable-background="new 0 0 145.387 37.693"
	 xml:space="preserve">
<g>
	<path fill="#9BC53D" d="M141.578,24.89c-0.996,3.491-1.241,6.31-2.755,9.578c-0.342,0.736-1.771,1.96-2.455,2.328
		c-0.514,0.277-3.039,0.267-3.614,0.263c-1.925-0.015-1.925-0.015-3.849-0.028c-1.534-0.01-3.146-0.042-4.479-0.859
		c-1.334-0.816-1.314-5.967-2.534-7.046c-0.781-0.69-3.821-0.373-4.938,0.487c-1.401,1.079-0.958,7.479-3.451,7.479
		c-1.03,0-5.811-0.023-6.825,0c-3.514,0.082-4.132,0.861-6.508-1.729c-1.423-1.551-1.144-5.096-3.069-5.488
		c-1.039-0.212-4.043-0.394-4.795,3.193c-0.188,0.901-0.479,3.457-1.161,4.029c-0.573,0.48-1.364,0.483-2.092,0.466
		c-3.2-0.079-6.4-0.158-9.601-0.238c-0.987-0.023-2.081-0.096-2.774-0.853c-0.611-0.668-0.734-3.262-1.173-4.073
		c-0.957-1.771-3.587-2.09-4.884-0.591c-0.807,0.931-0.541,2.826-1.359,3.745c-0.921,1.034-2.345,1.29-3.666,1.461
		c-3.12,0.402-6.783,0.122-9.926,0.207c-0.65,0.017-1.328,0.021-1.919-0.273c-2.216-1.106,0.375-5.491-4.713-5.496
		c-2.453-0.003-2.034,3.663-3.153,4.677c-1.063,0.966-2.572,1.034-3.963,1.058c-3.123,0.053-6.247,0.104-9.371,0.157
		c-1.888,0.031-4.102-0.108-5.161-1.795c-0.945-1.507,0.784-5.405-2.436-4.756c-0.938,0.19-2.117-0.787-2.08,1.275
		c0.02,1.029-0.111,2.114-0.597,3.003c-0.702,1.287-0.733,1.33-1.936,2.021c-1.047,0.602-3.453,0.253-4.821,0.477
		c-1.52,0.249-3.988,0.085-5.511-0.139c-2.31-0.34-3.397-3.192-4.043-5.606c-0.947-3.549-1.896-7.098-2.844-10.646
		c2.551-0.237,5.118-0.012,7.677,0.097c2.401,0.101,4.807,0.097,7.209,0.093c9.708-0.015,19.87-1.193,29.578-1.209
		c1.606-0.003,0.992-0.361,2.599-0.363c2.515-0.004,6.797,1.514,9.313,1.51c11.133-0.018,22.266-0.034,33.4-0.052
		c0.717-0.002,1.463-0.009,2.108-0.348c0.504-0.265,0.907-0.713,1.393-1.017c1.879-1.173,4.183,0.089,6.258,0.773
		c1.993,0.658,4.102,0.758,6.185,0.824c11.14,0.349,22.301-0.164,33.37-1.536C142.514,20.872,142.362,22.396,141.578,24.89"/>
	<path fill="#44612D" d="M136.28,1.437c5.527,1.759,7.59,8.352,8.846,14.015c0.201,0.913,0.402,1.877,0.124,2.77
		c-0.592,1.89-2.911,2.515-4.873,2.776c-11.237,1.503-22.636,0.949-33.958,0.393c-1.614-0.08-3.244-0.161-4.8-0.603
		c-1.418-0.401-2.83-1.104-4.287-0.892c-1.177,0.171-2.177,0.914-3.255,1.414c-1.979,0.917-4.229,1.01-6.41,1.062
		c-11.258,0.266-22.529-0.155-33.735-1.26c-1.557-0.153-1.836-0.954-3.747-1.317c-0.607-0.115-1.585,0.232-3.351,1.465
		c-1.009,0.703-2.45,0.181-3.679,0.205C31.441,21.7,23.271,21.76,11.559,21.504c-2.222-0.048-6.788,1.164-8.438-0.327
		c-1.527-1.382-3.396-5.07-3.087-7.107c0.311-2.038,1.276-3.908,2.229-5.736C3.502,5.953,4.88,3.43,7.262,2.196
		c1.77-0.916,3.843-0.981,5.836-1.011c5.689-0.086,11.381-0.051,17.071-0.016c8.202,0.05,16.405,0.101,24.609,0.151
		c16.018,0.099,32.035,0.197,48.054,0.296c11.125,0.068,22.252,0.137,33.378,0.205"/>
	<path fill="#FFF6DA" d="M121.209,18.599c0.112-3.151,0.232-6.352,1.226-9.345c0.992-2.992,2.995-5.801,5.904-7.017
		c0.939-0.392,1.942-0.609,2.95-0.753c1.505-0.216,3.123-0.253,4.453,0.485c0.801,0.444,1.434,1.137,2.006,1.853
		c2.986,3.734,4.71,8.46,4.829,13.24c0.01,0.415,0.002,0.857-0.223,1.207c-0.294,0.46-0.872,0.633-1.404,0.757
		c-3.932,0.915-8.051,1.017-12.023,0.294C126.403,18.86,123.589,17.64,121.209,18.599"/>
	<path fill="#FFF6DA" d="M74.385,19.785c0.22-3.26,0.279-6.558,1.06-9.73c0.78-3.172,2.383-6.278,5.069-8.138
		c2.686-1.86,6.585-2.168,9.15-0.144c0.764,0.604,1.379,1.376,1.937,2.174c2.886,4.128,4.413,9.191,4.288,14.227
		c-0.004,0.179-0.011,0.361-0.079,0.526c-0.115,0.284-0.386,0.471-0.65,0.625c-1.781,1.045-3.864,1.442-5.917,1.668
		C84.193,21.549,79.294,21.09,74.385,19.785"/>
	<path fill="#FFF6DA" d="M3.844,19.893c0.248-3.131,0.18-6.295,0.702-9.392c0.522-3.098,1.716-6.209,4.049-8.313
		c2.332-2.104,5.979-2.941,8.709-1.385c0.893,0.509,1.642,1.233,2.38,1.95c0.689,0.669,1.381,1.34,1.982,2.089
		c3.112,3.878,3.427,9.255,3.248,14.225c-0.016,0.408-0.05,0.858-0.336,1.149c-0.308,0.312-0.794,0.333-1.23,0.335
		c-5.535,0.03-11.071,0.06-16.606,0.088C5.548,20.645,4.544,20.861,3.844,19.893"/>
	<path fill="#FFF6DA" d="M51.9,19.083c-0.094-2.378-0.186-4.773,0.176-7.126c0.361-2.353,1.208-4.687,2.789-6.466
		c0.735-0.828,1.613-1.519,2.536-2.131c1.278-0.849,2.7-1.57,4.23-1.691c2.25-0.178,4.444,0.986,6.01,2.613
		c1.564,1.627,2.601,3.68,3.568,5.719c1.256,2.645,2.467,5.498,2.082,8.399c-0.034,0.257-0.085,0.523-0.245,0.727
		c-0.196,0.251-0.521,0.36-0.829,0.445c-1.589,0.438-3.248,0.577-4.896,0.585c-1.689,0.009-3.376-0.116-5.062-0.242
		c-3.546-0.265-7.091-0.529-10.636-0.794"/>
	<path fill="#FFF6DA" d="M27.795,20.242c0.235-2.633,0.47-5.267,0.704-7.9c0.118-1.323,0.238-2.657,0.617-3.931
		c1.082-3.64,4.415-6.505,8.177-7.029c1.111-0.155,2.271-0.115,3.314,0.297c1.339,0.53,2.367,1.62,3.305,2.714
		c1.708,1.994,3.296,4.175,4.036,6.695c0.706,2.406,0.595,4.966,0.478,7.473c-0.01,0.198-0.022,0.411-0.143,0.571
		c-0.155,0.21-0.44,0.268-0.698,0.308c-6.521,1.01-13.15,1.312-19.736,0.899"/>
	<path fill="#FFF6DA" d="M98.299,18.487c0.292-2.959,0.592-5.954,1.605-8.749c1.015-2.795,2.835-5.414,5.48-6.771
		c0.838-0.429,1.74-0.724,2.657-0.933c1.802-0.409,3.756-0.475,5.435,0.295c1.93,0.885,3.234,2.74,4.169,4.646
		c1.57,3.201,2.36,6.781,2.281,10.345c-0.014,0.655-0.076,1.358-0.494,1.863c-0.469,0.565-1.257,0.729-1.984,0.838
		c-5.299,0.791-10.758,0.496-15.941-0.859C100.315,18.851,99.528,18.42,98.299,18.487"/>
</g>
</svg>
