<?xml version="1.0" encoding="utf-8"?>
<!-- Generator: Adobe Illustrator 16.0.2, SVG Export Plug-In . SVG Version: 6.00 Build 0)  -->
<!DOCTYPE svg PUBLIC "-//W3C//DTD SVG 1.1//EN" "http://www.w3.org/Graphics/SVG/1.1/DTD/svg11.dtd">
<svg version="1.1" id="Layer_1" xmlns="http://www.w3.org/2000/svg" xmlns:xlink="http://www.w3.org/1999/xlink" x="0px" y="0px"
	 width="70.649px" height="117.806px" viewBox="0 0 70.649 117.806" enable-background="new 0 0 70.649 117.806"
	 xml:space="preserve">
<g>
	<path fill="#EC2527" d="M1.658,2.014c5.318-0.576,10.639-1.45,15.988-1.376l23.703,0.326c5.025,0.069,14.742-1.03,19.767-0.961
		c0.349,0.005,0.727,0.02,0.999,0.238c0.33,0.265,0.393,0.734,0.427,1.155c0.842,10.244-1.684,18.609-0.477,30.589
		c0.358,3.567,1.696,7.704,2.454,11.208c1.364,6.319-0.75,12.805-1.305,19.247c-0.367,4.271-0.044,8.568,0.281,12.844
		c0.936,12.355,1.873,24.71,2.811,37.065c0.054,0.72,0.102,1.479-0.214,2.129c-0.522,1.078-1.832,1.479-3.002,1.737
		c-4.093,0.904-8.27,1.426-12.459,1.556c-3.674,0.113-7.351-0.072-11.022-0.26c-11.186-0.567-22.369-1.135-33.555-1.702
		c-0.361-0.019-0.75-0.047-1.034-0.272c-0.38-0.302-0.442-0.844-0.474-1.328c-0.531-8.235-0.479-16.498-0.427-24.752
		c0.025-3.871,0.05-7.742,0.075-11.614c0.04-6.334-1.425-12.41-0.945-18.727c0.391-5.135-0.597-10.987-0.755-16.134
		C2.056,28.686-1.596,16.076,0.82,1.979"/>
	<path fill="#7F1B29" d="M65.225,48.046c3.574,19.838,2.976,40.183,5.245,60.212c0.205,1.813,0.41,3.76-0.462,5.361
		c-0.872,1.603-3.303,2.452-4.556,1.126c-0.715-8.254-1.43-16.509-2.145-24.763c-1.146-13.244-1.55-24.999,1.225-38
		c0.211-0.984-0.092-3.879,0.903-4.03"/>
	<path fill="#EEA820" d="M25.207,60.445c0.693-0.665,1.388-1.33,2.083-1.995c0.469,0.122,0.937,0.244,1.405,0.366
		c0.66,0.336,1.232,1.034,1.566,1.679c0.617,1.188,0.689,2.616,0.651,3.927c-0.048,1.598-0.77,3.357-2.335,3.968
		c-1.521,0.596-3.281,0.065-4.484-0.921c-1.006-0.823-1.657-1.854-2.122-3.055c-0.484-1.248-0.499-1.093,0.447-2.384
		c1.057-1.444,0.778-1.204,1.961-0.504c2.098,1.243,4.196,2.485,6.294,3.729c0.716,0.425,1.366-0.69,0.652-1.114
		c-1.481-0.878-2.963-1.755-4.443-2.632c-1.084-0.642-2.413-1.735-3.627-2.097c-1.651-0.491-2.964,0.604-3.13,2.29
		c-0.395,4.009,3.401,8.57,7.525,8.192c2.043-0.188,3.882-1.099,4.36-3.172c0.486-2.109,0.388-4.929-0.635-6.879
		c-1.717-3.27-7.04-3.774-7.461,0.602C23.836,61.271,25.127,61.266,25.207,60.445"/>
	<path fill="#EEA820" d="M24.251,59.59c0.102,2.76,0.202,5.519,0.305,8.277c0.03,0.828,1.321,0.832,1.29,0
		c-0.102-2.759-0.203-5.518-0.304-8.277C25.511,58.763,24.22,58.758,24.251,59.59"/>
	<path fill="#EEA820" d="M30.188,74.856c0.693-0.665,1.388-1.33,2.083-1.995c0.468,0.122,0.937,0.244,1.405,0.366
		c0.66,0.336,1.232,1.034,1.566,1.679c0.617,1.188,0.688,2.616,0.651,3.927c-0.048,1.597-0.77,3.357-2.336,3.968
		c-1.521,0.596-3.28,0.065-4.483-0.921c-1.006-0.824-1.657-1.854-2.122-3.055c-0.484-1.248-0.499-1.093,0.447-2.384
		c1.057-1.444,0.778-1.204,1.961-0.504c2.098,1.242,4.195,2.485,6.294,3.729c0.716,0.425,1.366-0.69,0.65-1.114
		c-1.479-0.878-2.961-1.755-4.441-2.632c-1.084-0.642-2.413-1.735-3.627-2.097c-1.651-0.491-2.964,0.604-3.13,2.29
		c-0.395,4.009,3.401,8.57,7.525,8.191c2.043-0.188,3.882-1.098,4.36-3.171c0.485-2.109,0.388-4.929-0.635-6.879
		c-1.718-3.27-7.04-3.773-7.461,0.602C28.818,75.683,30.109,75.677,30.188,74.856"/>
	<path fill="#EEA820" d="M29.232,74.001c0.102,2.76,0.203,5.519,0.306,8.277c0.03,0.828,1.321,0.832,1.29,0
		c-0.102-2.759-0.203-5.518-0.305-8.277C30.493,73.174,29.202,73.169,29.232,74.001"/>
	<path fill="#EEA820" d="M43.02,72.445c0.04-0.595,0.084-1.479,0.457-1.98c1.316-1.771,2.338-0.593,3.097,0.286
		c0.711,0.826,1.438,1.891,1.761,2.932c0.358,1.158,0.245,2.824-0.39,3.872c-0.768,1.271-2.488,1.308-3.88,0.993
		c-1.398-0.317-2.23-1.318-2.881-2.525c-0.448-0.832-0.85-1.393-0.363-2.27c0.073-0.778,0.397-0.935,0.975-0.468
		c0.335,0.076,0.638,0.217,0.909,0.419c1.983,1.075,3.897,2.146,5.971,3.063c0.753,0.332,1.411-0.778,0.652-1.115
		c-1.303-0.574-2.609-1.146-3.865-1.816c-1.018-0.542-2.006-1.374-3.077-1.793c-1.266-0.495-2.948-0.309-3.295,1.262
		c-0.347,1.575,1.09,3.979,2.117,5.06c1.487,1.571,3.93,1.879,5.986,1.494c1.683-0.313,2.245-2.166,2.512-3.667
		c0.388-2.189-0.438-3.977-1.712-5.711c-0.879-1.193-1.991-2.429-3.61-2.148c-1.962,0.34-2.538,2.407-2.654,4.113
		C41.673,73.274,42.964,73.271,43.02,72.445"/>
	<path fill="#EEA820" d="M44.062,78.564c-0.248-1.216-0.467-2.416-0.497-3.659c-0.023-0.943-0.028-1.846-0.285-2.763
		c-0.223-0.8-1.469-0.459-1.243,0.343c0.308,1.104,0.185,2.22,0.279,3.347c0.087,1.036,0.294,2.059,0.501,3.075
		C42.983,79.721,44.228,79.376,44.062,78.564"/>
	<path fill="#EEA820" d="M29.192,89.891c0.04-0.596,0.084-1.48,0.457-1.981c1.316-1.77,2.338-0.593,3.097,0.286
		c0.711,0.826,1.438,1.891,1.761,2.932c0.358,1.158,0.245,2.824-0.39,3.872c-0.768,1.271-2.488,1.309-3.88,0.993
		c-1.398-0.316-2.23-1.317-2.881-2.524c-0.448-0.832-0.85-1.394-0.363-2.271c0.073-0.778,0.397-0.934,0.975-0.468
		c0.335,0.077,0.638,0.217,0.909,0.419c1.983,1.076,3.897,2.146,5.971,3.063c0.753,0.332,1.411-0.778,0.652-1.114
		c-1.303-0.575-2.609-1.147-3.865-1.817c-1.018-0.542-2.006-1.374-3.077-1.793c-1.266-0.495-2.948-0.308-3.295,1.262
		c-0.347,1.575,1.09,3.979,2.117,5.061c1.487,1.57,3.93,1.878,5.986,1.494c1.683-0.314,2.245-2.166,2.512-3.667
		c0.388-2.19-0.438-3.978-1.712-5.711c-0.879-1.194-1.991-2.43-3.61-2.149c-1.962,0.34-2.538,2.407-2.654,4.114
		C27.845,90.72,29.136,90.717,29.192,89.891"/>
	<path fill="#EEA820" d="M30.234,96.009c-0.248-1.216-0.467-2.416-0.497-3.659c-0.024-0.942-0.028-1.846-0.285-2.763
		c-0.223-0.799-1.468-0.459-1.243,0.343c0.308,1.104,0.186,2.22,0.279,3.347c0.087,1.036,0.294,2.059,0.501,3.075
		C29.156,97.165,30.4,96.821,30.234,96.009"/>
	<path fill="#EEA820" d="M19.483,82.882c0.03-0.46,0.064-1.146,0.354-1.533c1.019-1.369,1.809-0.459,2.396,0.222
		c0.551,0.64,1.112,1.463,1.361,2.269c0.278,0.896,0.189,2.185-0.3,2.995c-0.595,0.982-1.926,1.012-3.003,0.769
		c-1.082-0.245-1.725-1.02-2.228-1.954c-0.348-0.644-0.658-1.077-0.282-1.756c0.057-0.601,0.308-0.722,0.755-0.362
		c0.258,0.061,0.493,0.169,0.702,0.324c1.535,0.832,3.016,1.661,4.62,2.37c0.583,0.258,1.091-0.602,0.504-0.862
		c-1.007-0.444-2.019-0.887-2.99-1.404c-0.787-0.42-1.552-1.063-2.38-1.388c-0.98-0.384-2.281-0.238-2.549,0.977
		c-0.27,1.218,0.843,3.077,1.637,3.914c1.151,1.215,3.041,1.453,4.632,1.156c1.302-0.243,1.737-1.676,1.943-2.838
		c0.3-1.693-0.339-3.075-1.325-4.418c-0.679-0.924-1.54-1.879-2.792-1.662c-1.518,0.263-1.964,1.861-2.054,3.183
		C18.441,83.522,19.44,83.521,19.483,82.882"/>
	<path fill="#EEA820" d="M20.289,87.615c-0.191-0.94-0.361-1.869-0.385-2.831c-0.018-0.729-0.022-1.428-0.22-2.137
		c-0.173-0.618-1.137-0.356-0.964,0.265c0.239,0.854,0.145,1.717,0.218,2.59c0.067,0.802,0.227,1.592,0.388,2.378
		C19.455,88.511,20.417,88.243,20.289,87.615"/>
	<path fill="#EEA820" d="M43.619,102.06c1.195,1.369,1.765,3.795-0.828,3.765c-1.177-0.014-2.747-0.33-3.797-0.878
		c-1.005-0.524-1.688-1.416-2.195-2.407c-0.742-1.446-0.203-2.337,0.901-3.341c1.326-1.204,2.744-1.477,4.478-1.031
		c0.45,0.115,1.366,0.354,1.754,0.669c1.253,1.019,0.474,1.668-0.677,2.046c-2.233,0.735-4.487,1.268-6.698,2.122
		c-0.767,0.298-0.434,1.545,0.344,1.245c1.438-0.557,2.877-1.115,4.357-1.549c1.094-0.32,2.362-0.416,3.385-0.941
		c1.17-0.599,1.932-1.92,1.104-3.131c-0.999-1.462-3.912-2.129-5.543-2.032c-1.895,0.11-3.855,1.669-4.829,3.238
		c-0.918,1.481,0.097,3.29,1.034,4.533c1.261,1.673,3.066,2.281,5.075,2.596c1.479,0.232,3.313,0.313,4.191-1.158
		c0.975-1.635-0.055-3.41-1.144-4.658C43.984,100.52,43.075,101.436,43.619,102.06"/>
	<path fill="#EEA820" d="M38.548,98.466c0.958,0.632,1.912,1.268,2.752,2.055c0.75,0.703,1.431,1.434,2.342,1.933
		c0.729,0.399,1.381-0.715,0.651-1.113c-1.01-0.555-1.722-1.454-2.591-2.188c-0.788-0.664-1.646-1.235-2.504-1.802
		C38.504,96.893,37.857,98.01,38.548,98.466"/>
	<path fill="#EEA820" d="M50.415,97.84c-0.056-0.623-0.148-1.24,0.126-1.835c0.005-0.731,0.425-1.022,1.261-0.872
		c0.589-0.421,1.078-0.4,1.467,0.062c0.817,0.433,1.832,1.69,2.304,2.469c0.663,1.095,1.162,3.192,0.494,4.416
		c-0.852,1.558-2.97,1.771-4.507,1.312c-1.304-0.39-2.014-1.229-2.762-2.337c-0.127-0.188-0.629-0.767-0.609-0.985
		c0.428-0.455,0.856-0.91,1.284-1.364c0.451,0.176,0.898,0.359,1.343,0.552c1.926,0.79,3.901,1.362,5.912,1.897
		c0.803,0.216,1.146-1.029,0.343-1.244c-1.375-0.366-2.756-0.728-4.1-1.195c-1.175-0.41-2.495-1.251-3.768-1.376
		c-1.229-0.12-2.521,0.564-2.55,1.933c-0.032,1.608,1.709,3.705,2.925,4.627c1.683,1.277,3.986,1.183,5.93,0.565
		c1.69-0.537,1.975-2.194,2.065-3.811c0.126-2.227-0.879-3.891-2.385-5.447c-1.088-1.125-2.559-2.403-4.229-1.701
		c-1.719,0.721-1.979,2.711-1.836,4.336C49.196,98.661,50.487,98.669,50.415,97.84"/>
	<path fill="#EEA820" d="M52.418,103.717c-0.401-1.072-0.798-2.147-1.029-3.272c-0.222-1.073-0.345-2.098-0.804-3.104
		c-0.345-0.755-1.457-0.1-1.114,0.651c0.465,1.021,0.508,2.139,0.766,3.215c0.233,0.977,0.586,1.916,0.937,2.854
		C51.461,104.831,52.71,104.497,52.418,103.717"/>
	<path fill="#EEA820" d="M44.677,86.395c0.76-0.579,1.515-1.497,2.58-1.304c1.125,0.206,1.856,1.496,1.958,2.546
		c0.084,0.874-0.203,1.941-0.309,2.813c-0.231,1.928-1.61,3.008-3.538,3.035c-2.49,0.035-4.481-1.619-5.5-3.787
		c-0.543-1.157-0.888-2.416-0.598-3.703c0.162-0.623,0.417-1.203,0.764-1.74c0.851-1.607,2.03-1.2,3.54,1.225
		c-0.195,0.807,1.048,1.151,1.245,0.344c0.87-3.572-3.318-5.563-5.585-2.679c-2.829,3.604-0.746,9.116,3.162,10.972
		c1.726,0.818,3.856,0.928,5.596,0.077c2.089-1.022,2.095-2.769,2.33-4.854c0.223-1.957,0.374-3.494-1.37-4.75
		c-2.104-1.515-3.002-0.778-4.927,0.691C43.375,85.778,44.016,86.899,44.677,86.395"/>
	<path fill="#EEA820" d="M43.732,86.637c0.738,2.566,1.201,5.17,1.378,7.836c0.055,0.824,1.346,0.83,1.291,0
		c-0.185-2.781-0.653-5.5-1.424-8.179C44.747,85.497,43.5,85.836,43.732,86.637"/>
	<path fill="#EEA820" d="M43.625,86.415c-0.995,1.955-2.354,3.622-4.063,4.997c-0.646,0.521,0.271,1.429,0.913,0.913
		c1.786-1.438,3.226-3.217,4.266-5.26C45.115,86.328,44.001,85.674,43.625,86.415"/>
</g>
</svg>
