<?xml version="1.0" encoding="utf-8"?>
<!-- Generator: Adobe Illustrator 16.0.2, SVG Export Plug-In . SVG Version: 6.00 Build 0)  -->
<!DOCTYPE svg PUBLIC "-//W3C//DTD SVG 1.1//EN" "http://www.w3.org/Graphics/SVG/1.1/DTD/svg11.dtd">
<svg version="1.1" id="Layer_1" xmlns="http://www.w3.org/2000/svg" xmlns:xlink="http://www.w3.org/1999/xlink" x="0px" y="0px"
	 width="64.947px" height="88.699px" viewBox="0 0 64.947 88.699" enable-background="new 0 0 64.947 88.699" xml:space="preserve">
<g>
	<path fill="#D06728" d="M48.666,38.715c1.949,0.972,4.296,0.736,5.777-0.961c1.092-1.248,1.853-3.707,0.231-4.852
		c-1.702-1.202-4.179-1.251-5.778,0.09c-0.734,0.617-1.44,1.539-1.65,2.49c-0.089,0.401-0.092,0.844,0.108,1.217
		c0.246,0.457,1.269,0.794,1.038,1.444c-0.188,0.527,0.651,0.754,0.836,0.23c0.313-0.879-0.218-1.024-0.648-1.67
		c-0.102-0.079-0.203-0.158-0.305-0.238c0.05-0.52,0.098-1.041,0.146-1.561c0.125-0.341,0.479-0.716,0.725-0.966
		c0.767-0.78,1.719-1.167,2.815-1.037c0.981,0.115,2.499,0.613,2.733,1.64c0.178,0.784-0.23,1.682-0.66,2.307
		c-1.116,1.624-3.217,1.972-4.932,1.118C48.605,37.717,48.166,38.465,48.666,38.715"/>
	<path fill="#D06728" d="M53.306,37.813c0.195,0.715-0.377,1.458-1.07,1.72c-0.691,0.263-1.463,0.17-2.196,0.075
		c-1.961-0.256-3.921-0.512-5.881-0.768c-0.615-0.08-1.283-0.187-1.702-0.644c-0.405-0.442-0.464-1.09-0.503-1.688
		c-0.1-1.522-0.106-3.28,1.048-4.278c0.97-0.839,2.395-0.804,3.674-0.723c1.032,0.065,2.064,0.13,3.096,0.195
		c1.233,0.077,2.518,0.17,3.583,0.795c-0.928,0.201-1.848,0.442-2.756,0.72c-0.59,0.181-1.201,0.394-1.621,0.845
		c-0.729,0.785-0.65,2-0.525,3.064c0.028,0.253,0.062,0.515,0.196,0.729c0.31,0.49,0.993,0.537,1.572,0.529
		c0.908-0.013,1.816-0.031,2.725-0.054"/>
	<path fill="#D06728" d="M48.404,49.73c-0.695-0.62-1.166-1.367-1.593-2.184c-0.261-0.499-0.569-1.06-0.737-1.591
		c-0.043-0.147-0.088-0.293-0.131-0.44c-0.394-0.982-0.092-1.389,0.905-1.222c1.191-0.184,1.071-0.01,1.368,1.01
		c0.131,0.451,0.214,0.913,0.283,1.376c0.119,0.791,0.486,2.738-0.443,3.191c-0.502,0.245-0.062,0.993,0.438,0.749
		c1.406-0.685,1.047-2.884,0.859-4.115c-0.194-1.274-0.622-3.787-2.284-3.987c-1.443-0.174-2.152,1.478-2.06,2.663
		c0.144,1.807,1.466,3.993,2.779,5.164C48.206,50.715,48.822,50.104,48.404,49.73"/>
	<path fill="#D06728" d="M47.714,50.585c1.424,0.614,3.226,0.987,4.408-0.017c0.52-0.442,0.827-1.085,1.306-1.571
		c1.457-1.476,4.134-1.193,5.482-2.769c0.755-0.884,0.886-2.136,0.851-3.297c-0.054-1.783-0.48-3.67-1.764-4.908
		c-0.467-0.45-1.06-0.805-1.706-0.836c-0.683-0.034-1.325,0.291-1.931,0.606c-2.018,1.051-4.033,2.102-6.05,3.153
		c-1.561,0.813-2.717,1.374-3.515,2.942c0.204,0.22,0.078,0.513,0.325,0.343c0.248-0.17,0.42-0.429,0.646-0.627
		c0.639-0.56,1.719-0.514,2.31,0.098c0.608,0.633,0.627,1.604,0.798,2.465c0.186,0.93,0.59,1.836,0.527,2.783
		c-0.061,0.946-0.2,1.5-1.127,1.295"/>
	<path fill="#912B25" d="M2.89,6.63C1.601,4.794,1.259,2.327,2.002,0.211c9.664,0.25,19.314,1.052,28.888,2.401
		c1.612,0.227,3.288,0.465,4.841-0.025c0.925-0.292,1.757-0.829,2.68-1.127c0.996-0.322,2.059-0.354,3.104-0.383
		c7.56-0.209,15.118-0.419,22.678-0.628c0.78,5.285-0.395,10.837-3.251,15.351c-0.565,0.892-1.201,1.764-1.494,2.778
		c-0.23,0.799-0.234,1.642-0.235,2.473c-0.019,18.321-0.384,35.788,0.613,54.082c0.044,0.807,0.09,1.622,0.32,2.397
		c0.194,0.659,1.371,2.126,1.655,2.751c0.895,1.969,1.414,4.105,1.527,6.263c0.017,0.327,0.02,0.673-0.141,0.958
		c-0.339,0.594-1.169,0.619-1.852,0.57C41.2,86.63,21.511,90.823,0.81,87.142c-2.077-0.369,0.334-4.298,1.728-5.883
		c0.974-1.11,2.28-1.916,3.124-3.128c1.113-1.596,1.265-3.65,1.364-5.592c0.646-12.787,0.552-25.606-0.111-38.391
		c-0.327-6.312-0.793-12.617-1.421-18.906c-0.311-3.109-0.704-6.339-2.389-8.97"/>
	<path fill="#412312" d="M2.89,6.63c7.728-2.354,18.638-1.414,27.982-0.229c1.843,0.234,3.743,0.502,5.533,0.008
		c1.277-0.352,2.429-1.077,3.704-1.441c1.802-0.516,3.721-0.28,5.589-0.113c6.604,0.593,12.55,0.455,19.068-0.757
		c0.213-1.977,0.431-3.526-0.574-3.649l-15.331,0.23c-2.304-0.104-7.772,0.059-10.048,0.428c-3.304,0.536-3.372,1.796-6.697,1.415
		c-1.273-0.146-2.496-0.569-3.741-0.874c-2.296-0.563-4.668-0.725-7.027-0.885c-4.885-0.332-9.584-0.071-14.469-0.404
		C5.294,0.252,2.596-0.294,2.002,0.211c-0.677,0.576-0.854,2-0.036,4.492c0.18,0.547-0.226,0.838,0.213,1.21
		C2.62,6.286,3.442,6.799,2.89,6.63"/>
	<path fill="#D06728" d="M21.666,49.715c1.949,0.972,4.296,0.736,5.777-0.961c1.092-1.248,1.853-3.707,0.231-4.852
		c-1.702-1.202-4.179-1.251-5.778,0.09c-0.734,0.617-1.44,1.539-1.65,2.49c-0.089,0.401-0.092,0.844,0.108,1.217
		c0.246,0.457,1.269,0.794,1.038,1.444c-0.188,0.527,0.651,0.754,0.836,0.23c0.313-0.879-0.218-1.024-0.648-1.67
		c-0.102-0.079-0.203-0.158-0.305-0.238c0.05-0.52,0.098-1.041,0.146-1.561c0.125-0.341,0.479-0.716,0.725-0.966
		c0.767-0.78,1.719-1.167,2.815-1.037c0.981,0.115,2.499,0.613,2.733,1.64c0.178,0.784-0.23,1.682-0.66,2.307
		c-1.116,1.624-3.217,1.972-4.932,1.118C21.605,48.717,21.166,49.465,21.666,49.715"/>
	<path fill="#D06728" d="M26.306,48.813c0.195,0.715-0.377,1.458-1.07,1.72c-0.691,0.263-1.463,0.17-2.196,0.075
		c-1.961-0.256-3.921-0.512-5.881-0.768c-0.615-0.08-1.283-0.187-1.702-0.644c-0.405-0.442-0.464-1.09-0.503-1.688
		c-0.1-1.522-0.106-3.28,1.048-4.278c0.97-0.839,2.395-0.804,3.674-0.723c1.032,0.065,2.064,0.13,3.096,0.195
		c1.233,0.077,2.518,0.17,3.583,0.795c-0.928,0.201-1.848,0.442-2.756,0.72c-0.59,0.181-1.201,0.394-1.621,0.845
		c-0.729,0.785-0.65,2-0.525,3.064c0.028,0.253,0.062,0.515,0.196,0.729c0.31,0.49,0.993,0.537,1.572,0.529
		c0.908-0.013,1.816-0.031,2.725-0.054"/>
	<path fill="#D06728" d="M21.404,60.73c-0.695-0.62-1.166-1.367-1.593-2.184c-0.261-0.499-0.569-1.06-0.737-1.591
		c-0.043-0.147-0.088-0.293-0.131-0.44c-0.394-0.982-0.092-1.389,0.905-1.222c1.191-0.184,1.071-0.01,1.368,1.01
		c0.131,0.451,0.214,0.913,0.283,1.376c0.119,0.791,0.486,2.738-0.443,3.191c-0.502,0.245-0.062,0.993,0.438,0.749
		c1.406-0.685,1.047-2.884,0.859-4.115c-0.194-1.274-0.622-3.787-2.284-3.987c-1.443-0.174-2.152,1.478-2.06,2.663
		c0.144,1.807,1.466,3.993,2.779,5.164C21.206,61.715,21.822,61.104,21.404,60.73"/>
	<path fill="#D06728" d="M20.714,61.585c1.424,0.614,3.226,0.987,4.408-0.017c0.52-0.442,0.827-1.085,1.306-1.571
		c1.457-1.476,4.134-1.193,5.482-2.769c0.755-0.884,0.886-2.136,0.851-3.297c-0.054-1.783-0.48-3.67-1.764-4.908
		c-0.467-0.45-1.06-0.805-1.706-0.836c-0.683-0.034-1.325,0.291-1.931,0.606c-2.018,1.051-4.033,2.102-6.05,3.153
		c-1.561,0.813-2.717,1.374-3.515,2.942c0.204,0.22,0.078,0.513,0.325,0.343c0.248-0.17,0.42-0.429,0.646-0.627
		c0.639-0.56,1.719-0.514,2.31,0.098c0.608,0.633,0.627,1.604,0.798,2.465c0.186,0.93,0.59,1.836,0.527,2.783
		c-0.061,0.946-0.2,1.5-1.127,1.295"/>
	<path fill="#D06728" d="M36.35,63.318c0.851-1.29,1.676-2.328,3.354-2.293c0.677,0.014,2.71,0.14,3.157,0.835
		c0.004,0.37,0.007,0.741,0.011,1.111c-0.366,0.062-0.735,0.114-1.105,0.156c-0.563,0.072-1.126,0.133-1.692,0.176
		c-1.135,0.085-2.999,0.455-3.865-0.508c-0.373-0.416-0.985,0.199-0.613,0.614c1.405,1.564,4.421,0.812,6.229,0.583
		c1.132-0.142,2.653-0.296,2.209-1.814c-0.451-1.54-2.253-1.799-3.607-1.958c-2.435-0.284-3.539,0.711-4.824,2.66
		C35.292,63.347,36.042,63.783,36.35,63.318"/>
	<path fill="#D06728" d="M35.547,63.424c-0.671-0.096-0.812-0.972-1.063-1.6c-0.139-0.344-0.353-0.653-0.493-0.996
		c-0.159-0.384-0.222-0.799-0.283-1.21c-0.416-2.782-0.832-5.564-1.248-8.346c-0.072-0.486-0.142-0.999,0.034-1.458
		c0.396-1.035,1.74-1.248,2.847-1.3c0.995-0.046,1.991-0.093,2.987-0.139c1.561-0.073,3.132-0.146,4.678,0.076
		c0.25,0.036,0.509,0.083,0.716,0.228c0.209,0.148,0.343,0.38,0.456,0.61c0.863,1.743,1.021,3.757,0.91,5.7
		c-0.11,1.943-0.469,3.865-0.576,5.808c-0.037,0.684-0.082,1.456-0.601,1.903c-0.22-0.776-0.909-1.361-1.679-1.604
		c-0.769-0.244-1.604-0.185-2.39-0.001c-1.54,0.36-2.963,1.204-4.018,2.382"/>
	<path fill="#D06728" d="M40.835,40.891c-0.059-0.396-0.29-0.457-0.512-0.767c-0.192-0.269-0.179-0.568-0.365-0.829
		c-0.391-0.545-1.604-0.57-2.174-0.468c-0.722,0.129-0.974,0.464-1.105,1.144c-0.209,1.071-0.504,3.105-0.084,4.143
		c0.274,0.678,0.728,1.238,0.981,1.954c0.096,0.269,0.114,0.596,0.348,0.794c0.531,0.454,1.161,0.027,1.617-0.319
		c2.173-1.645,1.891-3.753,0.626-5.881c-0.285-0.479-1.035-0.043-0.749,0.439c0.955,1.607,1.425,3.135-0.14,4.543
		c-1,0.9-0.783,0.121-1.115-0.641c-0.323-0.743-0.737-1.006-0.824-1.924c-0.082-0.867,0.171-4.615,1.843-3.224
		c0.093,0.077,0.03,0.373,0.155,0.498c0.196,0.195,0.62,0.485,0.661,0.769C40.079,41.671,40.916,41.438,40.835,40.891"/>
	<path fill="#D06728" d="M38.082,39.19c2.456-0.033,4.913-0.021,7.369,0.035c0.766,0.018,1.602,0.068,2.166,0.585
		c0.6,0.548,0.697,1.442,0.756,2.253c0.09,1.223,0.094,2.655-0.865,3.421c-0.705,0.564-1.692,0.553-2.597,0.588
		c-1.499,0.058-2.989,0.315-4.422,0.763c-0.397,0.124-0.806,0.264-1.22,0.219c-0.413-0.046-0.834-0.342-0.867-0.757
		c-0.028-0.37,0.243-0.686,0.459-0.988c0.88-1.232,0.994-2.967,0.283-4.304c-0.438-0.823-1.305-1.533-2.226-1.38"/>
	<path fill="#D06728" d="M32.283,46.603c-0.187-1.153-0.403-2.407-0.082-3.56c0.146-0.524,0.407-1.072,0.799-1.456
		c0.618-0.606,1.967-0.339,2.2,0.531c0.531,1.98-1.333,4.228-2.89,5.226c0.469-0.301,0.034-1.052-0.438-0.75
		c-0.392,0.251-0.55,0.72-0.243,1.129c0.446,0.6,1.206,0.205,1.675-0.132c1.617-1.16,3.101-3.222,2.807-5.313
		c-0.243-1.725-1.837-2.7-3.352-1.623c-1.96,1.395-1.646,4.129-1.313,6.179C31.535,47.384,32.373,47.15,32.283,46.603"/>
	<path fill="#D06728" d="M34.2,40.446c-0.793-1.271-2.214-1.992-3.595-2.573c-1.03-0.432-2.079-0.821-3.141-1.165
		c-1.169-0.378-2.457-0.699-3.601-0.25c-0.977,0.383-1.679,1.284-2.063,2.261c-0.385,0.976-0.495,2.036-0.603,3.081
		c-0.02,0.197-0.021,0.436,0.144,0.546c0.104,0.07,0.238,0.061,0.363,0.054c2.122-0.124,4.276,0.945,5.461,2.712
		c0.271,0.407,0.497,0.849,0.826,1.213c0.743,0.822,1.889,1.124,2.965,1.386c0.143,0.035,0.313,0.063,0.42-0.036
		c0.074-0.067,0.095-0.173,0.105-0.271c0.132-1.162-0.501-2.286-0.502-3.455c-0.002-1.648,1.453-3.162,3.1-3.226
		c0.477-0.018,0.461,0.353,0.306-0.097C34.189,40.613,34.396,40.458,34.2,40.446"/>
</g>
</svg>
