<?xml version="1.0" encoding="utf-8"?>
<!-- Generator: Adobe Illustrator 16.0.2, SVG Export Plug-In . SVG Version: 6.00 Build 0)  -->
<!DOCTYPE svg PUBLIC "-//W3C//DTD SVG 1.1//EN" "http://www.w3.org/Graphics/SVG/1.1/DTD/svg11.dtd">
<svg version="1.1" id="Layer_1" xmlns="http://www.w3.org/2000/svg" xmlns:xlink="http://www.w3.org/1999/xlink" x="0px" y="0px"
	 width="23.911px" height="88.932px" viewBox="0 0 23.911 88.932" enable-background="new 0 0 23.911 88.932" xml:space="preserve">
<g>
	<path fill="#44A84F" d="M0.722,83.663c0.027-3.978-0.332-8.09-0.514-12.063c-0.333-7.265-0.267-14.547,0.2-21.804
		c0.192-2.978-0.378-5.822,0.269-8.807c0.617-2.839,1.885-5.543,3.72-7.799c0.454-0.559,0.952-1.108,1.195-1.786
		c0.251-0.699,0.207-1.463,0.177-2.204c-0.122-2.912,0.011-5.828,0.144-8.74c0.053-1.167,0.108-2.343,0.376-3.479
		c0.173-0.732,0.433-1.442,0.588-2.178c0.313-1.492,0.18-3.04,0.342-4.557C7.387,8.662,7.875,7.13,8.359,5.613
		C7.973,5.534,7.496,5.636,7.2,5.375C6.76,4.987,7.533,3.612,7.758,2.744c0.06-0.229,0.131-0.473,0.315-0.621
		c0.161-0.129,0.377-0.16,0.581-0.185c2.015-0.243,4.047-0.342,6.076-0.296c0.538,0.013,1.217,0.536,1.346,1.056
		c0.158,0.643,0.317,1.285,0.476,1.927c0.077,0.312,0.133,0.695-0.111,0.902c-0.136,0.114-0.323,0.136-0.479,0.218
		c-0.34,0.18-0.46,0.609-0.475,0.994c-0.044,1.12,0.501,2.167,0.813,3.244c0.308,1.059,0.394,2.169,0.477,3.269
		c0.147,1.947,0.296,3.896,0.443,5.843c0.27,3.552,1.09,7.06,1.06,10.634c-0.016,1.771,0.118,2.856,1.003,4.443
		c0.771,1.386,1.73,2.664,2.399,4.107c1.193,2.574,1.386,5.48,1.561,8.312c0.324,5.281,0.795,10.619,0.637,15.916
		c-0.12,4.056-0.675,8.103-0.487,12.154c0.064,1.373,0.214,2.741,0.265,4.114c0.092,2.482-0.136,4.967-0.363,7.44
		c-0.081,0.881-0.255,1.906-1.039,2.313c-0.315,0.164-0.683,0.194-1.038,0.219c-5.558,0.383-11.158,0.168-16.671-0.642
		c-1.098-0.161-2.283-0.395-3.016-1.228C0.782,86.029,0.714,84.793,0.722,83.663"/>
	<path fill="#0F123D" d="M1.603,59.864c0.559-3.518,1.738-6.936,3.467-10.049c0.311-0.56,0.649-1.121,1.147-1.522
		c0.552-0.446,1.256-0.658,1.956-0.775c3-0.501,5.19-0.602,7.707,1.108c0.693,0.471,2.258,2.209,2.734,2.897
		c0.442,0.638,0.696,1.383,0.917,2.124c1.611,5.409,1.702,11.15,1.419,16.786c-0.064,1.291-0.15,2.595-0.511,3.835
		c-1.272,4.386-5.848,7.198-10.392,7.635c-0.709,0.067-1.443,0.086-2.11-0.163c-0.846-0.315-1.485-1.022-1.993-1.769
		c-1.116-1.641-1.751-3.555-2.31-5.459c-0.915-3.119-1.662-6.287-2.236-9.487c-0.336-1.875-0.594-3.9,0.251-5.607"/>
	<path fill="#AD832D" d="M4.42,60.881c0.9-1.878,1.12-4.069,2.294-5.79c1.1-1.612,3.016-2.637,4.969-2.655
		c0.28-0.004,0.573,0.017,0.816,0.155c0.252,0.145,1.688,0.224,1.847,0.465c1.796,2.752,2.36,5.761,3.022,8.979
		c0.312,1.514,0.353,3.069,0.394,4.615c0.068,2.575,0.069,5.371-1.477,7.432c-1.296,1.727-3.62,2.616-5.738,2.196
		c-0.212-0.042-0.43-0.102-0.593-0.242c-0.142-0.122-0.99-0.55-1.148-0.649C6.3,73.815,6.85,73.45,6.153,72.031
		C5.5,70.697,5.462,68.939,4.95,67.543c-0.787-2.146-0.441-4.713-0.51-6.998"/>
	<path fill="#0F123D" d="M6.972,12.886c1.057-0.149,2.295,0.542,3.33,0.797c2.234,0.551,5.351-1.139,6.725-0.719
		c0.518,0.159,0.819,4.698,1.229,7.047c0.105,0.604,0.199,1.277-0.135,1.793c-0.292,0.45-0.834,0.658-1.339,0.839
		c-1.611,0.575-3.25,1.156-4.958,1.242c-2.108,0.104-4.246-0.583-5.896-1.897c-0.146-0.116-0.291-0.241-0.378-0.406
		c-0.189-0.363,0.054-0.781,0.085-1.19C5.865,17.473,6.924,15.437,6.972,12.886"/>
	<path fill="#AD832D" d="M7.347,1.213c-0.39,0.535-0.625,1.182-0.672,1.842C7.062,3.203,7.535,3.079,7.8,2.761
		c0.06-0.072,0.114-0.156,0.204-0.185C8.073,2.554,8.149,2.573,8.22,2.597c0.368,0.125,0.747,0.398,1.106,0.252
		C9.51,2.774,9.635,2.604,9.794,2.485c0.157-0.119,0.408-0.174,0.537-0.023c0.065,0.075,0.079,0.182,0.123,0.271
		c0.105,0.211,0.372,0.3,0.606,0.269c0.234-0.03,0.444-0.154,0.647-0.273c0.152-0.088,0.346-0.176,0.494-0.082
		c0.079,0.05,0.122,0.14,0.188,0.209c0.23,0.245,0.64,0.14,0.94-0.012c0.302-0.152,0.646-0.339,0.954-0.201
		c0.154,0.067,0.264,0.206,0.4,0.303c0.279,0.201,0.679,0.216,0.973,0.037c0.124-0.076,0.246-0.188,0.392-0.172
		c0.182,0.019,0.275,0.22,0.408,0.346c0.199,0.188,0.539,0.202,0.753,0.03l-0.57-1.87C16.604,1.203,16.568,1.085,16.486,1
		c-0.09-0.094-0.222-0.134-0.348-0.169C14.114,0.267,12.012-0.014,9.909,0c-0.53,0.004-1.076,0.029-1.567,0.23
		C7.851,0.433,7.413,0.843,7.318,1.366"/>
</g>
</svg>
