<?xml version="1.0" encoding="utf-8"?>
<!-- Generator: Adobe Illustrator 16.0.2, SVG Export Plug-In . SVG Version: 6.00 Build 0)  -->
<!DOCTYPE svg PUBLIC "-//W3C//DTD SVG 1.1//EN" "http://www.w3.org/Graphics/SVG/1.1/DTD/svg11.dtd">
<svg version="1.1" id="Layer_1" xmlns="http://www.w3.org/2000/svg" xmlns:xlink="http://www.w3.org/1999/xlink" x="0px" y="0px"
	 width="70.648px" height="117.806px" viewBox="0 0 70.648 117.806" enable-background="new 0 0 70.648 117.806"
	 xml:space="preserve">
<g>
	<path fill="#2C3A96" d="M1.657,2.014c5.318-0.576,10.64-1.45,15.988-1.376L41.35,0.964c5.025,0.069,14.742-1.03,19.766-0.961
		c0.35,0.005,0.728,0.02,0.999,0.238c0.33,0.265,0.394,0.734,0.427,1.155c0.843,10.244-1.684,18.609-0.477,30.589
		c0.359,3.567,1.697,7.704,2.454,11.208c1.365,6.319-0.75,12.805-1.304,19.247c-0.368,4.271-0.044,8.568,0.28,12.844
		c0.937,12.355,1.873,24.71,2.811,37.065c0.054,0.72,0.102,1.479-0.213,2.129c-0.523,1.078-1.832,1.479-3.002,1.737
		c-4.093,0.904-8.271,1.426-12.459,1.556c-3.675,0.113-7.352-0.072-11.023-0.26c-11.185-0.567-22.369-1.135-33.554-1.702
		c-0.363-0.019-0.751-0.047-1.035-0.272c-0.379-0.302-0.442-0.844-0.473-1.328c-0.532-8.235-0.48-16.498-0.428-24.752
		c0.025-3.871,0.051-7.742,0.075-11.614c0.04-6.334-1.425-12.41-0.944-18.727c0.39-5.135-0.598-10.987-0.756-16.134
		C2.057,28.686-1.597,16.076,0.819,1.979"/>
	<path fill="#282A73" d="M65.225,48.046c3.574,19.838,2.976,40.183,5.245,60.212c0.205,1.813,0.41,3.76-0.462,5.361
		c-0.873,1.603-3.303,2.452-4.555,1.126c-0.715-8.254-1.43-16.509-2.146-24.763c-1.146-13.244-1.55-24.999,1.226-38
		c0.21-0.984-0.092-3.879,0.902-4.03"/>
	<path fill="#EEA820" d="M10.751,59.681c5.974,3.749,9.678,10.07,15.615,13.889c1.104,0.71,2.124-1.049,1.025-1.755
		c-5.928-3.812-9.627-10.132-15.615-13.889C10.666,57.228,9.644,58.986,10.751,59.681"/>
	<path fill="#EEA820" d="M9.87,68.751c6.126,0.424,12.211,1.125,18.271,2.117c1.28,0.209,1.83-1.749,0.541-1.96
		c-6.239-1.021-12.505-1.754-18.813-2.19C8.564,66.628,8.57,68.661,9.87,68.751"/>
	<path fill="#EEA820" d="M40.532,71.704c4.913-0.035,9.826-0.071,14.738-0.108c1.308-0.009,1.311-2.042,0-2.032
		c-4.912,0.036-9.825,0.072-14.738,0.108C39.226,69.682,39.222,71.715,40.532,71.704"/>
	<path fill="#EEA820" d="M44.694,67.905c-4.264,5.882-6.843,12.576-9,19.461c-0.393,1.252,1.568,1.787,1.96,0.541
		c2.111-6.737,4.627-13.225,8.795-18.977C47.218,67.87,45.455,66.854,44.694,67.905"/>
	<path fill="#EEA820" d="M29.784,85.445c7.995-2.136,15.177-5.044,22.604-8.635c1.179-0.57,0.148-2.323-1.026-1.757
		c-7.25,3.507-14.319,6.348-22.117,8.432C27.98,83.822,28.517,85.784,29.784,85.445"/>
	<path fill="#EEA820" d="M43.525,73.878c2.952,6.734,4.423,13.765,4.475,21.118c0.009,1.308,2.042,1.312,2.032,0
		c-0.055-7.729-1.647-15.065-4.753-22.144C44.756,71.657,43.004,72.69,43.525,73.878"/>
	<path fill="#EEA820" d="M43.35,84.871c-5.996,4.291-9.854,10.648-15.187,15.636c-0.957,0.896,0.481,2.33,1.437,1.438
		c5.191-4.855,8.943-11.143,14.775-15.318C45.43,85.871,44.416,84.108,43.35,84.871"/>
	<path fill="#EEA820" d="M31.243,89.988c1.258,3.47,2.485,6.953,3.803,10.399c1.089,2.843,3.317,5.417,3.98,8.349
		c0.289,1.275,2.249,0.735,1.96-0.541c-0.679-2.999-2.862-5.482-3.98-8.348c-1.34-3.437-2.545-6.932-3.803-10.399
		C32.762,88.228,30.795,88.755,31.243,89.988"/>
	<path fill="#EEA820" d="M27.647,97.12c8.036,2.975,15.089,7.953,22.963,11.289c1.19,0.505,2.228-1.246,1.026-1.755
		c-8.037-3.405-15.244-8.457-23.449-11.494C26.959,94.705,26.43,96.669,27.647,97.12"/>
	<path fill="#EEA820" d="M21.269,85.257C15.526,86.27,9.93,87.749,4.437,89.706c-1.224,0.436-0.696,2.4,0.54,1.96
		c5.493-1.956,11.09-3.437,16.832-4.449C23.095,86.989,22.55,85.03,21.269,85.257"/>
	<path fill="#EEA820" d="M9.452,85.669c3.775,3.207,8.311,5.273,12.683,7.528c1.16,0.599,2.189-1.155,1.025-1.756
		c-4.199-2.165-8.644-4.13-12.271-7.21C9.898,83.389,8.453,84.82,9.452,85.669"/>
	<path fill="#EEA820" d="M26.386,90.379c-5.93-0.207-11.856-0.217-17.788-0.03c-1.305,0.041-1.311,2.074,0,2.032
		c5.932-0.186,11.858-0.176,17.788,0.031C27.693,92.458,27.692,90.425,26.386,90.379"/>
</g>
</svg>
