<?xml version="1.0" encoding="utf-8"?>
<!-- Generator: Adobe Illustrator 16.0.2, SVG Export Plug-In . SVG Version: 6.00 Build 0)  -->
<!DOCTYPE svg PUBLIC "-//W3C//DTD SVG 1.1//EN" "http://www.w3.org/Graphics/SVG/1.1/DTD/svg11.dtd">
<svg version="1.1" id="Layer_1" xmlns="http://www.w3.org/2000/svg" xmlns:xlink="http://www.w3.org/1999/xlink" x="0px" y="0px"
	 width="64.15px" height="87.614px" viewBox="0 0 64.15 87.614" enable-background="new 0 0 64.15 87.614" xml:space="preserve">
<g>
	<path fill="#44A84F" d="M2.854,6.549C1.58,4.736,1.243,2.299,1.978,0.208c9.546,0.248,19.078,1.04,28.534,2.372
		c1.592,0.224,3.247,0.459,4.781-0.024c0.914-0.289,1.735-0.819,2.646-1.114c0.984-0.318,2.034-0.349,3.067-0.378
		c7.467-0.207,14.933-0.414,22.398-0.621c0.772,5.221-0.389,10.705-3.211,15.164c-0.558,0.881-1.187,1.742-1.475,2.744
		c-0.229,0.788,0.383,3.596,0.383,6.835c0,18.096,1.144,24.1-0.952,42.961c-0.088,0.793,1.031,7.668,1.257,8.434
		c0.193,0.65,1.356,2.099,1.638,2.717c0.882,1.944,1.396,4.055,1.508,6.187c0.016,0.322,0.02,0.664-0.141,0.945
		c-0.332,0.587-1.154,0.612-1.827,0.564C40.694,85.569,21.248,89.711,0.8,86.075c-2.052-0.365,0.331-4.246,1.706-5.811
		c0.963-1.096,2.253-1.893,3.087-3.09c1.098-1.576,1.556-3.614,1.346-5.524C5.377,57.478,6.223,42.196,5.567,29.567
		c-0.323-6.234,0.479-8.3-0.142-14.512c-0.308-3.071-0.695-6.261-2.36-8.859"/>
	<path fill="#046937" d="M2.854,6.549c7.632-2.326,18.409-1.396,27.64-0.226c1.82,0.231,3.787,1.251,5.557,0.763
		c1.262-0.348,2.308-1.819,3.566-2.179c1.78-0.509,3.677-0.276,5.521-0.111c6.523,0.585,12.396,0.449,18.836-0.748
		c0.209-1.953,0.425-3.483-0.568-3.605L48.263,0.671c-2.275-0.103-7.677,0.058-9.925,0.423c-3.263,0.529-2.623,1.034-5.907,0.658
		c-1.258-0.144-3.173,0.178-4.403-0.124c-2.268-0.556-4.611-0.716-6.94-0.874c-4.825-0.328-9.468-0.071-14.292-0.399
		C5.229,0.249,2.563-0.29,1.978,0.208C1.309,0.777,1.133,2.184,1.941,4.645c0.178,0.541-0.223,0.828,0.211,1.196
		C2.587,6.209,3.398,6.716,2.854,6.549"/>
	<path fill="#D06728" d="M35.577,64.665c-0.435-1.453-0.221-2.738,1.106-3.595c1.051-0.68,1.715-0.384,2.644,0.36
		c1.297,1.039,3.333,1.417,4.297,2.668c0.626,0.815,0.696,1.051,0.424,1.996c-0.15,0.524-0.361,1.141-0.745,1.543
		c-1.005,1.055-1.873,0.474-2.916-0.012c-1.414-0.66-4.188-0.853-4.611-2.697c-0.123-0.538-0.95-0.31-0.826,0.227
		c0.282,1.231,1.351,1.838,2.449,2.305c0.695,0.297,1.427,0.477,2.133,0.745c0.781,0.297,1.553,1.213,2.409,1.265
		c2.247,0.138,3.601-3.744,2.997-5.457c-0.515-1.458-2.049-1.534-3.292-2.126c-1.048-0.499-1.773-1.309-2.71-1.945
		c-0.328-0.222-0.61-0.437-1.029-0.431c-0.942,0.015-2.504,1.16-3.052,1.909c-0.763,1.041-0.444,2.338-0.104,3.473
		C34.908,65.42,35.736,65.196,35.577,64.665"/>
	<path fill="#D06728" d="M35.327,62.866c0.876-0.14,1.685,0.743,2.331,1.184c0.598,0.409,1.219,0.785,1.857,1.127
		c1.153,0.617,2.361,1.106,3.604,1.513c0.525,0.172,0.75-0.656,0.228-0.827c-1.779-0.583-3.468-1.367-5.03-2.403
		c-1.063-0.704-1.879-1.635-3.218-1.421C34.556,62.126,34.786,62.953,35.327,62.866"/>
	<path fill="#D06728" d="M39.994,62.489c-0.106,1.505-0.252,3.112-1.383,4.23c-0.393,0.388,0.213,0.994,0.606,0.606
		c1.3-1.285,1.51-3.096,1.633-4.836C40.89,61.938,40.033,61.941,39.994,62.489"/>
	<path fill="#D06728" d="M35.926,60.344c0.809-2.144,2.216-4.058,4.022-5.467c0.236-0.185,0.489-0.366,0.779-0.44
		c0.613-0.155,1.242,0.193,1.714,0.615c0.472,0.421,0.876,0.935,1.435,1.229c0.381,0.2,0.813,0.285,1.192,0.487
		c1.241,0.661,1.537,2.294,1.549,3.7c0.013,1.53-0.186,3.174-1.191,4.327c-0.107,0.124-0.245,0.249-0.409,0.238
		c-0.194-0.013-0.317-0.208-0.423-0.374c-0.427-0.68-1.083-1.213-1.836-1.492c-0.457-0.169-0.948-0.249-1.381-0.471
		c-0.375-0.193-0.688-0.483-1.028-0.732c-0.843-0.617-1.868-0.981-2.913-1.035C36.777,60.896,36.343,60.856,35.926,60.344"/>
	<path fill="#D06728" d="M16.524,60.279c0.195-0.581,0.396-1.161,0.622-1.73c0.363-0.912,0.661-1.428,1.705-1.531
		c1.657-0.162,3.919,0.804,3.622,2.857c-0.164,1.131-0.901,1.531-1.899,1.599c-0.812,0.054-1.638,0.003-2.344-0.424
		c-0.699-0.423-1.09-0.938-1.947-1.031c-0.548-0.06-0.543,0.798,0,0.857c0.97,0.105,1.655,1.203,2.672,1.401
		c0.852,0.166,1.917,0.129,2.765-0.105c1.729-0.478,1.9-2.266,1.333-3.769c-0.686-1.817-2.424-2.269-4.201-2.242
		c-0.775,0.012-1.408,0.052-1.882,0.724c-0.628,0.889-0.93,2.148-1.272,3.167C15.522,60.576,16.35,60.801,16.524,60.279"/>
	<path fill="#D06728" d="M19.335,57.064c-0.008,1.551-0.125,3.089-0.366,4.622c-0.084,0.54,0.742,0.772,0.827,0.228
		c0.252-1.609,0.388-3.221,0.396-4.85C20.195,56.512,19.338,56.512,19.335,57.064"/>
	<path fill="#D06728" d="M16.78,58.517c1.912,0.455,4.297,0.672,5.997,1.694c0.474,0.285,0.905-0.456,0.433-0.741
		c-1.795-1.078-4.19-1.301-6.202-1.78C16.471,57.563,16.243,58.389,16.78,58.517"/>
	<path fill="#D06728" d="M16.223,58.093c-0.304-1.643,0.177-3.339,0.9-4.844c0.725-1.505,1.689-2.883,2.447-4.371
		c0.118-0.233,0.268-0.496,0.523-0.543c0.138-0.025,0.277,0.02,0.409,0.065c1.653,0.563,3.272,1.227,4.845,1.989
		c0.374,0.181,0.763,0.383,0.99,0.731c0.29,0.441,0.256,1.014,0.186,1.536c-0.198,1.466-0.591,2.896-0.983,4.322
		c-0.335,1.218-0.856,2.631-2.08,2.947c-0.067,0.018-0.14,0.031-0.206,0.01c-0.203-0.065-0.184-0.353-0.164-0.565
		c0.071-0.775-0.438-1.516-1.102-1.923c-0.664-0.406-1.456-0.539-2.23-0.617c-1.391-0.14-3.051-0.001-3.787,1.186"/>
	<path fill="#D06728" d="M29.007,51.637c2.126-0.181,4.24-0.449,6.345-0.803c0.543-0.091,0.313-0.918-0.229-0.827
		c-2.029,0.342-4.066,0.598-6.116,0.773C28.461,50.826,28.456,51.684,29.007,51.637"/>
	<path fill="#D06728" d="M30.92,47.634c1.208,1.511,0.834,4.609,0.762,6.424c-0.022,0.552,0.834,0.551,0.856,0
		c0.087-2.141,0.421-5.238-1.012-7.03C31.182,46.597,30.579,47.207,30.92,47.634"/>
	<path fill="#D06728" d="M29.355,54.784c1.915,0.198,6.01,0.481,6.984-1.784c0.392-0.913-0.038-1.724-0.545-2.482
		c-0.442-0.663-0.734-1.173-0.85-1.991c-0.054-0.375-0.029-0.763-0.261-1.088c-0.554-0.778-1.935-0.539-2.737-0.546
		c-1.026-0.009-1.93,0.126-2.668,0.9c-1.782,1.868-0.789,4.505,0.122,6.523c0.228,0.502,0.967,0.066,0.74-0.433
		c-0.737-1.63-1.802-4.167-0.126-5.623c0.758-0.658,1.801-0.513,2.725-0.489c1.149,0.031,1.221,0.386,1.391,1.352
		c0.076,0.436,0.253,0.813,0.479,1.191c0.156,0.262,0.427,0.515,0.554,0.795c0.253,0.559,0.445,1.404,0.052,2.01
		c-0.45,0.691-2.44,0.817-3.117,0.869c-0.918,0.071-1.829,0.033-2.743-0.061C28.808,53.87,28.812,54.728,29.355,54.784"/>
	<path fill="#D06728" d="M36.05,53.482c0.126,1.149-0.119,2.335-0.69,3.339c-0.132,0.232-0.29,0.463-0.527,0.586
		c-0.222,0.115-0.483,0.119-0.733,0.12c-0.87,0.005-1.739,0.009-2.609,0.013c-1.137,0.006-2.366-0.018-3.269-0.709
		c-0.809-0.619-1.182-1.654-1.354-2.658c-0.173-1.003-0.189-2.037-0.48-3.012c-0.208-0.695-0.558-1.388-0.458-2.106
		c0.109-0.796,0.767-1.429,1.508-1.739c0.741-0.31,1.562-0.354,2.363-0.395c-1.149,1.734-1.52,3.964-0.993,5.977
		c0.127,0.482,0.347,1.003,0.807,1.196c0.207,0.086,0.438,0.094,0.661,0.101c0.958,0.029,1.915,0.057,2.873,0.086
		c1.041,0.031,2.212,0.013,2.941-0.731"/>
	<path fill="#D06728" d="M21.96,36.374c0.059,0.935,0.117,1.87,0.177,2.804c0.054,0.847,0.302,1.961,0.02,2.776
		c-0.18,0.523,0.648,0.747,0.827,0.228c0.281-0.814,0.091-1.73,0.038-2.572c-0.068-1.079-0.137-2.157-0.205-3.236
		C22.782,35.826,21.925,35.822,21.96,36.374"/>
	<path fill="#D06728" d="M19.762,40.189c1.716-0.263,3.399-0.647,5.06-1.155c0.526-0.161,0.302-0.989-0.229-0.827
		c-1.659,0.508-3.344,0.892-5.06,1.155C18.99,39.447,19.221,40.272,19.762,40.189"/>
	<path fill="#D06728" d="M18.939,36.955c-0.164,1.495-0.403,3.004-0.493,4.505c-0.043,0.706,0.014,1.384,0.696,1.754
		c0.785,0.426,1.796,0.073,2.59-0.129c0.773-0.196,1.545-0.403,2.312-0.621c0.435-0.123,1.062-0.188,1.424-0.479
		c0.612-0.491,0.603-1.496,0.689-2.224c0.114-0.965,0.392-2.586-0.047-3.517c-0.345-0.729-1.073-0.59-1.745-0.496
		c-1.585,0.22-3.152,0.525-4.708,0.895c-0.537,0.127-0.31,0.954,0.228,0.826c0.854-0.202,1.71-0.39,2.573-0.55
		c0.345-0.064,0.69-0.124,1.037-0.18c0.688-0.112,1.239-0.476,1.676,0.184c0.429,0.647,0.247,1.601,0.181,2.351
		c-0.095,1.043-0.008,1.846-1.024,2.216c-1.058,0.385-4.425,1.744-5.054,0.346c-0.208-0.464,0.193-1.872,0.249-2.378
		c0.092-0.835,0.183-1.669,0.273-2.503C19.856,36.406,18.998,36.412,18.939,36.955"/>
	<path fill="#D06728" d="M26.169,35.987c2.242,2.016,3.19,5.358,2.341,8.251c-0.319,1.092-0.93,2.17-1.936,2.701
		c-0.973,0.514-2.138,0.436-3.218,0.644c-0.788,0.151-1.671,0.441-2.338-0.005c-0.613-0.41-0.73-1.243-1.061-1.902
		c-0.201-0.401-0.493-0.751-0.684-1.157c-0.192-0.405-0.27-0.907-0.033-1.288c0.265-0.427,0.815-0.556,1.308-0.648
		c1.388-0.26,2.773-0.519,4.16-0.778c0.329-0.062,0.68-0.133,0.919-0.367c0.236-0.23,0.318-0.571,0.38-0.895
		c0.275-1.448,0.337-2.937,0.186-4.403"/>
	<path fill="#D06728" d="M32.719,44.138c0.764-0.193,1.529-0.375,2.302-0.529c0.632-0.126,2.235-0.652,2.801-0.459
		c0.996,0.34,0.611,1.374,0.697,2.151c0.125,1.139,0.372,0.849-0.381,2.066c-0.721,1.163-1.146,1.307-2.53,1.368
		c-0.818,0.036-1.19-0.159-1.848-0.5c-1.27-0.66-3.219-2.874-1.563-4.281c0.421-0.358-0.188-0.962-0.606-0.607
		c-1.448,1.231-0.697,3.773,0.525,4.881c0.435,0.393,1.006,0.708,1.49,0.998c0.451,0.268,0.33,0.347,0.886,0.424
		c1.1,0.151,2.81-0.16,3.789-0.678c0.767-0.404,1.367-1.09,1.423-1.979c0.045-0.719-0.308-1.422-0.344-2.149
		c-0.027-0.575,0.024-1.117-0.191-1.661c-0.324-0.813-0.799-0.916-1.64-0.851c-1.687,0.129-3.403,0.567-5.038,0.979
		C31.955,43.445,32.183,44.272,32.719,44.138"/>
	<path fill="#D06728" d="M30.743,47.017c2.728-0.312,5.413-0.812,8.067-1.515c0.532-0.141,0.308-0.969-0.228-0.827
		c-2.58,0.683-5.188,1.181-7.84,1.485C30.201,46.222,30.194,47.08,30.743,47.017"/>
	<path fill="#D06728" d="M34.046,43.069c0.43,1.995,0.937,3.968,1.52,5.924c0.158,0.527,0.986,0.303,0.827-0.228
		c-0.584-1.956-1.09-3.929-1.52-5.924C34.756,42.303,33.93,42.53,34.046,43.069"/>
	<path fill="#D06728" d="M30.972,45.839c-1.389-1.028-2.125-2.866-1.831-4.568c0.048-0.283,0.129-0.572,0.318-0.786
		c0.142-0.158,0.329-0.262,0.515-0.364c1.321-0.725,2.644-1.451,3.965-2.177c0.163-0.089,0.334-0.18,0.52-0.178
		c0.575,0.007,0.728,0.775,1.005,1.279c0.214,0.392,0.579,0.673,0.936,0.942c0.564,0.428,1.13,0.855,1.696,1.283
		c0.382,0.289,0.806,0.78,0.54,1.179c-0.153,0.231-0.467,0.283-0.743,0.307c-1.942,0.173-3.974,0.095-5.742,0.914
		c-0.756,0.35-1.514,1.01-1.45,1.84"/>
	<path fill="#D06728" d="M41.001,52.863c-2.336-1.324,0.531-4.525,1.741-5.508c2.106-1.713,3.146-0.317,3.973,1.154
		c0.402,0.716,1.075,1.558,1.237,2.352c0.234,1.153-1.33,3.994-2.291,4.635c-1.693,1.128-3.079-1.862-4.213-2.56
		c-0.472-0.29-0.902,0.451-0.434,0.74c1.292,0.796,1.655,3.044,3.384,3.234c1.009,0.11,1.747-0.617,2.313-1.353
		c0.846-1.102,2.198-2.781,2.175-4.245c-0.022-1.511-1.438-3.433-2.219-4.637c-1.725-2.663-3.893-0.661-5.45,1.094
		c-1.406,1.582-3.242,4.365-0.649,5.834C41.049,53.876,41.48,53.135,41.001,52.863"/>
	<path fill="#D06728" d="M41.86,54.038c2.082-1.144,4.899-2.68,5.725-5.064c0.181-0.523-0.647-0.747-0.827-0.228
		c-0.738,2.132-3.464,3.526-5.33,4.552C40.944,53.564,41.377,54.304,41.86,54.038"/>
	<path fill="#D06728" d="M40.999,48.034c0.66,0.991,1.609,1.529,2.56,2.203c1.442,1.024,1.778,2.483,2.599,3.954
		c0.269,0.482,1.009,0.05,0.74-0.433c-0.669-1.201-0.999-2.595-2.025-3.566c-0.993-0.94-2.355-1.423-3.133-2.591
		C41.436,47.144,40.692,47.573,40.999,48.034"/>
	<path fill="#D06728" d="M44.638,56.919c0.636,0.522,1.549,0.621,2.342,0.402c0.794-0.22,1.483-0.72,2.078-1.289
		c0.789-0.755,1.463-1.691,1.645-2.768c0.204-1.209-0.235-2.439-0.833-3.511c-1.023-1.841-2.74-3.506-4.844-3.631
		c0.527,0.191,1.087,0.407,1.409,0.866c0.379,0.541,0.327,1.274,0.591,1.88c0.339,0.78,1.161,1.266,1.511,2.042
		c0.312,0.69,0.193,1.513-0.135,2.195c-0.329,0.683-0.846,1.253-1.355,1.812C46.188,55.858,45.801,56.399,44.638,56.919"/>
</g>
</svg>
