<?xml version="1.0" encoding="utf-8"?>
<!-- Generator: Adobe Illustrator 16.0.2, SVG Export Plug-In . SVG Version: 6.00 Build 0)  -->
<!DOCTYPE svg PUBLIC "-//W3C//DTD SVG 1.1//EN" "http://www.w3.org/Graphics/SVG/1.1/DTD/svg11.dtd">
<svg version="1.1" id="Layer_1" xmlns="http://www.w3.org/2000/svg" xmlns:xlink="http://www.w3.org/1999/xlink" x="0px" y="0px"
	 width="145.387px" height="37.693px" viewBox="0 0 145.387 37.693" enable-background="new 0 0 145.387 37.693"
	 xml:space="preserve">
<g>
	<path fill="#989898" d="M3.81,24.889c0.995,3.492,1.24,6.311,2.755,9.578c0.342,0.736,1.771,1.96,2.455,2.329
		c0.514,0.276,3.039,0.267,3.613,0.263c1.926-0.015,1.926-0.015,3.85-0.029c1.533-0.01,3.145-0.041,4.479-0.858
		c1.334-0.815,1.315-5.968,2.535-7.046c0.781-0.691,3.821-0.373,4.938,0.486c1.4,1.08,0.958,7.479,3.45,7.479
		c1.03,0,5.812-0.022,6.825,0c3.515,0.082,4.132,0.862,6.508-1.728c1.424-1.551,1.145-5.096,3.07-5.488
		c1.039-0.212,4.043-0.395,4.794,3.193c0.189,0.9,0.48,3.457,1.162,4.028c0.573,0.481,1.364,0.484,2.091,0.466
		c3.201-0.078,6.401-0.158,9.602-0.238c0.986-0.023,2.081-0.096,2.773-0.853c0.612-0.668,0.735-3.261,1.173-4.073
		c0.957-1.771,3.587-2.09,4.885-0.59c0.807,0.93,0.541,2.825,1.358,3.744c0.921,1.035,2.345,1.29,3.666,1.461
		c3.121,0.403,6.784,0.122,9.926,0.207c0.651,0.018,1.328,0.021,1.919-0.273c2.217-1.106-0.375-5.49,4.714-5.496
		c2.452-0.002,2.033,3.664,3.152,4.679c1.063,0.964,2.573,1.033,3.963,1.056c3.123,0.053,6.247,0.105,9.371,0.157
		c1.889,0.032,4.103-0.108,5.161-1.795c0.946-1.506-0.784-5.405,2.437-4.755c0.938,0.189,2.116-0.787,2.079,1.275
		c-0.019,1.028,0.111,2.113,0.598,3.002c0.702,1.287,0.732,1.33,1.935,2.021c1.047,0.603,3.453,0.254,4.822,0.478
		c1.519,0.248,3.988,0.084,5.51-0.14c2.311-0.34,3.398-3.192,4.043-5.606c0.948-3.549,1.896-7.098,2.845-10.646
		c-2.552-0.237-5.118-0.011-7.678,0.097c-2.4,0.102-4.806,0.098-7.209,0.094c-9.708-0.016-19.87-1.194-29.578-1.209
		c-1.605-0.004-0.991-0.361-2.598-0.363c-2.515-0.004-6.797,1.514-9.313,1.509c-11.134-0.017-22.267-0.034-33.4-0.051
		c-0.717-0.002-1.463-0.009-2.109-0.349c-0.504-0.264-0.906-0.713-1.392-1.017c-1.879-1.173-4.184,0.089-6.258,0.774
		c-1.993,0.658-4.103,0.758-6.186,0.824c-11.139,0.349-22.3-0.164-33.37-1.537C2.873,20.873,3.025,22.397,3.81,24.889"/>
	<path fill="#CDCED0" d="M9.106,1.437C3.58,3.196,1.517,9.789,0.262,15.452c-0.202,0.914-0.403,1.877-0.124,2.771
		c0.591,1.89,2.911,2.515,4.873,2.776c11.237,1.502,22.635,0.949,33.958,0.392c1.614-0.079,3.244-0.161,4.799-0.603
		c1.418-0.4,2.83-1.104,4.288-0.892c1.176,0.171,2.176,0.914,3.254,1.414c1.98,0.917,4.229,1.011,6.411,1.062
		c11.257,0.267,22.529-0.154,33.735-1.26c1.557-0.152,1.836-0.953,3.747-1.316c0.606-0.115,1.585,0.232,3.351,1.465
		c1.008,0.703,2.45,0.18,3.678,0.205c11.714,0.234,19.885,0.295,31.598,0.04c2.222-0.05,6.788,1.163,8.437-0.328
		c1.528-1.382,3.397-5.071,3.087-7.108c-0.31-2.038-1.275-3.908-2.228-5.736c-1.239-2.38-2.617-4.903-4.999-6.137
		c-1.771-0.916-3.843-0.981-5.836-1.011c-5.69-0.086-11.381-0.051-17.071-0.016c-8.203,0.05-16.406,0.101-24.61,0.151
		C74.592,1.419,58.574,1.517,42.556,1.616C31.43,1.684,20.304,1.753,9.178,1.821"/>
	<path fill="#FFF6DA" d="M24.178,18.598c-0.111-3.15-0.231-6.352-1.225-9.344c-0.993-2.992-2.996-5.801-5.905-7.017
		c-0.938-0.392-1.941-0.609-2.95-0.753c-1.505-0.216-3.122-0.253-4.452,0.485C8.844,2.413,8.211,3.106,7.639,3.822
		c-2.985,3.734-4.71,8.46-4.828,13.239c-0.011,0.416-0.002,0.857,0.223,1.207c0.294,0.461,0.872,0.634,1.404,0.758
		c3.932,0.915,8.051,1.016,12.022,0.294C18.984,18.861,21.798,17.639,24.178,18.598"/>
	<path fill="#FFF6DA" d="M71.003,19.786c-0.221-3.26-0.279-6.559-1.061-9.73c-0.78-3.173-2.382-6.279-5.069-8.139
		c-2.686-1.86-6.585-2.168-9.149-0.144c-0.764,0.604-1.379,1.376-1.938,2.174c-2.886,4.128-4.413,9.191-4.288,14.226
		c0.005,0.18,0.012,0.362,0.079,0.527c0.115,0.283,0.387,0.47,0.651,0.625c1.781,1.045,3.864,1.441,5.917,1.668
		C61.193,21.548,66.094,21.089,71.003,19.786"/>
	<path fill="#FFF6DA" d="M141.544,19.893c-0.248-3.131-0.181-6.295-0.702-9.392c-0.523-3.098-1.716-6.209-4.049-8.313
		c-2.332-2.104-5.979-2.941-8.709-1.385c-0.894,0.509-1.643,1.233-2.381,1.95c-0.688,0.669-1.381,1.34-1.981,2.089
		c-3.113,3.878-3.427,9.255-3.248,14.224c0.015,0.409,0.049,0.858,0.336,1.149c0.307,0.312,0.793,0.334,1.23,0.336
		c5.534,0.029,11.07,0.059,16.605,0.088C139.84,20.645,140.844,20.861,141.544,19.893"/>
	<path fill="#FFF6DA" d="M93.487,19.083c0.093-2.377,0.185-4.773-0.176-7.125c-0.361-2.353-1.208-4.687-2.789-6.466
		c-0.735-0.828-1.613-1.519-2.536-2.131c-1.279-0.849-2.7-1.57-4.231-1.691c-2.25-0.178-4.443,0.986-6.009,2.613
		c-1.564,1.627-2.601,3.68-3.569,5.719c-1.256,2.644-2.467,5.498-2.082,8.4c0.034,0.256,0.085,0.523,0.245,0.727
		c0.197,0.25,0.521,0.359,0.829,0.445c1.589,0.438,3.248,0.576,4.897,0.584c1.688,0.01,3.376-0.115,5.061-0.242
		c3.546-0.264,7.091-0.528,10.636-0.793"/>
	<path fill="#FFF6DA" d="M117.592,20.243c-0.234-2.633-0.47-5.268-0.703-7.9c-0.118-1.323-0.238-2.657-0.617-3.931
		c-1.082-3.64-4.415-6.505-8.178-7.029c-1.11-0.155-2.271-0.115-3.313,0.297c-1.339,0.53-2.368,1.62-3.305,2.713
		c-1.708,1.995-3.296,4.176-4.036,6.696c-0.706,2.407-0.596,4.966-0.479,7.472c0.011,0.199,0.023,0.412,0.144,0.572
		c0.154,0.21,0.439,0.267,0.698,0.307c6.521,1.011,13.149,1.312,19.735,0.899"/>
	<path fill="#FFF6DA" d="M47.089,18.487c-0.292-2.959-0.592-5.953-1.606-8.749c-1.014-2.795-2.835-5.414-5.479-6.771
		c-0.838-0.429-1.74-0.724-2.657-0.933c-1.802-0.409-3.756-0.475-5.436,0.295c-1.93,0.885-3.233,2.74-4.169,4.646
		c-1.569,3.201-2.359,6.781-2.28,10.346c0.014,0.654,0.076,1.358,0.494,1.862c0.469,0.565,1.257,0.729,1.983,0.838
		c5.299,0.791,10.758,0.496,15.942-0.86C45.071,18.85,45.858,18.42,47.089,18.487"/>
</g>
</svg>
