<?xml version="1.0" encoding="utf-8"?>
<!-- Generator: Adobe Illustrator 16.0.2, SVG Export Plug-In . SVG Version: 6.00 Build 0)  -->
<!DOCTYPE svg PUBLIC "-//W3C//DTD SVG 1.1//EN" "http://www.w3.org/Graphics/SVG/1.1/DTD/svg11.dtd">
<svg version="1.1" id="Layer_1" xmlns="http://www.w3.org/2000/svg" xmlns:xlink="http://www.w3.org/1999/xlink" x="0px" y="0px"
	 width="64.321px" height="104.667px" viewBox="0 0 64.321 104.667" enable-background="new 0 0 64.321 104.667"
	 xml:space="preserve">
<g>
	<path fill="#F26636" d="M2.248,11.495c3.037,6.019,4.07,13.028,2.898,19.667c-0.152,0.869-0.336,1.802,0.033,2.603
		c0.211,0.456,0.58,0.818,0.832,1.252c0.404,0.691,0.484,1.516,0.557,2.312c0.289,3.16,0.576,6.335,0.361,9.501
		c-0.172,2.529-0.664,5.028-0.842,7.558c-0.42,5.943,0.896,11.973-0.117,17.846c-0.412,2.39-1.207,4.715-1.424,7.131
		c-0.162,1.791-0.002,3.594,0.158,5.386c0.219,2.464,0.438,4.927,0.656,7.392c0.176,1.979,0.35,4-0.121,5.93
		s-2.908,2.529-2.455,4.463c0.801,3.414,11.93,1.706,18.52,1.705c9.359-0.002,18.719-0.164,28.074-0.488
		c5.332-0.185,15.479,0.256,14.92-2.082c-0.518-2.17-2.719-3.115-2.732-5.346c-0.004-0.93,0.332-1.835,0.346-2.766
		c0.02-1.211-0.504-2.354-0.936-3.485c-1.219-3.207-1.76-6.671-1.574-10.097c0.219-4.051,1.436-8.059,1.082-12.1
		c-0.402-4.588-2.813-9.027-2.084-13.574c0.117-0.721,0.311-1.429,0.385-2.155c0.086-0.856,0.004-1.718-0.078-2.574
		c-0.537-5.562-1.074-11.124-1.609-16.686c-0.285-2.942-0.564-5.938,0.037-8.832c0.436-2.094,1.322-4.077,1.699-6.182
		c0.693-3.893-0.336-8.229,1.697-11.62c-11.65-1.938-23.504,1.271-35.313,1.334c-4.025,0.022-8.064-0.322-12.07,0.075
		S5.164,9.044,2.201,11.768"/>
	<path fill="#EC2227" d="M0.389,7.458c-0.76-0.884-0.322-2.353,0.6-3.066C1.91,3.679,3.135,3.523,4.295,3.414
		c9.658-0.914,19.398-0.41,29.053,0.543c1.174,0.116,2.385,0.235,3.51-0.114c0.908-0.282,1.699-0.85,2.584-1.196
		c0.893-0.349,1.855-0.464,2.809-0.576c5.795-0.683,11.592-1.366,17.387-2.049c0.223-0.026,0.463-0.049,0.656,0.063
		c0.25,0.144,0.336,0.456,0.393,0.739c0.277,1.356,0.406,2.743,0.383,4.127c-0.006,0.375-0.035,0.779-0.277,1.064
		c-0.27,0.319-0.727,0.394-1.143,0.442c-4.859,0.56-9.775,0.32-14.66,0.599c-4.885,0.278-9.873,1.123-14.072,3.633
		c-0.455-1.313-2.023-1.808-3.391-2.054c-7.531-1.356-15.424-0.628-22.58,2.081C4.352,10.941,3.734,11.185,3.1,11.13
		c-1.723-0.145-2.482-2.2-2.85-3.888"/>
	<path fill="#FFCB0B" d="M25.342,52.269c1.365-1.717,4.293-1.34,5.762-2.971c0.375-0.415,0.623-0.934,1.01-1.338
		c0.588-0.614,1.43-0.901,2.238-1.167c0.98-0.323,1.986-0.65,3.02-0.62c1.031,0.03,2.115,0.489,2.609,1.396
		c0.592,1.08,0.174,2.49-0.666,3.392c-0.838,0.901-2.01,1.405-3.152,1.864c-2.898,1.166-5.895,2.216-9.012,2.438
		c-0.273,0.02-0.561,0.031-0.813-0.074c-0.352-0.146-0.576-0.488-0.779-0.811c-0.307-0.486-0.625-1.018-0.582-1.59
		c0.041-0.573,0.635-1.128,1.164-0.903"/>
	<path fill="#FFCB0B" d="M38.934,57.644c1.982,0.124,2.988,2.408,4.947,2.65c0.5,0.062,1.025-0.02,1.52,0.057
		c0.754,0.115,1.359,0.576,1.932,1.023c0.697,0.543,1.408,1.101,1.846,1.855s0.555,1.76,0.051,2.566
		c-0.598,0.961-1.91,1.363-3.006,1.211c-1.094-0.151-2.02-0.74-2.896-1.33c-2.227-1.498-4.404-3.123-5.975-5.246
		c-0.139-0.187-0.275-0.385-0.305-0.619c-0.041-0.326,0.133-0.657,0.299-0.963c0.252-0.463,0.533-0.954,1.01-1.209
		c0.475-0.256,1.186-0.106,1.24,0.385"/>
	<path fill="#FFCB0B" d="M28.088,60.015c-0.176-1.035-0.324-2.195,0.285-3.049c0.639-0.893,1.891-1.108,2.977-0.963
		c2.232,0.296,4.248,1.865,5.082,3.957c0.145,0.367,0.258,0.748,0.369,1.128l0.65,2.209c0.102,0.349,0.205,0.709,0.166,1.071
		c-0.082,0.772-0.824,1.351-1.592,1.468c-0.768,0.116-1.545-0.134-2.252-0.455C31.426,64.311,29.188,62.349,28.088,60.015"/>
	<path fill="#FFCB0B" d="M45.273,50.467c-2.086,0.393-4.174,0.786-6.26,1.179c-0.359,0.068-0.725,0.138-1.041,0.322
		c-0.539,0.314-0.852,0.925-0.943,1.542c-0.293,2,1.607,3.803,3.609,4.1c2,0.297,3.992-0.512,5.793-1.432
		c0.309-0.158,0.637-0.341,0.781-0.656c0.133-0.287,0.082-0.625-0.016-0.926c-0.465-1.461-1.926-2.73-1.555-4.219"/>
	<path fill="#FFCB0B" d="M22.711,63.849c-0.307-0.827,0.221-1.791,0.992-2.217c0.773-0.426,1.711-0.422,2.582-0.281
		c1.637,0.264,3.256,1.022,4.232,2.361c0.977,1.34,1.162,3.312,0.172,4.641c-0.338,0.451-0.871,0.836-1.424,0.734
		c-0.27-0.051-0.504-0.209-0.719-0.378c-0.75-0.587-1.355-1.336-2.014-2.024C25.189,65.276,24.453,64.714,22.711,63.849"/>
	<path fill="#FFCB0B" d="M21.008,51.038c0.686-0.554,1.768-0.362,2.418,0.234c0.65,0.595,0.945,1.486,1.092,2.356
		c0.271,1.635,0.07,3.411-0.887,4.764c-0.957,1.354-2.768,2.159-4.344,1.646c-0.535-0.175-1.068-0.558-1.148-1.115
		c-0.039-0.271,0.037-0.544,0.127-0.802c0.316-0.898,0.834-1.71,1.275-2.555C20.445,53.842,20.744,52.967,21.008,51.038"/>
	<path fill="#2C3A96" d="M21.365,62.132c-0.566-1.866-0.734-3.832-0.744-5.782c-0.006-1.403,0.072-2.833,0.553-4.152
		c0.822-2.257,2.729-3.943,4.721-5.283c3.5-2.352,7.66-3.69,11.871-3.46c1.508,0.082,2.979,0.115,4.455,0.43l3.094,0.659
		c0.51-0.616-0.162-1.492-0.783-1.996c-1.346-1.092-2.723-2.203-4.352-2.791c-1.428-0.517-2.971-0.603-4.486-0.664
		c-2.781-0.111-5.643-0.142-8.246,0.838c-1.721,0.648-3.25,1.709-4.762,2.76c-0.584,0.408-1.193,0.842-1.514,1.479
		c-0.24,0.478-0.293,1.023-0.385,1.55c-0.23,1.346-0.725,2.631-1.063,3.953c-0.533,2.078-0.68,4.232-0.824,6.373
		c-0.049,0.721-0.098,1.445-0.01,2.162c0.219,1.75,1.301,3.371,2.832,4.24"/>
	<path fill="#2C3A96" d="M21.584,71.478c2.162,1.336,4.818,1.523,7.357,1.628c1.428,0.06,2.871,0.103,4.27-0.19
		c1.08-0.229,2.111-0.653,3.086-1.172c3.313-1.756,6.027-4.613,7.613-8.011s2.031-8.269,1.25-11.936
		c1.17,0.238,2.133,2.08,2.709,3.125s0.814,2.24,0.969,3.424c0.697,5.361-0.322,11.139-3.756,15.316
		c-0.584,0.711-1.238,1.375-2.008,1.877c-1.338,0.873-2.943,1.211-4.506,1.535c-1.264,0.26-2.537,0.522-3.824,0.506
		c-0.697-0.009-1.393-0.099-2.078-0.227c-4.221-0.784-8.096-2.98-11.303-5.836"/>
	<path fill="#B72027" d="M45.162,44.358c2.338,0.421,3.85,2.647,5.02,4.713c1.555,2.747,3.033,5.756,2.773,8.902
		c-0.148,1.785-0.85,3.471-1.541,5.123c-0.428,1.021-0.857,2.043-1.285,3.064c-0.768,1.83-1.809,4.785-3.641,5.543
		c0.098-1.975,0.766-4.848,1.117-6.793c0.438-2.43,0.551-4.916,0.332-7.375c-0.135-1.54-0.428-3.134-1.355-4.37
		c-0.736-0.981-1.809-1.647-2.854-2.289c-1.75-1.076-3.523-2.163-5.486-2.768c-1.844-0.567-3.791-0.689-5.717-0.807
		c-2.115-0.13-6.414,0.049-8.316,0.987c2.057-2.949,7.789-4.736,11.373-5.019c3.584-0.282,7.158,0.491,10.67,1.26"/>
	<path fill="#B72027" d="M20.986,44.687c-2.209,2.056-4.824,5.719-5.529,8.652c-0.273,1.135-0.285,2.313-0.377,3.476
		c-0.09,1.142-0.256,2.293-0.066,3.423c0.174,1.039,0.641,2.004,0.943,3.012c0.223,0.746,0.355,1.516,0.613,2.25
		c0.488,1.394,1.398,2.595,2.293,3.77c0.422,0.553,0.848,1.109,1.352,1.587c2.041,1.935,5.063,2.339,7.869,2.47
		c2.375,0.109,4.813,0.084,7.051-0.719c2.238-0.804,5.988-3.158,6.613-5.453c-4.633,2-12.092,1.758-15.904-1.547
		c-0.867-0.753-1.641-1.617-2.555-2.313c-1.605-1.225-3.031-1.58-3.82-3.439c-0.754-1.781-0.666-4.248-0.123-6.105
		c0.67-2.287,1.738-6.396,1.641-8.778"/>
</g>
</svg>
