<?xml version="1.0" encoding="utf-8"?>
<!-- Generator: Adobe Illustrator 16.0.2, SVG Export Plug-In . SVG Version: 6.00 Build 0)  -->
<!DOCTYPE svg PUBLIC "-//W3C//DTD SVG 1.1//EN" "http://www.w3.org/Graphics/SVG/1.1/DTD/svg11.dtd">
<svg version="1.1" id="Layer_1" xmlns="http://www.w3.org/2000/svg" xmlns:xlink="http://www.w3.org/1999/xlink" x="0px" y="0px"
	 width="91.155px" height="39.792px" viewBox="0 0 91.155 39.792" enable-background="new 0 0 91.155 39.792" xml:space="preserve">
<g>
	<path fill="#079247" d="M39.541,14.988c1.216-1.143,2.772-1.987,4.362-2.484c0.588-0.184,1.249-0.165,1.814-0.398
		c0.705-0.292,1.332-0.953,1.941-1.405c2.748-2.039,5.49-2.614,9.301-3.654c2.877-0.783,5.268-1.509,8.146-2.287
		c1.735-0.469,3.972-0.562,5.663-1.173c4.709-1.702,6.792-1.136,13.785-2.712c1.008-0.228,2.864-0.76,3.893-0.859
		c1.03-0.1,2.207,0.326,2.586,1.29c0.313,0.589-0.006,1.354-0.535,1.76c-0.53,0.406-1.213,0.541-1.869,0.664
		C81.689,5.029,74.751,6.33,67.813,7.631c-7.558,1.417-15.586,3.07-21.095,8.436c6.691-2.368,13.627-4.045,20.661-4.996
		c2.865-0.388,5.745-0.655,8.624-0.922c3.696-0.343,7.392-0.687,11.087-1.028c0.677-0.063,1.573,0.019,1.734,0.679
		c0.18,0.734-0.754,1.201-1.49,1.372c-3.864,0.899-7.729,1.799-11.594,2.697c-2.24,0.521-4.494,1.044-6.79,1.188
		c-1.605,0.1-3.215,0.014-4.823,0.022c-3.356,0.021-6.694,0.462-10.021,0.902c-1.947,0.257-3.913,0.519-5.757,1.195
		c-1.876,0.688-4.231,1.197-5.974,2.175c-1.545,0.865-3.863,2.214-5.48,2.936c-4.912,2.193-8.65,3.894-13.541,6.138
		c-2.451,1.125-4.642,2.617-7.013,3.861c-2.147,1.126-4.146,2.391-6.623,2.682c-0.573,0.068-1.32-0.02-1.477-0.575
		c-0.098-0.352,0.107-0.716,0.104-1.079c-0.006-0.486-0.375-0.891-0.492-1.362c-0.194-0.782,0.359-1.586,1.058-1.986
		c0.7-0.399,1.523-0.504,2.309-0.679c1.25-0.278,2.446-0.75,3.637-1.221c4.02-1.588,8.05-3.183,11.856-5.232
		c0.6-0.323,1.199-0.66,1.851-0.859c0.675-0.209,1.386-0.265,2.082-0.389c2.202-0.391,4.275-1.485,5.839-3.086
		C37.57,17.389,38.41,16.051,39.541,14.988"/>
	<path fill="#F4D49D" d="M8.146,34.905c-1.032,0.561-1.63,1.655-2.351,2.583c-0.707,0.908-1.574,1.691-2.55,2.304
		c-0.222-0.11-0.088-0.448,0.071-0.639c1.183-1.419,2.379-2.825,3.588-4.222c-0.684-0.211-1.256,0.515-1.662,1.104
		c-0.786,1.139-1.801,2.119-2.967,2.864c-0.221-0.644,0.347-1.268,0.862-1.714c0.846-0.732,1.692-1.465,2.537-2.197
		c-1.658,0.845-3.355,1.613-5.083,2.304c-0.112-0.441,0.178-0.9,0.556-1.153c0.379-0.253,0.834-0.355,1.263-0.506
		c0.514-0.18,0.999-0.431,1.482-0.681c0.803-0.416,1.606-0.832,2.409-1.248c-2.106,0.137-3.973,1.708-6.08,1.601
		c0.392-0.648,1.163-0.945,1.878-1.198c1.343-0.475,2.685-0.948,4.028-1.424c-1.783,0.154-3.567,0.309-5.35,0.461
		C0.489,33.169,0.133,33.159,0,32.903c2.049-1.028,4.417-1.154,6.708-1.261C5.069,31.562,3.43,31.481,1.791,31.4
		c-0.138-0.007-0.292-0.02-0.384-0.122c-0.121-0.136-0.066-0.363,0.068-0.485c0.133-0.122,0.319-0.165,0.496-0.2
		c1.734-0.349,3.523-0.423,5.28-0.22c0.253,0.028,0.522,0.072,0.707,0.245c0.089,0.084,0.151,0.19,0.207,0.299
		c0.568,1.087,0.662,2.41,0.255,3.566c-0.097,0.275-0.324,0.594-0.604,0.511"/>
	<path fill="#FFEDD5" d="M17.445,31.728c-1.187,0.671-2.58,1.311-3.766,1.981c-1.283,0.726-2.678,1.476-4.143,1.312
		c-0.335-0.037-1.04-0.034-1.204-0.329c-0.194-0.347,0.197-0.928,0.151-1.323c-0.08-0.694,0.199-0.811-0.026-1.4
		c-0.112-0.297-0.429-0.979-0.33-1.28c0.071-0.22,0.431-0.429,0.611-0.573c1.156-0.924,2.572-1.519,4.041-1.697
		c0.996-0.122,1.688-0.124,2.915-0.623c0.168-0.068,0.337-0.221,0.499-0.14c0.064,0.033,0.11,0.093,0.148,0.153
		c0.226,0.367,0.227,0.823,0.269,1.252c0.084,0.852,0.356,1.682,0.792,2.417"/>
</g>
</svg>
