<?xml version="1.0" encoding="utf-8"?>
<!-- Generator: Adobe Illustrator 16.0.2, SVG Export Plug-In . SVG Version: 6.00 Build 0)  -->
<!DOCTYPE svg PUBLIC "-//W3C//DTD SVG 1.1//EN" "http://www.w3.org/Graphics/SVG/1.1/DTD/svg11.dtd">
<svg version="1.1" id="Layer_1" xmlns="http://www.w3.org/2000/svg" xmlns:xlink="http://www.w3.org/1999/xlink" x="0px" y="0px"
	 width="92.113px" height="32.247px" viewBox="0 0 92.113 32.247" enable-background="new 0 0 92.113 32.247" xml:space="preserve">
<g>
	<path fill="#EEA820" d="M0.516,3.094c0.188-0.683-0.353-1.698-0.382-2.397c0.904-0.511,2.173-1.018,3.014-0.439
		c0.461,0.316,0.579,0.846,0.663,1.329C5.476,11.18,5.26,20.921,4.722,30.6c-0.024,0.427-0.06,0.883-0.376,1.226
		c-0.678,0.733-2.239,0.434-2.872-0.325s-0.615-1.743-0.593-2.658c0.105-4.258-0.18-8.521,0.09-12.774
		C1.274,11.307,2.232,6.331,0,1.918"/>
	<path fill="#FFCB0B" d="M2.472,0.847c9.142,0.589,18.339,0.607,27.484,0.058c0.73,4.425,0.793,8.923,0.188,13.361
		c-0.402,2.941-1.096,5.867-1.147,8.827c-0.043,2.437,0.352,4.862,0.746,7.278c-3.68,0.563-7.438-0.257-11.167-0.535
		c-5.055-0.381-10.138,0.237-15.136,0.959c0.591-2.117,0.541-4.313,0.487-6.483C3.733,16.466,3.539,8.621,3.345,0.775"/>
	<path fill="#B72027" d="M83.911,1.041c2.734-0.157,5.469-0.316,8.203-0.475c-0.49,1.019-0.86,2.076-1.105,3.151
		c-0.323,1.419-0.427,2.862-0.531,4.303c-0.285,3.979-0.571,7.96-0.779,11.942c-0.126,2.412-0.223,4.827-0.249,7.241
		c-0.009,0.826,0.01,1.708,0.579,2.395c0.254,0.306,0.622,0.584,0.664,0.952c0.079,0.706-1.017,1.07-1.888,1.146
		c-0.878,0.076-1.765,0.09-2.646,0.041c-0.309-0.017-0.638-0.048-0.874-0.21c-0.304-0.207-0.363-0.562-0.4-0.882
		c-1.132-9.84-1.012-19.743-0.89-29.626"/>
	<path fill="#ED2024" d="M83.995,1.019c-4.505,0.05-8.766-0.782-13.272-0.73c-0.662,2.379-0.792,5.438-0.507,7.866
		c0.334,2.842-0.03,5.64-0.399,8.478c-0.583,4.489-0.154,9.733,0.21,14.238c0.017,0.217,0.043,0.447,0.207,0.619
		c0.245,0.255,0.697,0.286,1.095,0.298c4.42,0.119,8.841-0.508,13.261-0.388c0.255,0.007,0.535,0.006,0.729-0.128
		c0.197-0.137,0.238-0.368,0.258-0.578c0.202-2.189-0.468-4.362-0.819-6.541c-0.473-2.942-0.362-5.923-0.369-8.89
		C84.375,10.305,84.671,5.947,83.995,1.019"/>
	<path fill="#F4D49D" d="M29.956,0.905c14.02-0.757,26.266-0.661,40.314-0.453c1.684,6.436-0.447,13.076-0.667,19.651
		c-0.067,2.007,0.044,4.014,0.156,6.019l0.306,5.478c-13.669,0.441-27.399-1.905-41.046-1.134c-0.26-2.374-0.477-4.359-0.737-6.733
		c-0.161-1.475-0.323-2.961-0.125-4.432c0.242-1.807,1.016-3.534,1.493-5.309c0.743-2.767,0.756-5.661,0.036-8.431
		c-0.435-1.674-0.375-2.911-0.095-4.606"/>
	<path fill="#FFEDD5" d="M56.651,0.368C52.525,5.215,45.807,8.11,40.397,12.046c-2.733,1.989-5.359,4.357-8.934,5.046
		c2.24,0.226,4.429,0.787,6.422,1.645c0.487,0.211,0.982,0.452,1.269,0.833c0.404,0.537,0.311,1.226,0.574,1.817
		c0.387,0.87,1.539,1.542,1.44,2.463c-0.065,0.605-0.695,1.09-1.398,1.3c-0.703,0.209-1.473,0.197-2.221,0.183
		c1.074,0.54,2.248,0.949,3.471,1.211c0.306,0.065,0.633,0.121,0.934,0.042c0.307-0.081,0.532-0.288,0.745-0.485
		c7.124-6.566,17.207-10.494,25.354-16.229c1.277-0.898,2.528-1.865,3.321-3.075c1.157-1.767,1.427-4.486,0.102-5.776
		c-0.754-0.732-0.4-0.583-0.754-0.732c-0.291-0.123-0.632-0.134-0.961-0.14C65.509,0.074,61.25,0.26,57.034,0.705"/>
	<path fill="#C9A877" d="M31.425,17.19c-0.708,0.343-1.05,1.047-1.057,1.715s0.268,1.313,0.543,1.943
		c0.629,1.439,1.375,2.972,2.955,3.805c1.058,0.558,2.353,0.723,3.607,0.845c0.867,0.085,1.817,0.142,2.546-0.248
		c0.808-0.433,1.093-1.292,1.103-2.076c0.031-2.283-1.899-4.497-4.567-5.238c-0.732-0.202-1.5-0.303-2.264-0.4
		c-1.101-0.144-2.202-0.286-3.302-0.428"/>
	<path fill="#FFEDD5" d="M35.153,23.416c1.058,0.304,2.527-0.296,2.396-1.59c-0.145-1.422-1.93-1.91-3.102-1.885
		c-0.586,0.014-1.581,0.019-1.987,0.49c-0.42,0.489-0.114,1.574,0.07,2.093c0.477,1.343,1.616,2.486,3.062,2.662
		c3.43,0.416,5.221-3.502,2.377-5.625c-1.349-1.007-3.539-1.53-5.174-1.013c-1.202,0.38-2.007,1.55-1.09,2.632
		c0.26,0.307,0.698-0.136,0.44-0.439c0.272-0.53,0.544-1.062,0.815-1.593c0.307-0.092,0.618-0.138,0.934-0.14
		c0.349-0.017,0.683,0.015,1.029,0.061c0.825,0.105,1.64,0.342,2.356,0.775c1.928,1.169,2.093,3.923-0.314,4.615
		c-1.691,0.485-3.273-0.525-3.831-2.143c-0.145-0.42-0.316-0.876-0.096-1.291c0.25-0.471,0.881-0.461,1.409-0.463
		c0.409-0.001,0.875,0.021,1.262,0.16c0.874,0.152,1.079,0.587,0.616,1.306c0.081,0.826-0.255,1.089-1.007,0.786
		C34.933,22.705,34.768,23.305,35.153,23.416"/>
</g>
</svg>
