<?xml version="1.0" encoding="utf-8"?>
<!-- Generator: Adobe Illustrator 16.0.2, SVG Export Plug-In . SVG Version: 6.00 Build 0)  -->
<!DOCTYPE svg PUBLIC "-//W3C//DTD SVG 1.1//EN" "http://www.w3.org/Graphics/SVG/1.1/DTD/svg11.dtd">
<svg version="1.1" id="Layer_1" xmlns="http://www.w3.org/2000/svg" xmlns:xlink="http://www.w3.org/1999/xlink" x="0px" y="0px"
	 width="47.411px" height="35.029px" viewBox="0 0 47.411 35.029" enable-background="new 0 0 47.411 35.029" xml:space="preserve">
<g>
	<path fill="#D06728" d="M35.173,11.967c0.232,3.374,0.464,6.78-0.043,10.123c-0.507,3.343-1.821,6.666-4.266,9.002
		c-2.216,2.117-5.215,3.28-8.247,3.712c-3.033,0.432-6.123,0.18-9.16-0.224c-1.24-0.166-2.495-0.362-3.638-0.87
		c-0.607-0.269-1.199-0.63-1.862-0.669c-0.5-0.03-0.995,0.13-1.496,0.116c-1.131-0.029-2.038-0.901-2.822-1.716
		c-0.952-0.989-1.921-2.002-2.502-3.246c-1.126-2.407-0.62-5.234,0.034-7.81c1.097-4.318,1.583-6.461,4.324-10.788
		c1.339-2.112,2.735-3.87,4.983-4.965c1.156-0.562,3.957-1.532,5.203-1.847c2.826-0.715,6.338-0.792,8.832,0.718
		c0.982,0.594,2.064,1.173,3.147,1.548c0.968,0.336,2.642,1.35,3.47,1.953c0.403,0.294,0.707,0.701,1.004,1.102
		c0.973,1.315,1.947,2.629,2.921,3.944"/>
	<path fill="#FFCB0B" d="M0.519,25.937c-0.323,0.848-0.652,1.755-0.464,2.642c0.125,0.584,0.466,1.099,0.841,1.564
		c0.839,1.042,1.89,1.913,3.068,2.544c0.374,0.2,0.761,0.377,1.167,0.498c0.208,0.062,0.521,0.042,0.535-0.174
		c0.006-0.074-0.032-0.144-0.071-0.207c-0.85-1.364-2.791-1.744-3.607-3.127c-0.604-1.021-0.453-2.371-1.108-3.358
		c-0.074-0.112-0.17-0.224-0.302-0.244s-0.282,0.115-0.225,0.236"/>
	<path fill="#FFCB0B" d="M1.39,25.816c1.645-1.648,2.634-3.845,4.204-5.565c0.893-0.979,1.956-1.784,3.013-2.583
		c1.012-0.765,2.029-1.533,3.151-2.124c1.074-0.566,2.229-0.96,3.382-1.342c4.838-1.604,9.744-3.034,14.753-3.979
		c-5.992,0.599-11.821,2.282-17.532,4.19c-0.914,0.305-1.835,0.621-2.652,1.13c-0.946,0.588-1.719,1.411-2.479,2.225
		c-2.257,2.418-4.544,4.892-5.958,7.882"/>
	<path fill="#FFCB0B" d="M3.346,29.61c1.287-0.471,2.399-1.313,3.491-2.142c3.692-2.809,7.386-5.617,11.078-8.426
		c1.085-0.825,2.174-1.652,3.357-2.328c1.101-0.629,2.273-1.121,3.431-1.637c2.121-0.944,4.205-1.973,6.245-3.083
		c-1.059,1.33-2.705,2.018-4.248,2.733c-1.736,0.805-3.426,1.707-5.061,2.702c-1.51,0.918-2.971,1.915-4.431,2.911
		c-0.979,0.668-1.96,1.337-2.936,2.011c-2.237,1.546-4.459,3.126-6.488,4.938c-1.354,1.209-2.886,2.615-4.688,2.407
		c0.091-0.021,0.182-0.042,0.272-0.062"/>
	<path fill="#FFCB0B" d="M27.428,7.735c-5.814-0.401-11.963-0.299-17.034,2.572c-1.021,0.578-1.998,1.276-2.701,2.214
		c-0.577,0.771-0.949,1.673-1.449,2.495C5.035,17,3.028,18.62,2.661,20.915c0.774-2.141,1.626-4.271,2.845-6.195
		c1.218-1.924,2.826-3.646,4.84-4.711c1.458-0.771,2.846-2.237,4.46-2.581c1.873-0.399,4.561-0.554,6.459-0.808
		c2.253-0.301,4.018,0.395,6.198,1.038"/>
	<path fill="#FFCB0B" d="M6.859,31.677c4.768-0.044,9.451-1.614,13.531-4.079c1.15-0.694,2.263-1.465,3.225-2.403
		c0.676-0.659,1.271-1.396,1.928-2.075c1.308-1.352,2.851-2.46,4.163-3.807c1.313-1.348,2.42-3.03,2.538-4.908
		c-0.082,1.764-0.805,3.449-1.786,4.917c-0.982,1.467-2.22,2.742-3.449,4.008c-1.175,1.209-2.364,2.431-3.791,3.328
		c-0.786,0.495-1.632,0.883-2.476,1.271c-4.149,1.905-8.427,3.842-12.986,4.078c-0.392,0.02-0.889-0.041-1.008-0.415"/>
	<path fill="#FFCB0B" d="M34.083,19.592c-1.218,1.535-2.435,3.071-3.652,4.606c-0.89,1.123-1.784,2.25-2.824,3.235
		c-3.66,3.465-8.756,4.867-13.631,6.149c5.975-0.278,11.451-3.537,15.868-7.569c1.695-1.548,3.315-3.279,4.157-5.416
		c0.116-0.295,0.213-0.646,0.044-0.915c-0.142-0.047-0.313,0.045-0.354,0.188"/>
	<path fill="#FFCB0B" d="M31.489,6.596c0.598-0.552,1.461-0.803,2.262-0.658c0.798,0.144,1.561,0.655,2.355,0.493
		c0.645-0.132,1.138-0.71,1.294-1.349c0.157-0.638,0.021-1.319-0.243-1.921C36.998,2.799,36.79,2.438,36.8,2.045
		c0.02-0.703,0.721-1.187,1.391-1.4c2.607-0.83,5.633,0.617,8.108-0.548c0.107-0.051,0.22-0.107,0.338-0.096
		c0.304,0.029,0.384,0.456,0.267,0.738c-0.211,0.507-0.759,0.804-1.301,0.901c-0.541,0.097-1.097,0.034-1.646,0.037
		c-0.869,0.006-1.737,0.181-2.54,0.512c-0.23,0.095-0.496,0.282-0.438,0.523c0.025,0.105,0.109,0.185,0.195,0.251
		c0.89,0.692,2.142,0.54,3.269,0.502c1.129-0.038,2.482,0.227,2.903,1.273c0.063,0.156,0.099,0.339,0.02,0.486
		c-0.101,0.187-0.339,0.245-0.548,0.273c-1.535,0.209-3.136-0.092-4.49-0.843c-0.417-0.232-0.818-0.507-1.275-0.644
		c-0.458-0.138-1.001-0.109-1.351,0.215C39.5,4.413,39.387,4.672,39.293,4.93c-0.569,1.569-0.732,3.542-2.192,4.35
		c-0.365,0.203-0.79,0.31-1.107,0.582c-0.42,0.359-0.574,0.931-0.712,1.465c-0.07,0.273-0.2,0.599-0.48,0.629
		c-0.124,0.013-0.244-0.04-0.356-0.094c-1.018-0.49-1.938-1.18-2.692-2.019c-0.451-0.499-0.853-1.071-1.001-1.726
		C30.603,7.46,30.986,7.042,31.489,6.596"/>
</g>
</svg>
