<?xml version="1.0" encoding="utf-8"?>
<!-- Generator: Adobe Illustrator 16.0.2, SVG Export Plug-In . SVG Version: 6.00 Build 0)  -->
<!DOCTYPE svg PUBLIC "-//W3C//DTD SVG 1.1//EN" "http://www.w3.org/Graphics/SVG/1.1/DTD/svg11.dtd">
<svg version="1.1" id="Layer_1" xmlns="http://www.w3.org/2000/svg" xmlns:xlink="http://www.w3.org/1999/xlink" x="0px" y="0px"
	 width="60.746px" height="67.972px" viewBox="0 0 60.746 67.972" enable-background="new 0 0 60.746 67.972" xml:space="preserve">
<g>
	<path fill="#ED2024" d="M1.976,34.049c-1.058-4.17-2.125-8.41-1.959-12.71c0.166-4.299,1.741-8.742,5.111-11.417
		c2.385-1.892,5.414-2.731,8.353-3.526c6.671-1.805,13.341-3.609,20.012-5.414c2.911-0.787,6.091-1.56,8.858-0.363
		c1.317,0.569,2.412,1.539,3.483,2.493c2.391,2.131,4.835,4.328,6.31,7.171c1.074,2.071,1.578,4.382,2.071,6.663
		c1.941,8.976,3.882,17.953,5.823,26.93c0.525,2.426,1.048,4.96,0.421,7.362c-1.17,4.481-5.845,7.004-10.178,8.64
		c-11.582,4.374-23.942,6.208-36.19,8.014c-0.524,0.076-1.075,0.151-1.569-0.039c-0.664-0.257-1.159-0.885-1.386-1.56
		c-3.759-11.183-5.049-22.086-9.24-32.854"/>
	<path fill="#FFF6DA" d="M15.614,42.008c-3.663-3.318-7.358-6.829-9.38-11.339C4.211,26.159,4.246,20.372,7.6,16.742
		c1.944-2.104,4.712-3.229,7.437-4.112c5.314-1.723,10.842-2.783,16.416-3.149c5.999-0.393,12.713,0.321,16.74,4.785
		c3.737,4.143,4.054,10.291,3.641,15.854c-0.1,1.348-0.244,2.735-0.886,3.925c-0.843,1.561-2.42,2.563-3.961,3.441
		c-5.244,2.985-10.918,5.337-16.884,6.238C24.136,44.627,21.025,44.679,15.614,42.008"/>
	<path fill="#EEA820" d="M20.245,30.401c-1.051,0.769-2.515,2.062-2.948,3.288c2.503,0.876,5.08,1.795,7.041,3.582
		c0.76,0.693,1.412,1.504,2.224,2.136c0.886,0.688,1.934,1.14,3.002,1.482c4.691,1.503,9.281,1.312,14.955-1.941"/>
	<path fill="#FFCB0B" d="M20.696,34.789c-1.645,0.341-3.484,1.863-4.702,3.021c1.228,0.04,2.455,0.081,3.683,0.122
		c0.209,0.008,0.426,0.017,0.611,0.114c0.382,0.205,0.481,0.737,0.335,1.144c-0.147,0.408-0.475,0.72-0.793,1.016
		c2.453,0.488,4.906,0.975,7.358,1.463c3.092,0.615,8.139,1.527,11.782-0.291c0,0-4.793-0.222-9.789-2.178
		S22.592,34.396,20.696,34.789"/>
	<path fill="#FFCB0B" d="M51.45,30.883c-3.359,0.626-6.814,0.741-10.207,0.34c-4.265-0.504-8.394-1.812-12.627-2.537
		s-8.751-0.829-12.649,0.974c2.487,0.747,5.06,1.115,6.712,3.038c0.849,0.989,1.474,2.164,2.393,3.089
		c2.238,2.25,5.706,2.585,8.874,2.789c1.542,0.101,3.084,0.2,4.626,0.299c2.495,0.161,5.075,0.312,7.424-0.545
		c3.099-1.129,5.457-4.072,5.883-7.343"/>
</g>
</svg>
