<?xml version="1.0" encoding="utf-8"?>
<!-- Generator: Adobe Illustrator 16.0.2, SVG Export Plug-In . SVG Version: 6.00 Build 0)  -->
<!DOCTYPE svg PUBLIC "-//W3C//DTD SVG 1.1//EN" "http://www.w3.org/Graphics/SVG/1.1/DTD/svg11.dtd">
<svg version="1.1" id="Layer_1" xmlns="http://www.w3.org/2000/svg" xmlns:xlink="http://www.w3.org/1999/xlink" x="0px" y="0px"
	 width="50.491px" height="36.072px" viewBox="0 0 50.491 36.072" enable-background="new 0 0 50.491 36.072" xml:space="preserve">
<g>
	<path fill="#FFFFFF" d="M4.857,4.834c0.246,6.479,0.807,13.871,0.432,20.344c-0.04,0.688-0.083,1.4,0.173,2.039
		c0.256,0.641,0.908,1.178,1.587,1.063c-0.053,1.699-0.105,3.398-0.16,5.098c-0.013,0.42-0.017,0.869,0.217,1.219
		c0.338,0.5,1.023,0.594,1.625,0.641c9.083,0.691,18.199,0.955,27.308,0.787c1.592-0.029,3.208-0.076,4.727-0.555
		c0.813-0.258,1.636-0.68,2.043-1.428c0.241-0.443,0.313-0.957,0.357-1.461c0.093-1.043,0.089-2.096-0.011-3.141
		c-0.055-0.572-0.138-1.158,0.006-1.715c0.143-0.557,0.582-1.086,1.156-1.129c0.323-0.023,0.718,0.084,0.926-0.166
		c0.096-0.115,0.115-0.275,0.129-0.426c0.123-1.4,0.042-2.822-0.24-4.201c-0.224-1.098-0.574-2.17-0.714-3.279
		c-0.142-1.113-0.068-2.24-0.014-3.359c0.117-2.48,0.14-4.967,0.161-7.451c0.008-0.76,0.32-2.412-0.279-2.879
		c-0.514-0.4-1.702-0.191-2.346-0.293c-11.61-1.828-21.957,0.438-33.003,0.51c-1.351,0.01-2.692-0.973-3.933-0.438"/>
	<path fill="#416FB6" d="M4.813,7.762C17.735,7.078,30.689,7.01,43.619,7.559c0.284,0.012,0.585,0.029,0.816,0.193
		c0.341,0.242,0.414,0.709,0.459,1.123c0.364,3.369-0.029,6.754,0.245,10.131c0.171,2.098-0.077,2.834,0.245,4.443
		c0.063,0.318,0.039,1.873,0.073,2.197c0.147,1.393-1.287,1.92-1.979,2.053c-4.071,0.787-7.653,0.557-11.799,0.439
		c-8.334-0.234-14.921,1.246-23.231,0.588c-0.277-0.023-1.042-0.295-1.319-0.295c-2.639,0-2.676-2.283-2.686-2.66
		c-0.1-3.715-0.146-4.977-0.026-6.061c0.543-4.926,0.619-7.064,0.489-12.018"/>
	<path fill="#FFFFFF" d="M2.769,3.09C2.707,1.938,3.611,0.912,4.671,0.457C5.731,0.004,6.922-0.002,8.075,0
		C19.367,0.016,30.66,0.031,41.953,0.049c1.097,0,2.216,0.006,3.259,0.348s2.016,1.086,2.347,2.131
		c-9.719,1.166-19.57,1.201-29.297,0.105C14.213,2.178,9.22,2.693,5.15,2.488C3.972,2.43,3.881,3.482,2.951,3.002"/>
	<path fill="#416FB6" d="M0.681,5.188c16.321,0.109,32.644,0.219,48.965,0.328c2.116-0.096-0.083-3.32-2.795-3.246
		C29.4,2.74,25.377,2.195,11.052,2.162C7.437,2.154,3.468,1.615,0.58,3.791C0.33,3.98,0.079,4.207,0.012,4.512
		c-0.067,0.307,0.153,0.686,0.466,0.66"/>
	<path fill="#2C3A96" d="M20.732,17.975c0.158-2.813,3.997-3.152,6.062-3.607c1.479-0.326,2.345-0.557,3.72,0.23
		c1.74,0.998,2.907,2.734,1.583,4.725c-1.298,1.951-4.362,2.197-6.48,2.549c-0.49,0.082-0.98,0.162-1.471,0.244
		c-1.223,0.662-1.727,0.389-1.511-0.816c-0.298-1.709,1.35-2.035,2.674-2.607c1.677-0.729,0.229-3.184-1.438-2.461
		c-2.061,0.895-4.29,2.135-4.673,4.563c-0.261,1.658,0.447,3.428,2.041,4.115c2.053,0.883,5.496-0.252,7.564-0.727
		c2.45-0.559,4.889-1.658,6.164-3.949c2.205-3.965-1.468-8.719-5.663-9.111c-2.331-0.217-5.966,0.818-8.012,1.854
		c-2.047,1.037-3.279,2.705-3.408,5C17.781,19.807,20.63,19.801,20.732,17.975"/>
	<path fill="#FFFFFF" d="M21.21,13.941c3.38-0.553,9.966-1.182,12.246,1.799c1.537,2.012,0.429,4.568-1.715,5.684
		c-1.467,0.762-3.416,0.785-5.031,0.852c-1.153,0.049-4.184,0.428-5.017-0.443c-0.172-1.348-0.345-2.693-0.517-4.039
		c0.319-0.076,0.639-0.152,0.957-0.229c0.736-0.293,1.863-0.189,2.664-0.258c1.567-0.133,4.015-0.949,4.756,0.521
		c0.778,1.541-1.26,1.109-2.472,1.16c-1.423,0.059-2.78-0.107-4.19-0.363c0.284,0.697,0.568,1.395,0.853,2.092
		c1.299-1.857,2.969-1.75,4.771-1.117c1.733,0.611,2.479-2.141,0.758-2.748c-3.205-1.127-6.022-0.385-7.989,2.428
		c-0.498,0.713-0.013,1.936,0.852,2.094c3.068,0.557,9.396,1.535,11.478-1.648c1.564-2.393-0.499-4.977-2.959-5.471
		c-2.906-0.584-8.815-0.205-11.483,1.303c-2.884,1.629-3.632,5.094-1.115,7.426c2.842,2.631,7.579,2.379,11.125,1.949
		c3.028-0.369,6.136-1.361,7.345-4.434c0.982-2.5,1.049-6.561-1.659-7.896c-4.342-2.143-9.757-2.17-14.413-1.408
		C18.647,11.49,19.413,14.236,21.21,13.941"/>
</g>
</svg>
