<?xml version="1.0" encoding="utf-8"?>
<!-- Generator: Adobe Illustrator 16.0.2, SVG Export Plug-In . SVG Version: 6.00 Build 0)  -->
<!DOCTYPE svg PUBLIC "-//W3C//DTD SVG 1.1//EN" "http://www.w3.org/Graphics/SVG/1.1/DTD/svg11.dtd">
<svg version="1.1" id="Layer_1" xmlns="http://www.w3.org/2000/svg" xmlns:xlink="http://www.w3.org/1999/xlink" x="0px" y="0px"
	 width="107.966px" height="35.988px" viewBox="0 0 107.966 35.988" enable-background="new 0 0 107.966 35.988"
	 xml:space="preserve">
<g>
	<path fill="#F19121" d="M84.859,15.251c0.288,2.933-0.875,5.224-0.587,8.157c0.088,0.895,0.175,1.81-0.012,2.685
		c-0.322,1.512-1.434,2.704-2.697,3.397c-1.264,0.694-2.681,0.964-4.075,1.214c-6.822,1.223-13.688,2.189-20.587,2.687
		c-9.081,0.654-18.214,0.491-27.254,1.634c-5.528,0.699-11.289,1.859-16.529-0.197c-2.187-0.858-4.168-2.243-6.282-3.299
		C4.642,30.435,2.315,29.702,0,28.972c0.811-0.784,2.551-1.477,3.623-1.339c1.545,0.197,2.711-0.948,4.121-1.667
		c6.989-3.562,14.451-3.612,22.013-5.23c9.303-1.989,16.845-5.167,26.147-7.156c7.251-1.553,16.344-1.925,23.725-1.596
		c1.361,0.061,2.836,0.237,3.832,1.261c0.996,1.021,2.047,1.779,0.808,2.403"/>
	<path fill="#FFCB0B" d="M63.247,14.728c0.261,1.831,0.333,3.695,0.212,5.543c-0.108,1.645-0.367,3.279-0.361,4.927
		c0.006,1.649,0.303,3.356,1.194,4.684c0.584-4.391,1.17-8.807,1.063-13.241c-0.017-0.663-0.063-1.37-0.428-1.898
		c-0.365-0.527-1.167-0.736-1.566-0.24"/>
	<path fill="#FFCB0B" d="M51.07,17.67c-1.201,4.315-0.753,9.156,1.214,13.118c-0.633-3.935-1.258-8.046-0.187-11.862
		c0.114-0.404,0.248-0.83,0.157-1.241c-0.09-0.411-0.517-0.761-0.858-0.566"/>
	<path fill="#FFCB0B" d="M36.578,21.031c-0.143,3.463,0.852,6.97,2.76,9.73c0.123,0.177,0.252,0.427,0.127,0.603
		c-0.041,0.055-0.099,0.089-0.158,0.114c-0.451,0.201-0.985-0.022-1.329-0.402c-0.345-0.381-0.538-0.891-0.725-1.385
		c-0.67-1.783-1.344-3.586-1.636-5.487c-0.107-0.71-0.162-1.448,0.011-2.144c0.173-0.694,0.604-1.344,1.222-1.585"/>
	<path fill="#FFCB0B" d="M22.108,23.276c-0.42,2.479-0.573,5.176,0.52,7.393c0.438,0.884,1.266,1.733,2.154,1.494
		c-0.108-1.254-1.294-2.172-1.34-3.428c-0.013-0.354,0.069-0.704,0.123-1.054c0.219-1.44-0.046-2.91-0.31-4.341
		c-0.066-0.359-0.148-0.748-0.408-0.978c-0.261-0.229-0.749-0.144-0.804,0.218"/>
	<path fill="#FFCB0B" d="M72.261,13.944c1.435,0.896,2.358,2.562,2.839,4.296c0.482,1.734,0.578,3.564,0.735,5.369
		c0.037,0.427,0.083,0.87,0.288,1.236c0.204,0.364,0.615,0.627,0.988,0.494c0.478-0.17,0.616-0.838,0.608-1.391
		c-0.035-2.601-1.513-4.865-2.448-7.255c-0.321-0.825-0.599-1.706-1.176-2.342c-0.577-0.635-1.574-0.926-2.211-0.365"/>
	<path fill="#44612D" d="M81.51,23.587c2.388,1.826,4.978,1.165,7.448,0.8c3.834-0.564,7.756-0.318,11.656,0.732
		c2.194,0.591,4.401,1.438,6.581,1.356c0.232-0.009,0.482-0.042,0.639-0.314c0.407-0.708-0.202-1.99-0.775-2.437
		c-1.233-0.957-2.577-0.934-3.871-0.917c-4.932,0.063-9.885-0.229-14.845-0.876c-0.302-0.039-0.657-0.137-0.823-0.606
		c-0.285-0.812,0.299-1.54,0.787-1.772c3.166-1.508,6.514-2.026,9.758-3.132c3.244-1.106,6.469-2.876,8.91-6.517
		c-1.091-0.502-2.105,0.489-3.096,1.15c-2.135,1.426-4.576,1.361-6.813,2.351c-1.409,0.622-2.725,1.656-4.085,2.49
		c-1.901,1.164-3.894,1.938-5.88,2.709c-0.368,0.144-0.893,0.142-1.032-0.515c-0.124-0.582,0.2-1.052,0.485-1.334
		c2.515-2.48,5.034-4.966,7.709-6.951c3.263-2.422,6.987-4.433,8.715-9.805c-1.399,0.026-2.758,0.666-3.915,1.847
		c-0.951,0.971-1.759,2.282-2.632,3.442c-1.164,1.549-2.448,2.825-3.746,4.042c-2.205,2.065-4.465,3.971-6.772,5.711
		c-1.475,1.112-3.014,2.209-4.071,4.277c-0.328,0.642-0.611,1.414-0.631,2.315c-0.018,0.902,0.307,1.938,0.818,2.199"/>
</g>
</svg>
