<?xml version="1.0" encoding="utf-8"?>
<!-- Generator: Adobe Illustrator 16.0.2, SVG Export Plug-In . SVG Version: 6.00 Build 0)  -->
<!DOCTYPE svg PUBLIC "-//W3C//DTD SVG 1.1//EN" "http://www.w3.org/Graphics/SVG/1.1/DTD/svg11.dtd">
<svg version="1.1" id="Layer_1" xmlns="http://www.w3.org/2000/svg" xmlns:xlink="http://www.w3.org/1999/xlink" x="0px" y="0px"
	 width="103.256px" height="93.715px" viewBox="0 0 103.256 93.715" enable-background="new 0 0 103.256 93.715"
	 xml:space="preserve">
<g>
	<path fill="#FFEDD5" d="M7.218,6.401C4.704,4.881,3.699,2.721,2.59,0c10.948,1.195,22.005,0.234,33.015,0.457
		c10.045,0.204,20.042,1.394,30.071,1.984c6.136,0.361,14.687-1.15,20.832-1.014c6.305,0.139,10.336-0.43,16.64-0.29
		c0.309,0.385-0.097,3.354-0.531,3.587c-0.455,0.245-1.14,1.392-1.641,1.283c-1.552-0.336-2.947,0.409-4.464,0.879
		c-3.338,1.036-6.997,0.005-10.462,0C59.971,6.85,33.296,6.437,7.218,6.401"/>
	<path fill="#FFEDD5" d="M4.702,82.141c-1.753,0.909-3.281,2.25-4.411,3.87c-0.211,0.304-0.411,0.714-0.205,1.022
		c0.162,0.241,0.493,0.286,0.783,0.303c4.666,0.287,9.363-0.376,14.015,0.077c5.128,0.499,10.052,2.339,15.179,2.857
		c3.114,0.315,6.254,0.137,9.383,0.059c9.054-0.224,18.104,0.401,27.139,1.025c11.394,0.787,22.788,1.574,34.181,2.362
		c-1.682-2.372-2.332-3.956-4.014-6.327c-0.285-0.403-0.508-1.052-0.957-1.258c-0.664-0.304-2.545-0.62-3.254-0.45
		c-2.439,0.587-4.994,0.255-7.486-0.031c-16.235-1.863-32.628-1.611-48.969-1.495c-2.334,0.017-4.676,0.03-6.992-0.26
		c-2.052-0.258-4.067-0.752-6.105-1.104c-5.168-0.891-8.016-1.419-13.26-1.385c-1.283,0.008-3.616,0.271-4.834,0.674"/>
	<path fill="#44A84F" d="M21.531,36.326c4.437,0.107,8.767,1.292,13.073,2.366c19.422,4.839,39.379,7.508,59.389,7.986
		c0.355-5.158,1.047-10.28,2.241-15.337c0.675-2.857,1.509-5.755,1.216-8.676c-0.146-1.455-0.572-2.884-0.564-4.346
		c0.024-4.775,4.529-8.515,5.023-13.265c-1.387,0.863-3.115,0.897-4.748,0.906C67.18,6.107,37.199,6.254,7.217,6.401l0.832,1.485
		C7.213,12.959,7.265,18.133,7.32,23.274c0.041,3.899,0.082,7.797,0.124,11.695c0.009,0.871,0.022,1.742,0.043,2.614
		c1.383-0.122,2.765-0.247,4.143-0.413C14.922,36.771,18.216,36.246,21.531,36.326"/>
	<path fill="#FCB355" d="M34.604,38.691c-4.307-1.073-8.636-2.259-13.073-2.366c-3.315-0.08-6.609,0.446-9.901,0.844
		c-1.378,0.167-2.76,0.291-4.143,0.413c0.054,2.235,0.183,4.467,0.592,6.661c0.569,3.05,1.669,6.031,1.68,9.133
		c0.006,2.163-0.521,4.288-0.769,6.437c-0.373,3.222-0.123,6.486-0.358,9.721c-0.327,4.511-1.609,8.95-3.738,12.941
		c10.299-3.144,21.098,2.249,31.835,3.065c3.647,0.277,7.311,0.019,10.966-0.104c5.376-0.181,10.756-0.071,16.133,0.039
		c10.656,0.218,21.312,0.436,31.967,0.655c-1.363-13.089-2.701-26.388-1.803-39.452C73.983,46.2,54.026,43.532,34.604,38.691"/>
	<path fill="#F05423" d="M62.35,52.075c-0.081-0.429-0.535-0.665-0.939-0.833c-3.872-1.611-7.935-2.76-12.077-3.414
		c-0.553-0.088-1.133-0.164-1.661,0.021c-0.528,0.186-0.977,0.72-0.872,1.269c0.087,0.46,0.507,0.77,0.901,1.022
		c3.577,2.289,7.668,3.705,11.845,4.472c0.816,0.15,1.707,0.265,2.436-0.131c0.729-0.395,1.094-1.518,0.474-2.069"/>
	<path fill="#F05423" d="M37.104,72.661c-0.223,0.376-0.037,0.853,0.155,1.246c1.842,3.767,4.134,7.314,6.811,10.541
		c0.357,0.431,0.742,0.871,1.261,1.081c0.519,0.209,1.209,0.105,1.493-0.377c0.238-0.402,0.128-0.913-0.002-1.362
		c-1.173-4.082-3.309-7.847-5.938-11.182c-0.514-0.652-1.106-1.326-1.915-1.511c-0.809-0.185-1.824,0.417-1.723,1.24"/>
	<path fill="#F05423" d="M82.755,48.611c-0.262,0.351-0.125,0.845,0.025,1.255c1.442,3.937,3.355,7.702,5.685,11.189
		c0.312,0.466,0.647,0.944,1.142,1.206c0.495,0.261,1.192,0.229,1.525-0.22c0.277-0.376,0.221-0.895,0.139-1.356
		c-0.744-4.181-2.48-8.147-4.751-11.736c-0.442-0.701-0.963-1.433-1.748-1.701c-0.786-0.267-1.858,0.226-1.842,1.056"/>
	<path fill="#F05423" d="M13.815,66.077c-0.375,0.225-0.439,0.732-0.457,1.169c-0.171,4.19,0.157,8.4,0.976,12.513
		c0.109,0.549,0.238,1.119,0.595,1.55c0.356,0.431,1.013,0.668,1.492,0.38c0.401-0.241,0.546-0.743,0.647-1.199
		c0.91-4.149,0.823-8.477,0.097-12.661c-0.142-0.818-0.342-1.693-0.965-2.24c-0.624-0.548-1.803-0.501-2.106,0.271"/>
	<path fill="#F05423" d="M37.708,72.671c-0.303-0.315-0.812-0.263-1.242-0.183c-4.122,0.772-8.151,2.035-11.976,3.755
		c-0.51,0.229-1.037,0.483-1.377,0.927c-0.34,0.444-0.424,1.137-0.036,1.54c0.325,0.336,0.846,0.366,1.314,0.361
		c4.247-0.043,8.445-1.097,12.361-2.743c0.765-0.321,1.573-0.712,1.966-1.443c0.394-0.73,0.085-1.869-0.736-1.991"/>
	<path fill="#F05423" d="M81.987,58.1c-0.436,0.026-0.728,0.447-0.944,0.826c-2.089,3.636-3.743,7.522-4.917,11.547
		c-0.157,0.538-0.307,1.103-0.189,1.65s0.59,1.06,1.148,1.026c0.467-0.028,0.828-0.406,1.128-0.765
		c2.724-3.258,4.646-7.136,5.937-11.183c0.252-0.79,0.479-1.658,0.179-2.432s-1.367-1.278-1.992-0.732"/>
	<path fill="#F05423" d="M64.963,48.028c-0.086,0.429,0.247,0.817,0.558,1.124c2.986,2.945,6.322,5.533,9.917,7.693
		c0.479,0.288,0.988,0.577,1.547,0.603c0.559,0.025,1.176-0.301,1.285-0.85c0.091-0.459-0.183-0.903-0.453-1.285
		c-2.458-3.463-5.721-6.309-9.305-8.586c-0.7-0.445-1.482-0.886-2.307-0.792c-0.824,0.093-1.583,0.997-1.215,1.741"/>
	<path fill="#F05423" d="M13.468,47.855c0.393,0.191,0.853-0.033,1.229-0.257c3.602-2.147,6.948-4.723,9.944-7.657
		c0.4-0.392,0.807-0.811,0.973-1.346c0.166-0.534,0.005-1.213-0.498-1.457c-0.421-0.204-0.921-0.051-1.358,0.114
		c-3.971,1.506-7.547,3.945-10.655,6.84c-0.607,0.566-1.23,1.212-1.347,2.033c-0.118,0.822,0.565,1.784,1.378,1.615"/>
	<path fill="#F05423" d="M34.387,63.7c0.296,0.322,0.806,0.282,1.237,0.212c4.139-0.677,8.196-1.847,12.06-3.478
		c0.515-0.218,1.048-0.459,1.398-0.896c0.35-0.436,0.45-1.126,0.071-1.538c-0.317-0.344-0.838-0.385-1.305-0.391
		c-4.247-0.056-8.468,0.902-12.421,2.457c-0.772,0.303-1.588,0.676-1.999,1.397c-0.41,0.721-0.127,1.867,0.69,2.007"/>
	<path fill="#F7911E" d="M89.61,70.269c-0.165,1.771-0.331,3.542-0.496,5.313c-0.074,0.789-0.148,1.579-0.268,2.362
		c-0.422,2.739-1.408,5.354-2.387,7.945c-0.11,0.291-0.25,0.614-0.541,0.727c-0.24,0.094-0.514,0.011-0.746-0.102
		c-0.717-0.348-1.284-0.993-1.539-1.748c-0.232-0.69-0.209-1.436-0.182-2.163c0.147-3.939,0.305-7.943,1.572-11.675
		c0.23-0.678,0.505-1.36,0.984-1.892c0.479-0.532,1.199-0.895,1.906-0.777c0.356,0.06,0.686,0.237,0.974,0.456
		c0.375,0.285,0.702,0.668,0.798,1.129s-0.102,1.001-0.532,1.194"/>
	<path fill="#F7911E" d="M16.457,48.036l1.062,5.23c0.158,0.776,0.316,1.553,0.427,2.338c0.389,2.743,0.202,5.532,0.014,8.296
		c-0.021,0.311-0.061,0.659-0.306,0.852c-0.204,0.16-0.489,0.159-0.745,0.118c-0.787-0.126-1.517-0.578-1.979-1.228
		c-0.422-0.593-0.614-1.314-0.799-2.018c-0.999-3.813-2.006-7.691-1.873-11.63c0.024-0.716,0.09-1.448,0.395-2.096
		c0.304-0.648,0.889-1.204,1.599-1.295c0.359-0.046,0.725,0.028,1.065,0.154c0.441,0.165,0.865,0.436,1.09,0.85
		c0.224,0.414,0.192,0.988-0.164,1.297"/>
	<path fill="#F7911E" d="M70.198,56.862c-0.777,1.6-1.554,3.2-2.332,4.8c-0.346,0.713-0.692,1.426-1.08,2.117
		c-1.357,2.416-3.199,4.518-5.026,6.6c-0.206,0.234-0.45,0.487-0.761,0.491c-0.259,0.004-0.485-0.17-0.663-0.358
		c-0.549-0.578-0.854-1.381-0.827-2.177c0.025-0.728,0.31-1.417,0.59-2.089c1.522-3.636,3.076-7.329,5.574-10.378
		c0.453-0.554,0.951-1.096,1.586-1.426c0.635-0.33,1.438-0.416,2.057-0.057c0.314,0.181,0.559,0.462,0.752,0.769
		c0.251,0.398,0.424,0.871,0.35,1.337c-0.073,0.465-0.447,0.901-0.917,0.931"/>
	<path fill="#F7911E" d="M27.8,56.941c0.125,1.774,0.249,3.549,0.374,5.323c0.055,0.791,0.111,1.582,0.119,2.374
		c0.029,2.771-0.519,5.511-1.064,8.228c-0.062,0.305-0.147,0.645-0.414,0.804c-0.223,0.133-0.506,0.095-0.754,0.021
		c-0.764-0.227-1.429-0.771-1.803-1.475c-0.341-0.642-0.438-1.382-0.53-2.104c-0.495-3.911-0.99-7.887-0.346-11.776
		c0.117-0.706,0.278-1.423,0.664-2.026c0.386-0.603,1.038-1.079,1.754-1.076c0.362,0.001,0.715,0.122,1.035,0.291
		c0.417,0.22,0.802,0.545,0.971,0.984c0.168,0.44,0.062,1.005-0.331,1.265"/>
	<path fill="#F7911E" d="M48.099,76.377c1.776,0.102,3.552,0.204,5.328,0.306c0.791,0.045,1.583,0.091,2.37,0.183
		c2.751,0.324,5.4,1.216,8.025,2.102c0.295,0.099,0.622,0.227,0.745,0.513c0.103,0.237,0.03,0.513-0.075,0.75
		c-0.322,0.729-0.946,1.319-1.692,1.601c-0.681,0.257-1.427,0.259-2.155,0.258c-3.941-0.006-7.948-0.021-11.723-1.153
		c-0.686-0.206-1.377-0.457-1.926-0.916c-0.55-0.46-0.938-1.168-0.845-1.877c0.048-0.359,0.212-0.694,0.421-0.99
		c0.271-0.385,0.642-0.726,1.099-0.838c0.458-0.111,1.005,0.066,1.213,0.489"/>
	<path fill="#F7911E" d="M45.646,64.747c1.766,0.215,3.532,0.43,5.297,0.645c0.787,0.096,1.574,0.192,2.354,0.335
		c2.725,0.498,5.311,1.557,7.875,2.609c0.288,0.118,0.606,0.267,0.711,0.56c0.087,0.243-0.003,0.514-0.123,0.744
		c-0.368,0.707-1.029,1.256-1.791,1.489c-0.696,0.213-1.441,0.167-2.167,0.12c-3.933-0.257-7.931-0.528-11.626-1.899
		c-0.671-0.249-1.345-0.544-1.864-1.037c-0.518-0.494-0.861-1.225-0.722-1.927c0.07-0.356,0.255-0.679,0.483-0.961
		c0.295-0.367,0.686-0.684,1.15-0.766c0.464-0.082,0.998,0.13,1.179,0.565"/>
	<path fill="#F7911E" d="M35.013,52.658c0.54-1.695,1.08-3.39,1.621-5.085c0.24-0.755,0.481-1.51,0.766-2.249
		c0.998-2.585,2.52-4.929,4.03-7.252c0.17-0.261,0.375-0.546,0.683-0.594c0.255-0.041,0.504,0.099,0.708,0.259
		c0.626,0.493,1.042,1.244,1.13,2.037c0.079,0.723-0.104,1.447-0.286,2.151c-0.985,3.817-1.996,7.694-4.031,11.069
		c-0.37,0.614-0.785,1.221-1.366,1.638c-0.581,0.418-1.364,0.618-2.028,0.352c-0.336-0.135-0.619-0.378-0.854-0.654
		c-0.305-0.358-0.544-0.802-0.538-1.273c0.006-0.471,0.314-0.956,0.775-1.053"/>
	<path fill="#F7911E" d="M63.805,82.392c0.971-1.491,1.942-2.981,2.913-4.472c0.432-0.664,0.865-1.328,1.336-1.965
		c1.648-2.227,3.738-4.083,5.811-5.921c0.233-0.206,0.507-0.427,0.815-0.392c0.258,0.029,0.461,0.229,0.615,0.438
		c0.471,0.642,0.674,1.477,0.547,2.264c-0.114,0.718-0.483,1.367-0.847,1.998c-1.963,3.418-3.967,6.888-6.825,9.602
		c-0.52,0.492-1.081,0.968-1.752,1.216c-0.672,0.248-1.479,0.233-2.049-0.2c-0.288-0.219-0.496-0.529-0.65-0.857
		c-0.199-0.427-0.311-0.918-0.18-1.37c0.131-0.452,0.556-0.839,1.026-0.809"/>
	<path fill="#F7911E" d="M35.548,49.143c-1.394,1.105-2.788,2.21-4.182,3.315c-0.621,0.492-1.243,0.984-1.892,1.439
		c-2.27,1.588-4.841,2.684-7.391,3.768c-0.286,0.122-0.616,0.244-0.898,0.113c-0.235-0.109-0.364-0.364-0.443-0.611
		c-0.244-0.758-0.17-1.614,0.199-2.32c0.338-0.645,0.894-1.143,1.438-1.626c2.948-2.617,5.95-5.271,9.522-6.936
		c0.649-0.302,1.332-0.575,2.048-0.597c0.715-0.022,1.476,0.248,1.879,0.84c0.203,0.3,0.303,0.66,0.344,1.019
		c0.053,0.468,0.003,0.97-0.264,1.357c-0.268,0.387-0.794,0.619-1.231,0.441"/>
</g>
</svg>
