<?xml version="1.0" encoding="utf-8"?>
<!-- Generator: Adobe Illustrator 16.0.2, SVG Export Plug-In . SVG Version: 6.00 Build 0)  -->
<!DOCTYPE svg PUBLIC "-//W3C//DTD SVG 1.1//EN" "http://www.w3.org/Graphics/SVG/1.1/DTD/svg11.dtd">
<svg version="1.1" id="Layer_1" xmlns="http://www.w3.org/2000/svg" xmlns:xlink="http://www.w3.org/1999/xlink" x="0px" y="0px"
	 width="34.281px" height="43.193px" viewBox="0 0 34.281 43.193" enable-background="new 0 0 34.281 43.193" xml:space="preserve">
<g>
	<path fill="#2AAAE2" d="M29.755,21.233c0.948,5.186,0.969,10.411,0.06,15.598c-0.042,0.237-0.097,0.488-0.392,0.678
		c-0.472,0.302-1.358,0.332-2.132,0.335c-6.562,0.027-13.122,0.056-19.684,0.085c-1.681,0.007-3.738-0.098-4.421-0.855
		c-0.237-0.263-0.25-0.561-0.258-0.849c-0.153-5.193-0.308-10.387-0.462-15.58c8.061-0.521,16.251-0.557,24.329-0.103
		c1.215,0.067,2.594,0.197,3.222,0.716"/>
	<path fill="#FFF6DA" d="M2.467,20.644C1.518,14.521,2.225,10.033,3.135,3.909C3.176,3.627,3.23,3.331,3.525,3.108
		C3.998,2.75,4.884,2.716,5.658,2.712c6.561-0.034,13.121-0.066,19.682-0.1c1.683-0.009,3.738,0.115,4.422,1.009
		C30,3.932,30.012,4.284,30.02,4.624c0.154,6.133,0.309,12.266,0.462,18.399c-8.062,0.615-16.251,0.656-24.329,0.122
		c-1.215-0.081-2.594-0.235-3.222-0.847"/>
	<path fill="#FFFFFF" d="M27.994,37.936c-0.31,1.117,0.395,2.443-0.242,3.413c-0.471,0.717-1.443,0.86-2.297,0.933
		c-5.453,0.464-10.918,0.765-16.389,0.903c-1.595,0.039-3.397-0.019-4.478-1.193c-1.056-1.149-0.99-2.904-0.86-4.46"/>
	<path fill="#2AAAE2" d="M27.846,0.117c0.918-0.035,1.868-0.066,2.718,0.282c0.482,0.199,0.907,0.513,1.327,0.821
		c0.797,0.588,1.594,1.175,2.391,1.763c-0.586,0.721-1.645,0.779-2.572,0.78c-8.943,0.002-17.887,0.005-26.83,0.008
		c-0.809,0-1.652-0.008-2.375-0.371C1.387,2.838-0.883,0.506,0.363,0.424C2.228,0.301,17.172-0.233,27.846,0.117"/>
</g>
</svg>
