<?xml version="1.0" encoding="utf-8"?>
<!-- Generator: Adobe Illustrator 16.0.2, SVG Export Plug-In . SVG Version: 6.00 Build 0)  -->
<!DOCTYPE svg PUBLIC "-//W3C//DTD SVG 1.1//EN" "http://www.w3.org/Graphics/SVG/1.1/DTD/svg11.dtd">
<svg version="1.1" id="Layer_1" xmlns="http://www.w3.org/2000/svg" xmlns:xlink="http://www.w3.org/1999/xlink" x="0px" y="0px"
	 width="64.186px" height="85.584px" viewBox="0 0 64.186 85.584" enable-background="new 0 0 64.186 85.584" xml:space="preserve">
<g>
	<path fill="#D2A12A" d="M60.361,11.442c0.015,0.951,0.028,1.902,0.043,2.853c0.005,0.323,0.015,0.661,0.171,0.943
		c0.186,0.333,0.542,0.525,0.862,0.734c2.823,1.841,3.456,6.036,1.894,9.023c-0.553,1.055-1.332,2.006-1.668,3.148
		c-0.207,0.71-0.234,1.458-0.258,2.196c-0.388,11.924-0.777,23.847-1.165,35.771c-0.055,1.682-0.104,3.399,0.376,5.012
		c1.045,3.505,4.536,6.695,3.313,10.142c-0.938,2.642-4.147,3.598-6.933,3.923c-3.606,0.42-7.245,0.407-10.876,0.392
		c-10.361-0.041-20.723-0.082-31.085-0.123c-3.466-0.014-7.026-0.045-10.249-1.324c-2.311-0.918-4.539-2.763-4.767-5.239
		c-0.179-1.955,0.911-3.766,1.62-5.597c1.914-4.952,1.08-10.476,0.513-15.755C1.018,46.995,1.066,36.323,2.296,25.788
		c0.086-0.73,0.17-1.503-0.136-2.171C1.95,23.158,1.576,22.8,1.257,22.41c-1.621-1.976-1.438-5.588,0.953-6.494
		c0.51-0.193,1.088-0.255,1.517-0.593c1.354-1.068,0.054-3.65,1.327-4.813c0.431-0.393,1.045-0.496,1.623-0.566
		c6.789-0.826,13.599-1.042,20.434-0.796C38.05,9.542,49.558,9.68,60.361,11.442"/>
	<path fill="#412312" d="M58.101,24.055c-2.938,3.235-4.203,7.912-3.297,12.187c0.084,0.403,0.244,0.864,0.635,0.988
		c0.656,0.208,1.091-0.664,1.222-1.338l2.33-11.963c-0.59-0.037-1.188,0.279-1.491,0.787"/>
	<path fill="#412312" d="M57.369,59.638c-1.354,1.523-1.921,3.709-1.478,5.698c0.041,0.187,0.117,0.401,0.301,0.457
		c0.307,0.094,0.506-0.315,0.563-0.629c0.344-1.863,0.686-3.726,1.028-5.589c-0.275-0.014-0.554,0.136-0.691,0.374"/>
	<path fill="#412312" d="M42.125,31.523c1.783-3.706,1.671-8.266-0.292-11.88c-0.185-0.34-0.451-0.713-0.839-0.72
		c-0.646-0.012-0.805,0.891-0.743,1.534c0.369,3.806,0.737,7.612,1.106,11.418c0.542-0.125,0.997-0.571,1.134-1.11"/>
	<path fill="#412312" d="M32.45,39.575c0,2.131,1.077,4.235,2.807,5.481c0.162,0.118,0.371,0.232,0.553,0.148
		c0.305-0.139,0.176-0.597,0.002-0.883c-1.027-1.694-2.055-3.389-3.081-5.083c-0.226,0.18-0.339,0.491-0.28,0.773"/>
	<path fill="#412312" d="M16.84,28.619c-1.103-3.451-3.935-6.3-7.378-7.424c-0.325-0.106-0.721-0.183-0.973,0.046
		c-0.422,0.384,0.023,1.058,0.452,1.432c2.54,2.212,5.08,4.424,7.62,6.636c0.271-0.408,0.292-0.969,0.053-1.396"/>
	<path fill="#412312" d="M40.376,73.143c1.602-0.027,3.17-0.862,4.084-2.177c0.086-0.124,0.17-0.282,0.104-0.418
		c-0.108-0.227-0.45-0.124-0.664,0.01c-1.26,0.793-2.521,1.586-3.782,2.379c0.139,0.167,0.373,0.248,0.586,0.201"/>
	<path fill="#412312" d="M25.128,33.56c-3.878,2.396-6.496,6.721-6.82,11.268c-0.031,0.429-0.006,0.937,0.353,1.174
		c0.597,0.397,1.284-0.351,1.61-0.989c1.928-3.774,3.857-7.549,5.785-11.323c-0.58-0.207-1.271-0.063-1.721,0.36"/>
	<path fill="#412312" d="M61.179,20.543c0.381-5.221-1.881-10.568-5.895-13.93c-0.377-0.317-0.868-0.634-1.329-0.462
		c-0.771,0.288-0.538,1.431-0.163,2.164c2.213,4.335,4.428,8.669,6.641,13.004c0.584-0.401,0.914-1.142,0.824-1.844"/>
	<path fill="#412312" d="M58.562,48.995c-1.08-4.236-4.287-7.872-8.356-9.472c-0.383-0.151-0.854-0.273-1.175-0.014
		c-0.534,0.432-0.047,1.276,0.443,1.757c2.901,2.847,5.803,5.694,8.703,8.541c0.356-0.473,0.422-1.147,0.165-1.679"/>
	<path fill="#412312" d="M40.437,39.898c1.483,2.667,4.295,4.551,7.326,4.908c0.285,0.034,0.627,0.032,0.797-0.2
		c0.283-0.386-0.197-0.869-0.613-1.107c-2.465-1.406-4.93-2.812-7.395-4.218c-0.156,0.383-0.081,0.849,0.188,1.163"/>
	<path fill="#412312" d="M20.328,67.045c-1.387,1.41-2.043,3.503-1.711,5.453c0.031,0.183,0.095,0.394,0.271,0.458
		c0.291,0.105,0.505-0.281,0.576-0.583l1.269-5.369c-0.267-0.027-0.542,0.105-0.688,0.329"/>
	<path fill="#412312" d="M36.242,76.653c1.372,0.304,2.88-0.089,3.929-1.024c0.1-0.088,0.202-0.206,0.174-0.335
		c-0.046-0.216-0.359-0.199-0.568-0.128c-1.236,0.42-2.475,0.839-3.711,1.259c0.084,0.171,0.268,0.287,0.457,0.29"/>
	<path fill="#412312" d="M55.618,41.325c-2.322-2.922-6.092-4.633-9.819-4.458c-0.351,0.016-0.761,0.087-0.921,0.4
		c-0.264,0.523,0.41,1.01,0.959,1.213c3.256,1.204,6.511,2.408,9.765,3.612c0.112-0.493-0.071-1.04-0.459-1.365"/>
	<path fill="#412312" d="M4.507,56.156c-0.779,1.212-0.934,2.802-0.406,4.142c0.05,0.126,0.127,0.267,0.262,0.286
		c0.225,0.032,0.316-0.275,0.322-0.501c0.035-1.339,0.07-2.678,0.104-4.017c-0.193,0.021-0.371,0.156-0.441,0.338"/>
	<path fill="#412312" d="M61.627,37.499c-2.63-2.021-6.247-2.688-9.425-1.737c-0.299,0.09-0.639,0.239-0.707,0.543
		c-0.117,0.508,0.57,0.783,1.088,0.84c3.064,0.34,6.13,0.679,9.195,1.019c-0.01-0.449-0.287-0.882-0.689-1.079"/>
	<path fill="#412312" d="M44.563,12.066c-1.642-0.912-3.722-0.983-5.421-0.186c-0.16,0.075-0.337,0.187-0.352,0.363
		c-0.021,0.294,0.386,0.391,0.681,0.38c1.743-0.066,3.487-0.132,5.231-0.198c-0.043-0.25-0.232-0.469-0.476-0.546"/>
	<path fill="#412312" d="M33.423,77.926c0.902-4.568-0.514-9.533-3.689-12.937c-0.299-0.321-0.697-0.654-1.124-0.552
		c-0.712,0.17-0.63,1.205-0.38,1.892c1.483,4.067,2.968,8.134,4.451,12.201c0.559-0.291,0.931-0.909,0.928-1.538"/>
	<path fill="#412312" d="M14.57,65.382c0.968-1.591,1.12-3.651,0.396-5.366c-0.068-0.162-0.172-0.342-0.346-0.362
		c-0.291-0.034-0.402,0.366-0.402,0.658c-0.004,1.732-0.006,3.463-0.01,5.195c0.25-0.033,0.476-0.213,0.561-0.45"/>
	<path fill="#412312" d="M11.376,11.145c-0.908,5.172,0.807,10.737,4.47,14.5c0.345,0.354,0.802,0.721,1.28,0.596
		c0.799-0.209,0.682-1.374,0.383-2.143c-1.77-4.551-3.54-9.101-5.311-13.652c-0.623,0.342-1.027,1.047-1.009,1.757"/>
	<path fill="#412312" d="M5.575,11.294c0.78,2.156,2.639,3.891,4.844,4.52c0.209,0.059,0.461,0.099,0.614-0.053
		c0.257-0.252-0.04-0.668-0.321-0.894c-1.658-1.338-3.317-2.677-4.978-4.015c-0.161,0.264-0.161,0.62,0,0.884"/>
	<path fill="#412312" d="M17.989,63.381c0.883,1.109,2.315,1.757,3.731,1.689c0.134-0.006,0.29-0.033,0.35-0.152
		c0.101-0.199-0.155-0.384-0.364-0.461c-1.237-0.456-2.475-0.911-3.711-1.367c-0.043,0.187,0.027,0.395,0.174,0.518"/>
	<path fill="#412312" d="M46.114,67.555c0.263-2.364-0.671-4.831-2.436-6.428c-0.166-0.15-0.383-0.303-0.595-0.232
		c-0.354,0.117-0.269,0.64-0.112,0.979l2.791,6.02c0.271-0.172,0.435-0.502,0.405-0.823"/>
	<path fill="#412312" d="M30.657,75.997c1.006,1.574,2.795,2.62,4.659,2.725c0.177,0.01,0.384-0.004,0.479-0.152
		c0.158-0.247-0.152-0.524-0.415-0.653l-4.677-2.301c-0.082,0.239-0.018,0.522,0.158,0.703"/>
	<path fill="#412312" d="M27.321,74.399c-1.464-0.536-3.18-0.326-4.471,0.548c-0.121,0.082-0.252,0.197-0.24,0.343
		c0.02,0.244,0.365,0.271,0.605,0.224c1.422-0.28,2.844-0.559,4.267-0.838c-0.067-0.2-0.252-0.355-0.46-0.387"/>
	<path fill="#412312" d="M39.942,45.031c1.559-3.776,1.189-8.292-0.962-11.764c-0.202-0.327-0.487-0.683-0.873-0.668
		c-0.641,0.025-0.747,0.93-0.649,1.564c0.58,3.754,1.162,7.507,1.742,11.261c0.531-0.155,0.957-0.623,1.063-1.165"/>
	<path fill="#412312" d="M17.657,39.441c-0.272-1.905-1.502-3.649-3.207-4.543c-0.16-0.084-0.361-0.159-0.514-0.061
		c-0.254,0.163-0.081,0.556,0.111,0.789c1.134,1.384,2.268,2.768,3.402,4.152c0.178-0.19,0.238-0.482,0.151-0.727"/>
	<path fill="#412312" d="M52.128,15.362c-3.828,2.281-6.457,6.466-6.847,10.906c-0.037,0.418-0.019,0.915,0.326,1.153
		c0.577,0.398,1.261-0.323,1.589-0.941c1.945-3.659,3.891-7.318,5.837-10.976c-0.565-0.212-1.243-0.082-1.688,0.324"/>
	<path fill="#412312" d="M39.03,41.526c4.808-2.389,8.348-7.176,9.223-12.473c0.082-0.499,0.107-1.097-0.287-1.415
		c-0.656-0.53-1.543,0.273-1.995,0.985c-2.672,4.217-5.343,8.433-8.015,12.65c0.658,0.306,1.484,0.211,2.059-0.235"/>
	<path fill="#412312" d="M31.067,72.662c-1.934-4.408-6.07-7.782-10.775-8.792c-0.445-0.095-0.979-0.142-1.281,0.196
		c-0.502,0.565,0.179,1.394,0.798,1.829c3.661,2.573,7.325,5.145,10.987,7.718c0.301-0.577,0.252-1.321-0.123-1.853"/>
	<path fill="#412312" d="M20.89,10.842c2.381,4.795,7.155,8.326,12.438,9.2c0.498,0.082,1.094,0.107,1.411-0.285
		c0.528-0.654-0.271-1.54-0.982-1.99c-4.204-2.665-8.409-5.331-12.614-7.996c-0.304,0.657-0.211,1.481,0.234,2.053"/>
	<path fill="#7F1B29" d="M34.114,65.358c1.127,1.097,3.261,0.822,4.074-0.524c0.813-1.347,0.062-3.363-1.435-3.85
		c-0.36-0.117-0.761-0.153-1.114-0.016c-0.776,0.301-1.027,1.253-1.174,2.072c-0.117,0.653-0.231,1.333-0.051,1.971
		c0.18,0.638,0.751,1.218,1.413,1.176"/>
	<path fill="#7F1B29" d="M46.85,75.782c-0.383-0.528-1.274-0.568-1.702-0.075c-0.428,0.492-0.264,1.369,0.313,1.674
		c0.139,0.074,0.301,0.117,0.455,0.086c0.338-0.067,0.509-0.439,0.625-0.763c0.095-0.258,0.19-0.528,0.162-0.802
		c-0.028-0.273-0.221-0.551-0.494-0.581"/>
	<path fill="#7F1B29" d="M9.413,63.866c-0.449,0.087-0.738,0.642-0.551,1.06c0.187,0.418,0.793,0.573,1.156,0.296
		c0.088-0.066,0.164-0.156,0.189-0.263c0.057-0.235-0.129-0.453-0.3-0.624c-0.136-0.136-0.28-0.277-0.462-0.34
		c-0.182-0.062-0.416-0.022-0.516,0.143"/>
	<path fill="#7F1B29" d="M20.702,34.784c-0.035,0.669,0.65,1.275,1.309,1.158c0.66-0.118,1.096-0.923,0.832-1.539
		c-0.063-0.148-0.164-0.287-0.307-0.362c-0.314-0.164-0.691,0.023-0.994,0.206c-0.242,0.145-0.492,0.299-0.646,0.536
		c-0.153,0.237-0.179,0.582,0.021,0.783"/>
	<path fill="#7F1B29" d="M54.313,82.93c0.344-0.281,0.334-0.888-0.016-1.159c-0.353-0.271-0.941-0.125-1.125,0.278
		c-0.046,0.098-0.068,0.209-0.041,0.313c0.059,0.227,0.318,0.328,0.543,0.395c0.18,0.054,0.366,0.108,0.551,0.078
		c0.185-0.031,0.365-0.172,0.375-0.359"/>
	<path fill="#7F1B29" d="M26.671,40.916c-0.123,1.418,1.293,2.754,2.701,2.552c1.408-0.203,2.39-1.884,1.873-3.21
		c-0.123-0.32-0.328-0.621-0.627-0.79c-0.656-0.371-1.466-0.001-2.123,0.366c-0.523,0.293-1.066,0.601-1.41,1.094
		c-0.342,0.492-0.422,1.224-0.012,1.663"/>
	<path fill="#7F1B29" d="M52.444,50.805c-1.422-0.788-3.477,0.065-3.922,1.628c-0.445,1.564,0.85,3.372,2.475,3.452
		c0.391,0.02,0.801-0.054,1.117-0.287c0.691-0.51,0.684-1.529,0.607-2.385c-0.061-0.683-0.13-1.393-0.484-1.98
		c-0.353-0.588-1.08-1.011-1.729-0.79"/>
	<path fill="#7F1B29" d="M49.392,14.242c0.957,0.145,1.927-0.758,1.852-1.723c-0.078-0.966-1.176-1.705-2.099-1.412
		c-0.224,0.07-0.437,0.196-0.563,0.392c-0.281,0.428-0.065,0.995,0.155,1.457c0.177,0.368,0.362,0.75,0.681,1.005
		c0.319,0.254,0.813,0.339,1.129,0.081"/>
	<path fill="#7F1B29" d="M51.511,26.691c0.598,0.645,1.797,0.554,2.29-0.174c0.493-0.728,0.134-1.875-0.688-2.191
		c-0.197-0.076-0.42-0.108-0.623-0.042c-0.44,0.146-0.608,0.67-0.715,1.123c-0.084,0.361-0.168,0.737-0.086,1.099
		s0.385,0.702,0.756,0.698"/>
	<path fill="#7F1B29" d="M25.829,20.037c-0.193,1.3,1.035,2.611,2.345,2.504c1.31-0.106,2.308-1.599,1.908-2.85
		c-0.097-0.302-0.269-0.592-0.534-0.764c-0.582-0.379-1.35-0.084-1.977,0.217c-0.5,0.239-1.016,0.493-1.36,0.927
		c-0.344,0.434-0.458,1.104-0.106,1.533"/>
	<path fill="#7F1B29" d="M45.278,15.777c-0.878-0.082-1.712,0.788-1.594,1.661c0.119,0.874,1.156,1.49,1.979,1.176
		c0.199-0.075,0.386-0.201,0.492-0.385c0.233-0.404,0.008-0.908-0.216-1.317c-0.18-0.326-0.368-0.663-0.672-0.878
		c-0.303-0.215-0.756-0.267-1.03-0.016"/>
	<path fill="#7F1B29" d="M23.319,61.318c-0.946,1.293-0.367,3.406,1.106,4.034c1.474,0.629,3.399-0.414,3.679-1.991
		c0.067-0.381,0.047-0.791-0.142-1.128c-0.413-0.74-1.41-0.858-2.256-0.889c-0.675-0.025-1.377-0.045-1.995,0.228
		s-1.122,0.931-0.986,1.593"/>
	<path fill="#7F1B29" d="M6.143,26.888c1.181,0.117,2.31-1.047,2.157-2.223c-0.152-1.176-1.543-2.013-2.654-1.597
		c-0.268,0.1-0.521,0.267-0.666,0.514c-0.316,0.542-0.017,1.222,0.282,1.774c0.237,0.439,0.489,0.896,0.896,1.187
		c0.406,0.292,1.016,0.365,1.387,0.03"/>
	<path fill="#7F1B29" d="M6.195,77.258c0.664,0.981,2.28,1.104,3.085,0.235c0.805-0.869,0.559-2.47-0.47-3.058
		c-0.248-0.141-0.539-0.229-0.821-0.182c-0.617,0.103-0.947,0.768-1.181,1.349c-0.185,0.464-0.374,0.948-0.339,1.446
		s0.369,1.013,0.863,1.083"/>
	<path fill="#7F1B29" d="M5.777,82.546c0.64,0.462,1.677,0.171,1.982-0.556c0.305-0.727-0.214-1.672-0.991-1.804
		c-0.188-0.032-0.389-0.021-0.555,0.073c-0.362,0.205-0.418,0.696-0.43,1.112c-0.011,0.332-0.019,0.678,0.117,0.981
		c0.137,0.303,0.461,0.549,0.786,0.481"/>
	<path fill="#7F1B29" d="M7.954,41.996c0.357-0.966-0.374-2.17-1.396-2.299c-1.021-0.129-2.029,0.856-1.924,1.881
		c0.025,0.247,0.111,0.497,0.287,0.672c0.386,0.384,1.023,0.281,1.552,0.151c0.423-0.103,0.859-0.215,1.193-0.493
		C8,41.63,8.196,41.134,7.995,40.749"/>
	<path fill="#7F1B29" d="M14.061,67.095c-0.628,0.235-0.909,1.107-0.539,1.665c0.371,0.558,1.284,0.636,1.744,0.148
		c0.11-0.118,0.198-0.266,0.209-0.427c0.026-0.354-0.296-0.624-0.585-0.829c-0.23-0.163-0.471-0.332-0.75-0.378
		c-0.279-0.046-0.605,0.068-0.71,0.331"/>
	<path fill="#7F1B29" d="M22.779,27.154c0.302,0.534,1.129,0.666,1.581,0.252c0.452-0.414,0.393-1.25-0.113-1.596
		c-0.121-0.084-0.268-0.142-0.414-0.129c-0.324,0.027-0.522,0.355-0.668,0.645c-0.115,0.232-0.232,0.473-0.234,0.731
		c-0.004,0.259,0.146,0.538,0.398,0.596"/>
	<path fill="#7F1B29" d="M57.138,18.943c0.131,0.489,0.767,0.765,1.213,0.526c0.447-0.238,0.572-0.92,0.237-1.301
		c-0.079-0.092-0.185-0.168-0.306-0.188c-0.264-0.045-0.49,0.177-0.666,0.38c-0.139,0.161-0.283,0.33-0.339,0.536
		c-0.056,0.207,0.008,0.461,0.198,0.559"/>
	<path fill="#7F1B29" d="M12.189,32.166c0.29,0.706,1.292,0.995,1.914,0.553c0.622-0.442,0.677-1.484,0.104-1.989
		c-0.138-0.122-0.309-0.216-0.492-0.223c-0.403-0.016-0.699,0.359-0.922,0.696c-0.178,0.268-0.36,0.548-0.403,0.867
		c-0.043,0.318,0.099,0.687,0.401,0.796"/>
	<path fill="#7F1B29" d="M3.159,51.551c-0.321,1.595,1.113,3.295,2.738,3.247c1.627-0.049,2.957-1.831,2.543-3.403
		c-0.101-0.38-0.295-0.749-0.611-0.979c-0.696-0.506-1.665-0.19-2.458,0.142c-0.633,0.264-1.289,0.545-1.742,1.06
		c-0.452,0.514-0.637,1.336-0.229,1.888"/>
	<path fill="#7F1B29" d="M27.917,56.394c-1.315,0.02-2.412,1.446-2.095,2.723c0.318,1.277,1.955,2.023,3.127,1.424
		c0.282-0.144,0.541-0.361,0.669-0.651c0.279-0.637-0.137-1.349-0.535-1.919c-0.318-0.454-0.652-0.924-1.138-1.194
		s-1.165-0.274-1.532,0.143"/>
	<path fill="#7F1B29" d="M40.819,50.687c-0.247,0.497,0.074,1.184,0.613,1.313c0.541,0.128,1.137-0.341,1.14-0.896
		c0.001-0.133-0.03-0.272-0.114-0.376c-0.184-0.229-0.531-0.211-0.822-0.172c-0.231,0.031-0.473,0.066-0.668,0.195
		c-0.194,0.129-0.328,0.383-0.244,0.601"/>
	<path fill="#7F1B29" d="M11.595,47.179c-0.476,0-0.881,0.509-0.773,0.972c0.107,0.464,0.695,0.743,1.123,0.534
		c0.104-0.051,0.197-0.127,0.245-0.232c0.104-0.228-0.041-0.488-0.183-0.697c-0.111-0.166-0.229-0.338-0.404-0.438
		c-0.174-0.101-0.42-0.106-0.555,0.042"/>
	<path fill="#7F1B29" d="M2.071,63.501c-0.181,1.608,1.388,3.169,2.994,2.982c1.607-0.188,2.773-2.069,2.227-3.591
		c-0.133-0.368-0.355-0.717-0.689-0.918c-0.734-0.441-1.666-0.045-2.425,0.353c-0.604,0.316-1.229,0.651-1.634,1.2
		c-0.405,0.549-0.518,1.378-0.066,1.89"/>
	<path fill="#7F1B29" d="M47.449,31.785c-0.647,1.402,0.301,3.288,1.813,3.602c1.512,0.314,3.135-1.038,3.098-2.582
		c-0.01-0.372-0.106-0.755-0.348-1.038c-0.531-0.621-1.496-0.543-2.303-0.411c-0.642,0.104-1.311,0.219-1.842,0.594
		c-0.532,0.376-0.883,1.093-0.629,1.693"/>
	<path fill="#7F1B29" d="M3.614,68.234c-0.949,0.83-0.866,2.552,0.156,3.288c1.023,0.736,2.682,0.265,3.168-0.898
		c0.116-0.281,0.17-0.599,0.084-0.89c-0.19-0.639-0.936-0.901-1.58-1.07c-0.514-0.135-1.049-0.271-1.57-0.168
		C3.351,68.6,2.851,69.019,2.841,69.55"/>
	<path fill="#7F1B29" d="M28.319,83.62c-0.116-0.44-0.688-0.689-1.09-0.476c-0.402,0.214-0.516,0.827-0.217,1.17
		c0.072,0.083,0.168,0.152,0.275,0.17c0.238,0.041,0.441-0.159,0.6-0.34c0.127-0.145,0.256-0.297,0.307-0.482
		c0.05-0.186-0.006-0.415-0.178-0.503"/>
	<path fill="#7F1B29" d="M22.822,20.751c0.197-0.427-0.093-1.001-0.553-1.097c-0.461-0.095-0.955,0.317-0.942,0.788
		c0.002,0.113,0.031,0.229,0.105,0.316c0.162,0.189,0.456,0.165,0.701,0.124c0.195-0.032,0.398-0.067,0.561-0.181
		c0.162-0.115,0.27-0.333,0.191-0.516"/>
	<path fill="#7F1B29" d="M24.725,32.622c0.642,1.14,2.408,1.424,3.373,0.541c0.966-0.883,0.841-2.667-0.237-3.408
		c-0.26-0.179-0.571-0.302-0.886-0.276c-0.69,0.057-1.114,0.758-1.424,1.377c-0.246,0.493-0.498,1.008-0.505,1.56
		c-0.006,0.551,0.313,1.148,0.852,1.271"/>
	<path fill="#C9A877" d="M53.452,66.756c0.878-0.754,2.254-0.496,3.244,0.105c0.693,0.422,1.358,1.179,1.133,1.959
		c-0.204,0.702-1.071,1.029-1.787,0.884c-0.717-0.144-1.309-0.629-1.866-1.101c-0.271-0.23-0.549-0.471-0.709-0.789
		c-0.159-0.318-0.171-0.738,0.067-1.003"/>
	<path fill="#C9A877" d="M36.261,16.444c1.992-0.822,4.273,0.435,5.674,2.073c0.982,1.15,1.719,2.875,0.863,4.123
		c-0.77,1.121-2.492,1.195-3.674,0.523c-1.182-0.672-1.947-1.873-2.657-3.033c-0.347-0.565-0.698-1.151-0.795-1.806
		c-0.097-0.656,0.127-1.405,0.702-1.734"/>
	<path fill="#C9A877" d="M49.685,27.428c-0.105,1.74-1.828,2.957-3.517,3.395c-1.184,0.308-2.7,0.233-3.305-0.831
		c-0.545-0.956,0.012-2.236,0.919-2.858c0.906-0.622,2.052-0.754,3.146-0.861c0.535-0.052,1.086-0.1,1.597,0.061
		c0.512,0.162,0.978,0.59,1.014,1.125"/>
	<path fill="#C9A877" d="M17.882,55.677c0.783,0.704,0.713,1.976,0.285,2.939c-0.299,0.676-0.904,1.365-1.635,1.252
		c-0.656-0.102-1.053-0.846-1.007-1.509c0.047-0.663,0.415-1.254,0.776-1.812c0.176-0.272,0.359-0.551,0.627-0.732
		c0.27-0.181,0.646-0.241,0.914-0.057"/>
	<path fill="#C9A877" d="M29.638,50.816c-0.256,0.721-1.129,1.025-1.893,1.006c-0.536-0.013-1.166-0.227-1.292-0.749
		c-0.114-0.468,0.274-0.94,0.731-1.093s0.957-0.07,1.431,0.017c0.231,0.042,0.469,0.088,0.665,0.218
		c0.195,0.13,0.341,0.367,0.292,0.596"/>
	<path fill="#C9A877" d="M59.816,71.452c0.216,1.007-0.571,1.973-1.461,2.49c-0.625,0.363-1.5,0.562-2.013,0.053
		c-0.461-0.458-0.349-1.275,0.068-1.773s1.049-0.755,1.654-0.989c0.295-0.114,0.602-0.23,0.918-0.219s0.648,0.18,0.755,0.479"/>
	<path fill="#C9A877" d="M28.167,57.104c0.701-1.864,2.992-2.612,4.98-2.522c1.397,0.063,3.026,0.654,3.33,2.019
		c0.271,1.227-0.767,2.437-1.966,2.811c-1.2,0.374-2.495,0.132-3.726-0.12c-0.6-0.123-1.219-0.256-1.721-0.604
		c-0.504-0.349-0.869-0.972-0.729-1.569"/>
	<path fill="#C9A877" d="M26.527,55.372c0.521,2.237-1.196,4.422-3.162,5.61c-1.38,0.835-3.321,1.311-4.485,0.196
		c-1.047-1.002-0.828-2.828,0.084-3.955c0.91-1.127,2.308-1.725,3.649-2.271c0.654-0.267,1.332-0.536,2.038-0.524
		c0.707,0.012,1.456,0.376,1.703,1.038"/>
	<path fill="#C9A877" d="M12.563,75.75c-2.437,0.352-4.614-1.681-5.704-3.889c-0.766-1.55-1.096-3.667,0.201-4.81
		c1.166-1.026,3.095-0.624,4.216,0.451c1.121,1.076,1.632,2.623,2.093,4.106c0.225,0.723,0.45,1.471,0.373,2.225
		c-0.076,0.753-0.533,1.521-1.264,1.724"/>
	<path fill="#C9A877" d="M51.331,70.842c-0.33,1.398-1.899,2.145-3.332,2.264c-1.004,0.084-2.225-0.189-2.567-1.138
		c-0.308-0.852,0.323-1.814,1.147-2.192c0.823-0.378,1.771-0.325,2.676-0.258c0.44,0.033,0.895,0.071,1.287,0.274
		c0.393,0.203,0.711,0.615,0.666,1.055"/>
	<path fill="#C9A877" d="M61.017,78.547c-0.318,1.185-1.678,1.781-2.902,1.846c-0.86,0.046-1.895-0.219-2.162-1.037
		c-0.241-0.736,0.322-1.54,1.036-1.842c0.712-0.301,1.521-0.231,2.291-0.151c0.375,0.04,0.762,0.084,1.091,0.267
		c0.33,0.183,0.591,0.544,0.541,0.918"/>
	<path fill="#C9A877" d="M32.075,48.65c0.553-0.779,1.707-0.846,2.619-0.562c0.641,0.2,1.324,0.673,1.298,1.344
		c-0.024,0.602-0.653,1.037-1.255,1.064c-0.602,0.027-1.174-0.244-1.714-0.511c-0.263-0.13-0.534-0.267-0.726-0.491
		c-0.19-0.223-0.283-0.557-0.146-0.816"/>
	<path fill="#C9A877" d="M3.187,28.771c1.298-0.461,2.715,0.414,3.555,1.505c0.59,0.766,1.005,1.891,0.419,2.66
		c-0.526,0.691-1.629,0.683-2.362,0.216c-0.732-0.467-1.183-1.259-1.599-2.021c-0.203-0.372-0.408-0.757-0.449-1.179
		c-0.041-0.422,0.126-0.893,0.504-1.084"/>
	<path fill="#C9A877" d="M27.432,25.801c0.632-0.681,1.751-0.602,2.595-0.213c0.592,0.272,1.19,0.814,1.082,1.457
		c-0.099,0.577-0.76,0.917-1.344,0.868c-0.583-0.05-1.1-0.382-1.587-0.707c-0.237-0.159-0.481-0.324-0.637-0.563
		c-0.156-0.239-0.204-0.573-0.038-0.805"/>
	<path fill="#C9A877" d="M15.251,27.695c-0.899-1.638-0.033-3.726,1.246-5.089c0.896-0.956,2.313-1.755,3.471-1.138
		c1.039,0.556,1.268,2.034,0.802,3.117s-1.429,1.858-2.36,2.58c-0.455,0.353-0.926,0.712-1.481,0.858
		c-0.556,0.146-1.224,0.025-1.562-0.44"/>
	<path fill="#C9A877" d="M49.884,76.829c1.498,1.62,1.104,4.26,0.028,6.186c-0.755,1.353-2.149,2.674-3.651,2.297
		c-1.351-0.338-2.035-1.967-1.811-3.341s1.105-2.537,1.966-3.632c0.42-0.533,0.856-1.08,1.452-1.406
		c0.596-0.326,1.395-0.378,1.915,0.057"/>
	<path fill="#C9A877" d="M48.557,65.212c0.968-0.405,2.082,0.201,2.767,0.996c0.481,0.557,0.845,1.395,0.432,2.005
		c-0.372,0.548-1.211,0.588-1.788,0.264c-0.577-0.325-0.952-0.908-1.302-1.471c-0.17-0.274-0.342-0.558-0.391-0.877
		s0.059-0.685,0.338-0.846"/>
	<path fill="#C9A877" d="M21.511,54.75c-0.75-0.83-0.535-2.166,0.021-3.137c0.39-0.681,1.104-1.343,1.864-1.144
		c0.683,0.18,1.021,1.009,0.898,1.705c-0.121,0.695-0.574,1.28-1.018,1.83c-0.215,0.268-0.439,0.543-0.743,0.705
		c-0.304,0.162-0.709,0.184-0.972-0.04"/>
	<path fill="#C9A877" d="M17.708,49.065c0.458,0.493,0.339,1.297,0.014,1.885c-0.23,0.413-0.654,0.816-1.113,0.702
		c-0.411-0.102-0.62-0.598-0.553-1.017s0.336-0.774,0.596-1.108c0.129-0.163,0.262-0.329,0.443-0.429
		c0.18-0.1,0.424-0.116,0.584,0.016"/>
	<path fill="#C9A877" d="M58.132,40.804c0.98,0.097,1.631,1.094,1.842,2.055c0.148,0.675,0.074,1.529-0.538,1.848
		c-0.552,0.287-1.261-0.054-1.593-0.579c-0.332-0.525-0.383-1.174-0.42-1.794c-0.018-0.302-0.033-0.614,0.068-0.899
		c0.102-0.285,0.354-0.539,0.655-0.548"/>
	<path fill="#C9A877" d="M28.126,78.36c1.014-0.285,2.049,0.454,2.633,1.329c0.411,0.613,0.67,1.492,0.185,2.048
		c-0.437,0.5-1.276,0.438-1.812,0.045s-0.838-1.02-1.115-1.622c-0.137-0.294-0.273-0.598-0.282-0.922
		c-0.011-0.323,0.141-0.674,0.438-0.801"/>
	<path fill="#C9A877" d="M39.907,59.176c0.643-0.171,1.291,0.306,1.652,0.864c0.254,0.392,0.41,0.95,0.098,1.297
		c-0.281,0.312-0.812,0.265-1.146,0.012c-0.335-0.254-0.521-0.653-0.69-1.036c-0.084-0.188-0.168-0.381-0.171-0.585
		c-0.003-0.205,0.095-0.425,0.285-0.503"/>
	<path fill="#C9A877" d="M56.595,51.869c-0.654-0.401-0.771-1.32-0.592-2.066c0.125-0.523,0.467-1.096,1.004-1.112
		c0.483-0.014,0.865,0.466,0.92,0.947c0.055,0.481-0.131,0.953-0.315,1.4c-0.09,0.218-0.185,0.441-0.353,0.607
		c-0.168,0.165-0.432,0.257-0.646,0.161"/>
	<path fill="#C9A877" d="M54.649,18.383c-1.063,0.41-2.254-0.283-2.974-1.166c-0.505-0.62-0.872-1.541-0.405-2.19
		c0.42-0.583,1.332-0.601,1.948-0.231c0.616,0.37,1.006,1.014,1.367,1.636c0.176,0.303,0.354,0.617,0.397,0.965
		c0.043,0.348-0.084,0.741-0.393,0.908"/>
	<path fill="#C9A877" d="M38.335,34.422c-0.563,0.533-1.492,0.404-2.173,0.034c-0.478-0.26-0.947-0.745-0.82-1.274
		c0.113-0.475,0.683-0.722,1.166-0.648c0.484,0.073,0.896,0.378,1.283,0.676c0.188,0.145,0.383,0.297,0.5,0.505
		c0.116,0.208,0.138,0.488-0.013,0.673"/>
	<path fill="#C9A877" d="M28.958,64.877c0.461-0.712,1.482-0.816,2.303-0.598c0.574,0.153,1.199,0.546,1.201,1.142
		c0.002,0.535-0.539,0.945-1.072,0.992c-0.533,0.046-1.051-0.172-1.539-0.388c-0.239-0.106-0.484-0.217-0.662-0.408
		c-0.178-0.19-0.273-0.483-0.161-0.718"/>
	<path fill="#C9A877" d="M47.457,43.332c1.843,0.538,2.729,2.684,2.789,4.602c0.041,1.347-0.408,2.956-1.698,3.347
		c-1.158,0.351-2.396-0.557-2.844-1.683c-0.448-1.125-0.311-2.387-0.158-3.589c0.074-0.585,0.156-1.189,0.455-1.698
		c0.298-0.51,0.87-0.906,1.454-0.814"/>
	<path fill="#C9A877" d="M5.688,17.524c0.357,1.309-0.605,2.637-1.74,3.383c-0.795,0.524-1.93,0.85-2.643,0.218
		c-0.641-0.568-0.552-1.65-0.039-2.336c0.512-0.686,1.321-1.071,2.102-1.424c0.38-0.172,0.773-0.346,1.191-0.355
		c0.418-0.01,0.867,0.188,1.028,0.574"/>
	<path fill="#C9A877" d="M37.919,70.342c-0.652,0.24-1.373-0.193-1.804-0.739c-0.302-0.383-0.519-0.949-0.228-1.34
		c0.262-0.352,0.819-0.355,1.191-0.123c0.373,0.231,0.605,0.628,0.82,1.011c0.104,0.186,0.209,0.38,0.232,0.592
		c0.023,0.213-0.058,0.452-0.248,0.551"/>
	<path fill="#C9A877" d="M5.289,48.256c-0.751-0.146-1.181-0.966-1.275-1.725c-0.065-0.533,0.054-1.188,0.552-1.39
		c0.447-0.182,0.973,0.134,1.19,0.564c0.219,0.43,0.21,0.936,0.194,1.419c-0.008,0.235-0.02,0.477-0.119,0.69
		c-0.1,0.213-0.313,0.392-0.547,0.377"/>
	<path fill="#FFEDD5" d="M15.206,83.766c0.531-0.807-1.416-2.141-2.307-1.768c-0.893,0.373-0.971,1.81-0.191,2.383
		C13.487,84.953,14.717,84.6,15.206,83.766"/>
	<path fill="#FFEDD5" d="M8.216,60.222c0.482,0.661,2.116-0.486,2.086-1.304c-0.031-0.817-1.146-1.304-1.83-0.858
		C7.786,58.506,7.701,59.586,8.216,60.222"/>
	<path fill="#FFEDD5" d="M17.397,31.441c0.213,1.178,3.098,0.711,3.58-0.385c0.481-1.095-0.676-2.45-1.863-2.299
		S17.125,30.276,17.397,31.441"/>
	<path fill="#FFEDD5" d="M40.079,84.165c1.297-0.168,0.941-3.342-0.229-3.927s-2.711,0.606-2.61,1.911
		C37.343,83.453,38.792,84.401,40.079,84.165"/>
	<path fill="#FFEDD5" d="M32.993,29.167c-0.188,1.42,3.27,1.942,4.219,0.87c0.949-1.073,0.125-3.04-1.282-3.301
		C34.521,26.475,33.108,27.739,32.993,29.167"/>
	<path fill="#FFEDD5" d="M43.992,56.731c0.274,0.849,2.36,0.214,2.606-0.645c0.246-0.858-0.746-1.743-1.608-1.511
		C44.128,54.806,43.673,55.897,43.992,56.731"/>
	<path fill="#FFEDD5" d="M19.497,13.468c-0.495,0.651,1.072,1.887,1.848,1.624c0.773-0.264,0.92-1.473,0.295-2
		C21.017,12.564,19.957,12.792,19.497,13.468"/>
	<path fill="#FFEDD5" d="M27.674,47.371c1.308-0.612-0.131-3.831-1.558-4.054c-1.428-0.222-2.648,1.548-2.104,2.886
		C24.557,47.541,26.399,48.051,27.674,47.371"/>
	<path fill="#FFEDD5" d="M20.195,80.075c-0.963,0.3-0.272,2.664,0.694,2.953c0.967,0.288,1.979-0.821,1.729-1.798
		C22.368,80.253,21.142,79.725,20.195,80.075"/>
	<path fill="#FFEDD5" d="M14.593,10.838c-0.785,0.16-0.428,2.081,0.313,2.386s1.627-0.49,1.508-1.281
		C16.294,11.151,15.367,10.637,14.593,10.838"/>
	<path fill="#FFEDD5" d="M60.823,24.294c-0.347-0.33-1.168,0.504-1.063,0.971c0.104,0.468,0.798,0.631,1.146,0.301
		S61.188,24.605,60.823,24.294"/>
	<path fill="#FFEDD5" d="M51.625,75.345c-0.411,0.207,0.077,1.221,0.534,1.278c0.458,0.058,0.83-0.518,0.645-0.939
		C52.617,75.262,52.024,75.116,51.625,75.345"/>
	<path fill="#FFEDD5" d="M9.969,18.653c-0.101-0.946-2.415-0.739-2.858,0.102c-0.445,0.841,0.396,1.981,1.346,1.929
		C9.405,20.631,10.118,19.593,9.969,18.653"/>
	<path fill="#FFEDD5" d="M14.692,78.125c-0.324-0.435-1.398,0.337-1.373,0.878c0.026,0.541,0.768,0.857,1.219,0.556
		C14.989,79.258,15.038,78.542,14.692,78.125"/>
	<path fill="#FFEDD5" d="M55.419,56.89c-0.229,0.636,1.313,1.223,1.857,0.824c0.547-0.399,0.363-1.389-0.26-1.651
		C56.394,55.801,55.614,56.243,55.419,56.89"/>
	<path fill="#FFEDD5" d="M36.449,15.326c0.513-0.803-1.425-2.091-2.299-1.711c-0.874,0.379-0.931,1.797-0.155,2.351
		C34.771,16.52,35.979,16.155,36.449,15.326"/>
	<path fill="#FFEDD5" d="M56.487,20.259c-0.432-0.006-0.464,1.047-0.109,1.293s0.914-0.071,0.941-0.502
		C57.348,20.62,56.919,20.242,56.487,20.259"/>
	<path fill="#FFEDD5" d="M62.334,79.5c-0.247-0.328-1.058,0.261-1.037,0.671c0.022,0.41,0.586,0.646,0.927,0.416
		C62.563,80.356,62.598,79.814,62.334,79.5"/>
	<path fill="#FFEDD5" d="M33.239,23.437c0.365,0.286,1.08-0.596,0.936-1.038c-0.145-0.442-0.83-0.534-1.135-0.183
		C32.735,22.568,32.857,23.171,33.239,23.437"/>
	<path fill="#FFEDD5" d="M12.491,41.582c-0.594,0.723,1.146,2.207,2.043,1.939c0.897-0.267,1.119-1.644,0.428-2.276
		C14.271,40.614,13.049,40.829,12.491,41.582"/>
	<path fill="#FFEDD5" d="M12.425,55.646c0.715-0.055,0.611-1.802-0.012-2.156c-0.623-0.354-1.502,0.253-1.483,0.97
		S11.714,55.738,12.425,55.646"/>
	<path fill="#FFEDD5" d="M27.771,11.841c0.642,0.062,0.821-1.503,0.323-1.913c-0.498-0.41-1.37-0.007-1.465,0.631
		C26.534,11.197,27.126,11.813,27.771,11.841"/>
	<path fill="#FFEDD5" d="M19.616,44.395c-0.491,0.088-0.297,1.292,0.16,1.493s1.021-0.282,0.959-0.777
		C20.672,44.615,20.103,44.281,19.616,44.395"/>
	<path fill="#FFEDD5" d="M28.748,35.516c-0.37,0.711,1.349,1.646,2.054,1.263c0.703-0.383,0.646-1.575-0.045-1.981
		C30.066,34.391,29.081,34.787,28.748,35.516"/>
	<path fill="#FFEDD5" d="M8.527,36.896c0.872,0.02,0.959-2.111,0.245-2.615c-0.713-0.504-1.85,0.126-1.916,0.997
		C6.793,36.149,7.654,36.921,8.527,36.896"/>
	<path fill="#FFEDD5" d="M1.678,77.622c-0.038,0.568,1.347,0.686,1.694,0.236c0.35-0.449-0.027-1.208-0.592-1.276
		C2.215,76.515,1.687,77.053,1.678,77.622"/>
	<path fill="#FFEDD5" d="M49.641,60.345c-0.336,0.382,0.582,1.219,1.075,1.09c0.492-0.13,0.636-0.874,0.271-1.229
		C50.624,59.851,49.956,59.945,49.641,60.345"/>
	<path fill="#FFEDD5" d="M38.606,47.437c0.715,0.775,2.637-0.937,2.477-1.979s-1.662-1.501-2.472-0.827
		C37.8,45.305,37.853,46.7,38.606,47.437"/>
	<path fill="#FFEDD5" d="M17.145,76.347c0.868,0.427,1.948-1.674,1.468-2.513c-0.482-0.839-1.92-0.736-2.391,0.109
		C15.751,74.788,16.256,75.966,17.145,76.347"/>
	<path fill="#FFEDD5" d="M37.118,54.547c-0.604-0.05-0.751,1.422-0.277,1.8c0.473,0.378,1.285-0.012,1.367-0.612
		C38.288,55.135,37.724,54.565,37.118,54.547"/>
	<path fill="#FFCB0B" d="M2.739,27.38c14.518-1.029,29.129-1.041,43.648-0.035c4.684,0.324,9.393,0.754,14.066,0.345
		c0.353-0.031,0.734-0.06,1.033,0.106c0.381,0.212,0.478,0.655,0.532,1.048c1.25,8.808,0.41,17.745-1.026,26.531
		c-0.633,3.866-0.641,6.952-0.551,12.404c-5.933,0.811-11.761,0.095-17.765,0.142c-13.248,0.106-26.496,0.211-39.745,0.317
		c-0.316,0.002-1.168-5.598-1.117-7.89c0.051-2.286-0.23-4.579-0.18-6.865c0.048-2.123,0.135-4.89-0.238-6.988
		c-0.472-2.657,0.362-4.702,0.352-7.047c-0.021-4.251-1.695-8.244-0.072-12.25"/>
	<path fill="#7F1B29" d="M2.181,12.222C1.836,7.398,1.959,4.312,2.553,0.867c4.604-0.598,9.263-0.631,13.906-0.663
		c9.003-0.062,18.005-0.124,27.008-0.186c4.919-0.034,9.849-0.067,14.746,0.395c1.41,0.134,2.978,0.396,3.827,1.53
		c0.52,0.695,0.666,1.593,0.777,2.454c0.345,2.658,0.521,5.338,0.526,8.018c-7.733-1.67-15.715-1.688-23.627-1.699
		c-8.694-0.012-17.389-0.024-26.083-0.036C9.719,10.674,5.935,11.112,2.181,12.222"/>
</g>
</svg>
