<?xml version="1.0" encoding="utf-8"?>
<!-- Generator: Adobe Illustrator 16.0.2, SVG Export Plug-In . SVG Version: 6.00 Build 0)  -->
<!DOCTYPE svg PUBLIC "-//W3C//DTD SVG 1.1//EN" "http://www.w3.org/Graphics/SVG/1.1/DTD/svg11.dtd">
<svg version="1.1" id="Layer_1" xmlns="http://www.w3.org/2000/svg" xmlns:xlink="http://www.w3.org/1999/xlink" x="0px" y="0px"
	 width="33.926px" height="56.595px" viewBox="0 0 33.926 56.595" enable-background="new 0 0 33.926 56.595" xml:space="preserve">
<g>
	<path fill="#F19121" d="M31.147,6.404c-0.119,0.638-0.392,1.182,0.043,1.63c0.434,0.447,1.052,0.667,1.532,1.064
		c1.219,1.01,1.252,2.834,1.183,4.415c-0.269,6.164-0.537,12.328-0.806,18.492c-0.084,1.928-0.168,3.858-0.375,5.776
		c-0.162,1.492,0.196,2.997-0.04,4.479c-0.571,3.57,0.05,7.183-0.521,10.752c-0.178,1.118-0.358,1.13-1.183,1.905
		c-0.504,0.473-1.174,0.724-1.836,0.922c-2.713,0.81-5.708,0.928-10.197,0.543c-1.876-0.161-3.637-0.223-5.495-0.529
		c-2.103-0.347-4.25-0.161-6.378-0.052c-1.76,0.09-3.688,0.076-5.068-1.02c-1.822-1.448-1.945-4.125-1.902-6.453
		c0.147-7.948,0.123-15.904,0.521-23.844C0.8,20.969,1,17.426,0.506,13.939c-0.221-1.563-0.263-3.238,0.472-4.636
		c0.92-1.75,3.319-2.584,3.688-4.526c0.04-0.213,0.057-0.44,0.188-0.613C5.055,3.894,5.44,3.866,5.776,3.86
		c7.885-0.106,15.775,0.246,23.62,1.059c0.378,0.039,0.779,0.089,1.076,0.327C30.77,5.483,31.001,5.734,31.147,6.404"/>
	<path fill="#F4D49D" d="M1.015,20.765c10.956-0.229,21.923,0.05,32.853,0.832c-0.354,4.342-0.143,6.737-0.316,11.508
		c-0.077,2.116-0.267,5.234-0.38,7.351c-0.11,2.035-0.144,2.929-0.384,5.458c-0.037,0.386-0.43,1.245-0.698,1.525
		c-0.195,0.203-0.511,0.215-0.792,0.215C21.142,47.62,10.986,47.402,0.839,47c-0.228-0.009-0.483-0.032-0.627-0.207
		c-0.116-0.14-0.125-0.337-0.128-0.518c-0.146-8.139-0.172-16.293,0.515-24.403c0.079-0.94-0.148-0.927,0.785-1.057"/>
	<path fill="#FFCB0B" d="M14.273,43.206c0.871-0.687,1.876-1.205,2.942-1.516c0.327-0.095,0.69-0.169,1.003-0.029
		c0.683,0.308,0.541,1.427-0.08,1.845c-0.623,0.418-1.439,0.346-2.185,0.259c0.333,0.471,0.886,0.734,1.288,1.146
		c0.404,0.413,0.613,1.155,0.179,1.533c-0.385,0.333-1.011,0.136-1.355-0.236c-0.345-0.373-0.515-0.87-0.79-1.298
		c-0.114-0.176-0.294-0.358-0.499-0.313c-0.348,0.076-0.255,0.585-0.295,0.938c-0.085,0.747-1.02,1.014-1.768,1.104
		c-0.156,0.018-0.32,0.036-0.466-0.023c-0.439-0.179-0.339-0.879,0.028-1.18c0.366-0.301,0.867-0.38,1.269-0.634
		c-1.049,0.848-2.883,0.312-3.309-0.969c-0.05-0.15-0.082-0.319-0.016-0.465c0.08-0.174,0.277-0.26,0.461-0.315
		c0.813-0.248,1.706-0.225,2.504,0.067c-0.283,0.182-0.6-0.225-0.604-0.561c-0.014-1.047,1.088-1.735,2.088-2.039
		c0.394,0.915,0.012,2.092-0.844,2.601"/>
	<path fill="#FFCB0B" d="M21.198,44.758c0.772-0.813,1.719-1.461,2.756-1.888c0.16-0.065,0.33-0.128,0.501-0.105
		c0.256,0.032,0.456,0.246,0.558,0.483c0.313,0.724-0.157,1.593-0.838,1.991c-0.68,0.398-1.504,0.44-2.291,0.457
		c0.57,0.02,1.323,0.213,1.327,0.784c0.002,0.25-0.162,0.473-0.354,0.632c-0.818,0.679-2.253,0.344-2.685-0.627
		c-0.561,0.535-1.296,0.886-2.064,0.984c-0.187,0.024-0.415,0.014-0.509-0.149c-0.125-0.221,0.114-0.466,0.325-0.608
		c0.537-0.358,1.073-0.719,1.61-1.078c0.182-0.121,0.376-0.258,0.45-0.465c0.163-0.457-0.323-0.852-0.635-1.224
		c-0.619-0.74-0.584-1.943,0.077-2.646c0.093-0.097,0.201-0.188,0.334-0.208c0.3-0.044,0.509,0.284,0.619,0.567
		c0.472,1.213,0.677,2.528,0.599,3.826"/>
	<path fill="#44A84F" d="M2.984,4.01C1.948,3.051,2.592,1.536,3.771,0.756C4.949-0.022,6.459-0.02,7.871,0.008
		C14.39,0.139,20.91,0.271,27.429,0.403c1.58,0.031,3.256,0.092,4.57,0.969c1.313,0.876,1.998,2.885,0.955,4.072
		C22.964,4.965,12.974,4.489,2.984,4.01"/>
	<path fill="#FFEDD5" d="M20.709,44.935c-0.289-0.122-0.595,0.253-0.514,0.556c0.082,0.303,0.394,0.486,0.697,0.565
		c0.352,0.093,0.763,0.075,1.033-0.168c0.271-0.242,0.293-0.755-0.024-0.935"/>
	<path fill="#FFEDD5" d="M13.598,44.016c0.332-0.253,0.782-0.344,1.186-0.238c0.118,0.03,0.247,0.094,0.273,0.213
		c0.017,0.078-0.018,0.157-0.056,0.226c-0.277,0.489-0.901,0.752-1.444,0.607"/>
</g>
</svg>
