<?xml version="1.0" encoding="utf-8"?>
<!-- Generator: Adobe Illustrator 16.0.2, SVG Export Plug-In . SVG Version: 6.00 Build 0)  -->
<!DOCTYPE svg PUBLIC "-//W3C//DTD SVG 1.1//EN" "http://www.w3.org/Graphics/SVG/1.1/DTD/svg11.dtd">
<svg version="1.1" id="Layer_1" xmlns="http://www.w3.org/2000/svg" xmlns:xlink="http://www.w3.org/1999/xlink" x="0px" y="0px"
	 width="135.086px" height="31.404px" viewBox="0 0 135.086 31.404" enable-background="new 0 0 135.086 31.404"
	 xml:space="preserve">
<g>
	<path fill="#F6BB97" d="M12.466,16.854c-3.78,0.912-7.385,2.179-10.701,3.763c-0.719,0.343-1.471,0.748-1.696,1.358
		c-0.436,1.181,1.273,2.207,2.775,2.806c9.755,3.89,20.742,5.829,31.691,6.416s21.9-0.139,32.679-1.325
		c6.313-0.693,12.626-1.554,18.574-3.176c5.193-1.415,10.052-3.395,15.236-4.828c5.184-1.433,10.889-2.31,16.395-1.4
		c1.423-0.82,1.075-2.508,0.196-3.712c-0.88-1.203-2.183-2.326-2.349-3.673c-0.124-1.005,0.099-2.396-1.235-2.673
		c-0.464-0.096-0.946,0.016-1.397,0.122c-5.046,1.201-10.416,2.033-15.74,1.446c-2.143-0.236-4.235-0.697-6.344-1.082
		c-9.568-1.742-19.455-1.894-29.242-2.034c-3.285-0.048-6.579-0.095-9.833,0.15c-4.047,0.304-7.983,1.055-11.901,1.805
		c-9.342,1.786-18.715,3.579-27.623,6.243"/>
	<path fill="#C6C5C5" d="M12.54,18.267c2.215,3.791,4.715,7.49,7.48,11.072c-0.514,0.195-1.137,0.115-1.714,0.032
		c-2.656-0.383-5.311-0.767-7.967-1.149c-2.055-0.298-4.18-0.616-5.932-1.542c-1.902-1.006-3.135-2.605-4.203-4.182
		c-0.083-0.122-0.168-0.254-0.148-0.388c0.024-0.153,0.178-0.269,0.326-0.367c1.707-1.146,3.683-2.557,5.849-3.104
		c2.119-0.535,5.047-1.812,6.29-1.21"/>
	<path fill="#C6C5C5" d="M108.092,11.656C115.73,6.392,124.988,2.385,135.036,0c-2.446,2.194-5.184,4.213-8.163,6.021
		c-1.609,0.976-3.312,1.907-4.535,3.149c-1.223,1.241-1.915,2.882-1.233,4.372c0.462,1.01,1.488,1.832,2.485,2.619l6.222,4.909
		c1.989,1.57,4.01,3.173,5.275,5.094c-2.864,1.294-6.659,0.537-9.869-0.397c-5.762-1.678-12.767-2.717-17.917-5.277
		c1.441-0.734,5.163,0.156,6.556-1.322c0.56-1.726,0.61-3.631-0.503-5.248c-1.113-1.618-3.607-2.831-5.997-2.514"/>
	<path fill="#010101" d="M8.87,22.454c0.644-0.061,0.821-0.756,0.401-1.131c-0.419-0.375-1.15-0.468-1.799-0.438
		c-0.886,0.042-1.799,0.292-2.28,0.827c-0.481,0.537-0.353,1.389,0.421,1.73c0.308,0.136,0.671,0.18,1.023,0.219
		c0.522,0.059,1.063,0.113,1.564,0.011c0.501-0.104,0.955-0.408,0.969-0.793c0.021-0.609-1.338-0.937-1.773-0.426"/>
</g>
</svg>
