<?xml version="1.0" encoding="utf-8"?>
<!-- Generator: Adobe Illustrator 16.0.2, SVG Export Plug-In . SVG Version: 6.00 Build 0)  -->
<!DOCTYPE svg PUBLIC "-//W3C//DTD SVG 1.1//EN" "http://www.w3.org/Graphics/SVG/1.1/DTD/svg11.dtd">
<svg version="1.1" id="Layer_1" xmlns="http://www.w3.org/2000/svg" xmlns:xlink="http://www.w3.org/1999/xlink" x="0px" y="0px"
	 width="111.18px" height="148.189px" viewBox="0 0 111.18 148.189" enable-background="new 0 0 111.18 148.189"
	 xml:space="preserve">
<g>
	<path fill="#732644" d="M9.526,1.526c-0.248,16.136,2.149,27.868,0.494,43.888c-0.66,6.395-1.96,12.678-2.589,19.076
		C6.837,70.538,6.44,76.664,6.859,82.732c3.008,43.591,0.077,42.221,0.116,63.331c-1.005-3.341-3.995-5.235-5.58-8.244
		c-2.338-4.441-1.184-10.146-0.498-15.313c0.821-6.192,0.847-12.488,0.871-18.758c0.137-36-0.76-64.239-1.768-100.22
		c2.92-0.254,6.897-3.464,9.802-3.03"/>
	<path fill="#BB1E72" d="M7.937,0.186c33.635,1.11,68.883-1.18,102.448,1.239c0.567,0.041-0.47-0.325,0,0
		c1.121,0.774,0.833,2.473,0.478,3.788c-3.228,11.931-1.582,24.548-1.561,36.906c0.052,29.408-7.434,63.781-5.721,93.14
		c0.046,0.771,0.067,1.634-0.452,2.204c-0.412,0.452-1.056,0.594-1.656,0.711c-13.067,2.552-23.829,1.12-40.992,2.289
		c-5.001,0.341-9.858,1.924-14.862,2.189c-8.578,0.454-15.947,1.706-24.644,3.411c-3.482,0.683-9.988,2.594-13.333,0.746
		c-2.347-1.297-1.331-3.133-1.111-5.835c0.239-2.941,0.436-5.887,0.591-8.833c0.631-12.017-0.382-19.798-1.154-31.806
		c-0.416-6.464-0.091-17.195,0.011-23.672c0.07-4.48,0.485-8.949,0.9-13.411c1.149-12.354,2.298-24.708,3.447-37.062
		c0.411-4.419-0.994-9.14-1.129-13.575C9.017,6.688,9.671,5.553,7.586,0"/>
	<path fill="#AD832D" d="M70.015,68.438c3.426-5.325,12.203-5.135,16.379-0.376c0.563,0.641,1.07,1.505,0.781,2.309
		c-0.203,0.56-0.735,0.919-1.246,1.224c-3.991,2.379-8.588,3.732-13.23,3.896c-1.857,0.066-3.959-0.17-5.117-1.624
		C66.06,71.957,67.576,68.571,70.015,68.438"/>
	<path fill="#AD832D" d="M94.593,92.232c-3.015,0.459,0.115,1.757-2.559,3.222c-1.661,0.909-3.372,2.236-3.577,4.119
		c-0.185,1.708,1.003,3.328,2.496,4.18c1.493,0.85,3.246,1.09,4.949,1.313c1.021,0.136,2.078,0.267,3.065-0.025
		c1.621-0.481,2.709-1.999,3.439-3.525c1.359-2.842,1.846-6.422,0.061-9.017C100.681,89.904,96.077,89.454,94.593,92.232"/>
	<path fill="#AD832D" d="M108.333,13.77c-5.873,0.833-8.488,5.258-11.34,8.136c-0.602,0.607-1.203,1.267-1.441,2.087
		c-0.401,1.388,0.352,2.875,1.389,3.883c2.221,2.156,5.861,2.68,8.601,1.235c2.738-1.444,4.362-4.746,3.837-7.797"/>
	<path fill="#AD832D" d="M11.378,48.1c2.414-0.667,5.209-0.478,7.137,1.12c1.928,1.597,2.539,4.812,0.854,6.663
		c-1.004,1.103-2.56,1.534-4.048,1.617c-1.857,0.104-3.842-0.313-5.173-1.612c-1.33-1.299-1.734-3.622-0.529-5.039"/>
	<path fill="#FDEB07" d="M96.552,26.148C85.866,23.2,74.727,20.226,63.829,22.26c-5.314,0.991-10.336,3.143-15.234,5.427
		c-7.11,3.316-14.073,6.948-20.86,10.884c-4.204,2.437-8.562,5.229-10.642,9.621c-2.079,4.392-0.675,10.758,3.947,12.255
		c5.182,1.679,9.224-1.947,13.73-5.008c8.681-5.896,20.658-6.607,31.142-6.111s22.057,0.31,29.967-6.585
		c1.92-1.673,3.636-4.002,3.34-6.531C98.894,33.435,99.251,28.936,96.552,26.148"/>
	<path fill="#9BC53D" d="M5.78,88.436c5.891,0.008,13.622,1.102,19.064-1.155c5.442-2.256,10.157-7.33,10.129-13.221
		c-0.026-5.282-3.736-10.502-2.045-15.506c0.81-2.396,2.739-4.228,4.709-5.813c7.191-5.787,15.891-9.686,24.996-11.201
		c5.094-0.849,11.981,0.312,12.752,5.417c0.276,1.825-0.403,3.666-1.297,5.282c-3.342,6.053-9.506,9.922-14.207,14.991
		c-4.703,5.069-7.927,13.029-4.048,18.753c2.396,3.536,6.974,5.31,8.856,9.144c3.251,6.625-3.252,13.51-7.244,19.716
		c-4.254,6.614-5.916,14.646-10.271,21.192c-5.201,7.818-5.795,9.575-15.175,10.029c-2.813,0.136-14.207,3.208-16.6,1.721
		c-3.753-2.331-5.331-7.188-4.89-11.586c0.441-4.396,2.552-8.436,4.798-12.239c1.181-2.001,2.453-4.13,2.348-6.45
		c-0.092-2.025-1.223-3.836-2.319-5.541c-3.94-6.129-5.636-8.768-9.576-14.896"/>
</g>
</svg>
