<?xml version="1.0" encoding="utf-8"?>
<!-- Generator: Adobe Illustrator 16.0.2, SVG Export Plug-In . SVG Version: 6.00 Build 0)  -->
<!DOCTYPE svg PUBLIC "-//W3C//DTD SVG 1.1//EN" "http://www.w3.org/Graphics/SVG/1.1/DTD/svg11.dtd">
<svg version="1.1" id="Layer_1" xmlns="http://www.w3.org/2000/svg" xmlns:xlink="http://www.w3.org/1999/xlink" x="0px" y="0px"
	 width="111.18px" height="147.593px" viewBox="0 0 111.18 147.593" enable-background="new 0 0 111.18 147.593"
	 xml:space="preserve">
<g>
	<path fill="#B72027" d="M9.526,1.526c-0.248,16.136,2.149,27.868,0.495,43.888C9.36,51.809,8.061,58.092,7.432,64.49
		C6.837,70.538,6.44,76.664,6.859,82.732c3.008,43.591,0.077,42.221,0.116,63.331c-1.005-3.341-3.995-5.235-5.58-8.244
		c-2.338-4.441-1.184-10.146-0.498-15.313c0.821-6.192,0.847-12.488,0.871-18.758c0.138-36-0.76-64.239-1.768-100.22
		c2.92-0.254,6.897-3.464,9.802-3.03"/>
	<path fill="#EC2227" d="M7.937,0.186c33.634,1.11,68.883-1.18,102.448,1.239c0.568,0.041-0.469-0.325,0,0
		c1.121,0.774,0.833,2.473,0.477,3.788c-3.227,11.931-1.582,24.548-1.56,36.906c0.052,29.408-7.434,63.781-5.72,93.14
		c0.045,0.771,0.067,1.634-0.453,2.204c-0.412,0.452-1.056,0.594-1.656,0.711c-13.068,2.552-23.829,1.12-40.992,2.289
		c-5.001,0.341-9.858,1.924-14.863,2.189c-8.578,0.454-15.947,1.706-24.643,3.411c-3.481,0.683-9.988,2.594-13.333,0.746
		c-2.347-1.297-1.331-3.133-1.111-5.835c0.239-2.941,0.436-5.887,0.591-8.833c0.631-12.017-0.382-19.798-1.154-31.806
		c-0.416-6.464-0.091-17.195,0.011-23.672c0.07-4.48,0.485-8.949,0.9-13.411c1.149-12.354,2.298-24.708,3.447-37.062
		c0.411-4.419-0.994-9.14-1.129-13.575C9.017,6.688,9.671,5.553,7.586,0"/>
	<path fill="#2C3A96" d="M8.321,111.336c2.248-9.364,11.869-15.264,21.332-17.05c9.463-1.787,19.214-0.507,28.83-1.024
		c18.769-1.011,37.065-9.178,50.35-22.476c1.293,10.203-2.835,20.24-4.022,30.455c-1.316,11.319,0.681,25.072-1.682,36.222
		c-0.171,0.809-0.096-0.451-0.74,0.066c-0.512,0.41-1.034,3.222-1.682,3.322c-29.135,4.557-58.674,4.854-88.129,6.263
		c-1.11,0.053-3.984,0.266-4.936-0.306c-1.678-1.006-0.175-3.5-0.172-5.457c0.015-10.191,0.031-20.384,0.046-30.576"/>
	<path fill="#FEC045" d="M58.863,99.396c1.441-1.645,1.831-3.145,2.404-5.254c0.836-3.082,2.395-6.068,4.919-8.026
		c2.523-1.957,6.116-2.705,9.003-1.34c0.83,0.393,1.607,0.972,2.035,1.785c0.524,0.992,0.46,2.179,0.383,3.299
		c-0.131,1.916-0.311,3.963-1.506,5.466c-0.576,0.724-1.346,1.264-2.113,1.778c-2.215,1.485-4.542,2.873-7.111,3.587
		c-2.57,0.714-5.431,0.696-7.791-0.545C58.78,99.984,58.523,99.458,58.863,99.396"/>
	<path fill="#FEC045" d="M7.863,80.396c1.441-1.645,1.831-3.145,2.404-5.254c0.836-3.082,2.395-6.068,4.919-8.026
		c2.523-1.957,6.116-2.705,9.003-1.34c0.83,0.393,1.607,0.972,2.035,1.785c0.524,0.992,0.46,2.179,0.383,3.299
		c-0.131,1.916-0.311,3.963-1.506,5.466c-0.576,0.724-1.346,1.264-2.113,1.778c-2.215,1.485-4.542,2.873-7.111,3.587
		c-2.57,0.714-5.431,0.696-7.791-0.545C7.78,80.984,7.523,80.458,7.863,80.396"/>
	<path fill="#FEC045" d="M84.834,72.112c0.047-2.458,2.273-4.236,4.289-5.643c1.375-0.96,2.75-1.919,4.125-2.879
		c0.231-0.161,0.486-0.329,0.767-0.314c0.227,0.014,0.428,0.145,0.614,0.273c1.138,0.792,2.242,1.781,2.65,3.105
		c0.297,0.966,0.191,2.011-0.046,2.991c-0.875,3.626-3.596,6.755-7.066,8.125c-0.604,0.238-1.261,0.428-1.897,0.298
		c-0.622-0.128-1.139-0.542-1.631-0.943c-0.779-0.638-1.575-1.294-2.083-2.163c-0.507-0.869-0.674-2.01-0.155-2.873
		c0.485-0.808,1.499-1.286,1.722-2.202"/>
	<path fill="#FEC045" d="M76,56.398c-1.505-0.607-3.283,0.046-4.449,1.175c-1.166,1.13-1.851,2.652-2.509,4.137
		c-0.481,1.086-0.973,2.278-0.669,3.428c0.305,1.157,1.38,1.984,2.526,2.328c1.146,0.345,2.368,0.291,3.564,0.233
		c0.637-0.03,1.308-0.071,1.842-0.421c0.45-0.294,0.742-0.768,1.08-1.187c1.14-1.414,2.99-2.455,3.253-4.252
		c0.186-1.27-0.512-2.482-1.182-3.575c-0.403-0.657-0.829-1.337-1.48-1.749c-0.651-0.412-1.597-0.467-2.132,0.088"/>
	<path fill="#FEC045" d="M85.655,50.216c0.432-1.932,0.864-3.864,1.295-5.797c0.09-0.402,0.191-0.827,0.475-1.126
		c0.295-0.311,0.734-0.431,1.15-0.538c1.887-0.483,3.774-0.968,5.661-1.452c0.192-0.049,0.406-0.095,0.578,0.003
		c0.139,0.077,0.215,0.23,0.281,0.376c1.156,2.561,1.367,5.535,0.584,8.233c-0.286,0.988-0.728,1.977-1.523,2.628
		c-0.696,0.572-1.59,0.829-2.457,1.073c-1.86,0.524-4.253,0.877-5.374-0.697c-0.647-0.909-0.575-2.127-0.476-3.238"/>
	<path fill="#F19121" d="M29.389,87.806c-4.038,2.938-8.076,5.874-12.115,8.812c-0.366,0.266-0.746,0.549-0.945,0.956
		c-0.649,1.325,0.971,2.62,2.377,3.067c6.411,2.036,13.476,0.034,19.338-3.266c5.863-3.299,10.935-7.833,16.619-11.431
		c3.541-2.241,7.359-4.149,10.344-7.09c2.984-2.942,5.046-7.272,3.955-11.318c-0.699-2.593-2.557-4.681-4.157-6.838
		c-2.04-2.75-3.733-5.758-5.025-8.928c-0.112-0.275-0.222-0.581-0.126-0.862c0.165-0.484,0.795-0.581,1.307-0.596l17.47-0.498
		c7.179-0.204,15.334-0.875,19.772-6.522c3.589-4.569,3.282-11.748-0.686-15.992c-2.324-2.485-5.575-3.9-8.843-4.85
		c-1.302-0.378-2.654-0.696-4.004-0.563c-2.223,0.22-4.132,1.617-5.876,3.014c-1.744,1.396-3.54,2.888-5.723,3.359
		c-2.183,0.473-4.863-0.487-5.487-2.632c-5.529,7.456-10.197,16.528-18.835,19.929c-0.796,0.313-1.94,0.441-2.289-0.34
		c-0.147-0.329-0.081-0.711,0.013-1.059c0.667-2.489,2.547-4.559,2.997-7.097c0.705-3.975-2.221-7.584-4.946-10.562
		c-0.95-1.037-1.951-2.108-3.269-2.601c-1.145-0.429-2.41-0.369-3.626-0.236c-6.969,0.764-13.665,3.846-18.778,8.644
		c-1.186,1.112-2.356,2.468-2.407,4.094c-0.109,3.441,4.707,5.64,4.36,9.066c-0.156,1.533-1.337,2.737-1.991,4.134
		c-1.475,3.146-0.009,7.098,2.682,9.295c2.692,2.197,6.305,2.928,9.778,3.015c1.794,0.045,3.702-0.034,5.247,0.879
		c1.545,0.914,2.354,3.302,1.033,4.517c-0.662,0.608-1.627,0.734-2.414,1.167c-1.96,1.076-2.377,3.69-2.333,5.926
		c0.043,2.235,0.257,4.696-1.095,6.478c-0.921,1.211-2.388,1.843-3.704,2.606c-1.316,0.763-2.632,1.863-2.823,3.373
		c-0.191,1.51,1.501,3.141,2.807,2.36"/>
</g>
</svg>
