<?xml version="1.0" encoding="utf-8"?>
<!-- Generator: Adobe Illustrator 16.0.2, SVG Export Plug-In . SVG Version: 6.00 Build 0)  -->
<!DOCTYPE svg PUBLIC "-//W3C//DTD SVG 1.1//EN" "http://www.w3.org/Graphics/SVG/1.1/DTD/svg11.dtd">
<svg version="1.1" id="Layer_1" xmlns="http://www.w3.org/2000/svg" xmlns:xlink="http://www.w3.org/1999/xlink" x="0px" y="0px"
	 width="111.18px" height="147.593px" viewBox="0 0 111.18 147.593" enable-background="new 0 0 111.18 147.593"
	 xml:space="preserve">
<g>
	<path fill="#08549E" d="M9.526,1.526c-0.248,16.136,2.149,27.868,0.494,43.888c-0.66,6.395-1.96,12.678-2.589,19.076
		C6.837,70.538,6.44,76.664,6.859,82.732c3.008,43.591,0.077,42.221,0.116,63.331c-1.005-3.341-3.995-5.235-5.58-8.244
		c-2.338-4.441-1.184-10.146-0.498-15.313c0.821-6.192,0.847-12.488,0.871-18.758c0.137-36-0.76-64.239-1.768-100.22
		c2.92-0.254,6.897-3.464,9.802-3.03"/>
	<path fill="#416FB6" d="M7.937,0.186c33.634,1.11,68.883-1.18,102.448,1.239c0.568,0.041-0.469-0.325,0,0
		c1.121,0.774,0.833,2.473,0.477,3.788c-3.227,11.931-1.582,24.548-1.56,36.906c0.052,29.408-7.434,63.781-5.72,93.14
		c0.045,0.771,0.067,1.634-0.453,2.204c-0.412,0.452-1.056,0.594-1.656,0.711c-13.068,2.552-23.829,1.12-40.992,2.289
		c-5.001,0.341-9.858,1.924-14.863,2.189c-8.578,0.454-15.947,1.706-24.643,3.411c-3.482,0.683-9.988,2.594-13.333,0.746
		c-2.347-1.297-1.331-3.133-1.111-5.835c0.239-2.941,0.436-5.887,0.591-8.833c0.631-12.017-0.382-19.798-1.154-31.806
		c-0.416-6.464-0.091-17.195,0.011-23.672c0.07-4.48,0.485-8.949,0.9-13.411c1.149-12.354,2.298-24.708,3.447-37.062
		c0.411-4.419-0.994-9.14-1.129-13.575C9.017,6.688,9.671,5.553,7.586,0"/>
	<path fill="#AD832D" d="M59.016,66.768c-0.19-1.891-0.032-3.815,0.462-5.65c0.128-0.478,0.295-0.975,0.669-1.299
		c0.365-0.315,0.866-0.414,1.341-0.5c3.705-0.671,7.409-1.343,11.114-2.014c0.531-0.096,1.153-0.167,1.539,0.21
		c0.32,0.313,0.344,0.811,0.348,1.257c0.02,2.542,0.04,5.083,0.061,7.625c0.002,0.357-0.003,0.74-0.211,1.03
		c-0.269,0.376-0.781,0.467-1.24,0.527c-3.408,0.447-6.816,0.896-10.224,1.344c-0.739,0.098-1.506,0.193-2.218-0.026
		c-1.522-0.466-2.293-2.519-1.455-3.872"/>
	<path fill="#FFFFFF" d="M67.059,138.607c0.671-24.156,9.36-47.953,24.087-65.962c-0.221-1.515-2.343-0.998-3.477-0.096
		c-5.382,4.281-10.764,8.563-16.146,12.844c-0.677,0.538-1.451,1.105-2.278,0.964C67.93,86.135,67.432,84.401,67.07,83
		c-0.896-3.464-2.614-6.669-4.939-9.215c-1.401-1.534-3.16-2.888-5.141-2.937c-1.981-0.05-4.072,1.706-3.911,3.868
		c0.12,1.609,1.375,2.941,1.396,4.555c0.043,3.335-4.358,3.877-7.349,3.238c-4.615-0.985-9.231-1.97-13.847-2.955
		c-0.882,2.198,0.266,4.816,1.935,6.374s3.784,2.402,5.665,3.638c7.991,5.25,10.592,16.566,10.996,26.759
		c0.405,10.19-3.186,15.144,0.471,24.526c2.591-3.233,8.523-0.068,12.204-1.579"/>
	<path fill="#AD832D" d="M51.016,87.768c-0.19-1.891-0.032-3.815,0.462-5.65c0.128-0.478,0.295-0.975,0.669-1.299
		c0.365-0.315,0.866-0.414,1.341-0.5c3.705-0.671,7.409-1.343,11.114-2.014c0.531-0.096,1.153-0.167,1.539,0.21
		c0.32,0.313,0.344,0.811,0.348,1.257c0.02,2.542,0.04,5.083,0.061,7.625c0.002,0.357-0.003,0.74-0.211,1.03
		c-0.269,0.376-0.781,0.467-1.24,0.527c-3.408,0.447-6.816,0.896-10.224,1.344c-0.739,0.098-1.506,0.193-2.218-0.026
		c-1.522-0.466-2.293-2.519-1.455-3.872"/>
	<path fill="#AD832D" d="M44.759,61.468c-4.03,5.143-8.061,10.283-12.091,15.426c-0.296,0.377-0.603,0.781-0.648,1.258
		c-0.112,1.197,1.416,1.865,2.614,1.767c1.198-0.097,2.457-0.557,3.556-0.069c0.847,0.375,1.456,1.271,2.375,1.389
		c0.799,0.102,1.527-0.425,2.159-0.924c2.147-1.693,4.294-3.388,6.441-5.08c1.275-1.006,2.657-2.205,2.77-3.824
		c0.083-1.172-0.537-2.271-1.186-3.25c-1.588-2.399-3.484-4.593-5.626-6.513"/>
	<path fill="#AD832D" d="M85,75.758c-4.036,3.002-7.892,6.246-11.54,9.71c-0.488,0.464-1.012,1.025-0.966,1.697
		c0.039,0.562,0.468,1.009,0.871,1.403c1.931,1.885,3.861,3.77,5.792,5.655c0.828,0.81,1.801,1.676,2.957,1.615
		c1.257-0.065,2.161-1.188,2.894-2.212c2.18-3.046,4.36-6.092,6.54-9.138c0.392-0.548,0.799-1.249,0.494-1.85
		c-0.192-0.379-0.61-0.574-0.988-0.768c-2.287-1.168-4.117-3.205-5.031-5.605"/>
	<path fill="#AD832D" d="M50.546,93.696c3.383,2.14,6.221,5.133,8.18,8.624c-4.759,2.443-9.048,5.797-12.566,9.826
		c-1.47-2.954-2.941-5.908-4.411-8.862c-0.256-0.514-0.518-1.093-0.351-1.642c0.172-0.563,0.733-0.897,1.242-1.195
		c3.092-1.809,5.827-4.226,8.004-7.072"/>
	<path fill="#AD832D" d="M61.546,104.696c3.383,2.14,6.221,5.133,8.18,8.624c-4.759,2.443-9.048,5.797-12.566,9.826
		c-1.47-2.954-2.941-5.908-4.411-8.862c-0.256-0.514-0.518-1.093-0.351-1.642c0.172-0.563,0.733-0.897,1.242-1.195
		c3.092-1.809,5.827-4.226,8.004-7.072"/>
	<path fill="#AD832D" d="M85.128,102.416l-10.594,7.021c-1.062,0.704-2.257,1.673-2.118,2.939c0.1,0.907,0.865,1.575,1.576,2.146
		c1.767,1.422,3.534,2.843,5.301,4.265c0.5,0.402,1.062,0.826,1.703,0.798c0.563-0.024,1.043-0.395,1.482-0.747
		c2.72-2.189,5.441-4.379,8.162-6.567c0.565-0.454,1.145-0.926,1.491-1.563c0.917-1.686-0.162-3.832-1.668-5.02
		c-1.506-1.189-3.392-1.809-4.927-2.961"/>
	<path fill="#AD832D" d="M32.398,83.756c-0.193,3.87,1.329,7.797,4.081,10.525c1.03,1.021,2.342,2.278,1.874,3.649
		c-0.249,0.728-0.943,1.193-1.593,1.605c-1.921,1.216-3.842,2.434-5.763,3.65c-0.224,0.141-0.484,0.289-0.738,0.213
		c-0.287-0.085-0.418-0.408-0.511-0.692l-3.523-10.763c-0.241-0.734-0.467-1.592-0.038-2.234c0.303-0.453,0.85-0.662,1.348-0.885
		c2.086-0.932,3.856-2.557,4.962-4.556"/>
	<path fill="#AD832D" d="M32.398,109.756c-0.193,3.87,1.329,7.797,4.081,10.525c1.03,1.021,2.342,2.278,1.874,3.649
		c-0.249,0.728-0.943,1.193-1.593,1.605c-1.921,1.216-3.842,2.434-5.763,3.65c-0.224,0.141-0.484,0.289-0.738,0.213
		c-0.287-0.085-0.418-0.408-0.511-0.692l-3.523-10.763c-0.241-0.734-0.467-1.592-0.038-2.234c0.303-0.453,0.85-0.662,1.348-0.885
		c2.086-0.932,3.856-2.557,4.962-4.556"/>
	<path fill="#FFFFFF" d="M96.552,26.148C85.866,23.2,74.727,20.226,63.829,22.26c-5.314,0.991-10.335,3.143-15.234,5.427
		c-7.11,3.316-14.073,6.948-20.86,10.884c-4.204,2.437-8.562,5.229-10.642,9.621c-2.079,4.392-0.675,10.758,3.947,12.255
		c5.182,1.679,9.842-3.242,14.348-6.303c8.682-5.896,20.04-5.313,30.524-4.816c10.483,0.496,22.056,0.31,29.967-6.585
		c1.919-1.673,3.635-4.002,3.339-6.531C98.894,33.435,99.251,28.936,96.552,26.148"/>
</g>
</svg>
