<?xml version="1.0" encoding="utf-8"?>
<!-- Generator: Adobe Illustrator 16.0.2, SVG Export Plug-In . SVG Version: 6.00 Build 0)  -->
<!DOCTYPE svg PUBLIC "-//W3C//DTD SVG 1.1//EN" "http://www.w3.org/Graphics/SVG/1.1/DTD/svg11.dtd">
<svg version="1.1" id="Layer_1" xmlns="http://www.w3.org/2000/svg" xmlns:xlink="http://www.w3.org/1999/xlink" x="0px" y="0px"
	 width="77.963px" height="41.221px" viewBox="0 0 77.963 41.221" enable-background="new 0 0 77.963 41.221" xml:space="preserve">
<g>
	<path fill="#FFEDD5" d="M73.97,38.632c-0.82,1.698-2.822,2.555-4.707,2.588c-1.885,0.032-3.708-0.603-5.506-1.169
		c-7.563-2.382-17.434-1.74-25.359-1.954c-3.329-0.089-6.676,0.008-9.975-0.446c-8.476-1.169-15.993-5.86-23.219-10.44
		C3.763,26.297,2.291,25.355,1.255,24c-1.035-1.355-1.562-3.233-0.884-4.799c0.485-1.123,1.494-1.919,2.466-2.665
		c1.051-0.809,2.186-1.65,3.509-1.742c0.701-0.05,1.398,0.119,2.071,0.321c3.64,1.092,7.777,3.131,10.92,0.995
		c0.786-0.534,1.396-8.282,2.091-8.932c1.42-1.328,3.185-2.234,5.002-2.926c9.012-3.429,16.041-2.135,24.793,1.913
		c1.791,0.828,7.959,7.017,9.5,8.25c1.034,0.828,1.52,2.805,2.611,3.554c3.436,2.355,6.472,4.973,9.156,7.748
		c1.508,1.559,3.043,3.156,3.955,5.122c0.914,1.966,1.107,4.403-0.057,6.232c-0.83,1.306-1.383,2.502-2.892,2.156"/>
	<path fill="#CDCED0" d="M0.813,20.507c-1.158-2.505,0.656-5.563,3.165-6.708c2.508-1.146,5.384-2.075,8.122-1.664
		c2.737,0.412,2.199,1.174,4.87,0.472c2.49-0.652,5.586-10.128,10.516-11.495c2.662-0.736,5.975-1.379,8.718-0.999
		C46.663,1.56,59.074,9.177,68.02,19.478c4.988,5.745,8.879,6.535,9.935,15.467c0.128,1.082-1.084,2.464-2.152,2.698
		c0.951-4.051-0.696-7.556-3.029-11.033c-2.333-3.477-4.462-4.833-7.912-7.221c-5.475-3.788-10.707-11.94-16.938-14.29
		c-2.355-0.888-8.664-1.911-11.178-1.951C27.848,3.01,24.647,18.311,15.77,17.671c-1.862-0.134-6.234-1.924-8.101-1.914
		C4.561,15.774,1.531,17.535,0,20.215"/>
	<path fill="#F4D49D" d="M73.81,38.834c-0.584-0.735-1.447-1.185-2.283-1.613c-5.096-2.607-12.161-3.288-17.258-5.897
		c-1.947-0.997-3.896-1.995-5.917-2.837c-4.004-1.669-8.246-2.709-12.269-4.333c-2.199-0.889-4.33-1.949-6.574-2.718
		c-3.943-1.353-8.316-1.849-11.642-4.362c-0.097-0.074-0.198-0.157-0.231-0.275c-0.107-0.393,0.53-0.49,0.919-0.373
		c2.05,0.623,4.1,1.245,6.15,1.867c1.938,0.589,3.888,1.183,5.709,2.071c1.501,0.733,2.904,1.665,4.441,2.321
		c1.397,0.597,2.882,0.957,4.346,1.368c4.189,1.179,8.242,2.791,12.262,4.464c1.354,0.563,2.711,1.136,3.999,1.842
		c2.67,1.462,6.982,1.551,9.702,2.921c3.104,1.563,6.724,2.308,9.246,4.701c0.046,0.226,0.089,0.475-0.023,0.677
		c-0.111,0.202-0.448,0.279-0.565,0.08"/>
</g>
</svg>
