<?xml version="1.0" encoding="utf-8"?>
<!-- Generator: Adobe Illustrator 16.0.2, SVG Export Plug-In . SVG Version: 6.00 Build 0)  -->
<!DOCTYPE svg PUBLIC "-//W3C//DTD SVG 1.1//EN" "http://www.w3.org/Graphics/SVG/1.1/DTD/svg11.dtd">
<svg version="1.1" id="Layer_1" xmlns="http://www.w3.org/2000/svg" xmlns:xlink="http://www.w3.org/1999/xlink" x="0px" y="0px"
	 width="81.847px" height="30.646px" viewBox="0 0 81.847 30.646" enable-background="new 0 0 81.847 30.646" xml:space="preserve">
<g>
	<path fill="#F68A1F" d="M77.812,0.351c-3.535,3.667-8.965,4.611-13.459,7.007c-1.682,0.896-3.244,2.004-4.92,2.909
		c-3.476,1.876-7.375,2.843-11.283,3.393c-7.528,1.058-15.457,0.568-22.312-2.717c-4.968-2.383-9.532-6.248-15.036-6.48
		c-0.139-0.005-0.281-0.01-0.41-0.063c-0.38-0.16-0.457-0.703-0.262-1.066s0.572-0.586,0.93-0.791
		c1.146-0.656,2.291-1.313,3.438-1.969c0.457-0.262,0.934-0.529,1.459-0.567c0.506-0.036,0.999,0.147,1.474,0.325
		c1.855,0.697,3.716,1.377,5.583,2.04c4.734,1.68,9.541,3.259,14.518,3.943c3.38,0.466,6.801,0.513,10.211,0.536
		c2.921,0.021,5.895,0.019,8.684-0.847c1.668-0.517,3.227-1.33,4.842-1.997c5.275-2.177,10.973-3.276,16.653-3.828"/>
	<path fill="#F47721" d="M9.988,3.521C8.32,3.938,7.687,5.909,7.157,7.545c-1.408,4.346-3.958,8.211-6.296,12.135
		c-0.542,0.909-0.992,2.266-0.12,2.865c0.432,0.296,1.004,0.237,1.525,0.193c5.375-0.454,10.509,2.008,15.775,3.169
		c3.104,0.685,6.286,0.919,9.455,1.15c6.221,0.457,12.446,0.913,18.684,0.972c4.174,0.039,8.388-0.106,12.439-1.112
		c4.051-1.005,7.963-2.93,10.781-6.01c1.07-1.17,1.98-2.499,3.197-3.516c1.508-1.257,3.39-1.955,5.095-2.928
		c1.706-0.972,3.347-2.383,3.758-4.302c0.405-1.894-0.472-3.802-1.325-5.541l-2.184-4.453c-4.197,3.633-10.012,4.673-14.844,7.406
		c-1.653,0.935-3.189,2.067-4.861,2.968c-3.676,1.98-7.876,2.768-12.034,3.146c-7.118,0.646-14.522,0.115-20.981-2.944
		c-3.475-1.646-4.901-4.384-8.633-5.313c0.434,0.194-1.428-0.636-0.994-0.441c-2.188-0.879-3.836-0.36-6.022-1.239"/>
	<path fill="#F4D49D" d="M81.847,9.346c-0.63,3.55-3.945,5.89-6.984,7.83c-2.223,1.42-4.449,2.839-6.676,4.256
		c-3.017,1.921-6.047,3.846-9.311,5.311c-6.238,2.803-13.156,3.838-19.995,3.901c-6.839,0.063-13.647-0.814-20.432-1.69
		c-5.001-0.646-10.065-1.307-14.747-3.181c-0.364-0.145-0.746-0.314-0.965-0.639c-0.207-0.31-0.229-0.702-0.323-1.063
		C2.134,22.999,1.106,22.17,0,22.119c0.545-0.671,1.606-0.608,2.396-0.252c0.787,0.358,1.691,0.396,2.525,0.625
		c1.105,0.305,2.055,0.484,3.2,0.44c1.787-0.069,3.495,0.648,5.2,1.189c2.419,0.769,4.932,1.193,7.443,1.564
		c8.459,1.252,17.002,1.917,25.551,2.083c4.006,0.077,8.05,0.041,11.963-0.816c3.914-0.856,7.728-2.596,10.488-5.5
		c1.53-1.611,2.715-3.552,4.407-4.992c1.964-1.673,4.502-2.577,6.409-4.313C80.493,11.319,81.315,10.455,81.847,9.346"/>
</g>
</svg>
