<?xml version="1.0" encoding="utf-8"?>
<!-- Generator: Adobe Illustrator 16.0.2, SVG Export Plug-In . SVG Version: 6.00 Build 0)  -->
<!DOCTYPE svg PUBLIC "-//W3C//DTD SVG 1.1//EN" "http://www.w3.org/Graphics/SVG/1.1/DTD/svg11.dtd">
<svg version="1.1" id="Layer_1" xmlns="http://www.w3.org/2000/svg" xmlns:xlink="http://www.w3.org/1999/xlink" x="0px" y="0px"
	 width="70.1px" height="84.563px" viewBox="0 0 70.1 84.563" enable-background="new 0 0 70.1 84.563" xml:space="preserve">
<g>
	<path fill="#6B3315" d="M64.569,5.773c0.741,22.723,1.276,45.452,1.607,68.185c0.007,0.452-0.01,0.959-0.335,1.271
		c-0.296,0.282-0.746,0.306-1.155,0.313c-15.04,0.271-30.08,0.541-45.12,0.813c-4.506,0.081-9.046,0.166-13.447,1.133
		C5.596,77.604,5.026,77.727,4.54,77.5c-0.838-0.389-0.933-1.521-0.907-2.445C4.158,56.002,4.685,36.949,5.21,17.896
		c0.008-0.266,0.026-0.559,0.213-0.748c0.121-0.125,0.297-0.183,0.465-0.234c10.785-3.35,21.891-5.668,33.117-6.914
		c8.678-0.964,17.875,2.377,25.83-1.224"/>
	<path fill="#412312" d="M4.294,77.224c0.631,1.307-0.483,2.775-1.63,3.666C1.52,81.778,0.13,82.713,0,84.157
		c4.726-0.836,9.449-1.672,14.173-2.508c2.216-0.391,4.435-0.784,6.679-0.945c3.497-0.25,7.008,0.066,10.501,0.382
		c4.938,0.447,9.878,0.894,14.816,1.341c7.354,0.665,14.709,1.329,22.051,2.124c0.871,0.094,2.177-0.346,1.819-1.146
		c-0.121-0.271-0.409-0.417-0.667-0.562c-2.505-1.402-3.835-4.616-3.052-7.378c-8.801-1.35-18.285,0.592-27.19,0.537
		C28,75.935,14.427,75.639,3.656,75.887c-1.097,0.024,1.272,1.241,1.154,2.332"/>
	<path fill="#282A73" d="M5.086,22.412c0.197,2.334-0.421,5.792-0.224,8.126c0.045,0.537,0.263-0.205,0.701,0.118
		c0.35,0.258,0.822,0.258,1.26,0.247c18.994-0.465,37.988-0.929,56.982-1.394c0.305-0.007,0.633-0.023,0.87-0.208
		c0.298-0.232,0.356-0.647,0.386-1.021c0.209-2.704,0.094-5.432-0.344-8.109c-13.906,0.479-27.83,0.962-41.662,2.467
		c-5.565,0.605-11.261,1.371-16.711,0.105"/>
	<path fill="#C9A877" d="M17.954,48.834c1.418-2.076,2.837-4.151,4.255-6.228c0.106-0.155,0.226-0.32,0.405-0.381
		c0.244-0.081,0.502,0.063,0.718,0.205c5.478,3.615,9.629,9.628,16.015,11.146c-0.938,2.163-2.445,4.076-4.328,5.494
		c-0.516,0.388-1.104,0.754-1.749,0.74c-0.932-0.02-1.644-0.8-2.267-1.495C27.329,54.212,22.519,51.916,17.954,48.834"/>
	<path fill="#F4D49D" d="M30.036,47.327c0.699-1.862,1.707-3.609,2.972-5.146c1.291,1.499,3.361,2.002,5.282,2.479
		c4.793,1.192,9.502,2.729,14.076,4.593c0.52,0.211,1.082,0.469,1.315,0.979c0.192,0.421,0.108,0.91,0.008,1.361
		c-0.463,2.082-1.216,4.1-2.231,5.975c-0.186,0.342-0.432,0.717-0.817,0.77c-0.238,0.03-0.47-0.071-0.687-0.177
		c-1.85-0.905-3.5-2.185-5.369-3.053c-1.474-0.683-3.054-1.098-4.582-1.643c-3.85-1.371-7.395-3.588-10.312-6.448"/>
	<path fill="#C9A877" d="M27.591,44.172c0.422-2.77,0.846-5.54,1.27-8.31c2.531,1.356,5.599,0.88,8.465,0.671
		c4.881-0.356,9.779,0.179,14.645,0.712c0.236,0.026,0.504,0.071,0.636,0.27c0.1,0.155,0.085,0.354,0.065,0.537
		c-0.214,2.063-0.428,4.125-0.642,6.188c-0.015,0.135-0.03,0.274-0.107,0.386c-0.198,0.289-0.637,0.208-0.973,0.107
		C43.472,42.469,34.87,47.007,27.591,44.172"/>
	<path fill="#F4D49D" d="M33.766,34.504c2.013-1.983,3.675-3.62,6.217-4.854c1.325-0.645,2.749-1.059,4.107-1.63
		c3.179-1.34,5.925-3.51,8.626-5.653c1.964,1.463,3.928,2.927,5.891,4.391c-6.826,3-13.287,6.832-19.192,11.385
		c-0.368,0.282-0.775,0.584-1.239,0.568c-0.395-0.013-0.742-0.254-1.054-0.498C35.804,37.178,34.664,35.918,33.766,34.504"/>
	<path fill="#412312" d="M20.368,35.558c1.402-0.883,1.277-2.017,2.25-3.359c0.132-0.182,0.262-0.376,0.294-0.598
		c0.067-0.472-0.318-0.877-0.683-1.183c-2.278-1.908-5.047-3.225-7.963-3.786c-0.166-0.032-0.361-0.054-0.478,0.068
		c-0.065,0.068-0.088,0.164-0.106,0.257c-0.115,0.527-0.229,1.056-0.345,1.585c-0.175,0.809-0.347,1.674-0.05,2.447
		c0.557,1.447,2.361,1.831,3.787,2.441c1.316,0.564,2.459,1.465,3.582,2.355"/>
	<path fill="#412312" d="M50.794,42.174c1.31,0.693,2.619,1.388,3.929,2.08c0.187,0.1,0.397,0.232,0.417,0.443
		c0.012,0.14-0.067,0.271-0.145,0.389c-0.517,0.802-1.033,1.603-1.551,2.402c-0.234,0.364-0.505,0.755-0.922,0.874
		c-0.425,0.121-0.868-0.078-1.265-0.273c-2.377-1.164-4.755-2.329-7.132-3.492c0.394-0.927,0.946-1.89,1.888-2.245
		c0.647-0.245,1.368-0.155,2.055-0.063C49.344,42.462,49.519,42.001,50.794,42.174"/>
	<path fill="#412312" d="M35.063,35.725c3.075-1.754,6.318-3.367,9.239-5.375c2.825-1.942,5.15-4.461,8.621-5.223
		c0.333-0.072,0.191-0.583-0.141-0.51c-2.837,0.622-4.895,2.337-7.142,4.073c-3.341,2.581-7.187,4.491-10.845,6.577
		C34.499,35.437,34.767,35.894,35.063,35.725"/>
	<path fill="#412312" d="M36.741,36.82c6.387-2.923,12.482-6.348,18.302-10.281c0.28-0.19,0.017-0.648-0.267-0.457
		c-5.819,3.934-11.914,7.358-18.303,10.281C36.165,36.505,36.433,36.961,36.741,36.82"/>
	<path fill="#412312" d="M35.757,32.639c1.815,0.876,3.522,1.925,5.125,3.146c0.271,0.207,0.534-0.252,0.268-0.456
		c-1.604-1.223-3.311-2.271-5.125-3.147C35.72,32.034,35.45,32.49,35.757,32.639"/>
	<path fill="#412312" d="M41.129,30.546c1.871,1.019,3.721,2.073,5.551,3.162c0.293,0.176,0.56-0.281,0.267-0.457
		c-1.83-1.089-3.681-2.143-5.551-3.162C41.097,29.926,40.83,30.383,41.129,30.546"/>
	<path fill="#412312" d="M46.553,27.448c1.802,0.934,3.537,1.976,5.208,3.127c0.281,0.194,0.546-0.264,0.267-0.457
		c-1.671-1.151-3.405-2.192-5.208-3.127C46.518,26.836,46.249,27.291,46.553,27.448"/>
	<path fill="#412312" d="M50.256,24.627c1.606,0.847,3.097,1.855,4.474,3.039c0.257,0.222,0.633-0.15,0.373-0.374
		c-1.408-1.213-2.934-2.256-4.58-3.122C50.222,24.013,49.954,24.469,50.256,24.627"/>
	<path fill="#412312" d="M32.516,44.517c3.362,1.222,6.274,3.422,9.584,4.621c3.501,1.269,6.991,1.889,10.438,3.515
		c0.308,0.145,0.575-0.312,0.268-0.457c-3.202-1.51-6.223-2.305-9.587-3.277c-3.661-1.061-6.935-3.594-10.563-4.911
		C32.335,43.89,32.197,44.4,32.516,44.517"/>
	<path fill="#412312" d="M30.874,46.626c3.375,1.429,7.025,1.895,10.424,3.267c3.146,1.271,6.1,2.838,9.395,3.71
		c0.33,0.087,0.47-0.423,0.141-0.51c-3.273-0.867-6.203-2.448-9.324-3.703c-3.381-1.358-7.011-1.799-10.368-3.221
		C30.831,46.038,30.561,46.494,30.874,46.626"/>
	<path fill="#412312" d="M51.598,49.826c-1.545,1.851-2.629,3.954-3.224,6.291c-0.084,0.33,0.426,0.471,0.51,0.141
		c0.574-2.251,1.599-4.273,3.088-6.058C52.188,49.94,51.817,49.563,51.598,49.826"/>
	<path fill="#412312" d="M47.921,49.498c-1.549,1.693-2.813,3.584-3.777,5.668c-0.142,0.307,0.314,0.576,0.456,0.268
		c0.946-2.043,2.175-3.9,3.695-5.562C48.524,49.621,48.151,49.246,47.921,49.498"/>
	<path fill="#412312" d="M44.22,47.811c-1.193,1.752-2.387,3.504-3.579,5.255c-0.192,0.283,0.266,0.548,0.457,0.267
		c1.192-1.751,2.386-3.503,3.579-5.255C44.868,47.795,44.411,47.53,44.22,47.811"/>
	<path fill="#412312" d="M41.179,46.683c-1.543,0.981-3.041,2.026-4.494,3.135c-0.268,0.203-0.004,0.663,0.267,0.456
		c1.455-1.107,2.952-2.152,4.494-3.134C41.731,46.956,41.466,46.498,41.179,46.683"/>
	<path fill="#412312" d="M36.864,45.251c-2.186,1.241-4.324,2.555-6.419,3.943c-0.282,0.187-0.019,0.646,0.267,0.457
		c2.096-1.389,4.234-2.702,6.419-3.943C37.427,45.54,37.161,45.082,36.864,45.251"/>
	<path fill="#412312" d="M5.191,17.551c19.146-7.341,41.356-1.692,60.601-8.774C65.532,7.029,64.979,1.764,65.088,0
		C56.384,0.643,47.741,2.104,39.31,4.36c-3.144,0.842-6.278,1.798-9.515,2.146c-2.299,0.247-4.617,0.184-6.927,0.271
		c-3.031,0.114-6.051,0.488-9.02,1.105c-3.774,0.787-7.99,1.9-11.259-0.148c-0.362,3.335,0.416,6.785,2.179,9.639"/>
</g>
</svg>
