<?xml version="1.0" encoding="utf-8"?>
<!-- Generator: Adobe Illustrator 16.0.2, SVG Export Plug-In . SVG Version: 6.00 Build 0)  -->
<!DOCTYPE svg PUBLIC "-//W3C//DTD SVG 1.1//EN" "http://www.w3.org/Graphics/SVG/1.1/DTD/svg11.dtd">
<svg version="1.1" id="Layer_1" xmlns="http://www.w3.org/2000/svg" xmlns:xlink="http://www.w3.org/1999/xlink" x="0px" y="0px"
	 width="49.659px" height="66.185px" viewBox="0 0 49.659 66.185" enable-background="new 0 0 49.659 66.185" xml:space="preserve">
<g>
	<path fill="#44A84F" d="M0.908,24.073c0.571,12.241,1.14,24.45,1.709,36.655c0.016,0.331,0.036,0.679,0.239,0.963
		c0.255,0.356,0.739,0.538,1.196,0.692c6.789,2.272,14.183,2.837,21.457,3.379c7.527,0.561,15.528,1.047,22.231-1.894
		c0.629-0.277,1.277-0.612,1.584-1.152c0.248-0.435,0.237-0.94,0.222-1.422c-0.383-11.682-0.765-23.362-1.147-35.07
		c-8.252,2.225-17.095,2.131-25.757,2.015C18.079,28.178,7.083,27.727,0.908,24.073"/>
	<path fill="#44612D" d="M4.793,39.623c-1.519-0.642-2.772-1.885-3.43-3.396c-0.43-0.992-0.601-2.155-0.174-3.148
		c0.347-0.808,1.042-1.409,1.757-1.921c0.946-0.676,2.018-1.263,3.179-1.314c0.911-0.04,1.813,0.258,2.604,0.713
		c1.298,0.75,2.336,1.942,2.899,3.332c0.704,1.74,0.659,3.685,0.511,5.556c-0.021,0.265-0.048,0.542-0.192,0.766
		c-0.193,0.299-0.673,0.258-0.898,0.533C8.574,43.762,6.625,40.696,4.793,39.623"/>
	<path fill="#091F2C" d="M8.621,38.138c-1.106,0.124-2.1-0.631-2.958-1.342c-0.508-0.422-1.065-0.954-1.005-1.612
		c0.069-0.747,0.972-1.187,1.704-1.023c0.731,0.164,1.294,0.743,1.752,1.337C8.79,36.373,9.317,37.279,8.621,38.138"/>
	<path fill="#2B3619" d="M36.254,56.669c1.316-0.992,3.02-1.456,4.656-1.268c1.074,0.123,2.167,0.558,2.813,1.424
		c0.525,0.705,0.698,1.608,0.783,2.483c0.112,1.158,0.084,2.379-0.453,3.41c-0.422,0.809-1.131,1.441-1.921,1.896
		c-1.299,0.749-2.85,1.05-4.335,0.842c-1.858-0.26-3.521-1.272-5.065-2.338c-0.22-0.151-0.446-0.313-0.566-0.55
		c-0.162-0.318,0.113-0.712-0.013-1.045C30.778,57.872,34.408,57.718,36.254,56.669"/>
	<path fill="#091F2C" d="M35.623,60.727c0.447-1.021,1.598-1.502,2.643-1.889c0.619-0.229,1.359-0.445,1.898-0.063
		c0.612,0.433,0.541,1.436,0.032,1.987c-0.508,0.551-1.29,0.748-2.034,0.848C37.067,61.756,36.019,61.759,35.623,60.727"/>
	<path fill="#44612D" d="M38.353,37.171c-1.472,0.743-3.23,0.896-4.809,0.42c-1.035-0.312-2.033-0.934-2.514-1.902
		c-0.393-0.786-0.401-1.706-0.329-2.582c0.095-1.159,0.339-2.356,1.052-3.275c0.56-0.721,1.369-1.217,2.228-1.524
		c1.41-0.506,2.992-0.527,4.416-0.058c1.782,0.586,3.237,1.878,4.569,3.201c0.188,0.188,0.382,0.387,0.459,0.642
		c0.104,0.341-0.237,0.68-0.174,1.031C43.955,36.961,40.355,36.467,38.353,37.171"/>
	<path fill="#091F2C" d="M39.694,33.291c-0.621,0.925-1.839,1.194-2.936,1.389c-0.65,0.115-1.417,0.196-1.88-0.275
		c-0.525-0.536-0.277-1.51,0.32-1.962c0.6-0.451,1.404-0.506,2.153-0.472C38.456,32.021,39.488,32.205,39.694,33.291"/>
	<path fill="#44612D" d="M5.918,50.147c0.974-1.33,2.47-2.267,4.092-2.56c1.063-0.192,2.235-0.092,3.104,0.551
		c0.706,0.523,1.132,1.338,1.466,2.151c0.442,1.076,0.77,2.253,0.553,3.396c-0.17,0.895-0.666,1.705-1.291,2.369
		c-1.027,1.093-2.426,1.829-3.907,2.059c-1.855,0.288-3.738-0.2-5.526-0.774c-0.253-0.082-0.516-0.171-0.7-0.363
		c-0.247-0.257-0.097-0.714-0.313-0.997C1.023,52.881,4.454,51.685,5.918,50.147"/>
	<path fill="#091F2C" d="M6.487,54.214c0.133-1.106,1.095-1.9,1.983-2.572c0.526-0.398,1.174-0.819,1.799-0.609
		c0.711,0.238,0.934,1.218,0.606,1.893c-0.328,0.675-1.021,1.089-1.703,1.399C8.167,54.782,7.164,55.088,6.487,54.214"/>
	<path fill="#2B3619" d="M14.651,28.563c1.563-0.522,3.325-0.419,4.817,0.28c0.979,0.459,1.876,1.219,2.213,2.246
		c0.273,0.835,0.15,1.746-0.048,2.602c-0.262,1.134-0.678,2.282-1.516,3.089c-0.657,0.632-1.53,1.006-2.424,1.186
		c-1.47,0.296-3.036,0.088-4.377-0.582c-1.681-0.839-2.934-2.327-4.06-3.829c-0.158-0.213-0.322-0.439-0.36-0.702
		c-0.054-0.352,0.333-0.638,0.32-0.994C9.077,27.96,12.567,28.97,14.651,28.563"/>
	<path fill="#091F2C" d="M12.762,32.209c0.748-0.825,1.991-0.916,3.105-0.949c0.66-0.02,1.431,0.01,1.82,0.544
		c0.441,0.606,0.056,1.533-0.602,1.894c-0.658,0.361-1.462,0.298-2.199,0.156C13.802,33.644,12.807,33.314,12.762,32.209"/>
	<path fill="#2B3619" d="M31.631,42.668c1.492-0.699,3.255-0.801,4.817-0.278c1.025,0.343,2.005,0.994,2.457,1.975
		c0.369,0.798,0.352,1.718,0.253,2.591c-0.13,1.156-0.409,2.345-1.148,3.243c-0.579,0.704-1.404,1.176-2.271,1.458
		c-1.425,0.464-3.006,0.438-4.415-0.073c-1.766-0.639-3.182-1.973-4.474-3.335c-0.184-0.193-0.37-0.398-0.44-0.655
		c-0.092-0.344,0.259-0.673,0.204-1.025C26.024,42.714,29.607,43.314,31.631,42.668"/>
	<path fill="#091F2C" d="M30.174,46.508c0.649-0.906,1.873-1.14,2.977-1.302c0.652-0.096,1.422-0.154,1.87,0.331
		c0.51,0.551,0.232,1.517-0.38,1.951c-0.61,0.434-1.416,0.465-2.164,0.409C31.374,47.814,30.348,47.601,30.174,46.508"/>
	<path fill="#2B3619" d="M41.501,44.59c-1.522-0.626-2.564-2.123-2.974-3.716c-0.408-1.594-0.257-3.28,0.059-4.895
		c0.224-1.147,0.565-2.34,1.41-3.148c1.441-1.379,3.896-1.106,5.512,0.066c1.615,1.171,2.592,3.006,3.513,4.776
		c0.239,0.461,0.482,0.929,0.582,1.438c0.1,0.508,0.053,1.033-0.022,1.544c-0.264,1.759-0.881,3.463-1.805,4.982
		c-0.17,0.28-0.361,0.565-0.647,0.724c-0.255,0.141-0.555,0.167-0.845,0.169C44.465,46.543,43.867,46.363,41.501,44.59"/>
	<path fill="#091F2C" d="M42.92,42.516c-0.321,0.705,0.358,1.453,1.021,1.857c0.685,0.419,1.49,0.751,2.277,0.588
		c0.786-0.163,1.462-1.005,1.189-1.76c-0.155-0.432-0.557-0.72-0.951-0.956c-1.058-0.636-2.602-1.022-3.389-0.07"/>
	<path fill="#44612D" d="M7.451,47.632c0.175-1.636,1.32-3.056,2.735-3.894c1.416-0.837,3.077-1.165,4.716-1.313
		c1.164-0.106,2.404-0.112,3.416,0.473c1.729,0.998,2.152,3.431,1.479,5.31c-0.672,1.878-2.161,3.329-3.603,4.708
		c-0.375,0.359-0.758,0.723-1.218,0.962c-0.46,0.238-0.977,0.34-1.488,0.41c-1.763,0.239-3.571,0.124-5.288-0.338
		c-0.316-0.085-0.644-0.19-0.876-0.42c-0.206-0.204-0.316-0.485-0.399-0.763C6.405,51.023,6.411,50.401,7.451,47.632"/>
	<path fill="#091F2C" d="M9.84,48.414c-0.768-0.111-1.295,0.751-1.497,1.499c-0.211,0.776-0.304,1.642,0.072,2.351
		c0.377,0.71,1.374,1.123,2.022,0.65c0.371-0.269,0.535-0.736,0.652-1.18c0.314-1.194,0.253-2.784-0.881-3.273"/>
	<path fill="#2B3619" d="M19.493,35.385c1.03-1.283,2.761-1.86,4.405-1.801c1.644,0.059,3.219,0.679,4.678,1.438
		c1.037,0.539,2.085,1.204,2.622,2.242c0.916,1.773-0.04,4.051-1.621,5.269c-1.58,1.219-3.616,1.636-5.574,2.02
		c-0.509,0.1-1.026,0.2-1.544,0.152c-0.515-0.048-1.005-0.24-1.475-0.458c-1.612-0.749-3.073-1.823-4.27-3.138
		c-0.22-0.243-0.438-0.507-0.511-0.827c-0.063-0.283-0.004-0.579,0.076-0.857C16.782,37.676,17.123,37.155,19.493,35.385"/>
	<path fill="#091F2C" d="M21.082,37.332c-0.586-0.508-1.495-0.066-2.069,0.454c-0.596,0.54-1.142,1.218-1.207,2.019
		c-0.066,0.8,0.55,1.686,1.352,1.639c0.458-0.027,0.849-0.332,1.185-0.642c0.909-0.836,1.717-2.208,1.025-3.231"/>
	<path fill="#44612D" d="M19.299,54.645c0.667-1.504,2.191-2.505,3.796-2.87c1.604-0.365,3.285-0.169,4.891,0.191
		c1.14,0.255,2.324,0.629,3.109,1.495c1.339,1.479,0.999,3.925-0.216,5.508s-3.076,2.509-4.871,3.381
		c-0.467,0.227-0.941,0.457-1.453,0.543c-0.51,0.086-1.033,0.025-1.543-0.065c-1.75-0.31-3.438-0.974-4.932-1.938
		c-0.274-0.178-0.554-0.378-0.705-0.668c-0.134-0.258-0.152-0.559-0.146-0.849C17.266,57.554,17.462,56.963,19.299,54.645"/>
	<path fill="#091F2C" d="M21.334,56.12c-0.696-0.341-1.462,0.32-1.884,0.97c-0.438,0.674-0.791,1.469-0.65,2.26
		c0.142,0.791,0.965,1.489,1.728,1.238c0.436-0.144,0.734-0.538,0.981-0.925c0.664-1.04,1.092-2.573,0.162-3.385"/>
	<path fill="#44612D" d="M38.047,46.659c1.447-0.781,3.267-0.639,4.759,0.054c1.491,0.694,2.7,1.878,3.75,3.146
		c0.745,0.9,1.452,1.92,1.543,3.085c0.153,1.99-1.613,3.715-3.543,4.223c-1.931,0.508-3.968,0.101-5.921-0.308
		c-0.508-0.106-1.024-0.215-1.482-0.46c-0.456-0.245-0.832-0.613-1.18-0.996c-1.194-1.318-2.122-2.875-2.712-4.552
		c-0.109-0.309-0.207-0.637-0.149-0.96c0.052-0.285,0.223-0.535,0.404-0.761C34.658,47.715,35.175,47.367,38.047,46.659"/>
	<path fill="#091F2C" d="M38.753,49.071c-0.342-0.695-1.353-0.643-2.083-0.387c-0.759,0.265-1.526,0.678-1.898,1.39
		c-0.371,0.712-0.148,1.768,0.608,2.036c0.432,0.153,0.91,0.024,1.342-0.13c1.162-0.417,2.439-1.367,2.201-2.578"/>
	<path fill="#2B3619" d="M10.68,53.93c1.264-1.055,3.073-1.28,4.674-0.899c1.601,0.382,3.021,1.3,4.304,2.332
		c0.911,0.733,1.807,1.59,2.129,2.714c0.549,1.919-0.837,3.963-2.626,4.847c-1.789,0.883-3.868,0.892-5.863,0.882
		c-0.519-0.002-1.047-0.006-1.544-0.154c-0.496-0.149-0.938-0.434-1.354-0.74C8.964,61.86,7.743,60.52,6.83,58.995
		c-0.169-0.281-0.331-0.583-0.338-0.911c-0.007-0.29,0.11-0.568,0.243-0.826C7.571,55.642,8.008,55.199,10.68,53.93"/>
	<path fill="#091F2C" d="M11.855,56.152c-0.475-0.613-1.453-0.359-2.119,0.038c-0.69,0.411-1.359,0.969-1.581,1.741
		c-0.223,0.772,0.208,1.762,1.003,1.873c0.454,0.064,0.896-0.158,1.289-0.396c1.055-0.64,2.115-1.826,1.641-2.966"/>
	<path fill="#EC2227" d="M0.43,26.997c8.51,0.747,35.792,2.799,44.283,1.86c1.34-0.148,2.863-0.442,3.548-1.604
		c0.373-0.634,0.411-1.405,0.429-2.141c0.139-5.773,0.588-12.774-0.486-18.448C32.084,8.07,15.112,10.378,0,4.597
		c0.127,5.844,0.141,13.363,0.612,19.189"/>
	<path fill="#6E6D74" d="M0.652,5.219c2.449,1.72,5.438,2.47,8.375,3.043c11.892,2.321,24.236,2.287,36.114-0.099
		c1.143-0.23,2.388-0.548,3.062-1.499c0.922-1.301,0.265-3.235-0.993-4.216c-1.257-0.981-2.915-1.246-4.498-1.44
		C34.889,0.05,26.984,0.025,19.103,0.002C13.241-0.015,7.205,0,1.777,2.212c-0.442,0.18-0.893,0.383-1.217,0.733
		c-1.025,1.107,0.254,3.281,1.721,2.921"/>
	<path fill="#C0BEBE" d="M2.087,3.751c6.372-3.267,44.412-2.522,44.412,1.41C31.988,8.167,16.792,7.817,2.435,4.146"/>
</g>
</svg>
