<?xml version="1.0" encoding="utf-8"?>
<!-- Generator: Adobe Illustrator 16.0.2, SVG Export Plug-In . SVG Version: 6.00 Build 0)  -->
<!DOCTYPE svg PUBLIC "-//W3C//DTD SVG 1.1//EN" "http://www.w3.org/Graphics/SVG/1.1/DTD/svg11.dtd">
<svg version="1.1" id="Layer_1" xmlns="http://www.w3.org/2000/svg" xmlns:xlink="http://www.w3.org/1999/xlink" x="0px" y="0px"
	 width="49.659px" height="66.185px" viewBox="0 0 49.659 66.185" enable-background="new 0 0 49.659 66.185" xml:space="preserve">
<g>
	<path fill="#C9A877" d="M0.908,24.073c0.57,12.241,1.139,24.45,1.709,36.655c0.014,0.331,0.035,0.679,0.238,0.963
		c0.254,0.356,0.738,0.538,1.197,0.692c6.787,2.272,14.182,2.837,21.457,3.379c7.527,0.561,15.527,1.047,22.23-1.894
		c0.631-0.277,1.277-0.612,1.584-1.152c0.248-0.435,0.238-0.94,0.223-1.422c-0.383-11.682-0.766-23.362-1.148-35.07
		c-8.252,2.225-17.096,2.131-25.758,2.015C18.078,28.178,7.082,27.727,0.908,24.073"/>
	<path fill="#9D682A" d="M4.791,39.623c-1.518-0.642-2.771-1.885-3.428-3.396c-0.43-0.992-0.602-2.155-0.174-3.148
		c0.346-0.808,1.041-1.409,1.756-1.921c0.947-0.676,2.018-1.263,3.18-1.314c0.91-0.04,1.813,0.258,2.604,0.713
		c1.297,0.75,2.336,1.942,2.898,3.332c0.705,1.74,0.66,3.685,0.512,5.556c-0.021,0.265-0.049,0.542-0.193,0.766
		c-0.193,0.299-0.672,0.258-0.898,0.533C8.574,43.762,6.623,40.696,4.791,39.623"/>
	<path fill="#091F2C" d="M8.621,38.138c-1.107,0.124-2.102-0.631-2.959-1.342c-0.508-0.422-1.066-0.954-1.004-1.612
		c0.068-0.747,0.971-1.187,1.703-1.023s1.295,0.743,1.752,1.337C8.789,36.373,9.316,37.279,8.621,38.138"/>
	<path fill="#9D682A" d="M36.254,56.669c1.314-0.992,3.018-1.456,4.656-1.268c1.072,0.123,2.166,0.558,2.813,1.424
		c0.525,0.705,0.697,1.608,0.783,2.483c0.111,1.158,0.084,2.379-0.455,3.41c-0.42,0.809-1.129,1.441-1.92,1.896
		c-1.299,0.749-2.85,1.05-4.334,0.842c-1.859-0.26-3.521-1.272-5.066-2.338c-0.219-0.151-0.445-0.313-0.566-0.55
		c-0.162-0.318,0.113-0.712-0.014-1.045C30.777,57.872,34.408,57.718,36.254,56.669"/>
	<path fill="#091F2C" d="M35.623,60.727c0.445-1.021,1.596-1.502,2.641-1.889c0.621-0.229,1.361-0.445,1.9-0.063
		c0.611,0.433,0.541,1.436,0.033,1.987c-0.51,0.551-1.291,0.748-2.035,0.848C37.066,61.756,36.018,61.759,35.623,60.727"/>
	<path fill="#9D682A" d="M38.352,37.171c-1.471,0.743-3.23,0.896-4.807,0.42c-1.037-0.312-2.035-0.934-2.516-1.902
		c-0.393-0.786-0.4-1.706-0.328-2.582c0.094-1.159,0.34-2.356,1.051-3.275c0.559-0.721,1.369-1.217,2.227-1.524
		c1.412-0.506,2.992-0.527,4.416-0.058c1.783,0.586,3.238,1.878,4.57,3.201c0.188,0.188,0.383,0.387,0.459,0.642
		c0.104,0.341-0.238,0.68-0.174,1.031C43.955,36.961,40.354,36.467,38.352,37.171"/>
	<path fill="#091F2C" d="M39.693,33.291c-0.621,0.925-1.838,1.194-2.936,1.389c-0.65,0.115-1.418,0.196-1.881-0.275
		c-0.523-0.536-0.275-1.51,0.322-1.962c0.598-0.451,1.404-0.506,2.152-0.472C38.455,32.021,39.488,32.205,39.693,33.291"/>
	<path fill="#9D682A" d="M5.918,50.147c0.973-1.33,2.469-2.267,4.09-2.56c1.064-0.192,2.236-0.092,3.105,0.551
		c0.707,0.523,1.133,1.338,1.467,2.151c0.441,1.076,0.768,2.253,0.551,3.396c-0.17,0.895-0.666,1.705-1.291,2.369
		c-1.025,1.093-2.424,1.829-3.906,2.059c-1.855,0.288-3.738-0.2-5.525-0.774c-0.254-0.082-0.516-0.171-0.701-0.363
		c-0.246-0.257-0.096-0.714-0.313-0.997C1.023,52.881,4.453,51.685,5.918,50.147"/>
	<path fill="#091F2C" d="M6.486,54.214c0.133-1.106,1.096-1.9,1.984-2.572c0.525-0.398,1.172-0.819,1.799-0.609
		c0.711,0.238,0.934,1.218,0.605,1.893c-0.328,0.675-1.02,1.089-1.703,1.399C8.166,54.782,7.164,55.088,6.486,54.214"/>
	<path fill="#9D682A" d="M14.65,28.563c1.563-0.522,3.326-0.419,4.818,0.28c0.979,0.459,1.875,1.219,2.213,2.246
		c0.273,0.835,0.15,1.746-0.049,2.602c-0.262,1.134-0.676,2.282-1.516,3.089c-0.656,0.632-1.529,1.006-2.424,1.186
		c-1.469,0.296-3.037,0.088-4.377-0.582c-1.68-0.839-2.934-2.327-4.059-3.829c-0.16-0.213-0.322-0.439-0.361-0.702
		c-0.053-0.352,0.332-0.638,0.32-0.994C9.076,27.96,12.566,28.97,14.65,28.563"/>
	<path fill="#091F2C" d="M12.76,32.209c0.75-0.825,1.992-0.916,3.107-0.949c0.66-0.02,1.43,0.01,1.818,0.544
		c0.443,0.606,0.057,1.533-0.602,1.894c-0.656,0.361-1.461,0.298-2.197,0.156C13.801,33.644,12.807,33.314,12.76,32.209"/>
	<path fill="#9D682A" d="M31.629,42.668c1.494-0.699,3.256-0.801,4.818-0.278c1.025,0.343,2.006,0.994,2.457,1.975
		c0.369,0.798,0.352,1.718,0.254,2.591c-0.131,1.156-0.41,2.345-1.15,3.243c-0.578,0.704-1.402,1.176-2.27,1.458
		c-1.426,0.464-3.006,0.438-4.416-0.073c-1.766-0.639-3.182-1.973-4.473-3.335c-0.184-0.193-0.371-0.398-0.441-0.655
		c-0.092-0.344,0.258-0.673,0.205-1.025C26.023,42.714,29.607,43.314,31.629,42.668"/>
	<path fill="#091F2C" d="M30.174,46.508c0.648-0.906,1.873-1.14,2.975-1.302c0.654-0.096,1.422-0.154,1.871,0.331
		c0.51,0.551,0.232,1.517-0.379,1.951c-0.611,0.434-1.418,0.465-2.166,0.409C31.373,47.814,30.346,47.601,30.174,46.508"/>
	<path fill="#513415" d="M41.5,44.59c-1.521-0.626-2.564-2.123-2.973-3.716c-0.408-1.594-0.258-3.28,0.057-4.895
		c0.225-1.147,0.566-2.34,1.41-3.148c1.443-1.379,3.898-1.106,5.512,0.066c1.617,1.171,2.594,3.006,3.514,4.776
		c0.24,0.461,0.482,0.929,0.582,1.438c0.1,0.508,0.055,1.033-0.023,1.544c-0.262,1.759-0.879,3.463-1.803,4.982
		c-0.17,0.28-0.361,0.565-0.648,0.724c-0.254,0.141-0.555,0.167-0.844,0.169C44.463,46.543,43.867,46.363,41.5,44.59"/>
	<path fill="#091F2C" d="M42.918,42.516c-0.32,0.705,0.359,1.453,1.021,1.857c0.686,0.419,1.49,0.751,2.277,0.588
		c0.785-0.163,1.461-1.005,1.189-1.76c-0.154-0.432-0.557-0.72-0.951-0.956c-1.057-0.636-2.602-1.022-3.389-0.07"/>
	<path fill="#513415" d="M7.449,47.632c0.176-1.636,1.322-3.056,2.738-3.894c1.414-0.837,3.076-1.165,4.713-1.313
		c1.164-0.106,2.406-0.112,3.418,0.473c1.729,0.998,2.152,3.431,1.48,5.31c-0.674,1.878-2.162,3.329-3.605,4.708
		c-0.375,0.359-0.756,0.723-1.217,0.962c-0.459,0.238-0.977,0.34-1.488,0.41c-1.762,0.239-3.572,0.124-5.289-0.338
		c-0.314-0.085-0.643-0.19-0.875-0.42c-0.207-0.204-0.316-0.485-0.398-0.763C6.404,51.023,6.41,50.401,7.449,47.632"/>
	<path fill="#091F2C" d="M9.84,48.414c-0.768-0.111-1.295,0.751-1.498,1.499c-0.211,0.776-0.305,1.642,0.072,2.351
		c0.377,0.71,1.373,1.123,2.023,0.65c0.371-0.269,0.535-0.736,0.652-1.18c0.313-1.194,0.252-2.784-0.883-3.273"/>
	<path fill="#513415" d="M19.492,35.385c1.029-1.283,2.762-1.86,4.404-1.801c1.645,0.059,3.219,0.679,4.678,1.438
		c1.037,0.539,2.086,1.204,2.623,2.242c0.916,1.773-0.041,4.051-1.619,5.269c-1.58,1.219-3.617,1.636-5.576,2.02
		c-0.508,0.1-1.027,0.2-1.543,0.152c-0.516-0.048-1.006-0.24-1.477-0.458c-1.611-0.749-3.072-1.823-4.268-3.138
		c-0.221-0.243-0.439-0.507-0.512-0.827c-0.063-0.283-0.004-0.579,0.076-0.857C16.781,37.676,17.123,37.155,19.492,35.385"/>
	<path fill="#091F2C" d="M21.082,37.332c-0.586-0.508-1.496-0.066-2.07,0.454c-0.596,0.54-1.141,1.218-1.207,2.019
		c-0.066,0.8,0.551,1.686,1.352,1.639c0.459-0.027,0.848-0.332,1.186-0.642c0.908-0.836,1.715-2.208,1.025-3.231"/>
	<path fill="#513415" d="M19.297,54.645c0.668-1.504,2.193-2.505,3.797-2.87c1.604-0.365,3.285-0.169,4.891,0.191
		c1.141,0.255,2.324,0.629,3.109,1.495c1.34,1.479,0.998,3.925-0.217,5.508s-3.076,2.509-4.871,3.381
		c-0.465,0.227-0.939,0.457-1.451,0.543s-1.033,0.025-1.545-0.065c-1.75-0.31-3.436-0.974-4.93-1.938
		c-0.275-0.178-0.555-0.378-0.705-0.668c-0.135-0.258-0.152-0.559-0.146-0.849C17.266,57.554,17.461,56.963,19.297,54.645"/>
	<path fill="#091F2C" d="M21.334,56.12c-0.697-0.341-1.463,0.32-1.885,0.97c-0.438,0.674-0.791,1.469-0.65,2.26
		c0.143,0.791,0.965,1.489,1.727,1.238c0.438-0.144,0.736-0.538,0.982-0.925c0.664-1.04,1.092-2.573,0.162-3.385"/>
	<path fill="#513415" d="M38.045,46.659c1.449-0.781,3.268-0.639,4.76,0.054c1.49,0.694,2.701,1.878,3.75,3.146
		c0.746,0.9,1.451,1.92,1.543,3.085c0.154,1.99-1.613,3.715-3.543,4.223c-1.93,0.508-3.969,0.101-5.922-0.308
		c-0.508-0.106-1.023-0.215-1.48-0.46s-0.832-0.613-1.182-0.996c-1.193-1.318-2.121-2.875-2.711-4.552
		c-0.109-0.309-0.207-0.637-0.148-0.96c0.051-0.285,0.221-0.535,0.402-0.761C34.658,47.715,35.174,47.367,38.045,46.659"/>
	<path fill="#091F2C" d="M38.752,49.071c-0.342-0.695-1.352-0.643-2.082-0.387c-0.76,0.265-1.527,0.678-1.898,1.39
		c-0.373,0.712-0.148,1.768,0.607,2.036c0.432,0.153,0.91,0.024,1.342-0.13c1.162-0.417,2.439-1.367,2.201-2.578"/>
	<path fill="#513415" d="M10.68,53.93c1.262-1.055,3.072-1.28,4.672-0.899c1.602,0.382,3.023,1.3,4.305,2.332
		c0.91,0.733,1.807,1.59,2.129,2.714c0.549,1.919-0.836,3.963-2.625,4.847c-1.789,0.883-3.869,0.892-5.863,0.882
		c-0.52-0.002-1.047-0.006-1.545-0.154c-0.496-0.149-0.938-0.434-1.355-0.74C8.963,61.86,7.742,60.52,6.83,58.995
		c-0.17-0.281-0.332-0.583-0.338-0.911c-0.008-0.29,0.109-0.568,0.242-0.826C7.57,55.642,8.008,55.199,10.68,53.93"/>
	<path fill="#091F2C" d="M11.854,56.152c-0.473-0.613-1.453-0.359-2.119,0.038c-0.689,0.411-1.357,0.969-1.58,1.741
		c-0.223,0.772,0.207,1.762,1.002,1.873c0.455,0.064,0.898-0.158,1.289-0.396c1.057-0.64,2.117-1.826,1.643-2.966"/>
	<path fill="#EC2227" d="M0.43,26.997c8.508,0.747,35.791,2.799,44.281,1.86c1.342-0.148,2.865-0.442,3.549-1.604
		c0.373-0.634,0.412-1.405,0.428-2.141c0.141-5.773,0.588-12.774-0.484-18.448C32.084,8.07,15.111,10.378,0,4.597
		c0.127,5.844,0.141,13.363,0.611,19.189"/>
	<path fill="#6E6D74" d="M0.65,5.219c2.451,1.72,5.439,2.47,8.377,3.043c11.891,2.321,24.236,2.287,36.113-0.099
		c1.143-0.23,2.387-0.548,3.061-1.499c0.924-1.301,0.266-3.235-0.992-4.216s-2.916-1.246-4.498-1.44
		C34.889,0.05,26.984,0.025,19.102,0.002C13.24-0.015,7.203,0,1.775,2.212c-0.441,0.18-0.891,0.383-1.215,0.733
		c-1.027,1.107,0.254,3.281,1.719,2.921"/>
	<path fill="#C0BEBE" d="M2.086,3.751c6.373-3.267,44.412-2.522,44.412,1.41C31.986,8.167,16.791,7.817,2.434,4.146"/>
</g>
</svg>
