<?xml version="1.0" encoding="utf-8"?>
<!-- Generator: Adobe Illustrator 16.0.2, SVG Export Plug-In . SVG Version: 6.00 Build 0)  -->
<!DOCTYPE svg PUBLIC "-//W3C//DTD SVG 1.1//EN" "http://www.w3.org/Graphics/SVG/1.1/DTD/svg11.dtd">
<svg version="1.1" id="Layer_1" xmlns="http://www.w3.org/2000/svg" xmlns:xlink="http://www.w3.org/1999/xlink" x="0px" y="0px"
	 width="48.375px" height="66.054px" viewBox="0 0 48.375 66.054" enable-background="new 0 0 48.375 66.054" xml:space="preserve">
<g>
	<path fill="#F4D49D" d="M0.27,4.48c0.556,17.441,1.11,34.837,1.665,52.225c0.015,0.473,0.035,0.969,0.233,1.374
		c0.248,0.506,0.72,0.767,1.166,0.984c6.613,3.238,13.817,4.044,20.905,4.815c7.332,0.798,15.128,1.492,21.657-2.699
		c0.614-0.395,1.245-0.872,1.544-1.642c0.242-0.62,0.231-1.338,0.216-2.026c-0.373-16.644-0.745-33.286-1.118-49.967
		c-8.04,3.17-16.655,3.036-25.094,2.87C16.999,10.329,6.016,9.876,0,4.67"/>
	<path fill="#F4D49D" d="M0.27,23.822C0.826,35.642,1.38,47.43,1.935,59.211c0.015,0.321,0.035,0.657,0.233,0.931
		c0.248,0.344,0.72,0.52,1.166,0.667c6.613,2.195,13.817,2.74,20.905,3.264c7.332,0.541,15.128,1.011,21.657-1.829
		c0.614-0.268,1.245-0.591,1.544-1.112c0.242-0.42,0.231-0.907,0.216-1.373c-0.373-11.278-0.745-22.555-1.118-33.859
		c-8.04,2.148-16.655,2.057-25.094,1.945C16.999,27.786,6.016,27.479,0,23.952"/>
	<path fill="#C9A877" d="M40.57,50.013c-1.894,0.09-2.101,3.548-3.993,3.675c-0.36-1.341-1.399-2.372-2.183-3.519
		c-0.783-1.146-1.317-2.709-0.586-3.89c0.541-0.872,1.651-1.264,2.675-1.197c1.025,0.066,1.983,0.516,2.884,1.008
		c0.721,0.394,1.472,0.873,1.772,1.639c0.301,0.765-0.138,1.846-0.96,1.874"/>
	<path fill="#C9A877" d="M27.266,62.095c-1.882,0.229-1.835,3.693-3.712,3.959c-0.457-1.313-1.57-2.263-2.436-3.35
		c-0.865-1.087-1.512-2.605-0.87-3.837c0.475-0.91,1.554-1.381,2.581-1.391c1.026-0.009,2.015,0.369,2.949,0.794
		c0.749,0.34,1.532,0.763,1.888,1.504s-0.002,1.853-0.82,1.94"/>
	<path fill="#C9A877" d="M0.704,42.775c1.829-0.501,1.276-3.921,3.095-4.458c0.644,1.231,1.883,2.01,2.898,2.958
		c1.015,0.949,1.877,2.357,1.42,3.669c-0.337,0.969-1.335,1.593-2.349,1.752s-2.048-0.071-3.034-0.355
		c-0.79-0.227-1.627-0.531-2.087-1.213c-0.461-0.681-0.268-1.832,0.528-2.038"/>
	<path fill="#C9A877" d="M8.209,55.374c0.734,1.748,4.054,0.756,4.822,2.49c-1.137,0.798-1.748,2.128-2.557,3.257
		c-0.809,1.13-2.093,2.167-3.453,1.886c-1.005-0.208-1.754-1.117-2.043-2.103c-0.289-0.985-0.195-2.039-0.042-3.054
		c0.123-0.813,0.316-1.683,0.932-2.227c0.616-0.545,1.782-0.503,2.09,0.259"/>
	<path fill="#C9A877" d="M33.894,35.805c-1.691,0.857-0.464,4.098-2.138,4.988c-0.877-1.077-2.248-1.591-3.432-2.317
		c-1.185-0.725-2.312-1.932-2.128-3.309c0.136-1.017,0.989-1.829,1.951-2.188c0.961-0.358,2.019-0.341,3.043-0.261
		c0.819,0.064,1.701,0.195,2.288,0.77c0.588,0.575,0.63,1.741-0.108,2.103"/>
	<path fill="#C9A877" d="M44.185,33.668c-0.898,1.67,1.961,3.628,1.096,5.315c-1.335-0.382-2.754-0.021-4.14,0.06
		c-1.387,0.082-3.001-0.264-3.637-1.499c-0.47-0.913-0.234-2.066,0.35-2.91c0.584-0.844,1.462-1.435,2.348-1.954
		c0.709-0.416,1.507-0.812,2.318-0.676c0.81,0.136,1.511,1.069,1.112,1.788"/>
	<path fill="#C9A877" d="M46.502,58.603c-1.87-0.313-2.803,3.023-4.679,2.748c-0.069-1.388-0.867-2.614-1.39-3.901
		c-0.524-1.286-0.715-2.926,0.249-3.926c0.713-0.738,1.881-0.886,2.868-0.605c0.988,0.282,1.829,0.924,2.606,1.595
		c0.621,0.538,1.254,1.165,1.385,1.977c0.132,0.811-0.525,1.775-1.334,1.629"/>
	<path fill="#C9A877" d="M29.698,32.128c1.066-1.568-1.576-3.811-0.541-5.4c1.289,0.518,2.737,0.306,4.124,0.368
		c1.388,0.062,2.958,0.573,3.463,1.867c0.373,0.956,0.019,2.079-0.649,2.858c-0.668,0.78-1.603,1.276-2.537,1.701
		c-0.749,0.34-1.583,0.652-2.375,0.433c-0.793-0.219-1.393-1.219-0.922-1.893"/>
	<path fill="#C9A877" d="M15.037,50.658c1.866-0.339,1.615-3.794,3.474-4.169c0.533,1.282,1.699,2.167,2.627,3.2
		c0.928,1.034,1.663,2.512,1.094,3.779c-0.421,0.936-1.47,1.471-2.494,1.54c-1.025,0.069-2.034-0.25-2.991-0.619
		c-0.768-0.296-1.575-0.673-1.974-1.392c-0.398-0.719-0.105-1.848,0.705-1.984"/>
	<path fill="#C9A877" d="M19.581,28.246c0.554,1.813,3.957,1.161,4.546,2.963c-1.211,0.68-1.953,1.941-2.872,2.983
		c-0.918,1.043-2.3,1.945-3.625,1.528c-0.979-0.309-1.632-1.289-1.82-2.298c-0.189-1.009,0.011-2.048,0.265-3.043
		c0.204-0.796,0.484-1.642,1.152-2.122c0.667-0.479,1.823-0.321,2.053,0.469"/>
	<path fill="#C9A877" d="M13.461,41.161c0.495-1.83-2.734-3.087-2.275-4.927c1.387,0.069,2.686-0.605,4.018-1
		c1.332-0.394,2.983-0.424,3.883,0.634c0.665,0.782,0.697,1.959,0.32,2.914c-0.377,0.955-1.098,1.729-1.843,2.436
		c-0.596,0.566-1.283,1.133-2.103,1.185c-0.82,0.051-1.715-0.698-1.49-1.488"/>
	<path fill="#AD832D" d="M16.276,43.981c-1.107-0.468-2.214-0.936-3.322-1.404c-0.996-0.421-2.121-0.846-3.127-0.448
		c-0.71,0.281-1.211,0.927-1.578,1.596c-0.108,0.195-0.209,0.402-0.222,0.625c-0.041,0.682,0.698,1.117,1.055,1.7
		c0.365,0.596,0.321,1.36,0.607,1.998c0.508,1.134,2.004,1.579,3.186,1.195c1.181-0.385,2.057-1.406,2.621-2.513
		C16.061,45.623,15.833,45.142,16.276,43.981"/>
	<path fill="#AD832D" d="M2.809,25.102c-0.161,1.191-0.323,2.382-0.484,3.573c-0.145,1.073-0.26,2.27,0.388,3.136
		c0.457,0.611,1.211,0.925,1.953,1.105c0.217,0.052,0.443,0.096,0.661,0.05c0.67-0.139,0.895-0.967,1.365-1.464
		c0.48-0.509,1.228-0.666,1.769-1.11c0.961-0.787,0.998-2.348,0.317-3.387c-0.68-1.039-1.895-1.617-3.112-1.871
		C4.45,24.879,4.045,25.224,2.809,25.102"/>
	<path fill="#AD832D" d="M48.375,49.336c-0.557-1.065-1.115-2.13-1.673-3.195c-0.501-0.958-1.1-2.001-2.13-2.333
		c-0.727-0.234-1.523-0.054-2.232,0.229c-0.207,0.083-0.417,0.178-0.569,0.341c-0.465,0.502-0.17,1.307-0.265,1.984
		c-0.098,0.692-0.617,1.254-0.802,1.928c-0.328,1.199,0.545,2.493,1.701,2.947c1.156,0.454,2.482,0.222,3.621-0.274
		C47.166,50.466,47.296,49.951,48.375,49.336"/>
	<path fill="#AD832D" d="M37.921,42.757c-1.013-0.647-2.027-1.293-3.04-1.94c-0.912-0.582-1.95-1.189-3.009-0.964
		c-0.746,0.158-1.348,0.71-1.823,1.309c-0.138,0.174-0.272,0.361-0.323,0.578c-0.154,0.667,0.502,1.219,0.756,1.854
		c0.26,0.648,0.089,1.394,0.264,2.071c0.312,1.203,1.712,1.892,2.941,1.711c1.229-0.182,2.264-1.042,3.005-2.039
		C37.433,44.34,37.291,43.828,37.921,42.757"/>
	<path fill="#AD832D" d="M32.665,56.634c0.459,1.111,0.918,2.222,1.378,3.332c0.413,1,0.915,2.094,1.911,2.517
		c0.703,0.299,1.512,0.191,2.244-0.026c0.214-0.063,0.431-0.14,0.597-0.289c0.508-0.457,0.288-1.286,0.443-1.952
		c0.16-0.68,0.728-1.192,0.972-1.848c0.435-1.164-0.317-2.532-1.428-3.088c-1.111-0.557-2.452-0.445-3.631-0.053
		C33.972,55.617,33.794,56.119,32.665,56.634"/>
	<path fill="#AD832D" d="M2.95,54.434l3.399,1.205C7.369,56,8.517,56.357,9.498,55.9c0.692-0.323,1.153-0.997,1.481-1.686
		c0.095-0.202,0.184-0.414,0.184-0.637c0-0.684-0.763-1.074-1.154-1.635c-0.4-0.574-0.401-1.339-0.724-1.959
		c-0.575-1.101-2.094-1.457-3.251-1.004c-1.157,0.454-1.971,1.525-2.468,2.664C3.069,52.782,3.323,53.249,2.95,54.434"/>
	<path fill="#AD832D" d="M19.338,43.007c1.164,0.299,2.329,0.597,3.493,0.896c1.048,0.268,2.224,0.522,3.16-0.022
		c0.66-0.383,1.059-1.095,1.324-1.811c0.077-0.21,0.146-0.429,0.126-0.651c-0.061-0.682-0.856-1.001-1.296-1.525
		c-0.449-0.536-0.519-1.298-0.896-1.886c-0.671-1.046-2.216-1.264-3.328-0.709c-1.111,0.555-1.826,1.695-2.219,2.874
		C19.308,41.351,19.604,41.793,19.338,43.007"/>
	<path fill="#AD832D" d="M20.228,54.481c-1.158,0.321-2.316,0.643-3.475,0.964c-1.042,0.29-2.188,0.656-2.728,1.593
		c-0.382,0.662-0.373,1.478-0.245,2.231c0.037,0.22,0.086,0.445,0.214,0.627c0.392,0.562,1.242,0.441,1.884,0.677
		c0.656,0.24,1.096,0.866,1.717,1.188c1.103,0.572,2.551-0.009,3.238-1.044s0.738-2.38,0.492-3.597
		C21.079,55.902,20.603,55.666,20.228,54.481"/>
	<path fill="#AD832D" d="M11.411,36.683c-0.564-1.061-1.129-2.122-1.693-3.184c-0.508-0.955-1.114-1.994-2.146-2.319
		c-0.728-0.23-1.523-0.044-2.231,0.243c-0.206,0.084-0.415,0.181-0.566,0.345c-0.462,0.504-0.162,1.308-0.253,1.986
		c-0.092,0.693-0.608,1.258-0.788,1.933c-0.32,1.201,0.56,2.489,1.719,2.936c1.16,0.446,2.484,0.206,3.619-0.298
		C10.208,37.821,10.336,37.305,11.411,36.683"/>
	<path fill="#AD832D" d="M32.017,58.473c-0.662-1.003-1.324-2.006-1.987-3.009c-0.596-0.903-1.297-1.881-2.355-2.107
		c-0.746-0.159-1.521,0.1-2.198,0.453c-0.197,0.104-0.396,0.22-0.53,0.397c-0.413,0.546-0.038,1.317-0.065,2.001
		c-0.026,0.698-0.486,1.31-0.602,1.999c-0.205,1.226,0.793,2.425,1.989,2.76c1.197,0.335,2.492-0.028,3.575-0.638
		S31.005,59.194,32.017,58.473"/>
	<path fill="#AD832D" d="M30.063,47.659c-0.98-0.697-1.959-1.393-2.939-2.09c-0.882-0.627-1.888-1.285-2.956-1.114
		c-0.754,0.121-1.383,0.642-1.887,1.216c-0.147,0.167-0.29,0.347-0.351,0.562c-0.188,0.658,0.44,1.242,0.662,1.889
		c0.227,0.661,0.018,1.397,0.16,2.082c0.25,1.216,1.614,1.975,2.851,1.856c1.237-0.12,2.313-0.927,3.103-1.886
		S29.381,48.697,30.063,47.659"/>
	<path fill="#EC2227" d="M1.001,27.411c2.087,0.352,34.285,1.618,42.557,0.704c1.306-0.144,2.79-0.431,3.456-1.563
		c0.365-0.618,0.401-1.369,0.418-2.086c0.135-5.624,0.572-12.444-0.474-17.972C31.254,7.863,14.993,10.111,0.27,4.48
		c0.124,5.693-0.563,11.602-0.105,17.278"/>
	<path fill="#6E6D74" d="M0.632,5.085C3.019,6.761,5.93,7.492,8.792,8.05c11.585,2.261,23.612,2.228,35.184-0.097
		c1.113-0.224,2.326-0.534,2.982-1.46c0.899-1.267,0.258-3.152-0.967-4.107c-1.225-0.956-2.84-1.214-4.382-1.403
		c-7.622-0.934-15.323-0.958-23.001-0.981C12.896-0.014,7.016,0,1.728,2.155C1.297,2.332,0.859,2.529,0.542,2.871
		c-0.999,1.078,0.248,3.196,1.676,2.845"/>
	<path fill="#C0BEBE" d="M2.03,3.655c6.208-3.182,43.268-2.457,43.268,1.374C31.161,7.958,16.356,7.616,2.369,4.039"/>
</g>
</svg>
