<?xml version="1.0" encoding="utf-8"?>
<!-- Generator: Adobe Illustrator 16.0.2, SVG Export Plug-In . SVG Version: 6.00 Build 0)  -->
<!DOCTYPE svg PUBLIC "-//W3C//DTD SVG 1.1//EN" "http://www.w3.org/Graphics/SVG/1.1/DTD/svg11.dtd">
<svg version="1.1" id="Layer_1" xmlns="http://www.w3.org/2000/svg" xmlns:xlink="http://www.w3.org/1999/xlink" x="0px" y="0px"
	 width="61.352px" height="80.006px" viewBox="0 0 61.352 80.006" enable-background="new 0 0 61.352 80.006" xml:space="preserve">
<g>
	<path fill="#ED2024" d="M1.977,0.779c9.033-0.62,18.127-0.352,27.108,0.799c1.737,0.223,3.489,0.48,5.233,0.313
		c1.646-0.157,3.229-0.685,4.843-1.039c3.304-0.723,6.72-0.711,10.102-0.695c3.8,0.018,7.601,0.035,11.4,0.053
		c1.722,5.852-0.122,12.604-4.579,16.769c-0.824,0.77-1.801,1.967-1.101,2.851c0.169,0.213,0.411,0.353,0.63,0.515
		c1.992,1.477,1.789,4.445,1.613,6.92c-0.154,2.176-0.127,4.375,0.264,6.521c0.255,1.398,0.661,2.77,0.807,4.183
		c0.484,4.723-1.991,9.46-1.111,14.125c0.334,1.77,1.144,3.439,1.321,5.231c0.42,4.234-2.719,8.424-1.593,12.528
		c0.901,3.284,4.415,5.856,3.935,9.228c-3.239,0.571-6.499-0.76-9.786-0.873c-2.801-0.096-5.546,0.692-8.307,1.175
		c-5.748,1.004-11.656,0.682-17.428-0.168c-2.354-0.346-4.713-0.781-7.09-0.705c-2.705,0.087-5.354,0.833-8.058,0.948
		c-2.244,0.096-4.481-0.245-6.701-0.585c-1.42-0.217-3.142-0.704-3.439-2.109c-0.207-0.981,0.426-1.931,1.085-2.686
		c1.786-2.045,4.119-3.861,4.729-6.507c0.273-1.188,0.161-2.426,0.07-3.642C4.966,51.19,6.468,38.339,5.145,25.633
		c-0.363-3.507-0.912-7.224,0.575-10.421c0.163-0.349,0.354-0.717,0.302-1.099c-0.064-0.481-0.484-0.819-0.811-1.179
		c-1.776-1.962-1.046-5.258-2.602-7.401C1.936,4.604,0.882,3.974,0.335,2.965C-0.212,1.956,0.214,0.292,1.361,0.31"/>
	<path fill="#FFCB0B" d="M24.544,51.421c-0.262,0.85-0.559,1.732-1.198,2.348c-0.714,0.688-1.734,0.935-2.595,1.426
		c-0.861,0.49-1.63,1.489-1.264,2.41c0.045,0.115,0.111,0.227,0.216,0.292c0.091,0.055,0.198,0.07,0.304,0.083l6.556,0.819
		c2.92,0.365,6.169,0.649,8.529-1.109c1.501-1.119,2.397-3.004,2.318-4.875c-0.08-1.87-1.134-3.672-2.725-4.659
		c-0.652-0.405-1.378-0.675-2.103-0.926c-1.328-0.46-2.721-0.872-4.117-0.723c-1.398,0.148-2.81,0.986-3.235,2.325
		C24.951,49.712,24.744,49.508,24.544,51.421"/>
	<path fill="#FFCB0B" d="M23.98,47.08c2.268-5.23,6.102-8.702,2.001-9.796c-1.875,0.484-2.52,2.976-4.272,3.803
		c-0.982,0.464-2.135,0.316-3.204,0.513c-1.955,0.361-3.489,1.832-4.897,3.235c-1.04,1.035-2.166,2.333-1.88,3.772
		c0.115,0.578,0.45,1.084,0.794,1.562c0.509,0.71,1.068,1.41,1.809,1.872c1.223,0.763,2.807,0.772,4.168,0.303
		c1.36-0.469,2.532-1.366,3.594-2.339C22.9,49.263,23.245,48.774,23.98,47.08"/>
	<path fill="#EEA820" d="M23.655,30.956c-0.353-0.816-0.699-1.68-0.612-2.564c0.096-0.987,0.712-1.836,1.049-2.768
		c0.338-0.933,0.274-2.19-0.602-2.654c-0.109-0.058-0.232-0.101-0.354-0.082c-0.104,0.016-0.196,0.076-0.284,0.134
		c-1.841,1.21-3.681,2.42-5.521,3.63c-2.459,1.617-5.116,3.509-5.771,6.378c-0.416,1.825,0.125,3.842,1.398,5.213
		c1.275,1.372,3.246,2.059,5.098,1.778c0.758-0.115,1.484-0.38,2.199-0.66c1.31-0.511,2.637-1.101,3.604-2.121
		s1.497-2.573,0.952-3.868C24.453,32.521,24.743,32.542,23.655,30.956"/>
	<path fill="#B72027" d="M1.961,4.566C7.01,4.391,12.06,4.213,17.108,4.038c2.355-0.083,4.724-0.164,7.056,0.168
		c3.637,0.517,7.258,2.033,10.861,1.33c1.586-0.309,3.055-1.033,4.583-1.554C46.024,1.797,53.039,3.291,59.81,2.98
		c0.585-0.027,1.674-0.099,1.529-0.667c-0.196-0.772,0.188-2.081-0.913-2.103c-4.584-0.094-9.751-0.112-14.334-0.205
		c-2.38-0.048-5.458,0.243-7.807,0.637c-1.994,0.336-3.949,0.989-5.972,1.026c-1.558,0.028-4.043-0.036-5.573-0.332
		C19.924,0.019,5.804-0.045,2.271,0.723C1.407,0.91,1.521-0.51,0.735,0.415c-1.434,1.69-0.461,3.174,0.99,4.005"/>
</g>
</svg>
