<?xml version="1.0" encoding="utf-8"?>
<!-- Generator: Adobe Illustrator 16.0.2, SVG Export Plug-In . SVG Version: 6.00 Build 0)  -->
<!DOCTYPE svg PUBLIC "-//W3C//DTD SVG 1.1//EN" "http://www.w3.org/Graphics/SVG/1.1/DTD/svg11.dtd">
<svg version="1.1" id="Layer_1" xmlns="http://www.w3.org/2000/svg" xmlns:xlink="http://www.w3.org/1999/xlink" x="0px" y="0px"
	 width="36.01px" height="61.341px" viewBox="0 0 36.01 61.341" enable-background="new 0 0 36.01 61.341" xml:space="preserve">
<g>
	<path fill="#2C3A96" d="M0.285,9.137c0.22-2.864,0.438-5.729,0.659-8.593c0.011-0.146,0.027-0.307,0.131-0.413
		C1.194,0.008,1.385,0,1.556,0c11.428,0.013,22.856,0.023,34.285,0.034c-0.296,2.718-0.238,5.473,0.169,8.175
		c-2.04,1.668-4.907,1.749-7.542,1.751C20.581,9.965,12.694,9.972,4.81,9.978C3.169,9.979,1.456,9.962,0,9.208"/>
	<path fill="#D06728" d="M34.165,9.629c0.702-0.29,1.122,0.79,1.114,1.551c-0.16,14.389-0.319,28.777-0.481,43.167
		c-0.016,1.498-0.056,3.081-0.847,4.354c-1.47,2.368-4.751,2.632-7.538,2.637c-6.898,0.014-13.816,0.025-20.667-0.794
		c-0.702-0.084-1.426-0.184-2.041-0.534c-1.409-0.804-1.817-2.62-2.002-4.231C0.466,44.924,3.075,33.935,2.126,23.053
		c-0.389-4.454-1.373-8.904-0.938-13.354c11.324-0.062,22.648-0.123,33.971-0.185"/>
	<path fill="#2C3A96" d="M1.155,15.241c11.313-0.23,22.635,0.019,33.928,0.745c0.86,12.612,0.758,25.292-0.311,37.888
		c-0.027,0.324-0.07,0.681-0.305,0.9c-0.162,0.152-0.389,0.209-0.604,0.26c-2.344,0.551-4.729,1.022-7.133,0.991
		c-2.648-0.033-5.251-0.675-7.884-0.971c-5.462-0.615-10.988,0.258-16.472-0.089C-0.8,41.979,2.585,28.218,0.854,14.949"/>
</g>
</svg>
