<?xml version="1.0" encoding="utf-8"?>
<!-- Generator: Adobe Illustrator 16.0.2, SVG Export Plug-In . SVG Version: 6.00 Build 0)  -->
<!DOCTYPE svg PUBLIC "-//W3C//DTD SVG 1.1//EN" "http://www.w3.org/Graphics/SVG/1.1/DTD/svg11.dtd">
<svg version="1.1" id="Layer_1" xmlns="http://www.w3.org/2000/svg" xmlns:xlink="http://www.w3.org/1999/xlink" x="0px" y="0px"
	 width="65.787px" height="39.83px" viewBox="0 0 65.787 39.83" enable-background="new 0 0 65.787 39.83" xml:space="preserve">
<g>
	<path fill="#FFFFFF" d="M65.07,6.77c0.254-2.159,0.295-4.802-1.539-5.97c-0.894-0.569-2.015-0.608-3.075-0.624
		C41.519-0.105,22.563,1.537,3.652,0.5C2.894,0.459,2.08,0.428,1.437,0.833C0.808,1.229,0.48,1.969,0.291,2.69
		c-0.663,2.533-0.053,5.2,0.445,7.77c1.323,6.822,0.819,13.225,1.547,20.742c0.147,1.528-0.155,3.145,0.513,4.527
		c1.068,2.211,3.709,3.135,6.129,3.559c6.834,1.198,13.83,0.127,20.74-0.496c3.78-0.341,7.571-0.548,11.36-0.754
		c7.26-0.395,14.521-0.79,21.78-1.185c0.48-0.026,0.988-0.061,1.388-0.328c0.528-0.354,0.737-1.02,0.876-1.641
		C66.765,27.283,65,19.64,64.431,11.638C64.304,9.846,65.009,8.565,65.07,6.77"/>
	<path fill="#416FB6" d="M24.618,0.578c0.477,3.002,0.328,6.062,0.115,9.093c-0.269,3.793-0.638,7.585-1.316,11.33
		c-0.286,1.576,0.023,3.505,0.279,5.087c0.244,1.507,0.082,3.238,0.395,4.736c0.658,3.158,0.564,3.876,0.527,6.315
		c-0.004,0.235,0.363,1.8,0.525,1.974c0.141,0.151,1.563,0.129,1.771,0.162c1.344,0.212,1.319-0.285,3.059-0.296
		c5.747-0.036,12.155,0.124,17.8-0.919c0.59-3.338-0.955-7.259-1.344-10.625c-0.359-3.128-0.111-6.286,0.044-9.429
		c0.282-5.676,0.263-11.367-0.059-17.042c-0.017-0.3-0.056-0.638-0.3-0.822c-0.197-0.149-0.472-0.149-0.722-0.137
		c-1.323,0.063-3.143,0.183-4.468,0.222c-6.512,0.191-10.646,0.284-16.379,0.095"/>
	<path fill="#2C3A96" d="M50.516,19.514c-0.361-4.197-2.57-8.366-6.265-10.388c-2.166-1.184-4.666-1.575-7.116-1.879
		c-1.287-0.159-2.58-0.3-3.876-0.292c-2.568,0.017-5.098,0.621-7.551,1.38c-0.826,0.255-1.652,0.531-2.399,0.965
		c-2.925,1.699-4.029,5.585-3.322,8.893c0.708,3.308,2.867,6.116,5.222,8.545c1.095,1.128,2.256,2.212,3.607,3.014
		c1.811,1.075,3.889,1.602,5.952,2.032c1.946,0.406,3.933,0.738,5.918,0.609s3.989-0.754,5.483-2.068
		c1.719-1.512,2.588-3.748,3.316-5.918c0.713-2.12,1.354-4.398,0.797-6.564"/>
</g>
</svg>
