<?xml version="1.0" encoding="utf-8"?>
<!-- Generator: Adobe Illustrator 16.0.2, SVG Export Plug-In . SVG Version: 6.00 Build 0)  -->
<!DOCTYPE svg PUBLIC "-//W3C//DTD SVG 1.1//EN" "http://www.w3.org/Graphics/SVG/1.1/DTD/svg11.dtd">
<svg version="1.1" id="Layer_1" xmlns="http://www.w3.org/2000/svg" xmlns:xlink="http://www.w3.org/1999/xlink" x="0px" y="0px"
	 width="77.635px" height="58.401px" viewBox="0 0 77.635 58.401" enable-background="new 0 0 77.635 58.401" xml:space="preserve">
<g>
	<path fill="#44612D" d="M4.637,48.711c1.297-0.031,2.416-0.927,3.247-1.924c0.83-0.997,1.492-2.145,2.466-3.005
		c0.731-0.647,1.608-1.103,2.477-1.552c2.313-1.196,4.625-2.394,6.938-3.59c1.37-0.709,2.784-1.431,4.32-1.572
		c0.637-0.06,1.282-0.017,1.909-0.139c0.931-0.18,1.751-0.705,2.565-1.191c2.32-1.383,4.777-2.519,7.23-3.651
		c1.49-0.688,2.98-1.377,4.473-2.065c2.613-1.207,5.401-2.444,8.26-2.09c1.185,0.147,2.353,0.568,3.541,0.445
		c2.781-0.289,4.371-3.271,6.736-4.764c0.87-0.549,1.863-0.901,2.669-1.538c1.308-1.034,1.955-2.671,2.548-4.228
		c0.375-0.986,0.754-2.041,0.529-3.072c-0.225-1.029-1.861-5.942-2.967-7.834c-1.105-1.89-2.523-3.729-4.424-4.819
		c-8.163-4.69-12.995-0.2-13.829,0.194c-2.931,1.386-5.86,2.771-8.79,4.158c-2.77,1.31-5.682,2.739-7.35,5.309
		c-0.92,1.416-1.388,3.074-2.17,4.57c-0.783,1.496-2.395,1.91-4.063,2.166c-0.886,0.135-3.646,1.449-3.81,4.379
		c-0.102,1.83-4.431,1.49-5.115,4.481c-0.59,2.577-1.43,3.784-2.961,5.526c-3.23,3.674-5.199,8.26-7.117,12.761
		c1.189,0.729,2.13,1.854,2.637,3.153"/>
	<path fill="#44A84F" d="M6.322,44.621c1.771-4.063,3.455-6.218,5.979-8.67c1.132-1.1,2.435-2.006,3.731-2.906
		c2.419-1.681,4.838-3.361,7.324-4.938c2.633-1.668,5.34-3.217,8.11-4.643c2.915-1.5,5.902-2.861,8.761-4.465
		c4.412-2.478,8.642-4.489,12.275-8.012c1.33-1.289,2.561-3.992,2.21-5.811c-0.571,2.031-2.14,3.642-3.873,4.845
		s-3.67,2.085-5.44,3.231c-2.285,1.478-4.272,3.382-6.562,4.854c-1.96,1.26-4.112,2.184-6.198,3.223
		c-2.412,1.2-4.742,2.558-7.07,3.914c-3.154,1.836-6.317,3.68-9.237,5.871c-2.972,2.229-5.677,4.811-8.042,7.674
		C6.863,40.518,5.589,42.502,6.322,44.621"/>
	<path fill="#9BC53D" d="M5.412,50.195c1.533,0.423,2.785-0.203,4.375-0.19c1.074,0.009,2.22-0.147,3.203,0.285
		c2.164,0.952,4.813,0.71,6.77-0.62c0.337-0.23,0.665-0.494,1.061-0.591c0.697-0.173,1.395,0.208,2.073,0.44
		c1.425,0.49,3.062,0.32,4.356-0.45c0.429-0.255,0.838-0.577,1.33-0.654c0.449-0.069,0.897,0.078,1.334,0.202
		c3.346,0.958,7.033,0.663,10.184-0.813c0.669-0.314,1.33-0.685,2.061-0.793c1.627-0.24,3.116,0.838,4.469,1.773
		s3.064,1.809,4.572,1.15c0.254-0.112,0.498-0.271,0.651-0.504c0.456-0.687-0.044-1.615,0.099-2.427
		c0.264-1.489,2.045-0.269,3.375,0.449c1.332,0.717,2.764,0.536,4.236,0.883c1.871,0.442,3.762-0.772,4.975-2.265
		s2.013-3.294,3.289-4.732c0.851-0.958,3.088-0.98,3.849-2.012c0.761-1.033,2.792-2.134,1.051-4.626
		c-0.884-1.265-2.642-3.724-5.199-3.349c-2.934,0.431-3.506-1.369-2.538-2.313c0.405-0.397,2.906-1.256,3.523-1.799
		c0.945-0.831,3.014-2.815,3.064-5.313c0.024-1.146-0.91-4.197-1.418-5.226c-0.832-1.69-2.541-3.468-4.304-2.804
		c-0.86,0.324-1.416,1.154-1.853,1.964c-0.883,1.634-1.53,3.401-2.604,4.917c-1.519,2.145-3.776,3.63-5.979,5.064
		c-0.682,0.442-1.377,0.893-2.162,1.106c-1.125,0.307-2.314,0.101-3.473-0.029c-3.054-0.341-6.232-0.114-9.039,1.14
		c-1.492,0.668-2.845,1.608-4.254,2.438c-3.736,2.196-7.877,3.613-12.048,4.786c-1.793,0.503-3.616,0.973-5.255,1.86
		c-3.063,1.66-4.725,3.734-7.795,5.384c-1.172,0.63-2.998,1.995-3.932,2.942c-1.026,1.041-1.891,2.78-3.325,2.504
		C4.543,48.842,5.002,49.328,5.412,50.195"/>
	<path fill="#44A84F" d="M9.662,47.555c5.209-2.252,7.313-4.088,12.672-5.955c4.965-1.728,12.258-2.361,17.144-4.301
		c5.737-2.277,5.94-1.384,11.335-4.384c1.965-1.094,9.551-3.937,11.289-5.364c2.844-2.334,4.65-7.357,5.126-9.879
		c-2.554,3.038-4.185,7.68-7.427,9.967c-2.637,1.861-6.773,1.506-9.59,3.08c-2.871,1.607-3.686,2.942-6.771,4.086
		c-2.301,0.854-6.766,1.715-9.148,2.297c-2.771,0.676-5.544,1.352-8.314,2.029c-1.713,0.416-3.432,0.836-5.074,1.473
		c-1.279,0.496-2.504,1.121-3.727,1.744c-1.777,0.906-2.297,1.17-4.074,2.076c-2.092,1.066-2.523,1.36-4.069,3.125
		c0.292,0.312,4.729-1.961,7.707-3.531"/>
	<path fill="#44612D" d="M3.301,54.877c6.58,3.74,14.754,4.557,21.944,2.193c1.394-0.457,2.843-1.037,4.283-0.753
		c0.813,0.162,1.55,0.591,2.344,0.831c3.476,1.057,7.122-1.596,10.722-1.102c1.457,0.199,2.803,0.906,4.254,1.147
		c4.973,0.825,9.23-3.848,14.236-4.442c2.096-0.25,4.021,0.602,6.131,0.541c3.199-0.092,5.379-1.036,7.209-2.639
		c1.768-1.547,2.963-4.128,3.184-6.08c0.206-1.832-0.794-3.531-1.907-5c-0.776-1.024-1.642-2.111-2.882-2.447
		c-1.675-0.455-3.411,0.66-4.443,2.056c-1.031,1.396-1.606,3.078-2.576,4.517c-1.103,1.641-2.756,2.949-4.672,3.433
		c-1.916,0.481-4.086,0.067-5.555-1.255c-0.475-0.428-0.9-0.959-1.507-1.166c-0.601-0.204-1.261-0.049-1.868,0.136
		c-1.879,0.567-3.686,1.392-5.605,1.793c-1.922,0.401-4.056,0.332-5.68-0.772c-0.39-0.265-5.197-1.223-12.859,1.207
		c-3.135,0.995-6.338,1.797-9.588,2.313c-3.047,0.482-5.02,0.846-7.939-0.153c-1.063-0.364-2.219-0.096-3.031,0.681
		c-0.328,0.313-1.957-0.217-2.104,0.213c-0.613,1.785-1.11,3.231-1.723,5.017"/>
	<path fill="#44A84F" d="M1.811,54.991c0.365,0.519,1.531,0.56,2.106,0.294s0.987-0.789,1.342-1.314
		c0.869-1.283,1.569-2.834,1.229-4.346c-0.24-1.074-0.969-1.961-1.676-2.805c-0.603-0.721-1.24-1.467-2.109-1.825
		c-0.868-0.358-2.034-0.183-2.497,0.634c-0.322,0.568-0.228,1.286,0.017,1.891c0.244,0.605,0.625,1.147,0.881,1.748
		c0.326,0.765,0.441,1.619,0.329,2.443c-0.069,0.508-0.222,1.002-0.276,1.51c-0.053,0.511,0.002,1.059,0.311,1.469
		c0.307,0.41,0.917,0.617,1.355,0.353"/>
</g>
</svg>
