<?xml version="1.0" encoding="utf-8"?>
<!-- Generator: Adobe Illustrator 16.0.2, SVG Export Plug-In . SVG Version: 6.00 Build 0)  -->
<!DOCTYPE svg PUBLIC "-//W3C//DTD SVG 1.1//EN" "http://www.w3.org/Graphics/SVG/1.1/DTD/svg11.dtd">
<svg version="1.1" id="Layer_1" xmlns="http://www.w3.org/2000/svg" xmlns:xlink="http://www.w3.org/1999/xlink" x="0px" y="0px"
	 width="56.404px" height="53.276px" viewBox="0 0 56.404 53.276" enable-background="new 0 0 56.404 53.276" xml:space="preserve">
<g>
	<path fill="#9BC53D" d="M56.033,20.912c-0.888,0.078-1.077-1.74-1.445-2.553c-0.491-1.08-1.923-1.365-3.094-1.168
		c-1.171,0.198-2.292,0.727-3.479,0.711c-1.187-0.017-2.512-0.899-2.376-2.078c-3.233-0.006-6.469,0.386-9.599,1.199
		c-1.789,0.465-3.72,1.215-4.539,2.873c-1.113,2.254,0.369,4.969-0.062,7.446c-0.228,1.31-0.984,2.472-1.879,3.454
		c-0.306,0.335-0.643,0.677-0.748,1.119c-0.067,0.279-0.032,0.572,0.003,0.859c0.186,1.521,0.372,3.045,0.558,4.566
		c0.157,1.287,0.042,3.004-1.213,3.328c0.724,0.094,1.024,0.984,1.037,1.714c0.012,0.729-0.07,1.558,0.426,2.092
		c0.24,0.259,0.578,0.4,0.854,0.619c1.087,0.863,0.635,2.944-0.712,3.278c1.109,0.471,2.21,0.96,3.302,1.467
		c-0.33,0.689-1.216,0.927-1.974,0.833c-0.757-0.093-1.464-0.431-2.214-0.571c-1.541-0.287-3.217,0.34-4.189,1.57
		c-0.314,0.396-0.564,0.857-0.962,1.169c-1.005,0.789-2.46,0.353-3.649-0.115c-2.127-0.837-4.43-1.827-5.475-3.86
		c-0.431-0.84-0.63-1.834-1.308-2.491c-0.415-0.402-0.966-0.63-1.507-0.837c-1.583-0.604-3.313-1.174-4.317-2.539
		c-0.758-1.029-0.976-2.354-1.562-3.49c-0.667-1.291-1.788-2.298-2.504-3.563c-1.144-2.021-1.146-4.484-0.881-6.791
		c0.491-4.275,1.781-8.414,3.065-12.521c1.054-3.372,2.156-6.836,4.39-9.573c0.404-0.494,0.852-0.97,1.408-1.285
		c0.704-0.398,1.528-0.512,2.306-0.738c3.069-0.893,5.377-3.524,8.412-4.528c2.372-0.785,4.949-0.501,7.431-0.207
		c2.77,0.327,5.57,0.661,8.191,1.617c1.857,0.678,3.587,1.655,5.308,2.627c1.913,1.081,3.826,2.163,5.739,3.244
		c0.953,0.538,2.035,1.294,1.998,2.388c0.879-0.061,1.768,0.473,2.13,1.275c0.362,0.802,0.173,1.82-0.453,2.439
		c1.47,1.456,2.724,3.129,3.71,4.948c0.365,0.674,0.384,1.882-0.38,1.827"/>
	<path fill="#B4C24A" d="M9.432,9.275C8.9,9.018,8.375,9.624,8.091,10.143c-0.392,0.719-0.784,1.436-1.176,2.154
		c-0.169,0.311-0.345,0.629-0.617,0.855c-0.391,0.324-0.919,0.412-1.4,0.573c-1.55,0.522-2.737,1.988-2.926,3.612
		c-0.086,0.74,0.002,1.559-0.429,2.168c-0.222,0.314-0.56,0.533-0.8,0.835c-0.393,0.495-0.484,1.157-0.562,1.784
		c-0.156,1.265-0.311,2.564-0.007,3.802c0.111,0.452,0.282,0.892,0.319,1.356c0.036,0.447-0.056,0.896-0.116,1.341
		c-0.297,2.2,0.18,4.424,0.655,6.593c0.115,0.523,0.235,1.061,0.525,1.512c0.699,1.09,2.2,1.42,2.963,2.467
		c0.564,0.776,0.623,1.802,0.98,2.691c0.514,1.284,1.617,2.223,2.679,3.107c1.574,1.312,3.194,2.648,5.128,3.324
		c0.576,0.203,1.316,0.299,1.705-0.17c0.4-0.481,0.134-1.228-0.276-1.701c-0.906-1.045-2.318-1.453-3.568-2.043
		c-2.055-0.972-3.812-2.56-4.986-4.506c-0.711-1.178-1.207-2.472-1.636-3.777c-0.877-2.674-1.491-5.52-1.034-8.295
		c0.151-0.918,0.417-1.813,0.682-2.704c0.991-3.333,1.981-6.666,2.972-10c0.618-2.076,1.241-4.167,2.255-6.081"/>
	<path fill="#B4C24A" d="M52.702,17.71c0.402,3.149,1.774,6.134,2,9.302c0.185,2.604-0.421,5.221-1.454,7.616
		c-1.032,2.397-2.481,4.591-4.034,6.688c-0.74,0.998-1.518,1.99-2.515,2.73c-0.999,0.742-2.175,1.2-3.336,1.648
		c-4.102,1.588-8.337,3.201-12.735,3.101c-0.373-0.009-0.784-0.046-1.046-0.312c-0.309-0.314-0.282-0.851-0.055-1.228
		c0.227-0.378,0.608-0.634,0.982-0.867c1.936-1.21,4.021-2.18,6.192-2.883c-0.886-0.201-1.841-0.442-2.41-1.151
		c-0.569-0.707-0.411-2.022,0.472-2.236c0.544-0.131,1.37,0.039,1.467-0.514c0.081-0.465-0.539-0.681-0.996-0.796
		c-1.482-0.372-2.691-1.661-2.968-3.165c-0.277-1.502,0.393-3.138,1.644-4.015c0.376-0.263,0.802-0.468,1.11-0.808
		c0.654-0.723,0.588-1.844,0.306-2.776c-0.176-0.583-0.423-1.177-0.336-1.779c0.171-1.19,1.555-1.911,1.753-3.098
		c0.136-0.81-0.31-1.726,0.124-2.425c0.27-0.432,0.809-0.637,1.082-1.068c0.421-0.666,0.047-1.564,0.281-2.318
		c0.187-0.599,0.744-1.022,1.341-1.216c0.597-0.192,1.237-0.188,1.864-0.185c0.666,0.005,1.331,0.01,1.997,0.015
		c0.272,0.002,0.552,0.007,0.803,0.11c0.245,0.102,0.442,0.291,0.648,0.459c0.803,0.65,1.841,1.006,2.874,0.982
		c0.925-0.02,1.821-0.328,2.744-0.381c0.923-0.052,1.971,0.245,2.391,1.068"/>
	<path fill="#CBD363" d="M30.188,47.541l5.122-3.049c0.131-0.078,1.954-0.677,2.044-0.801c0.59-0.816-2.307-1.165-3.247-1.426
		c-0.499-0.626,0.438-1.391,1.203-1.626c0.902-0.276,2.09-1.17,0.936-1.947c-0.07-0.048-0.154-0.069-0.239-0.071
		c-2.769-0.043-5.153-4.842-2.728-6.176c3.014-1.66,2.845-3.195,3.224-5.445c0.261-1.551-0.468-3.594,0.865-4.43
		c0.434-0.272,1.004-0.318,1.366-0.682c0.794-0.796-0.082-2.206,0.312-3.26c0.297-0.79,1.202-1.135,2.007-1.389
		c1.456-0.461,4.136,0.18,5.592-0.281c-6.683-7.986-11.003-1.06-14.833,1.812c-0.635,0.476-1.252,1.019-1.601,1.731
		c-0.814,1.662,0.049,3.629,0.004,5.479c-0.06,2.472-1.753,4.675-1.837,7.146c-0.049,1.438,0.455,2.842,0.527,4.281
		c0.052,1.041-0.507,2.508-1.219,3.271c-1.416,1.519,0.275,2.217,0.87,3.979c0.45,1.33,0.284,2.42,1.667,3.207
		c2.724,1.553,7.336,0.198,9.863-0.668c0.36-0.016,0.384,0.19,0.398,0.371c0.048,0.631,0.084,1.313-0.259,1.844
		c-0.403,0.625-1.2,0.845-1.93,0.986c-2.803,0.542-5.671,0.635-8.525,0.727c-0.386,0.012-0.781,0.022-1.148-0.098
		c-0.366-0.119-0.706-0.4-0.786-0.777"/>
</g>
</svg>
