<?xml version="1.0" encoding="utf-8"?>
<!-- Generator: Adobe Illustrator 16.0.2, SVG Export Plug-In . SVG Version: 6.00 Build 0)  -->
<!DOCTYPE svg PUBLIC "-//W3C//DTD SVG 1.1//EN" "http://www.w3.org/Graphics/SVG/1.1/DTD/svg11.dtd">
<svg version="1.1" id="Layer_1" xmlns="http://www.w3.org/2000/svg" xmlns:xlink="http://www.w3.org/1999/xlink" x="0px" y="0px"
	 width="67.741px" height="43.962px" viewBox="0 0 67.741 43.962" enable-background="new 0 0 67.741 43.962" xml:space="preserve">
<g>
	<path fill="#6E1F3F" d="M54.833,7.15c-1.81-0.533-3.057,0.057-4.936,0.076c-2.168,0.021-4.99,1.379-6.586,2.371
		c-3.632,2.26-8.012,4.707-13.335,5.154c-1.322,0.111-4.523-0.203-5.786-0.619c-6.933-2.287-14.024-1.465-19.371,3.477
		c-1.727,1.598-6.051,7.229-4.483,12.943c1.265,4.609,5.133,8.123,9.021,10.869c1.103,0.779,4.319,1.789,5.604,2.186
		c2.006,0.621,6.431,0.275,8.516,0.104c10.366-0.863,18.59-4.391,26.782-10.805c1.705-1.336,3.571-2.947,5.155-4.426
		c1.197-1.121,2.33-2.467,3.529-3.586c1.569-1.467,2.945-3.918,3.369-6.037c0.283-1.416-0.027-2.891-0.487-4.264
		c-0.721-2.152-1.813-4.18-3.215-5.963c-0.515-0.654-1.094-1.295-1.846-1.646c-0.751-0.352-1.714-0.352-2.331,0.197"/>
	<path fill="#9BC53D" d="M53.816,5.843c-2.772,0.252-5.409,1.262-5.379,1.934c0.09,1.912,4.098,0.012,4.244,2.17
		c0.031,0.459-0.617,0.66-0.756,1.094c-0.135,0.424,0.27,0.852,0.697,0.961c0.427,0.109,0.876,0.02,1.314,0.051
		c0.439,0.029,0.932,0.248,1.035,0.68c0.171,0.715-0.783,1.43-0.416,2.066c0.605,1.047,1.838,1.264,2.117,1.299
		c1.459,0.18,2.54-0.348,3.785,0.445c1.195,0.764,0.708,1.5,0.794,2.922c0.024,0.395,0.154,1.982,0.552,0.912
		c0.053-0.143-0.451,1.031-0.332,0.938c2.137-1.699,3.464-6.035,2.551-8.637c-0.346-0.984-0.887-2.012-0.605-3.014
		c0.15-0.533,0.516-0.971,0.854-1.404c1.399-1.787,2.507-3.807,3.265-5.953c0.112-0.322,0.22-0.654,0.202-0.996
		c-0.046-0.887-1.102-1.563-1.912-1.219c-0.438,0.184-0.746,0.58-1.037,0.959c-1.577,2.043-2.724,3.436-4.498,5.307
		c-0.09,0.096-0.732,0.768-0.862,0.76c-0.104-0.006-0.189-0.078-0.27-0.145C57.982,5.978,55.311,5.529,53.816,5.843"/>
</g>
</svg>
