<?xml version="1.0" encoding="utf-8"?>
<!-- Generator: Adobe Illustrator 16.0.2, SVG Export Plug-In . SVG Version: 6.00 Build 0)  -->
<!DOCTYPE svg PUBLIC "-//W3C//DTD SVG 1.1//EN" "http://www.w3.org/Graphics/SVG/1.1/DTD/svg11.dtd">
<svg version="1.1" id="Layer_1" xmlns="http://www.w3.org/2000/svg" xmlns:xlink="http://www.w3.org/1999/xlink" x="0px" y="0px"
	 width="100.284px" height="91.113px" viewBox="0 0 100.284 91.113" enable-background="new 0 0 100.284 91.113"
	 xml:space="preserve">
<g>
	<path fill="#35469D" d="M7.018,6.223C4.574,4.746,3.595,2.646,2.519,0c10.643,1.161,21.393,0.227,32.098,0.444
		C44.382,0.643,54.102,1.8,63.853,2.373c5.966,0.351,11.941,0.483,17.916,0.616c6.13,0.135,12.259,0.271,18.388,0.406
		c0.299,0.375,0.033,0.971-0.388,1.196c-0.423,0.228-1.044,1.246-1.523,1.255c-2.099,0.039-3.986-0.218-6.037,0.235
		c-2.795,0.617-5.685,0.616-8.548,0.612C58.305,6.66,32.373,6.258,7.018,6.223"/>
	<path fill="#2896BC" d="M7.827,7.667C7.013,12.6,7.065,17.629,7.118,22.628c0.04,3.79,0.08,7.58,0.12,11.37
		c0.032,3.017,0.065,6.052,0.618,9.018c0.553,2.964,1.623,5.863,1.633,8.878c0.007,2.104-0.505,4.17-0.747,6.259
		c-0.363,3.133-0.12,6.307-0.348,9.451c-0.318,4.386-1.565,8.702-3.635,12.582c10.013-3.057,20.513,2.188,30.951,2.98
		c3.546,0.269,7.107,0.018,10.662-0.102c5.226-0.177,10.457-0.07,15.685,0.038c10.359,0.212,20.72,0.424,31.079,0.636
		c-1.848-17.75-3.674-35.899,0.427-53.268c0.655-2.778,1.468-5.596,1.182-8.437c-0.142-1.414-0.556-2.803-0.548-4.225
		c0.022-4.642,4.404-8.279,4.884-12.896c-1.348,0.839-3.029,0.871-4.616,0.88C65.316,5.937,36.167,6.08,7.018,6.223"/>
	<path fill="#D06728" d="M22.404,61.806c-1.957-0.588-3.788,0.368-5.536,1.427c-1.063,0.644-2.008,1.665-2.119,2.905
		c-0.104,1.134,0.496,2.201,1.076,3.182c1.145,1.938,2.33,3.923,4.108,5.301c1.211,0.939,2.638,1.549,4.002,2.247
		c2.167,1.108,4.406,2.504,6.826,2.247c2.444-0.26,4.508-2.345,4.982-4.757c0.477-2.412-0.525-4.996-2.336-6.66
		c-0.65-0.6-1.395-1.089-2.146-1.556c-2.873-1.781-5.929-3.269-9.105-4.428"/>
	<path fill="#35469D" d="M4.572,79.86c-1.705,0.884-3.189,2.187-4.288,3.763c-0.206,0.295-0.399,0.694-0.199,0.993
		c0.157,0.234,0.479,0.277,0.762,0.295c4.536,0.277,9.102-0.366,13.625,0.074c4.985,0.485,9.773,2.274,14.758,2.778
		c3.028,0.307,6.08,0.132,9.123,0.058c8.802-0.219,17.601,0.389,26.385,0.996c11.077,0.766,22.155,1.53,33.232,2.296
		c-1.634-2.306-2.268-3.846-3.902-6.151c-0.278-0.392-0.494-1.023-0.931-1.223c-0.645-0.296-2.474-0.604-3.163-0.438
		c-2.372,0.571-4.855,0.247-7.279-0.031c-15.784-1.81-31.722-1.565-47.609-1.452c-2.27,0.017-4.547,0.029-6.798-0.254
		c-1.995-0.25-3.954-0.73-5.936-1.072c-5.025-0.866-7.793-1.38-12.892-1.348c-1.247,0.009-3.516,0.265-4.7,0.656"/>
	<path fill="#D06728" d="M64.69,44.864c-3.125-0.373-6.158,1.791-7.569,4.604c-1.41,2.813-1.462,6.123-1.018,9.238
		c0.118,0.826,0.273,1.663,0.656,2.405c0.55,1.066,1.521,1.848,2.507,2.53c1.711,1.184,3.598,2.188,5.648,2.541
		c2.051,0.355,4.292-0.005,5.915-1.308c0.887-0.711,1.552-1.664,2.095-2.663c1.146-2.104,1.804-4.558,1.362-6.911
		c-0.495-2.642-2.279-4.83-4.029-6.87c-0.886-1.033-1.798-2.077-2.957-2.79c-1.16-0.712-2.626-1.055-3.9-0.58"/>
	<path fill="#25809A" d="M21.455,67.199c2.524-0.602,5.298-0.061,7.411,1.445c0.123,0.088,0.253,0.192,0.281,0.341
		c0.027,0.14-0.046,0.277-0.119,0.399c-0.472,0.787-1.092,1.485-1.818,2.047c-0.242,0.188-0.508,0.364-0.81,0.41
		c-0.383,0.059-0.762-0.102-1.114-0.262c-1.223-0.557-2.421-1.171-3.587-1.839c-0.517-0.297-1.101-0.741-1.028-1.334
		C20.768,67.631,20.674,67.149,21.455,67.199"/>
	<path fill="#D06728" d="M51.062,20.037c-1.962-0.552-4.097,0.036-6.133,0.097c-2.037,0.061-4.156,0.836-5.354,2.484
		c-0.655,0.899-0.994,1.997-1.138,3.101c-0.453,3.473,1.027,7.073,3.601,9.449s6.135,3.56,9.637,3.507
		c2.157-0.032,4.438-0.583,5.923-2.151c1.374-1.452,1.851-3.598,1.577-5.579c-0.272-1.979-1.223-3.811-2.388-5.436
		C55.24,23.352,53.287,21.485,51.062,20.037"/>
	<path fill="#25809A" d="M62.136,50.608c0.927-0.836,0.527-0.475,1.454-1.312c0.133-0.119,0.275-0.244,0.451-0.281
		c0.258-0.055,0.513,0.096,0.715,0.265c0.884,0.741,1.28,1.917,1.446,3.058c0.165,1.143,0.142,2.31,0.384,3.438
		c0.222,1.036,0.667,2.093,0.395,3.117c-0.265,1.001-1.177,1.717-2.146,2.078c-0.424,0.156-0.916,0.256-1.314,0.042
		c-0.267-0.146-0.446-0.408-0.606-0.667c-1.404-2.272-2.09-4.981-1.938-7.649c0.016-0.27,0.041-0.548,0.168-0.788
		c0.301-0.564,1.127-0.88,1.082-1.519"/>
	<path fill="#D06728" d="M68.675,18.723c-2.142-0.928-4.425-1.819-6.741-1.532c-2.315,0.288-4.599,2.182-4.481,4.512
		c0.057,1.121,0.639,2.147,0.856,3.248c0.224,1.132,0.087,2.402,0.761,3.338c0.579,0.806,1.604,1.134,2.563,1.385
		c3.865,1.015,8.193,1.515,11.676-0.445c0.889-0.5,1.711-1.171,2.207-2.063c0.496-0.891,0.622-2.026,0.153-2.933
		c-0.26-0.501-0.676-0.9-1.083-1.288c-0.435-0.414-0.868-0.827-1.304-1.241C71.904,20.39,70.579,18.773,68.675,18.723"/>
	<path fill="#25809A" d="M51.814,28.975c-0.296-1.491-1.17-2.792-2.025-4.049c-0.316-0.465-0.643-0.939-1.101-1.265
		c-0.945-0.674-2.229-0.568-3.362-0.323c-0.271,0.058-0.553,0.13-0.759,0.314c-0.272,0.246-0.352,0.637-0.416,0.997
		c-0.172,0.957-0.343,1.93-0.248,2.896c0.096,0.968,0.496,1.948,1.274,2.532c1.258,0.945,3.251,0.713,4.229,1.945
		c0.332,0.42,0.652,1.045,1.179,0.951c0.346-0.061,0.544-0.421,0.667-0.749c0.343-0.909,0.494-1.889,0.442-2.858"/>
	<path fill="#25809A" d="M63.223,21.523c0.868-0.558,1.758-1.125,2.762-1.367c1.003-0.243,2.159-0.108,2.907,0.604
		c0.748,0.711,0.879,2.07,0.101,2.749c-0.306,0.268-0.703,0.403-1.089,0.533l-2.959,0.994c-0.892,0.299-2.086,0.5-2.585-0.295
		c-0.294-0.47-0.172-1.107,0.148-1.559S62.754,21.817,63.223,21.523"/>
	<path fill="#D06728" d="M53.873,47.085c0.554,2.467,1.11,4.958,1.114,7.486s-0.591,5.134-2.134,7.137
		c-1.397,1.814-3.482,3.015-5.676,3.677c-2.192,0.663-4.505,0.827-6.796,0.871c-0.935,0.019-1.884,0.016-2.787-0.23
		c-0.479-0.131-0.958-0.331-1.451-0.283c-0.373,0.034-0.722,0.208-1.093,0.255c-0.84,0.105-1.608-0.436-2.28-0.949
		c-0.815-0.623-1.646-1.262-2.218-2.115c-1.104-1.653-1.051-3.799-0.857-5.777c0.321-3.315,0.438-4.954,1.975-8.463
		c0.75-1.713,1.584-3.17,3.121-4.233c0.79-0.546,2.751-1.58,3.636-1.954c2.01-0.85,4.596-1.303,6.61-0.469
		c0.792,0.326,1.658,0.633,2.501,0.787c0.754,0.139,2.105,0.698,2.786,1.051c0.331,0.172,0.601,0.438,0.866,0.701
		c0.869,0.861,1.736,1.723,2.605,2.584"/>
	<path fill="#FFCB0B" d="M29.84,61.333c-0.144,0.663-0.283,1.371-0.043,2.005c0.159,0.418,0.468,0.76,0.798,1.062
		c0.738,0.675,1.613,1.199,2.556,1.533c0.299,0.105,0.605,0.191,0.919,0.235c0.161,0.022,0.39-0.028,0.376-0.189
		c-0.004-0.056-0.04-0.103-0.075-0.145c-0.783-0.912-2.261-0.973-3.021-1.903c-0.562-0.687-0.603-1.7-1.199-2.356
		c-0.066-0.074-0.15-0.146-0.251-0.146c-0.099,0-0.194,0.117-0.139,0.2"/>
	<path fill="#FFCB0B" d="M30.471,61.146c1.027-1.404,1.512-3.141,2.477-4.59c0.549-0.823,1.244-1.54,1.936-2.25
		c0.66-0.68,1.325-1.362,2.088-1.927c0.729-0.539,1.539-0.962,2.348-1.374c3.395-1.732,6.858-3.346,10.454-4.611
		c-4.361,1.121-8.479,3.025-12.484,5.082c-0.641,0.329-1.286,0.666-1.833,1.136c-0.633,0.542-1.11,1.237-1.58,1.926
		c-1.395,2.042-2.805,4.13-3.511,6.5"/>
	<path fill="#FFCB0B" d="M32.346,63.728c0.897-0.493,1.625-1.241,2.338-1.979c2.412-2.493,4.823-4.987,7.234-7.481
		c0.708-0.732,1.42-1.468,2.218-2.101c0.743-0.59,1.553-1.086,2.35-1.598c1.462-0.938,2.885-1.936,4.269-2.986
		c-0.634,1.103-1.771,1.798-2.831,2.501c-1.192,0.791-2.34,1.65-3.435,2.57c-1.012,0.85-1.979,1.752-2.946,2.652
		c-0.647,0.605-1.297,1.21-1.941,1.819c-1.479,1.396-2.942,2.815-4.236,4.384c-0.864,1.046-1.837,2.261-3.192,2.31
		c0.063-0.025,0.129-0.052,0.193-0.076"/>
	<path fill="#FFCB0B" d="M47.668,44.834c-4.343,0.362-8.875,1.133-12.299,3.829c-0.688,0.543-1.332,1.17-1.746,1.942
		c-0.339,0.635-0.511,1.344-0.787,2.008c-0.67,1.604-1.97,3.028-1.981,4.766c0.33-1.67,0.719-3.341,1.401-4.901
		c0.682-1.56,1.677-3.015,3.044-4.028c0.989-0.735,1.851-1.977,3.004-2.413c1.34-0.508,3.309-0.927,4.683-1.328
		c1.631-0.479,3.015-0.163,4.698,0.064"/>
	<path fill="#FFCB0B" d="M35.176,64.858c3.52-0.572,6.803-2.263,9.54-4.546c0.771-0.645,1.506-1.339,2.111-2.143
		c0.424-0.563,0.781-1.176,1.188-1.751c0.814-1.147,1.829-2.141,2.646-3.285c0.818-1.146,1.446-2.514,1.321-3.914
		c0.138,1.312-0.204,2.64-0.765,3.836c-0.56,1.194-1.33,2.277-2.096,3.353c-0.73,1.027-1.472,2.064-2.425,2.889
		c-0.525,0.454-1.106,0.838-1.687,1.22c-2.851,1.877-5.793,3.793-9.136,4.482c-0.288,0.061-0.661,0.071-0.792-0.191"/>
	<path fill="#FFCB0B" d="M53.929,52.844c-0.726,1.273-1.452,2.546-2.178,3.818c-0.53,0.93-1.064,1.864-1.722,2.71
		c-2.313,2.977-5.921,4.589-9.378,6.088c4.385-0.881,8.063-3.91,10.871-7.39c1.078-1.336,2.079-2.799,2.459-4.474
		c0.054-0.231,0.084-0.502-0.07-0.682c-0.11-0.019-0.227,0.068-0.239,0.179"/>
	<path fill="#FFCB0B" d="M50.542,43.532c0.38-0.477,0.988-0.76,1.598-0.743c0.605,0.017,1.228,0.308,1.796,0.098
		c0.462-0.17,0.76-0.654,0.804-1.143c0.044-0.49-0.134-0.979-0.397-1.394c-0.158-0.248-0.354-0.491-0.39-0.783
		c-0.064-0.521,0.399-0.959,0.869-1.192c1.834-0.908,4.233-0.182,5.932-1.322c0.073-0.05,0.15-0.104,0.238-0.11
		c0.229-0.013,0.336,0.295,0.281,0.516c-0.099,0.399-0.47,0.681-0.859,0.813c-0.39,0.134-0.807,0.149-1.214,0.214
		c-0.641,0.104-1.263,0.33-1.818,0.666c-0.159,0.097-0.335,0.265-0.265,0.437c0.031,0.074,0.103,0.124,0.172,0.163
		c0.737,0.411,1.646,0.157,2.475,0.001s1.859-0.113,2.29,0.612c0.063,0.107,0.109,0.239,0.068,0.357
		c-0.053,0.149-0.222,0.218-0.374,0.263c-1.11,0.328-2.327,0.287-3.414-0.114c-0.335-0.124-0.662-0.282-1.016-0.332
		c-0.354-0.049-0.752,0.033-0.974,0.313c-0.127,0.16-0.183,0.365-0.223,0.566c-0.242,1.224-0.14,2.701-1.128,3.464
		c-0.247,0.191-0.549,0.318-0.753,0.555c-0.269,0.313-0.317,0.753-0.359,1.164c-0.021,0.209-0.08,0.465-0.284,0.52
		c-0.09,0.022-0.186-0.002-0.274-0.029c-0.807-0.248-1.564-0.653-2.219-1.188c-0.389-0.317-0.75-0.694-0.934-1.162
		C49.984,44.271,50.22,43.919,50.542,43.532"/>
</g>
</svg>
