<?xml version="1.0" encoding="utf-8"?>
<!-- Generator: Adobe Illustrator 16.0.2, SVG Export Plug-In . SVG Version: 6.00 Build 0)  -->
<!DOCTYPE svg PUBLIC "-//W3C//DTD SVG 1.1//EN" "http://www.w3.org/Graphics/SVG/1.1/DTD/svg11.dtd">
<svg version="1.1" id="Layer_1" xmlns="http://www.w3.org/2000/svg" xmlns:xlink="http://www.w3.org/1999/xlink" x="0px" y="0px"
	 width="44.938px" height="44.429px" viewBox="0 0 44.938 44.429" enable-background="new 0 0 44.938 44.429" xml:space="preserve">
<g>
	<path fill="#F4D49D" d="M5.188,0.044c-0.962,3.683-2.43,8.027-3.392,11.711c11.938-0.184,23.876-1.494,35.814-1.678
		c1.484-0.023,3.008-0.054,4.385-0.609s2.471-0.28,2.596-1.76c0.136-1.617,0.984-5.386-0.609-5.703
		C41.86,1.583,39.042,1.626,37.42,1.55C26.676,1.048,15.933,0.546,5.188,0.044"/>
	<path fill="#FFEDD5" d="M44.414,7.795c-4.527,0.376-8.627,0.744-13.153,1.121c-9.238,0.768-18.476,1.543-27.714,2.304
		c-1.254,0.104-1.679-0.096-1.939,1.115c-0.225,1.048-0.145,2.265-0.213,3.337c-0.148,2.312-0.296,4.624-0.444,6.937
		c-0.296,4.624-0.592,9.249-0.887,13.873c-0.15,2.338-0.173,5.015,1.546,6.608c1.618,1.499,4.103,1.397,6.301,1.203
		c10.339-0.912,20.677-1.825,31.016-2.738c1.063-0.094,2.174-0.204,3.065-0.792c1.749-1.153,1.96-3.591,1.993-5.686
		C44.127,25.983,44.271,16.889,44.414,7.795"/>
	<path fill="#079247" d="M35.548,7.786c-0.762,11.942-1.751,22.674-2.512,34.616c-6.868,0.938-11.946,1.024-22.054,2
		c-1.427,0.138-2.731-0.309-2.731-0.309c-0.562-2.992-0.384-4.636-0.219-6.739C8.726,28.532,8.728,19.54,9.42,10.718
		c7.567-0.615,16.805-2.034,24.8-2.364"/>
	<path fill="#046937" d="M9.415,10.72c0.324-1.646,0.69-2.894,0.788-4.818c0.098-1.923-1.444-5.99,0.166-5.9
		c1.262,0.071,5.074,0.384,6.25,0.48c4.557,0.372,8.194,0.074,12.75,0.446c1.682,0.137,4.048-0.208,4.607,1.706
		c0.578,1.984,2.599,5.721,0.918,5.883c-4.036,0.388-1.979,0.109-4,0.33c-7.403,0.812-14.651,1.896-21.509,2.223"/>
	<path fill="#B72027" d="M8.749,16.995c8.632,0.389,17.632,0.263,26.255-0.378c0.11,1.091-0.09,1.82-0.234,2.904
		c-0.145,1.084-0.144,1.819-0.257,3.191c-0.034,0.417-2.211,0.213-2.781,0.238c-7.612,0.341-15.224,0.681-22.836,1.022
		c-0.029-2.097-0.059-4.194-0.088-6.291"/>
</g>
</svg>
