<?xml version="1.0" encoding="utf-8"?>
<!-- Generator: Adobe Illustrator 16.0.2, SVG Export Plug-In . SVG Version: 6.00 Build 0)  -->
<!DOCTYPE svg PUBLIC "-//W3C//DTD SVG 1.1//EN" "http://www.w3.org/Graphics/SVG/1.1/DTD/svg11.dtd">
<svg version="1.1" id="Layer_1" xmlns="http://www.w3.org/2000/svg" xmlns:xlink="http://www.w3.org/1999/xlink" x="0px" y="0px"
	 width="54.336px" height="31.652px" viewBox="0 0 54.336 31.652" enable-background="new 0 0 54.336 31.652" xml:space="preserve">
<g>
	<path fill="#6E6D74" d="M0.405,4.523C1.94,2.866,4.304,2.312,6.532,1.938c6.146-1.031,12.392-1.307,18.617-1.581
		c3.7-0.163,7.4-0.326,11.104-0.353c4.652-0.035,9.353,0.151,13.853,1.336c1.099,0.289,2.214,0.653,3.071,1.398
		s1.398,1.956,1.055,3.038c-0.495,1.566-2.41,2.087-4.033,2.338c-12.831,1.981-25.921,2.285-38.829,0.9
		C8.2,8.675,5.022,8.229,1.983,7.27C1.292,7.051,0.556,6.765,0.176,6.146S0.049,4.508,0.768,4.411"/>
	<path fill="#C0BEBE" d="M2.839,4.841c2.949-1.767,6.556-1.919,9.991-2.025c4.998-0.155,9.998-0.309,14.997-0.211
		c8.058,0.157,16.114-1.783,24.107,1.78c0.246,0.379,0.089,0.916-0.237,1.229c-0.327,0.314-0.778,0.456-1.214,0.578
		c-4.735,1.315-9.723,1.302-14.637,1.28C30.34,7.447,24.832,7.423,19.324,7.398C17.269,7.39,15.2,7.378,13.178,7.011
		C9.729,6.382,4.387,6.3,2.941,4.727"/>
	<path fill="#FFF6DA" d="M54.221,5.944c-0.331,6.417-0.804,12.827-1.42,19.223c-3.246-0.207-6.124,2.011-9.304,2.694
		c-2.141,0.461-4.361,0.214-6.547,0.324c-1.861,0.094-3.698,0.445-5.545,0.689c-5.81,0.768-11.715,0.456-17.525-0.295
		c-3.762-0.486-7.587-1.187-10.882-3.067c-0.474-0.271-0.948-0.577-1.261-1.024c-0.722-1.028-0.395-2.421-0.126-3.647
		c1.008-4.616,0.737-9.506-0.774-13.982c13.128,2.486,26.586,2.449,39.947,2.404c2.067-0.008,4.141-0.016,6.199-0.216
		c2.603-0.254,5.339-0.903,7.154-2.785"/>
	<path fill="#6E6D74" d="M52.941,25.221c-0.97,1.803-2.683,3.122-4.555,3.95c-1.873,0.828-3.91,1.206-5.937,1.495
		c-7.172,1.021-14.446,1.002-21.69,0.98c-2.272-0.006-4.56-0.014-6.793-0.427c-2.14-0.394-4.193-1.153-6.313-1.634
		c-1.466-0.332-3.005-0.547-4.276-1.348c-1.272-0.802-2.196-2.415-1.65-3.815c3.485,2.152,7.612,2.991,11.672,3.537
		c13.203,1.778,26.064,0.015,39.595-2.759"/>
	<path fill="#046937" d="M1.859,19.104c2.756-1.007,5.696-1.509,8.63-1.472c0.453,0.005,0.941,0.035,1.299,0.314
		c0.242,0.188,0.393,0.468,0.577,0.714c0.899,1.2,2.585,1.558,4.069,1.342c1.483-0.216,2.851-0.898,4.256-1.422
		c2.443-0.91,5.062-1.349,7.669-1.288c0.763,0.018,1.681,0.186,1.959,0.898c0.237,0.61-0.136,1.347,0.145,1.939
		c0.278,0.587,1.034,0.729,1.682,0.797c1.806,0.19,3.668,0.375,5.408-0.144c1.55-0.462,2.89-1.452,4.408-2.007
		c1.321-0.483,2.767-0.625,4.156-0.407c0.405,0.063,0.822,0.165,1.134,0.43c0.369,0.314,0.534,0.805,0.852,1.172
		c0.518,0.599,1.379,0.786,2.169,0.732c0.614-0.042,1.253-0.205,1.831,0.007c0.834,0.306,1.228,1.317,1.117,2.198
		c-0.109,0.88,0.202,1.566-0.278,2.313c-5.888,1.381-12.599,2.854-18.609,3.524c-10.687,1.189-21.624,0.087-31.858-3.212
		c-0.481-0.155-0.997-0.343-1.272-0.767c-0.257-0.396-0.241-0.903-0.206-1.375C1.117,21.743,1.501,20.719,1.859,19.104"/>
</g>
</svg>
