<?xml version="1.0" encoding="utf-8"?>
<!-- Generator: Adobe Illustrator 16.0.2, SVG Export Plug-In . SVG Version: 6.00 Build 0)  -->
<!DOCTYPE svg PUBLIC "-//W3C//DTD SVG 1.1//EN" "http://www.w3.org/Graphics/SVG/1.1/DTD/svg11.dtd">
<svg version="1.1" id="Layer_1" xmlns="http://www.w3.org/2000/svg" xmlns:xlink="http://www.w3.org/1999/xlink" x="0px" y="0px"
	 width="54.337px" height="31.653px" viewBox="0 0 54.337 31.653" enable-background="new 0 0 54.337 31.653" xml:space="preserve">
<g>
	<path fill="#6E6D74" d="M0.406,4.524c1.535-1.657,3.898-2.213,6.125-2.587c6.146-1.03,12.393-1.307,18.619-1.581
		c3.699-0.162,7.4-0.325,11.103-0.353c4.653-0.035,9.353,0.152,13.853,1.336c1.099,0.289,2.215,0.654,3.072,1.399
		c0.856,0.745,1.397,1.956,1.055,3.038c-0.495,1.565-2.41,2.087-4.033,2.338c-12.832,1.98-25.921,2.285-38.83,0.899
		C8.2,8.675,5.023,8.229,1.984,7.27C1.292,7.051,0.557,6.765,0.176,6.146c-0.38-0.617-0.127-1.639,0.592-1.734"/>
	<path fill="#C0BEBE" d="M2.84,4.841c2.949-1.766,6.555-1.919,9.99-2.025c4.998-0.154,9.998-0.309,14.998-0.211
		c8.058,0.157,16.113-1.783,24.106,1.78c0.247,0.379,0.089,0.916-0.237,1.229c-0.326,0.314-0.777,0.456-1.214,0.578
		c-4.733,1.315-9.722,1.303-14.636,1.28c-5.507-0.024-11.016-0.049-16.523-0.073c-2.056-0.009-4.123-0.02-6.146-0.388
		C9.729,6.382,4.388,6.3,2.941,4.727"/>
	<path fill="#FFF6DA" d="M54.222,5.944c-0.331,6.417-0.804,12.827-1.421,19.224c-3.245-0.207-6.123,2.01-9.303,2.693
		c-2.141,0.461-4.361,0.214-6.548,0.324c-1.86,0.094-3.698,0.446-5.545,0.69c-5.808,0.767-11.714,0.456-17.524-0.295
		c-3.763-0.487-7.588-1.188-10.883-3.068c-0.474-0.271-0.947-0.577-1.261-1.024c-0.721-1.027-0.394-2.421-0.126-3.646
		c1.008-4.617,0.738-9.506-0.773-13.983c13.127,2.486,26.586,2.449,39.946,2.404c2.068-0.007,4.142-0.015,6.199-0.215
		c2.603-0.254,5.34-0.904,7.155-2.786"/>
	<path fill="#6E6D74" d="M52.942,25.222c-0.97,1.803-2.683,3.121-4.556,3.949s-3.91,1.206-5.936,1.495
		c-7.172,1.021-14.447,1.002-21.691,0.981c-2.271-0.006-4.559-0.015-6.793-0.427c-2.139-0.395-4.193-1.153-6.313-1.635
		c-1.467-0.332-3.006-0.547-4.277-1.348s-2.195-2.415-1.65-3.815c3.485,2.152,7.612,2.991,11.672,3.537
		c13.203,1.778,26.064,0.016,39.596-2.759"/>
	<path fill="#D2A12A" d="M1.859,19.104c2.756-1.007,5.696-1.509,8.631-1.472c0.452,0.005,0.94,0.034,1.299,0.313
		c0.242,0.189,0.393,0.468,0.576,0.714c0.899,1.2,2.586,1.559,4.069,1.342c1.483-0.216,2.851-0.897,4.256-1.422
		c2.444-0.91,5.062-1.349,7.669-1.288c0.764,0.019,1.682,0.187,1.959,0.898c0.238,0.611-0.136,1.347,0.145,1.939
		c0.279,0.588,1.035,0.729,1.682,0.798c1.807,0.189,3.668,0.375,5.409-0.145c1.549-0.462,2.889-1.452,4.407-2.007
		c1.322-0.483,2.767-0.625,4.156-0.407c0.405,0.064,0.822,0.165,1.135,0.431c0.369,0.313,0.533,0.805,0.851,1.172
		c0.517,0.598,1.379,0.786,2.169,0.731c0.615-0.042,1.253-0.205,1.831,0.007c0.834,0.307,1.228,1.317,1.118,2.198
		c-0.11,0.88,0.202,1.567-0.279,2.313c-5.887,1.381-12.598,2.854-18.609,3.523c-10.687,1.19-21.623,0.087-31.858-3.212
		c-0.481-0.155-0.997-0.343-1.272-0.766c-0.257-0.396-0.24-0.904-0.205-1.375C1.117,21.743,1.502,20.72,1.859,19.104"/>
</g>
</svg>
