<?xml version="1.0" encoding="utf-8"?>
<!-- Generator: Adobe Illustrator 16.0.2, SVG Export Plug-In . SVG Version: 6.00 Build 0)  -->
<!DOCTYPE svg PUBLIC "-//W3C//DTD SVG 1.1//EN" "http://www.w3.org/Graphics/SVG/1.1/DTD/svg11.dtd">
<svg version="1.1" id="Layer_1" xmlns="http://www.w3.org/2000/svg" xmlns:xlink="http://www.w3.org/1999/xlink" x="0px" y="0px"
	 width="49.605px" height="82.989px" viewBox="0 0 49.605 82.989" enable-background="new 0 0 49.605 82.989" xml:space="preserve">
<g>
	<path fill="#FFFFFF" d="M42.558,10.804c1.507,3.332,3.015,6.664,4.521,9.996c0.46,1.017,0.922,2.04,1.214,3.117
		c0.479,1.768,0.483,3.625,0.484,5.456c0.007,9.773,0.014,19.545,0.021,29.318c0.003,2.949,0.005,5.908-0.366,8.834
		c-0.498,3.937-1.662,7.756-2.82,11.552c-0.169,0.552-0.345,1.119-0.708,1.569c-0.448,0.556-1.129,0.866-1.801,1.111
		c-3.403,1.238-7.112,1.242-10.733,1.23c-8.404-0.025-16.886-0.059-25.087-1.893c-0.58-0.129-1.187-0.284-1.616-0.695
		C5.354,80.099,5.17,79.692,5,79.294c-2.376-5.569-3.427-11.698-3.043-17.741c0.146-2.287-0.552-4.556-0.311-6.835
		c0.711-6.705,0.124-13.155,0.149-20.283c0.016-4.155-0.764-8.501,0.958-12.283c0.706-1.551,0.748-2.899,1.53-4.412
		c0.82-1.587,1.82-3.349,1.911-5.132c0.02-0.382,0.571-0.821,0.877-1.051c0.223-0.168,0.526-0.168,0.805-0.157
		c4.099,0.161,8.111,1.65,12.209,1.481c9.54-0.393,15.315-0.294,22.418-3.021"/>
	<path fill="#5F3B2E" d="M49.075,29.753c-5.098,2.942-11.196,3.452-17.071,3.816c-10.095,0.626-21.285,0.138-30.582-3.845
		c-2.298,13.462-1.595,26.299,0.571,41.87c5.596-0.207,11.929-0.234,17.503,0.283C27.93,72.659,36.58,74.25,44.745,72
		c0.927-0.255,1.863-0.572,2.601-1.188c2.079-1.738,2.179-7.391,2.223-10.101c0.216-13.038-0.616-15.839-0.094-30.812"/>
	<path fill="#F4D49D" d="M22.269,45.336c-0.108,0.654,0.733,1.006,1.388,1.116c1.047,0.175,2.142,0.347,3.152,0.018
		c1.009-0.329,1.884-1.332,1.688-2.375c-0.081-0.43-0.328-0.81-0.601-1.152c-1.764-2.208-4.908-3.203-7.62-2.411
		c-2.004,0.585-3.819,2.308-3.86,4.394c-0.042,2.131,1.662,3.856,3.322,5.192c1.255,1.01,2.586,1.973,4.112,2.489
		c1.525,0.515,3.288,0.533,4.675-0.287c2.207-1.305,2.813-4.209,2.866-6.772c0.015-0.742-0.003-1.513-0.326-2.181
		c-0.372-0.771-1.1-1.305-1.832-1.747c-3.813-2.3-8.423-2.937-12.874-2.796c-1.062,0.034-2.146,0.115-3.123,0.528
		c-0.945,0.4-1.738,1.091-2.438,1.84c-1.607,1.722-2.831,3.9-2.997,6.25c-0.308,4.385,2.964,8.113,6.017,11.276
		c0.966,1.001,1.932,2.002,2.898,3.003c0.574,0.596,1.163,1.201,1.897,1.582c0.939,0.487,2.032,0.564,3.09,0.57
		c3.34,0.017,6.938-0.729,9.175-3.21c1.855-2.058,2.449-4.938,2.807-7.686c0.264-2.033,0.438-4.077,0.554-6.123
		c0.066-1.168,0.108-2.372-0.289-3.472c-0.83-2.299-3.298-3.524-5.605-4.334c-1.702-0.599-3.442-1.097-5.215-1.443
		c-3.55-0.694-7.3-0.76-10.716,0.429c-3.415,1.19-6.455,3.76-7.653,7.173c-1.675,4.769,0.415,9.956,2.473,14.573
		c1.466,3.292,3.249,6.463,6.62,7.739c1.402,0.531,2.935,0.586,4.435,0.631c7.43,0.224,11.737-2.717,16.636-5.531"/>
	<path fill="#C9A877" d="M21.709,45.663c2.165,4.045,10.816,0.37,5.656-4.178c-3.97-3.498-13.252-1.45-11.339,4.998
		c1.794,6.049,12.511,10.515,15.363,3.095c3.614-9.406-7.883-11.915-15.031-11.401c-8.36,0.602-11.263,9.822-6.967,16.308
		c4.493,6.785,11.158,13.233,19.6,8.461c3.17-1.791,4.48-4.976,5.113-8.416c0.655-3.559,1.965-9.438-0.241-12.668
		c-2.119-3.101-7.164-4.232-10.563-4.881c-4.813-0.919-10.038-0.753-14.252,2.012c-8.934,5.863-5.364,18.621,0.221,25.74
		c6.551,8.35,18.764,2.63,25.98-1.554c0.722-0.418,0.07-1.538-0.652-1.118c-5.083,2.947-10.206,5.782-16.311,5.442
		c-7.688-0.427-10.629-6.882-12.608-13.484c-2.676-8.922,2.895-16.027,12.043-16.258c3.499-0.089,7.176,0.69,10.45,1.911
		c2.735,1.02,3.882,1.745,4.715,4.692c0.662,2.344,0.694,3.264,0.482,5.557c-0.252,2.74-0.436,5.659-1.687,8.154
		c-2.311,4.61-7.768,6.109-12.244,4.17c-5.176-2.242-12.095-9.986-10.792-16.018c1.098-5.083,6.395-7.044,11.065-6.701
		c3.779,0.277,10.368,1.284,11.032,6.022c0.857,6.12-6.42,7.453-10.465,4.128c-1.046-0.732-1.923-1.636-2.631-2.713
		c0.933-1.935,1.866-3.871,2.8-5.807c1.655,0.188,3.31,0.376,4.965,0.563c1.177,4.27,0.316,5.365-2.585,3.289
		C22.435,44.275,21.316,44.928,21.709,45.663"/>
	<path fill="#5F3B2E" d="M6.499,11.441c-0.15-2.896-0.074-5.803,0.228-8.687c6.065,1.811,12.281,3.302,18.607,3.516
		c6.325,0.215,12.809-0.911,18.303-4.055c0.088,2.205,0.129,4.412,0.124,6.619c-0.001,0.539-0.028,1.135-0.404,1.521
		c-0.297,0.305-0.743,0.401-1.163,0.478c-2.305,0.425-4.631,0.726-6.956,1.027c-9.699,1.254-19.787,2.475-29.076-0.59"/>
	<path fill="#912B25" d="M6.423,1.921C18.064-0.235,30.04-0.58,41.786,0.903c0.703,0.089,1.858,0.752,2.291,1.312
		c-5.392,3.338-12.243,4.187-18.581,3.981s-13.364-0.974-19.2-3.458"/>
</g>
</svg>
