<?xml version="1.0" encoding="utf-8"?>
<!-- Generator: Adobe Illustrator 16.0.2, SVG Export Plug-In . SVG Version: 6.00 Build 0)  -->
<!DOCTYPE svg PUBLIC "-//W3C//DTD SVG 1.1//EN" "http://www.w3.org/Graphics/SVG/1.1/DTD/svg11.dtd">
<svg version="1.1" id="Layer_1" xmlns="http://www.w3.org/2000/svg" xmlns:xlink="http://www.w3.org/1999/xlink" x="0px" y="0px"
	 width="28.525px" height="44.858px" viewBox="0 0 28.525 44.858" enable-background="new 0 0 28.525 44.858" xml:space="preserve">
<g>
	<path fill="#416FB6" d="M3.467,1.034C2.627,1.095,1.753,1.167,1.03,1.597c-0.724,0.43-1.24,1.335-0.946,2.124
		C0.25,4.167,0.635,4.493,1.034,4.75c1.913,1.229,4.328,1.264,6.601,1.26c5.867-0.012,11.733-0.022,17.599-0.033
		c0.79-0.001,1.628-0.017,2.292-0.443c1.058-0.68,1.269-2.259,0.667-3.362s-1.818-1.761-3.05-2.009
		c-1.233-0.25-2.505-0.151-3.761-0.095C14.809,0.36,8.06-0.525,1.754,1.352"/>
	<path fill="#FFFFFF" d="M2.526,5.255C2.01,14.177,1.994,24.029,2.618,32.944c0.078,1.108,0.193,2.292,0.898,3.15
		c0.803,0.979,2.155,1.277,3.408,1.46c4.471,0.649,9.01,0.58,13.527,0.51c1.513-0.024,3.139-0.084,4.349-0.992
		c1.807-1.356,1.386-4.788,1.338-7.047c-0.176-8.323,0.453-15.255,0.302-24.166C19.116,5.822,10.605,5.84,3.281,5.803
		c-0.519-0.002-0.633-0.86-0.554-0.348"/>
	<path fill="#FFFFFF" d="M24.041,37.732c-0.051,1.703,0.276,4.227-0.999,5.358c-0.444,0.394-1.238,0.829-1.812,0.98
		c-4.833,1.284-9.173,0.806-13.669-0.074c-0.677-0.134-1.478-0.625-1.941-1.138c-0.474-0.523-0.56-1.281-0.623-1.985
		c-0.119-1.314-0.237-2.627-0.356-3.941c5.89,0.745,11.838,1.037,17.772,0.873c0.545-0.015,1.089-0.034,1.633-0.053"/>
	<path fill="#416FB6" d="M26.31,9.094c-4.55,1.518-9.448,1.512-14.244,1.49c-2.133-0.01-4.285-0.021-6.365-0.492
		C4.491,9.819,3.293,9.376,2.33,8.594l-0.559,9.707C1.722,19.151,1.673,20,1.68,20.851c0.007,0.757,0.058,1.513,0.109,2.269
		c0.25,3.698,0.5,7.396,0.75,11.094c0.018,0.26,0.037,0.523,0.135,0.763c0.271,0.657,1.037,0.936,1.726,1.111
		c4.381,1.117,8.97,0.989,13.489,0.854c2.32-0.07,4.74-0.165,6.773-1.284c0.553-0.305,1.088-0.706,1.358-1.277
		c0.237-0.502,0.243-1.078,0.245-1.633c0.026-7.456,0.052-14.912,0.077-22.368c0.002-0.451,0.003-0.902-0.012-1.354"/>
	<path fill="#416FB6" d="M6.314,19.292c2.834,1.673,8.343,4.256,10.89,0.558c2.128-3.092-4.959-3.836-6.626-3.767
		c-3.165,0.134-5.966,2.534-4.266,5.863c1.733,3.394,7.603,5.342,11.137,4.851c0.698-0.097,0.401-1.156-0.292-1.06
		c-2.629,0.366-5.672-0.891-7.886-2.294c-1.539-0.976-2.83-2.611-1.993-4.448c0.66-1.448,2.071-1.799,3.583-1.823
		c1.049-0.017,2.125,0.167,3.137,0.429c0.91,0.233,1.307,0.237,1.688,1.157c0.438,1.055,0.051,1.099-0.964,1.498
		c-2.729,1.074-5.56-0.559-7.853-1.913C6.258,17.982,5.706,18.932,6.314,19.292"/>
	<path fill="#FFFFFF" d="M10.525,20.673c1.936-0.317,5.71-0.677,7.016,1.031c0.881,1.15,0.246,2.615-0.983,3.255
		c-0.84,0.437-1.957,0.45-2.882,0.488c-0.661,0.028-2.397,0.245-2.874-0.255c-0.099-0.771-0.197-1.542-0.296-2.313
		c0.183-0.043,0.366-0.087,0.549-0.131c0.421-0.168,1.067-0.109,1.526-0.148c0.898-0.076,2.3-0.543,2.725,0.3
		c0.445,0.884-0.722,0.636-1.417,0.664c-0.815,0.034-1.592-0.061-2.4-0.208c0.162,0.399,0.325,0.799,0.488,1.199
		c0.744-1.064,1.701-1.004,2.733-0.64c0.993,0.349,1.42-1.229,0.434-1.575c-1.836-0.646-3.45-0.221-4.577,1.391
		c-0.286,0.408-0.007,1.109,0.488,1.199c1.758,0.32,5.383,0.881,6.576-0.944c0.896-1.37-0.287-2.852-1.696-3.135
		c-1.665-0.335-5.05-0.117-6.579,0.747c-1.652,0.933-2.081,2.918-0.638,4.254c1.627,1.508,4.342,1.363,6.373,1.117
		c1.735-0.211,3.515-0.78,4.208-2.54c0.563-1.432,0.601-3.758-0.951-4.524c-2.487-1.227-5.59-1.242-8.257-0.806
		C9.058,19.268,9.497,20.842,10.525,20.673"/>
</g>
</svg>
