<?xml version="1.0" encoding="utf-8"?>
<!-- Generator: Adobe Illustrator 16.0.2, SVG Export Plug-In . SVG Version: 6.00 Build 0)  -->
<!DOCTYPE svg PUBLIC "-//W3C//DTD SVG 1.1//EN" "http://www.w3.org/Graphics/SVG/1.1/DTD/svg11.dtd">
<svg version="1.1" id="Layer_1" xmlns="http://www.w3.org/2000/svg" xmlns:xlink="http://www.w3.org/1999/xlink" x="0px" y="0px"
	 width="29.605px" height="132.994px" viewBox="0 0 29.605 132.994" enable-background="new 0 0 29.605 132.994"
	 xml:space="preserve">
<g>
	<path fill="#6E6D74" d="M10.397,40.04c0.111-8.91,0.223-17.821,0.335-26.731c0.017-1.269,0.043-2.588,0.612-3.723
		c1.533-3.061,5.81-3.115,9.211-2.729c0.281,10.628,0.564,21.256,0.847,31.884c0.009,0.345,0.024,0.71,0.212,0.999
		c0.23,0.352,0.657,0.508,1.041,0.679c4.137,1.85,5.158,7.162,5.518,11.677c0.445,5.609,0.715,11.232,0.806,16.857
		c0.058,3.57,0.042,7.156-0.496,10.686c-0.332,2.174,0.45,11.387,0.435,13.949c-0.002,0.162-0.005,0.326-0.009,0.49
		c-0.142,5.627,0.052,24.215-0.007,27.85c-0.033,2.084-0.354,4.152-0.672,6.213c-0.079,0.514-0.167,1.045-0.463,1.475
		c-0.327,0.475-0.867,0.754-1.393,0.998c-6.775,3.127-14.9,3.178-21.713,0.137c-0.703-0.314-1.414-0.674-1.92-1.256
		c-0.643-0.74-0.878-1.74-1.07-2.701c-4.25-21.105,1.073-42.92,0.033-64.422c-0.209-4.316-0.668-8.707,0.342-12.906
		c1.012-4.202,3.869-8.279,8.062-9.32"/>
	<path fill="#7F1B29" d="M9.821,1.286c-0.152,1.662-0.1,3.344,0.16,4.992c0.156,0.995,0.437,2.061,1.229,2.683
		c1.046,0.822,2.547,0.566,3.845,0.271c2.139-0.488,4.27-0.005,6.407-0.493c0.192-0.044,0.405-1.066,0.539-1.214
		c0.144-0.156,0.169-0.383,0.185-0.594c0.12-1.586,0.034-3.188-0.255-4.752c-0.062-0.337-0.141-0.688-0.358-0.953
		c-0.252-0.305-0.648-0.446-1.027-0.56C16.952-0.412,13.28-0.166,9.821,1.286"/>
	<path fill="#7F1B29" d="M28.979,68.952c-0.091-5.625-0.36-11.248-0.806-16.857c-0.359-4.516-1.381-9.828-5.518-11.677
		c-0.384-0.171-0.811-0.327-1.04-0.679c-0.188-0.289-0.204-0.654-0.213-0.999c-0.155-5.824-0.31-11.648-0.464-17.472
		c-1.234,0.198-2.479,0.328-3.727,0.385c-2.197,0.099-4.41-0.021-6.588,0.28c-0.076,6.036-0.15,12.071-0.227,18.106l-0.29,0.104
		c-4.192,1.041-7.05,5.118-8.062,9.32c-1.01,4.199-0.551,8.59-0.342,12.906c1.04,21.502-4.283,43.316-0.033,64.422
		c0.193,0.961,0.428,1.961,1.07,2.701c0.506,0.582,1.217,0.941,1.92,1.256c6.813,3.041,14.938,2.99,21.713-0.137
		c0.525-0.244,1.065-0.523,1.395-0.998c0.295-0.43,0.382-0.961,0.461-1.475c0.318-2.061,0.639-4.129,0.672-6.213
		c0.059-3.635-0.135-22.223,0.007-27.85c0.004-0.164,0.007-0.328,0.009-0.49c0.016-2.563-0.767-11.775-0.435-13.949
		C29.021,76.108,29.036,72.522,28.979,68.952"/>
	<path fill="#FFF6DA" d="M1.667,70.159c4.445,0.76,8.953-0.563,13.454-0.861c1.63-0.107,3.267-0.08,4.901-0.053
		c2.811,0.047,5.622,0.094,8.433,0.141c0.302,0.004,0.64,0.025,0.839,0.25c0.17,0.191,0.184,0.469,0.186,0.721
		c0.015,2.881,0.482,4.406-0.483,7.123c-0.272,0.766-0.36,2.334-0.334,3.146c0.025,0.746-0.349,2.117-0.083,2.816
		c0.827,2.168,0.762,4.385,0.782,6.705c0.003,0.391-0.019,0.816-0.278,1.111c-0.285,0.326-0.766,0.381-1.199,0.414
		c-7.642,0.551-15.363-0.002-22.848-1.633c-0.305-0.068-0.625-0.143-0.857-0.352c-0.383-0.344-2.066,0.422-2.42,0.047
		c-0.33-0.352-0.422,0.01-0.832-0.248c-0.867-0.545,0.455-3.555,0.315-4.566c-0.315-2.309-0.149-2.473-0.315-7.111
		c-0.035-0.955,0.715-4.393,0.41-5.301c-0.304-0.908,0.83-2.814,0.049-2.576"/>
</g>
</svg>
