<?xml version="1.0" encoding="utf-8"?>
<!-- Generator: Adobe Illustrator 16.0.2, SVG Export Plug-In . SVG Version: 6.00 Build 0)  -->
<!DOCTYPE svg PUBLIC "-//W3C//DTD SVG 1.1//EN" "http://www.w3.org/Graphics/SVG/1.1/DTD/svg11.dtd">
<svg version="1.1" id="Layer_1" xmlns="http://www.w3.org/2000/svg" xmlns:xlink="http://www.w3.org/1999/xlink" x="0px" y="0px"
	 width="29.827px" height="132.994px" viewBox="0 0 29.827 132.994" enable-background="new 0 0 29.827 132.994"
	 xml:space="preserve">
<g>
	<path fill="#6E6D74" d="M10.62,40.04c0.111-8.91,0.223-17.82,0.334-26.73c0.017-1.27,0.043-2.588,0.613-3.724
		c1.533-3.06,5.81-3.114,9.211-2.729c0.281,10.628,0.564,21.255,0.847,31.883c0.009,0.345,0.024,0.71,0.212,0.999
		c0.23,0.352,0.656,0.508,1.041,0.679c4.136,1.851,5.158,7.162,5.517,11.677c0.446,5.609,0.716,11.232,0.806,16.857
		c0.059,3.57,0.043,7.158-0.496,10.688c-0.332,2.172,0.451,11.387,0.435,13.947c-0.001,0.162-0.004,0.326-0.008,0.49
		c-0.142,5.627,0.051,24.215-0.007,27.852c-0.033,2.084-0.354,4.15-0.672,6.211c-0.08,0.514-0.168,1.047-0.463,1.475
		c-0.328,0.475-0.867,0.754-1.394,0.998c-6.774,3.127-14.899,3.178-21.712,0.137c-0.704-0.314-1.414-0.674-1.92-1.256
		c-0.643-0.74-0.878-1.74-1.071-2.701c-4.25-21.104,1.074-42.92,0.034-64.422c-0.209-4.314-0.668-8.707,0.342-12.906
		c1.012-4.201,3.868-8.278,8.061-9.319"/>
	<path fill="#7F1B29" d="M10.043,1.287c-0.152,1.662-0.1,3.343,0.16,4.992c0.156,0.995,0.436,2.06,1.229,2.682
		c1.047,0.823,2.547,0.567,3.846,0.271c2.138-0.488,4.27-0.006,6.406-0.493c0.193-0.044,0.406-1.067,0.539-1.214
		c0.144-0.156,0.17-0.384,0.186-0.595c0.12-1.586,0.034-3.188-0.255-4.752c-0.062-0.337-0.14-0.688-0.359-0.953
		c-0.252-0.305-0.647-0.445-1.026-0.56C17.174-0.412,13.501-0.166,10.043,1.287"/>
	<path fill="#FFF6DA" d="M29.2,68.952c-0.09-5.625-0.359-11.248-0.806-16.857c-0.358-4.516-1.381-9.827-5.517-11.677
		c-0.385-0.171-0.811-0.327-1.04-0.679c-0.188-0.289-0.204-0.654-0.213-0.999c-0.155-5.824-0.31-11.647-0.464-17.471
		c-1.234,0.198-2.479,0.328-3.727,0.384c-2.197,0.099-4.41-0.021-6.588,0.281c-0.076,6.036-0.15,12.07-0.227,18.105l-0.291,0.105
		c-4.192,1.041-7.049,5.118-8.061,9.319c-1.01,4.199-0.551,8.592-0.342,12.906c1.04,21.502-4.284,43.318-0.034,64.422
		c0.194,0.961,0.429,1.961,1.071,2.701c0.506,0.582,1.216,0.941,1.92,1.256c6.813,3.041,14.938,2.99,21.712-0.137
		c0.526-0.244,1.065-0.523,1.394-0.998c0.297-0.428,0.383-0.961,0.463-1.475c0.318-2.061,0.639-4.127,0.672-6.211
		c0.058-3.637-0.135-22.225,0.007-27.852c0.004-0.164,0.007-0.328,0.008-0.49c0.017-2.561-0.767-11.775-0.435-13.947
		C29.243,76.11,29.258,72.522,29.2,68.952"/>
	<path fill="#7F1B29" d="M1.067,70.159c4.576,0.762,9.218-0.563,13.851-0.859c1.679-0.109,3.362-0.082,5.045-0.055
		c2.894,0.047,5.787,0.094,8.681,0.141c0.311,0.006,0.658,0.025,0.864,0.25c0.175,0.191,0.188,0.469,0.19,0.721
		c0.016,2.881,0.496,4.408-0.498,7.123c-0.281,0.766-0.37,2.334-0.344,3.146c0.025,0.746-0.359,2.117-0.084,2.816
		c0.851,2.168,0.783,4.385,0.804,6.705c0.004,0.391-0.019,0.818-0.286,1.113c-0.294,0.324-0.788,0.381-1.234,0.412
		c-7.867,0.551-15.814,0-23.519-1.633c-0.313-0.066-0.644-0.143-0.884-0.352c-0.395-0.344-2.127,0.422-2.489,0.047
		c-0.341-0.352-0.437,0.01-0.858-0.248c-0.892-0.545,0.469-3.555,0.326-4.564c-0.326-2.311-0.154-2.475-0.326-7.113
		c-0.035-0.955,0.737-4.393,0.424-5.301c-0.313-0.906,0.853-2.814,0.049-2.576"/>
</g>
</svg>
