<?xml version="1.0" encoding="utf-8"?>
<!-- Generator: Adobe Illustrator 16.0.2, SVG Export Plug-In . SVG Version: 6.00 Build 0)  -->
<!DOCTYPE svg PUBLIC "-//W3C//DTD SVG 1.1//EN" "http://www.w3.org/Graphics/SVG/1.1/DTD/svg11.dtd">
<svg version="1.1" id="Layer_1" xmlns="http://www.w3.org/2000/svg" xmlns:xlink="http://www.w3.org/1999/xlink" x="0px" y="0px"
	 width="85.489px" height="63.13px" viewBox="0 0 85.489 63.13" enable-background="new 0 0 85.489 63.13" xml:space="preserve">
<g>
	<path fill="#44A84F" d="M30.752,44.232c0.415-0.036,0.666-0.472,0.799-0.867c0.133-0.395,0.254-0.846,0.615-1.054
		c0.418-0.241,1.046-0.081,1.338-0.465c0.081,0.29,0.397,0.493,0.694,0.445c0.17-0.026,0.343-0.123,0.504-0.064
		c0.484,0.175-0.134,1.078,0.267,1.4c0.097,0.077,0.238,0.099,0.313,0.197c0.244,0.317-0.507,0.719-0.312,1.067
		c0.039,0.071,0.111,0.117,0.182,0.157c0.285,0.16,0.599,0.273,0.847,0.486c0.247,0.213,0.416,0.569,0.287,0.869
		c-0.093,0.218-0.327,0.373-0.354,0.608c-0.022,0.188,0.096,0.359,0.18,0.531c0.251,0.511,0.21,1.109,0.164,1.678
		c-0.011,0.134-0.027,0.28-0.122,0.375c-0.161,0.161-0.444,0.076-0.611-0.078s-0.282-0.364-0.472-0.489
		c-0.07-0.047-0.154-0.081-0.238-0.074c-0.229,0.02-0.33,0.311-0.301,0.538c0.028,0.229,0.13,0.456,0.08,0.682
		c-0.07,0.319-0.434,0.504-0.761,0.485c-0.327-0.018-0.624-0.186-0.908-0.35c-0.242-0.141-0.517-0.335-0.509-0.615
		c0.005-0.149,0.093-0.284,0.125-0.43c0.032-0.146-0.035-0.341-0.184-0.348c-0.618,0.414-0.31,1.615-0.994,1.908
		c-0.326,0.14-0.703-0.032-0.976-0.259c-0.601-0.499-0.95-1.286-0.916-2.066c0.063-1.461,1.36-2.733,1.147-4.18
		c0.182,0.013,0.364,0.025,0.546,0.038"/>
	<path fill="#44A84F" d="M39.047,40.642c0.473,0.695,0.085,1.65,0.265,2.473c0.164,0.748,0.788,1.313,1.455,1.69
		c0.048,0.027,0.104,0.056,0.159,0.041c0.177-0.046,0.031-0.376,0.18-0.484c0.126-0.091,0.272,0.076,0.367,0.198
		c0.229,0.291,0.645,0.42,0.998,0.31c0.079-0.168-0.079-0.348-0.103-0.532c-0.04-0.304,0.293-0.553,0.284-0.858
		c-0.014-0.479-0.76-0.572-0.953-1.01c-0.058-0.134-0.059-0.285-0.113-0.419c-0.084-0.203-0.278-0.335-0.465-0.451
		c-0.753-0.468-1.55-0.868-2.376-1.192"/>
	<path fill="#44A84F" d="M35.704,44.983c0.308-0.315,0.624-0.638,1.016-0.842c0.392-0.203,0.881-0.272,1.273-0.069
		c0.392,0.203,0.621,0.729,0.409,1.116c-0.108,0.197-0.317,0.357-0.321,0.582c-0.005,0.338,0.435,0.484,0.772,0.455
		c0.336-0.03,0.723-0.117,0.975,0.108c0.209,0.186,0.22,0.522,0.101,0.776c-0.118,0.254-0.338,0.444-0.551,0.626
		c0.316,0.188,0.695,0.227,1.053,0.308c0.359,0.08,0.736,0.229,0.921,0.546s0.042,0.826-0.322,0.876
		c-0.15,0.02-0.353-0.013-0.409,0.13c-0.054,0.356,0.572,0.537,0.522,0.894c-0.013,0.093-0.072,0.171-0.128,0.244
		c-0.333,0.433-0.665,0.864-0.997,1.296c-0.067,0.087-0.138,0.178-0.24,0.215c-0.404,0.148-0.687-0.61-1.108-0.523
		c-0.116,0.023-0.208,0.11-0.32,0.148c-0.292,0.101-0.621-0.258-0.495-0.541c-0.529-0.188-1,0.542-1.56,0.494
		c-0.324-0.027-0.566-0.314-0.705-0.608c-0.139-0.294-0.218-0.62-0.41-0.883c-0.137-0.188-0.342-0.394-0.262-0.611
		c0.127-0.343,0.66-0.134,1.001-0.264c0.39-0.149,0.414-0.685,0.369-1.1c-0.083-0.77-0.169-1.552-0.461-2.271
		c-0.175-0.434-0.424-0.838-0.555-1.288"/>
	<path fill="#44A84F" d="M41.362,49.653c0.895,0.386,1.888,0.542,2.859,0.448c0.147-0.015,0.302-0.034,0.438,0.022
		c0.111,0.047,0.197,0.138,0.273,0.229c0.316,0.383,0.54,0.849,0.932,1.153c0.393,0.303,1.055,0.354,1.317-0.066
		c0.167-0.267,0.115-0.63,0.288-0.893c0.077-0.116,0.193-0.206,0.245-0.334c0.072-0.179,0.002-0.379-0.084-0.551
		c-0.382-0.75-1.078-1.28-1.751-1.785c-0.273-0.205-0.593-0.422-0.927-0.351c-0.5,0.108-0.642,0.743-0.68,1.253
		c-0.037,0.511-0.171,1.146-0.67,1.261c-0.662,0.154-1.273-0.809-1.892-0.525"/>
	<path fill="#44A84F" d="M41.27,29.232c0.747-0.126,1.432-0.582,1.836-1.224c0.276-0.437,0.568-1.037,1.08-0.978
		c0.186,0.021,0.346,0.135,0.513,0.219c0.481,0.242,1.075,0.245,1.558,0.007c0.143-0.071,0.305-0.163,0.451-0.098
		c0.244,0.108,0.135,0.489-0.057,0.676c-0.191,0.186-0.453,0.385-0.408,0.649c0.55,0.253,1.3-0.284,1.762,0.106
		c0.229,0.195,0.259,0.56,0.124,0.828c-0.135,0.269-0.4,0.452-0.678,0.565c-0.123,0.05-0.263,0.099-0.321,0.217
		c-0.13,0.263,0.23,0.476,0.455,0.664c0.509,0.425,0.418,1.217,0.282,1.866c-0.072,0.344-0.148,0.697-0.347,0.987
		c-0.199,0.29-0.555,0.502-0.898,0.425C45.974,34,45.72,32.972,45.058,33.02c-0.762,0.057-0.742,1.404-1.474,1.623
		c-0.392,0.118-0.801-0.178-1-0.534c-0.199-0.358-0.258-0.775-0.409-1.155c-0.056-0.142-0.133-0.286-0.268-0.357
		c-0.293-0.154-0.631,0.13-0.784,0.424c-0.153,0.296-0.261,0.653-0.559,0.8c-0.695-0.278-0.993-1.257-0.57-1.875
		c0.127-0.188,0.314-0.367,0.295-0.594c-0.034-0.403-0.613-0.435-1.009-0.344c0.253-0.733,0.936-1.301,1.704-1.416
		c0.249-0.037,0.565-0.075,0.636-0.315"/>
	<path fill="#44A84F" d="M37.575,24.392c0.625,0.422,1.455,0.522,2.163,0.262c0.183-0.066,0.368-0.158,0.563-0.139
		c0.316,0.033,0.519,0.336,0.732,0.571c0.753,0.832,2.154,0.971,3.056,0.302c0.244-0.181,0.488-0.425,0.792-0.409
		c0.163,0.008,0.311,0.092,0.456,0.166c0.324,0.164,0.689,0.289,1.047,0.226s0.692-0.368,0.682-0.731
		c-0.005-0.159-0.072-0.32-0.03-0.473c0.091-0.33,0.572-0.354,0.781-0.625c0.348-0.45-0.286-1.009-0.821-1.203
		c-0.536-0.195-1.213-0.649-0.957-1.158c0.244-0.483,0.997-0.257,1.386,0.119c0.39,0.376,0.82,0.884,1.349,0.766
		c0.525-0.115,0.705-0.76,0.787-1.291c0.024-0.153,0.045-0.32-0.03-0.458c-0.247-0.45-1.185-0.1-1.326-0.594
		c-0.112-0.304,0.288-0.581,0.607-0.523c0.319,0.056,0.571,0.293,0.859,0.44c0.289,0.147,0.709,0.17,0.875-0.107
		c0.077-0.13,0.077-0.288,0.074-0.438c-0.015-0.82-0.037-1.671-0.4-2.406c-0.364-0.734-1.175-1.316-1.976-1.143
		c0.045,0.362-0.247,0.731-0.61,0.772c-0.058-0.442-0.131-0.921-0.447-1.235c-0.316-0.316-0.962-0.319-1.128,0.096
		c-0.101,0.251,0.01,0.531,0.061,0.798c0.052,0.267-0.007,0.614-0.267,0.69c-0.506,0.147-0.598-0.825-1.098-0.993
		c-0.313-0.105-0.642,0.187-0.722,0.508c-0.08,0.322,0.005,0.657,0.047,0.986c0.133,1.026-0.187,2.104-0.858,2.894
		c-0.426-0.246-0.172-1.072-0.622-1.269c-0.389-0.171-0.717,0.377-0.695,0.801c0.022,0.425,0.159,0.912-0.121,1.232
		c-0.531,0.605-1.923-0.113-2.171,0.653c-0.067,0.205,0.006,0.427,0.001,0.643c-0.026,1.138-1.963,1.296-2.239,2.4"/>
	<path fill="#046937" d="M44.484,27.011c0.625,0.422,1.455,0.521,2.163,0.262c0.183-0.067,0.368-0.159,0.563-0.14
		c0.316,0.033,0.518,0.337,0.732,0.571c0.753,0.832,2.154,0.971,3.056,0.302c0.244-0.181,0.488-0.425,0.792-0.408
		c0.163,0.008,0.311,0.092,0.456,0.166c0.324,0.164,0.689,0.289,1.047,0.225c0.358-0.063,0.692-0.368,0.682-0.731
		c-0.005-0.158-0.072-0.319-0.03-0.473c0.091-0.33,0.572-0.354,0.781-0.625c0.348-0.45-0.286-1.009-0.821-1.203
		c-0.536-0.194-1.213-0.648-0.957-1.158c0.244-0.482,0.997-0.257,1.386,0.119c0.39,0.376,0.82,0.885,1.349,0.767
		c0.525-0.116,0.705-0.761,0.787-1.291c0.024-0.154,0.045-0.321-0.03-0.458c-0.247-0.451-1.185-0.101-1.326-0.595
		c-0.112-0.304,0.288-0.581,0.607-0.524s0.571,0.294,0.859,0.441c0.289,0.147,0.709,0.171,0.875-0.107
		c0.077-0.129,0.077-0.288,0.074-0.438c-0.015-0.819-0.037-1.671-0.4-2.405c-0.364-0.735-1.175-1.317-1.976-1.144
		c0.045,0.362-0.247,0.732-0.61,0.773c-0.058-0.443-0.131-0.921-0.447-1.236c-0.316-0.316-0.962-0.319-1.128,0.096
		c-0.101,0.251,0.01,0.531,0.061,0.799c0.052,0.266-0.007,0.613-0.267,0.689c-0.506,0.148-0.598-0.825-1.098-0.993
		c-0.313-0.104-0.642,0.188-0.722,0.508c-0.08,0.322,0.005,0.657,0.047,0.986c0.133,1.027-0.187,2.105-0.858,2.895
		c-0.426-0.246-0.172-1.072-0.622-1.27c-0.39-0.171-0.717,0.377-0.695,0.801c0.022,0.426,0.159,0.912-0.121,1.232
		c-0.531,0.605-1.923-0.113-2.171,0.654c-0.067,0.205,0.006,0.426,0.001,0.642c-0.026,1.138-1.963,1.296-2.239,2.401"/>
	<path fill="#046937" d="M42.706,16.064c0.625,0.422,1.455,0.522,2.163,0.263c0.183-0.067,0.369-0.159,0.563-0.14
		c0.316,0.033,0.519,0.336,0.732,0.571c0.753,0.832,2.154,0.971,3.056,0.302c0.244-0.181,0.488-0.425,0.792-0.409
		c0.163,0.009,0.311,0.093,0.456,0.166c0.324,0.164,0.689,0.289,1.047,0.226c0.358-0.063,0.692-0.368,0.682-0.731
		c-0.005-0.159-0.072-0.319-0.03-0.473c0.091-0.33,0.572-0.354,0.781-0.625c0.348-0.45-0.286-1.009-0.821-1.203
		c-0.536-0.195-1.213-0.649-0.957-1.158c0.244-0.482,0.997-0.257,1.386,0.119c0.39,0.376,0.82,0.884,1.349,0.766
		c0.525-0.115,0.705-0.76,0.787-1.291c0.024-0.153,0.045-0.32-0.03-0.457c-0.247-0.451-1.185-0.101-1.326-0.595
		c-0.112-0.304,0.288-0.581,0.607-0.523c0.319,0.056,0.571,0.293,0.859,0.44c0.289,0.147,0.709,0.17,0.875-0.107
		c0.077-0.129,0.077-0.288,0.074-0.438c-0.015-0.82-0.037-1.671-0.4-2.406c-0.364-0.734-1.175-1.316-1.976-1.143
		c0.045,0.362-0.247,0.732-0.61,0.773c-0.058-0.443-0.131-0.922-0.447-1.236c-0.316-0.316-0.962-0.319-1.128,0.096
		c-0.101,0.251,0.01,0.531,0.061,0.798c0.052,0.267-0.007,0.614-0.267,0.69c-0.506,0.147-0.598-0.825-1.098-0.993
		c-0.313-0.104-0.642,0.188-0.722,0.508c-0.08,0.322,0.005,0.657,0.047,0.986c0.133,1.027-0.187,2.104-0.858,2.894
		c-0.426-0.246-0.172-1.071-0.622-1.269c-0.389-0.171-0.717,0.377-0.695,0.801c0.022,0.425,0.159,0.912-0.121,1.232
		c-0.531,0.605-1.923-0.113-2.171,0.653c-0.067,0.205,0.006,0.428,0.001,0.643c-0.026,1.138-1.963,1.296-2.239,2.4"/>
	<path fill="#046937" d="M63.459,43.463c0.031,0.753,0.442,1.48,1.071,1.896c0.163,0.108,0.346,0.203,0.445,0.371
		c0.161,0.274,0.038,0.617-0.026,0.929c-0.223,1.1,0.496,2.311,1.569,2.64c0.29,0.09,0.631,0.142,0.799,0.396
		c0.09,0.137,0.11,0.306,0.137,0.467c0.059,0.358,0.175,0.726,0.439,0.977c0.263,0.25,0.706,0.339,0.993,0.115
		c0.125-0.099,0.215-0.247,0.363-0.305c0.319-0.123,0.624,0.25,0.966,0.26c0.57,0.013,0.643-0.828,0.482-1.375
		c-0.16-0.547-0.196-1.361,0.366-1.456c0.534-0.091,0.798,0.648,0.726,1.186c-0.072,0.537-0.226,1.185,0.182,1.54
		c0.405,0.354,1.03,0.118,1.506-0.131c0.138-0.072,0.286-0.154,0.352-0.295c0.217-0.467-0.623-1.014-0.308-1.421
		c0.178-0.271,0.638-0.112,0.782,0.178c0.144,0.291,0.102,0.634,0.154,0.954c0.052,0.32,0.283,0.671,0.606,0.64
		c0.149-0.014,0.277-0.108,0.396-0.199c0.652-0.497,1.324-1.02,1.701-1.748c0.376-0.729,0.364-1.728-0.251-2.27
		c-0.265,0.251-0.736,0.235-0.984-0.033c0.323-0.309,0.664-0.65,0.731-1.093c0.066-0.441-0.314-0.963-0.746-0.851
		c-0.263,0.066-0.423,0.322-0.607,0.521c-0.184,0.2-0.498,0.358-0.714,0.194c-0.419-0.319,0.31-0.971,0.149-1.472
		c-0.101-0.316-0.531-0.407-0.838-0.281c-0.306,0.126-0.525,0.394-0.765,0.622c-0.749,0.716-1.806,1.097-2.84,1.023
		c-0.054-0.487,0.761-0.773,0.654-1.253c-0.094-0.415-0.729-0.354-1.058-0.085c-0.329,0.27-0.64,0.669-1.063,0.633
		c-0.803-0.068-1.049-1.614-1.814-1.36c-0.205,0.067-0.34,0.258-0.516,0.382c-0.933,0.653-2.208-0.813-3.262-0.381"/>
	<path fill="#046937" d="M43.554,30.831c-0.058-0.752-0.495-1.464-1.139-1.857c-0.166-0.102-0.353-0.189-0.458-0.354
		c-0.171-0.269-0.06-0.615-0.008-0.929c0.184-1.107-0.579-2.291-1.663-2.582c-0.294-0.078-0.636-0.118-0.813-0.365
		c-0.095-0.133-0.121-0.302-0.153-0.461c-0.073-0.356-0.202-0.721-0.474-0.96c-0.273-0.241-0.719-0.313-0.997-0.079
		c-0.122,0.102-0.206,0.254-0.352,0.316c-0.315,0.135-0.633-0.228-0.975-0.224c-0.57,0.007-0.613,0.851-0.432,1.391
		c0.18,0.541,0.245,1.354-0.313,1.47c-0.53,0.109-0.821-0.62-0.768-1.159c0.053-0.54,0.183-1.192-0.238-1.533
		c-0.417-0.339-1.033-0.081-1.501,0.186c-0.135,0.077-0.279,0.164-0.34,0.308c-0.2,0.474,0.659,0.991,0.358,1.409
		c-0.168,0.276-0.633,0.135-0.787-0.15c-0.154-0.285-0.125-0.63-0.189-0.947c-0.063-0.317-0.307-0.661-0.628-0.618
		c-0.149,0.02-0.273,0.119-0.389,0.215c-0.633,0.521-1.286,1.066-1.636,1.809c-0.35,0.741-0.302,1.739,0.333,2.258
		c0.256-0.26,0.727-0.262,0.985-0.003c-0.312,0.321-0.64,0.675-0.691,1.119c-0.051,0.444,0.348,0.951,0.776,0.824
		c0.26-0.077,0.41-0.338,0.587-0.544c0.177-0.206,0.485-0.376,0.707-0.221c0.43,0.305-0.275,0.982-0.096,1.478
		c0.113,0.311,0.546,0.387,0.847,0.25c0.302-0.136,0.512-0.412,0.743-0.649c0.722-0.742,1.765-1.162,2.801-1.126
		c0.072,0.486-0.733,0.802-0.608,1.276c0.108,0.411,0.741,0.327,1.06,0.046c0.319-0.281,0.615-0.691,1.04-0.671
		c0.805,0.04,1.107,1.576,1.862,1.295c0.202-0.075,0.33-0.271,0.501-0.4c0.909-0.687,2.236,0.732,3.274,0.262"/>
	<path fill="#046937" d="M61.439,21.019c0.688,0.308,1.523,0.265,2.176-0.113c0.168-0.098,0.336-0.22,0.53-0.234
		c0.317-0.021,0.569,0.242,0.819,0.438c0.886,0.689,2.29,0.586,3.063-0.229c0.209-0.22,0.408-0.502,0.71-0.539
		c0.162-0.02,0.322,0.038,0.478,0.087c0.348,0.105,0.729,0.166,1.07,0.042c0.342-0.125,0.619-0.482,0.546-0.839
		c-0.032-0.155-0.125-0.303-0.11-0.461c0.032-0.34,0.502-0.446,0.662-0.749c0.266-0.504-0.455-0.944-1.016-1.045
		c-0.561-0.1-1.306-0.43-1.141-0.976c0.157-0.519,0.937-0.425,1.386-0.121c0.448,0.304,0.959,0.729,1.46,0.523
		c0.497-0.205,0.564-0.869,0.553-1.407c-0.003-0.156-0.01-0.324-0.107-0.446c-0.321-0.402-1.186,0.105-1.409-0.358
		c-0.163-0.279,0.183-0.62,0.507-0.619c0.325,0,0.614,0.19,0.923,0.286c0.31,0.097,0.727,0.047,0.843-0.257
		c0.054-0.14,0.026-0.297-0.002-0.443c-0.155-0.806-0.323-1.641-0.808-2.302c-0.484-0.661-1.383-1.096-2.143-0.786
		c0.107,0.349-0.117,0.764-0.468,0.865c-0.132-0.426-0.287-0.884-0.652-1.141c-0.366-0.257-1.002-0.149-1.095,0.288
		c-0.056,0.266,0.101,0.522,0.198,0.775c0.096,0.255,0.098,0.606-0.145,0.727c-0.473,0.232-0.731-0.71-1.252-0.79
		c-0.327-0.049-0.601,0.295-0.625,0.625c-0.023,0.33,0.119,0.646,0.217,0.963c0.306,0.989,0.176,2.106-0.35,2.998
		c-0.461-0.168-0.353-1.026-0.83-1.143c-0.413-0.102-0.642,0.494-0.547,0.908c0.094,0.414,0.314,0.871,0.093,1.234
		c-0.42,0.688-1.914,0.219-2.027,1.017c-0.031,0.215,0.08,0.419,0.112,0.633c0.169,1.127-1.712,1.614-1.794,2.751"/>
	<path fill="#046937" d="M68.626,36.977c0.688,0.309,1.523,0.266,2.176-0.112c0.168-0.099,0.336-0.221,0.53-0.234
		c0.317-0.022,0.569,0.242,0.819,0.437c0.886,0.69,2.29,0.586,3.063-0.228c0.209-0.22,0.408-0.502,0.71-0.539
		c0.162-0.02,0.322,0.038,0.478,0.086c0.348,0.106,0.729,0.166,1.07,0.042c0.342-0.125,0.619-0.482,0.546-0.838
		c-0.032-0.156-0.125-0.303-0.11-0.461c0.032-0.34,0.502-0.447,0.662-0.749c0.266-0.504-0.455-0.945-1.016-1.045
		c-0.561-0.101-1.306-0.43-1.141-0.977c0.157-0.518,0.937-0.425,1.386-0.121c0.448,0.305,0.959,0.73,1.46,0.523
		c0.497-0.205,0.564-0.869,0.553-1.407c-0.003-0.155-0.01-0.323-0.107-0.445c-0.321-0.402-1.186,0.104-1.409-0.358
		c-0.163-0.28,0.183-0.621,0.507-0.62c0.325,0,0.614,0.191,0.923,0.287c0.31,0.096,0.727,0.045,0.843-0.257
		c0.054-0.141,0.026-0.297-0.002-0.444c-0.155-0.805-0.323-1.64-0.808-2.301c-0.484-0.662-1.383-1.096-2.143-0.787
		c0.107,0.349-0.117,0.764-0.468,0.866c-0.132-0.426-0.287-0.884-0.652-1.142c-0.366-0.257-1.002-0.148-1.095,0.288
		c-0.056,0.267,0.101,0.523,0.198,0.776c0.096,0.254,0.098,0.606-0.146,0.726c-0.473,0.233-0.731-0.71-1.252-0.79
		c-0.327-0.049-0.601,0.296-0.625,0.625c-0.023,0.33,0.119,0.646,0.217,0.964c0.306,0.988,0.176,2.105-0.35,2.998
		c-0.461-0.169-0.353-1.026-0.83-1.144c-0.413-0.101-0.642,0.495-0.547,0.909c0.094,0.414,0.314,0.871,0.093,1.234
		c-0.42,0.688-1.914,0.219-2.027,1.017c-0.031,0.214,0.08,0.419,0.112,0.632c0.169,1.127-1.712,1.615-1.794,2.751"/>
	<path fill="#046937" d="M42.244,46.237c-0.336,0.675-0.328,1.511,0.022,2.178c0.091,0.173,0.206,0.345,0.211,0.541
		c0.009,0.317-0.264,0.558-0.47,0.8c-0.727,0.855-0.681,2.263,0.1,3.069c0.211,0.219,0.484,0.429,0.509,0.731
		c0.013,0.163-0.051,0.32-0.106,0.475c-0.12,0.343-0.196,0.721-0.086,1.066c0.11,0.348,0.455,0.639,0.814,0.581
		c0.157-0.025,0.308-0.112,0.465-0.091c0.339,0.046,0.426,0.521,0.721,0.692c0.492,0.287,0.963-0.415,1.086-0.971
		c0.123-0.557,0.485-1.287,1.023-1.1c0.511,0.178,0.385,0.954,0.063,1.389c-0.322,0.437-0.769,0.93-0.584,1.438
		c0.184,0.506,0.846,0.6,1.383,0.612c0.156,0.004,0.325,0.003,0.45-0.089c0.415-0.305-0.055-1.188,0.417-1.393
		c0.286-0.151,0.613,0.209,0.598,0.533c-0.014,0.323-0.216,0.604-0.325,0.91c-0.109,0.305-0.076,0.724,0.222,0.853
		c0.137,0.06,0.295,0.038,0.443,0.017c0.811-0.122,1.652-0.255,2.333-0.711c0.682-0.457,1.153-1.338,0.876-2.108
		c-0.354,0.091-0.759-0.15-0.847-0.504c0.432-0.115,0.896-0.25,1.168-0.605c0.272-0.354,0.191-0.995-0.242-1.104
		c-0.263-0.068-0.526,0.079-0.784,0.165c-0.257,0.086-0.609,0.073-0.719-0.175c-0.212-0.482,0.741-0.701,0.841-1.219
		c0.064-0.324-0.269-0.611-0.598-0.649s-0.65,0.091-0.97,0.176c-1.002,0.265-2.112,0.088-2.982-0.474
		c0.188-0.454,1.04-0.311,1.177-0.782c0.119-0.408-0.467-0.662-0.885-0.585s-0.883,0.276-1.237,0.041
		c-0.67-0.447-0.14-1.92-0.932-2.067c-0.212-0.039-0.422,0.063-0.636,0.085c-1.133,0.122-1.542-1.776-2.673-1.907"/>
	<path fill="#046937" d="M55.538,31.2c0.625,0.422,1.455,0.521,2.163,0.262c0.183-0.067,0.369-0.159,0.563-0.139
		c0.316,0.032,0.519,0.336,0.732,0.57c0.753,0.832,2.154,0.972,3.056,0.303c0.244-0.182,0.488-0.426,0.792-0.409
		c0.163,0.008,0.311,0.092,0.456,0.166c0.324,0.164,0.689,0.289,1.047,0.225c0.358-0.063,0.692-0.368,0.682-0.73
		c-0.005-0.159-0.072-0.32-0.03-0.474c0.091-0.33,0.572-0.354,0.781-0.625c0.348-0.45-0.286-1.009-0.821-1.203
		c-0.536-0.194-1.213-0.648-0.957-1.157c0.244-0.483,0.997-0.258,1.386,0.118c0.39,0.376,0.82,0.885,1.349,0.767
		c0.525-0.116,0.705-0.76,0.787-1.291c0.024-0.154,0.045-0.321-0.03-0.458c-0.247-0.451-1.185-0.101-1.326-0.594
		c-0.112-0.305,0.288-0.581,0.607-0.524c0.319,0.056,0.571,0.293,0.859,0.441c0.289,0.146,0.709,0.17,0.875-0.108
		c0.077-0.129,0.077-0.288,0.074-0.438c-0.015-0.82-0.037-1.672-0.4-2.406c-0.364-0.735-1.175-1.317-1.976-1.144
		c0.045,0.362-0.247,0.732-0.61,0.773c-0.058-0.443-0.131-0.921-0.447-1.236s-0.962-0.318-1.128,0.097
		c-0.101,0.251,0.01,0.53,0.061,0.798c0.052,0.266-0.007,0.613-0.267,0.689c-0.506,0.148-0.598-0.825-1.098-0.993
		c-0.313-0.104-0.642,0.188-0.722,0.509s0.005,0.656,0.047,0.985c0.133,1.027-0.187,2.105-0.858,2.895
		c-0.426-0.246-0.172-1.072-0.622-1.27c-0.389-0.171-0.717,0.377-0.695,0.801c0.022,0.426,0.159,0.912-0.121,1.232
		c-0.531,0.606-1.923-0.113-2.171,0.654c-0.067,0.205,0.006,0.427,0.001,0.642c-0.026,1.138-1.963,1.296-2.239,2.401"/>
	<path fill="#44A84F" d="M40.745,18.462c1.477-1.46,2.84-3.034,4.072-4.705c1.006-1.365,1.957-2.825,3.344-3.801
		c1.387-0.975,3.369-1.344,4.758-0.372c0.503,0.353,1.032,0.89,1.619,0.711c0.035-1.034,0.152-2.066,0.346-3.084
		c0.056-0.288,0.089-0.651-0.157-0.813c-0.195-0.129-0.458-0.047-0.689-0.089c-0.337-0.063-0.566-0.376-0.877-0.521
		c-0.31-0.145-0.822,0.098-0.671,0.404c-0.356-0.723-1.396-0.926-2.092-0.519c-0.696,0.406-1.041,1.263-1.01,2.068
		c-0.548-0.232-0.917-0.833-0.877-1.427c-0.865,0.044-1.91,0.299-2.144,1.132c-0.077,0.273-0.046,0.563-0.064,0.845
		c-0.056,0.911-0.603,1.709-1.13,2.454c-1.128,1.596-2.256,3.191-3.384,4.786c-0.665,0.94-1.355,1.952-1.396,3.104"/>
	<path fill="#44A84F" d="M51.854,40.465c0.879,0.598,2.016,0.592,3.05,0.837c2.209,0.522,3.932,2.197,5.536,3.804
		c2.474,2.478,4.949,4.955,7.423,7.433c0.104,0.105,0.211,0.213,0.269,0.35c0.103,0.244,0.027,0.521,0.008,0.786
		c-0.081,1.126,0.894,2.229,0.517,3.292c-0.123,0.349-0.389,0.689-0.29,1.046c0.15,0.534,1.017,0.485,1.325,0.023
		c0.308-0.462,0.224-1.071,0.128-1.618c-0.09-0.515-0.18-1.03-0.27-1.547c-0.04-0.229-0.063-0.509,0.121-0.652
		c0.218-0.171,0.544,0,0.703,0.226c0.407,0.58,0.234,1.363,0.233,2.071c-0.001,1.169,0.512,2.269,1.015,3.323
		c0.073,0.154,0.151,0.314,0.286,0.419c0.309,0.241,0.795,0.074,1.026-0.241c0.232-0.317,0.278-0.729,0.316-1.119
		c0.431,0.693,0.863,1.389,1.294,2.084c-0.116-0.257,0.199-0.508,0.478-0.55c0.279-0.043,0.6-0.014,0.802-0.211
		c0.384-0.376-0.099-0.986-0.159-1.521c-0.039-0.349,0.119-0.687,0.197-1.03c0.077-0.344,0.038-0.771-0.265-0.949
		c-0.157-0.093-0.349-0.095-0.527-0.134c-0.667-0.144-1.106-0.789-1.334-1.432c-0.227-0.643-0.317-1.338-0.639-1.939
		c-0.322-0.601-0.987-1.104-1.649-0.939c0.215,0.291-0.106,0.729-0.467,0.761c-0.361,0.031-0.689-0.189-0.981-0.406
		c-1.252-0.926-2.452-1.922-3.592-2.981c-3.044-2.829-5.716-6.153-9.312-8.233c-1.723-0.997-3.777-1.689-5.697-1.164"/>
	<path fill="#44A84F" d="M53.525,35.449c1.505,1.088,3.576,0.746,5.383,1.174c0.89,0.211,1.723,0.614,2.516,1.069
		c1.529,0.878,2.941,1.959,4.186,3.207c0.669,0.672,1.407,1.444,2.355,1.451c0.382,0.002,0.787-0.122,1.134,0.039
		c0.219,0.103,0.388,0.312,0.625,0.36c0.206,0.043,0.415-0.046,0.605-0.139c3.161-1.544,5.41-4.813,5.722-8.315
		c-0.392-0.09-0.607,0.436-0.663,0.834c-0.055,0.399-0.302,0.921-0.686,0.799c0.104-0.437-0.502-0.764-0.918-0.592
		c-0.415,0.172-0.643,0.612-0.836,1.017c-0.693,1.451-1.386,2.901-2.079,4.353c-0.424-1.717,1.052-3.405,0.882-5.165
		c-0.066-0.681-0.708-1.454-1.31-1.13c-0.522,0.28-0.414,1.049-0.233,1.611c-0.509-0.099-0.794-0.983-1.256-0.748
		c-0.174,0.09-0.235,0.309-0.244,0.504c-0.05,1.091,0.93,2.233,0.364,3.168c-0.501-0.023-0.795-1.015-1.182-0.695
		c-0.085,0.069-0.116,0.183-0.143,0.289c-0.229,0.906-0.287,2.135,0.576,2.494c-0.091,0.28-0.455,0.391-0.739,0.309
		c-0.283-0.082-0.505-0.298-0.719-0.501c-2.857-2.717-6.65-4.432-10.577-4.783c-0.71-0.063-1.446-0.09-2.087-0.399
		c-0.417-0.202-0.829-0.528-1.284-0.447c-0.047,0.173,0.111,0.369,0.29,0.36"/>
	<path fill="#44A84F" d="M3.574,59.585c4.932-1.249,9.88-2.503,14.609-4.377c2.407-0.954,4.748-2.064,7.117-3.109
		c5.719-2.52,11.601-4.649,17.478-6.776c0.425-0.154,0.867-0.311,1.318-0.271c0.455,0.04,0.867,0.274,1.262,0.504
		c0.762,0.442,1.524,0.885,2.286,1.326c0.118,0.069,0.242,0.145,0.299,0.269c0.129,0.277-0.151,0.558-0.306,0.822
		c-0.365,0.619,0.024,1.5,0.69,1.771c0.666,0.269,1.468,0.001,1.958-0.525c0.489-0.525,0.703-1.26,0.743-1.977
		c0.792-0.202,1.352,0.844,1.26,1.656c-0.092,0.812-0.504,1.615-0.313,2.41c0.152,0.635,0.656,1.112,1.028,1.647
		c0.372,0.536,0.608,1.298,0.208,1.814c0.775,0.33,1.782-0.353,1.761-1.194c-0.009-0.366-0.078-0.887,0.282-0.954
		c0.33-0.063,0.524,0.411,0.854,0.473c0.401,0.075,0.624-0.487,0.516-0.881c-0.109-0.393-0.383-0.754-0.35-1.16
		c0.029-0.346,0.277-0.633,0.378-0.965c0.207-0.68-0.24-1.4-0.801-1.837s-1.243-0.699-1.799-1.143
		c-0.449-0.359-0.804-0.827-1.261-1.176c-0.585-0.444-1.304-0.67-2.007-0.886c-1.556-0.479-3.129-0.962-4.754-1.07
		c-2.014-0.133-4.017,0.317-5.984,0.768c-4.083,0.933-8.203,1.896-11.962,3.742c-2.609,1.278-5.021,2.972-7.744,3.985
		c-5.557,2.069-12.168,1.238-17.05,4.604c-0.225,0.156-0.457,0.334-0.553,0.591c-0.292,0.783,0.818,1.409,0.926,2.238"/>
	<path fill="#44A84F" d="M55.328,25.32c-0.576,0.664-1.675,0.552-2.415,0.077c-0.253-0.163-0.483-0.36-0.713-0.556
		c-0.065-0.056-0.134-0.119-0.147-0.203c-0.04-0.255,0.375-0.273,0.568-0.446c0.165-0.149,0.142-0.419,0.047-0.62
		c-0.094-0.201-0.246-0.375-0.313-0.587c-0.165-0.529,0.245-1.05,0.624-1.453c0.145-0.155,0.327-0.323,0.536-0.287
		c0.379,0.063,0.521,0.74,0.89,0.634c0.248-0.071,0.358-0.486,0.608-0.421c0.096,0.025,0.156,0.117,0.206,0.202
		c0.26,0.436,0.528,0.912,0.476,1.416c-0.016,0.145-0.057,0.287-0.055,0.433c0.004,0.206,0.102,0.408,0.261,0.539
		c0.1,0.083,0.234,0.154,0.256,0.282c0.016,0.097-0.04,0.189-0.094,0.272c-0.165,0.255-0.331,0.508-0.496,0.762"/>
	<path fill="#44A84F" d="M55.72,22.301c-0.256-0.213-0.099-0.684,0.214-0.798s0.668,0.04,0.911,0.267
		c0.308,0.289,0.518,0.703,0.907,0.867c0.543,0.23,1.242-0.279,1.191-0.866c-0.038-0.433-0.39-0.774-0.494-1.196
		c-0.101-0.41,0.043-0.835,0.168-1.239c0.303-0.98,0.505-1.992,0.599-3.015c0.007-0.075,0.012-0.159-0.035-0.22
		c-0.052-0.067-0.148-0.081-0.234-0.088c-0.258-0.021-0.572-0.017-0.708,0.205c-0.08,0.13-0.067,0.296-0.105,0.444
		c-0.038,0.147-0.184,0.299-0.325,0.238c0.019-0.802-0.898-1.472-1.657-1.211c-0.066,0.023-0.133,0.055-0.169,0.114
		c-0.057,0.094-0.012,0.214,0.018,0.32c0.151,0.529-0.122,1.084-0.137,1.636c-0.015,0.552,0.228,1.073,0.392,1.6
		c0.165,0.528,0.239,1.145-0.076,1.599c-0.16,0.229-0.422,0.494-0.279,0.733"/>
	<path fill="#44A84F" d="M30.31,30.35c0.429,0.186,0.858,0.373,1.287,0.559c0.058,0.025,0.118,0.052,0.156,0.103
		c0.063,0.082,0.047,0.196,0.037,0.3c-0.068,0.69,0.304,1.407,0.909,1.748s1.41,0.288,1.966-0.128
		c0.205-0.154,0.379-0.354,0.603-0.479c0.372-0.21,0.836-0.194,1.219-0.383c0.414-0.204,0.694-0.654,0.695-1.115
		s-0.277-0.912-0.69-1.118c-0.064-0.031-0.134-0.06-0.177-0.117c-0.08-0.105-0.037-0.257,0.015-0.377
		c0.148-0.349,0.345-0.682,0.405-1.055c0.06-0.373-0.063-0.811-0.402-0.977c-0.174-0.085-0.399-0.1-0.511-0.256
		c-0.114-0.158-0.054-0.374-0.049-0.568c0.012-0.415-0.278-0.816-0.671-0.949c-0.393-0.134-0.859,0.001-1.132,0.313
		c-0.243,0.277-0.33,0.654-0.494,0.984c-0.165,0.33-0.482,0.646-0.847,0.595c-0.231-0.033-0.468-0.208-0.674-0.1
		c-0.161,0.085-0.197,0.293-0.229,0.472c-0.179,1.011-0.8,1.934-1.667,2.482"/>
	<path fill="#44A84F" d="M67.454,28.882c0.603-0.489,0.507-1.484,0.044-2.108c-0.462-0.624-1.178-0.997-1.813-1.443
		c-1.198-0.844-2.215-2.156-2.155-3.62c0.014-0.346,0.087-0.694,0.028-1.035c-0.034-0.194-0.11-0.381-0.118-0.577
		c-0.032-0.701,0.834-1.161,1.516-0.999c0.683,0.162,1.192,0.717,1.655,1.244c0.116,0.132,0.235,0.269,0.285,0.438
		c0.055,0.183,0.022,0.379,0.004,0.569c-0.112,1.201,0.484,2.443,1.492,3.107c0.116-1.197-0.06-2.421-0.509-3.536
		c-0.256-0.636-0.603-1.255-0.664-1.938c-0.061-0.683,0.281-1.471,0.948-1.629c0.327,0.539,0.654,1.078,0.981,1.617
		c0.164-0.491,0.479-0.958,0.951-1.172c0.472-0.214,1.107-0.101,1.382,0.338c0.243,0.389,0.155,0.887,0.141,1.346
		c-0.013,0.459,0.134,1.014,0.576,1.139c-0.222,0.724-0.847,1.235-1.378,1.776c-0.53,0.541-1.019,1.263-0.859,2.003
		c0.804,0.18,1.54-0.437,2.181-0.952c0.641-0.518,1.554-0.983,2.24-0.527c-0.481,0.718-1.258,1.231-2.108,1.393
		c0.377,0.329,0.924,0.342,1.406,0.477s0.99,0.563,0.85,1.043c-0.151,0.515-0.943,0.675-1.003,1.208
		c-0.019,0.166,0.043,0.329,0.11,0.481c0.249,0.57,0.58,1.106,0.978,1.584c-0.292,0.459-0.598,0.932-1.052,1.23
		s-1.101,0.377-1.524,0.035c-0.265-0.214-0.403-0.556-0.665-0.772c-0.263-0.218-0.772-0.202-0.836,0.133
		c-0.139-0.942-0.279-1.886-0.419-2.827c-0.02-0.137-0.051-0.289-0.168-0.36c-0.097-0.061-0.221-0.041-0.332-0.014
		c-0.986,0.237-1.83,0.999-2.168,1.955"/>
	<path fill="#44A84F" d="M61.57,55.165c0.512,0.514,1.269,0.77,1.987,0.674c0.278-0.037,0.568-0.138,0.735-0.363
		c0.098-0.134,0.145-0.299,0.239-0.436c0.226-0.324,0.687-0.413,1.07-0.314c0.384,0.1,0.709,0.348,1.022,0.59
		c-0.301,0.46-0.609,1.052-0.329,1.525c0.312,0.525,1.123,0.497,1.536,0.947c0.258,0.282,0.311,0.697,0.526,1.014
		c0.23,0.337,0.622,0.526,0.886,0.838c0.06,0.071,0.116,0.157,0.106,0.249c-0.009,0.086-0.074,0.155-0.134,0.216
		c-0.331,0.338-0.883,0.684-1.217,0.35c-0.126-0.126-0.182-0.33-0.348-0.395c-0.185-0.072-0.392,0.092-0.448,0.282
		c-0.057,0.189-0.011,0.393,0.021,0.589c0.018,0.111,0.03,0.232-0.023,0.334c-0.148,0.286-0.595,0.134-0.82-0.098
		s-0.488-0.538-0.798-0.449c-0.131,0.037-0.232,0.142-0.315,0.251c-0.318,0.418-0.468,0.96-0.41,1.482
		c0.018,0.161,0.053,0.335-0.024,0.479c-0.095,0.179-0.337,0.235-0.533,0.181c-0.195-0.055-0.353-0.195-0.502-0.333
		c-0.366-0.341-0.718-0.698-1.053-1.069c-0.077-0.085-0.157-0.18-0.166-0.294c-0.009-0.109,0.049-0.213,0.076-0.318
		c0.078-0.301-0.095-0.613-0.314-0.834c-0.219-0.222-0.489-0.39-0.687-0.629c-1.007-1.222,0.417-3.289-0.497-4.581"/>
	<path fill="#44A84F" d="M71.701,48.44c2.302-0.27,4.033-2.154,5.524-3.928c0.046-0.056,0.094-0.114,0.103-0.186
		c0.021-0.169-0.173-0.274-0.333-0.333c-0.766-0.278-1.538-0.635-2.068-1.255c-0.53-0.619-0.754-1.565-0.335-2.266
		c0.261,0.383,0.605,0.754,1.06,0.846s1.006-0.234,0.985-0.698c-0.016-0.356-0.334-0.612-0.552-0.896
		c-0.266-0.348-0.395-0.85-0.169-1.225s0.884-0.435,1.072-0.039c-0.07-0.511-0.122-1.091,0.21-1.485
		c0.331-0.396,1.173-0.259,1.145,0.256c-0.014,0.251-0.222,0.446-0.308,0.682c-0.205,0.558,0.309,1.117,0.829,1.402
		c0.521,0.286,1.143,0.507,1.406,1.039c0.552-0.37,0.723-1.091,1.102-1.638c0.378-0.547,1.316-0.857,1.64-0.276
		c-0.353,0.019-0.379,0.607-0.078,0.791c0.301,0.185,0.691,0.077,1.016-0.061c0.326-0.136,0.674-0.302,1.016-0.216
		c0.52,0.129,0.709,0.92,0.304,1.271c-0.156,0.135-0.365,0.202-0.506,0.352c-0.435,0.462,0.07,1.187,0.549,1.604
		c-0.265,0.525-0.995,0.521-1.583,0.547c-0.589,0.025-1.338,0.396-1.193,0.967c0.102,0.398,0.584,0.558,0.822,0.893
		c-0.175,0.394-0.751,0.406-1.134,0.207c-0.382-0.197-0.689-0.536-1.097-0.676c-0.408-0.139-0.99,0.075-0.976,0.506
		c0.017,0.522,0.855,0.997,0.486,1.366c-0.253,0.254-0.657-0.059-0.894-0.329c-0.238-0.269-0.751-0.472-0.881-0.137
		c-0.04,0.103-0.015,0.219,0.011,0.327c0.09,0.363,0.194,0.722,0.312,1.077c-0.325,0.315-0.906,0.313-1.228-0.007
		c-0.127-0.126-0.22-0.296-0.381-0.372c-0.214-0.102-0.465-0.007-0.681,0.089c-1.508,0.66-3.015,1.32-4.522,1.98
		c-0.176,0.077-0.371,0.156-0.554,0.1c-0.184-0.058-0.3-0.323-0.153-0.446"/>
	<path fill="#44A84F" d="M47.693,32.462c0.872-0.23,0.382-1.832,1.16-2.289c0.593-0.348,1.254,0.287,1.724,0.788
		c0.322,0.345,0.913,0.646,1.209,0.279c-0.071,0.358-0.143,0.716-0.214,1.074c0.9-0.705,2.106-1.005,3.232-0.804
		c-0.088,0.27-0.175,0.541-0.262,0.812c0.332-0.089,0.677-0.179,1.016-0.12c0.338,0.059,0.67,0.309,0.706,0.65
		c0.087,0.82-1.313,0.966-1.599,1.741c-0.196,0.531,0.236,1.09,0.699,1.418c0.463,0.327,1.021,0.596,1.261,1.11
		c0.251,0.539,0.019,1.255-0.502,1.543c0.69-0.129,1.335,0.739,1.011,1.362c-0.343,0.66-1.354,0.768-1.64,1.454
		c-0.128,0.309-0.072,0.66-0.1,0.993c-0.027,0.333-0.203,0.711-0.534,0.758c-0.182-0.476-0.551-0.933-1.055-0.998
		c-0.504-0.067-1.049,0.467-0.838,0.93c-0.493,0.06-0.889-0.362-1.298-0.643c-0.409-0.281-1.123-0.337-1.264,0.139
		c-0.572-0.343-0.978-0.951-1.074-1.611c-0.036-0.249-0.058-0.549-0.28-0.669c-0.222-0.119-0.512,0.051-0.612,0.282
		c-0.101,0.232-0.066,0.498-0.03,0.748c-0.682-0.449-1.174-1.177-1.337-1.977c-0.082-0.405-0.097-0.856-0.368-1.168
		c-0.169-0.194-0.414-0.304-0.626-0.449c-0.444-0.309-0.752-0.805-0.829-1.34c-0.029-0.203-0.001-0.454,0.183-0.544
		c0.169-0.083,0.365,0.019,0.553,0.031c0.409,0.028,0.723-0.373,0.844-0.765c0.121-0.392,0.136-0.824,0.345-1.177
		c0.237-0.4,0.679-0.63,0.984-0.98c0.306-0.35,0.413-0.982,0.012-1.218"/>
	<path fill="#44A84F" d="M56.694,14.62c0.846-0.927,1.399-2.119,1.559-3.364c-1.261,0.12-2.566-0.449-3.337-1.455
		c-0.061-0.079-0.121-0.166-0.127-0.266c-0.024-0.372,0.572-0.385,0.825-0.659C55.9,8.564,55.64,8.08,55.562,7.663
		c-0.093-0.49,0.098-0.983,0.172-1.476c0.314-2.121-1.54-4.043-1.49-6.188c0.773,0.561,1.185,1.479,1.563,2.355
		c0.763,1.766,1.525,3.531,2.287,5.298c0.076,0.176,0.181,0.375,0.37,0.404c0.331,0.053,0.458-0.42,0.424-0.753
		c-0.104-1.011-0.412-2.001-0.901-2.893c-0.227-0.413-0.476-0.975-0.134-1.299c0.131-0.125,0.319-0.17,0.5-0.173
		c0.871-0.016,1.579,1.012,1.255,1.819c0.669-0.421,1.54-0.504,2.277-0.216c-0.413,0.207-0.236,0.876,0.147,1.134
		c0.382,0.258,0.878,0.313,1.244,0.594c0.546,0.418,0.612,1.328,0.132,1.82c-0.148,0.151-0.336,0.266-0.457,0.439
		c-0.286,0.408-0.108,0.963,0.059,1.432c0.346,0.975,0.606,1.979,0.775,2.998c0.041,0.245,0.076,0.499,0.011,0.739
		c-0.08,0.298-0.302,0.533-0.492,0.775c-0.405,0.52-0.692,1.131-0.833,1.773c-0.562-0.503-0.711-1.317-1.131-1.944
		c-0.42-0.627-1.474-0.983-1.865-0.339c-0.223,0.366-0.103,0.893-0.395,1.206c-0.597,0.645-1.653-0.519-2.485-0.234"/>
	<path fill="#44A84F" d="M57.08,24.41c0.176,0.714,1.135,1.096,1.755,0.699c0.195-0.126,0.355-0.31,0.571-0.396
		c0.216-0.086,0.527-0.01,0.568,0.219c0.042,0.233-0.207,0.399-0.368,0.573c-0.345,0.375-0.288,1.045,0.116,1.354
		c0.404,0.312,1.066,0.195,1.34-0.234c0.242-0.049,0.38,0.283,0.34,0.525c-0.041,0.243-0.157,0.502-0.047,0.723
		c0.189,0.375,0.762,0.221,1.149,0.383c0.281,0.119,0.449,0.406,0.695,0.586s0.692,0.176,0.761-0.121
		c0.053-0.227-0.164-0.431-0.184-0.663c-0.024-0.28,0.314-0.52,0.57-0.403c0.149,0.066,0.313,0.225,0.444,0.127
		c0.051-0.039,0.072-0.105,0.083-0.167c0.056-0.298-0.023-0.616-0.211-0.853c-0.186-0.236-0.464-0.381-0.671-0.599
		c-0.208-0.218-0.332-0.576-0.145-0.813c0.318,0.285,0.636,0.57,0.953,0.854c0.092,0.082,0.191,0.168,0.313,0.183
		c0.275,0.033,0.452-0.319,0.4-0.591c-0.088-0.455-0.531-0.749-0.959-0.93c-0.427-0.181-0.899-0.315-1.212-0.657
		c-0.457-0.5-0.479-1.345-1.049-1.709c-0.29-0.185-0.656-0.195-0.977-0.318c-0.442-0.168-0.777-0.539-1.198-0.757
		c-0.42-0.218-1.046-0.211-1.255,0.214c-0.193-0.071-0.251-0.308-0.318-0.504c-0.066-0.195-0.241-0.41-0.435-0.34
		c-0.159,0.057-0.195,0.262-0.211,0.431c-0.128,1.364-0.649,2.689-1.482,3.777"/>
	<path fill="#046937" d="M49.748,43.755c0.176,0.714,1.135,1.096,1.755,0.7c0.195-0.126,0.355-0.311,0.571-0.396
		c0.216-0.086,0.527-0.01,0.568,0.22c0.042,0.232-0.207,0.398-0.368,0.572c-0.345,0.375-0.288,1.045,0.116,1.355
		c0.405,0.311,1.066,0.195,1.34-0.235c0.242-0.049,0.38,0.283,0.34,0.526c-0.041,0.243-0.157,0.502-0.047,0.722
		c0.189,0.375,0.762,0.221,1.149,0.383c0.281,0.119,0.449,0.406,0.695,0.586c0.246,0.181,0.692,0.177,0.761-0.121
		c0.053-0.227-0.164-0.431-0.184-0.662c-0.024-0.28,0.314-0.521,0.57-0.404c0.149,0.066,0.313,0.225,0.444,0.127
		c0.051-0.039,0.072-0.105,0.083-0.167c0.056-0.297-0.023-0.616-0.211-0.853c-0.186-0.235-0.464-0.381-0.671-0.599
		c-0.208-0.217-0.332-0.576-0.145-0.812c0.318,0.284,0.636,0.569,0.953,0.854c0.092,0.082,0.191,0.168,0.313,0.183
		c0.275,0.033,0.452-0.318,0.4-0.591c-0.088-0.455-0.531-0.749-0.959-0.93c-0.427-0.18-0.899-0.315-1.212-0.657
		c-0.457-0.5-0.478-1.345-1.049-1.709c-0.29-0.184-0.656-0.194-0.977-0.317c-0.442-0.168-0.777-0.539-1.198-0.758
		c-0.42-0.218-1.046-0.211-1.255,0.215c-0.193-0.071-0.251-0.309-0.318-0.504c-0.066-0.195-0.241-0.41-0.435-0.341
		c-0.159,0.058-0.195,0.263-0.211,0.432c-0.128,1.363-0.649,2.688-1.482,3.776"/>
	<path fill="#44A84F" d="M57.849,28.742c0.559,0.257,0.651,1.064,0.363,1.608c-0.287,0.545-0.826,0.899-1.313,1.276
		c-0.143,0.11-0.289,0.233-0.35,0.403c-0.055,0.153-0.033,0.321-0.007,0.48c0.059,0.355,0.136,0.707,0.231,1.055
		c0.05,0.182,0.131,0.389,0.312,0.442c0.303,0.091,0.674-0.313,0.898-0.09c0.079,0.08,0.086,0.203,0.089,0.315l0.026,1.125
		c0.003,0.135,0.01,0.282,0.099,0.386c0.069,0.08,0.174,0.118,0.275,0.152c0.205,0.069,0.421,0.141,0.635,0.103
		s0.417-0.225,0.393-0.439c-0.035-0.313-0.498-0.532-0.374-0.82c0.086-0.2,0.382-0.188,0.571-0.079
		c0.188,0.109,0.352,0.281,0.568,0.307c0.142,0.018,0.283-0.034,0.412-0.098c0.284-0.14,0.568-0.432,0.466-0.732
		c-0.114-0.338-0.577-0.353-0.9-0.506c-0.464-0.219-0.66-0.763-0.812-1.254c-0.201-0.65-0.404-1.333-0.286-2.004
		c0.025-0.145,0.116-0.323,0.261-0.298c0.054,0.009,0.099,0.047,0.14,0.085c0.573,0.543,0.882,1.457,1.653,1.629
		c0.11,0.024,0.232,0.029,0.331-0.024c0.299-0.161,0.129-0.649-0.166-0.818c-0.295-0.169-0.669-0.199-0.917-0.432
		c-0.259-0.242-0.309-0.64-0.53-0.916c-0.48-0.599-1.569-0.444-1.965-1.101"/>
	<path fill="#44A84F" d="M64.151,27.921c0.344,0.287,0.786,0.425,1.18,0.638c0.394,0.214,0.772,0.562,0.798,1.01
		c0.024,0.409-0.251,0.772-0.542,1.063c-0.399,0.396-0.855,0.736-1.35,1.005c-0.326,0.177-0.679,0.33-0.923,0.609
		c-0.244,0.28-0.336,0.738-0.088,1.015c0.401,0.443,1.156,0.028,1.726,0.209c-0.056,0.343-0.222,0.666-0.468,0.911
		c-0.206,0.206-0.475,0.368-0.588,0.638c-0.194,0.461,0.169,0.969,0.569,1.271c0.567,0.43,1.345,0.688,1.994,0.395
		c0.226-0.103,0.436-0.29,0.469-0.536c0.017-0.129-0.017-0.26-0.006-0.39c0.056-0.699,1.203-0.818,1.374-1.498
		c0.038-0.151,0.02-0.314,0.076-0.459c0.124-0.32,0.534-0.409,0.878-0.401c0.343,0.009,0.72,0.059,1.001-0.139
		c0.259-0.184,0.349-0.568,0.199-0.848c-0.072-0.132-0.192-0.246-0.21-0.396c-0.043-0.342,0.41-0.487,0.671-0.711
		c0.321-0.276,0.37-0.756,0.308-1.174c-0.056-0.377-0.198-0.767-0.505-0.993s-0.805-0.215-1.018,0.101
		c-0.235,0.35-0.19,1.018-0.609,1.003c-0.223-0.008-0.355-0.243-0.461-0.438c-0.456-0.838-1.227-1.475-2.079-1.905
		c-0.327-0.166-0.686-0.307-1.051-0.271c-0.364,0.035-0.73,0.3-0.768,0.663c-0.165-0.282-0.38-0.536-0.633-0.745"/>
	<path fill="#44A84F" d="M0.129,50.914c3.66-1.706,7.377-3.306,11.219-4.547c2.257-0.729,4.553-1.332,6.816-2.039
		c1.401-0.436,2.789-0.912,4.176-1.388c1.701-0.583,3.402-1.167,5.103-1.75c1.764-0.604,3.552-1.222,5.085-2.282
		c1.533-1.061,2.805-2.642,3.066-4.488c0.063-0.443,0.069-0.904,0.232-1.322c0.307-0.791,1.1-1.268,1.839-1.686
		c0.261-0.146,0.543-0.299,0.841-0.266c0.592,0.064,0.855,0.777,0.904,1.371c0.05,0.593,0.059,1.28,0.528,1.647
		c0.791,0.617,2.126-0.259,2.897,0.384c0.215,0.181,0.342,0.455,0.577,0.608c0.384,0.25,0.886,0.093,1.334,0
		c0.448-0.092,1.037-0.032,1.187,0.4c-0.709,0.172-1.005,1.071-0.839,1.782c0.166,0.71,0.642,1.301,0.993,1.939
		c0.1,0.183,0.192,0.399,0.117,0.593c-0.076,0.198-0.297,0.3-0.411,0.479c-0.322,0.506,0.316,1.367-0.183,1.7
		c-0.307,0.204-0.702-0.065-0.967-0.322c-0.704-0.685-1.629-1.442-2.553-1.11c-0.335,0.121-0.645,0.384-0.998,0.336
		c-0.258-0.034-0.461-0.228-0.675-0.376c-0.729-0.504-1.679-0.51-2.565-0.499c-1.184,0.017-2.368,0.031-3.552,0.047
		c-1.3,0.018-2.604,0.034-3.889,0.222c-5.131,0.745-9.498,4.081-14.446,5.63c-1.684,0.527-3.43,0.846-5.113,1.379
		c-3.373,1.067-6.409,2.969-9.603,4.491c-0.324,0.153-0.709,0.305-1.029,0.14c-0.319-0.164-0.289-0.789,0.07-0.772"/>
	<path fill="#44A84F" d="M0.543,54.523c9.538-0.919,18.369-5.256,27.614-7.774c0.609-0.165,1.483-0.178,1.628,0.437
		c-5.26,2.365-10.81,4.085-16.486,5.106c-1.867,0.336-3.755,0.6-5.566,1.161c-2.255,0.699-4.4,1.862-6.752,2.069
		c-0.266,0.022-0.566,0.022-0.76-0.161c-0.194-0.184-0.128-0.604,0.139-0.614"/>
	<path fill="#44A84F" d="M2.044,51.526c10.499-4.945,19.49-13.088,29.327-19.545c0.648-0.425,1.625-0.805,1.915-0.238
		c-5.401,4.627-11.262,8.716-17.411,12.145c-2.022,1.128-4.083,2.188-5.996,3.524c-2.381,1.662-4.542,3.753-7.135,4.951
		c-0.294,0.136-0.63,0.262-0.886,0.155c-0.256-0.107-0.27-0.564,0.028-0.686"/>
	<path fill="#44A84F" d="M6.113,50.558c-1.719,0.021-3.431,0.447-4.957,1.238c3.045,0.364,6.132-0.325,9.004-1.4
		c2.872-1.075,5.584-2.53,8.383-3.783c4.503-2.015,9.242-3.502,14.088-4.423c2.301-0.437,4.65-0.754,6.818-1.641
		c-0.651-0.567-1.629-0.474-2.48-0.328c-3.864,0.659-7.652,1.695-11.432,2.73c-2.116,0.578-4.234,1.158-6.289,1.925
		c-2.194,0.817-4.304,1.845-6.441,2.803c-2.253,1.01-4.539,1.945-6.854,2.803"/>
	<path fill="#44A84F" d="M38.292,22.85c-0.373-0.001-0.708,0.208-1.054,0.349c-0.345,0.141-0.782,0.2-1.056-0.053
		c-0.308-0.284-0.229-0.801-0.006-1.154c0.381-0.606,1.107-1.03,1.211-1.738c0.072-0.49-0.185-0.96-0.324-1.436
		c-0.379-1.305,0.138-2.685,0.648-3.943c0.066-0.162,0.137-0.332,0.276-0.439c0.232-0.178,0.561-0.119,0.846-0.051
		c0.258,0.061,0.559,0.163,0.628,0.418c0.057,0.214-0.079,0.424-0.167,0.627c-0.268,0.625-0.073,1.354,0.232,1.962
		c0.306,0.608,0.719,1.169,0.914,1.821c0.196,0.652,0.11,1.458-0.434,1.866c-0.188,0.141-0.419,0.226-0.576,0.399
		c-0.402,0.446-0.138,1.229-0.518,1.692c-0.276,0.337-0.868,0.339-1.146,0.002"/>
	<path fill="#44A84F" d="M63.947,39.933c-0.003,0.386,0.188,0.769,0.498,0.999c0.164,0.121,0.359,0.203,0.49,0.357
		c0.303,0.355,0.137,0.902-0.093,1.309c-0.231,0.406-0.526,0.839-0.434,1.297c0.044,0.217,0.172,0.408,0.241,0.618
		c0.155,0.469-0.018,1.025-0.41,1.325c-0.497-0.168-0.748-0.758-0.7-1.28s0.323-0.993,0.591-1.444
		c-0.625-0.077-1.16,0.455-1.468,1.004c-0.147,0.264-0.282,0.557-0.543,0.708c-0.39,0.229-0.882,0.05-1.296-0.132
		c-0.415-0.183-0.844-0.375-1.146-0.713c-0.302-0.338-0.442-0.866-0.204-1.252c0.192-0.31,0.572-0.457,0.786-0.752
		c0.258-0.355,0.231-0.862,0.494-1.213c0.255-0.34,0.707-0.446,1.1-0.609c0.392-0.164,0.8-0.501,0.741-0.922
		c-0.029-0.202-0.161-0.372-0.296-0.525c-0.437-0.494-0.947-0.926-1.508-1.273c0.89,0.41,1.818,0.848,2.41,1.63
		c0.306,0.404,0.527,0.902,0.965,1.156"/>
	<path fill="#44A84F" d="M56.091,50.081c0.926-0.08,1.855-0.135,2.784-0.16c-0.2,0.288-0.4,0.576-0.6,0.864
		c0.237,0.336,0.746,0.23,1.152,0.159c0.406-0.069,0.981,0.092,0.934,0.5c-0.024,0.211-0.223,0.37-0.248,0.581
		c-0.063,0.525,0.773,0.532,1.214,0.825c0.655,0.435,0.308,1.446-0.102,2.116c-0.446,0.73-0.96,1.517-1.776,1.778
		c-0.204,0.064-0.429,0.098-0.592,0.237c-0.269,0.229-0.261,0.636-0.331,0.982c-0.17,0.838-0.872,1.447-1.532,1.99
		c-0.352-0.426-0.636-0.905-0.838-1.419c-0.824,0.298-1.54,0.889-1.988,1.643c-0.126,0.212-0.242,0.448-0.457,0.571
		c-0.576,0.328-1.174-0.385-1.458-0.983l-2.272,1.957c-0.147,0.127-0.299,0.256-0.48,0.327c-0.701,0.271-1.378-0.416-1.819-1.027
		c-0.111-0.154-0.228-0.345-0.161-0.523c0.064-0.168,0.259-0.236,0.404-0.344c0.446-0.327,0.402-0.994,0.313-1.542
		c-0.134-0.821-0.269-1.644-0.403-2.467c-0.226-1.382-0.527-2.897-1.631-3.76c0.373-0.362,0.768-0.738,1.269-0.874
		c0.501-0.135,1.135,0.067,1.295,0.561c0.118,0.363-0.044,0.748-0.138,1.118c-0.094,0.369-0.078,0.841,0.252,1.033
		c0.173,0.099,0.386,0.091,0.583,0.06c1.076-0.174,2.014-1.017,2.302-2.067c0.421,0.46,0.948,0.822,1.529,1.05
		c0.264,0.104,0.567,0.178,0.825,0.062c0.405-0.184,0.484-0.708,0.559-1.146c0.186-1.104,0.987-2.333,2.098-2.191"/>
	<path fill="#44A84F" d="M42.746,50.269c0.533,0.618,0.852,1.417,0.893,2.231c0.016,0.32,0.002,0.677,0.214,0.917
		c0.125,0.143,0.311,0.219,0.437,0.36c0.267,0.299,0.176,0.774-0.013,1.127c-0.19,0.354-0.466,0.672-0.545,1.065
		c-0.16,0.787,0.496,1.47,1.005,2.09c0.071,0.087,0.143,0.182,0.151,0.294c0.024,0.326-0.434,0.422-0.759,0.396
		c-0.603-0.047-1.227-0.1-1.753-0.396c-0.526-0.297-0.925-0.911-0.776-1.496c0.109-0.425,0.485-0.796,0.413-1.229
		c-0.511-0.087-1.062,0.203-1.28,0.674c-0.904-0.632-1.168-2.017-0.561-2.938c0.095-0.145,0.215-0.304,0.181-0.474
		c-0.055-0.274-0.467-0.312-0.682-0.135c-0.216,0.177-0.301,0.462-0.431,0.709c-0.13,0.247-0.37,0.487-0.645,0.44
		c-0.364-0.063-0.51-0.579-0.873-0.645c-0.283-0.051-0.538,0.216-0.605,0.495c-0.068,0.278-0.009,0.57-0.003,0.858
		c0.022,0.931-0.563,1.847-1.416,2.218c-0.527-0.285-0.844-0.846-1.32-1.21c-0.476-0.362-1.321-0.412-1.542,0.145
		c-0.868-0.229-0.956-1.471-0.573-2.282c0.383-0.812,1.051-1.541,1.075-2.438c0.008-0.306-0.051-0.648,0.141-0.886
		c0.308-0.383,0.91-0.146,1.368,0.034c0.989,0.39,2.087,0.344,3.148,0.294c0.343-0.017,0.687-0.033,1.03-0.049
		c0.579-0.028,1.203-0.072,1.647-0.445c0.131-0.11,0.242-0.247,0.392-0.33c0.483-0.267,1.053,0.131,1.46,0.502"/>
	<path fill="#44A84F" d="M63.718,12.333c-0.062-0.807,0.037-1.626,0.292-2.394c0.039-0.119,0.092-0.248,0.206-0.301
		c0.12-0.057,0.26-0.004,0.389,0.031c0.645,0.178,1.392-0.14,1.713-0.726c0.16-0.293,0.219-0.631,0.354-0.936
		c0.496-1.123,1.846-1.54,3.04-1.831c-0.254,0.598-0.648,1.136-1.141,1.559c-0.18,0.153-0.381,0.304-0.462,0.526
		c-0.142,0.386,0.165,0.819,0.548,0.967c0.384,0.148,0.812,0.089,1.219,0.028c-0.446,1.116-2.234,1.367-2.412,2.558
		c-0.066,0.442,0.129,0.907-0.011,1.331c-0.149,0.454-0.62,0.701-0.982,1.012c-1.248,1.073-1.401,3.186-2.869,3.929
		c-0.634-0.404-0.837-1.256-0.753-2.002c0.085-0.747,0.396-1.449,0.563-2.183c0.274-1.202,0.156-2.457,0.29-3.683
		c0.025-0.234,0.075-0.493,0.267-0.63c0.192-0.137,0.545-0.001,0.5,0.229"/>
</g>
</svg>
