<?xml version="1.0" encoding="utf-8"?>
<!-- Generator: Adobe Illustrator 16.0.2, SVG Export Plug-In . SVG Version: 6.00 Build 0)  -->
<!DOCTYPE svg PUBLIC "-//W3C//DTD SVG 1.1//EN" "http://www.w3.org/Graphics/SVG/1.1/DTD/svg11.dtd">
<svg version="1.1" id="Layer_1" xmlns="http://www.w3.org/2000/svg" xmlns:xlink="http://www.w3.org/1999/xlink" x="0px" y="0px"
	 width="56.507px" height="49.17px" viewBox="0 0 56.507 49.17" enable-background="new 0 0 56.507 49.17" xml:space="preserve">
<g>
	<path fill="#FFEDD5" d="M35.317,4.18c-2.794-3.354-7.573-4.911-11.807-3.851c-1.301,0.326-2.535,0.874-3.754,1.436
		c-1.544,0.71-3.306,1.78-3.336,3.479c-0.025,1.335,1.094,2.561,0.839,3.871c-0.296,1.517-2.198,2.154-2.87,3.544
		c-0.449,0.93-0.226,2.139,0.527,2.845c0.979,0.922,2.648,0.992,3.36,2.133c1.102,1.761-1.113,4.237-0.087,6.043
		c0.427,0.751,1.367,1.136,2.222,1.006c0.854-0.13,1.6-0.72,2.026-1.47c0.159-0.278,0.283-0.584,0.509-0.811
		c0.618-0.62,1.669-0.38,2.45,0.014c0.782,0.396,1.604,0.922,2.461,0.742c0.995-0.209,1.569-1.52,1.046-2.393
		c-0.543-0.906-1.824-1.086-2.497-1.9c-0.774-0.938-0.446-2.431,0.39-3.314s2.035-1.309,3.186-1.703
		c0.618-0.212,1.236-0.424,1.854-0.636c1.159-0.398,2.548-1.113,2.484-2.338c-0.049-0.949-0.979-1.583-1.418-2.427
		c-0.657-1.265,0.054-3.036,1.402-3.497c0.296-0.101,0.621-0.149,0.868-0.343c0.247-0.192-0.421-1.082-0.655-1.29"/>
	<path fill="#F4D49D" d="M17.769,2.103c-2.53-0.154-4.252,1.448-5.289,3.386c-0.216,0.403-0.386,0.844-0.703,1.174
		c-0.924,0.967-2.511,0.568-3.832,0.771c-2.042,0.314-3.611,2.464-3.288,4.504c0.224,1.415,1.214,2.737,0.948,4.145
		c-0.198,1.052-1.045,1.834-1.726,2.659c-0.68,0.826-1.24,1.975-0.766,2.934c0.858,1.739,4.012,1.006,4.909,2.724
		c0.535,1.023-0.094,2.346,0.368,3.403c0.315,0.719,1.054,1.139,1.745,1.509c0.166,0.089,0.342,0.18,0.53,0.18
		c0.451-0.001,0.733-0.495,1.15-0.664c0.805-0.325,1.557,0.636,2.416,0.741c1.48,0.182,2.246-2.091,3.733-2.192
		c0.329-0.023,0.655,0.068,0.966,0.18c0.709,0.253,1.385,0.609,2.121,0.766c0.736,0.157,1.58,0.077,2.122-0.444
		c0.534-0.514,0.651-1.313,0.714-2.051c0.028-0.317,0.042-0.668-0.15-0.922c-0.408-0.538-1.241-0.191-1.908-0.084
		c-1.086,0.175-2.243-0.565-2.539-1.625c-0.453-1.625,0.945-3.446,0.218-4.97c-0.769-1.606-3.29-1.587-4.213-3.11
		c-0.609-1.004-0.277-2.334,0.36-3.32c0.639-0.987,1.545-1.776,2.196-2.754c1.028-1.539,1.36-3.524,0.89-5.313
		C18.562,3.043,18.853,2.169,17.769,2.103"/>
	<path fill="#FFEDD5" d="M41.082,23.531c-0.775-0.768-1.549-1.534-2.324-2.301c-0.257-0.254-0.527-0.517-0.873-0.622
		c-0.364-0.109-0.754-0.028-1.133,0.002c-1.133,0.089-2.244-0.289-3.322-0.649c-1.078-0.359-2.205-0.709-3.331-0.563
		c-1.127,0.147-2.253,0.937-2.41,2.063c-0.051,0.36-0.04,0.803-0.353,0.987c-0.201,0.117-0.454,0.07-0.679,0.014
		c-0.997-0.254-1.964-0.637-2.979-0.802c-1.016-0.166-2.126-0.089-2.966,0.505c-0.839,0.594-1.285,1.808-0.781,2.705
		c0.211,0.376,0.557,0.656,0.905,0.912c0.835,0.608,1.741,1.121,2.693,1.521c0.675,0.284,1.468,0.508,2.114,0.166
		c0.625-0.331,0.892-1.066,1.326-1.624c0.752-0.961,2.13-1.379,3.289-0.997c1.18,0.39,2.107,1.501,3.347,1.551
		c0.678,0.028,1.317-0.273,1.972-0.447s1.441-0.187,1.911,0.303c0.392,0.409,0.432,1.027,0.603,1.567
		c0.561,1.762,2.915,2.67,4.513,1.737c1.598-0.932,1.966-3.429,0.707-4.783c-0.965-1.037-2.575-1.355-3.389-2.516"/>
	<path fill="#44A84F" d="M7.783,11.317c0.612-1.63,1.646-2.723,2.196-2.981c0.549-0.261,1.165-0.365,1.697-0.655
		c0.966-0.527,1.512-1.57,2.001-2.555c0.188-0.377,1.075-1.646,0.851-2c-0.131-0.206-0.585-0.218-1.306,0.413
		c-1.382,1.214-3.83,0.104-4.89,1.606C7.756,5.963,7.45,6.995,6.676,7.629C5.751,8.385,4.421,8.363,3.339,8.87
		c-2.125,0.994-2.782,3.87-2.045,6.098c0.614,1.851,1.991,3.547,1.835,5.49c-0.072,0.893-0.468,1.724-0.882,2.517
		c-0.715,1.373-1.51,2.722-1.942,4.208s-0.466,3.165,0.304,4.508c1.698,2.968,6.321,3.025,8.213,5.873
		c0.397,0.599,0.645,1.284,0.991,1.914c1.326,2.408,3.953,3.767,6.496,4.808c1.276,0.522,2.657,1.009,4.008,0.727
		c1.35-0.282,2.563-1.644,2.18-2.968c-0.163-0.564-0.572-1.019-0.97-1.45l-4.557-4.956c-0.938-1.021-1.947-2.319-1.555-3.649
		c0.201-0.678,0.759-1.349,0.496-2.006c-0.193-0.484-0.762-0.7-1.28-0.749c-0.518-0.049-1.055,0.013-1.549-0.151
		c-1.669-0.554-1.626-3.014-2.863-4.265c-1.025-1.037-2.835-1.12-3.64-2.337c-0.448-0.676-0.465-1.54-0.466-2.352
		C6.108,17.096,6.155,13.876,7.783,11.317"/>
	<path fill="#9BC53D" d="M18.273,43.917c0.365-1.469,1.16-1.126,2.665-1.287c1.506-0.161,3.012,0.204,4.522,0.305
		c1.776,0.117,3.606-0.146,5.183-0.973c0.523-0.274,1.021-0.609,1.578-0.81c1.26-0.453,2.676-0.16,3.976-0.485
		c2.377-0.594,3.907-3.102,6.283-3.699c1.086-0.271,2.24-0.111,3.334-0.349c1.92-0.414,3.407-2.021,4.197-3.819
		c0.789-1.799,0.992-3.791,1.185-5.746c0.081-0.816,0.162-1.634,0.242-2.45c0.082-0.827,0.164-1.661,0.071-2.487
		c-0.235-2.083-0.514-3.664-2.129-5c-1.616-1.337-1.262-2.66-2.416-4.06c-0.484-0.585-4.194-5.368-4.738-5.897
		c-0.544-0.53-0.26-1.693,1.474-1.404c0.745,0.124,3.289,1.394,4.251,2.189c1.984,1.638,1.942,4.563,3.793,6.351
		s3.964,4.216,4.395,6.753c0.663,3.917,0.578,5.922-1.506,10.634c-0.484,1.094-3.031,4.473-3.184,5.657
		c-0.277,2.17-0.338,3.877-1.556,5.695c-0.959,1.431-2.029,2.915-3.615,3.589c-1.475,0.627-3.147,0.448-4.751,0.47
		c-3.761,0.054-7.4,1.271-11.12,1.826c-3.721,0.556-7.86,0.329-10.745-2.085c-0.966-0.809-1.792-2.126-1.273-3.274
		c0.342-0.76,1.193-1.186,2.023-1.254s1.653,0.157,2.455,0.383"/>
	<path fill="#FFEDD5" d="M32.313,36.379c-0.379,1.441-0.756,2.882-1.134,4.324c-0.152,0.585-0.311,1.181-0.638,1.69
		c-0.833,1.298-2.619,1.723-4.115,1.351c-0.687-0.171-1.351-0.483-2.059-0.491c-0.518-0.006-1.021,0.152-1.533,0.225
		c-2.61,0.368-5.159-1.669-5.94-4.188c-0.229-0.741-0.347-1.541-0.79-2.179c-0.371-0.535-0.936-0.898-1.429-1.324
		c-1.477-1.273-2.358-3.359-1.815-5.232c0.107-0.373,0.278-0.745,0.582-0.988c0.248-0.199,0.562-0.294,0.837-0.454
		c0.752-0.439,1.151-1.322,1.886-1.792c0.898-0.576,2.066-0.404,3.118-0.211c1.652,0.304,3.456,0.696,4.489,2.021
		c1.012,1.3,1.032,3.215,2.182,4.395c1.051,1.078,2.698,1.211,4.161,1.562c0.975,0.234,2.11,0.87,2.015,1.868"/>
	<path fill="#F4D49D" d="M25.305,27.041c0.823-0.117,0.541-1.049,1.042-1.676c0.11-0.137,0.249-0.251,0.387-0.363
		c0.788-0.638,1.621-1.261,2.604-1.581c0.982-0.319,2.153-0.292,3.018,0.305c0.563,0.388,0.953,0.979,1.534,1.341
		c0.863,0.536,1.969,0.464,2.952,0.258c0.982-0.206,1.966-0.527,2.976-0.422c1.011,0.105,2.073,0.813,2.125,1.786
		c0.029,0.538-0.249,1.089-0.045,1.597c0.245,0.61,1.02,0.809,1.628,1.104c1.249,0.603,2.06,1.941,2.063,3.266
		c0.004,1.324-0.76,2.583-1.9,3.293c-0.389,0.243-0.834,0.439-1.097,0.808c-0.353,0.494-0.284,1.156-0.25,1.765
		c0.094,1.655-0.173,3.317-0.777,4.85c-0.181,0.459-0.399,0.918-0.762,1.263c-0.679,0.648-1.722,0.778-2.688,0.875
		c-1.504,0.15-3.074,0.293-4.507-0.231c-2.318-0.85-3.914-3.318-6.359-3.605c-0.686-0.08-1.384,0.026-2.061-0.111
		c-1.478-0.303-2.482-1.679-3.009-3.043c-0.664-1.724-0.989-3.814-2.639-4.762c-0.71-0.406-1.623-0.564-2.094-1.218
		c-0.357-0.497-0.346-1.144-0.278-1.735c0.246-2.167,1.461-4.585,3.723-4.805C22.619,25.83,22.983,27.371,25.305,27.041"/>
	<path fill="#FFEDD5" d="M39.657,22.948c0.692,0.063,1.177-0.683,1.337-1.358s0.196-1.44,0.68-1.938
		c0.271-0.277,0.643-0.427,1.01-0.547c1.33-0.433,2.757-0.57,4.146-0.399c0.827,0.102,2.005,0.063,2.088-0.766
		c0.02-0.186-0.033-0.385,0.043-0.557c0.144-0.324,0.607-0.316,0.945-0.208c1.743,0.566,2.872,2.584,2.44,4.366
		c-0.128,0.528-0.373,1.044-0.332,1.585c0.031,0.399,0.218,0.767,0.377,1.134c0.947,2.179,1.044,4.715,0.264,6.959
		c-0.303,0.871-0.751,1.721-1.466,2.302c-0.697,0.566-1.608,0.846-2.237,1.486c-0.679,0.691-0.933,1.706-1.577,2.429
		c-0.737,0.827-0.358,1.107-3.028,2.195c-1.026,0.418-0.929,0.291-3.6,0.966c-7.569,1.914-2.726-2.037-2.939-2.57
		c-0.532-1.331,2.528-3.317,1.975-4.64c-0.263-0.627-0.038-1.364,0.349-1.923c0.386-0.56,0.919-1,1.366-1.513
		c0.554-0.638,0.975-1.391,1.225-2.197c0.144-0.465,0.226-0.995-0.011-1.422c-0.257-0.463-0.802-0.663-1.265-0.921
		c-0.807-0.453-1.454-1.186-1.805-2.042c0.125-0.151,0.25-0.302,0.375-0.453"/>
	<path fill="#F4D49D" d="M49.769,17.834c0.357-0.524,0.387-0.573,0.087-1.197c-0.272-0.568-1.835-1.56-1.736-2.182
		c0.303-1.915-0.606-3.959-2.219-4.992c-0.968-0.621-2.158-0.907-2.973-1.721c-0.549-0.548-0.874-1.286-1.388-1.865
		c-0.511-0.576-1.183-0.974-1.844-1.361c-1.502-0.881-3.295-1.786-4.901-1.095c-0.885,0.38-1.516,1.177-2.097,1.95
		c-0.435,0.581-0.887,1.243-0.81,1.965c0.115,1.065,1.308,1.677,1.66,2.688c0.396,1.135-0.433,2.402-1.491,2.968
		c-1.059,0.567-2.294,0.64-3.474,0.835c-1.181,0.195-2.432,0.586-3.145,1.56c-0.623,0.85-0.705,2.038-0.309,3.009
		c0.395,0.972,1.225,1.725,2.181,2.138c0.785,0.338,1.751,0.442,2.459-0.05c0.174-0.12,0.328-0.273,0.517-0.368
		c0.847-0.424,1.695,0.47,2.445,1.04c1.267,0.963,3.121,1.058,4.49,0.229c0.199-0.121,0.398-0.264,0.63-0.283
		c0.925-0.084,0.945,1.519,1.749,1.981c0.768,0.442,1.66-0.423,1.974-1.263c0.314-0.84,0.501-1.862,1.289-2.278
		c0.364-0.191,0.791-0.207,1.201-0.198c0.913,0.021,1.821,0.002,2.736,0.016C48.537,19.386,49.769,17.834,49.769,17.834"/>
</g>
</svg>
