<?xml version="1.0" encoding="utf-8"?>
<!-- Generator: Adobe Illustrator 16.0.2, SVG Export Plug-In . SVG Version: 6.00 Build 0)  -->
<!DOCTYPE svg PUBLIC "-//W3C//DTD SVG 1.1//EN" "http://www.w3.org/Graphics/SVG/1.1/DTD/svg11.dtd">
<svg version="1.1" id="Layer_1" xmlns="http://www.w3.org/2000/svg" xmlns:xlink="http://www.w3.org/1999/xlink" x="0px" y="0px"
	 width="54.013px" height="51.017px" viewBox="0 0 54.013 51.017" enable-background="new 0 0 54.013 51.017" xml:space="preserve">
<g>
	<path fill="#D5E078" d="M53.657,20.025c-0.85,0.076-1.03-1.666-1.384-2.444c-0.47-1.035-1.841-1.307-2.962-1.118
		c-1.121,0.189-2.196,0.695-3.332,0.68c-1.137-0.016-2.405-0.86-2.276-1.989c-3.096-0.005-6.193,0.369-9.19,1.147
		c-1.714,0.446-3.563,1.163-4.347,2.752c-1.065,2.158,0.354,4.76-0.06,7.132c-0.218,1.253-0.942,2.365-1.799,3.306
		c-0.294,0.322-0.616,0.649-0.717,1.072c-0.063,0.269-0.03,0.549,0.003,0.823c0.178,1.457,0.355,2.914,0.535,4.372
		c0.149,1.232,0.04,2.878-1.162,3.188c0.692,0.09,0.979,0.943,0.992,1.642c0.013,0.699-0.066,1.49,0.408,2.003
		c0.229,0.247,0.554,0.384,0.817,0.594c1.041,0.825,0.609,2.817-0.681,3.138c1.062,0.451,2.115,0.92,3.162,1.405
		c-0.316,0.66-1.166,0.888-1.891,0.798c-0.725-0.089-1.402-0.412-2.121-0.547c-1.475-0.276-3.08,0.326-4.01,1.503
		c-0.301,0.381-0.541,0.82-0.922,1.12c-0.962,0.755-2.356,0.338-3.494-0.11c-2.037-0.801-4.243-1.751-5.243-3.698
		c-0.413-0.804-0.603-1.755-1.252-2.385c-0.397-0.385-0.925-0.604-1.442-0.801c-1.518-0.578-3.174-1.124-4.136-2.432
		c-0.725-0.985-0.934-2.255-1.496-3.342c-0.638-1.236-1.711-2.201-2.396-3.412c-1.097-1.935-1.099-4.295-0.844-6.504
		c0.47-4.094,1.706-8.055,2.935-11.987c1.01-3.23,2.065-6.547,4.205-9.168c0.386-0.475,0.814-0.93,1.347-1.23
		c0.675-0.382,1.464-0.491,2.208-0.707c2.94-0.854,5.15-3.375,8.057-4.337c2.271-0.752,4.738-0.479,7.115-0.198
		c2.652,0.313,5.333,0.633,7.844,1.549c1.777,0.649,3.435,1.584,5.083,2.516c1.832,1.036,3.663,2.07,5.495,3.105
		c0.912,0.517,1.949,1.24,1.913,2.287c0.842-0.057,1.693,0.452,2.039,1.221c0.348,0.769,0.166,1.744-0.433,2.337
		c1.408,1.395,2.609,2.996,3.553,4.738c0.35,0.646,0.367,1.803-0.365,1.749"/>
	<path fill="#CBD363" d="M9.033,8.883C8.524,8.636,8.02,9.217,7.749,9.713c-0.375,0.688-0.751,1.376-1.126,2.063
		c-0.162,0.298-0.331,0.603-0.591,0.819c-0.374,0.31-0.88,0.394-1.341,0.549c-1.483,0.501-2.62,1.904-2.801,3.459
		c-0.084,0.71,0,1.492-0.411,2.076c-0.214,0.302-0.536,0.51-0.767,0.8c-0.376,0.475-0.464,1.108-0.538,1.708
		c-0.149,1.212-0.299,2.455-0.008,3.642c0.107,0.433,0.271,0.854,0.306,1.298c0.034,0.43-0.054,0.857-0.11,1.285
		c-0.285,2.106,0.173,4.235,0.628,6.313c0.109,0.501,0.224,1.015,0.502,1.447c0.67,1.044,2.107,1.359,2.837,2.362
		c0.541,0.743,0.597,1.725,0.938,2.577c0.492,1.229,1.549,2.128,2.565,2.976c1.508,1.256,3.06,2.537,4.911,3.185
		c0.551,0.192,1.26,0.285,1.633-0.164c0.382-0.461,0.128-1.176-0.265-1.629c-0.867-1-2.22-1.391-3.417-1.957
		c-1.967-0.93-3.65-2.451-4.774-4.313c-0.681-1.127-1.155-2.366-1.565-3.618c-0.84-2.561-1.429-5.284-0.991-7.943
		c0.145-0.879,0.399-1.734,0.653-2.589c0.948-3.192,1.897-6.384,2.847-9.576c0.591-1.987,1.188-3.991,2.158-5.823"/>
	<path fill="#D5E078" d="M50.468,16.959c0.385,3.017,1.698,5.874,1.914,8.907c0.178,2.493-0.402,4.999-1.392,7.294
		c-0.989,2.294-2.376,4.396-3.863,6.404c-0.708,0.956-1.454,1.905-2.409,2.614c-0.955,0.711-2.082,1.149-3.193,1.579
		c-3.928,1.521-7.983,3.065-12.195,2.97c-0.357-0.01-0.751-0.045-1.001-0.3c-0.297-0.301-0.271-0.813-0.053-1.176
		c0.217-0.362,0.582-0.605,0.939-0.83c1.854-1.158,3.851-2.087,5.93-2.76c-0.849-0.193-1.763-0.425-2.308-1.103
		c-0.546-0.678-0.394-1.938,0.452-2.142c0.521-0.126,1.313,0.037,1.404-0.492c0.078-0.443-0.515-0.651-0.953-0.762
		c-1.419-0.357-2.577-1.591-2.842-3.03c-0.267-1.438,0.376-3.005,1.573-3.845c0.36-0.252,0.769-0.447,1.063-0.773
		c0.626-0.692,0.563-1.766,0.293-2.658c-0.168-0.56-0.405-1.126-0.322-1.704c0.164-1.14,1.489-1.831,1.68-2.966
		c0.13-0.777-0.298-1.653,0.118-2.321c0.259-0.415,0.774-0.612,1.035-1.024c0.404-0.638,0.047-1.499,0.271-2.22
		c0.179-0.574,0.713-0.98,1.284-1.164c0.571-0.185,1.184-0.182,1.785-0.177c0.637,0.004,1.274,0.009,1.911,0.014
		c0.261,0.002,0.528,0.005,0.77,0.105c0.235,0.098,0.423,0.278,0.621,0.438c0.768,0.624,1.762,0.964,2.752,0.942
		c0.885-0.02,1.744-0.315,2.627-0.365c0.884-0.05,1.888,0.234,2.29,1.023"/>
	<path fill="#CBD363" d="M28.908,45.525l4.905-2.921c0.125-0.074,1.871-0.646,1.957-0.766c0.564-0.781-2.209-1.115-3.109-1.366
		c-0.478-0.599,0.419-1.331,1.152-1.556c0.863-0.266,2.001-1.121,0.896-1.865c-0.066-0.045-0.146-0.067-0.228-0.068
		c-2.653-0.04-4.935-4.636-2.613-5.915c2.886-1.589,2.726-3.058,3.087-5.213c0.25-1.485-0.447-3.44,0.828-4.242
		c0.416-0.261,0.962-0.306,1.309-0.652c0.761-0.763-0.078-2.113,0.3-3.121c0.283-0.757,1.15-1.088,1.921-1.331
		c1.394-0.441,3.961,0.172,5.354-0.269c-6.399-7.647-10.536-1.015-14.204,1.735c-0.607,0.455-1.197,0.974-1.532,1.657
		c-0.78,1.592,0.047,3.475,0.004,5.248c-0.059,2.365-1.679,4.476-1.759,6.841c-0.047,1.378,0.436,2.722,0.505,4.099
		c0.049,0.998-0.486,2.402-1.168,3.134c-1.356,1.453,0.263,2.123,0.833,3.81c0.431,1.275,0.271,2.318,1.597,3.073
		c2.608,1.484,7.025,0.188,9.444-0.643c0.345-0.013,0.367,0.185,0.381,0.357c0.046,0.604,0.081,1.257-0.248,1.765
		c-0.386,0.599-1.149,0.81-1.848,0.944c-2.685,0.52-5.432,0.609-8.163,0.696c-0.37,0.012-0.748,0.021-1.1-0.094
		c-0.351-0.114-0.676-0.382-0.753-0.743"/>
	<path fill="#FFF6DA" d="M27.892,48.354c-4.338-1.146-8.603-2.564-12.761-4.246c-1.623-0.656-3.255-1.367-4.605-2.481
		c-2.576-2.123-3.847-5.51-4.112-8.838c-0.266-3.329,0.36-6.657,0.983-9.937c0.861-4.535,1.723-9.07,2.585-13.605
		c0.258-1.36,0.559-2.805,1.528-3.793c0.767,0.473,0.553,1.622,0.259,2.473c-2.43,7.016-3.858,14.376-4.23,21.791
		c-0.164,3.288,0.01,6.938,2.28,9.321c0.896,0.94,2.043,1.593,3.173,2.232c2.486,1.405,5.018,2.83,7.805,3.455
		c2.281,0.512,4.76,0.503,6.754,1.725c0.338,0.207,0.684,0.493,0.726,0.887c0.077,0.729-0.847,1.092-1.569,1.212
		c-0.385,0.063-0.8,0.122-1.147-0.052c-0.35-0.175-0.548-0.687-0.274-0.965"/>
	<path fill="#CBD363" d="M31.643,46.74c2.404-0.784,4.808-1.631,7.004-2.887c6.438-3.682,10.623-11.003,10.528-18.419
		c-0.028-2.32-0.443-4.619-0.544-6.937c-0.04-0.94,0.414-2.257,1.323-2.013c1.929,4.779,2.735,10.008,2.336,15.147
		c-0.098,1.258-0.275,2.539-0.841,3.667c-1.05,2.096-3.24,3.332-4.849,5.037c-0.748,0.792-1.379,1.695-2.18,2.436
		c-1.669,1.54-3.928,2.235-6.104,2.884c-1.776,0.529-3.552,1.06-5.327,1.589c-0.358,0.106-0.777,0.204-1.079-0.017
		c-0.301-0.221-0.151-0.862,0.211-0.767"/>
	<path fill="#FFF6DA" d="M49.34,16.861c-2.323-3.466-6.107-5.779-10.122-6.915c-4.016-1.135-8.266-1.175-12.42-0.798
		c-4.096,0.372-8.574,1.057-12.029-1.172c5.366,0.557,10.77,0.757,16.163,0.598c2.084-0.061,4.18-0.175,6.246,0.104
		c4.95,0.667,9.526,3.711,12.056,8.02"/>
	<path fill="#FFF6DA" d="M7.27,27.327c1.819-1.571,3.002-3.85,5.045-5.116c1.238-0.767,2.688-1.094,4.08-1.521
		c4.796-1.469,9.343-4.452,11.602-8.932c-3.378,4.2-8.286,6.849-13.171,9.129c-3.121,1.455-6.523,3.022-8.102,6.084
		c0.215,0.358,0.859,0.297,1.002-0.097"/>
	<path fill="#FFF6DA" d="M7.576,36.048c1.135-0.15,2.229,0.39,3.324,0.717c2.193,0.654,4.538,0.46,6.815,0.233
		c1.309-0.132,2.676-0.293,3.764-1.032c0.492-0.333,0.909-0.774,1.428-1.063c0.985-0.549,2.186-0.474,3.311-0.384
		c0.425,0.034,0.936,0.13,1.085,0.529c0.134,0.362-0.146,0.769-0.497,0.927c-0.354,0.158-0.754,0.14-1.14,0.148
		c-2.91,0.064-5.603,1.781-8.513,1.796c-1.492,0.008-2.953-0.437-4.444-0.479c-0.977-0.026-1.957,0.118-2.931,0.029
		c-0.973-0.089-1.99-0.466-2.528-1.283c0.341-0.29,0.834-0.389,1.259-0.254"/>
	<path fill="#FFF6DA" d="M46.983,35.618c-5.399-2.809-12.371-0.649-17.782-3.438c0.193-0.296,0.62-0.297,0.974-0.264
		c4.835,0.468,9.649,1.136,14.429,2.004c0.94,0.17,2.098,0.583,2.153,1.535c-0.224,0.148-0.515,0.194-0.773,0.122"/>
	<path fill="#FFF6DA" d="M49.333,27.064c-0.724-0.961-1.999-1.331-3.199-1.42s-2.42,0.041-3.601-0.189
		c-1.994-0.39-3.64-1.749-5.19-3.062c0.5,0.991,1.735,1.367,2.844,1.385c1.11,0.019,2.231-0.215,3.321-0.008
		c0.614,0.116,1.192,0.369,1.766,0.619c1.221,0.534,2.441,1.068,3.662,1.603c0.269,0.118,0.569,0.271,0.641,0.557
		c0.07,0.284-0.336,0.599-0.512,0.363"/>
</g>
</svg>
