<?xml version="1.0" encoding="utf-8"?>
<!-- Generator: Adobe Illustrator 16.0.2, SVG Export Plug-In . SVG Version: 6.00 Build 0)  -->
<!DOCTYPE svg PUBLIC "-//W3C//DTD SVG 1.1//EN" "http://www.w3.org/Graphics/SVG/1.1/DTD/svg11.dtd">
<svg version="1.1" id="Layer_1" xmlns="http://www.w3.org/2000/svg" xmlns:xlink="http://www.w3.org/1999/xlink" x="0px" y="0px"
	 width="51.074px" height="40.033px" viewBox="0 0 51.074 40.033" enable-background="new 0 0 51.074 40.033" xml:space="preserve">
<g>
	<path fill="#BD294C" d="M27.738,15.892c-8.05-1.042-16.394,0.313-23.701,3.849c-1.227,0.594-2.471,1.287-3.247,2.408
		c-1.486,2.146-0.728,5.252,1.045,7.168c1.772,1.916,4.306,2.909,6.77,3.772c6.495,2.275,13.157,4.081,19.92,5.361
		c0.489,0.094,0.988,0.184,1.481,0.112c1.123-0.164,1.945-1.108,2.661-1.988c0.775-0.954,1.586-1.998,1.65-3.226
		c0.13-2.477-2.636-3.965-4.004-6.034c-2.186-3.304-0.648-8.003-2.552-11.478c-0.24-0.438-0.923-0.841-1.139-0.391"/>
	<path fill="#FFF6DA" d="M26.324,15.408c2.517-1.53,5.255-3.117,8.191-2.881c1.285,0.104,2.661,0.681,3.168,1.865
		c0.205,0.48,0.247,1.014,0.379,1.52c0.531,2.033,2.408,3.379,4.156,4.548c1.375,0.92,2.75,1.84,4.124,2.76
		c1.401,0.938,2.996,2.498,2.267,4.018c-0.622,1.297-2.435,1.365-3.606,2.198c-1.786,1.271-1.68,3.894-2.421,5.955
		c-0.611,1.703-1.925,3.143-3.566,3.904c-2.578,1.2-5.59,0.697-8.384,0.17c-0.728-1.415,0.27-3.068,1.206-4.355
		c0.935-1.288,1.874-3.003,1.052-4.364c-0.644-1.066-2.077-1.347-2.954-2.23c-1.553-1.564-0.801-4.168-1.096-6.353
		c-0.355-2.64-2.366-4.905-2.404-7.567"/>
	<path fill="#BD294C" d="M19.13,7.799c3.839-2.476,7.725-4.975,12.04-6.475c4.315-1.499,9.169-1.925,13.41-0.229
		c2.292,0.916,4.388,2.488,5.563,4.659c1.175,2.172,1.305,4.973,0,7.067c-1.83,2.939-5.682,3.726-9.105,4.242
		c-3.708,0.56-7.593,1.104-11.129-0.145c-0.957-0.338-1.921-0.851-2.425-1.73c-0.427-0.744-0.467-1.648-0.799-2.439
		c-1.224-2.914-5.378-2.896-7.922-4.771"/>
	<path fill="#F4D49D" d="M19.159,8.263c-1.711-0.142-3.273,1.14-4.054,2.669c-0.78,1.528-0.963,3.279-1.237,4.975
		c-0.107,0.664-0.23,1.346-0.088,2.003c0.265,1.226,1.421,2.098,2.636,2.405c1.214,0.307,2.492,0.155,3.736,0.002
		c2.671-0.329,5.351-0.659,7.96-1.322c0.226-0.057,0.467-0.127,0.61-0.311c0.147-0.191,0.15-0.453,0.146-0.694
		c-0.02-1.268-0.041-2.536-0.061-3.804c-0.009-0.542-0.019-1.092-0.171-1.612c-0.394-1.344-1.644-2.235-2.853-2.941
		c-1.835-1.072-3.772-1.974-5.776-2.686c-0.093-0.033-0.189-0.066-0.288-0.058c-0.405,0.033-0.428,0.607-0.404,1.014
		c0.023,0.406-0.334,0.962-0.649,0.705"/>
</g>
</svg>
