<?xml version="1.0" encoding="utf-8"?>
<!-- Generator: Adobe Illustrator 16.0.2, SVG Export Plug-In . SVG Version: 6.00 Build 0)  -->
<!DOCTYPE svg PUBLIC "-//W3C//DTD SVG 1.1//EN" "http://www.w3.org/Graphics/SVG/1.1/DTD/svg11.dtd">
<svg version="1.1" id="Layer_1" xmlns="http://www.w3.org/2000/svg" xmlns:xlink="http://www.w3.org/1999/xlink" x="0px" y="0px"
	 width="46.675px" height="19.288px" viewBox="0 0 46.675 19.288" enable-background="new 0 0 46.675 19.288" xml:space="preserve">
<g>
	<path fill="#BD4D27" d="M0.919,18.076C0.356,16.935-0.002,15.679,0,14.409c0.001-1.067,0.255-2.121,0.615-3.126
		c1.218-3.401,3.736-6.349,6.977-7.943c2.117-1.042,4.466-1.499,6.78-1.946c2.109-0.406,4.22-0.814,6.356-1.04
		c1.931-0.202,3.874-0.257,5.814-0.31c1.941-0.054,3.893-0.106,5.815,0.164c2.277,0.32,4.467,1.088,6.625,1.885
		c1.503,0.557,3.026,1.145,4.277,2.146c1.326,1.062,2.275,2.545,2.869,4.137c0.63,1.691,0.848,3.683-0.079,5.233
		c-1.241,2.078-3.969,2.599-6.369,2.913c-1.554,0.204-3.106,0.408-4.659,0.613c-1.749,0.23-3.504,0.46-5.269,0.493
		c-1.28,0.024-2.565-0.056-3.844,0.036c-1.1,0.079-2.187,0.285-3.275,0.469c-6.461,1.092-13.053,1.411-19.59,0.949
		c-1.002-0.071-2.267-0.396-2.394-1.394"/>
	<path fill="#E18338" d="M24.476,11.757c0.827,0,0.828-1.285,0-1.285C23.648,10.472,23.647,11.757,24.476,11.757"/>
	<path fill="#FFEDD5" d="M23.924,12.008c0.827,0,0.828-1.285,0-1.285C23.098,10.723,23.097,12.008,23.924,12.008"/>
	<path fill="#FFEDD5" d="M34.493,9.33c0.116,0.314,0.148,0.587,0.111,0.922c0.271-0.206,0.542-0.413,0.813-0.619
		c0.048,0.08,0.097,0.161,0.145,0.241c0.156-0.809-1.082-1.154-1.239-0.342c-0.121,0.627,0.162,1.11,0.753,1.34
		c0.43,0.166,0.772-0.249,0.813-0.62c0.047-0.433-0.007-0.856-0.157-1.264C35.447,8.219,34.206,8.551,34.493,9.33"/>
	<path fill="#FFEDD5" d="M26.56,13.786c0.366,0.53,0.884,0.74,1.518,0.619c0.811-0.155,0.467-1.394-0.343-1.239
		c-0.031,0.009-0.054,0-0.065-0.028C27.202,12.461,26.088,13.104,26.56,13.786"/>
	<path fill="#FFEDD5" d="M40.67,13.618c0.039,0.167,0.078,0.334,0.117,0.501c0.188,0.805,1.427,0.464,1.238-0.342
		c-0.039-0.167-0.078-0.334-0.116-0.501C41.721,12.471,40.481,12.811,40.67,13.618"/>
	<path fill="#FFEDD5" d="M27.801,2.076c-0.239-0.039-0.479-0.078-0.718-0.117c-0.81-0.131-1.157,1.106-0.343,1.239
		c0.24,0.038,0.479,0.077,0.72,0.116C28.268,3.446,28.615,2.208,27.801,2.076"/>
	<path fill="#FFEDD5" d="M14.717,6.454c-0.05,0.135-0.1,0.268-0.15,0.401c-0.291,0.775,0.951,1.11,1.238,0.341
		c0.051-0.133,0.102-0.267,0.151-0.4C16.246,6.02,15.005,5.686,14.717,6.454"/>
	<path fill="#FFEDD5" d="M8.037,12.487c-0.033,0.089-0.067,0.178-0.101,0.268c-0.29,0.774,0.951,1.109,1.239,0.342
		c0.033-0.089,0.065-0.178,0.1-0.269C9.565,12.053,8.325,11.719,8.037,12.487"/>
	<path fill="#FFEDD5" d="M13.491,15.782c0.038,0.167,0.077,0.334,0.116,0.501c0.188,0.805,1.428,0.464,1.239-0.341l-0.117-0.501
		C14.542,14.636,13.303,14.976,13.491,15.782"/>
	<path fill="#FFEDD5" d="M6.445,6.066C6.543,6.141,6.6,6.253,6.638,6.367c0.26,0.78,1.501,0.445,1.238-0.342
		C7.724,5.566,7.474,5.249,7.094,4.958C6.816,4.745,6.377,4.917,6.215,5.187C6.019,5.516,6.171,5.856,6.445,6.066"/>
	<path fill="#FFEDD5" d="M39.305,6.684c0.089,0.033,0.178,0.067,0.267,0.101c0.775,0.29,1.11-0.951,0.342-1.239l-0.268-0.1
		C38.87,5.156,38.536,6.396,39.305,6.684"/>
	<path fill="#FFEDD5" d="M19.7,5.001L19.68,5.453c-0.038,0.826,1.247,0.825,1.284,0l0.021-0.451
		C21.022,4.175,19.737,4.176,19.7,5.001"/>
	<path fill="#FFEDD5" d="M1.636,15.299c0.067,0.228,0.134,0.457,0.2,0.685c0.231,0.792,1.472,0.455,1.239-0.342
		c-0.067-0.228-0.135-0.456-0.2-0.684C2.643,14.167,1.402,14.503,1.636,15.299"/>
	<path fill="#FFEDD5" d="M38.901,16.189c-0.009,0.115-0.043,0.236-0.115,0.329c-0.508,0.643,0.396,1.558,0.907,0.908
		c0.301-0.381,0.457-0.752,0.493-1.237C40.248,15.365,38.963,15.369,38.901,16.189"/>
</g>
</svg>
