<?xml version="1.0" encoding="utf-8"?>
<!-- Generator: Adobe Illustrator 16.0.2, SVG Export Plug-In . SVG Version: 6.00 Build 0)  -->
<!DOCTYPE svg PUBLIC "-//W3C//DTD SVG 1.1//EN" "http://www.w3.org/Graphics/SVG/1.1/DTD/svg11.dtd">
<svg version="1.1" id="Layer_1" xmlns="http://www.w3.org/2000/svg" xmlns:xlink="http://www.w3.org/1999/xlink" x="0px" y="0px"
	 width="33.256px" height="26.259px" viewBox="0 0 33.256 26.259" enable-background="new 0 0 33.256 26.259" xml:space="preserve">
<g>
	<path fill="#E18338" d="M16.394,15.127c0.146-0.742,1.116-1.42,1.87-1.372c0.756,0.047,1.545,0.428,1.949,1.067
		c0.403,0.64,0.903,1.492,0.99,2.244c0.094,0.816-0.305,1.959-0.746,2.652c-0.253,0.396-0.625,0.696-0.953,1.031
		c-0.734,0.752-1.3,1.727-2.25,2.179c-0.494,0.234-1.05,0.304-1.596,0.345c-4.779,0.359-9.678-1.219-13.349-4.301
		c-0.617-0.518-1.208-1.086-1.605-1.785c-0.319-0.562-0.502-1.192-0.604-1.829c-0.313-1.953,0.132-3.972,0.961-5.767
		c0.827-1.795,2.024-3.394,3.28-4.922c5.57-6.784,16.492-5.385,23.338-0.832c4.73,3.146,9.669,21.011,0.136,18.771
		c-1.086-0.257-2.031-0.909-2.921-1.582c-2.002-1.514-3.846-3.365-4.581-5.764c-0.08-0.26-0.269-0.488-0.455-0.687
		c-0.147-0.157-0.351-0.247-0.552-0.326c-0.506-0.201-1.053-0.359-1.592-0.276c-0.537,0.083-1.063,0.467-1.155,1.003"/>
	<path fill="#DE7229" d="M31.468,21.692c-1.146,1.534-2.387,3.145-4.179,3.821c-0.742,0.281-1.538,0.383-2.325,0.48
		c-1.699,0.211-3.429,0.412-5.114,0.115c-1.002-0.178-1.964-0.527-2.947-0.788c-1.269-0.336-2.693-0.6-3.49-1.643
		c-0.183-0.238-0.308-0.616-0.08-0.813c0.099-0.087,0.238-0.108,0.369-0.12c0.912-0.079,1.846,0.167,2.738-0.037
		c1.204-0.275,2.084-1.308,2.715-2.371c0.629-1.062,1.119-2.233,1.98-3.119c0.038-0.04,0.079-0.08,0.132-0.095
		c0.147-0.044,0.269,0.116,0.343,0.251c1.108,1.997,3.188,3.229,5.204,4.303c0.478,0.254,0.977,0.511,1.518,0.538
		c1.032,0.052,2.072-0.74,3.036-0.361"/>
	<path fill="#BD4D27" d="M15.188,16.193c0.634-0.077,1.158-0.575,1.413-1.159c0.255-0.585,0.277-1.244,0.23-1.88
		c-0.147-2.009-0.949-3.905-1.741-5.758c-0.195-0.457-0.396-0.923-0.728-1.291c-0.359-0.396-0.842-0.651-1.313-0.898
		c-0.661-0.345-1.33-0.692-2.052-0.883c-0.722-0.188-1.512-0.208-2.193,0.095C8.016,4.771,7.469,5.497,6.979,6.208
		C6.451,6.979,5.93,7.811,5.867,8.742c-0.033,0.497,0.066,0.992,0.106,1.489c0.062,0.767-0.019,1.539,0.021,2.307
		c0.041,0.769,0.22,1.565,0.723,2.148c0.449,0.521,1.105,0.813,1.753,1.051c1.371,0.503,2.804,0.837,4.257,0.991
		C13.634,16.824,14.267,16.759,15.188,16.193"/>
</g>
</svg>
