<?xml version="1.0" encoding="utf-8"?>
<!-- Generator: Adobe Illustrator 16.0.2, SVG Export Plug-In . SVG Version: 6.00 Build 0)  -->
<!DOCTYPE svg PUBLIC "-//W3C//DTD SVG 1.1//EN" "http://www.w3.org/Graphics/SVG/1.1/DTD/svg11.dtd">
<svg version="1.1" id="Layer_1" xmlns="http://www.w3.org/2000/svg" xmlns:xlink="http://www.w3.org/1999/xlink" x="0px" y="0px"
	 width="31.485px" height="132.908px" viewBox="0 0 31.485 132.908" enable-background="new 0 0 31.485 132.908"
	 xml:space="preserve">
<g>
	<path fill="#F47E6F" d="M25.281,56.681c3.356,5.167,3.619,12.129,4.661,18.522c0.491,3.024,1.188,6.012,1.434,9.079
		c0.391,4.88-0.369,9.773-0.566,14.671c-0.327,8.158,0.909,16.351,0.266,24.483c-0.173,2.187-0.54,4.501-1.824,6.09
		c-1.353,1.677-3.422,2.182-5.363,2.51c-4.554,0.769-9.169,1.03-13.763,0.778c-2.802-0.152-5.895-0.673-7.704-3.202
		c-1.437-2.011-1.703-4.818-1.794-7.446c-0.141-4.091-0.007-8.188,0.127-12.278c0.332-10.13,0.663-20.26,0.995-30.389
		c0.078-2.399,0.158-4.807,0.517-7.168c0.313-2.056,0.835-4.057,1.356-6.051c0.795-3.047,1.072-6.386,1.867-9.432
		c0.158-0.606,0.854-0.955,1.263-1.368c0.544-0.55,1.336-0.543,2.052-0.506l12.988,0.658c1.375,0.07,2.951,0.263,3.739,1.595"/>
	<path fill="#D2A12A" d="M10.769,18.508c0.264-0.367-0.215-0.807-0.526-1.116c-0.794-0.79-0.631-2.246-0.495-3.462
		c0.236-2.105,0.174-4.239,0.101-6.361C9.787,5.768,9.748,3.833,10.59,2.331c0.825-1.47,2.361-2.208,3.853-2.314
		c1.49-0.105,2.968,0.33,4.416,0.763c0.534,0.16,1.105,0.346,1.459,0.847c0.273,0.39,0.369,0.908,0.456,1.405
		c0.706,4.047,1.414,8.119,1.498,12.25c0.015,0.681,0.002,1.405-0.313,1.978c-0.185,0.333-0.457,0.586-0.656,0.908
		c-0.318,0.515-0.428,1.17-0.477,1.806c-0.251,3.278,0.844,6.467,1.296,9.714c0.355,2.557,0.313,5.162,0.387,7.751
		c0.192,6.712,1.189,13.39,2.95,19.774c-1.239,0.472-2.728-0.325-3.834,0.484c-0.363,0.265-0.63,0.673-0.916,1.047
		c-0.902,1.182-2.054,2.098-3.322,2.64c-0.553,0.236-1.157,0.402-1.725,0.226c-0.437-0.136-0.813-0.463-1.235-0.648
		c-1.381-0.607-3.25,0.246-4.209-1.073c-0.204-0.28-0.33-0.627-0.508-0.931c-0.89-1.53-2.736-1.637-4.308-1.589
		c2.229-5.644,2.982-11.918,3.645-18.096c0.735-6.854,1.391-13.722,1.967-20.598"/>
	<path fill="#FFEDD5" d="M1.535,89.426c8.153,1.313,15.372,1.169,23.616,1.159c2.368-0.003,3.896-0.073,6.136-0.898
		c0.188,2.428-0.209,6.031-0.209,8.467c0,7.903,0.313,12.871,0.365,20.754c0.001,0.187,0.032,0.382-0.034,0.555
		c-0.222,0.578-0.999,0.396-1.574,0.323c-1.115-0.145-2.161,0.521-3.226,0.908c-1.267,0.462-2.622,0.533-3.958,0.584
		c-7.322,0.277-14.879-0.017-21.587-3.199c-0.18-0.086-0.37-0.184-0.475-0.362c-0.078-0.133-0.1-0.295-0.119-0.451
		c-0.309-2.461-0.617-4.95-0.395-7.422c0.109-1.212,0.347-2.407,0.477-3.617c0.621-5.763-0.115-11.513,0.862-17.217"/>
</g>
</svg>
