<?xml version="1.0" encoding="utf-8"?>
<!-- Generator: Adobe Illustrator 16.0.2, SVG Export Plug-In . SVG Version: 6.00 Build 0)  -->
<!DOCTYPE svg PUBLIC "-//W3C//DTD SVG 1.1//EN" "http://www.w3.org/Graphics/SVG/1.1/DTD/svg11.dtd">
<svg version="1.1" id="Layer_1" xmlns="http://www.w3.org/2000/svg" xmlns:xlink="http://www.w3.org/1999/xlink" x="0px" y="0px"
	 width="47.11px" height="83.931px" viewBox="0 0 47.11 83.931" enable-background="new 0 0 47.11 83.931" xml:space="preserve">
<g>
	<path fill="#F4D49D" d="M46.255,44.221c-0.22,2.265-0.552,4.521-0.677,6.793c-0.308,5.569,0.624,11.146,0.4,16.718
		c-0.173,4.292-1.036,8.555-2.547,12.575c-0.246,0.653-0.521,1.319-1.019,1.806c-0.84,0.821-2.113,0.961-3.284,1.056
		C27.297,84.13,14.912,85.007,4.01,80.312c-0.391-0.168-0.797-0.357-1.048-0.7c-0.247-0.338-0.307-0.772-0.359-1.186
		c-0.181-1.451-0.36-2.92-0.884-4.285c-0.492-1.282-1.283-2.456-1.575-3.798c-0.229-1.046-0.138-2.131-0.048-3.197
		c0.716-8.429,0.041-17.04,0.757-25.469c0.457-5.408-1.124-10.753,0.598-16.064c0.437-1.347,1.023-2.639,1.567-3.946
		c1.287-3.091,2.34-6.277,3.157-9.524c0.527-2.095,1.095-1.555,3.135-1.552c1.737,0.002,3.486-0.122,5.151-0.651
		c0.807-0.257,1.585-0.604,2.404-0.815c1.056-0.272,2.156-0.313,3.246-0.31c2.69,0.008,5.372,0.272,8.048,0.536
		c3.992,0.393,7.984,0.786,11.975,1.18c2.262,0.223,2.907,4.873,3.479,6.78c0.878,2.928,1.565,5.914,2.055,8.931
		C46.632,32.177,46.837,38.236,46.255,44.221"/>
	<path fill="#2C3A96" d="M40.774,1.591c0.916-0.021,1.707,0.725,2.038,1.579c0.33,0.854,0.3,1.8,0.264,2.715
		c-0.011,0.292-0.032,0.608-0.222,0.83c-0.265,0.309-0.736,0.305-1.143,0.276c-10.485-0.75-20.992-1.205-31.503-1.363
		C8.323,5.599,6.374,5.592,4.643,6.339C4.426,4.967,4.61,3.534,5.166,2.262c0.145-0.333,0.325-0.667,0.613-0.889
		c0.338-0.261,0.78-0.335,1.203-0.394c2.813-0.392,5.659-0.453,8.499-0.513c8.448-0.178,16.962-0.352,25.283,1.123"/>
	<path fill="#2C3A96" d="M42.738,7.315c0.511,0.379,0.506,0.797,0.712,1.399c-8.514,0.62-17.038-0.998-25.575-0.94
		C13.9,7.801,9.937,8.191,5.973,8.485C5.379,8.529,4.632,8.484,4.398,7.936C4.24,7.564,4.427,7.117,4.736,6.857
		c0.31-0.26,0.714-0.371,1.107-0.463c2.48-0.581,5.048-0.646,7.594-0.667c8.142-0.068,16.288,0.292,24.393,1.077
		C39.467,6.963,41.103,7.139,42.738,7.315"/>
	<path fill="#2C3A96" d="M42.618,8.773c0.651,0.211,0.597,1.257,0.045,1.663c-0.552,0.405-1.303,0.356-1.984,0.291
		c-10.377-0.988-20.88-1.566-31.192-0.049c-1.255,0.184-2.533,0.4-3.784,0.188c-0.231-0.039-0.478-0.103-0.626-0.286
		c-0.219-0.27-0.115-0.699,0.135-0.942C5.46,9.395,5.811,9.292,6.147,9.203c4.906-1.29,10.044-1.309,15.116-1.32
		c1.901-0.004,3.806-0.008,5.694,0.205c1.528,0.172,3.035,0.486,4.554,0.722C35.221,9.388,38.88,9.116,42.618,8.773"/>
	<path fill="#2AAAE2" d="M38.874,1.721c-0.195,1.753-0.261,3.506-0.198,5.268c0.014,0.383,0.61,0.385,0.597,0
		c-0.063-1.762,0.003-3.515,0.198-5.268C39.513,1.34,38.916,1.343,38.874,1.721"/>
	<path fill="#2AAAE2" d="M37.049,1.424c0.117,1.797,0.073,3.583-0.134,5.372c-0.044,0.38,0.553,0.377,0.597,0
		c0.206-1.789,0.251-3.575,0.134-5.372C37.621,1.043,37.024,1.04,37.049,1.424"/>
	<path fill="#2AAAE2" d="M35.148,1.42c-0.072,1.758-0.144,3.515-0.216,5.273c-0.016,0.384,0.581,0.383,0.597,0
		c0.072-1.758,0.144-3.515,0.216-5.273C35.76,1.036,35.165,1.037,35.148,1.42"/>
	<path fill="#2AAAE2" d="M33.886,0.742c-0.341,1.807-0.607,3.622-0.8,5.451c-0.04,0.381,0.557,0.378,0.597,0
		c0.187-1.775,0.447-3.538,0.778-5.292C34.532,0.525,33.957,0.365,33.886,0.742"/>
	<path fill="#2AAAE2" d="M32.138,0.925c-0.041,1.723-0.083,3.446-0.124,5.17c-0.009,0.384,0.587,0.383,0.596,0l0.125-5.17
		C32.744,0.542,32.147,0.542,32.138,0.925"/>
	<path fill="#2AAAE2" d="M30.622,0.826c-0.126,1.658-0.145,3.313-0.057,4.974c0.02,0.381,0.617,0.384,0.596,0
		c-0.088-1.661-0.069-3.316,0.058-4.974C31.248,0.443,30.651,0.445,30.622,0.826"/>
	<path fill="#2AAAE2" d="M29.449,0.55c-0.241,1.709-0.361,3.42-0.349,5.147c0.002,0.383,0.599,0.384,0.596,0
		c-0.011-1.672,0.095-3.333,0.328-4.988C30.077,0.333,29.502,0.171,29.449,0.55"/>
	<path fill="#2AAAE2" d="M28.022,0.743c-0.284,1.61-0.379,3.221-0.273,4.854c0.025,0.381,0.622,0.384,0.597,0
		c-0.103-1.579-0.024-3.137,0.251-4.695C28.665,0.526,28.089,0.365,28.022,0.743"/>
	<path fill="#2AAAE2" d="M26.385,0.625c-0.025,1.724-0.05,3.448-0.076,5.172c-0.005,0.384,0.591,0.384,0.597,0
		c0.025-1.724,0.05-3.448,0.076-5.172C26.987,0.242,26.391,0.242,26.385,0.625"/>
	<path fill="#2AAAE2" d="M25.066,0.826c-0.042,1.723-0.085,3.446-0.127,5.17c-0.009,0.384,0.587,0.383,0.597,0
		c0.042-1.724,0.084-3.447,0.127-5.17C25.672,0.442,25.075,0.442,25.066,0.826"/>
	<path fill="#2AAAE2" d="M23.414,0.825c-0.007,0.975-0.103,1.937-0.295,2.893c-0.075,0.375,0.5,0.536,0.576,0.159
		c0.201-1.009,0.308-2.022,0.316-3.052C24.013,0.441,23.417,0.441,23.414,0.825"/>
	<path fill="#2AAAE2" d="M22.101,0.752c-0.23,0.973-0.346,1.956-0.346,2.956c0,0.384,0.597,0.385,0.597,0
		c0-0.947,0.106-1.875,0.324-2.797C22.764,0.538,22.188,0.378,22.101,0.752"/>
	<path fill="#2AAAE2" d="M20.304,0.623c0.108,1.084,0.046,2.148-0.196,3.21c-0.086,0.374,0.489,0.534,0.575,0.159
		c0.254-1.113,0.33-2.232,0.218-3.369C20.863,0.245,20.266,0.241,20.304,0.623"/>
	<path fill="#2AAAE2" d="M18.86,0.285c0.128,1.135,0.025,2.285,0.153,3.42c0.042,0.377,0.639,0.381,0.596,0
		c-0.127-1.135-0.025-2.285-0.152-3.42C19.414-0.092,18.817-0.097,18.86,0.285"/>
	<path fill="#2AAAE2" d="M17.167,0.428c0.001,1.563-0.064,3.122-0.195,4.68c-0.032,0.382,0.564,0.38,0.596,0
		c0.132-1.558,0.197-3.117,0.196-4.68C17.763,0.043,17.167,0.042,17.167,0.428"/>
	<path fill="#2AAAE2" d="M15.638,0.722C15.766,2.336,15.554,3.893,15,5.413c-0.132,0.361,0.445,0.517,0.575,0.159
		c0.573-1.572,0.792-3.182,0.66-4.85C16.204,0.342,15.608,0.339,15.638,0.722"/>
	<path fill="#2AAAE2" d="M13.996,0.926c0.095,1.408-0.107,2.762-0.607,4.082c-0.137,0.359,0.44,0.514,0.575,0.158
		c0.519-1.369,0.727-2.779,0.629-4.24C14.567,0.545,13.97,0.542,13.996,0.926"/>
	<path fill="#2AAAE2" d="M12.316,0.825c0.002,0.761,0.004,1.522,0.006,2.283c0.001,0.59,0.212,1.836-0.216,2.283
		c-0.265,0.278,0.156,0.7,0.422,0.422c0.484-0.506,0.394-1.168,0.392-1.827c-0.002-1.053-0.005-2.107-0.007-3.161
		C12.912,0.441,12.315,0.44,12.316,0.825"/>
	<path fill="#2AAAE2" d="M10.902,0.728c0.125,1.711,0.05,3.401-0.239,5.093c-0.064,0.375,0.511,0.537,0.575,0.159
		c0.299-1.744,0.39-3.486,0.261-5.252C11.471,0.347,10.874,0.344,10.902,0.728"/>
	<path fill="#2AAAE2" d="M9.719,1.025c0.092,1.447,0.008,2.871-0.265,4.296c-0.072,0.375,0.503,0.536,0.575,0.158
		c0.283-1.475,0.382-2.953,0.287-4.454C10.292,0.644,9.695,0.641,9.719,1.025"/>
	<path fill="#2AAAE2" d="M8.46,0.722C8.375,2.348,8.292,3.975,8.206,5.601c-0.02,0.384,0.577,0.383,0.597,0
		c0.084-1.626,0.169-3.253,0.254-4.879C9.077,0.337,8.48,0.338,8.46,0.722"/>
	<path fill="#2AAAE2" d="M7.292,0.82C7.165,2.249,7.037,3.677,6.91,5.106c-0.034,0.382,0.563,0.38,0.596,0
		C7.634,3.677,7.761,2.249,7.889,0.82C7.923,0.438,7.326,0.44,7.292,0.82"/>
	<path fill="#2AAAE2" d="M5.943,1.421L5.729,5.497c-0.02,0.383,0.577,0.382,0.597,0l0.214-4.076
		C6.561,1.037,5.963,1.038,5.943,1.421"/>
	<path fill="#2AAAE2" d="M18.331,3.831c1.108,0.393,2.299,0.791,3.436,0.492c0.567-0.15,1.13-0.471,1.702-0.343
		c0.591,0.132,1.001,0.815,0.821,1.393c-0.052,0.168-0.153,0.33-0.309,0.412c-0.12,0.064-0.26,0.075-0.396,0.084
		c-1.922,0.126-3.858,0.052-5.765-0.222c-0.079-0.011-0.164-0.025-0.223-0.079c-0.074-0.065-0.091-0.173-0.104-0.271
		c-0.039-0.309-0.075-0.635,0.047-0.922c0.123-0.286,0.465-0.503,0.75-0.376"/>
	<path fill="#2C3A96" d="M40.774,1.591c0.916-0.021,1.707,0.725,2.038,1.579c0.33,0.854,0.3,1.8,0.264,2.715
		c-0.011,0.292-0.032,0.608-0.222,0.83c-0.265,0.309-0.736,0.305-1.143,0.276c-10.485-0.75-20.992-1.205-31.503-1.363
		C8.323,5.599,6.374,5.592,4.643,6.339C4.426,4.967,4.61,3.534,5.166,2.262c0.145-0.333,0.325-0.667,0.613-0.889
		c0.338-0.261,0.78-0.335,1.203-0.394c2.813-0.392,5.659-0.453,8.499-0.513c8.448-0.178,16.962-0.352,25.283,1.123"/>
	<path fill="#2C3A96" d="M42.618,8.773c0.651,0.211,0.597,1.257,0.045,1.663c-0.552,0.405-1.303,0.356-1.984,0.291
		c-10.377-0.988-20.88-1.566-31.192-0.049c-1.255,0.184-2.533,0.4-3.784,0.188c-0.231-0.039-0.478-0.103-0.626-0.286
		c-0.219-0.27-0.115-0.699,0.135-0.942C5.46,9.395,5.811,9.292,6.147,9.203c4.906-1.29,10.044-1.309,15.116-1.32
		c1.901-0.004,3.806-0.008,5.694,0.205c1.528,0.172,3.035,0.486,4.554,0.722C35.221,9.388,38.88,9.116,42.618,8.773"/>
	<path fill="#2AAAE2" d="M38.874,1.721c-0.195,1.753-0.261,3.506-0.198,5.268c0.014,0.383,0.61,0.385,0.597,0
		c-0.063-1.762,0.003-3.515,0.198-5.268C39.513,1.34,38.916,1.343,38.874,1.721"/>
	<path fill="#2AAAE2" d="M37.049,1.424c0.117,1.797,0.073,3.583-0.134,5.372c-0.044,0.38,0.553,0.377,0.597,0
		c0.206-1.789,0.251-3.575,0.134-5.372C37.621,1.043,37.024,1.04,37.049,1.424"/>
	<path fill="#2AAAE2" d="M35.148,1.42c-0.072,1.758-0.144,3.515-0.216,5.273c-0.016,0.384,0.581,0.383,0.597,0
		c0.072-1.758,0.144-3.515,0.216-5.273C35.76,1.036,35.165,1.037,35.148,1.42"/>
	<path fill="#2AAAE2" d="M33.886,0.742c-0.341,1.807-0.607,3.622-0.8,5.451c-0.04,0.381,0.557,0.378,0.597,0
		c0.187-1.775,0.447-3.538,0.778-5.292C34.532,0.525,33.957,0.365,33.886,0.742"/>
	<path fill="#2AAAE2" d="M32.138,0.925c-0.041,1.723-0.083,3.446-0.124,5.17c-0.009,0.384,0.587,0.383,0.596,0l0.125-5.17
		C32.744,0.542,32.147,0.542,32.138,0.925"/>
	<path fill="#2AAAE2" d="M30.622,0.826c-0.126,1.658-0.145,3.313-0.057,4.974c0.02,0.381,0.617,0.384,0.596,0
		c-0.088-1.661-0.069-3.316,0.058-4.974C31.248,0.443,30.651,0.445,30.622,0.826"/>
	<path fill="#2AAAE2" d="M29.449,0.55c-0.241,1.709-0.361,3.42-0.349,5.147c0.002,0.383,0.599,0.384,0.596,0
		c-0.011-1.672,0.095-3.333,0.328-4.988C30.077,0.333,29.502,0.171,29.449,0.55"/>
	<path fill="#2AAAE2" d="M28.022,0.743c-0.284,1.61-0.379,3.221-0.273,4.854c0.025,0.381,0.622,0.384,0.597,0
		c-0.103-1.579-0.024-3.137,0.251-4.695C28.665,0.526,28.089,0.365,28.022,0.743"/>
	<path fill="#2AAAE2" d="M26.385,0.625c-0.025,1.724-0.05,3.448-0.076,5.172c-0.005,0.384,0.591,0.384,0.597,0
		c0.025-1.724,0.05-3.448,0.076-5.172C26.987,0.242,26.391,0.242,26.385,0.625"/>
	<path fill="#2AAAE2" d="M25.066,0.826c-0.042,1.723-0.085,3.446-0.127,5.17c-0.009,0.384,0.587,0.383,0.597,0
		c0.042-1.724,0.084-3.447,0.127-5.17C25.672,0.442,25.075,0.442,25.066,0.826"/>
	<path fill="#2AAAE2" d="M23.414,0.825c-0.007,0.975-0.103,1.937-0.295,2.893c-0.075,0.375,0.5,0.536,0.576,0.159
		c0.201-1.009,0.308-2.022,0.316-3.052C24.013,0.441,23.417,0.441,23.414,0.825"/>
	<path fill="#2AAAE2" d="M22.101,0.752c-0.23,0.973-0.346,1.956-0.346,2.956c0,0.384,0.597,0.385,0.597,0
		c0-0.947,0.106-1.875,0.324-2.797C22.764,0.538,22.188,0.378,22.101,0.752"/>
	<path fill="#2AAAE2" d="M20.304,0.623c0.108,1.084,0.046,2.148-0.196,3.21c-0.086,0.374,0.489,0.534,0.575,0.159
		c0.254-1.113,0.33-2.232,0.218-3.369C20.863,0.245,20.266,0.241,20.304,0.623"/>
	<path fill="#2AAAE2" d="M18.86,0.285c0.128,1.135,0.025,2.285,0.153,3.42c0.042,0.377,0.639,0.381,0.596,0
		c-0.127-1.135-0.025-2.285-0.152-3.42C19.414-0.092,18.817-0.097,18.86,0.285"/>
	<path fill="#2AAAE2" d="M17.167,0.428c0.001,1.563-0.064,3.122-0.195,4.68c-0.032,0.382,0.564,0.38,0.596,0
		c0.132-1.558,0.197-3.117,0.196-4.68C17.763,0.043,17.167,0.042,17.167,0.428"/>
	<path fill="#2AAAE2" d="M15.638,0.722C15.766,2.336,15.554,3.893,15,5.413c-0.132,0.361,0.445,0.517,0.575,0.159
		c0.573-1.572,0.792-3.182,0.66-4.85C16.204,0.342,15.608,0.339,15.638,0.722"/>
	<path fill="#2AAAE2" d="M13.996,0.926c0.095,1.408-0.107,2.762-0.607,4.082c-0.137,0.359,0.44,0.514,0.575,0.158
		c0.519-1.369,0.727-2.779,0.629-4.24C14.567,0.545,13.97,0.542,13.996,0.926"/>
	<path fill="#2AAAE2" d="M12.316,0.825c0.002,0.761,0.004,1.522,0.006,2.283c0.001,0.59,0.212,1.836-0.216,2.283
		c-0.265,0.278,0.156,0.7,0.422,0.422c0.484-0.506,0.394-1.168,0.392-1.827c-0.002-1.053-0.005-2.107-0.007-3.161
		C12.912,0.441,12.315,0.44,12.316,0.825"/>
	<path fill="#2AAAE2" d="M10.902,0.728c0.125,1.711,0.05,3.401-0.239,5.093c-0.064,0.375,0.511,0.537,0.575,0.159
		c0.299-1.744,0.39-3.486,0.261-5.252C11.471,0.347,10.874,0.344,10.902,0.728"/>
	<path fill="#2AAAE2" d="M9.719,1.025c0.092,1.447,0.008,2.871-0.265,4.296c-0.072,0.375,0.503,0.536,0.575,0.158
		c0.283-1.475,0.382-2.953,0.287-4.454C10.292,0.644,9.695,0.641,9.719,1.025"/>
	<path fill="#2AAAE2" d="M8.46,0.722C8.375,2.348,8.292,3.975,8.206,5.601c-0.02,0.384,0.577,0.383,0.597,0
		c0.084-1.626,0.169-3.253,0.254-4.879C9.077,0.337,8.48,0.338,8.46,0.722"/>
	<path fill="#2AAAE2" d="M7.292,0.82C7.165,2.249,7.037,3.677,6.91,5.106c-0.034,0.382,0.563,0.38,0.596,0
		C7.634,3.677,7.761,2.249,7.889,0.82C7.923,0.438,7.326,0.44,7.292,0.82"/>
	<path fill="#2AAAE2" d="M5.943,1.421L5.729,5.497c-0.02,0.383,0.577,0.382,0.597,0l0.214-4.076
		C6.561,1.037,5.963,1.038,5.943,1.421"/>
	<path fill="#2AAAE2" d="M18.331,3.831c1.108,0.393,2.299,0.791,3.436,0.492c0.567-0.15,1.13-0.471,1.702-0.343
		c0.591,0.132,1.001,0.815,0.821,1.393c-0.052,0.168-0.153,0.33-0.309,0.412c-0.12,0.064-0.26,0.075-0.396,0.084
		c-1.922,0.126-3.858,0.052-5.765-0.222c-0.079-0.011-0.164-0.025-0.223-0.079c-0.074-0.065-0.091-0.173-0.104-0.271
		c-0.039-0.309-0.075-0.635,0.047-0.922c0.123-0.286,0.465-0.503,0.75-0.376"/>
	<path fill="#2C3A96" d="M1.071,29.858c15.296-0.343,30.602-0.271,45.894,0.213c0.127,3.282,0.253,6.573-0.008,9.846
		c-0.318,3.994-1.212,7.959-1.032,11.962c0.145,3.238,0.993,6.464,0.625,9.685c-0.064,0.556-0.177,1.139-0.542,1.56
		c-0.474,0.55-1.25,0.694-1.965,0.789c-9.882,1.317-19.903-0.359-29.868-0.141c-4.314,0.094-8.897,0.484-12.68-1.617
		c-0.217-0.121-0.438-0.258-0.565-0.473c-0.119-0.2-0.139-0.443-0.156-0.676C0.407,55.813-0.36,50.544,0.445,45.402
		c0.294-1.88,0.257-4.33,0.157-6.231c-0.174-3.318-0.377-6.029,0.439-9.247"/>
</g>
</svg>
