<?xml version="1.0" encoding="utf-8"?>
<!-- Generator: Adobe Illustrator 16.0.2, SVG Export Plug-In . SVG Version: 6.00 Build 0)  -->
<!DOCTYPE svg PUBLIC "-//W3C//DTD SVG 1.1//EN" "http://www.w3.org/Graphics/SVG/1.1/DTD/svg11.dtd">
<svg version="1.1" id="Layer_1" xmlns="http://www.w3.org/2000/svg" xmlns:xlink="http://www.w3.org/1999/xlink" x="0px" y="0px"
	 width="48.881px" height="157.856px" viewBox="0 0 48.881 157.856" enable-background="new 0 0 48.881 157.856"
	 xml:space="preserve">
<g>
	<path fill="#EFDB45" d="M33.11,9.243c-3.658,2.4-2.611,8.307,0.383,11.498c2.993,3.192,7.262,4.942,10.312,8.079
		c5.925,6.093,5.883,15.843,3.806,24.083c-2.078,8.241-5.809,16.202-5.99,24.698c-0.09,4.2,0.047,8.521,1.352,12.514
		c5.91,18.097,5.91,33.097,0.96,53.366c-1.276,5.225-2.169,11.538-7.142,13.583c-1.91,0.785-4.035,0.794-6.101,0.792
		c-6.608-0.008-13.216-0.016-19.824-0.023c-0.725-0.002-1.503-0.018-2.097-0.435c-0.438-0.306-0.715-0.788-0.971-1.257
		C-4.387,133.904-0.474,106.263,7.19,83.12c0.561-1.691,1.732-3.181,1.916-4.953c0.154-1.494-0.216-2.988-0.568-4.447
		c-1.912-7.953-3.33-16.026-4.242-24.155c-1.024-9.158-0.961-19.615,5.619-26.067c4.01-3.934,10.592-7.029,10.063-12.621
		c-0.101-1.054-0.42-2.289,0.326-3.039c0.469-0.472,1.194-0.545,1.858-0.592c3.504-0.25,7.006-0.498,10.51-0.746"/>
	<path fill="#046937" d="M8.663,75.96c10.797,1.945,22.103-0.533,32.782,1.98c-0.127,6.616,1.128,13.258,3.661,19.371
		c-13.428,2.906-28.48,2.814-41.803-0.537C3.304,88.688,9.44,82.882,8.663,75.96"/>
	<path fill="#046937" d="M19.538,8.478c4.206,0.086,8.413,0.172,12.619,0.256c0.279,0.006,0.57,0.01,0.824-0.107
		c0.297-0.137,0.496-0.416,0.684-0.684c1.376-1.974,2.816-4.184,2.553-6.573c-0.021-0.185-0.057-0.382-0.185-0.517
		c-0.14-0.146-0.353-0.188-0.552-0.22C29.731-0.304,23.816-0.2,18.103,0.937c-0.303,2.383-0.018,4.838,0.822,7.09"/>
</g>
</svg>
