<?xml version="1.0" encoding="utf-8"?>
<!-- Generator: Adobe Illustrator 16.0.2, SVG Export Plug-In . SVG Version: 6.00 Build 0)  -->
<!DOCTYPE svg PUBLIC "-//W3C//DTD SVG 1.1//EN" "http://www.w3.org/Graphics/SVG/1.1/DTD/svg11.dtd">
<svg version="1.1" id="Layer_1" xmlns="http://www.w3.org/2000/svg" xmlns:xlink="http://www.w3.org/1999/xlink" x="0px" y="0px"
	 width="36.532px" height="93.304px" viewBox="0 0 36.532 93.304" enable-background="new 0 0 36.532 93.304" xml:space="preserve">
<g>
	<path fill="#EFDB45" d="M14.688,10.612c-1.015,4.738-0.816,9.702-2.155,14.358c-1.182,4.109-3.502,7.778-5.522,11.545
		C3.466,43.13,0.762,50.311,0.133,57.788c-0.629,7.478,0.95,15.294,5.312,21.399c0.701,0.982,1.488,1.953,1.78,3.125
		c0.77,3.09-2.154,6.168-1.52,9.289c6.5,1.555,13.252,2.051,19.909,1.461c1.788-0.157,3.851-0.582,4.654-2.187
		c1.259-2.519-1.648-5.705-0.381-8.219c0.364-0.724,1.022-1.244,1.612-1.8c4.791-4.51,5.537-11.87,4.778-18.406
		c-1.267-10.916-5.793-21.15-8.666-31.758c-1.977-7.303-3.175-14.816-3.567-22.372c-3.143-0.052-6.292,0.22-9.38,0.812"/>
	<path fill="#046937" d="M13.432,9.385c-0.055-2.304-0.032-4.609,0.07-6.911c0.042-0.942,0.245-2.093,1.137-2.398
		c0.325-0.111,0.68-0.077,1.021-0.042c2.529,0.258,5.058,0.516,7.587,0.774c0.349,0.036,0.732,0.089,0.962,0.353
		c0.195,0.225,0.227,0.544,0.246,0.841c0.094,1.491,0.093,2.987-0.004,4.477c-0.026,0.396-0.07,0.822-0.33,1.123
		c-0.305,0.353-0.813,0.432-1.276,0.488c-3.236,0.391-6.471,0.782-9.706,1.173"/>
</g>
</svg>
