<?xml version="1.0" encoding="utf-8"?>
<!-- Generator: Adobe Illustrator 16.0.2, SVG Export Plug-In . SVG Version: 6.00 Build 0)  -->
<!DOCTYPE svg PUBLIC "-//W3C//DTD SVG 1.1//EN" "http://www.w3.org/Graphics/SVG/1.1/DTD/svg11.dtd">
<svg version="1.1" id="Layer_1" xmlns="http://www.w3.org/2000/svg" xmlns:xlink="http://www.w3.org/1999/xlink" x="0px" y="0px"
	 width="32.8px" height="90.189px" viewBox="0 0 32.8 90.189" enable-background="new 0 0 32.8 90.189" xml:space="preserve">
<g>
	<path fill="#9A3D21" d="M23.484,12.024c1.407,3.3,2.191,7.11,3.777,10.248c0.814,1.609,1.845,3.06,2.273,4.96
		c0.194,0.857,0.257,1.781,0.43,2.649c0.169,0.842,0.439,1.625,0.697,2.411c0.898,2.736,1.664,5.59,1.966,8.645
		c0.762,7.688-1.122,16.822-3.28,24.558c-2.229,7.99-6.112,15.51-11.115,21.4c-1.296,1.526-2.787,3.017-4.41,3.26
		c-1.412,0.21-2.684-0.572-3.737-1.567c-1.131-1.067-2.098-2.403-2.855-3.938c-1.007-2.043-1.63-4.407-2.246-6.751
		c-3.09-11.759-6.218-24.106-4.492-37.286c0.615-4.703,1.837-9.359,3.192-13.943c2.479-8.394,5.422-16.641,8.794-24.649
		c0.769-1.825,1.447-2.575,2.523-1.574c1.151,1.07,2.231,2.322,3.285,3.543C20.3,6.319,22.158,8.913,23.484,12.024"/>
	<path fill="#BD4D27" d="M16.443,15.072c-0.747,2.038-0.541,4.233-0.588,6.357c-0.029,1.274-0.155,2.562-0.281,3.846
		c-0.415,4.217-0.93,8.741-3.132,12.251c-2.032,3.236-5.094,4.949-7.988,6.504c0.197-2.284,0.636-4.57,1.073-6.848
		c0.845-4.395,1.747-8.948,3.899-12.759c0.657-1.164,1.417-2.231,2.175-3.295l3.969-5.57C15.81,15.222,16.154,15.333,16.443,15.072"
		/>
	<path fill="#BD4D27" d="M20.16,39.67c0.51,5.661-0.905,11.958-3.816,16.992c-0.474,0.818-0.99,1.611-1.601,2.259
		c-0.848,0.9-1.841,1.485-2.818,2.057l-4.258,2.49c-0.165,0.097-0.339,0.195-0.507,0.178c-0.168-0.019-0.302-0.153-0.417-0.296
		c-1.032-1.283-1.162-3.519-0.697-5.521c0.465-2.003,1.436-3.831,2.428-5.575c1.536-2.696,3.169-5.311,4.891-7.825
		c0.878-1.284,1.809-2.572,2.953-3.381c1.191-0.842,2.508-1.09,3.786-1.321"/>
	<path fill="#BD4D27" d="M22.663,54.137c-0.854,3.283-1.554,6.603-2.096,9.935c-0.368,2.271-0.692,4.64-1.738,6.653
		c-1.101,2.119-2.87,3.557-4.653,4.497c-1.784,0.939-3.633,1.462-5.44,2.268c-0.433-3.316,1.375-6.826,3.076-9.847
		c1.016-1.801,2.042-3.619,3.304-5.146c1.609-1.947,3.557-3.367,5.081-5.43c0.81-1.097,1.517-2.39,2.516-3.145"/>
	<path fill="#BD4D27" d="M23.823,68.303c-0.249,3.321-1.033,6.685-2.286,9.805c-0.229,0.568-0.48,1.143-0.847,1.587
		c-0.284,0.344-0.623,0.593-0.96,0.826c-2.592,1.796-5.378,2.968-8.148,3.426C11.258,84,10.856,83.984,10.769,83.6
		c-0.104-0.465,0.347-0.905,0.705-1.186c1.776-1.391,3.081-3.642,4.5-5.647c1.339-1.893,2.817-3.608,4.292-5.319
		c0.934-1.084,1.868-2.169,2.802-3.253c0.178-0.207,0.385-0.43,0.603-0.423c0.219,0.005,0.356,0.407,0.163,0.59"/>
</g>
</svg>
