<?xml version="1.0" encoding="utf-8"?>
<!-- Generator: Adobe Illustrator 16.0.2, SVG Export Plug-In . SVG Version: 6.00 Build 0)  -->
<!DOCTYPE svg PUBLIC "-//W3C//DTD SVG 1.1//EN" "http://www.w3.org/Graphics/SVG/1.1/DTD/svg11.dtd">
<svg version="1.1" id="Layer_1" xmlns="http://www.w3.org/2000/svg" xmlns:xlink="http://www.w3.org/1999/xlink" x="0px" y="0px"
	 width="42.238px" height="63.205px" viewBox="0 0 42.238 63.205" enable-background="new 0 0 42.238 63.205" xml:space="preserve">
<g>
	<path fill="#FFFFFF" d="M1.065,0.384C6.734-0.569,12.502,0.761,18.24,1.126c6.461,0.411,12.927-0.406,19.37-1.041
		c1.156-0.114,2.396-0.205,3.405,0.372c1.007,0.577,1.538,2.104,0.717,2.926c-0.374,0.374-0.948,0.535-1.232,0.982
		c-0.271,0.428-0.19,0.981-0.101,1.48c0.502,2.779,1.005,5.557,1.507,8.335c0.213,1.184,0.428,2.388,0.288,3.582
		c-0.201,1.706-1.117,3.305-1.072,5.023c0.042,1.6,0.917,3.082,1.013,4.679c0.055,0.934-1.814,17.786-1.792,18.721
		c0.139,6.006-1.727,5.505-1.014,16.296c-3.908,1.424-8.214,0.373-12.354-0.021c-7.83-0.746-15.727,0.929-23.571,0.348
		C2.91,62.771,2.364,62.7,2.043,62.323c-0.201-0.239-0.274-0.559-0.338-0.865c-1.415-6.847-1.501-13.889-1.582-20.879
		c-0.028-2.561-0.059-5.121-0.088-7.682c-0.084-7.281-0.159-14.648,1.517-21.734c0.219-0.927,0.469-1.854,0.507-2.806
		C2.163,5.72,0.331,2.92,1.065,0.384"/>
	<path fill="#ED2024" d="M12.122,44.145c1.466-1.517,2.865-4.766,2.728-7.384c-0.099-1.845-0.539-3.858,0.444-5.423
		c1.109-1.766,3.472-2.11,5.501-2.587c2.096-0.491,4.115-1.3,5.97-2.39c0.693-0.408,1.392-0.885,1.767-1.596
		c0.911-1.728-0.459-3.735-1.75-5.201c-0.47-0.534-0.983-1.096-1.673-1.269c-0.575-0.145-1.18,0.005-1.772-0.003
		c-0.593-0.009-1.274-0.271-1.418-0.847C21.8,16.974,22.093,16.442,21.885,16c-0.28-0.6-1.137-0.5-1.799-0.527
		c-0.904-0.037-1.745-0.488-2.642-0.614c-2.363-0.333-4.515,1.725-5.201,4.011c-0.685,2.285-0.298,4.733-0.019,7.103
		C12.935,32.003,10.817,44.823,12.122,44.145"/>
	<path fill="#2C3A96" d="M10.942,50.717c1.686-1.372,1.787-3.958,3.181-5.626c0.469-0.561,1.067-0.996,1.604-1.493
		c1.603-1.485,2.644-3.564,2.875-5.737c0.131-1.246,0.006-2.507,0.128-3.754c0.121-1.247,0.541-2.543,1.518-3.327
		c0.18-0.145,0.391-0.273,0.621-0.267c0.742,0.022,0.723,1.139,0.452,1.828l-1.425,3.617c-0.29,0.737-0.585,1.541-0.366,2.303
		c0.282,0.981,1.292,1.525,2.014,2.247c0.826,0.825,1.299,1.931,1.753,3.007c0.476,1.128,0.959,2.297,0.934,3.519
		c-0.041,1.921-1.501,3.723-3.372,4.16c-0.159,0.037-0.329,0.063-0.481,0.006c-0.251-0.096-0.361-0.381-0.478-0.623
		c-0.951-1.964-2.95-0.764-4.985,0.026c-1.955,0.759-4.102,1.508-4.243,1.023c-0.141-0.483,2.9-6.418,3.398-6.335"/>
	<path fill="#2C3A96" d="M11.294,51.07c1.775-1.905,2.182-4.464,3.958-6.396c1.587-1.727,2.99-3.001,3.596-5.393
		c0.236-0.933,0.131-1.764,0.316-2.671c-0.188-1.654,0.371-3.121,1.673-4.401c-0.315,0.803-0.633,1.607-0.949,2.411
		c-0.571,1.514-1.235,2.774-0.547,4.322c0.38,0.854,1.264,1.236,1.849,1.919c0.727,0.863,1.273,1.823,1.643,2.879
		c1.281,2.292,0.447,4.485-2.504,6.585c-1.042-0.245-1.033-1.329-2.518-1.269c-1.115,0.046-5.987,2.813-6.491,2.059
		c-0.363-0.542,2.505-5.115,3-5.394c0.56-0.315,0.057-1.178-0.504-0.861c-1.678,0.944-3.416,4.883-3.646,6.766
		c-0.019,0.16,0.107,0.361,0.247,0.431c1.893,0.938,4.322-1.313,6.125-1.576c2.271-0.331,2.927,1.531,4.979,0.985
		c6.043-1.606,1.835-8.769-0.017-11.653c-2.002-3.119-0.222-4.357,0.295-7.339c0.09-0.518,0.373-1.314,0.031-1.822
		c-0.588-0.873-1.16-0.604-1.938-0.226c-2.565,1.248-1.487,6.582-2.008,8.59c-0.714,2.76-2.599,3.813-4.192,5.823
		c-1.351,1.703-1.583,3.894-3.104,5.525C10.152,50.834,10.856,51.541,11.294,51.07"/>
	<path fill="#2C3A96" d="M9.477,56.706c6.7-0.316,13.407-0.48,20.114-0.493c0.672-0.001,1.517,0.118,1.713,0.761
		c-1.041,0.981-2.655,0.908-4.083,0.803c-6.148-0.456-12.387-0.38-18.408,0.951C9.451,58.009,8.578,57.039,9.477,56.706"/>
	<path fill="#2C3A96" d="M9.477,57.205c3.909-0.177,7.819-0.316,11.731-0.398c1.956-0.041,3.912-0.067,5.868-0.082
		c2.752-0.021,2.892,0.251,0.145,0.553c-3.811,0.42-7.89-0.368-11.768-0.038c-0.961,0.082-7.075,1.548-5.623-0.18
		c0.411-0.489-0.292-1.199-0.706-0.706c-0.862,1.025-0.269,0.662-0.792,2.241c-0.128,0.386,0.264,0.685,0.614,0.613
		c4.939-0.997,9.885-1.313,14.914-1.124c2.652,0.1,5.35,0.805,7.695-0.68c0.262-0.164,0.348-0.559,0.102-0.784
		c-1.958-1.794-5.501-0.893-7.935-0.855c-4.751,0.07-9.499,0.227-14.246,0.442C8.837,56.236,8.834,57.234,9.477,57.205"/>
</g>
</svg>
