<?xml version="1.0" encoding="utf-8"?>
<!-- Generator: Adobe Illustrator 16.0.2, SVG Export Plug-In . SVG Version: 6.00 Build 0)  -->
<!DOCTYPE svg PUBLIC "-//W3C//DTD SVG 1.1//EN" "http://www.w3.org/Graphics/SVG/1.1/DTD/svg11.dtd">
<svg version="1.1" id="Layer_1" xmlns="http://www.w3.org/2000/svg" xmlns:xlink="http://www.w3.org/1999/xlink" x="0px" y="0px"
	 width="76.595px" height="18.686px" viewBox="0 0 76.595 18.686" enable-background="new 0 0 76.595 18.686" xml:space="preserve">
<g>
	<path fill="#9BC53D" d="M68.052,15.907c3.332-0.087,5.791-1.645,7.687-3.883c1.897-2.238,0.323-5.448-1.624-7.577
		c-1.929-2.111-5.378-2.885-8.613-3.354C55.402-0.374,44.987-0.146,34.69,0.517c-7.669,0.494-15.441,1.251-22.604,3.627
		c-4.112,1.365-8.2,3.454-10.045,6.708c-0.298,0.523-0.535,1.091-0.47,1.657c0.146,1.295,1.818,2.369,1.392,3.636
		c-0.136,0.403-0.295,1.142-0.08,1.514c0.185,0.315,1.099,0.735,1.53,0.787c5.517,0.661,10.608-0.151,16.104-1.14
		c5.343-0.962,10.464-2.685,15.814-3.616c7.152-1.246,14.646-1.036,21.577,0.604c3.217,0.762,6.432,1.838,9.807,1.634"/>
	<path fill="#44612D" d="M4.897,10.953c0.457-0.606,3.25-1.237,4.686-2.064c2.314-1.335,5.216-1.759,8.012-2.093
		c9.379-1.121,18.831-1.639,28.271-2.156c3.853-0.21,7.729-0.421,11.549-0.089c3.576,0.312,7.043,1.093,10.492,1.871
		c1.929,0.435,3.855,0.87,5.782,1.305c0.464,0.105,0.97,0.235,1.212,0.566c-2.699-0.419-5.4-0.838-8.099-1.257
		c-3.298-0.512-6.604-1.024-9.963-1.223c-2.179-0.129-4.369-0.124-6.559-0.12c-7.895,0.016-15.743,0.237-23.64,0.541
		c-2.248,0.088-4.502,0.309-6.681,0.803C14.772,8.214,10.245,10.6,4.897,10.953"/>
	<path fill="#44612D" d="M8.255,15.773c2.597,0.091,5.07-1.087,7.533-1.814c3.911-1.158,8.197-1.405,12.281-2.008
		c8.854-1.309,17.418-2.503,26.216-1.313c5.433,0.734,10.992,2.029,16.507,2.282c0.547,0.024,1.317-0.144,1.248-0.578
		c-1.633-0.111-3.267-0.223-4.9-0.334c-1.742-0.119-3.493-0.239-5.184-0.579c-1.469-0.295-2.874-0.754-4.333-1.078
		C55.63,9.908,53.556,9.72,51.48,9.62c-10.416-0.501-20.856,1.184-31.136,2.934c-4.373,0.745-12.928,2.492-12.983,2.712
		C7.286,15.558,7.956,15.604,8.255,15.773"/>
	<path fill="#44612D" d="M4.786,14.498c-1.163-0.543-2.594-0.559-3.954-0.554c-0.169,0.001-0.352,0.004-0.492,0.083
		c-0.101,0.056-0.165,0.144-0.215,0.232c-0.255,0.461-0.11,1.037,0.345,1.368c0.214,0.156,0.483,0.257,0.755,0.337
		c0.911,0.269,1.997,0.307,2.83-0.124c0.558-0.288,0.954-0.774,1.056-1.297"/>
</g>
</svg>
