<?xml version="1.0" encoding="utf-8"?>
<!-- Generator: Adobe Illustrator 16.0.2, SVG Export Plug-In . SVG Version: 6.00 Build 0)  -->
<!DOCTYPE svg PUBLIC "-//W3C//DTD SVG 1.1//EN" "http://www.w3.org/Graphics/SVG/1.1/DTD/svg11.dtd">
<svg version="1.1" id="Layer_1" xmlns="http://www.w3.org/2000/svg" xmlns:xlink="http://www.w3.org/1999/xlink" x="0px" y="0px"
	 width="40.481px" height="92.459px" viewBox="0 0 40.481 92.459" enable-background="new 0 0 40.481 92.459" xml:space="preserve">
<g>
	<path fill="#F4D49D" d="M24.175,89.73c-1.132-0.215-1.969-1.222-2.372-2.302c-0.402-1.08-0.463-2.25-0.639-3.39
		c-0.324-2.099-1.046-4.111-1.653-6.146c-0.994-3.327-1.692-6.743-2.082-10.193c-0.614-5.435-0.467-10.941-1.243-16.355
		c-0.24-1.68-0.568-3.345-0.897-5.008c-0.387-1.954-0.772-3.911-1.324-5.824c-0.792-2.747-1.935-5.463-1.924-8.321
		c1.445,0.966,1.528,3.001,1.856,4.709c0.355,1.854,1.16,3.586,1.689,5.397c0.512,1.756,0.762,3.575,1.011,5.388
		c0.858,6.253,1.716,12.508,2.341,18.788c0.438,4.405,0.779,8.835,1.678,13.177c0.437,2.104,1.004,4.187,1.781,6.191
		c0.396,1.021,0.82,2.074,1.373,3.022c0.723,1.239,0.968,0.676,2.235,0.371c1.768-0.425,3.635-0.127,5.428-0.424
		c3.392-0.562,6.052-3.121,8.478-5.558c0.181-0.182,0.364-0.368,0.469-0.603c0.157-0.356,0.103-0.766,0.037-1.149
		c-0.533-3.076-1.707-6.004-2.423-9.041c-1.385-5.867-1.049-12.073-2.8-17.842c-0.515-1.693-1.207-3.34-1.544-5.078
		c-0.315-1.631-0.311-3.305-0.482-4.957c-0.46-4.435-1.64-7.459-2.53-11.827c-0.526-2.58-0.477-4.823-1.326-6.892
		c-0.581-1.415-1.845-4.052-2.614-5.374c-1.365-2.348-3.573-3.645-5.877-5.083c-2.114-1.32-6.266,1.398-5.878-1.922
		c0.164-1.409,0.707-5.084,1.199-6.414c0.637-1.722,0.918-3.669,0.251-5.378c-0.28-0.717-0.781-1.416-1.521-1.626
		C13.578-0.3,12.307,0.954,10.97,0.812c-0.658-0.07-1.312-0.478-1.942-0.276c-0.583,0.187-0.884,0.811-1.318,1.24
		C6.64,2.835,4.714,2.749,3.833,3.968C2.828,5.36,3.905,7.26,4.957,8.617c2.124,2.741,4.248,5.483,6.372,8.225
		c-1.931,0.622-3.673,1.816-4.946,3.395c-0.778,0.963-1.378,2.055-1.929,3.163C2.219,27.897,0.729,32.9,1.135,37.906
		c0.138,1.706,0.494,3.396,0.5,5.107c0.006,1.703-0.333,3.39-0.404,5.091c-0.089,2.121,0.241,4.234,0.57,6.331
		c0.533,3.394,1.542,6.809,1.722,10.202c0.21,3.972,0.42,7.944,0.631,11.917c0.252,4.762,0.732,10.034,4.232,13.272
		c3.514,3.253,9.143,3.278,13.474,1.237c0.824-0.387,1.624-0.842,2.45-1.221"/>
	<path fill="#D06728" d="M4.109,24.353c0.76-2.134,2.567-3.692,4.302-5.149c0.984-0.828,1.977-1.661,3.088-2.313
		c1.321-0.775,2.791-1.278,4.284-1.623c2.235-0.513,4.616-0.669,6.793,0.054c2.177,0.721,4.11,2.438,4.644,4.669
		c-2.951-0.278-5.914-0.44-8.878-0.484c-3.61-0.054-7.511,0.166-10.323,2.432c-1.38,1.111-2.517,2.718-4.252,3.081"/>
	<path fill="#9F4C23" d="M3.842,25.136c-0.431,1.062-0.779,2.158-1.043,3.274c1.723-0.555,2.92-2.125,4.538-2.933
		c1.617-0.805,3.507-0.782,5.313-0.741c5.151,0.116,10.305,0.233,15.457,0.35c0.109,0.003,0.225,0.004,0.327-0.038
		c0.333-0.139,0.321-0.609,0.253-0.964c-0.292-1.511-0.682-3.177-1.949-4.047c-0.596-0.409-1.319-0.587-2.031-0.714
		c-2.497-0.44-5.058-0.342-7.583-0.112c-2.893,0.261-5.829,0.708-8.425,2.013c-2.595,1.304-4.831,3.595-5.437,6.437"/>
	<path fill="#D06728" d="M2.251,29.379c-0.169,0.785-0.217,1.597-0.141,2.396c0.027,0.273,0.076,0.564,0.262,0.768
		c0.435,0.472,1.208,0.156,1.759-0.172c2.473-1.472,5.089-2.703,7.799-3.67c1.581-0.563,3.215-1.041,4.893-1.103
		c3.989-0.148,7.699,2.039,11.664,2.495c0.338,0.039,0.711,0.057,0.985-0.145c0.245-0.179,0.35-0.488,0.44-0.777
		c0.268-0.845,0.528-1.794,0.131-2.587c-0.447-0.896-1.547-1.224-2.533-1.405c-3.946-0.727-7.994-0.582-12.004-0.436
		c-1.594,0.058-3.187,0.116-4.78,0.174c-1.001,0.037-2.027,0.078-2.957,0.451c-1.023,0.41-1.849,1.188-2.646,1.946
		c-1.045,0.994-2.089,1.986-3.134,2.98"/>
	<path fill="#9F4C23" d="M2.069,32.597c-0.419,1.035-0.846,2.115-0.772,3.23c0.071,1.115,0.803,2.271,1.905,2.446
		c1.042,0.165,1.993-0.548,2.85-1.162c6.209-4.454,14.52-5.502,21.901-3.53c0.688,0.184,1.466,0.381,2.074,0.012
		c0.75-0.455,0.814-1.592,0.355-2.34c-0.46-0.747-1.277-1.188-2.071-1.562c-3.042-1.431-6.341-2.386-9.7-2.484
		c-3.359-0.098-6.786,0.694-9.604,2.524c-1,0.649-1.923,1.426-2.983,1.974c-1.341,0.693-2.908,1.027-4.009,2.061"/>
	<path fill="#D06728" d="M24.461,33.004c1.991,0.356,3.981,0.714,5.972,1.071c0.195,0.034,0.405,0.077,0.535,0.228
		c0.249,0.289,0.026,0.748-0.273,0.985c-0.591,0.468-1.393,0.546-2.145,0.561c-3.854,0.082-7.773-0.96-11.52-0.054
		c-1.681,0.407-3.242,1.189-4.786,1.967c-2.045,1.028-4.103,2.064-5.932,3.44c-0.919,0.69-1.821,1.487-2.942,1.74
		c-1.121,0.252-2.53-0.307-2.717-1.44c-0.188-1.13,0.856-2.051,1.807-2.69c3.771-2.538,7.891-4.637,12.317-5.668
		c4.426-1.03,9.185-0.941,13.4,0.756"/>
	<path fill="#9F4C23" d="M30.39,35.908c0.555-0.252,1.251,0.208,1.376,0.806c0.125,0.596-0.207,1.217-0.684,1.595
		c-0.479,0.379-1.08,0.56-1.672,0.708c-4.472,1.121-9.16,0.809-13.753,1.214c-4.592,0.404-9.438,1.729-12.395,5.266
		C2.841,46,2.31,46.607,1.666,46.472c-0.665-0.141-0.902-1.051-0.605-1.662c0.296-0.612,0.922-0.981,1.514-1.316
		c2.435-1.375,4.868-2.751,7.304-4.127c1.458-0.824,2.929-1.653,4.527-2.149c0.812-0.252,1.648-0.416,2.449-0.695
		c0.592-0.206,1.161-0.473,1.749-0.691c3.781-1.4,7.977-0.663,11.936,0.096"/>
	<path fill="#D06728" d="M29.816,38.918c0.857,0.231,1.692,0.544,2.489,0.936c0.308,0.149,0.649,0.37,0.672,0.713
		c0.017,0.269-0.177,0.503-0.376,0.685c-1.396,1.279-3.471,1.499-5.354,1.308s-3.736-0.726-5.631-0.699
		c-1.107,0.015-2.205,0.223-3.286,0.47c-4.708,1.081-9.234,2.952-13.332,5.512c-0.601,0.376-1.244,0.781-1.953,0.754
		c-0.707-0.025-1.426-0.724-1.18-1.39c0.092-0.251,0.297-0.44,0.495-0.622c0.859-0.782,1.718-1.564,2.578-2.347
		c1.367-1.246,2.76-2.509,4.429-3.306c1.946-0.93,4.139-1.165,6.286-1.359c5.078-0.459,10.181-0.759,15.276-0.543"/>
	<path fill="#F19121" d="M31.394,42.47c0.556-0.252,1.251,0.208,1.376,0.805c0.125,0.596-0.207,1.217-0.685,1.595
		c-0.478,0.38-1.079,0.561-1.67,0.708c-4.473,1.121-9.161,0.81-13.753,1.215c-4.593,0.403-9.439,1.729-12.396,5.266
		c-0.422,0.505-0.953,1.111-1.597,0.976c-0.665-0.14-0.902-1.051-0.605-1.661c0.296-0.612,0.922-0.981,1.515-1.316
		c2.434-1.375,4.867-2.751,7.303-4.127c1.458-0.824,2.929-1.654,4.528-2.15c0.811-0.252,1.647-0.416,2.448-0.694
		c0.593-0.206,1.161-0.474,1.749-0.691c3.781-1.402,7.978-0.663,11.937,0.095"/>
	<path fill="#D06728" d="M30.82,45.481c0.857,0.23,1.692,0.544,2.489,0.935c0.308,0.15,0.649,0.37,0.672,0.713
		c0.017,0.27-0.177,0.504-0.376,0.686c-1.396,1.279-3.47,1.499-5.354,1.308c-1.885-0.191-3.737-0.726-5.632-0.699
		c-1.107,0.015-2.205,0.223-3.286,0.471c-4.707,1.08-9.234,2.951-13.332,5.511c-0.601,0.376-1.243,0.781-1.952,0.754
		c-0.708-0.025-1.427-0.724-1.181-1.39c0.093-0.251,0.297-0.441,0.495-0.622c0.859-0.782,1.718-1.565,2.577-2.347
		c1.368-1.246,2.761-2.51,4.43-3.307c1.946-0.929,4.14-1.165,6.286-1.358c5.078-0.459,10.182-0.76,15.276-0.543"/>
	<path fill="#9F4C23" d="M30.829,43.144c0.409-0.131,0.833-0.264,1.259-0.217c0.428,0.049,0.859,0.327,0.942,0.749
		c0.086,0.434-0.215,0.854-0.563,1.124c-1.086,0.842-2.598,0.768-3.97,0.687c-6.647-0.392-13.683,0.12-19.284,3.723
		c-1.765,1.135-3.358,2.562-5.271,3.426c-0.512,0.232-1.079,0.426-1.628,0.307c-0.55-0.118-1.041-0.658-0.916-1.206
		c0.068-0.302,0.299-0.538,0.523-0.753c5.746-5.513,13.74-8.61,21.701-8.413c2.62,0.065,5.227,0.471,7.848,0.465"/>
	<path fill="#F19121" d="M3.02,60.231c6.646-4.396,15.004-5.017,22.602-7.417c0.773-0.244,1.56-0.512,2.371-0.504
		c0.809,0.006,1.587,0.282,2.37,0.48c0.784,0.198,1.636,0.315,2.386,0.012c0.75-0.303,1.328-1.151,1.078-1.921
		c-0.354-1.091-1.842-1.166-2.984-1.079c-1.921,0.146-3.853,0.157-5.774,0.035c-1.296-0.082-2.592-0.226-3.891-0.192
		c-3.217,0.082-6.298,1.234-9.308,2.375c-1.563,0.59-3.123,1.181-4.686,1.771c-1.086,0.412-2.187,0.831-3.126,1.516
		c-0.938,0.685-1.711,1.679-1.868,2.829c-0.064,0.474,0.007,1.021,0.389,1.31c0.508,0.386,1.23,0.108,1.801-0.181"/>
	<path fill="#9F4C23" d="M31.145,48.966c0.659,0.011,1.318,0.021,1.978,0.03c0.396,0.006,0.881,0.069,1.03,0.437
		c0.123,0.302-0.078,0.656-0.361,0.816c-0.284,0.161-0.624,0.177-0.949,0.187c-2.441,0.075-4.887,0.087-7.329,0.035
		c-1.817-0.039-3.651-0.111-5.438,0.223c-1.575,0.295-3.073,0.899-4.58,1.445c-4.317,1.564-8.939,2.688-13.483,2.025
		c0.729-1.473,2.516-2.02,4.114-2.397c5.116-1.211,10.282-2.208,15.481-2.99c3.396-0.511,6.941-0.919,10.209,0.143"/>
	<path fill="#D06728" d="M31.572,51.197c1.262,0.352,2.49,0.819,3.667,1.396c0.188,0.092,0.4,0.226,0.409,0.436
		c0.005,0.109-0.051,0.212-0.111,0.304c-0.683,1.021-2.098,1.288-3.311,1.093c-1.214-0.194-2.342-0.746-3.543-1.004
		c-1.711-0.368-3.485-0.128-5.219,0.113c-2.505,0.348-5.039,0.704-7.39,1.638c-1.563,0.621-3.019,1.487-4.577,2.118
		c-2.381,0.964-4.989,1.359-7.548,1.146c0.013-0.972,0.868-1.701,1.677-2.24c2.409-1.607,5.104-2.785,7.921-3.462
		c1.271-0.307,2.568-0.511,3.821-0.882c1.311-0.387,2.567-0.951,3.899-1.257c2.536-0.579,5.182-0.18,7.75,0.223
		c1.14,0.177,2.277,0.354,3.415,0.532"/>
	<path fill="#9F4C23" d="M31.136,54.375c1.811,0.459,3.907,1.176,4.45,2.964c-3.44,1.021-7.028-1.205-10.613-1.045
		c-3.266,0.146-6.357,2.27-9.579,1.717c-0.057-0.01-0.12-0.023-0.157-0.068c-0.039-0.048-0.038-0.116-0.032-0.177
		c0.091-0.934,0.78-1.723,1.599-2.18c0.816-0.456,1.756-0.637,2.677-0.808c1.955-0.363,3.919-0.716,5.904-0.829
		c2.717-0.155,5.459,0.144,8.078,0.882"/>
	<path fill="#D06728" d="M32.447,57.816c1.035,0.349,2.07,0.696,3.104,1.044c0.271,0.092,0.569,0.205,0.694,0.462
		c0.17,0.349-0.092,0.781-0.446,0.939c-0.353,0.157-0.759,0.116-1.143,0.075c-4.064-0.432-8.167-0.511-12.246-0.24
		c-0.713,0.048-1.445,0.104-2.128-0.104c-0.684-0.207-1.319-0.747-1.412-1.455c-0.023-0.183-0.003-0.389,0.131-0.515
		c0.083-0.077,0.196-0.111,0.305-0.144c4.6-1.342,9.551-1.461,14.21-0.342"/>
	<path fill="#9F4C23" d="M33.139,60.561c0.916,0.04,1.822,0.25,2.663,0.618c0.365,0.16,0.776,0.458,0.707,0.851
		c-0.079,0.442-0.662,0.538-1.11,0.531c-1.927-0.029-3.858-0.06-5.773-0.281c-1.208-0.14-2.409-0.356-3.626-0.383
		c-1.997-0.043-4.075,0.417-5.943-0.291c-0.137-0.051-0.281-0.121-0.335-0.255c-0.048-0.119-0.008-0.256,0.054-0.369
		c0.38-0.703,1.352-0.755,2.15-0.715c4.174,0.205,8.349,0.41,12.522,0.615"/>
	<path fill="#D06728" d="M34.302,62.857c0.64,0.2,1.255,0.478,1.828,0.827c0.204,0.125,0.411,0.266,0.529,0.474
		c0.217,0.379,0.078,0.87-0.175,1.226c-0.564,0.795-1.608,1.127-2.584,1.102s-1.914-0.349-2.849-0.626
		c-2.276-0.675-4.631-1.085-7.002-1.22c-1.359-0.077-2.881-0.13-3.82-1.116c-0.104-0.11-0.206-0.248-0.188-0.399
		c0.023-0.228,0.282-0.341,0.503-0.403c4.81-1.394,10.044-1.28,14.789,0.319"/>
	<path fill="#9F4C23" d="M35.024,66.181c0.351,0.292,0.866,0.198,1.321,0.227c0.455,0.027,1.002,0.385,0.852,0.815
		c-0.078,0.222-0.311,0.345-0.53,0.43c-1.076,0.419-2.259,0.45-3.414,0.465c-2.157,0.026-4.316,0.006-6.475-0.061
		c-1.62-0.05-3.255-0.129-4.82-0.551c-0.628-0.17-1.35-0.53-1.387-1.179c-0.028-0.496,0.399-0.924,0.875-1.071
		c0.474-0.146,0.985-0.078,1.477-0.013c4.324,0.566,8.698,0.745,13.054,0.532"/>
	<path fill="#D06728" d="M33.886,67.634l2.781,0.691c0.284,0.07,0.62,0.188,0.692,0.45c0.066,0.246-0.146,0.46-0.353,0.611
		c-2.294,1.67-5.605,1.549-8.62,1.271c-2.438-0.227-4.874-0.509-7.306-0.844c-0.297-0.042-0.605-0.088-0.858-0.248
		c-0.252-0.16-0.425-0.473-0.31-0.719c0.107-0.225,0.398-0.309,0.66-0.366c2.068-0.452,4.209-0.677,6.364-0.67
		c2.724,0.011,5.521,0.384,8.123-0.218"/>
	<path fill="#9F4C23" d="M35.21,70.822c0.6,0.079,1.2,0.159,1.8,0.238c0.319,0.043,0.752,0.235,0.65,0.509
		c-0.033,0.087-0.117,0.145-0.198,0.196c-1.899,1.22-4.383,1.678-6.748,1.242c-1.066-0.195-2.111-0.563-3.187-0.624
		c-1.674-0.094-3.273,0.568-4.946,0.416c-0.713-0.064-1.54-0.392-1.705-1.041c-0.131-0.515,0.244-1.02,0.738-1.247
		c0.493-0.227,1.081-0.239,1.646-0.241c4.027-0.017,8.077,0.269,12.096,0.853"/>
	<path fill="#D06728" d="M23.682,72.997c-1.398-0.1-2.8,0.213-3.947,0.882c0.66,0.901,1.776,1.455,2.903,1.713
		s2.284,0.255,3.429,0.276c3.028,0.055,6.064,0.285,9.085,0.687c0.736,0.099,1.489,0.205,2.202,0.07
		c0.712-0.135,1.388-0.57,1.544-1.225c0.207-0.869-0.576-1.774-1.482-2.17c-0.907-0.396-1.919-0.433-2.895-0.583
		c-1.518-0.236-3.009-0.765-4.534-0.793c-0.855-0.018-1.694,0.126-2.525,0.267c-1.256,0.215-2.513,0.429-3.769,0.643"/>
	<path fill="#9F4C23" d="M21.826,77.251c1.058-1.193,2.947-1.409,4.669-1.441c3.843-0.07,7.731,0.378,11.507,1.328
		c0.752,0.188,1.6,0.477,1.91,1.142c0.368,0.79-0.308,1.665-1.161,1.913c-0.854,0.248-1.804,0.056-2.708-0.108
		c-4.057-0.739-8.194-0.915-12.228-0.521c-0.343,0.034-0.704,0.069-1.028-0.061c-0.848-0.34-0.843-1.43-0.681-2.237"/>
	<path fill="#D06728" d="M24.193,82.577c-0.656-0.092-1.111-0.788-1.026-1.383c0.085-0.596,0.59-1.06,1.175-1.302
		c0.586-0.242,1.249-0.298,1.899-0.352c1.054-0.086,2.11-0.172,3.176-0.131c1.4,0.056,2.795,0.329,4.181,0.604
		c1.04,0.205,2.081,0.41,3.121,0.615c0.82,0.161,1.695,0.352,2.294,0.913c0.599,0.563,0.7,1.63-0.013,1.976
		c-0.346,0.167-0.772,0.126-1.173,0.09c-1.348-0.119-2.699-0.12-4.03-0.003c-1.126,0.099-2.241,0.282-3.378,0.297
		c-2.139,0.029-4.278-0.537-6.32-1.262"/>
	<path fill="#2C3A96" d="M1.223,37.041c3.089,0.054,5.687-2.129,8.394-3.617c1.984-1.092,4.153-1.845,6.388-2.217
		c0.524,2.706,1.867,5.184,2.601,7.841c0.59,2.141,0.777,4.369,0.95,6.584c0.903,11.524,1.533,23.15,4.367,34.357
		c0.851,3.366,2.07,6.929,4.913,8.924c-1.304-0.834-2.987-0.002-4.34,0.751c-1.578,0.88-3.223,1.661-4.96,2.164
		c-3.02,0.873-6.346,0.857-9.241-0.367c-2.896-1.224-5.299-3.723-6.099-6.763c-0.409-1.557-0.401-3.188-0.622-4.784
		c-0.259-1.882-0.835-3.704-1.217-5.564c-0.473-2.299-0.647-4.647-0.823-6.987c-0.622-8.358-1.244-16.718-1.518-25.094
		c-0.033-1.035-0.054-2.11,0.364-3.058c0.488-1.106,0.134-1.521,1.105-2.241"/>
	<path fill="#F4D49D" d="M13.731,31.929c-0.851,0.183-1.336,1.137-1.334,2.005s0.359,1.69,0.618,2.52
		c0.575,1.852,0.66,3.815,1.003,5.724c0.488,2.729,1.501,5.331,2.24,8.001c2.486,8.977,1.883,18.636,4.787,27.484
		c0.59,1.797,1.321,3.546,1.964,5.325c0.872,2.41,1.346,3.947,1.893,6.451c0.554-0.375,0.581-0.292,0.318-0.907
		c-2.877-6.76-4.429-14.015-5.428-21.294c-0.937-6.818-1.422-13.784-3.773-20.251c-1.48-4.068-3.721-8.311-2.58-12.486
		c0.214-0.785,0.824-2.044,0.357-2.71"/>
	<path fill="#F4D49D" d="M2.519,37.532c-0.227,1.68-0.028,3.088-0.017,4.859c0.011,1.528,0.276,3.498,0.301,5.026
		c0.025,1.682,0.148,3.36,0.281,5.037c0.861,10.816,2.199,21.594,4.005,32.292c0.345,2.046,0.717,4.117,1.623,5.982
		c0.292-0.374,0.085-0.91-0.082-1.355c-0.385-1.029-0.484-2.142-0.584-3.236C7.15,76.278,5.566,66.825,4.38,56.997
		c-0.207-1.715-0.019-3.805-0.226-5.52c-0.303-2.507-0.604-5.015-0.907-7.523c-0.279-2.306-0.558-4.612-0.836-6.919"/>
	<path fill="#9F4C23" d="M37.988,83.731c-0.954,1.313-2.407,2.196-3.938,2.736s-2.533,1.23-4.142,1.455
		c-0.554,0.076-1.744-0.312-2.285-0.454c-1.33-0.351-1.972-1.822-2.432-3.117c7.49-0.637,8.592,0.071,12.635-0.744"/>
</g>
</svg>
