<?xml version="1.0" encoding="utf-8"?>
<!-- Generator: Adobe Illustrator 16.0.2, SVG Export Plug-In . SVG Version: 6.00 Build 0)  -->
<!DOCTYPE svg PUBLIC "-//W3C//DTD SVG 1.1//EN" "http://www.w3.org/Graphics/SVG/1.1/DTD/svg11.dtd">
<svg version="1.1" id="Layer_1" xmlns="http://www.w3.org/2000/svg" xmlns:xlink="http://www.w3.org/1999/xlink" x="0px" y="0px"
	 width="49.553px" height="66.186px" viewBox="0 0 49.553 66.186" enable-background="new 0 0 49.553 66.186" xml:space="preserve">
<g>
	<path fill="#44A84F" d="M0.908,24.073c0.571,12.241,1.14,24.45,1.709,36.655c0.015,0.331,0.036,0.679,0.239,0.963
		c0.255,0.356,0.738,0.538,1.196,0.691c6.788,2.273,14.183,2.838,21.457,3.38c7.527,0.561,15.528,1.047,22.231-1.895
		c0.63-0.277,1.277-0.612,1.584-1.152c0.248-0.435,0.236-0.94,0.222-1.422c-0.383-11.682-0.765-23.362-1.147-35.07
		c-8.252,2.225-17.096,2.131-25.758,2.015C18.079,28.178,7.083,27.727,0.908,24.073"/>
	<path fill="#EC2227" d="M0.43,26.998c8.509,0.747,35.792,2.799,44.283,1.86c1.34-0.148,2.863-0.442,3.548-1.604
		c0.373-0.634,0.411-1.405,0.428-2.141c0.14-5.773,0.588-12.774-0.485-18.448C32.084,8.07,15.111,10.378,0,4.598
		c0.127,5.844,0.141,13.363,0.611,19.189"/>
	<path fill="#6E6D74" d="M0.651,5.22c2.45,1.72,5.438,2.47,8.376,3.043c11.892,2.321,24.236,2.287,36.114-0.099
		c1.142-0.23,2.387-0.548,3.061-1.499c0.922-1.301,0.266-3.235-0.992-4.216s-2.915-1.246-4.498-1.44
		c-7.823-0.958-15.728-0.983-23.609-1.006C13.24-0.014,7.204,0,1.776,2.213c-0.441,0.18-0.892,0.383-1.216,0.733
		c-1.026,1.107,0.254,3.281,1.72,2.921"/>
	<path fill="#C0BEBE" d="M2.087,3.752c6.372-3.267,44.412-2.522,44.412,1.41C31.988,8.168,16.792,7.818,2.434,4.146"/>
	<path fill="#44612D" d="M10.934,56.132c-1.461,0.285-2.875,0.81-4.169,1.547c-0.554,0.315-1.12,0.71-1.337,1.31
		c-0.55,1.519,1.378,2.706,2.944,3.096c11.763,2.934,24.861-0.143,34.088-8.008c2.282-1.947,4.438-4.368,4.854-7.34
		c0.082-0.591,0.073-1.252-0.312-1.708c-0.754-0.887-2.184-0.348-3.194,0.229c-10.362,5.917-21.976,9.631-33.851,10.824"/>
	<path fill="#44612D" d="M34.673,42.663c1.24-0.427,2.41-1.057,3.449-1.857c0.445-0.343,0.891-0.756,1.008-1.306
		c0.295-1.392-1.532-2.193-2.947-2.344c-10.621-1.128-21.677,3.151-28.77,11.136c-1.756,1.977-3.342,4.352-3.343,6.996
		C4.069,55.813,4.158,56.39,4.55,56.74c0.766,0.683,1.947,0.038,2.758-0.588c8.323-6.424,18.006-11.078,28.222-13.564"/>
	<path fill="#2B3619" d="M12.975,54.91c3.926,0.431,7.429-2.264,11.188-3.474c6.939-2.235,14.339,0.669,21.52,1.93
		c0.637,0.112,1.462,0.118,1.731-0.469c0.129-0.279,0.073-0.607-0.017-0.901c-0.723-2.374-3.307-3.587-5.66-4.375
		c-9.258-3.098-19.894-3.856-28.434,0.877c-1.451,0.805-2.941,1.932-3.226,3.567c-0.285,1.636,1.516,3.497,2.95,2.66"/>
</g>
</svg>
