<?xml version="1.0" encoding="utf-8"?>
<!-- Generator: Adobe Illustrator 16.0.2, SVG Export Plug-In . SVG Version: 6.00 Build 0)  -->
<!DOCTYPE svg PUBLIC "-//W3C//DTD SVG 1.1//EN" "http://www.w3.org/Graphics/SVG/1.1/DTD/svg11.dtd">
<svg version="1.1" id="Layer_1" xmlns="http://www.w3.org/2000/svg" xmlns:xlink="http://www.w3.org/1999/xlink" x="0px" y="0px"
	 width="39.006px" height="45.936px" viewBox="0 0 39.006 45.936" enable-background="new 0 0 39.006 45.936" xml:space="preserve">
<g>
	<path fill="#FFF6DA" d="M0.052,4.483c0.545-0.665,0.933-1.459,1.122-2.299c0.025-0.111,0.049-0.229,0.119-0.319
		c0.323-0.421,1.272,0.041,1.41-0.472c0.049-0.181-0.068-0.377-0.014-0.557c0.072-0.24,0.384-0.293,0.635-0.303
		C4.98,0.472,6.636,0.411,8.292,0.349c9.162-0.343,18.362-0.684,27.478,0.292c0.269,0.029,0.551,0.064,0.772,0.219
		c0.222,0.156,0.354,0.475,0.214,0.706c0.316,0.054,0.631,0.106,0.946,0.159c0.211,0.198-0.007,0.537-0.04,0.825
		c-0.051,0.452,0.383,0.79,0.747,1.063c0.363,0.272,0.739,0.721,0.543,1.131c-1.178,0.313-2.415,0.292-3.633,0.266
		C23.546,4.765,11.775,4.302,0,4.34"/>
	<path fill="#412312" d="M1.421,4.42c0.03,1.459,0.061,2.918,0.091,4.377c0.004,0.197,0.03,0.432,0.205,0.523
		c0.143,0.075,0.317,0.013,0.479,0.01c0.357-0.005,0.659,0.298,0.773,0.637c0.114,0.339,0.083,0.706,0.054,1.063
		c-0.287,3.446-0.284,6.917,0.007,10.363c0.095,1.118,0.22,2.239,0.143,3.359c-0.069,0.997,0.055,2.334,0.024,3.332
		c-0.153,4.857,0.471,9.829,1.01,14.643c0.013,0.115,0.027,0.235,0.085,0.338c0.087,0.15,0.256,0.232,0.417,0.3
		c0.539,0.225,1.103,0.384,1.667,0.534c7.989,2.123,16.413,2.595,24.589,1.378c0.593-0.088,1.192-0.188,1.745-0.418
		c1.475-0.617,1.651-2.897,2.035-4.449c0.587-2.375,0.466-5.081,0.519-7.51c0.028-1.306-0.138-2.623-0.057-3.907
		c0.147-2.312,0.359-4.619,0.598-6.923c0.213-2.051,0.487-3.972,0.287-6.021c-0.212-2.16-0.258-4.338-0.137-6.506
		c0.39,0.205,0.897,0.005,1.173-0.339c0.275-0.345,0.372-0.796,0.446-1.231c0.174-1.028,0.265-2.07,0.271-3.112
		c-6.542,0.093-13.093-0.262-19.635-0.277c-1.531-0.004-2.979,0.032-4.504-0.102c-1.312-0.116-2.692,0.026-4.005-0.07
		C6.785,4.195,3.84,4.534,0.936,4.188"/>
	<path fill="#FFF6DA" d="M2.963,16.092c11.003-0.096,22.036,1.969,32.965,0.685c0.067,5.013-0.292,10.031-1.071,14.982
		c-0.488,0.147-1.012,0.096-1.519,0.037c-1.219-0.138-2.436-0.298-3.649-0.478c-2.405-0.358-4.8-0.799-7.221-1.016
		c-2.749-0.247-5.514-0.203-8.272-0.241C10.401,30.01,6.612,29.805,2.824,29.6c0.165-4.348,0.204-8.698,0.117-13.047"/>
</g>
</svg>
