<?xml version="1.0" encoding="utf-8"?>
<!-- Generator: Adobe Illustrator 16.0.2, SVG Export Plug-In . SVG Version: 6.00 Build 0)  -->
<!DOCTYPE svg PUBLIC "-//W3C//DTD SVG 1.1//EN" "http://www.w3.org/Graphics/SVG/1.1/DTD/svg11.dtd">
<svg version="1.1" id="Layer_1" xmlns="http://www.w3.org/2000/svg" xmlns:xlink="http://www.w3.org/1999/xlink" x="0px" y="0px"
	 width="40.065px" height="52.57px" viewBox="0 0 40.065 52.57" enable-background="new 0 0 40.065 52.57" xml:space="preserve">
<g>
	<path fill="#FFF6DA" d="M4.394,11.3c0.154-2.895,0.308-5.788,0.462-8.683c3.291,2.098,7.429,2.182,11.332,2.2
		c4.048,0.02,8.097,0.038,12.146,0.059c2.555,0.012,5.219,0,7.503-1.146c0.072,2.06,0.145,4.119,0.217,6.178
		c0.016,0.435,0.024,0.893-0.186,1.271c-0.271,0.485-0.829,0.72-1.355,0.897c-3.444,1.161-7.138,1.297-10.771,1.421
		C17.03,13.726,10.55,13.987,4.394,11.3"/>
	<path fill="#F4D49D" d="M4.545,2.177c8.775-2.573,18.208-2.873,27.128-0.859c1.435,0.323,2.981,0.79,3.806,2.007
		c-1.239,1.484-3.434,1.61-5.367,1.619C24.686,4.97,19.258,4.996,13.831,5.021c-1.223,0.006-2.459,0.011-3.653-0.252
		C8.054,4.3,6.638,3.865,4.856,2.618"/>
	<path fill="#412312" d="M34.313,12.44c1.27,2.844,4.052,4.858,5.061,7.805c0.478,1.392,0.52,2.89,0.54,4.362
		c0.103,6.888-0.14,13.781-0.724,20.646c-0.078,0.921-0.167,1.859-0.533,2.707c-0.966,2.238-3.563,3.265-5.968,3.671
		c-2.055,0.349-4.146,0.408-6.229,0.468c-5.218,0.15-10.435,0.301-15.653,0.45c-2.36,0.068-4.963,0.054-6.745-1.493
		c-1.494-1.296-2.03-3.354-2.416-5.294c-1.419-7.137-1.856-14.47-1.292-21.725c0.061-0.784,0.134-1.572,0.352-2.327
		c0.244-0.847,0.664-1.63,1.08-2.406c1.146-2.135,2.29-4.27,3.436-6.403c0.157-0.293,0.335-0.606,0.639-0.74
		c0.285-0.126,0.614-0.065,0.919-0.001c8.901,1.849,16.963,1.338,26.943,0.539"/>
	<path fill="#FFF6DA" d="M0.823,21.844c2.84,1.519,6.184,1.687,9.403,1.792c7.314,0.24,14.633,0.328,21.95,0.265
		c2.654-0.023,5.346-0.072,7.89-0.826c0,8.106-0.315,13.375-0.793,21.749c-9.084,0.409-18.178,0.618-27.271,0.626
		c-3.279,0.003-6.696-0.052-9.616-1.542c-0.422-0.214-0.837-0.465-1.137-0.83c-0.33-0.403-0.495-0.914-0.627-1.417
		c-0.759-2.888-0.678-5.924-0.507-8.904c0.21-3.65,0.546-7.294,1.007-10.92"/>
</g>
</svg>
