<?xml version="1.0" encoding="utf-8"?>
<!-- Generator: Adobe Illustrator 16.0.2, SVG Export Plug-In . SVG Version: 6.00 Build 0)  -->
<!DOCTYPE svg PUBLIC "-//W3C//DTD SVG 1.1//EN" "http://www.w3.org/Graphics/SVG/1.1/DTD/svg11.dtd">
<svg version="1.1" id="Layer_1" xmlns="http://www.w3.org/2000/svg" xmlns:xlink="http://www.w3.org/1999/xlink" x="0px" y="0px"
	 width="35.371px" height="43.991px" viewBox="0 0 35.371 43.991" enable-background="new 0 0 35.371 43.991" xml:space="preserve">
<g>
	<path fill="#5F3B2E" d="M30.772,6.643l0.25,28.061c0.015,1.729,0.003,3.574-0.828,5.021c-0.591,1.027-1.532,1.728-2.51,2.239
		c-2.029,1.063-4.277,1.431-6.494,1.726c-1.384,0.184-2.774,0.343-4.166,0.294c-3.182-0.112-6.249-1.308-9.26-2.49
		c-0.496-0.195-1.012-0.405-1.375-0.839c-0.444-0.53-0.585-1.313-0.993-1.881c-0.311-0.434-0.769-0.729-1.004-1.222
		c-0.202-0.424-0.208-0.93-0.209-1.413L4.122,4.567c8.964-0.006,17.929-0.011,26.893-0.017c0.178,0.869,0.176,1.785-0.005,2.653"/>
	<path fill="#FFF6DA" d="M30.73,15.509c-0.133,1.487-1.638,1.432-3.108,1.8c-4.517,1.13-9.116,1.943-13.75,2.432
		c-1.18,0.124-2.387,0.225-3.542-0.042c-1.295-0.302-2.433-1.043-3.521-1.798c-0.957-0.662-1.939-1.391-2.433-2.436
		c-0.403-0.849-0.438-1.816-0.466-2.753c-0.073-2.394-0.145-4.785-0.217-7.178c-0.014-0.472-0.002-1.008,0.356-1.32
		c0.335-0.292,0.837-0.269,1.283-0.231c8.16,0.701,16.379,0.745,24.546,0.131c0.397-0.03,0.842-0.047,1.138,0.215
		c0.322,0.283,0.331,0.766,0.314,1.189c-0.136,3.484-0.108,5.941-0.397,9.415"/>
	<path fill="#F4D49D" d="M28.73,0.145c0.947-0.045,1.928-0.084,2.804,0.351c0.498,0.246,0.936,0.634,1.37,1.017l2.466,2.184
		c-0.604,0.893-1.696,0.967-2.654,0.967c-9.227,0.003-18.455,0.006-27.683,0.01c-0.835,0-1.705-0.009-2.451-0.46
		C1.431,3.516-0.912,0.627,0.375,0.524C2.298,0.373,17.717-0.288,28.73,0.145"/>
</g>
</svg>
