<?xml version="1.0" encoding="utf-8"?>
<!-- Generator: Adobe Illustrator 16.0.2, SVG Export Plug-In . SVG Version: 6.00 Build 0)  -->
<!DOCTYPE svg PUBLIC "-//W3C//DTD SVG 1.1//EN" "http://www.w3.org/Graphics/SVG/1.1/DTD/svg11.dtd">
<svg version="1.1" id="Layer_1" xmlns="http://www.w3.org/2000/svg" xmlns:xlink="http://www.w3.org/1999/xlink" x="0px" y="0px"
	 width="66.128px" height="39.687px" viewBox="0 0 66.128 39.687" enable-background="new 0 0 66.128 39.687" xml:space="preserve">
<g>
	<path fill="#FFCB0B" d="M65.07,6.626c0.254-2.159,0.295-4.802-1.539-5.97c-0.895-0.569-2.016-0.608-3.074-0.624
		C41.52-0.249,22.563,1.394,3.652,0.357C2.895,0.316,2.08,0.285,1.438,0.689C0.807,1.086,0.48,1.826,0.291,2.546
		c-0.664,2.533-0.053,5.2,0.445,7.77c1.324,6.822,0.818,13.225,1.547,20.742c0.148,1.528-0.156,3.145,0.512,4.527
		c1.069,2.211,3.709,3.135,6.129,3.559c6.834,1.198,13.83,0.127,20.742-0.496c3.779-0.341,7.57-0.548,11.359-0.754
		c7.26-0.395,14.52-0.79,21.781-1.185c0.479-0.026,0.986-0.061,1.387-0.328c0.527-0.354,0.736-1.02,0.876-1.641
		C66.766,27.14,65,19.497,64.43,11.495C64.303,9.703,65.008,8.421,65.07,6.626"/>
	<path fill="#416FB6" d="M2.57,20.693c4.926-0.276,9.945-0.19,14.914-0.067c6.223,0.155,12.441,0.369,18.584,0.762
		c2.586,0.166,5.75-0.014,8.344-0.162c2.472-0.14,5.313-0.048,7.77-0.228c5.178-0.381,6.355-0.326,10.357-0.305
		c0.385,0.002,2.951-0.21,3.236-0.304c0.248-0.082,0.213-0.904,0.267-1.025c0.347-0.777-0.467-0.763-0.485-1.769
		c-0.06-3.326,0.203-7.034-1.507-10.3c-5.476-0.342-11.907,0.553-17.429,0.777c-5.129,0.209-10.309,0.065-15.465-0.025
		C21.846,7.885,12.512,7.896,3.204,8.082c-0.492,0.01-1.046,0.032-1.349,0.174C1.611,8.37,1.611,8.528,1.631,8.673
		c0.104,0.766-0.92,2.903-0.855,3.669c0.313,3.768,1.685,5.077,1.377,8.394"/>
</g>
</svg>
