<?xml version="1.0" encoding="utf-8"?>
<!-- Generator: Adobe Illustrator 16.0.2, SVG Export Plug-In . SVG Version: 6.00 Build 0)  -->
<!DOCTYPE svg PUBLIC "-//W3C//DTD SVG 1.1//EN" "http://www.w3.org/Graphics/SVG/1.1/DTD/svg11.dtd">
<svg version="1.1" id="Layer_1" xmlns="http://www.w3.org/2000/svg" xmlns:xlink="http://www.w3.org/1999/xlink" x="0px" y="0px"
	 width="77.663px" height="46.188px" viewBox="0 0 77.663 46.188" enable-background="new 0 0 77.663 46.188" xml:space="preserve">
<g>
	<path fill="#912B25" d="M29.023,13.067c7.641,2.2,16.072,1.396,23.181-2.213c2.068-1.049,4.032-2.327,6.196-3.146
		c2.165-0.82,4.626-1.146,6.76-0.246c1.832,0.771,3.249,2.397,4.016,4.264c0.768,1.865,0.924,3.951,0.694,5.96
		c-0.247,2.164-0.981,4.355-2.515,5.87c-1.549,1.53-3.707,2.195-5.776,2.809c-2.872,0.853-5.743,1.705-8.616,2.558
		c-1.932,0.572-3.867,1.146-5.84,1.549c-9.775,1.993-19.88-0.325-29.412-3.296c-0.912-0.284-1.822-0.575-2.69-0.978
		c-2.46-1.137-4.532-3.214-5.498-5.789c-0.968-2.574-0.752-5.628,0.735-7.929c0.537-0.829,1.233-1.559,2.07-2.065
		c0.881-0.532,1.889-0.805,2.901-0.949c5.073-0.73,10.045,1.563,14.677,3.801"/>
	<path fill="#912B25" d="M9.843,12.139c-0.556-2.052-1.21-4.076-1.962-6.061C7.795,5.852,7.705,5.621,7.547,5.439
		C7.268,5.12,6.83,5.01,6.42,4.916C5.93,5.838,5.39,6.73,4.802,7.591c-0.38,0.554-0.782,1.1-1.289,1.534
		C2.36,10.111,0.668,10.542,0,11.916c3.242,0.353,6.498,0.565,9.76,0.64"/>
	<path fill="#912B25" d="M67.433,9.45c1.125-2.443,0.427-5.319,0.709-8.005C68.201,0.868,68.384,0.2,68.916,0
		c2.664,3.1,5.402,6.132,8.215,9.094c0.314,0.332,0.658,0.781,0.486,1.209c-0.166,0.415-0.693,0.505-1.131,0.521
		c-3.113,0.117-6.247-0.382-9.177-1.464"/>
	<path fill="#F4D49D" d="M53.141,10.369c0.538,1.961,1.075,4.063,0.452,5.997c-0.638,1.98-2.371,3.389-3.261,5.265
		c0.374-1.735,1.203-3.327,1.816-4.99c0.612-1.663,1.01-3.513,0.487-5.207c-0.106-0.342-0.247-0.719-0.103-1.045
		c0.146-0.327,0.742-0.37,0.777-0.014"/>
	<path fill="#F4D49D" d="M42.203,14.107c-0.305,1.189-0.688,2.358-1.146,3.495c-0.398,0.992-0.869,1.981-1.613,2.739
		c-0.742,0.758-1.809,1.256-2.844,1.073c0.771,0.019,1.48-0.518,1.856-1.204s0.466-1.499,0.453-2.286
		c-0.009-0.442-0.041-0.906,0.143-1.307c0.31-0.673,1.121-0.942,1.55-1.544c0.183-0.255,0.289-0.562,0.49-0.802
		c0.2-0.24,0.553-0.401,0.819-0.24"/>
	<path fill="#F4D49D" d="M29.041,13.022c-0.412,0.958-0.912,1.877-1.494,2.74c-1.096,1.628-2.67,3.148-4.604,3.257
		c-0.402,0.023-0.883-0.068-1.045-0.444c0.204-0.568,0.811-0.844,1.305-1.176c0.451-0.303,0.84-0.689,1.225-1.074
		c1.186-1.184,2.389-2.392,3.177-3.88c0.053-0.1,0.119-0.213,0.229-0.231c0.076-0.013,0.152,0.024,0.222,0.063
		c0.317,0.173,0.636,0.345,0.954,0.518"/>
	<path fill="#D06728" d="M28.488,25.781c7.14,3.546,15.578,4.278,23.199,2.012c2.217-0.658,4.371-1.563,6.645-1.978
		c2.271-0.416,4.752-0.292,6.695,0.979c1.67,1.092,2.781,2.948,3.213,4.923s0.224,4.056-0.35,5.991
		c-0.619,2.085-1.723,4.109-3.494,5.323c-1.789,1.227-4.028,1.49-6.172,1.721c-2.975,0.319-5.949,0.64-8.924,0.959
		c-2.001,0.216-4.004,0.431-6.016,0.47c-9.967,0.194-19.51-3.912-28.377-8.561c-0.848-0.443-1.693-0.895-2.479-1.445
		c-2.224-1.565-3.902-3.983-4.406-6.692c-0.506-2.709,0.234-5.675,2.1-7.67c0.671-0.719,1.482-1.313,2.395-1.66
		c0.959-0.365,1.998-0.45,3.021-0.41c5.12,0.199,9.614,3.355,13.786,6.394"/>
	<path fill="#D06728" d="M9.771,21.401c-0.189-2.12-0.483-4.23-0.879-6.32c-0.047-0.238-0.095-0.482-0.219-0.688
		c-0.22-0.365-0.631-0.553-1.018-0.719c-0.643,0.818-1.329,1.601-2.057,2.34c-0.47,0.478-0.961,0.941-1.535,1.277
		c-1.305,0.762-3.045,0.88-3.941,2.112c3.13,0.933,6.299,1.73,9.495,2.393"/>
	<path fill="#D06728" d="M66.919,29.163c1.53-2.203,1.343-5.159,2.086-7.751c0.159-0.557,0.454-1.182,1.013-1.283
		c2.084,3.533,4.254,7.012,6.508,10.435c0.252,0.384,0.512,0.888,0.27,1.279c-0.235,0.378-0.77,0.371-1.203,0.308
		c-3.084-0.445-6.082-1.505-8.778-3.098"/>
	<path fill="#F4D49D" d="M52.693,27.484c0.189,2.026,0.354,4.192-0.595,5.983c-0.972,1.833-2.921,2.906-4.123,4.593
		c0.67-1.641,1.761-3.058,2.653-4.583c0.892-1.526,1.603-3.274,1.383-5.037c-0.044-0.356-0.118-0.751,0.081-1.047
		c0.198-0.297,0.795-0.23,0.767,0.128"/>
	<path fill="#F4D49D" d="M41.28,29.187c-0.507,1.115-1.086,2.196-1.734,3.232c-0.565,0.904-1.198,1.793-2.062,2.404
		s-1.999,0.909-2.986,0.543c0.755,0.157,1.547-0.242,2.036-0.851c0.489-0.607,0.719-1.391,0.842-2.167
		c0.069-0.438,0.116-0.899,0.367-1.26c0.421-0.606,1.267-0.727,1.793-1.239c0.224-0.218,0.383-0.501,0.622-0.701
		c0.238-0.201,0.613-0.295,0.847-0.088"/>
	<path fill="#F4D49D" d="M28.515,25.74c-0.572,0.869-1.224,1.683-1.945,2.426c-1.36,1.405-3.175,2.616-5.096,2.374
		c-0.4-0.05-0.856-0.228-0.952-0.627c0.299-0.521,0.943-0.683,1.489-0.92c0.495-0.217,0.944-0.527,1.391-0.837
		c1.372-0.95,2.767-1.921,3.8-3.244c0.068-0.089,0.153-0.188,0.264-0.187c0.078,0.001,0.146,0.053,0.209,0.102
		c0.283,0.229,0.565,0.455,0.85,0.683"/>
</g>
</svg>
