<?xml version="1.0" encoding="utf-8"?>
<!-- Generator: Adobe Illustrator 16.0.2, SVG Export Plug-In . SVG Version: 6.00 Build 0)  -->
<!DOCTYPE svg PUBLIC "-//W3C//DTD SVG 1.1//EN" "http://www.w3.org/Graphics/SVG/1.1/DTD/svg11.dtd">
<svg version="1.1" id="Layer_1" xmlns="http://www.w3.org/2000/svg" xmlns:xlink="http://www.w3.org/1999/xlink" x="0px" y="0px"
	 width="45.64px" height="70.771px" viewBox="0 0 45.64 70.771" enable-background="new 0 0 45.64 70.771" xml:space="preserve">
<g>
	<path fill="#FFFFFF" d="M43.705,6.093c-3.252-1.376,0.591-3.849-0.732-4.713c-0.512-0.333-5.543-0.588-9.008-0.784
		C25.012,0.088,15.879-0.476,6.981,0.67c-0.762,0.099-1.557,0.224-2.18,0.691C4.178,1.828,3.799,2.746,4.162,3.449
		c0.423,0.822,1.724,1.365,1.36,2.216C5.266,6.264,4.434,6.195,3.877,6.5C3.235,6.852,3.013,7.676,2.853,8.41
		c-1.275,5.882-2.522,8.795-2.522,14.824C0.332,26.19,0.472,36.46,0.576,39.413C0.982,50.93-1.563,58.484,1.647,69.515
		c0.091,0.313,0.195,0.64,0.419,0.87c0.377,0.386,0.97,0.394,1.499,0.376c6.27-0.203,12.54-0.406,18.81-0.609
		c6.091-0.197,12.68,1.829,18.33-0.542c0.663-0.278,1.852-1.359,2.268-1.962c0.414-0.602,0.51-3.581,0.567-4.318
		c0.186-2.412-0.638-4.135-0.593-6.555c0.065-3.502,0.13-7.003,0.195-10.504c0.056-3.049,0.113-6.109-0.23-9.138
		c-0.529-4.688-0.228-8.538,0.061-13.25c0.168-2.741-0.851-6.164-0.255-8.842C43.422,11.877,43.469,9.33,43.705,6.093"/>
	<path fill="#A03242" d="M33.47,51.12c-0.396,0.833-0.792,1.666-1.188,2.498c-0.1,0.21-0.215,0.437-0.42,0.533
		c-0.186,0.088-0.401,0.05-0.602,0.01c-5.441-1.059-11.036-1.258-16.534-0.587c-0.672,0.082-1.389,0.17-1.995-0.144
		c-0.605-0.313-0.977-1.205-0.54-1.741c0.317-0.389,0.877-0.413,1.369-0.407C19.659,51.367,27.37,51.035,33.47,51.12"/>
	<path fill="#FFFFFF" d="M43.218,6.093c4.179,21.064,1.238,24.986,2.39,40.941c0.256,3.55-1.09,7.047-1.032,10.635
		c0.028,1.729,0.224,3.459,0.116,5.183c-0.108,1.723-1.216,3.942-2.213,4.86c-0.195-3.062-0.149-6.217-0.044-9.289
		c0.05-1.481-0.159-3.038-0.267-4.514c-0.16-2.173,0.097-4.53-0.076-6.702c-0.198-2.472,0.363-4.945,0.309-7.433
		c-0.144-6.732-0.14-13.296-0.255-19.953c-0.027-1.525-0.023-3.088,0.332-4.521c0.268-1.081,0.677-6.164,0.623-7.313L43.012,6.09"/>
	<path fill="#25809A" d="M16.228,65.592c1,0.496,2.173,0.334,3.269,0.161c0.409-0.063,0.871-0.164,1.083-0.533
		c0.11-0.192,0.13-0.428,0.215-0.635c0.287-0.698,1.16-0.847,1.89-0.896c-0.049,0.532,0.233,1.083,0.686,1.339
		c0.41,0.23,0.902,0.222,1.369,0.206c0.903-0.029,1.806-0.06,2.71-0.088c0.331-0.012,0.698-0.01,0.945,0.221
		c0.245,0.229,0.286,0.606,0.312,0.949c0.04,0.536,0.08,1.072,0.12,1.608c-0.307,0.275-0.796,0.031-1.042-0.303
		c-0.246-0.334-0.395-0.761-0.728-0.999c-0.669-0.477-1.544,0.076-2.236,0.517c-0.691,0.442-1.811,0.655-2.134-0.117
		c-0.067-0.161-0.083-0.343-0.153-0.501c-0.194-0.444-0.76-0.592-1.216-0.472c-0.455,0.12-0.834,0.436-1.225,0.707
		c-0.676,0.47-1.425,0.825-2.208,1.049c-0.712,0.204-1.654,0.197-1.978-0.49c-0.244-0.518,0.109-1.229,0.655-1.322"/>
	<path fill="#FFFFFF" d="M16.13,65.946c1.226,0.408,2.839,0.527,4.08,0.01c0.748-0.313,1.495-1.893,2.176-1.643
		c0.153,0.058,0.14,0.556,0.335,0.632c0.873,0.345,0.112,0.339,1.215,0.634c0.45,0.119,1.274,0.003,1.707-0.007
		c0.602-0.02,1.204-0.038,1.806-0.059c1.277,1.372,1.489,1.871,0.636,1.497c-0.586-0.308-0.831-0.851-1.563-0.938
		c-1.882-0.223-1.288,1.403-3.671,0.264c-0.668-0.32-0.559-0.765-1.533-0.653c-0.275,0.031-0.647,0.269-0.822,0.347
		c-0.414,0.305-0.843,0.584-1.288,0.841c-1.079,0.961-1.899,0.774-2.461-0.56c0.41-0.237,0.04-0.873-0.371-0.635
		c-0.879,0.508-1.283,1.542-0.384,2.295c1.293,1.081,3.14-0.438,4.286-0.896c1.055-0.422,0.163-0.8,2.072,0.09
		c0.157,0.072,0.261,0.477,0.449,0.524c0.638,0.164,0.861,0.276,1.54,0.083c1.934-0.551,0.247-0.781,3.186,0.11
		c0.901,0.273,0.37,0.543,1.399,0.397c0.148-0.021,0.281-0.209,0.27-0.354c-0.058-0.78,0.107-2.288-0.614-2.876
		c-1.186-0.966-5.282,0.979-5.527-1.36c-0.019-0.181-0.154-0.392-0.368-0.368c-0.68,0.075-1.265,0.173-1.837,0.576
		c-0.188,0.133-0.254,0.442-0.408,0.59c-1.225,1.177-2.447,1.306-4.115,0.75C15.875,65.088,15.682,65.798,16.13,65.946"/>
	<path fill="#25809A" d="M31.814,38.402c0.019-2.475-1.888-4.609-4.09-5.556c-2.203-0.946-4.659-0.951-7.042-0.943
		c-2.349,0.008-4.839,0.059-6.823,1.363c-1.793,1.179-2.904,3.241-3.463,5.367c-0.512,1.951-0.575,4.184,0.531,5.849
		c1.705,2.569,5.248,2.693,8.249,2.554c3.337-0.154,6.675-0.309,10.012-0.464c0.295-0.014,0.604-0.032,0.857-0.19
		c0.313-0.198,0.474-0.572,0.617-0.923c1.025-2.518,2.065-5.313,1.238-7.908"/>
</g>
</svg>
