<?xml version="1.0" encoding="utf-8"?>
<!-- Generator: Adobe Illustrator 16.0.2, SVG Export Plug-In . SVG Version: 6.00 Build 0)  -->
<!DOCTYPE svg PUBLIC "-//W3C//DTD SVG 1.1//EN" "http://www.w3.org/Graphics/SVG/1.1/DTD/svg11.dtd">
<svg version="1.1" id="Layer_1" xmlns="http://www.w3.org/2000/svg" xmlns:xlink="http://www.w3.org/1999/xlink" x="0px" y="0px"
	 width="150.236px" height="37.429px" viewBox="0 0 150.236 37.429" enable-background="new 0 0 150.236 37.429"
	 xml:space="preserve">
<g>
	<path fill="#FFF6DA" d="M103.883,27.871c0.088,0.356,0.176,0.712,0.264,1.068c0.345,1.39,2.493,0.801,2.148-0.592
		c-0.088-0.356-0.176-0.712-0.265-1.068C105.686,25.89,103.538,26.479,103.883,27.871"/>
	<path fill="#FFF6DA" d="M129.291,27c-0.266,0.091-0.532,0.181-0.798,0.271c-0.569,0.194-0.944,0.766-0.778,1.37
		c0.152,0.554,0.798,0.972,1.37,0.777c0.266-0.09,0.532-0.182,0.798-0.272c0.569-0.192,0.944-0.765,0.778-1.369
		C130.508,27.223,129.863,26.805,129.291,27"/>
	<path fill="#FFF6DA" d="M136.588,33.018c0.622-0.711,1.245-1.424,1.867-2.135c0.395-0.452,0.445-1.13,0-1.574
		c-0.404-0.404-1.177-0.454-1.575,0c-0.622,0.711-1.244,1.423-1.867,2.134c-0.395,0.453-0.445,1.13,0,1.575
		C135.417,33.421,136.19,33.473,136.588,33.018"/>
	<path fill="#5F3B2E" d="M91.98,0.508c-21.819,0.33-44.535,0.337-66.354,0.666c-1.813,0.028-3.665,0.062-5.371,0.677
		c-4.248,1.532-6.438,6.113-8.199,10.271c-0.46-2.785-1.716-5.435-3.58-7.555C7.583,3.554,6.458,2.616,5.113,2.488
		C3.769,2.359,2.266,3.392,2.351,4.74c0.039,0.61,0.377,1.155,0.705,1.673c1.018,1.604,2.035,3.207,3.053,4.811
		c-1.831,0.637-3.75,1.331-5.02,2.795c-1.27,1.465-1.577,3.957-0.12,5.236c1.041,0.913,2.56,0.927,3.903,1.264
		c1.342,0.337,2.79,1.453,2.474,2.8c-0.339,1.443-2.471,1.991-2.615,3.467c0.401,0.836,1.554,1.064,2.421,0.736
		c0.867-0.328,1.511-1.055,2.118-1.756l3.899-4.498c-1.14,3.756,1.242,7.87,4.567,9.956c3.325,2.087,7.372,2.601,11.279,2.979
		c19.085,1.847,38.307,1.663,57.47,1.045c0.752-0.024,5.416,0.187,5.854-0.423c0.349-0.485-3.5-1.432-3.557-2.026
		c-1.061-11.159-0.431-21.175,2.03-32.11"/>
	<path fill="#B72027" d="M138.064,10.569c2.744-0.396,2.875-2.066,6.917-1.168c0.338,0.074,1.759,0.469,2.066,0.629
		c0.22,0.113,1.206,0.949,1.348,1.151c3.118,4.457,1.996,10.859-1.267,15.211c-3.262,4.354-8.213,7.075-13.105,9.453
		c-1.488,0.724-3.027,1.439-4.676,1.566s-3.454-0.455-4.35-1.845c-0.374-0.58-0.56-1.361-0.204-1.952
		c0.258-0.432,0.739-0.665,1.181-0.905c3.497-1.904,5.77-5.413,7.896-8.78c1.7-2.692,3.4-5.386,5.101-8.08
		c0.838-1.326-1.118-3.639-0.548-5.101"/>
	<path fill="#B72027" d="M87.129,1.047c1.218-1.78,4.63-0.956,6.552,0.021c1.922,0.979,3.168,2.938,3.906,4.965
		c1.107,3.043,1.262,6.338,1.406,9.572c0.138,3.103,0.272,6.25-0.44,9.272c-0.335,1.425-0.853,2.799-1.37,4.168
		c-0.889,2.354-2.073,4.998-4.483,5.726c-1.961,0.593-4.135-0.389-5.483-1.931c-1.349-1.542-2.025-3.55-2.563-5.527
		c-1.58-5.802-2.248-11.9-1.457-17.861C83.666,5.909,82.817,3.742,87.129,1.047"/>
	<path fill="#5F3B2E" d="M130.797,9.983c2.317-2.042,6.448-1.375,8.005,1.292c0.869,1.489,0.953,3.295,0.966,5.02
		c0.015,1.777-0.026,3.579-0.517,5.288c-0.832,2.891-2.916,5.303-5.382,7.024c-2.466,1.722-5.349,3.915-8.202,4.869
		c-2.758,0.922-4.142,1.744-8.175,2.336c-2.057,0.301-4.443-0.147-6.25-1.176c2.415-1.845,4.829-3.689,7.244-5.534
		c1.206-0.921,2.417-1.847,3.479-2.931c1.183-1.207,2.165-2.593,3.141-3.972c1.445-2.041,2.89-4.083,4.334-6.124
		c1.437-2.03,2.139-3.509,1.348-5.867"/>
	<path fill="#FFF6DA" d="M86.503,12.956v0.8c0,1.433,2.227,1.437,2.227,0v-0.8C88.73,11.522,86.503,11.521,86.503,12.956"/>
	<path fill="#FFF6DA" d="M95.039,16.156v2.135c0,1.433,2.227,1.435,2.227,0v-2.135C97.266,14.724,95.039,14.722,95.039,16.156"/>
	<path fill="#FFF6DA" d="M88.37,20.157v1.067c0,1.433,2.227,1.436,2.227,0v-1.067C90.597,18.725,88.37,18.723,88.37,20.157"/>
	<path fill="#FFF6DA" d="M92.638,27.093v1.067c0,1.433,2.227,1.435,2.227,0v-1.067C94.865,25.66,92.638,25.658,92.638,27.093"/>
	<path fill="#FFF6DA" d="M88.553,3.347c-0.677,1.034-1.018,2.239-1.01,3.475c0.01,1.433,2.237,1.436,2.227,0
		c-0.006-0.867,0.232-1.626,0.706-2.351C91.263,3.268,89.336,2.15,88.553,3.347"/>
	<path fill="#B72027" d="M102.911,32.775c-0.501-3.578,2.228-6.546,4.087-9.643c1.86-3.098,4.486-5.668,7.291-7.944
		c3.428-2.782,7.266-5.221,11.572-6.198c1.322-0.3,2.743-0.451,4.007,0.039c2.288,0.888,3.353,3.627,3.24,6.078
		c-0.226,4.94-3.982,8.962-7.857,12.034c-5.068,4.018-10.961,7.335-17.397,7.968C105.848,35.307,103.227,34.767,102.911,32.775"/>
	<path fill="#FFF6DA" d="M127.351,12.423v1.866c0,1.434,2.227,1.436,2.227,0v-1.866C129.578,10.989,127.351,10.987,127.351,12.423"
		/>
	<path fill="#FFF6DA" d="M124.674,20.425c0.01,0.448-0.131,0.777-0.46,1.085c-1.049,0.981,0.528,2.555,1.575,1.575
		c0.734-0.687,1.135-1.656,1.112-2.66C126.868,18.994,124.641,18.989,124.674,20.425"/>
	<path fill="#FFF6DA" d="M120.462,13.461c-0.063,0.384-0.211,0.701-0.562,0.826c-0.566,0.201-0.945,0.759-0.778,1.369
		c0.151,0.548,0.801,0.98,1.37,0.777c1.063-0.378,1.929-1.235,2.117-2.381c0.098-0.593-0.154-1.198-0.777-1.37
		C121.299,12.537,120.561,12.864,120.462,13.461"/>
	<path fill="#FFF6DA" d="M113.485,18.246c-1.523,0.532-2.663,1.679-3.161,3.218c-0.443,1.366,1.707,1.951,2.147,0.592
		c0.247-0.761,0.845-1.396,1.606-1.662c0.567-0.198,0.945-0.761,0.778-1.369C114.704,18.474,114.056,18.048,113.485,18.246"/>
	<path fill="#FFF6DA" d="M119.9,20.53c-0.178,0.089-0.356,0.178-0.533,0.267c-0.538,0.269-0.689,1.028-0.4,1.523
		c0.32,0.548,0.984,0.67,1.524,0.399c0.177-0.089,0.355-0.178,0.533-0.267c0.538-0.27,0.689-1.029,0.399-1.524
		C121.103,20.382,120.44,20.26,119.9,20.53"/>
	<path fill="#FFF6DA" d="M111.098,26.665c-0.622,0.267-1.245,0.533-1.867,0.8c-0.553,0.237-0.676,1.05-0.4,1.524
		c0.335,0.57,0.969,0.637,1.524,0.398l1.867-0.8c0.553-0.237,0.676-1.05,0.399-1.524C112.287,26.493,111.653,26.427,111.098,26.665"
		/>
	<path fill="#FFF6DA" d="M135.717,12.367c-0.261,0.536-0.523,1.072-0.784,1.608c-0.263,0.541-0.147,1.204,0.4,1.524
		c0.489,0.285,1.259,0.143,1.523-0.4c0.261-0.536,0.523-1.072,0.784-1.608c0.263-0.54,0.147-1.203-0.4-1.522
		C136.751,11.682,135.981,11.824,135.717,12.367"/>
	<path fill="#FFF6DA" d="M135.666,24.738c1.433,0,1.435-2.227,0-2.227C134.233,22.512,134.231,24.738,135.666,24.738"/>
	<path fill="#FFF6DA" d="M128.956,26.37c-0.537,0.26-1.074,0.52-1.61,0.778c-0.542,0.263-0.687,1.034-0.4,1.524
		c0.323,0.553,0.98,0.662,1.524,0.399c0.536-0.26,1.073-0.52,1.61-0.779c0.541-0.262,0.687-1.033,0.399-1.524
		C130.155,26.217,129.499,26.106,128.956,26.37"/>
	<path fill="#FFF6DA" d="M142.555,15.356v1.067c0,1.433,2.227,1.435,2.227,0v-1.067C144.781,13.924,142.555,13.922,142.555,15.356"
		/>
	<path fill="#FFF6DA" d="M140.171,21.218c-0.267,0.089-0.533,0.178-0.8,0.268c-0.57,0.189-0.943,0.768-0.778,1.368
		c0.153,0.559,0.797,0.97,1.37,0.778c0.267-0.089,0.533-0.178,0.8-0.267c0.57-0.19,0.943-0.768,0.778-1.369
		C141.387,21.438,140.744,21.027,140.171,21.218"/>
	<path fill="#FFF6DA" d="M144.213,24.403c-0.378,1.059-0.757,2.117-1.135,3.176c-0.203,0.566,0.228,1.219,0.777,1.37
		c0.617,0.17,1.167-0.209,1.37-0.778c0.378-1.058,0.757-2.117,1.135-3.176c0.203-0.566-0.228-1.219-0.777-1.37
		C144.966,23.456,144.417,23.835,144.213,24.403"/>
	<path fill="#FFF6DA" d="M94.493,8.03c-0.301-0.092-0.233-0.352-0.076-0.554c-0.368,0.475-0.463,1.112,0,1.575
		c0.383,0.383,1.204,0.478,1.574,0c0.424-0.547,0.628-1.158,0.421-1.846c-0.195-0.649-0.682-1.125-1.327-1.322
		C93.712,5.463,93.124,7.611,94.493,8.03"/>
</g>
</svg>
