<?xml version="1.0" encoding="utf-8"?>
<!-- Generator: Adobe Illustrator 16.0.2, SVG Export Plug-In . SVG Version: 6.00 Build 0)  -->
<!DOCTYPE svg PUBLIC "-//W3C//DTD SVG 1.1//EN" "http://www.w3.org/Graphics/SVG/1.1/DTD/svg11.dtd">
<svg version="1.1" id="Layer_1" xmlns="http://www.w3.org/2000/svg" xmlns:xlink="http://www.w3.org/1999/xlink" x="0px" y="0px"
	 width="28.127px" height="121.822px" viewBox="0 0 28.127 121.822" enable-background="new 0 0 28.127 121.822"
	 xml:space="preserve">
<g>
	<path fill="#FFCB0B" d="M13.79,25.69c0.814,19.869,1.345,39.746,1.589,59.629c0.009,0.732,1.146,0.733,1.137,0
		c-0.245-19.883-0.773-39.76-1.589-59.629C14.896,24.961,13.759,24.958,13.79,25.69"/>
	<path fill="#EEA820" d="M19.237,24.941c0.209,19.297-0.282,38.585-1.474,57.847c-0.045,0.731,1.092,0.729,1.137,0
		c1.192-19.262,1.684-38.549,1.474-57.847C20.365,24.211,19.229,24.209,19.237,24.941"/>
	<path fill="#FFCB0B" d="M16.442,25.69c0.815,19.869,1.345,39.746,1.589,59.629c0.01,0.732,1.145,0.733,1.137,0
		c-0.245-19.883-0.774-39.76-1.589-59.629C17.549,24.961,16.413,24.958,16.442,25.69"/>
	<path fill="#EEA820" d="M21.89,24.941c0.209,19.297-0.282,38.585-1.473,57.847c-0.045,0.731,1.091,0.729,1.137,0
		c1.191-19.262,1.683-38.549,1.473-57.847C23.019,24.211,21.882,24.209,21.89,24.941"/>
	<path fill="#FFCB0B" d="M19.095,25.69c0.814,19.869,1.345,39.746,1.589,59.629c0.008,0.732,1.145,0.733,1.135,0
		c-0.244-19.883-0.773-39.76-1.589-59.629C20.202,24.961,19.064,24.958,19.095,25.69"/>
	<path fill="#EEA820" d="M24.542,24.941c0.209,19.297-0.282,38.585-1.473,57.847c-0.045,0.731,1.092,0.729,1.137,0
		c1.19-19.262,1.683-38.549,1.473-57.847C25.671,24.211,24.534,24.209,24.542,24.941"/>
	<path fill="#FFCB0B" d="M21.748,25.69c0.814,19.869,1.345,39.746,1.589,59.629c0.008,0.732,1.145,0.733,1.136,0
		c-0.245-19.883-0.773-39.76-1.589-59.629C22.854,24.961,21.717,24.958,21.748,25.69"/>
	<path fill="#EEA820" d="M21.131,24.941c0.21,19.297-0.282,38.585-1.473,57.847c-0.045,0.731,1.092,0.729,1.137,0
		c1.191-19.262,1.683-38.549,1.473-57.847C22.26,24.211,21.124,24.209,21.131,24.941"/>
	<path fill="#EEA820" d="M18.858,26.457c0.209,19.297-0.282,38.585-1.473,57.847c-0.045,0.731,1.092,0.729,1.136,0
		c1.191-19.262,1.683-38.549,1.473-57.847C19.987,25.727,18.851,25.725,18.858,26.457"/>
	<path fill="#FFCB0B" d="M10.758,27.964c0.815,19.869,1.345,39.746,1.589,59.629c0.009,0.731,1.145,0.733,1.137,0
		c-0.245-19.884-0.774-39.761-1.589-59.629C11.865,27.235,10.729,27.231,10.758,27.964"/>
	<path fill="#EEA820" d="M13.932,27.594c0.209,19.296-0.282,38.584-1.473,57.846c-0.045,0.731,1.091,0.729,1.136,0
		c1.191-19.262,1.683-38.55,1.473-57.846C15.061,26.864,13.924,26.862,13.932,27.594"/>
	<path fill="#FFCB0B" d="M12.274,28.342c0.815,19.869,1.345,39.746,1.589,59.63c0.009,0.731,1.145,0.733,1.137,0
		c-0.245-19.884-0.774-39.761-1.589-59.63C13.381,27.614,12.244,27.61,12.274,28.342"/>
	<path fill="#EEA820" d="M16.206,27.594c0.209,19.296-0.282,38.584-1.473,57.846c-0.045,0.731,1.091,0.729,1.136,0
		c1.192-19.262,1.684-38.55,1.474-57.846C17.334,26.864,16.198,26.862,16.206,27.594"/>
	<path fill="#FEC045" d="M0.391,44.678c0.501,12.464,0.194,23.042,0.897,37.907c0.032,0.682,0.604,3.526,1.002,4.08
		c0.432,0.604,0.975-0.517,1.705-0.378c8.058,1.525,14.088,1.192,22.285,1.478c0.061-14.816-0.044-29.634-0.314-44.449
		c-0.012-0.658-0.038-1.36-0.42-1.896c-0.49-0.69-1.408-0.896-2.245-1.024c-8.038-1.234-14.961-1.664-23.176,4.34L0.391,44.678z"/>
	<path fill="#B72027" d="M2.45,116.63c0.696,0.56-0.035,1.761-0.156,2.646c-0.121,0.885-0.076,1.999,0.725,2.393
		c0.307,0.149,0.662,0.153,1.004,0.153c7.455-0.01,14.91-0.017,22.367-0.025c0.618-0.001,1.364-0.077,1.635-0.633
		c0.123-0.25,0.111-0.542,0.085-0.819c-0.066-0.727-0.214-1.445-0.44-2.139c-0.091-0.281-0.209-0.576-0.453-0.742
		c-0.232-0.159-0.533-0.168-0.815-0.171C18.123,117.195,10.729,116.464,2.45,116.63"/>
	<path fill="#FFCB0B" d="M3.032,37.426c0.815,19.869,1.345,39.745,1.589,59.628c0.009,0.732,1.145,0.734,1.137,0
		C5.513,77.171,4.984,57.295,4.168,37.426C4.139,36.697,3.001,36.693,3.032,37.426"/>
	<path fill="#EEA820" d="M8.479,36.677c0.209,19.297-0.282,38.585-1.474,57.847c-0.045,0.731,1.092,0.729,1.137,0
		c1.192-19.262,1.684-38.549,1.474-57.847C9.607,35.947,8.471,35.945,8.479,36.677"/>
	<path fill="#FFCB0B" d="M5.684,37.426c0.815,19.869,1.345,39.745,1.589,59.628c0.009,0.732,1.145,0.734,1.137,0
		C8.166,77.171,7.636,57.295,6.821,37.426C6.791,36.697,5.654,36.693,5.684,37.426"/>
	<path fill="#EEA820" d="M11.132,36.677c0.209,19.297-0.282,38.585-1.473,57.847c-0.045,0.731,1.091,0.729,1.137,0
		c1.191-19.262,1.683-38.549,1.473-57.847C12.261,35.947,11.124,35.945,11.132,36.677"/>
	<path fill="#FFCB0B" d="M8.337,37.426c0.813,19.869,1.345,39.745,1.589,59.628c0.008,0.732,1.145,0.734,1.135,0
		c-0.245-19.883-0.773-39.759-1.589-59.628C9.444,36.697,8.307,36.693,8.337,37.426"/>
	<path fill="#EEA820" d="M13.784,36.677c0.209,19.297-0.282,38.585-1.473,57.847c-0.045,0.731,1.091,0.729,1.136,0
		c1.191-19.262,1.683-38.549,1.473-57.847C14.913,35.947,13.776,35.945,13.784,36.677"/>
	<path fill="#FFCB0B" d="M10.99,37.426c0.814,19.869,1.345,39.745,1.589,59.628c0.009,0.732,1.145,0.734,1.137,0
		c-0.245-19.883-0.773-39.759-1.589-59.628C12.097,36.697,10.959,36.693,10.99,37.426"/>
	<path fill="#EEA820" d="M16.437,36.677c0.21,19.297-0.282,38.585-1.473,57.847c-0.044,0.731,1.092,0.729,1.137,0
		c1.191-19.262,1.683-38.549,1.473-57.847C17.565,35.947,16.429,35.945,16.437,36.677"/>
	<path fill="#FFCB0B" d="M13.642,37.426c0.815,19.869,1.345,39.745,1.589,59.628c0.009,0.732,1.145,0.734,1.137,0
		c-0.245-19.883-0.774-39.759-1.589-59.628C14.749,36.697,13.611,36.693,13.642,37.426"/>
	<path fill="#EEA820" d="M19.089,36.677c0.209,19.297-0.282,38.585-1.474,57.847c-0.045,0.731,1.092,0.729,1.137,0
		c1.191-19.262,1.684-38.549,1.473-57.847C20.217,35.947,19.081,35.945,19.089,36.677"/>
	<path fill="#FFCB0B" d="M16.294,37.426c0.814,19.869,1.345,39.745,1.589,59.628c0.008,0.732,1.145,0.734,1.136,0
		c-0.244-19.883-0.773-39.759-1.589-59.628C17.401,36.697,16.264,36.693,16.294,37.426"/>
	<path fill="#EEA820" d="M21.742,36.677c0.209,19.297-0.282,38.585-1.474,57.847c-0.045,0.731,1.092,0.729,1.136,0
		c1.192-19.262,1.684-38.549,1.473-57.847C22.87,35.947,21.733,35.945,21.742,36.677"/>
	<path fill="#FFCB0B" d="M18.946,37.426c0.814,19.869,1.345,39.745,1.589,59.628c0.009,0.732,1.145,0.734,1.136,0
		c-0.244-19.883-0.773-39.759-1.589-59.628C20.054,36.697,18.917,36.693,18.946,37.426"/>
	<path fill="#EEA820" d="M24.394,36.677c0.209,19.297-0.282,38.585-1.473,57.847c-0.045,0.731,1.09,0.729,1.136,0
		c1.191-19.262,1.683-38.549,1.473-57.847C25.523,35.947,24.386,35.945,24.394,36.677"/>
	<path fill="#EEA820" d="M17.952,36.677c0.209,19.297-0.282,38.585-1.473,57.847c-0.045,0.731,1.091,0.729,1.136,0
		c1.191-19.262,1.683-38.549,1.473-57.847C19.081,35.947,17.944,35.945,17.952,36.677"/>
	<path fill="#FFCB0B" d="M21.6,37.426c0.813,19.869,1.345,39.745,1.589,59.628c0.009,0.732,1.146,0.734,1.136,0
		c-0.245-19.883-0.773-39.759-1.589-59.628C22.706,36.697,21.569,36.693,21.6,37.426"/>
	<path fill="#EEA820" d="M15.3,36.677c0.209,19.297-0.282,38.585-1.473,57.847c-0.045,0.731,1.092,0.729,1.136,0
		c1.191-19.262,1.683-38.549,1.473-57.847C16.429,35.947,15.292,35.945,15.3,36.677"/>
	<path fill="#EEA820" d="M10.374,36.677c0.21,19.297-0.282,38.585-1.473,57.847c-0.045,0.731,1.091,0.729,1.136,0
		c1.191-19.262,1.683-38.549,1.473-57.847C11.502,35.947,10.366,35.945,10.374,36.677"/>
	<path fill="#FFCB0B" d="M17.431,37.426c0.814,19.869,1.345,39.745,1.589,59.628c0.01,0.732,1.146,0.734,1.137,0
		c-0.245-19.883-0.773-39.759-1.589-59.628C18.538,36.697,17.401,36.693,17.431,37.426"/>
	<path fill="#EEA820" d="M8.101,38.193C8.31,57.49,7.819,76.778,6.628,96.04c-0.045,0.731,1.091,0.729,1.136,0
		C8.955,76.778,9.447,57.49,9.237,38.193C9.229,37.463,8.093,37.46,8.101,38.193"/>
	<path fill="#FFCB0B" d="M0,39.7C0.815,59.568,1.345,79.445,1.59,99.329c0.008,0.731,1.145,0.733,1.136,0
		C2.482,79.445,1.953,59.568,1.137,39.7C1.107,38.971-0.029,38.967,0,39.7"/>
	<path fill="#EEA820" d="M3.174,39.33c0.209,19.296-0.282,38.584-1.473,57.846c-0.045,0.731,1.091,0.729,1.136,0
		c1.191-19.262,1.683-38.55,1.473-57.846C4.303,38.6,3.167,38.598,3.174,39.33"/>
	<path fill="#FFCB0B" d="M1.516,40.078c0.815,19.87,1.345,39.747,1.589,59.63c0.009,0.731,1.145,0.733,1.137,0
		c-0.245-19.883-0.774-39.76-1.589-59.63C2.623,39.35,1.486,39.346,1.516,40.078"/>
	<path fill="#EEA820" d="M5.448,39.33c0.209,19.296-0.282,38.584-1.473,57.846c-0.045,0.731,1.091,0.729,1.136,0
		c1.191-19.262,1.684-38.55,1.474-57.846C6.576,38.6,5.44,38.598,5.448,39.33"/>
	<path fill="#EC2227" d="M26.065,6.619c-0.212,12.004,0.11,24.692-0.101,36.696c-2.777-2.813-7.754-3.678-11.69-3.294
		c-4.923,0.48-9.962,1.641-13.883,4.656c-1.039-8.133,0.857-15.435,0.177-23.471c-0.478-5.644-0.433-9.421-0.3-15.854
		C7.047,4.061,6.252,4.629,25.307,5.05"/>
	<path fill="#EC2227" d="M0.848,80.024C0.584,93.296,1.563,102.768,2.45,116.63c8.047,0.49,16.112,0.703,24.175,0.64
		c0.612-12.86,0.688-25.765-0.561-38.579c-1.55,1.928-4.626,2.447-7.077,2.789c-2.883,0.402-5.774,0.74-8.673,1.014
		C6.753,82.83,2.686,83.093,0.848,80.024"/>
	<path fill="#B72027" d="M0.269,5.353c0.14-1.453,0.282-2.905,0.422-4.359C0.716,0.745,0.75,0.474,0.931,0.3
		c0.186-0.179,0.467-0.198,0.723-0.208c7.852-0.293,15.729,0.115,23.509,1.216c0.229,0.032,0.471,0.07,0.648,0.221
		c0.168,0.144,0.245,0.363,0.309,0.575c0.349,1.151,0.494,2.363,0.429,3.563C17.55,5.431,9.256,4.857,0.269,5.353"/>
</g>
</svg>
