<?xml version="1.0" encoding="utf-8"?>
<!-- Generator: Adobe Illustrator 16.0.2, SVG Export Plug-In . SVG Version: 6.00 Build 0)  -->
<!DOCTYPE svg PUBLIC "-//W3C//DTD SVG 1.1//EN" "http://www.w3.org/Graphics/SVG/1.1/DTD/svg11.dtd">
<svg version="1.1" id="Layer_1" xmlns="http://www.w3.org/2000/svg" xmlns:xlink="http://www.w3.org/1999/xlink" x="0px" y="0px"
	 width="34.986px" height="119.323px" viewBox="0 0 34.986 119.323" enable-background="new 0 0 34.986 119.323"
	 xml:space="preserve">
<g>
	<path fill="#44A84F" d="M22.015,7.046c-0.647,3.929,0.903,7.851,2.423,11.531c2.008,4.857,4.031,9.749,6.932,14.132
		c1.165,1.76,2.495,3.495,2.961,5.554c0.325,1.44,0.201,2.939,0.082,4.41c-1.276,15.714-1.839,31.486-1.688,47.251
		c0.02,1.966,0.051,3.946,0.444,5.873c0.504,2.47,1.596,4.822,1.787,7.336c0.234,3.093-0.911,6.105-2.037,8.995
		c-0.636,1.629-1.294,3.297-2.462,4.598c-1.168,1.303-2.974,2.18-4.672,1.764c-1.587-0.39-2.843-1.818-4.475-1.906
		c-2.331-0.126-4.01,2.495-6.334,2.723c-3.333,0.328-5.066-4.088-8.17-5.347c-0.853,0.155-0.89,1.38-0.59,2.194
		c0.3,0.813,0.674,1.847,0.043,2.441c-0.849,0.801-2.149-0.315-2.665-1.362c-3.946-7.995-0.475-17.433-0.415-26.348
		c0.07-10.307-1.975-19.574-1.741-29.391c0.14-5.852-0.626-10.749-0.557-16.159c0.034-2.696-0.576-5.387,0.071-8.004
		c0.612-2.484,1.692-4.825,2.811-7.126c3.438-7.072,6.235-14.406,8.541-21.924c0.183-0.594,0.14-1.115,2.017-1.148
		c0.439-0.008,0.837-0.248,1.275-0.26l6.735-0.176"/>
	<path fill="#FFEDD5" d="M0.326,43.963c11.232,0.109,22.466,0.316,33.696,0.622c-0.333,8.011-0.666,16.021-0.999,24.032
		c-10.396-0.065-20.792-0.132-31.188-0.198c-0.151-0.001-0.305-0.002-0.444-0.06c-0.452-0.182-0.508-0.79-0.491-1.277
		C1.146,59.419,0.845,51.737,0,44.117"/>
	<path fill="#046937" d="M27.503,75.337c0.065-0.064,0.2-0.181,0.309-0.143c0.011,0.004,0.124,0.094,0.104,0.088
		c0.003,0.02,0,0.04-0.007,0.06c0.027-0.036,0.066-0.052,0.117-0.05c-0.02-0.009,0.063,0.053,0.065,0.048
		c0.314-0.84-1.031-1.203-1.344-0.37c-0.254,0.677,0.214,1.436,0.877,1.646c0.687,0.219,1.39-0.171,1.608-0.853
		c0.209-0.649-0.038-1.399-0.638-1.749c-0.683-0.397-1.533-0.188-2.077,0.337C25.871,74.976,26.857,75.96,27.503,75.337"/>
	<path fill="#046937" d="M27.52,81.573c0.028-0.004,0.118,0.064,0.122,0.104c0.068-0.165,0.137-0.329,0.204-0.493l0.188-0.089
		c0.163,0.162,0.325,0.325,0.486,0.487c-0.083,0.131-0.167,0.262-0.25,0.392c0.352-0.143,0.591-0.462,0.486-0.856
		c-0.087-0.331-0.508-0.629-0.856-0.486c-0.533,0.218-0.924,0.714-0.723,1.32c0.215,0.652,1.083,0.686,1.551,0.304
		c0.495-0.405,0.307-1.129-0.082-1.549c-0.403-0.438-0.925-0.564-1.497-0.477c-0.375,0.057-0.574,0.524-0.486,0.857
		C26.768,81.485,27.149,81.631,27.52,81.573"/>
	<path fill="#046937" d="M19.713,73.563c-0.602-0.157-1.116-0.009-1.589,0.378c-0.314,0.257-0.213,0.715,0,0.984
		c0.377,0.478,0.83,0.921,1.464,0.988c0.521,0.057,1.088-0.157,1.366-0.622c0.639-1.068-0.874-2.356-1.738-1.39
		c-0.595,0.667,0.387,1.655,0.985,0.985c-0.327,0.154-0.461,0.099-0.397-0.166c0.061-0.162,0.045-0.223-0.05-0.182
		c-0.024-0.023-0.085-0.013-0.12-0.048c-0.18-0.183-0.362-0.345-0.525-0.551v0.984c0.07-0.058,0.155-0.039,0.234-0.02
		C20.211,75.133,20.581,73.79,19.713,73.563"/>
	<path fill="#046937" d="M19.592,80.745c0.099-0.126,0.159-0.148,0.289-0.228c0.074-0.045,0.007-0.027,0.016-0.032
		c-0.082,0.045,0.065,0.056,0.034,0.005c0.001,0.002-0.02-0.085-0.026-0.127c-0.107,0.264-0.213,0.525-0.32,0.787
		c-0.13-0.29-0.259-0.58-0.388-0.87c-0.861,0.246-0.495,1.591,0.37,1.345c0.539-0.154,0.88-0.701,0.664-1.248
		c-0.227-0.572-0.853-0.655-1.35-0.43c-0.297,0.136-0.37,0.503-0.32,0.787c0.263,1.506,2.511,1.467,2.703-0.06
		c0.195-1.548-1.792-2.021-2.656-0.914c-0.233,0.299-0.286,0.692,0,0.984C18.845,80.989,19.361,81.042,19.592,80.745"/>
	<path fill="#046937" d="M21.281,86.761c-0.859-0.581-1.801,0.274-1.732,1.182c0.065,0.892,0.827,1.756,1.756,1.764
		c0.887,0.007,1.754-0.82,1.517-1.745c-0.213-0.827-1.24-1.282-1.967-0.808c-0.747,0.488-0.05,1.695,0.704,1.202
		c-0.113,0.074-0.062-0.097-0.092-0.1c0.024,0.002-0.12,0.063-0.161,0.06c-0.099-0.01-0.205-0.117-0.258-0.187
		c-0.033-0.053-0.063-0.107-0.087-0.164c-0.024-0.187-0.152-0.187-0.383-0.001C21.323,88.467,22.021,87.261,21.281,86.761"/>
	<path fill="#046937" d="M10.996,74.909c0.469-0.009,1.234-0.092,1.449,0.429c0.015,0.034,0.027,0.128-0.003,0.165
		c0.041-0.05,0.064-0.015-0.013-0.042c-0.301-0.104-0.392-0.603-0.468-0.857c-0.06,0.226-0.119,0.451-0.179,0.678
		c-0.041,0.037-0.069,0.019-0.068,0.021c0.438,0.782,1.642,0.08,1.203-0.704c-0.44-0.782-1.477-0.896-2.12-0.303
		c-0.178,0.164-0.247,0.448-0.179,0.677c0.225,0.76,0.577,1.565,1.402,1.817c0.74,0.226,1.521-0.138,1.754-0.888
		c0.189-0.609-0.012-1.338-0.476-1.772c-0.619-0.579-1.502-0.629-2.304-0.614C10.101,73.532,10.098,74.925,10.996,74.909"/>
	<path fill="#046937" d="M12.492,81.569c0.08,0,0.139,0.028,0.211,0.041c0.023,0.007,0.038,0.021,0.045,0.041
		c0.017,0.038,0.02,0.021,0.008-0.052c0.039,0.009,0.485,0.118,0.281,0.278c0.298-0.234,0.241-0.738,0-0.984
		c-0.288-0.296-0.69-0.232-0.984,0c-1.088,0.854,0.22,2.645,1.412,1.918c0.555-0.339,0.805-1.028,0.592-1.639
		c-0.229-0.651-0.905-1-1.564-0.996C11.597,80.182,11.595,81.574,12.492,81.569"/>
	<path fill="#046937" d="M14.82,88.708c-0.262-0.868-1.244-1.338-2.059-0.862c-0.798,0.466-0.964,1.538-0.366,2.233
		c0.544,0.633,1.54,0.773,2.157,0.161c0.612-0.605,0.592-1.546,0.057-2.18c-0.58-0.685-1.562,0.306-0.985,0.985
		c0.002,0.003,0.028,0.254-0.098,0.19c-0.165-0.086-0.063-0.202-0.049-0.158C13.735,89.934,15.08,89.57,14.82,88.708"/>
	<path fill="#046937" d="M7.018,74.053c-0.69-0.382-1.557-0.254-2.098,0.33c-0.594,0.643-0.477,1.65,0.137,2.235
		c0.617,0.59,1.654,0.622,2.213-0.067c0.589-0.728,0.064-1.985-0.937-1.871c-0.376,0.042-0.691,0.289-0.695,0.696
		c-0.004,0.344,0.322,0.738,0.695,0.696c0.024-0.003-0.188-0.403-0.175-0.389c-0.02-0.023-0.086-0.013-0.113-0.044
		c-0.058-0.067-0.149-0.149-0.128-0.25c0.036-0.166,0.269-0.206,0.397-0.134C7.1,75.69,7.803,74.487,7.018,74.053"/>
	<path fill="#046937" d="M7.648,80.841c-0.748-0.508-1.771,0.022-1.991,0.848C5.4,82.64,6.246,83.455,7.11,83.639
		c0.309,0.064,0.618-0.045,0.785-0.32c0.466-0.766,0.34-1.739-0.298-2.367c-0.64-0.629-1.626,0.355-0.984,0.985
		c0.201,0.2,0.228,0.436,0.08,0.679c0.262-0.106,0.524-0.214,0.786-0.319c-0.196-0.042-0.367-0.094-0.47-0.276
		c-0.014-0.025-0.038,0.01,0.006,0.014c0.121,0.013-0.097-0.008-0.069,0.01C7.689,82.548,8.388,81.342,7.648,80.841"/>
	<path fill="#046937" d="M7.453,87.548c-1.482,0.283-1.353,2.528,0.18,2.598c0.643,0.029,1.213-0.386,1.339-1.023
		c0.139-0.707-0.295-1.303-0.928-1.554c-0.833-0.331-1.195,1.016-0.37,1.343c-0.08-0.03-0.087-0.032-0.065-0.051
		c0.065-0.055,0.123-0.097,0.096-0.096c0.049-0.002,0.049,0.109,0.062,0.133c0.007-0.013,0.015-0.025,0.022-0.038
		c-0.109,0.063-0.099,0.072,0.034,0.031C8.703,88.723,8.33,87.38,7.453,87.548"/>
	<path fill="#046937" d="M27.556,88.75c-0.076,0.059,0.188,0.081,0.104,0.078c0.053,0.002-0.048-0.109-0.002-0.085
		c-0.031,0.034-0.072,0.051-0.123,0.048c0.324-0.024,0.318,0.251-0.017,0.824c0.882-0.154,0.508-1.497-0.37-1.344
		c-0.927,0.163-0.923,1.368-0.177,1.762c0.613,0.322,1.416,0.064,1.811-0.479c0.441-0.611,0.283-1.411-0.314-1.853
		c-0.6-0.445-1.326-0.378-1.896,0.063c-0.3,0.232-0.239,0.74,0,0.985C26.86,89.047,27.259,88.979,27.556,88.75"/>
	<path fill="#2C3A96" d="M11.574,8.001c0.075-2.035,0.149-4.071,0.225-6.106c0.018-0.489,0.07-1.048,0.466-1.337
		c0.257-0.188,0.596-0.209,0.915-0.223c2.494-0.108,4.989-0.217,7.483-0.326c0.655-0.029,1.403-0.02,1.842,0.468
		c0.338,0.375,0.381,0.922,0.396,1.427c0.047,1.52-0.008,3.043-0.165,4.555c-0.032,0.318-0.094,0.676-0.36,0.852
		c-0.186,0.124-0.425,0.123-0.647,0.119c-3.377-0.055-6.76,0.189-10.095,0.727"/>
</g>
</svg>
