<?xml version="1.0" encoding="utf-8"?>
<!-- Generator: Adobe Illustrator 16.0.2, SVG Export Plug-In . SVG Version: 6.00 Build 0)  -->
<!DOCTYPE svg PUBLIC "-//W3C//DTD SVG 1.1//EN" "http://www.w3.org/Graphics/SVG/1.1/DTD/svg11.dtd">
<svg version="1.1" id="Layer_1" xmlns="http://www.w3.org/2000/svg" xmlns:xlink="http://www.w3.org/1999/xlink" x="0px" y="0px"
	 width="38.077px" height="40.967px" viewBox="0 0 38.077 40.967" enable-background="new 0 0 38.077 40.967" xml:space="preserve">
<g>
	<path fill="#ED2024" d="M16.409,8.959c-2.962-0.308-6.054-0.187-8.769,1.039c-3.532,1.594-6.093,4.992-7.073,8.741
		c-0.981,3.749-0.48,7.794,0.975,11.385c0.609,1.503,1.39,2.951,2.45,4.178c3.01,3.479,6.172,5.328,10.679,6.254
		c3.009,0.618,7.803,0.563,10.741-0.331c2.772-0.843,5.021-2.885,6.886-5.101c1.753-2.081,3.269-4.39,4.209-6.942
		c0.941-2.552,1.284-5.362,0.701-8.02c-0.282-1.287-0.774-2.517-1.296-3.727c-0.597-1.383-1.241-2.76-2.159-3.954
		c-1.919-2.499-5.025-4.042-8.177-4.062c-3.078-0.018-6.153,1.326-9.164,0.685"/>
	<path fill="#44612D" d="M23.289,12.749c3.963,1.012,3.966-1.468,6.104,2.02c1.055,1.719,1.431,3.795,2.539,5.481
		c0.795-4.639-2.059-9.642-6.455-11.318c2.389,0.049,4.796-0.384,7.159-0.028c2.362,0.356,4.808,1.788,5.34,4.118
		c0.483-2.004-0.814-4.131-2.625-5.114c-1.812-0.983-3.996-1.02-6.031-0.694c-2.035,0.324-4.006,0.982-6.04,1.311
		c-0.329-0.65-0.061-1.389,0.593-1.712c0.653-0.324,1.505,0.243,2.346-0.322c-1.052-2.382-4.605-0.239-5.506,1.733
		c-0.839,0.205-2.07,0.157-2.157-0.702c-0.074-0.729,0.866-1.498,0.394-2.059c-1.248,0.215-2.111,1.68-1.697,2.876
		c-2.109-1.404-4.767-1.855-7.281-1.543C7.453,7.105,5.068,8.137,2.921,9.48c-0.696,0.437-1.396,0.931-1.791,1.651
		c-0.346,0.627-0.502,1.457-1.11,1.795c-0.029,0.016-0.025,0.059,0.008,0.063c1.261,0.186,2.343-0.382,4.307-2.375
		C5.71,9.22,8.163,8.881,9.869,8.535c1.675-0.338,3.627-0.429,4.866,0.748c-3.434,1.409-6.285,4.184-7.788,7.577
		c3.142-2.178,3.123-3.984,6.57-5.163c2.875-0.981,5.037-1.691,5.954-0.794C20.417,11.828,23.289,12.749,23.289,12.749"/>
	<path fill="#44612D" d="M18.302,9.063c0.326,0.066,0.526-0.648,0.546-0.316c0.02,0.319,0.272,0.585,0.563,0.715
		c0.292,0.131,0.619,0.15,0.937,0.168c0.204,0.013,0.416,0.021,0.604-0.059c0.547-0.237,0.523-0.998,0.535-1.594
		c0.017-0.834,0.279-1.643,0.54-2.436c0.198-0.604,0.396-1.21,0.596-1.815c0.371-1.131,0.744-2.266,1.238-3.349
		c-0.266-0.397-0.854-0.467-1.29-0.272c-0.437,0.193-0.751,0.583-1.027,0.972c-0.638,0.901-1.164,1.881-1.563,2.91
		c-0.344,0.888-0.592,1.809-0.839,2.729c-0.18,0.666-0.359,1.332-0.539,1.999"/>
</g>
</svg>
