<?xml version="1.0" encoding="utf-8"?>
<!-- Generator: Adobe Illustrator 16.0.2, SVG Export Plug-In . SVG Version: 6.00 Build 0)  -->
<!DOCTYPE svg PUBLIC "-//W3C//DTD SVG 1.1//EN" "http://www.w3.org/Graphics/SVG/1.1/DTD/svg11.dtd">
<svg version="1.1" id="Layer_1" xmlns="http://www.w3.org/2000/svg" xmlns:xlink="http://www.w3.org/1999/xlink" x="0px" y="0px"
	 width="65.105px" height="87.14px" viewBox="0 0 65.105 87.14" enable-background="new 0 0 65.105 87.14" xml:space="preserve">
<g>
	<path fill="#44A84F" d="M1.193,31.627c0.75,16.083,1.496,32.124,2.244,48.158c0.021,0.436,0.049,0.893,0.315,1.267
		c0.334,0.468,0.971,0.706,1.572,0.907c8.919,2.987,18.633,3.729,28.19,4.441c9.889,0.735,20.401,1.376,29.208-2.489
		c0.827-0.363,1.677-0.804,2.081-1.514c0.326-0.571,0.313-1.234,0.291-1.868c-0.502-15.349-1.004-30.694-1.508-46.076
		c-10.842,2.924-22.46,2.8-33.841,2.647C23.753,37.021,9.306,36.428,1.193,31.627"/>
	<path fill="#EC2227" d="M0.564,35.469c11.18,0.981,47.026,3.678,58.18,2.444c1.762-0.195,3.764-0.581,4.662-2.106
		c0.491-0.834,0.54-1.847,0.563-2.813c0.182-7.585,0.771-16.783-0.64-24.238C42.152,10.602,19.854,13.634,0,6.04
		c0.166,7.678,0.185,17.558,0.803,25.211"/>
	<path fill="#6E6D74" d="M0.855,6.857c3.22,2.26,7.146,3.245,11.006,3.998c15.621,3.049,31.842,3.005,47.447-0.13
		c1.5-0.302,3.137-0.72,4.021-1.969c1.212-1.709,0.348-4.251-1.305-5.539c-1.651-1.289-3.829-1.637-5.909-1.893
		c-10.279-1.26-20.663-1.292-31.019-1.321C17.396-0.02,9.466,0,2.334,2.906C1.753,3.143,1.163,3.41,0.736,3.869
		C-0.612,5.324,1.07,8.18,2.996,7.708"/>
	<path fill="#C0BEBE" d="M2.742,4.928c8.371-4.292,58.351-3.313,58.351,1.854C42.026,10.731,22.062,10.27,3.199,5.446"/>
	<path fill="#EC2227" d="M9.676,52.906c-1.337-1.722-4.313-1.057-5.591,0.708c-1.28,1.765-1.351,4.101-1.371,6.279
		c-0.03,3.191-0.052,6.447,0.923,9.486c0.704,2.196,1.902,4.196,3.092,6.172c1.241,2.064,2.545,4.194,4.545,5.535
		c2.551,1.71,5.81,1.862,8.881,1.862c2.788,0,5.707-0.112,8.133-1.487c2.916-1.654,4.634-4.925,5.188-8.233
		c0.555-3.307,0.1-6.692-0.41-10.008c-0.262-1.696-0.545-3.413-1.229-4.987c-0.718-1.647-1.872-3.102-3.314-4.174"/>
	<path fill="#EC2227" d="M44.939,59.845c-1.925,1.136-3.89,2.305-5.318,4.024c-3.688,4.436-2.754,11.085-0.69,16.472
		c0.481,1.255,1.023,2.51,1.876,3.548c2.189,2.668,5.99,3.405,9.437,3.225c5.817-0.304,12.037-3.367,13.765-8.933
		c0.542-1.747,0.604-3.602,0.662-5.43l0.18-5.707c0.068-2.168,0.122-4.418-0.732-6.411c-1.536-3.581-5.795-5.439-9.676-5.094
		c-3.881,0.344-7.387,2.489-10.33,5.04"/>
	<path fill="#046937" d="M15.151,55.807c1.054,0.356,2.212-0.058,3.176-0.612c0.964-0.556,1.862-1.264,2.933-1.567
		c1.694-0.48,3.485,0.132,5.139,0.738c0.479,0.175,0.957,0.35,1.435,0.524c0.214,0.078,0.471,0.152,0.654,0.017
		c0.21-0.156,0.169-0.505-0.014-0.692s-0.452-0.256-0.706-0.315c-2.345-0.555-4.718-1.111-7.127-1.085
		c-2.41,0.026-4.896,0.697-6.676,2.322c0.47-1.811,2.136-3.248,3.997-3.445c0.731-0.078,1.68-0.119,1.897-0.821
		c0.157-0.51-0.265-1.06-0.775-1.212c-0.511-0.154-1.063-0.013-1.561,0.18c-1.646,0.635-3.066,1.837-3.965,3.354
		c0.136-1.41,0.271-2.82,0.406-4.23c0.045-0.468,0.086-0.962-0.109-1.39c-0.195-0.429-0.717-0.746-1.145-0.55
		c-0.414,1.013-0.834,2.045-0.923,3.135c-0.09,1.091,0.201,2.268,1.014,3c-0.36-2.254-2.291-4.167-4.549-4.509
		c0.834,0.545,1.161,1.58,1.556,2.494c0.863,1.995,2.508,3.833,4.656,4.162"/>
	<path fill="#046937" d="M46.188,60.343c0.067-1.934,0.33-3.915,1.272-5.604c0.942-1.688,2.687-3.036,4.62-3.047
		c-0.993-0.05-1.933,0.421-2.807,0.898c-1.032,0.563-2.068,1.167-2.859,2.037s-1.312,2.059-1.12,3.22
		c0.227,1.374,1.533,2.487,2.927,2.491c0.19,0.001,0.392-0.021,0.553-0.125c0.092-0.061,0.165-0.145,0.229-0.234
		c0.689-0.982,0.146-2.434,0.74-3.476c0.247-0.434,0.661-0.74,1.064-1.033c1.002-0.732,2.005-1.464,3.007-2.196
		c-1.942,0.623-3.593,2.099-4.429,3.959c-0.128,0.285-0.24,0.597-0.181,0.903c0.179,0.908,1.568,0.88,2.28,0.289
		c0.711-0.591,1.188-1.504,2.053-1.832c1.018-0.387,2.199,0.245,2.772,1.169c0.573,0.923,0.672,2.058,0.695,3.145
		c-0.552,0.056-0.871-0.575-1.216-1.009c-0.787-0.993-2.31-1.153-3.477-0.659c-1.167,0.495-2.035,1.503-2.75,2.55
		c-1.076,1.578-1.905,3.324-2.447,5.156c-0.765-1.663-1.054-3.542-0.824-5.357c-1.371,1.03-2.519,2.358-3.339,3.866
		c-0.337-1.129,0.154-2.374,0.953-3.239c0.799-0.866,1.866-1.428,2.91-1.973"/>
</g>
</svg>
