<?xml version="1.0" encoding="utf-8"?>
<!-- Generator: Adobe Illustrator 16.0.2, SVG Export Plug-In . SVG Version: 6.00 Build 0)  -->
<!DOCTYPE svg PUBLIC "-//W3C//DTD SVG 1.1//EN" "http://www.w3.org/Graphics/SVG/1.1/DTD/svg11.dtd">
<svg version="1.1" id="Layer_1" xmlns="http://www.w3.org/2000/svg" xmlns:xlink="http://www.w3.org/1999/xlink" x="0px" y="0px"
	 width="51.014px" height="87.33px" viewBox="0 0 51.014 87.33" enable-background="new 0 0 51.014 87.33" xml:space="preserve">
<g>
	<path fill="#F19121" d="M1.88,8.023c0.706-1.472,2.941-2.198,4.519-2.619c1.577-0.422,3.235-0.382,4.867-0.338
		c9.708,0.256,19.417,0.512,29.125,0.769c2.814,0.074,6.189,0.49,7.411,3.028c0.417,0.865,0.495,1.85,0.566,2.808
		c1.449,19.354,2.9,38.738,2.606,58.145c-0.059,3.81-0.186,7.642-0.951,11.376c-0.251,1.227-0.607,2.504-1.502,3.381
		c-0.712,0.697-1.653,1.238-2.647,1.319c-8.158,0.661-14.542-0.479-21.865-1.096c-6.746-0.569-13.664,0.386-20.222-1.296
		c-0.542-0.139-1.099-0.306-1.514-0.68c-0.664-0.597-0.812-1.568-0.896-2.457c-0.292-3.095-0.31-6.209-0.325-9.317
		C0.97,55.742,0.887,40.438,0.805,25.136C0.774,19.409,0.748,13.637,1.88,8.023"/>
	<path fill="#F19121" d="M37.918,52.924c0.524-8.633-2.987-39.013-2.053-46.437c-2.478-0.03-10.214-1.391-12.692-1.421
		c-3.487-0.043-7.032-0.084-10.402,0.338c-3.37,0.421-8.149,1.146-9.657,2.619C0.693,13.636,0.75,19.41,0.816,25.135
		c0.176,15.305,0.353,30.607,0.529,45.91c0.036,3.109,0.073,6.224,0.695,9.318c0.181,0.889,0.495,1.86,1.914,2.458
		c0.889,0.373,2.079,0.541,3.235,0.679c6.702,0.805,23.375-1.295,30.305-1.242C37.875,77.874,37.548,59.009,37.918,52.924"/>
	<path fill="#F05423" d="M27.226,70.788c0.087-0.591,0.194-1.226,0.618-1.646c0.425-0.422,1.277-0.441,1.523,0.103
		c0.107,0.238,0.074,0.513,0.031,0.771c-0.06,0.359-0.132,0.718-0.22,1.072c-0.113,0.465-0.269,0.954-0.637,1.262
		c-0.367,0.308-1.01,0.328-1.267-0.076c-0.211-0.331-0.083-0.764,0.051-1.132"/>
	<path fill="#F05423" d="M17.663,56.604c0.561-0.001,1.165,0.012,1.614,0.347c0.449,0.336,0.587,1.124,0.114,1.428
		c-0.205,0.132-0.465,0.14-0.71,0.136c-0.342-0.006-0.685-0.023-1.026-0.056c-0.447-0.041-0.923-0.117-1.259-0.416
		c-0.337-0.299-0.444-0.893-0.104-1.188c0.277-0.241,0.697-0.183,1.058-0.109"/>
	<path fill="#F05423" d="M14.066,25.128c0.456-0.274,0.955-0.559,1.485-0.505c0.529,0.054,1.025,0.629,0.791,1.107
		c-0.104,0.208-0.312,0.341-0.514,0.457c-0.28,0.163-0.569,0.314-0.862,0.456c-0.386,0.185-0.81,0.354-1.229,0.275
		c-0.421-0.079-0.799-0.51-0.665-0.917c0.108-0.332,0.479-0.488,0.81-0.604"/>
	<path fill="#F05423" d="M4.268,27.985c0.488,0.108,1.013,0.239,1.339,0.62c0.326,0.38,0.29,1.094-0.18,1.266
		c-0.206,0.076-0.434,0.031-0.646-0.021c-0.297-0.072-0.592-0.155-0.884-0.249c-0.382-0.124-0.781-0.284-1.016-0.611
		c-0.234-0.326-0.213-0.865,0.143-1.055c0.289-0.156,0.643-0.022,0.942,0.112"/>
	<path fill="#F05423" d="M14.704,45.56c-0.477,0.177-0.994,0.354-1.481,0.211c-0.487-0.145-0.851-0.771-0.545-1.178
		c0.133-0.178,0.352-0.265,0.561-0.339c0.293-0.103,0.59-0.193,0.891-0.274c0.394-0.105,0.821-0.189,1.2-0.041
		c0.38,0.148,0.658,0.62,0.462,0.977c-0.16,0.292-0.535,0.374-0.865,0.425"/>
	<path fill="#F05423" d="M23.884,62.347c-0.615,0.161-1.282,0.32-1.871,0.08s-0.964-1.066-0.534-1.534
		c0.188-0.204,0.472-0.286,0.741-0.352c0.378-0.092,0.759-0.169,1.143-0.232c0.504-0.083,1.047-0.134,1.501,0.098
		c0.455,0.231,0.742,0.853,0.453,1.273c-0.235,0.344-0.714,0.399-1.13,0.421"/>
	<path fill="#F05423" d="M27.508,38.378c-0.472,0.122-0.982,0.242-1.434,0.057c-0.451-0.185-0.736-0.819-0.405-1.177
		c0.145-0.156,0.362-0.218,0.568-0.268c0.29-0.069,0.582-0.129,0.876-0.176c0.386-0.062,0.802-0.1,1.149,0.078
		c0.349,0.179,0.567,0.656,0.344,0.978c-0.181,0.263-0.547,0.304-0.866,0.32"/>
	<path fill="#F05423" d="M34.657,62.726c-0.461-0.242-0.953-0.514-1.177-0.985c-0.225-0.47,0.005-1.177,0.524-1.223
		c0.226-0.02,0.442,0.087,0.642,0.196c0.28,0.152,0.553,0.315,0.82,0.49c0.351,0.228,0.708,0.495,0.854,0.887
		c0.148,0.392-0.021,0.927-0.428,1.021c-0.333,0.078-0.652-0.151-0.917-0.369"/>
	<path fill="#F05423" d="M13.28,79.767c0.54-0.236,1.128-0.479,1.703-0.346s1.039,0.836,0.712,1.328
		c-0.142,0.214-0.389,0.331-0.627,0.43c-0.333,0.139-0.67,0.266-1.013,0.38c-0.449,0.149-0.939,0.275-1.39,0.129
		c-0.45-0.146-0.805-0.673-0.602-1.101c0.167-0.349,0.596-0.469,0.975-0.551"/>
	<path fill="#F05423" d="M14.303,72.431c0.577,0.276,1.191,0.59,1.488,1.157c0.296,0.567,0.046,1.445-0.59,1.524
		c-0.276,0.034-0.548-0.087-0.798-0.212c-0.349-0.176-0.691-0.364-1.027-0.566c-0.44-0.264-0.891-0.577-1.089-1.052
		c-0.197-0.474-0.015-1.138,0.481-1.272c0.405-0.11,0.807,0.158,1.142,0.412"/>
	<path fill="#F05423" d="M21.395,51.376c-0.525,0.241-1.099,0.488-1.664,0.365c-0.565-0.122-1.031-0.803-0.719-1.29
		c0.136-0.213,0.377-0.331,0.608-0.433c0.323-0.142,0.652-0.271,0.986-0.388c0.439-0.153,0.917-0.284,1.361-0.147
		c0.443,0.136,0.799,0.647,0.606,1.069c-0.158,0.346-0.576,0.471-0.946,0.556"/>
	<path fill="#F05423" d="M25.35,24.269c0.478-0.104,0.995-0.204,1.44,0s0.706,0.852,0.36,1.197C27,25.617,26.779,25.67,26.57,25.712
		c-0.293,0.058-0.589,0.104-0.886,0.141c-0.391,0.047-0.81,0.069-1.15-0.124c-0.342-0.192-0.543-0.68-0.307-0.994
		c0.192-0.257,0.561-0.282,0.882-0.287"/>
	<path fill="#F05423" d="M13.208,52.38c-0.478-0.202-0.988-0.432-1.251-0.881c-0.262-0.449-0.093-1.17,0.419-1.259
		c0.225-0.038,0.448,0.05,0.655,0.142c0.29,0.129,0.576,0.269,0.855,0.419c0.366,0.197,0.743,0.435,0.923,0.812
		c0.179,0.376,0.056,0.922-0.341,1.05c-0.324,0.104-0.661-0.097-0.942-0.29"/>
	<path fill="#F05423" d="M22.145,70.72c-0.593,0.213-1.238,0.428-1.84,0.243c-0.602-0.186-1.045-0.969-0.661-1.468
		c0.168-0.218,0.44-0.323,0.7-0.412c0.365-0.123,0.734-0.233,1.107-0.329c0.489-0.126,1.021-0.225,1.489-0.036
		c0.47,0.188,0.809,0.776,0.561,1.218c-0.203,0.36-0.669,0.456-1.079,0.515"/>
	<path fill="#F05423" d="M3.674,21.833c-0.627-0.258-1.296-0.553-1.643-1.135c-0.346-0.583-0.134-1.526,0.533-1.648
		c0.291-0.052,0.584,0.06,0.855,0.177c0.38,0.165,0.754,0.345,1.121,0.537c0.481,0.254,0.977,0.56,1.213,1.048
		c0.238,0.489,0.084,1.203-0.432,1.375c-0.423,0.141-0.864-0.12-1.233-0.368"/>
	<path fill="#F05423" d="M9.367,31.956c0.19-0.475,0.409-0.981,0.847-1.248c0.438-0.265,1.152-0.11,1.248,0.393
		c0.041,0.22-0.042,0.441-0.129,0.647c-0.122,0.288-0.255,0.572-0.398,0.851c-0.188,0.364-0.416,0.739-0.783,0.923
		c-0.368,0.182-0.908,0.07-1.041-0.318C9,32.886,9.195,32.551,9.379,32.271"/>
	<path fill="#F05423" d="M5.328,13.805c0.477-0.347,0.999-0.71,1.588-0.701c0.59,0.008,1.192,0.594,0.979,1.144
		c-0.093,0.24-0.31,0.406-0.52,0.554c-0.295,0.207-0.599,0.403-0.908,0.587c-0.407,0.242-0.858,0.471-1.329,0.425
		c-0.471-0.048-0.929-0.485-0.822-0.946c0.087-0.377,0.481-0.586,0.833-0.747"/>
	<path fill="#F05423" d="M16.943,64.383c0.288,0.537,0.585,1.123,0.493,1.725c-0.091,0.603-0.776,1.136-1.309,0.84
		c-0.232-0.129-0.372-0.375-0.494-0.61c-0.17-0.331-0.327-0.669-0.472-1.013c-0.189-0.45-0.359-0.943-0.245-1.42
		c0.113-0.475,0.628-0.882,1.085-0.707c0.373,0.144,0.531,0.575,0.646,0.958"/>
	<path fill="#F05423" d="M30.794,49.16c-0.506,0.15-1.055,0.299-1.55,0.116s-0.828-0.858-0.484-1.258
		c0.151-0.174,0.384-0.25,0.605-0.313c0.311-0.086,0.625-0.161,0.942-0.223c0.415-0.082,0.863-0.139,1.247,0.041
		s0.639,0.687,0.41,1.044c-0.187,0.292-0.58,0.35-0.926,0.38"/>
	<path fill="#F05423" d="M30.943,10.833c-0.567-0.041-1.18-0.1-1.61-0.473c-0.431-0.374-0.51-1.183-0.01-1.456
		c0.219-0.119,0.482-0.106,0.729-0.085c0.347,0.031,0.693,0.076,1.037,0.133c0.451,0.075,0.926,0.188,1.245,0.517
		c0.318,0.328,0.384,0.938,0.017,1.211c-0.299,0.224-0.72,0.133-1.08,0.032"/>
	<path fill="#F05423" d="M6.116,73.393c-0.671,0.117-1.396,0.228-2.002-0.081C3.506,73.004,3.18,72.09,3.68,71.629
		c0.219-0.201,0.528-0.263,0.821-0.31c0.411-0.064,0.824-0.113,1.239-0.146c0.544-0.043,1.127-0.05,1.591,0.238
		c0.464,0.287,0.716,0.975,0.371,1.397c-0.282,0.345-0.796,0.362-1.243,0.35"/>
	<path fill="#F05423" d="M26.96,53.078c0.327,0.498,0.669,1.043,0.634,1.638c-0.036,0.596-0.657,1.178-1.203,0.936
		c-0.237-0.106-0.396-0.332-0.535-0.553c-0.195-0.308-0.378-0.622-0.549-0.944c-0.225-0.422-0.434-0.89-0.365-1.362
		c0.069-0.474,0.534-0.916,0.994-0.786c0.377,0.106,0.569,0.515,0.715,0.877"/>
	<path fill="#F05423" d="M9.961,58.24c0.335-0.438,0.705-0.904,1.236-1.056s1.23,0.214,1.187,0.764
		c-0.021,0.24-0.169,0.448-0.319,0.638c-0.209,0.265-0.428,0.521-0.657,0.77c-0.3,0.326-0.644,0.652-1.079,0.736
		c-0.434,0.085-0.964-0.187-0.99-0.628c-0.023-0.362,0.273-0.655,0.547-0.894"/>
	<path fill="#F05423" d="M34.073,34.561c-0.426,0.276-0.893,0.563-1.399,0.528c-0.506-0.035-0.997-0.568-0.787-1.03
		c0.091-0.202,0.286-0.335,0.474-0.452c0.264-0.164,0.533-0.317,0.809-0.462c0.36-0.188,0.76-0.362,1.163-0.301
		c0.402,0.063,0.775,0.462,0.661,0.854c-0.093,0.319-0.44,0.48-0.752,0.602"/>
	<path fill="#F05423" d="M36.054,49.551c0.258,0.5,0.522,1.046,0.428,1.602c-0.095,0.554-0.736,1.036-1.223,0.754
		c-0.213-0.123-0.337-0.353-0.445-0.572c-0.152-0.308-0.292-0.623-0.419-0.942c-0.168-0.419-0.317-0.878-0.204-1.314
		c0.112-0.438,0.595-0.805,1.013-0.636c0.343,0.139,0.48,0.54,0.581,0.896"/>
	<path fill="#F05423" d="M10.521,67.075c-0.457,0.222-0.955,0.449-1.453,0.354c-0.499-0.097-0.921-0.686-0.656-1.119
		c0.115-0.188,0.324-0.297,0.525-0.391c0.281-0.131,0.568-0.251,0.858-0.359c0.382-0.143,0.799-0.268,1.19-0.158
		c0.393,0.111,0.716,0.554,0.555,0.928c-0.133,0.307-0.497,0.424-0.82,0.507"/>
	<path fill="#F05423" d="M19.377,31.655c-0.454,0.487-0.954,1.001-1.608,1.119c-0.655,0.118-1.449-0.403-1.331-1.059
		c0.052-0.285,0.256-0.516,0.458-0.725c0.282-0.293,0.575-0.575,0.879-0.845c0.398-0.355,0.85-0.705,1.382-0.755
		c0.531-0.051,1.134,0.338,1.114,0.871c-0.017,0.437-0.407,0.752-0.764,1.006"/>
	<path fill="#F05423" d="M25.348,31.074c0.368-0.316,0.773-0.648,1.259-0.682c0.484-0.033,1.02,0.41,0.881,0.876
		c-0.062,0.203-0.228,0.354-0.391,0.49c-0.229,0.188-0.466,0.369-0.707,0.542c-0.319,0.225-0.676,0.442-1.065,0.436
		s-0.796-0.337-0.738-0.723c0.047-0.316,0.356-0.514,0.636-0.669"/>
	<path fill="#F05423" d="M20.901,43.822c0.184-0.467,0.394-0.966,0.819-1.229c0.428-0.263,1.128-0.117,1.226,0.375
		c0.042,0.215-0.038,0.433-0.121,0.635c-0.118,0.283-0.246,0.563-0.384,0.835c-0.183,0.359-0.402,0.729-0.761,0.91
		c-0.359,0.182-0.889,0.075-1.021-0.305c-0.109-0.311,0.078-0.639,0.257-0.915"/>
	<path fill="#F05423" d="M33.479,56.557c-0.321,0.387-0.676,0.795-1.165,0.912c-0.488,0.116-1.109-0.242-1.047-0.739
		c0.025-0.219,0.17-0.4,0.313-0.566c0.201-0.233,0.41-0.458,0.627-0.675c0.285-0.284,0.61-0.567,1.009-0.627
		c0.398-0.061,0.868,0.206,0.877,0.608c0.007,0.329-0.274,0.584-0.532,0.79"/>
	<path fill="#F05423" d="M27.081,43.524c0.112-0.525,0.249-1.09,0.653-1.441c0.406-0.353,1.172-0.32,1.36,0.183
		c0.083,0.221,0.036,0.466-0.018,0.693c-0.074,0.32-0.161,0.637-0.261,0.95c-0.13,0.411-0.298,0.84-0.646,1.094
		s-0.927,0.235-1.133-0.144c-0.17-0.31-0.028-0.69,0.113-1.014"/>
	<path fill="#F05423" d="M6.643,78.192c0.512,0.096,1.061,0.212,1.412,0.596c0.353,0.383,0.341,1.126-0.142,1.321
		c-0.211,0.086-0.449,0.047-0.671,0.002c-0.313-0.064-0.621-0.14-0.927-0.229c-0.402-0.114-0.821-0.267-1.077-0.597
		c-0.255-0.331-0.251-0.891,0.109-1.101c0.295-0.172,0.668-0.046,0.984,0.083"/>
	<path fill="#F05423" d="M20.589,77.538c0.417,0.253,0.861,0.535,1.043,0.988s-0.073,1.102-0.562,1.113
		c-0.213,0.005-0.408-0.107-0.589-0.221c-0.253-0.159-0.499-0.327-0.737-0.505c-0.315-0.234-0.634-0.507-0.748-0.881
		c-0.115-0.374,0.073-0.864,0.46-0.93c0.315-0.053,0.601,0.181,0.836,0.398"/>
	<path fill="#F05423" d="M20.033,38.015c-0.31,0.507-0.656,1.045-1.21,1.265c-0.552,0.22-1.339-0.095-1.352-0.688
		c-0.005-0.26,0.132-0.497,0.271-0.717c0.195-0.307,0.401-0.604,0.619-0.896c0.286-0.382,0.618-0.769,1.075-0.906
		c0.456-0.138,1.052,0.094,1.13,0.565c0.063,0.385-0.223,0.729-0.488,1.016"/>
	<path fill="#F05423" d="M34.284,75.849c-0.488-0.151-1.009-0.327-1.31-0.74c-0.299-0.414-0.203-1.137,0.289-1.272
		c0.215-0.059,0.443,0.006,0.654,0.075c0.296,0.098,0.589,0.208,0.877,0.328c0.378,0.157,0.771,0.353,0.981,0.704
		c0.211,0.351,0.143,0.896-0.232,1.061c-0.307,0.133-0.656-0.032-0.949-0.194"/>
	<path fill="#F05423" d="M21.938,21.28c-0.295,0.494-0.626,1.021-1.159,1.24c-0.532,0.22-1.3-0.077-1.318-0.652
		c-0.009-0.251,0.123-0.484,0.255-0.698c0.186-0.299,0.383-0.591,0.591-0.876c0.272-0.373,0.591-0.751,1.032-0.89
		c0.44-0.14,1.021,0.078,1.102,0.533c0.066,0.373-0.208,0.711-0.462,0.991"/>
	<path fill="#F05423" d="M5.535,43.169c0.665,0.145,1.379,0.316,1.825,0.829c0.446,0.515,0.404,1.484-0.234,1.724
		c-0.277,0.104-0.588,0.045-0.877-0.023c-0.404-0.095-0.806-0.205-1.202-0.331c-0.521-0.165-1.063-0.378-1.386-0.82
		c-0.321-0.44-0.296-1.173,0.184-1.435c0.392-0.214,0.874-0.035,1.283,0.145"/>
	<path fill="#F05423" d="M33.556,25.993c-0.522,0.349-1.095,0.713-1.723,0.68c-0.627-0.034-1.243-0.684-0.993-1.26
		c0.109-0.252,0.348-0.42,0.577-0.568c0.323-0.208,0.654-0.404,0.992-0.587c0.443-0.24,0.934-0.463,1.434-0.394
		c0.499,0.068,0.969,0.556,0.835,1.042c-0.109,0.397-0.537,0.604-0.919,0.76"/>
	<path fill="#F05423" d="M33.525,41.597c0.283-0.406,0.599-0.839,1.068-0.995c0.471-0.156,1.112,0.143,1.094,0.639
		c-0.008,0.216-0.134,0.408-0.261,0.584c-0.177,0.246-0.363,0.485-0.56,0.716c-0.256,0.304-0.552,0.61-0.938,0.703
		c-0.387,0.094-0.873-0.128-0.915-0.524c-0.034-0.323,0.221-0.598,0.456-0.822"/>
	<path fill="#F05423" d="M29.242,17.129c0.156-0.518,0.338-1.07,0.771-1.39c0.436-0.319,1.199-0.225,1.348,0.294
		c0.063,0.228-0.002,0.469-0.074,0.692c-0.101,0.313-0.214,0.624-0.339,0.93c-0.163,0.401-0.367,0.816-0.736,1.042
		c-0.37,0.228-0.947,0.159-1.123-0.235c-0.144-0.324,0.028-0.693,0.196-1.006"/>
	<path fill="#F05423" d="M15.494,9.994c-0.482-0.462-0.993-0.972-1.103-1.631c-0.11-0.66,0.423-1.451,1.079-1.324
		c0.287,0.056,0.516,0.264,0.723,0.47c0.291,0.287,0.57,0.585,0.838,0.895c0.353,0.405,0.697,0.863,0.74,1.397
		c0.044,0.535-0.354,1.136-0.89,1.108c-0.438-0.022-0.75-0.419-1-0.779"/>
	<path fill="#F05423" d="M3.341,37.348c-0.012-0.502-0.012-1.044,0.28-1.453c0.291-0.408,0.995-0.547,1.275-0.13
		c0.122,0.182,0.135,0.414,0.136,0.633c0.002,0.308-0.009,0.614-0.029,0.921c-0.029,0.401-0.088,0.828-0.349,1.136
		c-0.262,0.307-0.79,0.416-1.062,0.117c-0.222-0.244-0.177-0.621-0.118-0.946"/>
	<path fill="#F05423" d="M3.271,63.958c0.423-0.51,0.89-1.048,1.532-1.203c0.645-0.155,1.462,0.315,1.382,0.973
		c-0.034,0.286-0.225,0.527-0.412,0.746c-0.264,0.307-0.538,0.604-0.824,0.889c-0.375,0.376-0.803,0.749-1.327,0.829
		s-1.146-0.27-1.156-0.801c-0.009-0.434,0.361-0.77,0.699-1.042"/>
	<path fill="#F05423" d="M15.203,16.285c0.272,0.479,0.555,1.003,0.485,1.551c-0.068,0.547-0.677,1.046-1.166,0.79
		c-0.213-0.112-0.345-0.33-0.461-0.542c-0.161-0.296-0.312-0.599-0.45-0.905c-0.182-0.404-0.347-0.847-0.255-1.28
		c0.092-0.433,0.548-0.813,0.966-0.666c0.342,0.122,0.494,0.51,0.606,0.854"/>
	<path fill="#F05423" d="M29.895,63.745c-0.424,0.36-0.889,0.738-1.443,0.774c-0.554,0.035-1.164-0.473-1.003-1.005
		c0.07-0.232,0.262-0.404,0.449-0.559c0.263-0.217,0.532-0.422,0.811-0.617c0.365-0.257,0.773-0.504,1.219-0.494
		c0.446,0.009,0.909,0.389,0.842,0.83c-0.056,0.36-0.41,0.585-0.729,0.762"/>
	<path fill="#F05423" d="M11.252,37.941c0.499,0.121,1.034,0.264,1.361,0.658c0.327,0.396,0.278,1.127-0.207,1.295
		c-0.212,0.073-0.445,0.023-0.661-0.033c-0.304-0.079-0.604-0.17-0.9-0.271c-0.391-0.133-0.795-0.304-1.03-0.644
		c-0.235-0.338-0.202-0.89,0.164-1.077c0.3-0.155,0.66-0.012,0.965,0.132"/>
	<path fill="#F05423" d="M6.734,51.655c-0.62,0.296-1.297,0.6-1.971,0.466c-0.674-0.135-1.24-0.936-0.878-1.521
		c0.158-0.255,0.441-0.399,0.714-0.524c0.383-0.175,0.772-0.334,1.166-0.479c0.518-0.19,1.084-0.356,1.614-0.202
		c0.529,0.152,0.962,0.754,0.741,1.26c-0.182,0.413-0.678,0.569-1.115,0.678"/>
	<path fill="#F05423" d="M5.779,57.338c-0.277,0.574-0.592,1.186-1.157,1.479c-0.566,0.293-1.439,0.041-1.517-0.593
		c-0.033-0.275,0.089-0.545,0.215-0.793c0.175-0.348,0.363-0.688,0.565-1.021c0.264-0.438,0.578-0.885,1.051-1.081
		s1.134-0.012,1.267,0.481c0.107,0.404-0.16,0.805-0.414,1.138"/>
	<path fill="#F05423" d="M33.607,78.654c0.397,0.55,0.813,1.153,0.802,1.832c-0.012,0.679-0.689,1.371-1.322,1.123
		c-0.274-0.108-0.466-0.358-0.636-0.602c-0.237-0.341-0.461-0.689-0.672-1.048c-0.276-0.469-0.537-0.99-0.482-1.532
		c0.056-0.542,0.563-1.067,1.094-0.942c0.433,0.103,0.672,0.556,0.855,0.963"/>
	<path fill="#F05423" d="M10.164,22.906c-0.099,0.543-0.219,1.126-0.624,1.502c-0.404,0.375-1.191,0.367-1.402-0.145
		c-0.091-0.222-0.053-0.475-0.005-0.711c0.066-0.331,0.145-0.659,0.236-0.983c0.12-0.427,0.278-0.873,0.627-1.146
		c0.35-0.271,0.944-0.271,1.169,0.111c0.185,0.312,0.053,0.707-0.083,1.044"/>
	<path fill="#F05423" d="M21.726,12.122c-0.304-0.61-0.615-1.276-0.492-1.948c0.123-0.671,0.91-1.245,1.495-0.895
		c0.256,0.152,0.403,0.433,0.53,0.701c0.18,0.377,0.345,0.76,0.494,1.149c0.196,0.511,0.369,1.069,0.226,1.599
		c-0.146,0.528-0.734,0.966-1.239,0.754c-0.413-0.173-0.575-0.663-0.69-1.096"/>
	<path fill="#F05423" d="M35.173,68.372c0.039,0.485,0.069,1.011-0.19,1.423c-0.261,0.412-0.936,0.584-1.23,0.196
		c-0.129-0.169-0.151-0.395-0.166-0.606c-0.018-0.297-0.025-0.595-0.021-0.893c0.005-0.393,0.039-0.809,0.274-1.12
		c0.236-0.313,0.744-0.446,1.022-0.171c0.228,0.224,0.205,0.592,0.166,0.909"/>
	<path fill="#F05423" d="M7.9,10.226C7.633,9.669,7.36,9.063,7.48,8.457c0.12-0.604,0.838-1.113,1.363-0.79
		c0.229,0.142,0.358,0.396,0.471,0.642c0.157,0.342,0.301,0.69,0.432,1.045c0.171,0.464,0.32,0.972,0.184,1.448
		c-0.138,0.475-0.676,0.863-1.13,0.666c-0.371-0.162-0.512-0.606-0.609-0.999"/>
	<path fill="#F05423" d="M26.946,77.523c0.268,0.44,0.547,0.92,0.498,1.434c-0.049,0.513-0.603,0.995-1.065,0.771
		c-0.203-0.098-0.332-0.298-0.445-0.492c-0.159-0.271-0.309-0.549-0.446-0.832c-0.182-0.371-0.348-0.779-0.275-1.187
		c0.074-0.407,0.489-0.775,0.883-0.649c0.321,0.104,0.476,0.46,0.591,0.778"/>
	<path fill="#B72027" d="M49.917,12.521c-0.03-0.958-1.376,0.865-1.548,0c-0.507-2.537-2.986-5.913-1.758-5.835
		c3.542,0.226-7.084-0.452-10.626-0.679c-0.182,7.425-0.694,14.821-0.605,22.257c0.104,8.633,1.017,17.159,0.915,25.794
		c-0.072,6.084-0.646,12.074-0.8,18.15c-0.11,4.389-0.051,10.136-0.125,14.52c1.466,0.058,1.94-0.083,3.399,0.214
		c3.034,0.618,6.733,0.461,10.114-0.2c0.411-0.08,0.801-0.622,1.097-1.319c0.37-0.877,0.519-2.153,0.622-3.381
		c0.317-3.733,0.37-7.565,0.395-11.376C51.12,51.26,50.518,31.874,49.917,12.521"/>
	<path fill="#010101" d="M0.062,21.658C0,16.178,0,13.49,0.81,7.733c0.334-2.369,0.55-5.191,2.379-6.646
		C4.327,0.182,5.87,0.12,7.302,0.1c10.729-0.154,21.461-0.129,32.19,0.076c3.77,0.071,8.192,0.539,10.134,3.898
		c0.883,1.529,1.047,3.378,1.153,5.158c0.28,4.708-0.181,9.432-0.406,14.143C34.021,23.33,18.16,23.286,1.808,23.24
		c-0.875-0.002-2.116-0.548-1.738-1.368"/>
</g>
</svg>
