<?xml version="1.0" encoding="utf-8"?>
<!-- Generator: Adobe Illustrator 16.0.2, SVG Export Plug-In . SVG Version: 6.00 Build 0)  -->
<!DOCTYPE svg PUBLIC "-//W3C//DTD SVG 1.1//EN" "http://www.w3.org/Graphics/SVG/1.1/DTD/svg11.dtd">
<svg version="1.1" id="Layer_1" xmlns="http://www.w3.org/2000/svg" xmlns:xlink="http://www.w3.org/1999/xlink" x="0px" y="0px"
	 width="70.316px" height="50.99px" viewBox="0 0 70.316 50.99" enable-background="new 0 0 70.316 50.99" xml:space="preserve">
<g>
	<path fill="#D06728" d="M41.365,10.423c-3.877-1.483-8.178-1.425-12.291-0.865c-1.864,0.253-3.72,0.605-5.509,1.188
		c-2.495,0.812-4.826,2.057-7.127,3.317c-2.435,1.335-4.855,2.696-7.26,4.084c-1.106,0.639-2.171,1.352-3.091,2.238
		c-1.903,1.83-2.883,4.418-3.383,6.889c-0.365,1.803-2.14,3.072-2.554,4.863c-0.366,1.581-0.008,3.237,0.481,4.786
		c0.913,2.89,2.29,5.633,4.06,8.092c0.616,0.855,1.299,1.694,2.201,2.24c1.405,0.85,4.988,2.06,6.606,2.341
		c8.084,1.405,13.883,2.108,23.197,0.352c2.736-0.516,5.518-1.763,8.288-2.046c1.814-0.186,3.332-0.479,5.155-0.435
		c3.165,0.076,5.442-0.878,8.299-2.767c0.547-0.361,1.858-1.959,2.231-2.499c0.379-0.548,1.364-2.454,1.695-3.033
		c1.071-1.874,1.752-3.169,1.874-5.087c0.113-1.795,0.357-4.461-1.16-6.78c-2.113-3.231-3.892-3.422-7.734-4.253
		c-1.611-0.35-2.871-0.736-4.169-1.741c-0.301-0.234-0.606-0.47-0.847-0.766c-0.877-1.069-0.842-2.646-1.342-3.893
		c-0.437-1.089-0.639-2.232-1.434-3.157C46.038,11.733,43.438,11.216,41.365,10.423"/>
	<path fill="#F4D49D" d="M53.336,19.075c-8.003,2.398-16.668,0.409-24.93,1.651c-2.584,0.389-5.308,1.217-6.895,3.29
		c-0.776,1.016-1.213,2.248-1.514,3.489c-1.046,4.31-0.552,8.975,1.372,12.968c0.246,0.511,0.519,1.017,0.914,1.421
		c0.402,0.412,0.912,0.701,1.432,0.947c3.069,1.455,6.584,1.577,9.98,1.548c1.147-0.01,2.311-0.036,3.411-0.36
		c0.863-0.254,1.662-0.687,2.429-1.156c4.754-2.912,8.485-7.448,10.462-12.66c0.372-0.981,0.686-1.991,1.189-2.912
		c1.329-2.437,4.015-4.074,6.79-4.138c-1.457-1.44-2.913-2.88-4.37-4.32"/>
	<path fill="#FFF6DA" d="M53.468,18.821c1.115-0.282,2.231-0.564,3.346-0.848c1.123-0.283,2.409-0.71,2.798-1.801
		c0.205-0.575,0.101-1.208,0.119-1.819c0.071-2.293,2.187-4.325,4.481-4.306c1.625,0.015,3.364,1.335,3.141,2.945
		c-0.15,1.082-1.082,1.863-1.626,2.811c-0.231,0.403-0.359,0.99,0.01,1.271c0.156,0.119,0.362,0.146,0.558,0.157
		c0.922,0.056,1.908-0.104,2.725,0.328c0.84,0.445,1.276,1.44,1.296,2.392c0.019,0.951-0.31,1.872-0.673,2.752
		c-0.124,0.302-0.259,0.611-0.495,0.837c-0.258,0.247-0.611,0.369-0.96,0.448c-1.486,0.333-3.114-0.036-4.311-0.979
		c-0.39-0.306-0.744-0.675-1.199-0.87c-0.534-0.229-1.915-0.209-2.486-0.104c-1.236,0.226-1.07,0.98-2.944,1.219
		c-0.582-1.407-2.385-1.423-2.832-2.879c-0.122-0.4-0.457-0.65-0.589-1.047c-0.132-0.397-0.09-0.375-0.491-0.255"/>
	<path fill="#FFF6DA" d="M42.161,10.761c3.273-0.859,6.41-2.238,9.255-4.07c-0.136-1.095-0.695-1.822-0.831-2.917
		c-0.06-0.484,0.173-1.425,0.457-1.823c0.525-0.734,1.901-1.509,2.845-1.745c1.591-0.401,2.904-0.269,4.071,0.886
		c1.162,1.147,1.112,3.281-0.102,4.374c1.239,0.351,2.201,0.35,3.199,1.164c0.462,0.378,0.684,1.07,0.743,1.813
		c0.087,1.078-0.563,2.196-1.219,2.887c-0.581,0.609-1.275,0.895-2.007,1.313c-0.977,0.558-2.253,1.033-3.164,0.372
		c-0.314-0.229-0.538-0.569-0.868-0.776c-0.795-0.498-1.823-0.047-2.646,0.405c-1.192,0.654-2.383,1.309-3.575,1.963
		c-1.824-1.553-3.853-2.866-6.018-3.893"/>
</g>
</svg>
