<?xml version="1.0" encoding="utf-8"?>
<!-- Generator: Adobe Illustrator 16.0.2, SVG Export Plug-In . SVG Version: 6.00 Build 0)  -->
<!DOCTYPE svg PUBLIC "-//W3C//DTD SVG 1.1//EN" "http://www.w3.org/Graphics/SVG/1.1/DTD/svg11.dtd">
<svg version="1.1" id="Layer_1" xmlns="http://www.w3.org/2000/svg" xmlns:xlink="http://www.w3.org/1999/xlink" x="0px" y="0px"
	 width="66.623px" height="45.652px" viewBox="0 0 66.623 45.652" enable-background="new 0 0 66.623 45.652" xml:space="preserve">
<g>
	<path fill="#6E6D74" d="M0.498,4.523c1.882-1.657,4.778-2.212,7.51-2.586c7.537-1.031,15.194-1.307,22.829-1.581
		c4.536-0.163,9.072-0.326,13.613-0.353c5.705-0.035,11.469,0.151,16.985,1.336c1.346,0.289,2.715,0.653,3.765,1.398
		c1.052,0.745,1.716,1.956,1.295,3.038c-0.607,1.566-2.955,2.087-4.945,2.338c-15.733,1.981-31.782,2.285-47.611,0.9
		c-3.885-0.34-7.78-0.786-11.506-1.745C1.584,7.051,0.681,6.765,0.215,6.146S0.061,4.508,0.941,4.411"/>
	<path fill="#C0BEBE" d="M3.481,4.841c3.615-1.767,8.038-1.919,12.251-2.025C21.859,2.66,27.99,2.507,34.119,2.604
		C44,2.762,53.877,0.821,63.677,4.385c0.304,0.379,0.11,0.916-0.291,1.229c-0.399,0.314-0.953,0.456-1.487,0.578
		c-5.806,1.315-11.92,1.302-17.945,1.28C37.2,7.447,30.447,7.423,23.693,7.398c-2.521-0.009-5.057-0.021-7.535-0.388
		C11.927,6.382,5.38,6.3,3.606,4.727"/>
	<path fill="#44612D" d="M66.481,5.944c-0.405,6.417,0.014,24.827-0.741,31.223c-3.979-0.207-7.509,2.011-11.408,2.694
		c-2.624,0.461-5.347,0.214-8.026,0.324c-2.282,0.094-4.534,0.445-6.799,0.689c-7.122,0.768-14.363,0.456-21.488-0.295
		c-4.613-0.486-9.303-1.187-13.342-3.067c-0.582-0.271-1.162-0.577-1.547-1.024C2.246,35.46,1.646,22.067,1.975,20.841
		c1.237-4.616,0.905-9.506-0.948-13.982c16.096,2.486,32.597,2.449,48.979,2.404c2.537-0.008,5.077-0.016,7.603-0.216
		c3.19-0.254,6.546-0.903,8.772-2.785"/>
	<path fill="#6E6D74" d="M64.913,39.221c-1.189,1.803-3.29,3.122-5.586,3.95s-4.793,1.206-7.278,1.495
		c-8.793,1.021-17.712,1.002-26.595,0.98c-2.786-0.006-5.591-0.014-8.329-0.427c-2.622-0.394-5.142-1.153-7.741-1.634
		C7.587,43.254,5.7,43.039,4.14,42.238c-1.559-0.802-2.692-2.415-2.023-3.815c4.274,2.152,9.334,2.991,14.312,3.537
		c16.188,1.778,31.959,0.015,48.549-2.759"/>
	<path fill="#44612D" d="M2.279,33.104c3.379-1.007,6.984-1.509,10.581-1.472c0.557,0.005,1.154,0.035,1.593,0.314
		c0.298,0.188,0.482,0.468,0.708,0.714c1.103,1.2,3.169,1.558,4.988,1.342c1.82-0.216,3.497-0.898,5.22-1.422
		c2.996-0.91,6.206-1.349,9.402-1.288c0.937,0.018,2.062,0.186,2.402,0.898c0.292,0.61-0.167,1.347,0.178,1.939
		c0.341,0.587,1.268,0.729,2.061,0.797c2.214,0.19,4.498,0.375,6.632-0.144c1.899-0.462,3.544-1.452,5.404-2.007
		c1.621-0.483,3.394-0.625,5.098-0.407c0.496,0.063,1.007,0.165,1.39,0.43c0.453,0.314,0.655,0.805,1.043,1.172
		c0.635,0.599,1.692,0.786,2.66,0.732c0.754-0.042,1.536-0.205,2.245,0.007c1.021,0.306,1.506,1.317,1.371,2.198
		c-0.136,0.88,0.248,1.566-0.343,2.313c-7.219,1.381-15.446,2.854-22.816,3.524c-13.104,1.189-26.515,0.087-39.063-3.212
		c-0.589-0.155-1.222-0.343-1.56-0.767c-0.315-0.396-0.295-0.903-0.252-1.375C1.369,35.743,1.842,34.719,2.279,33.104"/>
	<path fill="#FFF6DA" d="M16.501,9.299c-2.049,6.492-2.931,13.351-2.591,20.15c0.039,0.794,0.138,1.678,0.743,2.194
		c0.413,0.354,0.978,0.457,1.515,0.547c4.91,0.823,9.82,1.646,14.73,2.469c5.666,0.948,11.374,1.901,17.115,1.745
		c1.12-0.029,2.314-0.13,3.2-0.813c0.667-0.517,1.068-1.298,1.426-2.063c3.504-7.479,4.961-15.904,4.172-24.126
		C43.633,9.458,30.454,9.387,17.278,9.188"/>
	<path fill="#44612D" d="M32.955,25.322c5.221-1.611,10.665-2.499,16.127-2.628c0.269-0.007,0.549-0.009,0.796,0.099
		c0.466,0.201,0.689,0.723,0.869,1.196c0.376,0.99,0.747,2.123,0.272,3.07c-0.53,1.063-1.861,1.39-3.03,1.603
		c-4.579,0.831-9.179,1.664-13.829,1.825c-0.964,0.034-1.985,0.024-2.811-0.475s-1.323-1.663-0.786-2.464
		c0.267-0.399,0.72-0.625,1.151-0.833c0.793-0.383,1.586-0.765,2.378-1.148"/>
	<path fill="#44612D" d="M20.6,20.243c7.219-1.854,14.733-2.556,22.17-2.069c0.229,0.016,0.475,0.038,0.65,0.188
		c0.172,0.146,0.235,0.385,0.252,0.611c0.118,1.648-1.638,2.739-3.159,3.386c-5.512,2.336-11.316,4.05-17.268,4.703
		c-1.072,0.118-2.182,0.198-3.211-0.128c-1.028-0.325-1.97-1.147-2.128-2.215c-0.181-1.227,0.708-2.39,1.774-3.021
		C20.747,21.066,19.44,20.682,20.6,20.243"/>
</g>
</svg>
