<?xml version="1.0" encoding="utf-8"?>
<!-- Generator: Adobe Illustrator 16.0.2, SVG Export Plug-In . SVG Version: 6.00 Build 0)  -->
<!DOCTYPE svg PUBLIC "-//W3C//DTD SVG 1.1//EN" "http://www.w3.org/Graphics/SVG/1.1/DTD/svg11.dtd">
<svg version="1.1" id="Layer_1" xmlns="http://www.w3.org/2000/svg" xmlns:xlink="http://www.w3.org/1999/xlink" x="0px" y="0px"
	 width="50.822px" height="59.292px" viewBox="0 0 50.822 59.292" enable-background="new 0 0 50.822 59.292" xml:space="preserve">
<g>
	<path fill="#44A84F" d="M22.401,39.17c-0.578,0.385-0.804,1.158-0.7,1.844c0.105,0.687,0.483,1.3,0.905,1.852
		c0.768,1.007,1.909,1.953,3.16,1.754c0.548-0.087,1.036-0.386,1.507-0.679c0.924-0.574,1.927-1.253,2.177-2.311
		c0.104-0.438,0.063-0.896,0.004-1.34c-0.148-1.105-0.529-2.346-1.552-2.789c-0.426-0.184-0.905-0.198-1.369-0.19
		c-0.869,0.014-1.754,0.096-2.555,0.436c-0.8,0.339-1.511,0.97-1.773,1.799"/>
	<path fill="#44A84F" d="M22.241,39.009c-1.831,1.644-0.017,4.37,1.65,5.382c1.834,1.115,4.38-0.241,5.44-1.92
		c0.932-1.474,0.317-4.422-1.341-5.178c-2.033-0.927-5.148,0.151-6.004,2.193c-0.113,0.269,0.327,0.387,0.439,0.12
		c0.717-1.709,2.861-2.284,4.575-2.063c1.908,0.246,2.935,3.107,1.939,4.699c-0.682,1.089-2.753,2.392-4.026,2.11
		c-1.792-0.398-4.065-3.483-2.351-5.021C22.781,39.135,22.458,38.814,22.241,39.009"/>
	<path fill="#44A84F" d="M25.668,29.787c-0.502-0.687-1.413-0.992-2.261-0.929c-0.849,0.064-1.643,0.448-2.353,0.917
		c-0.446,0.295-0.873,0.631-1.196,1.057c-0.783,1.029-0.85,2.501-0.33,3.685c0.52,1.184,1.559,2.091,2.73,2.638
		c0.285,0.133,0.584,0.248,0.897,0.274c0.339,0.028,0.679-0.051,1-0.166c1.122-0.405,2.059-1.282,2.568-2.361
		c0.509-1.079,0.593-2.345,0.263-3.492c-0.233-0.813-0.734-1.623-1.535-1.898"/>
	<path fill="#44A84F" d="M25.842,29.612c-1.744-1.845-4.777-0.797-6.159,1.045c-1.45,1.932-0.578,4.505,1.16,5.909
		c1.881,1.519,4.026,1.313,5.539-0.646c1.461-1.892,1.576-5.417-0.806-6.621c-0.282-0.143-0.532,0.282-0.249,0.425
		c4.261,2.154-0.347,10.196-4.504,6.176c-1.187-1.148-1.85-2.987-1.013-4.539c0.992-1.84,4.07-3.107,5.683-1.4
		C25.712,30.191,26.061,29.843,25.842,29.612"/>
	<path fill="#9BC53D" d="M21.886,35.318c-0.406-0.206-0.851-0.373-1.306-0.342c-0.385,0.027-0.748,0.197-1.069,0.411
		c-0.733,0.49-1.296,1.246-1.505,2.103c-0.209,0.856-0.048,1.807,0.474,2.518c0.248,0.338,0.567,0.616,0.883,0.891l0.913,0.793
		c0.169,0.147,0.344,0.297,0.556,0.366c0.23,0.075,0.479,0.047,0.717,0.004c0.865-0.157,1.694-0.511,2.406-1.027
		c0.223-0.162,0.439-0.344,0.583-0.579c0.135-0.221,0.199-0.478,0.237-0.734c0.271-1.853-0.953-3.811-2.737-4.38"/>
	<path fill="#9BC53D" d="M22,35.122c-1.94-0.868-3.886,0.459-4.251,2.525c-0.156,0.882,0.038,1.796,0.569,2.522
		c0.504,0.69,1.605,1.851,2.453,2.108c1.522,0.462,3.979-1.022,4.23-2.555c0.331-2.02-1.083-3.911-2.903-4.599
		c-0.274-0.104-0.393,0.335-0.121,0.438c1.229,0.464,2.169,1.458,2.493,2.745c0.474,1.883-1.071,3.397-2.918,3.507
		c-1.131,0.067-2.377-1.211-2.949-2.144c-1.24-2.025,0.615-5.296,3.168-4.154C22.036,35.633,22.268,35.241,22,35.122"/>
	<path fill="#9BC53D" d="M17.613,33.743c-0.406-0.206-0.851-0.373-1.306-0.342c-0.385,0.027-0.748,0.197-1.069,0.411
		c-0.733,0.49-1.296,1.246-1.505,2.103c-0.209,0.856-0.048,1.807,0.474,2.518c0.248,0.338,0.567,0.616,0.883,0.891
		c0.305,0.264,0.609,0.529,0.913,0.793c0.169,0.147,0.344,0.297,0.556,0.366c0.23,0.075,0.479,0.047,0.717,0.004
		c0.865-0.157,1.694-0.511,2.406-1.027c0.223-0.162,0.439-0.344,0.583-0.579c0.135-0.221,0.199-0.478,0.237-0.734
		c0.271-1.853-0.953-3.811-2.737-4.38"/>
	<path fill="#9BC53D" d="M17.728,33.547c-1.94-0.868-3.886,0.459-4.251,2.525c-0.156,0.882,0.038,1.796,0.569,2.522
		c0.504,0.69,1.604,1.851,2.453,2.108c1.522,0.462,3.979-1.022,4.23-2.555c0.331-2.02-1.083-3.911-2.903-4.599
		c-0.274-0.104-0.393,0.335-0.121,0.438c1.229,0.464,2.169,1.458,2.493,2.745c0.474,1.883-1.071,3.397-2.918,3.506
		c-1.131,0.068-2.377-1.21-2.949-2.143c-1.24-2.025,0.615-5.296,3.168-4.154C17.763,34.058,17.995,33.666,17.728,33.547"/>
	<path fill="#9BC53D" d="M25.814,22.892c-0.457-0.231-0.958-0.42-1.469-0.384c-0.434,0.03-0.842,0.22-1.203,0.462
		c-0.825,0.551-1.458,1.401-1.693,2.365c-0.235,0.964-0.054,2.034,0.533,2.834c0.279,0.38,0.638,0.693,0.994,1.002
		c0.342,0.298,0.684,0.595,1.027,0.893c0.19,0.164,0.386,0.333,0.625,0.411c0.259,0.084,0.54,0.053,0.807,0.004
		c0.973-0.176,1.906-0.574,2.707-1.154c0.251-0.183,0.494-0.388,0.656-0.653c0.152-0.248,0.224-0.537,0.266-0.825
		c0.305-2.084-1.072-4.288-3.079-4.928"/>
	<path fill="#9BC53D" d="M25.929,22.695c-2.166-0.969-4.335,0.519-4.741,2.824c-0.173,0.983,0.042,2,0.633,2.81
		c0.563,0.772,1.798,2.076,2.747,2.365c1.693,0.515,4.442-1.143,4.724-2.848c0.372-2.259-1.21-4.378-3.246-5.147
		c-0.274-0.104-0.393,0.335-0.121,0.438c1.392,0.526,2.458,1.65,2.825,3.109c0.538,2.136-1.213,3.853-3.307,3.98
		c-1.285,0.078-2.696-1.366-3.345-2.426c-1.41-2.303,0.702-6.009,3.602-4.712C25.964,23.207,26.196,22.814,25.929,22.695"/>
	<path fill="#44A84F" d="M15.782,37.726c-0.362-0.598-1.009-0.711-1.692-0.858c-0.684-0.147-1.396-0.082-2.081,0.057
		c-0.522,0.106-1.051,0.263-1.464,0.599c-0.652,0.532-0.896,1.404-1.105,2.22c-0.112,0.435-0.224,0.883-0.163,1.328
		c0.063,0.465,0.31,0.883,0.572,1.271c0.407,0.604,0.9,1.199,1.582,1.455c1.06,0.398,2.225-0.127,3.218-0.673
		c0.548-0.302,1.121-0.644,1.408-1.2c0.22-0.426,0.242-0.923,0.26-1.402C16.353,39.555,16.363,38.5,15.782,37.726"/>
	<path fill="#44A84F" d="M15.942,37.565c-1.157-1.413-4.175-1.323-5.535-0.22c-1.632,1.324-1.69,3.944-0.482,5.494
		c1.49,1.913,3.711,1.391,5.488,0.089c1.534-1.123,1.498-3.804,0.565-5.317c-0.154-0.249-0.547-0.02-0.393,0.23
		c0.717,1.162,0.879,3.46-0.151,4.499c-1.407,1.419-3.811,1.862-5.139,0.215c-1.056-1.31-0.919-3.492,0.305-4.67
		c1.146-1.104,3.908-1.357,5.02,0.002C15.806,38.113,16.126,37.79,15.942,37.565"/>
	<path fill="#44A84F" d="M20.181,38.678c-0.362-0.598-1.009-0.711-1.692-0.858c-0.684-0.147-1.396-0.082-2.081,0.057
		c-0.522,0.106-1.051,0.263-1.464,0.599c-0.652,0.532-0.896,1.404-1.104,2.22c-0.112,0.435-0.224,0.883-0.163,1.328
		c0.063,0.465,0.31,0.882,0.572,1.271c0.407,0.604,0.9,1.199,1.582,1.455c1.06,0.398,2.225-0.127,3.218-0.673
		c0.548-0.302,1.121-0.644,1.408-1.2c0.22-0.426,0.242-0.923,0.26-1.402C20.751,40.506,20.763,39.453,20.181,38.678"/>
	<path fill="#44A84F" d="M20.341,38.518c-1.157-1.413-4.175-1.323-5.535-0.22c-1.632,1.324-1.69,3.944-0.482,5.494
		c1.49,1.913,3.711,1.391,5.488,0.089c1.534-1.123,1.498-3.804,0.565-5.317c-0.154-0.249-0.547-0.02-0.393,0.23
		c0.717,1.162,0.879,3.46-0.151,4.499c-1.407,1.419-3.811,1.862-5.139,0.215c-1.056-1.31-0.919-3.492,0.305-4.67
		c1.146-1.104,3.908-1.357,5.02,0.002C20.206,39.065,20.525,38.743,20.341,38.518"/>
	<path fill="#44A84F" d="M14.319,42.453c-0.362-0.598-1.009-0.711-1.692-0.858c-0.683-0.147-1.396-0.082-2.081,0.057
		c-0.522,0.106-1.051,0.263-1.464,0.599c-0.652,0.532-0.896,1.404-1.105,2.22c-0.112,0.435-0.224,0.883-0.163,1.328
		c0.063,0.465,0.31,0.882,0.572,1.271c0.407,0.604,0.9,1.199,1.582,1.455c1.06,0.398,2.225-0.127,3.218-0.673
		c0.548-0.302,1.121-0.645,1.408-1.2c0.22-0.426,0.242-0.923,0.26-1.402C14.89,44.281,14.901,43.228,14.319,42.453"/>
	<path fill="#44A84F" d="M14.48,42.292c-1.157-1.413-4.175-1.323-5.535-0.22c-1.632,1.324-1.69,3.944-0.482,5.494
		c1.49,1.913,3.711,1.391,5.488,0.089c1.534-1.123,1.498-3.804,0.565-5.317c-0.154-0.249-0.547-0.02-0.393,0.23
		c0.717,1.162,0.879,3.46-0.151,4.499c-1.407,1.419-3.811,1.862-5.139,0.215c-1.056-1.31-0.919-3.492,0.305-4.67
		c1.146-1.104,3.908-1.357,5.02,0.002C14.344,42.84,14.664,42.517,14.48,42.292"/>
	<path fill="#44A84F" d="M18.06,23.087c-0.394,1.977,1.057,3.305,2.48,4.193c1.423,0.889,3.461,0.847,4.653-0.333
		c0.683-0.676,1.034-1.648,1.05-2.609c0.015-0.961-0.285-1.91-0.753-2.749c-0.321-0.576-0.738-1.121-1.309-1.451
		c-1.258-0.726-2.899-0.205-4.047,0.685C19.299,21.471,18.543,22.147,18.06,23.087"/>
	<path fill="#44A84F" d="M17.833,23.087c-0.563,4.429,6.886,7.316,8.428,2.494c0.642-2.005-0.318-5.106-2.452-5.859
		c-2.332-0.824-4.867,1.412-5.945,3.25c-0.147,0.253,0.245,0.482,0.393,0.23c0.888-1.515,2.686-3.211,4.571-3.18
		c2.551,0.043,3.715,3.615,2.905,5.628c-1.65,4.104-7.927,1.225-7.445-2.563C18.325,22.799,17.869,22.801,17.833,23.087"/>
	<path fill="#44A84F" d="M14.626,29.986c-0.394,1.977,1.057,3.305,2.48,4.193c1.423,0.889,3.461,0.847,4.653-0.333
		c0.683-0.676,1.034-1.648,1.05-2.609c0.015-0.961-0.285-1.91-0.753-2.749c-0.321-0.576-0.738-1.121-1.309-1.451
		c-1.258-0.726-2.899-0.205-4.047,0.685C15.865,28.369,15.109,29.045,14.626,29.986"/>
	<path fill="#44A84F" d="M14.399,29.986c-0.563,4.429,6.886,7.316,8.428,2.494c0.642-2.005-0.318-5.106-2.452-5.859
		c-2.332-0.824-4.867,1.412-5.945,3.25c-0.148,0.253,0.245,0.482,0.393,0.23c0.888-1.515,2.686-3.211,4.571-3.18
		c2.551,0.043,3.715,3.615,2.905,5.628c-1.65,4.104-7.927,1.225-7.445-2.563C14.891,29.697,14.435,29.699,14.399,29.986"/>
	<path fill="#44A84F" d="M8.138,34.164c-0.394,1.977,1.057,3.305,2.48,4.193c1.423,0.889,3.461,0.847,4.653-0.333
		c0.683-0.676,1.034-1.648,1.05-2.609c0.015-0.961-0.285-1.91-0.753-2.749c-0.321-0.576-0.738-1.121-1.309-1.451
		C13,30.489,11.36,31.01,10.212,31.9C9.376,32.547,8.621,33.224,8.138,34.164"/>
	<path fill="#44A84F" d="M7.91,34.164c-0.563,4.429,6.886,7.316,8.428,2.494c0.642-2.005-0.318-5.106-2.452-5.859
		c-2.332-0.824-4.867,1.412-5.945,3.25c-0.148,0.253,0.245,0.482,0.393,0.23c0.888-1.515,2.686-3.211,4.571-3.18
		c2.55,0.043,3.715,3.615,2.905,5.628c-1.651,4.104-7.927,1.225-7.445-2.563C8.401,33.875,7.946,33.877,7.91,34.164"/>
	<path fill="#9BC53D" d="M17.018,27.255c-0.273-0.338-0.33-0.825-0.65-1.119c-0.165-0.152-0.382-0.233-0.596-0.303
		c-0.351-0.116-0.712-0.212-1.082-0.229c-0.785-0.039-1.559,0.282-2.172,0.775c-0.612,0.493-1.076,1.148-1.457,1.835
		c-0.178,0.32-0.342,0.657-0.383,1.021c-0.033,0.286,0.011,0.574,0.056,0.858c0.145,0.932,0.297,1.883,0.734,2.718
		c0.28,0.533,0.668,1.002,1.072,1.449c0.359,0.397,0.754,0.794,1.261,0.965c0.513,0.173,1.083,0.09,1.584-0.114
		c0.501-0.203,0.947-0.52,1.39-0.829c0.467-0.325,0.946-0.652,1.293-1.103c0.663-0.864,0.734-2.07,0.441-3.118
		c-0.293-1.049-0.905-1.975-1.523-2.872"/>
	<path fill="#9BC53D" d="M17.214,27.14c-0.567-0.972-0.756-1.45-1.916-1.678c-1.188-0.234-2.269,0.144-3.157,0.954
		c-2.086,1.903-2.081,4.722-0.557,7.022c1.658,2.502,3.519,2.479,5.771,0.709c2.543-1.997,1.361-4.81-0.173-7.074
		c-0.163-0.241-0.557-0.013-0.393,0.23c1.217,1.795,2.601,4.207,0.732,6.128c-0.322,0.331-1.264,1.021-1.766,1.246
		c-1.933,0.866-3.142-0.363-3.935-1.725c-0.9-1.548-1.226-3.565-0.261-5.132c0.761-1.234,2.11-2.093,3.618-1.92
		c0.921,0.106,1.24,0.777,1.644,1.469C16.969,27.622,17.362,27.393,17.214,27.14"/>
	<path fill="#9BC53D" d="M13.736,22.158c-0.273-0.337-0.33-0.825-0.65-1.119c-0.165-0.152-0.382-0.233-0.596-0.303
		c-0.351-0.116-0.712-0.212-1.082-0.23c-0.785-0.039-1.559,0.282-2.172,0.775c-0.612,0.493-1.076,1.148-1.457,1.835
		c-0.178,0.32-0.342,0.657-0.383,1.021c-0.033,0.286,0.011,0.574,0.056,0.858c0.145,0.932,0.297,1.883,0.734,2.718
		c0.28,0.533,0.668,1.002,1.072,1.449c0.359,0.397,0.754,0.794,1.261,0.965c0.513,0.173,1.083,0.09,1.584-0.114
		c0.501-0.203,0.947-0.52,1.391-0.829c0.466-0.325,0.945-0.652,1.292-1.103c0.663-0.864,0.734-2.07,0.441-3.118
		c-0.293-1.049-0.905-1.975-1.523-2.872"/>
	<path fill="#9BC53D" d="M13.932,22.043c-0.567-0.972-0.756-1.45-1.916-1.678c-1.188-0.234-2.269,0.144-3.157,0.954
		c-2.086,1.903-2.081,4.722-0.557,7.022c1.658,2.502,3.519,2.479,5.771,0.709c2.543-1.997,1.361-4.81-0.173-7.074
		c-0.163-0.241-0.557-0.013-0.393,0.23c1.217,1.795,2.601,4.207,0.732,6.128c-0.322,0.331-1.264,1.021-1.766,1.246
		c-1.933,0.866-3.142-0.363-3.935-1.726c-0.9-1.547-1.226-3.564-0.26-5.131c0.76-1.234,2.109-2.093,3.617-1.92
		c0.921,0.106,1.24,0.777,1.644,1.469C13.687,22.525,14.08,22.296,13.932,22.043"/>
	<path fill="#44A84F" d="M10.643,32.771c-0.268-0.657-0.562-1.349-1.135-1.768c-0.454-0.33-1.024-0.446-1.574-0.552
		c-0.388-0.074-0.784-0.148-1.176-0.103c-0.669,0.077-1.246,0.485-1.814,0.847c-0.603,0.384-1.255,0.751-1.647,1.35
		c-0.207,0.316-0.329,0.681-0.388,1.054C2.728,34.748,3.16,35.941,3.91,36.83c0.749,0.889,1.788,1.498,2.88,1.897
		c0.186,0.067,0.38,0.13,0.577,0.118c0.198-0.013,0.383-0.1,0.562-0.187c0.868-0.418,1.784-0.879,2.282-1.704
		c0.192-0.318,0.31-0.674,0.421-1.028c0.161-0.512,0.31-1.033,0.343-1.569c0.032-0.536-0.061-1.093-0.354-1.543"/>
	<path fill="#44A84F" d="M10.839,32.656c-0.972-2.293-3.354-3.23-5.581-1.932c-2.183,1.273-3.43,3.167-1.974,5.607
		c0.623,1.044,1.612,1.791,2.7,2.302c1.112,0.521,1.659,0.467,2.711-0.108c1.99-1.088,3.143-3.682,2.122-5.826
		c-0.126-0.264-0.518-0.033-0.392,0.23c0.876,1.841-0.196,4.361-1.96,5.203c-1.706,0.816-3.682-0.324-4.66-1.815
		c-1.227-1.869-0.577-3.74,1.254-4.926c1.995-1.293,4.41-0.81,5.387,1.494C10.56,33.154,10.952,32.923,10.839,32.656"/>
	<path fill="#44A84F" d="M11.221,28.092c0.087-0.107,0.068-0.263,0.03-0.396c-0.252-0.881-1.082-1.467-1.908-1.864
		c-0.47-0.225-0.977-0.418-1.498-0.389c-0.487,0.028-0.941,0.247-1.363,0.492c-0.606,0.352-1.175,0.766-1.697,1.234
		c-0.472,0.423-0.921,0.92-1.073,1.535c-0.11,0.448-0.053,0.921,0.053,1.37c0.156,0.665,0.461,1.356,1.064,1.676
		c0.271,0.144,0.579,0.199,0.882,0.249c0.516,0.084,1.034,0.156,1.555,0.199c0.509,0.042,1.052,0.049,1.493-0.208
		c0.259-0.151,0.461-0.381,0.658-0.607c0.421-0.484,0.843-0.968,1.264-1.451c0.177-0.204,0.357-0.412,0.464-0.659
		c0.13-0.301,0.143-0.638,0.153-0.966c0.011-0.346,0.014-0.72-0.187-1.002"/>
	<path fill="#44A84F" d="M11.44,28.152c0.558-1.698-2.612-3.107-3.893-2.886c-2.118,0.365-4.545,2.601-4.001,4.868
		c0.202,0.845,0.606,1.582,1.437,1.914c1,0.4,2.849,0.675,3.836,0.161c0.822-0.428,1.823-1.697,2.317-2.476
		c0.473-0.747,0.536-1.742,0.171-2.543c-0.122-0.266-0.514-0.035-0.393,0.229c0.618,1.353-0.807,3.089-1.811,3.968
		c-1.254,1.1-4.335,0.71-5.006-0.975c-0.69-1.73,0.682-3.141,2.052-4.006c1.027-0.647,1.892-0.781,3.079-0.378
		c0.666,0.226,2.043,1.184,1.774,2.003C10.91,28.311,11.349,28.429,11.44,28.152"/>
	<path fill="#44A84F" d="M13.944,28.682c0.087-0.107,0.068-0.263,0.03-0.396c-0.252-0.881-1.082-1.467-1.908-1.864
		c-0.47-0.225-0.977-0.418-1.498-0.389c-0.487,0.028-0.941,0.247-1.363,0.492c-0.606,0.352-1.175,0.766-1.697,1.234
		c-0.472,0.423-0.921,0.92-1.073,1.535c-0.11,0.448-0.053,0.921,0.053,1.37c0.156,0.665,0.461,1.356,1.064,1.676
		c0.271,0.144,0.579,0.199,0.882,0.249c0.516,0.084,1.034,0.156,1.555,0.199c0.509,0.042,1.052,0.049,1.493-0.208
		c0.259-0.151,0.461-0.381,0.658-0.607c0.421-0.484,0.843-0.968,1.264-1.451c0.177-0.204,0.357-0.412,0.464-0.659
		c0.13-0.301,0.143-0.638,0.153-0.966c0.011-0.346,0.014-0.72-0.187-1.002"/>
	<path fill="#44A84F" d="M14.163,28.742c0.558-1.698-2.612-3.107-3.893-2.886c-2.118,0.365-4.545,2.601-4.001,4.868
		c0.202,0.845,0.606,1.582,1.437,1.915c1,0.399,2.849,0.674,3.836,0.16c0.822-0.428,1.823-1.697,2.316-2.476
		c0.474-0.747,0.537-1.742,0.172-2.543c-0.122-0.266-0.514-0.035-0.393,0.229c0.618,1.353-0.807,3.089-1.811,3.968
		c-1.254,1.1-4.335,0.71-5.006-0.975c-0.69-1.73,0.682-3.141,2.052-4.005c1.027-0.648,1.892-0.782,3.079-0.379
		c0.666,0.226,2.043,1.184,1.774,2.003C13.633,28.9,14.072,29.019,14.163,28.742"/>
	<path fill="#9BC53D" d="M14.759,25.573c0.884-0.51,1.394-1.518,1.524-2.53c0.23-1.803-0.705-3.708-2.285-4.606
		c-1.232-0.701-2.876-0.753-4.019,0.083c-0.308,0.225-0.572,0.504-0.824,0.79c-0.392,0.446-0.764,0.916-1.047,1.439
		c-0.284,0.524-0.475,1.099-0.563,1.689c-0.093,0.622-0.061,1.295,0.279,1.824c0.207,0.323,0.512,0.568,0.812,0.807
		c0.548,0.437,1.096,0.875,1.661,1.288c0.337,0.247,0.703,0.493,1.12,0.521c0.214,0.014,0.428-0.031,0.637-0.083
		c1.146-0.288,2.237-0.797,3.193-1.492"/>
	<path fill="#9BC53D" d="M14.874,25.769c4.44-3.18-1-10.788-5.272-7.224c-1.798,1.5-3.399,4.609-1.347,6.498
		c0.77,0.709,2.017,1.948,3.101,2.054c1.338,0.131,2.974-0.898,4.006-1.598c0.241-0.163,0.014-0.557-0.229-0.393
		c-1.558,1.057-3.442,2.013-5.142,0.74c-1.017-0.76-2.212-1.457-2.262-2.936c-0.039-1.121,0.579-2.15,1.237-2.996
		c3.903-5.028,10.027,2.348,5.679,5.462C14.409,25.545,14.635,25.94,14.874,25.769"/>
	<path fill="#9BC53D" d="M7.612,23.794c0.034-0.928-0.595-1.815-1.444-2.191c-0.849-0.375-1.867-0.273-2.685,0.166
		s-1.445,1.186-1.849,2.022c-0.311,0.641-0.497,1.402-0.225,2.06c0.224,0.539,0.717,0.916,1.215,1.221
		c0.485,0.297,1.042,0.559,1.604,0.468c0.305-0.049,0.584-0.199,0.849-0.36c1.029-0.624,1.973-1.487,2.38-2.62
		c0.111-0.306,0.18-0.633,0.153-0.957c-0.026-0.319-0.236-0.753-0.351-1.052c-0.113-0.292,0.113,0.293,0,0"/>
	<path fill="#9BC53D" d="M7.84,23.794c-0.1-1.988-2.029-3.062-3.865-2.473c-1.633,0.524-3.516,2.786-2.784,4.59
		c0.335,0.827,1.28,1.465,2.092,1.737c0.851,0.285,1.501,0.01,2.215-0.466c0.836-0.557,1.598-1.282,2.03-2.202
		c0.454-0.967,0.287-1.62-0.081-2.571c-0.146,0.04-0.292,0.08-0.438,0.121c0.021,0.054,0.042,0.109,0.063,0.164
		c0.146-0.04,0.292-0.081,0.439-0.121c-0.011-0.027-0.022-0.055-0.032-0.082c-0.104-0.27-0.544-0.153-0.439,0.121
		c0.011,0.027,0.022,0.055,0.032,0.082c0.104,0.27,0.544,0.153,0.439-0.121c-0.022-0.055-0.043-0.109-0.064-0.164
		c-0.104-0.27-0.544-0.153-0.438,0.121c0.51,1.322,0.315,2.327-0.669,3.37c-1.059,1.123-2.457,1.833-3.897,0.783
		c-1.742-1.27-0.556-3.601,0.858-4.539c1.57-1.042,3.977-0.493,4.084,1.65C7.4,24.085,7.855,24.087,7.84,23.794"/>
	<path fill="#44A84F" d="M20.055,21.316c-0.397,0.074-0.813-0.04-1.161-0.246c-0.348-0.206-0.637-0.498-0.903-0.802
		c-0.245-0.279-0.48-0.579-0.604-0.929c-0.134-0.38-0.13-0.793-0.087-1.193c0.106-1.01,0.447-1.994,0.988-2.852
		c0.182-0.289,0.39-0.568,0.66-0.778c0.314-0.243,0.695-0.382,1.079-0.484c0.717-0.188,1.491-0.255,2.192-0.013
		c0.397,0.138,0.755,0.369,1.097,0.614c0.369,0.265,0.728,0.552,1.01,0.908c0.447,0.564,0.678,1.271,0.817,1.978
		c0.116,0.588,0.167,1.227-0.11,1.759c-0.233,0.449-0.668,0.754-1.1,1.018c-0.345,0.21-0.699,0.406-1.061,0.586
		c-0.525,0.261-1.074,0.491-1.654,0.577c-0.58,0.087-1.198,0.021-1.702-0.28"/>
	<path fill="#44A84F" d="M20.055,21.089c-4.341,0.161-2.493-9.317,2.616-6.602c0.697,0.37,1.359,0.929,1.755,1.617
		c0.238,0.469,0.404,0.961,0.498,1.475c0.253,0.672,0.083,1.233-0.511,1.681c-0.988,1.394-3.048,2.522-4.782,1.723
		c-0.264-0.121-0.496,0.271-0.23,0.393c1.726,0.794,4.933-0.223,5.829-1.983c1.081-2.124-0.946-4.892-2.924-5.581
		c-5.289-1.844-7.31,7.92-2.251,7.732C20.347,21.533,20.348,21.078,20.055,21.089"/>
	<path fill="#44A84F" d="M15.796,26.417c-0.397,0.074-0.813-0.04-1.161-0.246c-0.348-0.206-0.637-0.498-0.903-0.802
		c-0.245-0.279-0.48-0.579-0.604-0.929c-0.134-0.38-0.13-0.793-0.087-1.193c0.106-1.01,0.447-1.994,0.988-2.852
		c0.182-0.289,0.39-0.568,0.66-0.778c0.314-0.243,0.695-0.382,1.079-0.484c0.717-0.189,1.491-0.255,2.192-0.013
		c0.397,0.138,0.756,0.369,1.097,0.614c0.369,0.265,0.728,0.552,1.01,0.908c0.447,0.564,0.678,1.271,0.817,1.978
		c0.116,0.588,0.167,1.227-0.11,1.759c-0.233,0.449-0.668,0.754-1.1,1.018c-0.345,0.21-0.699,0.406-1.061,0.586
		c-0.525,0.261-1.074,0.491-1.654,0.577c-0.58,0.087-1.198,0.021-1.702-0.28"/>
	<path fill="#44A84F" d="M15.796,25.752c-3.615,0.135-2.06-8.094,2.396-5.788c0.631,0.327,1.242,0.841,1.598,1.46
		c0.555,0.968,0.688,1.874,0.035,2.747c-0.861,1.153-2.777,2.205-4.233,1.535c-0.771-0.355-1.447,0.79-0.67,1.147
		c1.948,0.897,5.386-0.16,6.426-2.14c1.235-2.348-0.923-5.414-3.132-6.2c-5.942-2.114-8.143,8.781-2.42,8.568
		C16.648,27.049,16.653,25.72,15.796,25.752"/>
	<path fill="#9BC53D" d="M17.313,18.798c-0.263,0.19-0.619,0.219-0.93,0.131c-0.312-0.089-0.585-0.282-0.821-0.505
		c-0.569-0.536-0.967-1.312-0.86-2.086c0.114-0.827,0.756-1.471,1.394-2.009c0.344-0.291,0.7-0.573,1.096-0.79
		c0.216-0.119,0.447-0.219,0.691-0.248c0.366-0.044,0.749,0.081,1.018,0.333c0.104,0.098,0.192,0.215,0.235,0.35
		c0.043,0.137,0.038,0.285,0.005,0.425c-0.136,0.579-0.692,0.946-1.025,1.44c-0.594,0.881-0.432,2.092-0.944,3.023"/>
	<path fill="#9BC53D" d="M17.198,18.602c-0.874,0.418-1.696-0.364-2.051-1.094c-0.343-0.705-0.275-1.388,0.147-2.023
		c0.42-0.633,2.41-2.603,3.271-1.829c0.797,0.717-0.561,1.838-0.84,2.428c-0.4,0.842-0.356,1.812-0.749,2.664
		c-0.122,0.264,0.27,0.495,0.392,0.229c0.441-0.956,0.366-2.137,0.944-3.023c0.356-0.545,1.022-0.952,1.069-1.662
		c0.091-1.366-1.617-1.35-2.449-0.862c-1.222,0.716-2.748,2.047-2.425,3.627c0.26,1.276,1.603,2.568,2.92,1.938
		C17.691,18.868,17.461,18.476,17.198,18.602"/>
	<path fill="#9BC53D" d="M26.364,29.697c0.735-0.924,1.677-1.497,2.83-1.751c0.557-0.122,1.167-0.145,1.669,0.125
		c0.279,0.15,0.505,0.38,0.72,0.612c0.565,0.608,1.101,1.276,1.35,2.068c0.492,1.564-0.389,3.432-1.908,4.049
		c-0.515,0.209-1.111,0.281-1.621,0.06c-0.376-0.162-0.669-0.466-0.947-0.768c-1.06-1.154-2.08-2.507-2.138-4.073"/>
	<path fill="#9BC53D" d="M26.525,29.858c0.851-0.994,2.461-2.129,3.884-1.718c1.573,0.455,2.708,2.769,2.34,4.272
		c-0.473,1.929-2.452,3.036-4.131,1.519c-1.085-0.981-1.936-2.453-2.072-3.912c-0.026-0.289-0.481-0.291-0.454,0
		c0.162,1.749,1.51,4.333,3.225,5.049c1.592,0.665,3.264-0.775,3.769-2.2c0.611-1.725-0.319-3.65-1.724-4.718
		c-1.669-1.268-3.986,0.017-5.159,1.387C26.014,29.758,26.334,30.081,26.525,29.858"/>
	<path fill="#9BC53D" d="M26.991,33.513c1.321-0.145,2.466,0.494,3.058,1.684c0.256,0.516,0.371,1.089,0.484,1.655
		c0.178,0.892,0.35,1.848-0.008,2.684c-0.169,0.395-0.446,0.734-0.746,1.042c-0.399,0.41-0.868,0.786-1.427,0.908
		c-0.253,0.055-0.514,0.055-0.771,0.038c-1.05-0.072-2.088-0.457-2.879-1.149c-0.792-0.692-1.321-1.699-1.362-2.75
		c-0.012-0.325,0.021-0.656,0.146-0.956c0.174-0.419,0.51-0.747,0.845-1.052C25.168,34.855,26.057,34.151,26.991,33.513"/>
	<path fill="#9BC53D" d="M26.991,33.741c4.073-0.184,4.971,7.594,0.59,7.556c-1.762-0.015-4.219-1.675-4.013-3.671
		c0.186-1.815,2.206-2.982,3.538-3.916c0.238-0.167,0.011-0.561-0.23-0.393c-1.792,1.257-4.356,2.71-3.606,5.253
		c0.588,1.991,2.99,3.59,5.082,3.144c4.345-0.928,2.937-8.622-1.361-8.428C26.7,33.299,26.698,33.754,26.991,33.741"/>
	<path fill="#9BC53D" d="M29.487,33.992c1.321-0.145,2.694,0.605,3.285,1.795c0.257,0.517,0.372,1.09,0.485,1.655
		c0.177,0.892,0.349,1.849-0.008,2.685c-0.169,0.394-0.447,0.733-0.746,1.041c-0.4,0.41-0.869,0.787-1.428,0.908
		c-0.252,0.055-0.513,0.056-0.771,0.038c-1.049-0.072-2.087-0.457-2.879-1.149c-0.792-0.692-1.32-1.699-1.361-2.75
		c-0.013-0.324,0.021-0.656,0.146-0.956c0.174-0.419,0.509-0.747,0.845-1.052c0.836-0.762,1.726-1.465,2.66-2.104"/>
	<path fill="#9BC53D" d="M29.487,34.219c2.095-0.075,3.181,1.389,3.55,3.283c0.383,1.963-0.253,4.406-2.733,4.384
		c-1.761-0.015-4.218-1.675-4.013-3.671c0.187-1.815,2.206-2.982,3.538-3.916c0.238-0.166,0.011-0.561-0.229-0.392
		c-1.793,1.256-4.357,2.71-3.606,5.252c0.587,1.991,2.99,3.591,5.081,3.144c1.879-0.401,2.76-2.37,2.54-4.106
		c-0.304-2.408-1.413-4.53-4.128-4.433C29.195,33.775,29.194,34.229,29.487,34.219"/>
	<path fill="#44A84F" d="M18.114,41.75c-0.578,0.385-0.804,1.158-0.7,1.844c0.105,0.687,0.483,1.3,0.904,1.852
		c0.769,1.007,1.91,1.953,3.161,1.754c0.548-0.087,1.035-0.386,1.507-0.679c0.924-0.574,1.927-1.253,2.177-2.311
		c0.104-0.438,0.063-0.895,0.004-1.34c-0.148-1.105-0.529-2.346-1.552-2.789c-0.426-0.184-0.905-0.198-1.369-0.19
		c-0.87,0.014-1.754,0.096-2.555,0.435c-0.8,0.34-1.512,0.971-1.773,1.8"/>
	<path fill="#44A84F" d="M17.954,41.59c-1.831,1.644-0.017,4.37,1.65,5.382c1.834,1.115,4.38-0.241,5.441-1.92
		c0.931-1.474,0.316-4.422-1.342-5.178c-2.033-0.927-5.148,0.151-6.004,2.193c-0.113,0.269,0.327,0.387,0.439,0.12
		c0.717-1.709,2.861-2.284,4.575-2.063c1.908,0.246,2.935,3.107,1.939,4.699c-0.682,1.089-2.753,2.392-4.026,2.11
		c-1.792-0.398-4.065-3.483-2.35-5.022C18.494,41.716,18.17,41.395,17.954,41.59"/>
	<path fill="#9BC53D" d="M17.547,43.223c-0.136-0.365-0.678-0.379-1.059-0.462c-0.38-0.083-0.776-0.028-1.157,0.054
		c-0.378,0.082-0.758,0.193-1.081,0.408c-0.428,0.285-0.721,0.728-1.002,1.159c-0.736,1.129-1.505,2.397-1.297,3.729
		c0.113,0.725,0.508,1.373,0.929,1.974c0.302,0.431,0.648,0.87,1.139,1.06c0.429,0.165,0.908,0.116,1.361,0.043
		c0.769-0.124,1.528-0.31,2.267-0.556c0.95-0.317,1.966-0.836,2.27-1.79c0.198-0.624,0.043-1.303-0.17-1.922
		C19.275,45.555,18.521,44.288,17.547,43.223"/>
	<path fill="#9BC53D" d="M17.708,43.062c-0.602-0.633-1.62-0.641-2.437-0.466c-1.355,0.289-2.021,1.278-2.684,2.417
		c-0.611,1.051-1.088,2.193-0.788,3.423c0.253,1.04,1.06,2.463,2.106,2.905c1.532,0.647,4.745-0.418,5.792-1.668
		C21.322,47.729,18.989,44.537,17.708,43.062c-0.192-0.221-0.513,0.102-0.321,0.322c0.917,1.055,2.068,2.623,2.285,4.07
		c0.35,2.335-1.653,2.94-3.492,3.346c-1.421,0.314-2.523,0.039-3.41-1.29c-0.608-0.912-0.75-1.971-0.408-3.01
		c0.544-1.655,3.064-5.177,5.025-3.116C17.588,43.596,17.909,43.274,17.708,43.062"/>
	<path fill="#44A84F" d="M11.604,47.844c-0.344-0.362-0.627-0.188-1.125-0.234c-0.36-0.032-0.724,0.029-1.071,0.129
		c-1.399,0.403-2.594,1.466-3.152,2.81c-0.558,1.345-0.465,2.944,0.25,4.212c0.365,0.647,0.956,1.245,1.697,1.302
		c0.513,0.04,1.005-0.185,1.46-0.425c0.642-0.338,1.262-0.716,1.857-1.132c0.457-0.32,0.911-0.676,1.19-1.16
		c0.249-0.432,0.34-0.939,0.362-1.438C13.135,50.432,12.596,48.939,11.604,47.844"/>
	<path fill="#44A84F" d="M11.719,47.647c-1.631-1.032-4.054,0.412-5.051,1.743c-1.331,1.777-1.457,4.883,0.391,6.394
		c1.618,1.324,4.368-0.556,5.481-1.833c1.578-1.811,0.552-4.646-0.775-6.268c-0.185-0.227-0.505,0.096-0.322,0.321
		c1.27,1.552,2.161,4.167,0.516,5.766c-1.215,1.182-3.965,3.073-5.257,0.875c-0.86-1.464-0.733-3.45,0.213-4.832
		c0.827-1.211,3.08-2.719,4.575-1.773C11.737,48.198,11.966,47.804,11.719,47.647"/>
	<path fill="#44A84F" d="M10.291,45.805c-0.344-0.362-0.627-0.188-1.125-0.234C8.806,45.538,8.442,45.6,8.095,45.7
		c-1.399,0.403-2.594,1.466-3.152,2.81c-0.558,1.344-0.465,2.943,0.25,4.212c0.365,0.647,0.956,1.245,1.697,1.302
		c0.513,0.039,1.006-0.185,1.46-0.425c0.642-0.338,1.262-0.716,1.857-1.132c0.457-0.321,0.911-0.676,1.19-1.16
		c0.249-0.432,0.34-0.939,0.362-1.438C11.822,48.393,11.283,46.9,10.291,45.805"/>
	<path fill="#44A84F" d="M10.406,45.609c-1.631-1.032-4.054,0.412-5.051,1.743c-1.331,1.777-1.457,4.883,0.391,6.394
		c1.618,1.324,4.368-0.556,5.481-1.833c1.578-1.811,0.552-4.646-0.775-6.268c-0.185-0.227-0.505,0.096-0.322,0.321
		c1.27,1.552,2.161,4.167,0.516,5.766c-1.215,1.182-3.965,3.074-5.257,0.875c-0.86-1.464-0.733-3.45,0.213-4.832
		c0.827-1.211,3.08-2.719,4.575-1.773C10.424,46.159,10.653,45.765,10.406,45.609"/>
	<path fill="#9BC53D" d="M9.128,39.902c-0.653-0.203-1.133-0.499-1.789-0.305c-0.24,0.071-0.441,0.233-0.628,0.4
		c-0.568,0.508-1.065,1.094-1.474,1.737c-0.357,0.563-0.652,1.191-0.667,1.857c-0.029,1.305,0.996,2.379,2.032,3.172
		c0.273,0.21,0.567,0.418,0.908,0.465c0.38,0.052,0.756-0.103,1.094-0.283c0.61-0.326,1.169-0.746,1.652-1.241
		c0.251-0.257,0.489-0.548,0.571-0.898c0.066-0.284,0.024-0.581-0.019-0.87C10.59,42.458,10.292,40.837,9.128,39.902"/>
	<path fill="#9BC53D" d="M9.188,39.683c-0.813-0.282-1.535-0.569-2.321-0.1c-0.899,0.536-1.767,1.772-2.184,2.698
		c-0.842,1.868,0.24,3.595,1.803,4.679c1.488,1.031,3.661-0.163,4.408-1.708c0.772-1.598-0.4-4.393-1.606-5.511
		c-0.214-0.198-0.536,0.123-0.321,0.322c1.007,0.934,1.343,2.181,1.553,3.487c0.356,2.215-2.21,4.232-4.269,2.63
		c-1.509-1.173-1.768-2.699-0.818-4.331c0.829-1.425,1.957-2.309,3.634-1.728C9.344,40.217,9.463,39.778,9.188,39.683"/>
	<path fill="#9BC53D" d="M9.808,36.76c-0.653-0.203-1.134-0.499-1.789-0.305c-0.24,0.071-0.441,0.233-0.628,0.4
		c-0.568,0.508-1.065,1.094-1.474,1.737c-0.357,0.562-0.652,1.191-0.667,1.857c-0.029,1.305,0.996,2.379,2.032,3.172
		c0.273,0.21,0.567,0.418,0.908,0.465c0.38,0.052,0.756-0.103,1.094-0.283c0.61-0.326,1.169-0.746,1.652-1.241
		c0.251-0.257,0.489-0.548,0.571-0.898c0.066-0.284,0.024-0.581-0.019-0.87C11.27,39.316,10.972,37.695,9.808,36.76"/>
	<path fill="#9BC53D" d="M9.869,36.541c-0.813-0.282-1.535-0.569-2.321-0.1c-0.899,0.536-1.767,1.772-2.184,2.698
		c-0.842,1.868,0.24,3.595,1.803,4.679c1.488,1.031,3.661-0.163,4.408-1.708c0.772-1.598-0.4-4.393-1.606-5.511
		c-0.214-0.198-0.536,0.123-0.321,0.322c1.007,0.933,1.343,2.181,1.553,3.487c0.356,2.215-2.21,4.232-4.269,2.63
		c-1.509-1.173-1.768-2.699-0.818-4.331c0.829-1.425,1.957-2.309,3.634-1.728C10.024,37.075,10.144,36.636,9.869,36.541"/>
	<path fill="#9BC53D" d="M2.376,34.163c-0.774-0.12-1.465,0.826-1.866,1.499c-0.383,0.644-0.26,1.33-0.276,2.079
		c-0.022,1.036,0.6,1.962,1.196,2.81c0.234,0.334,0.479,0.678,0.83,0.886c0.352,0.209,0.775,0.26,1.184,0.265
		c0.713,0.008,1.438-0.116,2.068-0.45c0.629-0.335,1.155-0.895,1.361-1.577c0.326-1.079-0.176-2.231-0.795-3.174
		c-0.422-0.643-0.912-1.255-1.537-1.703C3.916,34.35,3.14,34.077,2.376,34.163"/>
	<path fill="#9BC53D" d="M2.376,33.936c-1.945,0.06-2.497,2.478-2.355,4.024c0.176,1.916,1.645,4.032,3.69,3.959
		c2.038-0.072,3.889-1.516,3.4-3.71C6.633,36.063,4.667,33.884,2.376,33.936c-0.292,0.007-0.293,0.461,0,0.455
		c3.674-0.082,6.564,6.778,1.57,7.039c-1.69,0.089-2.933-1.316-3.369-2.887c-0.37-1.331-0.078-4.095,1.799-4.152
		C2.668,34.381,2.669,33.926,2.376,33.936"/>
	<path fill="#44A84F" d="M4.893,44.342c-0.106-0.214-0.368-0.313-0.606-0.296c-0.238,0.017-0.458,0.129-0.667,0.244
		c-0.334,0.183-0.661,0.38-0.979,0.59c-0.186,0.123-0.372,0.254-0.508,0.431c-0.251,0.326-0.296,0.768-0.265,1.178
		c0.078,1.019,0.573,1.983,1.286,2.714c0.414,0.425,0.94,0.792,1.532,0.817c0.687,0.029,1.335-0.431,1.651-1.041
		c0.317-0.611,0.337-1.341,0.188-2.011c-0.149-0.671-0.455-1.296-0.77-1.906c-0.193-0.376-0.462-0.797-0.883-0.824"/>
	<path fill="#44A84F" d="M5.054,44.182c-0.843-0.978-2.854,0.388-3.27,1.279c-0.668,1.436,0.528,3.461,1.659,4.294
		c1.327,0.977,2.938,0.274,3.313-1.294c0.314-1.31-0.385-4.007-1.825-4.441c-0.281-0.085-0.4,0.354-0.121,0.438
		c0.86,0.259,1.336,1.822,1.495,2.571c0.356,1.68-1.007,3.604-2.74,2.228c-0.766-0.607-1.461-1.764-1.47-2.767
		c-0.007-0.704,0.441-1.215,0.98-1.618c0.357-0.267,1.272-0.813,1.656-0.369C4.923,44.725,5.243,44.402,5.054,44.182"/>
	<path fill="#9BC53D" d="M5.89,51.358c-0.057-0.835-1.026-1.383-1.851-1.241c-0.825,0.141-1.481,0.779-1.946,1.476
		c-0.415,0.624-0.723,1.32-0.904,2.048c-0.207,0.828-0.223,1.785,0.314,2.448c0.473,0.583,1.263,0.802,2.01,0.871
		c0.458,0.041,0.926,0.039,1.37-0.079c1.21-0.318,2.091-1.507,2.19-2.754c0.099-1.247-0.516-2.493-1.473-3.3"/>
	<path fill="#9BC53D" d="M6.109,51.297c-0.388-1.867-2.571-1.616-3.649-0.526c-1.195,1.206-2.384,3.945-1.118,5.478
		c1.198,1.45,3.916,1.225,5.09-0.096c1.514-1.704,0.859-4.062-0.671-5.487c-0.214-0.199-0.536,0.122-0.322,0.321
		c1.048,0.976,1.72,2.379,1.265,3.814c-0.535,1.685-2.289,2.256-3.879,1.812c-2.02-0.564-1.674-2.681-0.981-4.125
		c0.24-0.5,0.546-1.002,0.937-1.396c0.826-0.829,2.567-1.227,2.89,0.326C5.73,51.705,6.169,51.583,6.109,51.297"/>
	<path fill="#9BC53D" d="M8.761,54.182c-0.725,0.555-1.119,1.512-0.995,2.417c0.182,1.323,1.442,2.35,2.773,2.469
		c1.331,0.119,2.654-0.559,3.524-1.573c0.353-0.411,0.649-0.896,0.714-1.434c0.051-0.436-0.052-0.874-0.159-1.299
		c-0.2-0.79-0.455-1.636-1.107-2.126c-0.789-0.593-1.905-0.47-2.841-0.153c-0.945,0.319-1.927,0.926-2.131,1.903"/>
	<path fill="#9BC53D" d="M8.6,54.021c-1.425,1.284-1.41,3.387,0.148,4.576c1.851,1.412,4.505,0.515,5.744-1.286
		c1.004-1.459,0.427-4.316-1.251-5.095c-1.704-0.791-4.356,0.339-4.921,2.109c-0.09,0.28,0.349,0.399,0.438,0.121
		c0.448-1.404,2.545-2.341,3.947-1.936c1.992,0.575,2.209,3.727,1.043,4.987c-1.041,1.126-2.72,1.741-4.166,1.057
		c-1.745-0.826-2.136-2.882-0.661-4.211C9.139,54.146,8.817,53.826,8.6,54.021"/>
	<path fill="#44A84F" d="M14.189,50.393c-0.743,0.378-1.125,1.253-1.147,2.086s0.253,1.642,0.524,2.43
		c0.085,0.245,0.177,0.502,0.369,0.677c0.149,0.136,0.343,0.208,0.532,0.277c0.381,0.14,0.762,0.279,1.142,0.419
		c0.338,0.123,0.688,0.249,1.048,0.231c0.4-0.019,0.769-0.214,1.111-0.422c0.648-0.393,1.267-0.857,1.731-1.456
		c0.465-0.6,0.768-1.348,0.728-2.106c-0.051-0.978-0.645-1.832-1.217-2.627c-0.204-0.284-0.423-0.579-0.741-0.723
		c-0.281-0.127-0.601-0.118-0.908-0.098c-0.594,0.039-1.186,0.114-1.771,0.223c-0.437,0.081-0.879,0.185-1.26,0.415
		c-0.381,0.23-0.697,0.605-0.755,1.046"/>
	<path fill="#44A84F" d="M14.074,50.197c-0.802,0.536-1.215,1.309-1.259,2.282c-0.043,0.938,0.254,2.593,0.959,3.268
		c0.584,0.56,2.096,1.031,2.882,0.994c1.054-0.05,2.206-1.017,2.856-1.773c1.467-1.707,1.01-4.423-0.818-5.779
		c-0.816-0.606-2.014-0.304-2.945-0.142c-1.112,0.195-2.019,0.52-2.394,1.657c-0.091,0.279,0.348,0.398,0.439,0.121
		c0.363-1.104,2.109-1.49,3.122-1.48c0.862,0.008,1.629,0.423,2.183,1.075c1.274,1.499,1.038,3.429-0.384,4.712
		c-1.211,1.093-2.722,1.439-4.188,0.513c-1.522-0.963-1.733-4.048-0.224-5.055C14.546,50.428,14.318,50.034,14.074,50.197"/>
	<path fill="#9BC53D" d="M19.676,47.55c-0.232,0.6-0.15,1.291,0.122,1.874c0.272,0.582,0.719,1.068,1.212,1.481
		c0.536,0.45,1.207,0.842,1.898,0.729c0.353-0.058,0.67-0.243,0.978-0.425c0.757-0.446,1.554-0.934,1.949-1.72
		c0.284-0.563,0.325-1.215,0.327-1.845c0.003-0.809-0.067-1.67-0.551-2.318c-0.519-0.696-1.443-1.008-2.309-0.953
		c-0.866,0.055-1.682,0.433-2.415,0.899c-0.503,0.32-1.004,0.721-1.19,1.288c-0.079,0.244-0.095,0.503-0.11,0.758
		c-0.031,0.526-0.062,1.051-0.093,1.576"/>
	<path fill="#9BC53D" d="M19.457,47.49c-0.465,1.844,1.175,4.436,3.245,4.377c0.879-0.025,1.814-0.687,2.455-1.229
		c0.943-0.799,1.227-1.781,1.233-2.994c0.01-2.125-1.183-3.831-3.517-3.444c-1.004,0.166-2.156,0.72-2.86,1.463
		c-0.826,0.872-0.68,2.114-0.746,3.232c-0.018,0.292,0.437,0.291,0.454,0c0.055-0.929-0.043-2.153,0.613-2.91
		c0.317-0.365,0.972-0.727,1.427-0.944c2.007-0.957,4.041-0.197,4.168,2.196c0.088,1.664-0.576,3.052-2.158,3.777
		c-2.102,0.962-4.432-1.194-3.876-3.403C19.967,47.327,19.529,47.206,19.457,47.49"/>
	<path fill="#44A84F" d="M27.167,42.091c-0.425,0.004-0.815,0.264-1.079,0.596c-0.265,0.333-0.424,0.735-0.579,1.131
		c-0.126,0.32-0.253,0.647-0.269,0.99c-0.025,0.543,0.231,1.057,0.512,1.522c0.319,0.53,0.725,1.07,1.32,1.239
		c0.464,0.132,0.96,0.012,1.412-0.155c1.116-0.414,2.119-1.126,2.88-2.041c0.452-0.545,0.829-1.192,0.866-1.899
		c0.066-1.265-1.054-2.39-2.303-2.6c-1.25-0.209-2.533,0.342-3.48,1.183c-0.185,0.164-0.363,0.345-0.468,0.569"/>
	<path fill="#44A84F" d="M27.107,41.872c-2.182,0.439-2.448,3.332-1.348,4.889c1.429,2.024,3.897,0.659,5.311-0.737
		c1.412-1.394,2.027-3.487,0.187-4.818c-1.73-1.251-4.355-0.378-5.474,1.306c-0.162,0.244,0.231,0.472,0.393,0.229
		c0.804-1.21,2.632-2.014,4.061-1.558c2.22,0.71,1.985,2.969,0.67,4.363c-0.856,0.907-2.73,2.336-4.055,1.684
		c-1.773-0.872-1.791-4.483,0.376-4.92C27.514,42.252,27.393,41.813,27.107,41.872"/>
	<path fill="#44A84F" d="M35.336,33.523c-0.998-0.357-1.23-0.732-1.794-0.639c-0.563,0.093-1.05,0.44-1.483,0.813
		c-0.491,0.422-0.954,0.907-1.197,1.507c-0.178,0.438-0.23,0.918-0.227,1.39c0.006,0.925,0.229,1.867,0.758,2.626
		c0.529,0.759,1.389,1.312,2.313,1.35c0.646,0.027,1.275-0.189,1.885-0.405c0.347-0.122,0.702-0.25,0.986-0.484
		c0.64-0.528,0.769-1.444,0.829-2.271c0.047-0.65,0.079-1.315-0.106-1.94C37.027,34.548,36.262,33.789,35.336,33.523"/>
	<path fill="#44A84F" d="M35.397,33.304c-0.858-0.347-1.426-0.856-2.35-0.514c-0.974,0.361-1.982,1.348-2.381,2.299
		c-0.802,1.914,0.086,4.683,2.06,5.491c1.691,0.692,4.284-0.221,4.752-2.066C38.015,36.394,37.607,34.123,35.397,33.304
		c-0.275-0.102-0.393,0.337-0.121,0.438c1.863,0.691,2.243,2.693,1.812,4.447c-0.497,2.021-3.348,2.742-4.907,1.506
		c-1.501-1.191-1.758-3.67-0.611-5.157c0.593-0.769,1.503-1.589,2.592-1.307c0.349,0.09,0.772,0.373,1.114,0.511
		C35.547,33.852,35.665,33.412,35.397,33.304"/>
	<path fill="#44A84F" d="M29.229,23.751c-0.164-0.445-0.776-0.491-1.24-0.392c-1.145,0.243-2.237,0.942-2.732,2.003
		S25,27.841,25.95,28.525c0.346,0.25,0.762,0.393,1.185,0.455c0.426,0.063,0.865,0.044,1.282-0.067c1.112-0.297,2-1.304,2.156-2.446
		c0.155-1.141-0.432-2.349-1.425-2.932"/>
	<path fill="#44A84F" d="M29.425,23.636c-1.417-2.309-7.024,2.547-3.614,5.068c1.395,1.03,3.469,0.531,4.431-0.83
		c1.084-1.536,0.528-3.528-0.979-4.536c-0.244-0.163-0.472,0.231-0.23,0.393c1.195,0.798,1.724,2.345,0.985,3.65
		c-0.707,1.248-2.386,1.805-3.682,1.115c-1.174-0.624-1.376-2.225-0.733-3.3c0.398-0.666,2.706-2.51,3.429-1.331
		C29.185,24.114,29.579,23.886,29.425,23.636"/>
	<path fill="#9BC53D" d="M21.844,14.981c0.02-1.295-0.033-2.592-0.158-3.881c-0.01-0.097-0.023-0.201-0.089-0.272
		c-0.063-0.07-0.162-0.093-0.255-0.107c-0.265-0.042-0.536-0.043-0.801-0.004c-0.045,0.007-0.092,0.015-0.128,0.043
		c-0.03,0.023-0.048,0.058-0.066,0.091c-0.278,0.544-0.292,1.193-0.161,1.79c0.131,0.597,0.09,1.006,0.371,1.548
		c0.159,0.306,0.17,0.568,0.285,0.628c0.097,0.052,0.397,0.347,0.507,0.335C21.531,15.131,21.667,15.03,21.844,14.981"/>
	<path fill="#44A84F" d="M31.908,23.503c-0.799,0.051-1.568,0.454-2.065,1.082c-0.496,0.627-0.711,1.469-0.578,2.258
		c0.104,0.609,0.4,1.167,0.73,1.689c0.457,0.725,0.997,1.415,1.704,1.9c1.617,1.11,4.025,0.86,5.381-0.558
		c1.356-1.417,1.498-3.834,0.317-5.401c-0.254-0.336-0.564-0.638-0.937-0.833c-0.397-0.207-0.847-0.286-1.291-0.339
		C34.058,23.167,33.016,23.351,31.908,23.503"/>
	<path fill="#44A84F" d="M31.847,23.284c-2.504,0.38-3.456,2.824-2.288,4.965c1.235,2.261,3.513,3.771,6.112,2.805
		c2.248-0.836,3.286-3.442,2.474-5.654C37.125,22.622,34.284,22.942,31.847,23.284c-0.289,0.04-0.166,0.479,0.121,0.438
		c1.869-0.262,4.343-0.711,5.481,1.242c1.053,1.807,0.454,4.348-1.373,5.396c-1.849,1.061-4.001,0.449-5.296-1.136
		c-0.567-0.694-1.135-1.522-1.256-2.426c-0.214-1.599,0.907-2.842,2.444-3.076C32.256,23.679,32.134,23.24,31.847,23.284"/>
	<path fill="#44612D" d="M24.237,17.525c1.226-0.332,1.951-1.879,1.422-3.034c-0.528-1.153-1.89-1.615-3.096-2.007
		c-1.206-0.392-2.554-0.992-2.896-2.214c-0.349-1.248,0.541-2.592,0.205-3.844c-0.147-0.552-0.516-1.172-0.182-1.637
		c0.29-0.404,0.92-0.35,1.363-0.121c0.442,0.229,0.829,0.588,1.317,0.689c0.558,0.115,1.141-0.145,1.557-0.534
		c0.417-0.39,0.701-0.896,0.989-1.389c0.218-0.374,0.484-0.776,0.905-0.88c0.42-0.103,0.938,0.349,0.72,0.723
		c0.698-0.178,1.357-0.514,1.911-0.975c0.346-0.287,0.689-0.64,1.137-0.684c0.448-0.044,0.93,0.486,0.65,0.838
		c1.428-0.769,2.855-1.537,4.282-2.306c0.155-0.083,0.322-0.169,0.496-0.147c0.181,0.024,0.327,0.16,0.437,0.306
		c0.703,0.932,0.384,2.267,0.715,3.386c0.05,0.17,0.123,0.345,0.267,0.449c0.17,0.122,0.398,0.116,0.607,0.105
		c0.655-0.034,1.31-0.069,1.965-0.103c0.495-0.026,1.056-0.027,1.399,0.331c0.461,0.48,0.236,1.256,0.097,1.907
		c-0.139,0.651,0.027,1.561,0.691,1.617c0.328,0.028,0.643-0.189,0.969-0.145c0.421,0.056,0.665,0.516,0.733,0.935
		c0.067,0.42,0.034,0.867,0.218,1.25c0.47,0.977,1.858,0.866,2.905,1.147c0.29,0.077,0.578,0.202,0.78,0.423
		c0.218,0.238,0.317,0.563,0.526,0.808c0.792,0.929,2.395,0.135,3.496,0.663c-0.46,0.456-1.215,0.333-1.851,0.206
		c-4.484-0.898-9.121-0.389-13.649,0.253c-1.613,0.228-3.252,0.482-4.72,1.188c-1.982,0.953-3.571,2.692-5.684,3.301
		c-0.226,0.065-0.498,0.105-0.669-0.055c-0.17-0.161-0.002-0.547,0.206-0.44"/>
	<path fill="#9BC53D" d="M24.25,17.975c-0.71,1.36,0.857,2.659,0.093,3.99c-0.315,0.548-0.8,0.993-1.066,1.567
		c-0.267,0.574-0.217,1.389,0.342,1.685c0.96-0.529,1.828-1.222,2.557-2.041c-0.253,0.813,0.255,1.707,0.967,2.172
		c0.712,0.466,1.584,0.603,2.425,0.728c0.194,0.029,0.406,0.054,0.572-0.049c0.17-0.106,0.24-0.315,0.297-0.508
		c0.208-0.703,0.417-1.406,0.626-2.109c0.503,0.587,1.064,1.149,1.764,1.479c0.699,0.33,1.564,0.392,2.227-0.004
		c0.664-0.397,1.019-1.32,0.645-1.997c0.848,0.582,1.696,1.164,2.544,1.746c0.183,0.125,0.385,0.256,0.605,0.235
		c0.408-0.037,0.586-0.549,0.548-0.957c-0.037-0.408-0.19-0.827-0.055-1.214c1.331,0.642,2.987,0.554,4.243-0.225
		c-0.725-0.847-1.449-1.694-2.174-2.541c1.142-0.448,2.425-0.118,3.649-0.183c1.365-0.073,2.696-0.668,3.66-1.636
		c-0.696-0.157-1.362-0.45-1.948-0.859c1.379-1.376,2.69-2.819,3.928-4.324c-0.989-0.501-2.112-0.734-3.219-0.669
		c-0.598,0.036-1.188,0.157-1.786,0.203c-0.644,0.05-1.291,0.014-1.937-0.005c-5.912-0.174-11.863,1.183-17.116,3.901
		c-0.67,0.347-2.395,0.41-2.403,1.165"/>
</g>
</svg>
