<?xml version="1.0" encoding="utf-8"?>
<!-- Generator: Adobe Illustrator 16.0.2, SVG Export Plug-In . SVG Version: 6.00 Build 0)  -->
<!DOCTYPE svg PUBLIC "-//W3C//DTD SVG 1.1//EN" "http://www.w3.org/Graphics/SVG/1.1/DTD/svg11.dtd">
<svg version="1.1" id="Layer_1" xmlns="http://www.w3.org/2000/svg" xmlns:xlink="http://www.w3.org/1999/xlink" x="0px" y="0px"
	 width="30.831px" height="29.55px" viewBox="0 0 30.831 29.55" enable-background="new 0 0 30.831 29.55" xml:space="preserve">
<g>
	<path fill="#F4D49D" d="M18.606,8.719c0.711-0.257,1.488,0.015,2.224,0.187c0.759,0.176,1.544,0.245,2.322,0.203
		c-0.637,0.162-1.313,0.349-1.748,0.841c-0.289,0.326-0.436,0.752-0.557,1.171c-0.53,1.837-0.677,3.784-0.429,5.68
		c0.147,1.124,0.502,2.334,1.446,2.96c-0.772,0.271-1.55,0.545-2.254,0.962c-0.517,0.307-1.029,0.7-1.629,0.714
		c-0.507,0.011-0.988-0.267-1.328-0.642c-0.341-0.376-0.561-0.844-0.755-1.313c-0.786-1.903-1.227-4.01-0.847-6.032
		c0.381-2.024,1.688-3.942,3.607-4.691"/>
	<path fill="#C9A877" d="M21.994,9.316c0.679,0.196,1.358,0.392,2.038,0.587c1.26,0.363,2.582,0.729,3.865,0.458
		c-1.079,0.483-2.227,1.025-2.826,2.044c-0.464,0.789-0.298,1.578-0.33,2.493c-0.024,0.684,0.323,1.478,0.455,2.147
		c0.277,1.415,0.582,2.679,1.45,3.83c-1.37-0.592-2.758-1.188-4.231-1.422c-0.313-0.049-0.638-0.086-0.912-0.243
		c-0.367-0.213-0.583-0.61-0.751-1c-0.771-1.79-0.901-3.823-0.52-5.735c0.252-1.267,0.831-2.61,2.01-3.14"/>
	<path fill="#F4D49D" d="M27.903,10.256c1.254,0.096,2.524,0.888,2.84,2.104c0.158,0.609,0.07,1.251-0.019,1.874
		c-0.18,1.258-0.364,2.531-0.85,3.704c-0.486,1.174-1.315,2.257-2.472,2.783c-0.264,0.119-0.583,0.207-0.836,0.064
		c-0.186-0.104-0.29-0.306-0.379-0.499c-0.667-1.457-1.008-3.037-1.344-4.603c-0.142-0.661-0.285-1.341-0.174-2.008
		c0.196-1.191,1.142-2.096,2.035-2.907c0.404-0.366,0.619-0.519,1.152-0.634"/>
	<path fill="#C9A877" d="M23.662,19.88l-2.093,4.585c-0.556,1.218-1.136,2.469-2.113,3.384c-1.135,1.063-2.707,1.562-4.258,1.673
		c-1.551,0.112-3.104-0.128-4.64-0.37c-1.67-0.263-3.416-0.56-4.757-1.589c-0.787-0.603-1.381-1.421-1.929-2.247
		c-1.802-2.716-3.265-5.725-3.727-8.95c-0.463-3.227,0.164-6.696,2.177-9.26c1.525-1.94,3.706-3.232,5.836-4.479
		c1.269-0.743,2.546-1.491,3.927-1.997c2.091-0.765,4.501-0.93,6.496,0.058c1.609,0.797,2.789,2.249,3.785,3.742
		c1.095,1.644,2.056,3.471,2.132,5.444c-0.814-0.133-1.588-0.502-2.204-1.05c-0.49-0.436-0.879-0.979-1.393-1.384
		c-1.34-1.059-3.478-0.913-4.661,0.319c-1.042,1.084-1.27,2.697-1.358,4.197c-0.107,1.798-0.088,3.603,0.055,5.398
		c0.065,0.814,0.16,1.643,0.494,2.389c0.333,0.744,0.945,1.406,1.736,1.61c1.105,0.285,2.212-0.354,3.195-0.934
		c0.983-0.578,2.17-1.133,3.22-0.688"/>
	<path fill="#F4D49D" d="M22.395,9.378c0.403,0,0.404-0.627,0-0.627C21.992,8.751,21.991,9.378,22.395,9.378"/>
	<path fill="#5F3B2E" d="M22.396,9.076c-0.551,0.457-1.346,0.453-2.054,0.352c-0.709-0.103-1.441-0.276-2.129-0.08
		c-0.879,0.251-1.481,1.043-1.981,1.809c-0.333,0.511-0.654,1.038-0.845,1.617c-0.237,0.717-0.268,1.486-0.23,2.24
		c0.101,2.039,0.692,4.053,1.709,5.822c0.087,0.152,0.18,0.313,0.184,0.487c0.005,0.175-0.117,0.368-0.293,0.372
		c-0.096,0.002-0.184-0.05-0.263-0.104c-0.706-0.491-1.136-1.3-1.365-2.127c-0.228-0.829-0.28-1.694-0.383-2.548
		c-0.216-1.771-0.661-3.53-0.58-5.313s0.815-3.672,2.374-4.541c0.535-0.299,1.135-0.46,1.734-0.585
		c0.618-0.13,1.289-0.218,1.861,0.05c0.351,0.165,0.629,0.449,0.899,0.727c0.29,0.3,0.58,0.599,0.87,0.896
		c0.241,0.249,0.502,0.57,0.403,0.902"/>
</g>
</svg>
