<?xml version="1.0" encoding="utf-8"?>
<!-- Generator: Adobe Illustrator 16.0.2, SVG Export Plug-In . SVG Version: 6.00 Build 0)  -->
<!DOCTYPE svg PUBLIC "-//W3C//DTD SVG 1.1//EN" "http://www.w3.org/Graphics/SVG/1.1/DTD/svg11.dtd">
<svg version="1.1" id="Layer_1" xmlns="http://www.w3.org/2000/svg" xmlns:xlink="http://www.w3.org/1999/xlink" x="0px" y="0px"
	 width="93.256px" height="66.797px" viewBox="0 0 93.256 66.797" enable-background="new 0 0 93.256 66.797" xml:space="preserve">
<g>
	<path fill="#44612D" d="M43.168,30.298c-0.746,0.36-1.633,0.203-2.445,0.371c-0.811,0.168-1.639,1.008-1.243,1.736
		c0.61,1.123,2.665-0.092,3.536,0.843c0.716,0.769-0.096,2.25,0.656,2.983c0.437,0.426,1.183,0.344,1.664,0.719
		c0.364,0.285,0.498,0.765,0.744,1.156c0.465,0.74,1.399,1.154,2.259,1.002c0.861-0.152,1.596-0.862,1.778-1.717
		c-0.125,0.667,0.363,1.413,1.038,1.484c0.675,0.071,1.329-0.659,1.113-1.302c1.596,0.806,3.612,1.589,5.053,0.53
		c0.273-0.201,0.513-0.478,0.576-0.811c0.146-0.761-0.627-1.358-1.321-1.704c-1.449-0.722-3-1.236-4.592-1.526
		c-1.261-0.229-2.617-0.346-3.634-1.126c-1.264-0.971-1.642-2.675-2.364-4.096c-1.457-2.862-4.672-4.734-7.882-4.588
		c-0.234,0.011-0.482,0.037-0.667,0.182c-0.336,0.261-0.303,0.809-0.052,1.151c0.252,0.344,0.653,0.538,1.029,0.737
		c1.625,0.855,3.067,2.016,4.498,3.168c0.269,0.217,0.356,0.831,0.028,0.721"/>
	<path fill="#44612D" d="M49.738,33.788c1.136-0.216,2.028-1.154,2.498-2.212c0.47-1.057,0.587-2.23,0.699-3.382
		c0.111-1.14,0.222-2.281,0.333-3.421c0.032-0.332,0.089-0.707,0.364-0.896c0.445-0.306,1.062,0.163,1.194,0.688
		c0.132,0.523-0.01,1.078,0.059,1.613c0.02,0.156,0.063,0.318,0.171,0.433c0.3,0.315,0.828,0.075,1.256,0.152
		c0.591,0.104,0.875,0.794,0.922,1.392c0.047,0.599-0.028,1.24,0.271,1.761c0.426,0.744,1.493,0.914,2.278,0.569
		c0.786-0.344,1.336-1.065,1.78-1.8c0.121-0.2,0.3-0.433,0.528-0.385c0.143,0.028,0.237,0.159,0.342,0.261
		c0.487,0.472,1.297,0.331,1.906,0.034c0.61-0.296,1.195-0.727,1.872-0.749c0.753-0.025,1.489,0.545,1.627,1.285
		c0.137,0.739-0.365,1.55-1.095,1.731c-0.23,0.058-0.493,0.068-0.654,0.241c-0.346,0.372,0.141,0.967,0.05,1.467
		c-0.082,0.458-0.604,0.673-1.053,0.798c-4.999,1.387-10.366,1.423-15.384,0.106"/>
	<path fill="#046937" d="M53.305,38.307c-0.126,1.071,0.692,2.04,1.614,2.6c0.922,0.56,1.988,0.861,2.881,1.467
		c2.609,1.768,3.087,5.584,5.562,7.537c0.195,0.155,0.476,0.297,0.677,0.148c0.126-0.092,0.161-0.262,0.186-0.416
		c0.097-0.584,0.194-1.168,0.29-1.752c0.857,1.144,1.98,2.411,3.401,2.267c0.286-0.029,0.578-0.117,0.855-0.04
		c0.239,0.065,0.434,0.247,0.674,0.305c0.465,0.113,0.912-0.269,1.14-0.688c0.538-0.989,0.352-2.213,0-3.281
		c-0.556-1.691-1.81-3.451-3.589-3.474c1.031-0.444,2.311-0.241,3.152,0.502c0.451,0.398,0.773,0.926,1.227,1.319
		c1.211,1.052,3.014,0.927,4.607,0.742l-0.08-1.145c0.572-0.453,1.4-0.082,2.042,0.265c0.643,0.348,1.545,0.62,2.015,0.062
		c0.135-0.16,0.207-0.368,0.358-0.512c0.323-0.311,0.84-0.212,1.287-0.172c0.446,0.04,1.027-0.118,1.064-0.565
		c0.052-0.619-1.01-0.895-0.95-1.514c0.024-0.248,0.238-0.462,0.211-0.709c-0.028-0.25-0.282-0.401-0.507-0.513
		c-1.069-0.533-2.139-1.067-3.208-1.601c0.751,0.071,1.221-0.952,0.899-1.635c-0.322-0.682-1.095-1.022-1.83-1.195
		c-0.926-0.218-1.893-0.26-2.835-0.125c-0.688,0.099-1.382,0.291-2.069,0.179c-0.686-0.113-1.371-0.665-1.332-1.359
		c0.032-0.565,0.523-1.003,1.039-1.236c0.515-0.233,1.087-0.333,1.588-0.597c0.501-0.265,0.943-0.774,0.873-1.336
		c-0.07-0.563-0.892-0.933-1.239-0.486c-0.388-0.474-0.707-1.004-0.944-1.568c-0.938-0.001-1.223,1.552-2.156,1.646
		c-0.5,0.051-0.922-0.354-1.403-0.497c-1.081-0.322-2.062,0.7-2.689,1.638c-0.274,0.407-0.555,0.838-0.98,1.085
		c-0.35,0.201-0.762,0.26-1.162,0.314c-2.754,0.373-5.507,0.746-8.26,1.118c0.923,0.296,2.016,0.796,2.082,1.763
		c0.062,0.908-0.896,1.583-1.799,1.695c-0.903,0.112-1.815-0.135-2.723-0.086"/>
	<path fill="#44612D" d="M61.531,25.061c0.084-2.333-1.12-4.495-2.288-6.517c0.619,0.151,1.108-0.658,0.946-1.275
		c-0.162-0.618-0.691-1.053-1.14-1.507c-0.868-0.877-1.521-1.966-1.886-3.145c0.612,0.169,1.223,0.338,1.835,0.507
		c0.412,0.113,1.053,0.055,1.017-0.37c-0.011-0.134-0.099-0.246-0.184-0.351c-1.477-1.793-3.161-3.618-5.411-4.198
		c0.673-0.586,1.753-0.326,2.458,0.22c0.706,0.547,1.207,1.322,1.913,1.868c0.716,0.554,1.605,0.844,2.342,1.371
		c1.207,0.863,1.907,2.29,3.083,3.195c0.58,0.448,1.263,0.759,1.798,1.261c0.534,0.501,0.902,1.296,0.61,1.968
		c-0.249,0.574-0.878,0.864-1.348,1.278c-0.936,0.822-1.232,2.13-1.65,3.304c-0.418,1.175-1.178,2.424-2.41,2.616"/>
	<path fill="#046937" d="M43.666,22.621c0.427,0.509,1.208,0.518,1.852,0.355c0.643-0.161,1.278-0.451,1.939-0.39
		c0.526,0.048,1.005,0.313,1.515,0.448c1.211,0.322,2.48-0.107,3.658-0.532c0.267-0.097,0.549-0.203,0.722-0.429
		c0.267-0.348,0.19-0.868,0.438-1.229c0.363-0.532,1.17-0.442,1.746-0.73c0.377-0.188,0.644-0.539,0.897-0.877
		c0.476-0.637,0.952-1.272,1.429-1.91c0.247-0.331,0.503-0.682,0.556-1.092c0.083-0.635-0.367-1.249-0.938-1.539
		c-0.572-0.289-1.238-0.316-1.879-0.291c-0.859,0.036-1.715,0.158-2.551,0.366c1.334-2.585,4.312-4.252,4.938-7.093
		c-0.446-0.291-1.045,0.738-1.419,0.357c-0.16-0.162-0.068-0.434,0.036-0.637c0.312-0.612,0.66-1.226,0.75-1.907
		c0.091-0.68-0.149-1.459-0.757-1.778c-0.329-0.175-0.777-0.239-0.913-0.586c-0.079-0.202-0.015-0.43,0.05-0.637
		c0.169-0.536,0.337-1.072,0.506-1.608c0.057-0.185,0.115-0.382,0.056-0.566c-0.184-0.567-1.074-0.287-1.439,0.187
		c-0.364,0.473-0.779,1.122-1.362,0.991c-0.148-0.032-0.291-0.119-0.442-0.099c-0.557,0.075-0.114,1.071-0.5,1.479
		c-0.397,0.419-1.087-0.215-1.649-0.087c-0.349,0.08-0.555,0.435-0.699,0.763c-0.587,1.338-0.833,2.824-0.706,4.279
		c-0.6-0.017-0.508-0.943-0.776-1.48c-0.282-0.563-1.205-0.628-1.563-0.112c-0.305,0.438-0.174,1.027-0.109,1.558
		c0.066,0.528-0.025,1.191-0.52,1.388c-0.202-0.475-0.955-0.451-1.295-0.063c-0.341,0.388-0.37,0.953-0.342,1.469
		c0.088,1.613,0.562,3.18,0.79,4.779c0.228,1.601,0.182,3.33-0.678,4.699c-0.598,0.952-1.588,1.751-1.677,2.872"/>
	<path fill="#44612D" d="M45.921,29.794c0.202-0.652,0.987-0.94,1.669-0.911c0.682,0.03,1.341,0.279,2.024,0.297
		c1.237,0.033,2.452-0.779,2.894-1.935c0.139-0.363,0.203-0.779,0.049-1.138c-0.154-0.356-0.583-0.61-0.945-0.467
		c-0.116,0.046-0.238,0.129-0.353,0.081c-0.067-0.027-0.11-0.093-0.139-0.159c-0.243-0.557,0.215-1.152,0.637-1.59
		c0.423-0.436,0.877-1.037,0.627-1.591c-0.128-0.285-0.424-0.467-0.728-0.539c-0.89-0.212-1.783,0.392-2.338,1.119
		c-0.554,0.727-0.906,1.599-1.505,2.29c-0.08,0.093-0.173,0.187-0.294,0.209c-0.432,0.077-0.515-0.728-0.945-0.816
		c-0.252-0.052-0.47,0.174-0.613,0.388c-0.934,1.399-1.038,3.312-0.263,4.805"/>
	<path fill="#9BC53D" d="M38.781,24.196c-0.538-1.35-1.625-2.471-2.958-3.05c-0.796-0.346-1.666-0.503-2.457-0.862
		c-0.79-0.361-1.535-1.002-1.67-1.861c1.498-0.531,3.285-0.127,4.41,0.996c0.471,0.471,0.923,1.099,1.588,1.117
		c0.097,0.003,0.197-0.011,0.279-0.063c0.313-0.198,0.082-0.693-0.211-0.92c-0.293-0.226-0.676-0.501-0.592-0.862
		c0.067-0.283,0.387-0.408,0.626-0.575c0.656-0.459,0.741-1.541,0.164-2.098c0.748-0.69,2.191-0.236,2.407,0.759
		c0.104,0.476-0.035,0.969-0.011,1.453c0.024,0.485,0.323,1.039,0.809,1.044c0.24-0.612,0.182-1.335-0.155-1.899
		c0.638-0.447,1.524-0.398,2.228-0.064c0.704,0.333,1.261,0.907,1.78,1.488c0.294,0.329,0.599,0.719,0.554,1.158
		c-0.039,0.386-0.342,0.793-0.135,1.12c0.084,0.133,0.232,0.207,0.369,0.282c1.061,0.597,1.807,1.722,1.943,2.931
		c-0.678,0.072-1.316,0.455-1.701,1.018c-0.143,0.209-0.255,0.444-0.437,0.62c-0.369,0.358-0.956,0.396-1.448,0.25
		c-0.492-0.146-0.921-0.446-1.365-0.705c-1.27-0.74-2.723-1.165-4.193-1.225"/>
	<path fill="#9BC53D" d="M44.331,36.629c-0.783,0.231-1.566,0.463-2.349,0.694c0.685-1.16,0.906-2.585,0.603-3.896
		c-0.964,0.365-0.909,1.704-1.039,2.726c-0.188,1.486-1.128,2.788-2.272,3.754c-1.143,0.966-2.493,1.65-3.799,2.381
		c-4.846,2.712-9.262,6.189-13.033,10.265c0.751,0.556,1.852,0.296,2.602-0.263c0.749-0.559,1.278-1.358,1.953-2.006
		c0.885-0.848,1.997-1.409,3.055-2.029c5.068-2.968,9.154-7.436,14.323-10.224c0.34-0.183,0.719-0.401,0.808-0.777
		c0.088-0.376-0.413-0.805-0.675-0.521"/>
	<path fill="#9BC53D" d="M21.698,51.831c1.546-0.708,2.247-2.46,3.165-3.892c1.219-1.9,2.985-3.381,4.794-4.731
		c1.348-1.007,2.744-1.965,4.272-2.67c2.443-1.127,5.143-1.571,7.818-1.859c2.571-0.277,5.162-0.42,7.743-0.262
		c2.487,0.151,4.948,0.582,7.402,1.012c1.55,0.271,3.182,0.579,4.378,1.603c-6.918-0.993-13.929-1.334-20.911-1.017
		c-2.989,0.136-6.097,0.431-8.656,1.981c-1.199,0.725-2.225,1.697-3.237,2.668c-1.732,1.661-3.472,3.366-4.668,5.445
		c-0.624,1.084-1.263,2.397-2.492,2.635c-0.018-0.388,0.26-0.769,0.634-0.869"/>
	<path fill="#44612D" d="M33.802,22.021c2.09-0.999,4.51-0.915,6.827-0.888c2.316,0.027,4.775-0.064,6.713-1.334
		c0.301-0.198,0.616-0.576,0.412-0.872c-0.124-0.181-0.377-0.21-0.597-0.208c-0.735,0.005-1.521,0.143-2.169-0.206
		c-0.846-0.454-1.372-1.677-2.323-1.54c-0.228,0.033-0.447,0.15-0.676,0.125c-0.24-0.025-0.433-0.198-0.637-0.328
		c-0.946-0.598-2.222-0.25-3.145,0.384c-0.924,0.632-1.657,1.517-2.603,2.115c-0.75,0.476-1.692,0.841-1.996,1.675
		c-0.183,0.5,0.161,1.249,0.673,1.102"/>
	<path fill="#046937" d="M42.318,33.742c0.339-0.558,0.774-1.059,1.279-1.474c0.126-0.104,0.264-0.205,0.426-0.23
		c0.216-0.032,0.428,0.08,0.598,0.219c0.714,0.577,0.931,1.574,1.529,2.271c1.17,1.361,3.308,1.163,4.956,1.875
		c0.556,0.24,1.064,0.591,1.641,0.774c0.577,0.184,1.277,0.164,1.706-0.264c0.039-0.038,0.076-0.082,0.093-0.134
		c0.073-0.23-0.249-0.367-0.488-0.403c-1.411-0.219-2.729-0.984-3.618-2.103c1.044,0.007,2.086,0.197,3.065,0.558
		c0.421,0.155,0.865,0.346,1.302,0.243c0.436-0.103,0.776-0.671,0.483-1.011c0.486,0.191,1.039,0.29,1.527,0.104
		c0.488-0.188,0.861-0.734,0.71-1.234c-0.124-0.41-0.529-0.657-0.902-0.866c-0.651-0.363-1.348-0.738-2.092-0.692
		c-0.234,0.014-0.548,0.019-0.609-0.207c-0.024-0.09,0.008-0.185,0.055-0.264c0.301-0.514,1.04-0.495,1.626-0.39
		c1.029,0.186,2.074,0.438,3.109,0.289c1.035-0.15,2.081-0.825,2.291-1.85c0.024-0.115,0.033-0.248-0.039-0.342
		c-0.06-0.078-0.161-0.109-0.257-0.128c-0.994-0.187-2.174,0.591-2.946-0.061c2.089-0.934,4.177-1.866,6.266-2.799
		c0.691-0.31,1.459-0.704,1.656-1.435c0.218-0.808-0.569-1.71-1.4-1.602c-0.467,0.061-0.88,0.377-1.352,0.397
		c-0.271,0.014-0.537-0.073-0.808-0.083c-1.15-0.042-1.933,1.227-3.051,1.496c-0.1,0.024-0.207,0.039-0.303,0.004
		c-0.398-0.146-0.143-0.85-0.469-1.121c-0.22-0.182-0.55-0.052-0.793,0.098c-0.914,0.558-1.713,1.301-2.336,2.171
		c-0.263,0.368-0.511,0.772-0.905,0.993c-0.395,0.22-0.993,0.154-1.176-0.259c0.602-0.444,1.203-0.889,1.805-1.333
		c1.05-0.775,2.188-1.694,2.349-2.989c0.045-0.356-0.062-0.81-0.412-0.89c-0.66-0.15-0.862,1.144-1.539,1.142
		c-0.411-0.408-0.459-1.095-0.901-1.468c-0.637-0.537-1.669-0.053-2.087,0.668c-0.417,0.723-0.462,1.596-0.738,2.383
		c-0.523,1.493-1.84,2.587-2.47,4.039c-0.249,0.575-0.386,1.195-0.648,1.766c-0.263,0.57-0.69,1.11-1.29,1.292
		c-0.365,0.11-0.755,0.078-1.135,0.095c-1.77,0.077-3.426,1.345-3.964,3.032"/>
	<path fill="#44612D" d="M41.788,33.663c1.791-1.721,2.62-4.385,2.121-6.817c-0.135-0.658-0.36-1.303-0.379-1.974
		c-0.023-0.782,0.239-1.548,0.593-2.246c0.67-1.322,1.732-2.496,3.112-3.035c0.806,1.691-0.704,3.66-0.398,5.508
		c0.145,0.241,0.512,0.01,0.657-0.23c1.022-1.697,1-4.037,2.519-5.309c-0.028,0.522,0.05,1.049,0.229,1.54
		c0.049,0.137,0.136,0.292,0.281,0.298c0.118,0.005,0.212-0.093,0.288-0.183c0.272-0.322,0.544-0.645,0.816-0.966
		c0.24-0.284,0.693-0.576,0.928-0.287c0.073,0.09,0.092,0.212,0.101,0.328c0.11,1.353-0.627,2.613-1.337,3.771
		c-0.942,1.535-1.895,3.084-3.152,4.374c-0.727,0.747-1.545,1.397-2.362,2.044c-1.314,1.043-2.629,2.086-3.943,3.128"/>
	<path fill="#44612D" d="M55.006,35.305c2.216,1.647,5.183,2.238,7.862,1.568c0.677-0.17,1.333-0.415,1.987-0.659
		c2.175-0.812,4.351-1.623,6.526-2.436c0.323-0.119,0.849-0.108,0.836,0.236c-0.011,0.262-0.362,0.356-0.502,0.579
		c-0.187,0.299,0.12,0.714,0.472,0.752c0.351,0.037,0.679-0.175,0.945-0.408c0.255-0.223,0.518-0.487,0.857-0.51
		c0.338-0.022,0.679,0.405,0.447,0.652c0.575,0.348,1.442-0.418,1.938,0.036c0.091,0.083,0.15,0.196,0.239,0.28
		c0.543,0.516,1.728-0.309,2.086,0.349c0.176,0.323-0.091,0.734-0.427,0.884c-0.337,0.147-0.721,0.129-1.084,0.187
		c-0.364,0.06-0.757,0.245-0.855,0.601c0.122,0.169,0.243,0.338,0.364,0.508c-1.463-0.067-2.938,0.147-4.321,0.628
		c0.607,0.425,1.346,0.656,2.087,0.653c-2.916,1.126-6.207-0.817-9.276-0.225c2.39,0.117,4.723,1.159,6.405,2.861
		c0.21,0.212,0.414,0.56,0.21,0.778c-0.078,0.083-0.196,0.114-0.308,0.138C70.316,43,69.034,42.67,68.12,41.89
		c-0.531-0.452-0.94-1.042-1.506-1.448c-0.531-0.382-1.169-0.58-1.793-0.775c-3.126-0.985-6.215-2.09-9.255-3.313
		c-0.242-0.097-0.498-0.206-0.644-0.422c-0.146-0.217-0.113-0.572,0.128-0.672"/>
	<path fill="#9BC53D" d="M60.748,40.378c1.949,2.161,4.321,3.939,6.942,5.204c0.497,0.239,1.013,0.465,1.561,0.527
		c1.13,0.132,2.208-0.427,3.248-0.887c1.658-0.734,3.411-1.254,5.201-1.543c-1.184,1.34-2.826,2.266-4.584,2.587
		c0.934,0.258,1.923,0.076,2.89,0.006c0.966-0.069,2.031,0.013,2.742,0.67c-0.358,0.115-0.669,0.367-0.856,0.693
		c0.891-0.229,1.906,0.138,2.445,0.884c0.412,0.569,0.663,1.401,1.355,1.528c-0.713,0.372-1.557,0.361-2.36,0.341
		c-0.583-0.014-1.178-0.031-1.725-0.231c-0.829-0.305-1.687-1.022-2.475-0.623c0.166,0.043,0.332,0.087,0.497,0.13
		c-1.716,0.4-3.582,0.121-5.105-0.767c1.198,1.011,2.69,1.667,4.244,1.867c2.678,0.345,5.372-0.639,8.066-0.463
		c0.086,0.006,0.181,0.017,0.238,0.081s0.056,0.162,0.041,0.247c-0.087,0.49-0.525,0.851-0.992,1.023
		c-0.466,0.174-0.972,0.202-1.46,0.296c-0.854,0.162-1.667,0.53-2.353,1.064c0.264,0.45,0.925,0.327,1.447,0.313
		c0.657-0.02,1.289,0.229,1.899,0.476c1.591,0.641,3.334,1.426,4,3.005c-0.706,0.145-1.501,0.273-2.099-0.13
		c-0.224-0.151-0.398-0.365-0.597-0.549c-0.853-0.785-2.085-0.957-3.236-1.094c-0.041,0.546,0.228,1.104,0.681,1.413
		c-0.897,0.317-1.872-0.252-2.52-0.946c-0.647-0.696-1.147-1.552-1.939-2.077c-1.018-0.674-2.36-0.694-3.387-1.355
		c-0.772-0.497-1.282-1.3-1.89-1.987c-0.608-0.688-1.438-1.311-2.352-1.226c-0.24,1.181,0.518,2.352,1.451,3.113
		c0.933,0.761,2.058,1.261,2.984,2.031c1.191,0.988,1.984,2.362,2.753,3.706c-1.069-0.006-1.403-1.725-2.46-1.887
		c-0.495,1.112,1.21,2.197,0.958,3.389c-0.104,0.487-0.527,0.87-0.592,1.364c-0.035,0.268,0.039,0.536,0.032,0.806
		c-0.007,0.27-0.137,0.574-0.4,0.634c-0.204,0.047-0.407-0.07-0.585-0.183c-1.418-0.9-2.974-2.007-3.207-3.669
		c-0.124-0.881,0.156-1.807-0.115-2.652c-0.456,1.419-0.339,3.013,0.319,4.35c0.202,0.411,0.458,0.887,0.258,1.298
		c-0.087,0.179-0.247,0.309-0.402,0.432c-0.402,0.32-0.803,0.641-1.205,0.961c-0.086,0.069-0.181,0.141-0.291,0.143
		c-0.189,0.005-0.316-0.186-0.404-0.353c-0.202-0.381-0.403-0.763-0.605-1.146c-0.087,0.904-0.744,1.76-1.628,1.966
		c-0.885,0.205-1.912-0.349-2.125-1.231c-0.065-0.27-0.051-0.575,0.114-0.798c0.168-0.227,0.454-0.324,0.691-0.478
		c0.469-0.302,0.76-0.86,0.739-1.418c-0.625,0.178-1.251,0.354-1.877,0.532c-0.362,0.104-0.942,0.025-0.869-0.345
		c0.781-0.197,1.439-0.821,1.678-1.59c0.051-0.164,0.092-0.348,0.228-0.452c0.122-0.095,0.289-0.102,0.443-0.11
		c1.857-0.106,3.617-1.274,4.437-2.944c-1.05,0.597-2.1,1.193-3.15,1.79c-0.246,0.141-0.503,0.283-0.785,0.301
		c-0.473,0.027-0.905-0.305-1.378-0.307c-0.415-0.002-0.782,0.246-1.154,0.429c-1.154,0.563-2.59,0.509-3.698-0.144
		c0.417-0.299,0.984-0.228,1.484-0.34c0.501-0.112,1.01-0.658,0.725-1.084c0.966-0.327,2.006-0.331,3.017-0.468
		c1.01-0.139,2.065-0.45,2.727-1.227c-1.466,0.113-2.955-0.063-4.354-0.517c0.807-0.555,1.816-0.807,2.789-0.697
		c0.312,0.036,0.658,0.1,0.917-0.079c0.388-0.268,0.302-0.846,0.27-1.315c-0.052-0.752,0.157-1.52,0.583-2.142
		c0.118-0.17,0.256-0.343,0.272-0.55c0.017-0.228-0.119-0.438-0.255-0.622c-1.086-1.475-2.519-2.656-3.994-3.741
		c-1.106-0.813-2.367-1.809-2.342-3.181c0.343,0.026,0.666,0.236,0.829,0.539"/>
	<path fill="#046937" d="M27.36,41.347c1.586-1.889,3.191-3.806,4.222-6.045c0.292-0.635,0.618-1.368,1.289-1.565
		c0.491-0.145,1.025,0.063,1.429,0.378c0.404,0.315,0.715,0.73,1.079,1.091c1.504,1.494,3.733,1.926,5.823,2.289
		c0.495,0.086,1.023,0.168,1.485-0.03c0.462-0.196,0.789-0.794,0.52-1.219c0.284-0.292,0.752-0.245,1.159-0.235
		c0.407,0.01,0.913-0.126,0.987-0.525c0.067-0.363-0.273-0.659-0.575-0.87c-0.691-0.484-1.432-0.985-2.275-1.027
		c-0.327-0.016-0.661,0.038-0.977-0.043c-0.317-0.082-0.62-0.365-0.569-0.688c0.295,0.075,0.633-0.108,0.731-0.397
		c0.097-0.288-0.06-0.639-0.341-0.758c-0.213-0.09-0.462-0.054-0.678-0.138c-0.262-0.102-0.428-0.355-0.652-0.524
		c-0.548-0.415-1.339-0.252-1.954,0.056c-0.615,0.307-1.187,0.743-1.865,0.853c-0.582,0.093-1.185-0.068-1.763,0.045
		c-1.212,0.236-1.863,1.518-2.431,2.615c-0.803,1.551-1.786,3.017-2.992,4.282c-0.715,0.75-1.514,1.436-2.069,2.311
		c-0.307,0.485-0.533,1.016-0.822,1.511c-0.667,1.141-1.651,2.057-2.443,3.112c-0.793,1.056-1.412,2.369-1.162,3.665
		c0.641-1.3,1.288-2.608,2.157-3.767c1.056-1.408,2.478-2.683,2.783-4.415"/>
	<path fill="#9BC53D" d="M53.026,20.109c-0.113-1.023,0.297-2.092,1.066-2.776c0.412-0.368,0.912-0.626,1.329-0.988
		c0.721-0.627,1.158-1.568,1.174-2.523c0.005-0.317-0.031-0.655,0.117-0.938c0.192-0.365,0.627-0.521,0.91-0.821
		c0.589-0.624,0.361-1.617,0.356-2.475c-0.006-1.117,0.459-2.229,1.258-3.009c0.067-0.065,0.144-0.133,0.237-0.14
		c0.122-0.009,0.225,0.086,0.303,0.182c0.465,0.563,0.609,1.333,1.033,1.929c0.155,0.217,0.453,0.422,0.667,0.263
		c0.228-0.17,0.289-0.682,0.542-0.551c0.225,0.427,0.32,0.923,0.269,1.403c-0.027,0.247-0.091,0.492-0.068,0.739
		c0.021,0.221,0.111,0.428,0.199,0.63c0.275,0.635,0.551,1.268,0.826,1.9c0.317-0.007,0.387-0.438,0.558-0.706
		c0.38-0.597,1.295-0.342,1.925-0.019c-0.939,1.061-2.131,1.898-3.448,2.423c-0.628,0.25-1.342,0.477-1.674,1.064
		c0.233,0.417,0.853,0.43,1.277,0.21c0.424-0.22,0.746-0.598,1.159-0.839s1.014-0.297,1.309,0.079
		c0.084,0.107,0.135,0.241,0.239,0.329c0.454,0.385,1.094-0.484,1.665-0.313c-0.17,0.419-0.677,0.557-1.082,0.757
		c-0.405,0.201-0.782,0.717-0.496,1.066c0.191,0.234,0.592,0.247,0.725,0.519c0.141,0.286-0.142,0.61-0.44,0.722
		c-0.399,0.15-0.84,0.107-1.263,0.152c-0.423,0.045-0.887,0.227-1.036,0.626c-0.154,0.41,0.082,0.901-0.112,1.294
		c-0.15,0.303-0.502,0.438-0.822,0.545c-0.932,0.314-1.865,0.629-2.797,0.943c-0.44,0.147-0.952,0.288-1.343,0.037
		c-0.396-0.254-0.519-0.833-0.95-1.021c-0.493-0.216-1.036,0.208-1.573,0.189c-0.413-0.013-0.765-0.282-1.139-0.459
		c-0.373-0.175-0.886-0.229-1.14,0.097"/>
	<path fill="#9BC53D" d="M62.653,22.6c0.336-0.864,0.973-1.608,1.776-2.071c0.437-0.252,0.928-0.43,1.285-0.786
		c0.881-0.879,0.57-2.373,1.04-3.525c0.338-0.826,1.082-1.442,1.912-1.773c0.829-0.331,1.74-0.403,2.633-0.38
		c1.453,0.038,2.889,0.319,4.341,0.396c1.451,0.077,2.97-0.069,4.217-0.816c0.956-0.573,1.725-1.479,2.786-1.821
		c0.197-0.063,0.405-0.105,0.611-0.084c0.882,0.097,1.197,1.198,1.303,2.078c-0.833,0.176-1.666,0.353-2.5,0.529
		c-0.414,0.088-0.951,0.412-0.75,0.784c0.162,0.302,0.731,0.323,0.72,0.667c-0.004,0.121-0.094,0.223-0.188,0.301
		c-0.598,0.495-1.458,0.446-2.234,0.423c-0.776-0.024-1.67,0.06-2.124,0.689c0.246,0.553,1.227,0.323,1.534,0.844
		c0.172,0.29,0.02,0.686-0.249,0.886c-0.27,0.201-0.622,0.25-0.958,0.268c-1.396,0.075-2.928-0.241-4.097,0.525
		c-0.226,0.149-0.433,0.337-0.689,0.426c-0.744,0.259-1.471-0.392-2.235-0.586c-0.927-0.233-1.987,0.321-2.321,1.217
		c0.707,0.534,1.772,0.384,2.458,0.943c0.654,0.534,0.845,1.62,1.658,1.847c0.229,0.065,0.504,0.059,0.658,0.24
		c0.221,0.261-0.035,0.693-0.367,0.775c-0.333,0.082-0.674-0.06-0.995-0.179c-0.321-0.117-0.692-0.213-0.993-0.052
		c-0.302,0.162-0.376,0.692-0.057,0.815c-0.327,0.336-0.865-0.068-1.147-0.443c-0.611-0.812-1.469-1.71-2.461-1.488
		c-0.217,0.049-0.426,0.151-0.648,0.145c-0.413-0.014-0.71-0.387-1.073-0.584c-0.936-0.505-2.044,0.226-3.104,0.299"/>
	<path fill="#9BC53D" d="M59.959,30.671c0.683,0.637,1.88,0.601,2.523-0.076c0.262-0.276,0.45-0.645,0.796-0.803
		c0.345-0.159,0.885,0.141,0.733,0.489c-0.024,0.053-0.061,0.1-0.082,0.153c-0.116,0.291,0.301,0.547,0.599,0.452
		c0.299-0.095,0.498-0.368,0.744-0.562c0.246-0.194,0.645-0.293,0.847-0.054c0.257,0.306-0.077,0.745-0.39,0.993
		c-0.312,0.248-0.66,0.669-0.422,0.99c0.091,0.122,0.244,0.18,0.391,0.222c1.136,0.325,2.419,0.092,3.368-0.612
		c-0.269,0.838-1.082,1.379-1.895,1.717c-0.376,0.154-0.778,0.292-1.057,0.588c-0.28,0.295-0.377,0.813-0.084,1.095
		c-0.7,0.521-1.673,0.088-2.542,0.017c-0.873-0.073-1.772,0.272-2.372,0.911c-0.255,0.272-0.479,0.607-0.832,0.725
		c-0.372,0.124-0.772-0.031-1.132-0.185c-1.037-0.438-2.074-0.878-3.11-1.316c-0.109-0.045-0.224-0.099-0.282-0.2
		c-0.14-0.247,0.148-0.51,0.395-0.65c0.405-0.229,0.82-0.477,1.091-0.855c0.271-0.38,0.36-0.929,0.088-1.308
		c-0.518-0.719-1.883-0.376-2.305-1.154c1.032-0.132,2.064-0.264,3.095-0.395c0.981-0.125,2.023-0.24,2.92,0.177"/>
	<path fill="#44612D" d="M73.498,24.031c1.382-0.646,2.973-0.773,4.316-1.498c0.612-0.33,1.154-0.774,1.752-1.13
		c1.506-0.891,3.285-1.167,5.015-1.426c0.435-0.066,0.9-0.127,1.299,0.057c0.4,0.186,0.668,0.719,0.417,1.081
		c-0.209,0.303-0.634,0.329-0.996,0.399c-0.361,0.068-0.78,0.328-0.712,0.689c0.068,0.357,0.591,0.593,0.47,0.937
		c-0.068-0.4-0.551-0.688-0.918-0.515c-0.368,0.174-0.424,0.784-0.074,0.989c-0.438-0.342-0.89-0.692-1.423-0.846
		c-0.533-0.155-1.175-0.072-1.537,0.349c-0.344,0.399-0.354,1.006-0.149,1.491c0.204,0.485,0.587,0.87,0.981,1.22
		c0.139,0.124,0.287,0.248,0.466,0.305c0.276,0.085,0.628,0.012,0.816,0.231c0.273,0.317-0.124,0.838,0.056,1.216
		c0.113,0.236,0.401,0.319,0.657,0.376c0.569,0.127,1.139,0.254,1.709,0.381c0.178-0.657,0.985-0.902,1.667-0.922
		c0.681-0.02,1.432,0.055,1.976-0.357c-0.308,0.468-0.616,0.935-0.925,1.401c-0.142,0.216-0.29,0.472-0.211,0.717
		c0.062,0.193,0.248,0.314,0.413,0.433c1.639,1.167,2.32,3.235,2.903,5.16c-0.758,0.032-1.417-0.468-2.076-0.842
		c-0.66-0.375-1.548-0.618-2.13-0.132c0.149,0.11,0.274,0.254,0.362,0.416c-0.626,0.145-1.258-0.276-1.635-0.797
		s-0.586-1.145-0.932-1.687c-1.005-1.574-2.973-2.219-4.312-3.52c-0.542-0.525-0.981-1.159-1.587-1.609s-1.468-0.683-2.113-0.288
		c1.466,0.951,2.953,1.922,4.086,3.251c1.547,1.813,2.442,4.288,4.515,5.466c0.465,0.264,0.979,0.455,1.386,0.803
		c0.665,0.569,0.98,1.508,1.739,1.943c0.517,0.297,1.147,0.302,1.715,0.481c1.239,0.392,2.052,1.546,2.772,2.627
		c-1.31-0.091-2.421-1.195-3.733-1.151c-0.997,0.033-1.867,0.729-2.86,0.828c-1.531,0.152-2.83-1.139-3.577-2.483
		c-0.746-1.346-1.225-2.888-2.331-3.958c-0.951-0.92-2.324-1.388-3.639-1.239c0.254,0.287,0.509,0.574,0.763,0.86
		c-0.684,0.328-1.434,0.519-2.191,0.556c-0.249,0.013-0.511,0.006-0.73-0.113c-0.193-0.105-0.333-0.287-0.444-0.478
		c-0.433-0.744-0.506-1.682-1.054-2.347c-0.844-1.026-2.451-1.006-3.491-1.832c-0.907-0.719-1.233-1.953-2.011-2.81
		c-0.419-0.462-0.958-0.801-1.383-1.256c-0.425-0.456-0.736-1.102-0.547-1.695c1.04-0.422,2.304-0.232,3.173,0.478
		c0.408,0.334,0.757,0.785,1.267,0.925c0.147,0.04,0.331,0.04,0.425-0.081c0.07-0.091,0.064-0.219,0.107-0.326
		c0.147-0.372,0.684-0.283,1.082-0.235c0.688,0.082,1.41-0.199,1.861-0.727"/>
	<path fill="#9BC53D" d="M20.094,48.01c1.126-0.278,2.007-1.155,2.686-2.097c0.679-0.941,1.222-1.984,2.002-2.843
		c0.634-0.697,1.407-1.251,2.081-1.91c1.141-1.115,1.987-2.53,2.428-4.064c0.59-2.05,0.489-4.34,1.599-6.161
		c0.283-0.466,0.809-0.934,1.308-0.717c0.151,0.065,0.269,0.186,0.393,0.294c0.23,0.202,0.489,0.373,0.766,0.506
		c0.347,0.165,0.769,0.265,1.104,0.077c0.334-0.187,0.423-0.763,0.079-0.933c0.464-0.063,1.024-0.208,1.145-0.661
		c0.031-0.118,0.026-0.244,0.058-0.362c0.12-0.442,0.714-0.589,1.146-0.435c0.433,0.155,0.762,0.505,1.134,0.774
		c0.412,0.3,0.891,0.506,1.392,0.601c0.306,0.057,0.659,0.06,0.885-0.153c0.141-0.134,0.207-0.33,0.226-0.523
		c0.09-0.911-0.7-1.647-1.439-2.188c-0.739-0.541-1.575-1.174-1.642-2.088c-0.553,0.016-1.175,0.06-1.539,0.478
		c-0.321,0.37-0.348,0.942-0.706,1.278c-0.403,0.378-1.033,0.297-1.586,0.314c-1.804,0.058-3.348,1.441-4.143,3.062
		c-0.795,1.621-0.988,3.459-1.199,5.252c-0.091,0.766-0.188,1.537-0.446,2.264c-0.683,1.921-2.372,3.265-3.811,4.708
		c-1.35,1.354-2.527,2.867-3.701,4.376c-0.223,0.287-0.459,0.621-0.399,0.979c0.061,0.358,0.617,0.579,0.788,0.258"/>
	<path fill="#9BC53D" d="M20.959,51.916c1.79-1.593,3.598-3.207,4.948-5.186c0.532-0.78,0.991-1.615,1.612-2.326
		c0.808-0.924,1.856-1.601,2.874-2.285c0.411-0.277,0.826-0.563,1.132-0.953c0.886-1.128,0.712-2.918,1.804-3.849
		c0.628-0.536,1.585-0.686,2.02-1.388c0.138-0.222,0.203-0.522,0.055-0.737c-0.163-0.238-0.522-0.265-0.78-0.137
		c-0.258,0.129-0.437,0.37-0.604,0.605c-1.822,2.567-3.389,5.395-5.825,7.389c-0.592,0.485-1.234,0.919-1.733,1.5
		c-0.505,0.587-0.841,1.298-1.282,1.935c-1.146,1.65-2.961,2.741-4.127,4.379c-0.18,0.252-0.349,0.54-0.327,0.849
		c0.022,0.309,0.326,0.609,0.621,0.514"/>
	<path fill="#046937" d="M19.443,46.915c-0.4-0.265-0.471-0.826-0.408-1.302s0.219-0.956,0.121-1.425
		c-0.078-0.374-0.308-0.696-0.448-1.053c-0.33-0.844-0.126-1.791,0.082-2.673c0.047-0.2,0.101-0.411,0.248-0.554
		c0.229-0.22,0.608-0.208,0.848-0.415c0.353-0.305,0.221-0.878,0.381-1.315c0.105-0.287,0.334-0.507,0.556-0.717
		c0.419-0.395,0.837-0.789,1.255-1.184c0.218-0.205,0.449-0.418,0.739-0.49c0.45-0.112,0.928,0.161,1.183,0.548
		c0.256,0.386,0.33,0.863,0.364,1.326c0.045,0.62,0.028,1.246-0.052,1.863c1.747-1.171,2.7-3.449,4.69-4.134
		c0.246,0.298-0.444,0.813-0.14,1.05c0.13,0.102,0.317,0.014,0.455-0.077c0.413-0.275,0.826-0.576,1.308-0.697
		s1.061-0.013,1.341,0.397c0.152,0.223,0.236,0.538,0.496,0.608c0.152,0.04,0.31-0.024,0.453-0.089l1.115-0.496
		c0.128-0.056,0.265-0.114,0.402-0.087c0.423,0.085,0.295,0.748-0.015,1.049s-0.742,0.653-0.601,1.062
		c0.036,0.104,0.11,0.198,0.108,0.309c-0.008,0.407-0.761,0.171-1.022,0.482c-0.268,0.318,0.243,0.763,0.197,1.177
		c-0.028,0.258-0.265,0.435-0.489,0.566c-0.913,0.531-1.961,0.83-3.018,0.859c0.062,0.43,0.72,0.287,1.128,0.437
		c0.427,0.155,0.551,0.813,0.209,1.113c-0.289,0.255-0.723,0.209-1.109,0.206c-0.386-0.004-0.855,0.116-0.955,0.488
		c0.358,0.106,0.402,0.649,0.152,0.926s-0.654,0.344-1.027,0.366c-1.167,0.07-2.332-0.142-3.5-0.174
		c-1.169-0.032-2.408,0.144-3.321,0.874c-0.635,0.509-1.128,1.286-1.926,1.441"/>
	<path fill="#44612D" d="M14.103,45.885c0.452-0.199,0.594-0.787,0.517-1.275c-0.077-0.486-0.311-0.94-0.38-1.429
		c-0.126-0.886,0.358-1.827,1.152-2.239c0.25-0.13,0.544-0.211,0.813-0.13s0.487,0.369,0.414,0.642
		c-0.024,0.087-0.073,0.182-0.029,0.261c0.025,0.045,0.076,0.071,0.126,0.086c0.42,0.129,0.81-0.249,1.089-0.589
		c0.279-0.339,0.673-0.715,1.092-0.581c0.216,0.069,0.371,0.266,0.448,0.479c0.225,0.622-0.135,1.313-0.612,1.772
		c-0.477,0.458-1.074,0.783-1.522,1.27c-0.06,0.065-0.12,0.141-0.125,0.229c-0.021,0.317,0.564,0.311,0.664,0.613
		c0.058,0.177-0.086,0.352-0.228,0.472c-0.93,0.786-2.294,1.019-3.431,0.585"/>
	<path fill="#9BC53D" d="M18.713,50.555c1.014,0.275,1.909,0.965,2.435,1.874c0.315,0.544,0.499,1.157,0.823,1.695
		c0.324,0.538,0.847,1.021,1.475,1.047c0.258-1.121-0.179-2.371-1.079-3.087c-0.377-0.301-0.866-0.573-0.934-1.051
		c-0.009-0.068-0.009-0.142,0.022-0.204c0.117-0.241,0.491-0.116,0.678,0.075c0.188,0.192,0.416,0.445,0.669,0.354
		c0.198-0.071,0.262-0.313,0.363-0.497c0.275-0.51,1.046-0.659,1.492-0.291c0.436-0.594-0.01-1.593-0.743-1.667
		c-0.35-0.035-0.693,0.104-1.043,0.128c-0.351,0.023-0.773-0.147-0.817-0.496c0.42-0.223,0.944-0.24,1.378-0.045
		c0.269-0.495,0.16-1.128-0.137-1.606c-0.298-0.479-0.756-0.832-1.217-1.156c-0.26-0.185-0.566-0.371-0.878-0.304
		c-0.274,0.061-0.541,0.312-0.793,0.189c-0.102-0.049-0.168-0.149-0.234-0.241c-0.515-0.713-1.385-1.157-2.265-1.155
		c0.003,0.493-0.219,0.983-0.592,1.307c-0.138,0.12-0.298,0.22-0.41,0.365c-0.226,0.295-0.206,0.72-0.06,1.061
		c0.146,0.342,0.396,0.626,0.619,0.923c0.637,0.853,1.062,1.861,1.226,2.912"/>
	<path fill="#9BC53D" d="M8.674,62.057c-0.638,1.901-1.898,3.588-3.539,4.74c-0.37-0.368-0.177-0.992,0.052-1.461
		c0.732-1.504,1.631-2.981,2.964-3.991c0.804-0.609,1.733-1.025,2.629-1.487c3.362-1.729,6.328-4.144,9.639-5.97
		c0.166-0.092,0.345-0.184,0.534-0.166c0.188,0.02,0.37,0.203,0.314,0.383c-0.044,0.141-0.197,0.208-0.333,0.262
		c-1.565,0.616-2.966,1.576-4.353,2.528c-1.701,1.167-3.401,2.335-5.102,3.502c2.237-1.011,4.222-2.603,6.591-3.246
		c1.092-0.297,2.23-0.38,3.358-0.461c0.928-0.067,1.856-0.135,2.783-0.201c0.209-0.016,0.427-0.029,0.621,0.05
		c0.193,0.079,0.354,0.28,0.314,0.485c-2.138,0.298-4.281,0.555-6.429,0.771c-0.915,0.093-1.851,0.183-2.687,0.568
		c-0.431,0.198-0.823,0.47-1.223,0.724c-1.351,0.859-2.82,1.531-4.352,1.992c-0.71,0.214-1.481,0.411-1.964,0.973"/>
	<path fill="#44612D" d="M20.687,53.954c0.546-1.584,0.286-3.317,0.076-4.979c-0.21-1.663-0.347-3.437,0.406-4.934
		c0.117-0.233,0.362-0.491,0.593-0.369c0.14,0.075,0.181,0.254,0.198,0.412c0.057,0.529,0.023,1.104,0.326,1.542
		c0.396,0.571,1.318,0.848,1.299,1.542c-0.005,0.167-0.071,0.334-0.034,0.497c0.038,0.17,0.178,0.295,0.287,0.431
		c0.508,0.63,0.363,1.576-0.015,2.292c-0.379,0.715-0.954,1.315-1.307,2.044c-0.279,0.578-0.464,1.285-1.038,1.573
		c-0.345,0.173-0.911-0.013-0.848-0.393"/>
	<path fill="#9BC53D" d="M21.922,54.006c1.121,0.27,2.165-0.563,3.191-1.089c0.693-0.357,1.452-0.587,2.227-0.674
		c0.517-0.058,1.055-0.057,1.529-0.271c0.245-0.11,0.463-0.275,0.711-0.378c0.991-0.411,2.356,0.174,3.077-0.62
		c0.163-0.179,0.265-0.441,0.176-0.666c-0.191-0.481-1.039-0.424-1.186-0.921c-0.081-0.274,0.124-0.56,0.373-0.7
		c0.249-0.14,0.54-0.185,0.804-0.295c0.349-0.146,0.647-0.407,0.836-0.734c-0.346,0.043-0.428-0.494-0.266-0.803
		c0.161-0.309,0.422-0.659,0.255-0.965c-0.123-0.225-0.414-0.282-0.669-0.3c-0.449-0.03-0.902-0.011-1.346,0.062
		c0.014-0.666-0.831-1.177-1.414-0.854c-0.117,0.063-0.222,0.153-0.349,0.196c-0.507,0.171-1.055-0.471-1.541-0.246
		c-0.466,0.217-0.382,1.017-0.845,1.237c-0.257,0.123-0.564,0.001-0.796-0.163c-0.232-0.164-0.441-0.375-0.713-0.457
		s-0.636,0.037-0.682,0.318c-0.017,0.103,0.012,0.21-0.006,0.313s-0.121,0.207-0.217,0.165c-0.045-0.02-0.072-0.064-0.104-0.102
		c-0.249-0.292-0.772-0.08-0.92,0.274c-0.148,0.354-0.055,0.755,0.001,1.134c0.211,1.437-0.172,2.952-1.04,4.115
		c-0.306,0.408-0.668,0.776-0.925,1.219c-0.256,0.44-0.396,0.988-0.21,1.464"/>
	<path fill="#44612D" d="M23.217,57.205c0.343-0.203,0.785-0.178,1.15-0.02c0.365,0.157,0.667,0.433,0.941,0.722
		c0.381,0.402,0.725,0.838,1.026,1.303c0.083,0.129,0.167,0.265,0.297,0.344c0.328,0.204,0.74-0.025,1.096-0.176
		c1.027-0.432,2.324-0.094,3.008,0.785c-0.343,0.225-0.729,0.386-1.131,0.472c-0.232,0.216,0.028,0.613,0.327,0.716
		c0.3,0.102,0.653,0.085,0.894,0.291c0.245,0.211,0.274,0.605,0.114,0.888c-0.16,0.281-0.47,0.452-0.787,0.513
		c-0.455,0.086-0.946-0.038-1.305-0.331c-0.284-0.231-0.482-0.556-0.768-0.785c-0.426-0.34-0.996-0.432-1.474-0.691
		c-0.853-0.464-1.318-1.396-1.802-2.238c-0.485-0.842-1.14-1.715-2.096-1.885"/>
	<path fill="#44612D" d="M11.663,49.174c1.089-1.429,2.935-2.244,4.724-2.086c0.484,0.043,0.966,0.151,1.45,0.109
		c0.564-0.048,1.093-0.299,1.566-0.61c0.894-0.59,1.651-1.45,1.924-2.487c-1.281-0.439-2.572,0.809-3.926,0.74
		c-0.185-0.084-0.049-0.367,0.112-0.491c1.136-0.874,2.819-1.051,3.607-2.248c-0.372,0.064-0.757,0.051-1.125-0.037
		c-0.102-0.024-0.221-0.074-0.237-0.178c-0.014-0.084,0.049-0.159,0.108-0.222c0.209-0.223,0.417-0.444,0.626-0.666
		c0.185-0.196,0.357-0.545,0.13-0.69c-0.07-0.045-0.16-0.049-0.244-0.046c-0.981,0.032-1.827,0.666-2.6,1.272
		c-1.026,0.803-2.061,1.615-2.884,2.625c-0.477,0.584-0.877,1.226-1.275,1.865c-0.641,1.03-1.282,2.062-1.923,3.092"/>
	<path fill="#046937" d="M7.33,60.175c1.226-1.295,2.471-2.605,3.996-3.531c0.432-0.263,0.933-0.558,1.019-1.056
		c0.063-0.365-0.13-0.731-0.389-0.996c-0.26-0.264-0.584-0.454-0.873-0.685c-1.198-0.959-1.692-2.525-2.125-3.997
		c-0.102-0.348-0.205-0.721-0.101-1.07c0.104-0.348,0.506-0.632,0.834-0.474c0.186-0.229,0.113-0.561,0.073-0.853
		c-0.04-0.291,0.015-0.666,0.297-0.752c0.255-0.078,0.496,0.142,0.672,0.342c0.405,0.457,0.826,0.947,0.925,1.551
		c0.039,0.232,0.028,0.477,0.112,0.698c0.085,0.221,0.314,0.416,0.542,0.352c-0.079-0.206,0.025-0.464,0.224-0.558
		c0.2-0.095,0.465-0.01,0.573,0.183c0.083,0.146,0.077,0.327,0.155,0.475c0.094,0.181,0.291,0.279,0.431,0.427
		c0.343,0.359,0.291,0.941,0.121,1.408c-0.17,0.468-0.437,0.914-0.459,1.41c-0.019,0.427,0.146,0.847,0.113,1.271
		c-0.071,0.891-0.938,1.464-1.679,1.962c-1.049,0.705-2.022,1.533-2.831,2.503c-0.48,0.576-0.908,1.207-1.491,1.678
		c-0.323,0.26-0.686,0.466-1.018,0.715c-0.764,0.573-1.342,1.356-2.035,2.013c-0.694,0.656-1.586,1.209-2.538,1.137
		c0.881-0.568,1.768-1.14,2.529-1.861c0.925-0.874,1.724-2.002,2.944-2.362"/>
	<path fill="#9BC53D" d="M3.139,65.946c0.108-0.832,0.666-1.538,1.286-2.104s1.325-1.042,1.878-1.673
		c0.448-0.513,0.783-1.114,1.201-1.653c0.708-0.912,1.655-1.636,2.72-2.079c1.426-0.593,3.079-0.709,4.298-1.656
		c0.31-0.242,0.603-0.658,0.406-0.999c-0.059-0.104-0.155-0.179-0.243-0.258c-0.165-0.149-0.309-0.321-0.427-0.51
		c-0.147-0.235-0.254-0.53-0.147-0.787c0.107-0.256,0.514-0.366,0.664-0.134c0.008-0.339,0.065-0.753,0.381-0.877
		c0.082-0.032,0.173-0.039,0.255-0.072c0.309-0.122,0.365-0.561,0.219-0.858c-0.147-0.299-0.426-0.506-0.65-0.751
		c-0.249-0.272-0.437-0.6-0.546-0.951c-0.067-0.215-0.098-0.469,0.037-0.649c0.084-0.111,0.22-0.175,0.357-0.205
		c0.648-0.14,1.242,0.367,1.692,0.854c0.449,0.486,0.973,1.035,1.635,1.008c0.035,0.399,0.054,0.85-0.216,1.146
		c-0.239,0.261-0.649,0.327-0.86,0.611c-0.239,0.322-0.129,0.769-0.096,1.166c0.107,1.302-0.76,2.525-1.859,3.23
		c-1.099,0.705-2.404,0.995-3.675,1.295c-0.543,0.127-1.09,0.261-1.59,0.506c-1.325,0.649-2.151,1.974-3.07,3.127
		c-0.861,1.082-1.852,2.052-2.84,3.021c-0.187,0.184-0.408,0.381-0.67,0.366c-0.263-0.014-0.467-0.396-0.251-0.545"/>
	<path fill="#9BC53D" d="M0.261,65.646c0.997-1.417,2.008-2.851,3.319-3.983c0.517-0.446,1.079-0.845,1.539-1.35
		c0.598-0.657,0.997-1.465,1.406-2.254c0.165-0.318,0.336-0.641,0.591-0.893c0.738-0.729,2.039-0.752,2.618-1.613
		c0.333-0.495,0.362-1.195,0.83-1.566c0.148-0.117,0.359-0.188,0.526-0.1c0.184,0.098,0.233,0.354,0.162,0.55
		c-0.071,0.195-0.23,0.344-0.385,0.482c-1.695,1.521-3.598,2.881-4.831,4.796c-0.299,0.465-0.559,0.962-0.934,1.369
		c-0.381,0.411-0.864,0.711-1.285,1.08c-1.092,0.96-1.726,2.354-2.807,3.327c-0.166,0.15-0.359,0.295-0.583,0.305
		c-0.224,0.009-0.465-0.185-0.421-0.403"/>
	<path fill="#9BC53D" d="M32.354,19.659c1.174,0.319,2.21,1.117,2.819,2.17c0.364,0.63,0.578,1.338,0.953,1.962
		c0.375,0.623,0.98,1.182,1.707,1.211c0.299-1.297-0.208-2.744-1.249-3.572c-0.437-0.348-1.003-0.663-1.081-1.216
		c-0.011-0.079-0.01-0.164,0.025-0.237c0.136-0.279,0.569-0.134,0.785,0.088c0.217,0.222,0.482,0.515,0.774,0.41
		c0.23-0.082,0.304-0.361,0.42-0.576c0.32-0.589,1.211-0.763,1.728-0.336c0.504-0.688-0.011-1.845-0.86-1.93
		c-0.405-0.041-0.802,0.121-1.208,0.147c-0.406,0.026-0.895-0.17-0.945-0.573c0.486-0.259,1.092-0.278,1.595-0.053
		c0.311-0.573,0.185-1.306-0.159-1.86c-0.344-0.554-0.875-0.962-1.408-1.338c-0.302-0.213-0.656-0.43-1.017-0.351
		c-0.317,0.069-0.626,0.36-0.918,0.219c-0.119-0.057-0.194-0.173-0.271-0.279c-0.597-0.825-1.603-1.34-2.622-1.338
		c0.003,0.571-0.254,1.139-0.685,1.513c-0.16,0.139-0.345,0.255-0.475,0.423c-0.262,0.341-0.238,0.833-0.069,1.228
		c0.168,0.396,0.459,0.725,0.716,1.069c0.737,0.986,1.229,2.154,1.419,3.371"/>
	<path fill="#44612D" d="M34.639,23.595c0.632-1.834,0.331-3.84,0.088-5.765c-0.244-1.925-0.401-3.979,0.47-5.712
		c0.135-0.269,0.419-0.566,0.686-0.426c0.162,0.086,0.21,0.294,0.23,0.476c0.066,0.613,0.026,1.28,0.377,1.786
		c0.459,0.66,1.526,0.981,1.503,1.785c-0.005,0.193-0.081,0.386-0.039,0.575c0.044,0.197,0.206,0.341,0.333,0.498
		c0.588,0.729,0.42,1.825-0.018,2.653c-0.438,0.829-1.104,1.523-1.512,2.367c-0.324,0.668-0.538,1.487-1.202,1.82
		c-0.4,0.2-1.055-0.015-0.982-0.455"/>
	<path fill="#9BC53D" d="M36.069,23.654c1.297,0.312,2.507-0.651,3.693-1.261c0.804-0.413,1.682-0.679,2.579-0.779
		c0.599-0.067,1.222-0.066,1.77-0.314c0.284-0.128,0.536-0.318,0.823-0.438c1.147-0.477,2.727,0.201,3.562-0.718
		c0.188-0.207,0.307-0.511,0.203-0.771c-0.221-0.557-1.202-0.492-1.372-1.066c-0.094-0.317,0.144-0.648,0.432-0.811
		c0.288-0.163,0.625-0.215,0.931-0.342c0.403-0.168,0.749-0.472,0.968-0.851c-0.401,0.052-0.496-0.571-0.309-0.929
		s0.488-0.763,0.295-1.117c-0.141-0.259-0.479-0.326-0.774-0.347c-0.52-0.036-1.044-0.012-1.558,0.071
		c0.016-0.771-0.962-1.362-1.638-0.99c-0.135,0.075-0.256,0.179-0.403,0.228c-0.587,0.199-1.221-0.545-1.783-0.283
		c-0.54,0.25-0.443,1.176-0.979,1.432c-0.297,0.142-0.653,0.001-0.921-0.189c-0.269-0.188-0.512-0.434-0.826-0.528
		c-0.315-0.096-0.736,0.043-0.789,0.368c-0.02,0.119,0.014,0.243-0.007,0.362c-0.022,0.12-0.141,0.24-0.252,0.191
		c-0.052-0.023-0.083-0.074-0.12-0.117c-0.288-0.338-0.894-0.093-1.065,0.317c-0.171,0.409-0.064,0.874,0.001,1.313
		c0.244,1.663-0.199,3.416-1.204,4.764c-0.354,0.474-0.774,0.899-1.07,1.41c-0.297,0.512-0.459,1.146-0.243,1.695"/>
	<path fill="#44612D" d="M37.568,27.358c0.397-0.235,0.908-0.206,1.331-0.023c0.423,0.184,0.772,0.502,1.089,0.836
		c0.442,0.464,0.84,0.971,1.188,1.508c0.096,0.149,0.193,0.306,0.344,0.399c0.38,0.236,0.856-0.031,1.269-0.205
		c1.189-0.5,2.69-0.108,3.483,0.909c-0.398,0.26-0.845,0.447-1.31,0.546c-0.268,0.249,0.032,0.71,0.379,0.828
		c0.346,0.119,0.756,0.099,1.034,0.337c0.284,0.244,0.317,0.702,0.132,1.028c-0.185,0.324-0.544,0.523-0.911,0.594
		c-0.527,0.1-1.095-0.044-1.51-0.383c-0.329-0.27-0.558-0.645-0.89-0.909c-0.493-0.394-1.153-0.499-1.706-0.801
		c-0.988-0.537-1.526-1.616-2.086-2.592c-0.561-0.975-1.319-1.984-2.427-2.182"/>
</g>
</svg>
