<?xml version="1.0" encoding="utf-8"?>
<!-- Generator: Adobe Illustrator 16.0.2, SVG Export Plug-In . SVG Version: 6.00 Build 0)  -->
<!DOCTYPE svg PUBLIC "-//W3C//DTD SVG 1.1//EN" "http://www.w3.org/Graphics/SVG/1.1/DTD/svg11.dtd">
<svg version="1.1" id="Layer_1" xmlns="http://www.w3.org/2000/svg" xmlns:xlink="http://www.w3.org/1999/xlink" x="0px" y="0px"
	 width="91.509px" height="95.059px" viewBox="0 0 91.509 95.059" enable-background="new 0 0 91.509 95.059" xml:space="preserve">
<g>
	<path fill="#EC2527" d="M7.849,0.02c27.62,1.372,50.338,3.996,79.961,5.89c0.768,0.049,1.639-0.064,2.187,0.477
		c0.451,0.446,0.536,1.133,0.595,1.764c0.564,5.958,1.128,11.94,0.84,17.918c-0.419,8.694-2.631,17.193-3.81,25.817
		c-1.726,12.624-1.232,25.433-0.735,38.164c-26.042-0.165-52.095,1.38-77.935,4.621C8.377,63.124,8.009,31.572,7.849,0.02"/>
	<path fill="#B72027" d="M7.917,0C5.571,0.453,2.025,1.6,1.455,3.989c-0.656,2.749-0.628,6.497-0.445,9.339
		c0.333,5.137,0.472,10.79,0.094,15.924c-0.365,4.943-0.106,9.829-0.616,14.76C-0.04,49.105,0,54.238,0,59.359
		c0,10.214,0.08,20.665,0.121,30.997c0.001,0.415,0.015,0.864,0.276,1.186c0.205,0.253,0.527,0.377,0.833,0.491
		c2.72,1.009,5.44,2.017,8.16,3.026c0.638-2.361-0.655-4.602-0.557-7.045c0.075-1.864-0.04-5.594-0.125-7.457
		c-0.395-8.633,0.894-15.593,0.486-24.226c-0.131-2.758-0.261-5.517-0.391-8.276C8.045,32.017,9.83,16.074,9.568,0.02"/>
	<path fill="#FFCB0B" d="M21.686,48.445c12.955-2.67,25.115-4.899,38.2-2.967c-5.308,1.867-8.015,4.991-11.022,9.155
		c-1.724,2.387-3.29,4.887-4.685,7.48c11.693,0.186,23.395-0.234,35.045-1.257c0.218-0.02,0.47-0.027,0.619,0.134
		c0.096,0.103,0.122,0.25,0.143,0.389c1.106,7.286-2.583,14.728-8.169,19.536c-5.585,4.807-12.817,7.301-20.057,8.67
		c-10.457,1.977-21.204,1.818-31.817,1.039c-3.432-0.252-7.225-0.747-9.466-3.36c-0.679-0.791-1.173-1.753-1.343-2.782
		c-0.142-0.857-0.709-2.239-0.651-3.106c0.617-9.109-0.79-17.802,0.46-26.846C8.942,54.53,14.733,49.878,21.686,48.445"/>
	<path fill="#D06728" d="M8.829,80.017c1.088,1.914,3.212,2.965,5.26,3.773c9.684,3.824,20.525,4.657,30.679,2.359
		c5.451-1.234,10.667-3.335,15.768-5.618c2.517-1.126,5.035-2.312,7.234-3.977c5.078-3.843,8.105-10.252,7.848-16.615
		c1.508,0.017,3.594-0.32,4.564,0.834c0.72,0.857,0.484,2.645,0.564,3.762c0.544,7.577-3.224,15.318-9.522,19.564
		c-4.124,2.78-9.059,4.059-13.926,5.086c-14.468,3.053-29.27,4.807-43.438,0.572c-0.919-0.275-2.302-1.121-3.1-1.655
		C8.231,86.408,6.72,82.212,8.829,80.017"/>
	<path fill="#FFCB0B" d="M71.411,41.27c-8.979,2.851-17.659,9.806-24.12,16.662c1.663,0.559,4.306-0.112,6.053-0.279
		c9.136-0.873,17.886-3.015,27.023-3.888c0.303-0.029,0.648-0.082,0.815-0.337c0.151-0.231,0.092-0.537,0.011-0.801
		c-0.534-1.729-1.311-3.611-2.523-4.955c-2.101-2.329-4.672-4.179-6.774-6.508"/>
</g>
</svg>
