<?xml version="1.0" encoding="utf-8"?>
<!-- Generator: Adobe Illustrator 16.0.2, SVG Export Plug-In . SVG Version: 6.00 Build 0)  -->
<!DOCTYPE svg PUBLIC "-//W3C//DTD SVG 1.1//EN" "http://www.w3.org/Graphics/SVG/1.1/DTD/svg11.dtd">
<svg version="1.1" id="Layer_1" xmlns="http://www.w3.org/2000/svg" xmlns:xlink="http://www.w3.org/1999/xlink" x="0px" y="0px"
	 width="42.892px" height="50.413px" viewBox="0 0 42.892 50.413" enable-background="new 0 0 42.892 50.413" xml:space="preserve">
<g>
	<path fill="#C9A877" d="M40.134,24.418c0.128,0.891-0.484,1.745-1.237,2.236c-0.754,0.493-1.645,0.723-2.477,1.064
		c-0.894,0.368-1.73,0.871-2.64,1.199c-1.238,0.448-2.569,0.558-3.884,0.625c-3.501,0.178-7.01,0.075-10.514-0.027
		c-1.444-0.042-2.896-0.085-4.319-0.332c-2.281-0.396-4.472-1.313-6.783-1.437c-0.855-0.045-1.723,0.018-2.562-0.155
		c-1.225-0.252-2.286-0.983-3.312-1.698c-0.71-0.495-1.441-1.013-1.884-1.758c-0.582-0.977-0.575-2.188-0.466-3.32
		c0.025-0.269,0.06-0.55,0.211-0.774c0.314-0.473,1.03-0.511,1.535-0.251c0.506,0.259,0.86,0.729,1.232,1.159
		c1.746,2.014,4.177,3.351,6.729,4.125c2.552,0.772,5.232,1.018,7.896,1.122c7.461,0.294,14.945-0.48,22.258-1.994"/>
	<path fill="#C89754" d="M38.36,20.036c1.001,0.694,1.118,1.039,1.734,2.09c0.249,0.426,0.466,0.931,0.313,1.397
		c-0.108,0.325-0.376,0.568-0.645,0.779c-1.109,0.877-2.419,1.5-3.799,1.809c-2.542,0.57-5.185,0.072-7.789-0.01
		c-3.556-0.111-7.084,0.559-10.628,0.853c-3.545,0.293-7.255,0.178-10.447-1.391c-2.094-1.028-3.849-2.624-5.516-4.255
		c-0.23-0.229-0.464-0.458-0.637-0.733c-0.639-1.014-0.191-2.54,0.893-3.05c0.35-0.164,0.735-0.23,1.116-0.284
		c9.378-1.338,18.768,3.197,28.205,2.371c1.811-0.159,3.599-0.515,5.382-0.869c0.282-0.057,0.582-0.11,0.852-0.01
		c0.269,0.101,0.475,0.424,0.348,0.681"/>
	<path fill="#C9A877" d="M40.197,14.747c1.08,0.515,1.1,2.185,0.308,3.082c-0.791,0.897-2.049,1.197-3.231,1.382
		c-1.002,0.155-2.013,0.261-3.025,0.293c-0.938,0.028-1.885-0.003-2.801,0.194c-0.724,0.157-1.407,0.453-2.111,0.682
		c-1.469,0.474-3.018,0.644-4.555,0.781c-1.598,0.143-3.217,0.253-4.8-0.01c-2.276-0.376-4.366-1.502-6.622-1.997
		c-3.369-0.74-6.965-0.047-10.273-1.025c-1.24-0.367-2.549-1.138-2.783-2.41c-0.18-0.981,0.337-1.94,0.836-2.803
		c0.094-0.163,0.197-0.335,0.363-0.423c0.536-0.282,0.997,0.446,1.401,0.896c0.581,0.646,1.513,0.814,2.371,0.938
		c4.917,0.701,9.871,1.143,14.834,1.319c2.541,0.091,5.091,0.114,7.611,0.448c1.731,0.23,3.449,0.607,5.195,0.647
		c2.262,0.052,4.494-0.464,6.696-0.975c0.313-0.073,0.654-0.164,0.841-0.425c0.187-0.262,0.063-0.735-0.258-0.741"/>
	<path fill="#C89754" d="M3.197,10.75c-0.782,0.313-1.566,0.91-1.695,1.743C1.449,12.84,1.952,13.6,2.149,13.89
		c0.125,0.184,0.328,0.297,0.53,0.389c2.074,0.946,4.743,1.042,7.018,1.191c2.788,0.183,5.146,0.84,7.938,0.936
		c1.453,0.05,2.916-0.259,4.354-0.042c0.88,0.132,1.717,0.458,2.561,0.738c1.627,0.54,3.314,0.92,5.027,1.007
		c0.32,0.017,0.642,0.022,0.963,0.019c3.274-0.033,6.485-1.05,9.621-2.054c0.21-0.068,0.759,0.15,0.856-0.188
		c0.136-0.476,0.112-0.571,0.062-0.729c-0.293-0.91-1.117-1.863-2.003-2.222c-0.51-0.206-2.952-1.011-3.499-0.955
		c-3.777,0.386-5.711,1.231-9.509,1.211c-2.528-0.014-6.451-1.157-8.981-1.171c-4.092-0.022-6.865,1.074-10.759-0.185
		C5.146,11.454,4.439,10.758,3.197,10.75"/>
	<path fill="#C9A877" d="M1.462,7.505c0.237-0.99,0.492-2.017,1.129-2.812C3.616,3.415,5.368,3.03,6.979,2.726
		c3.901-0.736,7.804-1.472,11.706-2.208c1.064-0.2,2.134-0.402,3.216-0.479c1.427-0.102,2.86,0.014,4.284,0.162
		c4.902,0.513,9.945,1.491,13.953,4.363c1.53,1.097,2.989,2.761,2.721,4.625c-0.2,1.394-1.36,2.498-2.662,3.034
		c-1.302,0.535-2.741,0.604-4.148,0.666c-6.031,0.263-11.24,1.291-17.266,0.89c-1.335-0.089-3.508-0.998-4.847-0.993
		c-3.195,0.012-6.628,0.685-9.414-0.88C2.795,10.937,1.747,9.466,1.462,7.505"/>
	<path fill="#C9A877" d="M38.619,26.975c1.416,0.114,2.135,1.977,1.599,3.292s-1.854,2.126-3.146,2.717
		c-2.391,1.096-4.998,1.762-7.627,1.755c-1.201-0.003-2.402-0.145-3.603-0.086c-1.165,0.059-2.311,0.305-3.469,0.441
		c-1.657,0.196-3.332,0.168-5.001,0.139c-1.431-0.024-2.878-0.052-4.263-0.414c-1.527-0.399-2.917-1.191-4.288-1.975
		c-2.81-1.605-5.965-3.017-5.728-5.768c0.02-0.22,0.568-0.393,0.735-0.249c0.167,0.143,0.054,0.042,0.173,0.227
		c0.427,0.667,0.328,0.549,1.013,0.948c0.774,0.45,2.337,0.772,3.11,1.225c0.805,0.47,0.777,1.013,1.7,1.147
		c4.063,0.59,8.128,1.18,12.215,1.564c1.302,0.122,2.612,0.225,3.916,0.13c1.136-0.082,2.255-0.311,3.371-0.54
		c2.247-0.461,4.494-0.921,6.741-1.382c0.368-0.076,0.75-0.156,1.059-0.372c0.869-0.604,0.792-1.932,1.406-2.796"/>
	<path fill="#C89754" d="M38.938,26.885c-0.05,1.65-1.254,3.096-2.709,3.88s-3.134,1.021-4.776,1.201
		c-9.102,0.997-18.67,0.534-26.85-3.581c-0.582-0.292-1.31-0.858-1.03-1.446c0.193-0.408,3.972,0.19,5.924,0.646
		c6.037,1.409,12.303,1.396,18.502,1.375c1.446-0.005,2.902-0.011,4.324-0.276c1.995-0.372,3.867-1.246,5.856-1.65
		c0.191-0.039,0.401-0.071,0.575,0.018c0.175,0.089,0.268,0.352,0.124,0.484"/>
	<path fill="#C9A877" d="M38.019,32.806c0.763,1.89,1.539,3.932,1.077,5.917c-0.415,1.78-1.804,3.224-3.432,4.055
		c-1.627,0.832-3.479,1.12-5.304,1.229c-1.643,0.099-3.29,0.061-4.935,0.022c-2.735-0.063-5.47-0.127-8.205-0.19
		c-0.995-0.022-1.994-0.047-2.975-0.208c-1.538-0.252-2.999-0.835-4.446-1.413c-2.982-1.193-6.165-2.553-7.841-5.29
		c-0.478-0.779-0.696-2.007,0.111-2.434c0.225-0.118,0.485-0.142,0.739-0.143c1.834-0.011,3.496,0.995,5.231,1.592
		c2.055,0.706,4.256,0.844,6.426,0.975c3.191,0.193,6.398,0.387,9.585,0.103c4.245-0.378,8.365-1.593,12.452-2.801
		c0.677-0.2,1.446-0.487,1.671-1.156"/>
	<path fill="#C89754" d="M38.457,33.001c0.429,1.254,0.107,2.299-0.667,3.374c-0.948,1.317-2.813,1.473-4.434,1.508
		c-2.46,0.053-4.917,0.106-7.375,0.159c-0.688,0.015-1.403,0.036-2.016,0.352c-0.629,0.324-1.069,0.919-1.625,1.357
		s-1.382,0.706-1.955,0.29c-0.26-0.189-0.416-0.484-0.61-0.74c-0.858-1.129-2.437-1.451-3.852-1.346
		c-1.414,0.105-2.79,0.551-4.207,0.615c-0.828,0.037-1.688-0.067-2.399-0.491c-1.019-0.607-1.622-1.795-2.704-2.276
		c-1.426-0.632-3.346,0.114-4.497-0.936c-0.947-0.864-0.679-2.556,0.298-3.387c0.976-0.829,2.39-0.943,3.648-0.704
		c0.916,0.173,1.802,0.511,2.6,0.993c1.04,0.628,1.935,1.496,3.041,1.997c1.241,0.562,2.642,0.613,4.003,0.656
		c1.651,0.053,3.302,0.105,4.953,0.157c5.524,0.176,11.26,0.313,16.335-1.878C37.489,32.489,38.109,32.205,38.457,33.001"/>
	<path fill="#C9A877" d="M38.528,33.827c-0.293,0.722-0.363,1.409-0.375,2.188c-0.032,2.328-0.429,5-2.396,6.247
		c-0.67,0.424-1.452,0.627-2.223,0.813c-5.428,1.317-10.979,2.114-16.559,2.379c-2.928,0.14-5.77-0.707-8.516-1.732
		c-2.747-1.027-5.127-2.96-5.703-5.835c-0.427,1.89-1.581,4.02,1.64,6.259c1.465,1.018,2.974,1.95,4.716,2.333
		s3.551,0.601,5.159,1.371c1.227,0.588,2.302,1.481,3.581,1.944c0.954,0.345,1.98,0.434,2.993,0.502
		c1.914,0.128,3.84,0.189,5.747-0.017c2.961-0.318,5.811-1.274,8.634-2.225c1.396-0.469,2.844-0.972,3.879-2.019
		c1.855-1.875,1.829-4.85,1.682-7.483c-0.051-0.883-0.114-1.813-0.598-2.555c-0.521-0.803-0.937-1.255-1.257-2.157
		C38.9,33.744,38.688,33.436,38.528,33.827"/>
	<path fill="#C89754" d="M38.159,35.78c-0.102-0.411,0.757,3.462-1.213,4.763c-0.354,0.233-1.021-0.425-1.345-0.153
		c-1.813,1.528-4.358,1.725-6.719,1.953c-1.459,0.142-2.927,0.323-4.313,0.797c-0.607,0.206-1.196,0.469-1.818,0.618
		c-1.277,0.306-2.613,0.126-3.913-0.056c-3.048-0.427-6.137-0.865-8.967-2.072c-1.884-0.804-3.613-1.933-5.236-3.182
		c-0.541-0.417-1.206-0.874-1.85-0.648c-0.421,1.27,0.041,3.498,1.03,4.397c1.546,1.406,3.757,1.841,5.686,2.646
		c2.084,0.869,4.407,0.938,6.665,0.896c6.082-0.113,12.151-0.938,18.043-2.45c1.457-0.374,3.09-0.949,3.654-2.344
		c0.24-0.594,0.354-1.155,0.599-1.747c0.591-1.433,0.979-2.022,0.693-3.258c-0.069-0.295-0.908-1.863-0.958-0.737"/>
</g>
</svg>
