<?xml version="1.0" encoding="utf-8"?>
<!-- Generator: Adobe Illustrator 16.0.2, SVG Export Plug-In . SVG Version: 6.00 Build 0)  -->
<!DOCTYPE svg PUBLIC "-//W3C//DTD SVG 1.1//EN" "http://www.w3.org/Graphics/SVG/1.1/DTD/svg11.dtd">
<svg version="1.1" id="Layer_1" xmlns="http://www.w3.org/2000/svg" xmlns:xlink="http://www.w3.org/1999/xlink" x="0px" y="0px"
	 width="43.776px" height="49.876px" viewBox="0 0 43.776 49.876" enable-background="new 0 0 43.776 49.876" xml:space="preserve">
<g>
	<path fill="#F4D49D" d="M40.137,21.539c0.275,0.837-0.169,1.764-0.811,2.366c-0.643,0.604-1.46,0.976-2.204,1.447
		c-0.799,0.506-1.52,1.133-2.339,1.604c-1.116,0.643-2.382,0.976-3.637,1.264c-3.343,0.768-6.739,1.267-10.133,1.765
		c-1.398,0.205-2.804,0.411-4.218,0.415c-2.265,0.007-4.532-0.503-6.78-0.228c-0.832,0.101-1.657,0.311-2.495,0.286
		c-1.222-0.033-2.369-0.558-3.478-1.071c-0.77-0.357-1.563-0.731-2.116-1.373c-0.726-0.842-0.926-2.01-1.014-3.119
		c-0.021-0.264-0.035-0.541,0.07-0.783c0.225-0.509,0.906-0.667,1.438-0.503c0.531,0.163,0.953,0.556,1.385,0.906
		c2.025,1.644,4.596,2.517,7.186,2.828c2.589,0.311,5.214,0.09,7.798-0.264c7.239-0.987,14.317-3.008,21.104-5.713"/>
	<path fill="#C89754" d="M37.682,17.619c1.083,0.498,1.254,0.812,2.028,1.719c0.313,0.366,0.607,0.816,0.538,1.293
		c-0.048,0.331-0.265,0.61-0.488,0.859c-0.92,1.034-2.074,1.857-3.351,2.391c-2.354,0.981-4.984,0.951-7.507,1.316
		c-3.444,0.499-6.729,1.745-10.095,2.631c-3.364,0.888-6.959,1.407-10.302,0.44c-2.192-0.633-4.155-1.872-6.038-3.16
		c-0.262-0.18-0.525-0.363-0.738-0.598c-0.787-0.867-0.616-2.415,0.341-3.09c0.308-0.219,0.669-0.348,1.026-0.465
		c8.808-2.887,18.626-0.115,27.577-2.52c1.718-0.461,3.38-1.108,5.038-1.754c0.262-0.103,0.541-0.206,0.817-0.154
		c0.275,0.052,0.53,0.327,0.45,0.597"/>
	<path fill="#F4D49D" d="M38.552,12.21c1.128,0.313,1.43,1.918,0.82,2.917s-1.77,1.504-2.878,1.882
		c-0.938,0.32-1.894,0.595-2.864,0.798c-0.898,0.188-1.816,0.317-2.665,0.665c-0.67,0.274-1.279,0.677-1.919,1.016
		c-1.334,0.707-2.796,1.134-4.253,1.528c-1.517,0.409-3.058,0.792-4.626,0.809c-2.26,0.025-4.465-0.703-6.721-0.797
		c-3.373-0.139-6.719,1.142-10.072,0.762c-1.258-0.142-2.65-0.662-3.093-1.848c-0.341-0.914-0.006-1.926,0.328-2.843
		c0.063-0.174,0.132-0.355,0.278-0.47c0.468-0.362,1.036,0.262,1.503,0.625c0.669,0.524,1.595,0.527,2.444,0.499
		c4.855-0.161,9.703-0.58,14.516-1.254c2.463-0.345,4.924-0.758,7.409-0.865c1.707-0.072,3.426-0.003,5.115-0.261
		c2.188-0.336,4.251-1.212,6.286-2.08c0.289-0.123,0.603-0.269,0.737-0.552c0.135-0.284-0.063-0.719-0.375-0.67"/>
	<path fill="#C89754" d="M2.224,14.662c-0.701,0.434-1.354,1.144-1.336,1.968c0.008,0.343,0.621,0.99,0.861,1.236
		c0.152,0.155,0.367,0.229,0.577,0.284c2.16,0.558,4.747,0.195,6.964-0.049c2.717-0.299,5.102-0.066,7.808-0.449
		c1.407-0.2,2.766-0.746,4.187-0.782c0.871-0.022,1.733,0.147,2.594,0.275c1.659,0.242,3.351,0.321,5.015,0.113
		c3.508-0.438,6.723-2.115,9.85-3.764c0.192-0.102,0.758,0.016,0.794-0.327c0.05-0.479,0.011-0.569-0.064-0.713
		c-0.438-0.827-1.394-1.604-2.309-1.799c-0.525-0.112-3.017-0.472-3.534-0.324c-3.572,1.015-5.292,2.159-8.954,2.786
		c-2.438,0.418-6.414-0.017-8.853,0.4c-3.946,0.677-6.431,2.204-10.397,1.656C4.222,15.008,3.421,14.458,2.224,14.662"/>
	<path fill="#F4D49D" d="M0,11.831c0.06-0.993,0.131-2.025,0.608-2.899c0.771-1.407,2.393-2.076,3.893-2.645l10.901-4.12
		c0.992-0.375,1.987-0.751,3.017-1.01c1.357-0.341,2.759-0.474,4.155-0.574c4.812-0.342,9.837-0.257,14.186,1.828
		c1.662,0.796,3.351,2.15,3.41,3.992c0.044,1.376-0.886,2.638-2.048,3.376c-1.163,0.738-2.538,1.05-3.884,1.35
		c-5.767,1.279-10.609,3.157-16.482,3.797c-1.302,0.142-3.55-0.363-4.839-0.132c-3.076,0.556-6.27,1.788-9.22,0.757
		C1.868,14.91,0.607,13.672,0,11.831"/>
	<path fill="#C89754" d="M0.608,8.932c-0.365,0.93-0.301,1.433,0.111,2.342c0.149,0.331,0.361,0.652,0.683,0.821
		c0.288,0.15,0.627,0.161,0.952,0.162c3.109,0.011,6.266-0.481,9.061-1.845c2.932-1.43,5.508-3.816,8.739-4.245
		c3.806-0.504,7.48,1.861,11.317,1.737c1.629-0.052,3.214-0.555,4.713-1.195c0.575-0.244,1.152-0.519,1.597-0.958
		s0.737-1.077,0.615-1.689c-0.179-0.9-1.122-1.406-1.973-1.748c-4.812-1.938-10.098-2.68-15.255-2.145
		c-1.412,0.146-2.828,0.392-4.136,0.944c-0.819,0.347-1.585,0.812-2.378,1.216c-1.501,0.769-3.097,1.326-4.68,1.906
		C7.112,5.283,5.277,5.984,2.474,7.184c-0.289,0.124-0.942,0.592-1.15,0.828c-0.208,0.235-0.715,0.92-0.766,0.954"/>
	<path fill="#F4D49D" d="M39.113,24.261c1.383-0.131,2.395,1.54,2.101,2.899c-0.291,1.358-1.425,2.364-2.567,3.153
		c-2.116,1.463-4.515,2.548-7.049,2.989c-1.158,0.202-2.339,0.271-3.485,0.531c-1.112,0.254-2.175,0.687-3.267,1.016
		c-1.563,0.472-3.183,0.729-4.794,0.985c-1.384,0.22-2.782,0.441-4.179,0.327c-1.539-0.125-3.014-0.651-4.468-1.172
		c-2.979-1.068-6.259-1.892-6.499-4.581c-0.019-0.215,0.48-0.476,0.666-0.365c0.186,0.109,0.06,0.031,0.204,0.189
		c0.526,0.569,0.41,0.472,1.138,0.739c0.822,0.303,2.384,0.349,3.205,0.651c0.856,0.316,0.921,0.844,1.833,0.814
		c4.016-0.122,8.032-0.246,12.035-0.571c1.275-0.104,2.554-0.229,3.795-0.542c1.08-0.272,2.119-0.685,3.155-1.095
		c2.087-0.826,4.173-1.652,6.26-2.479c0.342-0.136,0.695-0.278,0.957-0.538c0.734-0.732,0.435-1.997,0.878-2.934"/>
	<path fill="#C89754" d="M39.405,24.119c0.234,1.601-0.681,3.197-1.949,4.199c-1.268,1.003-2.845,1.519-4.396,1.972
		c-8.599,2.51-17.896,3.694-26.479,1.123c-0.609-0.183-1.406-0.604-1.238-1.218c0.117-0.426,3.859-0.494,5.817-0.387
		c6.057,0.329,12.092-0.751,18.061-1.827c1.392-0.251,2.794-0.505,4.118-1.003c1.858-0.699,3.514-1.859,5.36-2.588
		c0.18-0.07,0.375-0.137,0.559-0.081c0.183,0.056,0.316,0.293,0.202,0.446"/>
	<path fill="#F4D49D" d="M39.528,29.98c1.057,1.691,2.152,3.526,2.045,5.517c-0.096,1.786-1.188,3.413-2.615,4.491
		c-1.427,1.079-3.161,1.672-4.9,2.088c-1.565,0.374-3.159,0.618-4.751,0.861c-2.646,0.405-5.292,0.81-7.938,1.214
		c-0.962,0.148-1.928,0.295-2.901,0.307c-1.524,0.02-3.031-0.294-4.523-0.604c-3.076-0.642-6.374-1.408-8.455-3.761
		c-0.592-0.67-1.012-1.814-0.308-2.363c0.196-0.152,0.444-0.219,0.688-0.264c1.765-0.322,3.538,0.363,5.311,0.643
		c2.101,0.331,4.244,0.088,6.357-0.155c3.108-0.357,6.23-0.718,9.251-1.533c4.026-1.088,7.788-2.96,11.52-4.82
		c0.618-0.309,1.312-0.715,1.413-1.398"/>
	<path fill="#C89754" d="M39.983,30.095c0.627,1.135,0.495,2.196-0.067,3.364c-0.689,1.43-2.459,1.897-4.016,2.207
		c-2.358,0.471-4.719,0.94-7.078,1.41c-0.659,0.131-1.346,0.274-1.881,0.683c-0.552,0.419-0.874,1.066-1.335,1.584
		c-0.461,0.517-1.211,0.916-1.833,0.611c-0.283-0.137-0.483-0.395-0.715-0.607c-1.02-0.942-2.595-0.984-3.94-0.642
		c-1.345,0.342-2.594,1.006-3.948,1.309c-0.791,0.177-1.639,0.223-2.396-0.064c-1.084-0.411-1.868-1.453-2.993-1.731
		c-1.48-0.366-3.202,0.68-4.491-0.137C4.23,37.41,4.2,35.735,5,34.77c0.799-0.967,2.142-1.317,3.396-1.302
		c0.912,0.011,1.822,0.187,2.674,0.515c1.108,0.428,2.118,1.113,3.27,1.407c1.291,0.329,2.649,0.14,3.968-0.051
		c1.6-0.23,3.199-0.461,4.799-0.691c5.354-0.772,10.901-1.616,15.418-4.592C38.964,29.765,39.513,29.387,39.983,30.095"/>
	<path fill="#F4D49D" d="M40.193,30.878c-0.159,0.743-0.111,1.419,0.011,2.171c0.365,2.249,0.439,4.89-1.244,6.426
		c-0.572,0.522-1.291,0.852-2.003,1.164c-5.004,2.191-10.218,3.906-15.547,5.11c-2.798,0.634-5.68,0.303-8.5-0.219
		s-5.443-1.978-6.487-4.649c-0.091,1.893-0.84,4.142,2.646,5.751c1.584,0.73,3.196,1.372,4.94,1.443
		c1.745,0.073,3.522-0.025,5.204,0.443c1.281,0.356,2.47,1.035,3.78,1.263c0.979,0.17,1.982,0.081,2.971-0.026
		c1.864-0.202,3.73-0.472,5.532-0.994c2.8-0.813,5.383-2.219,7.94-3.614c1.264-0.69,2.575-1.42,3.394-2.605
		c1.468-2.121,0.936-4.983,0.345-7.495c-0.198-0.844-0.418-1.728-1.011-2.359c-0.64-0.686-1.115-1.05-1.577-1.866
		C40.537,30.734,40.279,30.474,40.193,30.878"/>
	<path fill="#C89754" d="M40.17,32.821c-0.167-0.379,1.319,3.206-0.357,4.795c-0.301,0.285-1.056-0.234-1.321,0.082
		c-1.486,1.781-3.905,2.403-6.141,3.025c-1.381,0.385-2.765,0.811-4.021,1.503c-0.55,0.303-1.072,0.655-1.646,0.905
		c-1.177,0.513-2.496,0.566-3.778,0.612c-3.01,0.108-6.061,0.212-8.992-0.469c-1.952-0.454-3.811-1.247-5.586-2.174
		c-0.594-0.311-1.312-0.638-1.894-0.31c-0.188,1.294,0.635,3.363,1.741,4.062c1.729,1.092,3.933,1.134,5.929,1.58
		c2.156,0.482,4.405,0.152,6.573-0.272c5.841-1.145,11.548-2.973,16.967-5.434c1.339-0.608,2.814-1.441,3.12-2.88
		c0.13-0.613,0.146-1.175,0.28-1.786c0.326-1.48,0.598-2.114,0.111-3.256c-0.114-0.272-1.191-1.642-1.048-0.549"/>
</g>
</svg>
