<?xml version="1.0" encoding="utf-8"?>
<!-- Generator: Adobe Illustrator 16.0.2, SVG Export Plug-In . SVG Version: 6.00 Build 0)  -->
<!DOCTYPE svg PUBLIC "-//W3C//DTD SVG 1.1//EN" "http://www.w3.org/Graphics/SVG/1.1/DTD/svg11.dtd">
<svg version="1.1" id="Layer_1" xmlns="http://www.w3.org/2000/svg" xmlns:xlink="http://www.w3.org/1999/xlink" x="0px" y="0px"
	 width="49.291px" height="43.471px" viewBox="0 0 49.291 43.471" enable-background="new 0 0 49.291 43.471" xml:space="preserve">
<g>
	<path fill="#ED2024" d="M41.898,15.579c1.51,2.789,2.54,6.08,1.639,9.12c-0.884,2.979-3.419,5.123-5.829,7.084
		c-2.432,1.978-4.862,3.957-7.293,5.935c-1.32,1.073-2.646,2.151-4.105,3.025c-3.175,1.902-6.954,2.777-10.642,2.466
		c0.764-1.467,2.025-2.668,3.529-3.358c0.757-0.348,1.564-0.567,2.343-0.867c1.325-0.514,2.55-1.257,3.766-1.995
		c3.29-2.001,6.581-4.001,9.871-6.002c1.517-0.922,3.207-2.117,3.312-3.891c0.114-1.963-1.838-3.77-1.272-5.652
		c0.333-1.106,1.496-2.189,0.92-3.19c-0.252-0.438-0.788-0.676-0.982-1.143c-0.149-0.362-0.055-0.782,0.118-1.135
		c0.473-0.966,1.546-1.604,2.621-1.559c1.074,0.046,2.09,0.774,2.479,1.777"/>
	<path fill="#F05423" d="M37.412,19.824c-1.288,0.591-1.178-0.31-2.131-1.357c-0.953-1.049-1.542-2.381-2.445-3.472
		c-0.414-0.499-0.94-0.968-1.584-1.048c-0.717-0.088-1.393,0.322-1.981,0.738c-2.804,1.981-5.2,4.496-8.005,6.478
		c-4.304,3.042-9.495,4.782-13.424,8.296c-1.882,1.684-3.514,4.085-3.04,6.565c0.422,2.213,2.372,3.771,4.264,4.994
		c1.856,1.2,3.879,2.307,6.085,2.441c0.424,0.026,0.861,0.014,1.252-0.15c0.407-0.169,0.73-0.486,1.053-0.787
		c5.854-5.479,14.207-7.666,20.056-13.15c0.953-0.895,1.876-1.962,2.03-3.26c0.228-1.919-1.286-3.788-0.854-5.672
		c0.043-0.192,0.107-0.396,0.038-0.579C38.549,19.39,37.844,19.565,37.412,19.824"/>
	<path fill="#F05423" d="M35.308,5.521c0.566-0.612,0.665-1.563,0.383-2.349c-0.283-0.785-0.894-1.416-1.583-1.886
		c-1.325-0.897-2.956-1.26-4.557-1.284c-1.601-0.025-3.188,0.268-4.757,0.582c-0.921,0.184-1.846,0.378-2.725,0.707
		c-1.141,0.428-2.185,1.073-3.228,1.702c-1.25,0.755-2.512,1.488-3.811,2.152c-2.178,1.114-4.471,2.035-6.48,3.431
		c-1.59,1.105-2.979,2.498-4.081,4.092c-0.153,0.221-0.768,2.019-0.591,2.222c0.124,0.141,0.343,0.141,0.529,0.118
		c1.315-0.161,2.952-2.375,4.072-3.084l11.063-7.008c1.303-0.825,2.715-1.682,4.256-1.606c0.866,0.042,1.691,0.382,2.459,0.788
		c1.106,0.586,2.136,1.322,3.048,2.181c0.605,0.57,1.173,1.203,1.898,1.61c0.727,0.407,1.677,0.545,2.372,0.09"/>
	<path fill="#ED2024" d="M31.629,8.039c0.076,1.086,0.152,2.172,0.228,3.258c0.076,1.076,0.134,2.228-0.415,3.156
		c-0.518,0.876-1.473,1.376-2.356,1.879c-3.843,2.188-7.162,5.212-11.022,7.37c-1.645,0.92-3.38,1.678-4.992,2.653
		c-1.97,1.193-3.729,2.696-5.526,4.137c-1.06,0.848-2.293,1.723-3.638,1.548c-0.966-0.125-1.796-0.795-2.325-1.611
		c-0.531-0.816-0.804-1.771-1.03-2.717c-0.434-1.805-0.734-3.685-0.422-5.514c0.349-2.038,1.429-3.87,2.55-5.608
		c1.019-1.58,2.121-3.161,3.656-4.246c1.946-1.378,4.411-1.828,6.45-3.067c1.167-0.709,2.174-1.664,3.367-2.326
		c0.901-0.499,1.789-1.654,2.718-2.101c1.406-0.676,2.762-0.797,4.127-1.554c0.253-0.14,0.519-0.277,0.808-0.292
		c0.317-0.019,0.622,0.113,0.907,0.253c1.681,0.828,3.345,1.454,4.748,2.697C30.219,6.626,30.87,7.367,31.629,8.039"/>
	<path fill="#ED2024" d="M33.293,8.79c0.906,1.187,1.812,2.373,2.719,3.56c0.164,0.214,0.33,0.432,0.544,0.597
		c0.2,0.154,0.435,0.256,0.67,0.345c0.619,0.23,1.333,0.362,1.923,0.066c0.545-0.273,0.868-0.863,1.005-1.457
		c0.415-1.807-0.601-3.618-1.718-5.097c-0.48-0.638-1.021-1.28-1.762-1.581c-0.74-0.301-1.73-0.135-2.119,0.563
		c-0.201,0.361-0.229,0.826-0.533,1.106c-0.337,0.311-0.889,0.276-1.234,0.576c-0.239,0.208-0.333,0.566-0.228,0.865
		c0.107,0.298,0.407,0.517,0.725,0.525"/>
	<path fill="#44612D" d="M36.166,12.161c-0.619-1.108-1.318-2.174-2.091-3.182c-0.559-0.73-1.552-1.492-2.286-0.939
		c-0.483,0.366-0.485,1.079-0.441,1.685c0.098,1.346,0.197,2.691,0.295,4.039c0.024,0.334,0.05,0.674,0.168,0.986
		c0.139,0.368,0.397,0.678,0.65,0.979c1.009,1.2,2.018,2.401,3.026,3.601c0.587,0.699,1.246,1.442,2.144,1.616
		c0.896,0.175,1.99-0.604,1.74-1.483c-0.135-0.473-0.587-0.782-0.809-1.221c-0.451-0.892,0.255-2.032,1.2-2.361
		c0.944-0.33,1.989-0.065,2.919,0.302c0.845,0.333,1.71,0.802,2.115,1.615c0.41,0.823,0.25,1.82-0.08,2.681
		c-0.331,0.859-0.82,1.658-1.072,2.543c-0.156,0.55-0.12,1.3,0.416,1.496c0.256,0.094,0.539,0.019,0.8-0.062
		c1.216-0.374,2.403-0.843,3.547-1.401c0.307-0.149,0.63-0.324,0.781-0.629c0.127-0.257,0.111-0.558,0.084-0.843
		c-0.227-2.434-0.963-4.818-2.149-6.957c-0.304-0.549-0.67-1.111-1.241-1.37c-0.489-0.222-1.052-0.185-1.587-0.143l-4.006,0.311
		c-1.488,0.114-3.26,0.106-4.125-1.11"/>
</g>
</svg>
