<?xml version="1.0" encoding="utf-8"?>
<!-- Generator: Adobe Illustrator 16.0.2, SVG Export Plug-In . SVG Version: 6.00 Build 0)  -->
<!DOCTYPE svg PUBLIC "-//W3C//DTD SVG 1.1//EN" "http://www.w3.org/Graphics/SVG/1.1/DTD/svg11.dtd">
<svg version="1.1" id="Layer_1" xmlns="http://www.w3.org/2000/svg" xmlns:xlink="http://www.w3.org/1999/xlink" x="0px" y="0px"
	 width="42.136px" height="43.51px" viewBox="0 0 42.136 43.51" enable-background="new 0 0 42.136 43.51" xml:space="preserve">
<g>
	<path fill="#9BC53D" d="M33.396,9.405c2.314,1.819,4.409,4.242,4.764,7.165c0.348,2.865-1.021,5.628-2.351,8.189
		c-1.34,2.582-2.682,5.167-4.022,7.75c-0.728,1.401-1.459,2.81-2.38,4.094c-2.003,2.793-4.899,4.934-8.157,6.029
		c0.11-1.53,0.742-3.021,1.767-4.163c0.517-0.576,1.125-1.063,1.676-1.605c0.941-0.927,1.71-2.012,2.473-3.09
		c2.064-2.92,4.129-5.84,6.194-8.759c0.952-1.347,1.95-2.989,1.384-4.537c-0.627-1.715-2.958-2.534-3.171-4.348
		c-0.125-1.065,0.466-2.418-0.396-3.058c-0.376-0.28-0.921-0.285-1.258-0.611c-0.262-0.253-0.336-0.646-0.318-1.01
		c0.046-0.998,0.725-1.938,1.657-2.296s2.066-0.112,2.768,0.599"/>
	<path fill="#44A84F" d="M31.141,14.679c-0.88,0.979-1.117,0.17-2.317-0.37c-1.199-0.541-2.192-1.459-3.365-2.054
		c-0.538-0.273-1.159-0.479-1.737-0.309c-0.643,0.189-1.066,0.788-1.415,1.36c-1.657,2.725-2.771,5.751-4.428,8.476
		c-2.544,4.182-6.324,7.581-8.374,12.025c-0.982,2.129-1.484,4.779-0.166,6.717c1.178,1.729,3.414,2.337,5.479,2.68
		c2.024,0.338,4.155,0.533,6.086-0.166c0.371-0.135,0.738-0.308,1.011-0.591c0.284-0.295,0.442-0.684,0.606-1.06
		c2.965-6.829,9.272-11.778,12.23-18.61c0.482-1.114,0.874-2.364,0.526-3.527c-0.516-1.72-2.495-2.752-2.823-4.518
		c-0.033-0.179-0.055-0.376-0.182-0.508C31.949,13.888,31.413,14.299,31.141,14.679"/>
	<path fill="#44A84F" d="M24.065,3.269c0.257-0.731-0.011-1.577-0.542-2.144c-0.53-0.563-1.283-0.877-2.044-1.021
		c-1.461-0.276-2.984,0.019-4.357,0.589c-1.373,0.568-2.616,1.404-3.838,2.252c-0.717,0.496-1.432,1.003-2.061,1.608
		c-0.814,0.786-1.464,1.722-2.12,2.643C8.316,8.3,7.513,9.392,6.651,10.438c-1.445,1.753-3.057,3.384-4.254,5.316
		C1.45,17.283,0.78,18.983,0.43,20.748c-0.049,0.244,0.092,2.004,0.316,2.11c0.158,0.075,0.345-0.005,0.495-0.094
		c1.062-0.624,1.64-3.114,2.331-4.132c2.279-3.353,4.559-6.705,6.838-10.057c0.805-1.185,1.692-2.436,3.031-2.94
		c0.755-0.284,1.583-0.299,2.387-0.236c1.16,0.09,2.309,0.337,3.403,0.732c0.726,0.262,1.443,0.592,2.212,0.671
		c0.769,0.078,1.629-0.155,2.055-0.8"/>
	<path fill="#9BC53D" d="M21.861,6.773c0.466,0.897,0.932,1.794,1.397,2.691c0.461,0.889,0.938,1.849,0.812,2.843
		c-0.118,0.938-0.746,1.716-1.313,2.471c-2.466,3.284-4.178,7.087-6.67,10.351c-1.062,1.392-2.26,2.678-3.272,4.104
		c-1.238,1.744-2.184,3.675-3.183,5.565c-0.589,1.113-1.316,2.315-2.527,2.663c-0.868,0.25-1.823-0.015-2.576-0.514
		c-0.753-0.5-1.337-1.213-1.881-1.936c-1.036-1.377-1.985-2.867-2.396-4.542c-0.456-1.865-0.212-3.825,0.102-5.72
		c0.284-1.723,0.639-3.478,1.546-4.968c1.15-1.894,3.084-3.187,4.363-4.995c0.732-1.035,1.237-2.222,2.011-3.227
		c0.583-0.758,0.913-2.069,1.539-2.793c0.95-1.096,2.059-1.699,2.942-2.848c0.163-0.213,0.34-0.428,0.58-0.548
		c0.264-0.131,0.572-0.133,0.866-0.119c1.739,0.085,3.388,0.004,5.042,0.544C20.137,6.09,20.965,6.48,21.861,6.773"/>
	<path fill="#9BC53D" d="M23.556,6.798c1.21,0.676,2.421,1.353,3.631,2.029c0.219,0.122,0.44,0.246,0.685,0.307
		c0.227,0.058,0.465,0.059,0.697,0.047c0.613-0.033,1.271-0.183,1.663-0.654c0.364-0.434,0.421-1.056,0.318-1.611
		c-0.313-1.693-1.849-2.861-3.345-3.709C26.559,2.84,25.861,2.493,25.12,2.51c-0.742,0.018-1.523,0.523-1.598,1.263
		c-0.038,0.381,0.109,0.788-0.046,1.14c-0.172,0.389-0.656,0.563-0.839,0.946c-0.127,0.266-0.075,0.606,0.126,0.82
		c0.201,0.215,0.537,0.29,0.811,0.181"/>
	<path fill="#44612D" d="M27.249,8.61c-0.937-0.716-1.926-1.364-2.956-1.938c-0.745-0.416-1.873-0.698-2.294,0.044
		c-0.277,0.49-0.016,1.099,0.245,1.598l1.743,3.332c0.144,0.276,0.291,0.557,0.508,0.779c0.254,0.263,0.588,0.431,0.915,0.594
		c1.303,0.65,2.606,1.3,3.909,1.951c0.759,0.378,1.595,0.768,2.423,0.585s1.472-1.251,0.934-1.907
		c-0.288-0.352-0.788-0.45-1.139-0.74c-0.714-0.595-0.532-1.826,0.15-2.455c0.682-0.63,1.671-0.791,2.599-0.821
		c0.843-0.028,1.753,0.051,2.398,0.594c0.653,0.551,0.886,1.46,0.922,2.314c0.035,0.854-0.086,1.715,0.026,2.563
		c0.069,0.526,0.378,1.152,0.906,1.121c0.253-0.015,0.466-0.183,0.658-0.348c0.899-0.768,1.737-1.605,2.505-2.504
		c0.206-0.24,0.416-0.509,0.434-0.825c0.014-0.264-0.111-0.515-0.239-0.748c-1.093-1.99-2.602-3.75-4.4-5.134
		c-0.462-0.355-0.981-0.699-1.565-0.709c-0.498-0.008-0.963,0.231-1.403,0.465c-1.101,0.581-2.199,1.162-3.3,1.743
		c-1.225,0.647-2.736,1.295-3.924,0.579"/>
</g>
</svg>
