<?xml version="1.0" encoding="utf-8"?>
<!-- Generator: Adobe Illustrator 16.0.2, SVG Export Plug-In . SVG Version: 6.00 Build 0)  -->
<!DOCTYPE svg PUBLIC "-//W3C//DTD SVG 1.1//EN" "http://www.w3.org/Graphics/SVG/1.1/DTD/svg11.dtd">
<svg version="1.1" id="Layer_1" xmlns="http://www.w3.org/2000/svg" xmlns:xlink="http://www.w3.org/1999/xlink" x="0px" y="0px"
	 width="37.582px" height="44.383px" viewBox="0 0 37.582 44.383" enable-background="new 0 0 37.582 44.383" xml:space="preserve">
<g>
	<path fill="#FFCB0B" d="M27.985,4.805c2.885,0.932,5.771,2.525,7.154,5.223c1.356,2.642,1.02,5.799,0.648,8.745
		c-0.374,2.973-0.748,5.945-1.122,8.918c-0.203,1.613-0.408,3.233-0.839,4.802c-0.939,3.411-2.973,6.512-5.729,8.73
		c-0.439-1.518-0.36-3.182,0.223-4.65c0.293-0.74,0.707-1.427,1.046-2.147c0.578-1.229,0.933-2.552,1.286-3.865
		c0.953-3.556,1.906-7.111,2.859-10.667c0.439-1.639,0.818-3.581-0.279-4.875c-1.218-1.433-3.761-1.392-4.612-3.067
		c-0.501-0.984-0.412-2.501-1.472-2.813c-0.463-0.137-0.99,0.055-1.433-0.142c-0.343-0.151-0.555-0.504-0.668-0.861
		c-0.312-0.979,0.009-2.131,0.782-2.808c0.773-0.679,1.956-0.845,2.887-0.409"/>
	<path fill="#EEA820" d="M27.686,10.702c-0.5,1.259-1.018,0.563-2.369,0.468c-1.351-0.095-2.637-0.627-3.982-0.784
		c-0.616-0.071-1.289-0.048-1.786,0.322c-0.554,0.412-0.75,1.142-0.882,1.818c-0.629,3.221-0.626,6.541-1.255,9.763
		c-0.966,4.945-3.406,9.575-3.802,14.599c-0.189,2.405,0.27,5.144,2.233,6.546c1.753,1.25,4.13,1.04,6.245,0.636
		c2.076-0.397,4.205-0.967,5.819-2.331c0.31-0.262,0.603-0.559,0.766-0.931c0.169-0.386,0.183-0.818,0.207-1.238
		c0.43-7.653,4.758-14.68,5.179-22.333c0.069-1.248,0.002-2.594-0.749-3.594c-1.109-1.478-3.391-1.77-4.336-3.356
		c-0.096-0.161-0.187-0.344-0.355-0.426C28.185,9.65,27.813,10.238,27.686,10.702"/>
	<path fill="#EEA820" d="M16.788,2.205c-0.014-0.797-0.574-1.52-1.287-1.876s-1.553-0.39-2.338-0.258
		c-1.51,0.254-2.877,1.081-3.998,2.12C8.042,3.23,7.138,4.48,6.26,5.735C5.745,6.471,5.234,7.214,4.844,8.023
		c-0.508,1.049-0.801,2.185-1.106,3.308c-0.366,1.346-0.754,2.688-1.213,4.004c-0.771,2.208-1.747,4.358-2.213,6.65
		c-0.37,1.813-0.411,3.693-0.121,5.522c0.04,0.254,0.804,1.902,1.06,1.926c0.18,0.016,0.33-0.128,0.443-0.268
		c0.803-0.979,0.473-3.591,0.779-4.821c1.006-4.05,2.012-8.099,3.018-12.148c0.356-1.43,0.768-2.955,1.881-3.92
		c0.627-0.543,1.422-0.854,2.221-1.079c1.152-0.326,2.349-0.496,3.547-0.505c0.796-0.007,1.604,0.057,2.376-0.142
		c0.77-0.197,1.518-0.729,1.698-1.504"/>
	<path fill="#FFCB0B" d="M15.907,6.375c0.771,0.7,1.539,1.4,2.31,2.101c0.763,0.694,1.563,1.452,1.797,2.456
		c0.22,0.947-0.109,1.923-0.388,2.855c-1.211,4.05-1.51,8.332-2.752,12.372c-0.53,1.722-1.229,3.391-1.698,5.131
		c-0.574,2.125-0.798,4.326-1.09,6.508c-0.171,1.285-0.446,2.705-1.491,3.473c-0.75,0.551-1.766,0.635-2.672,0.421
		c-0.905-0.214-1.723-0.693-2.506-1.197c-1.491-0.96-2.939-2.062-3.932-3.532c-1.105-1.639-1.568-3.619-1.941-5.561
		c-0.34-1.765-0.621-3.586-0.277-5.349c0.438-2.238,1.842-4.176,2.434-6.379c0.338-1.26,0.403-2.586,0.791-3.832
		c0.293-0.94,0.145-2.325,0.491-3.246c0.526-1.397,1.383-2.375,1.827-3.8c0.082-0.263,0.176-0.533,0.365-0.735
		C7.382,7.84,7.678,7.728,7.968,7.637c1.709-0.537,3.272-1.204,5.063-1.271C14,6.328,14.939,6.41,15.907,6.375"/>
	<path fill="#FFCB0B" d="M17.553,5.795c1.41,0.222,2.82,0.443,4.23,0.665c0.254,0.04,0.513,0.081,0.77,0.053
		c0.24-0.024,0.469-0.108,0.691-0.204c0.58-0.248,1.16-0.629,1.373-1.224c0.195-0.548,0.029-1.169-0.269-1.67
		c-0.906-1.523-2.804-2.104-4.553-2.39c-0.753-0.123-1.552-0.209-2.261,0.071c-0.711,0.281-1.285,1.05-1.094,1.788
		c0.1,0.382,0.387,0.723,0.362,1.117c-0.028,0.438-0.433,0.777-0.474,1.213c-0.027,0.302,0.144,0.611,0.414,0.748
		c0.271,0.136,0.623,0.089,0.848-0.114"/>
	<path fill="#44A84F" d="M21.765,6.229c-1.16-0.357-2.346-0.632-3.546-0.818c-0.868-0.137-2.058-0.007-2.2,0.86
		c-0.093,0.572,0.376,1.066,0.806,1.455l2.871,2.597c0.238,0.215,0.48,0.434,0.769,0.571c0.34,0.163,0.722,0.206,1.096,0.247
		c1.49,0.164,2.98,0.327,4.47,0.491c0.868,0.095,1.814,0.174,2.55-0.299c0.734-0.472,0.976-1.732,0.223-2.175
		c-0.405-0.236-0.922-0.152-1.365-0.31c-0.9-0.318-1.165-1.573-0.729-2.425c0.434-0.852,1.332-1.358,2.217-1.719
		c0.804-0.328,1.712-0.574,2.527-0.281c0.828,0.3,1.377,1.095,1.716,1.906c0.339,0.813,0.528,1.688,0.938,2.467
		c0.256,0.482,0.775,0.978,1.275,0.759c0.239-0.104,0.385-0.343,0.512-0.57c0.594-1.062,1.105-2.17,1.527-3.312
		c0.113-0.305,0.22-0.639,0.124-0.95c-0.081-0.261-0.292-0.458-0.498-0.638c-1.765-1.533-3.849-2.694-6.08-3.391
		c-0.572-0.178-1.197-0.324-1.763-0.126c-0.484,0.17-0.849,0.567-1.191,0.949c-0.854,0.953-1.709,1.905-2.564,2.858
		c-0.952,1.063-2.182,2.228-3.584,1.959"/>
</g>
</svg>
