<?xml version="1.0" encoding="utf-8"?>
<!-- Generator: Adobe Illustrator 16.0.2, SVG Export Plug-In . SVG Version: 6.00 Build 0)  -->
<!DOCTYPE svg PUBLIC "-//W3C//DTD SVG 1.1//EN" "http://www.w3.org/Graphics/SVG/1.1/DTD/svg11.dtd">
<svg version="1.1" id="Layer_1" xmlns="http://www.w3.org/2000/svg" xmlns:xlink="http://www.w3.org/1999/xlink" x="0px" y="0px"
	 width="63.672px" height="100.714px" viewBox="0 0 63.672 100.714" enable-background="new 0 0 63.672 100.714"
	 xml:space="preserve">
<g>
	<path fill="#FFCB0B" d="M3.297,14.7c-1.187,8.161,1.79,18.31,2.299,26.542C5.872,45.7,5.446,50.216,6.252,54.61
		c0.588,3.212,1.827,6.506,0.931,9.646c-0.552,1.931-1.868,3.577-2.404,5.513c-0.558,2.018-0.223,4.155-0.05,6.241
		c0.569,6.883-0.725,13.912-3.71,20.142c19.76-3.479,40.047,0.46,60.085-0.551c0.331-0.016,0.697-0.05,0.924-0.291
		c0.184-0.193,0.23-0.478,0.243-0.744c0.091-2.02-1.29-3.759-2.146-5.59c-1.666-3.558-1.387-7.695-2.313-11.515
		c-0.948-3.915-3.183-7.593-3.078-11.62c0.048-1.876,0.609-3.694,1.062-5.517c2.008-8.098,1.9-16.543,2.02-24.885
		c0.095-6.663,0.429-13.636,3.781-19.395c-7.296-2.959-12.814-0.066-19.458-0.375C37.761,15.466,33,16.5,28.637,16.094
		c-8.392-0.781-15.394-2.766-23.71-1.394"/>
	<path fill="#EEA820" d="M55.31,18.1c-0.199,0.998-1.145,1.708-2.13,1.959c-0.986,0.251-2.023,0.139-3.038,0.064
		c-4.069-0.299-8.189,0.048-12.136,1.08c0.541-0.358,1.083-0.715,1.624-1.072c0.344-0.228,0.713-0.489,0.818-0.887
		c0.107-0.398-1.111-0.995-1.5-0.855c5.146-0.545,11.192-0.324,16.365-0.185"/>
	<path fill="#D06728" d="M37.737,21.109c0.986,0.115,0.91-0.059,1.298-0.315c0.319-0.211,0.64-0.423,0.959-0.634
		c0.167-0.11,0.338-0.225,0.438-0.384c0.255-0.407-0.076-1.002-0.604-1.243c-0.528-0.241-1.164-0.174-1.628,0.066
		c-0.464,0.239-0.784,0.626-1.051,1.027c-0.184,0.276-0.352,0.588-0.276,0.92C36.948,20.879,37.372,21.204,37.737,21.109"/>
	<path fill="#EEA820" d="M7.214,60.632c-0.758-0.68-0.886-1.854-0.599-2.831s0.913-1.811,1.495-2.646
		c2.333-3.348,4.137-7.067,5.264-10.988c0.031,0.648,0.063,1.296,0.095,1.944c0.02,0.41,0.056,0.861,0.344,1.156
		s1.423-0.448,1.501-0.854c-2.157,4.704-5.432,9.79-8.191,14.168"/>
	<path fill="#D06728" d="M13.592,43.985c-0.602,0.789-0.414,0.813-0.391,1.276c0.018,0.383,0.036,0.766,0.056,1.148
		c0.009,0.2,0.02,0.406,0.105,0.573c0.221,0.427,0.901,0.445,1.379,0.115c0.477-0.332,0.742-0.912,0.773-1.435
		c0.031-0.521-0.139-0.994-0.347-1.427c-0.145-0.299-0.327-0.604-0.651-0.708C14.192,43.422,13.695,43.622,13.592,43.985"/>
	<path fill="#EEA820" d="M53.044,37.625c0.927,0.421,1.402,1.503,1.421,2.521c0.021,1.019-0.327,2.001-0.631,2.974
		c-1.219,3.893-1.821,7.982-1.718,12.061c-0.225-0.607-0.449-1.217-0.673-1.825c-0.144-0.387-0.313-0.806-0.678-1.001
		c-0.362-0.193-1.222,0.857-1.174,1.267c0.644-5.134,2.239-10.971,3.555-15.976"/>
	<path fill="#D06728" d="M51.964,55.42c0.337-0.933,0.151-0.9-0.01-1.335c-0.133-0.36-0.266-0.719-0.399-1.079
		c-0.068-0.188-0.142-0.38-0.273-0.514c-0.337-0.341-0.993-0.155-1.349,0.305c-0.354,0.459-0.435,1.093-0.307,1.599
		c0.127,0.508,0.431,0.907,0.76,1.258c0.228,0.241,0.492,0.477,0.833,0.479S51.973,55.797,51.964,55.42"/>
	<path fill="#EEA820" d="M60.111,16.924c-0.514,0.879-1.639,1.241-2.653,1.156c-1.014-0.085-1.957-0.53-2.893-0.932
		c-3.748-1.611-7.755-2.629-11.822-2.943c0.628-0.161,1.256-0.322,1.885-0.483c0.399-0.102,0.834-0.229,1.064-0.57
		c0.23-0.342-0.727-1.304-1.139-1.298c5.042,1.165,10.684,3.349,15.527,5.169"/>
	<path fill="#EEA820" d="M3.513,9.594c0.992-0.227,2.026,0.346,2.658,1.144c0.632,0.798,0.953,1.79,1.3,2.747
		c1.391,3.835,3.39,7.454,5.943,10.635c-0.547-0.348-1.094-0.696-1.642-1.043c-0.349-0.222-0.737-0.452-1.145-0.386
		c-0.407,0.065-0.453,1.421-0.167,1.718c-2.6-4.474-4.868-10.083-6.854-14.861"/>
	<path fill="#D06728" d="M13.438,24.403c-0.298-0.946-0.425-0.807-0.817-1.056c-0.323-0.205-0.646-0.411-0.971-0.616
		c-0.169-0.108-0.344-0.217-0.53-0.243c-0.475-0.067-0.883,0.479-0.888,1.059c-0.004,0.581,0.317,1.133,0.726,1.459
		s0.893,0.46,1.366,0.539c0.327,0.055,0.681,0.081,0.953-0.123C13.552,25.218,13.675,24.697,13.438,24.403"/>
	<path fill="#EEA820" d="M34.682,62.064c-0.664,0.771-1.836,0.924-2.818,0.656c-0.982-0.266-1.829-0.875-2.677-1.438
		c-3.395-2.262-7.151-3.987-11.096-5.031c0.646-0.045,1.294-0.09,1.94-0.135c0.411-0.028,0.862-0.074,1.15-0.368
		c0.289-0.295-0.479-1.413-0.885-1.481c4.748,2.056,9.901,5.224,14.337,7.89"/>
	<path fill="#D06728" d="M17.903,56.037c0.801,0.585,0.821,0.397,1.284,0.364c0.383-0.025,0.765-0.053,1.146-0.08
		c0.2-0.014,0.406-0.028,0.571-0.119c0.422-0.228,0.427-0.908,0.086-1.379c-0.341-0.47-0.928-0.724-1.45-0.744
		c-0.521-0.019-0.991,0.16-1.42,0.377c-0.295,0.151-0.595,0.34-0.693,0.666S17.538,55.94,17.903,56.037"/>
	<path fill="#EEA820" d="M55.11,35.288c-1.001-0.186-1.722-1.121-1.986-2.104c-0.265-0.983-0.165-2.022-0.104-3.038
		c0.245-4.072-0.154-8.187-1.237-12.12c0.363,0.537,0.729,1.073,1.093,1.609c0.231,0.341,0.498,0.708,0.896,0.809
		c0.4,0.101,0.98-1.126,0.835-1.511c0.613,5.137,0.471,11.186,0.399,16.359"/>
	<path fill="#D06728" d="M51.872,17.757c-0.102,0.987,0.07,0.909,0.332,1.293c0.216,0.317,0.432,0.634,0.646,0.951
		c0.113,0.166,0.229,0.335,0.39,0.433c0.41,0.25,1.001-0.089,1.235-0.62c0.234-0.531,0.159-1.166-0.087-1.627
		c-0.245-0.461-0.636-0.776-1.04-1.037c-0.279-0.18-0.593-0.344-0.925-0.265C52.093,16.965,51.772,17.393,51.872,17.757"/>
	<path fill="#EEA820" d="M29.75,38.41c1.014,0.083,1.827,0.941,2.19,1.892c0.362,0.951,0.369,1.994,0.411,3.012
		c0.169,4.075,0.986,8.128,2.464,11.931c-0.418-0.496-0.834-0.993-1.252-1.49c-0.265-0.314-0.566-0.651-0.975-0.712
		c-0.408-0.06-0.86,1.219-0.677,1.588c-1.132-5.049-1.604-11.081-2.06-16.234"/>
	<path fill="#D06728" d="M34.753,55.521c0.001-0.992-0.163-0.896-0.461-1.253c-0.247-0.293-0.494-0.587-0.74-0.88
		c-0.129-0.154-0.262-0.31-0.432-0.392c-0.434-0.206-0.987,0.19-1.166,0.742c-0.18,0.554-0.039,1.177,0.252,1.609
		c0.291,0.435,0.712,0.708,1.141,0.927c0.295,0.151,0.624,0.282,0.946,0.169C34.615,56.333,34.889,55.874,34.753,55.521"/>
	<path fill="#EEA820" d="M31.271,76.83c-0.986,0.252-2.034-0.296-2.686-1.076c-0.653-0.782-0.998-1.767-1.369-2.714
		c-1.486-3.8-3.577-7.366-6.211-10.481c0.556,0.334,1.111,0.668,1.668,1.002c0.353,0.212,0.749,0.433,1.153,0.357
		c0.405-0.076,0.417-1.434,0.123-1.723c2.713,4.406,5.122,9.956,7.229,14.683"/>
	<path fill="#D06728" d="M20.975,62.276c0.321,0.938,0.445,0.796,0.844,1.035c0.328,0.196,0.657,0.394,0.986,0.591
		c0.172,0.103,0.349,0.208,0.536,0.229c0.476,0.056,0.87-0.501,0.859-1.082c-0.01-0.58-0.345-1.124-0.761-1.438
		c-0.417-0.316-0.904-0.438-1.38-0.505c-0.329-0.047-0.684-0.064-0.95,0.147C20.842,61.464,20.731,61.988,20.975,62.276"/>
	<path fill="#EEA820" d="M27.34,19.744c-0.188,1-1.125,1.72-2.109,1.982c-0.983,0.261-2.021,0.16-3.038,0.096
		c-4.07-0.255-8.187,0.136-12.122,1.209c0.537-0.363,1.074-0.726,1.611-1.089c0.342-0.231,0.708-0.496,0.812-0.896
		c0.102-0.399-1.123-0.982-1.511-0.838c5.141-0.601,11.188-0.444,16.362-0.36"/>
	<path fill="#D06728" d="M9.801,22.94c0.987,0.104,0.91-0.068,1.294-0.329c0.318-0.214,0.635-0.429,0.952-0.644
		c0.166-0.112,0.336-0.228,0.435-0.389c0.25-0.409-0.087-1.001-0.617-1.236c-0.531-0.236-1.165-0.162-1.627,0.083
		c-0.462,0.244-0.777,0.635-1.039,1.038c-0.182,0.278-0.347,0.592-0.268,0.924C9.009,22.718,9.437,23.039,9.801,22.94"/>
	<path fill="#EEA820" d="M25.633,34.835c-0.474-0.9-0.185-2.047,0.425-2.862s1.486-1.38,2.322-1.961
		c3.352-2.325,6.338-5.185,8.759-8.469c-0.196,0.619-0.393,1.237-0.589,1.855c-0.124,0.393-0.247,0.828-0.08,1.205
		c0.168,0.376,1.491,0.074,1.704-0.279c-3.658,3.659-8.499,7.288-12.609,10.433"/>
	<path fill="#D06728" d="M37.405,21.448c-0.839,0.53-0.671,0.618-0.811,1.061c-0.116,0.365-0.232,0.73-0.347,1.096
		c-0.062,0.191-0.122,0.387-0.101,0.574c0.058,0.476,0.69,0.731,1.252,0.587c0.563-0.145,1.015-0.597,1.225-1.075
		s0.216-0.98,0.172-1.459c-0.031-0.33-0.098-0.678-0.364-0.89C38.165,21.131,37.63,21.144,37.405,21.448"/>
	<path fill="#EEA820" d="M55.238,49.176c0.708,0.731,0.755,1.912,0.4,2.866c-0.354,0.954-1.036,1.743-1.675,2.536
		c-2.558,3.178-4.615,6.764-6.01,10.598c0.014-0.648,0.026-1.297,0.041-1.944c0.009-0.412,0.003-0.865-0.265-1.18
		c-0.267-0.313-1.449,0.351-1.556,0.748c2.477-4.543,6.096-9.391,9.15-13.567"/>
	<path fill="#D06728" d="M47.725,65.344c0.655-0.745,0.469-0.782,0.479-1.246c0.009-0.385,0.016-0.768,0.023-1.15
		c0.004-0.2,0.007-0.406-0.067-0.579c-0.188-0.44-0.867-0.507-1.365-0.209c-0.499,0.297-0.805,0.858-0.871,1.376
		c-0.067,0.519,0.069,1.001,0.248,1.448c0.122,0.308,0.283,0.624,0.6,0.751C47.087,65.863,47.596,65.698,47.725,65.344"/>
	<path fill="#EEA820" d="M48.558,47.899c-0.921-0.435-1.381-1.522-1.387-2.54c-0.006-1.019,0.354-1.997,0.672-2.964
		c1.273-3.876,1.933-7.957,1.886-12.037c0.216,0.611,0.432,1.223,0.647,1.835c0.138,0.388,0.303,0.81,0.662,1.01
		c0.361,0.199,1.234-0.84,1.192-1.25c-0.714,5.125-2.391,10.939-3.774,15.924"/>
	<path fill="#D06728" d="M49.884,30.121c-0.35,0.928-0.163,0.896-0.008,1.335c0.128,0.36,0.256,0.723,0.383,1.084
		c0.067,0.188,0.137,0.383,0.267,0.518c0.333,0.346,0.991,0.168,1.354-0.286c0.36-0.454,0.449-1.087,0.329-1.595
		s-0.418-0.912-0.743-1.268c-0.223-0.246-0.485-0.483-0.826-0.491C50.298,29.41,49.88,29.744,49.884,30.121"/>
	<path fill="#EEA820" d="M12.217,33.45c-1.018,0.046-1.933-0.702-2.411-1.6c-0.48-0.897-0.619-1.932-0.789-2.935
		c-0.683-4.021-2.006-7.939-3.951-11.524c0.477,0.439,0.953,0.879,1.43,1.319c0.303,0.28,0.645,0.576,1.057,0.584
		c0.412,0.008,0.7-1.318,0.471-1.661c1.761,4.866,2.992,10.79,4.094,15.845"/>
	<path fill="#D06728" d="M5.092,17.107c0.124,0.984,0.275,0.87,0.616,1.185c0.282,0.259,0.563,0.519,0.845,0.779
		c0.147,0.136,0.3,0.275,0.479,0.334c0.456,0.15,0.955-0.314,1.062-0.884c0.108-0.571-0.108-1.171-0.452-1.565
		c-0.344-0.393-0.797-0.611-1.248-0.774c-0.313-0.113-0.655-0.201-0.96-0.049C5.127,16.286,4.912,16.775,5.092,17.107"/>
	<path fill="#EEA820" d="M13.236,60.289c-0.483-0.896-0.207-2.045,0.393-2.867s1.47-1.396,2.3-1.985
		c3.325-2.363,6.279-5.257,8.663-8.567c-0.19,0.62-0.379,1.241-0.568,1.861c-0.119,0.394-0.237,0.831-0.065,1.206
		c0.171,0.373,1.491,0.057,1.7-0.299c-3.617,3.7-8.417,7.384-12.491,10.573"/>
	<path fill="#D06728" d="M24.857,46.77c-0.833,0.539-0.663,0.625-0.799,1.069c-0.111,0.366-0.223,0.733-0.335,1.1
		c-0.058,0.191-0.117,0.39-0.093,0.575c0.063,0.477,0.698,0.725,1.258,0.573c0.562-0.15,1.007-0.607,1.212-1.088
		c0.205-0.481,0.205-0.983,0.155-1.461c-0.034-0.33-0.104-0.678-0.373-0.886C25.613,46.444,25.079,46.463,24.857,46.77"/>
	<path fill="#EEA820" d="M48.814,56.948c-0.918,0.438-2.052,0.106-2.846-0.532c-0.792-0.64-1.322-1.537-1.87-2.395
		c-2.199-3.436-4.945-6.526-8.136-9.068c0.61,0.219,1.221,0.438,1.831,0.656c0.387,0.14,0.818,0.279,1.201,0.125
		c0.382-0.152,0.129-1.485-0.215-1.713c3.52,3.793,6.965,8.768,9.953,12.991"/>
	<path fill="#D06728" d="M35.877,44.681c0.498,0.858,0.592,0.694,1.028,0.851c0.361,0.13,0.723,0.259,1.083,0.388
		c0.188,0.067,0.384,0.136,0.57,0.121c0.479-0.039,0.757-0.661,0.633-1.229c-0.123-0.566-0.558-1.035-1.027-1.263
		c-0.47-0.229-0.972-0.253-1.451-0.226c-0.332,0.018-0.683,0.07-0.903,0.329C35.588,43.912,35.582,44.446,35.877,44.681"/>
	<path fill="#EEA820" d="M30.124,37.279c0.516-0.878,1.641-1.236,2.655-1.149s1.956,0.533,2.891,0.938
		c3.745,1.619,7.75,2.646,11.815,2.969c-0.628,0.16-1.257,0.319-1.885,0.479c-0.4,0.101-0.835,0.227-1.066,0.568
		c-0.23,0.341,0.725,1.305,1.137,1.3c-5.039-1.176-10.678-3.372-15.517-5.203"/>
	<path fill="#D06728" d="M47.708,40.212c-0.893-0.432-0.879-0.244-1.328-0.129c-0.371,0.094-0.743,0.188-1.114,0.283
		c-0.194,0.05-0.395,0.102-0.541,0.219c-0.374,0.3-0.257,0.972,0.163,1.373c0.419,0.401,1.041,0.546,1.558,0.473
		c0.519-0.073,0.947-0.334,1.33-0.625c0.265-0.2,0.526-0.439,0.564-0.778C48.379,40.69,48.085,40.243,47.708,40.212"/>
	<path fill="#EEA820" d="M38.173,25.141c-1.215-2.655-2.43-5.31-3.645-7.965c1.027,0.862,1.079,2.543,2.149,3.35
		c0.38,0.286,1.021,0.373,1.255-0.04c0.135-0.238,0.066-0.535-0.012-0.798c-0.219-0.734-0.493-1.451-0.819-2.144
		c0.937,0.919,1.698,2.015,2.232,3.214c0.365,0.819,0.624,1.68,0.881,2.539c0.541,1.805,1.081,3.61,1.622,5.414
		c-1.57-0.894-2.756-2.327-3.837-3.776"/>
	<path fill="#D06728" d="M34.951,18.171c-0.194-0.359-0.392-0.731-0.43-1.133c-0.038-0.403,0.127-0.848,0.488-0.998
		c0.45-0.187,0.959,0.143,1.326,0.493c0.61,0.584,1.121,1.276,1.501,2.034c0.191,0.382,0.353,0.796,0.341,1.218
		c-0.012,0.422-0.235,0.853-0.621,0.99c-0.469,0.168-0.985-0.131-1.385-0.458C35.267,19.575,35.431,19.246,34.951,18.171"/>
	<path fill="#EEA820" d="M33.207,37.253l-4.675,7.406c0.159-1.331,1.538-2.293,1.629-3.632c0.031-0.473-0.246-1.058-0.72-1.026
		c-0.272,0.017-0.484,0.235-0.662,0.444c-0.495,0.585-0.945,1.207-1.347,1.859c0.257-1.286,0.758-2.524,1.469-3.627
		c0.486-0.753,1.066-1.441,1.646-2.126c1.215-1.44,2.43-2.879,3.645-4.319c0.111,1.804-0.44,3.58-1.063,5.277"/>
	<path fill="#D06728" d="M29.134,43.763c-0.193,0.357-0.397,0.727-0.714,0.979c-0.315,0.252-0.778,0.357-1.102,0.137
		c-0.403-0.273-0.405-0.881-0.313-1.379c0.154-0.831,0.454-1.637,0.882-2.37c0.215-0.369,0.473-0.73,0.833-0.95
		c0.359-0.222,0.843-0.271,1.169-0.022c0.396,0.301,0.429,0.897,0.373,1.41C30.136,42.731,29.772,42.773,29.134,43.763"/>
	<path fill="#EEA820" d="M19.356,41.164l7.957,3.661c-1.341,0.016-2.476-1.225-3.813-1.139c-0.475,0.031-1.018,0.383-0.926,0.85
		c0.055,0.268,0.3,0.448,0.529,0.597c0.646,0.414,1.321,0.779,2.021,1.091c-1.31-0.085-2.603-0.42-3.789-0.979
		c-0.811-0.384-1.568-0.867-2.323-1.352c-1.587-1.015-3.174-2.03-4.761-3.046c1.773-0.346,3.606-0.033,5.371,0.361"/>
	<path fill="#D06728" d="M26.345,44.345c0.381,0.146,0.773,0.299,1.065,0.579c0.291,0.28,0.455,0.726,0.28,1.075
		c-0.22,0.435-0.82,0.517-1.327,0.489c-0.844-0.044-1.683-0.234-2.464-0.562c-0.396-0.164-0.787-0.373-1.054-0.7
		c-0.266-0.329-0.378-0.801-0.175-1.157c0.246-0.432,0.833-0.543,1.349-0.555C25.19,43.487,25.28,43.843,26.345,44.345"/>
	<path fill="#EEA820" d="M25.822,17.378c2.539,1.441,5.079,2.881,7.618,4.322c-1.338-0.097-2.363-1.429-3.704-1.456
		c-0.476-0.01-1.046,0.295-0.993,0.767c0.031,0.271,0.259,0.473,0.476,0.639c0.607,0.468,1.25,0.889,1.921,1.259
		c-1.298-0.196-2.558-0.639-3.692-1.298c-0.775-0.45-1.489-0.997-2.201-1.543c-1.495-1.146-2.99-2.292-4.485-3.439
		c1.799-0.195,3.598,0.273,5.322,0.815"/>
	<path fill="#D06728" d="M32.516,21.141c0.367,0.177,0.745,0.363,1.012,0.667c0.267,0.304,0.393,0.762,0.188,1.095
		c-0.255,0.415-0.861,0.445-1.364,0.376c-0.836-0.115-1.656-0.377-2.408-0.769c-0.379-0.197-0.752-0.438-0.989-0.787
		c-0.236-0.35-0.309-0.83-0.076-1.167c0.281-0.411,0.876-0.471,1.392-0.439C31.438,20.188,31.496,20.55,32.516,21.141"/>
	<path fill="#EEA820" d="M13.766,41.601c-1.025,2.734-2.052,5.468-3.076,8.201c-0.114-1.336,1.041-2.558,0.858-3.887
		c-0.064-0.47-0.456-0.986-0.913-0.86c-0.264,0.073-0.427,0.33-0.558,0.57C9.711,46.298,9.396,47,9.135,47.719
		c-0.009-1.312,0.231-2.626,0.704-3.85c0.323-0.836,0.751-1.627,1.18-2.415c0.897-1.656,1.796-3.313,2.693-4.968
		c0.475,1.743,0.294,3.595,0.028,5.383"/>
	<path fill="#D06728" d="M11.097,48.801c-0.118,0.391-0.242,0.793-0.501,1.104c-0.258,0.311-0.691,0.507-1.051,0.356
		c-0.451-0.187-0.575-0.781-0.585-1.288c-0.019-0.844,0.113-1.694,0.382-2.499c0.136-0.404,0.315-0.811,0.623-1.1
		s0.771-0.436,1.14-0.258c0.45,0.214,0.603,0.791,0.652,1.305C11.869,47.587,11.521,47.704,11.097,48.801"/>
	<path fill="#EEA820" d="M44.236,64.818c2.896,0.368,5.793,0.734,8.689,1.103c-1.274,0.419-2.729-0.424-3.98,0.062
		c-0.441,0.171-0.854,0.67-0.627,1.086c0.132,0.239,0.42,0.339,0.685,0.411c0.738,0.2,1.492,0.347,2.254,0.435
		c-1.275,0.311-2.608,0.38-3.908,0.202c-0.888-0.122-1.757-0.356-2.622-0.591c-1.819-0.492-3.637-0.984-5.456-1.478
		c1.589-0.863,3.431-1.114,5.232-1.268"/>
	<path fill="#D06728" d="M51.857,65.755c0.407,0.024,0.827,0.053,1.189,0.232c0.362,0.181,0.652,0.556,0.59,0.941
		c-0.078,0.48-0.627,0.739-1.118,0.866c-0.816,0.211-1.675,0.28-2.519,0.203c-0.427-0.039-0.863-0.119-1.216-0.353
		c-0.352-0.233-0.601-0.65-0.514-1.05c0.105-0.487,0.631-0.769,1.12-0.936C50.499,65.283,50.69,65.596,51.857,65.755"/>
	<path fill="#EEA820" d="M38.045,67.901c-1.506,2.501-3.012,5.002-4.518,7.504c0.131-1.335,1.488-2.326,1.552-3.666
		c0.021-0.474-0.268-1.053-0.741-1.012c-0.272,0.022-0.479,0.247-0.651,0.459c-0.483,0.595-0.921,1.226-1.309,1.887
		c0.23-1.292,0.705-2.54,1.394-3.657c0.47-0.764,1.035-1.463,1.6-2.159c1.184-1.466,2.369-2.931,3.554-4.396
		c0.148,1.802-0.365,3.589-0.953,5.299"/>
	<path fill="#EEA820" d="M9.997,32.749l2.76,8.313c-0.929-0.969-0.797-2.645-1.774-3.563c-0.346-0.325-0.974-0.481-1.251-0.096
		c-0.159,0.222-0.124,0.524-0.075,0.794c0.138,0.753,0.332,1.496,0.582,2.221c-0.832-1.015-1.47-2.188-1.871-3.438
		c-0.273-0.854-0.437-1.738-0.6-2.62c-0.342-1.853-0.683-3.705-1.025-5.558c1.465,1.06,2.487,2.613,3.404,4.171"/>
	<path fill="#D06728" d="M12.444,40.027c0.154,0.377,0.311,0.77,0.304,1.173c-0.006,0.405-0.219,0.829-0.594,0.939
		c-0.468,0.137-0.938-0.246-1.264-0.634c-0.544-0.646-0.978-1.391-1.273-2.186c-0.147-0.399-0.264-0.829-0.206-1.247
		c0.059-0.419,0.327-0.823,0.726-0.918c0.483-0.115,0.966,0.238,1.327,0.606C12.282,38.597,12.084,38.906,12.444,40.027"/>
	<path fill="#EEA820" d="M46.973,28.618c-0.239,2.91-0.478,5.82-0.717,8.73c-0.475-1.256,0.302-2.746-0.237-3.975
		c-0.189-0.434-0.707-0.825-1.112-0.578c-0.234,0.143-0.32,0.435-0.38,0.701c-0.17,0.747-0.28,1.507-0.334,2.272
		c-0.368-1.261-0.496-2.589-0.377-3.896c0.082-0.893,0.278-1.771,0.475-2.646c0.411-1.838,0.823-3.677,1.233-5.515
		c0.934,1.548,1.266,3.378,1.499,5.17"/>
	<path fill="#D06728" d="M46.374,36.273c-0.007,0.407-0.016,0.829-0.18,1.199c-0.164,0.369-0.526,0.676-0.914,0.631
		c-0.484-0.057-0.766-0.594-0.915-1.079c-0.247-0.807-0.354-1.661-0.315-2.508c0.021-0.427,0.081-0.867,0.3-1.229
		c0.217-0.361,0.622-0.629,1.025-0.56c0.491,0.083,0.795,0.596,0.984,1.077C46.785,34.894,46.481,35.101,46.374,36.273"/>
	<path fill="#EEA820" d="M18.862,60.476c-0.629,2.851-1.258,5.702-1.887,8.553c-0.301-1.307,0.67-2.679,0.301-3.969
		c-0.13-0.456-0.59-0.912-1.024-0.724c-0.251,0.11-0.376,0.388-0.472,0.645c-0.268,0.718-0.48,1.456-0.638,2.206
		c-0.194-1.298-0.142-2.633,0.153-3.911c0.202-0.874,0.515-1.717,0.826-2.558c0.655-1.767,1.311-3.532,1.966-5.3
		c0.716,1.66,0.798,3.519,0.789,5.326"/>
	<path fill="#D06728" d="M17.238,67.981c-0.062,0.402-0.128,0.818-0.341,1.163c-0.212,0.345-0.611,0.6-0.989,0.503
		c-0.473-0.122-0.681-0.692-0.761-1.192c-0.138-0.834-0.129-1.694,0.024-2.528c0.077-0.421,0.197-0.848,0.461-1.178
		c0.265-0.329,0.702-0.539,1.093-0.417c0.476,0.149,0.708,0.699,0.829,1.201C17.831,66.669,17.502,66.833,17.238,67.981"/>
	<path fill="#EEA820" d="M40.315,62.583l-1.254-8.669c0.742,1.117,0.318,2.744,1.119,3.819c0.283,0.382,0.875,0.646,1.215,0.315
		c0.195-0.191,0.215-0.495,0.214-0.77c-0.003-0.766-0.064-1.531-0.184-2.288c0.641,1.146,1.063,2.412,1.238,3.713
		c0.119,0.889,0.125,1.788,0.13,2.685c0.01,1.884,0.021,3.768,0.031,5.652c-1.255-1.301-1.989-3.01-2.617-4.705"/>
	<path fill="#D06728" d="M39.187,54.988c-0.085-0.398-0.17-0.811-0.094-1.208c0.077-0.397,0.362-0.777,0.749-0.819
		c0.485-0.054,0.88,0.406,1.135,0.847c0.421,0.73,0.717,1.54,0.867,2.374c0.076,0.42,0.115,0.863-0.016,1.264
		c-0.131,0.402-0.466,0.753-0.875,0.776c-0.497,0.029-0.909-0.404-1.2-0.83C39.094,56.424,39.344,56.155,39.187,54.988"/>
	<path fill="#EEA820" d="M31.313,58.475c0.763-2.819,1.524-5.638,2.285-8.456c0.24,1.319-0.794,2.646-0.485,3.95
		c0.108,0.463,0.547,0.939,0.989,0.771c0.256-0.097,0.395-0.369,0.501-0.62c0.302-0.705,0.55-1.432,0.74-2.174
		c0.133,1.306,0.02,2.636-0.336,3.898c-0.242,0.864-0.594,1.691-0.945,2.517c-0.736,1.733-1.475,3.468-2.212,5.201
		c-0.637-1.691-0.633-3.552-0.538-5.356"/>
	<path fill="#D06728" d="M33.288,51.054c0.08-0.4,0.166-0.812,0.395-1.146c0.228-0.334,0.64-0.57,1.013-0.455
		c0.466,0.143,0.646,0.722,0.704,1.226c0.097,0.839,0.048,1.698-0.144,2.524c-0.097,0.416-0.236,0.837-0.517,1.153
		c-0.278,0.317-0.726,0.506-1.109,0.366c-0.469-0.171-0.676-0.73-0.773-1.238C32.635,52.336,32.971,52.188,33.288,51.054"/>
	<path fill="#EEA820" d="M9.027,69.754c-0.149-2.916-0.298-5.832-0.446-8.748c0.637,1.181,0.063,2.761,0.761,3.906
		c0.247,0.406,0.812,0.725,1.181,0.427c0.213-0.173,0.26-0.474,0.283-0.745c0.068-0.764,0.078-1.531,0.031-2.296
		c0.531,1.199,0.834,2.5,0.888,3.812c0.037,0.896-0.041,1.791-0.118,2.686c-0.165,1.876-0.329,3.753-0.493,5.63
		c-1.129-1.411-1.701-3.182-2.17-4.928"/>
	<path fill="#D06728" d="M8.606,62.086c-0.047-0.404-0.094-0.822,0.02-1.212c0.113-0.388,0.432-0.739,0.822-0.746
		c0.487-0.008,0.838,0.487,1.049,0.948c0.353,0.768,0.572,1.6,0.646,2.444c0.037,0.426,0.034,0.87-0.133,1.257
		c-0.167,0.388-0.534,0.706-0.943,0.692c-0.498-0.019-0.868-0.486-1.118-0.938C8.382,63.508,8.655,63.263,8.606,62.086"/>
	<path fill="#EEA820" d="M15.826,28.47l3.107,8.188c-0.969-0.928-0.907-2.607-1.923-3.484c-0.358-0.311-0.994-0.44-1.254-0.043
		c-0.15,0.229-0.102,0.528-0.042,0.796c0.17,0.747,0.396,1.481,0.676,2.195c-0.874-0.979-1.561-2.124-2.015-3.356
		c-0.311-0.841-0.51-1.718-0.71-2.592c-0.419-1.837-0.839-3.673-1.259-5.51c1.509,0.997,2.595,2.506,3.578,4.023"/>
	<path fill="#D06728" d="M18.578,35.638c0.169,0.371,0.342,0.756,0.354,1.159c0.011,0.405-0.185,0.837-0.554,0.963
		c-0.462,0.157-0.947-0.206-1.29-0.58c-0.57-0.622-1.035-1.347-1.363-2.129c-0.166-0.394-0.3-0.816-0.26-1.237
		c0.04-0.42,0.292-0.835,0.687-0.947c0.479-0.136,0.974,0.197,1.351,0.55C18.356,34.217,18.171,34.534,18.578,35.638"/>
	<path fill="#EEA820" d="M26.442,30.672l-4.713,7.383c0.166-1.331,1.551-2.286,1.647-3.624c0.035-0.473-0.24-1.06-0.714-1.03
		c-0.273,0.016-0.486,0.233-0.664,0.441c-0.498,0.582-0.952,1.202-1.357,1.853c0.265-1.286,0.772-2.521,1.489-3.62
		c0.49-0.751,1.073-1.436,1.655-2.117c1.223-1.433,2.445-2.867,3.669-4.3c0.1,1.805-0.461,3.578-1.092,5.272"/>
	<path fill="#D06728" d="M22.336,37.161c-0.195,0.357-0.4,0.725-0.719,0.976c-0.318,0.25-0.781,0.353-1.103,0.132
		c-0.402-0.277-0.4-0.885-0.306-1.383c0.159-0.828,0.463-1.634,0.895-2.364c0.216-0.368,0.476-0.729,0.838-0.946
		c0.36-0.219,0.844-0.266,1.169-0.016c0.395,0.303,0.424,0.898,0.366,1.411C23.345,36.133,22.979,36.174,22.336,37.161"/>
	<path fill="#B72027" d="M0.261,4.136C0.636,2.83-0.461,1.89,0.313,0.772c0.55-0.794,1.697-0.813,2.661-0.75
		c3.907,0.257,7.813,0.513,11.721,0.769c3.257,0.214,6.526,0.428,9.782,0.192c2.021-0.146,4.027-0.465,6.046-0.647
		c2.8-0.253,5.618-0.241,8.43-0.228c7.261,0.032,14.521,0.065,21.78,0.097c1.27,0.005,2.987,0.459,2.897,1.724
		c-0.081,1.151-1.598,1.483-2.751,1.496C40.674,3.662,20.467,3.899,0.261,4.136"/>
	<path fill="#ED2024" d="M0,4.302c1.555,3.782,2.757,7.71,3.584,11.714c19.472,0.232,38.947,0.14,58.417-0.273
		c-0.723-4.055-0.578-8.262,0.421-12.258C49.95,3.62,35.306,3.877,22.898,3.871C14.257,3.867,8.14,2.697,0.042,3.438"/>
	<path fill="#B72027" d="M0.33,95.971c-0.09,1.584-0.003,3.178,0.26,4.743c20.423-2.064,41.028-0.632,61.544-1.337
		c0.327-0.013,0.683-0.033,0.934-0.243c0.248-0.207,0.334-0.545,0.406-0.859c0.213-0.923,0.391-2.004-0.227-2.722
		c-0.749-0.873-2.121-0.637-3.257-0.458c-3.701,0.582-7.46-0.282-11.204-0.436c-2.652-0.107-5.304,0.144-7.954,0.305
		c-13.578,0.825-27.281-0.688-40.768,1.09"/>
	<path fill="#ED2024" d="M60.124,88.976c-1.666-3.559-1.387-7.696-2.313-11.516c-0.841-3.471-2.689-6.757-3.025-10.265
		c-1.707,0.078-3.424,0.298-5.128,0.438c-5.579,0.454-11.231,0.01-16.672-1.314c-2.582-0.628-5.143-1.456-7.797-1.585
		c-3.915-0.19-7.717,1.147-11.521,2.093c-2.599,0.646-5.373,1.093-7.995,0.77c-0.356,0.703-0.686,1.415-0.896,2.172
		c-0.558,2.017-0.223,4.156-0.05,6.241c0.569,6.884-0.725,13.912-3.71,20.142c20.986-1.935,40.047,0.46,60.085-0.55
		c0.331-0.018,0.697-0.05,0.924-0.291c0.184-0.194,0.23-0.479,0.242-0.745C62.361,92.545,60.98,90.806,60.124,88.976"/>
</g>
</svg>
