<?xml version="1.0" encoding="utf-8"?>
<!-- Generator: Adobe Illustrator 16.0.2, SVG Export Plug-In . SVG Version: 6.00 Build 0)  -->
<!DOCTYPE svg PUBLIC "-//W3C//DTD SVG 1.1//EN" "http://www.w3.org/Graphics/SVG/1.1/DTD/svg11.dtd">
<svg version="1.1" id="Layer_1" xmlns="http://www.w3.org/2000/svg" xmlns:xlink="http://www.w3.org/1999/xlink" x="0px" y="0px"
	 width="69.803px" height="103.21px" viewBox="0 0 69.803 103.21" enable-background="new 0 0 69.803 103.21" xml:space="preserve">
<g>
	<path fill="#FFCB0B" d="M8.729,14.743c-1.736,8.062,0.547,18.39,0.498,26.636c-0.027,4.467-0.756,8.945-0.25,13.382
		c0.37,3.245,1.383,6.615,0.276,9.688c-0.681,1.889-2.106,3.441-2.771,5.337c-0.693,1.974-0.503,4.131-0.472,6.223
		c0.102,6.906-1.665,13.831-5.065,19.844c19.95-2.133,39.925,3.169,59.985,3.518c0.331,0.006,0.698-0.003,0.941-0.229
		c0.196-0.181,0.262-0.461,0.292-0.727c0.228-2.008-1.032-3.837-1.764-5.721c-1.421-3.663-0.862-7.773-1.527-11.646
		c-0.681-3.97-2.662-7.791-2.285-11.802c0.175-1.869,0.858-3.646,1.433-5.433c2.551-7.942,3.016-16.377,3.698-24.691
		c0.546-6.641,1.35-13.576,5.084-19.094c-7.078-3.446-12.778-0.933-19.387-1.69c-4.354-0.499-9.174,0.21-13.499-0.491
		c-8.321-1.347-15.172-3.801-23.562-2.995"/>
	<path fill="#EEA820" d="M31.81,68.561c-0.058,0.525,0.262,1.007,0.507,1.476c0.693,1.326,0.853,2.92,0.438,4.356
		c-0.027,0.099-0.061,0.198-0.13,0.272c-0.067,0.075-0.167,0.116-0.266,0.139c-0.579,0.136-1.215-0.381-1.2-0.975
		c-0.2,0.159-0.358,0.368-0.461,0.602c-0.345-0.14-0.62-0.443-0.722-0.802c-0.263,0.229-0.59,0.432-0.938,0.393
		c-0.346-0.04-0.652-0.432-0.49-0.739c-0.222-0.033-0.456,0.053-0.603,0.222c-0.421-0.063-0.311-0.879-0.729-0.962
		c-0.115-0.023-0.232,0.024-0.35,0.04c-0.269,0.034-0.552-0.136-0.647-0.391c-0.097-0.255,0.004-0.568,0.229-0.721
		c-0.174-0.111-0.399-0.039-0.604-0.014c-0.205,0.023-0.476-0.064-0.477-0.271c0-0.231,0.349-0.355,0.334-0.587
		c-0.017-0.284-0.474-0.24-0.683-0.434c-0.225-0.209-0.068-0.583,0.112-0.832c-0.358,0.07-0.824,0.089-0.985-0.238
		c-0.099-0.201-0.019-0.454,0.137-0.617c0.154-0.163,0.368-0.254,0.577-0.335c1.601-0.619,3.329-0.91,5.044-0.849
		c0.186,0.006,0.384,0.013,0.54-0.086c0.273-0.175,0.274-0.567,0.232-0.888c-0.229-1.712-0.821-3.49-0.232-5.113
		c0.071-0.194,0.165-0.394,0.335-0.512c0.169-0.119,0.432-0.127,0.564,0.033c0.075,0.094,0.097,0.225,0.182,0.311
		c0.338,0.34,0.982-0.469,1.326-0.134c0.122,0.117,0.118,0.326,0.246,0.438c0.13,0.113,0.334,0.072,0.485-0.01
		c0.152-0.082,0.292-0.2,0.463-0.228c0.183,0.261,0.093,0.725,0.393,0.826c0.207,0.07,0.44-0.119,0.644-0.039
		c0.314,0.124,0.163,0.682,0.446,0.866c0.256,0.166,0.656-0.115,0.883,0.09c0.279,0.251-0.166,0.751,0.027,1.073
		c0.236-0.028,0.482-0.055,0.705,0.03c0.221,0.085,0.404,0.321,0.344,0.552c-0.064,0.249-0.374,0.51-0.192,0.692
		c0.05,0.048,0.119,0.064,0.187,0.08c0.21,0.048,0.421,0.094,0.632,0.139c-0.23,0.335-0.461,0.67-0.692,1.004
		c-0.02,0.029-0.039,0.063-0.03,0.096c0.007,0.025,0.028,0.042,0.051,0.057c0.197,0.127,0.445,0.133,0.673,0.187
		c0.229,0.054,0.473,0.197,0.5,0.43c0.038,0.321-0.341,0.517-0.654,0.6c-1.516,0.401-3.118,0.47-4.662,0.198
		c-0.303-0.054-0.611-0.12-0.913-0.064C32.083,67.978,31.856,68.258,31.81,68.561"/>
	<path fill="#EEA820" d="M17.622,54.754c-0.492-0.191-1.04-0.011-1.556,0.104c-1.461,0.322-3.042,0.06-4.321-0.717
		c-0.086-0.053-0.174-0.11-0.228-0.196c-0.054-0.086-0.068-0.191-0.064-0.293c0.02-0.594,0.685-1.073,1.255-0.903
		c-0.101-0.234-0.261-0.442-0.46-0.603c0.225-0.296,0.59-0.481,0.962-0.487c-0.152-0.313-0.262-0.682-0.133-1.006
		c0.128-0.324,0.587-0.518,0.842-0.281c0.09-0.204,0.068-0.454-0.056-0.639c0.17-0.39,0.929-0.071,1.119-0.451
		c0.052-0.105,0.036-0.23,0.052-0.348c0.038-0.27,0.276-0.497,0.547-0.523c0.27-0.025,0.547,0.152,0.636,0.41
		c0.152-0.14,0.142-0.377,0.171-0.581c0.03-0.204,0.186-0.441,0.386-0.388c0.223,0.06,0.252,0.428,0.479,0.475
		c0.278,0.059,0.355-0.395,0.597-0.545c0.261-0.162,0.581,0.086,0.773,0.325c0.026-0.363,0.13-0.818,0.487-0.888
		c0.221-0.043,0.444,0.102,0.561,0.294c0.116,0.19,0.147,0.421,0.172,0.645c0.179,1.707,0.007,3.45-0.5,5.09
		c-0.055,0.178-0.114,0.367-0.059,0.543c0.097,0.31,0.476,0.414,0.796,0.456c1.712,0.229,3.583,0.122,4.995,1.115
		c0.17,0.119,0.337,0.262,0.406,0.457c0.071,0.195,0.009,0.451-0.18,0.536c-0.11,0.049-0.242,0.035-0.347,0.094
		c-0.417,0.238,0.195,1.071-0.218,1.315c-0.146,0.087-0.347,0.028-0.487,0.122c-0.145,0.096-0.157,0.304-0.118,0.472
		c0.04,0.169,0.116,0.335,0.098,0.506c-0.299,0.108-0.723-0.1-0.899,0.163c-0.122,0.182,0,0.456-0.132,0.632
		c-0.201,0.271-0.699-0.021-0.951,0.203c-0.229,0.204-0.063,0.663-0.318,0.829c-0.315,0.203-0.682-0.357-1.043-0.255
		c-0.034,0.234-0.073,0.48-0.213,0.673c-0.142,0.191-0.418,0.306-0.624,0.188c-0.224-0.128-0.395-0.494-0.617-0.366
		c-0.059,0.033-0.094,0.098-0.126,0.157c-0.102,0.191-0.201,0.383-0.299,0.574c-0.264-0.31-0.526-0.62-0.789-0.931
		c-0.022-0.026-0.049-0.055-0.084-0.054c-0.026,0-0.048,0.017-0.067,0.033c-0.174,0.157-0.245,0.395-0.357,0.601
		c-0.112,0.206-0.314,0.405-0.546,0.371c-0.32-0.048-0.409-0.464-0.407-0.788c0.009-1.568,0.363-3.134,1.03-4.553
		c0.13-0.277,0.275-0.559,0.301-0.864C18.112,55.171,17.902,54.879,17.622,54.754"/>
	<path fill="#EEA820" d="M53.255,46.341c0.519-0.104,0.883-0.55,1.257-0.924c1.059-1.058,2.532-1.687,4.027-1.719
		c0.103-0.004,0.207-0.003,0.298,0.041c0.093,0.044,0.161,0.125,0.213,0.213c0.303,0.513,0,1.273-0.572,1.438
		c0.211,0.143,0.458,0.232,0.712,0.259c-0.03,0.372-0.239,0.725-0.55,0.93c0.298,0.182,0.588,0.434,0.653,0.775
		c0.066,0.343-0.216,0.753-0.559,0.69c0.034,0.221,0.187,0.42,0.392,0.509c0.066,0.42-0.746,0.559-0.7,0.982
		c0.012,0.116,0.093,0.214,0.142,0.32c0.114,0.247,0.036,0.568-0.179,0.735c-0.214,0.168-0.544,0.167-0.756-0.003
		c-0.054,0.2,0.081,0.393,0.167,0.582c0.085,0.188,0.08,0.472-0.116,0.534c-0.222,0.069-0.442-0.226-0.659-0.144
		c-0.266,0.102-0.088,0.524-0.211,0.781c-0.132,0.277-0.536,0.24-0.827,0.142c0.173,0.321,0.331,0.761,0.067,1.012
		c-0.163,0.154-0.43,0.152-0.63,0.054c-0.201-0.099-0.353-0.276-0.492-0.452c-1.069-1.343-1.862-2.905-2.316-4.56
		c-0.049-0.18-0.102-0.37-0.243-0.489c-0.248-0.209-0.623-0.093-0.916,0.043c-1.565,0.729-3.086,1.825-4.811,1.747
		c-0.207-0.009-0.424-0.04-0.589-0.166c-0.164-0.127-0.25-0.375-0.137-0.549c0.066-0.101,0.186-0.159,0.242-0.267
		c0.224-0.425-0.741-0.797-0.523-1.226c0.075-0.151,0.276-0.21,0.345-0.365c0.07-0.158-0.031-0.34-0.154-0.461
		c-0.124-0.121-0.277-0.219-0.354-0.374c0.193-0.252,0.664-0.305,0.671-0.622c0.005-0.218-0.245-0.384-0.229-0.602
		c0.025-0.337,0.603-0.359,0.693-0.685c0.083-0.294-0.305-0.592-0.178-0.87c0.156-0.341,0.767-0.064,1.017-0.346
		c-0.098-0.216-0.197-0.444-0.182-0.681c0.015-0.238,0.187-0.483,0.424-0.494c0.257-0.012,0.598,0.205,0.717-0.023
		c0.032-0.061,0.028-0.133,0.022-0.2c-0.018-0.217-0.036-0.432-0.058-0.646c0.39,0.12,0.777,0.24,1.166,0.361
		c0.033,0.01,0.072,0.019,0.101,0c0.021-0.015,0.03-0.04,0.038-0.065c0.063-0.226-0.006-0.464-0.022-0.698
		c-0.016-0.233,0.047-0.51,0.261-0.604c0.296-0.133,0.596,0.171,0.768,0.445c0.836,1.325,1.38,2.836,1.581,4.391
		c0.039,0.305,0.067,0.619,0.211,0.89C52.617,46.254,52.952,46.386,53.255,46.341"/>
	<path fill="#EEA820" d="M35.72,53.828c0.481,0.216,1.038,0.062,1.559-0.026c1.476-0.25,3.042,0.09,4.28,0.928
		c0.084,0.058,0.169,0.118,0.219,0.207c0.05,0.088,0.059,0.194,0.05,0.296c-0.05,0.594-0.737,1.038-1.299,0.841
		c0.09,0.238,0.239,0.455,0.432,0.625c-0.24,0.284-0.614,0.451-0.986,0.438c0.137,0.32,0.228,0.694,0.084,1.012
		c-0.145,0.317-0.612,0.488-0.855,0.239c-0.1,0.199-0.09,0.45,0.025,0.641c-0.189,0.382-0.931,0.025-1.14,0.396
		c-0.059,0.102-0.047,0.228-0.069,0.344c-0.051,0.268-0.3,0.483-0.572,0.496c-0.271,0.013-0.54-0.179-0.614-0.441
		c-0.159,0.133-0.16,0.369-0.2,0.572c-0.04,0.202-0.207,0.433-0.404,0.369c-0.221-0.071-0.231-0.439-0.455-0.499
		c-0.276-0.071-0.375,0.377-0.623,0.515c-0.269,0.15-0.576-0.113-0.757-0.361c-0.045,0.36-0.17,0.811-0.531,0.863
		c-0.222,0.031-0.438-0.124-0.544-0.321s-0.128-0.429-0.14-0.653c-0.095-1.714,0.162-3.447,0.749-5.06
		c0.063-0.175,0.132-0.36,0.085-0.539c-0.081-0.314-0.454-0.437-0.772-0.495c-1.698-0.312-3.572-0.298-4.935-1.359
		c-0.163-0.127-0.322-0.277-0.383-0.476c-0.062-0.198,0.013-0.451,0.206-0.526c0.111-0.044,0.242-0.022,0.351-0.078
		c0.428-0.216-0.143-1.078,0.282-1.302c0.148-0.08,0.348-0.012,0.493-0.098c0.147-0.089,0.172-0.296,0.141-0.466
		c-0.031-0.171-0.1-0.34-0.073-0.511c0.304-0.093,0.717,0.136,0.907-0.119c0.131-0.175,0.023-0.454,0.162-0.624
		c0.215-0.26,0.698,0.057,0.961-0.155c0.237-0.192,0.094-0.66,0.358-0.813c0.324-0.188,0.664,0.391,1.028,0.306
		c0.046-0.233,0.098-0.477,0.246-0.661c0.15-0.185,0.433-0.285,0.632-0.157c0.218,0.139,0.37,0.513,0.6,0.396
		c0.06-0.03,0.099-0.093,0.134-0.15c0.11-0.187,0.219-0.372,0.326-0.56c0.248,0.323,0.495,0.646,0.742,0.97
		c0.021,0.026,0.047,0.057,0.082,0.058c0.024,0.001,0.048-0.014,0.067-0.031c0.183-0.147,0.266-0.381,0.386-0.582
		c0.122-0.199,0.334-0.389,0.563-0.343c0.318,0.064,0.387,0.484,0.369,0.807c-0.086,1.566-0.518,3.112-1.253,4.497
		c-0.144,0.271-0.302,0.544-0.343,0.849C35.25,53.388,35.446,53.688,35.72,53.828"/>
	<path fill="#EEA820" d="M15.41,40.655c-0.439-0.294-1.013-0.233-1.542-0.232c-1.496,0.001-2.984-0.596-4.066-1.627
		c-0.073-0.07-0.147-0.146-0.181-0.24c-0.035-0.097-0.025-0.202,0-0.301c0.147-0.576,0.9-0.901,1.42-0.613
		c-0.049-0.25-0.16-0.488-0.321-0.688c0.284-0.24,0.681-0.344,1.045-0.269c-0.082-0.339-0.109-0.723,0.085-1.012
		c0.195-0.289,0.685-0.381,0.884-0.094c0.131-0.181,0.163-0.429,0.082-0.637c0.25-0.344,0.922,0.131,1.189-0.2
		c0.074-0.092,0.085-0.218,0.126-0.328c0.095-0.255,0.376-0.427,0.646-0.394c0.27,0.032,0.503,0.266,0.534,0.536
		c0.178-0.104,0.219-0.337,0.292-0.53c0.073-0.193,0.276-0.392,0.459-0.296c0.206,0.106,0.155,0.472,0.366,0.566
		c0.26,0.116,0.432-0.31,0.701-0.404c0.289-0.103,0.548,0.209,0.685,0.484c0.105-0.351,0.303-0.772,0.667-0.764
		c0.225,0.005,0.411,0.194,0.484,0.407c0.073,0.212,0.054,0.444,0.029,0.667c-0.191,1.706-0.732,3.372-1.581,4.864
		c-0.091,0.161-0.19,0.334-0.173,0.518c0.028,0.323,0.375,0.506,0.679,0.617c1.623,0.589,3.473,0.887,4.64,2.16
		c0.14,0.152,0.272,0.328,0.299,0.534c0.027,0.205-0.088,0.441-0.291,0.483c-0.118,0.025-0.244-0.018-0.358,0.019
		c-0.458,0.143-0.039,1.087-0.494,1.237c-0.161,0.054-0.345-0.047-0.503,0.015c-0.161,0.063-0.219,0.263-0.216,0.436
		c0.002,0.173,0.041,0.352-0.015,0.516c-0.313,0.042-0.684-0.254-0.913-0.034c-0.158,0.15-0.099,0.445-0.264,0.589
		c-0.255,0.221-0.679-0.171-0.973-0.005c-0.268,0.148-0.203,0.634-0.489,0.741c-0.351,0.131-0.589-0.495-0.964-0.474
		c-0.084,0.222-0.174,0.454-0.352,0.611c-0.179,0.157-0.474,0.21-0.649,0.05c-0.191-0.173-0.279-0.568-0.525-0.49
		c-0.065,0.021-0.113,0.075-0.157,0.127c-0.14,0.164-0.278,0.33-0.415,0.497c-0.19-0.359-0.381-0.72-0.571-1.079
		c-0.016-0.03-0.036-0.064-0.07-0.07c-0.025-0.007-0.051,0.006-0.073,0.019c-0.204,0.116-0.324,0.332-0.478,0.51
		c-0.153,0.178-0.393,0.328-0.612,0.244c-0.303-0.115-0.3-0.541-0.229-0.856c0.345-1.529,1.027-2.982,1.983-4.226
		c0.187-0.244,0.388-0.486,0.479-0.78C15.801,41.168,15.657,40.838,15.41,40.655"/>
	<path fill="#EEA820" d="M16.308,65.862c0.285-0.445,0.214-1.019,0.203-1.546c-0.03-1.496,0.537-2.995,1.548-4.098
		c0.069-0.075,0.143-0.149,0.237-0.186s0.2-0.029,0.3-0.006c0.579,0.137,0.919,0.883,0.641,1.408
		c0.249-0.054,0.485-0.17,0.681-0.334c0.247,0.278,0.357,0.674,0.289,1.039c0.338-0.088,0.721-0.123,1.014,0.066
		c0.293,0.188,0.393,0.677,0.11,0.881c0.183,0.128,0.433,0.156,0.639,0.07c0.349,0.243-0.113,0.925,0.223,1.185
		c0.093,0.073,0.219,0.081,0.331,0.12c0.256,0.089,0.433,0.367,0.406,0.638c-0.027,0.271-0.257,0.509-0.526,0.544
		c0.107,0.177,0.341,0.213,0.535,0.282c0.195,0.069,0.397,0.269,0.306,0.453c-0.103,0.208-0.469,0.164-0.56,0.377
		c-0.111,0.262,0.317,0.426,0.418,0.693c0.108,0.287-0.198,0.552-0.471,0.694c0.352,0.098,0.777,0.287,0.775,0.652
		c-0.001,0.224-0.186,0.415-0.396,0.491c-0.211,0.077-0.443,0.063-0.667,0.042c-1.709-0.158-3.386-0.667-4.895-1.486
		c-0.163-0.088-0.337-0.183-0.521-0.163c-0.322,0.034-0.498,0.386-0.603,0.691c-0.558,1.634-0.82,3.49-2.07,4.681
		c-0.15,0.144-0.323,0.278-0.528,0.31c-0.205,0.03-0.444-0.079-0.49-0.281c-0.027-0.117,0.013-0.244-0.025-0.359
		c-0.151-0.455-1.088-0.018-1.247-0.47c-0.056-0.16,0.04-0.346-0.024-0.503c-0.066-0.16-0.268-0.213-0.44-0.207
		c-0.173,0.005-0.351,0.048-0.516-0.004c-0.047-0.313,0.24-0.689,0.017-0.914c-0.154-0.155-0.448-0.09-0.594-0.252
		c-0.225-0.251,0.158-0.684-0.013-0.975c-0.155-0.263-0.639-0.189-0.751-0.474c-0.138-0.349,0.484-0.598,0.454-0.972
		c-0.224-0.08-0.457-0.166-0.618-0.341c-0.16-0.176-0.218-0.47-0.062-0.648c0.169-0.194,0.562-0.29,0.48-0.534
		c-0.022-0.064-0.077-0.11-0.13-0.154c-0.167-0.137-0.335-0.272-0.505-0.405l1.068-0.591c0.03-0.018,0.063-0.038,0.07-0.072
		c0.004-0.026-0.008-0.051-0.021-0.073c-0.12-0.201-0.339-0.316-0.519-0.467c-0.18-0.15-0.336-0.387-0.256-0.608
		c0.109-0.305,0.535-0.31,0.852-0.245c1.536,0.315,3.002,0.97,4.263,1.9c0.247,0.183,0.494,0.379,0.789,0.464
		C15.803,66.262,16.13,66.112,16.308,65.862"/>
	<path fill="#EEA820" d="M55.179,28.846c-0.482,0.217-0.736,0.735-1.017,1.183c-0.792,1.269-2.087,2.214-3.535,2.584
		c-0.099,0.025-0.201,0.048-0.301,0.026c-0.099-0.022-0.184-0.086-0.254-0.159c-0.411-0.431-0.287-1.241,0.234-1.53
		c-0.239-0.091-0.5-0.123-0.753-0.092c-0.055-0.369,0.068-0.759,0.326-1.029c-0.331-0.11-0.672-0.29-0.813-0.609
		c-0.142-0.318,0.041-0.782,0.389-0.798c-0.083-0.207-0.276-0.366-0.495-0.407c-0.16-0.395,0.6-0.713,0.461-1.115
		c-0.038-0.111-0.14-0.187-0.211-0.281c-0.166-0.215-0.162-0.545,0.008-0.756c0.171-0.212,0.493-0.285,0.737-0.168
		c0.008-0.206-0.169-0.364-0.294-0.529c-0.125-0.164-0.185-0.442-0.008-0.547c0.2-0.117,0.483,0.12,0.675-0.009
		c0.237-0.159-0.032-0.53,0.029-0.808c0.067-0.3,0.468-0.354,0.774-0.325c-0.241-0.274-0.494-0.665-0.293-0.97
		c0.124-0.187,0.383-0.245,0.601-0.194c0.219,0.051,0.406,0.189,0.581,0.329c1.345,1.067,2.47,2.41,3.286,3.92
		c0.088,0.163,0.182,0.338,0.347,0.422c0.288,0.147,0.627-0.05,0.882-0.249c1.361-1.063,2.596-2.473,4.293-2.787
		c0.204-0.037,0.424-0.056,0.611,0.03c0.189,0.086,0.329,0.309,0.257,0.503c-0.042,0.113-0.145,0.198-0.176,0.314
		c-0.122,0.464,0.902,0.61,0.787,1.076c-0.04,0.165-0.222,0.268-0.254,0.434c-0.032,0.17,0.106,0.325,0.255,0.414
		c0.146,0.09,0.319,0.151,0.429,0.285c-0.132,0.289-0.577,0.446-0.513,0.757c0.044,0.214,0.325,0.319,0.359,0.535
		c0.051,0.334-0.506,0.485-0.521,0.823c-0.015,0.305,0.43,0.508,0.369,0.807c-0.076,0.367-0.732,0.237-0.912,0.566
		c0.144,0.189,0.292,0.389,0.331,0.623c0.038,0.235-0.074,0.512-0.302,0.577c-0.248,0.07-0.629-0.065-0.694,0.184
		c-0.017,0.066,0.004,0.136,0.024,0.201c0.064,0.206,0.132,0.411,0.2,0.615c-0.405-0.029-0.811-0.059-1.217-0.088
		c-0.035-0.003-0.074-0.003-0.098,0.022c-0.019,0.018-0.021,0.046-0.022,0.071c-0.01,0.235,0.11,0.452,0.18,0.676
		c0.067,0.224,0.068,0.507-0.118,0.649c-0.258,0.195-0.618-0.033-0.849-0.261c-1.112-1.104-1.982-2.453-2.529-3.922
		c-0.107-0.288-0.206-0.587-0.406-0.82C55.82,28.787,55.464,28.733,55.179,28.846"/>
	<path fill="#D2A12A" d="M43.763,36.292c0.479-0.225,0.724-0.748,0.995-1.2c0.771-1.282,2.05-2.25,3.492-2.644
		c0.099-0.027,0.2-0.051,0.3-0.031s0.186,0.083,0.258,0.155c0.417,0.424,0.307,1.235-0.208,1.533
		c0.239,0.087,0.501,0.114,0.754,0.079c0.061,0.367-0.057,0.761-0.309,1.034c0.332,0.104,0.675,0.279,0.822,0.596
		c0.147,0.315-0.028,0.781-0.376,0.805c0.087,0.205,0.283,0.361,0.503,0.397c0.166,0.393-0.588,0.724-0.442,1.123
		c0.041,0.11,0.144,0.186,0.217,0.277c0.17,0.212,0.172,0.542,0.004,0.756c-0.167,0.215-0.487,0.293-0.734,0.18
		c-0.004,0.207,0.175,0.362,0.303,0.524c0.128,0.163,0.193,0.439,0.018,0.547c-0.198,0.121-0.484-0.111-0.675,0.021
		c-0.233,0.162,0.042,0.528-0.016,0.808c-0.062,0.301-0.462,0.363-0.768,0.338c0.246,0.271,0.505,0.657,0.309,0.965
		c-0.12,0.189-0.378,0.252-0.598,0.205c-0.219-0.048-0.408-0.183-0.586-0.318c-1.362-1.045-2.51-2.368-3.353-3.864
		c-0.09-0.162-0.188-0.335-0.354-0.416c-0.291-0.144-0.627,0.06-0.878,0.264c-1.343,1.086-2.554,2.518-4.245,2.859
		c-0.203,0.041-0.421,0.063-0.611-0.02c-0.189-0.083-0.334-0.303-0.266-0.499c0.04-0.112,0.142-0.199,0.171-0.316
		c0.114-0.466-0.912-0.594-0.806-1.063c0.037-0.165,0.219-0.271,0.247-0.438c0.029-0.171-0.112-0.323-0.262-0.41
		c-0.149-0.088-0.323-0.146-0.435-0.278c0.127-0.29,0.57-0.455,0.501-0.765c-0.048-0.213-0.331-0.314-0.368-0.529
		c-0.058-0.333,0.496-0.494,0.507-0.831c0.009-0.306-0.438-0.501-0.383-0.801c0.069-0.369,0.728-0.249,0.902-0.582
		c-0.147-0.187-0.3-0.383-0.342-0.617c-0.043-0.233,0.064-0.514,0.292-0.582c0.246-0.074,0.631,0.054,0.69-0.196
		c0.016-0.067-0.006-0.136-0.027-0.201c-0.068-0.204-0.139-0.408-0.212-0.611c0.406,0.022,0.813,0.045,1.22,0.068
		c0.033,0.002,0.073,0.002,0.097-0.024c0.018-0.019,0.021-0.047,0.021-0.072c0.007-0.235-0.116-0.45-0.189-0.672
		c-0.073-0.223-0.078-0.507,0.105-0.651c0.255-0.2,0.619,0.022,0.854,0.246c1.132,1.085,2.023,2.419,2.596,3.879
		c0.112,0.285,0.216,0.583,0.42,0.812C43.122,36.362,43.48,36.409,43.763,36.292"/>
	<path fill="#D2A12A" d="M27.15,26.789c-0.086-0.522-0.521-0.9-0.883-1.286c-1.021-1.092-1.603-2.585-1.588-4.081
		c0.001-0.101,0.006-0.206,0.052-0.297c0.046-0.09,0.13-0.156,0.22-0.204c0.521-0.286,1.272,0.041,1.418,0.618
		c0.149-0.207,0.248-0.45,0.282-0.703c0.37,0.042,0.717,0.262,0.91,0.579c0.192-0.291,0.453-0.573,0.797-0.628
		c0.346-0.055,0.746,0.24,0.672,0.581c0.223-0.027,0.426-0.173,0.521-0.375c0.422-0.053,0.535,0.763,0.959,0.732
		c0.117-0.008,0.217-0.086,0.325-0.132c0.251-0.105,0.569-0.017,0.729,0.203c0.161,0.22,0.149,0.549-0.026,0.756
		c0.196,0.06,0.395-0.07,0.587-0.148c0.19-0.079,0.474-0.066,0.53,0.133c0.063,0.223-0.24,0.435-0.164,0.654
		c0.092,0.27,0.52,0.105,0.772,0.236c0.273,0.141,0.222,0.543,0.115,0.831c0.327-0.162,0.77-0.306,1.013-0.034
		c0.149,0.168,0.139,0.433,0.033,0.631c-0.105,0.199-0.287,0.343-0.467,0.477c-1.377,1.025-2.964,1.768-4.633,2.168
		c-0.181,0.043-0.373,0.089-0.497,0.227c-0.217,0.241-0.113,0.619,0.014,0.917c0.677,1.588,1.724,3.144,1.59,4.865
		c-0.016,0.207-0.054,0.423-0.185,0.583c-0.132,0.159-0.383,0.237-0.554,0.117c-0.098-0.068-0.152-0.189-0.258-0.25
		c-0.417-0.236-0.82,0.715-1.242,0.484c-0.148-0.081-0.2-0.284-0.354-0.356c-0.156-0.075-0.341,0.02-0.466,0.14
		c-0.125,0.119-0.229,0.27-0.385,0.341c-0.245-0.201-0.283-0.672-0.601-0.689c-0.218-0.013-0.392,0.232-0.608,0.209
		c-0.337-0.036-0.341-0.612-0.661-0.714c-0.291-0.093-0.603,0.285-0.875,0.149c-0.336-0.167-0.041-0.769-0.313-1.027
		c-0.22,0.09-0.451,0.183-0.687,0.16c-0.237-0.023-0.478-0.203-0.48-0.44c-0.004-0.258,0.224-0.592,0-0.718
		c-0.06-0.034-0.132-0.032-0.2-0.028c-0.216,0.01-0.431,0.022-0.646,0.036c0.133-0.385,0.266-0.769,0.398-1.154
		c0.012-0.032,0.022-0.071,0.004-0.1c-0.014-0.022-0.039-0.032-0.063-0.04c-0.224-0.07-0.464-0.01-0.699-0.001
		c-0.233,0.009-0.508-0.063-0.596-0.28c-0.123-0.3,0.189-0.589,0.469-0.752c1.354-0.793,2.88-1.287,4.441-1.438
		c0.305-0.029,0.62-0.048,0.896-0.182C27.043,27.423,27.186,27.093,27.15,26.789"/>
	<path fill="#D2A12A" d="M30.634,42.375c0.32,0.42,0.883,0.55,1.383,0.722c1.415,0.484,2.629,1.53,3.317,2.858
		c0.047,0.09,0.092,0.186,0.094,0.287c0.001,0.101-0.042,0.198-0.098,0.283c-0.327,0.498-1.145,0.561-1.542,0.119
		c-0.035,0.253-0.009,0.514,0.08,0.754c-0.348,0.137-0.756,0.104-1.076-0.084c-0.032,0.347-0.131,0.719-0.409,0.929
		s-0.771,0.137-0.866-0.199c-0.183,0.128-0.294,0.354-0.284,0.576c-0.348,0.244-0.83-0.423-1.189-0.197
		c-0.101,0.063-0.151,0.179-0.227,0.271c-0.172,0.21-0.494,0.281-0.738,0.162c-0.244-0.118-0.389-0.415-0.33-0.681
		c-0.203,0.04-0.317,0.247-0.449,0.406c-0.131,0.159-0.388,0.281-0.53,0.131c-0.16-0.167,0.007-0.496-0.162-0.653
		c-0.208-0.195-0.509,0.151-0.794,0.153c-0.307,0.003-0.451-0.375-0.492-0.68c-0.212,0.297-0.536,0.632-0.878,0.505
		c-0.21-0.078-0.326-0.316-0.326-0.542c0.002-0.224,0.094-0.437,0.189-0.64c0.735-1.551,1.788-2.951,3.075-4.088
		c0.138-0.122,0.287-0.254,0.332-0.434c0.078-0.314-0.191-0.6-0.443-0.804c-1.343-1.084-2.997-1.967-3.687-3.55
		c-0.082-0.19-0.15-0.398-0.109-0.603c0.041-0.203,0.226-0.389,0.432-0.363c0.119,0.016,0.226,0.097,0.346,0.1
		c0.479,0.014,0.39-1.016,0.87-1.01c0.17,0.002,0.311,0.156,0.479,0.149c0.173-0.007,0.292-0.178,0.346-0.342
		c0.055-0.165,0.075-0.346,0.181-0.482c0.311,0.063,0.565,0.461,0.853,0.328c0.199-0.092,0.238-0.39,0.441-0.472
		c0.313-0.125,0.587,0.382,0.919,0.322c0.3-0.057,0.396-0.535,0.702-0.543c0.375-0.01,0.396,0.66,0.759,0.76
		c0.151-0.183,0.312-0.372,0.532-0.463c0.219-0.091,0.515-0.045,0.63,0.163c0.124,0.226,0.079,0.628,0.336,0.634
		c0.069,0.002,0.132-0.034,0.189-0.069c0.187-0.109,0.371-0.222,0.555-0.335c0.063,0.402,0.127,0.805,0.189,1.206
		c0.005,0.034,0.014,0.072,0.043,0.091c0.022,0.013,0.05,0.01,0.075,0.005c0.231-0.043,0.415-0.209,0.618-0.327
		c0.202-0.118,0.478-0.183,0.658-0.032c0.249,0.207,0.107,0.609-0.063,0.885c-0.823,1.334-1.938,2.487-3.247,3.354
		c-0.256,0.169-0.524,0.333-0.706,0.581C30.431,41.764,30.46,42.123,30.634,42.375"/>
	<path fill="#D2A12A" d="M39.938,24.529c-0.498-0.176-1.04,0.024-1.553,0.155c-1.449,0.371-3.038,0.162-4.342-0.571
		c-0.088-0.05-0.178-0.105-0.235-0.189c-0.057-0.084-0.073-0.189-0.073-0.29c0.001-0.595,0.648-1.096,1.225-0.946
		c-0.11-0.23-0.276-0.433-0.481-0.586c0.216-0.304,0.574-0.501,0.946-0.519c-0.163-0.308-0.285-0.673-0.167-1.001
		c0.117-0.329,0.569-0.538,0.833-0.309c0.082-0.208,0.052-0.456-0.079-0.638c0.157-0.395,0.927-0.101,1.104-0.488
		c0.049-0.107,0.027-0.232,0.041-0.349c0.027-0.27,0.258-0.506,0.527-0.541c0.271-0.035,0.554,0.134,0.65,0.388
		c0.147-0.145,0.129-0.381,0.152-0.586c0.022-0.205,0.171-0.448,0.372-0.401c0.226,0.053,0.266,0.419,0.493,0.459
		c0.281,0.048,0.344-0.406,0.579-0.565c0.255-0.171,0.583,0.067,0.784,0.299c0.016-0.364,0.103-0.822,0.458-0.904
		c0.218-0.05,0.446,0.087,0.569,0.275s0.162,0.417,0.192,0.639c0.236,1.7,0.124,3.448-0.328,5.104
		c-0.049,0.179-0.102,0.37-0.04,0.545c0.106,0.306,0.488,0.397,0.811,0.429c1.718,0.171,3.585,0.002,5.03,0.947
		c0.173,0.113,0.344,0.251,0.421,0.443c0.078,0.192,0.024,0.45-0.161,0.541c-0.109,0.053-0.241,0.043-0.344,0.106
		c-0.409,0.252,0.23,1.064-0.173,1.322c-0.144,0.091-0.347,0.04-0.484,0.139c-0.14,0.1-0.147,0.308-0.102,0.475
		c0.045,0.167,0.127,0.33,0.114,0.503c-0.295,0.117-0.726-0.076-0.894,0.193c-0.116,0.185,0.015,0.456-0.11,0.635
		c-0.192,0.277-0.7,0.002-0.944,0.235c-0.222,0.211-0.039,0.665-0.29,0.839c-0.309,0.214-0.693-0.334-1.051-0.219
		c-0.026,0.236-0.057,0.482-0.19,0.679c-0.134,0.196-0.407,0.32-0.617,0.209c-0.227-0.121-0.41-0.481-0.629-0.346
		c-0.059,0.036-0.091,0.101-0.121,0.162c-0.095,0.194-0.188,0.389-0.279,0.584l-0.819-0.904c-0.023-0.026-0.052-0.054-0.086-0.052
		c-0.025,0.001-0.048,0.019-0.065,0.037c-0.169,0.162-0.233,0.402-0.337,0.612c-0.105,0.209-0.3,0.415-0.533,0.388
		c-0.322-0.037-0.425-0.45-0.434-0.774c-0.043-1.567,0.258-3.143,0.877-4.584c0.121-0.282,0.256-0.567,0.271-0.874
		C40.443,24.929,40.222,24.645,39.938,24.529"/>
	<path fill="#D2A12A" d="M47.142,74.887c0.498,0.176,1.04-0.024,1.552-0.155c1.449-0.37,3.038-0.16,4.342,0.574
		c0.089,0.049,0.179,0.104,0.235,0.188c0.056,0.084,0.074,0.189,0.074,0.291c-0.001,0.596-0.65,1.096-1.227,0.945
		c0.11,0.23,0.276,0.434,0.481,0.586c-0.215,0.305-0.574,0.501-0.946,0.52c0.163,0.308,0.284,0.673,0.167,1.001
		c-0.118,0.328-0.569,0.537-0.833,0.309c-0.083,0.207-0.053,0.456,0.078,0.637c-0.158,0.396-0.927,0.102-1.104,0.488
		c-0.05,0.107-0.028,0.232-0.041,0.349c-0.029,0.271-0.26,0.507-0.529,0.541c-0.27,0.035-0.552-0.134-0.649-0.388
		c-0.146,0.145-0.129,0.38-0.151,0.586c-0.024,0.205-0.171,0.447-0.372,0.4c-0.227-0.052-0.268-0.419-0.495-0.459
		c-0.28-0.048-0.342,0.406-0.579,0.564c-0.255,0.17-0.583-0.066-0.784-0.3c-0.015,0.365-0.102,0.823-0.458,0.904
		c-0.218,0.05-0.446-0.087-0.568-0.275c-0.123-0.188-0.162-0.416-0.193-0.639c-0.235-1.7-0.122-3.448,0.331-5.104
		c0.049-0.179,0.101-0.369,0.04-0.545c-0.107-0.305-0.488-0.396-0.811-0.429c-1.718-0.171-3.585-0.003-5.029-0.949
		c-0.173-0.112-0.345-0.251-0.421-0.442c-0.077-0.193-0.024-0.45,0.161-0.542c0.108-0.053,0.241-0.042,0.345-0.105
		c0.409-0.252-0.231-1.063,0.173-1.322c0.143-0.091,0.346-0.04,0.483-0.138c0.142-0.101,0.147-0.309,0.103-0.476
		s-0.127-0.33-0.114-0.502c0.294-0.118,0.727,0.075,0.895-0.193c0.115-0.185-0.016-0.456,0.109-0.635
		c0.193-0.277,0.7-0.002,0.945-0.235c0.221-0.211,0.039-0.665,0.29-0.839c0.308-0.214,0.693,0.334,1.051,0.22
		c0.026-0.235,0.058-0.482,0.191-0.679s0.405-0.32,0.616-0.209c0.228,0.121,0.41,0.482,0.629,0.346
		c0.058-0.036,0.091-0.101,0.122-0.162c0.094-0.193,0.188-0.388,0.278-0.584c0.273,0.303,0.546,0.604,0.819,0.905
		c0.022,0.026,0.052,0.053,0.086,0.052c0.026-0.002,0.047-0.019,0.066-0.037c0.169-0.162,0.231-0.401,0.337-0.611
		c0.104-0.209,0.3-0.415,0.532-0.389c0.322,0.037,0.425,0.45,0.434,0.774c0.043,1.568-0.259,3.144-0.878,4.584
		c-0.121,0.282-0.257,0.567-0.272,0.873C46.637,74.486,46.857,74.771,47.142,74.887"/>
	<path fill="#D2A12A" d="M49.354,62.047c-0.187,0.494,0.001,1.04,0.12,1.555c0.337,1.457,0.092,3.041-0.67,4.328
		c-0.052,0.087-0.109,0.176-0.194,0.231c-0.085,0.054-0.19,0.068-0.292,0.066c-0.595-0.014-1.081-0.674-0.917-1.246
		c-0.232,0.104-0.439,0.267-0.597,0.468c-0.3-0.223-0.489-0.585-0.498-0.957c-0.313,0.155-0.679,0.269-1.005,0.144
		c-0.325-0.124-0.524-0.581-0.29-0.839c-0.205-0.088-0.454-0.063-0.64,0.063c-0.391-0.166-0.079-0.929-0.463-1.114
		c-0.105-0.051-0.23-0.033-0.347-0.048c-0.27-0.035-0.501-0.271-0.53-0.541c-0.028-0.271,0.147-0.551,0.403-0.642
		c-0.141-0.149-0.378-0.138-0.582-0.165c-0.205-0.027-0.444-0.181-0.393-0.381c0.058-0.225,0.426-0.257,0.47-0.483
		c0.055-0.28-0.398-0.353-0.551-0.593c-0.165-0.259,0.08-0.581,0.316-0.776c-0.363-0.023-0.819-0.121-0.894-0.479
		c-0.045-0.22,0.097-0.443,0.288-0.563c0.189-0.118,0.42-0.153,0.643-0.179c1.705-0.197,3.45-0.045,5.096,0.445
		c0.178,0.052,0.367,0.109,0.543,0.052c0.309-0.1,0.409-0.479,0.448-0.801c0.209-1.714,0.083-3.584,1.062-5.007
		c0.116-0.17,0.258-0.339,0.452-0.411c0.193-0.073,0.45-0.014,0.537,0.174c0.051,0.109,0.037,0.242,0.099,0.347
		c0.242,0.414,1.067-0.207,1.316,0.202c0.089,0.146,0.032,0.348,0.128,0.487c0.098,0.143,0.306,0.153,0.474,0.112
		s0.333-0.119,0.505-0.104c0.111,0.297-0.093,0.725,0.172,0.898c0.183,0.12,0.457-0.004,0.633,0.125
		c0.273,0.199-0.013,0.7,0.214,0.949c0.206,0.226,0.664,0.055,0.832,0.309c0.207,0.313-0.35,0.687-0.242,1.046
		c0.234,0.032,0.48,0.068,0.674,0.206c0.192,0.138,0.311,0.414,0.194,0.621c-0.126,0.225-0.489,0.4-0.359,0.621
		c0.035,0.059,0.099,0.094,0.16,0.125c0.19,0.099,0.384,0.197,0.576,0.293c-0.308,0.266-0.614,0.532-0.923,0.798
		c-0.025,0.023-0.054,0.051-0.053,0.085c0,0.026,0.017,0.048,0.035,0.067c0.159,0.172,0.396,0.241,0.604,0.35
		c0.207,0.11,0.408,0.31,0.376,0.542c-0.044,0.321-0.459,0.414-0.782,0.416c-1.568,0.008-3.138-0.33-4.564-0.98
		c-0.279-0.127-0.561-0.27-0.867-0.291C49.765,61.551,49.476,61.766,49.354,62.047"/>
	<path fill="#D2A12A" d="M16.12,24.554c-0.199,0.49-0.024,1.04,0.083,1.557c0.303,1.465,0.02,3.043-0.773,4.311
		c-0.054,0.086-0.112,0.173-0.199,0.226c-0.087,0.053-0.192,0.065-0.294,0.061c-0.594-0.029-1.064-0.7-0.887-1.268
		c-0.235,0.099-0.446,0.256-0.608,0.453c-0.294-0.229-0.474-0.597-0.475-0.969c-0.315,0.149-0.685,0.253-1.008,0.121
		c-0.322-0.133-0.51-0.594-0.27-0.847c-0.203-0.092-0.453-0.073-0.64,0.049c-0.387-0.175-0.058-0.93-0.436-1.125
		c-0.105-0.054-0.23-0.039-0.347-0.057c-0.269-0.041-0.494-0.282-0.516-0.553c-0.023-0.271,0.159-0.546,0.418-0.631
		c-0.138-0.154-0.375-0.147-0.578-0.179c-0.204-0.033-0.44-0.192-0.384-0.39c0.063-0.223,0.432-0.247,0.482-0.473
		c0.061-0.278-0.39-0.361-0.537-0.605c-0.159-0.263,0.093-0.579,0.335-0.769c-0.363-0.031-0.817-0.14-0.882-0.499
		c-0.04-0.221,0.107-0.442,0.301-0.556c0.193-0.114,0.424-0.143,0.647-0.163c1.71-0.157,3.45,0.037,5.084,0.566
		c0.176,0.057,0.365,0.118,0.542,0.065c0.31-0.093,0.419-0.47,0.466-0.79c0.25-1.708,0.169-3.581,1.18-4.98
		c0.121-0.168,0.266-0.333,0.462-0.401c0.196-0.068,0.451-0.003,0.533,0.187c0.048,0.111,0.032,0.243,0.09,0.348
		c0.232,0.42,1.073-0.181,1.313,0.235c0.084,0.147,0.023,0.347,0.115,0.489c0.094,0.145,0.302,0.161,0.471,0.124
		c0.168-0.037,0.335-0.112,0.507-0.091c0.104,0.3-0.109,0.722,0.151,0.902c0.18,0.124,0.456,0.006,0.63,0.139
		c0.267,0.206-0.03,0.7,0.191,0.955c0.199,0.23,0.662,0.07,0.823,0.329c0.2,0.318-0.364,0.677-0.268,1.039
		c0.235,0.038,0.48,0.079,0.67,0.222c0.19,0.143,0.3,0.421,0.18,0.626c-0.131,0.221-0.5,0.388-0.375,0.612
		c0.034,0.06,0.098,0.096,0.156,0.129c0.19,0.104,0.38,0.206,0.571,0.306c-0.314,0.259-0.628,0.518-0.942,0.777
		c-0.025,0.022-0.055,0.048-0.055,0.083c0,0.026,0.016,0.048,0.033,0.067c0.154,0.176,0.391,0.251,0.596,0.365
		c0.205,0.115,0.401,0.319,0.363,0.55c-0.053,0.32-0.47,0.404-0.793,0.398c-1.568-0.03-3.128-0.404-4.539-1.089
		c-0.276-0.134-0.554-0.282-0.86-0.312C16.543,24.068,16.249,24.276,16.12,24.554"/>
	<path fill="#B72027" d="M6.415,3.999c0.463-1.278-0.568-2.29,0.28-3.352C7.297-0.109,8.442-0.051,9.4,0.078
		c3.881,0.52,7.761,1.041,11.643,1.561c3.234,0.433,6.481,0.868,9.745,0.853c2.027-0.01,4.051-0.192,6.076-0.237
		c2.813-0.063,5.622,0.14,8.428,0.343l21.724,1.57c1.265,0.092,2.948,0.66,2.774,1.916c-0.159,1.143-1.695,1.372-2.848,1.307
		C46.767,6.259,26.591,5.129,6.415,3.999"/>
	<path fill="#ED2024" d="M6.143,4.146c1.296,3.879,2.229,7.878,2.783,11.93c19.412,1.548,38.849,2.775,58.302,3.68
		c-0.447-4.095-0.019-8.283,1.249-12.202C56.026,6.845,41.396,6.11,29.02,5.265c-8.623-0.588-14.646-2.17-22.776-1.978"/>
	<path fill="#B72027" d="M0.271,95.627c-0.197,1.574-0.217,3.172-0.062,4.75c20.517-0.678,40.978,2.146,61.494,2.829
		c0.327,0.012,0.682,0.015,0.947-0.179c0.262-0.188,0.37-0.52,0.464-0.829c0.274-0.906,0.524-1.973-0.042-2.73
		c-0.688-0.923-2.073-0.779-3.22-0.679c-3.731,0.331-7.423-0.786-11.147-1.19c-2.64-0.288-5.302-0.217-7.957-0.235
		C27.145,97.269,13.576,94.831,0,95.692"/>
	<path fill="#ED2024" d="M60.4,92.693c-1.422-3.663-0.862-7.772-1.526-11.645c-0.605-3.521-2.228-6.924-2.325-10.446
		c-1.709-0.038-3.437,0.066-5.146,0.089c-5.598,0.076-11.207-0.751-16.544-2.438c-2.534-0.801-5.034-1.801-7.673-2.109
		c-3.893-0.455-7.777,0.624-11.636,1.31c-2.636,0.468-5.434,0.727-8.029,0.226c-0.402,0.677-0.779,1.366-1.04,2.107
		c-0.693,1.974-0.503,4.131-0.472,6.223c0.102,6.906-1.665,13.832-5.064,19.844c20.365,0.182,39.924,3.169,59.985,3.518
		c0.331,0.006,0.698-0.003,0.94-0.229c0.196-0.181,0.263-0.461,0.292-0.726C62.392,96.407,61.133,94.578,60.4,92.693"/>
</g>
</svg>
