<?xml version="1.0" encoding="utf-8"?>
<!-- Generator: Adobe Illustrator 16.0.2, SVG Export Plug-In . SVG Version: 6.00 Build 0)  -->
<!DOCTYPE svg PUBLIC "-//W3C//DTD SVG 1.1//EN" "http://www.w3.org/Graphics/SVG/1.1/DTD/svg11.dtd">
<svg version="1.1" id="Layer_1" xmlns="http://www.w3.org/2000/svg" xmlns:xlink="http://www.w3.org/1999/xlink" x="0px" y="0px"
	 width="46.249px" height="70.969px" viewBox="0 0 46.249 70.969" enable-background="new 0 0 46.249 70.969" xml:space="preserve">
<g>
	<path fill="#FFFFFF" d="M0.545,1.454c-0.741,0.36-0.683,1.534-0.088,2.104C1.051,4.13,1.93,4.26,2.748,4.362
		C1.99,5.591,1.389,6.918,0.966,8.299c1.767,0.793,3.836,0.71,5.681,0.117c1.844-0.594,3.498-1.66,5.062-2.804
		c1.027-0.751,2.413-1.563,3.463-0.843c-1.983,1.945-4.455,3.387-7.124,4.153c-0.626,0.18-1.299,0.343-1.749,0.814
		c-0.344,0.358-0.509,0.849-0.646,1.326c-0.803,2.785-1.015,5.739-0.618,8.61c0.027,0.196,0.06,0.4,0.174,0.561
		c0.19,0.271,0.55,0.353,0.878,0.397c4.63,0.633,9.044-1.887,13.621-2.828c2.253-0.462,4.563-0.541,6.851-0.77
		c3.263-0.326,6.496-0.961,9.641-1.894c1.212-0.358,2.979-0.987,3.393-2.183c0.228-0.662-0.306-1.311-0.497-1.984
		c-0.98-3.469-3.918-6.312-7.417-7.178c-3.437-0.851-7.05,0.114-10.586-0.073c-1.793-0.095-3.555-0.485-5.308-0.876
		c-0.934-0.208-1.884-0.422-2.716-0.895c-0.61-0.347-1.139-0.823-1.75-1.17C10.142,0.113,8.737-0.03,7.383,0.005
		C4.848,0.072,2.33,0.723,0.08,1.894"/>
	<path fill="#9BC53D" d="M4.839,20.451c4.739,6.727,5.414,15.463,8.787,22.969c0.965,2.146,2.151,4.19,3.536,6.092
		c0.362,0.497,0.744,0.991,1.239,1.355c1.053,0.773,2.646,1.022,3.105,2.246c-0.364,0.446-1.08,0.109-1.525-0.255
		c-2.686-2.197-5.092-4.735-7.144-7.533c-0.064-0.087-0.129-0.176-0.214-0.243c-0.458-0.361-1.163,0.172-1.215,0.753
		c-0.051,0.581,0.28,1.116,0.527,1.644c1.316,2.823,0.315,6.131-0.698,9.076c-0.724,2.104-1.448,4.207-2.172,6.312
		c-0.163,0.472-0.326,0.983-0.175,1.46c0.135,0.425,0.496,0.733,0.851,1.005c2.266,1.731,4.921,2.867,7.545,3.985
		c1.439,0.613,2.894,1.23,4.436,1.492c1.594,0.271,3.226,0.149,4.836,0.001c6.175-0.571,12.415-1.583,18.001-4.276
		c0.473-0.229,0.958-0.481,1.275-0.9c0.658-0.867,0.39-2.087,0.163-3.15c-1.568-7.372,0.39-15.231-1.678-22.479
		c-0.523-1.83-1.294-3.583-1.8-5.418c-0.963-3.489-0.941-7.165-1.444-10.75c-0.46-3.275-1.357-6.471-2.253-9.655
		c-0.028-0.101-0.061-0.209-0.143-0.273c-0.187-0.15-0.453,0.016-0.64,0.165c-1.742,1.392-4.112,1.611-6.33,1.838
		c-5.04,0.514-10.047,1.352-14.98,2.506c-1.161,0.271-2.321,0.561-3.447,0.955c-0.982,0.342-1.942,0.765-2.96,0.979
		c-1.73,0.367-3.531,0.116-5.259-0.258"/>
	<path fill="#FFEDD5" d="M9.203,10.4c8.108,0.95,16.146-1.754,24.252-2.715c0.482-0.057,1.002-0.102,1.424,0.139
		c0.494,0.279,0.716,0.864,0.87,1.411c0.202,0.714,0.351,1.443,0.447,2.178c0.032,0.243,0.049,0.518-0.107,0.705
		c-0.125,0.15-0.329,0.205-0.519,0.251c-7.054,1.705-14.177,3.419-21.432,3.556c-1.591,0.029-3.199-0.02-4.739-0.419
		c-0.197-0.052-0.406-0.116-0.534-0.275c-0.121-0.149-0.146-0.352-0.162-0.544c-0.124-1.473,0.011-2.968,0.397-4.396"/>
	<path fill="#F4D49D" d="M35.042,12.17c0.493,0.848,0.769,1.821,0.794,2.802c0.007,0.261-0.014,0.548-0.198,0.732
		c-0.131,0.132-0.321,0.184-0.502,0.229c-1.226,0.311-2.468,0.562-3.719,0.753c-2.216,0.337-4.458,0.484-6.675,0.816
		c-5.041,0.755-9.983,2.467-15.079,2.353c-0.347-0.009-0.727-0.038-0.976-0.279c-0.183-0.177-0.258-0.437-0.31-0.686
		c-0.271-1.315-0.052-2.728,0.606-3.9c0.058-0.104,0.126-0.212,0.232-0.267c0.113-0.058,0.248-0.044,0.374-0.028
		c6.627,0.776,13.319-0.245,19.914-1.266c1.66-0.257,3.373-0.532,4.791-1.434"/>
	<path fill="#FFCB0B" d="M8.241,26.955c0.121,0.2-0.155,0.286,0.039,0.418c0.287,0.193,1.164-0.063,1.51-0.08
		c10.827-0.533,20.417-2.151,30.964-4.653c-0.491-1.702,0.048-4.298-0.443-6c-0.16-0.553-0.203-3.937-0.718-3.682
		c-2.097,1.041-3.134,1.336-4.73,1.896c-5.121,1.797-8.138,1.688-13.533,2.265c-2.526,0.27-7.377,1.715-9.895,2.05
		c-2.24,0.299-4.622,0.253-6.797,0.865c1.215,1.822,2.365,4.3,3.093,6.364"/>
	<path fill="#ED2024" d="M8.365,27.451c0.225,0.673-0.091,1.528,0.386,2.053c0.223,0.246,0.566,0.343,0.895,0.389
		c0.729,0.101,1.469,0.011,2.199-0.079c9.325-1.149,18.651-2.297,27.976-3.446c0.517-0.063,1.102-0.169,1.377-0.612
		c0.129-0.207,0.165-0.459,0.179-0.702c0.038-0.646-0.056-1.299-0.275-1.906c-0.059-0.166-0.135-0.337-0.28-0.438
		c-0.123-0.084-0.277-0.104-0.425-0.116c-2.815-0.263-5.548,0.844-8.294,1.513c-3.133,0.764-6.37,0.965-9.578,1.289
		c-3.756,0.38-7.493,0.933-11.227,1.484c-0.997,0.147-1.994,0.296-2.991,0.442"/>
	<path fill="#ED2024" d="M46.08,63.162c-0.995,1.094-2.432,1.651-3.814,2.175c-1.461,0.552-2.927,1.104-4.447,1.463
		c-1.3,0.307-2.63,0.468-3.956,0.628c-3.561,0.431-7.122,0.862-10.684,1.293c-0.893,0.107-1.793,0.216-2.689,0.138
		c-1.143-0.099-2.238-0.497-3.291-0.95c-2.788-1.198-5.397-2.813-7.714-4.772c-0.209-0.176-0.428-0.376-0.482-0.645
		c-0.136-0.668,0.79-1.128,0.826-1.809c0.776,0.364,1.559,0.729,2.391,0.937c1.002,0.25,2.058,0.265,3.043,0.574
		c0.95,0.298,1.794,0.858,2.713,1.238c1.218,0.503,2.542,0.682,3.848,0.855c2.668,0.355,5.352,0.712,8.042,0.616
		c1.986-0.069,3.955-0.386,5.917-0.7c2.289-0.367,4.611-0.744,6.714-1.72c0.879-0.408,1.742-0.926,2.707-1.015
		c0.159-0.015,0.333-0.013,0.461,0.083c0.115,0.085,0.17,0.229,0.212,0.366c0.139,0.457,0.207,0.936,0.199,1.413"/>
</g>
</svg>
