<?xml version="1.0" encoding="utf-8"?>
<!-- Generator: Adobe Illustrator 16.0.2, SVG Export Plug-In . SVG Version: 6.00 Build 0)  -->
<!DOCTYPE svg PUBLIC "-//W3C//DTD SVG 1.1//EN" "http://www.w3.org/Graphics/SVG/1.1/DTD/svg11.dtd">
<svg version="1.1" id="Layer_1" xmlns="http://www.w3.org/2000/svg" xmlns:xlink="http://www.w3.org/1999/xlink" x="0px" y="0px"
	 width="67.091px" height="101.572px" viewBox="0 0 67.091 101.572" enable-background="new 0 0 67.091 101.572"
	 xml:space="preserve">
<g>
	<path fill="#FFEDD5" d="M8.493,8.792c-0.3,0.72-1.422,0.9-1.932,0.31c-0.51-0.59-0.17-1.674,0.585-1.867
		C7.662,7.546,8.089,8,8.368,8.535"/>
	<path fill="#FFEDD5" d="M31.278,29.291c0.228-0.746,1.327-1.035,1.892-0.498c0.566,0.537,0.334,1.648-0.399,1.915
		c-0.543-0.258-1.013-0.669-1.343-1.172"/>
	<path fill="#FFEDD5" d="M56.108,23.47c-0.016,0.78-0.994,1.358-1.685,0.996c-0.69-0.363-0.771-1.496-0.138-1.952
		c0.593,0.1,1.157,0.367,1.612,0.761"/>
	<path fill="#FFEDD5" d="M37.082,13.981c0.084,0.775-0.812,1.474-1.544,1.203c-0.731-0.272-0.955-1.386-0.386-1.919
		c0.601,0.024,1.195,0.217,1.696,0.55"/>
	<path fill="#FFEDD5" d="M47.551,67.283c-0.663,0.41-1.68-0.098-1.751-0.874c-0.07-0.777,0.838-1.46,1.565-1.176
		c0.237,0.553,0.319,1.171,0.235,1.767"/>
	<path fill="#FFEDD5" d="M22.803,33.964c0.098-0.774,1.132-1.245,1.78-0.812c0.649,0.433,0.609,1.568-0.068,1.955
		c-0.579-0.162-1.112-0.487-1.523-0.928"/>
	<path fill="#FFEDD5" d="M28.406,63.167c-0.598,0.501-1.677,0.143-1.858-0.615c-0.181-0.759,0.621-1.565,1.381-1.389
		c0.314,0.515,0.484,1.114,0.485,1.717"/>
	<path fill="#FFEDD5" d="M42.072,53.273c-0.597,0.502-1.676,0.147-1.859-0.61s0.617-1.566,1.377-1.391
		c0.315,0.513,0.486,1.112,0.489,1.715"/>
	<path fill="#FFEDD5" d="M37.472,25.063c0.374,0.685-0.188,1.672-0.968,1.701c-0.779,0.028-1.412-0.915-1.089-1.625
		c0.565-0.208,1.187-0.257,1.777-0.14"/>
	<path fill="#FFEDD5" d="M41.137,68.08c0.565,0.537,0.333,1.649-0.4,1.915s-1.625-0.438-1.535-1.213
		c0.474-0.37,1.051-0.607,1.649-0.678"/>
	<path fill="#FFEDD5" d="M53.941,65.453c0.132,0.77-0.72,1.521-1.467,1.296c-0.746-0.226-1.039-1.324-0.504-1.891
		c0.602-0.014,1.206,0.142,1.727,0.443"/>
	<path fill="#FFEDD5" d="M39.691,63.544c0.772-0.108,1.499,0.765,1.252,1.504c-0.247,0.74-1.353,1-1.905,0.448
		c0.005-0.601,0.178-1.201,0.495-1.712"/>
	<path fill="#FFEDD5" d="M50.517,12.995c0.384,0.679-0.164,1.675-0.943,1.715c-0.779,0.04-1.425-0.895-1.113-1.61
		c0.562-0.215,1.183-0.273,1.775-0.165"/>
	<path fill="#FFEDD5" d="M57.173,42.685c0.75,0.215,1.058,1.309,0.531,1.884c-0.527,0.574-1.644,0.362-1.923-0.367
		c0.25-0.547,0.652-1.024,1.15-1.363"/>
	<path fill="#FFEDD5" d="M32.924,66.181c-0.587-0.513-0.401-1.634,0.32-1.93c0.722-0.297,1.642,0.37,1.584,1.147
		c-0.458,0.391-1.025,0.651-1.619,0.745"/>
	<path fill="#FFEDD5" d="M20.959,60.71c0.049-0.778,1.051-1.314,1.726-0.924c0.674,0.393,0.706,1.528,0.055,1.956
		c-0.589-0.126-1.141-0.416-1.578-0.829"/>
	<path fill="#FFEDD5" d="M47.849,6.381c-0.111,0.772-1.153,1.226-1.794,0.782c-0.641-0.444-0.582-1.579,0.102-1.954
		c0.576,0.172,1.104,0.506,1.506,0.953"/>
	<path fill="#FFEDD5" d="M36.102,40.122c-0.492-0.604-0.12-1.679,0.641-1.849c0.761-0.17,1.556,0.643,1.368,1.399
		c-0.518,0.308-1.12,0.469-1.722,0.462"/>
	<path fill="#FFEDD5" d="M33.157,41.75c0.725-0.285,1.636,0.394,1.568,1.171c-0.067,0.776-1.082,1.288-1.747,0.881
		c-0.136-0.586-0.108-1.21,0.081-1.781"/>
	<path fill="#FFEDD5" d="M27.815,35.236c-0.598-0.501-0.435-1.626,0.281-1.938c0.715-0.311,1.648,0.337,1.607,1.116
		c-0.45,0.399-1.012,0.672-1.604,0.779"/>
	<path fill="#FFEDD5" d="M31.367,69.52c-0.697,0.352-1.665-0.243-1.668-1.023c-0.002-0.78,0.962-1.381,1.661-1.035
		c0.188,0.572,0.217,1.195,0.08,1.781"/>
	<path fill="#FFEDD5" d="M36.444,68.791c0.553,0.55,0.296,1.657-0.443,1.906c-0.739,0.249-1.615-0.476-1.508-1.248
		c0.483-0.359,1.065-0.583,1.664-0.641"/>
	<path fill="#FFEDD5" d="M41.49,28.606c-0.384-0.679,0.164-1.675,0.943-1.715c0.779-0.04,1.425,0.895,1.113,1.61
		c-0.562,0.215-1.183,0.272-1.775,0.165"/>
	<path fill="#FFEDD5" d="M40.839,43.51c-0.156-0.764,0.672-1.543,1.425-1.341c0.753,0.202,1.081,1.29,0.564,1.874
		c-0.601,0.032-1.21-0.104-1.74-0.389"/>
	<path fill="#FFEDD5" d="M57.527,38.184c-0.552,0.551-1.658,0.289-1.904-0.451s0.482-1.611,1.254-1.502
		c0.357,0.484,0.579,1.067,0.633,1.666"/>
	<path fill="#FFEDD5" d="M45.44,73.459c0.439-0.645,1.574-0.595,1.955,0.086c0.381,0.681-0.17,1.674-0.949,1.711
		c-0.442-0.408-0.77-0.939-0.935-1.519"/>
	<path fill="#FFEDD5" d="M46.778,56.258c0.59,0.51,0.41,1.632-0.31,1.933c-0.72,0.3-1.643-0.362-1.59-1.141
		c0.456-0.392,1.022-0.655,1.615-0.754"/>
	<path fill="#FFEDD5" d="M26.05,20.258c0.265,0.733-0.44,1.624-1.215,1.534c-0.775-0.09-1.257-1.119-0.83-1.772
		c0.59-0.119,1.212-0.073,1.778,0.132"/>
	<path fill="#FFEDD5" d="M53.838,75.542c-0.44-0.644,0.022-1.683,0.794-1.787c0.773-0.106,1.496,0.77,1.246,1.509
		c-0.542,0.262-1.156,0.373-1.755,0.314"/>
	<path fill="#FFEDD5" d="M26.336,28.525c0.646-0.438,1.683,0.028,1.785,0.802c0.103,0.772-0.777,1.492-1.514,1.239
		c-0.26-0.543-0.368-1.157-0.308-1.757"/>
	<path fill="#FFEDD5" d="M49.397,19.356c-0.502-0.597-0.147-1.676,0.611-1.859s1.566,0.617,1.39,1.377
		c-0.512,0.315-1.112,0.486-1.714,0.489"/>
	<path fill="#FFEDD5" d="M55.517,51.441c-0.414-0.661,0.088-1.681,0.864-1.756s1.464,0.829,1.185,1.557
		c-0.551,0.241-1.169,0.327-1.766,0.246"/>
	<path fill="#FFEDD5" d="M53.295,15.996c0.281-0.727,1.398-0.936,1.924-0.359c0.525,0.576,0.213,1.669-0.538,1.881
		c-0.523-0.297-0.962-0.741-1.254-1.267"/>
	<path fill="#FFEDD5" d="M60.078,24.836c0.388,0.677-0.154,1.676-0.933,1.72c-0.778,0.045-1.43-0.886-1.122-1.603
		c0.56-0.218,1.181-0.28,1.774-0.175"/>
	<path fill="#FFEDD5" d="M39.102,16.609c0.754,0.201,1.082,1.289,0.565,1.874c-0.517,0.584-1.637,0.391-1.929-0.332
		c0.24-0.552,0.633-1.036,1.125-1.383"/>
	<path fill="#FFEDD5" d="M25.193,16.332c-0.745,0.231-1.602-0.515-1.476-1.284c0.125-0.77,1.176-1.204,1.808-0.748
		c0.092,0.595,0.017,1.215-0.214,1.77"/>
	<path fill="#FFEDD5" d="M26.788,66.859c-0.413,0.662-1.549,0.658-1.957-0.007s0.103-1.68,0.88-1.748
		c0.459,0.39,0.807,0.908,0.995,1.48"/>
	<path fill="#FFEDD5" d="M29.078,53.172c0.039-0.779,1.034-1.328,1.713-0.945c0.68,0.382,0.727,1.518,0.081,1.955
		c-0.59-0.118-1.146-0.402-1.589-0.81"/>
	<path fill="#FFEDD5" d="M32.128,8.207c-0.618-0.475-0.504-1.606,0.198-1.947c0.701-0.341,1.661,0.267,1.653,1.047
		c-0.433,0.418-0.982,0.714-1.569,0.846"/>
	<path fill="#FFEDD5" d="M58.407,54.793c0.361,0.69-0.219,1.669-0.998,1.683c-0.78,0.015-1.396-0.941-1.06-1.645
		c0.568-0.197,1.191-0.234,1.779-0.107"/>
	<path fill="#FFEDD5" d="M53.384,53.299c-0.322,0.711-1.449,0.856-1.941,0.25c-0.491-0.604-0.118-1.678,0.643-1.848
		c0.506,0.327,0.919,0.794,1.181,1.336"/>
	<path fill="#FFEDD5" d="M50.396,62.561c-0.78,0.009-1.388-0.951-1.048-1.653c0.341-0.701,1.472-0.817,1.947-0.199
		c-0.082,0.597-0.331,1.168-0.711,1.635"/>
	<path fill="#FFEDD5" d="M28.57,57.906c-0.304-0.718,0.353-1.645,1.132-1.596c0.778,0.049,1.314,1.051,0.923,1.726
		c-0.583,0.149-1.207,0.137-1.783-0.037"/>
	<path fill="#FFEDD5" d="M49.068,23.173c-0.146-0.766,0.691-1.534,1.442-1.323c0.751,0.212,1.064,1.304,0.54,1.881
		c-0.602,0.025-1.209-0.119-1.735-0.411"/>
	<path fill="#FFEDD5" d="M54.976,57.292c0.284,0.726-0.398,1.635-1.175,1.564c-0.777-0.069-1.285-1.087-0.875-1.75
		c0.586-0.135,1.21-0.104,1.78,0.087"/>
	<path fill="#F4D49D" d="M47.157,51.286c0.719,0.199,1.52-0.523,1.395-1.259c-0.573-0.301-1.38,0.023-1.586,0.637"/>
	<path fill="#F4D49D" d="M29.264,44.629c0.014-0.746-0.886-1.342-1.567-1.038c-0.148,0.63,0.366,1.331,1.012,1.377"/>
	<path fill="#F4D49D" d="M25.562,10.597c0.537,0.518,1.586,0.264,1.827-0.441c-0.361-0.538-1.224-0.638-1.698-0.196"/>
	<path fill="#F4D49D" d="M25,40.74c0.745-0.04,1.274-0.98,0.922-1.638c-0.64-0.103-1.301,0.462-1.301,1.108"/>
	<path fill="#F4D49D" d="M50.32,44.427c0.417-0.618-0.015-1.608-0.752-1.722c-0.467,0.447-0.415,1.315,0.102,1.706"/>
	<path fill="#F4D49D" d="M55.579,11.997c-0.267-0.696-1.325-0.911-1.842-0.373c0.099,0.64,0.839,1.095,1.455,0.896"/>
	<path fill="#F4D49D" d="M56.188,31.49c0.74-0.089,1.207-1.062,0.813-1.694c-0.645-0.061-1.268,0.546-1.226,1.191"/>
	<path fill="#F4D49D" d="M33.563,72.389c-0.738-0.104-1.439,0.717-1.22,1.43c0.608,0.224,1.366-0.203,1.49-0.838"/>
	<path fill="#F4D49D" d="M42.461,13.996c0.166-0.727-0.593-1.494-1.321-1.336c-0.275,0.586,0.086,1.377,0.709,1.555"/>
	<path fill="#F4D49D" d="M23.017,26.546c-0.372,0.646,0.129,1.603,0.872,1.665c0.434-0.481,0.321-1.343-0.222-1.695"/>
	<path fill="#F4D49D" d="M30.838,37.744c-0.668,0.331-0.783,1.404-0.199,1.869c0.627-0.159,1.012-0.938,0.756-1.533"/>
	<path fill="#F4D49D" d="M36.488,46.915c0.523-0.532,0.279-1.583-0.424-1.831c-0.541,0.356-0.649,1.218-0.212,1.696"/>
	<path fill="#F4D49D" d="M35.826,56.616c0.719-0.197,1.038-1.229,0.554-1.796c-0.646,0.034-1.173,0.727-1.036,1.358"/>
	<path fill="#F4D49D" d="M53.304,27.969c-0.594-0.451-1.606-0.077-1.763,0.651c0.422,0.492,1.291,0.49,1.71-0.004"/>
	<path fill="#F4D49D" d="M35.69,34.5c-0.424-0.614-1.502-0.573-1.878,0.071c0.247,0.599,1.074,0.867,1.626,0.528"/>
	<path fill="#F4D49D" d="M24.794,56.534c-0.302-0.682-1.369-0.843-1.858-0.28c0.131,0.634,0.893,1.053,1.498,0.822"/>
	<path fill="#F4D49D" d="M50.679,71.812c0.702-0.252,0.94-1.305,0.414-1.833c-0.642,0.085-1.114,0.814-0.928,1.435"/>
	<path fill="#F4D49D" d="M33.307,50.32c0.446,0.597,1.523,0.516,1.874-0.143c-0.27-0.589-1.106-0.826-1.644-0.466"/>
	<path fill="#F4D49D" d="M37.958,61.586c0.39-0.636-0.084-1.605-0.825-1.688c-0.448,0.469-0.359,1.333,0.175,1.7"/>
	<path fill="#F4D49D" d="M42.643,57.403c-0.229-0.71-1.274-0.98-1.819-0.472c0.064,0.644,0.779,1.139,1.405,0.973"/>
	<path fill="#F4D49D" d="M47.02,31.693c-0.735,0.129-1.148,1.126-0.72,1.735c0.647,0.026,1.237-0.612,1.159-1.256"/>
	<path fill="#F4D49D" d="M28.628,5.233c-0.691,0.281-0.883,1.344-0.335,1.849c0.638-0.112,1.078-0.862,0.866-1.473"/>
	<path fill="#F4D49D" d="M41.339,47.658c-0.59-0.457-1.605-0.091-1.768,0.638c0.417,0.494,1.286,0.5,1.709,0.011"/>
	<path fill="#F4D49D" d="M45.828,69.836c-0.662-0.344-1.596,0.197-1.626,0.941c0.499,0.413,1.355,0.265,1.684-0.294"/>
	<path fill="#F4D49D" d="M32.832,21.834c-0.7,0.256-0.931,1.311-0.402,1.836c0.642-0.089,1.109-0.822,0.919-1.441"/>
	<path fill="#F4D49D" d="M49.916,8.813c-0.142,0.732,0.642,1.474,1.365,1.292c0.255-0.595-0.132-1.374-0.76-1.531"/>
	<path fill="#F4D49D" d="M39.319,21.35c-0.712,0.221-0.996,1.262-0.493,1.814c0.645-0.058,1.148-0.766,0.99-1.394"/>
	<path fill="#F4D49D" d="M44.833,46.152c-0.074,0.741,0.774,1.408,1.478,1.161c0.199-0.616-0.258-1.356-0.898-1.455"/>
	<path fill="#F4D49D" d="M52.936,38.864c-0.745,0.019-1.301,0.944-0.967,1.61c0.636,0.121,1.313-0.425,1.331-1.072"/>
	<path fill="#F4D49D" d="M40.784,33.913c0.252,0.702,1.305,0.939,1.833,0.413c-0.085-0.642-0.815-1.112-1.435-0.927"/>
	<path fill="#F4D49D" d="M60.202,17.912c0.732,0.14,1.472-0.646,1.288-1.369c-0.596-0.253-1.374,0.136-1.529,0.765"/>
	<path fill="#F4D49D" d="M50.183,55.422c-0.581-0.467-1.603-0.121-1.78,0.604c0.408,0.503,1.277,0.525,1.709,0.042"/>
	<path fill="#F4D49D" d="M52.512,46.943c-0.104,0.737,0.718,1.438,1.431,1.219c0.223-0.608-0.204-1.365-0.839-1.489"/>
	<path fill="#F4D49D" d="M23.588,52.416c-0.093-0.739-1.07-1.199-1.7-0.802c-0.056,0.646,0.554,1.266,1.2,1.218"/>
	<path fill="#F4D49D" d="M58.326,13.446c0.545,0.509,1.59,0.238,1.819-0.472c-0.37-0.532-1.234-0.617-1.701-0.168"/>
	<path fill="#F4D49D" d="M28.076,72.282c-0.656,0.354-0.731,1.432-0.132,1.875c0.622-0.182,0.978-0.975,0.701-1.56"/>
	<path fill="#F4D49D" d="M45.997,39.286c0.709,0.232,1.543-0.452,1.452-1.193c-0.558-0.327-1.379-0.041-1.614,0.563"/>
	<path fill="#F4D49D" d="M20.62,68.876c-0.309,0.679,0.281,1.583,1.026,1.573c0.387-0.519,0.192-1.365-0.382-1.666"/>
	<path fill="#F4D49D" d="M26.651,70.618c-0.47-0.579-1.542-0.456-1.867,0.215c0.292,0.578,1.137,0.782,1.661,0.402"/>
	<path fill="#F4D49D" d="M29.396,24.839c-0.277-0.692-1.338-0.892-1.847-0.347c0.108,0.638,0.855,1.084,1.468,0.876"/>
	<path fill="#F4D49D" d="M41.848,6.733c0.115,0.737,1.105,1.168,1.723,0.751c0.037-0.647-0.591-1.248-1.236-1.182"/>
	<path fill="#F4D49D" d="M32.253,19.017c0.366-0.65-0.143-1.601-0.887-1.657c-0.43,0.485-0.309,1.345,0.238,1.693"/>
	<path fill="#F4D49D" d="M45.146,61.448c-0.74-0.09-1.424,0.746-1.191,1.454c0.613,0.211,1.361-0.23,1.473-0.868"/>
	<path fill="#F4D49D" d="M22.027,65.346c-0.389-0.636-1.468-0.656-1.879-0.034c0.213,0.611,1.024,0.926,1.593,0.618"/>
	<path fill="#F4D49D" d="M55.688,6.385c-0.746,0-1.325,0.91-1.009,1.586c0.633,0.137,1.324-0.391,1.359-1.038"/>
	<path fill="#F4D49D" d="M39.222,72.53c-0.598,0.445-0.519,1.521,0.138,1.874c0.589-0.269,0.828-1.104,0.47-1.644"/>
	<path fill="#F4D49D" d="M39.655,8.673c-0.741-0.088-1.423,0.748-1.188,1.456c0.612,0.21,1.36-0.232,1.471-0.87"/>
	<path fill="#F4D49D" d="M35.385,9.197c-0.746,0.009-1.313,0.928-0.988,1.599c0.635,0.128,1.319-0.408,1.345-1.055"/>
	<path fill="#F4D49D" d="M42.012,39.36c0.291-0.688-0.323-1.575-1.068-1.547c-0.372,0.529-0.155,1.372,0.427,1.655"/>
	<path fill="#F4D49D" d="M29.828,13.622c0.702,0.252,1.555-0.409,1.485-1.152c-0.549-0.342-1.378-0.079-1.629,0.518"/>
	<path fill="#F4D49D" d="M45.966,17.682c0.101-0.739-0.723-1.436-1.435-1.214c-0.221,0.609,0.208,1.365,0.844,1.486"/>
	<path fill="#F4D49D" d="M29.094,49.495c0.02-0.745-0.875-1.349-1.559-1.05c-0.153,0.629,0.356,1.333,1.002,1.385"/>
	<path fill="#F4D49D" d="M21.726,8.164c0.183,0.723,1.208,1.061,1.785,0.589c-0.023-0.647-0.704-1.187-1.339-1.063"/>
	<path fill="#F4D49D" d="M44.84,11.534c0.516,0.538,1.574,0.326,1.843-0.369c-0.34-0.552-1.198-0.685-1.689-0.263"/>
	<path fill="#F4D49D" d="M46.75,27.685c0.658,0.351,1.597-0.182,1.635-0.926c-0.494-0.418-1.352-0.277-1.686,0.278"/>
	<path fill="#F4D49D" d="M57.511,18.888c-0.746,0.016-1.305,0.938-0.975,1.607c0.636,0.123,1.315-0.419,1.336-1.066"/>
	<path fill="#F4D49D" d="M19.431,72.513c-0.42,0.616,0.006,1.608,0.743,1.727c0.469-0.446,0.422-1.314-0.093-1.706"/>
	<path fill="#F4D49D" d="M32.173,59.85c-0.649,0.367-0.705,1.445-0.097,1.878c0.618-0.193,0.959-0.992,0.671-1.572"/>
	<path fill="#F4D49D" d="M24.277,46.295c-0.717-0.205-1.524,0.511-1.406,1.247c0.571,0.306,1.38-0.012,1.592-0.624"/>
	<path fill="#F4D49D" d="M45.263,21.733c-0.514-0.541-1.573-0.333-1.844,0.362c0.337,0.553,1.195,0.69,1.688,0.269"/>
	<path fill="#F4D49D" d="M60.779,8.125c-0.742,0.073-1.23,1.036-0.849,1.677c0.644,0.074,1.28-0.519,1.251-1.166"/>
	<path fill="#F4D49D" d="M52.122,35.082c0.442-0.602,0.051-1.607-0.681-1.752c-0.485,0.429-0.469,1.298,0.032,1.709"/>
	<path fill="#F4D49D" d="M37.963,31.606c0.658-0.353,0.738-1.428,0.141-1.874c-0.623,0.178-0.983,0.969-0.708,1.556"/>
	<path fill="#C9A877" d="M6.309,14.729c-1.494,8.11,1.096,18.365,1.293,26.61c0.106,4.465-0.489,8.963,0.149,13.383
		c0.467,3.231,1.58,6.571,0.565,9.675c-0.624,1.909-2.002,3.503-2.61,5.417c-0.634,1.995-0.38,4.145-0.287,6.235
		c0.309,6.899-1.251,13.875-4.469,19.985c19.877-2.727,40.001,1.977,60.063,1.726c0.331-0.004,0.698-0.023,0.934-0.256
		c0.19-0.188,0.248-0.47,0.27-0.735c0.168-2.014-1.146-3.805-1.933-5.666c-1.531-3.619-1.094-7.743-1.874-11.594
		c-0.8-3.948-2.894-7.709-2.637-11.729c0.12-1.873,0.749-3.669,1.269-5.472c2.314-8.016,2.526-16.46,2.961-24.791
		c0.347-6.654,0.944-13.611,4.512-19.238c-7.179-3.233-12.802-0.551-19.429-1.11c-4.366-0.369-9.163,0.483-13.508-0.088
		c-8.357-1.098-15.278-3.346-23.64-2.29"/>
	<path fill="#FFEDD5" d="M12.357,22.426c0.284,0.726-0.397,1.635-1.174,1.565c-0.777-0.069-1.286-1.086-0.876-1.749
		c0.586-0.135,1.209-0.105,1.78,0.085"/>
	<path fill="#FFEDD5" d="M17.278,49.291c0.228-0.746,1.327-1.035,1.892-0.498c0.566,0.537,0.334,1.648-0.399,1.915
		c-0.543-0.258-1.013-0.669-1.343-1.172"/>
	<path fill="#FFEDD5" d="M42.108,43.47c-0.016,0.78-0.994,1.358-1.685,0.996c-0.69-0.363-0.771-1.496-0.138-1.952
		c0.593,0.101,1.157,0.367,1.612,0.762"/>
	<path fill="#FFEDD5" d="M23.082,33.982c0.084,0.774-0.812,1.474-1.544,1.202c-0.731-0.271-0.955-1.386-0.386-1.919
		c0.601,0.024,1.195,0.218,1.696,0.551"/>
	<path fill="#FFEDD5" d="M37.132,23.547c0.636,0.451,0.564,1.586-0.124,1.953s-1.67-0.203-1.692-0.983
		c0.417-0.434,0.955-0.751,1.536-0.905"/>
	<path fill="#FFEDD5" d="M33.551,87.283c-0.663,0.41-1.68-0.098-1.751-0.874c-0.07-0.777,0.838-1.46,1.565-1.176
		c0.237,0.553,0.319,1.171,0.235,1.767"/>
	<path fill="#FFEDD5" d="M8.803,53.964c0.098-0.774,1.132-1.245,1.78-0.812c0.649,0.433,0.609,1.568-0.068,1.955
		c-0.579-0.162-1.112-0.487-1.523-0.928"/>
	<path fill="#FFEDD5" d="M14.406,83.167c-0.598,0.501-1.677,0.143-1.858-0.615c-0.181-0.759,0.621-1.565,1.381-1.389
		c0.314,0.515,0.484,1.114,0.485,1.717"/>
	<path fill="#FFEDD5" d="M45.296,20.334c-0.159-0.763,0.665-1.546,1.419-1.348c0.754,0.199,1.086,1.285,0.572,1.872
		c-0.601,0.034-1.21-0.099-1.742-0.382"/>
	<path fill="#FFEDD5" d="M28.072,73.273c-0.597,0.502-1.676,0.147-1.859-0.61s0.617-1.566,1.377-1.391
		c0.315,0.513,0.486,1.112,0.489,1.715"/>
	<path fill="#FFEDD5" d="M23.472,45.063c0.374,0.685-0.188,1.672-0.968,1.7c-0.779,0.028-1.412-0.915-1.089-1.625
		c0.565-0.208,1.187-0.257,1.777-0.14"/>
	<path fill="#FFEDD5" d="M54.992,86.08c0.497-0.602,1.623-0.446,1.939,0.267c0.315,0.713-0.326,1.651-1.105,1.615
		c-0.402-0.447-0.679-1.007-0.79-1.598"/>
	<path fill="#FFEDD5" d="M27.137,88.08c0.565,0.537,0.333,1.649-0.4,1.915s-1.625-0.438-1.535-1.213
		c0.474-0.37,1.051-0.607,1.649-0.678"/>
	<path fill="#FFEDD5" d="M47.685,50.614c-0.779-0.048-1.317-1.049-0.927-1.724c0.389-0.676,1.525-0.711,1.956-0.06
		c-0.125,0.588-0.414,1.142-0.826,1.58"/>
	<path fill="#FFEDD5" d="M39.941,85.453c0.132,0.77-0.72,1.521-1.467,1.296c-0.746-0.226-1.039-1.324-0.504-1.891
		c0.602-0.014,1.206,0.142,1.727,0.443"/>
	<path fill="#FFEDD5" d="M25.691,83.544c0.772-0.108,1.499,0.765,1.252,1.504c-0.247,0.74-1.353,1-1.905,0.448
		c0.005-0.601,0.178-1.201,0.495-1.712"/>
	<path fill="#FFEDD5" d="M36.517,32.995c0.384,0.679-0.164,1.675-0.943,1.715c-0.779,0.04-1.425-0.895-1.113-1.609
		c0.562-0.216,1.183-0.273,1.775-0.165"/>
	<path fill="#FFEDD5" d="M42.427,89.1c0.677,0.387,0.717,1.521,0.069,1.956c-0.649,0.433-1.683-0.039-1.781-0.813
		c0.372-0.473,0.876-0.841,1.44-1.052"/>
	<path fill="#FFEDD5" d="M43.173,62.685c0.75,0.215,1.058,1.309,0.531,1.884c-0.527,0.574-1.644,0.362-1.923-0.367
		c0.25-0.547,0.652-1.024,1.15-1.363"/>
	<path fill="#FFEDD5" d="M18.924,86.181c-0.587-0.513-0.401-1.634,0.32-1.93c0.722-0.297,1.642,0.37,1.584,1.147
		c-0.458,0.391-1.025,0.651-1.619,0.745"/>
	<path fill="#FFEDD5" d="M50.896,27.296c0.761,0.173,1.13,1.247,0.635,1.852c-0.494,0.603-1.62,0.452-1.939-0.259
		c0.218-0.561,0.593-1.06,1.071-1.425"/>
	<path fill="#FFEDD5" d="M45.262,71.218c0.403-0.668,1.539-0.681,1.957-0.022c0.417,0.659-0.079,1.682-0.855,1.761
		c-0.464-0.384-0.819-0.896-1.016-1.465"/>
	<path fill="#FFEDD5" d="M48.213,95.274c-0.401,0.669-1.537,0.686-1.957,0.028c-0.419-0.657,0.073-1.682,0.849-1.764
		c0.465,0.383,0.823,0.894,1.021,1.462"/>
	<path fill="#FFEDD5" d="M28.038,18.552c0.052,0.778-0.872,1.439-1.592,1.138c-0.719-0.301-0.898-1.423-0.307-1.932
		c0.599,0.048,1.185,0.265,1.672,0.618"/>
	<path fill="#FFEDD5" d="M50.532,71.68c-0.779-0.04-1.326-1.036-0.942-1.715c0.384-0.68,1.52-0.725,1.956-0.077
		c-0.12,0.59-0.404,1.145-0.813,1.587"/>
	<path fill="#FFEDD5" d="M41.125,22.035c0.015,0.78-0.94,1.396-1.645,1.06c-0.704-0.335-0.828-1.464-0.214-1.945
		c0.597,0.078,1.171,0.322,1.64,0.699"/>
	<path fill="#FFEDD5" d="M6.959,80.71c0.049-0.778,1.051-1.314,1.726-0.924c0.674,0.393,0.706,1.528,0.055,1.956
		c-0.589-0.126-1.141-0.416-1.578-0.829"/>
	<path fill="#FFEDD5" d="M33.849,26.381c-0.111,0.772-1.153,1.227-1.794,0.782c-0.641-0.444-0.582-1.579,0.102-1.954
		c0.576,0.172,1.104,0.506,1.506,0.953"/>
	<path fill="#FFEDD5" d="M49.637,85.153c-0.061-0.777,0.856-1.449,1.579-1.156c0.723,0.293,0.914,1.413,0.329,1.93
		c-0.6-0.042-1.188-0.252-1.679-0.601"/>
	<path fill="#FFEDD5" d="M13.661,16.161c0.651,0.43,0.617,1.566-0.059,1.956c-0.675,0.39-1.676-0.147-1.723-0.926
		c0.402-0.448,0.928-0.782,1.505-0.956"/>
	<path fill="#FFEDD5" d="M33.971,18.908c0.626-0.465,1.682-0.044,1.818,0.724c0.136,0.768-0.711,1.525-1.459,1.303
		c-0.284-0.531-0.418-1.14-0.384-1.741"/>
	<path fill="#FFEDD5" d="M22.102,60.122c-0.492-0.604-0.12-1.679,0.641-1.849c0.761-0.17,1.556,0.643,1.368,1.399
		c-0.518,0.308-1.12,0.469-1.722,0.462"/>
	<path fill="#FFEDD5" d="M19.157,61.75c0.725-0.285,1.636,0.394,1.568,1.171c-0.067,0.776-1.082,1.288-1.747,0.881
		c-0.136-0.586-0.108-1.21,0.081-1.781"/>
	<path fill="#FFEDD5" d="M13.815,55.236c-0.598-0.501-0.435-1.626,0.281-1.938c0.715-0.311,1.648,0.337,1.607,1.116
		c-0.45,0.399-1.012,0.672-1.604,0.779"/>
	<path fill="#FFEDD5" d="M50.294,90.216c0.131-0.769,1.184-1.196,1.814-0.735c0.629,0.461,0.54,1.595-0.153,1.951
		c-0.572-0.188-1.09-0.535-1.481-0.992"/>
	<path fill="#FFEDD5" d="M17.367,89.52c-0.697,0.352-1.665-0.243-1.668-1.023c-0.002-0.78,0.962-1.381,1.661-1.035
		c0.188,0.572,0.217,1.195,0.08,1.781"/>
	<path fill="#FFEDD5" d="M22.444,88.791c0.553,0.55,0.296,1.657-0.443,1.906c-0.739,0.249-1.614-0.476-1.508-1.248
		c0.483-0.359,1.065-0.583,1.664-0.641"/>
	<path fill="#FFEDD5" d="M53.388,39.372c0.323,0.71-0.309,1.654-1.088,1.626c-0.78-0.028-1.342-1.015-0.969-1.7
		c0.578-0.166,1.202-0.169,1.782-0.01"/>
	<path fill="#FFEDD5" d="M27.49,48.606c-0.384-0.679,0.164-1.675,0.943-1.715c0.779-0.04,1.425,0.895,1.113,1.61
		c-0.562,0.215-1.183,0.272-1.775,0.165"/>
	<path fill="#FFEDD5" d="M49.905,20.029c-0.343-0.7,0.262-1.662,1.042-1.657c0.78,0.006,1.37,0.977,1.017,1.672
		c-0.574,0.182-1.198,0.204-1.782,0.061"/>
	<path fill="#FFEDD5" d="M55.421,75.915c-0.242,0.741-1.347,1.009-1.902,0.461c-0.555-0.548-0.301-1.655,0.437-1.907
		c0.538,0.27,1,0.688,1.32,1.198"/>
	<path fill="#FFEDD5" d="M57.698,38.316c-0.343,0.699-1.474,0.812-1.947,0.191c-0.474-0.62-0.069-1.681,0.697-1.828
		c0.496,0.343,0.895,0.821,1.141,1.37"/>
	<path fill="#FFEDD5" d="M54.911,54.731c-0.73-0.274-0.948-1.391-0.375-1.921c0.572-0.528,1.667-0.226,1.886,0.522
		c-0.294,0.526-0.733,0.969-1.257,1.265"/>
	<path fill="#FFEDD5" d="M26.839,63.51c-0.156-0.764,0.672-1.543,1.425-1.341c0.753,0.202,1.081,1.29,0.564,1.874
		c-0.601,0.032-1.21-0.104-1.74-0.389"/>
	<path fill="#FFEDD5" d="M41.221,82.919c-0.379-0.683,0.176-1.674,0.956-1.708c0.779-0.034,1.418,0.906,1.101,1.618
		c-0.564,0.211-1.185,0.264-1.777,0.151"/>
	<path fill="#FFEDD5" d="M43.527,58.184c-0.552,0.551-1.658,0.289-1.904-0.451s0.482-1.611,1.254-1.502
		c0.357,0.484,0.579,1.067,0.633,1.666"/>
	<path fill="#FFEDD5" d="M31.44,93.459c0.439-0.645,1.574-0.595,1.955,0.086c0.381,0.681-0.17,1.674-0.949,1.711
		c-0.442-0.408-0.77-0.939-0.935-1.519"/>
	<path fill="#FFEDD5" d="M32.778,76.258c0.59,0.51,0.41,1.632-0.31,1.933c-0.72,0.3-1.643-0.362-1.59-1.141
		c0.456-0.392,1.022-0.655,1.615-0.754"/>
	<path fill="#FFEDD5" d="M12.05,40.258c0.265,0.733-0.44,1.624-1.215,1.534c-0.775-0.09-1.257-1.119-0.83-1.772
		c0.59-0.118,1.212-0.072,1.778,0.133"/>
	<path fill="#FFEDD5" d="M39.838,95.542c-0.44-0.644,0.022-1.683,0.794-1.787c0.773-0.106,1.496,0.77,1.246,1.509
		c-0.542,0.262-1.156,0.373-1.755,0.314"/>
	<path fill="#FFEDD5" d="M12.336,48.525c0.646-0.438,1.683,0.028,1.785,0.802c0.103,0.772-0.777,1.492-1.514,1.239
		c-0.26-0.543-0.368-1.157-0.308-1.757"/>
	<path fill="#FFEDD5" d="M35.397,39.356c-0.502-0.597-0.147-1.676,0.611-1.858c0.758-0.184,1.566,0.616,1.39,1.377
		c-0.512,0.314-1.112,0.485-1.714,0.488"/>
	<path fill="#FFEDD5" d="M18.42,22.298c0.378-0.682,1.514-0.736,1.955-0.092c0.441,0.643-0.018,1.682-0.791,1.79
		c-0.477-0.367-0.851-0.866-1.068-1.427"/>
	<path fill="#FFEDD5" d="M41.517,71.441c-0.414-0.661,0.088-1.681,0.864-1.756s1.464,0.829,1.185,1.557
		c-0.551,0.241-1.169,0.327-1.766,0.246"/>
	<path fill="#FFEDD5" d="M39.295,35.996c0.281-0.727,1.398-0.936,1.924-0.358c0.525,0.575,0.213,1.669-0.538,1.881
		c-0.523-0.297-0.962-0.741-1.254-1.268"/>
	<path fill="#FFEDD5" d="M56.847,43.39c-0.712-0.318-0.865-1.444-0.262-1.939c0.602-0.496,1.678-0.129,1.852,0.631
		c-0.323,0.508-0.788,0.924-1.329,1.189"/>
	<path fill="#FFEDD5" d="M56.153,92.521c-0.632-0.456-0.552-1.59,0.139-1.952c0.691-0.361,1.669,0.218,1.684,0.996
		c-0.42,0.432-0.96,0.744-1.543,0.894"/>
	<path fill="#FFEDD5" d="M25.447,23.623c0.358,0.693-0.227,1.667-1.007,1.678c-0.78,0.01-1.391-0.948-1.051-1.651
		c0.569-0.194,1.192-0.228,1.78-0.098"/>
	<path fill="#FFEDD5" d="M47.839,76.167c-0.285-0.726,0.396-1.636,1.173-1.567c0.776,0.069,1.286,1.085,0.878,1.749
		c-0.587,0.136-1.21,0.106-1.781-0.083"/>
	<path fill="#FFEDD5" d="M47.979,57.095c0.769,0.131,1.196,1.184,0.735,1.813c-0.46,0.631-1.593,0.542-1.951-0.15
		c0.188-0.572,0.535-1.091,0.992-1.482"/>
	<path fill="#FFEDD5" d="M46.078,44.836c0.388,0.677-0.154,1.676-0.933,1.72c-0.778,0.045-1.43-0.886-1.122-1.603
		c0.56-0.219,1.181-0.28,1.774-0.176"/>
	<path fill="#FFEDD5" d="M25.102,36.609c0.754,0.201,1.082,1.289,0.565,1.874c-0.517,0.584-1.637,0.392-1.929-0.332
		c0.24-0.552,0.633-1.036,1.125-1.383"/>
	<path fill="#FFEDD5" d="M11.193,36.332c-0.745,0.231-1.602-0.515-1.476-1.284c0.125-0.77,1.176-1.204,1.808-0.748
		c0.092,0.596,0.017,1.216-0.214,1.771"/>
	<path fill="#FFEDD5" d="M46.577,24.723c-0.322,0.71-1.45,0.855-1.941,0.249c-0.491-0.606-0.117-1.679,0.644-1.848
		c0.505,0.327,0.918,0.795,1.18,1.337"/>
	<path fill="#FFEDD5" d="M57.571,48.319c0.59,0.51,0.41,1.632-0.31,1.932c-0.72,0.301-1.644-0.361-1.59-1.14
		c0.456-0.392,1.022-0.656,1.615-0.754"/>
	<path fill="#FFEDD5" d="M61.701,20.591c-0.375,0.684-1.51,0.743-1.954,0.102c-0.445-0.641,0.009-1.682,0.781-1.794
		c0.479,0.364,0.856,0.862,1.076,1.422"/>
	<path fill="#FFEDD5" d="M49.171,62.35c-0.003,0.779-0.972,1.373-1.668,1.022c-0.697-0.351-0.796-1.483-0.171-1.949
		c0.595,0.091,1.164,0.349,1.625,0.735"/>
	<path fill="#FFEDD5" d="M51.587,95.02c0.118-0.771,1.163-1.217,1.8-0.768c0.638,0.45,0.569,1.584-0.118,1.954
		c-0.575-0.178-1.099-0.516-1.498-0.966"/>
	<path fill="#FFEDD5" d="M12.788,86.859c-0.413,0.662-1.549,0.658-1.957-0.007s0.103-1.68,0.88-1.748
		c0.459,0.39,0.807,0.908,0.995,1.48"/>
	<path fill="#FFEDD5" d="M14.991,21.909c-0.629-0.461-0.541-1.594,0.153-1.951c0.693-0.357,1.667,0.228,1.677,1.008
		c-0.423,0.428-0.965,0.736-1.549,0.882"/>
	<path fill="#FFEDD5" d="M52.302,80.026c-0.129,0.769-1.181,1.199-1.812,0.74c-0.63-0.461-0.545-1.594,0.148-1.952
		c0.572,0.186,1.091,0.531,1.483,0.988"/>
	<path fill="#FFEDD5" d="M15.078,73.172c0.039-0.779,1.034-1.328,1.713-0.945c0.68,0.382,0.727,1.518,0.081,1.955
		c-0.59-0.118-1.146-0.402-1.589-0.81"/>
	<path fill="#FFEDD5" d="M54.076,45.031c0.427-0.653,1.563-0.624,1.956,0.049c0.394,0.674-0.14,1.678-0.918,1.729
		c-0.449-0.4-0.786-0.927-0.962-1.502"/>
	<path fill="#FFEDD5" d="M18.128,28.207c-0.618-0.475-0.504-1.606,0.198-1.947c0.701-0.341,1.661,0.268,1.653,1.047
		c-0.433,0.418-0.982,0.715-1.569,0.847"/>
	<path fill="#FFEDD5" d="M44.407,74.793c0.361,0.69-0.219,1.669-0.998,1.683c-0.78,0.015-1.396-0.941-1.06-1.645
		c0.568-0.197,1.191-0.234,1.779-0.107"/>
	<path fill="#FFEDD5" d="M39.384,73.299c-0.322,0.711-1.449,0.856-1.941,0.25c-0.491-0.604-0.118-1.678,0.643-1.848
		c0.506,0.327,0.919,0.794,1.181,1.336"/>
	<path fill="#FFEDD5" d="M36.396,82.561c-0.78,0.009-1.388-0.951-1.048-1.653c0.341-0.701,1.472-0.817,1.947-0.199
		c-0.082,0.597-0.331,1.168-0.711,1.635"/>
	<path fill="#FFEDD5" d="M14.57,77.906c-0.304-0.718,0.353-1.645,1.132-1.596c0.778,0.049,1.314,1.051,0.923,1.726
		c-0.583,0.149-1.207,0.137-1.783-0.037"/>
	<path fill="#FFEDD5" d="M58.954,24.328c-0.255,0.737-1.363,0.986-1.909,0.429c-0.546-0.557-0.274-1.66,0.468-1.9
		c0.534,0.279,0.989,0.706,1.3,1.221"/>
	<path fill="#FFEDD5" d="M6.855,22.309c-0.242-0.742,0.492-1.609,1.263-1.494c0.772,0.115,1.221,1.159,0.773,1.797
		c-0.593,0.101-1.214,0.034-1.773-0.189"/>
	<path fill="#FFEDD5" d="M35.068,43.172c-0.146-0.766,0.691-1.533,1.442-1.322c0.751,0.212,1.064,1.304,0.54,1.881
		c-0.602,0.024-1.209-0.119-1.735-0.411"/>
	<path fill="#FFEDD5" d="M54.138,60.097c-0.779-0.039-1.327-1.035-0.944-1.714c0.383-0.68,1.518-0.726,1.955-0.079
		c-0.119,0.59-0.402,1.145-0.81,1.588"/>
	<path fill="#FFEDD5" d="M17.9,18.302c-0.593-0.507-0.42-1.63,0.298-1.934c0.719-0.304,1.646,0.352,1.598,1.131
		c-0.455,0.395-1.018,0.662-1.612,0.763"/>
	<path fill="#FFEDD5" d="M55.729,18.187c0.775,0.086,1.262,1.113,0.839,1.768c-0.423,0.655-1.559,0.632-1.956-0.039
		c0.153-0.582,0.47-1.119,0.904-1.536"/>
	<path fill="#FFEDD5" d="M40.976,77.292c0.284,0.726-0.398,1.635-1.175,1.564c-0.777-0.069-1.285-1.087-0.875-1.75
		c0.586-0.135,1.21-0.104,1.78,0.087"/>
	<path fill="#F4D49D" d="M33.157,71.286c0.719,0.199,1.52-0.523,1.395-1.259c-0.573-0.301-1.38,0.023-1.586,0.637"/>
	<path fill="#F4D49D" d="M54.028,64.166c-0.601-0.44-1.607-0.05-1.751,0.682c0.429,0.485,1.298,0.469,1.709-0.032"/>
	<path fill="#F4D49D" d="M15.264,64.629c0.014-0.746-0.886-1.342-1.567-1.038c-0.148,0.63,0.366,1.331,1.012,1.377"/>
	<path fill="#F4D49D" d="M11.562,30.597c0.537,0.518,1.586,0.264,1.827-0.441c-0.361-0.538-1.224-0.638-1.698-0.196"/>
	<path fill="#F4D49D" d="M11,60.74c0.745-0.04,1.274-0.98,0.922-1.638c-0.64-0.103-1.301,0.462-1.301,1.108"/>
	<path fill="#F4D49D" d="M55.869,82.204c0.7-0.257,0.932-1.311,0.403-1.836c-0.642,0.089-1.109,0.821-0.92,1.44"/>
	<path fill="#F4D49D" d="M22.274,18.495c-0.425,0.613-0.007,1.608,0.728,1.733c0.473-0.443,0.433-1.311-0.078-1.708"/>
	<path fill="#F4D49D" d="M36.32,64.427c0.417-0.618-0.015-1.608-0.752-1.722c-0.467,0.447-0.415,1.315,0.102,1.706"/>
	<path fill="#F4D49D" d="M41.579,31.997c-0.267-0.695-1.325-0.91-1.842-0.373c0.099,0.641,0.839,1.096,1.455,0.896"/>
	<path fill="#F4D49D" d="M45.988,90.736c0.718,0.202,1.522-0.517,1.401-1.253c-0.572-0.303-1.38,0.017-1.589,0.63"/>
	<path fill="#F4D49D" d="M42.188,51.49c0.74-0.089,1.207-1.062,0.813-1.694c-0.645-0.061-1.268,0.546-1.226,1.191"/>
	<path fill="#F4D49D" d="M19.563,92.389c-0.738-0.104-1.439,0.717-1.22,1.43c0.608,0.224,1.366-0.203,1.49-0.838"/>
	<path fill="#F4D49D" d="M28.461,33.996c0.166-0.727-0.593-1.494-1.321-1.336c-0.275,0.586,0.086,1.377,0.709,1.556"/>
	<path fill="#F4D49D" d="M9.017,46.546c-0.372,0.646,0.129,1.603,0.872,1.665c0.434-0.481,0.321-1.343-0.222-1.695"/>
	<path fill="#F4D49D" d="M59.248,28.247c-0.732-0.144-1.475,0.639-1.295,1.361c0.595,0.256,1.375-0.129,1.533-0.757"/>
	<path fill="#F4D49D" d="M16.838,57.744c-0.668,0.331-0.783,1.404-0.199,1.869c0.627-0.159,1.012-0.938,0.756-1.533"/>
	<path fill="#F4D49D" d="M22.488,66.915c0.523-0.532,0.279-1.583-0.424-1.831c-0.541,0.356-0.649,1.218-0.212,1.696"/>
	<path fill="#F4D49D" d="M21.826,76.616c0.719-0.197,1.038-1.229,0.554-1.796c-0.646,0.034-1.173,0.727-1.036,1.358"/>
	<path fill="#F4D49D" d="M50.958,52.465c-0.745,0.04-1.273,0.981-0.921,1.639c0.64,0.102,1.301-0.462,1.3-1.11"/>
	<path fill="#F4D49D" d="M39.304,47.969c-0.594-0.451-1.606-0.077-1.763,0.651c0.422,0.492,1.291,0.49,1.71-0.004"/>
	<path fill="#F4D49D" d="M21.69,54.5c-0.424-0.614-1.502-0.573-1.878,0.071c0.247,0.599,1.074,0.867,1.626,0.528"/>
	<path fill="#F4D49D" d="M47.214,79.802c-0.476-0.574-1.547-0.439-1.865,0.234c0.299,0.575,1.146,0.771,1.666,0.385"/>
	<path fill="#F4D49D" d="M45.788,86.535c0.413-0.62-0.025-1.607-0.762-1.718c-0.464,0.452-0.408,1.319,0.112,1.706"/>
	<path fill="#F4D49D" d="M52.779,32.403c0.315,0.676,1.385,0.815,1.863,0.243c-0.143-0.631-0.913-1.033-1.514-0.793"/>
	<path fill="#F4D49D" d="M57.951,95.762c0.599,0.444,1.607,0.058,1.755-0.674c-0.428-0.485-1.297-0.474-1.71,0.025"/>
	<path fill="#F4D49D" d="M10.794,76.534c-0.302-0.682-1.369-0.843-1.858-0.28c0.131,0.634,0.893,1.053,1.498,0.822"/>
	<path fill="#F4D49D" d="M36.679,91.812c0.702-0.252,0.94-1.305,0.414-1.833c-0.642,0.085-1.114,0.814-0.928,1.435"/>
	<path fill="#F4D49D" d="M19.307,70.32c0.446,0.597,1.523,0.516,1.874-0.143c-0.27-0.589-1.106-0.826-1.644-0.466"/>
	<path fill="#F4D49D" d="M50.198,46.036c-0.024,0.745,0.868,1.353,1.553,1.058c0.157-0.628-0.349-1.335-0.994-1.39"/>
	<path fill="#F4D49D" d="M23.958,81.586c0.39-0.636-0.084-1.605-0.825-1.688c-0.448,0.469-0.359,1.333,0.175,1.7"/>
	<path fill="#F4D49D" d="M28.643,77.403c-0.229-0.71-1.274-0.98-1.819-0.472c0.064,0.644,0.779,1.139,1.405,0.973"/>
	<path fill="#F4D49D" d="M33.02,51.693c-0.735,0.129-1.148,1.126-0.72,1.735c0.647,0.026,1.237-0.612,1.159-1.256"/>
	<path fill="#F4D49D" d="M14.628,25.233c-0.691,0.281-0.883,1.344-0.335,1.849c0.638-0.111,1.078-0.861,0.866-1.473"/>
	<path fill="#F4D49D" d="M27.339,67.658c-0.59-0.457-1.605-0.091-1.768,0.638c0.417,0.494,1.286,0.5,1.709,0.011"/>
	<path fill="#F4D49D" d="M31.828,89.836c-0.662-0.344-1.596,0.197-1.626,0.941c0.499,0.413,1.355,0.265,1.684-0.294"/>
	<path fill="#F4D49D" d="M30.14,22.463c0.655-0.356,0.728-1.433,0.128-1.875c-0.622,0.182-0.976,0.976-0.697,1.561"/>
	<path fill="#F4D49D" d="M18.832,41.833c-0.7,0.257-0.931,1.312-0.402,1.837c0.642-0.09,1.109-0.822,0.919-1.441"/>
	<path fill="#F4D49D" d="M35.916,28.813c-0.142,0.732,0.642,1.475,1.365,1.292c0.255-0.595-0.132-1.374-0.76-1.53"/>
	<path fill="#F4D49D" d="M25.319,41.35c-0.712,0.221-0.996,1.262-0.493,1.813c0.645-0.058,1.148-0.766,0.99-1.394"/>
	<path fill="#F4D49D" d="M30.833,66.152c-0.074,0.741,0.774,1.408,1.478,1.161c0.199-0.616-0.258-1.356-0.898-1.455"/>
	<path fill="#F4D49D" d="M38.936,58.864c-0.745,0.019-1.301,0.944-0.967,1.61c0.636,0.121,1.313-0.425,1.331-1.072"/>
	<path fill="#F4D49D" d="M26.784,53.913c0.252,0.702,1.305,0.939,1.833,0.413c-0.085-0.642-0.815-1.112-1.435-0.927"/>
	<path fill="#F4D49D" d="M46.202,37.912c0.732,0.14,1.472-0.646,1.288-1.369c-0.596-0.253-1.374,0.136-1.529,0.765"/>
	<path fill="#F4D49D" d="M36.183,75.422c-0.581-0.467-1.603-0.121-1.78,0.604c0.408,0.503,1.277,0.525,1.709,0.042"/>
	<path fill="#F4D49D" d="M38.512,66.943c-0.104,0.737,0.718,1.438,1.431,1.219c0.223-0.608-0.204-1.365-0.839-1.489"/>
	<path fill="#F4D49D" d="M9.588,72.416c-0.093-0.739-1.07-1.199-1.7-0.802c-0.056,0.646,0.554,1.266,1.2,1.218"/>
	<path fill="#F4D49D" d="M44.326,33.446c0.545,0.51,1.59,0.238,1.819-0.472c-0.37-0.532-1.234-0.617-1.701-0.168"/>
	<path fill="#F4D49D" d="M14.076,92.282c-0.656,0.354-0.731,1.432-0.132,1.875c0.622-0.182,0.978-0.975,0.701-1.56"/>
	<path fill="#F4D49D" d="M42.438,19.202c-0.17-0.726-1.189-1.082-1.774-0.62c0.011,0.647,0.683,1.2,1.32,1.086"/>
	<path fill="#F4D49D" d="M31.997,59.286c0.709,0.232,1.543-0.452,1.452-1.193c-0.558-0.327-1.379-0.041-1.614,0.563"/>
	<path fill="#F4D49D" d="M48.924,42.053c-0.078-0.742-1.044-1.222-1.683-0.837c-0.069,0.644,0.528,1.275,1.174,1.242"/>
	<path fill="#F4D49D" d="M49.758,34.202c-0.194,0.721,0.536,1.517,1.27,1.385c0.296-0.574-0.034-1.379-0.65-1.58"/>
	<path fill="#F4D49D" d="M12.651,90.618c-0.469-0.579-1.542-0.456-1.867,0.215c0.292,0.578,1.137,0.782,1.661,0.402"/>
	<path fill="#F4D49D" d="M15.396,44.839c-0.277-0.692-1.338-0.893-1.847-0.348c0.108,0.639,0.855,1.084,1.468,0.876"/>
	<path fill="#F4D49D" d="M27.848,26.734c0.115,0.736,1.105,1.168,1.723,0.751c0.037-0.647-0.591-1.248-1.236-1.183"/>
	<path fill="#F4D49D" d="M46.549,53.463c-0.6-0.443-1.607-0.055-1.754,0.676c0.428,0.486,1.297,0.473,1.709-0.026"/>
	<path fill="#F4D49D" d="M18.253,39.017c0.366-0.65-0.143-1.602-0.887-1.657c-0.43,0.485-0.309,1.345,0.238,1.693"/>
	<path fill="#F4D49D" d="M31.146,81.448c-0.74-0.09-1.424,0.746-1.191,1.454c0.613,0.211,1.361-0.23,1.473-0.868"/>
	<path fill="#F4D49D" d="M58.154,34.778c0.475-0.574,0.142-1.601-0.58-1.788c-0.509,0.401-0.542,1.271-0.066,1.708"/>
	<path fill="#F4D49D" d="M41.688,26.385c-0.746,0-1.325,0.91-1.009,1.586c0.633,0.138,1.324-0.391,1.359-1.038"/>
	<path fill="#F4D49D" d="M25.222,92.53c-0.598,0.445-0.519,1.521,0.138,1.874c0.589-0.269,0.828-1.104,0.47-1.644"/>
	<path fill="#F4D49D" d="M25.655,28.672c-0.741-0.088-1.423,0.748-1.188,1.456c0.612,0.21,1.36-0.231,1.471-0.87"/>
	<path fill="#F4D49D" d="M21.385,29.197c-0.746,0.009-1.313,0.928-0.988,1.599c0.635,0.129,1.319-0.407,1.345-1.055"/>
	<path fill="#F4D49D" d="M28.012,59.36c0.291-0.688-0.323-1.575-1.068-1.547c-0.372,0.529-0.155,1.372,0.427,1.655"/>
	<path fill="#F4D49D" d="M15.828,33.623c0.702,0.252,1.555-0.409,1.485-1.152c-0.549-0.342-1.378-0.079-1.629,0.518"/>
	<path fill="#F4D49D" d="M31.966,37.682c0.101-0.739-0.723-1.436-1.435-1.214c-0.221,0.609,0.208,1.365,0.844,1.486"/>
	<path fill="#F4D49D" d="M15.094,69.495c0.02-0.745-0.875-1.349-1.559-1.05c-0.153,0.629,0.356,1.333,1.002,1.385"/>
	<path fill="#F4D49D" d="M46.887,67.816c0.745,0.031,1.361-0.855,1.072-1.543c-0.627-0.163-1.338,0.336-1.399,0.981"/>
	<path fill="#F4D49D" d="M7.726,28.164c0.183,0.723,1.208,1.061,1.785,0.589c-0.023-0.646-0.704-1.187-1.339-1.063"/>
	<path fill="#F4D49D" d="M30.84,31.535c0.516,0.538,1.574,0.326,1.843-0.369c-0.34-0.552-1.198-0.686-1.689-0.263"/>
	<path fill="#F4D49D" d="M32.75,47.685c0.658,0.351,1.597-0.182,1.635-0.926c-0.494-0.418-1.352-0.277-1.686,0.278"/>
	<path fill="#F4D49D" d="M43.511,38.888c-0.746,0.016-1.305,0.938-0.975,1.607c0.636,0.123,1.315-0.419,1.336-1.066"/>
	<path fill="#F4D49D" d="M50.562,23.293c0.094,0.74,1.071,1.199,1.701,0.8c0.055-0.645-0.555-1.264-1.201-1.216"/>
	<path fill="#F4D49D" d="M18.173,79.85c-0.649,0.367-0.705,1.445-0.097,1.878c0.618-0.193,0.959-0.992,0.671-1.572"/>
	<path fill="#F4D49D" d="M10.277,66.295c-0.717-0.205-1.524,0.511-1.406,1.247c0.571,0.306,1.38-0.012,1.592-0.624"/>
	<path fill="#F4D49D" d="M31.263,41.733c-0.514-0.541-1.573-0.333-1.844,0.362c0.337,0.553,1.195,0.69,1.688,0.27"/>
	<path fill="#F4D49D" d="M46.779,28.125c-0.742,0.073-1.23,1.036-0.849,1.677c0.644,0.074,1.28-0.519,1.251-1.166"/>
	<path fill="#F4D49D" d="M54.483,26.708c-0.409,0.624,0.036,1.607,0.774,1.713c0.461-0.455,0.398-1.322-0.124-1.705"/>
	<path fill="#F4D49D" d="M8.927,16.339c-0.744,0.044-1.269,0.987-0.913,1.643c0.64,0.099,1.298-0.469,1.294-1.116"/>
	<path fill="#F4D49D" d="M38.122,55.082c0.442-0.602,0.051-1.607-0.681-1.752c-0.485,0.429-0.469,1.298,0.032,1.709"/>
	<path fill="#F4D49D" d="M54.903,69.709c-0.565-0.487-1.598-0.175-1.799,0.543c0.39,0.518,1.258,0.568,1.706,0.102"/>
	<path fill="#F4D49D" d="M23.963,51.606c0.658-0.353,0.738-1.428,0.141-1.874c-0.623,0.178-0.983,0.969-0.708,1.556"/>
	<path fill="#B72027" d="M3.674,4.059C4.099,2.768,3.039,1.787,3.854,0.7c0.58-0.773,1.727-0.749,2.688-0.649
		c3.894,0.404,7.789,0.808,11.683,1.212c3.247,0.337,6.506,0.674,9.768,0.562c2.025-0.07,4.041-0.313,6.066-0.418
		c2.808-0.146,5.623-0.028,8.433,0.091C49.745,1.805,57,2.111,64.253,2.419c1.267,0.053,2.967,0.571,2.83,1.832
		c-0.125,1.147-1.653,1.421-2.806,1.391C44.076,5.115,23.875,4.586,3.674,4.059"/>
	<path fill="#ED2024" d="M3.407,4.214c1.447,4.046,3.22,12.218,3.138,11.842c19.449,0.968,38.915,1.614,58.385,1.937
		c-0.568-4.079-0.264-8.278,0.885-12.233C53.348,5.423,38.703,5.125,26.306,4.65C17.67,4.319,11.603,2.918,3.481,3.352"/>
	<path fill="#B72027" d="M0.268,95.83c-0.15,1.58-0.123,3.177,0.08,4.749c20.487-1.289,41.023,0.923,61.551,0.993
		c0.327,0.002,0.682-0.007,0.942-0.207c0.255-0.196,0.354-0.53,0.438-0.843c0.248-0.914,0.466-1.987-0.123-2.728
		c-0.715-0.901-2.096-0.718-3.238-0.581c-3.72,0.44-7.444-0.565-11.179-0.859c-2.646-0.208-5.306-0.058-7.96,0.003
		c-13.6,0.313-27.235-1.72-40.779-0.454"/>
	<path fill="#ED2024" d="M60.284,91.103c-1.531-3.619-1.094-7.743-1.874-11.594c-0.709-3.501-2.432-6.855-2.635-10.372
		c-1.71,0.013-3.433,0.168-5.14,0.242c-5.593,0.243-11.225-0.415-16.611-1.944c-2.556-0.725-5.084-1.65-7.732-1.879
		c-3.905-0.338-7.754,0.855-11.591,1.656c-2.621,0.546-5.411,0.889-8.019,0.466c-0.382,0.688-0.738,1.388-0.976,2.136
		c-0.634,1.995-0.38,4.144-0.287,6.235c0.309,6.899-1.251,13.875-4.469,19.985c21.491-0.636,40.001,1.977,60.063,1.726
		c0.331-0.004,0.698-0.023,0.934-0.256c0.191-0.188,0.248-0.47,0.27-0.735C62.384,94.755,61.07,92.964,60.284,91.103"/>
</g>
</svg>
