<?xml version="1.0" encoding="utf-8"?>
<!-- Generator: Adobe Illustrator 16.0.2, SVG Export Plug-In . SVG Version: 6.00 Build 0)  -->
<!DOCTYPE svg PUBLIC "-//W3C//DTD SVG 1.1//EN" "http://www.w3.org/Graphics/SVG/1.1/DTD/svg11.dtd">
<svg version="1.1" id="Layer_1" xmlns="http://www.w3.org/2000/svg" xmlns:xlink="http://www.w3.org/1999/xlink" x="0px" y="0px"
	 width="108.149px" height="33.773px" viewBox="0 0 108.149 33.773" enable-background="new 0 0 108.149 33.773"
	 xml:space="preserve">
<g>
	<path fill="#C9A877" d="M95.245,0.51c3.217-0.072,5.854,1.372,8.377,0.056c0.534,7.395,1.068,14.791,1.601,22.186
		c0.247,3.425,0.485,6.93-0.697,10.224c-2.469-1.024-5.414-1.27-8.087-0.673c-0.532-8.092-1.064-16.185-1.597-24.277
		C94.676,5.511,94.515,2.957,95.245,0.51"/>
	<path fill="#D2A12A" d="M103.597,0.455c1.283-0.044,2.568-0.087,3.853-0.131c-0.014,6.111-0.029,12.222-0.043,18.333
		c-0.005,2.162-0.01,4.327,0.224,6.481c0.238,2.18,0.721,4.367,0.428,6.543c-0.074,0.551-0.213,1.123-0.644,1.553
		c-0.43,0.43-1.233,0.66-1.821,0.376c-0.634-0.306-0.727-1.007-0.75-1.605c-0.404-10.556-0.811-21.112-1.216-31.67"/>
	<path fill="#F4D49D" d="M13.195,0.435c27.794,0.053,53.998,0.194,81.792,0.248c0.357,8.838,0.715,17.676,1.073,26.514
		c0.066,1.654,1.497,4.606,0.054,5.779c-1.37,1.113-4.98,0.105-6.922,0.121c-23.703,0.203-47.406,0.405-71.109,0.608
		c-1.779,0.015-3.872-0.097-4.847-1.305c-0.576-0.715-0.581-1.627-0.564-2.481C12.845,20.09,13.02,10.262,13.195,0.435"/>
	<path fill="#EEA820" d="M15.375,1.243c-0.622-0.36-1.594,0.392-1.178,0.912c0.14,0.176,0.377,0.293,0.497,0.478
		c0.252,0.389-0.104,0.836-0.297,1.245c-0.194,0.409,0.009,1.06,0.542,0.986c-0.688,0.501-0.668,1.365-0.594,2.111
		c0.059,0.6,0.118,1.198,0.178,1.798c0.039,0.396,0.143,0.871,0.597,1.024c-0.584,0.503-0.801,1.27-0.544,1.928
		c0.089,0.231,0.233,0.454,0.237,0.695c0.016,0.799-1.445,1.4-1.058,2.134c0.127,0.241,0.432,0.395,0.573,0.629
		c0.536,0.889-1.533,1.863-0.887,2.701c0.218,0.283,0.676,0.391,0.917,0.659c0.65,0.726-0.738,1.751-0.305,2.577
		c0.115,0.22,0.349,0.388,0.474,0.604c0.579,1.011-1.449,2.153-0.788,3.13c0.31,0.457,1.153,0.71,1.095,1.229
		c-0.033,0.285-0.342,0.488-0.553,0.718c-0.394,0.43-0.448,1.045-0.136,1.517c0.14,0.211,0.35,0.401,0.393,0.639
		c0.105,0.573-0.798,1.038-0.669,1.607c0.065,0.286,0.389,0.522,0.365,0.813c-0.018,0.211-0.211,0.379-0.324,0.569
		c-0.278,0.469,0.036,1.105,0.637,1.29c0.602,0.184,1.356-0.125,1.53-0.627c0.081-0.233,0.049-0.48,0.026-0.723
		c-0.144-1.496,0.111-3.015,0.741-4.426c-0.637-0.221-0.419-0.98-0.164-1.504c0.254-0.522,0.171-1.369-0.521-1.343
		c0.553-0.46,1.014-0.992,1.359-1.57c-0.303-0.177-0.604-0.353-0.906-0.529c0.805-0.899,0.565-2.137,0.291-3.226
		c-0.138-0.548-0.373-1.189-1.029-1.362c0.947-0.342,1.376-1.394,0.868-2.125c-0.189-0.272-0.495-0.539-0.43-0.847
		c0.064-0.302,0.46-0.48,0.625-0.756c0.327-0.547-0.348-1.142-0.412-1.746c-0.046-0.422,0.212-0.826,0.267-1.247
		c0.054-0.421-0.258-0.95-0.777-0.914c0.612-0.18,0.851-0.788,0.851-1.317c0.001-0.527-0.148-1.069,0.038-1.576
		c0.085-0.229,0.236-0.443,0.272-0.681c0.086-0.546-0.584-1.081-1.257-1.003c0.363-0.371,0.739-0.763,0.839-1.229
		c0.102-0.468-0.182-1.025-0.748-1.141c0.618-0.251,1.105-0.799,0.981-1.35c-0.123-0.552-1.041-0.925-1.568-0.563"/>
	<path fill="#EEA820" d="M18.675,1.243c-0.621-0.36-1.594,0.392-1.178,0.912c0.141,0.176,0.377,0.293,0.497,0.478
		c0.252,0.389-0.103,0.836-0.297,1.245s0.01,1.06,0.542,0.986c-0.688,0.501-0.668,1.365-0.594,2.111
		c0.06,0.6,0.119,1.198,0.178,1.798c0.039,0.396,0.143,0.871,0.598,1.024c-0.585,0.503-0.802,1.27-0.545,1.928
		c0.089,0.231,0.233,0.454,0.237,0.695c0.016,0.799-1.445,1.4-1.057,2.134c0.127,0.241,0.431,0.395,0.572,0.629
		c0.536,0.889-1.532,1.863-0.887,2.701c0.218,0.283,0.676,0.391,0.917,0.659c0.651,0.726-0.738,1.751-0.305,2.577
		c0.115,0.22,0.349,0.388,0.474,0.604c0.579,1.011-1.449,2.153-0.788,3.13c0.311,0.457,1.153,0.71,1.096,1.229
		c-0.033,0.285-0.343,0.488-0.554,0.718c-0.393,0.43-0.448,1.045-0.136,1.517c0.14,0.211,0.35,0.401,0.393,0.639
		c0.105,0.573-0.798,1.038-0.669,1.607c0.065,0.286,0.39,0.522,0.365,0.813c-0.017,0.211-0.211,0.379-0.324,0.569
		c-0.277,0.469,0.036,1.105,0.638,1.29c0.601,0.184,1.355-0.125,1.529-0.627c0.081-0.233,0.049-0.48,0.026-0.723
		c-0.144-1.496,0.112-3.015,0.742-4.426c-0.638-0.221-0.419-0.98-0.165-1.504c0.254-0.522,0.171-1.369-0.521-1.343
		c0.554-0.46,1.015-0.992,1.359-1.57c-0.302-0.177-0.604-0.353-0.906-0.529c0.806-0.899,0.566-2.137,0.291-3.226
		c-0.138-0.548-0.373-1.189-1.028-1.362c0.946-0.342,1.375-1.394,0.867-2.125c-0.188-0.272-0.495-0.539-0.43-0.847
		c0.064-0.302,0.46-0.48,0.625-0.756c0.327-0.547-0.347-1.142-0.412-1.746c-0.046-0.422,0.212-0.826,0.268-1.247
		c0.054-0.421-0.259-0.95-0.778-0.914c0.612-0.18,0.851-0.788,0.851-1.317c0.001-0.527-0.147-1.069,0.038-1.576
		c0.085-0.229,0.236-0.443,0.273-0.681c0.086-0.546-0.584-1.081-1.257-1.003c0.362-0.371,0.738-0.763,0.839-1.229
		c0.101-0.468-0.183-1.025-0.749-1.141c0.619-0.251,1.105-0.799,0.981-1.35c-0.123-0.552-1.041-0.925-1.567-0.563"/>
	<path fill="#EEA820" d="M22.857,1.243c-0.622-0.36-1.594,0.392-1.178,0.912c0.14,0.176,0.377,0.293,0.497,0.478
		c0.252,0.389-0.104,0.836-0.297,1.245c-0.194,0.409,0.01,1.06,0.542,0.986c-0.688,0.501-0.668,1.365-0.594,2.111
		c0.06,0.6,0.118,1.198,0.178,1.798c0.039,0.396,0.143,0.871,0.598,1.024c-0.585,0.503-0.802,1.27-0.545,1.928
		c0.089,0.231,0.233,0.454,0.237,0.695c0.016,0.799-1.445,1.4-1.058,2.134c0.127,0.241,0.432,0.395,0.573,0.629
		c0.536,0.889-1.533,1.863-0.887,2.701c0.218,0.283,0.676,0.391,0.917,0.659c0.65,0.726-0.738,1.751-0.305,2.577
		c0.115,0.22,0.349,0.388,0.474,0.604c0.579,1.011-1.449,2.153-0.788,3.13c0.31,0.457,1.153,0.71,1.095,1.229
		c-0.033,0.285-0.342,0.488-0.553,0.718c-0.394,0.43-0.448,1.045-0.136,1.517c0.14,0.211,0.35,0.401,0.393,0.639
		c0.105,0.573-0.798,1.038-0.669,1.607c0.065,0.286,0.389,0.522,0.365,0.813c-0.018,0.211-0.211,0.379-0.324,0.569
		c-0.278,0.469,0.036,1.105,0.637,1.29c0.602,0.184,1.356-0.125,1.53-0.627c0.081-0.233,0.049-0.48,0.026-0.723
		c-0.144-1.496,0.111-3.015,0.741-4.426c-0.637-0.221-0.419-0.98-0.164-1.504c0.254-0.522,0.171-1.369-0.521-1.343
		c0.553-0.46,1.014-0.992,1.359-1.57c-0.303-0.177-0.604-0.353-0.906-0.529c0.805-0.899,0.565-2.137,0.291-3.226
		c-0.138-0.548-0.373-1.189-1.029-1.362c0.947-0.342,1.376-1.394,0.868-2.125c-0.189-0.272-0.495-0.539-0.43-0.847
		c0.064-0.302,0.46-0.48,0.625-0.756c0.327-0.547-0.348-1.142-0.412-1.746c-0.046-0.422,0.212-0.826,0.267-1.247
		c0.054-0.421-0.258-0.95-0.777-0.914c0.612-0.18,0.851-0.788,0.851-1.317c0.001-0.527-0.148-1.069,0.038-1.576
		c0.085-0.229,0.236-0.443,0.272-0.681c0.086-0.546-0.584-1.081-1.257-1.003c0.363-0.371,0.739-0.763,0.839-1.229
		c0.102-0.468-0.182-1.025-0.748-1.141c0.618-0.251,1.105-0.799,0.981-1.35c-0.123-0.552-1.041-0.925-1.568-0.563"/>
	<path fill="#EEA820" d="M27.039,1.243c-0.622-0.36-1.594,0.392-1.178,0.912c0.14,0.176,0.377,0.293,0.497,0.478
		c0.252,0.389-0.104,0.836-0.298,1.245c-0.193,0.409,0.011,1.06,0.543,0.986c-0.688,0.501-0.668,1.365-0.595,2.111
		c0.061,0.6,0.119,1.198,0.179,1.798c0.038,0.396,0.143,0.871,0.598,1.024c-0.585,0.503-0.802,1.27-0.545,1.928
		c0.089,0.231,0.232,0.454,0.236,0.695c0.017,0.799-1.444,1.4-1.057,2.134c0.127,0.241,0.431,0.395,0.573,0.629
		c0.536,0.889-1.533,1.863-0.888,2.701c0.219,0.283,0.677,0.391,0.918,0.659c0.65,0.726-0.738,1.751-0.306,2.577
		c0.116,0.22,0.35,0.388,0.475,0.604c0.579,1.011-1.449,2.153-0.788,3.13c0.31,0.457,1.152,0.71,1.095,1.229
		c-0.033,0.285-0.342,0.488-0.553,0.718c-0.394,0.43-0.448,1.045-0.136,1.517c0.14,0.211,0.35,0.401,0.393,0.639
		c0.104,0.573-0.798,1.038-0.669,1.607c0.064,0.286,0.389,0.522,0.365,0.813c-0.018,0.211-0.212,0.379-0.324,0.569
		c-0.278,0.469,0.036,1.105,0.637,1.29c0.601,0.184,1.356-0.125,1.53-0.627c0.081-0.233,0.049-0.48,0.025-0.723
		c-0.143-1.496,0.112-3.015,0.742-4.426c-0.637-0.221-0.419-0.98-0.165-1.504c0.254-0.522,0.171-1.369-0.52-1.343
		c0.553-0.46,1.014-0.992,1.358-1.57c-0.302-0.177-0.604-0.353-0.905-0.529c0.805-0.899,0.565-2.137,0.291-3.226
		c-0.139-0.548-0.373-1.189-1.029-1.362c0.947-0.342,1.376-1.394,0.868-2.125c-0.189-0.272-0.495-0.539-0.43-0.847
		c0.064-0.302,0.459-0.48,0.625-0.756c0.326-0.547-0.348-1.142-0.412-1.746c-0.047-0.422,0.212-0.826,0.267-1.247
		c0.054-0.421-0.258-0.95-0.778-0.914c0.613-0.18,0.852-0.788,0.852-1.317c0.001-0.527-0.148-1.069,0.038-1.576
		c0.085-0.229,0.235-0.443,0.272-0.681c0.086-0.546-0.584-1.081-1.257-1.003c0.363-0.371,0.739-0.763,0.839-1.229
		c0.102-0.468-0.182-1.025-0.749-1.141c0.619-0.251,1.106-0.799,0.982-1.35c-0.123-0.552-1.041-0.925-1.568-0.563"/>
	<path fill="#EEA820" d="M31.22,1.243c-0.622-0.36-1.594,0.392-1.179,0.912c0.141,0.176,0.378,0.293,0.497,0.478
		c0.252,0.389-0.103,0.836-0.297,1.245c-0.193,0.409,0.01,1.06,0.542,0.986c-0.688,0.501-0.668,1.365-0.594,2.111
		c0.06,0.6,0.119,1.198,0.178,1.798c0.039,0.396,0.144,0.871,0.599,1.024c-0.586,0.503-0.803,1.27-0.545,1.928
		c0.089,0.231,0.232,0.454,0.236,0.695c0.017,0.799-1.445,1.4-1.057,2.134c0.127,0.241,0.431,0.395,0.573,0.629
		c0.536,0.889-1.533,1.863-0.888,2.701c0.219,0.283,0.676,0.391,0.917,0.659c0.651,0.726-0.737,1.751-0.305,2.577
		c0.116,0.22,0.349,0.388,0.474,0.604c0.579,1.011-1.448,2.153-0.787,3.13c0.31,0.457,1.152,0.71,1.095,1.229
		c-0.033,0.285-0.343,0.488-0.554,0.718c-0.393,0.43-0.447,1.045-0.136,1.517c0.14,0.211,0.351,0.401,0.394,0.639
		c0.104,0.573-0.799,1.038-0.669,1.607c0.064,0.286,0.389,0.522,0.364,0.813c-0.017,0.211-0.211,0.379-0.324,0.569
		c-0.277,0.469,0.036,1.105,0.638,1.29c0.601,0.184,1.355-0.125,1.53-0.627c0.08-0.233,0.049-0.48,0.025-0.723
		c-0.143-1.496,0.112-3.015,0.742-4.426c-0.637-0.221-0.419-0.98-0.165-1.504c0.254-0.522,0.171-1.369-0.521-1.343
		c0.554-0.46,1.015-0.992,1.359-1.57c-0.302-0.177-0.604-0.353-0.906-0.529c0.806-0.899,0.566-2.137,0.291-3.226
		c-0.138-0.548-0.373-1.189-1.028-1.362c0.946-0.342,1.376-1.394,0.868-2.125c-0.189-0.272-0.495-0.539-0.431-0.847
		c0.065-0.302,0.46-0.48,0.625-0.756c0.327-0.547-0.347-1.142-0.412-1.746c-0.046-0.422,0.212-0.826,0.268-1.247
		c0.054-0.421-0.259-0.95-0.778-0.914c0.613-0.18,0.852-0.788,0.852-1.317c0-0.527-0.148-1.069,0.037-1.576
		c0.086-0.229,0.236-0.443,0.273-0.681c0.086-0.546-0.584-1.081-1.257-1.003c0.362-0.371,0.739-0.763,0.839-1.229
		c0.101-0.468-0.182-1.025-0.749-1.141c0.619-0.251,1.106-0.799,0.981-1.35c-0.122-0.552-1.041-0.925-1.567-0.563"/>
	<path fill="#EEA820" d="M35.402,1.243c-0.623-0.36-1.594,0.392-1.179,0.912c0.14,0.176,0.377,0.293,0.497,0.478
		c0.252,0.389-0.103,0.836-0.297,1.245s0.01,1.06,0.543,0.986c-0.689,0.501-0.669,1.365-0.595,2.111
		c0.06,0.6,0.119,1.198,0.178,1.798c0.039,0.396,0.143,0.871,0.598,1.024c-0.585,0.503-0.802,1.27-0.545,1.928
		c0.089,0.231,0.233,0.454,0.237,0.695c0.016,0.799-1.445,1.4-1.057,2.134c0.127,0.241,0.431,0.395,0.572,0.629
		c0.536,0.889-1.533,1.863-0.887,2.701c0.218,0.283,0.676,0.391,0.917,0.659c0.651,0.726-0.738,1.751-0.305,2.577
		c0.116,0.22,0.349,0.388,0.474,0.604c0.579,1.011-1.449,2.153-0.788,3.13c0.311,0.457,1.153,0.71,1.095,1.229
		c-0.032,0.285-0.342,0.488-0.553,0.718c-0.393,0.43-0.447,1.045-0.136,1.517c0.14,0.211,0.35,0.401,0.393,0.639
		c0.105,0.573-0.798,1.038-0.669,1.607c0.065,0.286,0.39,0.522,0.365,0.813c-0.017,0.211-0.211,0.379-0.324,0.569
		c-0.277,0.469,0.036,1.105,0.638,1.29c0.601,0.184,1.355-0.125,1.529-0.627c0.081-0.233,0.05-0.48,0.026-0.723
		c-0.143-1.496,0.112-3.015,0.742-4.426c-0.637-0.221-0.419-0.98-0.165-1.504c0.254-0.522,0.171-1.369-0.521-1.343
		c0.554-0.46,1.015-0.992,1.359-1.57c-0.302-0.177-0.604-0.353-0.906-0.529c0.805-0.899,0.566-2.137,0.291-3.226
		c-0.138-0.548-0.373-1.189-1.029-1.362c0.947-0.342,1.377-1.394,0.868-2.125c-0.188-0.272-0.495-0.539-0.43-0.847
		c0.065-0.302,0.46-0.48,0.625-0.756c0.327-0.547-0.347-1.142-0.412-1.746c-0.046-0.422,0.212-0.826,0.267-1.247
		s-0.258-0.95-0.777-0.914c0.613-0.18,0.851-0.788,0.851-1.317c0.001-0.527-0.147-1.069,0.038-1.576
		c0.085-0.229,0.236-0.443,0.273-0.681c0.086-0.546-0.584-1.081-1.258-1.003c0.363-0.371,0.739-0.763,0.84-1.229
		c0.101-0.468-0.183-1.025-0.749-1.141c0.618-0.251,1.105-0.799,0.981-1.35c-0.123-0.552-1.041-0.925-1.567-0.563"/>
	<path fill="#EEA820" d="M39.583,1.243c-0.622-0.36-1.593,0.392-1.178,0.912c0.14,0.176,0.377,0.293,0.497,0.478
		c0.252,0.389-0.104,0.836-0.297,1.245c-0.194,0.409,0.01,1.06,0.543,0.986c-0.689,0.501-0.669,1.365-0.596,2.111
		c0.061,0.6,0.119,1.198,0.179,1.798c0.039,0.396,0.144,0.871,0.598,1.024c-0.585,0.503-0.802,1.27-0.545,1.928
		c0.089,0.231,0.233,0.454,0.238,0.695c0.015,0.799-1.446,1.4-1.059,2.134c0.127,0.241,0.432,0.395,0.573,0.629
		c0.536,0.889-1.533,1.863-0.887,2.701c0.218,0.283,0.676,0.391,0.917,0.659c0.65,0.726-0.738,1.751-0.306,2.577
		c0.116,0.22,0.35,0.388,0.475,0.604c0.579,1.011-1.449,2.153-0.788,3.13c0.31,0.457,1.153,0.71,1.095,1.229
		c-0.033,0.285-0.342,0.488-0.553,0.718c-0.393,0.43-0.448,1.045-0.136,1.517c0.14,0.211,0.35,0.401,0.393,0.639
		c0.105,0.573-0.798,1.038-0.669,1.607c0.065,0.286,0.389,0.522,0.365,0.813c-0.018,0.211-0.211,0.379-0.324,0.569
		c-0.278,0.469,0.036,1.105,0.637,1.29c0.602,0.184,1.356-0.125,1.53-0.627c0.081-0.233,0.049-0.48,0.026-0.723
		c-0.144-1.496,0.111-3.015,0.742-4.426c-0.637-0.221-0.42-0.98-0.166-1.504c0.255-0.522,0.172-1.369-0.52-1.343
		c0.553-0.46,1.014-0.992,1.359-1.57c-0.303-0.177-0.604-0.353-0.906-0.529c0.805-0.899,0.566-2.137,0.291-3.226
		c-0.138-0.548-0.373-1.189-1.029-1.362c0.947-0.342,1.376-1.394,0.868-2.125c-0.188-0.272-0.495-0.539-0.43-0.847
		c0.064-0.302,0.46-0.48,0.625-0.756c0.327-0.547-0.348-1.142-0.412-1.746c-0.046-0.422,0.212-0.826,0.267-1.247
		s-0.258-0.95-0.777-0.914c0.612-0.18,0.851-0.788,0.851-1.317c0.001-0.527-0.147-1.069,0.038-1.576
		c0.085-0.229,0.236-0.443,0.273-0.681c0.086-0.546-0.584-1.081-1.258-1.003c0.363-0.371,0.739-0.763,0.839-1.229
		c0.102-0.468-0.182-1.025-0.749-1.141c0.619-0.251,1.106-0.799,0.982-1.35c-0.123-0.552-1.041-0.925-1.568-0.563"/>
	<path fill="#EEA820" d="M43.764,1.243c-0.622-0.36-1.594,0.392-1.178,0.912c0.14,0.176,0.377,0.293,0.497,0.478
		c0.252,0.389-0.104,0.836-0.297,1.245c-0.194,0.409,0.009,1.06,0.542,0.986c-0.688,0.501-0.668,1.365-0.595,2.111
		c0.06,0.6,0.119,1.198,0.179,1.798c0.038,0.396,0.143,0.871,0.597,1.024c-0.584,0.503-0.801,1.27-0.544,1.928
		c0.089,0.231,0.233,0.454,0.237,0.695c0.016,0.799-1.445,1.4-1.058,2.134c0.127,0.241,0.431,0.395,0.573,0.629
		c0.536,0.889-1.533,1.863-0.887,2.701c0.218,0.283,0.676,0.391,0.917,0.659c0.65,0.726-0.738,1.751-0.306,2.577
		c0.116,0.22,0.35,0.388,0.475,0.604c0.579,1.011-1.449,2.153-0.788,3.13c0.31,0.457,1.153,0.71,1.095,1.229
		c-0.033,0.285-0.342,0.488-0.553,0.718c-0.394,0.43-0.448,1.045-0.136,1.517c0.14,0.211,0.35,0.401,0.393,0.639
		c0.104,0.573-0.798,1.038-0.669,1.607c0.064,0.286,0.389,0.522,0.365,0.813c-0.018,0.211-0.211,0.379-0.324,0.569
		c-0.278,0.469,0.036,1.105,0.637,1.29c0.602,0.184,1.356-0.125,1.53-0.627c0.081-0.233,0.049-0.48,0.026-0.723
		c-0.144-1.496,0.111-3.015,0.741-4.426c-0.637-0.221-0.419-0.98-0.165-1.504c0.254-0.522,0.172-1.369-0.52-1.343
		c0.553-0.46,1.014-0.992,1.359-1.57c-0.303-0.177-0.604-0.353-0.906-0.529c0.805-0.899,0.565-2.137,0.291-3.226
		c-0.139-0.548-0.373-1.189-1.029-1.362c0.947-0.342,1.376-1.394,0.868-2.125c-0.189-0.272-0.495-0.539-0.43-0.847
		c0.064-0.302,0.46-0.48,0.625-0.756c0.327-0.547-0.348-1.142-0.412-1.746c-0.046-0.422,0.212-0.826,0.267-1.247
		c0.054-0.421-0.258-0.95-0.777-0.914c0.612-0.18,0.851-0.788,0.851-1.317c0.001-0.527-0.148-1.069,0.038-1.576
		c0.085-0.229,0.236-0.443,0.272-0.681c0.086-0.546-0.584-1.081-1.257-1.003c0.363-0.371,0.739-0.763,0.839-1.229
		C45.25,4.018,44.967,3.46,44.4,3.345c0.619-0.251,1.106-0.799,0.982-1.35c-0.123-0.552-1.041-0.925-1.568-0.563"/>
	<path fill="#D2A12A" d="M0.637,0.841C3.184-0.14,6.583,0.74,7.955,2.736C8.982,4.23,8.894,6.043,8.779,7.751
		C8.285,15,7.792,22.249,7.298,29.497c-0.061,0.895-0.127,1.811-0.559,2.636c-0.431,0.825-3.287,0.266-2.316-0.163
		c0.538-0.238-2.287,1.099-3.268,0.196c-0.889-0.819-0.622-2.112-0.656-3.202c-0.165-5.345-0.323-10.751,1.092-15.972
		c0.443-1.633,1.041-3.301,0.679-4.945C1.988,6.765,1.146,5.618,0.567,4.403c-0.579-1.214-0.876-2.641-0.089-3.775"/>
	<path fill="#C9A877" d="M4.417,1.148C5.71-0.049,7.835,0.472,9.75,0.117c1.171-0.218,2.585-0.187,3.339,0.571
		c0.533,0.535,0.577,1.278,0.598,1.967c0.218,7.464,0.437,14.929,0.654,22.393c0.033,1.114,0.066,2.229-0.017,3.343
		c-0.115,1.556,1.354,5.352-0.568,5.379c-4.057,0.058-5.084-0.479-8.604-0.794c-2.577-0.229-0.979-6.139-0.83-8.236
		C4.863,17.085,6.934,9.316,4.814,1.846"/>
	<path fill="#6E1F3F" d="M53.341,4.526c0.515,8.438,1.125,16.873,1.831,25.303c1.646-0.035,3.243-0.431,4.867-0.653
		c4.753-0.652,9.599,0.187,14.413,0.394c2.281,0.098,4.566,0.053,6.849-0.016c2.677-0.08,5.353-0.194,8.025-0.342
		c0.165-0.01,0.34-0.021,0.476-0.099c0.182-0.103,0.245-0.294,0.292-0.47c1.458-5.43-0.439-11.036-0.711-16.588
		c-0.115-2.357,0.06-4.755-0.669-7.039c-0.052-0.161-0.115-0.331-0.266-0.444c-0.225-0.167-0.564-0.161-0.867-0.144
		c-11.334,0.605-22.75,0.805-34.024-0.32"/>
</g>
</svg>
