<?xml version="1.0" encoding="utf-8"?>
<!-- Generator: Adobe Illustrator 16.0.2, SVG Export Plug-In . SVG Version: 6.00 Build 0)  -->
<!DOCTYPE svg PUBLIC "-//W3C//DTD SVG 1.1//EN" "http://www.w3.org/Graphics/SVG/1.1/DTD/svg11.dtd">
<svg version="1.1" id="Layer_1" xmlns="http://www.w3.org/2000/svg" xmlns:xlink="http://www.w3.org/1999/xlink" x="0px" y="0px"
	 width="103.256px" height="93.715px" viewBox="0 0 103.256 93.715" enable-background="new 0 0 103.256 93.715"
	 xml:space="preserve">
<g>
	<path fill="#7F1B29" d="M7.218,6.4C4.704,4.881,3.699,2.721,2.59,0c10.947,1.194,22.005,0.233,33.015,0.457
		C45.65,0.66,55.647,1.851,65.676,2.44c6.136,0.361,14.688-1.149,20.833-1.014c6.304,0.139,10.335-0.43,16.639-0.29
		c0.309,0.385-0.097,3.354-0.531,3.587c-0.456,0.245-1.14,1.392-1.641,1.283c-1.552-0.336-2.947,0.409-4.464,0.879
		c-3.338,1.036-6.997,0.005-10.462,0C59.971,6.85,33.297,6.437,7.218,6.4"/>
	<path fill="#ED2024" d="M8.05,7.886c-0.836,5.073-0.784,10.246-0.73,15.388c0.042,3.899,0.083,7.797,0.124,11.695
		c0.033,3.103,0.068,6.225,0.637,9.274c0.567,3.049,1.669,6.03,1.679,9.132c0.007,2.163-0.52,4.289-0.769,6.438
		c-0.373,3.223-0.123,6.486-0.357,9.722c-0.327,4.511-1.61,8.95-3.738,12.941c10.299-3.145,21.099,2.249,31.835,3.064
		c3.647,0.277,7.312,0.02,10.966-0.104c5.376-0.183,10.757-0.072,16.134,0.039c10.655,0.218,21.311,0.436,31.967,0.653
		c-1.901-18.256-3.779-36.925,0.438-54.788c0.674-2.857,1.51-5.757,1.215-8.677c-0.146-1.456-0.571-2.884-0.563-4.346
		c0.024-4.775,4.53-8.516,5.024-13.265c-1.388,0.862-3.115,0.896-4.749,0.904C67.18,6.106,37.2,6.253,7.218,6.4"/>
	<path fill="#7F1B29" d="M4.703,82.14c-1.753,0.909-3.281,2.25-4.411,3.87c-0.211,0.305-0.411,0.714-0.205,1.022
		c0.162,0.241,0.493,0.286,0.783,0.303c4.666,0.287,9.362-0.376,14.015,0.077c5.128,0.499,10.053,2.339,15.18,2.857
		c3.113,0.314,6.254,0.137,9.383,0.059c9.054-0.224,18.104,0.401,27.139,1.025l34.182,2.361c-1.682-2.372-2.332-3.956-4.014-6.327
		c-0.286-0.402-0.508-1.052-0.958-1.258c-0.663-0.304-2.544-0.62-3.253-0.45c-2.439,0.587-4.994,0.256-7.487-0.03
		c-16.234-1.863-32.628-1.611-48.969-1.495c-2.334,0.017-4.676,0.029-6.992-0.26c-2.052-0.259-4.066-0.753-6.104-1.104
		c-5.168-0.891-8.016-1.419-13.26-1.385c-1.283,0.008-3.616,0.271-4.834,0.674"/>
	<path fill="#FFCB0B" d="M45.309,35.81c7.872,1.286,15.88,1.738,23.846,1.347c0.363-0.018,0.785-0.014,1.015,0.269
		c0.198,0.245,0.167,0.598,0.124,0.909c-0.189,1.398-0.571,3.05-1.895,3.54c-0.38,0.141-0.794,0.16-1.199,0.177
		c-7.737,0.331-15.811,0.52-22.842-2.728c0.229-1.164,0.599-2.3,1.098-3.375"/>
	<path fill="#FFCB0B" d="M25.605,39.638c1.755-0.12,3.51-0.24,5.266-0.359c0.53-0.036,1.114-0.057,1.534,0.27
		c0.3,0.231,0.457,0.599,0.611,0.945c1.63,3.682,4.29,6.898,7.599,9.191c0.896,0.62,1.841,1.178,2.638,1.921
		c1.369,1.28,2.201,3.018,3.004,4.713c0.082,0.174,0.164,0.385,0.063,0.55c-0.06,0.099-0.17,0.151-0.274,0.199
		c-1.832,0.844-3.664,1.688-5.496,2.532c-0.27,0.124-0.565,0.25-0.852,0.175c-0.276-0.072-0.471-0.314-0.643-0.543
		c-4.806-6.353-9.249-12.978-13.307-19.831"/>
	<path fill="#FFCB0B" d="M49.932,73.645c6.274-9.263,16.838-14.896,23.313-24.02c0.978-1.377,1.874-2.848,3.172-3.928
		c2.149-1.79,5.319-2.252,7.891-1.151c-4.121,5.486-10.033,9.35-14.597,14.473c-3.9,4.377-6.733,9.577-9.748,14.605
		c-0.433,0.719-0.889,1.458-1.58,1.931c-0.556,0.378-1.22,0.558-1.875,0.701c-2.512,0.553-5.111,0.696-7.668,0.422
		c-0.242-1.246,0.269-2.607,1.271-3.388"/>
	<path fill="#FFCB0B" d="M57.945,50.152c-5.638,6.667-11.39,13.436-18.725,18.171c-1.404,0.905-2.89,1.759-3.942,3.056
		s-1.58,3.187-0.792,4.66c2.484,0.379,5.164,0.43,7.351-0.809c2.253-1.274,3.596-3.688,5.545-5.393
		c1.697-1.484,3.809-2.392,5.74-3.556C60.051,62.1,64.392,54.803,68.451,47.8C64.553,48.555,61.595,48.591,57.945,50.152"/>
	<path fill="#EEA820" d="M53.522,41.95c4.493,2.704,8.906,5.543,13.231,8.511c-2.472,2.178-6.204,2.018-9.424,1.323
		c-0.5-0.108-1.004-0.229-1.456-0.466c-0.471-0.247-0.868-0.612-1.259-0.974c-3.955-3.647-7.91-7.296-11.864-10.943
		c0.673-0.09,1.346-0.182,2.02-0.271c0.48,0.675,1.362,0.905,2.173,1.088c2.574,0.583,5.15,1.165,7.727,1.747"/>
	<path fill="#FFCB0B" d="M47.013,45.342c-2.712,1.688-5.424,3.378-8.135,5.067c-1.543,0.961-3.094,1.929-4.471,3.117
		c-1.52,1.313-2.802,2.873-4.234,4.281c-2.514,2.474-5.462,4.455-8.392,6.42c1.761,1.87,4.798,1.587,7.248,0.821
		c9.357-2.927,16.411-10.448,24.469-16.031c-2.439-0.478-4.646-2.046-5.897-4.195"/>
	<path fill="#EEA820" d="M33.845,41.07c-1.752,1.662-3.505,3.324-5.257,4.986c-2.019,1.913-4.051,3.838-6.38,5.357
		c-1.341,0.874-2.788,1.621-3.929,2.744c-1.14,1.123-1.949,2.749-1.597,4.312c0.036,0.156,0.085,0.315,0.187,0.441
		c0.264,0.325,0.756,0.308,1.172,0.259c2.58-0.296,5.16-0.591,7.74-0.887c0.359-0.041,0.726-0.084,1.057-0.228
		c0.461-0.199,0.817-0.573,1.154-0.942c1.975-2.165,3.736-4.513,5.495-6.857c1.515-2.018,3.029-4.036,4.544-6.056
		c0.274-0.365,0.557-0.86,0.311-1.244c-0.126-0.195-0.357-0.293-0.573-0.379c-1.228-0.489-2.453-0.977-3.681-1.466"/>
	<path fill="#EEA820" d="M64.035,54.263c2.444,3.604,3.701,7.905,6.13,11.521c0.889,1.321,1.924,2.537,2.957,3.749l3.095,3.632
		c-3.258,1.06-6.677,1.623-10.103,1.665c-3.827-7.313-6.94-14.999-9.281-22.914c1.675-0.704,3.424-1.231,5.207-1.571
		c0.358-0.068,0.759-0.121,1.063,0.08c0.25,0.166,0.371,0.466,0.473,0.747c0.518,1.441,0.883,2.936,1.088,4.451"/>
</g>
</svg>
