<?xml version="1.0" encoding="utf-8"?>
<!-- Generator: Adobe Illustrator 16.0.2, SVG Export Plug-In . SVG Version: 6.00 Build 0)  -->
<!DOCTYPE svg PUBLIC "-//W3C//DTD SVG 1.1//EN" "http://www.w3.org/Graphics/SVG/1.1/DTD/svg11.dtd">
<svg version="1.1" id="Layer_1" xmlns="http://www.w3.org/2000/svg" xmlns:xlink="http://www.w3.org/1999/xlink" x="0px" y="0px"
	 width="64.439px" height="30.684px" viewBox="0 0 64.439 30.684" enable-background="new 0 0 64.439 30.684" xml:space="preserve">
<g>
	<path fill="#FFF6DA" d="M1.729,12.081c-0.717,1.676-1.439,3.38-1.67,5.188c-0.229,1.809,0.211,7.436,1.393,8.823
		c0.732,0.862,1.736,1.444,2.726,1.992c3.444,1.907,9.269,2.947,15.284,2.494c5.939-0.448,7.367-1.3,13.299-0.759
		c1.602,0.147,3.212,0.397,4.813,0.241c1.469-0.142,2.88-0.62,4.275-1.095c1.424-0.484,2.898-0.997,3.98-2.042
		c2.382-2.299,2.162-6.427,4.568-8.701c1.159-1.094,2.748-1.576,4.254-2.097c2.633-0.911,5.188-2.041,7.633-3.377
		c0.556-0.303,1.131-0.642,1.453-1.188c0.279-0.475,0.332-1.045,0.377-1.594c0.108-1.317,0.218-2.635,0.326-3.952
		c-1.82,1.957-4.389,2.996-6.799,4.152c-4.408,2.116-8.541,4.806-12.262,7.979c-2.1,1.792-4.105,3.764-6.58,4.987
		c-4.386,2.171-9.586,1.695-14.396,0.799c-2.946-0.548-5.866-1.234-8.748-2.056c-4.229-1.206-8.604-2.863-11.325-6.316
		c-0.941-1.193-1.671-2.588-2.867-3.524"/>
	<path fill="#F4D49D" d="M25.09,27.617c-6.765-0.903-14.695-0.92-20.547-4.432c-1.769-1.061-2.328-3.498-3.187-5.372
		c-1.455-3.18,0.245-7.412,3.496-8.702c1.688-0.671,3.565-0.601,5.383-0.605C17.522,8.491,24.732,7.144,31.895,5.8
		c1.697-0.319,3.414-0.644,4.994-1.343c1.351-0.597,2.568-1.453,3.871-2.146c4.799-2.555,10.566-2.778,15.894-1.7
		c1.705,0.345,3.429,0.836,4.827,1.87c1.4,1.033,2.432,2.705,2.295,4.438c-0.145,1.84-1.54,3.36-3.107,4.332
		c-3.926,2.435-9.414,2.532-12.17,6.239c-1.492,2.009-1.854,4.744-3.568,6.568c-1.045,1.112-2.487,1.763-3.926,2.276
		C35.934,28.146,30.385,28.593,25.09,27.617"/>
	<path fill="#B72027" d="M43.268,21.146c2.098-2.314,2.082-4.015,3.563-5.91c2.772-3.55,8.35-3.325,11.84-6.171
		c0.598-0.487,1.147-1.102,1.293-1.859c0.188-0.984-0.373-1.997-1.168-2.608c-0.795-0.613-1.787-0.9-2.763-1.139
		C51.457,2.343,46.4,2.088,42.243,4.303c-1.344,0.716-2.55,1.668-3.882,2.403c-1.945,1.075-4.113,1.667-6.258,2.25
		c-2.102,0.571-4.209,1.144-6.368,1.428c-2.14,0.28-4.306,0.274-6.463,0.218c-2.196-0.059-4.392-0.167-6.582-0.329
		c-2.511-0.185-5.396-0.304-7.129,1.521c-0.556,0.586-0.929,1.319-1.265,2.054c-0.39,0.848-0.746,1.797-0.485,2.691
		c0.291,0.992,1.313,3.709,2.198,4.243c2.75,1.657,4.429,2.433,7.48,3.432c3.725,1.218,9.822,1.199,13.741,1.257
		c1.707,0.024,3.415,0.03,5.122,0.019C36.611,25.456,40.219,24.119,43.268,21.146"/>
	<path fill="#F4D49D" d="M5.385,16.301c0.39-0.979,1.392-1.641,2.438-1.767c1.045-0.126,2.111,0.232,2.973,0.838
		c0.127,0.089,0.254,0.188,0.321,0.329c0.077,0.162,0.06,0.351,0.04,0.53c-0.054,0.496-0.107,0.992-0.16,1.489
		c-0.035,0.327-0.074,0.666-0.24,0.95c-0.248,0.422-0.73,0.646-1.203,0.766c-1.189,0.302-2.439,0.096-3.647-0.11
		c-0.194-0.034-0.407-0.077-0.532-0.229c-0.111-0.136-0.127-0.324-0.131-0.499c-0.021-0.85,0.092-1.704,0.333-2.519"/>
</g>
</svg>
