<?xml version="1.0" encoding="utf-8"?>
<!-- Generator: Adobe Illustrator 16.0.2, SVG Export Plug-In . SVG Version: 6.00 Build 0)  -->
<!DOCTYPE svg PUBLIC "-//W3C//DTD SVG 1.1//EN" "http://www.w3.org/Graphics/SVG/1.1/DTD/svg11.dtd">
<svg version="1.1" id="Layer_1" xmlns="http://www.w3.org/2000/svg" xmlns:xlink="http://www.w3.org/1999/xlink" x="0px" y="0px"
	 width="31.486px" height="132.908px" viewBox="0 0 31.486 132.908" enable-background="new 0 0 31.486 132.908"
	 xml:space="preserve">
<g>
	<path fill="#44A84F" d="M25.28,56.681c3.357,5.167,3.619,12.129,4.66,18.522c0.493,3.024,1.189,6.012,1.436,9.079
		c0.391,4.88-0.369,9.773-0.566,14.671c-0.328,8.158,0.909,16.351,0.265,24.483c-0.174,2.187-0.54,4.501-1.823,6.09
		c-1.354,1.677-3.423,2.182-5.363,2.51c-4.554,0.769-9.169,1.03-13.763,0.778c-2.803-0.152-5.896-0.673-7.704-3.202
		c-1.438-2.011-1.703-4.818-1.794-7.446c-0.142-4.091-0.008-8.188,0.127-12.278c0.332-10.13,0.663-20.26,0.995-30.389
		c0.077-2.399,0.157-4.807,0.517-7.168c0.313-2.056,0.835-4.057,1.355-6.051c0.796-3.047,1.072-6.386,1.867-9.432
		c0.158-0.606,0.854-0.955,1.264-1.368c0.544-0.55,1.336-0.543,2.052-0.506c4.329,0.219,8.659,0.439,12.988,0.658
		c1.375,0.07,2.95,0.263,3.738,1.595"/>
	<path fill="#D2A12A" d="M10.77,18.508c0.263-0.367-0.215-0.807-0.527-1.116c-0.794-0.79-0.631-2.246-0.495-3.462
		c0.236-2.105,0.175-4.239,0.102-6.361c-0.063-1.801-0.102-3.736,0.742-5.238c0.824-1.47,2.36-2.208,3.852-2.314
		c1.491-0.105,2.968,0.33,4.416,0.763c0.535,0.16,1.106,0.346,1.459,0.847c0.274,0.39,0.37,0.908,0.456,1.405
		c0.707,4.047,1.415,8.119,1.499,12.25c0.014,0.681,0.001,1.405-0.314,1.978c-0.184,0.333-0.457,0.586-0.655,0.908
		c-0.319,0.515-0.429,1.17-0.478,1.806c-0.251,3.278,0.844,6.467,1.296,9.714c0.356,2.557,0.313,5.162,0.388,7.751
		c0.191,6.712,1.188,13.39,2.949,19.774c-1.238,0.472-2.727-0.325-3.834,0.484c-0.362,0.265-0.63,0.673-0.916,1.047
		c-0.901,1.182-2.054,2.098-3.321,2.64c-0.554,0.236-1.157,0.402-1.726,0.226c-0.436-0.136-0.812-0.463-1.234-0.648
		c-1.382-0.607-3.25,0.246-4.209-1.073c-0.204-0.28-0.33-0.627-0.509-0.931c-0.89-1.53-2.735-1.637-4.308-1.589
		c2.23-5.644,2.983-11.918,3.646-18.096c0.734-6.854,1.391-13.722,1.967-20.598"/>
	<path fill="#FFEDD5" d="M1.535,89.426c8.152,1.313,15.372,1.169,23.616,1.159c2.366-0.003,3.895-0.073,6.136-0.898
		c0.188,2.428-0.209,6.031-0.209,8.467c0,7.903,0.313,12.871,0.365,20.754c0.001,0.187,0.031,0.382-0.034,0.555
		c-0.223,0.578-0.999,0.396-1.574,0.323c-1.116-0.145-2.162,0.521-3.226,0.908c-1.268,0.462-2.622,0.533-3.958,0.584
		c-7.322,0.277-14.879-0.017-21.587-3.199c-0.181-0.086-0.37-0.184-0.476-0.362c-0.078-0.133-0.1-0.295-0.119-0.451
		c-0.308-2.461-0.617-4.95-0.394-7.422c0.108-1.212,0.346-2.407,0.476-3.617c0.621-5.763-0.115-11.513,0.863-17.217"/>
</g>
</svg>
