<?xml version="1.0" encoding="utf-8"?>
<!-- Generator: Adobe Illustrator 16.0.2, SVG Export Plug-In . SVG Version: 6.00 Build 0)  -->
<!DOCTYPE svg PUBLIC "-//W3C//DTD SVG 1.1//EN" "http://www.w3.org/Graphics/SVG/1.1/DTD/svg11.dtd">
<svg version="1.1" id="Layer_1" xmlns="http://www.w3.org/2000/svg" xmlns:xlink="http://www.w3.org/1999/xlink" x="0px" y="0px"
	 width="56.81px" height="78.98px" viewBox="0 0 56.81 78.98" enable-background="new 0 0 56.81 78.98" xml:space="preserve">
<g>
	<path fill="#966727" d="M56.553,73.524c-0.003,1.752-0.006,3.504-0.009,5.257c-7.624-0.912-15.345-0.766-22.992-0.07
		c-1.873,0.17-3.758,0.374-5.632,0.207c-1.691-0.15-3.346-0.601-5.038-0.754c-1.59-0.145-3.192-0.023-4.786,0.079
		c-5.584,0.363-11.182,0.524-16.778,0.48c-0.234-0.002-0.488-0.012-0.666-0.162c-0.171-0.145-0.226-0.381-0.268-0.601
		c-0.19-0.993-0.315-1.999-0.372-3.008c-0.023-0.391-0.031-0.647,0.154-0.992c0.381-0.712,1.348-0.646,2.155-0.646h51.383
		c1.095,0,2.304-0.114,3.106,0.631"/>
	<g>
		<path fill="#966727" d="M1.786,4.66C1.639,3.107,1.492,1.553,1.345,0c17.113,2.921,34.623,1.108,51.978,0.643
			c0.487-0.013,1.041,0.002,1.368,0.363c0.282,0.311,0.297,0.773,0.296,1.193c-0.005,1.725-0.009,3.45-0.013,5.174
			C39.33,8.616,23.589,8.64,7.941,7.445C5.333,7.246,3.884,6.222,1.786,4.66"/>
		<path fill="#EEA820" d="M1.946,4.205C2.694,6.75,3.235,9.355,3.56,11.988c0.322,2.613,0.432,5.247,0.542,7.877
			c0.136,3.247,0.272,6.494,0.408,9.742c0.12,2.866,0.24,5.735,0.134,8.602c-0.098,2.64-0.387,5.277-0.266,7.916
			c0.112,2.449,0.576,4.869,0.8,7.311c0.625,6.797-0.653,13.758-3.649,19.89c18.05,0.489,36.113,0.479,54.162-0.034
			c0.207-2.479-1.215-4.765-1.938-7.146c-1.487-4.902,0.012-10.146,0.22-15.264c0.164-4.036-0.486-8.054-0.937-12.067
			c-0.696-6.186-0.922-12.424-0.675-18.644c0.18-4.554,0.642-9.208,2.595-13.326c-2.533,0.931-5.294,0.961-7.992,0.98
			c-7.246,0.05-14.493,0.101-21.739,0.122C17.145,7.971,8.642,7.852,1.639,3.821"/>
		<path fill="#010101" d="M20.837,33.151c-3.407,1.017-6.827,2.243-9.638,4.419c-2.812,2.176-4.962,5.457-5.002,9.012
			C6.182,47.896,6.451,49.2,6.825,50.46c0.52,1.746,1.25,3.441,2.284,4.941c1.16,1.681,2.675,3.081,4.176,4.467
			c1.825,1.684,3.649,3.366,5.473,5.05c0.798,0.736,1.629,1.492,2.656,1.846c0.821,0.28,1.708,0.282,2.576,0.281
			c2.873-0.003,5.747-0.007,8.621-0.031c1.542-0.015,3.115-0.039,4.577-0.53c1.665-0.558,3.072-1.679,4.441-2.779
			c1.169-0.939,2.341-1.882,3.389-2.955c1.652-1.69,2.967-3.678,4.19-5.699c1.579-2.609,3.045-5.357,3.592-8.357
			c0.548-3,0.062-6.318-1.912-8.641c-1.841-2.168-4.664-3.186-7.357-4.101c-1.521-0.518-3.049-1.033-4.63-1.321
			c-2.378-0.434-4.818-0.346-7.233-0.232c-3.885,0.182-7.767,0.424-11.644,0.726"/>
		<path fill="#966727" d="M13.465,38.171c5.62-2.555,11.884-3.384,18.057-3.468c2.423-0.032,4.904,0.055,7.166,0.928
			c2.361,0.91,4.332,2.623,6.019,4.51c1.857,2.077,3.496,4.594,3.513,7.381c0.022,3.536-2.61,6.606-5.662,8.394
			c-4.836,2.829-10.749,3.206-16.317,2.576c-4.57-0.517-9.247-1.754-12.722-4.766s-5.41-8.149-3.617-12.384
			c0.873-2.061,2.85-3.863,5.081-3.698"/>
		<path fill="#C9A877" d="M11.842,48.638c-0.275,0.171-0.479,0.428-0.553,0.746c-0.139,0.592,0.537,0.941,0.977,0.568
			c0.09-0.075,0.18-0.152,0.271-0.229c0.241-0.205,0.21-0.617,0-0.827c-0.239-0.239-0.586-0.205-0.827,0
			c-0.091,0.076-0.181,0.153-0.271,0.229c0.326,0.189,0.651,0.38,0.977,0.568c0.042-0.178-0.04,0.104,0.024-0.066
			c-0.012,0.031-0.115,0.086-0.008,0.02c0.268-0.167,0.372-0.521,0.21-0.8C12.485,48.579,12.111,48.471,11.842,48.638"/>
		<path fill="#C9A877" d="M34.789,46.024c-0.329,0-0.632,0.126-0.865,0.357c-0.183,0.184-0.222,0.485-0.091,0.709
			c0.141,0.241,0.4,0.308,0.66,0.269c0.117-0.018,0.234-0.034,0.351-0.052c0.313-0.047,0.485-0.441,0.409-0.72
			c-0.092-0.335-0.406-0.455-0.72-0.408c-0.117,0.018-0.234,0.035-0.351,0.053c0.19,0.326,0.38,0.65,0.569,0.977
			c0.093-0.092,0.005,0.006-0.027-0.003c0.018-0.006,0.036-0.011,0.054-0.017c-0.064,0.005-0.06,0.006,0.011,0.004
			c0.306,0,0.599-0.269,0.585-0.584C35.359,46.292,35.117,46.024,34.789,46.024"/>
		<path fill="#C9A877" d="M28.816,37.753c0.301-0.114,0.569-0.301,0.706-0.604c0.108-0.239,0.105-0.511-0.092-0.708
			c-0.186-0.186-0.481-0.218-0.708-0.092c-0.104,0.059-0.207,0.115-0.31,0.173c-0.276,0.153-0.367,0.531-0.21,0.8
			c0.162,0.278,0.523,0.364,0.8,0.21c0.103-0.058,0.207-0.115,0.31-0.173c-0.267-0.267-0.533-0.532-0.8-0.8
			c-0.005,0.01-0.089,0.15-0.03,0.069c-0.045,0.062-0.041,0.021,0.023-0.004c-0.295,0.111-0.497,0.395-0.408,0.72
			C28.175,37.628,28.52,37.864,28.816,37.753"/>
		<path fill="#C9A877" d="M34.518,55.29c0.319-0.072,0.575-0.276,0.748-0.551c0.124-0.195,0.095-0.473-0.046-0.648
			c-0.134-0.169-0.396-0.295-0.614-0.21c-0.111,0.043-0.221,0.086-0.331,0.129c-0.294,0.113-0.498,0.392-0.408,0.719
			c0.077,0.281,0.423,0.522,0.719,0.408c0.11-0.043,0.22-0.085,0.331-0.128c-0.221-0.287-0.441-0.573-0.661-0.859
			c0.068-0.107-0.057,0.088,0.019-0.009c-0.016,0.009-0.033,0.019-0.049,0.028c0.054-0.023,0.047-0.025-0.019-0.007
			c-0.308,0.071-0.489,0.426-0.408,0.721C33.885,55.198,34.208,55.36,34.518,55.29"/>
		<path fill="#C9A877" d="M32.886,41.068c-0.109-0.305-0.298-0.57-0.597-0.711c-0.238-0.112-0.514-0.104-0.709,0.091
			c-0.187,0.188-0.214,0.479-0.091,0.709c0.056,0.104,0.112,0.208,0.168,0.313c0.149,0.278,0.534,0.365,0.8,0.209
			c0.281-0.164,0.359-0.52,0.209-0.799c-0.056-0.104-0.111-0.209-0.167-0.313c-0.267,0.266-0.534,0.533-0.8,0.8
			c0.027,0.013,0.126,0.092,0.066,0.032c-0.065-0.065,0.029,0.077-0.007-0.021c0.107,0.297,0.399,0.496,0.72,0.408
			C32.765,41.708,32.993,41.367,32.886,41.068"/>
		<path fill="#C9A877" d="M14.398,52.289c0.188-0.283,0.217-0.603,0.156-0.929c-0.09-0.48-0.857-0.583-1.069-0.141
			c-0.051,0.107-0.102,0.214-0.153,0.32c-0.135,0.285-0.078,0.632,0.21,0.8c0.255,0.15,0.663,0.077,0.8-0.209
			c0.051-0.106,0.102-0.214,0.153-0.321c-0.356-0.046-0.712-0.093-1.069-0.139c-0.009-0.052,0.03-0.054-0.003-0.031
			c-0.009,0.035-0.011,0.041-0.004,0.02c0.012-0.032,0.001-0.02-0.031,0.04c-0.174,0.263-0.051,0.646,0.21,0.8
			C13.884,52.666,14.223,52.553,14.398,52.289"/>
		<path fill="#C9A877" d="M42.639,39.353c-0.204,0.273-0.226,0.598-0.179,0.924c0.033,0.224,0.284,0.392,0.487,0.419
			c0.222,0.03,0.471-0.073,0.582-0.279c0.056-0.104,0.112-0.209,0.168-0.313c0.149-0.278,0.07-0.636-0.21-0.8
			c-0.265-0.155-0.65-0.069-0.8,0.21c-0.056,0.104-0.112,0.208-0.168,0.313c0.357,0.046,0.713,0.093,1.069,0.14
			c0.009,0.063-0.021,0.115,0.015,0.033c-0.039,0.089,0.031-0.037,0.046-0.057c0.188-0.253,0.041-0.653-0.21-0.8
			C43.141,38.969,42.828,39.099,42.639,39.353"/>
		<path fill="#C9A877" d="M20.175,55.365c-0.324,0.034-0.631,0.143-0.843,0.403c-0.166,0.205-0.232,0.469-0.091,0.709
			c0.132,0.226,0.409,0.333,0.66,0.27c0.115-0.03,0.229-0.06,0.344-0.089c0.306-0.079,0.491-0.418,0.408-0.72
			c-0.085-0.31-0.412-0.486-0.719-0.407c-0.115,0.028-0.229,0.059-0.344,0.088c0.19,0.326,0.38,0.65,0.569,0.977
			c0.006-0.007,0.124-0.125,0.046-0.059c0.06-0.051,0.043-0.01-0.03-0.003c0.303-0.032,0.6-0.246,0.585-0.584
			C20.747,55.66,20.501,55.331,20.175,55.365"/>
		<path fill="#C9A877" d="M26.559,46.783c0.306-0.134,0.489-0.4,0.607-0.701c0.084-0.212-0.041-0.488-0.209-0.614
			c-0.183-0.137-0.447-0.172-0.649-0.046c-0.101,0.063-0.201,0.126-0.301,0.188c-0.268,0.167-0.373,0.521-0.21,0.8
			c0.156,0.267,0.531,0.377,0.8,0.209c0.1-0.062,0.2-0.125,0.301-0.188c-0.287-0.22-0.573-0.44-0.859-0.66
			c0.027-0.068,0.066-0.063,0-0.025c0.085-0.048-0.054,0.021-0.07,0.027c-0.29,0.127-0.356,0.55-0.21,0.8
			C25.934,46.872,26.269,46.91,26.559,46.783"/>
		<path fill="#C9A877" d="M19.23,52.859c0.274,0.205,0.598,0.226,0.924,0.179c0.224-0.032,0.392-0.284,0.419-0.486
			c0.03-0.223-0.074-0.471-0.279-0.582c-0.105-0.056-0.209-0.112-0.313-0.169c-0.278-0.148-0.637-0.068-0.8,0.21
			c-0.155,0.267-0.069,0.65,0.21,0.801c0.104,0.056,0.208,0.111,0.312,0.168l0.14-1.068c0.065-0.01,0.114,0.021,0.034-0.015
			c0.089,0.04-0.038-0.032-0.057-0.047c-0.253-0.189-0.653-0.041-0.8,0.21C18.846,52.357,18.976,52.67,19.23,52.859"/>
		<path fill="#C9A877" d="M35.15,49.765c-0.325,0.06-0.576,0.269-0.759,0.534c-0.285,0.414,0.189,1.021,0.66,0.858
			c0.112-0.038,0.224-0.076,0.336-0.114c0.298-0.103,0.495-0.401,0.408-0.72c-0.08-0.291-0.419-0.511-0.719-0.408
			c-0.112,0.038-0.224,0.076-0.336,0.115c0.22,0.286,0.44,0.572,0.66,0.859c-0.054,0.078,0.073-0.033-0.01,0.016
			c-0.077,0.046,0.036-0.007,0.071-0.013c0.311-0.058,0.487-0.434,0.408-0.72C35.78,49.847,35.462,49.706,35.15,49.765"/>
		<path fill="#C9A877" d="M46.453,48.863c0.265-0.185,0.474-0.435,0.533-0.76c0.047-0.259-0.031-0.521-0.269-0.66
			c-0.228-0.135-0.518-0.087-0.708,0.091c-0.086,0.081-0.173,0.162-0.259,0.243c-0.23,0.216-0.218,0.607,0,0.827
			c0.23,0.229,0.596,0.216,0.827,0c0.086-0.081,0.172-0.162,0.259-0.243c-0.326-0.19-0.652-0.379-0.977-0.569
			c-0.006,0.028-0.057,0.151-0.014,0.071c0.044-0.079-0.062,0.045,0.018-0.01c-0.259,0.18-0.378,0.513-0.21,0.8
			C45.803,48.91,46.191,49.044,46.453,48.863"/>
		<path fill="#C9A877" d="M34.124,49.067c-0.046-0.332-0.258-0.576-0.516-0.771c-0.181-0.138-0.486-0.084-0.649,0.046
			c-0.18,0.143-0.277,0.385-0.21,0.613l0.1,0.342c0.089,0.303,0.411,0.493,0.719,0.407c0.302-0.083,0.498-0.414,0.409-0.719
			l-0.1-0.34c-0.286,0.22-0.573,0.44-0.859,0.66c-0.069-0.052-0.031-0.06-0.026-0.002c-0.008-0.094,0.001,0.05,0.004,0.074
			c0.044,0.313,0.444,0.483,0.72,0.407C34.052,49.694,34.167,49.382,34.124,49.067"/>
		<path fill="#C9A877" d="M23.944,57.14c0.083-0.324,0.042-0.645-0.125-0.936c-0.128-0.224-0.412-0.336-0.66-0.268
			c-0.266,0.073-0.4,0.305-0.429,0.563c-0.013,0.117-0.026,0.235-0.039,0.353c-0.034,0.305,0.293,0.598,0.584,0.585
			c0.346-0.016,0.549-0.258,0.585-0.585c0.013-0.117,0.026-0.235,0.039-0.353l-1.089,0.296c0.022,0.038,0.029,0.078,0.014,0.017
			c-0.006-0.021,0.028-0.122-0.008,0.016c-0.075,0.296,0.097,0.648,0.409,0.72C23.529,57.617,23.863,57.456,23.944,57.14"/>
		<path fill="#C9A877" d="M25.372,51.426c-0.303,0.111-0.569,0.299-0.709,0.6c-0.111,0.239-0.104,0.513,0.091,0.708
			c0.187,0.188,0.48,0.216,0.709,0.092c0.104-0.057,0.208-0.113,0.312-0.169c0.277-0.151,0.365-0.534,0.209-0.8
			c-0.164-0.28-0.521-0.361-0.8-0.21c-0.104,0.056-0.208,0.112-0.311,0.169c0.266,0.267,0.533,0.534,0.799,0.8
			c0.01-0.021,0.093-0.135,0.032-0.067c-0.06,0.067,0.072-0.028-0.021,0.007c0.296-0.109,0.497-0.397,0.408-0.721
			C26.013,51.549,25.669,51.317,25.372,51.426"/>
		<path fill="#C9A877" d="M42.893,46.598c-0.31,0.094-0.573,0.29-0.727,0.578c-0.123,0.23-0.097,0.521,0.091,0.709
			c0.194,0.194,0.471,0.203,0.709,0.091c0.107-0.05,0.214-0.101,0.321-0.15c0.285-0.136,0.359-0.545,0.209-0.801
			c-0.171-0.293-0.513-0.345-0.8-0.21c-0.107,0.052-0.213,0.102-0.32,0.152c0.266,0.266,0.533,0.533,0.799,0.799
			c0.089-0.164-0.057,0.097,0.042-0.06c-0.019,0.029-0.135,0.056-0.013,0.02c0.302-0.092,0.493-0.41,0.408-0.72
			C43.529,46.707,43.195,46.506,42.893,46.598"/>
		<path fill="#C9A877" d="M10.941,43.268c0.258-0.193,0.47-0.438,0.518-0.771c0.038-0.261-0.025-0.517-0.269-0.659
			c-0.223-0.13-0.526-0.093-0.708,0.092c-0.084,0.084-0.167,0.168-0.25,0.252c-0.222,0.224-0.224,0.603,0,0.827
			c0.223,0.223,0.604,0.225,0.827,0c0.083-0.084,0.166-0.168,0.249-0.253c-0.325-0.189-0.651-0.379-0.977-0.568
			c-0.001,0.006-0.019,0.18-0.005,0.073c-0.008,0.06-0.044,0.049,0.025-0.003c-0.252,0.188-0.382,0.506-0.21,0.8
			C10.288,43.307,10.688,43.459,10.941,43.268"/>
		<path fill="#C9A877" d="M29.429,47.624c-0.299-0.144-0.617-0.196-0.938-0.09c-0.548,0.185-0.561,0.949,0,1.128
			c0.113,0.036,0.225,0.072,0.338,0.108c0.292,0.092,0.651-0.109,0.719-0.409c0.073-0.319-0.122-0.62-0.434-0.719
			c-0.113-0.036-0.365-0.072-0.365-0.108v1.128c0-0.007,0.066-0.013,0.086-0.02c-0.041,0.001-0.028,0.002,0.014,0.002
			c0.003-0.02,0.051,0.021-0.017-0.01c0.285,0.137,0.635,0.078,0.803-0.21C29.785,48.168,29.715,47.763,29.429,47.624"/>
		<path fill="#C9A877" d="M26.278,49.572c0.29,0.166,0.611,0.208,0.935,0.124c0.238-0.062,0.44-0.313,0.429-0.563
			c-0.013-0.278-0.179-0.464-0.429-0.563c-0.11-0.044-0.22-0.088-0.33-0.132c-0.285-0.113-0.654,0.124-0.719,0.408
			c-0.077,0.338,0.032,0.598,0.337,0.72c0.11,0.044,0.259,0.088,0.259,0.131v-1.127c0,0.015,0.01,0.035,0.055,0.007
			c0.011-0.006,0.162,0.069,0.018-0.014c-0.274-0.157-0.622-0.064-0.782,0.21C25.892,49.044,26.003,49.414,26.278,49.572"/>
		<path fill="#C9A877" d="M18.274,40.855c-0.22-0.251-0.525-0.366-0.851-0.389c-0.489-0.031-0.795,0.676-0.414,0.998l0.271,0.23
			c0.24,0.205,0.591,0.236,0.827,0c0.209-0.209,0.241-0.621,0-0.827l-0.271-0.229c-0.138,0.332-0.276,0.665-0.413,0.998
			c-0.136-0.01,0.087,0.03-0.028-0.009c0.016,0.011,0.032,0.021,0.048,0.03c-0.046-0.032-0.045-0.023,0.004,0.023
			c0.208,0.236,0.614,0.213,0.827,0C18.51,41.446,18.483,41.093,18.274,40.855"/>
		<path fill="#C9A877" d="M30.048,35.498c-0.101,0.246-0.101,0.553-0.001,0.799c0.094,0.234,0.288,0.442,0.564,0.43
			c0.254-0.012,0.499-0.173,0.564-0.43c0.029-0.114,0.058-0.229,0.086-0.344c0.075-0.296-0.096-0.648-0.408-0.719
			c-0.303-0.069-0.639-0.129-0.719,0.188c-0.029,0.115-0.058,0.125-0.087,0.125h1.128c-0.011,0-0.032,0.063-0.033,0.13
			c-0.001,0.084,0.026,0.04,0.034,0.021c0.115-0.284-0.126-0.601-0.409-0.664C30.428,34.958,30.172,35.194,30.048,35.498"/>
		<path fill="#C9A877" d="M31.417,57.204c-0.03-0.325-0.14-0.631-0.398-0.846c-0.202-0.168-0.47-0.231-0.709-0.092
			c-0.228,0.134-0.33,0.408-0.268,0.66c0.027,0.115,0.055,0.23,0.083,0.346c0.075,0.307,0.422,0.489,0.719,0.407
			c0.313-0.086,0.483-0.411,0.409-0.719c-0.028-0.115-0.056-0.229-0.084-0.345c-0.326,0.189-0.651,0.379-0.977,0.568
			c0.018,0.016,0.106,0.124,0.056,0.049c-0.051-0.077,0.01,0.08,0-0.029c0.028,0.304,0.249,0.6,0.584,0.585
			C31.125,57.776,31.447,57.53,31.417,57.204"/>
		<path fill="#C9A877" d="M31.172,54.094c-0.234,0.232-0.359,0.535-0.36,0.864c-0.001,0.247,0.181,0.507,0.429,0.564
			c0.274,0.062,0.498-0.052,0.661-0.27c0.07-0.095,0.141-0.188,0.212-0.284c0.189-0.253,0.041-0.652-0.21-0.8
			c-0.298-0.175-0.61-0.044-0.8,0.21c-0.07,0.094-0.141,0.189-0.212,0.284c0.363,0.098,0.726,0.197,1.089,0.295
			c0.002-0.064,0.002-0.075-0.001-0.034c-0.005,0.041,0,0.031,0.015-0.031c0.022-0.001-0.116,0.147,0.004,0.028
			c0.224-0.223,0.223-0.604,0-0.827C31.774,53.869,31.397,53.871,31.172,54.094"/>
		<path fill="#C9A877" d="M11.601,40.406c0.153,0.289,0.417,0.485,0.726,0.58c0.222,0.068,0.479-0.028,0.615-0.21
			c0.128-0.172,0.184-0.461,0.045-0.648c-0.07-0.096-0.14-0.191-0.21-0.286c-0.187-0.254-0.507-0.381-0.8-0.21
			c-0.25,0.146-0.398,0.545-0.21,0.8c0.07,0.096,0.14,0.19,0.211,0.286c0.22-0.286,0.44-0.573,0.66-0.859
			c-0.113-0.034-0.011-0.007,0.014,0.019c-0.08-0.083,0.018,0.051-0.041-0.061c-0.148-0.279-0.536-0.365-0.8-0.21
			C11.529,39.771,11.452,40.127,11.601,40.406"/>
		<path fill="#C9A877" d="M17.545,37.533c-0.288,0.154-0.485,0.417-0.579,0.727c-0.068,0.222,0.028,0.479,0.209,0.615
			c0.172,0.128,0.461,0.185,0.65,0.046c0.095-0.071,0.19-0.142,0.285-0.211c0.254-0.188,0.381-0.508,0.21-0.801
			c-0.147-0.25-0.545-0.398-0.8-0.21l-0.286,0.212c0.287,0.22,0.573,0.439,0.859,0.659c0.035-0.112,0.008-0.01-0.018,0.015
			c0.086-0.079-0.053,0.019,0.06-0.041c0.279-0.149,0.365-0.535,0.21-0.801C18.18,37.462,17.825,37.385,17.545,37.533"/>
		<path fill="#C9A877" d="M20.901,41.37c-0.036-0.324-0.144-0.631-0.407-0.841c-0.205-0.165-0.466-0.233-0.708-0.092
			c-0.225,0.132-0.335,0.409-0.269,0.659c0.03,0.115,0.06,0.229,0.091,0.345c0.08,0.305,0.417,0.49,0.719,0.407
			c0.308-0.085,0.489-0.412,0.408-0.719c-0.03-0.115-0.06-0.229-0.09-0.343c-0.326,0.188-0.652,0.379-0.977,0.568
			c0.004,0.004,0.132,0.122,0.059,0.046c0.052,0.054,0.013,0.046,0.005-0.031c0.033,0.303,0.245,0.6,0.584,0.585
			C20.604,41.942,20.937,41.696,20.901,41.37"/>
		<path fill="#C9A877" d="M37.345,42.885c0.016-0.332-0.116-0.631-0.336-0.873c-0.322-0.355-1.048-0.093-0.998,0.413
			c0.012,0.118,0.023,0.236,0.035,0.354c0.03,0.304,0.247,0.6,0.585,0.585c0.291-0.014,0.616-0.26,0.584-0.585
			c-0.011-0.117-0.023-0.235-0.035-0.354c-0.332,0.138-0.665,0.276-0.998,0.414c-0.085-0.095,0.068,0.086-0.008-0.02
			c0.005,0.018,0.009,0.035,0.014,0.054c-0.01-0.063-0.014-0.06-0.012,0.012c-0.015,0.307,0.279,0.599,0.584,0.585
			C37.09,43.455,37.329,43.213,37.345,42.885"/>
		<path fill="#C9A877" d="M15.194,49.857c0.205-0.253,0.345-0.547,0.311-0.882c-0.026-0.249-0.163-0.504-0.429-0.563
			c-0.255-0.058-0.524,0.038-0.661,0.268l-0.181,0.307c-0.161,0.271-0.061,0.641,0.21,0.8c0.275,0.16,0.638,0.063,0.8-0.21
			l0.181-0.305c-0.363-0.1-0.726-0.197-1.09-0.296c0.001,0.008,0.015,0.189,0.011,0.067c0.002,0.068-0.029,0.048,0.021-0.013
			c-0.199,0.245-0.239,0.587,0,0.827C14.573,50.063,14.994,50.104,15.194,49.857"/>
		<path fill="#C9A877" d="M16.531,51.806c0.323,0.096,0.642,0.049,0.936-0.107c0.206-0.109,0.309-0.362,0.28-0.583
			c-0.028-0.205-0.194-0.453-0.419-0.486c-0.117-0.017-0.234-0.034-0.351-0.051c-0.302-0.044-0.643,0.074-0.72,0.408
			c-0.063,0.276,0.085,0.673,0.409,0.72c0.117,0.017,0.234,0.034,0.351,0.051c-0.047-0.355-0.093-0.713-0.14-1.068
			c0.066-0.035-0.075,0.012-0.02,0.006c0.035-0.004,0.097,0.017-0.015-0.017c-0.294-0.085-0.65,0.104-0.719,0.409
			C16.051,51.4,16.217,51.714,16.531,51.806"/>
		<path fill="#C9A877" d="M43.358,52.383c-0.26,0.191-0.471,0.438-0.522,0.767c-0.04,0.262,0.027,0.52,0.269,0.66
			c0.224,0.132,0.524,0.091,0.708-0.091l0.252-0.25c0.225-0.222,0.223-0.604,0-0.827c-0.225-0.225-0.601-0.222-0.826,0
			c-0.084,0.084-0.169,0.167-0.253,0.25c0.326,0.19,0.652,0.379,0.977,0.569c0.001-0.004,0.033-0.181,0.008-0.073
			c0.015-0.064,0.041-0.042-0.023,0.005c0.254-0.187,0.381-0.508,0.21-0.8C44.011,52.342,43.614,52.195,43.358,52.383"/>
		<path fill="#C9A877" d="M22.791,42.22c-0.057,0.326-0.03,0.646,0.162,0.928c0.324,0.473,1.07,0.305,1.09-0.295l0.011-0.355
			c0.01-0.306-0.276-0.598-0.584-0.585c-0.326,0.016-0.575,0.257-0.585,0.585l-0.011,0.355c0.363-0.1,0.726-0.197,1.089-0.295
			c-0.028-0.041-0.032-0.057-0.037-0.058c-0.021-0.004,0.006-0.045-0.007,0.03c0.052-0.3-0.081-0.645-0.409-0.719
			C23.226,41.746,22.847,41.897,22.791,42.22"/>
		<path fill="#C9A877" d="M33.206,35.499c-0.219,0.243-0.352,0.542-0.334,0.874c0.03,0.588,0.765,0.783,1.089,0.295
			c0.065-0.099,0.131-0.196,0.196-0.296c0.175-0.263,0.052-0.646-0.209-0.8c-0.287-0.167-0.625-0.054-0.8,0.21
			c-0.066,0.099-0.131,0.197-0.197,0.296l1.09,0.295c-0.006-0.121-0.046,0.047,0.001-0.065c-0.039,0.093,0.061-0.06-0.009,0.019
			c0.211-0.235,0.231-0.595,0-0.827C33.818,35.284,33.418,35.264,33.206,35.499"/>
		<path fill="#C9A877" d="M25.52,57.068c-0.001,0.329,0.125,0.632,0.357,0.865c0.183,0.184,0.485,0.222,0.709,0.091
			c0.242-0.142,0.307-0.4,0.268-0.66c-0.017-0.117-0.034-0.234-0.051-0.352c-0.046-0.313-0.442-0.484-0.719-0.407
			c-0.335,0.092-0.454,0.404-0.408,0.719c0.017,0.117,0.034,0.234,0.051,0.351c0.326-0.189,0.651-0.379,0.977-0.568
			c-0.092-0.093,0.006-0.005-0.003,0.026c-0.005-0.018-0.011-0.036-0.016-0.054c0.005,0.064,0.006,0.06,0.004-0.011
			c0.001-0.307-0.269-0.6-0.584-0.585C25.787,56.498,25.52,56.74,25.52,57.068"/>
		<path fill="#C9A877" d="M14.294,40.292c0.304,0.132,0.618,0.192,0.939,0.07c0.234-0.088,0.441-0.292,0.429-0.563
			c-0.012-0.258-0.173-0.494-0.429-0.563c-0.114-0.032-0.228-0.063-0.342-0.095c-0.295-0.082-0.649,0.101-0.719,0.408
			c-0.071,0.31,0.188,0.632,0.503,0.719c0.114,0.032-0.29,0.063,0.438,0.095v-1.127c-0.728,0.005-0.251,0.047-0.201,0.032
			c0.032-0.01-0.009,0.003,0.02,0.015c-0.29-0.125-0.651-0.085-0.824,0.21C13.964,39.739,14.003,40.166,14.294,40.292"/>
		<path fill="#C9A877" d="M15.482,53.94c-0.07,0.011-0.07,0.015-0.001,0.013c-0.07-0.013-0.071-0.011-0.003,0.005
			c0.064,0.021,0.066,0.021,0.005-0.002c0.031,0.016,0.06,0.034,0.089,0.054c-0.05-0.039-0.049-0.036,0,0.009
			c0.045,0.051,0.047,0.052,0.005,0.003c0.032,0.061,0.034,0.061,0.009-0.001c0.011,0.033,0.02,0.066,0.026,0.101
			c0.357-0.15,0.713-0.3,1.069-0.45c-0.114-0.266-0.228-0.532-0.342-0.798c-0.124-0.29-0.551-0.355-0.799-0.209
			c-0.301,0.175-0.335,0.508-0.21,0.8c0.114,0.265,0.227,0.531,0.341,0.797c0.113,0.264,0.493,0.344,0.73,0.239
			c0.273-0.12,0.404-0.398,0.339-0.69c-0.075-0.335-0.293-0.622-0.578-0.81c-0.305-0.201-0.638-0.236-0.991-0.188
			c-0.313,0.044-0.484,0.444-0.408,0.721C14.855,53.87,15.168,53.984,15.482,53.94"/>
		<path fill="#C9A877" d="M24.868,47.995c0.004,0.036,0.006,0.072,0.004,0.107c0.011-0.064,0.009-0.063-0.006,0.006
			c-0.021,0.064-0.022,0.067-0.002,0.01c-0.038,0.057-0.038,0.062-0.001,0.017c-0.023,0.028-0.048,0.055-0.075,0.078
			c0.048-0.034,0.044-0.032-0.013,0.005c-0.061,0.032-0.064,0.033-0.009,0.005c-0.034,0.011-0.07,0.019-0.106,0.022
			c0.104,0.376,0.207,0.752,0.311,1.128c0.272-0.099,0.544-0.197,0.816-0.295c0.297-0.107,0.497-0.398,0.408-0.719
			c-0.079-0.287-0.421-0.517-0.719-0.408c-0.272,0.098-0.544,0.196-0.816,0.294c-0.297,0.107-0.497,0.397-0.408,0.719
			c0.091,0.331,0.406,0.46,0.719,0.409c0.627-0.104,1.116-0.748,1.066-1.378c-0.024-0.304-0.251-0.6-0.584-0.585
			C25.156,47.424,24.841,47.668,24.868,47.995"/>
		<path fill="#C9A877" d="M14.255,46.854c-0.06,0.031-0.059,0.035,0.002,0.012c-0.032,0.012-0.065,0.021-0.099,0.029
			c0.147-0.038-0.145-0.027,0.002,0.002c-0.034-0.008-0.068-0.016-0.101-0.026c0.059,0.028,0.058,0.026-0.002-0.004
			c-0.056-0.037-0.059-0.037-0.007,0c-0.045-0.049-0.049-0.048-0.01,0.002c-0.306,0.236-0.612,0.472-0.918,0.708
			c0.211,0.197,0.423,0.394,0.634,0.591c0.231,0.216,0.598,0.229,0.827,0c0.218-0.217,0.232-0.61,0-0.826
			c-0.211-0.196-0.423-0.395-0.635-0.592s-0.536-0.229-0.767-0.045c-0.208,0.165-0.326,0.516-0.151,0.754
			c0.419,0.567,1.188,0.793,1.815,0.405c0.268-0.167,0.372-0.523,0.21-0.8C14.898,46.796,14.524,46.688,14.255,46.854"/>
		<path fill="#C9A877" d="M17.211,43.383c0.035-0.004,0.069-0.005,0.103-0.006c0.063-0.002,0.05,0.013-0.002-0.001
			c0.05,0.013,0.059,0.018,0.006-0.006c0.013,0.006,0.13,0.078,0.073,0.037c-0.049-0.036,0.03,0.029,0.039,0.039
			c0.061,0.061-0.043-0.069,0.004,0.004c0.008,0.012,0.049,0.104,0.028,0.045c-0.025-0.067,0.012,0.079,0.012,0.079
			c0.376-0.104,0.752-0.207,1.128-0.312c-0.104-0.27-0.208-0.54-0.312-0.81c-0.113-0.294-0.393-0.497-0.719-0.408
			c-0.282,0.078-0.522,0.423-0.408,0.719c0.104,0.271,0.207,0.54,0.311,0.811c0.113,0.295,0.393,0.498,0.719,0.408
			c0.327-0.09,0.466-0.407,0.409-0.72c-0.115-0.62-0.761-1.112-1.391-1.049c-0.303,0.03-0.6,0.247-0.585,0.584
			C16.639,43.089,16.885,43.416,17.211,43.383"/>
		<path fill="#C9A877" d="M15.541,44.924c-0.003,0.07,0.001,0.073,0.01,0.006c-0.007,0.036-0.017,0.071-0.029,0.105
			c0.024-0.058,0.02-0.056-0.012,0.006c0.034-0.037,0.037-0.04,0.01-0.01c-0.018,0.021-0.037,0.04-0.057,0.059
			c0.048-0.034,0.044-0.032-0.013,0.005c-0.061,0.032-0.063,0.034-0.008,0.007c-0.068,0.017-0.07,0.02-0.004,0.01
			c0.052,0.383,0.104,0.766,0.155,1.147c0.278-0.08,0.556-0.161,0.833-0.242c0.304-0.088,0.493-0.411,0.409-0.719
			c-0.083-0.302-0.415-0.496-0.719-0.408c-0.278,0.081-0.556,0.161-0.834,0.242c-0.28,0.081-0.457,0.354-0.418,0.641
			c0.035,0.265,0.284,0.536,0.574,0.508c0.706-0.071,1.283-0.619,1.272-1.356c-0.004-0.306-0.265-0.599-0.584-0.585
			C15.813,44.353,15.536,44.596,15.541,44.924"/>
		<path fill="#C9A877" d="M24.896,44.412c-0.04,0.05-0.038,0.049,0.008-0.001c-0.053,0.036-0.051,0.035,0.005-0.002
			c0.06-0.03,0.06-0.032,0-0.007c0.033-0.011,0.066-0.021,0.1-0.027c-0.069,0.007-0.07,0.008,0,0.003
			c0.069,0.004,0.069,0.001-0.001-0.008c0.034,0.007,0.067,0.016,0.099,0.026c-0.06-0.026-0.06-0.022,0,0.009
			c0.15-0.355,0.3-0.712,0.45-1.067c-0.271-0.1-0.543-0.198-0.815-0.297c-0.297-0.108-0.64,0.12-0.719,0.407
			c-0.089,0.326,0.111,0.611,0.408,0.72c0.272,0.099,0.544,0.197,0.815,0.297c0.271,0.099,0.59-0.088,0.69-0.338
			c0.108-0.269,0.017-0.579-0.239-0.73c-0.631-0.373-1.4-0.155-1.811,0.426c-0.182,0.259-0.046,0.65,0.21,0.8
			C24.389,44.794,24.713,44.672,24.896,44.412"/>
		<path fill="#C9A877" d="M36.799,36.43c-0.006-0.07-0.008-0.07-0.005-0.001c-0.004,0.068-0.003,0.067,0.002-0.002
			c-0.008,0.033-0.018,0.065-0.03,0.099c0.024-0.061,0.02-0.061-0.011-0.001c0.042-0.047,0.041-0.045-0.004,0.005
			c-0.049,0.045-0.049,0.048,0.001,0.011c-0.028,0.02-0.057,0.036-0.088,0.053c0.06-0.025,0.058-0.027-0.006-0.007
			c0.15,0.355,0.3,0.712,0.45,1.068c0.26-0.126,0.521-0.252,0.781-0.377c0.285-0.138,0.36-0.543,0.21-0.8
			c-0.17-0.291-0.515-0.348-0.8-0.21c-0.26,0.126-0.521,0.251-0.781,0.377c-0.259,0.125-0.348,0.483-0.239,0.73
			c0.116,0.264,0.402,0.417,0.689,0.339c0.706-0.192,1.088-0.896,0.959-1.596c-0.058-0.31-0.434-0.486-0.72-0.407
			C36.881,35.8,36.741,36.118,36.799,36.43"/>
		<path fill="#C9A877" d="M39.539,38.216c0.004-0.036,0.012-0.071,0.022-0.106c-0.029,0.056-0.027,0.053,0.005-0.009
			c0.037-0.057,0.038-0.061,0.004-0.013c0.024-0.027,0.05-0.054,0.078-0.076c-0.046,0.037-0.04,0.037,0.016-0.001
			c-0.058,0.02-0.054,0.019,0.011-0.003c0.068-0.016,0.057-0.018-0.009-0.006c0.036-0.002,0.096-0.001,0.096,0.004v-1.17
			c0,0.03-0.563,0.062-0.85,0.093c-0.303,0.033-0.593,0.246-0.578,0.585c0.013,0.288,0.262,0.619,0.588,0.584
			c0.287-0.031,0.576-0.061,0.864-0.092c0.303-0.033,0.6-0.246,0.585-0.585c-0.015-0.336-0.257-0.561-0.584-0.585
			c-0.629-0.047-1.274,0.44-1.376,1.068c-0.049,0.302,0.078,0.645,0.409,0.72C39.101,38.688,39.486,38.539,39.539,38.216"/>
		<path fill="#C9A877" d="M20.331,39.596c0.021-0.027,0.045-0.052,0.067-0.079c0.05-0.062,0.005-0.027,0.002-0.005
			c0.003-0.019,0.081-0.044-0.001-0.01c0.014-0.006,0.151-0.045,0.073-0.028c-0.068,0.014,0.174,0.004,0.103-0.001
			c-0.072-0.004,0.054,0.04,0,0.002c-0.059-0.041,0.069,0.044,0.067,0.043c0.15-0.355,0.301-0.712,0.451-1.068
			c-0.267-0.111-0.534-0.223-0.801-0.335c-0.291-0.122-0.643,0.133-0.719,0.409c-0.092,0.337,0.116,0.597,0.408,0.719
			c0.267,0.111,0.534,0.224,0.801,0.335c0.265,0.11,0.593-0.099,0.69-0.339c0.111-0.277,0.01-0.566-0.24-0.729
			c-0.527-0.346-1.333-0.246-1.728,0.26c-0.194,0.249-0.242,0.584,0,0.827C19.706,39.798,20.136,39.846,20.331,39.596"/>
		<path fill="#C9A877" d="M35.552,52.545c0.068-0.016,0.066-0.02-0.004-0.011c0.034-0.003,0.069-0.004,0.103-0.002
			c-0.154-0.003,0.128,0.06,0.004,0c0.031,0.015,0.061,0.032,0.09,0.051c-0.049-0.04-0.048-0.037,0.002,0.007
			c0.045,0.051,0.047,0.052,0.005,0.002c0.032,0.061,0.035,0.061,0.009,0c0.356-0.149,0.712-0.3,1.068-0.449
			c-0.152-0.246-0.304-0.492-0.456-0.738c-0.166-0.269-0.523-0.372-0.8-0.21c-0.268,0.157-0.377,0.531-0.21,0.8
			c0.152,0.246,0.304,0.492,0.456,0.738c0.153,0.246,0.462,0.356,0.731,0.239c0.244-0.107,0.445-0.414,0.338-0.689
			c-0.255-0.66-0.941-1.074-1.647-0.865c-0.303,0.09-0.493,0.411-0.408,0.721C34.915,52.438,35.248,52.636,35.552,52.545"/>
		<path fill="#C9A877" d="M45.609,45.292c-0.065-0.01-0.064-0.007,0.004,0.009c-0.056-0.026-0.053-0.024,0.008,0.008
			c0.057,0.037,0.061,0.039,0.012,0.006c0.04,0.046,0.05,0.054,0.028,0.021c-0.04-0.075,0.084,0.175,0.03,0.035
			c0.012,0.034,0.022,0.067,0.029,0.104c-0.01-0.065-0.013-0.063-0.011,0.006c0.383-0.051,0.766-0.103,1.149-0.154
			c-0.048-0.285-0.095-0.57-0.142-0.856c-0.052-0.312-0.438-0.484-0.719-0.408c-0.331,0.092-0.46,0.406-0.409,0.72
			c0.048,0.284,0.095,0.57,0.142,0.855c0.048,0.286,0.381,0.454,0.642,0.419c0.288-0.039,0.501-0.281,0.507-0.575
			c0.013-0.736-0.565-1.284-1.27-1.357c-0.305-0.032-0.598,0.291-0.585,0.584C45.04,45.051,45.282,45.258,45.609,45.292"/>
		<path fill="#C9A877" d="M28.048,57.666c0.029-0.019,0.057-0.037,0.088-0.054c-0.083,0.043-0.004-0.008,0.006,0.005
			c-0.003-0.003,0.099,0.001-0.002-0.001c0.017,0.001,0.153,0.016,0.077,0.001c-0.069-0.014,0.038,0.015,0.049,0.019
			c0.082,0.038-0.081-0.031,0.002,0.005c0.07,0.03-0.049-0.054,0.006-0.001c0.032,0.031,0.059,0.061,0.087,0.096
			c0.275-0.275,0.551-0.551,0.826-0.827c-0.218-0.189-0.436-0.379-0.654-0.568c-0.238-0.207-0.593-0.234-0.827,0
			c-0.211,0.211-0.239,0.617,0,0.826c0.218,0.189,0.436,0.38,0.655,0.569c0.238,0.207,0.592,0.234,0.826,0
			c0.245-0.245,0.197-0.578,0-0.827c-0.397-0.502-1.204-0.602-1.729-0.252c-0.262,0.175-0.376,0.517-0.21,0.8
			C27.4,57.718,27.784,57.843,28.048,57.666"/>
		<path fill="#C9A877" d="M33.23,52.854c-0.004-0.036-0.005-0.072-0.003-0.108c-0.01,0.066-0.007,0.064,0.008-0.004
			c-0.098,0.124,0.102-0.143,0.007-0.024c0.024-0.028,0.049-0.055,0.077-0.078c-0.048,0.035-0.043,0.035,0.014-0.002
			c-0.117,0.025,0.095-0.021,0.116-0.024c-0.104-0.376-0.207-0.752-0.311-1.128c-0.273,0.095-0.547,0.189-0.82,0.284
			c-0.298,0.103-0.496,0.399-0.408,0.719c0.08,0.29,0.419,0.512,0.719,0.408c0.273-0.094,0.547-0.189,0.82-0.283
			c0.298-0.104,0.496-0.4,0.408-0.72c-0.092-0.334-0.406-0.455-0.719-0.408c-0.631,0.096-1.118,0.741-1.077,1.369
			c0.02,0.305,0.254,0.599,0.584,0.585C32.945,53.425,33.251,53.181,33.23,52.854"/>
		<path fill="#C9A877" d="M39.425,44.525c0.009,0.069,0.012,0.069,0.009,0.001c-0.013,0.069-0.012,0.07,0.002,0.003
			c0.022-0.065,0.02-0.066-0.004-0.006c0.016-0.031,0.033-0.062,0.052-0.091c-0.04,0.049-0.037,0.049,0.007-0.002
			c0.05-0.045,0.051-0.047,0.002-0.007c0.06-0.032,0.059-0.035-0.002-0.011c0.032-0.012,0.066-0.022,0.1-0.029
			c-0.151-0.355-0.301-0.712-0.451-1.067c-0.264,0.117-0.528,0.236-0.791,0.354c-0.288,0.13-0.357,0.548-0.21,0.8
			c0.173,0.297,0.511,0.341,0.8,0.21c0.264-0.118,0.527-0.236,0.791-0.354c0.262-0.118,0.345-0.489,0.239-0.731
			c-0.118-0.269-0.399-0.407-0.689-0.338c-0.719,0.174-1.092,0.882-0.983,1.579c0.05,0.313,0.44,0.485,0.72,0.408
			C39.349,45.153,39.474,44.838,39.425,44.525"/>
		<path fill="#C9A877" d="M41.371,50.153c0.035-0.004,0.069-0.006,0.103-0.009c0.065-0.004,0.048,0.015-0.002-0.003
			c0.033,0.011,0.067,0.016,0.099,0.028c-0.078-0.03-0.017,0,0.022,0.025c0.071,0.048-0.058-0.054,0.002,0.007
			c0.063,0.065-0.05-0.068,0.006,0.002c0.008,0.01,0.056,0.104,0.03,0.044c-0.027-0.063,0.015,0.076,0.016,0.078l1.128-0.31
			c-0.11-0.269-0.219-0.536-0.329-0.804c-0.119-0.292-0.389-0.5-0.719-0.409c-0.277,0.076-0.529,0.426-0.408,0.72
			c0.109,0.268,0.219,0.536,0.328,0.803c0.119,0.292,0.389,0.5,0.719,0.409c0.321-0.089,0.473-0.409,0.409-0.719
			c-0.127-0.615-0.772-1.11-1.404-1.032c-0.302,0.037-0.6,0.242-0.585,0.584C40.799,49.854,41.046,50.193,41.371,50.153"/>
		<path fill="#C9A877" d="M21.714,37.135c0.048,0.041,0.047,0.039-0.002-0.006c-0.045-0.05-0.046-0.051-0.004-0.003
			c-0.031-0.06-0.034-0.06-0.009,0c-0.012-0.033-0.022-0.066-0.03-0.1c0.042,0.144,0.015-0.146-0.009,0.002
			c0.006-0.034,0.015-0.067,0.025-0.101c-0.027,0.061-0.025,0.061,0.007,0c-0.356-0.15-0.712-0.301-1.068-0.451l-0.285,0.819
			c-0.104,0.299,0.118,0.64,0.408,0.72c0.322,0.088,0.616-0.108,0.72-0.409l0.284-0.818c0.22-0.633-0.744-1.019-1.068-0.451
			c-0.361,0.633-0.148,1.404,0.441,1.808c0.26,0.179,0.648,0.05,0.8-0.21C22.094,37.646,21.976,37.313,21.714,37.135"/>
		<path fill="#C9A877" d="M23.287,40.012c0.015,0.068,0.016,0.068,0.002-0.002c-0.003,0.069,0,0.069,0.009-0.002
			c-0.007,0.034-0.015,0.068-0.026,0.101c0.028-0.059,0.026-0.058-0.005,0.003c-0.037,0.056-0.036,0.059,0.002,0.009
			c-0.022,0.025-0.047,0.051-0.072,0.074c0.051-0.038,0.048-0.039-0.008-0.003c0.062-0.021,0.061-0.021-0.004,0
			c0.15,0.356,0.301,0.713,0.451,1.068l0.763-0.411c0.278-0.149,0.365-0.534,0.21-0.8c-0.164-0.281-0.521-0.36-0.8-0.21
			l-0.763,0.412c-0.578,0.311-0.186,1.271,0.45,1.068c0.687-0.221,1.082-0.915,0.919-1.618c-0.072-0.308-0.424-0.489-0.72-0.408
			C23.38,39.379,23.215,39.703,23.287,40.012"/>
		<path fill="#C9A877" d="M19.589,49.229c0.035-0.004,0.069-0.005,0.103-0.007c0.064-0.002,0.049,0.015-0.002,0
			c0.05,0.014,0.058,0.017,0.006-0.008c0.013,0.007,0.131,0.077,0.073,0.036c-0.049-0.035,0.03,0.031,0.039,0.04
			c0.062,0.061-0.043-0.068,0.005,0.003c0.008,0.013,0.05,0.104,0.027,0.045c-0.025-0.065,0.013,0.079,0.013,0.079
			c0.376-0.103,0.752-0.207,1.128-0.31c-0.104-0.271-0.209-0.54-0.313-0.811c-0.114-0.294-0.393-0.498-0.719-0.407
			c-0.281,0.076-0.523,0.423-0.409,0.719c0.105,0.27,0.209,0.54,0.313,0.809c0.114,0.295,0.393,0.498,0.719,0.409
			c0.326-0.09,0.467-0.408,0.409-0.719c-0.116-0.62-0.762-1.113-1.392-1.048c-0.303,0.03-0.6,0.246-0.585,0.584
			C19.017,48.934,19.263,49.263,19.589,49.229"/>
		<path fill="#C9A877" d="M27.392,54.25c0.02,0.027,0.038,0.058,0.053,0.089c-0.026-0.061-0.028-0.059-0.007,0.006
			c-0.006-0.071-0.006-0.071-0.002-0.002c-0.003,0.07,0,0.069,0.01,0c-0.006,0.034-0.014,0.068-0.024,0.101
			c-0.022,0.065-0.023,0.066-0.001,0.005c-0.037,0.056-0.036,0.059,0.003,0.008c-0.049,0.046-0.047,0.05,0.004,0.013
			c0.236,0.306,0.472,0.612,0.708,0.918c0.193-0.215,0.386-0.431,0.578-0.647c0.211-0.234,0.232-0.594,0-0.825
			c-0.214-0.214-0.615-0.237-0.827,0c-0.192,0.215-0.385,0.431-0.578,0.646c-0.193,0.217-0.233,0.533-0.045,0.769
			c0.162,0.204,0.52,0.331,0.754,0.15c0.276-0.214,0.486-0.474,0.556-0.825c0.068-0.341,0.019-0.699-0.172-0.993
			c-0.172-0.266-0.519-0.375-0.8-0.21C27.337,53.604,27.218,53.983,27.392,54.25"/>
		<path fill="#C9A877" d="M11.856,47.243c0.048,0.042,0.047,0.04-0.003-0.006c-0.044-0.05-0.046-0.051-0.004-0.004
			c-0.031-0.06-0.034-0.059-0.009,0.001c-0.013-0.032-0.023-0.065-0.031-0.1c0.044,0.145,0.013-0.146-0.01,0.002
			c0.006-0.034,0.014-0.066,0.025-0.1c-0.027,0.06-0.025,0.06,0.007-0.001c-0.357-0.15-0.713-0.301-1.069-0.45
			c-0.094,0.272-0.188,0.547-0.282,0.82c-0.102,0.299,0.118,0.64,0.409,0.72c0.321,0.088,0.616-0.109,0.719-0.409
			c0.094-0.272,0.188-0.547,0.282-0.82c0.217-0.632-0.746-1.021-1.069-0.45c-0.358,0.633-0.147,1.404,0.445,1.807
			c0.261,0.177,0.648,0.049,0.8-0.21C12.236,47.754,12.119,47.421,11.856,47.243"/>
		<path fill="#C9A877" d="M42.729,43.556c-0.023,0.027-0.048,0.054-0.075,0.077c0.046-0.036,0.041-0.036-0.016,0
			c0.152,0-0.184,0.019-0.016,0.008c-0.037,0.003-0.073,0.003-0.109,0c0.065,0.01,0.064,0.008-0.005-0.008
			c-0.065-0.021-0.068-0.022-0.009-0.004c-0.032-0.018-0.062-0.038-0.09-0.061c-0.197,0.336-0.393,0.673-0.59,1.009
			c0.259,0.129,0.518,0.257,0.778,0.385c0.282,0.141,0.632,0.076,0.799-0.21c0.151-0.258,0.075-0.659-0.209-0.8l-0.778-0.384
			c-0.283-0.14-0.633-0.076-0.8,0.209c-0.174,0.299-0.044,0.611,0.21,0.8c0.514,0.385,1.316,0.278,1.737-0.195
			c0.21-0.235,0.232-0.595,0-0.826C43.342,43.341,42.94,43.318,42.729,43.556"/>
		<path fill="#C9A877" d="M17.074,48.567c0.021,0.049,0.032,0.053,0.01,0c0.017,0.04,0.009,0.081,0.004,0.008
			c-0.004-0.062,0.003-0.046-0.008,0.008c0.008-0.041,0.019-0.08,0.032-0.12c0.024-0.074-0.044,0.067,0.003,0.004
			c0.007-0.009,0.06-0.1,0.025-0.042c-0.034,0.058,0.059-0.028,0,0.001c-0.067,0.034,0.065-0.034,0.065-0.034
			c-0.236-0.307-0.473-0.612-0.709-0.918c-0.225,0.18-0.451,0.36-0.677,0.542c-0.247,0.196-0.206,0.62,0,0.826
			c0.244,0.243,0.579,0.198,0.827,0c0.226-0.181,0.451-0.361,0.677-0.542c0.225-0.18,0.21-0.562,0.046-0.768
			c-0.185-0.232-0.491-0.291-0.754-0.151c-0.655,0.349-0.831,1.133-0.551,1.776c0.126,0.29,0.551,0.356,0.8,0.21
			C17.163,49.192,17.201,48.858,17.074,48.567"/>
		<path fill="#C9A877" d="M37.329,49.065c0.066,0.007,0.065,0.003-0.003-0.014c0.056,0.024,0.054,0.021-0.006-0.012
			c0.09,0.115-0.089-0.1-0.035-0.032c0.022,0.031,0.016,0.021-0.017-0.03c-0.032-0.061-0.034-0.063-0.008-0.008
			c-0.016-0.068-0.019-0.069-0.011-0.003c-0.003-0.037-0.003-0.073,0-0.108c-0.383,0.052-0.766,0.104-1.148,0.155
			c0.039,0.286,0.079,0.572,0.119,0.859c0.044,0.313,0.443,0.484,0.719,0.408c0.337-0.094,0.452-0.405,0.409-0.72
			c-0.04-0.286-0.08-0.572-0.12-0.858c-0.04-0.287-0.386-0.453-0.641-0.419c-0.294,0.039-0.494,0.279-0.507,0.574
			c-0.016,0.349,0.12,0.679,0.348,0.939c0.238,0.272,0.552,0.391,0.901,0.437c0.305,0.04,0.598-0.298,0.585-0.584
			C37.898,49.299,37.655,49.108,37.329,49.065"/>
		<path fill="#C9A877" d="M31.262,48.637c0.004,0.035,0.006,0.068,0.007,0.103c0.004,0.069-0.017,0.042,0.002-0.002
			c-0.021,0.047-0.014,0.061,0.008,0.007c-0.005,0.014-0.075,0.132-0.035,0.074c0.034-0.05-0.03,0.03-0.038,0.039
			c-0.058,0.064,0.067-0.045-0.003,0.006c-0.011,0.008-0.103,0.052-0.045,0.028c0.066-0.026-0.077,0.014-0.078,0.015
			c0.103,0.375,0.207,0.751,0.311,1.127c0.268-0.106,0.537-0.213,0.806-0.319c0.293-0.116,0.498-0.392,0.408-0.72
			c-0.076-0.278-0.424-0.524-0.719-0.407c-0.269,0.105-0.537,0.213-0.806,0.319c-0.294,0.116-0.499,0.392-0.409,0.719
			c0.089,0.324,0.409,0.47,0.72,0.408c0.617-0.121,1.111-0.766,1.04-1.396c-0.034-0.304-0.244-0.601-0.584-0.585
			C31.559,48.064,31.226,48.311,31.262,48.637"/>
		<path fill="#C9A877" d="M29.251,45.977c0.06-0.032,0.059-0.036-0.002-0.011c0.033-0.013,0.066-0.022,0.1-0.029
			c-0.071,0.008-0.071,0.009-0.002,0.005c0.07,0.004,0.069,0.002,0-0.005c0.034,0.006,0.067,0.015,0.1,0.026
			c-0.059-0.027-0.058-0.026,0.002,0.005c0.056,0.037,0.058,0.037,0.006,0c0.046,0.049,0.049,0.048,0.01-0.001
			c0.306-0.236,0.612-0.474,0.918-0.709c-0.21-0.198-0.421-0.396-0.632-0.595c-0.23-0.216-0.598-0.228-0.826,0
			c-0.219,0.22-0.231,0.61,0,0.827c0.21,0.198,0.421,0.396,0.632,0.594c0.211,0.199,0.537,0.229,0.767,0.047
			c0.209-0.166,0.325-0.517,0.151-0.755c-0.417-0.57-1.187-0.795-1.814-0.409c-0.269,0.165-0.372,0.523-0.21,0.8
			C28.608,46.035,28.981,46.143,29.251,45.977"/>
		<path fill="#C9A877" d="M13.032,43.729c-0.014,0.03-0.03,0.06-0.045,0.088c-0.067,0.137,0.035-0.052-0.016,0.018
			c-0.051,0.067,0.052-0.066,0.003,0.001c-0.013,0.018-0.132,0.066-0.015,0.02c-0.031,0.013-0.063,0.021-0.095,0.03
			c-0.068,0.02-0.038-0.006,0.009,0c-0.02-0.002-0.146-0.022-0.07,0c0.081,0.023-0.065-0.028-0.065-0.028
			c-0.104,0.376-0.207,0.752-0.311,1.128c0.285,0.047,0.57,0.096,0.856,0.144c0.3,0.051,0.644-0.079,0.719-0.408
			c0.064-0.283-0.086-0.665-0.409-0.719c-0.285-0.048-0.57-0.097-0.855-0.145c-0.301-0.05-0.644,0.079-0.719,0.408
			c-0.076,0.331,0.1,0.606,0.408,0.72c0.595,0.219,1.349-0.088,1.615-0.666c0.131-0.287,0.081-0.629-0.21-0.8
			C13.58,43.373,13.164,43.441,13.032,43.729"/>
		<path fill="#C9A877" d="M37.409,53.282c0.06-0.032,0.059-0.036-0.001-0.012c0.032-0.011,0.065-0.021,0.099-0.027
			c-0.07,0.008-0.071,0.01-0.001,0.006c0.069,0.004,0.069,0.003-0.001-0.005c0.034,0.007,0.068,0.016,0.101,0.026
			c-0.06-0.026-0.059-0.024,0.001,0.006c0.056,0.036,0.058,0.037,0.006,0c0.045,0.05,0.049,0.05,0.009,0
			c0.306-0.236,0.612-0.473,0.919-0.709c-0.21-0.198-0.42-0.397-0.63-0.597c-0.229-0.217-0.599-0.227-0.827,0
			c-0.219,0.219-0.229,0.609,0,0.827c0.21,0.199,0.42,0.397,0.63,0.597s0.538,0.229,0.767,0.046
			c0.209-0.167,0.324-0.515,0.151-0.755c-0.415-0.573-1.185-0.795-1.813-0.414c-0.27,0.164-0.371,0.525-0.21,0.8
			C36.767,53.342,37.138,53.446,37.409,53.282"/>
		<path fill="#C9A877" d="M21.078,45.965c0.048-0.023,0.054-0.029,0.001-0.006c-0.06,0.027-0.044-0.005,0.01,0.001
			c-0.033-0.004-0.067,0-0.099-0.002c0.083,0.007,0.043,0.008-0.015-0.012c-0.084-0.029,0.082,0.039,0.002,0.001
			c-0.011-0.005-0.098-0.061-0.044-0.021c0.052,0.039-0.025-0.025-0.033-0.036c-0.055-0.071,0.069,0.112-0.009-0.022
			c-0.306,0.236-0.612,0.473-0.919,0.708c0.189,0.22,0.377,0.439,0.566,0.658c0.206,0.24,0.615,0.211,0.827,0
			c0.237-0.238,0.206-0.587,0-0.827c-0.189-0.219-0.377-0.438-0.566-0.658c-0.187-0.218-0.555-0.214-0.767-0.045
			c-0.227,0.181-0.3,0.496-0.151,0.754c0.366,0.634,1.146,0.822,1.787,0.517c0.285-0.136,0.36-0.544,0.21-0.8
			C21.707,45.883,21.364,45.827,21.078,45.965"/>
		<path fill="#C9A877" d="M35.472,40.496c-0.065-0.021-0.067-0.019-0.005,0.004c-0.056-0.036-0.06-0.034-0.01,0.006
			c-0.027-0.022-0.052-0.047-0.075-0.071c0.036,0.052,0.036,0.049-0.002-0.008c-0.031-0.06-0.033-0.06-0.008,0
			c-0.012-0.032-0.021-0.065-0.029-0.1c0.007,0.071,0.009,0.071,0.005,0.002c0.003-0.069,0.003-0.069-0.002,0.002
			c-0.383-0.052-0.766-0.104-1.149-0.156c-0.004,0.289-0.009,0.578-0.014,0.868c-0.005,0.306,0.272,0.599,0.585,0.584
			c0.321-0.014,0.579-0.257,0.584-0.584c0.005-0.29,0.01-0.579,0.015-0.868c0.01-0.645-1.015-0.812-1.149-0.154
			c-0.142,0.7,0.244,1.4,0.943,1.604c0.294,0.085,0.65-0.104,0.719-0.409C35.952,40.903,35.786,40.587,35.472,40.496"/>
		<path fill="#C9A877" d="M39.498,48.912c-0.01-0.032-0.018-0.063-0.025-0.096c0.011,0.052,0.008,0.072,0.01,0.008
			c-0.002,0.052-0.019,0.073-0.001,0.009c0.005-0.016,0.053-0.139,0.02-0.071c-0.031,0.063,0.021-0.029,0.028-0.04
			c0.053-0.067-0.062,0.062,0.001,0.002c0.011-0.01,0.072-0.085,0.034-0.033c-0.035,0.047,0.088-0.034-0.025,0.011
			c-0.151-0.357-0.301-0.713-0.451-1.069c-0.245,0.154-0.49,0.308-0.735,0.461c-0.267,0.168-0.372,0.521-0.21,0.8
			c0.156,0.268,0.532,0.379,0.8,0.21c0.245-0.153,0.49-0.308,0.735-0.461c0.245-0.153,0.358-0.461,0.239-0.729
			c-0.106-0.243-0.414-0.447-0.689-0.339c-0.657,0.258-1.074,0.944-0.859,1.649c0.093,0.303,0.409,0.494,0.72,0.408
			C39.389,49.549,39.59,49.215,39.498,48.912"/>
		<path fill="#C9A877" d="M40.552,46.809c0.026,0.056,0.036,0.039,0.007,0.001c-0.036-0.047,0.009-0.056,0,0.009
			c0.004-0.032-0.001-0.067,0.002-0.099c-0.007,0.085-0.008,0.04,0.014-0.015c0.034-0.082-0.042,0.08,0,0.002
			c0.006-0.011,0.063-0.096,0.023-0.043c-0.041,0.053,0.026-0.024,0.036-0.032c0.073-0.053-0.113,0.069,0.023-0.009
			c-0.236-0.306-0.472-0.611-0.708-0.918l-0.663,0.561c-0.242,0.203-0.21,0.616,0,0.826c0.239,0.239,0.585,0.204,0.827,0l0.663-0.56
			c0.22-0.186,0.213-0.557,0.045-0.768c-0.181-0.228-0.495-0.297-0.754-0.15c-0.638,0.361-0.824,1.143-0.525,1.784
			c0.134,0.286,0.546,0.358,0.8,0.21C40.636,47.437,40.686,47.096,40.552,46.809"/>
		<path fill="#C9A877" d="M22.822,47.647c0.072-0.108-0.119,0.078-0.006,0.01c-0.029,0.019-0.059,0.036-0.091,0.05
			c0.06-0.026,0.057-0.028-0.007-0.007c-0.068,0.014-0.068,0.014,0.001,0.001c-0.034,0.002-0.069,0.001-0.103-0.002
			c0.07,0.009,0.071,0.006,0.004-0.009c0.059,0.028,0.058,0.026-0.002-0.006c-0.15,0.356-0.3,0.713-0.45,1.069
			c0.274,0.091,0.549,0.181,0.823,0.272c0.3,0.099,0.639-0.115,0.72-0.409c0.087-0.318-0.108-0.619-0.409-0.72
			c-0.274-0.09-0.549-0.181-0.823-0.271c-0.631-0.208-1.029,0.751-0.451,1.069c0.635,0.35,1.408,0.141,1.804-0.457
			c0.174-0.264,0.052-0.647-0.21-0.801C23.335,47.271,22.997,47.384,22.822,47.647"/>
		<path fill="#C9A877" d="M24.834,36.341c-0.05,0.021-0.05,0.036,0.001,0.012c-0.038,0.019-0.083,0.008-0.009,0.005
			c0.065-0.002,0.044,0.005-0.007-0.007c0.014,0.003,0.146,0.038,0.072,0.013c-0.064-0.022,0.031,0.018,0.043,0.024
			c0.078,0.032-0.069-0.053,0.001-0.006c0.011,0.008,0.081,0.083,0.038,0.031c-0.044-0.055,0.032,0.062,0.035,0.065
			c0.306-0.236,0.612-0.473,0.918-0.708c-0.179-0.228-0.358-0.454-0.537-0.682c-0.196-0.248-0.622-0.205-0.827,0
			c-0.245,0.245-0.197,0.578,0,0.827c0.179,0.228,0.358,0.454,0.537,0.682c0.178,0.225,0.563,0.209,0.768,0.045
			c0.233-0.186,0.289-0.489,0.15-0.754c-0.159-0.305-0.444-0.526-0.768-0.634c-0.347-0.113-0.676-0.063-1.005,0.076
			c-0.291,0.125-0.355,0.552-0.21,0.8C24.21,36.433,24.542,36.466,24.834,36.341"/>
		<path fill="#C9A877" d="M25.408,40.455c0.029-0.02,0.057-0.038,0.088-0.055c-0.061,0.034-0.039-0.004,0.004,0.003
			c0.047,0.007,0.061-0.005-0.002-0.003c0.016-0.001,0.154,0.009,0.077-0.002c-0.069-0.012,0.037,0.012,0.049,0.016
			c0.083,0.03-0.072-0.043,0.003,0.002c0.012,0.008,0.092,0.068,0.047,0.028c-0.052-0.046,0.05,0.065,0.049,0.064
			c0.275-0.275,0.551-0.551,0.827-0.826c-0.221-0.188-0.442-0.373-0.663-0.561c-0.241-0.203-0.59-0.236-0.827,0
			c-0.209,0.209-0.242,0.623,0,0.827c0.221,0.187,0.442,0.373,0.663,0.56c0.241,0.203,0.59,0.236,0.827,0
			c0.242-0.241,0.2-0.582,0-0.826c-0.404-0.494-1.21-0.598-1.732-0.237c-0.26,0.179-0.378,0.513-0.21,0.8
			C24.758,40.502,25.147,40.635,25.408,40.455"/>
		<path fill="#FFEDD5" d="M32.176,46.469c0.119-0.068,0.238-0.136,0.357-0.203c0.275-0.156,0.368-0.53,0.21-0.8
			c-0.161-0.276-0.524-0.366-0.8-0.209c-0.119,0.066-0.238,0.135-0.357,0.201c-0.275,0.156-0.368,0.53-0.21,0.801
			C31.539,46.534,31.9,46.624,32.176,46.469"/>
		<path fill="#FFEDD5" d="M23.009,50.426c-0.137,0.004-0.274,0.007-0.411,0.011c-0.305,0.008-0.599,0.263-0.584,0.584
			c0.014,0.31,0.257,0.594,0.584,0.585c0.137-0.004,0.274-0.007,0.411-0.011c0.305-0.008,0.599-0.264,0.585-0.584
			C23.58,50.7,23.337,50.416,23.009,50.426"/>
		<path fill="#FFEDD5" d="M21.227,43.946c0.058-0.124,0.115-0.248,0.173-0.373c0.133-0.286,0.081-0.631-0.21-0.801
			c-0.252-0.146-0.666-0.076-0.8,0.21c-0.057,0.124-0.115,0.249-0.173,0.373c-0.133,0.286-0.08,0.63,0.21,0.801
			C20.68,44.304,21.093,44.233,21.227,43.946"/>
		<path fill="#FFEDD5" d="M30.958,42.424c-0.132-0.037-0.264-0.073-0.396-0.109c-0.294-0.082-0.649,0.101-0.719,0.407
			c-0.071,0.311,0.093,0.632,0.408,0.72c0.132,0.037,0.264,0.073,0.396,0.11c0.295,0.082,0.649-0.102,0.719-0.408
			C31.437,42.833,31.272,42.512,30.958,42.424"/>
		<path fill="#FFEDD5" d="M32.277,38.652c0.101,0.093,0.202,0.185,0.303,0.278c0.232,0.213,0.596,0.229,0.826,0
			c0.217-0.218,0.234-0.613,0-0.827c-0.1-0.093-0.201-0.186-0.302-0.278c-0.233-0.213-0.597-0.229-0.827,0
			C32.061,38.042,32.044,38.438,32.277,38.652"/>
		<path fill="#FFEDD5" d="M44.489,42.41c-0.117,0.071-0.235,0.141-0.352,0.212c-0.27,0.162-0.371,0.525-0.21,0.8
			c0.158,0.271,0.528,0.373,0.8,0.209c0.117-0.07,0.235-0.141,0.352-0.211c0.271-0.163,0.371-0.525,0.21-0.8
			C45.131,42.349,44.761,42.247,44.489,42.41"/>
		<path fill="#FFEDD5" d="M29.338,40.504c0.137,0,0.274,0.001,0.411,0.001c0.306,0.001,0.599-0.269,0.584-0.584
			c-0.014-0.317-0.256-0.584-0.584-0.585c-0.137,0-0.274-0.001-0.411-0.001c-0.306-0.001-0.599,0.27-0.585,0.584
			C28.769,40.237,29.011,40.503,29.338,40.504"/>
		<path fill="#FFEDD5" d="M40.784,53.492c-0.083,0.109-0.167,0.217-0.25,0.326c-0.192,0.251-0.039,0.655,0.21,0.8
			c0.301,0.176,0.607,0.042,0.8-0.21c0.083-0.107,0.166-0.217,0.25-0.326c0.192-0.251,0.038-0.653-0.21-0.8
			C41.283,53.106,40.977,53.241,40.784,53.492"/>
		<path fill="#FFEDD5" d="M44.011,49.284l-0.403,0.082c-0.309,0.063-0.488,0.43-0.408,0.719c0.089,0.322,0.409,0.472,0.719,0.408
			c0.134-0.027,0.269-0.055,0.403-0.081c0.309-0.063,0.488-0.43,0.408-0.72C44.642,49.37,44.321,49.221,44.011,49.284"/>
		<path fill="#FFEDD5" d="M28.382,43.223c-0.131,0.038-0.263,0.077-0.394,0.115c-0.304,0.088-0.493,0.41-0.409,0.719
			c0.083,0.302,0.415,0.497,0.719,0.408c0.132-0.038,0.263-0.076,0.395-0.114c0.303-0.089,0.493-0.412,0.408-0.72
			C29.018,43.328,28.686,43.134,28.382,43.223"/>
		<path fill="#FFEDD5" d="M17.75,46.452c0.111,0.08,0.223,0.16,0.334,0.239c0.257,0.186,0.651,0.045,0.8-0.209
			c0.172-0.294,0.047-0.616-0.21-0.8c-0.111-0.08-0.223-0.16-0.334-0.24c-0.257-0.184-0.651-0.044-0.8,0.21
			C17.367,45.946,17.492,46.268,17.75,46.452"/>
		<path fill="#FFEDD5" d="M22.794,38.003l0.208,0.354c0.159,0.273,0.527,0.37,0.8,0.21s0.37-0.526,0.209-0.8l-0.207-0.354
			c-0.16-0.271-0.528-0.369-0.8-0.21C22.731,37.363,22.634,37.73,22.794,38.003"/>
		<path fill="#FFEDD5" d="M45.404,51.251c0.1,0.095,0.199,0.188,0.299,0.282c0.229,0.217,0.599,0.229,0.826,0
			c0.219-0.219,0.231-0.608,0-0.827c-0.099-0.094-0.199-0.188-0.298-0.281c-0.23-0.218-0.599-0.229-0.827,0
			C45.186,50.644,45.174,51.033,45.404,51.251"/>
		<path fill="#FFEDD5" d="M39.695,51.845c0.089-0.104,0.177-0.209,0.266-0.313c0.204-0.24,0.236-0.591,0-0.826
			c-0.21-0.209-0.622-0.242-0.827,0c-0.089,0.104-0.177,0.209-0.266,0.313c-0.204,0.241-0.236,0.591,0,0.827
			C39.078,52.054,39.49,52.087,39.695,51.845"/>
		<path fill="#FFEDD5" d="M34.24,56.95c-0.066-0.12-0.131-0.24-0.197-0.361c-0.151-0.276-0.533-0.364-0.8-0.209
			c-0.279,0.163-0.361,0.521-0.209,0.799l0.196,0.361c0.151,0.277,0.534,0.366,0.8,0.21C34.311,57.586,34.392,57.229,34.24,56.95"/>
		<path fill="#FFEDD5" d="M34.395,43.82c-0.017-0.137-0.034-0.272-0.051-0.408c-0.038-0.302-0.242-0.601-0.585-0.584
			c-0.284,0.012-0.625,0.259-0.585,0.584c0.018,0.136,0.035,0.271,0.052,0.408c0.038,0.302,0.241,0.6,0.584,0.585
			C34.094,44.392,34.436,44.145,34.395,43.82"/>
		<path fill="#FFEDD5" d="M31.799,52.13c0.027-0.134,0.055-0.268,0.082-0.402c0.063-0.299-0.086-0.646-0.408-0.72
			c-0.292-0.065-0.654,0.088-0.719,0.409c-0.028,0.134-0.055,0.268-0.083,0.402c-0.061,0.299,0.087,0.646,0.409,0.719
			C31.372,52.604,31.732,52.45,31.799,52.13"/>
		<path fill="#FFEDD5" d="M25.3,55.82c0.131-0.041,0.261-0.083,0.392-0.124c0.301-0.096,0.494-0.407,0.408-0.72
			c-0.081-0.297-0.417-0.504-0.719-0.408c-0.131,0.042-0.261,0.083-0.392,0.124c-0.301,0.096-0.494,0.406-0.408,0.72
			C24.662,55.708,24.999,55.916,25.3,55.82"/>
		<path fill="#FFEDD5" d="M21.781,53.981c-0.136,0.018-0.271,0.035-0.407,0.054c-0.302,0.041-0.6,0.24-0.585,0.585
			c0.013,0.282,0.26,0.628,0.585,0.585c0.136-0.018,0.271-0.037,0.407-0.055c0.302-0.04,0.6-0.24,0.585-0.584
			C22.353,54.284,22.106,53.938,21.781,53.981"/>
		<path fill="#FFEDD5" d="M17.532,54.655c0.11,0.081,0.221,0.162,0.331,0.243c0.255,0.187,0.652,0.043,0.8-0.21
			c0.174-0.296,0.046-0.612-0.21-0.8c-0.11-0.081-0.22-0.162-0.331-0.243c-0.255-0.188-0.652-0.042-0.8,0.21
			C17.148,54.152,17.276,54.468,17.532,54.655"/>
		<path fill="#FFEDD5" d="M9.563,45.182c0.079,0.112,0.157,0.225,0.236,0.337c0.18,0.259,0.511,0.378,0.799,0.209
			c0.256-0.148,0.392-0.54,0.21-0.8l-0.235-0.336c-0.181-0.259-0.512-0.379-0.8-0.21C9.517,44.532,9.38,44.922,9.563,45.182"/>
		<path fill="#FFEDD5" d="M27.772,51.866c0.119-0.068,0.238-0.137,0.356-0.204c0.274-0.157,0.369-0.529,0.21-0.8
			c-0.161-0.275-0.525-0.368-0.8-0.211c-0.119,0.068-0.237,0.137-0.356,0.204c-0.274,0.157-0.368,0.529-0.21,0.801
			C27.133,51.931,27.497,52.023,27.772,51.866"/>
		<path fill="#FFEDD5" d="M38.953,56.255c0.133,0.031,0.267,0.063,0.4,0.094c0.298,0.068,0.647-0.093,0.719-0.409
			c0.068-0.298-0.089-0.646-0.408-0.719c-0.133-0.031-0.267-0.063-0.4-0.094c-0.297-0.067-0.647,0.093-0.719,0.409
			C38.477,55.834,38.634,56.182,38.953,56.255"/>
		<path fill="#FFEDD5" d="M41.313,41.413c0.131-0.041,0.261-0.083,0.392-0.124c0.301-0.097,0.494-0.407,0.408-0.719
			c-0.081-0.298-0.417-0.506-0.719-0.409c-0.131,0.042-0.261,0.083-0.392,0.124c-0.301,0.096-0.494,0.406-0.408,0.72
			C40.675,41.301,41.011,41.509,41.313,41.413"/>
		<path fill="#FFEDD5" d="M36.379,45.724c0.104,0.089,0.208,0.178,0.312,0.267c0.24,0.205,0.591,0.236,0.827,0
			c0.21-0.21,0.241-0.62,0-0.827c-0.104-0.089-0.208-0.178-0.312-0.267c-0.24-0.205-0.592-0.235-0.827,0
			C36.169,45.106,36.138,45.518,36.379,45.724"/>
		<path fill="#FFEDD5" d="M37.046,56.763c0.034-0.133,0.067-0.265,0.101-0.397c0.075-0.296-0.096-0.648-0.408-0.72
			c-0.304-0.069-0.639,0.092-0.719,0.408c-0.034,0.133-0.068,0.266-0.102,0.398c-0.075,0.296,0.097,0.647,0.409,0.719
			C36.632,57.241,36.966,57.08,37.046,56.763"/>
		<path fill="#FFEDD5" d="M13.9,43.05l0.361,0.195c0.278,0.151,0.637,0.069,0.8-0.21c0.156-0.266,0.069-0.647-0.21-0.8
			c-0.12-0.064-0.24-0.13-0.361-0.195c-0.277-0.15-0.637-0.068-0.8,0.21C13.534,42.517,13.622,42.898,13.9,43.05"/>
		<path fill="#FFEDD5" d="M27.595,42.163c-0.045-0.129-0.089-0.259-0.134-0.388c-0.103-0.299-0.401-0.496-0.719-0.409
			c-0.29,0.08-0.512,0.42-0.408,0.719c0.044,0.131,0.089,0.26,0.133,0.39c0.103,0.298,0.401,0.496,0.72,0.408
			C27.477,42.803,27.698,42.464,27.595,42.163"/>
		<path fill="#FFEDD5" d="M26.727,38.515c0.134-0.026,0.268-0.054,0.403-0.081c0.309-0.063,0.488-0.43,0.408-0.719
			c-0.089-0.323-0.409-0.471-0.719-0.409c-0.134,0.027-0.269,0.055-0.403,0.081c-0.31,0.063-0.488,0.431-0.408,0.72
			C26.096,38.429,26.416,38.578,26.727,38.515"/>
		<path fill="#FFEDD5" d="M24.018,45.378c-0.063-0.12-0.127-0.242-0.19-0.363c-0.147-0.28-0.537-0.364-0.8-0.21
			c-0.284,0.166-0.357,0.519-0.21,0.8c0.063,0.121,0.127,0.243,0.19,0.364c0.147,0.279,0.537,0.363,0.8,0.21
			C24.092,46.013,24.165,45.659,24.018,45.378"/>
		<path fill="#FFEDD5" d="M38.873,41.125c-0.104,0.091-0.207,0.18-0.311,0.27c-0.239,0.206-0.212,0.615,0,0.827
			c0.237,0.236,0.588,0.207,0.827,0c0.104-0.09,0.207-0.181,0.311-0.27c0.239-0.207,0.212-0.614,0-0.827
			C39.463,40.889,39.113,40.919,38.873,41.125"/>
		<path fill="#FFEDD5" d="M23.116,53.244c-0.067,0.12-0.133,0.239-0.2,0.359c-0.154,0.275-0.067,0.638,0.21,0.8
			c0.269,0.157,0.645,0.067,0.8-0.21c0.066-0.12,0.133-0.239,0.2-0.359c0.153-0.275,0.066-0.638-0.21-0.8
			C23.647,52.877,23.27,52.967,23.116,53.244"/>
		<path fill="#FFEDD5" d="M29.907,53.135c-0.008-0.137-0.017-0.272-0.025-0.41c-0.018-0.305-0.256-0.599-0.585-0.585
			c-0.3,0.015-0.604,0.258-0.584,0.585c0.008,0.138,0.016,0.273,0.025,0.41c0.018,0.306,0.255,0.6,0.584,0.585
			C29.624,53.706,29.927,53.462,29.907,53.135"/>
		<path fill="#FFEDD5" d="M37.373,39.068c-0.019,0.136-0.037,0.271-0.056,0.406c-0.042,0.303,0.073,0.644,0.408,0.72
			C38,40.257,38.4,40.11,38.444,39.786c0.019-0.136,0.038-0.271,0.057-0.407c0.041-0.302-0.073-0.643-0.409-0.719
			C37.817,38.597,37.418,38.744,37.373,39.068"/>
	</g>
</g>
</svg>
