<?xml version="1.0" encoding="utf-8"?>
<!-- Generator: Adobe Illustrator 16.0.2, SVG Export Plug-In . SVG Version: 6.00 Build 0)  -->
<!DOCTYPE svg PUBLIC "-//W3C//DTD SVG 1.1//EN" "http://www.w3.org/Graphics/SVG/1.1/DTD/svg11.dtd">
<svg version="1.1" id="Layer_1" xmlns="http://www.w3.org/2000/svg" xmlns:xlink="http://www.w3.org/1999/xlink" x="0px" y="0px"
	 width="111.179px" height="150.28px" viewBox="0 0 111.179 150.28" enable-background="new 0 0 111.179 150.28"
	 xml:space="preserve">
<g>
	<path fill="#F19121" d="M9.526,4.213c-0.248,16.136,2.148,27.868,0.494,43.888c-0.66,6.394-1.961,12.678-2.59,19.076
		c-0.594,6.048-0.99,12.174-0.572,18.242c3.009,43.591,0.078,42.221,0.117,63.331c-1.006-3.339-3.996-5.235-5.58-8.244
		c-2.338-4.441-1.185-10.145-0.498-15.313c0.82-6.193,0.847-12.489,0.871-18.758c0.137-36-0.76-64.239-1.769-100.22
		c2.92-0.254,6.897-3.464,9.802-3.03"/>
	<path fill="#FDEB07" d="M7.937,2.872C41.57,3.983,76.819,1.693,110.384,4.111c0.568,0.041-0.469-0.325,0,0
		c1.121,0.775,0.834,2.473,0.478,3.789c-3.228,11.93-1.582,24.547-1.56,36.906c0.052,29.408-7.435,63.781-5.721,93.139
		c0.045,0.771,0.067,1.634-0.453,2.205c-0.412,0.452-1.056,0.593-1.656,0.71c-13.067,2.552-23.828,1.121-40.991,2.29
		c-5.001,0.34-9.858,1.923-14.863,2.189c-8.577,0.454-15.946,1.706-24.643,3.411c-3.482,0.683-9.988,2.594-13.333,0.746
		c-2.348-1.297-1.331-3.133-1.111-5.835c0.239-2.941,0.436-5.886,0.592-8.833c0.631-12.016-0.383-19.798-1.154-31.805
		c-0.416-6.464-0.092-17.196,0.011-23.671c0.069-4.482,0.485-8.95,0.899-13.412c1.149-12.354,2.299-24.708,3.447-37.062
		c0.411-4.419-0.994-9.14-1.129-13.575C9.017,9.375,9.671,8.239,7.585,2.687"/>
	<path fill="#FFFFFF" d="M110.812,8.061c-0.609,9.548-1.685,19.545-7.086,27.444c-4.293,6.277-10.858,10.544-16.998,15.032
		c-6.141,4.487-12.26,9.692-14.916,16.817c-1.854,4.97-1.838,10.413-1.797,15.717c0.008,1.096,0.063,2.311,0.83,3.093
		c1.451,1.475,3.982,0.196,5.316-1.384c1.335-1.58,2.645-3.623,4.71-3.732c0.126,2.495-0.542,5.024-1.883,7.133
		c2.883,1.519,2.903,5.783,1.416,8.682c-1.912,3.727-5.525,6.389-9.464,7.82c-3.938,1.431-8.197,1.735-12.387,1.651
		c-0.867-0.018-1.759-0.056-2.555-0.402c-0.697-0.303-1.273-0.822-1.837-1.331c-1.347-1.218-2.694-2.437-4.041-3.655
		c-1.278-1.156-2.571-2.33-3.515-3.774c-2.082-3.19-2.187-7.233-2.223-11.041c0.697-1.182,2.566-0.781,3.588,0.136
		c1.021,0.916,1.787,2.218,3.086,2.662c2.045,0.701,4.103-1.081,6.26-1.2c0.578-0.032,1.182,0.054,1.72-0.159
		c0.794-0.314,1.207-1.171,1.546-1.954c1.596-3.683,3.208-7.418,3.799-11.388c0.59-3.971,0.049-8.271-2.338-11.498
		c-1.703-2.304-4.188-3.882-6.613-5.406c-5.664-3.558-11.326-7.117-16.988-10.675c-4.49-2.821-9.04-5.693-12.598-9.623
		c-2.584-2.853-4.592-6.212-7.369-8.876c-3.008-2.884-6.981-5.057-8.629-8.885c-0.908-2.112-0.979-4.476-1.021-6.775
		C8.749,8.205,7.554,6.973,7.585,2.688C7.589,2.177,8.806,3.003,9.22,2.707c0.256-0.183,0.59-0.204,0.903-0.218
		c30.289-1.311,60.612-3.743,90.862-1.705c2.859,0.193,7.551,1.136,9.398,3.327c1.311,1.554,0.125,3.105,0.254,5.133
		c0.338,5.306-0.271,10.671-1.787,15.766"/>
	<path fill="#FEC045" d="M87.493,84.238c2.6-3.899,5.5-8.039,9.921-9.594c0.812-0.285,1.704-0.473,2.528-0.223
		c1.781,0.541,2.373,2.744,2.519,4.601c0.205,2.625,0.063,5.407-1.301,7.66c-1.364,2.252-4.255,3.749-6.71,2.798
		c-1.159-0.448-2.074-1.358-3.161-1.961c-0.838-0.466-1.774-0.747-2.573-1.276c-0.8-0.53-1.473-1.418-1.357-2.369"/>
	<path fill="#FEC045" d="M13.753,91.456c1.76,0.01,2.959-1.732,4.513-2.557c1.964-1.041,4.366-0.546,6.49,0.108
		c1.327,0.408,2.665,0.884,3.759,1.738c1.864,1.455,2.768,3.79,3.589,6.007c0.144,0.387,0.289,0.801,0.199,1.203
		c-0.147,0.659-0.845,1.02-1.478,1.255c-1.926,0.717-3.972,1.108-6.025,1.152c-2.539,0.055-5.145-0.446-7.293-1.801
		c-2.148-1.354-3.785-3.637-4-6.168c-0.053-0.615,0.26-1.472,0.857-1.316"/>
	<path fill="#FEC045" d="M23.537,134.294c1.44-1.644,1.831-3.144,2.404-5.254c0.836-3.082,2.396-6.068,4.919-8.026
		c2.523-1.957,6.115-2.705,9.003-1.34c0.83,0.393,1.606,0.972,2.035,1.785c0.524,0.992,0.46,2.179,0.383,3.299
		c-0.131,1.916-0.312,3.963-1.506,5.466c-0.576,0.723-1.347,1.263-2.113,1.777c-2.215,1.486-4.542,2.874-7.11,3.588
		c-2.57,0.714-5.432,0.696-7.791-0.545C23.454,134.883,23.197,134.357,23.537,134.294"/>
	<path fill="#FEC045" d="M82.509,123.011c0.047-2.458,2.272-4.237,4.289-5.643c1.375-0.96,2.75-1.919,4.125-2.879
		c0.23-0.161,0.485-0.329,0.767-0.314c0.228,0.013,0.428,0.144,0.614,0.273c1.138,0.792,2.242,1.781,2.649,3.106
		c0.298,0.965,0.19,2.01-0.046,2.991c-0.875,3.626-3.596,6.755-7.066,8.125c-0.604,0.238-1.261,0.428-1.896,0.298
		c-0.622-0.128-1.139-0.542-1.631-0.944c-0.779-0.637-1.575-1.294-2.083-2.163c-0.507-0.869-0.675-2.01-0.155-2.873
		c0.484-0.807,1.499-1.286,1.723-2.202"/>
	<path fill="#FEC045" d="M73.675,107.297c-1.506-0.608-3.283,0.046-4.449,1.175s-1.852,2.652-2.51,4.136
		c-0.48,1.086-0.973,2.28-0.668,3.428c0.305,1.157,1.379,1.984,2.525,2.328c1.146,0.345,2.367,0.291,3.564,0.234
		c0.637-0.031,1.308-0.072,1.842-0.421c0.449-0.294,0.742-0.768,1.08-1.187c1.14-1.414,2.99-2.455,3.252-4.252
		c0.187-1.269-0.512-2.482-1.182-3.575c-0.402-0.657-0.828-1.337-1.48-1.749c-0.65-0.412-1.596-0.467-2.131,0.088"/>
	<path fill="#FEC045" d="M83.329,101.115c0.432-1.932,0.863-3.865,1.295-5.797c0.09-0.403,0.191-0.827,0.475-1.126
		c0.295-0.311,0.734-0.431,1.15-0.538c1.887-0.484,3.773-0.968,5.661-1.452c0.192-0.049,0.405-0.095,0.577,0.002
		c0.14,0.078,0.216,0.231,0.281,0.376c1.156,2.561,1.367,5.536,0.584,8.234c-0.285,0.988-0.728,1.976-1.522,2.628
		c-0.696,0.572-1.591,0.829-2.457,1.073c-1.86,0.524-4.253,0.877-5.374-0.697c-0.646-0.909-0.575-2.127-0.477-3.239"/>
	<path fill="#FEC045" d="M29.075,108.209c1.877,1.039,4.234,0.941,6.227,0.142c1.992-0.798,3.67-2.224,5.161-3.768
		c0.619-0.641,1.226-1.325,1.554-2.153c0.328-0.829,0.334-1.836-0.195-2.553c-0.571-0.771-1.596-1.034-2.545-1.176
		c-2.5-0.376-5.127-0.269-7.449,0.731c-2.32,1-4.293,2.98-4.894,5.435c-0.089,0.366-0.136,0.791,0.099,1.084
		c0.168,0.21,0.441,0.3,0.699,0.38c2.098,0.649-0.137,1.521,1.961,2.17"/>
	<path fill="#FEC045" d="M56.222,121.355c-1.031,0.602-2.396,0.324-3.359-0.379c-0.963-0.704-1.602-1.757-2.172-2.805
		c-0.439-0.805-0.863-1.678-0.791-2.592c0.145-1.86,2.195-2.933,4.025-3.29c1.736-0.339,3.574-0.354,5.237,0.25
		c1.663,0.605,3.128,1.888,3.687,3.566c0.336,1.005,0.336,2.085,0.336,3.143c-0.002,0.379-0.012,0.789-0.246,1.087
		c-0.191,0.247-0.5,0.369-0.795,0.471c-2.154,0.745-4.473,1.015-6.74,0.786"/>
	<path fill="#FEC045" d="M49.111,128.847c0.25-2.699,2.731-5.005,5.44-5.055c0.475-0.009,0.979,0.055,1.349,0.353
		c0.306,0.247,0.476,0.621,0.636,0.98c0.273,0.614,0.545,1.227,0.818,1.841c0.201,0.455,0.408,0.942,0.332,1.434
		c-0.12,0.767-0.868,1.256-1.569,1.589c-2.183,1.036-4.627,1.517-7.04,1.387c-0.354-0.019-0.74-0.066-0.984-0.321
		c-0.334-0.347-0.258-0.908-0.117-1.367c0.32-1.032,0.861-1.994,1.578-2.802"/>
	<path fill="#FEC045" d="M46.769,81.085c0.068-0.94,0.135-1.899-0.096-2.813c-0.23-0.913-0.814-1.79-1.696-2.124
		c-1.377-0.522-2.888,0.433-3.817,1.575c-1.051,1.294-1.699,3.238-0.727,4.592c0.881,1.226,2.661,1.375,4.143,1.079
		c0.935-0.186,1.953-0.602,2.293-1.493c0.342-0.89-0.637-2.109-1.459-1.626"/>
	<path fill="#FEC045" d="M32.079,85.806c1.359-0.582,2.578-0.198,3.693,0.773c0.428,0.373,0.674,0.908,0.908,1.425
		c1.093,2.423,2.186,4.846,3.279,7.27c0.093,0.205,0.187,0.442,0.095,0.648c-0.076,0.167-0.254,0.262-0.427,0.325
		c-1.422,0.52-2.953-0.312-4.213-1.151c-1.61-1.072-3.236-2.274-4.111-3.998C30.428,89.374,30.552,86.991,32.079,85.806"/>
</g>
</svg>
