<?xml version="1.0" encoding="utf-8"?>
<!-- Generator: Adobe Illustrator 16.0.2, SVG Export Plug-In . SVG Version: 6.00 Build 0)  -->
<!DOCTYPE svg PUBLIC "-//W3C//DTD SVG 1.1//EN" "http://www.w3.org/Graphics/SVG/1.1/DTD/svg11.dtd">
<svg version="1.1" id="Layer_1" xmlns="http://www.w3.org/2000/svg" xmlns:xlink="http://www.w3.org/1999/xlink" x="0px" y="0px"
	 width="111.18px" height="150.28px" viewBox="0 0 111.18 150.28" enable-background="new 0 0 111.18 150.28" xml:space="preserve">
<g>
	<path fill="#7F3119" d="M9.526,4.213c-0.247,16.136,2.149,27.868,0.494,43.888c-0.659,6.394-1.96,12.678-2.589,19.076
		C6.838,73.225,6.44,79.351,6.859,85.419c3.008,43.591,0.077,42.221,0.116,63.331c-1.005-3.339-3.995-5.235-5.58-8.244
		c-2.338-4.441-1.185-10.145-0.498-15.313c0.821-6.193,0.847-12.489,0.871-18.758c0.138-36-0.76-64.239-1.769-100.22
		c2.92-0.254,6.897-3.464,9.803-3.03"/>
	<path fill="#613528" d="M7.938,2.872C41.57,3.983,76.82,1.693,110.385,4.111c0.568,0.041-0.469-0.325,0,0
		c1.121,0.775,0.833,2.473,0.477,3.789c-3.227,11.93-1.582,24.547-1.56,36.906c0.052,29.408-7.435,63.781-5.72,93.139
		c0.045,0.771,0.066,1.634-0.453,2.205c-0.412,0.452-1.057,0.593-1.656,0.71c-13.068,2.552-23.828,1.121-40.992,2.29
		c-5,0.34-9.857,1.923-14.863,2.189c-8.577,0.454-15.946,1.706-24.643,3.411c-3.48,0.683-9.988,2.594-13.332,0.746
		c-2.348-1.297-1.332-3.133-1.111-5.835c0.238-2.941,0.436-5.886,0.591-8.833c0.631-12.016-0.382-19.798-1.154-31.805
		c-0.416-6.464-0.091-17.196,0.011-23.671c0.07-4.482,0.485-8.95,0.9-13.412c1.148-12.354,2.298-24.708,3.447-37.062
		c0.41-4.419-0.994-9.14-1.129-13.575C9.018,9.375,9.671,8.239,7.586,2.687"/>
	<path fill="#FFFFFF" d="M110.813,8.061c-0.609,9.548-1.686,19.545-7.086,27.444c-4.293,6.277-10.859,10.544-16.999,15.032
		c-6.14,4.487-12.26,9.692-14.916,16.817c-1.853,4.97-1.837,10.413-1.797,15.717c0.008,1.096,0.063,2.311,0.831,3.093
		c1.451,1.475,3.98,0.196,5.316-1.384c1.334-1.58,2.644-3.623,4.709-3.732c0.127,2.495-0.541,5.024-1.883,7.133
		c2.883,1.519,2.903,5.783,1.416,8.682c-1.912,3.727-5.525,6.389-9.463,7.82c-3.938,1.431-8.197,1.735-12.387,1.651
		c-0.868-0.018-1.76-0.056-2.555-0.402c-0.697-0.303-1.274-0.822-1.838-1.331c-1.347-1.218-2.693-2.437-4.041-3.655
		c-1.278-1.156-2.571-2.33-3.515-3.774c-2.081-3.19-2.187-7.233-2.222-11.041c0.697-1.182,2.566-0.781,3.587,0.136
		c1.022,0.916,1.788,2.218,3.086,2.662c2.045,0.701,4.103-1.081,6.261-1.2c0.578-0.032,1.182,0.054,1.719-0.159
		c0.795-0.314,1.207-1.171,1.547-1.954c1.596-3.683,3.207-7.418,3.798-11.388c0.591-3.971,0.05-8.271-2.337-11.498
		c-1.703-2.304-4.188-3.882-6.614-5.406c-5.663-3.558-11.326-7.117-16.988-10.675c-4.489-2.821-9.04-5.693-12.598-9.623
		c-2.583-2.853-4.591-6.212-7.369-8.876c-3.007-2.884-6.981-5.057-8.628-8.885c-0.909-2.112-0.98-4.476-1.021-6.775
		C8.75,8.205,7.555,6.973,7.586,2.688C7.59,2.177,8.806,3.003,9.22,2.707c0.256-0.183,0.59-0.204,0.903-0.218
		c30.289-1.311,60.612-3.743,90.862-1.705c2.86,0.193,7.552,1.136,9.399,3.327c1.31,1.554,0.125,3.105,0.254,5.133
		c0.338,5.306-0.271,10.671-1.788,15.766"/>
	<path fill="#FEC045" d="M87.494,84.238c2.6-3.899,5.5-8.039,9.92-9.594c0.813-0.285,1.705-0.473,2.528-0.223
		c1.782,0.541,2.373,2.744,2.519,4.601c0.205,2.625,0.063,5.407-1.301,7.66c-1.363,2.252-4.254,3.749-6.709,2.798
		c-1.16-0.448-2.074-1.358-3.162-1.961c-0.838-0.466-1.774-0.747-2.573-1.276c-0.8-0.53-1.472-1.418-1.356-2.369"/>
	<path fill="#FEC045" d="M13.754,91.456c1.76,0.01,2.959-1.732,4.512-2.557c1.965-1.041,4.367-0.546,6.49,0.108
		c1.327,0.408,2.666,0.884,3.76,1.738c1.863,1.455,2.768,3.79,3.588,6.007c0.144,0.387,0.289,0.801,0.199,1.203
		c-0.146,0.659-0.845,1.02-1.478,1.255c-1.925,0.717-3.972,1.108-6.024,1.152c-2.539,0.055-5.145-0.446-7.293-1.801
		c-2.149-1.354-3.785-3.637-4-6.168c-0.054-0.615,0.26-1.472,0.856-1.316"/>
	<path fill="#FEC045" d="M23.537,134.294c1.441-1.644,1.832-3.144,2.404-5.254c0.836-3.082,2.396-6.068,4.92-8.026
		c2.522-1.957,6.115-2.705,9.002-1.34c0.83,0.393,1.607,0.972,2.035,1.785c0.524,0.992,0.461,2.179,0.383,3.299
		c-0.131,1.916-0.311,3.963-1.506,5.466c-0.576,0.723-1.346,1.263-2.113,1.777c-2.215,1.486-4.541,2.874-7.11,3.588
		c-2.57,0.714-5.431,0.696-7.791-0.545C23.455,134.883,23.197,134.357,23.537,134.294"/>
	<path fill="#FEC045" d="M82.509,123.011c0.047-2.458,2.272-4.237,4.289-5.643l4.125-2.879c0.231-0.161,0.485-0.329,0.767-0.314
		c0.228,0.013,0.428,0.144,0.614,0.273c1.138,0.792,2.242,1.781,2.649,3.106c0.298,0.965,0.191,2.01-0.045,2.991
		c-0.875,3.626-3.596,6.755-7.066,8.125c-0.604,0.238-1.261,0.428-1.896,0.298c-0.623-0.128-1.14-0.542-1.631-0.944
		c-0.779-0.637-1.576-1.294-2.084-2.163c-0.507-0.869-0.674-2.01-0.154-2.873c0.484-0.807,1.498-1.286,1.722-2.202"/>
	<path fill="#FEC045" d="M73.675,107.297c-1.505-0.608-3.283,0.046-4.449,1.175s-1.851,2.652-2.509,4.136
		c-0.481,1.086-0.973,2.28-0.67,3.428c0.306,1.157,1.381,1.984,2.527,2.328c1.146,0.345,2.367,0.291,3.563,0.234
		c0.638-0.031,1.309-0.072,1.843-0.421c0.45-0.294,0.742-0.768,1.08-1.187c1.14-1.414,2.99-2.455,3.253-4.252
		c0.186-1.269-0.512-2.482-1.182-3.575c-0.403-0.657-0.829-1.337-1.48-1.749c-0.65-0.412-1.597-0.467-2.132,0.088"/>
	<path fill="#FEC045" d="M83.33,101.115c0.432-1.932,0.863-3.865,1.295-5.797c0.09-0.403,0.19-0.827,0.475-1.126
		c0.295-0.311,0.734-0.431,1.15-0.538c1.887-0.484,3.773-0.968,5.66-1.452c0.192-0.049,0.406-0.095,0.578,0.002
		c0.139,0.078,0.215,0.231,0.281,0.376c1.156,2.561,1.367,5.536,0.584,8.234c-0.286,0.988-0.729,1.976-1.523,2.628
		c-0.695,0.572-1.59,0.829-2.457,1.073c-1.859,0.524-4.252,0.877-5.373-0.697c-0.647-0.909-0.576-2.127-0.477-3.239"/>
	<path fill="#FEC045" d="M29.075,108.209c1.878,1.039,4.235,0.941,6.228,0.142c1.992-0.798,3.67-2.224,5.16-3.768
		c0.619-0.641,1.226-1.325,1.555-2.153c0.328-0.829,0.334-1.836-0.196-2.553c-0.571-0.771-1.595-1.034-2.545-1.176
		c-2.499-0.376-5.127-0.269-7.448,0.731c-2.32,1-4.294,2.98-4.895,5.435c-0.088,0.366-0.135,0.791,0.1,1.084
		c0.168,0.21,0.441,0.3,0.698,0.38c2.099,0.649-0.136,1.521,1.962,2.17"/>
	<path fill="#FEC045" d="M56.222,121.355c-1.03,0.602-2.396,0.324-3.359-0.379c-0.963-0.704-1.603-1.757-2.172-2.805
		c-0.438-0.805-0.862-1.678-0.791-2.592c0.146-1.86,2.195-2.933,4.026-3.29c1.736-0.339,3.574-0.354,5.236,0.25
		c1.664,0.605,3.129,1.888,3.688,3.566c0.335,1.005,0.336,2.085,0.335,3.143c-0.001,0.379-0.013,0.789-0.245,1.087
		c-0.191,0.247-0.5,0.369-0.795,0.471c-2.155,0.745-4.473,1.015-6.741,0.786"/>
	<path fill="#FEC045" d="M49.111,128.847c0.25-2.699,2.732-5.005,5.441-5.055c0.475-0.009,0.979,0.055,1.348,0.353
		c0.307,0.247,0.477,0.621,0.637,0.98l0.818,1.841c0.201,0.455,0.408,0.942,0.332,1.434c-0.121,0.767-0.869,1.256-1.57,1.589
		c-2.183,1.036-4.627,1.517-7.039,1.387c-0.354-0.019-0.74-0.066-0.985-0.321c-0.333-0.347-0.257-0.908-0.116-1.367
		c0.319-1.032,0.861-1.994,1.578-2.802"/>
	<path fill="#FEC045" d="M46.77,81.085c0.068-0.94,0.135-1.899-0.096-2.813c-0.231-0.913-0.815-1.79-1.697-2.124
		c-1.377-0.522-2.887,0.433-3.816,1.575c-1.052,1.294-1.7,3.238-0.727,4.592c0.881,1.226,2.66,1.375,4.142,1.079
		c0.935-0.186,1.953-0.602,2.294-1.493c0.342-0.89-0.639-2.109-1.46-1.626"/>
	<path fill="#FEC045" d="M32.08,85.806c1.359-0.582,2.578-0.198,3.693,0.773c0.428,0.373,0.674,0.908,0.908,1.425
		c1.092,2.423,2.186,4.846,3.279,7.27c0.092,0.205,0.186,0.442,0.094,0.648c-0.076,0.167-0.254,0.262-0.426,0.325
		c-1.422,0.52-2.953-0.312-4.214-1.151c-1.61-1.072-3.235-2.274-4.11-3.998C30.428,89.374,30.553,86.991,32.08,85.806"/>
	<path fill="#7F3119" d="M16.654,116.438c6.016-2.252,12.031-4.504,18.049-6.757c0.689-0.257,1.514-0.501,2.114-0.077
		c0.515,0.365,0.634,1.064,0.741,1.686c0.553,3.158,1.961,6.164,4.033,8.61c0.435,0.513,0.92,1.235,0.537,1.786
		c-0.17,0.243-0.464,0.36-0.74,0.465c-2.232,0.842-4.465,1.685-6.697,2.528c-5.04,1.903-10.081,3.806-15.122,5.708
		c-0.382,0.145-0.833,0.284-1.179,0.066c-0.312-0.196-0.404-0.599-0.471-0.96c-0.463-2.545-0.926-5.091-1.39-7.636
		c-0.177-0.975-0.354-1.987-0.106-2.947C16.674,117.951,15.663,116.456,16.654,116.438"/>
</g>
</svg>
