<?xml version="1.0" encoding="utf-8"?>
<!-- Generator: Adobe Illustrator 16.0.2, SVG Export Plug-In . SVG Version: 6.00 Build 0)  -->
<!DOCTYPE svg PUBLIC "-//W3C//DTD SVG 1.1//EN" "http://www.w3.org/Graphics/SVG/1.1/DTD/svg11.dtd">
<svg version="1.1" id="Layer_1" xmlns="http://www.w3.org/2000/svg" xmlns:xlink="http://www.w3.org/1999/xlink" x="0px" y="0px"
	 width="34.268px" height="118.715px" viewBox="0 0 34.268 118.715" enable-background="new 0 0 34.268 118.715"
	 xml:space="preserve">
<g>
	<path fill="#2D1414" d="M22.024,15.57c1.115,2.525,2.663,4.832,3.975,7.26c5.443,10.073,6.654,21.823,7.568,33.236
		c0.422,5.268,0.803,10.555,0.545,15.833c-0.357,7.292-1.912,14.544-1.468,21.868c0.21,3.471,1.5,6.755,1.528,10.209
		c0.032,3.818-1.031,7.546-2.072,11.184c-0.178,0.622-0.361,1.256-0.724,1.792c-0.782,1.154-2.41,1.646-3.699,1.116
		c-0.511-1.345-0.37-2.833-0.38-4.27c-0.011-1.438-0.243-3.002-1.285-3.994c-1.296,2.271-2.669,4.498-4.117,6.674
		c-0.346,0.518-0.704,1.042-1.197,1.423c-1.027,0.793-2.432,0.82-3.729,0.813c-0.906-0.004-1.901-0.042-2.572-0.649
		c-0.479-0.431-0.699-1.07-0.9-1.681c-0.789-2.384-1.591-4.813-3.051-6.857c-0.766-1.071-2.011-2.111-3.267-1.712
		c-0.866,0.276-1.393,1.155-1.68,2.018c-0.604,1.808-0.484,3.847,0.33,5.57c0.165,0.351,0.364,0.717,0.322,1.103
		c-0.06,0.573-0.657,0.973-1.231,1c-1.472,0.073-2.366-1.558-2.862-2.944c-1.079-3.021-2.003-6.148-2.054-9.355
		c-0.084-5.303,2.341-11.07,2.006-16.362c-0.398-6.274-1.56-12.469-1.532-18.769c0.033-7.399,0.446-14.759,0.164-22.171
		c-0.122-3.193-0.307-6.411,0.187-9.568c0.336-2.146,0.981-4.23,1.64-6.3c0.977-3.065,1.996-6.139,3.536-8.962
		c1.299-2.383,2.951-4.557,4.263-6.933c1.313-2.375,2.29-5.048,2.06-7.751c-0.053-0.617-0.117-1.359,0.377-1.73
		c0.287-0.215,0.673-0.225,1.031-0.225l4.436-0.001c2.456-0.001,2.464,0.949,2.434,2.989C20.57,11.544,21.173,13.644,22.024,15.57"
		/>
	<path fill="#EC2527" d="M32.705,47.779c-0.329,0.895-0.167,0.931-1.055,0.994c-10.449,0.752-20.978,1.469-31.073-1.545
		c-0.687,3.134-0.114,5.222-0.164,7.932c-0.058,3.272-0.082,5.852-0.123,9.65c-0.008,0.813,0.042,1.502,0.129,2.619
		c0.066,0.867,0.857,0.472,2.646,0.555c9.701,0.45,19.408,0.742,29.117,0.6c0.175-0.002,1.918,0.291,2.086,0.233
		c0,0-0.128-1.691-0.086-2.575c0.292-6.13-1.091-15.758-1.388-18.484"/>
	<path fill="#EC2527" d="M11.317,6.509c0.032-1.359,0.063-2.72,0.093-4.08c0.016-0.673,0.083-1.449,0.634-1.836
		c0.333-0.232,0.763-0.259,1.168-0.278c2.213-0.103,4.427-0.206,6.64-0.309c0.246-0.011,0.506-0.02,0.726,0.092
		c0.438,0.223,0.526,0.797,0.562,1.287c0.12,1.641,0.239,3.281,0.357,4.922c0.007,0.096,0.013,0.196-0.026,0.284
		c-0.076,0.166-0.281,0.221-0.461,0.254c-3.247,0.592-6.614,0.519-9.833-0.213"/>
</g>
</svg>
