<?xml version="1.0" encoding="utf-8"?>
<!-- Generator: Adobe Illustrator 16.0.2, SVG Export Plug-In . SVG Version: 6.00 Build 0)  -->
<!DOCTYPE svg PUBLIC "-//W3C//DTD SVG 1.1//EN" "http://www.w3.org/Graphics/SVG/1.1/DTD/svg11.dtd">
<svg version="1.1" id="Layer_1" xmlns="http://www.w3.org/2000/svg" xmlns:xlink="http://www.w3.org/1999/xlink" x="0px" y="0px"
	 width="43.264px" height="40.789px" viewBox="0 0 43.264 40.789" enable-background="new 0 0 43.264 40.789" xml:space="preserve">
<g>
	<path fill="#FFFFFF" d="M40.592,5.639c-0.636,9.684-1.892,21.629-2.186,30.428c-0.056,1.631-1.011,0.146-1.367,1.33
		c-0.218,0.725-0.081,0.607-0.218,1.33c-0.227,1.191-1.052,1.459-2.148,1.549c-11.352,0.93-16.661,0.551-24.936-0.752
		c-0.619-0.098-1.333-0.268-1.609-0.887c-0.233-0.523-0.049-1.146-0.095-1.727s-0.988-0.26-1.037-0.84
		C6.159,26.15,3.764,15.111,3.099,5.639C3.077,5.326,5.914,4.793,5.722,5.748C5.663,6.043,4.942,6.662,5.225,6.652
		c7.421-0.246,14.799,1.342,22.223,1.441c4.298,0.057,8.756-1.686,13.036-2.127"/>
	<path fill="#2AAAE2" d="M9.876,25.205c-0.54-2.576,0.769-5.469,2.727-7.229c1.021-0.918,2.271-1.541,3.542-2.057
		c4.53-1.834,9.562-2.414,14.392-1.662c0.897,0.141,1.808,0.332,2.586,0.803c2.174,1.311,2.619,4.404,1.791,6.805
		s-2.6,4.33-4.11,6.371c-0.718,0.969-1.392,1.982-2.282,2.797c-1.53,1.398-3.574,2.086-5.594,2.561
		c-3.128,0.736-6.619,0.994-9.373-0.66C10.699,31.217,10.095,27.502,9.876,25.205"/>
	<path fill="#2AAAE2" d="M40.268,5.959c0.521-0.109,1.303-0.424,2.323-0.736c0.312,0.029,1.16,2.777,0.296,2.727
		C29.237,10.525,16.607,10.818,3.042,7.83C2.666,7.746,1.116,7.715,0.435,6.914c-0.646-0.762-0.576-1.99,0.24-2.561
		c0.816-0.572,1.959-0.457,2.844,0.002"/>
	<path fill="#FFFFFF" d="M42.591,5.223c0-1.041-0.567-1.416-1.19-2.691c-3.706,1.6-8.063,1.699-12.099,1.719
		C22.89,4.281,16.478,4.313,10.065,4.344C7.554,4.355,4.874,4.32,2.781,2.93C2.234,3.266,1.688,3.602,1.141,3.936
		C0.209,5.25,5.21,6.02,7.522,6.203C17.189,6.98,22.389,7.16,32.086,7.111C34.077,7.102,40.438,6.639,42.591,5.223"/>
	<path fill="#2AAAE2" d="M41.4,2.531C23.27-2.086,9.778,0.58,2.781,2.932C1.853,3.607,4.94,4.393,5.903,4.457
		C16.971,5.211,27.85,5.406,38.792,3.584c0.933-0.156,2.572-0.053,2.637-0.996"/>
	<path fill="#2AAAE2" d="M9.876,25.205c-0.54-2.576,0.769-5.469,2.727-7.229c1.021-0.918,2.271-1.541,3.542-2.057
		c4.53-1.834,9.562-2.414,14.392-1.662c0.897,0.141,1.808,0.332,2.586,0.803c2.174,1.311,2.619,4.404,1.791,6.805
		s-2.6,4.33-4.11,6.371c-0.718,0.969-1.392,1.982-2.282,2.797c-1.53,1.398-3.574,2.086-5.594,2.561
		c-3.128,0.736-6.619,0.994-9.373-0.66C10.699,31.217,10.095,27.502,9.876,25.205"/>
	<path fill="#FFFFFF" d="M23.689,23.299c0.216-0.049,0.197-0.053,0.411,0.064c-0.101-0.785-0.202-1.57-0.304-2.355
		c-0.049,0.063-0.104,0.121-0.165,0.174c0.147-0.111,0.149-0.123,0.007-0.035c0.175-0.072,0.181-0.084,0.02-0.033
		c0.199-0.018,0.213-0.021,0.039-0.012c-0.175-0.01-0.162-0.004,0.038,0.016c-0.162-0.049-0.156-0.037,0.019,0.035
		c-0.144-0.086-0.142-0.072,0.004,0.039c-0.061-0.053-0.117-0.109-0.167-0.174c-0.532-0.609-1.576-0.545-2.121,0
		c-0.605,0.607-0.534,1.51,0,2.121c1.109,1.275,3.348,1.279,4.449-0.01c0.604-0.709,0.599-1.861-0.304-2.357
		c-0.856-0.469-1.774-0.588-2.723-0.365c-0.79,0.186-1.257,1.086-1.048,1.846C22.066,23.059,22.898,23.484,23.689,23.299"/>
	<path fill="#FFFFFF" d="M18.396,20.939c-1.182-0.379-2.444,0.668-2.336,1.893c0.095,1.094,0.968,1.791,2.003,1.961
		c0.943,0.158,1.921-0.039,2.576-0.781c0.819-0.928,0.715-2.125-0.013-3.053c-0.5-0.639-1.597-0.523-2.122,0
		c-0.63,0.629-0.501,1.48,0,2.121c-0.361-0.463-0.37-1.08,0.243-1.223c-0.048,0-0.096,0-0.143,0c0.159,0.033,0.15,0.029-0.026-0.008
		c-0.044-0.014-0.088-0.027-0.131-0.039c0.153,0.063,0.289,0.15,0.407,0.266c0.067,0.252,0.136,0.504,0.205,0.756
		c-0.255,0.324-0.511,0.646-0.766,0.969h-0.798c0.034,0.01,0.068,0.021,0.102,0.031c0.747,0.24,1.671-0.279,1.846-1.047
		C19.631,21.963,19.196,21.197,18.396,20.939"/>
	<path fill="#FFFFFF" d="M21.725,27.133c0.889,0.934,2.215,1.477,3.509,1.346c0.604-0.061,1.13-0.326,1.369-0.922
		c0.229-0.568,0.115-1.188-0.31-1.639c-0.707-0.752-1.666-0.959-2.651-0.775c-0.797,0.148-1.25,1.111-1.048,1.844
		c0.23,0.838,1.046,1.197,1.845,1.049c-0.099,0.018-0.165-0.006-0.259-0.018c-0.057-0.006-0.244-0.23-0.008,0.021
		c0.353-0.854,0.707-1.707,1.062-2.561c-0.199,0.02-0.402,0.035-0.603,0.01c0.273,0.033-0.203-0.068-0.262-0.09
		c-0.099-0.035-0.096-0.031,0.011,0.008c-0.091-0.045-0.178-0.094-0.263-0.146c-0.148-0.1-0.167-0.111-0.058-0.037
		c-0.074-0.066-0.146-0.137-0.214-0.211c-0.558-0.588-1.559-0.564-2.121,0C21.138,25.598,21.165,26.543,21.725,27.133"/>
	<path fill="#FFFFFF" d="M19.387,24.361c-1.761,0.422-2.882,2.438-1.795,4.043c0.567,0.836,1.596,1.232,2.568,0.916
		c0.901-0.295,1.673-1.23,1.558-2.215c-0.091-0.775-0.625-1.539-1.5-1.5c-0.735,0.033-1.599,0.666-1.5,1.5
		c0.038,0.324,0.088-0.238,0.118-0.303c0.14-0.307,0.358-0.336,0.629-0.336c0.226,0,0.463,0.072,0.605,0.266
		c0.062,0.082,0.087,0.328,0.055,0.072c0.029,0.23,0.009,0.314-0.102,0.51c0.032-0.031,0.064-0.063,0.097-0.094
		c-0.106,0.084-0.114,0.098-0.024,0.045c0.228-0.033-0.312,0.084,0.088-0.012c0.789-0.188,1.258-1.082,1.048-1.844
		C21.011,24.605,20.177,24.172,19.387,24.361"/>
	<path fill="#FFFFFF" d="M27.032,25.074l1.12,0.043c-0.431-0.752-0.862-1.504-1.295-2.258c-0.116,0.225-0.035,0.166,0.243-0.176
		c0.178-0.1,0.372-0.121,0.583-0.068c-0.766-0.16-1.657,0.223-1.845,1.047c-0.171,0.752,0.226,1.674,1.048,1.846
		c0.986,0.205,2.121-0.146,2.562-1.135c0.464-1.037-0.076-2.209-1.296-2.256l-1.12-0.043c-0.784-0.031-1.534,0.711-1.5,1.5
		C25.57,24.412,26.191,25.041,27.032,25.074"/>
</g>
</svg>
