<?xml version="1.0" encoding="utf-8"?>
<!-- Generator: Adobe Illustrator 16.0.2, SVG Export Plug-In . SVG Version: 6.00 Build 0)  -->
<!DOCTYPE svg PUBLIC "-//W3C//DTD SVG 1.1//EN" "http://www.w3.org/Graphics/SVG/1.1/DTD/svg11.dtd">
<svg version="1.1" id="Layer_1" xmlns="http://www.w3.org/2000/svg" xmlns:xlink="http://www.w3.org/1999/xlink" x="0px" y="0px"
	 width="52.412px" height="119.659px" viewBox="0 0 52.412 119.659" enable-background="new 0 0 52.412 119.659"
	 xml:space="preserve">
<g>
	<path fill="#B72027" d="M49.039,106.212c-1.118,3.23-2.237,6.462-3.355,9.693c-0.479,1.383-1.094,2.918-2.444,3.485
		c-0.653,0.274-1.384,0.272-2.092,0.267c-12.242-0.099-24.484-0.199-36.726-0.299c-0.427-0.003-0.893-0.021-1.215-0.301
		c-0.332-0.289-0.408-0.766-0.464-1.201c-0.473-3.718-0.946-7.436-1.419-11.154c-0.696-5.471-1.393-10.963-1.318-16.478
		c0.103-7.608,1.672-15.11,2.978-22.606c0.734-4.215,1.388-8.511,0.848-12.754c-0.867-6.808-4.768-13.506-3.021-20.143
		c1.277-4.85,5.168-9.975,8.988-13.223c1.687-1.435,3.692-2.123,5.802-2.795c1.56-0.498,3.927-0.16,5.565-0.17
		c5.22-0.033,9.612,0.52,14.823,0.821c0.651,0.038,1.319,0.082,1.912,0.354c0.909,0.416,0.737-0.486,1.534,0.119
		c5.07,3.847,6.624,6.061,9.135,8.686c3.256,3.402,4.222,8.484,3.716,13.167c-0.506,4.683-2.299,9.112-3.926,13.53
		c-0.73,1.984-1.436,4.003-1.631,6.107c-0.411,4.434,1.46,8.713,2.796,12.963C53.038,85.456,52.776,95.109,49.039,106.212"/>
	<path fill="#EC2227" d="M36.348,55.042c3.447,2.234,7.143,4.773,9.455,8.252c1.987,2.989,1.921,7.107,3.336,10.475
		c0.269,0.641,0.559,1.283,0.649,1.971c0.077,0.587,0.006,1.181-0.066,1.768c-0.159,1.303-0.333,2.65-1.019,3.77
		c-0.806,1.313-2.201,2.127-3.54,2.89c-2.292,1.304-4.626,2.624-7.198,3.205c-6.391,1.442-11.904-2.532-16.387-6.604
		c-4.404-4-7.018-9.986-6.751-15.951c0.096-2.154,0.567-4.354,1.794-6.127c1.719-2.483,4.643-3.789,7.418-4.978
		c1.635-0.699,3.32-1.41,5.097-1.446C31.752,52.213,34.152,53.619,36.348,55.042"/>
	<path fill="#EC2227" d="M39.435,19.829c1.188-2.875,2.361-6.229,0.878-8.963c-0.633-1.168-1.751-2.275-1.513-3.58
		c0.191-1.048,1.222-1.785,1.426-2.828c0.18-0.924-0.357-1.871-1.112-2.432c-0.754-0.561-1.692-0.806-2.611-1.005
		c-5.76-1.243-11.718-1.075-17.608-0.901c-0.769,0.021-1.561,0.049-2.262,0.365c-1.61,0.723-2.234,2.727-2.152,4.49
		c0.082,1.762,0.677,3.475,0.717,5.238c0.078,3.449-2.173,5.871-1.318,9.213c2.212-1.725,7.504-0.506,10.309-0.469
		c5.909,0.08,9.754,0.287,15.564,1.364"/>
	<path fill="#EC2227" d="M3.954,52.501c9.732,7.574,20.889,0.807,27.435-3.66c1.942-1.326,3.72-2.887,5.721-4.121
		c1.036-0.64,2.135-1.194,3.057-1.988c2.309-1.987,3.195-5.268,2.904-8.301c-0.291-3.031-1.609-5.868-3.101-8.524
		c-1.065-1.896-2.28-3.789-4.071-5.021c-2.446-1.684-5.581-1.89-8.546-2.041c-6.592-0.336-13.916-0.436-18.889,3.905
		c-1.439,1.257-2.583,2.82-3.541,4.474C0.527,34.816,0.152,44.593,3.954,52.501"/>
	<path fill="#046937" d="M37.254,69.028l7.006,11.123c0.617,0.979,1.237,2.262,0.581,3.217c-4.556-2.619-6.163-9.406-11.277-10.617
		c-0.372,4.334-1.86,8.566-4.281,12.181c-0.922-4.342-0.525-8.955,1.127-13.075c0.229-0.57,0.473-1.248,0.136-1.762
		c-0.237-0.361-0.688-0.507-1.104-0.624c-3.761-1.054-7.627-1.729-11.521-2.015l11.827-0.961c0.476-0.039,0.974-0.084,1.376-0.344
		c0.61-0.394,0.835-1.164,1.005-1.869c0.517-2.148,0.943-4.319,1.276-6.504c0.835,2.383-1.764,5.515,0.042,7.279
		c0.4,0.393,1.03,0.805,0.838,1.33c4.936-0.959,10.343,1.27,13.171,5.425c-2.62-3.481-7.529-5.045-11.68-3.718"/>
	<path fill="#046937" d="M16.297,42.489c2.363,1.221,4.296,3.254,5.394,5.678c0.549,1.21,1.113,2.707,2.419,2.953
		c-0.124-4.346-2.161-8.603-5.469-11.426c2.76,0.166,5.592-0.024,8.159-1.052c2.567-1.026,4.852-2.972,5.843-5.554
		c-5.148,1.365-10.137,3.333-14.831,5.849c0.493-4.334-0.3-8.806-2.255-12.704c-0.487,4.028-0.633,8.098-0.436,12.152
		c-1.876-0.255-3.206-2.137-5.077-2.432c-0.94-0.148-1.896,0.129-2.781,0.481c-2.219,0.884-4.238,2.269-5.864,4.019
		c3.591-1.258,7.502-2.524,11.12-1.346c-5.706,2.955-8.745,10.254-6.823,16.387c3.721-4.828,7.358-9.721,10.909-14.674"/>
</g>
</svg>
