<?xml version="1.0" encoding="utf-8"?>
<!-- Generator: Adobe Illustrator 16.0.2, SVG Export Plug-In . SVG Version: 6.00 Build 0)  -->
<!DOCTYPE svg PUBLIC "-//W3C//DTD SVG 1.1//EN" "http://www.w3.org/Graphics/SVG/1.1/DTD/svg11.dtd">
<svg version="1.1" id="Layer_1" xmlns="http://www.w3.org/2000/svg" xmlns:xlink="http://www.w3.org/1999/xlink" x="0px" y="0px"
	 width="51.013px" height="86.48px" viewBox="0 0 51.013 86.48" enable-background="new 0 0 51.013 86.48" xml:space="preserve">
<g>
	<path fill="#FFF6DA" d="M1.88,8.024c0.706-1.473,2.941-2.198,4.519-2.619c1.577-0.422,3.235-0.382,4.867-0.338
		c9.708,0.256,19.417,0.512,29.125,0.769c2.815,0.074,6.19,0.49,7.411,3.028c0.417,0.864,0.495,1.849,0.566,2.807
		c1.449,19.354,2.9,38.739,2.606,58.146c-0.058,3.81-0.185,7.642-0.951,11.376c-0.251,1.227-0.608,2.504-1.502,3.381
		c-0.712,0.696-1.653,1.237-2.647,1.318c-8.158,0.661-14.541-0.478-21.865-1.096c-6.746-0.569-13.664,0.386-20.221-1.295
		c-0.543-0.139-1.1-0.306-1.515-0.68c-0.663-0.598-0.812-1.568-0.896-2.457c-0.292-3.096-0.309-6.209-0.325-9.318
		C0.97,55.743,0.887,40.439,0.805,25.135C0.773,19.41,0.747,13.636,1.88,8.024"/>
	<path fill="#C9A877" d="M19.489,25.2c-0.67-1.466-3.463-0.535-4.162-1.986c0.944-0.708,1.429-1.854,2.086-2.835
		c0.656-0.981,1.72-1.897,2.883-1.693c0.859,0.15,1.52,0.902,1.791,1.73c0.271,0.829,0.221,1.728,0.117,2.595
		c-0.082,0.693-0.224,1.438-0.732,1.917c-0.508,0.479-1.5,0.474-1.782-0.165"/>
	<path fill="#C9A877" d="M7.353,21.141c1.513-0.555,0.799-3.411,2.301-3.997c0.634,0.996,1.74,1.567,2.666,2.299
		c0.929,0.729,1.759,1.86,1.467,3.005c-0.217,0.845-1.018,1.444-1.864,1.651c-0.848,0.207-1.739,0.088-2.595-0.083
		c-0.686-0.136-1.417-0.334-1.855-0.878s-0.357-1.531,0.301-1.764"/>
	<path fill="#C9A877" d="M4.128,27.231c0.343,1.575,3.271,1.259,3.645,2.827c-1.074,0.49-1.79,1.508-2.641,2.327
		c-0.851,0.818-2.084,1.486-3.178,1.041c-0.808-0.33-1.293-1.205-1.382-2.073s0.152-1.734,0.437-2.56
		c0.229-0.66,0.525-1.356,1.123-1.717c0.6-0.359,1.568-0.145,1.707,0.539"/>
	<path fill="#C9A877" d="M8.201,56.486c-0.656,1.473,1.89,2.952,1.263,4.437c-1.156-0.24-2.336,0.155-3.506,0.311
		c-1.171,0.156-2.561-0.036-3.177-1.043c-0.456-0.744-0.328-1.735,0.114-2.487c0.441-0.752,1.149-1.309,1.867-1.804
		c0.575-0.396,1.227-0.784,1.922-0.719c0.696,0.065,1.349,0.812,1.056,1.446"/>
	<path fill="#C9A877" d="M19.241,52.677c-1.527,0.514-0.892,3.39-2.408,3.934c-0.607-1.013-1.696-1.612-2.604-2.367
		c-0.908-0.755-1.709-1.908-1.386-3.044c0.239-0.84,1.056-1.417,1.908-1.603c0.853-0.184,1.741-0.039,2.592,0.153
		c0.683,0.154,1.407,0.372,1.831,0.927c0.423,0.556,0.316,1.542-0.35,1.756"/>
	<path fill="#C9A877" d="M3.812,66.581c1.521,0.532,2.785-2.128,4.316-1.626c-0.144,1.172,0.348,2.315,0.601,3.468
		c0.253,1.153,0.176,2.555-0.776,3.253c-0.703,0.516-1.703,0.471-2.488,0.093c-0.787-0.378-1.399-1.038-1.952-1.712
		c-0.443-0.54-0.882-1.157-0.876-1.856c0.007-0.699,0.697-1.411,1.354-1.171"/>
	<path fill="#C9A877" d="M32.22,24.06c-0.821,1.387,1.537,3.151,0.742,4.554c-1.121-0.373-2.338-0.117-3.519-0.098
		c-1.181,0.021-2.539-0.332-3.035-1.402c-0.366-0.792-0.125-1.764,0.401-2.459c0.525-0.696,1.293-1.166,2.064-1.575
		c0.616-0.328,1.309-0.636,1.991-0.492c0.685,0.146,1.246,0.962,0.882,1.56"/>
	<path fill="#C9A877" d="M12.425,31.609c-1.371-0.849-3.181,1.476-4.566,0.653c0.395-1.113,0.161-2.335,0.164-3.517
		c0.003-1.18,0.381-2.531,1.462-3.007c0.799-0.351,1.765-0.091,2.45,0.449c0.686,0.539,1.141,1.315,1.535,2.093
		c0.315,0.624,0.611,1.321,0.453,2.002s-0.985,1.227-1.574,0.852"/>
	<path fill="#C9A877" d="M6.788,44.28c1.242-1.026-0.381-3.483,0.84-4.535c0.93,0.729,2.162,0.9,3.279,1.28
		c1.118,0.381,2.277,1.171,2.383,2.347c0.076,0.869-0.479,1.701-1.209,2.179c-0.73,0.477-1.611,0.66-2.476,0.785
		c-0.69,0.1-1.446,0.155-2.041-0.211c-0.594-0.367-0.847-1.326-0.302-1.765"/>
	<path fill="#C9A877" d="M29.023,37.525c-1.553-0.429-2.637,2.309-4.198,1.911c0.065-1.18-0.502-2.287-0.83-3.42
		c-0.33-1.135-0.348-2.537,0.557-3.297c0.668-0.563,1.668-0.584,2.479-0.26c0.81,0.325,1.463,0.942,2.062,1.578
		c0.478,0.509,0.957,1.095,0.997,1.793c0.039,0.698-0.602,1.454-1.272,1.259"/>
	<path fill="#C9A877" d="M27.757,57.3c-0.282,1.588,2.546,2.409,2.295,4.001c-1.18,0.047-2.229,0.714-3.328,1.147
		c-1.098,0.434-2.492,0.582-3.334-0.246c-0.622-0.612-0.736-1.605-0.488-2.443c0.246-0.836,0.799-1.546,1.377-2.199
		c0.463-0.524,1.002-1.057,1.692-1.161c0.69-0.105,1.504,0.462,1.373,1.148"/>
	<path fill="#C9A877" d="M7.009,38.757c-1.385,0.822-0.164,3.501-1.534,4.351c-0.804-0.865-1.995-1.225-3.04-1.774
		c-1.045-0.549-2.068-1.51-1.989-2.688c0.058-0.87,0.736-1.606,1.532-1.965c0.796-0.357,1.693-0.401,2.566-0.391
		c0.698,0.008,1.453,0.07,1.983,0.525s0.631,1.441,0.024,1.79"/>
	<path fill="#C9A877" d="M30.671,83.109c-0.457-1.545-3.354-1.017-3.843-2.552c1.035-0.569,1.675-1.636,2.463-2.515
		s1.97-1.636,3.093-1.271c0.83,0.27,1.377,1.106,1.53,1.967c0.152,0.859-0.024,1.741-0.249,2.584
		c-0.179,0.675-0.423,1.392-0.994,1.795c-0.57,0.403-1.552,0.259-1.742-0.414"/>
	<path fill="#C9A877" d="M16.084,35.102c-0.681,1.461,1.839,2.982,1.187,4.457c-1.151-0.259-2.338,0.115-3.51,0.251
		c-1.174,0.137-2.56-0.079-3.158-1.096c-0.443-0.752-0.299-1.742,0.156-2.487c0.455-0.744,1.172-1.287,1.897-1.771
		c0.582-0.387,1.239-0.762,1.935-0.686c0.694,0.077,1.334,0.835,1.03,1.464"/>
	<path fill="#AD832D" d="M18.729,41.641c0.359,0.957,0.718,1.913,1.077,2.87c0.323,0.861,0.719,1.803,1.553,2.189
		c0.588,0.274,1.279,0.205,1.907,0.041c0.184-0.048,0.37-0.106,0.515-0.229c0.445-0.374,0.28-1.084,0.431-1.646
		c0.156-0.573,0.652-0.993,0.879-1.543c0.402-0.977-0.199-2.159-1.127-2.662c-0.928-0.505-2.07-0.447-3.082-0.148
		C19.868,40.814,19.704,41.235,18.729,41.641"/>
	<path fill="#AD832D" d="M29.733,47.743l2.805,1.236c0.842,0.371,1.793,0.746,2.652,0.421c0.607-0.229,1.041-0.771,1.362-1.335
		c0.094-0.165,0.182-0.339,0.196-0.527c0.043-0.58-0.578-0.959-0.875-1.459c-0.302-0.513-0.254-1.16-0.49-1.706
		c-0.416-0.971-1.682-1.368-2.69-1.058c-1.009,0.312-1.767,1.167-2.261,2.102C29.938,46.349,30.124,46.761,29.733,47.743"/>
	<path fill="#AD832D" d="M17.481,63.105c-0.727-0.718-1.455-1.436-2.182-2.152c-0.655-0.646-1.41-1.335-2.33-1.336
		c-0.648-0.001-1.247,0.351-1.747,0.764c-0.147,0.121-0.291,0.252-0.372,0.424c-0.247,0.526,0.201,1.103,0.299,1.674
		c0.102,0.587-0.173,1.176-0.148,1.77c0.045,1.055,1.088,1.876,2.142,1.944c1.054,0.067,2.065-0.465,2.858-1.161
		C16.794,64.333,16.768,63.882,17.481,63.105"/>
	<path fill="#AD832D" d="M37.346,56.46c-0.597-0.829-1.194-1.658-1.791-2.488c-0.537-0.746-1.166-1.552-2.072-1.707
		c-0.64-0.109-1.288,0.138-1.851,0.46c-0.164,0.095-0.329,0.2-0.438,0.355c-0.332,0.478,0.014,1.12,0.014,1.702
		c0.002,0.594-0.367,1.129-0.442,1.718c-0.132,1.048,0.757,2.032,1.784,2.276c1.027,0.242,2.115-0.111,3.014-0.665
		C36.462,57.556,36.511,57.108,37.346,56.46"/>
	<path fill="#AD832D" d="M36.779,41.314c0.269-0.985,0.537-1.972,0.806-2.957c0.24-0.888,0.472-1.884,0.021-2.686
		c-0.318-0.566-0.918-0.914-1.523-1.148c-0.177-0.067-0.362-0.13-0.552-0.115c-0.579,0.044-0.862,0.716-1.313,1.083
		c-0.46,0.375-1.109,0.425-1.614,0.737c-0.896,0.558-1.102,1.868-0.645,2.819c0.459,0.952,1.418,1.573,2.416,1.922
		C35.372,41.318,35.751,41.074,36.779,41.314"/>
	<path fill="#AD832D" d="M19.753,79.831l3.021-0.518c0.906-0.155,1.906-0.367,2.443-1.113c0.379-0.527,0.442-1.218,0.398-1.865
		c-0.014-0.189-0.035-0.384-0.128-0.549c-0.283-0.508-1.013-0.48-1.535-0.734c-0.534-0.259-0.853-0.825-1.351-1.151
		c-0.883-0.578-2.157-0.211-2.826,0.605c-0.67,0.816-0.829,1.949-0.725,3C19.155,78.556,19.538,78.796,19.753,79.831"/>
	<path fill="#AD832D" d="M27.095,55.242c0.189-1.004,0.38-2.008,0.57-3.012c0.17-0.903,0.322-1.914-0.19-2.679
		c-0.36-0.54-0.987-0.84-1.608-1.024c-0.182-0.055-0.371-0.102-0.56-0.072c-0.574,0.089-0.802,0.781-1.224,1.182
		c-0.43,0.41-1.071,0.512-1.551,0.863c-0.85,0.626-0.951,1.949-0.42,2.861c0.531,0.913,1.537,1.457,2.559,1.727
		C25.691,55.357,26.051,55.083,27.095,55.242"/>
	<path fill="#AD832D" d="M0.735,17.974c0.219,0.998,0.438,1.996,0.656,2.994c0.197,0.897,0.454,1.888,1.225,2.39
		c0.543,0.354,1.236,0.386,1.881,0.312c0.188-0.021,0.381-0.052,0.543-0.151c0.494-0.308,0.433-1.033,0.662-1.567
		c0.234-0.546,0.787-0.89,1.088-1.402c0.537-0.908,0.113-2.164-0.733-2.797c-0.847-0.631-1.985-0.737-3.03-0.586
		C1.981,17.318,1.759,17.71,0.735,17.974"/>
	<path fill="#AD832D" d="M7.65,46.713c-0.743,0.7-1.487,1.4-2.231,2.1c-0.67,0.631-1.387,1.36-1.422,2.278
		c-0.025,0.649,0.304,1.26,0.697,1.775c0.115,0.15,0.242,0.301,0.41,0.387c0.518,0.267,1.107-0.159,1.686-0.236
		c0.588-0.079,1.166,0.217,1.761,0.214c1.056-0.006,1.916-1.016,2.022-2.066c0.107-1.05-0.386-2.082-1.053-2.9
		C8.853,47.446,8.401,47.457,7.65,46.713"/>
	<path fill="#AD832D" d="M28.141,71.808c0.977,0.3,1.952,0.6,2.93,0.9c0.879,0.271,1.867,0.532,2.683,0.109
		c0.576-0.299,0.944-0.888,1.197-1.485c0.074-0.175,0.141-0.357,0.135-0.548c-0.025-0.581-0.688-0.884-1.039-1.347
		c-0.36-0.472-0.39-1.122-0.687-1.637c-0.526-0.915-1.83-1.162-2.796-0.735c-0.967,0.426-1.619,1.366-2,2.35
		C28.182,70.401,28.415,70.788,28.141,71.808"/>
	<path fill="#AD832D" d="M17.19,30.301c0.656,0.783,1.312,1.566,1.968,2.35c0.591,0.705,1.276,1.463,2.192,1.551
		c0.646,0.063,1.274-0.231,1.813-0.595c0.157-0.106,0.314-0.224,0.41-0.387c0.295-0.501-0.096-1.115-0.139-1.695
		c-0.045-0.593,0.283-1.153,0.314-1.746c0.055-1.056-0.904-1.972-1.947-2.14c-1.041-0.167-2.101,0.267-2.955,0.886
		C17.99,29.143,17.976,29.594,17.19,30.301"/>
	<path fill="#AD832D" d="M18.729,65.894c0.77,0.672,1.538,1.344,2.309,2.016c0.693,0.604,1.488,1.246,2.406,1.192
		c0.647-0.039,1.224-0.427,1.697-0.87c0.139-0.129,0.276-0.269,0.346-0.444c0.215-0.54-0.268-1.089-0.4-1.653
		c-0.137-0.579,0.102-1.184,0.04-1.775c-0.109-1.05-1.198-1.807-2.254-1.81c-1.056-0.004-2.035,0.588-2.784,1.333
		C19.34,64.626,19.396,65.074,18.729,65.894"/>
	<path fill="#AD832D" d="M12.005,79.909c-0.414-0.934-0.829-1.868-1.243-2.801c-0.373-0.841-0.824-1.759-1.679-2.097
		c-0.604-0.238-1.289-0.129-1.906,0.072c-0.18,0.059-0.363,0.128-0.501,0.259C6.254,75.741,6.46,76.44,6.342,77.01
		c-0.121,0.581-0.593,1.028-0.786,1.591c-0.344,0.998,0.325,2.144,1.281,2.593c0.955,0.448,2.093,0.324,3.086-0.034
		C10.915,80.801,11.056,80.372,12.005,79.909"/>
	<path fill="#AD832D" d="M14.364,69.722c-0.529,0.873-1.061,1.746-1.591,2.619c-0.478,0.786-0.976,1.68-0.765,2.575
		c0.149,0.632,0.629,1.133,1.146,1.524c0.151,0.114,0.313,0.226,0.498,0.264c0.568,0.118,1.025-0.449,1.561-0.678
		c0.547-0.232,1.184-0.101,1.756-0.263c1.016-0.287,1.576-1.49,1.398-2.531c-0.177-1.041-0.928-1.903-1.789-2.515
		S15.285,70.238,14.364,69.722"/>
	<path fill="#AD832D" d="M39.274,65.19c-0.223-0.997-0.445-1.994-0.669-2.991c-0.201-0.897-0.462-1.886-1.233-2.385
		c-0.545-0.353-1.24-0.38-1.884-0.305c-0.188,0.022-0.382,0.055-0.542,0.155c-0.492,0.31-0.428,1.035-0.656,1.57
		c-0.231,0.547-0.781,0.893-1.082,1.405c-0.533,0.912-0.103,2.166,0.746,2.795c0.851,0.628,1.989,0.729,3.033,0.572
		S38.253,65.457,39.274,65.19"/>
	<path fill="#ED2024" d="M49.917,11.67c-0.029-0.958-1.376,0.865-1.549,0c-0.506-2.537-2.984-5.913-1.757-5.835
		c3.542,0.226-7.084-0.452-10.626-0.678c-0.182,7.424-0.694,14.82-0.605,22.256c0.104,8.633,1.018,17.16,0.916,25.794
		c-0.072,6.084-0.647,12.075-0.801,18.151c-0.109,4.388-0.051,10.135-0.125,14.519c1.466,0.058,1.941-0.083,3.4,0.214
		c3.033,0.618,6.732,0.461,10.113-0.2c0.412-0.081,0.801-0.622,1.096-1.318c0.371-0.877,0.52-2.154,0.623-3.381
		c0.318-3.734,0.371-7.566,0.395-11.377C51.119,50.41,50.519,31.025,49.917,11.67"/>
	<path fill="#0F123D" d="M0.062,21.659C0,16.177,0,13.491,0.81,7.734C1.144,5.365,1.36,2.542,3.188,1.087
		c1.138-0.906,2.681-0.967,4.113-0.988c10.729-0.153,21.461-0.129,32.19,0.076c3.771,0.072,8.192,0.539,10.134,3.899
		c0.883,1.528,1.047,3.378,1.153,5.158c0.28,4.708-0.181,9.432-0.406,14.143c-16.353-0.045-32.214-0.089-48.565-0.135
		c-0.875-0.002-2.115-0.548-1.738-1.368"/>
</g>
</svg>
