<?xml version="1.0" encoding="utf-8"?>
<!-- Generator: Adobe Illustrator 16.0.2, SVG Export Plug-In . SVG Version: 6.00 Build 0)  -->
<!DOCTYPE svg PUBLIC "-//W3C//DTD SVG 1.1//EN" "http://www.w3.org/Graphics/SVG/1.1/DTD/svg11.dtd">
<svg version="1.1" id="Layer_1" xmlns="http://www.w3.org/2000/svg" xmlns:xlink="http://www.w3.org/1999/xlink" x="0px" y="0px"
	 width="59.334px" height="28.66px" viewBox="0 0 59.334 28.66" enable-background="new 0 0 59.334 28.66" xml:space="preserve">
<g>
	<path fill="#44A84F" d="M51.868,15.085c-3.84-1.892-7.682-3.785-11.521-5.677C33.516,6.042,26.617,2.65,19.218,0.848
		c-4.188-1.021-8.893-1.443-12.561,0.821C5.848,2.168,5.11,2.788,4.251,3.194C3.752,3.429,3.214,3.592,2.758,3.903
		c-0.819,0.559-1.259,1.513-1.661,2.42c-0.52,1.173-1.05,2.399-0.992,3.681c0.101,2.196,1.861,3.917,3.559,5.315
		c5.115,4.215,10.881,7.797,17.278,9.533c2.482,0.675,5.033,1.063,7.577,1.451c5.435,0.829,10.879,1.659,16.365,1.983
		c1.024,0.061,2.067,0.102,3.059-0.161c0.99-0.263,1.938-0.876,2.363-1.809c0.885-1.94-0.725-4.424,0.34-6.271
		c0.279-0.485,0.719-0.863,0.993-1.353c0.589-1.049,0.306-2.352,0.007-3.518"/>
	<g>
		<path fill="#44A84F" d="M51.893,15.043C40.52,9.439,27.388,0.702,14.37,0.014C7.726-0.339-5.081,6.371,2.145,13.993
			c9.123,9.622,22.028,11.937,34.537,13.538c3.248,0.416,10.422,2.517,13.085-0.364c1.02-1.104,0.595-2.033,0.781-3.376
			c0.484-3.489,1.852-5.398,1.145-8.628c-0.014-0.061-0.107-0.035-0.094,0.026c0.113,0.516-0.821,4.458-1.361,6.032
			c-1.023,2.979-1.532,6.472-5.354,7.017c-4.379,0.625-10.268-1.062-14.54-1.705c-9.938-1.495-19.005-4.413-26.646-11.248
			C-0.53,11.503-0.737,7.033,4.275,3.236c1.432-1.085,3.699-2.31,5.315-2.748c5.314-1.44,11.337,0.655,16.314,2.474
			c8.946,3.271,17.409,7.962,25.938,12.165C51.899,15.154,51.948,15.071,51.893,15.043"/>
		<path fill="#9BC53D" d="M51.031,15.208c2.757-0.063,5.524,0.896,7.651,2.651c0.225,0.185,0.448,0.389,0.55,0.659
			c0.145,0.383,0.015,0.808-0.115,1.195c-0.1,0.296-0.198,0.591-0.298,0.887c-0.056,0.169-0.115,0.342-0.231,0.477
			c-0.286,0.334-0.821,0.318-1.221,0.135c-0.399-0.186-0.725-0.5-1.109-0.712c-0.64-0.352-1.396-0.396-2.119-0.483
			c-0.967-0.117-1.924-0.326-2.852-0.623c-0.226-0.072-0.459-0.156-0.614-0.333c-0.156-0.177-0.197-0.477-0.026-0.64
			c0.073-0.068,0.173-0.104,0.246-0.171c0.168-0.153,0.158-0.428,0.063-0.634c-0.096-0.207-0.258-0.375-0.371-0.571
			c-0.398-0.695-0.009-1.71,0.751-1.961"/>
		<path fill="#9BC53D" d="M51.031,15.266c2.129,0.004,4.182,0.488,6.035,1.551c0.442,0.254,1.358,0.729,1.575,1.084
			c0.242,0.395,0.63,1.784,0.271,2.241c-0.632,0.267-1.265,0.533-1.896,0.8c-0.176-0.133-0.357-0.257-0.545-0.373
			c-0.234-0.092-0.451-0.251-0.698-0.336c-1.452-0.499-4.62,0.062-4.852-1.933c-0.079-0.688,0.454-3.172,0.443-3.166
			c0.065-0.035,0.007-0.136-0.06-0.102c-0.615,0.328-1.057,0.908-0.913,1.651c0.175,0.9,0.254,0.336,0.22,1.692
			c-0.002,0.087-0.163,0.266-0.134,0.358c0.251,0.782,1.213,0.86,1.919,1.029c0.754,0.18,1.521,0.24,2.279,0.382
			c0.694,0.129,1.305,0.299,1.922,0.643c0.262,0.145,0.454,0.372,0.746,0.477c1.651,0.588,2.46-2.014,1.704-3.143
			c-0.621-0.931-2.194-1.61-3.169-2.028c-1.546-0.662-3.176-0.941-4.849-0.944C50.956,15.149,50.956,15.266,51.031,15.266"/>
		<path fill="#9BC53D" d="M57.171,24.318c-0.145,0.653-0.288,1.308-0.432,1.961c-0.065,0.295-0.152,0.623-0.411,0.777
			c-0.178,0.106-0.396,0.105-0.603,0.102c-1.859-0.032-3.717-0.065-5.576-0.099c-0.211-0.003-0.429-0.008-0.621-0.096
			c-0.191-0.087-0.353-0.278-0.336-0.488c0.028-0.35,0.474-0.496,0.646-0.802c0.184-0.331,0.005-0.736-0.126-1.091
			c-0.13-0.356-0.163-0.846,0.171-1.026c0.119-0.063,0.26-0.069,0.395-0.071c2.241-0.022,4.441,0.88,6.673,0.664"/>
		<path fill="#9BC53D" d="M57.114,24.303c-0.193,0.882-0.202,1.782-0.909,2.38c-0.739,0.624-1.695,0.396-2.647,0.38
			c-0.855-0.015-1.946,0.131-2.789-0.049c-0.53-0.114-1.15-0.217-1.127-1.032c0.003-0.107,0.248-0.175,0.249-0.285
			c0,0.015,0.035-0.543,0.045-0.576c0.24-0.807-1.822-0.8,0.901-1.564c0.441-0.124,1.226,0.128,1.654,0.196
			c1.498,0.235,2.933,0.543,4.459,0.456c0.073-0.005,0.074-0.12,0-0.116c-1.7,0.097-3.312-0.317-4.982-0.538
			c-0.454-0.061-1.702-0.392-2.127-0.037c-0.411,0.343-0.196,0.626-0.186,1.081c0.228,0.421,0.195,0.854-0.097,1.301
			c-0.106,0.069-0.199,0.153-0.274,0.253c-0.023,0.117-0.151,0.215-0.147,0.34c0.012,0.426,0.368,0.517,0.695,0.61
			c1.177,0.338,2.817,0.061,4.034,0.082c0.682,0.012,1.88,0.304,2.502-0.086c0.709-0.443,0.703-2.061,0.858-2.765
			C57.243,24.261,57.131,24.229,57.114,24.303"/>
		<path fill="#FFEDD5" d="M50.682,19.42c-0.525,0.341-0.799,0.983-0.819,1.608c-0.02,0.625,0.184,1.237,0.442,1.807
			c0.112,0.247,0.241,0.496,0.443,0.676c0.309,0.271,0.739,0.346,1.146,0.409c1.593,0.248,3.186,0.496,4.78,0.744
			c0.331,0.053,0.698,0.096,0.976-0.094c0.197-0.135,0.306-0.362,0.407-0.579c0.308-0.667,0.612-1.469,0.235-2.099
			c-0.227-0.377-0.646-0.587-1.045-0.772c-1.8-0.833-3.651-1.554-5.542-2.155c-0.22-0.07-0.446-0.14-0.677-0.118
			c-0.229,0.021-0.464,0.156-0.532,0.377"/>
		<path fill="#FFEDD5" d="M1.462,6.146C3.528,6.74,5.646,7.141,7.75,7.585c11.397,2.402,22.476,6.1,33.523,9.788
			c2.04,0.681,4.081,1.362,6.078,2.16c0.592,0.237,1.292,0.669,1.193,1.3c-1.512,0.045-2.911-0.707-4.309-1.283
			c-4.512-1.857-9.585-1.979-14.114-3.791c-1.637-0.655-3.18-1.523-4.793-2.233c-7.51-3.308-16.187-3.08-23.755-6.255
			C1.219,7.122,0.801,6.854,0.861,6.473c0.052-0.319,0.521-0.47,0.748-0.241"/>
		<path fill="#FFEDD5" d="M1.054,9.493c3.207,3.779,8.11,5.621,12.877,6.986c2.835,0.811,5.699,1.509,8.564,2.206
			c8.932,2.173,17.861,4.346,26.792,6.519c-0.169,0.482-0.803,0.572-1.313,0.568c-2.169-0.016-4.338-0.23-6.469-0.642
			c-1.695-0.328-3.364-0.777-5.032-1.228c-6.656-1.797-13.313-3.594-19.97-5.391c-4.092-1.104-8.26-2.243-11.807-4.562
			c-1.258-0.822-2.423-1.785-3.467-2.864c-0.216-0.222-0.438-0.473-0.469-0.78c-0.033-0.309,0.23-0.658,0.532-0.59"/>
		<path fill="#FFEDD5" d="M4.868,4.777c2.056-0.169,4.058-0.146,6.101,0.138c11.68,1.62,23.092,5.157,33.639,10.43
			c1.553,0.776,3.113,1.599,4.815,1.945c-1.936-2.269-4.667-3.689-7.399-4.881c-4.325-1.889-8.824-3.342-13.313-4.79
			c-3.47-1.12-6.949-2.243-10.528-2.939c-2.775-0.539-5.593-0.818-8.406-1.096C8.421,3.45,7.056,3.314,5.698,3.43
			C5.304,3.463,4.871,3.537,4.617,3.842C4.363,4.146,4.475,4.736,4.868,4.777"/>
	</g>
</g>
</svg>
