<?xml version="1.0" encoding="utf-8"?>
<!-- Generator: Adobe Illustrator 16.0.2, SVG Export Plug-In . SVG Version: 6.00 Build 0)  -->
<!DOCTYPE svg PUBLIC "-//W3C//DTD SVG 1.1//EN" "http://www.w3.org/Graphics/SVG/1.1/DTD/svg11.dtd">
<svg version="1.1" id="Layer_1" xmlns="http://www.w3.org/2000/svg" xmlns:xlink="http://www.w3.org/1999/xlink" x="0px" y="0px"
	 width="30.816px" height="26.235px" viewBox="0 0 30.816 26.235" enable-background="new 0 0 30.816 26.235" xml:space="preserve">
<g>
	<path fill="#956E2A" d="M30.628,8.958c-0.789,5.015-3.522,9.697-7.499,12.851c-3.977,3.153-9.159,4.747-14.221,4.373
		c-3.423-0.253-7.166-1.739-8.407-4.939c-0.342-0.881-0.467-1.834-0.495-2.779c-0.091-3.016,0.799-6.053,2.502-8.543
		c3.427-5.012,9.547-7.31,15.29-9.279c0.907-0.312,1.833-0.625,2.792-0.64c1.043-0.016,2.062,0.325,3.003,0.773
		c3.631,1.729,6.359,4.79,7.223,8.718"/>
	<path fill="#5F3B2E" d="M25.952,4.873c0.84,0.329,1.516,1.052,1.788,1.91c0.272,0.86,0.136,1.839-0.362,2.592
		c-0.14,0.211-0.31,0.409-0.528,0.538c-0.201,0.12-0.433,0.177-0.665,0.208c-1.036,0.14-2.128-0.231-2.864-0.974
		s-1.099-1.837-0.951-2.872c0.076-0.534,0.306-1.079,0.758-1.373c0.715-0.466,1.65-0.151,2.501-0.097"/>
</g>
</svg>
