<?xml version="1.0" encoding="utf-8"?>
<!-- Generator: Adobe Illustrator 16.0.2, SVG Export Plug-In . SVG Version: 6.00 Build 0)  -->
<!DOCTYPE svg PUBLIC "-//W3C//DTD SVG 1.1//EN" "http://www.w3.org/Graphics/SVG/1.1/DTD/svg11.dtd">
<svg version="1.1" id="Layer_1" xmlns="http://www.w3.org/2000/svg" xmlns:xlink="http://www.w3.org/1999/xlink" x="0px" y="0px"
	 width="39.277px" height="29.766px" viewBox="0 0 39.277 29.766" enable-background="new 0 0 39.277 29.766" xml:space="preserve">
<path fill="#F05423" d="M25.278,0.267c-1.885-0.197-3.797-0.395-5.73-0.162c-1.628,0.197-3.222,0.694-4.787,1.224
	C11.776,2.337,8.8,3.494,6.205,5.189c-2.594,1.697-4.802,3.993-5.702,6.617c-0.959,2.797-0.37,5.658,0.305,8.369
	c0.317,1.277,0.655,2.557,1.255,3.733c1.647,3.226,5.345,5.478,9.541,5.809c2.313,0.184,4.699-0.181,7.046-0.587
	c2.243-0.387,4.482-0.814,6.711-1.302c1.517-0.333,3.037-0.696,4.482-1.268c5.668-2.239,9.494-7.723,9.433-12.86
	c-0.02-1.685-0.406-3.315-0.866-4.912c-0.386-1.339-0.83-2.673-1.577-3.866c-2.164-3.457-6.982-5.396-11.765-4.734"/>
<path fill="#44612D" d="M15.087,4.097c0.814-0.522,0.914-0.193,1.8-0.582c0.513-0.225,1.068-0.432,1.621-0.345
	c0.553,0.087,1.082,0.571,1.019,1.129c-0.49,0.739-1.396,1.12-2.281,1.189c-0.885,0.07-1.767-0.128-2.633-0.325
	c-0.09-0.021-0.186-0.044-0.25-0.11c-0.177-0.181,0.017-0.484,0.238-0.605c0.221-0.12,0.502-0.205,0.59-0.44"/>
</svg>
