<?xml version="1.0" encoding="utf-8"?>
<!-- Generator: Adobe Illustrator 16.0.2, SVG Export Plug-In . SVG Version: 6.00 Build 0)  -->
<!DOCTYPE svg PUBLIC "-//W3C//DTD SVG 1.1//EN" "http://www.w3.org/Graphics/SVG/1.1/DTD/svg11.dtd">
<svg version="1.1" id="Layer_1" xmlns="http://www.w3.org/2000/svg" xmlns:xlink="http://www.w3.org/1999/xlink" x="0px" y="0px"
	 width="45.205px" height="70.155px" viewBox="0 0 45.205 70.155" enable-background="new 0 0 45.205 70.155" xml:space="preserve">
<g>
	<path fill="#EEA820" d="M1.952,5.624C1.145,3.749,3.296,1.941,5.194,1.189c1.898-0.754,4.022-0.488,6.059-0.337
		c10.411,0.776,21.079-1.694,31.22,0.785c0.547,0.135,1.186,0.377,1.297,0.93c0.065,0.322-0.081,0.646-0.195,0.953
		c-0.798,2.164-0.104,4.55,0.28,6.823c1.101,6.483-0.388,13.117-0.176,19.69c0.105,3.303,0.642,6.576,0.998,9.861
		c0.928,8.564,0.632,17.26-0.875,25.74c-0.093,0.522-0.201,1.068-0.539,1.478c-0.332,0.401-0.837,0.612-1.328,0.788
		c-4.491,1.599-9.393,1.426-14.156,1.232c-7.679-0.311-15.356-0.622-23.035-0.933c-0.354-0.016-0.726-0.034-1.026-0.222
		c-0.282-0.178-0.46-0.478-0.617-0.771c-2.981-5.597-1.876-12.364-2.105-18.702c-0.138-3.833-0.794-7.653-0.58-11.482
		c0.182-3.267,0.991-6.462,1.479-9.696C2.974,20.158,2.464,12.856,1.952,5.624"/>
	<path fill="#416FB6" d="M39.537,20.447c-8.043-3.402-16.851-6.867-25.275-4.565c-2.821,0.771-5.478,2.173-8.376,2.567
		C5.505,18.501,5.1,18.532,4.75,18.373c-0.526-0.238-1.713-1.105-1.924-1.643c-0.995-2.541,0.082-5.31-1.776-7.308
		C-1.613,6.557,1.232,2.189,4.653,1.06C5.82,0.675,7.829,0.618,9.052,0.502c3.775-0.357,9.901-0.749,14.223-0.302
		c8.39,0.868,13.859-0.657,20.83,1.711c-1.103,5.095-0.005,8.885,0.474,14.075c0.069,0.757,0.37,2.854,0.002,3.519
		c-0.964,1.743-5.346,0.858-7.179,0.078"/>
	<path fill="#FFFFFF" d="M14.562,58.08c-1.65-0.733-3.548-0.631-5.293-1.099c-1.746-0.467-3.526-1.94-3.245-3.725
		c0.284-1.804,2.409-2.674,3.288-4.273c0.532-0.968,0.568-2.138,1.035-3.138c1.119-2.395,4.171-3.021,6.792-3.352
		c1.073-0.135,2.365-0.183,3.007,0.688c0.593,0.803,0.287,1.961,0.654,2.889c0.661,1.674,3.259,2.127,3.542,3.904
		c0.365,2.294-3.337,3.067-4.119,5.254c-0.277,0.771-0.141,1.631,0.095,2.416c0.593,1.97,1.469,0.821,3.091,2.084
		c0.655-1.22,0,0,0.818-1.117c0.479-0.654,1.372-0.799,2.128-1.095c1.695-0.663,2.929-2.371,3.024-4.189
		c-0.476-0.195-1.853-2.438-2.326-2.634c-1.378-6.1-0.475-6.221,0.76-10.485c0.588-2.027-0.049-4.237-0.474-6.307
		c-0.224-1.09-0.562-2.177-0.519-3.29c0.071-1.839,1.279-3.588,2.976-4.305s3.792-0.367,5.161,0.863
		c0.854-1.581,3.415-1.471,4.584-0.104c1.169,1.365,1.18,3.403,0.662,5.125c-0.519,1.721-1.482,3.274-2.106,4.96
		c-1.126,3.043-1.099,6.378-0.973,9.621c0.042,1.07,0.102,2.175,0.58,3.132c0.594,1.187,1.76,2.003,2.381,3.175
		c1.08,2.04,0.177,4.69-1.523,6.251c-1.7,1.563-4.006,2.261-6.255,2.78c-3.142,0.726-6.405,1.195-9.588,0.679
		c-3.184-0.515-6.303-2.126-8.055-4.833"/>
	<path fill="#416FB6" d="M1.038,58.615c4.338-0.04,9.807,1.85,14.055,2.73c9.569,1.982,20.572-1.852,29.861-4.887
		c0.061,3.118,0.053,6.302-1.152,9.178c-0.287,0.685-0.152,2.194-0.78,2.59c-0.464,0.292-3.518,0.954-4.06,1.029
		C27.961,70.78,15.645,70.327,4.744,68.2c-0.945-0.184-1.324-0.313-2.12-0.854C0.28,65.757,0.555,62.49,1.038,59.7"/>
</g>
</svg>
