<?xml version="1.0" encoding="utf-8"?>
<!-- Generator: Adobe Illustrator 16.0.2, SVG Export Plug-In . SVG Version: 6.00 Build 0)  -->
<!DOCTYPE svg PUBLIC "-//W3C//DTD SVG 1.1//EN" "http://www.w3.org/Graphics/SVG/1.1/DTD/svg11.dtd">
<svg version="1.1" id="Layer_1" xmlns="http://www.w3.org/2000/svg" xmlns:xlink="http://www.w3.org/1999/xlink" x="0px" y="0px"
	 width="60.945px" height="79.641px" viewBox="0 0 60.945 79.641" enable-background="new 0 0 60.945 79.641" xml:space="preserve">
<g>
	<path fill="#412312" d="M16.186,0c14.443,2.033,28.596,5.712,42.711,9.383c0.906,0.236,2,0.688,2.047,1.623
		c0.035,0.663-0.547,1.231-1.186,1.41c-0.639,0.18-1.32,0.064-1.973-0.058C43.602,9.725,30.283,6.8,15.623,2.619
		c0.08-0.692,0.158-1.384,0.238-2.076"/>
	<path fill="#592C14" d="M15.521,1.954c1.383,7.91-2.053,15.836-2.385,23.86c-0.119,2.888,0.164,5.82-0.451,8.645
		c-0.547,2.516-1.779,4.823-2.609,7.26c-1.17,3.435-1.529,7.1-2.641,10.554c-1.35,4.198-3.773,7.98-5.225,12.144
		c-0.074,0.214-0.146,0.447-0.072,0.661c0.1,0.288,0.42,0.426,0.707,0.53c8.975,3.245,17.883,4.846,27.146,7.14
		c5.35,1.324,10.828,1.916,16.219,2.839c0.236-7.44,0.768-14.872,1.596-22.27c0.285-2.546,0.605-5.092,1.145-7.596
		c1.434-6.662,4.385-12.908,6.064-19.512c0.678-2.664,1.148-5.388,2.064-7.98c0.75-2.127,1.795-4.149,3.094-5.99
		C47.195,9.614,34.25,6.831,21.338,3.89C19.174,3.397,17.506,2.948,15.521,1.954"/>
	<path fill="#EC2527" d="M14.01,15.619c3.141,0.981,6.496,0.91,9.783,1.022c10.52,0.362,20.871,2.695,31.045,5.399
		c0.266,0.071,0.549,0.153,0.723,0.367c0.195,0.242,0.193,0.583,0.17,0.893c-0.199,2.679-1.348,5.18-2.342,7.676
		c-2.473,6.207-4.084,12.757-4.77,19.403c-1.967-1.427-4.338-2.165-6.676-2.825c-10.541-2.975-21.396-4.826-32.328-5.513
		c0.371-3.591,2.451-6.803,3.066-10.361c0.533-3.084-0.059-6.271,0.385-9.369c0.334-2.324,1.246-4.55,1.416-6.892"/>
	<path fill="#04213E" d="M9.48,41.843c-0.721,2.375-1.443,4.751-2.164,7.126c-0.17,0.563-0.33,1.214-0.008,1.706
		c0.191,0.291,0.516,0.462,0.828,0.616c4.023,1.983,8.367,3.222,12.707,4.362c8.357,2.196,16.973,4.077,25.58,3.294
		c0.412-0.037,0.854-0.093,1.164-0.368c0.234-0.207,0.357-0.508,0.465-0.801c0.746-2.032,1.082-4.213,0.98-6.376
		c-0.016-0.36-0.053-0.741-0.264-1.035c-0.207-0.291-0.553-0.447-0.881-0.59c-5.176-2.255-10.41-4.527-15.961-5.559
		c-7.406-1.375-15.152-0.496-22.434-2.426"/>
	<path fill="#412312" d="M46.586,76.176v2.446c0,0.288-0.252,0.607-0.451,0.815c-0.254,0.262-0.799,0.219-1.158,0.157
		c-13.127-2.293-26.18-5.288-39.166-8.282c-1.652-0.382-3.34-0.764-4.938-1.33c-0.342-0.121-0.738-0.292-0.844-0.638
		C-0.045,69.1,0.033,68.839,0.125,68.6c0.334-0.881,0.729-1.738,1.191-2.56c0.145-0.257,0.313-0.529,0.588-0.637
		c0.26-0.101,0.551-0.033,0.82,0.037c14.355,3.697,29.033,7.201,43.541,10.248"/>
</g>
</svg>
