<?xml version="1.0" encoding="utf-8"?>
<!-- Generator: Adobe Illustrator 16.0.2, SVG Export Plug-In . SVG Version: 6.00 Build 0)  -->
<!DOCTYPE svg PUBLIC "-//W3C//DTD SVG 1.1//EN" "http://www.w3.org/Graphics/SVG/1.1/DTD/svg11.dtd">
<svg version="1.1" id="Layer_1" xmlns="http://www.w3.org/2000/svg" xmlns:xlink="http://www.w3.org/1999/xlink" x="0px" y="0px"
	 width="47.419px" height="93.414px" viewBox="0 0 47.419 93.414" enable-background="new 0 0 47.419 93.414" xml:space="preserve">
<g>
	<path fill="#EEA820" d="M6.036,16.024C4.404,9.098,3.992,5.375,3.693,0c12.753,0.014,25.505,0.029,38.258,0.044
		c0.409,0,0.854,0.013,1.167,0.275c0.427,0.358,0.421,1.004,0.378,1.559c-0.356,4.544-0.839,9.078-1.45,13.594
		c-11.655,0.002-23.31,0.003-34.965,0.004"/>
	<path fill="#6B3315" d="M5.635,21.929c1.776,7.482,1.65,15.266,1.514,22.955c-0.048,2.744-0.098,5.504-0.599,8.203
		c-0.483,2.598-1.378,5.104-1.909,7.693c-0.713,3.48-0.759,7.061-1.241,10.581c-0.874,6.391-3.181,12.578-3.395,19.024
		c-0.013,0.4-0.012,0.823,0.19,1.167c0.329,0.561,1.054,0.716,1.696,0.814c8.413,1.291,17.004,1.141,25.485,0.845
		c4.234-0.148,8.467-0.363,12.701-0.527c1.681-0.065,4.461,0.401,6.016-0.18c1.856-0.694,1.401-2.435,0.805-4.253
		c-1.357-4.146-1.669-8.551-1.972-12.903c-0.464-6.667-0.928-13.335-1.392-20.002c-0.86-12.361-1.719-24.78-0.687-37.128
		c0.031-0.367,0.056-0.765-0.146-1.073c-0.183-0.28-0.512-0.422-0.826-0.537c-3.095-1.132-6.47-1.144-9.766-1.142
		c-8.026,0.004-16.051,0.008-24.08,0.012C4.751,15.483,5.145,19.863,5.635,21.929"/>
	<path fill="#EEA820" d="M12.478,24.958c-0.085-0.504-0.15-1.084,0.185-1.469c0.325-0.372,0.884-0.4,1.377-0.4
		c3.935,0.002,7.871,0.004,11.806,0.005c2.262,0.001,8.525-1.425,8.955,1.434c1.427,9.494,0.841,19.157,0.989,28.756
		c0.164,10.731,1.252,21.449,3.247,31.995c-10.459,1.409-21.103,1.44-31.57,0.092c0.835-3.886,1.369-7.829,1.902-11.768
		c0.446-3.295,0.892-6.589,1.338-9.884C12.417,51.082,14.619,37.644,12.478,24.958"/>
</g>
</svg>
