<?xml version="1.0" encoding="utf-8"?>
<!-- Generator: Adobe Illustrator 16.0.2, SVG Export Plug-In . SVG Version: 6.00 Build 0)  -->
<!DOCTYPE svg PUBLIC "-//W3C//DTD SVG 1.1//EN" "http://www.w3.org/Graphics/SVG/1.1/DTD/svg11.dtd">
<svg version="1.1" id="Layer_1" xmlns="http://www.w3.org/2000/svg" xmlns:xlink="http://www.w3.org/1999/xlink" x="0px" y="0px"
	 width="47.165px" height="88.655px" viewBox="0 0 47.165 88.655" enable-background="new 0 0 47.165 88.655" xml:space="preserve">
<g>
	<path fill="#6B3315" d="M1.619,12.034c-0.362,0.978-0.304,2.055-0.241,3.096c0.695,11.505,1.391,23.011,2.086,34.517
		C3.781,54.9,4.097,60.205,3.276,65.405c-0.522,3.31-1.5,6.545-1.852,9.877c-0.35,3.333-0.004,6.897,1.895,9.659
		c0.268,0.389,0.572,0.766,0.97,1.019c0.571,0.364,1.616,1.345,2.29,1.41c6.35,0.616,12.643,1.356,18.706,0.94
		c3.177-0.219,6.366,0.614,9.528,0.254c3-0.341,7.248,0.4,9.715-1.782c2.572-2.275,2.143-6.863,1.848-9.889
		c-0.504-5.186-1.01-10.373-1.514-15.56c-0.676-6.955-1.352-13.949-0.855-20.919c0.695-9.758,3.682-19.37,3.078-29.134
		c-0.943-0.227-1.773-0.891-2.201-1.763c-0.174-0.354-4.736-0.027-5.313-0.029c-1.979-0.006-3.957-0.006-5.936,0
		c-3.854,0.011-7.707,0.044-11.56,0.098c-3.853,0.054-7.705,0.13-11.558,0.227C7.983,9.876,2.771,8.92,1.619,12.034"/>
	<path fill="#ED2024" d="M6.237,26.843c-0.691-1.06-0.035-2.573,1.037-3.243c1.074-0.671,2.406-0.726,3.67-0.761
		c7.597-0.214,15.193-0.428,22.789-0.642c2.354-0.067,5.041,0.008,6.576,1.793c1.328,1.547,1.275,3.81,1.15,5.845
		c-0.313,5.094-0.623,10.189-0.76,15.29c-0.166,6.395-0.055,12.793,0.057,19.189c0.006,0.334,0.006,0.688-0.168,0.973
		c-0.246,0.404-0.758,0.542-1.221,0.64c-9.125,1.944-18.547,1.815-27.876,1.678c-1.296-0.019-2.677-0.064-3.748-0.796
		c-0.653-0.447-1.14-1.136-1.34-1.903c-0.158-0.604-0.144-1.238-0.128-1.863c0.303-12.338,0.268-24.684-0.105-37.02"/>
	<path fill="#FFCB0B" d="M8.752,26.469c1.386-3.017,12.808-1.434,15.603-1.438c2.486-0.004,5.482-0.459,7.924-0.013
		c2.695-0.504,4.541,0.862,5.533,4.097c0.09,1.273,0.164,2.546,0.221,3.82c0.232,5.099,0.209,10.207,0.166,15.31
		c-0.02,2.409,0.008,4.833-0.152,7.238c-0.232,3.435,0.15,6.285-3.016,7.9c-4.268,2.176-10.213,1.685-14.961,1.764
		c-2.205,0.037-5.295,0.531-7.426-0.05c-4.656-1.27-3.517-4.141-3.607-7.823C8.78,46.944,8.715,36.612,8.804,26.279
		c0.004-0.483-0.748-0.483-0.752,0c-0.072,8.395-0.045,16.79,0.109,25.184c0.066,3.682-0.469,8.006,0.287,11.62
		c0.205,0.99-0.01,1.669,0.929,2.37c1.644,1.229,6.136,0.463,7.907,0.464c4.021,0.004,8.045-0.141,12.057-0.445
		c4.07-0.309,7.342,0.457,8.607-3.765c1.953-6.521,1.076-14.399,1.02-21.12c-0.031-3.826-0.127-7.655-0.404-11.472
		c-0.102-1.396,0.035-3.117-1.148-4.117c-1.25-1.057-3.766-0.721-5.137-0.731c-3.963-0.028-7.926,0.012-11.887,0.019
		c-2.773,0.004-10.724-1.605-12.289,1.804C7.903,26.526,8.55,26.908,8.752,26.469"/>
	<path fill="#ED2024" d="M0.56,10.08c0.646-2.191,0.539-4.595-0.295-6.721C0.118,2.985-0.054,2.592,0.017,2.197
		c0.178-1.01,1.566-1.109,2.588-1.018c1.725,0.154,3.463,0.126,5.189-0.022c2.186-0.189,4.348-0.57,6.531-0.777
		c2.351-0.223,4.715-0.241,7.076-0.26c4.705-0.037,9.412-0.075,14.119-0.112c3.311-0.026,6.682-0.045,9.854,0.911
		c0.355,0.107,0.727,0.238,0.965,0.522c0.295,0.348,0.322,0.84,0.34,1.295c0.072,2.215,0.148,4.429,0.223,6.643
		c0.004,0.141,0.004,0.296-0.086,0.405c-0.107,0.126-0.293,0.139-0.459,0.141c-7.002,0.112-14.004,0.072-21.008,0.032
		c-1.91-0.011-3.82-0.021-5.73-0.033C13.228,9.888,6.95,10.116,0.56,10.08"/>
</g>
</svg>
