<?xml version="1.0" encoding="utf-8"?>
<!-- Generator: Adobe Illustrator 16.0.2, SVG Export Plug-In . SVG Version: 6.00 Build 0)  -->
<!DOCTYPE svg PUBLIC "-//W3C//DTD SVG 1.1//EN" "http://www.w3.org/Graphics/SVG/1.1/DTD/svg11.dtd">
<svg version="1.1" id="Layer_1" xmlns="http://www.w3.org/2000/svg" xmlns:xlink="http://www.w3.org/1999/xlink" x="0px" y="0px"
	 width="39.459px" height="113.438px" viewBox="0 0 39.459 113.438" enable-background="new 0 0 39.459 113.438"
	 xml:space="preserve">
<g>
	<path fill="#EC2227" d="M13.829,13.798c-0.009-3.217-0.018-6.435-0.027-9.652c-0.003-0.945,0.034-1.994,0.693-2.674
		c0.498-0.513,1.239-0.688,1.942-0.821c1.788-0.341,3.6-0.551,5.419-0.63c1.966-0.085,4.104,0.042,5.619,1.298
		c1.533,1.27,2.053,3.4,2.12,5.39c0.068,1.989-0.222,3.997,0.09,5.963c-5.398,0.82-10.833,1.397-16.282,1.73"/>
	<path fill="#412312" d="M13.38,13.448c0.802,7.018,1.525,14.507-1.673,20.803c-1.831,3.605-4.813,6.506-6.783,10.037
		c-2.79,5-3.368,10.898-3.778,16.609C0.115,75.241-0.221,89.636,0.14,104.013c0.035,1.414,0.086,2.867,0.657,4.16
		c1.49,3.375,5.75,4.354,9.422,4.717c6.174,0.611,12.398,0.711,18.588,0.297c1.59-0.107,3.279-0.285,4.527-1.277
		c1.315-1.043,1.858-2.762,2.294-4.383c2.581-9.578,3.873-19.504,3.83-29.424c-0.035-8.164-0.968-16.295-1.899-24.406
		c-0.504-4.383-1.018-8.814-2.53-12.961c-1.321-3.625-3.378-6.953-4.626-10.606c-1.882-5.513-1.831-11.473-1.758-17.299
		c-4.909-0.701-9.984-0.21-14.668,1.417"/>
	<path fill="#FFFFFF" d="M6.335,78.394c0.61-1.875,1.221-3.75,1.831-5.625c0.57-1.75,1.14-3.502,1.839-5.199
		c1.563-3.793,3.889-7.404,7.278-9.438c3.389-2.031,7.982-2.133,10.943,0.555c3.013,2.732,3.616,7.375,3.88,11.584
		c0.526,8.361,0.263,17.584-4.882,23.922c-1.36,1.678-3.087,3.111-5.112,3.617c-1.263,0.314-2.586,0.256-3.865,0.025
		c-6.149-1.107-11.42-6.49-12.722-12.99c-0.535-2.674-0.347-5.744,1.405-7.742"/>
</g>
</svg>
