<?xml version="1.0" encoding="utf-8"?>
<!-- Generator: Adobe Illustrator 16.0.2, SVG Export Plug-In . SVG Version: 6.00 Build 0)  -->
<!DOCTYPE svg PUBLIC "-//W3C//DTD SVG 1.1//EN" "http://www.w3.org/Graphics/SVG/1.1/DTD/svg11.dtd">
<svg version="1.1" id="Layer_1" xmlns="http://www.w3.org/2000/svg" xmlns:xlink="http://www.w3.org/1999/xlink" x="0px" y="0px"
	 width="41.86px" height="44.318px" viewBox="0 0 41.86 44.318" enable-background="new 0 0 41.86 44.318" xml:space="preserve">
<path fill="#ED2024" d="M14.14,8.626c-0.239-4.105,1.255-5.345,1.883-8.018c1.479,1.454,2.389,3.473,2.496,5.544
	c0.215-2.103,0.854-4.162,1.866-6.017c1.064,1.163,1.749,2.669,1.927,4.236C22.439,2.806,22.633,1.097,23.755,0
	c0.615,2.409,1.438,5.589-0.082,7.375C26,8.784,28.974,8.502,31.52,9.462c4.052,1.528,7.165,5.48,8.628,9.556
	c0.919,2.561,1.063,3.302,1.679,5.952c0.176,0.754-0.385,5.274-0.457,6.044c-0.164,1.722-3.945,5.724-5.188,6.927
	c-4.998,4.834-7.864,5.255-14.752,6.203c-4.198,0.578-8.598-0.29-12.209-2.509c-2.331-1.433-4.305-3.388-6.035-5.508
	c-0.917-1.123-1.78-2.311-2.333-3.652c-1.056-2.558-0.9-5.432-0.728-8.193c0.09-1.435,0.187-2.9,0.733-4.23
	c0.69-1.681,2.369-4.717,3.734-5.917c3.14-2.76,5.799-4.273,9.891-5.501"/>
</svg>
