<?xml version="1.0" encoding="utf-8"?>
<!-- Generator: Adobe Illustrator 16.0.2, SVG Export Plug-In . SVG Version: 6.00 Build 0)  -->
<!DOCTYPE svg PUBLIC "-//W3C//DTD SVG 1.1//EN" "http://www.w3.org/Graphics/SVG/1.1/DTD/svg11.dtd">
<svg version="1.1" id="Layer_1" xmlns="http://www.w3.org/2000/svg" xmlns:xlink="http://www.w3.org/1999/xlink" x="0px" y="0px"
	 width="46.476px" height="61.952px" viewBox="0 0 46.476 61.952" enable-background="new 0 0 46.476 61.952" xml:space="preserve">
<g>
	<path fill="#912B25" d="M38.711,20.17c-0.047,10.674-0.094,21.348-0.141,32.021c-0.012,2.563-0.109,5.369-1.797,7.298
		c-2.076,2.375-5.666,2.472-8.821,2.462c-6.122-0.019-12.5,0.194-18.054-2.382c-1.934-0.896-3.797-2.208-4.701-4.139
		c-0.693-1.476-0.758-3.158-0.768-4.788c-0.043-7.241,0.764-14.487,0.29-21.714c-0.167-2.546-0.491-5.109-0.142-7.638
		c0.302-2.188,1.107-4.375,0.721-6.551c4.596-0.68,9.271-0.029,13.916,0.065c3.119,0.064,6.24-0.123,9.359-0.038
		c3.542,0.097,7.074,0.547,10.527,1.341c-0.343,1.995-0.449,4.029-0.318,6.05"/>
	<path fill="#912B25" d="M38.508,3.022c-2.879,1.07-5.78,2.145-8.811,2.658c-3.477,0.587-7.038,0.419-10.538-0.002
		c-2.542-0.306-5.067-0.741-7.589-1.181c-1.3-0.227-2.617-0.46-3.813-1.018c-0.42-0.196-0.859-0.482-0.953-0.936
		C6.743,2.25,6.848,1.944,7.008,1.69c0.705-1.118,2.246-1.275,3.568-1.284c3.352-0.021,6.52-0.543,9.866-0.371
		c2.333,0.119,4.915,0.329,7.247,0.449c3.269,0.167,6.48,0.939,9.706,1.499c0.237,0.041,0.489,0.091,0.667,0.255
		s0.234,0.482,0.051,0.641"/>
	<path fill="#ED2024" d="M38.976,2.856c1.267,2.312,0.261,5.592-1.88,7.13c1.68-1.422,4.35-1.152,6.104,0.172
		c1.756,1.323,2.724,3.46,3.223,5.602c0.059,0.252,0.104,0.546-0.059,0.748c-0.123,0.152-0.328,0.205-0.522,0.229
		c-2.597,0.313-4.308-2.931-6.882-3.395c1.271,0.909,2.479,1.908,3.607,2.987c0.406,0.388,0.836,0.94,0.607,1.455
		c-0.127,0.284-0.422,0.449-0.699,0.594c-0.875,0.457-1.777,0.909-2.754,1.046c-0.979,0.138-2.061-0.092-2.725-0.822
		c-0.396-0.435-0.61-1.005-0.963-1.475c-0.354-0.471-0.951-0.856-1.508-0.668c-0.729,0.244-0.852,1.201-1.276,1.84
		c-0.683,1.023-2.106,1.157-3.337,1.19c-0.221,0.005-0.463,0.006-0.641-0.128c-0.354-0.267-0.221-0.843-0.449-1.222
		c-0.383-0.635-1.348-0.308-2.01,0.026c-2.744,1.384-5.91,1.598-8.979,1.785c-1.151,0.07-2.398,0.116-3.354-0.531
		c-0.832-0.565-1.265-1.539-1.824-2.376c-0.561-0.837-1.453-1.63-2.447-1.473c-0.055,0.555-0.116,1.125-0.376,1.616
		c-0.261,0.492-0.773,0.895-1.328,0.853c-1.244-0.095-1.479-2.028-2.64-2.484c-1.336-0.523-3.045,1.209-4.119,0.257
		c-0.715-0.634-0.311-1.813,0.223-2.607c0.477-0.712,1.02-1.379,1.619-1.991c-0.77,0.563-1.727,1.156-2.616,0.806
		c-0.795-0.313-1.147-1.339-0.887-2.152c0.26-0.814,0.999-1.404,1.801-1.698c0.804-0.295,1.673-0.337,2.526-0.369
		c0.41-0.016,0.963-0.184,0.912-0.591C5.308,7.083,5.23,6.975,5.16,6.87C4.059,5.199,5.156,2.453,7.007,1.69
		c0.255,1.466,1.711,2.199,3.171,2.484c4.479,0.875,8.989,1.718,13.553,1.816c4.562,0.098,9.217-0.582,13.301-2.617
		c0.604-0.302,1.105-1.181,1.688-0.838"/>
	<path fill="#F6BB97" d="M4.475,26.52c9.18,0.049,18.68,0.152,27.857,0.119c2.191-0.008,4.39-0.017,6.555-0.36
		c0.398,2.432,0.438,4.927,0.119,7.372c-0.132,1.008-0.325,2.025-0.206,3.036c0.078,0.667,0.29,1.31,0.403,1.971
		c0.187,1.105,0.094,2.239,0,3.355c-0.012,0.146-0.029,0.303-0.125,0.41c-0.11,0.123-0.289,0.144-0.451,0.154
		c-2.741,0.193-5.49,0.173-8.237,0.152c-8.321-0.063-16.644-0.125-24.966-0.188c-0.256-0.002-0.557-0.028-0.691-0.25
		c-0.08-0.13-0.078-0.294-0.072-0.448c0.067-1.574-0.025-3.426,0.07-4.999C4.953,33.221,3.641,30.046,4.475,26.52"/>
	<path fill="#ED2024" d="M25.641,35.091c-0.219-1.316-0.818-2.591-1.805-3.489c-0.987-0.898-2.377-1.383-3.689-1.146
		c-1.406,0.254-2.552,1.261-3.523,2.31c-0.625,0.675-1.212,1.384-1.76,2.124c-0.594,0.804-1.162,1.738-1.045,2.731
		c0.166,1.408,1.613,2.28,2.963,2.712c1.244,0.398,2.545,0.612,3.85,0.634c1.477,0.022,3.107-0.284,4.018-1.446
		c0.313-0.398,0.518-0.871,0.692-1.347c0.382-1.042,0.64-2.169,0.435-3.26"/>
	<path fill="#046937" d="M23.422,33.129c0.325-1.922,1.321-3.723,2.773-5.022c-0.209,0.685-0.419,1.37-0.629,2.055
		c-0.074,0.242-0.149,0.497-0.096,0.745c0.139,0.63,0.948,0.793,1.592,0.824c0.479,0.023,0.957,0.047,1.436,0.07
		c0.233,0.012,0.477,0.025,0.68,0.14c0.203,0.113,0.354,0.36,0.279,0.582c-0.072,0.214-0.308,0.316-0.52,0.395
		c-0.379,0.143-0.76,0.283-1.139,0.424c0.701,0.212,1.358,0.573,1.912,1.053c-1.107,0.446-2.357,0.526-3.513,0.226
		c0.296,0.175,0.513,0.457,0.706,0.741c0.383,0.563,0.705,1.169,0.96,1.8c0.125,0.31,0.235,0.644,0.175,0.973
		c-0.061,0.328-0.349,0.638-0.681,0.606c-0.425-0.039-0.615-0.532-0.763-0.931c-0.523-1.411-1.582-2.545-2.545-3.701
		c-0.297-0.358-0.605-0.781-0.541-1.242"/>
	<path fill="#B72027" d="M21.276,33.189c0.495,0,0.496-0.771,0-0.771C20.781,32.418,20.78,33.189,21.276,33.189"/>
	<path fill="#B72027" d="M22.752,35.498v0.064c0,0.494,0.77,0.495,0.77,0v-0.064C23.521,35.002,22.752,35.001,22.752,35.498"/>
	<path fill="#B72027" d="M21.661,39.345c0.495,0,0.496-0.77,0-0.77C21.166,38.576,21.165,39.345,21.661,39.345"/>
	<path fill="#B72027" d="M18.893,34.021c-0.07,0.149-0.142,0.256-0.261,0.371c-0.358,0.344,0.187,0.887,0.544,0.544
		c0.163-0.157,0.285-0.322,0.381-0.527C19.764,33.962,19.102,33.572,18.893,34.021"/>
	<path fill="#B72027" d="M19.609,37.293h-0.192c-0.496,0-0.496,0.77,0,0.77h0.192C20.104,38.063,20.105,37.293,19.609,37.293"/>
	<path fill="#B72027" d="M23.649,37.421c0.011,0.25-0.002,0.486-0.05,0.731c-0.097,0.483,0.645,0.69,0.742,0.204
		c0.062-0.313,0.09-0.616,0.077-0.936C24.398,36.928,23.628,36.925,23.649,37.421"/>
	<path fill="#B72027" d="M14.402,36.984c0.276,0.216,0.553,0.432,0.828,0.647c0.387,0.303,0.934-0.237,0.544-0.544l-0.827-0.647
		C14.562,36.137,14.013,36.678,14.402,36.984"/>
	<path fill="#B72027" d="M16.871,39.99c0.15,0.061,0.302,0.122,0.453,0.183c0.457,0.187,0.657-0.558,0.203-0.741l-0.451-0.184
		C16.617,39.062,16.416,39.806,16.871,39.99"/>
	<path fill="#B72027" d="M17.044,34.985c0.495,0,0.496-0.771,0-0.771C16.549,34.214,16.548,34.985,17.044,34.985"/>
</g>
</svg>
