<?xml version="1.0" encoding="utf-8"?>
<!-- Generator: Adobe Illustrator 16.0.2, SVG Export Plug-In . SVG Version: 6.00 Build 0)  -->
<!DOCTYPE svg PUBLIC "-//W3C//DTD SVG 1.1//EN" "http://www.w3.org/Graphics/SVG/1.1/DTD/svg11.dtd">
<svg version="1.1" id="Layer_1" xmlns="http://www.w3.org/2000/svg" xmlns:xlink="http://www.w3.org/1999/xlink" x="0px" y="0px"
	 width="46.476px" height="61.952px" viewBox="0 0 46.476 61.952" enable-background="new 0 0 46.476 61.952" xml:space="preserve">
<g>
	<path fill="#F19121" d="M38.711,20.17c-0.048,10.674-0.095,21.348-0.142,32.021c-0.01,2.563-0.108,5.369-1.797,7.298
		c-2.076,2.375-5.666,2.472-8.82,2.462c-6.123-0.019-12.5,0.194-18.055-2.382c-1.933-0.896-3.795-2.208-4.701-4.139
		c-0.692-1.476-0.758-3.158-0.767-4.788c-0.043-7.241,0.763-14.487,0.29-21.714c-0.167-2.546-0.492-5.109-0.143-7.638
		c0.303-2.188,1.107-4.375,0.722-6.551c4.597-0.68,9.271-0.029,13.916,0.065c3.119,0.064,6.239-0.123,9.358-0.038
		c3.543,0.097,7.074,0.547,10.527,1.341c-0.342,1.995-0.449,4.029-0.318,6.05"/>
	<path fill="#F19121" d="M38.509,3.022c-2.881,1.07-5.781,2.145-8.812,2.658c-3.476,0.587-7.038,0.419-10.538-0.002
		c-2.542-0.306-5.066-0.741-7.59-1.181c-1.299-0.227-2.616-0.46-3.813-1.018C7.338,3.284,6.897,2.998,6.804,2.544
		C6.743,2.25,6.847,1.944,7.007,1.69c0.705-1.118,2.247-1.275,3.569-1.284c3.353-0.021,6.519-0.543,9.866-0.371
		c2.332,0.119,4.914,0.329,7.246,0.449c3.27,0.167,6.48,0.939,9.707,1.499c0.238,0.041,0.488,0.091,0.666,0.255
		c0.179,0.164,0.234,0.482,0.052,0.641"/>
	<path fill="#FEC045" d="M38.976,2.856c1.268,2.312,0.26,5.592-1.88,7.13c1.679-1.422,4.349-1.152,6.104,0.172
		c1.754,1.323,2.723,3.46,3.222,5.602c0.06,0.252,0.104,0.546-0.06,0.748c-0.121,0.152-0.328,0.205-0.521,0.229
		c-2.596,0.313-4.309-2.931-6.883-3.395c1.271,0.909,2.478,1.908,3.607,2.987c0.407,0.388,0.838,0.94,0.608,1.455
		c-0.127,0.284-0.423,0.449-0.699,0.594c-0.875,0.457-1.776,0.909-2.754,1.046c-0.978,0.138-2.062-0.092-2.726-0.822
		c-0.395-0.435-0.609-1.005-0.963-1.475c-0.353-0.471-0.951-0.856-1.508-0.668c-0.728,0.244-0.851,1.201-1.275,1.84
		c-0.682,1.023-2.106,1.157-3.336,1.19c-0.223,0.005-0.463,0.006-0.641-0.128c-0.355-0.267-0.222-0.843-0.451-1.222
		c-0.383-0.635-1.347-0.308-2.008,0.026c-2.746,1.384-5.912,1.598-8.98,1.785c-1.15,0.07-2.397,0.116-3.352-0.531
		c-0.834-0.565-1.266-1.539-1.826-2.376c-0.56-0.837-1.453-1.63-2.447-1.473c-0.055,0.555-0.115,1.125-0.375,1.616
		c-0.26,0.492-0.773,0.895-1.328,0.853c-1.244-0.095-1.48-2.028-2.641-2.484c-1.336-0.523-3.045,1.209-4.119,0.257
		c-0.715-0.634-0.31-1.813,0.224-2.607c0.478-0.712,1.021-1.379,1.619-1.991c-0.771,0.563-1.728,1.156-2.616,0.806
		c-0.795-0.313-1.148-1.339-0.887-2.152c0.26-0.814,0.998-1.404,1.801-1.698c0.803-0.295,1.673-0.337,2.527-0.369
		c0.408-0.016,0.961-0.184,0.91-0.591C5.308,7.083,5.229,6.975,5.159,6.87C4.059,5.199,5.157,2.453,7.007,1.69
		c0.255,1.466,1.711,2.199,3.171,2.484c4.479,0.875,8.989,1.718,13.552,1.816c4.563,0.098,9.217-0.582,13.301-2.617
		c0.605-0.302,1.106-1.181,1.688-0.838"/>
	<path fill="#F6BB97" d="M4.475,26.52c9.179,0.049,18.679,0.152,27.856,0.119c2.191-0.008,4.391-0.017,6.556-0.36
		c0.397,2.432,0.438,4.927,0.118,7.372c-0.131,1.008-0.324,2.025-0.205,3.036c0.078,0.667,0.29,1.31,0.402,1.971
		c0.188,1.105,0.094,2.239,0,3.355c-0.012,0.146-0.028,0.303-0.125,0.41c-0.109,0.123-0.289,0.144-0.451,0.154
		c-2.74,0.193-5.489,0.173-8.236,0.152L5.424,42.542c-0.257-0.002-0.556-0.028-0.692-0.25c-0.078-0.13-0.078-0.294-0.072-0.448
		c0.068-1.574-0.024-3.426,0.072-4.999C4.954,33.221,3.641,30.046,4.475,26.52"/>
	<path fill="#F19121" d="M19.64,38.614c0.967-1.218,1.721-2.605,2.215-4.08c0.318-0.954,0.535-1.953,1.028-2.83
		c0.493-0.876,1.345-1.636,2.351-1.677c1.201,2.731,1.272,5.938,0.194,8.722c-0.169,0.438-0.385,0.889-0.778,1.146
		c-0.367,0.237-0.824,0.269-1.26,0.292c-0.814,0.044-1.648,0.086-2.422-0.166s-1.484-0.867-1.607-1.672"/>
	<path fill="#EEA820" d="M23.935,31.399c-0.195-0.785-1.084-1.223-1.894-1.214c-1.491,0.018-2.769,1.196-3.365,2.563
		c-0.595,1.366-0.647,2.898-0.688,4.39c-0.014,0.465,0.006,1.003,0.373,1.288c0.576,0.445,1.498-0.104,2.117,0.282"/>
</g>
</svg>
