<?xml version="1.0" encoding="utf-8"?>
<!-- Generator: Adobe Illustrator 16.0.2, SVG Export Plug-In . SVG Version: 6.00 Build 0)  -->
<!DOCTYPE svg PUBLIC "-//W3C//DTD SVG 1.1//EN" "http://www.w3.org/Graphics/SVG/1.1/DTD/svg11.dtd">
<svg version="1.1" id="Layer_1" xmlns="http://www.w3.org/2000/svg" xmlns:xlink="http://www.w3.org/1999/xlink" x="0px" y="0px"
	 width="33.526px" height="92.086px" viewBox="0 0 33.526 92.086" enable-background="new 0 0 33.526 92.086" xml:space="preserve">
<g>
	<path fill="#FFFFFF" d="M0.281,7.079c0.336,4.585,0.671,9.17,1.007,13.755c0.326,4.458,0.651,8.944,0.165,13.387
		c-0.31,2.825-0.044,5.608-0.298,8.438c-0.246,2.733-0.134,5.483-0.149,8.227C0.929,63.838,0.068,75.737,0.453,89.572
		c0.01,0.389,0.229,0.785,0.56,0.992c0.232,0.146,0.521,0.162,0.793,0.174c10.211,0.449,20.422,0.898,30.633,1.348
		c2.063-15.603,0.578-31.201,0.469-46.939c-0.022-3.173-0.351-8.683-0.6-11.846c-0.72-9.13-1.645-16.092-0.491-25.177"/>
	<path fill="#B72027" d="M10.863,4.215C8.077,4.443,5.303,4.828,2.559,5.368C1.833,5.51,0.31,5.289,0,7.087
		c0.618,0.495,2.228-0.085,3.019-0.067c9.427,0.216,19.154,0.388,28.584,0.376c0.425,0,0.247-0.463,0.365-0.871
		c0.073-0.252,0.306-0.539,0.057-0.619C30.449,5.4,30.457,5.35,29.511,5.323C23.291,5.154,17.084,4.384,10.863,4.215"/>
	<path fill="#44A84F" d="M11.277,6.149c0.568-1.896,0.594-3.951,0.073-5.86c0.274-0.248,0.682-0.267,1.053-0.271
		C15.331-0.017,18.261,0,21.188,0.07c0.195,0.005,0.408,0.016,0.556,0.143c0.158,0.135,0.197,0.36,0.226,0.567
		c0.176,1.281,0.351,2.562,0.526,3.844c0.022,0.159,0.038,0.34-0.064,0.464c-0.104,0.123-0.283,0.14-0.443,0.148
		C18.384,5.407,14.886,6.209,11.277,6.149"/>
	<path fill="#ED2024" d="M0.081,7.084c0.19,4.699,0.94,7.998,1.016,12.422c0.005,0.275-0.049,1.478,0.075,1.724
		c0.188,0.373,1.491,0.46,1.892,0.581c9.761,2.961,19.521,5.921,29.281,8.881c-0.703-7.589-0.883-15.72-0.508-23.333
		c-10.294-0.93-19.27,0.15-30.83-0.553"/>
	<path fill="#ED2024" d="M13.331,67.11c-0.11-1.885,0.575-2.455,0.864-3.682c0.68,0.667,1.098,1.594,1.146,2.546
		c0.099-0.966,0.392-1.912,0.856-2.764c0.489,0.534,0.805,1.226,0.886,1.946c0.059-0.719,0.147-1.504,0.663-2.008
		c0.281,1.107,0.66,2.567-0.038,3.387c1.068,0.648,2.435,0.518,3.604,0.959c1.861,0.702,3.291,2.517,3.963,4.389
		c0.423,1.176,0.488,1.516,0.771,2.734c0.081,0.346-0.176,2.422-0.21,2.776c-0.075,0.791-1.813,2.629-2.383,3.181
		c-2.296,2.221-3.612,2.414-6.775,2.849c-1.929,0.266-3.949-0.133-5.608-1.152c-1.069-0.658-1.977-1.556-2.771-2.53
		c-0.421-0.516-0.817-1.062-1.071-1.677c-0.485-1.175-0.414-2.495-0.334-3.764c0.041-0.659,0.085-1.331,0.336-1.942
		c0.318-0.772,1.089-2.167,1.716-2.718c1.442-1.267,2.663-1.962,4.543-2.527"/>
</g>
</svg>
