<?xml version="1.0" encoding="utf-8"?>
<!-- Generator: Adobe Illustrator 16.0.2, SVG Export Plug-In . SVG Version: 6.00 Build 0)  -->
<!DOCTYPE svg PUBLIC "-//W3C//DTD SVG 1.1//EN" "http://www.w3.org/Graphics/SVG/1.1/DTD/svg11.dtd">
<svg version="1.1" id="Layer_1" xmlns="http://www.w3.org/2000/svg" xmlns:xlink="http://www.w3.org/1999/xlink" x="0px" y="0px"
	 width="46.476px" height="61.952px" viewBox="0 0 46.476 61.952" enable-background="new 0 0 46.476 61.952" xml:space="preserve">
<g>
	<path fill="#6E1F3F" d="M38.711,20.17c-0.047,10.674-0.094,21.348-0.141,32.021c-0.011,2.563-0.109,5.369-1.796,7.298
		c-2.077,2.375-5.668,2.472-8.822,2.462c-6.122-0.019-12.5,0.194-18.055-2.382c-1.933-0.896-3.795-2.208-4.7-4.139
		c-0.693-1.476-0.759-3.158-0.767-4.788C4.388,43.402,5.193,36.156,4.72,28.929c-0.166-2.546-0.492-5.109-0.142-7.638
		c0.302-2.188,1.106-4.375,0.721-6.551c4.597-0.68,9.271-0.029,13.916,0.065c3.119,0.064,6.241-0.123,9.359-0.038
		c3.542,0.097,7.073,0.547,10.526,1.341c-0.342,1.995-0.447,4.029-0.317,6.05"/>
	<path fill="#6E1F3F" d="M38.509,3.022c-2.881,1.07-5.781,2.145-8.812,2.658c-3.476,0.587-7.038,0.419-10.538-0.002
		c-2.542-0.306-5.066-0.741-7.589-1.181c-1.3-0.227-2.617-0.46-3.813-1.018C7.339,3.284,6.898,2.998,6.804,2.544
		C6.743,2.25,6.848,1.944,7.007,1.69c0.705-1.118,2.248-1.275,3.569-1.284c3.353-0.021,6.519-0.543,9.867-0.371
		c2.332,0.119,4.914,0.329,7.246,0.449c3.269,0.167,6.479,0.939,9.706,1.499c0.238,0.041,0.488,0.091,0.667,0.255
		c0.178,0.164,0.233,0.482,0.051,0.641"/>
	<path fill="#BD294C" d="M38.976,2.856c1.268,2.312,0.26,5.592-1.88,7.13c1.679-1.422,4.349-1.152,6.104,0.172
		c1.755,1.323,2.723,3.46,3.222,5.602c0.06,0.252,0.104,0.546-0.06,0.748c-0.121,0.152-0.327,0.205-0.521,0.229
		c-2.596,0.313-4.309-2.931-6.882-3.395c1.271,0.909,2.478,1.908,3.606,2.987c0.407,0.388,0.838,0.94,0.608,1.455
		c-0.127,0.284-0.422,0.449-0.698,0.594c-0.875,0.457-1.777,0.909-2.755,1.046c-0.978,0.138-2.061-0.092-2.725-0.822
		c-0.396-0.435-0.61-1.005-0.964-1.475c-0.353-0.471-0.95-0.856-1.508-0.668c-0.728,0.244-0.851,1.201-1.275,1.84
		c-0.682,1.023-2.105,1.157-3.336,1.19c-0.223,0.005-0.463,0.006-0.641-0.128c-0.354-0.267-0.222-0.843-0.449-1.222
		c-0.385-0.635-1.348-0.308-2.01,0.026c-2.746,1.384-5.91,1.598-8.979,1.785c-1.151,0.07-2.397,0.116-3.353-0.531
		c-0.834-0.565-1.266-1.539-1.826-2.376c-0.56-0.837-1.452-1.63-2.446-1.473c-0.056,0.555-0.116,1.125-0.376,1.616
		c-0.26,0.492-0.773,0.895-1.328,0.853c-1.244-0.095-1.48-2.028-2.641-2.484c-1.336-0.523-3.045,1.209-4.118,0.257
		c-0.716-0.634-0.31-1.813,0.223-2.607c0.478-0.712,1.021-1.379,1.619-1.991c-0.771,0.563-1.728,1.156-2.616,0.806
		c-0.795-0.313-1.148-1.339-0.887-2.152c0.26-0.814,0.999-1.404,1.801-1.698C2.688,7.874,3.56,7.832,4.413,7.799
		c0.408-0.016,0.962-0.184,0.91-0.591C5.308,7.083,5.229,6.975,5.16,6.87C4.06,5.199,5.157,2.453,7.007,1.69
		c0.255,1.466,1.711,2.199,3.171,2.484c4.479,0.875,8.989,1.718,13.552,1.816c4.563,0.098,9.217-0.582,13.301-2.617
		c0.605-0.302,1.106-1.181,1.689-0.838"/>
	<path fill="#F6BB97" d="M4.476,26.52c9.178,0.049,18.678,0.152,27.856,0.119c2.19-0.008,4.39-0.017,6.555-0.36
		c0.398,2.432,0.438,4.927,0.119,7.372c-0.132,1.008-0.325,2.025-0.206,3.036c0.078,0.667,0.29,1.31,0.403,1.971
		c0.187,1.105,0.094,2.239,0,3.355c-0.013,0.146-0.029,0.303-0.125,0.41c-0.11,0.123-0.289,0.144-0.451,0.154
		c-2.741,0.193-5.49,0.173-8.237,0.152L5.424,42.542c-0.256-0.002-0.556-0.028-0.692-0.25c-0.078-0.13-0.078-0.294-0.071-0.448
		c0.067-1.574-0.025-3.426,0.071-4.999C4.954,33.221,3.641,30.046,4.476,26.52"/>
	<path fill="#BD294C" d="M21.888,31.676c0.18-0.939,0.586-1.134,0.881-1.7c0.25,0.412,0.34,0.919,0.246,1.392
		c0.168-0.462,0.43-0.889,0.764-1.25c0.173,0.323,0.242,0.701,0.193,1.064c0.117-0.346,0.258-0.72,0.573-0.902
		c0.001,0.578,0.007,1.341-0.438,1.657c0.443,0.45,1.131,0.556,1.65,0.917c0.825,0.575,1.301,1.643,1.399,2.645
		c0.062,0.629,0.051,0.805,0.039,1.438c-0.003,0.18-0.388,1.166-0.447,1.336c-0.135,0.378-1.215,1.064-1.563,1.265
		c-1.401,0.806-2.071,0.737-3.678,0.559c-0.979-0.109-1.921-0.556-2.607-1.262c-0.444-0.455-0.778-1.008-1.047-1.585
		c-0.144-0.305-0.27-0.622-0.318-0.955c-0.092-0.637,0.107-1.275,0.303-1.888c0.102-0.318,0.207-0.643,0.406-0.912
		c0.252-0.339,0.803-0.928,1.18-1.12c0.863-0.442,1.549-0.633,2.541-0.677"/>
</g>
</svg>
