<?xml version="1.0" encoding="utf-8"?>
<!-- Generator: Adobe Illustrator 16.0.2, SVG Export Plug-In . SVG Version: 6.00 Build 0)  -->
<!DOCTYPE svg PUBLIC "-//W3C//DTD SVG 1.1//EN" "http://www.w3.org/Graphics/SVG/1.1/DTD/svg11.dtd">
<svg version="1.1" id="Layer_1" xmlns="http://www.w3.org/2000/svg" xmlns:xlink="http://www.w3.org/1999/xlink" x="0px" y="0px"
	 width="54.142px" height="39.491px" viewBox="0 0 54.142 39.491" enable-background="new 0 0 54.142 39.491" xml:space="preserve">
<g>
	<path fill="#44A84F" d="M2.593,17.613C1.994,22.004,1.44,26.4,0.932,30.802c-0.115,0.985-0.208,2.059,0.318,2.899
		c0.407,0.646,1.111,1.035,1.795,1.376c11.593,5.778,25.546,5.487,37.843,1.42c1.912-0.632,3.949-1.478,4.927-3.238
		c0.932-1.68,0.649-3.744,0.311-5.635c-0.642-3.574-1.396-7.129-2.263-10.656C30.02,18.157,16.07,18.121,2.234,16.859"/>
	<path fill="#046937" d="M2.257,17.612c0.163,1.27-0.431,2.411-0.202,3.672c13.774,2.553,29.311,2.915,43.155,0.772
		c-0.334-1.401-0.699-3.057-1.033-4.459c-2.727,0.846-3.872,0.822-5.564,1.318c-2.016,0.591-7.122,0.748-10.246,1.182
		c-10.088,1.402-16.087-1.53-26.109-3.34"/>
	<path fill="#EC2227" d="M2.26,20.838c-0.198,1.04-0.396,2.08-0.594,3.119c-0.018,0.089-0.033,0.185,0.005,0.266
		c0.039,0.084,0.126,0.133,0.208,0.175c1.229,0.635,2.594,0.958,3.949,1.24c12.834,2.674,26.54,2.586,39.143-1.021
		c0.395-0.112,0.642,0.091,0.578-0.314c-0.132-0.846-0.008-1.101-0.339-2.246c-0.176-0.608-1.361-0.133-1.99-0.055
		c-2.541,0.313-6.22,0.907-8.771,1.111c-2.928,0.235-6.383,0.04-9.314,0.216c-3.096,0.188-4.531,0.044-7.621-0.223
		c-5.155-0.445-10.348-0.896-15.322-2.32"/>
	<path fill="#B72027" d="M27.029,1.016c-2.97,0.743-5.95,1.489-8.992,1.829c-3.804,0.426-7.732,0.227-11.354,1.463
		s-6.969,4.497-6.664,8.311c0.239,3,2.7,5.452,5.488,6.585c2.788,1.135,5.877,1.203,8.886,1.256
		c4.193,0.075,8.387,0.15,12.579,0.225c2.212,0.039,4.436,0.078,6.625-0.23c2.211-0.311,4.356-0.972,6.49-1.629
		c3.267-1.008,6.534-2.015,9.801-3.021c1.228-0.378,2.489-0.775,3.477-1.596c0.347-0.288,0.667-0.649,0.753-1.093
		c0.165-0.853-0.562-1.594-1.221-2.16c-3.81-3.267-7.679-6.572-12.213-8.726c-4.533-2.152-9.891-3.049-14.599-1.313"/>
	<path fill="#046937" d="M19.14,9.55c-2.941-2.248-6.432-3.772-10.079-4.4c2.075,1.355,3.945,3.025,5.526,4.937
		c-3.26,0.908-6.44,2.092-9.499,3.534c3.35,0.494,6.848-0.063,9.88-1.572c-1.772,0.804-3.217,2.301-3.958,4.101
		c3.329-0.162,6.586-1.522,9.042-3.776c1.611,1.574,3.224,3.146,4.837,4.72c0.12-2.036-1.046-4.092-2.854-5.035
		c3.553,1.292,7.691,0.846,10.887-1.175c-3.446-0.229-6.903-0.306-10.356-0.229c0.152-2.643-0.034-5.304-0.55-7.899
		c-1.395,2.084-2.421,4.413-3.021,6.848"/>
</g>
</svg>
