<?xml version="1.0" encoding="utf-8"?>
<!-- Generator: Adobe Illustrator 16.0.2, SVG Export Plug-In . SVG Version: 6.00 Build 0)  -->
<!DOCTYPE svg PUBLIC "-//W3C//DTD SVG 1.1//EN" "http://www.w3.org/Graphics/SVG/1.1/DTD/svg11.dtd">
<svg version="1.1" id="Layer_1" xmlns="http://www.w3.org/2000/svg" xmlns:xlink="http://www.w3.org/1999/xlink" x="0px" y="0px"
	 width="27.631px" height="84.786px" viewBox="0 0 27.631 84.786" enable-background="new 0 0 27.631 84.786" xml:space="preserve">
<g>
	<path fill="#FFF6DA" d="M23.744,8.146c-0.046,0.33-0.091,0.659-0.136,0.989c0.772-0.174,1.637,0.22,2.011,0.917
		c-0.662,0.046-1.325,0.092-1.987,0.139c-0.094,1.015-0.275,2.021-0.539,3.006c0.762-0.019,1.317,0.794,1.357,1.555
		c0.039,0.761-0.271,1.49-0.471,2.225c-0.469,1.732-0.313,3.625,0.433,5.258l-13.312,0.005C8.479,22.24,5.84,22.24,3.268,21.735
		c0.681-1.833,0.795-3.871,0.322-5.769c-0.097-0.386-0.218-0.777-0.173-1.173c0.099-0.886,1.175-1.508,1.992-1.151
		c-0.56-1.551-0.734-2.691-1.367-2.456c-0.196,0.073-0.426-0.049-0.605-0.157c-0.47-0.288-0.713-1.238-0.166-1.308
		C3.973,9.633,4.708,9.494,5.25,9.592c0.025-0.655,0.052-1.31,0.079-1.964c6.173-0.006,12.346-0.012,18.52-0.018"/>
	<path fill="#5F3B2E" d="M24.65,22.03c0.216,0.838,0.415,1.681,0.613,2.522c1.31,5.556,2.629,11.204,2.322,16.904
		c-0.17,3.158-0.839,6.277-0.964,9.439c-0.183,4.611,0.795,9.2,0.76,13.815c-0.012,1.495-0.13,2.987-0.247,4.479
		c-0.35,4.407-0.697,8.813-1.045,13.219c-0.019,0.233-0.04,0.477-0.163,0.676c-0.169,0.272-0.492,0.403-0.797,0.506
		c-2.005,0.67-4.141,0.818-6.249,0.963c-5.988,0.41-12.519,0.675-17.402-2.813c-0.278-0.198-0.555-0.417-0.73-0.711
		c-0.182-0.304-0.237-0.664-0.28-1.015c-0.566-4.677,0.734-9.395,0.514-14.099c-0.096-2.043-0.479-4.062-0.695-6.097
		c-0.278-2.628-0.28-5.276-0.281-7.921L0,41.396c-0.001-1.747-0.002-3.499,0.207-5.232c0.184-1.522,0.526-3.021,0.87-4.516
		c0.739-3.22,1.479-6.439,2.219-9.66c0.045-0.197,0.097-0.408,0.245-0.548c0.217-0.205,0.556-0.186,0.853-0.155
		c6.895,0.718,13.092,0.945,20.018,0.686"/>
	<path fill="#412312" d="M25.552,4.779c-0.023,1.203-0.21,2.664-1.313,3.142c-0.341,0.147-0.72,0.17-1.09,0.19
		C18.233,8.374,13.308,8.45,8.386,8.339C7.37,8.317,6.329,8.281,5.392,7.893c-0.939-0.389-1.767-1.209-1.867-2.22
		C3.506,5.495,3.516,5.299,3.625,5.158C3.775,4.962,4.058,4.962,4.3,4.922c8.098-1.343,14.092,0.745,21.06-0.162"/>
	<path fill="#5F3B2E" d="M3.44,5.762C3.487,4.615,3.535,3.467,3.582,2.32C3.595,2.039,3.608,1.747,3.744,1.5
		c0.191-0.346,0.579-0.527,0.949-0.665C6.933,0.003,9.381-0.003,11.771,0c4.015,0.006,8.03,0.012,12.044,0.16
		c0.293,0.011,0.611,0.032,0.832,0.226c0.224,0.197,0.283,0.519,0.329,0.813c0.25,1.603,0.499,3.205,0.748,4.808
		C18.281,4.754,10.647,4.645,3.172,5.682"/>
</g>
</svg>
