<?xml version="1.0" encoding="utf-8"?>
<!-- Generator: Adobe Illustrator 16.0.2, SVG Export Plug-In . SVG Version: 6.00 Build 0)  -->
<!DOCTYPE svg PUBLIC "-//W3C//DTD SVG 1.1//EN" "http://www.w3.org/Graphics/SVG/1.1/DTD/svg11.dtd">
<svg version="1.1" id="Layer_1" xmlns="http://www.w3.org/2000/svg" xmlns:xlink="http://www.w3.org/1999/xlink" x="0px" y="0px"
	 width="74.228px" height="40.333px" viewBox="0 0 74.228 40.333" enable-background="new 0 0 74.228 40.333" xml:space="preserve">
<g>
	<path fill="#412312" d="M0.441,4.333c1.223-2.282,4.691-3.39,7.278-3.432C26.193,0.601,44.667,0.301,63.141,0
		c2.31-0.037,6.373,1.941,7.901,3.674C48.172,5.775,23.397,5.298,0.441,4.635"/>
	<path fill="#6B3315" d="M0.06,39.764c18.268,0.689,36.557,0.753,54.828,0.188c6.474-0.201,12.864-0.449,19.34-0.363
		c-1.87-9.668-2.456-19.584-1.738-29.404c0.095-1.282,0.209-2.584-0.047-3.844c-0.257-1.26,0.194-1.903-0.945-2.497
		c-0.958-0.498-3.161-0.352-4.24-0.326C48.941,3.94,30.555,3.637,12.24,4.061C10.316,4.105,8.393,4.15,6.469,4.194
		c-1.007,0.022-2.014,0.047-3.022,0.07C2.852,4.278,0.893,3.993,0.441,4.333C-0.347,4.927,0.163,8.569,0.16,9.645
		c-0.008,2.008-0.015,4.016-0.021,6.023C0.113,23.701,0.086,31.732,0.06,39.764"/>
	<path fill="#412312" d="M16.448,29.679c1.466-0.923,1.334-2.107,2.351-3.509c0.137-0.19,0.274-0.394,0.307-0.625
		c0.071-0.493-0.332-0.916-0.714-1.236c-2.379-1.993-5.271-3.368-8.318-3.955C9.9,20.32,9.695,20.299,9.575,20.426
		c-0.068,0.071-0.092,0.172-0.112,0.268c-0.119,0.552-0.239,1.104-0.359,1.655c-0.183,0.846-0.362,1.75-0.052,2.558
		c0.581,1.512,2.467,1.913,3.956,2.551c1.376,0.59,2.568,1.53,3.742,2.461"/>
	<path fill="#412312" d="M21.448,24.679c1.466-0.923,1.334-2.107,2.351-3.509c0.137-0.19,0.274-0.394,0.307-0.625
		c0.071-0.493-0.332-0.916-0.714-1.236c-2.379-1.993-5.271-3.368-8.318-3.955c-0.173-0.034-0.378-0.055-0.498,0.072
		c-0.068,0.071-0.092,0.172-0.112,0.268c-0.119,0.552-0.239,1.104-0.359,1.655c-0.183,0.846-0.362,1.75-0.052,2.558
		c0.581,1.512,2.467,1.913,3.956,2.551c1.376,0.59,2.568,1.53,3.742,2.461"/>
	<path fill="#412312" d="M31.448,30.679c1.466-0.923,1.334-2.107,2.351-3.509c0.137-0.19,0.274-0.394,0.307-0.625
		c0.071-0.493-0.332-0.916-0.714-1.236c-2.379-1.993-5.271-3.368-8.318-3.955c-0.173-0.034-0.378-0.055-0.498,0.072
		c-0.068,0.071-0.092,0.172-0.112,0.268c-0.119,0.552-0.239,1.104-0.359,1.655c-0.183,0.846-0.362,1.75-0.052,2.558
		c0.581,1.512,2.467,1.913,3.956,2.551c1.376,0.59,2.568,1.53,3.742,2.461"/>
	<path fill="#412312" d="M26.448,35.679c1.466-0.923,1.334-2.107,2.351-3.509c0.137-0.19,0.274-0.394,0.307-0.625
		c0.071-0.493-0.332-0.916-0.714-1.236c-2.379-1.993-5.271-3.368-8.318-3.955c-0.173-0.034-0.378-0.055-0.498,0.072
		c-0.068,0.071-0.092,0.172-0.112,0.268c-0.119,0.552-0.239,1.104-0.359,1.655c-0.183,0.846-0.362,1.75-0.052,2.558
		c0.581,1.512,2.467,1.913,3.956,2.551c1.376,0.59,2.568,1.53,3.742,2.461"/>
</g>
</svg>
