<?xml version="1.0" encoding="utf-8"?>
<!-- Generator: Adobe Illustrator 16.0.2, SVG Export Plug-In . SVG Version: 6.00 Build 0)  -->
<!DOCTYPE svg PUBLIC "-//W3C//DTD SVG 1.1//EN" "http://www.w3.org/Graphics/SVG/1.1/DTD/svg11.dtd">
<svg version="1.1" id="Layer_1" xmlns="http://www.w3.org/2000/svg" xmlns:xlink="http://www.w3.org/1999/xlink" x="0px" y="0px"
	 width="37.45px" height="35.141px" viewBox="0 0 37.45 35.141" enable-background="new 0 0 37.45 35.141" xml:space="preserve">
<g>
	<path fill="#6E1F3F" d="M23.145,8.079c1,0.376,2.059,0.641,2.953,1.225c1.439,0.939,2.273,2.608,2.578,4.299
		c0.306,1.691,0.145,3.428-0.023,5.138c-0.37,3.751-0.895,7.774-3.44,10.555c-0.806,0.881-1.778,1.589-2.743,2.291
		c-1.484,1.08-2.991,2.172-4.71,2.813c-1.778,0.665-3.714,0.819-5.609,0.709c-2.421-0.141-5.174-0.992-6.06-3.25
		c-0.389-0.989-0.342-2.092-0.243-3.15c0.209-2.23,0.641-4.488,1.756-6.43c2.384-4.152,7.325-6.043,10.694-9.445
		c1.65-1.665,3.084-3.804,5.349-4.406"/>
	<path fill="#A03242" d="M23.16,7.848c0.678,2.091,1.365,4.261,1.126,6.446c-0.078,0.706-0.251,1.396-0.452,2.078
		c-1.522,5.136-4.734,9.758-9.018,12.974c-1.194,0.896-2.488,1.695-3.922,2.108c-3,0.864-6.434-0.162-8.548-2.459
		c-2.114-2.299-2.859-5.739-1.989-8.737c0.412-1.418,1.145-2.717,1.88-3.997c1.562-2.72,3.183-5.454,5.419-7.654
		c2.235-2.199,5.184-3.839,8.32-3.873c1.528-0.017,3.034,0.344,4.502,0.768c1.169,0.338,2.555,1.012,2.552,2.229"/>
	<path fill="#5F3B2E" d="M23.189,9.497c0.903-1.158,1.904-2.239,2.988-3.229c0.522-0.476,1.072-0.94,1.45-1.537
		c0.542-0.855,0.732-1.973,1.54-2.583c0.459-0.347,1.045-0.468,1.569-0.706c0.099-0.046,0.203-0.101,0.255-0.198
		c0.087-0.166-0.016-0.367-0.137-0.509c-0.497-0.587-1.332-0.837-2.087-0.698c-0.756,0.139-1.422,0.635-1.845,1.277
		c-0.247,0.376-0.416,0.797-0.604,1.206c-0.657,1.434-1.559,2.754-2.655,3.887C23.327,6.756,22.962,7.1,22.77,7.543
		c-0.194,0.444-0.166,1.028,0.205,1.339"/>
	<path fill="#046937" d="M27.497,4.007c3.784,2.71,7.794,5.72,9.212,10.152c0.464,1.449,0.62,2.979,0.704,4.497
		c0.15,2.7-0.082,5.775-2.161,7.504c-0.79,0.657-1.871,1.169-2.087,2.174c-1.219-4.082-3.342-7.834-4.82-11.83
		c-1.479-3.995-2.288-8.491-0.8-12.483"/>
</g>
</svg>
