<?xml version="1.0" encoding="utf-8"?>
<!-- Generator: Adobe Illustrator 16.0.2, SVG Export Plug-In . SVG Version: 6.00 Build 0)  -->
<!DOCTYPE svg PUBLIC "-//W3C//DTD SVG 1.1//EN" "http://www.w3.org/Graphics/SVG/1.1/DTD/svg11.dtd">
<svg version="1.1" id="Layer_1" xmlns="http://www.w3.org/2000/svg" xmlns:xlink="http://www.w3.org/1999/xlink" x="0px" y="0px"
	 width="45.722px" height="52.375px" viewBox="0 0 45.722 52.375" enable-background="new 0 0 45.722 52.375" xml:space="preserve">
<g>
	<path fill="#FFF6DA" d="M22.659,20.606c4.552-0.009,9.104-0.019,13.654-0.028c2.276-0.005,4.551-0.012,6.827-0.014
		c1.45-0.002,1.801,0.317,1.994-1.108c0.131-0.966,0.014-2.04,0-3.015l0.089-0.278c0.328-1.568,0.657-3.177,0.416-4.76
		c-0.241-1.584-1.178-3.163-2.684-3.708c-0.693-0.251-1.445-0.267-2.183-0.281C29.262,7.199,17.75,6.985,6.238,6.77
		C4.921,6.745,3.49,6.756,2.446,7.56c-0.974,0.75-1.574,1.998-1.606,3.227c-0.194,7.268-0.2,13.379-0.425,20.177
		c-0.197,5.944-1.084,12.142,0.567,17.854c0.335,1.16,0.895,2.357,1.956,2.93c0.782,0.421,1.712,0.436,2.6,0.44
		c12.422,0.063,24.843,0.125,37.263,0.187c0.817,0.004,1.753-0.044,2.269-0.679c0.494-0.61,0.382-1.491,0.253-2.265
		c-1.606-9.681-0.411-18.953-0.206-28.872"/>
	<path fill="#2AAAE2" d="M45.482,17.057c-14.878-0.15-29.756-0.228-44.635-0.235c-0.575-2.666-0.74-5.421-0.486-8.137
		C0.4,8.265,0.465,7.812,0.762,7.511C1.086,7.184,1.3,6.833,1.759,6.803c4.144-0.27,8.583-0.131,12.736-0.184
		c1.52-0.019,3.045-0.023,4.556,0.144c1.227,0.135,3.075,0.029,4.3,0.173c1.722,0.201,3.154-0.193,4.888-0.199
		c5.117-0.016,9.905,0.709,15.023,0.692c0.456-0.001,0.934,0.003,1.333,0.224c0.729,0.406,0.914,1.356,0.989,2.186
		c0.227,2.504,0.164,5.034-0.189,7.524"/>
	<path fill="#416FB6" d="M45.019,21.378c-12.938,0.058-25.876,0.117-38.814,0.175c-1.508,0.007-3.024,0.013-4.511-0.237
		c-0.249-0.042-0.841-0.005-0.991-0.207c-0.131-0.174-0.171-0.301-0.174-0.519c-0.008-0.71,0.009-1.249,0-1.959
		c-0.005-0.489-0.197-2.484,0.288-2.536c1.096-0.115,1.689,0.006,2.49,0.006c11.821-0.004,23.643-0.008,35.462-0.012
		c2.009-0.001,4.91-0.624,6.596,0.467c0.282,0.183,0.152,1.878,0.176,2.157C45.595,19.38,45.571,19.946,45.019,21.378"/>
	<path fill="#CDCED0" d="M43.598,7.511c0.018-2.058,0.001-4.117-0.05-6.175c-0.007-0.292-0.026-0.612-0.228-0.824
		c-0.181-0.189-0.46-0.239-0.72-0.274c-1.89-0.253-3.803-0.244-5.71-0.235c-1.544,0.008-3.088,0.016-4.632,0.023
		c-0.18,0.001-0.372,0.005-0.524,0.102c-0.158,0.101-0.243,0.284-0.312,0.46c-0.866,2.241-0.289,4.753-0.469,7.149
		c4.083,0.099,8.17,0.096,12.253-0.007c0.216-0.006,0.519-0.151,0.412-0.338"/>
</g>
</svg>
