<?xml version="1.0" encoding="utf-8"?>
<!-- Generator: Adobe Illustrator 16.0.2, SVG Export Plug-In . SVG Version: 6.00 Build 0)  -->
<!DOCTYPE svg PUBLIC "-//W3C//DTD SVG 1.1//EN" "http://www.w3.org/Graphics/SVG/1.1/DTD/svg11.dtd">
<svg version="1.1" id="Layer_1" xmlns="http://www.w3.org/2000/svg" xmlns:xlink="http://www.w3.org/1999/xlink" x="0px" y="0px"
	 width="39.594px" height="160.018px" viewBox="0 0 39.594 160.018" enable-background="new 0 0 39.594 160.018"
	 xml:space="preserve">
<g>
	<path fill="#D2A12A" d="M11.043,24.729c7.298-2.65,11.932,0.189,17.897,0.285c0.665,5.458,6.495,8.84,8.329,14.023
		c0.769,2.175,0.782,4.535,0.787,6.843c0.01,5.235,0.021,10.471,0.031,15.706c0.009,4.489,0.018,8.984-0.337,13.46
		c-0.48,6.053,0.31,12.782,0.028,18.848c-0.24,5.159-0.115,9.268,0.269,14.418c0.703,9.413,0.659,18.856,0.865,28.288
		c0.1,4.562,0.311,9.109,0.565,13.665c0.18,3.233,0.608,7.176-2.93,8.832c-1.243,0.581-2.651,0.676-4.023,0.742
		c-9.049,0.439-18.137,0.065-27.119-1.116c-0.791-0.104-1.61-0.226-2.28-0.659c-1.008-0.653-1.472-1.871-1.809-3.023
		c-1.102-3.766-1.519-7.73-1.225-11.644c0.277-3.68,1.172-7.285,1.568-10.953c0.435-4.036,0.261-8.109,0.132-12.167
		c-0.416-13.119-0.356-26.254,0.18-39.369c0.25-6.102,0.288-12.204,0.724-18.281c0.46-6.425-0.111-10.483-0.594-16.946
		c-0.157-2.099,0.598-4.961,1.116-7.143c0.404-1.702,1.583-3.282,2.553-4.698C6.232,33.165,11.428,24.734,11.043,24.729"/>
	<path fill="#44612D" d="M11.556,23.892c0.192-2.837,0.385-5.674,0.577-8.511c0.05-0.736,0.3-1.686,1.037-1.729
		c-0.874-0.769-0.976-2.098-0.789-3.246c0.186-1.148,0.597-2.28,0.51-3.441c-0.144-1.948-1.635-4.023-0.572-5.662
		c0.781-1.205,2.47-1.316,3.906-1.3c3.045,0.034,6.091,0.067,9.136,0.103c1.308,0.015,2.87,0.175,3.48,1.332
		c1.036,1.963-1.846,4.176-1.239,6.312c0.187,0.658,0.69,1.192,0.874,1.852c0.272,0.979-0.203,1.988-0.351,2.992
		c-0.167,1.137,0.09,2.288,0.288,3.42c0.462,2.649,0.602,5.354,0.417,8.038c-0.016,0.231-0.04,0.478-0.18,0.664
		c-0.267,0.354-0.8,0.319-1.239,0.255c-5.327-0.787-10.762-0.843-16.105-0.168"/>
	<path fill="#44612D" d="M7.312,66.119c0.212-2.262,0.423-4.525,0.635-6.787c0.9-0.039,1.8-0.079,2.7-0.118
		c-0.529-0.859,0.027-2.053,0.897-2.564c0.871-0.511,1.935-0.526,2.944-0.526c3.525-0.003,7.049-0.005,10.573-0.007
		c1.192-0.001,2.445,0.013,3.483,0.599c1.039,0.586,1.74,1.95,1.184,3.005c0.547,0.047,1.095,0.093,1.642,0.139
		c0.741,9.21,1.167,18.444,1.276,27.683c0.047,3.97,0.034,7.955-0.491,11.891c-0.441,3.31,1.242,8.696,1.017,12.027
		c-0.403,5.96-1.434,9.749,0.008,15.545c-8.461-0.044-16.924,0.248-25.362,0.877c0.564-15.462-1.163-28.208-0.599-43.67
		c0.193-5.298-0.005-7.865-0.01-18.234"/>
</g>
</svg>
