<?xml version="1.0" encoding="utf-8"?>
<!-- Generator: Adobe Illustrator 16.0.2, SVG Export Plug-In . SVG Version: 6.00 Build 0)  -->
<!DOCTYPE svg PUBLIC "-//W3C//DTD SVG 1.1//EN" "http://www.w3.org/Graphics/SVG/1.1/DTD/svg11.dtd">
<svg version="1.1" id="Layer_1" xmlns="http://www.w3.org/2000/svg" xmlns:xlink="http://www.w3.org/1999/xlink" x="0px" y="0px"
	 width="50.99px" height="143.174px" viewBox="0 0 50.99 143.174" enable-background="new 0 0 50.99 143.174" xml:space="preserve">
<g>
	<path fill="#ED2024" d="M17.531,8.571c0.903-1.855,1.278-3.965,1.072-6.019c-0.033-0.326-0.067-0.697,0.15-0.942
		c0.126-0.143,0.313-0.213,0.493-0.274c4.678-1.62,9.854-1.771,14.619-0.428c0.125,0.035,0.257,0.076,0.344,0.172
		c0.097,0.107,0.119,0.261,0.136,0.402c0.274,2.272,0.345,4.569,0.212,6.854C29.019,9.769,23.156,11.2,17.661,9.609"/>
	<path fill="#FFCB0B" d="M40.507,22.938c1.665,1.087,3.565,1.865,4.952,3.29c3.572,3.67,2.293,9.644,3.071,14.705
		c0.336,2.183,1.101,4.338,0.917,6.538s-1.764,4.534-3.972,4.524c1.244,0.521,1.895,1.964,1.89,3.313
		c-0.004,1.348-0.532,2.633-1.051,3.877c3.915,1.87,5.31,7.592,2.696,11.055c0.227,1.504,2.567,2.575,1.84,3.911
		c-0.178,0.328-0.511,0.536-0.784,0.79c-0.969,0.9-1.165,2.339-1.269,3.657c-0.799,10.116,0.429,20.27,0.714,30.414
		c0.175,6.222-0.019,12.505-1.236,18.626c-0.905,4.55-2.433,12.735-7.433,14.74c-1.577,0.632-3.323,0.648-5.021,0.657
		c-8.536,0.045-17.071,0.09-25.607,0.136c-0.793,0.004-1.622,0-2.326-0.364c-0.669-0.345-1.142-0.973-1.552-1.604
		c-2.847-4.381-3.72-9.769-3.803-14.992c-0.084-5.226,0.552-10.443,0.42-15.667c-0.098-3.863-0.615-7.701-0.9-11.556
		c-0.333-4.513-0.347-9.043-0.361-13.567c-0.018-6.104-0.036-12.214,0.423-18.299c0.048-0.63,0.1-1.266,0.018-1.892
		c-0.065-0.495-0.214-0.976-0.284-1.471c-0.36-2.523,1.703-5.13,4.241-5.36c-1.267-1.286-1.643-3.369-0.906-5.017
		c0.27-0.604,0.684-1.243,0.48-1.872c-0.157-0.485-0.631-0.78-1.041-1.084c-6.185-4.598,0.208-13.964,1.3-19.196
		c0.424-2.032,0.571-4.165,1.498-6.022c1.441-2.887,4.456-4.561,7.096-6.417c2.64-1.854,5.253-4.501,5.122-7.725
		c-0.02-0.5-0.093-1.055,0.212-1.451c0.324-0.422,0.928-0.475,1.459-0.492c2.662-0.087,5.323-0.174,7.984-0.261
		c4.535-0.147,4.034,3.056,5.184,6.314C35.587,18.318,37.712,21.114,40.507,22.938"/>
	<path fill="#ED2024" d="M1.484,76.979c5.652,3.704,12.818,3.935,19.574,4.044c9.298,0.151,18.776,0.278,27.669-2.438
		c0.302,15.199,0.603,30.399,0.904,45.6c0.006,0.289,0.003,0.605-0.179,0.829c-0.194,0.241-0.53,0.3-0.836,0.344
		c-13.418,1.907-26.959,3.819-40.475,2.828c-1.956-0.143-4.157-0.486-5.281-2.093c-0.661-0.944-0.804-2.146-0.928-3.292
		c-1.66-15.438-3.307-31.183-0.106-46.375"/>
</g>
</svg>
