<?xml version="1.0" encoding="utf-8"?>
<!-- Generator: Adobe Illustrator 16.0.2, SVG Export Plug-In . SVG Version: 6.00 Build 0)  -->
<!DOCTYPE svg PUBLIC "-//W3C//DTD SVG 1.1//EN" "http://www.w3.org/Graphics/SVG/1.1/DTD/svg11.dtd">
<svg version="1.1" id="Layer_1" xmlns="http://www.w3.org/2000/svg" xmlns:xlink="http://www.w3.org/1999/xlink" x="0px" y="0px"
	 width="56.189px" height="92.75px" viewBox="0 0 56.189 92.75" enable-background="new 0 0 56.189 92.75" xml:space="preserve">
<g>
	<path fill="#FFEDD5" d="M48.448,80.556c-0.888-2.98-0.014-6.155,0.512-9.219c0.81-4.733,0.771-9.564,0.732-14.365
		c-0.055-6.601-0.109-13.201-0.163-19.802c-13.556,0.219-29.394,0.198-42.807-0.064c0.834,11.546-1.91,23.231-0.878,34.799
		c0.45,5.047,1.576,10.376-0.485,15.005c14.086-1.104,28.271-0.947,42.33,0.468c1.361,0.137,3.282-0.188,3.253-1.556
		c-0.008-0.398-0.21-0.764-0.411-1.108C49.748,83.372,48.891,82.046,48.448,80.556"/>
	<path fill="#44A84F" d="M49.528,37.17c-0.029-3.467-0.057-6.933-0.086-10.4c-0.022-2.596,0.027-5.412,1.623-7.46
		c0.853-1.095,2.064-1.847,3.054-2.823c0.988-0.975,1.782-2.362,1.438-3.707c-8.29-0.333-16.368,0.836-24.594,0.113
		c-10.176-0.894-20.47-0.443-30.528,1.336c1.063,2.122,4.521,2.046,5.956,4.022c1.407,1.939,0.16,4.585-0.351,6.927
		c-0.649,2.988,0.022,6.081,0.407,9.115c0.119,0.937,0.208,1.875,0.276,2.814C20.136,37.368,35.974,37.389,49.528,37.17"/>
	<path fill="#046937" d="M0.276,14.047C0.185,9.378,0.092,4.709,0,0.04c18.305-0.32,36.58,1.357,54.812,3.032
		c0.441,0.041,0.939,0.113,1.193,0.476c0.181,0.257,0.186,0.594,0.185,0.908c-0.015,2.745-0.027,5.49-0.04,8.235
		c-12.207-0.029-22.288,1.8-36.005,1.357C5.941,13.589,7.506,13.22,0.276,14.047"/>
	<path fill="#046937" d="M5.359,86.951c-2.113,0.523-3.912,2.175-4.613,4.237c-0.093,0.272-0.167,0.567-0.085,0.842
		c0.2,0.675,1.109,0.757,1.812,0.708c17.533-1.221,35.15-1.232,52.684-0.03c0.156-2.616-1.201-5.701-3.801-6.034
		c-0.771-0.099-1.539,0.197-2.317,0.196C33.938,86.86,20.031,81.502,5.359,86.951"/>
	<path fill="#D06728" d="M16.984,62.519c-1.677,0.475-4.234,1.899-4.55,3.613s0.417,3.578,1.815,4.619
		c1.624,1.209,3.809,1.246,5.834,1.233c2.6-0.017,5.2-0.034,7.8-0.051c2.428-0.016,4.9-0.039,7.211-0.783
		c2.312-0.743,4.479-2.335,5.3-4.619c0.604-1.677,0.429-3.533,0.049-5.273c-0.07-0.326-0.168-0.68-0.442-0.869
		c-0.292-0.201-0.683-0.147-1.03-0.083C31.483,61.688,24.494,63.777,16.984,62.519"/>
	<path fill="#F19121" d="M12.145,57.464c1.309-1.218,3.381-1.046,4.982-1.841c0.698-0.347,1.29-0.87,1.938-1.306
		c3.808-2.57,8.863-1.827,13.379-0.984c1.88,0.351,3.999,0.868,4.923,2.542c0.689,1.248,0.479,2.837-0.181,4.1
		c-0.66,1.264-1.711,2.271-2.744,3.254c0.195-1.21-0.574-2.411-1.592-3.093c-1.019-0.681-2.249-0.949-3.448-1.204
		c-5.911-1.257-12.044-2.515-17.941-1.197"/>
	<path fill="#F9D980" d="M11.467,59.136c0.396,1.514,0.646,1.139,2.08,1.845c4.785,2.352,11.059,4.489,16.417,4.679
		c1.711,0.06,3.78-0.348,4.374-1.907c0.381-1,0.586-2.298-0.167-3.073c-0.754-0.776-2.338-1.466-3.369-1.832
		c-5.418-1.928-11.599-2.218-17.368-2.118c-0.316,0.005-1.028,0.152-1.338,0.215C10.712,57.227,11.191,58.986,11.467,59.136"/>
</g>
</svg>
