<?xml version="1.0" encoding="utf-8"?>
<!-- Generator: Adobe Illustrator 16.0.2, SVG Export Plug-In . SVG Version: 6.00 Build 0)  -->
<!DOCTYPE svg PUBLIC "-//W3C//DTD SVG 1.1//EN" "http://www.w3.org/Graphics/SVG/1.1/DTD/svg11.dtd">
<svg version="1.1" id="Layer_1" xmlns="http://www.w3.org/2000/svg" xmlns:xlink="http://www.w3.org/1999/xlink" x="0px" y="0px"
	 width="54.014px" height="89.16px" viewBox="0 0 54.014 89.16" enable-background="new 0 0 54.014 89.16" xml:space="preserve">
<g>
	<path fill="#FFEDD5" d="M46.572,77.438c-0.853-2.864-0.012-5.917,0.492-8.862c0.778-4.55,0.742-9.193,0.703-13.809
		c-0.052-6.345-0.104-12.69-0.156-19.036c-13.03,0.211-28.256,0.19-41.149-0.061c0.801,11.099-1.836,22.331-0.844,33.452
		c0.433,4.852,1.515,9.974-0.466,14.424c13.541-1.062,27.177-0.91,40.69,0.45c1.31,0.131,3.155-0.181,3.128-1.496
		c-0.008-0.383-0.201-0.734-0.396-1.065C47.822,80.145,46.998,78.87,46.572,77.438"/>
	<path fill="#44A84F" d="M47.611,35.73c-0.028-3.332-0.056-6.665-0.084-9.997c-0.021-2.496,0.027-5.203,1.561-7.172
		c0.821-1.053,1.986-1.775,2.936-2.713c0.95-0.938,1.715-2.271,1.383-3.563c-7.97-0.32-15.735,0.804-23.642,0.108
		c-9.783-0.859-19.678-0.427-29.348,1.284c1.021,2.04,4.346,1.967,5.725,3.866c1.354,1.863,0.154,4.407-0.336,6.659
		c-0.625,2.873,0.021,5.845,0.393,8.762c0.113,0.9,0.198,1.803,0.265,2.705C19.355,35.922,34.581,35.941,47.611,35.73"/>
	<path fill="#046937" d="M0.266,13.503C0.177,9.016,0.088,4.526,0,0.038C17.597-0.27,35.164,1.342,52.69,2.952
		c0.424,0.039,0.902,0.108,1.146,0.457c0.173,0.247,0.179,0.571,0.177,0.873c-0.013,2.639-0.025,5.278-0.039,7.916
		c-11.733-0.027-21.425,1.729-34.61,1.305C5.711,13.063,7.216,12.708,0.266,13.503"/>
	<path fill="#046937" d="M5.152,83.585c-2.032,0.502-3.763,2.091-4.436,4.073c-0.089,0.261-0.161,0.545-0.082,0.809
		c0.193,0.649,1.067,0.729,1.742,0.682c16.854-1.175,33.789-1.185,50.645-0.029c0.15-2.515-1.155-5.481-3.653-5.801
		c-0.743-0.096-1.48,0.189-2.229,0.188C32.624,83.498,19.255,78.347,5.152,83.585"/>
	<path fill="#046937" d="M23.043,60.786c-0.629,0.291-1.34,0.587-1.992,0.352c-0.885-0.317-1.167-1.397-1.692-2.178
		c-0.543-0.804-1.644-1.355-2.497-0.896c-0.465,0.251-0.746,0.733-1.086,1.138c-0.769,0.914-1.889,1.472-2.68,2.366
		c-1.186,1.342-1.46,3.415-0.664,5.019c0.082,0.168,0.18,0.334,0.325,0.45c0.382,0.303,0.94,0.164,1.393-0.02
		c0.451-0.185,0.955-0.401,1.405-0.216c0.343,0.142,0.555,0.482,0.847,0.709c0.438,0.342,1.023,0.408,1.577,0.447
		c1.017,0.073,2.076,0.086,3.012-0.322c0.934-0.407,1.709-1.346,1.62-2.361c-0.039-0.452-0.239-0.872-0.369-1.308
		c-0.13-0.435-0.183-0.933,0.053-1.319c0.185-0.303,0.509-0.483,0.766-0.727c0.255-0.244,0.447-0.636,0.273-0.942"/>
	<path fill="#44A84F" d="M20.396,68.802c0.035-0.906-0.384-1.819-1.094-2.385c-0.71-0.564-1.693-0.769-2.569-0.531
		c-0.461,0.125-0.916,0.365-1.387,0.291c-0.2-0.03-0.386-0.117-0.569-0.204c-0.445-0.209-0.892-0.419-1.338-0.628
		c-0.162-0.075-0.336-0.164-0.414-0.325c-0.147-0.311,0.139-0.638,0.281-0.949c0.164-0.36,0.13-0.805-0.088-1.134
		c-0.813,0.77-1.625,1.539-2.438,2.309c-0.182,0.172-0.377,0.441-0.231,0.646c0.055,0.078,0.147,0.12,0.235,0.158
		c0.487,0.212,0.975,0.423,1.463,0.635c0.334,0.145,0.675,0.295,0.938,0.545c0.264,0.251,0.44,0.627,0.354,0.98
		c-0.061,0.247-0.237,0.452-0.308,0.696c-0.139,0.479,0.178,0.998,0.612,1.243c0.434,0.244,0.955,0.272,1.453,0.265
		c1.148-0.018,2.295-0.2,3.393-0.538c0.634-0.195,1.311-0.493,1.592-1.094"/>
	<path fill="#A45024" d="M21.98,57.105c-1.612,0.457-4.071,1.826-4.374,3.473c-0.303,1.648,0.401,3.44,1.744,4.44
		c1.562,1.163,3.662,1.198,5.608,1.185c2.5-0.016,4.999-0.031,7.498-0.049c2.334-0.015,4.711-0.037,6.933-0.752
		s4.305-2.244,5.095-4.44c0.579-1.611,0.411-3.396,0.047-5.068c-0.068-0.313-0.162-0.654-0.426-0.836
		c-0.28-0.193-0.655-0.142-0.99-0.079C35.918,56.307,29.198,58.314,21.98,57.105"/>
	<path fill="#D06728" d="M17.327,52.246c1.258-1.171,3.25-1.006,4.79-1.77c0.671-0.333,1.241-0.836,1.862-1.255
		c3.661-2.471,8.52-1.757,12.86-0.946c1.808,0.338,3.845,0.834,4.733,2.443c0.662,1.199,0.46,2.727-0.174,3.941
		c-0.635,1.215-1.646,2.184-2.638,3.128c0.188-1.163-0.552-2.317-1.53-2.973c-0.979-0.655-2.163-0.913-3.315-1.158
		c-5.682-1.208-11.577-2.418-17.246-1.149"/>
	<path fill="#9BC53D" d="M16.677,53.854c0.381,1.455,0.62,1.095,2,1.773c4.599,2.261,10.629,4.315,15.78,4.497
		c1.646,0.059,3.635-0.334,4.205-1.833c0.366-0.961,0.563-2.208-0.161-2.953c-0.724-0.746-2.247-1.409-3.237-1.762
		c-5.209-1.853-11.15-2.132-16.697-2.036c-0.304,0.005-0.988,0.146-1.286,0.207C15.95,52.019,16.411,53.709,16.677,53.854"/>
	<path fill="#046937" d="M31.367,54.308c0.374-0.054,0.336,0.111,0.402,0.483c0.071,0.401-0.47,0.598-0.876,0.632
		c-0.096,0.009-0.203,0.014-0.276-0.051c-0.047-0.041-0.068-0.103-0.088-0.163c-0.107-0.333-0.172-0.727,0.034-1.009
		C30.771,53.917,31.336,53.959,31.367,54.308"/>
	<path fill="#046937" d="M27.045,54.308c0.373-0.054,0.336,0.111,0.401,0.483c0.071,0.401-0.47,0.598-0.876,0.632
		c-0.096,0.009-0.203,0.014-0.275-0.051c-0.048-0.041-0.069-0.103-0.089-0.163c-0.107-0.333-0.172-0.727,0.034-1.009
		C26.447,53.917,27.013,53.959,27.045,54.308"/>
	<path fill="#046937" d="M19.396,54.308c0.374-0.054,0.336,0.111,0.402,0.483c0.071,0.401-0.47,0.598-0.876,0.632
		c-0.096,0.009-0.203,0.014-0.276-0.051c-0.047-0.041-0.069-0.103-0.088-0.163c-0.106-0.333-0.172-0.727,0.034-1.009
		C18.799,53.917,19.363,53.959,19.396,54.308"/>
	<path fill="#046937" d="M29.04,56.303c0.374-0.053,0.336,0.111,0.401,0.483c0.071,0.401-0.47,0.598-0.876,0.633
		c-0.096,0.008-0.203,0.013-0.275-0.052c-0.048-0.041-0.069-0.103-0.089-0.163c-0.106-0.333-0.172-0.727,0.034-1.009
		C28.442,55.912,29.008,55.954,29.04,56.303"/>
	<path fill="#046937" d="M32.803,57.108c-0.377,0.025-0.327-0.137-0.365-0.512c-0.041-0.406,0.512-0.561,0.92-0.566
		c0.096-0.001,0.204,0.003,0.271,0.071c0.044,0.044,0.062,0.108,0.076,0.169c0.082,0.34,0.117,0.737-0.109,1.004
		C33.369,57.542,32.809,57.459,32.803,57.108"/>
	<path fill="#046937" d="M36.793,57.108c-0.377,0.025-0.327-0.137-0.365-0.512c-0.041-0.406,0.512-0.561,0.92-0.566
		c0.096-0.001,0.204,0.003,0.271,0.071c0.044,0.044,0.062,0.108,0.077,0.169c0.082,0.34,0.116,0.737-0.109,1.004
		C37.359,57.542,36.799,57.459,36.793,57.108"/>
	<path fill="#046937" d="M22.699,54.465c0.383,0.119,0.303,0.137,0.685,0.256c0.071,0.022-0.132,0.225-0.124,0.298
		c0.012,0.092-0.102,0.143-0.191,0.162c-0.336,0.071-0.689,0.114-1.02,0.019c-0.329-0.094-0.904-0.428-0.686-0.691
		C21.647,54.164,22.254,54.479,22.699,54.465"/>
	<path fill="#046937" d="M24.224,54.671c-0.086-0.392-0.031-0.331-0.118-0.723c-0.016-0.071,0.261,0.003,0.32-0.04
		c0.074-0.055,0.174,0.019,0.236,0.087c0.229,0.256,0.44,0.54,0.522,0.874c0.081,0.333,0.077,0.997-0.261,0.939
		C24.485,55.733,24.457,55.05,24.224,54.671"/>
	<path fill="#046937" d="M19.373,52.47c0.384,0.119,0.304,0.137,0.686,0.256c0.071,0.021-0.132,0.225-0.124,0.298
		c0.011,0.092-0.103,0.142-0.192,0.162c-0.336,0.071-0.688,0.114-1.019,0.019c-0.329-0.094-0.904-0.428-0.686-0.691
		C18.321,52.168,18.929,52.483,19.373,52.47"/>
	<path fill="#046937" d="M35.145,57.671c0.396-0.067,0.332-0.017,0.728-0.085c0.071-0.013-0.017,0.261,0.024,0.321
		c0.052,0.077-0.025,0.174-0.097,0.232c-0.266,0.217-0.561,0.416-0.897,0.482s-1,0.032-0.927-0.303
		C34.07,57.883,34.755,57.887,35.145,57.671"/>
	<path fill="#046937" d="M24.694,56.46c0.383,0.119,0.303,0.137,0.685,0.256c0.071,0.022-0.132,0.226-0.124,0.298
		c0.012,0.093-0.102,0.143-0.191,0.162c-0.336,0.071-0.689,0.114-1.019,0.02c-0.33-0.095-0.904-0.429-0.686-0.692
		C23.643,56.159,24.249,56.474,24.694,56.46"/>
	<path fill="#046937" d="M28.353,52.802c0.383,0.119,0.303,0.138,0.685,0.256c0.071,0.022-0.132,0.226-0.124,0.299
		c0.011,0.092-0.102,0.142-0.192,0.161c-0.336,0.071-0.688,0.114-1.018,0.02c-0.33-0.094-0.905-0.428-0.686-0.692
		C27.3,52.501,27.907,52.816,28.353,52.802"/>
	<path fill="#046937" d="M27.688,57.79c0.383,0.119,0.303,0.137,0.685,0.256c0.071,0.022-0.132,0.226-0.124,0.298
		c0.011,0.093-0.102,0.143-0.192,0.162c-0.336,0.071-0.688,0.114-1.018,0.02c-0.33-0.094-0.905-0.428-0.686-0.692
		C26.635,57.489,27.242,57.805,27.688,57.79"/>
	<path fill="#046937" d="M35.336,54.465c0.383,0.119,0.303,0.137,0.685,0.256c0.071,0.022-0.132,0.225-0.124,0.298
		c0.011,0.092-0.102,0.143-0.191,0.162c-0.336,0.071-0.689,0.114-1.02,0.019c-0.329-0.094-0.904-0.428-0.686-0.691
		C34.283,54.164,34.891,54.479,35.336,54.465"/>
	<path fill="#046937" d="M32.01,57.79c0.384,0.119,0.304,0.137,0.686,0.256c0.071,0.022-0.132,0.226-0.124,0.298
		c0.011,0.093-0.103,0.143-0.192,0.162c-0.336,0.071-0.688,0.114-1.018,0.02c-0.33-0.094-0.905-0.428-0.687-0.692
		C30.958,57.489,31.565,57.805,32.01,57.79"/>
	<path fill="#046937" d="M29.486,54.776c0.207,0.343,0.136,0.303,0.342,0.647c0.038,0.063-0.248,0.078-0.29,0.14
		c-0.053,0.075-0.171,0.039-0.252-0.007c-0.298-0.169-0.59-0.372-0.773-0.662c-0.184-0.289-0.393-0.92-0.054-0.973
		C28.899,53.853,29.145,54.491,29.486,54.776"/>
	<path fill="#046937" d="M23.364,52.137c0.383,0.119,0.303,0.137,0.685,0.256c0.071,0.022-0.132,0.226-0.124,0.298
		c0.012,0.093-0.102,0.143-0.191,0.162c-0.336,0.071-0.689,0.114-1.02,0.02c-0.329-0.094-0.903-0.428-0.686-0.692
		C22.313,51.836,22.919,52.151,23.364,52.137"/>
	<path fill="#44A84F" d="M6.585,62.866c0.79-0.206,1.537-0.572,2.185-1.069c0.413-0.318,0.806-0.726,0.887-1.241
		c0.072-0.459-0.115-0.912-0.232-1.36c-0.198-0.758-0.199-1.564-0.005-2.321c0.04-0.156,0.092-0.314,0.19-0.441
		c0.135-0.172,0.343-0.268,0.547-0.349c0.834-0.328,1.731-0.497,2.627-0.494c0.143,0,0.288,0.005,0.42,0.061
		c0.185,0.074,0.316,0.234,0.467,0.363c0.505,0.431,1.226,0.513,1.883,0.425c0.656-0.087,1.284-0.32,1.934-0.45
		c1.525-0.308,3.112-0.033,4.593,0.44c-1.732,1.156-3.819,1.618-5.766,2.362c-3.334,1.275-6.356,3.424-9.858,4.114"/>
	<path fill="#046937" d="M6.363,62.628c0.878,0.519,1.98,0.265,2.991,0.131c0.282-0.037,0.602-0.053,0.818,0.132
		c0.129,0.109,0.197,0.272,0.284,0.419c0.333,0.562,0.962,0.9,1.604,1.024c0.643,0.123,1.305,0.057,1.953-0.027
		c1.014-0.132,2.122-0.366,2.736-1.184c0.446-0.594,0.543-1.394,0.984-1.991c0.705-0.956,2.032-1.122,3.147-1.528
		c1.289-0.472,2.518-1.556,2.525-2.928c0-0.091-0.007-0.188-0.062-0.26c-0.048-0.064-0.126-0.101-0.202-0.125
		c-0.812-0.258-1.596,0.382-2.347,0.781c-0.915,0.487-1.966,0.638-2.951,0.959c-1.019,0.332-1.969,0.846-2.974,1.218
		c-0.825,0.306-1.683,0.515-2.523,0.778c-2.152,0.672-4.181,1.688-6.197,2.699"/>
</g>
</svg>
