<?xml version="1.0" encoding="utf-8"?>
<!-- Generator: Adobe Illustrator 16.0.2, SVG Export Plug-In . SVG Version: 6.00 Build 0)  -->
<!DOCTYPE svg PUBLIC "-//W3C//DTD SVG 1.1//EN" "http://www.w3.org/Graphics/SVG/1.1/DTD/svg11.dtd">
<svg version="1.1" id="Layer_1" xmlns="http://www.w3.org/2000/svg" xmlns:xlink="http://www.w3.org/1999/xlink" x="0px" y="0px"
	 width="56.863px" height="93.863px" viewBox="0 0 56.863 93.863" enable-background="new 0 0 56.863 93.863" xml:space="preserve">
<g>
	<path fill="#FFEDD5" d="M49.029,81.523c-0.897-3.016-0.014-6.229,0.518-9.33c0.82-4.789,0.782-9.678,0.742-14.536
		c-0.056-6.681-0.111-13.36-0.166-20.04c-13.718,0.222-29.746,0.2-43.319-0.064c0.844,11.685-1.933,23.509-0.889,35.216
		c0.456,5.108,1.595,10.501-0.491,15.186c14.255-1.117,28.61-0.958,42.837,0.474c1.379,0.138,3.322-0.19,3.293-1.575
		c-0.008-0.402-0.213-0.772-0.416-1.121C50.345,84.373,49.479,83.032,49.029,81.523"/>
	<path fill="#44A84F" d="M50.123,37.616c-0.029-3.508-0.059-7.016-0.088-10.523c-0.021-2.628,0.028-5.478,1.643-7.55
		c0.863-1.109,2.091-1.87,3.091-2.857s1.804-2.39,1.455-3.751c-8.39-0.338-16.565,0.846-24.888,0.114
		c-10.3-0.905-20.717-0.449-30.897,1.352c1.077,2.147,4.576,2.07,6.028,4.07c1.425,1.962,0.162,4.64-0.354,7.01
		c-0.658,3.024,0.022,6.154,0.412,9.224c0.121,0.948,0.21,1.898,0.279,2.849C20.377,37.817,36.405,37.838,50.123,37.616"/>
	<path fill="#046937" d="M0.279,14.216L0,0.04c18.525-0.324,37.02,1.374,55.47,3.069c0.445,0.041,0.95,0.114,1.208,0.481
		c0.182,0.26,0.187,0.601,0.186,0.919c-0.014,2.778-0.027,5.555-0.04,8.333c-12.354-0.028-22.556,1.822-36.437,1.374
		C6.013,13.752,7.597,13.379,0.279,14.216"/>
	<path fill="#046937" d="M5.424,87.995c-2.14,0.529-3.96,2.201-4.669,4.288c-0.094,0.275-0.169,0.574-0.086,0.852
		c0.203,0.684,1.123,0.767,1.834,0.717c17.743-1.236,35.571-1.246,53.315-0.03c0.158-2.647-1.217-5.771-3.847-6.107
		c-0.782-0.1-1.558,0.2-2.346,0.199C34.345,87.903,20.271,82.481,5.424,87.995"/>
	<path fill="#D06728" d="M20.689,60.119c-1.697,0.48-4.286,1.922-4.605,3.657c-0.318,1.733,0.423,3.62,1.838,4.674
		c1.644,1.224,3.854,1.261,5.903,1.247c2.632-0.018,5.264-0.034,7.895-0.052c2.457-0.016,4.959-0.038,7.298-0.792
		c2.339-0.753,4.532-2.362,5.363-4.675c0.609-1.696,0.433-3.575,0.05-5.336c-0.072-0.33-0.171-0.688-0.449-0.88
		c-0.295-0.203-0.69-0.148-1.042-0.084C35.362,59.278,28.288,61.391,20.689,60.119"/>
	<path fill="#F19121" d="M15.791,55.003c1.325-1.232,3.422-1.06,5.042-1.863c0.707-0.352,1.307-0.881,1.961-1.322
		c3.854-2.6,8.969-1.849,13.54-0.995c1.902,0.355,4.046,0.878,4.982,2.572c0.696,1.263,0.484,2.871-0.184,4.149
		s-1.731,2.299-2.777,3.293c0.197-1.225-0.58-2.44-1.611-3.13c-1.03-0.689-2.276-0.962-3.489-1.22
		c-5.981-1.271-12.188-2.545-18.156-1.21"/>
	<path fill="#F9D980" d="M15.105,56.695c0.401,1.532,0.653,1.153,2.105,1.867c4.842,2.38,11.189,4.543,16.613,4.734
		c1.732,0.062,3.826-0.352,4.427-1.929c0.386-1.012,0.593-2.326-0.169-3.111c-0.763-0.784-2.365-1.482-3.409-1.854
		c-5.483-1.95-11.738-2.244-17.577-2.144c-0.32,0.006-1.041,0.154-1.354,0.219C14.342,54.763,14.826,56.543,15.105,56.695"/>
	<path fill="#FFCB0B" d="M30.571,57.172c0.394-0.056,0.354,0.118,0.423,0.509c0.075,0.424-0.493,0.63-0.922,0.666
		c-0.101,0.009-0.214,0.014-0.29-0.053c-0.05-0.044-0.072-0.108-0.094-0.172c-0.112-0.351-0.18-0.765,0.037-1.063
		S30.539,56.805,30.571,57.172"/>
	<path fill="#FFCB0B" d="M26.021,57.172c0.393-0.056,0.354,0.118,0.423,0.509c0.075,0.424-0.494,0.63-0.922,0.666
		c-0.101,0.009-0.214,0.014-0.29-0.053c-0.05-0.044-0.073-0.108-0.094-0.172c-0.112-0.351-0.181-0.765,0.037-1.063
		C25.392,56.762,25.987,56.805,26.021,57.172"/>
	<path fill="#FFCB0B" d="M17.969,57.172c0.393-0.056,0.354,0.118,0.423,0.509c0.074,0.424-0.494,0.63-0.922,0.666
		c-0.102,0.009-0.214,0.014-0.29-0.053c-0.05-0.044-0.073-0.108-0.094-0.172c-0.112-0.351-0.181-0.765,0.037-1.063
		C17.34,56.762,17.936,56.805,17.969,57.172"/>
	<path fill="#FFCB0B" d="M28.121,59.273c0.393-0.056,0.354,0.118,0.423,0.509c0.075,0.423-0.494,0.629-0.922,0.666
		c-0.101,0.009-0.214,0.014-0.29-0.053c-0.05-0.044-0.073-0.109-0.094-0.172c-0.112-0.351-0.181-0.765,0.037-1.063
		C27.492,58.863,28.088,58.906,28.121,59.273"/>
	<path fill="#FFCB0B" d="M32.082,60.122c-0.396,0.026-0.344-0.144-0.384-0.539c-0.044-0.427,0.539-0.591,0.968-0.596
		c0.102-0.001,0.215,0.003,0.286,0.075c0.046,0.047,0.065,0.114,0.08,0.178c0.087,0.358,0.124,0.776-0.115,1.057
		C32.68,60.578,32.088,60.49,32.082,60.122"/>
	<path fill="#FFCB0B" d="M21.446,57.338c0.402,0.126,0.318,0.144,0.721,0.269c0.074,0.024-0.139,0.237-0.13,0.314
		c0.011,0.097-0.108,0.15-0.203,0.17c-0.354,0.076-0.725,0.12-1.072,0.021c-0.347-0.101-0.952-0.45-0.722-0.729
		C20.338,57.021,20.977,57.353,21.446,57.338"/>
	<path fill="#FFCB0B" d="M17.945,55.238c0.402,0.126,0.318,0.145,0.721,0.27c0.074,0.023-0.139,0.236-0.13,0.313
		c0.011,0.097-0.108,0.15-0.203,0.17c-0.353,0.076-0.725,0.12-1.072,0.021c-0.347-0.101-0.95-0.45-0.722-0.729
		C16.837,54.92,17.476,55.252,17.945,55.238"/>
	<path fill="#FFCB0B" d="M34.549,60.714c0.415-0.072,0.349-0.019,0.765-0.091c0.076-0.013-0.017,0.274,0.026,0.34
		c0.055,0.081-0.026,0.183-0.103,0.243c-0.28,0.229-0.59,0.438-0.944,0.509c-0.354,0.069-1.052,0.032-0.975-0.319
		C33.418,60.938,34.139,60.941,34.549,60.714"/>
	<path fill="#FFCB0B" d="M23.547,59.439c0.402,0.126,0.318,0.144,0.721,0.269c0.074,0.024-0.139,0.237-0.13,0.314
		c0.011,0.097-0.108,0.149-0.203,0.17c-0.354,0.076-0.726,0.12-1.072,0.021s-0.951-0.449-0.722-0.729
		C22.438,59.122,23.077,59.454,23.547,59.439"/>
	<path fill="#FFCB0B" d="M34.749,57.338c0.403,0.126,0.319,0.144,0.722,0.269c0.073,0.024-0.14,0.237-0.131,0.314
		c0.012,0.097-0.107,0.15-0.202,0.17c-0.354,0.076-0.726,0.12-1.072,0.021c-0.347-0.101-0.951-0.45-0.722-0.729
		C33.642,57.021,34.28,57.353,34.749,57.338"/>
	<path fill="#FFCB0B" d="M22.146,54.888c0.402,0.126,0.318,0.144,0.722,0.269c0.073,0.024-0.14,0.237-0.131,0.314
		c0.011,0.097-0.108,0.149-0.203,0.17c-0.354,0.075-0.726,0.12-1.072,0.021s-0.951-0.45-0.722-0.729
		C21.038,54.571,21.677,54.903,22.146,54.888"/>
	<path fill="#44A84F" d="M37.436,69.216c0.772-0.156,1.493-0.557,2.035-1.13c0.173-0.183,0.313-0.515,0.1-0.65
		c-0.062-0.039-0.137-0.047-0.209-0.051c-0.803-0.035-1.58,0.307-2.24,0.764c-0.661,0.457-1.232,1.029-1.855,1.536
		c-1.062,0.861-2.279,1.531-3.577,1.967c-1.299,0.436-2.666,0.636-3.984,1.01c-3.134,0.888-6.006,2.761-9.251,3.029
		c-1.069,0.088-2.152-0.002-3.211,0.164c-1.06,0.167-2.144,0.649-2.682,1.578c2.702-0.42,5.403-0.841,8.104-1.262
		c1.427-0.222,2.864-0.445,4.222-0.936c1.08-0.389,2.094-0.941,3.154-1.383c1.679-0.701,3.463-1.123,5.162-1.775
		C34.901,71.425,36.354,70.681,37.436,69.216"/>
	<path fill="#FFCB0B" d="M13.672,74.409c-0.851,0.181-1.776-0.031-2.466-0.561c-0.101-0.077-0.201-0.167-0.238-0.288
		c-0.059-0.182,0.036-0.372,0.137-0.534c0.897-1.461,2.413-2.53,4.091-2.885c0.979-0.207,2.097-0.493,3.098-0.48
		c2.095,0.028,3.818-0.252,6.17,0.142c1.611,0.269,3.268-0.325,4.889-0.128c0.558,0.067,1.122,0.182,1.676,0.088
		c0.472-0.079,0.905-0.307,1.361-0.451c0.755-0.24,1.56-0.255,2.352-0.267c-0.128,0.613-0.784,0.943-1.374,1.153
		c-0.926,0.33-1.878,0.578-2.829,0.827c-1.622,0.424-2.847,1.089-4.469,1.513c-1.113,0.29-2.43,0.498-3.566,0.677
		c-0.843,0.133-1.603,0.378-2.433,0.578c-0.795,0.192-1.847,0.172-2.636,0.389c-1.323,0.365-2.719,0.465-4.081,0.292"/>
	<path fill="#9BC53D" d="M35.418,68.878c-1.034,0.559-2.079,1.101-3.165,1.551c-1.152,0.478-2.345,0.85-3.544,1.193
		c-2.677,0.768-5.392,1.397-8.112,1.994c-1.177,0.26-2.357,0.513-3.555,0.657c-1.008,0.122-2.025,0.168-3.026,0.338
		c-1.39,0.236-2.737,0.714-3.965,1.406c5.619-0.287,11.335-0.602,16.622-2.527c1.476-0.537,2.906-1.195,4.404-1.664
		c0.896-0.279,1.823-0.494,2.655-0.929s1.58-1.139,1.807-2.05"/>
	<path fill="#44A84F" d="M10.326,68.431c1.441,0.035,2.887-0.021,4.322-0.17c2.461-0.253,4.905-0.775,7.379-0.718
		c1.599,0.036,3.181,0.315,4.76,0.564c2.979,0.468,5.979,0.829,8.993,0.975c0.494,0.024,1.104-0.027,1.306-0.479
		c0.155-0.348-0.048-0.771-0.361-0.985s-0.708-0.268-1.087-0.298c-1.387-0.114-2.78-0.023-4.173-0.027
		c-3.23-0.01-6.441-0.535-9.673-0.597c-1.284-0.024-2.577,0.024-3.834,0.288c-0.862,0.181-1.7,0.46-2.555,0.674
		c-1.266,0.314-2.567,0.485-3.871,0.506c-0.409,0.006-0.824-0.002-1.223,0.097"/>
	<path fill="#EEA820" d="M34.485,69.126c0.099-0.013,0.162,0.123,0.12,0.213s-0.144,0.135-0.238,0.164
		c-0.145,0.043-0.297,0.065-0.449,0.064c-0.04,0-0.082-0.002-0.114-0.025c-0.029-0.02-0.048-0.053-0.06-0.086
		c-0.052-0.141-0.016-0.311,0.088-0.419c0.104-0.109,0.272-0.152,0.416-0.106c0.201,0.064,0.181-0.045,0.264,0.15"/>
	<path fill="#EEA820" d="M33.524,69.691c-0.124-0.007-0.091-0.082-0.215-0.089c-0.081-0.004-0.184-0.025-0.195-0.105
		c-0.008-0.048,0.024-0.094,0.062-0.125c0.091-0.076,0.212-0.103,0.33-0.112c0.076-0.006,0.161-0.003,0.215,0.052
		c0.061,0.063,0.053,0.168,0.004,0.24c-0.048,0.072-0.125,0.119-0.198,0.163"/>
	<path fill="#EEA820" d="M32.877,70.167c-0.102-0.018-0.204-0.037-0.289-0.094c-0.084-0.059-0.144-0.165-0.113-0.263
		c0.037-0.118,0.177-0.164,0.297-0.193c0.058-0.014,0.116-0.028,0.174-0.042c0.034-0.008,0.069-0.017,0.104-0.008
		c0.069,0.016,0.107,0.098,0.098,0.168s0.021,0.103,0.021,0.174C33.168,70.056,33,70.167,32.877,70.167"/>
	<path fill="#EEA820" d="M31.949,70.493c-0.105-0.211-0.146-0.452-0.117-0.686c0.01-0.078,0.035-0.166,0.107-0.198
		c0.078-0.035,0.168,0.015,0.236,0.067c0.096,0.07,0.185,0.149,0.268,0.234c0.052,0.053,0.104,0.125,0.077,0.193
		c-0.014,0.032-0.041,0.054-0.069,0.074C32.297,70.288,32.137,70.469,31.949,70.493"/>
	<path fill="#EEA820" d="M31.347,70.611c-0.061-0.154-0.149-0.159-0.164-0.324c-0.005-0.061,0.021-0.117,0.056-0.167
		c0.102-0.148,0.266-0.253,0.442-0.281c0.066-0.011,0.149-0.003,0.183,0.057c0.015,0.026,0.016,0.058,0.015,0.086
		C31.865,70.277,31.636,70.549,31.347,70.611"/>
	<path fill="#EEA820" d="M30.644,70.879c-0.091-0.068-0.104-0.209-0.048-0.308c0.058-0.1,0.167-0.156,0.279-0.177
		c0.112-0.02,0.227-0.007,0.34,0.007c0.035,0.242-0.169,0.493-0.413,0.508"/>
	<path fill="#EEA820" d="M30.649,70.459c-0.03-0.105-0.048-0.219-0.027-0.327c0.021-0.107,0.085-0.213,0.185-0.26
		c0.1-0.048,0.233-0.025,0.298,0.064c0.063,0.09,0.025,0.238-0.079,0.272"/>
	<path fill="#EEA820" d="M30.419,70.425c-0.13,0.14-0.39,0.097-0.545-0.015s-0.23-0.313-0.224-0.504
		c0.004-0.102,0.038-0.216,0.129-0.263c0.13-0.067,0.279,0.039,0.386,0.138c0.091,0.084,0.183,0.168,0.272,0.252
		c0.049,0.045,0.101,0.096,0.114,0.16c0.014,0.065-0.032,0.146-0.099,0.142"/>
	<path fill="#EEA820" d="M30.304,70.492c-0.302-0.007-0.593,0.205-0.681,0.494c-0.008,0.028-0.015,0.058-0.006,0.086
		c0.016,0.048,0.069,0.071,0.118,0.088c0.075,0.026,0.151,0.051,0.228,0.077c0.071,0.022,0.146,0.047,0.221,0.04
		c0.211-0.021,0.326-0.292,0.25-0.491c-0.075-0.199-0.275-0.324-0.477-0.393"/>
	<path fill="#9BC53D" d="M9.391,71.974c0.667-0.048,1.338-0.096,1.989-0.242c0.95-0.216,1.84-0.638,2.769-0.938
		c1.09-0.353,2.227-0.536,3.357-0.718c1.165-0.188,2.334-0.375,3.514-0.405c1.343-0.034,2.683,0.137,4.022,0.233
		c2.353,0.168,4.723,0.104,7.063-0.188c0.681-0.086,1.484-0.29,1.703-0.939c-2.935-0.393-5.869-0.785-8.805-1.178
		c-1.255-0.168-2.521-0.336-3.785-0.24c-0.899,0.067-1.785,0.269-2.665,0.471c-1.659,0.381-3.325,0.771-4.912,1.393
		c-1.586,0.621-3.102,1.485-4.29,2.705"/>
	<path fill="#EEA820" d="M29.58,71.125c-0.103-0.009-0.171,0.098-0.245,0.168c-0.079,0.073-0.188,0.115-0.296,0.113
		c-0.041,0-0.088-0.01-0.112-0.044c-0.017-0.022-0.02-0.053-0.02-0.081c-0.001-0.152,0.07-0.315,0.209-0.377
		c0.094-0.04,0.198-0.028,0.298-0.018c0.096,0.011,0.217,0.047,0.22,0.143c0.002,0.062-0.049,0.109-0.097,0.148"/>
	<path fill="#EEA820" d="M29.347,70.121c-0.099,0.017-0.2,0.034-0.284,0.088c-0.084,0.053-0.148,0.152-0.129,0.25
		c0.015,0.079,0.08,0.141,0.154,0.173c0.072,0.033,0.154,0.041,0.233,0.049c0.03,0.003,0.062,0.006,0.087-0.006
		c0.029-0.013,0.049-0.041,0.064-0.069c0.064-0.11,0.102-0.251,0.049-0.367c-0.052-0.117-0.223-0.181-0.316-0.093"/>
	<path fill="#EEA820" d="M28.291,71.608c-0.018-0.124-0.034-0.25-0.015-0.373s0.081-0.246,0.187-0.313
		c0.106-0.066,0.26-0.061,0.343,0.032c0.064,0.072,0.075,0.176,0.069,0.272c-0.007,0.108-0.034,0.22-0.1,0.307
		s-0.175,0.146-0.282,0.132c-0.108-0.015-0.203-0.118-0.191-0.226"/>
	<path fill="#EEA820" d="M28.796,70.379c-0.03-0.132-0.148-0.236-0.283-0.25c-0.133-0.015-0.271,0.063-0.329,0.184
		c-0.052,0.107-0.04,0.233-0.027,0.352c0.01,0.088,0.023,0.182,0.09,0.238c0.063,0.053,0.158,0.055,0.233,0.023
		c0.075-0.032,0.136-0.095,0.187-0.158c0.079-0.098,0.146-0.214,0.147-0.34s-0.084-0.259-0.209-0.275"/>
	<path fill="#EEA820" d="M27.637,71.598c-0.055-0.091-0.11-0.186-0.131-0.289c-0.021-0.104,0.001-0.224,0.082-0.293
		c0.075-0.064,0.18-0.074,0.279-0.08c0.057-0.003,0.121-0.005,0.164,0.033c0.032,0.028,0.044,0.072,0.055,0.114
		c0.038,0.148,0.069,0.326-0.038,0.436c-0.049,0.051-0.119,0.075-0.188,0.085c-0.057,0.008-0.115,0.006-0.164-0.022
		c-0.048-0.028-0.079-0.091-0.059-0.143"/>
	<path fill="#EEA820" d="M27.688,70.777c-0.129-0.146-0.104-0.376-0.008-0.543c0.025-0.044,0.056-0.085,0.096-0.115
		c0.112-0.082,0.27-0.048,0.404-0.01c0.021,0.006,0.045,0.013,0.058,0.032c0.019,0.027,0.004,0.064-0.014,0.094
		c-0.075,0.137-0.177,0.26-0.296,0.36"/>
	<path fill="#EEA820" d="M27.562,70.728c-0.122,0.028-0.245,0.056-0.366,0.083c-0.035,0.009-0.074,0.016-0.105-0.004
		c-0.021-0.014-0.033-0.038-0.044-0.062c-0.067-0.145-0.135-0.289-0.202-0.434c-0.015-0.03-0.029-0.069-0.008-0.098
		c0.009-0.013,0.025-0.021,0.04-0.027c0.162-0.063,0.359,0.002,0.464,0.142C27.444,70.466,27.638,70.573,27.562,70.728"/>
	<path fill="#EEA820" d="M27.363,70.781c-0.216-0.012-0.372,0.2-0.465,0.396c-0.014,0.029-0.028,0.061-0.021,0.093
		c0.007,0.028,0.03,0.05,0.054,0.068c0.072,0.058,0.156,0.102,0.246,0.13c0.032,0.011,0.068,0.018,0.1,0.004
		c0.031-0.015,0.048-0.048,0.063-0.078c0.051-0.102,0.102-0.211,0.092-0.324c-0.012-0.113-0.109-0.227-0.222-0.21"/>
	<path fill="#EEA820" d="M26.935,71.37c0.005,0.155,0.017,0.312,0.032,0.466c0.007,0.06,0.015,0.122,0.05,0.172
		c0.084,0.113,0.26,0.09,0.394,0.043c0.09-0.031,0.178-0.066,0.258-0.116c0.06-0.038,0.122-0.098,0.113-0.169
		c-0.005-0.045-0.036-0.082-0.069-0.112c-0.208-0.195-0.52-0.272-0.794-0.198"/>
	<path fill="#EEA820" d="M26.829,70.571c-0.203,0.067-0.405,0.136-0.608,0.204c-0.034,0.012-0.072,0.022-0.103,0.006
		c-0.028-0.015-0.042-0.045-0.054-0.075c-0.063-0.168-0.097-0.348-0.101-0.528c0-0.037,0.001-0.076,0.024-0.104
		c0.034-0.046,0.103-0.044,0.16-0.038c0.189,0.021,0.379,0.042,0.566,0.063c0.028,0.003,0.057,0.008,0.075,0.029
		c0.018,0.023,0.014,0.057,0.008,0.087c-0.019,0.104-0.038,0.208-0.057,0.313"/>
	<path fill="#EEA820" d="M26.932,70.88c0.021-0.069-0.041-0.144-0.111-0.161c-0.071-0.02-0.146,0.002-0.216,0.026
		c-0.04,0.016-0.081,0.032-0.112,0.063c-0.1,0.094-0.056,0.264,0.029,0.372c0.064,0.081,0.169,0.151,0.268,0.116
		c0.116-0.041,0.138-0.192,0.141-0.316c0.001-0.053,0.002-0.106,0.003-0.159"/>
	<path fill="#EEA820" d="M26.805,71.523c-0.022-0.12-0.202-0.143-0.294-0.064c-0.093,0.08-0.116,0.211-0.136,0.33
		c-0.009,0.057-0.018,0.112-0.025,0.168c-0.006,0.036-0.012,0.074-0.006,0.11c0.018,0.121,0.167,0.192,0.282,0.153
		s0.189-0.16,0.2-0.282c0.012-0.121-0.031-0.242-0.087-0.35"/>
	<path fill="#EEA820" d="M25.943,72.264c-0.147-0.142-0.187-0.382-0.089-0.563c0.052-0.096,0.151-0.178,0.261-0.167
		c0.124,0.014,0.209,0.143,0.216,0.267c0.008,0.125-0.043,0.244-0.093,0.357c-0.018,0.04-0.036,0.082-0.071,0.107
		c-0.035,0.024-0.092,0.023-0.115-0.012"/>
	<path fill="#EEA820" d="M25.961,71.674c-0.001-0.094-0.258-0.172-0.323-0.24c-0.065-0.066,0.056-0.133,0.018-0.218
		c-0.039-0.086-0.028-0.203,0.052-0.252c0.05-0.03,0.112-0.027,0.17-0.02c0.166,0.02,0.33,0.06,0.487,0.118
		c0.014,0.007,0.027,0.012,0.039,0.021c0.042,0.04,0.006,0.11-0.036,0.148c-0.164,0.154-0.233,0.442-0.444,0.366"/>
	<path fill="#EEA820" d="M25.604,70.88c-0.095-0.097-0.173-0.208-0.235-0.328c-0.039-0.074-0.071-0.156-0.071-0.241
		c0.001-0.086,0.039-0.176,0.113-0.217c0.094-0.052,0.216-0.015,0.294,0.059c0.078,0.072,0.121,0.175,0.162,0.272
		c0.039,0.097,0.079,0.202,0.046,0.3C25.879,70.824,25.665,70.963,25.604,70.88"/>
	<path fill="#EEA820" d="M25.166,70.099c-0.076-0.082-0.165-0.152-0.263-0.208c-0.038-0.021-0.081-0.042-0.126-0.044
		c-0.078-0.004-0.149,0.05-0.199,0.112c-0.186,0.229-0.146,0.604,0.084,0.79c0.157,0.128,0.425,0.144,0.543-0.021
		c0.068-0.096,0.069-0.227,0.031-0.338c-0.036-0.111-0.005-0.224-0.074-0.317"/>
	<path fill="#EEA820" d="M25.454,71.05c-0.019-0.042-0.064-0.063-0.107-0.081c-0.126-0.051-0.259-0.103-0.393-0.084
		c-0.136,0.021-0.266,0.141-0.243,0.274c0.013,0.082,0.078,0.146,0.144,0.196c0.113,0.087,0.257,0.153,0.397,0.121
		c0.139-0.03,0.249-0.197,0.179-0.322"/>
	<path fill="#EEA820" d="M25.568,71.819c0.019-0.088-0.042-0.181-0.126-0.213c-0.084-0.033-0.183-0.013-0.257,0.036
		c-0.102,0.063-0.17,0.194-0.123,0.304c0.026,0.065,0.089,0.11,0.149,0.147c0.048,0.03,0.098,0.057,0.146,0.083
		c0.014,0.007,0.03,0.014,0.046,0.012c0.018-0.003,0.032-0.017,0.044-0.032c0.074-0.085,0.134-0.181,0.179-0.283"/>
	<path fill="#EEA820" d="M24.69,72.546c-0.063-0.037-0.122-0.084-0.17-0.14c-0.053-0.063-0.096-0.146-0.074-0.225
		c0.022-0.079,0.104-0.128,0.186-0.143c0.109-0.02,0.23,0.013,0.309,0.093c0.077,0.08,0.106,0.207,0.062,0.31
		c-0.008,0.016-0.016,0.03-0.029,0.041c-0.017,0.012-0.037,0.016-0.058,0.019c-0.07,0.01-0.141,0.02-0.212,0.03"/>
	<path fill="#EEA820" d="M24.432,72.057c-0.107-0.156-0.157-0.35-0.14-0.537c0.007-0.076,0.037-0.164,0.11-0.185
		c0.046-0.013,0.094,0.006,0.134,0.032c0.185,0.116,0.25,0.389,0.137,0.576c-0.036,0.059-0.09,0.112-0.157,0.124"/>
	<path fill="#EEA820" d="M24.271,71.349c-0.191-0.252-0.279-0.581-0.238-0.896c0.002-0.012,0.004-0.024,0.012-0.032
		c0.008-0.009,0.02-0.012,0.032-0.013c0.185-0.026,0.353,0.146,0.386,0.329c0.032,0.185-0.036,0.371-0.116,0.54"/>
	<path fill="#EEA820" d="M24.018,70.448c-0.144-0.103-0.222-0.288-0.193-0.463c0.006-0.032,0.015-0.065,0.039-0.089
		c0.023-0.02,0.056-0.026,0.087-0.032c0.175-0.023,0.359,0.016,0.51,0.107c0.047,0.028,0.095,0.08,0.072,0.129
		c-0.012,0.024-0.038,0.037-0.063,0.049c-0.103,0.048-0.207,0.097-0.311,0.145"/>
	<path fill="#EEA820" d="M23.454,69.885c-0.082-0.04-0.185-0.015-0.255,0.044c-0.071,0.057-0.117,0.139-0.157,0.221
		c-0.024,0.048-0.047,0.104-0.032,0.154c0.019,0.062,0.083,0.095,0.142,0.12c0.137,0.057,0.283,0.103,0.43,0.083
		c0.146-0.021,0.289-0.125,0.31-0.271c0.021-0.151-0.098-0.298-0.242-0.349c-0.145-0.05-0.305-0.025-0.451,0.022"/>
	<path fill="#EEA820" d="M23.696,70.612c-0.09-0.036-0.195-0.032-0.281,0.013c-0.043,0.022-0.083,0.058-0.1,0.104
		c-0.034,0.1,0.054,0.197,0.136,0.26c0.13,0.101,0.299,0.187,0.45,0.124c0.151-0.061,0.212-0.278,0.113-0.408
		c-0.099-0.131-0.325-0.132-0.425-0.003"/>
	<path fill="#EEA820" d="M23.826,71.206c-0.12,0.018-0.208,0.152-0.178,0.269c0.019,0.071,0.07,0.126,0.122,0.178
		c0.017,0.015,0.032,0.03,0.052,0.035c0.033,0.009,0.066-0.011,0.091-0.033c0.086-0.083,0.096-0.232,0.021-0.326"/>
	<path fill="#EEA820" d="M24.036,71.65c0.165,0.17,0.249,0.413,0.225,0.647c-0.018,0.164-0.129,0.349-0.293,0.335
		c-0.112-0.01-0.198-0.118-0.22-0.229c-0.022-0.112,0.005-0.228,0.032-0.339c0.013-0.056,0.028-0.115,0.07-0.154
		c0.044-0.039,0.122-0.044,0.152,0.005"/>
	<path fill="#EEA820" d="M23.748,72.554c-0.1,0.143-0.216,0.273-0.345,0.39c-0.03,0.026-0.064,0.054-0.105,0.058
		c-0.038,0.002-0.075-0.018-0.104-0.043c-0.11-0.091-0.157-0.249-0.115-0.385c0.042-0.135,0.17-0.24,0.312-0.253
		c0.075-0.007,0.154,0.011,0.211,0.061C23.658,72.432,23.771,72.483,23.748,72.554"/>
	<path fill="#EEA820" d="M23.693,72.162c0.064-0.13,0.108-0.28,0.07-0.421c-0.038-0.14-0.183-0.258-0.323-0.222
		c-0.079,0.02-0.141,0.08-0.196,0.138c-0.085,0.087-0.17,0.174-0.256,0.261c-0.014,0.015-0.027,0.028-0.035,0.046
		c-0.015,0.034-0.007,0.073,0.008,0.107c0.048,0.115,0.163,0.199,0.287,0.209C23.372,72.291,23.625,72.267,23.693,72.162"/>
	<path fill="#EEA820" d="M23.197,71.597c-0.099-0.037-0.238-0.009-0.285-0.102c-0.012-0.024-0.015-0.052-0.012-0.077
		c0.01-0.08,0.064-0.149,0.136-0.186c0.07-0.036,0.155-0.041,0.232-0.023c0.072,0.016,0.152,0.067,0.144,0.141
		c-0.004,0.028-0.021,0.053-0.04,0.074C23.324,71.474,23.266,71.594,23.197,71.597"/>
	<path fill="#EEA820" d="M22.784,71.146c-0.089-0.109-0.166-0.229-0.228-0.356c-0.051-0.106-0.083-0.254,0.008-0.329
		c0.035-0.03,0.082-0.041,0.129-0.047c0.205-0.021,0.418,0.076,0.536,0.246c0.018,0.025,0.033,0.054,0.033,0.084
		c-0.001,0.033-0.021,0.064-0.04,0.092c-0.056,0.08-0.111,0.16-0.168,0.241c-0.015,0.021-0.031,0.042-0.054,0.054
		C22.922,71.166,22.871,71.139,22.784,71.146"/>
	<path fill="#EEA820" d="M22.974,69.936c0.142-0.091-0.003-0.131-0.102-0.193c-0.031-0.019-0.12-0.019-0.156-0.019
		c-0.035,0.001-0.067,0.021-0.098,0.041c-0.075,0.05-0.151,0.102-0.203,0.175c-0.051,0.073-0.074,0.174-0.032,0.254
		c0.063,0.118,0.239,0.129,0.353,0.059C22.85,70.181,22.913,70.056,22.974,69.936"/>
	<path fill="#EEA820" d="M23.001,72.772c0.009,0.141-0.065,0.283-0.186,0.358c-0.12,0.074-0.28,0.076-0.402,0.005
		c-0.044-0.024-0.081-0.059-0.104-0.103c-0.03-0.064-0.02-0.141-0.007-0.209c0.022-0.119,0.053-0.236,0.091-0.351
		c0.021-0.063,0.049-0.13,0.107-0.16c0.038-0.021,0.084-0.021,0.127-0.015c0.132,0.021,0.251,0.113,0.304,0.237
		c0.053,0.123,0.155,0.168,0.079,0.279"/>
	<path fill="#EEA820" d="M22.479,72.12c-0.11-0.079-0.066-0.064-0.143-0.156c-0.077-0.093-0.14-0.229-0.069-0.326
		c0.043-0.06,0.126-0.081,0.198-0.069c0.073,0.012,0.139,0.05,0.201,0.088c0.077,0.048,0.156,0.102,0.193,0.184
		c0.046,0.101,0.012,0.23-0.077,0.295C22.695,72.2,22.562,72.193,22.479,72.12"/>
	<path fill="#EEA820" d="M22.214,71.575c-0.072-0.088-0.146-0.182-0.164-0.294c-0.02-0.111,0.041-0.246,0.152-0.266
		c0.047-0.008,0.097,0.004,0.141,0.021c0.14,0.055,0.26,0.157,0.334,0.287c0.016,0.029,0.03,0.063,0.019,0.094
		c-0.008,0.023-0.028,0.038-0.048,0.052c-0.118,0.081-0.256,0.131-0.398,0.146"/>
	<path fill="#EEA820" d="M22.03,70.992c-0.094-0.073-0.041-0.119-0.121-0.206c-0.084-0.09-0.161-0.191-0.189-0.311
		c-0.029-0.119,0.003-0.26,0.104-0.33c0.124-0.087,0.307-0.031,0.408,0.08c0.104,0.111,0.146,0.265,0.187,0.41
		c0.019,0.071,0.038,0.145,0.028,0.217c-0.009,0.073-0.054,0.147-0.125,0.167c-0.089,0.025-0.186-0.04-0.273-0.011"/>
	<path fill="#EEA820" d="M21.813,70.142c-0.054-0.01-0.07-0.086-0.043-0.133c0.029-0.047,0.083-0.069,0.135-0.091
		c0.06-0.023,0.12-0.048,0.181-0.073c0.072-0.028,0.162-0.055,0.219-0.002c0.062,0.057,0.029,0.166-0.041,0.211
		c-0.069,0.044-0.159,0.041-0.242,0.032"/>
	<path fill="#EEA820" d="M21.753,70.249c-0.042-0.155-0.097-0.315-0.213-0.427c-0.116-0.112-0.31-0.158-0.44-0.063
		c-0.076,0.057-0.117,0.149-0.154,0.237c-0.026,0.063-0.053,0.128-0.046,0.196c0.013,0.157,0.184,0.245,0.332,0.303
		c0.027,0.011,0.058,0.021,0.087,0.015c0.029-0.008,0.052-0.033,0.071-0.057c0.091-0.11,0.399-0.063,0.385-0.203"/>
	<path fill="#EEA820" d="M21.51,70.482c0.175,0.178,0.265,0.436,0.237,0.684c-0.005,0.032-0.012,0.066-0.036,0.086
		c-0.015,0.012-0.031,0.017-0.049,0.02c-0.123,0.021-0.247-0.058-0.316-0.161c-0.069-0.105-0.094-0.231-0.115-0.354
		c-0.005-0.025-0.009-0.053,0.001-0.075c0.018-0.04,0.064-0.055,0.106-0.063C21.404,70.601,21.444,70.457,21.51,70.482"/>
	<path fill="#EEA820" d="M21.671,71.364c-0.132-0.028-0.26,0.105-0.259,0.241c0,0.135,0.098,0.254,0.216,0.32
		c0.079,0.045,0.176,0.071,0.261,0.038c0.051-0.02,0.092-0.059,0.124-0.104c0.1-0.137,0.113-0.343,0-0.466
		c-0.114-0.125-0.355-0.108-0.423,0.046"/>
	<path fill="#EEA820" d="M21.647,72.102c-0.058,0.128,0.059,0.151,0.13,0.271c0.071,0.12,0.202,0.203,0.342,0.216
		c0.061,0.005,0.125-0.005,0.174-0.04c0.086-0.064,0.099-0.195,0.054-0.292c-0.044-0.098-0.132-0.168-0.219-0.23
		c-0.04-0.029-0.081-0.058-0.129-0.07C21.871,71.924,21.747,72.016,21.647,72.102"/>
	<path fill="#EEA820" d="M21.833,72.672c-0.118,0.1-0.148,0.101-0.154,0.256c-0.005,0.155,0.139,0.316,0.288,0.279
		c0.083-0.021,0.144-0.091,0.19-0.16c0.049-0.072,0.092-0.16,0.065-0.243c-0.022-0.072-0.094-0.119-0.166-0.135
		C21.983,72.653,21.907,72.663,21.833,72.672"/>
	<path fill="#EEA820" d="M21.111,73.308c-0.202-0.028-0.176-0.222-0.235-0.418c-0.04-0.129-0.059-0.295,0.049-0.377
		c0.047-0.034,0.108-0.044,0.166-0.053c0.147-0.021,0.334-0.021,0.402,0.11c0.026,0.051,0.026,0.111,0.024,0.169
		c-0.001,0.157-0.003,0.314-0.004,0.472c0,0.024-0.001,0.051-0.016,0.07c-0.021,0.029-0.061,0.033-0.097,0.034
		c-0.109,0.002-0.219-0.001-0.327-0.011"/>
	<path fill="#EEA820" d="M20.851,72.389c-0.078-0.12-0.073-0.275-0.066-0.42c0.004-0.074,0.015-0.161,0.078-0.199
		c0.042-0.025,0.094-0.022,0.143-0.019c0.122,0.012,0.247,0.027,0.359,0.077s0.212,0.142,0.244,0.26
		c0.008,0.031,0.011,0.064-0.002,0.093c-0.026,0.056-0.099,0.066-0.158,0.07c-0.205,0.014-0.351,0.159-0.556,0.173"/>
	<path fill="#EEA820" d="M20.787,71.717c-0.053-0.092-0.035-0.15-0.047-0.256c-0.012-0.106,0.029-0.227,0.125-0.273
		c0.118-0.058,0.261,0.017,0.347,0.116c0.03,0.034,0.056,0.072,0.068,0.115c0.029,0.113-0.055,0.236-0.164,0.28
		c-0.11,0.045-0.235,0.027-0.349-0.01"/>
	<path fill="#EEA820" d="M20.749,71.102c-0.052,0.006,0.002-0.132-0.02-0.18c-0.023-0.048-0.025-0.102-0.027-0.154l-0.008-0.257
		c-0.001-0.02-0.001-0.04,0.013-0.055c0.017-0.016,0.042-0.013,0.064-0.008c0.098,0.022,0.192,0.057,0.283,0.101
		c0.028,0.015,0.058,0.03,0.076,0.058c0.023,0.034,0.024,0.078,0.023,0.119c-0.003,0.088-0.012,0.175-0.029,0.26
		c-0.006,0.029-0.013,0.06-0.033,0.081c-0.02,0.021-0.049,0.031-0.077,0.037c-0.09,0.021-0.185,0.023-0.274,0.005"/>
	<path fill="#EEA820" d="M20.633,70.389c-0.114-0.102-0.225-0.208-0.33-0.319c-0.039-0.042-0.08-0.105-0.045-0.15
		c0.016-0.021,0.042-0.029,0.066-0.035c0.151-0.036,0.312-0.029,0.457,0.021c0.031,0.012,0.063,0.024,0.084,0.051
		c0.031,0.038,0.03,0.093,0.021,0.141c-0.027,0.156-0.117,0.299-0.246,0.391"/>
	<path fill="#EEA820" d="M20.858,73.417c0.064-0.142-0.029-0.331-0.181-0.367c-0.152-0.036-0.32,0.09-0.328,0.245
		c-0.001,0.031,0.002,0.063,0.016,0.089c0.018,0.035,0.051,0.062,0.084,0.082c0.052,0.033,0.108,0.059,0.169,0.072
		c0.011,0.003,0.023,0.005,0.033,0c0.011-0.005,0.017-0.017,0.021-0.025C20.697,73.471,20.813,73.428,20.858,73.417"/>
	<path fill="#EEA820" d="M20.811,73.014c-0.157,0.044-0.334,0.071-0.474-0.012c-0.029-0.017-0.057-0.04-0.07-0.069
		c-0.017-0.036-0.013-0.078-0.008-0.118c0.008-0.065,0.019-0.13,0.032-0.193c0.004-0.018,0.008-0.037,0.021-0.048
		c0.009-0.008,0.021-0.012,0.034-0.015c0.17-0.037,0.36,0.063,0.424,0.227C20.791,72.837,20.848,72.973,20.811,73.014"/>
	<path fill="#EEA820" d="M19.985,72.28c0.111,0.098,0.225,0.126,0.336,0.224c0.014,0.012,0.027,0.024,0.045,0.028
		c0.041,0.01,0.076-0.029,0.101-0.064c0.045-0.062,0.089-0.125,0.133-0.187c0.038-0.054,0.077-0.114,0.071-0.179
		c-0.005-0.051-0.036-0.094-0.071-0.129c-0.112-0.108-0.281-0.155-0.433-0.119c-0.152,0.035-0.282,0.154-0.332,0.303
		c-0.005,0.016-0.011,0.033-0.008,0.05c0.009,0.059,0.087,0.072,0.146,0.07"/>
	<path fill="#EEA820" d="M20.708,71.583c-0.071,0.077-0.146,0.155-0.243,0.196c-0.097,0.04-0.221,0.034-0.292-0.043
		c-0.05-0.055-0.065-0.135-0.048-0.207c0.016-0.072,0.061-0.135,0.116-0.183c0.069-0.062,0.163-0.103,0.255-0.09
		s0.177,0.091,0.179,0.184"/>
	<path fill="#EEA820" d="M20.228,71.157c0.061,0.053,0.151,0.069,0.227,0.041c0.073-0.028,0.127-0.094,0.155-0.166
		c0.05-0.132,0.004-0.304-0.124-0.361c-0.069-0.031-0.151-0.024-0.223,0.003s-0.135,0.073-0.195,0.119
		c-0.017,0.012-0.032,0.025-0.041,0.044c-0.024,0.051,0.027,0.104,0.073,0.139c0.045,0.034,0.096,0.087,0.072,0.14"/>
	<path fill="#EEA820" d="M20.241,70.617c0.057-0.054,0.116-0.113,0.134-0.189c0.025-0.109-0.044-0.218-0.118-0.303
		c-0.067-0.077-0.162-0.153-0.262-0.132c-0.069,0.014-0.12,0.07-0.165,0.124c-0.055,0.064-0.111,0.139-0.113,0.224
		c-0.003,0.105,0.077,0.194,0.162,0.256c0.083,0.061,0.199,0.105,0.284,0.05"/>
	<path fill="#EEA820" d="M19.81,71.103c0.037-0.135,0.051-0.285-0.011-0.41c-0.062-0.126-0.217-0.212-0.346-0.158
		c-0.082,0.034-0.136,0.113-0.174,0.193c-0.033,0.073-0.059,0.156-0.032,0.232c0.031,0.095,0.135,0.146,0.23,0.179
		c0.048,0.016,0.099,0.03,0.148,0.022c0.05-0.009,0.183-0.028,0.19-0.078"/>
	<path fill="#EEA820" d="M19.268,71.533c-0.104,0.027-0.226,0.076-0.247,0.182c-0.007,0.039,0.002,0.079,0.014,0.118
		c0.032,0.119,0.093,0.243,0.206,0.294c0.08,0.036,0.172,0.029,0.258,0.012c0.079-0.015,0.158-0.038,0.234-0.066
		c0.047-0.02,0.095-0.042,0.125-0.082c0.052-0.07,0.031-0.174-0.023-0.241c-0.056-0.067-0.14-0.104-0.222-0.13
		c-0.083-0.027-0.169-0.046-0.245-0.09"/>
	<path fill="#EEA820" d="M19.605,72.943c0.104,0.011,0.199,0.09,0.302,0.069c0.061-0.013,0.109-0.059,0.147-0.106
		c0.046-0.061,0.083-0.129,0.107-0.199c0.024-0.066,0.035-0.144-0.002-0.202c-0.031-0.049-0.09-0.072-0.145-0.092
		c-0.141-0.052-0.285-0.097-0.43-0.137c-0.029-0.008-0.061-0.015-0.088-0.003c-0.026,0.013-0.041,0.039-0.056,0.065
		c-0.028,0.052-0.055,0.105-0.064,0.165c-0.012,0.059-0.003,0.123,0.033,0.17c0.028,0.035-0.001,0.092,0.016,0.134
		c0.016,0.042,0.086,0.086,0.167,0.12"/>
	<path fill="#EEA820" d="M19.642,70.32c-0.102,0.062-0.16,0.068-0.268,0.117c-0.021,0.009-0.043,0.018-0.064,0.013
		c-0.024-0.007-0.042-0.029-0.054-0.053c-0.063-0.118-0.063-0.258-0.063-0.392c0-0.03,0.002-0.061,0.014-0.087
		c0.018-0.04,0.06-0.065,0.102-0.077c0.133-0.04,0.278,0.022,0.385,0.11c0.015,0.013,0.028,0.024,0.036,0.04
		c0.009,0.017,0.01,0.033,0.01,0.052c0.002,0.105-0.038,0.213-0.11,0.292"/>
	<path fill="#EEA820" d="M19.613,71.342c-0.005,0.089,0.023,0.185,0.093,0.241c0.075,0.063,0.192,0.063,0.276,0.011
		c0.084-0.054,0.133-0.151,0.139-0.249c0.006-0.097-0.032-0.197-0.112-0.25c-0.037-0.024-0.085-0.037-0.126-0.021
		c-0.027,0.012-0.048,0.033-0.067,0.055c-0.063,0.068-0.128,0.137-0.19,0.206"/>
	<path fill="#EEA820" d="M18.789,72.664c0.055,0.037,0.111,0.075,0.174,0.093c0.064,0.018,0.138,0.014,0.189-0.027
		c0.039-0.03,0.061-0.077,0.08-0.124c0.036-0.091,0.067-0.185,0.093-0.279c0.009-0.034,0.017-0.07,0.006-0.104
		c-0.012-0.038-0.047-0.065-0.082-0.085c-0.09-0.05-0.2-0.066-0.299-0.039c-0.1,0.027-0.187,0.102-0.223,0.198
		c-0.024,0.067-0.025,0.144-0.063,0.206c-0.011,0.018-0.025,0.036-0.025,0.057c-0.002,0.046,0.056,0.066,0.101,0.073"/>
	<path fill="#EEA820" d="M19.914,73.739c0.099-0.029,0.199-0.06,0.282-0.119c0.084-0.06,0.148-0.156,0.144-0.258
		c-0.009-0.138-0.132-0.236-0.243-0.315c-0.022-0.016-0.047-0.033-0.075-0.032c-0.021,0.001-0.04,0.014-0.057,0.024
		c-0.055,0.033-0.108,0.065-0.162,0.099c-0.043,0.027-0.087,0.056-0.115,0.097c-0.044,0.066-0.037,0.152-0.029,0.231
		c0.007,0.07,0.021,0.151,0.081,0.187C19.783,73.677,19.853,73.746,19.914,73.739"/>
	<path fill="#EEA820" d="M19.274,73.646c0.094-0.027,0.195-0.061,0.25-0.141c0.023-0.033,0.036-0.072,0.047-0.111
		c0.024-0.079,0.042-0.161,0.034-0.242c-0.01-0.113-0.071-0.221-0.164-0.286c-0.092-0.066-0.213-0.089-0.323-0.062
		c-0.081,0.019-0.155,0.066-0.197,0.138c-0.062,0.102-0.045,0.23-0.025,0.348c0.013,0.075,0.028,0.152,0.071,0.214
		c0.04,0.057,0.098,0.095,0.154,0.131c0.043,0.027,0.097,0.057,0.141,0.032"/>
	<path fill="#EEA820" d="M18.457,73.399c-0.041-0.033-0.092-0.049-0.139-0.073c-0.047-0.023-0.092-0.06-0.104-0.11
		c-0.011-0.048,0.008-0.096,0.031-0.138c0.048-0.089,0.115-0.167,0.194-0.229c0.09-0.067,0.221-0.111,0.306-0.04
		c0.03,0.024,0.05,0.062,0.062,0.1c0.035,0.106,0.021,0.228-0.039,0.321c-0.037,0.059-0.092,0.108-0.157,0.127
		C18.545,73.376,18.505,73.449,18.457,73.399"/>
	<path fill="#EEA820" d="M19.2,71.387c0.009,0.11-0.111,0.196-0.222,0.188c-0.109-0.009-0.203-0.084-0.274-0.168
		c-0.028-0.035-0.057-0.073-0.069-0.117c-0.025-0.085,0.009-0.176,0.048-0.256c0.032-0.064,0.073-0.134,0.142-0.155
		c0.037-0.012,0.077-0.009,0.115,0c0.13,0.028,0.246,0.112,0.313,0.227c0.023,0.04,0.042,0.084,0.041,0.13
		c-0.003,0.109-0.104,0.187-0.194,0.245"/>
	<path fill="#EEA820" d="M18.267,71.803c-0.074,0.022-0.119,0.106-0.112,0.184c0.009,0.078,0.059,0.146,0.122,0.189
		c0.063,0.046,0.139,0.069,0.215,0.089c0.015,0.004,0.03,0.008,0.047,0.005c0.018-0.005,0.032-0.02,0.046-0.032
		c0.074-0.077,0.138-0.162,0.192-0.254c0.05-0.083,0.091-0.187,0.051-0.274c-0.04-0.086-0.141-0.123-0.232-0.139
		c-0.083-0.015-0.183-0.013-0.231,0.055c-0.02,0.03-0.026,0.067-0.041,0.101c-0.014,0.032-0.041,0.064-0.076,0.066"/>
	<path fill="#EEA820" d="M18.464,70.763c0.085,0.097,0.033,0.189,0.06,0.314c0.016,0.077,0.012,0.173-0.057,0.211
		c-0.033,0.019-0.074,0.019-0.111,0.017c-0.078-0.004-0.156-0.013-0.233-0.026c-0.104-0.019-0.219-0.057-0.259-0.153
		c-0.032-0.079-0.001-0.171,0.055-0.235c0.057-0.063,0.134-0.103,0.21-0.141c0.054-0.027,0.108-0.055,0.162-0.082
		c0.021-0.012,0.047-0.024,0.072-0.022c0.062,0.004,0.091,0.076,0.104,0.137"/>
	<path fill="#EEA820" d="M18.505,70.597c0.006,0.077,0.122,0.042,0.188,0.081c0.08,0.049,0.165,0.091,0.253,0.126
		c0.018,0.007,0.037,0.014,0.056,0.009c0.025-0.007,0.039-0.033,0.05-0.056c0.048-0.098,0.095-0.199,0.107-0.307
		c0.013-0.108-0.019-0.228-0.104-0.296c-0.104-0.082-0.263-0.063-0.375,0.009c-0.112,0.071-0.188,0.187-0.263,0.298
		c-0.009,0.014-0.02,0.028-0.02,0.046c0.001,0.015,0.011,0.029,0.02,0.041c0.025,0.03,0.057,0.053,0.094,0.066"/>
	<path fill="#EEA820" d="M17.827,70.407c0.112,0.124,0.261,0.214,0.424,0.253c0.012,0.003,0.026,0.006,0.038,0
		c0.014-0.008,0.021-0.022,0.027-0.036c0.066-0.17,0.123-0.344,0.169-0.521c0.009-0.035,0.016-0.077-0.009-0.103
		c-0.022-0.023-0.058-0.023-0.089-0.02c-0.256,0.028-0.492,0.188-0.614,0.414"/>
	<path fill="#EEA820" d="M18.477,72.598c-0.008,0.082-0.017,0.169-0.064,0.236c-0.047,0.068-0.146,0.106-0.215,0.062
		c-0.051-0.032-0.069-0.098-0.077-0.157c-0.015-0.125,0.003-0.261,0.082-0.357c0.08-0.097,0.231-0.141,0.337-0.074
		c0.033,0.021,0.062,0.055,0.063,0.093c0.001,0.021-0.004,0.039-0.013,0.057c-0.041,0.099-0.146,0.172-0.146,0.279"/>
	<path fill="#EEA820" d="M17.801,73.678c0.063-0.033,0.095-0.104,0.123-0.171c0.029-0.069,0.061-0.141,0.091-0.212
		c0.021-0.053,0.045-0.106,0.04-0.164c-0.009-0.104-0.115-0.182-0.219-0.184c-0.105-0.003-0.203,0.054-0.278,0.127
		c-0.068,0.067-0.123,0.154-0.12,0.249c0.003,0.11,0.081,0.202,0.155,0.283c0.037,0.041,0.08,0.085,0.135,0.09"/>
	<path fill="#EEA820" d="M17.976,71.979c0.089-0.088,0.168-0.186,0.238-0.288c0.014-0.021,0.027-0.043,0.027-0.067
		c-0.001-0.024-0.018-0.047-0.032-0.066c-0.085-0.105-0.191-0.192-0.311-0.256c-0.017-0.01-0.034-0.019-0.055-0.019
		c-0.017,0-0.034,0.008-0.05,0.016c-0.046,0.021-0.091,0.042-0.137,0.062c-0.084,0.039-0.17,0.079-0.237,0.142
		c-0.068,0.064-0.114,0.158-0.097,0.249c0.023,0.133,0.162,0.208,0.288,0.255c0.045,0.018,0.092,0.032,0.141,0.031
		C17.8,72.037,17.951,72.02,17.976,71.979"/>
	<path fill="#EEA820" d="M18.857,73.539c-0.05-0.068-0.16-0.05-0.245-0.057c-0.084-0.008-0.169,0.009-0.252,0.026
		c-0.068,0.014-0.137,0.027-0.204,0.041c-0.059,0.012-0.119,0.024-0.165,0.063c-0.063,0.052-0.081,0.149-0.043,0.221
		c0.038,0.072,0.12,0.11,0.201,0.115c0.079,0.006,0.159-0.015,0.236-0.036c0.072-0.019,0.145-0.039,0.215-0.058
		c0.094-0.025,0.198-0.061,0.239-0.147C18.865,73.656,18.861,73.596,18.857,73.539"/>
	<path fill="#EEA820" d="M17.359,70.145c0.116,0.009,0.23,0.054,0.321,0.128c0.024,0.019,0.048,0.043,0.052,0.073
		c0.006,0.053-0.052,0.089-0.1,0.11c-0.142,0.063-0.289,0.114-0.438,0.153c-0.056,0.014-0.113,0.027-0.168,0.016
		c-0.124-0.023-0.201-0.163-0.185-0.287c0.004-0.031,0.013-0.063,0.034-0.087c0.02-0.022,0.049-0.037,0.077-0.05
		c0.063-0.029,0.129-0.058,0.198-0.055c0.113,0.005,0.105-0.005,0.219,0.004"/>
	<path fill="#EEA820" d="M17.939,72.79c0.05-0.021,0.103-0.043,0.131-0.089c0.03-0.049,0.025-0.111,0.018-0.167
		c-0.012-0.08-0.03-0.16-0.052-0.237c-0.02-0.063-0.044-0.13-0.101-0.165c-0.057-0.037-0.133-0.031-0.194-0.002
		s-0.111,0.077-0.159,0.125c-0.04,0.039-0.08,0.08-0.098,0.133c-0.025,0.085,0.018,0.174,0.06,0.252
		c0.037,0.068,0.076,0.14,0.141,0.18c0.066,0.041,0.166,0.037,0.207-0.028"/>
	<path fill="#EEA820" d="M17.55,74.01c-0.125,0.068-0.299,0.167-0.441,0.151c-0.082-0.008-0.153-0.065-0.192-0.139
		c-0.038-0.072-0.049-0.157-0.047-0.239c0.002-0.09,0.021-0.182,0.066-0.26s0.123-0.141,0.212-0.157
		c0.09-0.015,0.189,0.024,0.234,0.104c0.021,0.039,0.029,0.085,0.045,0.129c0.023,0.069,0.066,0.131,0.098,0.197
		S17.575,73.941,17.55,74.01"/>
	<path fill="#EEA820" d="M17.298,71.292c-0.074-0.046-0.143-0.104-0.199-0.17c-0.022-0.027-0.044-0.057-0.05-0.09
		c-0.008-0.06,0.033-0.112,0.076-0.154c0.132-0.132,0.299-0.23,0.479-0.282c0.029-0.009,0.063-0.016,0.091-0.001
		c0.028,0.016,0.039,0.051,0.048,0.082c0.024,0.092,0.043,0.185,0.056,0.279c0.005,0.026,0.009,0.055-0.001,0.081
		c-0.009,0.026-0.028,0.048-0.05,0.066c-0.085,0.079-0.184,0.144-0.291,0.188c-0.041,0.017-0.086,0.032-0.13,0.025
		c-0.044-0.005-0.088-0.037-0.092-0.083"/>
	<path fill="#EEA820" d="M16.757,71.76c0.081,0.026,0.185-0.042,0.234-0.111s0.064-0.158,0.065-0.242
		c0.002-0.115-0.026-0.243-0.12-0.309c-0.102-0.071-0.24-0.045-0.36-0.012c-0.05,0.016-0.102,0.031-0.139,0.067
		c-0.038,0.037-0.055,0.089-0.072,0.14c-0.018,0.057-0.035,0.117-0.02,0.175c0.013,0.049,0.05,0.088,0.086,0.124
		C16.521,71.683,16.632,71.78,16.757,71.76"/>
	<path fill="#EEA820" d="M17.238,72.517c0.061-0.093,0.121-0.185,0.182-0.276c0.017-0.023,0.032-0.049,0.033-0.077
		c0.001-0.032-0.018-0.06-0.037-0.086c-0.056-0.077-0.12-0.149-0.188-0.215c-0.042-0.039-0.09-0.078-0.147-0.084
		c-0.049-0.006-0.097,0.014-0.143,0.033c-0.053,0.022-0.106,0.047-0.143,0.092c-0.039,0.048-0.051,0.113-0.055,0.174
		c-0.005,0.06-0.004,0.12,0.012,0.178c0.046,0.172,0.234,0.293,0.41,0.264"/>
	<path fill="#EEA820" d="M16.745,73.612c0.107-0.079,0.196-0.195,0.208-0.328c0.011-0.133-0.079-0.277-0.213-0.295
		c-0.063-0.01-0.128,0.011-0.188,0.035c-0.111,0.043-0.229,0.112-0.254,0.229c-0.02,0.083,0.017,0.171,0.076,0.232
		c0.059,0.061,0.139,0.099,0.219,0.126"/>
	<path fill="#EEA820" d="M17.051,72.61c0.081-0.063,0.197-0.028,0.293,0.01c0.049,0.02,0.101,0.04,0.135,0.081
		c0.043,0.051,0.05,0.122,0.053,0.188c0.002,0.063,0.001,0.13-0.03,0.184c-0.035,0.06-0.103,0.095-0.169,0.113
		c-0.079,0.021-0.163,0.021-0.242,0.003c-0.029-0.007-0.059-0.018-0.081-0.037c-0.024-0.021-0.039-0.049-0.053-0.077
		c-0.033-0.069-0.063-0.143-0.063-0.219c-0.001-0.077,0.034-0.158,0.103-0.194"/>
	<path fill="#EEA820" d="M16.705,70.457c0.057,0.074,0.097,0.162,0.113,0.254c0.012,0.057,0.012,0.116-0.013,0.167
		c-0.028,0.057-0.086,0.093-0.147,0.106c-0.061,0.014-0.125,0.008-0.186-0.005c-0.079-0.017-0.159-0.043-0.222-0.093
		c-0.064-0.052-0.109-0.129-0.107-0.209c0.004-0.103,0.078-0.186,0.148-0.26c0.029-0.03,0.062-0.063,0.104-0.074
		c0.026-0.008,0.054-0.006,0.08,0c0.113,0.021,0.195,0.021,0.241,0.127"/>
	<path fill="#EEA820" d="M15.931,71.134c0.062-0.057,0.113-0.121,0.155-0.192c0.018-0.029,0.033-0.06,0.036-0.093
		c0.007-0.076-0.051-0.143-0.111-0.188c-0.085-0.065-0.185-0.114-0.291-0.14c-0.023-0.006-0.05-0.011-0.073-0.002
		c-0.025,0.009-0.042,0.03-0.059,0.051c-0.087,0.115-0.162,0.239-0.222,0.37c-0.018,0.038-0.033,0.078-0.028,0.12
		c0.005,0.049,0.041,0.091,0.084,0.115s0.093,0.034,0.143,0.043c0.106,0.018,0.239,0.016,0.298-0.076"/>
	<path fill="#EEA820" d="M16.155,73.084c0.095-0.008,0.188-0.042,0.265-0.098c0.034-0.025,0.069-0.062,0.063-0.104
		c-0.003-0.027-0.022-0.049-0.04-0.069c-0.051-0.057-0.103-0.113-0.153-0.171c-0.027-0.029-0.056-0.062-0.095-0.072
		c-0.061-0.017-0.12,0.022-0.169,0.061c-0.06,0.045-0.118,0.094-0.155,0.157c-0.038,0.063-0.052,0.146-0.018,0.212
		s0.107,0.102,0.177,0.132"/>
	<path fill="#EEA820" d="M15.721,73.874c0.203-0.044,0.376-0.205,0.436-0.403c0.008-0.029,0.016-0.06,0.008-0.089
		c-0.007-0.029-0.026-0.056-0.048-0.077c-0.096-0.102-0.233-0.159-0.373-0.16c-0.099,0-0.203,0.031-0.265,0.108
		c-0.08,0.098-0.073,0.237-0.063,0.362c0.004,0.047,0.013,0.099,0.051,0.127c0.039,0.028,0.1,0.021,0.131,0.056"/>
	<path fill="#EEA820" d="M16.526,71.811c-0.073,0.211,0.059,0.466-0.055,0.658c-0.008,0.014-0.019,0.028-0.033,0.033
		c-0.02,0.008-0.042-0.003-0.062-0.013c-0.109-0.059-0.23-0.132-0.258-0.253c-0.018-0.085,0.017-0.171,0.054-0.25
		c0.03-0.065,0.071-0.135,0.138-0.161c0.068-0.026,0.223-0.065,0.214,0.008"/>
	<path fill="#EEA820" d="M15.722,71.906c0.112,0.007,0.232,0.011,0.328-0.048c0.073-0.044,0.121-0.12,0.155-0.199
		c0.038-0.09,0.06-0.191,0.032-0.285s-0.111-0.176-0.208-0.177c-0.083-0.001-0.156,0.053-0.22,0.105
		c-0.08,0.066-0.159,0.137-0.21,0.228c-0.051,0.09-0.068,0.205-0.021,0.297c0.023,0.044,0.062,0.081,0.109,0.09
		s0.104-0.019,0.115-0.065"/>
	<path fill="#EEA820" d="M15.111,72.685c0.096,0.075,0.144,0.222,0.264,0.238c0.046,0.007,0.093-0.009,0.136-0.029
		c0.132-0.059,0.25-0.152,0.338-0.268c0.057-0.075,0.103-0.163,0.109-0.257c0.006-0.083-0.02-0.164-0.046-0.243
		c-0.021-0.062-0.051-0.129-0.11-0.152c-0.051-0.02-0.108-0.002-0.16,0.018c-0.133,0.052-0.262,0.112-0.385,0.184
		c-0.065,0.037-0.134,0.084-0.154,0.156C15.08,72.418,15.006,72.554,15.111,72.685"/>
	<path fill="#EEA820" d="M15.167,73.571c0.204-0.092,0.112-0.19,0.169-0.268c0.023-0.034,0.053-0.063,0.071-0.1
		c0.019-0.037,0.025-0.084,0.003-0.118c-0.015-0.022-0.038-0.036-0.063-0.049c-0.055-0.031-0.112-0.063-0.174-0.078
		c-0.063-0.016-0.131-0.014-0.186,0.021c-0.057,0.036-0.088,0.101-0.114,0.162c-0.022,0.051-0.042,0.103-0.062,0.154
		c-0.008,0.022-0.017,0.047-0.014,0.072c0.006,0.05,0.054,0.083,0.098,0.107c0.088,0.052,0.188,0.106,0.288,0.09"/>
	<path fill="#EEA820" d="M16.675,73.981c-0.065,0.051-0.137,0.093-0.213,0.124c-0.083,0.035-0.193,0.051-0.251-0.018
		c-0.039-0.045-0.039-0.111-0.035-0.17c0.008-0.109,0.038-0.238,0.141-0.275c0.063-0.022,0.135-0.001,0.187,0.04
		c0.053,0.041,0.089,0.099,0.124,0.155c0.014,0.022,0.028,0.046,0.031,0.073c0.008,0.063,0.053,0.113-0.008,0.092"/>
	<path fill="#EEA820" d="M14.687,73.613c0.13-0.028,0.268-0.017,0.391,0.033c0.061,0.025,0.123,0.068,0.131,0.132
		c0.007,0.05-0.022,0.1-0.063,0.13c-0.04,0.03-0.089,0.046-0.139,0.061C14.955,73.984,14.903,74,14.85,74s-0.109-0.02-0.143-0.062
		c-0.05-0.063-0.21-0.105-0.158-0.168c0.053-0.062,0.091-0.125,0.163-0.158"/>
	<path fill="#EEA820" d="M14.413,74.493c-0.172-0.051-0.159-0.173-0.219-0.341c-0.021-0.061-0.028-0.132,0.013-0.179
		c0.042-0.049,0.114-0.05,0.178-0.044c0.119,0.013,0.245,0.038,0.331,0.121c0.022,0.023,0.044,0.051,0.054,0.081
		c0.01,0.028,0.011,0.06,0.01,0.088c-0.005,0.094-0.038,0.189-0.108,0.25C14.601,74.531,14.488,74.547,14.413,74.493"/>
	<path fill="#EEA820" d="M15.182,74.261c0.088,0.083,0.219,0.115,0.335,0.084c0.116-0.032,0.213-0.126,0.247-0.242
		c0.006-0.02,0.01-0.042,0.005-0.062c-0.009-0.039-0.047-0.063-0.082-0.083c-0.112-0.064-0.251-0.129-0.362-0.065
		c-0.096,0.055-0.123,0.175-0.14,0.283"/>
	<path fill="#EEA820" d="M14.693,71.19c0.172-0.016,0.361-0.038,0.476-0.167c0.031-0.035,0.056-0.079,0.06-0.126
		c0.007-0.067-0.031-0.133-0.086-0.174c-0.054-0.042-0.122-0.061-0.188-0.067c-0.104-0.011-0.215,0.007-0.293,0.075
		c-0.093,0.082-0.12,0.215-0.127,0.339c-0.003,0.059,0.011,0.137,0.069,0.146"/>
	<path fill="#EEA820" d="M15.005,72.18c0.132-0.015,0.209-0.112,0.287-0.219c0.079-0.106,0.12-0.238,0.132-0.371
		c0.01-0.124-0.015-0.268-0.119-0.334c-0.098-0.063-0.225-0.035-0.335-0.006c-0.131,0.034-0.272,0.075-0.354,0.183
		c-0.05,0.067-0.069,0.152-0.077,0.235c-0.009,0.103,0,0.208,0.027,0.308c0.027,0.103,0.078,0.206,0.17,0.259
		c0.092,0.054,0.231,0.032,0.276-0.063"/>
	<path fill="#EEA820" d="M14.939,72.786c-0.021,0.072-0.044,0.146-0.093,0.205c-0.047,0.058-0.127,0.097-0.197,0.075
		c-0.09-0.028-0.13-0.133-0.136-0.227c-0.006-0.099,0.014-0.199,0.056-0.29c0.041-0.087,0.109-0.168,0.204-0.188
		c0.041-0.01,0.092-0.003,0.115,0.032c0.014,0.018,0.071,0.042,0.073,0.063C14.971,72.559,14.971,72.688,14.939,72.786"/>
	<path fill="#EEA820" d="M14.048,71.323c0.051,0.077,0.122,0.139,0.205,0.177c0.019,0.008,0.038,0.017,0.058,0.01
		c0.023-0.006,0.039-0.029,0.05-0.053c0.078-0.16,0.115-0.339,0.106-0.516c-0.002-0.057-0.012-0.116-0.052-0.154
		c-0.064-0.06-0.171-0.031-0.249,0.01c-0.091,0.048-0.18,0.114-0.222,0.208c-0.043,0.094-0.025,0.222,0.061,0.277"/>
	<path fill="#EEA820" d="M14.069,72.167c0.086,0,0.162-0.055,0.226-0.111c0.075-0.067,0.147-0.151,0.151-0.251
		c0.003-0.083-0.044-0.163-0.11-0.214c-0.095-0.073-0.243-0.086-0.33-0.002c-0.036,0.033-0.058,0.079-0.078,0.125
		c-0.042,0.089-0.083,0.187-0.065,0.283C13.881,72.095,13.98,72.209,14.069,72.167"/>
	<path fill="#EEA820" d="M13.923,72.43c-0.025,0.048-0.018,0.109,0.007,0.158c0.025,0.049,0.065,0.089,0.105,0.126
		c0.055,0.053,0.128,0.109,0.201,0.086c0.036-0.012,0.063-0.042,0.088-0.072c0.077-0.099,0.13-0.213,0.18-0.327
		c0.02-0.044,0.037-0.096,0.018-0.139c-0.013-0.025-0.037-0.044-0.063-0.058c-0.074-0.037-0.164-0.04-0.24-0.007
		C14.143,72.23,13.947,72.351,13.923,72.43"/>
	<path fill="#EEA820" d="M13.458,74.015c0.101,0.056,0.376,0.027,0.489,0.006c0.112-0.023,0.217-0.124,0.209-0.239
		c-0.005-0.076-0.056-0.144-0.118-0.187c-0.063-0.045-0.138-0.067-0.211-0.089c-0.044-0.013-0.091-0.024-0.136-0.015
		c-0.049,0.012-0.087,0.048-0.119,0.085c-0.064,0.073-0.118,0.154-0.16,0.241c-0.018,0.036-0.033,0.076-0.029,0.116
		C13.388,73.974,13.418,74.013,13.458,74.015"/>
	<path fill="#EEA820" d="M14.524,73.583l-0.246,0.038c-0.019,0.003-0.038,0.006-0.056-0.001c-0.019-0.007-0.031-0.021-0.042-0.035
		c-0.063-0.087-0.06-0.213-0.001-0.304c0.059-0.09,0.165-0.144,0.271-0.149c0.064-0.004,0.142,0.017,0.163,0.077
		c0.016,0.039,0.003,0.083-0.013,0.122c-0.035,0.088-0.021,0.191-0.083,0.263"/>
	<path fill="#EEA820" d="M13.546,72.526c-0.135-0.047-0.233-0.182-0.236-0.324c-0.001-0.045,0.008-0.094,0.04-0.125
		c0.023-0.023,0.055-0.034,0.087-0.044c0.058-0.016,0.117-0.024,0.177-0.028c0.059-0.003,0.119,0,0.171,0.025
		c0.054,0.026,0.097,0.078,0.097,0.137c0,0.07-0.058,0.126-0.11,0.173C13.698,72.401,13.635,72.557,13.546,72.526"/>
	<path fill="#EEA820" d="M13.589,73.086c-0.024-0.14,0.046-0.292,0.169-0.364c0.039-0.022,0.085-0.037,0.128-0.025
		c0.032,0.009,0.057,0.032,0.081,0.055c0.041,0.043,0.079,0.09,0.111,0.141c0.03,0.05,0.058,0.104,0.061,0.162
		c0.003,0.059-0.021,0.121-0.073,0.15c-0.062,0.034-0.138,0.011-0.204-0.013C13.772,73.16,13.604,73.179,13.589,73.086"/>
	<path fill="#EEA820" d="M13.562,71.933c0.104,0.016,0.178-0.103,0.253-0.174c0.028-0.026,0.048-0.063,0.062-0.098
		c0.029-0.069,0.047-0.144,0.052-0.219c0.008-0.097-0.018-0.214-0.109-0.251c-0.057-0.023-0.123-0.007-0.174,0.029
		c-0.051,0.035-0.087,0.087-0.119,0.139c-0.082,0.134-0.15,0.275-0.2,0.425c-0.011,0.027-0.02,0.06-0.005,0.087
		c0.009,0.018,0.025,0.028,0.044,0.039c0.057,0.03,0.125,0.042,0.189,0.031"/>
</g>
</svg>
