<?xml version="1.0" encoding="utf-8"?>
<!-- Generator: Adobe Illustrator 16.0.2, SVG Export Plug-In . SVG Version: 6.00 Build 0)  -->
<!DOCTYPE svg PUBLIC "-//W3C//DTD SVG 1.1//EN" "http://www.w3.org/Graphics/SVG/1.1/DTD/svg11.dtd">
<svg version="1.1" id="Layer_1" xmlns="http://www.w3.org/2000/svg" xmlns:xlink="http://www.w3.org/1999/xlink" x="0px" y="0px"
	 width="51.595px" height="86.48px" viewBox="0 0 51.595 86.48" enable-background="new 0 0 51.595 86.48" xml:space="preserve">
<g>
	<path fill="#967E84" d="M2.462,8.023c0.706-1.472,2.941-2.197,4.52-2.619c1.576-0.422,3.234-0.382,4.866-0.338
		c9.708,0.256,19.417,0.513,29.125,0.77c2.815,0.074,6.19,0.49,7.411,3.027c0.417,0.865,0.495,1.85,0.566,2.808
		c1.449,19.354,2.9,38.739,2.606,58.145c-0.058,3.811-0.185,7.643-0.95,11.376c-0.252,1.228-0.607,2.504-1.503,3.381
		c-0.712,0.697-1.653,1.238-2.647,1.319c-8.158,0.661-14.541-0.478-21.865-1.096C17.845,84.226,10.927,85.181,4.37,83.5
		c-0.543-0.14-1.1-0.307-1.514-0.681c-0.664-0.597-0.813-1.567-0.896-2.457c-0.292-3.095-0.309-6.209-0.325-9.317
		c-0.083-15.303-0.166-30.607-0.248-45.91C1.356,19.41,1.329,13.636,2.462,8.023"/>
	<path fill="#6E1F3F" d="M0.306,68.54c-0.512-1.128-0.39-2.699,0.435-3.625c0.257-0.287,0.606-0.474,0.948-0.652
		c1.097-0.576,2.192-1.151,3.289-1.727c0.228-0.118,0.472-0.241,0.727-0.214c0.229,0.026,0.426,0.169,0.604,0.316
		c0.889,0.733,1.604,1.676,2.073,2.728c0.183,0.411,0.337,0.852,0.653,1.17c0.466,0.473,1.174,0.578,1.824,0.712
		c1.096,0.228,2.193,0.62,3.014,1.383c0.82,0.761,1.309,1.951,1.001,3.027c-0.483,1.694-2.505,2.325-4.228,2.691
		C9.938,74.5,9.22,74.65,8.5,74.586c-0.731-0.065-1.423-0.35-2.103-0.631c-1.336-0.553-2.69-1.116-3.817-2.021
		C1.453,71.03,0.967,71.232,0.306,68.54"/>
	<path fill="#6E1F3F" d="M21.138,68.598c-0.834,1.095-2.435,1.803-3.772,1.484c-0.417-0.101-0.783-0.344-1.14-0.584
		c-1.139-0.77-2.278-1.538-3.418-2.307c-0.235-0.16-0.484-0.335-0.591-0.599c-0.096-0.238-0.059-0.506-0.009-0.757
		c0.249-1.255,0.794-2.45,1.576-3.463c0.305-0.395,0.654-0.777,0.801-1.254c0.215-0.704-0.054-1.453-0.264-2.158
		c-0.356-1.191-0.551-2.471-0.236-3.674c0.313-1.203,1.221-2.308,2.434-2.573c1.91-0.419,3.592,1.227,4.856,2.717
		c0.519,0.612,1.045,1.236,1.36,1.974c0.322,0.75,0.408,1.575,0.49,2.388c0.164,1.596,0.324,3.218,0.033,4.796
		S23.421,66.535,21.138,68.598"/>
	<path fill="#6E1F3F" d="M16.35,29.05c1.233-0.398,2.853-0.087,3.718,0.879c0.27,0.301,0.422,0.688,0.567,1.064
		c0.469,1.208,0.938,2.416,1.407,3.623c0.097,0.251,0.194,0.519,0.136,0.78c-0.054,0.235-0.226,0.424-0.4,0.591
		c-0.868,0.838-1.931,1.471-3.082,1.834c-0.448,0.141-0.924,0.25-1.293,0.541c-0.546,0.429-0.739,1.152-0.956,1.812
		c-0.365,1.113-0.902,2.209-1.792,2.971c-0.889,0.764-2.185,1.131-3.268,0.685c-1.703-0.702-2.121-2.88-2.298-4.714
		c-0.073-0.752-0.146-1.519,0.007-2.26c0.153-0.753,0.53-1.438,0.903-2.11c0.732-1.324,1.479-2.666,2.553-3.731
		C13.624,29.949,13.472,29.42,16.35,29.05"/>
	<path fill="#6E1F3F" d="M34.503,50.277c1.201-0.451,2.818-0.218,3.719,0.698c0.281,0.286,0.449,0.661,0.61,1.027
		c0.519,1.173,1.039,2.347,1.56,3.52c0.106,0.243,0.217,0.504,0.17,0.767c-0.041,0.234-0.204,0.429-0.368,0.603
		c-0.82,0.868-1.843,1.544-2.964,1.956c-0.438,0.161-0.903,0.29-1.256,0.595c-0.52,0.45-0.678,1.176-0.861,1.838
		c-0.311,1.118-0.792,2.228-1.637,3.022c-0.844,0.796-2.109,1.219-3.201,0.827c-1.719-0.616-2.232-2.751-2.492-4.559
		c-0.107-0.74-0.213-1.494-0.098-2.234c0.117-0.752,0.459-1.448,0.797-2.131c0.664-1.344,1.34-2.706,2.353-3.811
		C31.847,51.292,31.673,50.776,34.503,50.277"/>
	<path fill="#6E1F3F" d="M15.079,83.458c-0.97,0.482-2.347,0.425-3.182-0.267c-0.26-0.215-0.434-0.515-0.602-0.809
		c-0.537-0.94-1.074-1.88-1.611-2.82c-0.11-0.194-0.226-0.404-0.209-0.628c0.015-0.202,0.135-0.378,0.258-0.538
		c0.613-0.8,1.414-1.455,2.318-1.896c0.354-0.173,0.733-0.321,1.004-0.608c0.396-0.422,0.468-1.045,0.564-1.616
		c0.163-0.966,0.473-1.938,1.113-2.678c0.64-0.741,1.666-1.205,2.615-0.97c1.496,0.369,2.11,2.117,2.484,3.611
		c0.153,0.612,0.309,1.236,0.274,1.867c-0.034,0.642-0.261,1.255-0.485,1.857c-0.441,1.184-0.892,2.387-1.646,3.4
		C17.22,82.377,17.412,82.795,15.079,83.458"/>
	<path fill="#6E1F3F" d="M23.488,31.85c-0.165-1.39,0.506-3.041,1.71-3.754c0.376-0.223,0.816-0.303,1.246-0.379
		c1.378-0.244,2.756-0.486,4.134-0.73c0.285-0.05,0.591-0.099,0.854,0.019c0.238,0.106,0.401,0.329,0.543,0.547
		c0.705,1.096,1.152,2.355,1.297,3.65c0.056,0.504,0.07,1.031,0.302,1.484c0.341,0.666,1.067,1.024,1.72,1.392
		c1.104,0.62,2.15,1.419,2.771,2.521c0.623,1.103,0.74,2.553,0.041,3.605c-1.102,1.658-3.496,1.645-5.477,1.448
		c-0.813-0.081-1.639-0.165-2.391-0.481c-0.766-0.321-1.413-0.864-2.049-1.399c-1.248-1.054-2.515-2.125-3.418-3.485
		C23.869,34.925,23.276,34.976,23.488,31.85"/>
	<path fill="#A03242" d="M2.104,43.81c-0.593-1.076-0.59-2.64,0.155-3.615c0.231-0.306,0.563-0.516,0.888-0.718
		c1.041-0.652,2.081-1.304,3.121-1.955c0.215-0.136,0.448-0.274,0.702-0.267c0.228,0.008,0.433,0.135,0.619,0.268
		c0.935,0.657,1.713,1.535,2.256,2.54c0.212,0.392,0.397,0.814,0.734,1.106c0.496,0.432,1.204,0.482,1.856,0.566
		c1.101,0.141,2.216,0.445,3.084,1.137s1.44,1.832,1.219,2.919c-0.35,1.71-2.301,2.487-3.976,2.979
		c-0.688,0.2-1.387,0.404-2.104,0.396c-0.728-0.009-1.433-0.238-2.125-0.464c-1.361-0.446-2.744-0.901-3.927-1.709
		C3.425,46.185,2.96,46.42,2.104,43.81"/>
	<path fill="#6E1F3F" d="M2.997,28.135c-1.163-0.423-2.2-1.609-2.284-2.846c-0.026-0.385,0.087-0.764,0.198-1.134
		c0.355-1.185,0.713-2.37,1.068-3.555c0.074-0.246,0.158-0.507,0.356-0.668c0.179-0.146,0.418-0.187,0.647-0.21
		c1.146-0.121,2.318,0.026,3.397,0.429c0.421,0.157,0.843,0.354,1.292,0.353c0.663-0.003,1.235-0.434,1.785-0.804
		c0.928-0.624,1.977-1.133,3.096-1.185c1.116-0.053,2.309,0.432,2.861,1.403c0.871,1.53-0.094,3.415-1.038,4.901
		c-0.387,0.609-0.782,1.228-1.332,1.696c-0.558,0.477-1.245,0.771-1.92,1.06c-1.329,0.567-2.681,1.139-4.114,1.312
		C5.577,29.06,5.382,29.547,2.997,28.135"/>
	<path fill="#A03242" d="M6.794,51.663c0.6,0.286,1.312,0.22,1.772-0.044c0.461-0.263,0.744-0.757,1.167-1.078
		c0.957-0.725,2.313-0.396,3.459-0.038c1.186,0.372,2.578,0.979,2.734,2.211c0.162,1.284-1.152,2.235-2.342,2.745
		c-3.054,1.308-6.83,1.699-9.514-0.257c-0.645-0.469-1.218-1.087-1.45-1.85c-0.231-0.764-0.054-1.685,0.573-2.177
		C4.21,50.376,5.679,51.013,6.794,51.663"/>
	<path fill="#A03242" d="M39.131,43.865c-0.413,0.746-0.384,1.663-0.082,2.275c0.302,0.61,0.912,1.011,1.29,1.578
		c0.854,1.282,0.329,2.994-0.221,4.434c-0.568,1.49-1.452,3.226-3.043,3.331c-1.659,0.108-2.775-1.65-3.336-3.215
		c-1.436-4.011-1.644-8.88,1.069-12.166c0.652-0.789,1.488-1.476,2.483-1.713c0.996-0.237,2.16,0.063,2.744,0.903
		C40.979,40.654,40.051,42.487,39.131,43.865"/>
	<path fill="#A03242" d="M26.407,23.481c-0.689,0.204-1.213,0.772-1.393,1.318c-0.179,0.546-0.048,1.146-0.156,1.71
		c-0.244,1.275-1.57,1.994-2.75,2.535c-1.22,0.561-2.777,1.082-3.795,0.205c-1.061-0.913-0.693-2.629-0.107-3.9
		c1.505-3.259,4.254-6.308,7.824-6.682c0.857-0.089,1.765-0.008,2.504,0.436c0.737,0.445,1.262,1.314,1.115,2.163
		C29.413,22.641,27.772,23.196,26.407,23.481"/>
	<path fill="#A03242" d="M30.432,80.332c-0.104-0.679-0.573-1.25-1.067-1.491c-0.492-0.24-1.078-0.195-1.599-0.372
		c-1.177-0.396-1.683-1.746-2.041-2.936c-0.371-1.229-0.661-2.772,0.302-3.621c1.004-0.886,2.581-0.313,3.708,0.409
		c2.89,1.852,5.418,4.854,5.304,8.284c-0.026,0.824-0.222,1.673-0.74,2.313c-0.518,0.642-1.408,1.024-2.194,0.774
		C30.833,83.289,30.522,81.663,30.432,80.332"/>
	<path fill="#A03242" d="M21.372,50.2c0.291-0.625,0.216-1.364-0.063-1.841c-0.278-0.476-0.793-0.764-1.13-1.2
		c-0.762-0.986-0.436-2.397-0.072-3.59c0.373-1.233,0.989-2.685,2.268-2.859c1.331-0.181,2.331,1.174,2.871,2.405
		c1.387,3.154,1.83,7.071-0.174,9.876c-0.48,0.674-1.116,1.274-1.905,1.522c-0.79,0.248-1.748,0.072-2.267-0.574
		C20.062,52.894,20.708,51.363,21.372,50.2"/>
	<path fill="#A03242" d="M19.253,77.684c0.416,0.513,1.084,0.758,1.609,0.717c0.526-0.04,0.99-0.363,1.508-0.471
		c1.168-0.242,2.244,0.629,3.119,1.44c0.906,0.838,1.898,1.976,1.514,3.147c-0.401,1.224-1.987,1.517-3.273,1.467
		c-3.296-0.127-6.853-1.386-8.428-4.283c-0.379-0.696-0.63-1.495-0.514-2.279c0.117-0.783,0.67-1.534,1.443-1.709
		C17.481,75.429,18.528,76.625,19.253,77.684"/>
	<path fill="#A03242" d="M6.612,73.75c0.715-0.088,1.326-0.564,1.594-1.074c0.269-0.51,0.238-1.125,0.438-1.665
		c0.452-1.221,1.884-1.712,3.14-2.052c1.301-0.352,2.927-0.609,3.787,0.426c0.898,1.079,0.252,2.715-0.539,3.875
		c-2.028,2.974-5.252,5.534-8.846,5.312c-0.863-0.053-1.746-0.283-2.404-0.846c-0.655-0.562-1.029-1.508-0.744-2.324
		C3.499,74.082,5.214,73.806,6.612,73.75"/>
	<path fill="#A03242" d="M31.202,66.687c-0.656,0.09-1.212,0.534-1.451,1.006c-0.24,0.472-0.205,1.037-0.382,1.535
		c-0.399,1.127-1.707,1.596-2.856,1.924c-1.189,0.339-2.681,0.596-3.484-0.343c-0.838-0.98-0.264-2.491,0.447-3.566
		c1.826-2.757,4.754-5.149,8.056-4.99c0.793,0.038,1.608,0.239,2.219,0.747s0.966,1.372,0.714,2.125
		C34.056,66.342,32.485,66.618,31.202,66.687"/>
	<path fill="#ED2024" d="M50.499,11.67c-0.029-0.958-1.376,0.865-1.549,0c-0.506-2.537-2.984-5.913-1.757-5.835
		c3.542,0.226-7.084-0.452-10.626-0.678c-0.182,7.424-0.694,14.82-0.605,22.256c0.104,8.633,1.018,17.159,0.916,25.794
		c-0.072,6.084-0.647,12.074-0.801,18.15c-0.109,4.389-0.051,10.136-0.125,14.52c1.467,0.058,1.941-0.083,3.4,0.214
		c3.033,0.618,6.732,0.461,10.113-0.2c0.412-0.081,0.801-0.622,1.096-1.319c0.371-0.877,0.52-2.153,0.623-3.381
		c0.318-3.733,0.371-7.565,0.395-11.376C51.701,50.41,51.101,31.024,50.499,11.67"/>
	<path fill="#0F123D" d="M0.644,21.659C0.582,16.177,0.582,13.49,1.392,7.733c0.334-2.369,0.551-5.19,2.379-6.646
		c1.138-0.906,2.681-0.967,4.113-0.988c10.729-0.154,21.461-0.129,32.19,0.076c3.771,0.072,8.192,0.539,10.134,3.898
		c0.883,1.529,1.047,3.379,1.153,5.158c0.28,4.708-0.181,9.433-0.406,14.144C34.603,23.331,18.741,23.287,2.39,23.24
		c-0.875-0.002-2.115-0.548-1.738-1.367"/>
</g>
</svg>
