<?xml version="1.0" encoding="utf-8"?>
<!-- Generator: Adobe Illustrator 16.0.2, SVG Export Plug-In . SVG Version: 6.00 Build 0)  -->
<!DOCTYPE svg PUBLIC "-//W3C//DTD SVG 1.1//EN" "http://www.w3.org/Graphics/SVG/1.1/DTD/svg11.dtd">
<svg version="1.1" id="Layer_1" xmlns="http://www.w3.org/2000/svg" xmlns:xlink="http://www.w3.org/1999/xlink" x="0px" y="0px"
	 width="49.554px" height="66.185px" viewBox="0 0 49.554 66.185" enable-background="new 0 0 49.554 66.185" xml:space="preserve">
<g>
	<path fill="#C9A877" d="M0.908,24.073c0.571,12.241,1.14,24.45,1.709,36.655c0.016,0.331,0.036,0.679,0.239,0.963
		c0.255,0.356,0.739,0.538,1.196,0.691c6.789,2.273,14.183,2.838,21.457,3.38c7.527,0.561,15.528,1.047,22.231-1.894
		c0.63-0.277,1.277-0.612,1.584-1.152c0.248-0.435,0.238-0.94,0.222-1.422c-0.383-11.682-0.765-23.362-1.147-35.07
		c-8.252,2.225-17.095,2.131-25.757,2.015C18.079,28.178,7.083,27.727,0.908,24.073"/>
	<path fill="#6E1F3F" d="M40.676,26.856c1.225,0.329,2.389,1.449,2.584,2.703c0.061,0.391-0.021,0.789-0.102,1.176
		c-0.259,1.242-0.518,2.484-0.776,3.725c-0.054,0.257-0.115,0.531-0.305,0.714c-0.169,0.164-0.411,0.227-0.642,0.272
		c-1.159,0.225-2.37,0.177-3.508-0.138c-0.444-0.122-0.893-0.287-1.352-0.245c-0.676,0.062-1.222,0.553-1.751,0.979
		c-0.892,0.719-1.918,1.332-3.055,1.484c-1.136,0.153-2.396-0.236-3.047-1.18c-1.025-1.485-0.207-3.496,0.625-5.096
		c0.342-0.656,0.69-1.323,1.21-1.851c0.527-0.536,1.203-0.898,1.867-1.252c1.307-0.696,2.635-1.401,4.085-1.703
		C37.959,26.141,38.115,25.626,40.676,26.856"/>
	<path fill="#6E1F3F" d="M30.901,54.008c-0.927-0.868-1.425-2.404-1.005-3.602c0.13-0.374,0.39-0.686,0.643-0.99
		c0.814-0.973,1.627-1.946,2.441-2.919c0.168-0.202,0.352-0.413,0.604-0.486c0.227-0.066,0.47-0.006,0.695,0.063
		c1.128,0.348,2.174,0.96,3.029,1.774c0.334,0.318,0.651,0.674,1.075,0.853c0.626,0.264,1.338,0.089,2.005-0.038
		c1.127-0.214,2.32-0.271,3.395,0.131c1.075,0.401,2.002,1.338,2.132,2.477c0.204,1.792-1.465,3.18-2.953,4.2
		c-0.61,0.418-1.233,0.842-1.938,1.062c-0.72,0.224-1.485,0.225-2.237,0.224c-1.481-0.001-2.985-0.006-4.406-0.422
		C32.96,55.918,32.579,56.3,30.901,54.008"/>
	<path fill="#6E1F3F" d="M16.274,56.816c0.003,1.269-0.772,2.685-1.932,3.202c-0.361,0.161-0.767,0.187-1.161,0.211
		c-1.266,0.075-2.532,0.151-3.798,0.227c-0.262,0.015-0.542,0.027-0.769-0.107c-0.203-0.12-0.326-0.337-0.431-0.549
		c-0.521-1.059-0.793-2.24-0.787-3.421c0.002-0.46,0.044-0.936-0.116-1.368c-0.237-0.636-0.854-1.034-1.404-1.433
		c-0.928-0.673-1.788-1.502-2.233-2.559c-0.444-1.057-0.399-2.375,0.34-3.25c1.165-1.378,3.32-1.116,5.082-0.732
		c0.724,0.157,1.458,0.319,2.104,0.682c0.655,0.369,1.182,0.926,1.698,1.474c1.014,1.078,2.041,2.176,2.714,3.495
		C16.253,54.007,16.791,54.023,16.274,56.816"/>
	<path fill="#A03242" d="M43.801,28.042c1.27,0.006,2.68,0.792,3.188,1.955c0.157,0.363,0.181,0.768,0.202,1.163
		c0.065,1.267,0.133,2.533,0.198,3.8c0.015,0.262,0.023,0.542-0.111,0.767c-0.122,0.203-0.341,0.324-0.553,0.427
		c-1.063,0.513-2.247,0.776-3.427,0.762c-0.46-0.006-0.936-0.051-1.369,0.107c-0.638,0.232-1.04,0.846-1.442,1.393
		c-0.681,0.923-1.516,1.777-2.575,2.214c-1.061,0.437-2.378,0.382-3.248-0.364c-1.369-1.174-1.092-3.327-0.695-5.087
		c0.163-0.722,0.33-1.456,0.698-2.098c0.374-0.653,0.934-1.175,1.486-1.687c1.086-1.006,2.19-2.026,3.515-2.688
		S41.012,27.505,43.801,28.042"/>
	<path fill="#6E1F3F" d="M17.944,57.2c-0.908-0.886-1.375-2.432-0.933-3.621c0.138-0.371,0.402-0.679,0.663-0.977l2.499-2.87
		c0.172-0.198,0.359-0.406,0.613-0.474c0.229-0.061,0.469,0.003,0.693,0.077c1.121,0.37,2.155,1.004,2.993,1.835
		c0.327,0.324,0.638,0.687,1.059,0.874c0.62,0.277,1.336,0.115,2.006,0.002c1.13-0.191,2.324-0.224,3.391,0.198
		c1.065,0.423,1.975,1.378,2.082,2.52c0.168,1.796-1.528,3.15-3.037,4.14c-0.618,0.405-1.249,0.817-1.96,1.023
		c-0.723,0.209-1.489,0.195-2.241,0.179c-1.48-0.031-2.984-0.066-4.396-0.51C19.965,59.151,19.576,59.525,17.944,57.2"/>
	<path fill="#6E1F3F" d="M11.641,40.077c0.082-1.266,0.951-2.627,2.143-3.065c0.372-0.136,0.777-0.135,1.173-0.132
		c1.269,0.01,2.537,0.02,3.806,0.03c0.263,0.002,0.543,0.009,0.759,0.158c0.194,0.134,0.303,0.359,0.393,0.577
		c0.448,1.092,0.64,2.289,0.555,3.466c-0.033,0.459-0.106,0.931,0.024,1.373c0.194,0.651,0.782,1.089,1.304,1.524
		c0.882,0.734,1.684,1.62,2.057,2.704c0.372,1.084,0.237,2.396-0.56,3.22c-1.255,1.296-3.387,0.89-5.119,0.388
		c-0.711-0.206-1.434-0.417-2.053-0.822c-0.629-0.413-1.117-1.004-1.594-1.586c-0.94-1.144-1.893-2.308-2.473-3.67
		C11.473,42.881,10.938,42.829,11.641,40.077"/>
	<path fill="#6E1F3F" d="M34.657,46.639c-1.267-0.075-2.632-0.937-3.077-2.125c-0.138-0.371-0.139-0.777-0.138-1.173l0.008-3.805
		c0-0.262,0.006-0.543,0.153-0.76c0.133-0.195,0.356-0.305,0.575-0.396c1.09-0.455,2.284-0.653,3.463-0.574
		c0.459,0.03,0.932,0.101,1.372-0.033c0.649-0.197,1.085-0.788,1.517-1.312c0.729-0.885,1.61-1.692,2.693-2.071
		c1.082-0.379,2.394-0.252,3.223,0.54c1.303,1.247,0.909,3.382,0.417,5.117c-0.202,0.712-0.409,1.437-0.811,2.057
		c-0.409,0.632-0.997,1.123-1.576,1.604c-1.14,0.946-2.298,1.904-3.656,2.493S37.413,47.327,34.657,46.639"/>
	<path fill="#A03242" d="M40.49,54.562c0.65-0.37,1.048-1.07,1.102-1.666c0.053-0.596-0.223-1.174-0.246-1.772
		c-0.053-1.35,1.122-2.392,2.191-3.22c1.105-0.855,2.562-1.752,3.801-1.104c1.291,0.676,1.324,2.502,1.029,3.93
		c-0.758,3.661-2.825,7.402-6.358,8.623c-0.849,0.293-1.788,0.425-2.642,0.149c-0.854-0.277-1.591-1.034-1.643-1.93
		C37.64,56.122,39.173,55.173,40.49,54.562"/>
	<path fill="#A03242" d="M16.513,31.171c0.508,0.549,1.28,0.776,1.872,0.692c0.593-0.084,1.094-0.483,1.67-0.642
		c1.303-0.361,2.585,0.546,3.634,1.399c1.086,0.882,2.29,2.095,1.94,3.449c-0.363,1.412-2.135,1.86-3.593,1.898
		c-3.735,0.097-7.85-1.064-9.844-4.226c-0.479-0.759-0.822-1.644-0.747-2.539c0.075-0.894,0.644-1.784,1.505-2.039
		C14.344,28.751,15.616,30.027,16.513,31.171"/>
	<path fill="#A03242" d="M11.104,46.553c-0.231-0.712-0.837-1.242-1.409-1.415c-0.573-0.173-1.194-0.021-1.784-0.119
		c-1.334-0.22-2.116-1.582-2.71-2.796c-0.614-1.257-1.197-2.864-0.313-3.946c0.925-1.128,2.721-0.79,4.059-0.212
		c3.431,1.482,6.676,4.265,7.157,7.972c0.115,0.89,0.055,1.837-0.39,2.617c-0.443,0.78-1.335,1.348-2.223,1.218
		C12.055,49.66,11.436,47.967,11.104,46.553"/>
	<path fill="#A03242" d="M6.321,32.021c0.744,0.082,1.477-0.253,1.868-0.704c0.394-0.452,0.51-1.081,0.841-1.579
		c0.748-1.126,2.312-1.281,3.662-1.324c1.398-0.045,3.104,0.083,3.727,1.335c0.649,1.305-0.396,2.803-1.472,3.787
		c-2.759,2.521-6.628,4.339-10.206,3.257c-0.859-0.26-1.697-0.704-2.228-1.429c-0.529-0.725-0.682-1.77-0.198-2.526
		C3.098,31.613,4.896,31.744,6.321,32.021"/>
	<path fill="#A03242" d="M15.934,57.647c0.646,0.376,1.451,0.368,1.994,0.114c0.541-0.253,0.902-0.781,1.407-1.102
		c1.142-0.726,2.632-0.233,3.884,0.275c1.297,0.527,2.804,1.335,2.865,2.732c0.064,1.456-1.498,2.403-2.881,2.865
		c-3.545,1.185-7.818,1.277-10.649-1.163c-0.681-0.586-1.267-1.332-1.456-2.21c-0.19-0.877,0.094-1.894,0.843-2.39
		C13.152,55.966,14.742,56.815,15.934,57.647"/>
	<path fill="#A03242" d="M32.774,60.667c0.739,0.11,1.484-0.196,1.894-0.632c0.409-0.437,0.55-1.061,0.9-1.546
		c0.791-1.096,2.357-1.191,3.71-1.183c1.398,0.009,3.097,0.201,3.673,1.476c0.599,1.329-0.502,2.787-1.615,3.729
		c-2.854,2.414-6.79,4.082-10.323,2.864c-0.849-0.293-1.67-0.768-2.172-1.513c-0.501-0.745-0.612-1.795-0.102-2.532
		C29.568,60.136,31.359,60.335,32.774,60.667"/>
	<path fill="#A03242" d="M29.992,43.204c-0.652-0.367-1.457-0.346-1.995-0.085c-0.538,0.262-0.892,0.795-1.392,1.124
		c-1.131,0.742-2.628,0.272-3.889-0.218c-1.303-0.507-2.821-1.292-2.904-2.689c-0.086-1.455,1.463-2.424,2.838-2.907
		c3.526-1.238,7.799-1.394,10.666,1.004c0.688,0.576,1.286,1.313,1.488,2.188c0.203,0.875-0.065,1.896-0.807,2.402
		C32.798,44.843,31.195,44.018,29.992,43.204"/>
	<path fill="#EC2227" d="M0.43,26.997c8.51,0.747,35.793,2.799,44.282,1.86c1.341-0.148,2.864-0.442,3.549-1.604
		c0.373-0.634,0.411-1.405,0.429-2.141c0.139-5.773,0.588-12.774-0.486-18.448C32.084,8.07,15.112,10.378,0,4.597
		c0.127,5.844,0.141,13.363,0.611,19.189"/>
	<path fill="#6E6D74" d="M0.652,5.219c2.449,1.72,5.438,2.47,8.375,3.043c11.892,2.321,24.236,2.287,36.114-0.099
		c1.143-0.23,2.388-0.548,3.062-1.499c0.923-1.301,0.265-3.235-0.993-4.216c-1.257-0.981-2.915-1.246-4.498-1.44
		C34.889,0.05,26.984,0.025,19.103,0.002C13.241-0.015,7.205,0,1.777,2.212c-0.442,0.18-0.893,0.383-1.217,0.733
		c-1.025,1.107,0.254,3.281,1.721,2.921"/>
	<path fill="#C0BEBE" d="M2.087,3.751c6.372-3.267,44.412-2.522,44.412,1.41C31.988,8.167,16.792,7.817,2.436,4.146"/>
</g>
</svg>
