<?xml version="1.0" encoding="utf-8"?>
<!-- Generator: Adobe Illustrator 16.0.2, SVG Export Plug-In . SVG Version: 6.00 Build 0)  -->
<!DOCTYPE svg PUBLIC "-//W3C//DTD SVG 1.1//EN" "http://www.w3.org/Graphics/SVG/1.1/DTD/svg11.dtd">
<svg version="1.1" id="Layer_1" xmlns="http://www.w3.org/2000/svg" xmlns:xlink="http://www.w3.org/1999/xlink" x="0px" y="0px"
	 width="51.595px" height="88.18px" viewBox="0 0 51.595 88.18" enable-background="new 0 0 51.595 88.18" xml:space="preserve">
<g>
	<path fill="#F4D49D" d="M2.461,9.724c0.707-1.473,2.942-2.198,4.52-2.619c1.577-0.422,3.234-0.382,4.867-0.338
		c9.708,0.256,19.417,0.512,29.125,0.769c2.814,0.074,6.189,0.49,7.41,3.028c0.418,0.865,0.496,1.849,0.568,2.807
		c1.448,19.354,2.899,38.739,2.605,58.146c-0.059,3.81-0.186,7.642-0.951,11.376c-0.251,1.226-0.607,2.504-1.502,3.381
		c-0.712,0.697-1.652,1.238-2.646,1.319c-8.16,0.66-14.543-0.479-21.867-1.097c-6.745-0.568-13.663,0.386-20.221-1.295
		c-0.541-0.139-1.099-0.306-1.514-0.68c-0.664-0.598-0.813-1.568-0.896-2.457c-0.291-3.095-0.309-6.209-0.324-9.318
		c-0.083-15.303-0.166-30.606-0.248-45.91C1.355,21.109,1.33,15.336,2.461,9.724"/>
	<path fill="#FFEDD5" d="M0.306,70.24c-0.512-1.128-0.39-2.7,0.435-3.625c0.256-0.288,0.606-0.475,0.949-0.653
		c1.096-0.576,2.191-1.15,3.289-1.726c0.227-0.119,0.471-0.242,0.725-0.214c0.229,0.025,0.427,0.169,0.604,0.315
		c0.888,0.734,1.604,1.676,2.073,2.729c0.182,0.411,0.337,0.851,0.652,1.17c0.467,0.472,1.175,0.578,1.824,0.712
		c1.096,0.227,2.194,0.62,3.014,1.382c0.82,0.761,1.31,1.952,1.002,3.028c-0.483,1.693-2.506,2.325-4.229,2.69
		c-0.705,0.15-1.425,0.302-2.145,0.237c-0.73-0.065-1.424-0.35-2.102-0.63c-1.336-0.553-2.691-1.117-3.818-2.021
		S0.967,72.932,0.306,70.24"/>
	<path fill="#FFEDD5" d="M21.137,70.299c-0.833,1.094-2.434,1.802-3.771,1.483c-0.418-0.1-0.783-0.344-1.14-0.584
		c-1.139-0.769-2.278-1.538-3.418-2.307c-0.235-0.16-0.485-0.334-0.591-0.599c-0.096-0.237-0.059-0.506-0.009-0.757
		c0.249-1.255,0.794-2.45,1.575-3.462c0.306-0.395,0.656-0.777,0.802-1.255c0.215-0.704-0.054-1.453-0.265-2.158
		c-0.355-1.19-0.549-2.471-0.235-3.674s1.22-2.307,2.435-2.573c1.909-0.419,3.592,1.227,4.855,2.718
		c0.52,0.611,1.045,1.235,1.361,1.973c0.32,0.75,0.406,1.576,0.489,2.388c0.163,1.597,0.324,3.218,0.033,4.796
		S23.421,68.234,21.137,70.299"/>
	<path fill="#FFEDD5" d="M16.35,30.751c1.232-0.399,2.853-0.088,3.718,0.879c0.269,0.301,0.421,0.687,0.567,1.063
		c0.469,1.208,0.938,2.416,1.406,3.623c0.098,0.251,0.195,0.52,0.137,0.781c-0.055,0.234-0.227,0.423-0.4,0.59
		c-0.868,0.838-1.932,1.471-3.082,1.834c-0.447,0.141-0.924,0.25-1.293,0.541c-0.546,0.429-0.74,1.153-0.956,1.813
		c-0.364,1.112-0.903,2.209-1.792,2.971c-0.889,0.763-2.186,1.13-3.268,0.684c-1.703-0.702-2.121-2.88-2.299-4.714
		c-0.072-0.752-0.145-1.518,0.008-2.259c0.154-0.753,0.531-1.439,0.902-2.111c0.733-1.324,1.479-2.666,2.553-3.73
		C13.625,31.648,13.471,31.12,16.35,30.751"/>
	<path fill="#FFEDD5" d="M34.502,51.978c1.202-0.452,2.818-0.218,3.719,0.698c0.281,0.285,0.449,0.66,0.611,1.026
		c0.52,1.173,1.039,2.347,1.559,3.521c0.107,0.242,0.217,0.504,0.172,0.766c-0.043,0.235-0.205,0.429-0.369,0.604
		c-0.82,0.867-1.844,1.544-2.965,1.955c-0.438,0.161-0.902,0.29-1.256,0.596c-0.519,0.45-0.678,1.175-0.861,1.838
		c-0.309,1.118-0.791,2.227-1.635,3.021c-0.846,0.796-2.11,1.22-3.203,0.827c-1.717-0.616-2.231-2.751-2.491-4.558
		c-0.107-0.741-0.214-1.495-0.097-2.235c0.117-0.752,0.459-1.448,0.795-2.131c0.664-1.343,1.34-2.706,2.354-3.81
		S31.672,52.477,34.502,51.978"/>
	<path fill="#FFEDD5" d="M15.079,85.157c-0.97,0.483-2.347,0.425-3.183-0.266c-0.26-0.215-0.433-0.516-0.601-0.81
		c-0.537-0.939-1.073-1.88-1.61-2.819c-0.111-0.195-0.227-0.405-0.211-0.628c0.016-0.202,0.135-0.378,0.258-0.538
		c0.613-0.8,1.414-1.455,2.32-1.897c0.354-0.173,0.732-0.32,1.002-0.607c0.397-0.423,0.469-1.045,0.565-1.616
		c0.163-0.966,0.474-1.938,1.112-2.678c0.641-0.741,1.666-1.205,2.617-0.971c1.494,0.369,2.109,2.117,2.483,3.611
		c0.153,0.613,0.308,1.237,0.274,1.868c-0.034,0.641-0.262,1.255-0.485,1.856c-0.44,1.185-0.892,2.388-1.647,3.4
		C17.221,84.077,17.412,84.495,15.079,85.157"/>
	<path fill="#FFEDD5" d="M23.488,33.551c-0.166-1.391,0.506-3.041,1.709-3.754c0.377-0.224,0.816-0.304,1.246-0.379
		c1.379-0.244,2.756-0.487,4.135-0.731c0.285-0.05,0.591-0.098,0.854,0.019c0.238,0.106,0.401,0.329,0.542,0.548
		c0.706,1.095,1.153,2.354,1.297,3.649c0.057,0.504,0.071,1.031,0.303,1.484c0.341,0.667,1.066,1.024,1.72,1.392
		c1.103,0.62,2.151,1.419,2.772,2.521c0.621,1.102,0.739,2.552,0.039,3.604c-1.101,1.658-3.496,1.646-5.476,1.448
		c-0.812-0.081-1.64-0.165-2.392-0.481c-0.766-0.32-1.414-0.863-2.047-1.399c-1.25-1.053-2.516-2.125-3.418-3.485
		C23.869,36.626,23.277,36.677,23.488,33.551"/>
	<path fill="#EEA820" d="M2.104,45.51c-0.592-1.076-0.59-2.639,0.154-3.615c0.232-0.305,0.564-0.515,0.889-0.718l3.121-1.955
		c0.215-0.135,0.447-0.274,0.701-0.266c0.229,0.008,0.434,0.135,0.621,0.267c0.934,0.658,1.713,1.535,2.254,2.54
		c0.213,0.392,0.398,0.815,0.734,1.107c0.497,0.431,1.205,0.481,1.857,0.565c1.101,0.142,2.216,0.446,3.084,1.137
		c0.867,0.691,1.441,1.832,1.219,2.92c-0.35,1.71-2.301,2.486-3.977,2.979c-0.687,0.201-1.387,0.405-2.103,0.396
		c-0.728-0.01-1.433-0.238-2.125-0.465c-1.362-0.445-2.744-0.9-3.927-1.709C3.426,47.885,2.961,48.121,2.104,45.51"/>
	<path fill="#FFEDD5" d="M2.997,29.836c-1.163-0.423-2.2-1.61-2.284-2.846C0.688,26.604,0.8,26.226,0.91,25.855
		c0.356-1.185,0.714-2.37,1.07-3.555c0.073-0.246,0.156-0.506,0.355-0.668c0.178-0.146,0.418-0.186,0.648-0.21
		c1.145-0.121,2.317,0.027,3.396,0.429c0.421,0.157,0.843,0.355,1.292,0.354c0.663-0.003,1.235-0.435,1.785-0.805
		c0.928-0.624,1.978-1.133,3.095-1.185s2.309,0.432,2.862,1.404c0.87,1.529-0.095,3.415-1.038,4.9
		c-0.387,0.609-0.782,1.229-1.331,1.696c-0.56,0.477-1.246,0.772-1.921,1.06c-1.329,0.567-2.68,1.14-4.114,1.312
		S5.382,31.248,2.997,29.836"/>
	<path fill="#EEA820" d="M6.793,53.363c0.6,0.285,1.313,0.22,1.773-0.044s0.744-0.758,1.166-1.078
		c0.957-0.726,2.313-0.397,3.459-0.038c1.187,0.372,2.578,0.978,2.734,2.211c0.164,1.284-1.152,2.234-2.342,2.745
		c-3.053,1.307-6.83,1.699-9.513-0.257c-0.646-0.47-1.218-1.088-1.45-1.851s-0.055-1.684,0.573-2.177
		C4.209,52.077,5.678,52.713,6.793,53.363"/>
	<path fill="#EEA820" d="M39.131,45.565c-0.413,0.745-0.385,1.663-0.082,2.274c0.302,0.611,0.912,1.011,1.289,1.578
		c0.854,1.283,0.33,2.994-0.219,4.434c-0.569,1.49-1.453,3.227-3.045,3.331c-1.658,0.108-2.774-1.649-3.334-3.215
		c-1.437-4.011-1.645-8.88,1.068-12.166c0.652-0.789,1.488-1.475,2.482-1.713c0.996-0.237,2.162,0.063,2.744,0.904
		C40.979,42.354,40.051,44.188,39.131,45.565"/>
	<path fill="#EEA820" d="M26.406,25.181c-0.689,0.205-1.213,0.772-1.392,1.319c-0.179,0.546-0.048,1.146-0.156,1.71
		c-0.243,1.274-1.569,1.993-2.75,2.534c-1.22,0.561-2.776,1.082-3.795,0.205c-1.062-0.913-0.694-2.629-0.106-3.899
		c1.504-3.26,4.252-6.309,7.822-6.683c0.858-0.089,1.766-0.008,2.504,0.437s1.262,1.313,1.116,2.163
		C29.412,24.342,27.772,24.896,26.406,25.181"/>
	<path fill="#EEA820" d="M30.432,82.031c-0.104-0.679-0.573-1.25-1.067-1.49c-0.493-0.241-1.079-0.196-1.599-0.372
		c-1.176-0.397-1.684-1.747-2.041-2.937c-0.371-1.229-0.661-2.771,0.302-3.621c1.004-0.886,2.581-0.313,3.708,0.409
		c2.891,1.853,5.418,4.854,5.304,8.284c-0.026,0.824-0.222,1.673-0.739,2.314c-0.519,0.641-1.41,1.023-2.195,0.773
		C30.832,84.988,30.522,83.362,30.432,82.031"/>
	<path fill="#EEA820" d="M21.371,51.899c0.291-0.625,0.217-1.364-0.063-1.84c-0.277-0.477-0.793-0.765-1.13-1.201
		c-0.763-0.986-0.435-2.397-0.073-3.589c0.374-1.234,0.99-2.686,2.268-2.86c1.332-0.181,2.332,1.174,2.873,2.405
		c1.386,3.155,1.828,7.072-0.174,9.876c-0.481,0.674-1.117,1.274-1.906,1.522c-0.791,0.248-1.748,0.072-2.267-0.573
		C20.062,54.595,20.707,53.063,21.371,51.899"/>
	<path fill="#EEA820" d="M19.252,79.385c0.416,0.512,1.084,0.757,1.61,0.716c0.526-0.04,0.99-0.363,1.507-0.47
		c1.168-0.243,2.246,0.629,3.121,1.439c0.905,0.838,1.897,1.977,1.512,3.148c-0.4,1.223-1.986,1.516-3.272,1.466
		c-3.296-0.127-6.853-1.385-8.428-4.283c-0.38-0.695-0.63-1.495-0.513-2.278s0.668-1.534,1.441-1.709
		C17.48,77.13,18.528,78.325,19.252,79.385"/>
	<path fill="#EEA820" d="M6.611,75.45c0.715-0.088,1.327-0.563,1.596-1.074c0.268-0.51,0.237-1.125,0.438-1.665
		c0.452-1.221,1.883-1.712,3.139-2.052c1.301-0.351,2.928-0.608,3.788,0.426c0.898,1.079,0.251,2.716-0.54,3.875
		c-2.027,2.975-5.252,5.534-8.845,5.313c-0.862-0.053-1.747-0.284-2.403-0.846c-0.656-0.563-1.031-1.509-0.746-2.324
		C3.5,75.781,5.213,75.506,6.611,75.45"/>
	<path fill="#EEA820" d="M31.202,68.387c-0.656,0.09-1.212,0.534-1.451,1.006c-0.239,0.473-0.205,1.037-0.382,1.535
		c-0.4,1.127-1.707,1.596-2.857,1.924c-1.188,0.339-2.68,0.597-3.484-0.343c-0.838-0.979-0.264-2.491,0.449-3.566
		c1.824-2.757,4.752-5.148,8.055-4.989c0.793,0.038,1.607,0.238,2.219,0.747c0.609,0.508,0.965,1.372,0.713,2.125
		C34.057,68.043,32.484,68.317,31.202,68.387"/>
	<path fill="#ED2024" d="M50.499,13.37c-0.03-0.958-1.376,0.865-1.549,0c-0.507-2.537-2.985-5.913-1.757-5.835
		c3.541,0.226-7.084-0.452-10.627-0.678c-0.18,7.424-0.693,14.82-0.604,22.256c0.104,8.633,1.017,17.16,0.915,25.794
		c-0.072,6.084-0.646,12.075-0.8,18.151c-0.11,4.388-0.052,10.135-0.125,14.519c1.466,0.058,1.94-0.083,3.399,0.214
		c3.035,0.618,6.733,0.461,10.114-0.2c0.411-0.081,0.802-0.622,1.097-1.318c0.371-0.877,0.519-2.154,0.623-3.381
		c0.316-3.734,0.369-7.566,0.394-11.376C51.701,52.109,51.1,32.725,50.499,13.37"/>
	<path fill="#0F123D" d="M0.645,21.658c-0.063-5.48-0.063-8.168,0.748-13.925c0.334-2.369,0.549-5.191,2.379-6.646
		C4.908,0.182,6.451,0.12,7.884,0.1c10.729-0.154,21.461-0.129,32.19,0.076c3.77,0.071,8.193,0.539,10.134,3.898
		c0.883,1.529,1.047,3.378,1.153,5.158c0.281,4.708-0.18,9.432-0.406,14.143C34.604,23.33,18.74,23.286,2.391,23.24
		c-0.875-0.002-2.117-0.548-1.74-1.368"/>
</g>
</svg>
