<?xml version="1.0" encoding="utf-8"?>
<!-- Generator: Adobe Illustrator 16.0.2, SVG Export Plug-In . SVG Version: 6.00 Build 0)  -->
<!DOCTYPE svg PUBLIC "-//W3C//DTD SVG 1.1//EN" "http://www.w3.org/Graphics/SVG/1.1/DTD/svg11.dtd">
<svg version="1.1" id="Layer_1" xmlns="http://www.w3.org/2000/svg" xmlns:xlink="http://www.w3.org/1999/xlink" x="0px" y="0px"
	 width="103.255px" height="93.715px" viewBox="0 0 103.255 93.715" enable-background="new 0 0 103.255 93.715"
	 xml:space="preserve">
<g>
	<path fill="#B4C681" d="M34.604,38.691c-4.307-1.073-8.636-2.26-13.073-2.366c-3.315-0.08-6.609,0.445-9.901,0.844
		c-1.378,0.167-2.76,0.291-4.143,0.413c0.054,2.235,0.183,4.467,0.592,6.661c0.569,3.05,1.669,6.031,1.68,9.133
		c0.006,2.163-0.521,4.288-0.769,6.437c-0.373,3.223-0.123,6.486-0.358,9.722c-0.327,4.511-1.609,8.95-3.738,12.94
		c10.299-3.144,21.098,2.249,31.835,3.065c3.647,0.277,7.311,0.019,10.966-0.104c5.376-0.181,10.756-0.07,16.133,0.039
		c10.656,0.219,21.312,0.437,31.967,0.655c-1.363-13.089-2.701-26.388-1.802-39.452C73.983,46.199,54.026,43.531,34.604,38.691"/>
	<path fill="#046937" d="M28.146,58.884c5.896-0.263,11.692-1.682,17.584-2.013c5.893-0.33,12.194,0.591,16.722,4.378
		c3.086,2.581,5.059,6.246,7.879,9.116c1.29,1.313,3.238,2.518,4.866,1.656c0.726-4.325-1.544-8.991-5.395-11.091
		c-1.183-0.645-2.478-1.059-3.677-1.675c-2.56-1.314-4.578-3.488-7.042-4.976c-3.458-2.09-7.641-2.719-11.675-2.493
		c-4.034,0.224-7.974,1.25-11.883,2.271c-2.962,0.773-6.068,1.626-8.25,3.772c0.236,0.456,0.472,0.911,0.708,1.366"/>
	<path fill="#046937" d="M26.498,37.501c4.28,4.064,9.323,7.253,13.649,11.269c4.326,4.016,8.034,9.191,8.447,15.08
		c0.282,4.013-0.988,7.978-1.099,11.999c-0.051,1.841,0.433,4.079,2.183,4.653c3.619-2.477,5.405-7.35,4.245-11.578
		c-0.357-1.301-0.957-2.521-1.345-3.811c-0.83-2.756-0.664-5.718-1.301-8.524c-0.895-3.939-3.344-7.39-6.304-10.139
		c-2.961-2.749-6.433-4.876-9.88-6.982c-2.611-1.598-5.381-3.242-8.441-3.325c-0.164,0.485-0.328,0.972-0.492,1.458"/>
	<path fill="#046937" d="M50.001,55.941c-3.858,4.466-6.807,9.653-10.615,14.163c-3.807,4.51-8.804,8.457-14.666,9.146
		c-3.995,0.471-8.015-0.612-12.037-0.534c-1.841,0.035-4.054,0.625-4.547,2.398c2.645,3.499,7.596,5.054,11.767,3.697
		c1.281-0.417,2.472-1.074,3.742-1.523c2.714-0.958,5.68-0.931,8.454-1.699c3.893-1.078,7.224-3.688,9.831-6.773
		s4.568-6.655,6.511-10.197c1.472-2.684,2.986-5.526,2.924-8.588c-0.493-0.141-0.986-0.282-1.479-0.423"/>
	<path fill="#046937" d="M91.828,58.644c-4.186,4.161-7.52,9.109-11.659,13.317c-4.139,4.208-9.421,7.764-15.318,8.007
		c-4.02,0.166-7.945-1.219-11.962-1.446c-1.839-0.104-4.09,0.315-4.716,2.047c2.372,3.689,7.191,5.616,11.452,4.578
		c1.31-0.317,2.547-0.883,3.848-1.233c2.779-0.749,5.734-0.497,8.558-1.054c3.964-0.779,7.483-3.129,10.317-6.008
		c2.833-2.88,5.06-6.289,7.266-9.673c1.672-2.565,3.397-5.285,3.568-8.341l-1.443-0.535"/>
	<path fill="#046937" d="M92.847,87.34c-5.198-2.797-10.902-4.548-16.131-7.283c-5.23-2.737-10.169-6.757-12.115-12.329
		c-1.328-3.797-1.144-7.956-2.094-11.865c-0.435-1.79-1.491-3.822-3.33-3.917c-2.84,3.342-3.283,8.512-1.051,12.288
		c0.685,1.16,1.585,2.18,2.299,3.323c1.525,2.44,2.144,5.342,3.497,7.882c1.899,3.565,5.168,6.25,8.747,8.124
		s7.489,3.013,11.368,4.14c2.94,0.854,6.045,1.713,9.018,0.988c0.031-0.512,0.061-1.023,0.092-1.535"/>
	<path fill="#44612D" d="M17.58,63.205c4.366-7.219,5.661-16.279,11.413-22.45c2.314-2.482,5.214-4.331,8.102-6.115
		c2.083-1.287,4.177-2.556,6.283-3.806c2.946-1.749,6.005-3.494,9.394-4.004c2.808-0.423,5.755,0.02,8.45-0.877
		c1.497-0.498,3.042-2.165,2.133-3.455c-0.507-0.72-1.505-0.842-2.382-0.901c-3.554-0.239-7.175-0.473-10.632,0.38
		c-1.746,0.431-3.413,1.13-5.05,1.873c-7.896,3.582-15.397,8.318-21.165,14.791c-5.769,6.472-9.707,14.81-9.871,23.478
		c-0.008,0.424-0.001,0.869,0.209,1.236c0.694,1.209,2.543,0.472,3.645-0.383"/>
	<path fill="#44612D" d="M81.034,41.778c2.067,5.645,6.526,10.403,7.393,16.352c0.349,2.393,0.083,4.829-0.212,7.229
		c-0.213,1.732-0.441,3.462-0.685,5.19c-0.341,2.417-0.734,4.896-1.96,7.007c-1.017,1.75-2.577,3.19-3.28,5.088
		c-0.39,1.054-0.152,2.657,0.971,2.727c0.625,0.037,1.138-0.462,1.562-0.924c1.717-1.868,3.461-3.776,4.528-6.08
		c0.539-1.161,0.893-2.399,1.209-3.642c1.529-5.986,2.239-12.266,1.212-18.358c-1.027-6.092-3.906-11.996-8.652-15.951
		c-0.232-0.193-0.482-0.389-0.781-0.436c-0.981-0.152-1.395,1.204-1.411,2.197"/>
	<path fill="#44612D" d="M64.617,40.196c-5.491,6.403-8.256,15.129-14.943,20.271c-2.69,2.069-5.855,3.416-8.996,4.702
		c-2.266,0.928-4.54,1.836-6.822,2.723c-3.194,1.242-6.498,2.462-9.924,2.409c-2.84-0.044-5.674-0.965-8.479-0.522
		c-1.559,0.245-3.357,1.637-2.672,3.059c0.383,0.792,1.346,1.077,2.202,1.279c3.466,0.819,7,1.644,10.551,1.371
		c1.792-0.139,3.551-0.556,5.288-1.02c8.377-2.237,16.553-5.678,23.306-11.116c6.753-5.438,12.006-13.015,13.59-21.539
		c0.078-0.417,0.145-0.857-0.003-1.254c-0.486-1.307-2.431-0.882-3.658-0.221"/>
	<path fill="#046937" d="M13.986,75.074c5.709-6.21,8.774-14.834,15.635-19.742c2.761-1.976,5.969-3.212,9.153-4.389
		c2.297-0.849,4.601-1.678,6.913-2.485c3.235-1.13,6.579-2.235,10.001-2.063c2.837,0.143,5.637,1.16,8.456,0.815
		c1.567-0.192,3.412-1.521,2.776-2.964c-0.355-0.806-1.308-1.123-2.157-1.355c-3.435-0.938-6.938-1.885-10.496-1.735
		c-1.797,0.076-3.569,0.433-5.321,0.836c-8.449,1.946-16.739,5.103-23.677,10.304c-6.937,5.201-12.448,12.592-14.327,21.056
		c-0.091,0.413-0.173,0.853-0.04,1.253c0.441,1.323,2.399,0.966,3.649,0.347"/>
	<path fill="#44612D" d="M25.724,73.632c7.53-3.803,13.435-10.796,21.584-12.975c3.279-0.877,6.718-0.905,10.112-0.887
		c2.449,0.015,4.898,0.051,7.346,0.108c3.425,0.08,6.944,0.223,10.087,1.589c2.605,1.131,4.867,3.07,7.628,3.74
		c1.533,0.372,3.728-0.222,3.641-1.798c-0.048-0.878-0.829-1.512-1.541-2.027c-2.885-2.088-5.831-4.207-9.214-5.318
		c-1.708-0.562-3.492-0.853-5.274-1.092c-8.594-1.152-17.465-1.116-25.789,1.31c-8.324,2.426-16.084,7.403-20.822,14.665
		c-0.231,0.354-0.462,0.735-0.479,1.159c-0.053,1.393,1.906,1.747,3.293,1.608"/>
	<path fill="#FFEDD5" d="M7.218,6.4C4.704,4.881,3.699,2.721,2.59,0c10.948,1.194,22.005,0.233,33.015,0.457
		C45.649,0.66,55.646,1.851,65.676,2.44c6.136,0.361,14.687-1.149,20.832-1.014c6.305,0.139,10.336-0.43,16.64-0.29
		c0.308,0.385-0.097,3.354-0.531,3.587c-0.456,0.245-1.14,1.392-1.641,1.283c-1.552-0.336-2.947,0.409-4.464,0.879
		c-3.338,1.036-6.997,0.005-10.462,0C59.971,6.85,33.296,6.437,7.218,6.4"/>
	<path fill="#FFEDD5" d="M4.702,82.14c-1.753,0.909-3.281,2.25-4.411,3.87c-0.211,0.305-0.411,0.714-0.205,1.022
		c0.162,0.241,0.493,0.286,0.783,0.303c4.666,0.287,9.363-0.376,14.015,0.077c5.128,0.499,10.052,2.339,15.179,2.857
		c3.114,0.314,6.254,0.137,9.383,0.059c9.054-0.224,18.104,0.401,27.139,1.025c11.394,0.786,22.788,1.573,34.181,2.361
		c-1.681-2.372-2.332-3.956-4.013-6.327c-0.286-0.402-0.508-1.052-0.958-1.258c-0.663-0.304-2.544-0.62-3.253-0.45
		c-2.44,0.587-4.994,0.256-7.487-0.03c-16.235-1.863-32.628-1.611-48.969-1.495c-2.334,0.017-4.676,0.029-6.992-0.26
		c-2.052-0.259-4.067-0.753-6.105-1.104c-5.168-0.891-8.016-1.419-13.26-1.385c-1.283,0.008-3.616,0.271-4.834,0.674"/>
	<path fill="#44A84F" d="M21.531,36.325c4.437,0.107,8.767,1.292,13.073,2.366c19.422,4.839,39.379,7.508,59.389,7.985
		c0.355-5.157,1.047-10.279,2.241-15.337c0.675-2.856,1.509-5.755,1.216-8.676c-0.147-1.455-0.572-2.884-0.565-4.346
		c0.025-4.775,4.53-8.516,5.024-13.266c-1.387,0.863-3.115,0.897-4.748,0.906C67.18,6.106,37.199,6.253,7.217,6.4l0.832,1.484
		C7.213,12.959,7.265,18.132,7.32,23.273c0.041,3.898,0.082,7.797,0.124,11.694c0.009,0.871,0.022,1.742,0.043,2.614
		c1.383-0.122,2.765-0.247,4.143-0.413C14.922,36.771,18.216,36.245,21.531,36.325"/>
</g>
</svg>
