<?xml version="1.0" encoding="utf-8"?>
<!-- Generator: Adobe Illustrator 16.0.2, SVG Export Plug-In . SVG Version: 6.00 Build 0)  -->
<!DOCTYPE svg PUBLIC "-//W3C//DTD SVG 1.1//EN" "http://www.w3.org/Graphics/SVG/1.1/DTD/svg11.dtd">
<svg version="1.1" id="Layer_1" xmlns="http://www.w3.org/2000/svg" xmlns:xlink="http://www.w3.org/1999/xlink" x="0px" y="0px"
	 width="85.77px" height="39.25px" viewBox="0 0 85.77 39.25" enable-background="new 0 0 85.77 39.25" xml:space="preserve">
<g>
	<path fill="#046937" d="M1.95,4.812c2.232,4.208,0.488,8.486-0.542,12.729c-1.584,6.527-1.464,14.136-1.344,20.678
		c0.002,0.111,0.022,0.235,0.312,0.313c0.248,0.067,0.623,0.08,0.969,0.09c24.821,0.684,49.642-0.397,74.463,0.285
		c0.944,0.026,3.526,0.159,4.328,0.02c0.97-0.168,2.155,0.555,2.367,0.246c1.547-2.259-0.24-5.025,0.401-7.316
		c2.416-8.628,4.824-17.338,0.39-25.906c-0.063-0.123-0.142-0.254-0.451-0.344c-0.405-0.119-1.068-0.131-1.664-0.134
		C54.94,5.346,28.269,6.105,2.735,4.443"/>
	<path fill="#084826" d="M2.037,4.882C1.927,1.511,4.408-0.003,7.726,0c22.748,0.015,47.217,1.851,70.119,2.173
		c-0.188-0.37,7.502,4.682,4.313,5.507c-3.494,0.905-10.07-0.446-14.072-0.442C60.997,7.244,53.91,7.251,46.822,7.257
		C31.715,7.27,16.246,7.256,2.037,4.882"/>
</g>
</svg>
