<?xml version="1.0" encoding="utf-8"?>
<!-- Generator: Adobe Illustrator 16.0.2, SVG Export Plug-In . SVG Version: 6.00 Build 0)  -->
<!DOCTYPE svg PUBLIC "-//W3C//DTD SVG 1.1//EN" "http://www.w3.org/Graphics/SVG/1.1/DTD/svg11.dtd">
<svg version="1.1" id="Layer_1" xmlns="http://www.w3.org/2000/svg" xmlns:xlink="http://www.w3.org/1999/xlink" x="0px" y="0px"
	 width="40.625px" height="92.38px" viewBox="0 0 40.625 92.38" enable-background="new 0 0 40.625 92.38" xml:space="preserve">
<g>
	<path fill="#9BC53D" d="M0.685,6.421c1.099,10.615,0.309,21.414-0.142,32.123C-0.15,55.019-0.025,74.217,0.092,90.726
		c0.002,0.28,0.013,0.593,0.151,0.789c0.118,0.168,0.297,0.201,0.461,0.224c11.802,1.684,23.587-1.088,35.388,0.595
		c0.45,0.064,0.937,0.115,1.317-0.237c0.459-0.427,0.604-1.291,0.701-2.072c0.715-5.701,1.007-9.715,1.291-15.497
		c1.07-21.776,2.135-43.761-0.05-65.374c-0.031-0.309-0.07-0.64-0.218-0.868c-0.194-0.299-0.509-0.327-0.791-0.333
		C25.871,7.677,13.204,9.64,1.055,5.488"/>
	<path fill="#592C14" d="M3.126,80.041c6.098-3.161,13.363-4.001,20.022-2.315c2.414,0.61,5.009,1.798,5.844,4.143
		c-3.849,2.197-7.932,4.457-12.363,4.433c-2.755-0.016-5.419-0.923-8.006-1.867c-1.251-0.458-2.52-0.938-3.571-1.757
		s-1.854-0.706-1.87-2.038"/>
	<path fill="#046937" d="M6.409,79.535l20.976,1.035c-0.252-1.294-1.272-2.337-2.453-2.921c-1.18-0.584-2.514-0.772-3.826-0.895
		c-4.878-0.453-9.832-0.077-14.586,1.104c-0.402,0.101-0.864,0.263-0.984,0.658c-0.12,0.396,0.537,0.805,0.696,0.422"/>
	<path fill="#44A84F" d="M6.683,79.573C5.766,79.44,4.799,79.69,4.062,80.25c-0.197,0.15-0.389,0.341-0.418,0.586
		c-0.066,0.548,0.64,0.816,1.186,0.893c1.353,0.188,2.707,0.378,4.06,0.565c5.035,0.702,10.083,1.405,15.165,1.51
		c0.614,0.013,1.27,0.005,1.783-0.332c0.514-0.338,0.771-1.132,0.35-1.578c-0.254-0.27-0.652-0.328-1.018-0.371
		c-6.164-0.735-12.328-1.469-18.492-2.203"/>
	<path fill="#046937" d="M9.037,83.493c-0.286-0.121-0.647-0.03-0.842,0.212c3.539,2.843,8.606,2.604,13.067,1.762
		c0.541-0.103,1.242-0.591,0.901-1.022c-0.124-0.159-0.343-0.201-0.543-0.233c-2.678-0.42-5.355-0.84-8.033-1.261
		c-1.703-0.267-3.532-0.518-5.081,0.238"/>
	<path fill="#44A84F" d="M3.381,0.729C3.545,0.4,3.955,0.255,4.299,0.125c0.514-0.193,1.084-0.123,1.628-0.051
		c10.995,1.457,20.678,3.072,31.765,3.369c0.518,2.078,2.982,3.973,1.441,4.842c-1.687,0.952-4.43-0.045-6.368-0.035
		c-3.43,0.019-6.861,0.038-10.292,0.057C15.161,8.348,7.674,8.36,0.787,5.901"/>
</g>
</svg>
