<?xml version="1.0" encoding="utf-8"?>
<!-- Generator: Adobe Illustrator 16.0.2, SVG Export Plug-In . SVG Version: 6.00 Build 0)  -->
<!DOCTYPE svg PUBLIC "-//W3C//DTD SVG 1.1//EN" "http://www.w3.org/Graphics/SVG/1.1/DTD/svg11.dtd">
<svg version="1.1" id="Layer_1" xmlns="http://www.w3.org/2000/svg" xmlns:xlink="http://www.w3.org/1999/xlink" x="0px" y="0px"
	 width="62.565px" height="51.605px" viewBox="0 0 62.565 51.605" enable-background="new 0 0 62.565 51.605" xml:space="preserve">
<g>
	<path fill="#44A84F" d="M3.193,45.395c-1.484,1.198-2.588,2.862-3.113,4.697c-0.169,0.587-0.099,1.457,0.511,1.511
		c0.176,0.016,0.347-0.052,0.507-0.126c1.765-0.817,3.054-2.419,3.964-4.138c0.91-1.719,1.499-3.586,2.275-5.369
		c1.32-3.038,3.19-5.835,5.493-8.217c2.308-2.387,5.023-4.34,7.441-6.614c5.743-5.403,9.831-12.633,16.508-16.826
		c2.199-1.381,4.627-2.393,6.719-3.933C45.589,4.841,47.38,2.594,47.5,0L31.487,11.744c-2.818,2.069-5.657,4.154-8.032,6.721
		c-1.887,2.042-3.451,4.357-5.235,6.489c-2.829,3.38-6.192,6.274-9.117,9.571C6.177,37.821,3.886,41.043,3.193,45.395"/>
	<path fill="#FFCB0B" d="M48.484,7.738c1.629-1.335,3.853-1.915,5.927-1.544c0.302,0.054,0.618,0.136,0.835,0.353
		c0.325,0.324,0.334,0.841,0.3,1.299c-0.301,4.143-2.366,8.129-5.577,10.765c-1.873,1.537-3.959,3.397-6.124,4.484
		c-4.53,2.276-7.926,4.8-13.42,6.577c-3.762,1.218-6.66,4.343-10.364,5.726c-1.273,0.476-2.614,0.859-3.699,1.678
		c-0.926,0.698-1.604,1.668-2.423,2.489c-1.354,1.358-3.069,2.286-4.759,3.195c-0.408-1.461,0.634-2.904,1.668-4.013
		c1.623-1.74,3.392-3.336,5.158-4.93c3.016-2.72,4.905-5.515,7.92-8.236c2.067-1.865,4.668-3.779,6.91-5.43
		c1.664-1.224,3.025-2.599,4.584-3.955c1.496-1.302,3.78-2.427,5.234-3.775c2.438-2.259,5.326-4.03,8.445-5.177"/>
	<path fill="#9BC53D" d="M7.909,43.873c1.601-2.354,3.241-4.685,5.073-6.864c1.944-2.311,4.094-4.441,6.287-6.517
		c4.898-4.635,10.032-9.014,15.212-13.331c2.243-1.869,4.498-3.73,6.909-5.376c2.03-1.387,4.167-2.618,6.129-4.1
		c2.724-2.057,5.087-4.588,6.955-7.445C42.716,7.124,30.779,14.172,21.562,24.206c-2.572,2.799-4.913,5.812-7.61,8.488
		c-1.615,1.602-3.367,3.094-4.673,4.957c-1.303,1.863-2.128,4.211-1.598,6.423"/>
	<path fill="#44A84F" d="M62.341,16.855c-3.139,1.533-6.182,3.265-9.102,5.184c-5.007,3.289-9.68,7.138-15.06,9.772
		c-3.478,1.704-7.188,2.868-10.861,4.096c-6.927,2.316-13.777,4.883-20.417,7.93c-1.088,0.5-2.346,1.289-2.273,2.485
		c0.055,0.918,0.962,1.604,1.876,1.715c0.913,0.111,1.817-0.216,2.667-0.571c3.108-1.3,6.005-3.052,9.001-4.595
		c6.956-3.582,14.443-6.034,21.457-9.503c2.788-1.379,5.511-2.926,7.919-4.893c1.652-1.35,3.143-2.885,4.742-4.297
		c2.367-2.089,4.976-3.906,7.756-5.403c0.873-0.471,1.773-0.917,2.519-1.572"/>
	<path fill="#EEA820" d="M9.636,42.299c-0.198,0.138-0.486-0.083-0.496-0.323c-0.01-0.241,0.156-0.451,0.33-0.618
		c0.264-0.256,0.565-0.473,0.893-0.64c0.086-0.044,0.18-0.086,0.275-0.074c0.084,0.01,0.159,0.061,0.223,0.119
		c0.268,0.246,0.381,0.65,0.277,1c-0.103,0.35-0.416,0.628-0.774,0.69c-0.505,0.088-0.338,0.299-0.733-0.028"/>
	<path fill="#EEA820" d="M11.074,40.015c0.273-0.126,0.283,0.076,0.558-0.05c0.178-0.082,0.424-0.148,0.54,0.01
		c0.07,0.095,0.051,0.229,0.005,0.338c-0.109,0.264-0.342,0.456-0.583,0.607c-0.157,0.098-0.345,0.187-0.52,0.129
		c-0.199-0.065-0.3-0.303-0.277-0.511c0.021-0.209,0.136-0.395,0.247-0.573"/>
	<path fill="#EEA820" d="M11.934,38.27c0.236-0.074,0.48-0.149,0.726-0.12c0.245,0.03,0.493,0.195,0.536,0.438
		c0.053,0.296-0.196,0.551-0.424,0.747c-0.108,0.095-0.218,0.189-0.326,0.283c-0.063,0.056-0.131,0.113-0.213,0.133
		c-0.167,0.043-0.341-0.089-0.397-0.252c-0.058-0.163-0.158-0.198-0.238-0.351C11.431,38.831,11.669,38.407,11.934,38.27"/>
	<path fill="#EEA820" d="M13.564,36.534c0.46,0.336,0.818,0.809,1.016,1.343c0.066,0.179,0.109,0.396-0.009,0.546
		c-0.129,0.164-0.377,0.155-0.583,0.121c-0.284-0.048-0.563-0.117-0.837-0.207c-0.17-0.055-0.365-0.153-0.381-0.33
		c-0.007-0.083,0.028-0.163,0.066-0.236C13.045,37.363,13.187,36.794,13.564,36.534"/>
	<path fill="#EEA820" d="M14.727,35.608c0.302,0.265,0.498,0.178,0.714,0.517c0.078,0.121,0.083,0.276,0.066,0.419
		c-0.051,0.432-0.287,0.839-0.637,1.098c-0.133,0.098-0.318,0.175-0.455,0.082c-0.06-0.04-0.097-0.106-0.127-0.171
		C13.985,36.905,14.175,36.063,14.727,35.608"/>
	<path fill="#EEA820" d="M15.939,34.248c0.271,0.044,0.459,0.333,0.446,0.608c-0.012,0.276-0.186,0.523-0.403,0.691
		c-0.219,0.167-0.481,0.267-0.738,0.364c-0.347-0.482-0.188-1.248,0.323-1.552"/>
	<path fill="#EEA820" d="M16.395,35.156c0.183,0.195,0.346,0.417,0.422,0.673c0.077,0.256,0.055,0.551-0.104,0.765
		c-0.16,0.214-0.475,0.316-0.711,0.194c-0.238-0.122-0.324-0.485-0.138-0.675"/>
	<path fill="#EEA820" d="M16.928,34.974c0.122-0.447,0.729-0.644,1.188-0.578c0.459,0.066,0.844,0.415,1.042,0.834
		c0.106,0.224,0.161,0.506,0.018,0.709c-0.205,0.289-0.644,0.227-0.985,0.133l-0.865-0.237c-0.156-0.042-0.322-0.092-0.424-0.216
		c-0.103-0.125-0.093-0.351,0.055-0.414"/>
	<path fill="#EEA820" d="M17.103,34.702c0.653-0.32,1.046-1.103,0.91-1.819C18,32.813,17.981,32.74,17.93,32.69
		c-0.087-0.088-0.229-0.076-0.351-0.058c-0.192,0.028-0.383,0.058-0.575,0.088c-0.18,0.029-0.366,0.061-0.519,0.16
		c-0.433,0.279-0.374,0.992,0.009,1.335c0.384,0.344,0.952,0.388,1.461,0.314"/>
	<path fill="#9BC53D" d="M60.401,8.197c-1.38,0.846-2.768,1.696-4.005,2.74c-1.803,1.523-3.245,3.421-4.904,5.1
		c-1.951,1.974-4.19,3.636-6.419,5.288c-2.294,1.702-4.598,3.408-7.099,4.787c-2.85,1.572-5.919,2.697-8.908,3.986
		c-5.244,2.261-10.268,5.038-14.972,8.279c-1.368,0.942-2.868,2.278-2.614,3.92c6.746-2.429,13.492-4.858,20.238-7.287
		c2.887-1.039,5.795-2.089,8.404-3.702c1.859-1.15,3.538-2.569,5.204-3.985c3.144-2.671,6.288-5.367,9.005-8.47
		c2.718-3.104,5.011-6.65,6.206-10.599"/>
	<path fill="#EEA820" d="M17.953,32.533c0.229-0.097,0.257-0.4,0.34-0.634c0.087-0.246,0.271-0.457,0.505-0.574
		c0.091-0.046,0.202-0.078,0.292-0.031c0.061,0.031,0.101,0.093,0.133,0.153c0.172,0.326,0.203,0.757-0.029,1.043
		c-0.154,0.189-0.394,0.284-0.621,0.371c-0.216,0.083-0.516,0.138-0.629-0.063c-0.073-0.129-0.017-0.289,0.041-0.426"/>
	<path fill="#EEA820" d="M19.574,34.433c0.193-0.145,0.391-0.296,0.512-0.505c0.122-0.209,0.148-0.492-0.002-0.682
		c-0.12-0.152-0.329-0.213-0.523-0.201c-0.193,0.011-0.378,0.084-0.559,0.156c-0.066,0.027-0.135,0.055-0.179,0.111
		c-0.048,0.061-0.059,0.142-0.062,0.22c-0.014,0.311,0.062,0.652,0.306,0.845c0.243,0.193,0.68,0.138,0.782-0.156"/>
	<path fill="#EEA820" d="M20.184,30.059c0.177,0.246,0.353,0.498,0.447,0.786c0.095,0.287,0.101,0.618-0.052,0.878
		c-0.154,0.261-0.492,0.421-0.775,0.313c-0.217-0.083-0.357-0.295-0.45-0.508c-0.105-0.242-0.171-0.51-0.128-0.77
		c0.044-0.26,0.212-0.509,0.46-0.598c0.249-0.088,0.567,0.025,0.662,0.272"/>
	<path fill="#EEA820" d="M20.468,33.263c0.212,0.247,0.584,0.34,0.887,0.222s0.514-0.438,0.504-0.763
		c-0.01-0.289-0.174-0.547-0.334-0.788c-0.117-0.175-0.254-0.363-0.459-0.41c-0.193-0.045-0.4,0.056-0.527,0.21
		c-0.127,0.154-0.187,0.352-0.226,0.548c-0.06,0.299-0.075,0.623,0.063,0.895c0.138,0.272,0.47,0.463,0.756,0.357"/>
	<path fill="#EEA820" d="M21.601,29.351c0.22,0.134,0.443,0.273,0.604,0.475c0.16,0.201,0.246,0.482,0.15,0.721
		c-0.088,0.222-0.307,0.36-0.511,0.482c-0.118,0.072-0.254,0.146-0.389,0.113c-0.101-0.026-0.178-0.108-0.247-0.186
		c-0.247-0.275-0.511-0.624-0.404-0.977c0.051-0.163,0.174-0.294,0.313-0.393c0.111-0.079,0.241-0.143,0.376-0.135
		c0.136,0.007,0.274,0.106,0.285,0.242"/>
	<path fill="#EEA820" d="M22.407,31.173c0.438,0.168,0.644,0.691,0.623,1.159c-0.005,0.121-0.022,0.243-0.076,0.352
		c-0.15,0.303-0.526,0.405-0.858,0.474c-0.054,0.011-0.111,0.021-0.159-0.005c-0.071-0.039-0.081-0.136-0.078-0.217
		c0.011-0.379,0.091-0.755,0.235-1.105"/>
	<path fill="#EEA820" d="M22.732,31.136c0.231-0.196,0.464-0.392,0.696-0.588c0.066-0.056,0.143-0.115,0.229-0.108
		c0.062,0.006,0.114,0.045,0.165,0.084c0.305,0.235,0.61,0.47,0.916,0.705c0.065,0.052,0.14,0.12,0.127,0.202
		c-0.007,0.04-0.031,0.073-0.058,0.103c-0.276,0.315-0.773,0.396-1.152,0.214C23.277,31.567,22.742,31.556,22.732,31.136"/>
	<path fill="#EEA820" d="M23.101,30.803c0.477-0.218,0.574-0.847,0.558-1.37c-0.003-0.078-0.009-0.162-0.06-0.221
		c-0.047-0.055-0.121-0.075-0.191-0.089c-0.222-0.042-0.451-0.044-0.674-0.005c-0.081,0.015-0.169,0.039-0.219,0.105
		s-0.05,0.155-0.048,0.237c0.007,0.275,0.019,0.566,0.166,0.798c0.148,0.233,0.485,0.367,0.708,0.205"/>
	<path fill="#EEA820" d="M23.365,29.058c-0.186-0.328-0.381-0.65-0.588-0.964c-0.08-0.122-0.168-0.247-0.3-0.312
		c-0.307-0.154-0.657,0.095-0.894,0.344c-0.157,0.166-0.306,0.34-0.422,0.537c-0.088,0.15-0.154,0.345-0.057,0.49
		c0.061,0.09,0.17,0.134,0.275,0.163c0.664,0.187,1.419,0.007,1.927-0.459"/>
	<path fill="#EEA820" d="M24.484,30.658c0.359-0.372,0.72-0.745,1.078-1.117c0.061-0.062,0.131-0.128,0.217-0.128
		c0.074,0,0.14,0.051,0.195,0.102c0.323,0.293,0.598,0.641,0.807,1.024c0.043,0.078,0.084,0.165,0.067,0.252
		c-0.025,0.138-0.175,0.209-0.305,0.259c-0.431,0.166-0.859,0.332-1.289,0.498c-0.062,0.023-0.13,0.047-0.191,0.021
		c-0.066-0.029-0.095-0.107-0.115-0.177c-0.075-0.245-0.149-0.49-0.225-0.735"/>
	<path fill="#EEA820" d="M23.916,30.106c0.036,0.174,0.249,0.262,0.423,0.224c0.173-0.039,0.31-0.168,0.43-0.298
		c0.071-0.077,0.141-0.16,0.176-0.259c0.108-0.313-0.177-0.63-0.479-0.766c-0.229-0.104-0.533-0.139-0.704,0.045
		c-0.203,0.219-0.081,0.57,0.05,0.838c0.057,0.115,0.114,0.23,0.17,0.345"/>
	<path fill="#EEA820" d="M23.474,28.583c0.18,0.233,0.593,0.082,0.701-0.191c0.109-0.273,0.017-0.581-0.076-0.86
		c-0.043-0.13-0.086-0.259-0.131-0.389c-0.027-0.086-0.057-0.172-0.109-0.245c-0.175-0.238-0.574-0.226-0.779-0.013
		c-0.205,0.213-0.229,0.557-0.117,0.83c0.112,0.274,0.337,0.486,0.579,0.656"/>
	<path fill="#EEA820" d="M24.5,26.031c0.474,0.138,0.825,0.614,0.817,1.107c-0.004,0.266-0.128,0.553-0.374,0.651
		c-0.281,0.111-0.609-0.071-0.763-0.33c-0.155-0.259-0.179-0.573-0.199-0.874c-0.007-0.104-0.013-0.215,0.035-0.308
		c0.048-0.093,0.17-0.156,0.26-0.103"/>
	<path fill="#EEA820" d="M25.118,27.318c0.108,0.2,0.746,0.083,0.962,0.155c0.215,0.071,0.029,0.348,0.207,0.488
		c0.18,0.141,0.287,0.406,0.169,0.6c-0.073,0.12-0.211,0.182-0.343,0.232c-0.38,0.143-0.777,0.24-1.181,0.287
		c-0.035,0.004-0.072,0.008-0.106-0.002c-0.134-0.038-0.135-0.228-0.089-0.359c0.18-0.514,0.008-1.21,0.547-1.282"/>
	<path fill="#EEA820" d="M26.77,28.626c0.31,0.103,0.604,0.253,0.87,0.442c0.168,0.12,0.329,0.26,0.423,0.443
		c0.094,0.184,0.111,0.418-0.003,0.59c-0.143,0.216-0.446,0.274-0.695,0.203c-0.248-0.071-0.454-0.241-0.651-0.408
		c-0.192-0.161-0.397-0.345-0.435-0.593C26.243,29.055,26.544,28.515,26.77,28.626"/>
	<path fill="#EEA820" d="M28.583,29.816c0.255,0.092,0.525,0.145,0.796,0.155c0.108,0.004,0.22,0,0.319-0.045
		c0.174-0.081,0.266-0.276,0.305-0.464c0.143-0.698-0.363-1.463-1.061-1.606c-0.483-0.099-1.075,0.164-1.146,0.652
		c-0.04,0.282,0.104,0.565,0.31,0.762c0.205,0.198,0.26,0.475,0.516,0.6"/>
	<path fill="#EEA820" d="M26.904,28.093c0.086,0.071,0.209,0.065,0.32,0.054c0.326-0.03,0.672-0.066,0.938-0.258
		c0.267-0.191,0.413-0.594,0.217-0.858c-0.12-0.162-0.33-0.228-0.527-0.262c-0.342-0.06-0.726-0.043-0.99,0.18
		c-0.265,0.223-0.314,0.705-0.025,0.896"/>
	<path fill="#EEA820" d="M25.801,26.569c0.057,0.21,0.292,0.341,0.509,0.318c0.216-0.024,0.404-0.176,0.513-0.364
		c0.144-0.249,0.147-0.607-0.075-0.791c-0.133-0.11-0.315-0.136-0.488-0.149c-0.135-0.01-0.271-0.015-0.405-0.014
		c-0.038,0-0.079,0.001-0.111,0.024c-0.037,0.026-0.051,0.073-0.061,0.117c-0.063,0.265-0.085,0.539-0.068,0.811"/>
	<path fill="#EEA820" d="M26.876,24.026c0.178,0.007,0.355,0.045,0.521,0.112c0.184,0.074,0.369,0.203,0.408,0.397
		c0.041,0.195-0.08,0.392-0.238,0.513c-0.214,0.166-0.51,0.23-0.767,0.145c-0.256-0.085-0.46-0.326-0.477-0.596
		c-0.003-0.041-0.001-0.084,0.017-0.121c0.021-0.044,0.063-0.075,0.104-0.103c0.14-0.1,0.279-0.201,0.42-0.301"/>
	<path fill="#EEA820" d="M27.98,24.79c0.403,0.216,0.727,0.576,0.898,0.999c0.068,0.171,0.103,0.393-0.032,0.518
		c-0.084,0.078-0.21,0.092-0.324,0.082c-0.528-0.045-0.97-0.558-0.936-1.087c0.01-0.167,0.068-0.34,0.199-0.443"/>
	<path fill="#EEA820" d="M29.111,26.133c0.694,0.328,1.249,0.938,1.513,1.659c0.01,0.027,0.019,0.056,0.011,0.083
		c-0.008,0.027-0.031,0.047-0.054,0.063c-0.369,0.263-0.922,0.081-1.197-0.279c-0.276-0.36-0.337-0.837-0.353-1.29"/>
	<path fill="#EEA820" d="M30.664,27.786c0.422,0.061,0.797,0.376,0.931,0.781c0.025,0.076,0.042,0.159,0.015,0.233
		c-0.026,0.071-0.088,0.122-0.15,0.165c-0.35,0.248-0.788,0.37-1.216,0.341c-0.131-0.01-0.294-0.067-0.297-0.199
		c-0.002-0.065,0.04-0.122,0.08-0.174c0.169-0.218,0.338-0.437,0.507-0.656"/>
	<path fill="#EEA820" d="M32.502,28.368c0.221-0.004,0.411-0.176,0.5-0.378s0.095-0.43,0.09-0.651
		c-0.003-0.13-0.014-0.273-0.104-0.367c-0.107-0.112-0.284-0.112-0.438-0.099c-0.355,0.03-0.723,0.093-1.014,0.299
		c-0.291,0.207-0.481,0.592-0.364,0.929c0.123,0.35,0.541,0.531,0.908,0.479c0.368-0.052,0.685-0.285,0.944-0.551"/>
	<path fill="#EEA820" d="M31.169,27.076c0.234-0.02,0.457-0.148,0.592-0.34c0.068-0.097,0.116-0.217,0.099-0.335
		c-0.039-0.25-0.333-0.363-0.582-0.408c-0.39-0.069-0.85-0.065-1.106,0.235c-0.258,0.301-0.144,0.837,0.214,1.007
		c0.358,0.171,0.845-0.079,0.916-0.469"/>
	<path fill="#EEA820" d="M30.231,25.945c0.237-0.172,0.278-0.559,0.081-0.777c-0.118-0.13-0.293-0.192-0.461-0.243
		c-0.051-0.016-0.103-0.03-0.152-0.019c-0.078,0.019-0.129,0.096-0.154,0.173c-0.093,0.274,0.053,0.606,0.317,0.724"/>
	<path fill="#EEA820" d="M29.283,25.223c-0.542-0.179-0.996-0.609-1.204-1.14c-0.146-0.371-0.113-0.893,0.255-1.046
		c0.255-0.106,0.558,0.031,0.729,0.247c0.171,0.216,0.242,0.492,0.308,0.76c0.033,0.136,0.065,0.282,0.019,0.414
		c-0.048,0.132-0.212,0.231-0.332,0.159"/>
	<path fill="#EEA820" d="M28.893,22.958c0.056-0.417,0.159-0.828,0.309-1.221c0.034-0.092,0.077-0.189,0.159-0.24
		c0.082-0.05,0.184-0.046,0.276-0.026c0.335,0.072,0.614,0.361,0.675,0.699c0.062,0.338-0.099,0.705-0.387,0.891
		c-0.154,0.099-0.346,0.148-0.523,0.105S28.921,23.139,28.893,22.958"/>
	<path fill="#EEA820" d="M29.45,23.741c0.006,0.352,0.077,0.725,0.315,0.984c0.238,0.259,0.684,0.35,0.946,0.116
		c0.146-0.131,0.209-0.328,0.267-0.515c0.087-0.282,0.173-0.564,0.259-0.846c0.014-0.045,0.026-0.091,0.024-0.138
		c-0.005-0.09-0.067-0.166-0.137-0.223c-0.232-0.192-0.572-0.244-0.851-0.128C29.996,23.106,29.478,23.441,29.45,23.741"/>
	<path fill="#EEA820" d="M31.146,24.402c0.252-0.03,0.521-0.246,0.726-0.097c0.051,0.037,0.087,0.093,0.11,0.153
		c0.069,0.18,0.027,0.392-0.085,0.548c-0.112,0.157-0.288,0.261-0.475,0.311c-0.172,0.046-0.4,0.022-0.463-0.145
		c-0.024-0.065-0.016-0.137,0.003-0.203C31.008,24.808,31,24.485,31.146,24.402"/>
	<path fill="#EEA820" d="M32.537,24.911c0.313,0.134,0.611,0.307,0.884,0.512c0.229,0.173,0.463,0.452,0.353,0.718
		c-0.043,0.103-0.132,0.18-0.226,0.242c-0.417,0.276-0.986,0.303-1.428,0.069c-0.065-0.034-0.13-0.077-0.163-0.143
		c-0.037-0.073-0.027-0.16-0.018-0.241c0.031-0.235,0.063-0.471,0.094-0.706c0.008-0.061,0.017-0.126,0.055-0.174
		C32.217,25.022,32.359,25.023,32.537,24.911"/>
	<path fill="#EEA820" d="M33.478,27.723c-0.202,0.353,0.152,0.277,0.433,0.301c0.088,0.007,0.28-0.091,0.356-0.132
		c0.077-0.041,0.123-0.122,0.165-0.198c0.104-0.19,0.211-0.386,0.24-0.602c0.03-0.215-0.035-0.457-0.214-0.58
		c-0.266-0.184-0.658-0.012-0.822,0.266C33.472,27.057,33.473,27.4,33.478,27.723"/>
	<path fill="#EEA820" d="M30.258,21.658c-0.178-0.293-0.179-0.683-0.003-0.977s0.52-0.478,0.861-0.461
		c0.119,0.006,0.24,0.036,0.335,0.108c0.138,0.103,0.199,0.276,0.248,0.44c0.084,0.281,0.149,0.566,0.195,0.855
		c0.026,0.158,0.041,0.333-0.05,0.465c-0.061,0.086-0.158,0.138-0.258,0.171c-0.308,0.103-0.666,0.036-0.918-0.17
		c-0.251-0.206-0.521-0.19-0.479-0.512"/>
	<path fill="#EEA820" d="M32.106,22.479c0.325,0.047,0.214,0.064,0.48,0.177c0.268,0.114,0.556,0.337,0.513,0.624
		c-0.026,0.176-0.181,0.313-0.35,0.37c-0.17,0.057-0.353,0.049-0.531,0.035c-0.219-0.016-0.448-0.044-0.62-0.18
		c-0.209-0.164-0.28-0.481-0.162-0.719S31.848,22.413,32.106,22.479"/>
	<path fill="#EEA820" d="M33.285,23.353c0.252,0.109,0.516,0.228,0.681,0.448c0.165,0.22,0.184,0.575-0.034,0.743
		c-0.091,0.071-0.209,0.098-0.324,0.111c-0.359,0.04-0.732-0.048-1.037-0.244c-0.066-0.044-0.137-0.101-0.146-0.181
		c-0.007-0.057,0.02-0.113,0.047-0.164c0.164-0.304,0.405-0.567,0.693-0.758"/>
	<path fill="#EEA820" d="M34.328,24.403c0.283,0.053,0.221,0.21,0.491,0.308c0.279,0.1,0.56,0.23,0.754,0.455
		c0.194,0.224,0.283,0.562,0.145,0.825c-0.171,0.324-0.623,0.409-0.969,0.284c-0.344-0.126-0.606-0.406-0.854-0.676
		c-0.121-0.131-0.244-0.266-0.307-0.433c-0.061-0.168-0.047-0.376,0.084-0.497c0.162-0.154,0.443-0.124,0.6-0.283"/>
	<path fill="#EEA820" d="M35.743,25.985c0.126-0.039,0.248,0.106,0.239,0.238c-0.009,0.132-0.099,0.243-0.186,0.343
		c-0.102,0.12-0.205,0.24-0.308,0.36c-0.122,0.142-0.287,0.299-0.469,0.25c-0.192-0.053-0.248-0.326-0.146-0.5
		c0.101-0.173,0.297-0.265,0.483-0.339"/>
	<path fill="#EEA820" d="M35.752,25.691c0.266,0.286,0.561,0.569,0.935,0.68c0.374,0.111,0.842-0.005,1.017-0.354
		c0.104-0.207,0.087-0.452,0.067-0.683c-0.015-0.163-0.031-0.333-0.118-0.472c-0.205-0.324-0.671-0.324-1.053-0.282
		c-0.071,0.008-0.148,0.018-0.202,0.065c-0.057,0.05-0.075,0.129-0.091,0.203c-0.073,0.336-0.79,0.578-0.6,0.864"/>
	<path fill="#EEA820" d="M36.016,24.918c-0.575-0.187-1.056-0.643-1.272-1.207c-0.026-0.072-0.05-0.154-0.019-0.224
		c0.017-0.04,0.049-0.07,0.084-0.096c0.242-0.182,0.594-0.152,0.858-0.004c0.265,0.147,0.461,0.39,0.644,0.631
		c0.038,0.05,0.077,0.104,0.081,0.166c0.008,0.102-0.077,0.186-0.156,0.252C36.109,24.545,36.183,24.9,36.016,24.918"/>
	<path fill="#EEA820" d="M34.686,23.202c0.315-0.088,0.441-0.517,0.289-0.807c-0.151-0.29-0.496-0.438-0.823-0.45
		c-0.22-0.008-0.459,0.044-0.604,0.21c-0.087,0.1-0.131,0.231-0.151,0.361c-0.062,0.404,0.139,0.862,0.521,1.004
		c0.383,0.141,0.887-0.166,0.856-0.573"/>
	<path fill="#EEA820" d="M33.914,21.589c-0.02-0.338-0.294-0.259-0.581-0.438c-0.287-0.18-0.662-0.21-0.974-0.08
		c-0.137,0.057-0.266,0.148-0.331,0.281c-0.114,0.232,0.007,0.526,0.211,0.686c0.204,0.159,0.469,0.213,0.726,0.252
		c0.118,0.017,0.239,0.032,0.356,0.005C33.631,22.222,33.793,21.886,33.914,21.589"/>
	<path fill="#EEA820" d="M32.878,20.57c0.142-0.347,0.207-0.383,0.045-0.721c-0.162-0.339-0.649-0.527-0.932-0.28
		c-0.153,0.136-0.204,0.352-0.229,0.556c-0.023,0.21-0.019,0.448,0.131,0.596c0.128,0.128,0.333,0.151,0.508,0.104
		C32.578,20.779,32.729,20.673,32.878,20.57"/>
	<path fill="#EEA820" d="M33.721,18.397c0.467-0.163,0.626,0.281,0.971,0.635c0.229,0.235,0.457,0.57,0.314,0.866
		c-0.062,0.128-0.182,0.216-0.298,0.298c-0.293,0.21-0.692,0.422-0.985,0.213c-0.113-0.081-0.181-0.211-0.243-0.335
		c-0.172-0.34-0.344-0.68-0.518-1.019c-0.025-0.053-0.054-0.11-0.045-0.169c0.014-0.085,0.098-0.139,0.174-0.18
		c0.23-0.126,0.469-0.241,0.711-0.344"/>
	<path fill="#EEA820" d="M35.306,20.082c0.304,0.173,0.466,0.512,0.609,0.83c0.075,0.164,0.148,0.361,0.056,0.515
		c-0.062,0.102-0.178,0.154-0.287,0.199c-0.276,0.111-0.561,0.218-0.857,0.235c-0.297,0.017-0.614-0.068-0.814-0.288
		c-0.052-0.056-0.096-0.124-0.1-0.2c-0.006-0.147,0.136-0.252,0.263-0.329c0.424-0.258,0.576-0.733,1.001-0.991"/>
	<path fill="#EEA820" d="M36.192,21.457c0.218,0.139,0.243,0.283,0.387,0.497c0.144,0.215,0.188,0.518,0.035,0.726
		c-0.189,0.256-0.58,0.257-0.875,0.139c-0.101-0.04-0.2-0.092-0.274-0.172c-0.193-0.212-0.148-0.569,0.038-0.787
		c0.188-0.218,0.477-0.32,0.761-0.366"/>
	<path fill="#EEA820" d="M36.958,22.737c0.106-0.071,0.143,0.287,0.244,0.364c0.102,0.076,0.166,0.19,0.229,0.301
		c0.102,0.182,0.204,0.363,0.306,0.545c0.023,0.039,0.046,0.085,0.032,0.128c-0.016,0.053-0.077,0.076-0.13,0.09
		c-0.234,0.062-0.477,0.096-0.72,0.1c-0.077,0.001-0.159-0.001-0.229-0.038c-0.088-0.047-0.14-0.141-0.184-0.231
		c-0.092-0.19-0.167-0.388-0.228-0.591c-0.02-0.068-0.039-0.141-0.02-0.21c0.019-0.068,0.071-0.121,0.126-0.167
		c0.17-0.145,0.371-0.253,0.585-0.316"/>
	<path fill="#EEA820" d="M38.005,24.139c0.358,0.091,0.714,0.198,1.063,0.318c0.132,0.046,0.291,0.138,0.267,0.275
		c-0.012,0.062-0.059,0.109-0.106,0.15c-0.282,0.246-0.636,0.408-1.007,0.462c-0.078,0.011-0.162,0.017-0.235-0.014
		c-0.108-0.048-0.167-0.166-0.203-0.28c-0.114-0.365-0.081-0.774,0.093-1.115"/>
	<path fill="#EEA820" d="M34.143,17.884c0.021,0.376,0.433,0.678,0.799,0.587s0.587-0.55,0.43-0.893
		c-0.029-0.067-0.073-0.13-0.133-0.173c-0.077-0.057-0.174-0.076-0.269-0.084c-0.148-0.013-0.299-0.002-0.443,0.033
		c-0.028,0.007-0.058,0.016-0.075,0.04c-0.015,0.021-0.015,0.05-0.017,0.076C34.427,17.585,34.23,17.808,34.143,17.884"/>
	<path fill="#EEA820" d="M34.696,18.696c0.286-0.27,0.639-0.527,1.031-0.504c0.081,0.004,0.164,0.022,0.229,0.072
		c0.077,0.059,0.116,0.153,0.148,0.244c0.056,0.149,0.104,0.3,0.146,0.452c0.012,0.041,0.022,0.087,0.007,0.127
		c-0.011,0.028-0.034,0.049-0.057,0.068c-0.325,0.271-0.848,0.265-1.165-0.014C34.934,19.053,34.663,18.825,34.696,18.696"/>
	<path fill="#EEA820" d="M37.288,19.354c-0.349-0.087-0.623-0.021-0.971-0.108c-0.043-0.01-0.087-0.021-0.13-0.01
		c-0.099,0.026-0.131,0.149-0.145,0.25c-0.025,0.184-0.05,0.368-0.075,0.551c-0.021,0.158-0.04,0.331,0.046,0.464
		c0.066,0.101,0.181,0.16,0.295,0.195c0.362,0.111,0.778,0.023,1.064-0.224c0.287-0.248,0.434-0.647,0.377-1.021
		c-0.007-0.041-0.016-0.083-0.04-0.117c-0.085-0.116-0.267-0.057-0.393,0.012"/>
	<path fill="#EEA820" d="M36.51,21.655c0.067-0.245,0.142-0.497,0.304-0.692c0.163-0.195,0.438-0.319,0.677-0.232
		c0.167,0.061,0.29,0.217,0.334,0.39c0.045,0.172,0.019,0.358-0.046,0.524c-0.082,0.209-0.237,0.401-0.449,0.476
		c-0.212,0.075-0.481,0.003-0.588-0.195"/>
	<path fill="#EEA820" d="M53.31,11.68c0.066-0.245,0.141-0.497,0.304-0.692c0.163-0.195,0.437-0.319,0.676-0.232
		c0.167,0.061,0.29,0.217,0.334,0.39c0.045,0.172,0.019,0.358-0.046,0.524c-0.082,0.209-0.237,0.401-0.449,0.476
		c-0.212,0.075-0.48,0.003-0.588-0.195"/>
	<path fill="#EEA820" d="M52.986,10.021c0.066-0.245,0.141-0.497,0.304-0.692s0.438-0.319,0.677-0.232
		c0.166,0.061,0.289,0.217,0.334,0.39c0.045,0.172,0.019,0.358-0.047,0.524c-0.082,0.209-0.236,0.401-0.448,0.476
		c-0.212,0.075-0.481,0.003-0.589-0.195"/>
	<path fill="#EEA820" d="M38.02,22.038c-0.189-0.047-0.403,0.019-0.534,0.165c-0.125,0.141-0.169,0.342-0.146,0.529
		c0.038,0.337,0.328,0.658,0.667,0.638c0.184-0.011,0.353-0.117,0.477-0.255c0.123-0.138,0.207-0.305,0.286-0.472
		c0.021-0.045,0.043-0.091,0.04-0.141c-0.006-0.137-0.175-0.195-0.311-0.218c-0.137-0.023-0.307-0.08-0.313-0.217"/>
	<path fill="#EEA820" d="M38.592,23.214c-0.062,0.18-0.124,0.372-0.076,0.556c0.068,0.264,0.337,0.42,0.591,0.518
		c0.232,0.09,0.518,0.149,0.711-0.008c0.131-0.107,0.178-0.283,0.215-0.448c0.046-0.202,0.085-0.423-0.006-0.61
		c-0.111-0.228-0.383-0.331-0.635-0.368c-0.244-0.037-0.544-0.005-0.664,0.212"/>
	<path fill="#EEA820" d="M38.977,21.687c0.07,0.332,0.208,0.669,0.481,0.87c0.271,0.201,0.704,0.213,0.921-0.048
		c0.137-0.164,0.163-0.394,0.155-0.607c-0.008-0.194-0.046-0.401-0.187-0.535c-0.178-0.169-0.455-0.164-0.698-0.126
		c-0.119,0.018-0.243,0.044-0.343,0.116c-0.098,0.072-0.362,0.264-0.323,0.38"/>
	<path fill="#EEA820" d="M39.663,20.16c0.192-0.177,0.402-0.415,0.328-0.665c-0.028-0.093-0.092-0.17-0.158-0.24
		c-0.204-0.22-0.473-0.42-0.771-0.403c-0.211,0.011-0.402,0.129-0.568,0.26c-0.153,0.122-0.298,0.259-0.427,0.407
		c-0.08,0.092-0.158,0.195-0.178,0.316c-0.033,0.208,0.124,0.41,0.317,0.492c0.194,0.081,0.415,0.066,0.622,0.031
		c0.208-0.035,0.415-0.088,0.625-0.079"/>
	<path fill="#EEA820" d="M37.365,17.504c-0.234,0.095-0.528,0.031-0.726,0.189c-0.117,0.094-0.169,0.246-0.197,0.394
		c-0.032,0.181-0.036,0.367-0.011,0.549c0.023,0.167,0.084,0.346,0.23,0.43c0.122,0.07,0.273,0.055,0.414,0.037
		c0.359-0.049,0.719-0.111,1.074-0.188c0.071-0.015,0.146-0.034,0.192-0.09c0.044-0.055,0.047-0.131,0.048-0.201
		c0.001-0.144-0.002-0.291-0.045-0.429c-0.043-0.137-0.132-0.267-0.263-0.327c-0.1-0.045-0.101-0.2-0.183-0.271
		c-0.08-0.072-0.279-0.089-0.491-0.072"/>
	<path fill="#EEA820" d="M40.211,23.183c0.15-0.244,0.268-0.325,0.446-0.55c0.033-0.042,0.071-0.086,0.123-0.099
		c0.062-0.015,0.122,0.017,0.174,0.052c0.267,0.184,0.424,0.485,0.57,0.774c0.033,0.065,0.066,0.131,0.069,0.203
		c0.005,0.106-0.057,0.205-0.133,0.278c-0.243,0.234-0.623,0.261-0.953,0.191c-0.042-0.009-0.085-0.02-0.12-0.046
		c-0.034-0.025-0.057-0.062-0.077-0.098c-0.122-0.228-0.155-0.502-0.089-0.752"/>
	<path fill="#EEA820" d="M39.132,20.955c-0.09-0.197-0.255-0.373-0.467-0.417c-0.234-0.049-0.486,0.081-0.607,0.287
		s-0.118,0.472-0.02,0.69c0.095,0.211,0.289,0.388,0.52,0.411c0.107,0.011,0.225-0.016,0.294-0.098
		c0.046-0.053,0.065-0.123,0.084-0.191c0.06-0.218,0.121-0.436,0.181-0.655"/>
	<path fill="#EEA820" d="M39.431,17.195c-0.158-0.019-0.321-0.038-0.479-0.006s-0.311,0.123-0.376,0.27
		c-0.048,0.109-0.042,0.235-0.032,0.354c0.022,0.238,0.06,0.474,0.112,0.707c0.019,0.082,0.041,0.168,0.101,0.227
		c0.069,0.07,0.174,0.089,0.272,0.092c0.249,0.006,0.503-0.079,0.685-0.249c0.184-0.17,0.287-0.426,0.257-0.673
		c-0.021-0.173-0.104-0.339-0.094-0.513c0.003-0.052,0.013-0.106-0.009-0.152c-0.048-0.099-0.193-0.08-0.298-0.045"/>
	<path fill="#EEA820" d="M35.814,16.139c-0.18,0.172-0.362,0.349-0.476,0.57c-0.111,0.222-0.144,0.5-0.018,0.714
		c0.17,0.286,0.543,0.361,0.873,0.407c0.066,0.009,0.139,0.018,0.198-0.017c0.043-0.025,0.069-0.07,0.096-0.113
		c0.079-0.132,0.158-0.263,0.236-0.395c0.063-0.105,0.128-0.215,0.14-0.337c0.02-0.19-0.09-0.368-0.195-0.529
		c-0.093-0.142-0.212-0.3-0.382-0.308C36.164,16.125,35.938,16.054,35.814,16.139"/>
	<path fill="#EEA820" d="M37.292,15.625c-0.171,0.163-0.353,0.345-0.382,0.58c-0.012,0.098,0.004,0.196,0.022,0.293
		c0.039,0.195,0.092,0.392,0.198,0.559c0.148,0.232,0.4,0.395,0.671,0.432c0.272,0.039,0.56-0.047,0.766-0.228
		c0.149-0.132,0.259-0.318,0.271-0.517c0.019-0.288-0.16-0.547-0.334-0.776c-0.11-0.147-0.229-0.296-0.393-0.381
		c-0.146-0.076-0.314-0.093-0.479-0.109c-0.121-0.012-0.268-0.013-0.336,0.088"/>
	<path fill="#EEA820" d="M39.326,15.244c0.123,0.024,0.252,0.003,0.379,0.003s0.265,0.027,0.347,0.123
		c0.076,0.088,0.089,0.212,0.086,0.328c-0.005,0.245-0.062,0.488-0.166,0.71c-0.114,0.243-0.347,0.484-0.61,0.427
		c-0.094-0.021-0.176-0.079-0.245-0.147c-0.192-0.189-0.295-0.465-0.272-0.733c0.014-0.167,0.077-0.334,0.198-0.449
		C39.162,15.39,39.167,15.19,39.326,15.244"/>
	<path fill="#EEA820" d="M39.97,20.397c-0.14-0.227,0.022-0.546,0.268-0.651c0.244-0.104,0.529-0.046,0.775,0.054
		c0.103,0.042,0.204,0.093,0.281,0.173c0.149,0.156,0.176,0.389,0.182,0.605c0.004,0.174-0.009,0.368-0.131,0.492
		c-0.066,0.067-0.156,0.104-0.248,0.128c-0.31,0.084-0.654,0.032-0.927-0.139c-0.095-0.059-0.183-0.135-0.231-0.235
		c-0.116-0.236,0.015-0.513,0.143-0.742"/>
	<path fill="#EEA820" d="M41.513,18.461c0.134-0.131,0.138-0.361,0.035-0.519c-0.102-0.158-0.287-0.248-0.473-0.273
		s-0.375,0.008-0.559,0.049c-0.037,0.009-0.077,0.019-0.106,0.044c-0.035,0.03-0.05,0.076-0.063,0.12
		c-0.072,0.247-0.116,0.502-0.132,0.759c-0.013,0.235,0.015,0.502,0.2,0.647c0.179,0.139,0.437,0.108,0.653,0.04
		c0.192-0.06,0.405-0.176,0.432-0.377c0.013-0.086-0.015-0.172-0.021-0.259s0.015-0.187,0.091-0.23"/>
	<path fill="#EEA820" d="M42.249,20.917c-0.29-0.11-0.282-0.369-0.478-0.609c-0.12-0.147-0.217-0.358-0.113-0.517
		c0.05-0.077,0.137-0.122,0.221-0.16c0.173-0.078,0.35-0.146,0.531-0.203c0.242-0.076,0.534-0.122,0.727,0.041
		c0.157,0.133,0.193,0.367,0.144,0.566c-0.052,0.198-0.173,0.37-0.292,0.537c-0.086,0.119-0.171,0.238-0.258,0.357
		c-0.035,0.051-0.074,0.104-0.132,0.129c-0.136,0.061-0.278-0.064-0.377-0.177"/>
	<path fill="#EEA820" d="M42.346,21.319c-0.101-0.159-0.31,0.047-0.497,0.035c-0.228-0.014-0.455-0.01-0.682,0.012
		c-0.047,0.004-0.098,0.011-0.132,0.044c-0.046,0.042-0.047,0.113-0.045,0.176c0.009,0.263,0.018,0.532,0.112,0.778
		c0.095,0.246,0.293,0.468,0.551,0.518c0.317,0.062,0.637-0.154,0.797-0.434c0.161-0.28,0.199-0.612,0.234-0.933
		c0.005-0.04,0.008-0.084-0.011-0.119c-0.019-0.033-0.054-0.053-0.087-0.067c-0.086-0.037-0.183-0.052-0.275-0.041"/>
	<path fill="#EEA820" d="M44.015,20.972c-0.379-0.142-0.8-0.167-1.191-0.069c-0.031,0.008-0.064,0.018-0.084,0.043
		c-0.022,0.029-0.021,0.07-0.016,0.107c0.045,0.439,0.116,0.875,0.216,1.305c0.02,0.085,0.052,0.184,0.135,0.212
		c0.071,0.024,0.146-0.015,0.21-0.057c0.517-0.346,0.849-0.954,0.859-1.576"/>
	<path fill="#EEA820" d="M40.176,16.986c-0.077-0.185-0.153-0.381-0.126-0.579c0.026-0.198,0.195-0.393,0.395-0.373
		c0.146,0.015,0.258,0.134,0.341,0.255c0.172,0.251,0.282,0.562,0.221,0.859c-0.062,0.297-0.337,0.559-0.64,0.534
		c-0.096-0.008-0.193-0.048-0.241-0.13c-0.024-0.04-0.033-0.088-0.037-0.134c-0.021-0.257,0.122-0.533,0.007-0.763"/>
	<path fill="#EEA820" d="M54.247,7.24c-0.2,0-0.41-0.005-0.583-0.106c-0.174-0.1-0.288-0.331-0.193-0.507
		c0.07-0.129,0.223-0.187,0.367-0.217c0.297-0.063,0.627-0.046,0.877,0.126c0.251,0.171,0.387,0.526,0.247,0.796
		c-0.043,0.084-0.118,0.159-0.212,0.172c-0.046,0.007-0.094-0.003-0.139-0.017c-0.244-0.08-0.444-0.317-0.701-0.299"/>
	<path fill="#EEA820" d="M40.424,13.911c-0.097,0.143-0.088,0.331-0.074,0.504c0.014,0.186,0.028,0.372,0.042,0.559
		c0.01,0.136,0.022,0.279,0.095,0.396c0.136,0.214,0.45,0.263,0.679,0.152c0.228-0.111,0.376-0.344,0.455-0.585
		c0.07-0.218,0.092-0.467-0.02-0.667c-0.13-0.234-0.401-0.344-0.651-0.436c-0.125-0.047-0.265-0.093-0.388-0.044"/>
	<path fill="#EEA820" d="M41.943,17.76c-0.093,0.288-0.156,0.585-0.19,0.885c-0.007,0.059-0.011,0.122,0.017,0.174
		c0.03,0.053,0.088,0.083,0.144,0.107c0.299,0.131,0.625,0.201,0.95,0.205c0.048,0.001,0.097-0.001,0.138-0.022
		c0.038-0.02,0.065-0.055,0.093-0.089c0.074-0.095,0.149-0.19,0.225-0.286c0.138-0.177,0.278-0.358,0.352-0.57
		c0.074-0.212,0.068-0.465-0.068-0.642c-0.199-0.258-0.58-0.267-0.902-0.227c-0.117,0.015-0.236,0.033-0.34,0.089
		C42.256,17.44,41.951,17.643,41.943,17.76"/>
	<path fill="#EEA820" d="M38.309,15.389c0.184,0.094,0.399-0.071,0.591-0.15c0.189-0.078,0.353-0.209,0.513-0.338
		c0.131-0.105,0.261-0.21,0.392-0.316c0.112-0.09,0.229-0.187,0.284-0.32c0.076-0.182,0.008-0.413-0.154-0.525
		c-0.161-0.11-0.381-0.1-0.56-0.023c-0.18,0.077-0.327,0.212-0.471,0.344l-0.396,0.364c-0.173,0.158-0.359,0.348-0.35,0.582
		C38.163,15.146,38.236,15.271,38.309,15.389"/>
	<path fill="#EEA820" d="M45.314,21.014c-0.262,0.111-0.557,0.141-0.836,0.085c-0.071-0.015-0.148-0.04-0.189-0.101
		c-0.072-0.108,0.008-0.249,0.089-0.349c0.234-0.293,0.492-0.567,0.771-0.817c0.102-0.092,0.211-0.183,0.343-0.222
		c0.291-0.087,0.613,0.126,0.716,0.412c0.026,0.072,0.041,0.151,0.023,0.225c-0.019,0.073-0.065,0.134-0.11,0.193
		c-0.104,0.132-0.213,0.269-0.365,0.34c-0.25,0.115-0.221,0.128-0.475,0.235"/>
	<path fill="#EEA820" d="M41.117,15.978c-0.083,0.099-0.17,0.207-0.182,0.335c-0.012,0.139,0.068,0.268,0.149,0.381
		c0.115,0.159,0.241,0.309,0.376,0.451c0.11,0.114,0.239,0.229,0.398,0.244c0.163,0.016,0.321-0.082,0.422-0.213
		c0.1-0.131,0.151-0.291,0.203-0.448c0.041-0.127,0.082-0.261,0.059-0.392c-0.039-0.212-0.231-0.356-0.408-0.477
		c-0.154-0.106-0.318-0.216-0.505-0.23c-0.187-0.014-0.397,0.106-0.41,0.293"/>
	<path fill="#EEA820" d="M40.594,12.918c0.192-0.287,0.457-0.692,0.778-0.82c0.185-0.073,0.402-0.026,0.566,0.086
		c0.165,0.112,0.282,0.282,0.369,0.461c0.095,0.197,0.159,0.415,0.146,0.634c-0.012,0.219-0.105,0.44-0.28,0.572
		c-0.175,0.133-0.434,0.161-0.616,0.041c-0.093-0.06-0.161-0.151-0.241-0.227c-0.129-0.123-0.289-0.207-0.431-0.316
		C40.745,13.241,40.616,13.095,40.594,12.918"/>
	<path fill="#EEA820" d="M44.165,18.48c0.212,0.014,0.422,0.063,0.62,0.143c0.077,0.032,0.156,0.071,0.204,0.139
		c0.084,0.116,0.054,0.278,0.01,0.414c-0.139,0.432-0.387,0.828-0.715,1.14c-0.054,0.052-0.118,0.105-0.193,0.103
		c-0.079-0.003-0.141-0.064-0.193-0.122c-0.155-0.171-0.301-0.35-0.435-0.538c-0.038-0.053-0.076-0.11-0.087-0.174
		c-0.011-0.068,0.01-0.136,0.034-0.201c0.095-0.264,0.237-0.511,0.416-0.728c0.069-0.083,0.146-0.165,0.249-0.202
		c0.102-0.036,0.231-0.015,0.292,0.076"/>
	<path fill="#EEA820" d="M44.808,16.871c-0.203,0.033-0.352,0.298-0.381,0.501c-0.029,0.204,0.037,0.41,0.129,0.593
		c0.124,0.249,0.326,0.492,0.603,0.529c0.298,0.04,0.567-0.171,0.785-0.378c0.092-0.086,0.186-0.179,0.225-0.299
		c0.04-0.121,0.019-0.253-0.002-0.379c-0.022-0.142-0.051-0.293-0.149-0.398c-0.084-0.091-0.207-0.133-0.323-0.171
		C45.402,16.773,45.054,16.688,44.808,16.871"/>
	<path fill="#EEA820" d="M42.928,15.781c-0.028,0.265-0.056,0.531-0.084,0.796c-0.008,0.068-0.014,0.14,0.017,0.202
		c0.033,0.07,0.105,0.11,0.175,0.145c0.207,0.102,0.424,0.186,0.646,0.249c0.135,0.038,0.28,0.069,0.41,0.019
		c0.112-0.044,0.193-0.139,0.27-0.232c0.088-0.107,0.177-0.22,0.203-0.355c0.031-0.147-0.016-0.299-0.075-0.437
		c-0.058-0.133-0.126-0.262-0.225-0.368c-0.291-0.319-0.831-0.368-1.176-0.108"/>
	<path fill="#EEA820" d="M42.769,12.877c-0.145,0.29-0.207,0.639-0.081,0.937c0.125,0.298,0.479,0.508,0.784,0.399
		c0.146-0.053,0.262-0.168,0.364-0.285c0.19-0.217,0.365-0.497,0.292-0.776c-0.053-0.199-0.228-0.349-0.424-0.415
		c-0.195-0.066-0.407-0.058-0.611-0.026"/>
	<path fill="#EEA820" d="M50.085,7.241c-0.145,0.29-0.207,0.639-0.081,0.937c0.125,0.298,0.479,0.508,0.784,0.399
		c0.146-0.053,0.262-0.168,0.364-0.285c0.19-0.217,0.365-0.497,0.292-0.776c-0.053-0.199-0.229-0.349-0.424-0.415
		c-0.195-0.065-0.408-0.058-0.611-0.026"/>
	<path fill="#EEA820" d="M51.847,8.427c-0.145,0.29-0.207,0.639-0.081,0.937c0.125,0.298,0.479,0.508,0.784,0.399
		c0.146-0.053,0.262-0.168,0.365-0.285c0.189-0.217,0.364-0.497,0.292-0.776c-0.054-0.199-0.229-0.349-0.425-0.415
		c-0.194-0.065-0.407-0.058-0.61-0.026"/>
	<path fill="#EEA820" d="M43.228,15.372c-0.104,0.225-0.393,0.279-0.64,0.305c-0.128,0.014-0.264,0.027-0.383-0.023
		c-0.148-0.061-0.242-0.206-0.321-0.346c-0.075-0.133-0.147-0.277-0.141-0.429c0.008-0.168,0.113-0.318,0.237-0.431
		c0.147-0.133,0.326-0.228,0.519-0.276c0.069-0.018,0.145-0.029,0.216-0.012c0.072,0.017,0.137,0.062,0.197,0.108
		c0.148,0.111,0.293,0.236,0.38,0.401c0.086,0.164,0.102,0.377-0.005,0.529"/>
	<path fill="#EEA820" d="M46.373,19.614c-0.206-0.095-0.389-0.24-0.529-0.419c-0.085-0.109-0.156-0.236-0.158-0.374
		c-0.002-0.151,0.083-0.294,0.198-0.392c0.116-0.097,0.26-0.154,0.405-0.196c0.188-0.055,0.389-0.085,0.582-0.047
		c0.192,0.038,0.378,0.154,0.462,0.331c0.105,0.222,0.039,0.484-0.029,0.72c-0.028,0.101-0.062,0.208-0.14,0.279
		c-0.048,0.044-0.11,0.07-0.172,0.088c-0.268,0.078-0.444,0.17-0.659-0.006"/>
	<path fill="#EEA820" d="M47.28,17.296c-0.067,0.188-0.107,0.386-0.118,0.585c-0.006,0.082-0.005,0.166,0.026,0.241
		c0.07,0.17,0.267,0.247,0.446,0.28c0.259,0.047,0.527,0.039,0.782-0.023c0.059-0.014,0.12-0.033,0.161-0.078
		c0.045-0.047,0.058-0.113,0.068-0.175c0.061-0.344,0.082-0.694,0.064-1.042c-0.006-0.101-0.016-0.207-0.072-0.29
		c-0.067-0.1-0.191-0.149-0.311-0.154c-0.121-0.005-0.237,0.029-0.352,0.066c-0.251,0.082-0.535,0.233-0.557,0.496"/>
	<path fill="#EEA820" d="M44.624,13.354c-0.196,0.122-0.356,0.299-0.461,0.505c-0.046,0.092-0.079,0.208-0.021,0.293
		c0.036,0.054,0.102,0.08,0.162,0.103c0.175,0.066,0.348,0.132,0.521,0.198c0.092,0.035,0.19,0.071,0.286,0.049
		c0.146-0.032,0.232-0.182,0.296-0.319c0.076-0.162,0.147-0.331,0.158-0.51c0.01-0.179-0.053-0.372-0.199-0.476
		c-0.148-0.104-0.346-0.097-0.528-0.086"/>
	<path fill="#EEA820" d="M52.42,13.164c0.012,0.231,0.088,0.458,0.218,0.648c0.058,0.085,0.143,0.171,0.246,0.161
		c0.064-0.007,0.119-0.051,0.169-0.093c0.142-0.119,0.284-0.239,0.426-0.358c0.075-0.063,0.154-0.132,0.183-0.226
		c0.043-0.145-0.047-0.292-0.137-0.414c-0.104-0.145-0.218-0.29-0.369-0.386c-0.151-0.096-0.351-0.135-0.512-0.057
		c-0.164,0.079-0.254,0.255-0.332,0.42"/>
	<path fill="#EEA820" d="M44.677,11.172c-0.387,0.321-0.58,0.86-0.485,1.354c0.013,0.071,0.034,0.144,0.08,0.199
		c0.049,0.058,0.12,0.09,0.191,0.114c0.318,0.108,0.68,0.082,0.979-0.072c0.213-0.11,0.4-0.295,0.448-0.53
		c0.063-0.298-0.107-0.59-0.271-0.847c-0.061-0.095-0.135-0.2-0.248-0.217c-0.115-0.017-0.237,0.068-0.345,0.024"/>
	<path fill="#EEA820" d="M45.245,16.504c-0.078-0.535-0.645-0.937-0.616-1.477c0.002-0.038,0.009-0.078,0.034-0.107
		c0.036-0.038,0.095-0.041,0.147-0.04c0.301,0.003,0.642,0.023,0.833,0.254c0.136,0.162,0.159,0.386,0.166,0.597
		c0.007,0.176-0.002,0.369-0.116,0.501c-0.116,0.133-0.406,0.388-0.468,0.223"/>
	<path fill="#EEA820" d="M46.871,15.403c-0.249,0.111-0.515,0.236-0.655,0.47c-0.106,0.177-0.126,0.393-0.11,0.599
		c0.02,0.236,0.087,0.478,0.249,0.65c0.162,0.172,0.435,0.255,0.646,0.148c0.18-0.091,0.274-0.288,0.354-0.473
		c0.099-0.231,0.19-0.47,0.198-0.721c0.009-0.251-0.082-0.518-0.286-0.663c-0.097-0.068-0.222-0.106-0.335-0.072
		c-0.113,0.035-0.201,0.157-0.172,0.271"/>
	<path fill="#EEA820" d="M47.312,13.048c-0.287-0.054-0.554-0.315-0.83-0.219c-0.107,0.038-0.19,0.124-0.262,0.214
		c-0.218,0.276-0.367,0.607-0.427,0.954c-0.039,0.225-0.04,0.464,0.051,0.673c0.08,0.185,0.226,0.333,0.371,0.472
		c0.113,0.108,0.25,0.221,0.406,0.204c0.132-0.013,0.235-0.116,0.323-0.216c0.229-0.258,0.438-0.534,0.624-0.824
		c0.098-0.153,0.193-0.33,0.155-0.507C47.678,13.586,47.685,13.211,47.312,13.048"/>
	<path fill="#EEA820" d="M46.206,11.205c-0.336,0.424-0.03,0.536-0.065,0.766c-0.014,0.098-0.043,0.195-0.042,0.295
		c0.001,0.099,0.039,0.206,0.126,0.255c0.057,0.032,0.123,0.034,0.188,0.036c0.154,0.005,0.311,0.01,0.461-0.026
		c0.151-0.037,0.296-0.12,0.374-0.254c0.082-0.14,0.078-0.313,0.066-0.475c-0.011-0.134-0.024-0.268-0.041-0.402
		c-0.008-0.058-0.017-0.119-0.05-0.168c-0.067-0.102-0.209-0.119-0.331-0.125c-0.248-0.013-0.52-0.019-0.72,0.13"/>
	<path fill="#EEA820" d="M42.506,12.005c0.083-0.182,0.191-0.352,0.319-0.505c0.141-0.167,0.359-0.324,0.561-0.241
		c0.133,0.055,0.206,0.196,0.264,0.328c0.104,0.243,0.185,0.554,0.006,0.748c-0.11,0.118-0.289,0.15-0.447,0.12
		c-0.158-0.029-0.301-0.112-0.439-0.195c-0.055-0.033-0.11-0.068-0.146-0.12c-0.087-0.128-0.242-0.187-0.089-0.207"/>
	<path fill="#EEA820" d="M51.769,7.519c0.083-0.182,0.191-0.352,0.319-0.505c0.141-0.167,0.359-0.324,0.561-0.241
		c0.133,0.055,0.206,0.196,0.263,0.328c0.106,0.243,0.186,0.554,0.006,0.748c-0.109,0.118-0.288,0.15-0.446,0.12
		c-0.158-0.029-0.302-0.112-0.439-0.195c-0.055-0.033-0.11-0.068-0.146-0.12c-0.087-0.128-0.242-0.187-0.089-0.207"/>
	<path fill="#EEA820" d="M53.459,8.336c0.083-0.182,0.19-0.352,0.318-0.505c0.142-0.167,0.359-0.324,0.562-0.241
		c0.133,0.055,0.206,0.196,0.263,0.328c0.106,0.243,0.185,0.554,0.006,0.748c-0.11,0.118-0.289,0.15-0.447,0.12
		c-0.157-0.029-0.301-0.112-0.438-0.195c-0.055-0.033-0.111-0.068-0.147-0.12c-0.087-0.128-0.241-0.187-0.089-0.207"/>
	<path fill="#EEA820" d="M47.191,10.579c-0.246,0.208-0.558,0.337-0.878,0.365c-0.157,0.013-0.338-0.008-0.428-0.137
		c-0.07-0.101-0.06-0.24-0.008-0.35c0.053-0.111,0.142-0.199,0.229-0.285c0.093-0.09,0.188-0.183,0.304-0.242
		c0.114-0.059,0.256-0.082,0.375-0.028c0.178,0.081,0.566-0.006,0.524,0.185s-0.053,0.368-0.174,0.522"/>
	<path fill="#EEA820" d="M51.061,9.824c-0.246,0.208-0.559,0.337-0.878,0.365c-0.157,0.013-0.338-0.008-0.428-0.137
		c-0.07-0.101-0.061-0.24-0.009-0.35c0.054-0.111,0.143-0.199,0.229-0.285c0.093-0.09,0.187-0.183,0.303-0.242
		c0.115-0.059,0.256-0.082,0.375-0.028c0.178,0.081,0.567-0.006,0.525,0.185c-0.042,0.191-0.054,0.368-0.174,0.522"/>
	<path fill="#EEA820" d="M51.711,10.256c0.03,0.321-0.042,0.65-0.203,0.929c-0.078,0.137-0.2,0.273-0.356,0.273
		c-0.122,0-0.231-0.087-0.291-0.194c-0.062-0.106-0.082-0.23-0.104-0.35c-0.021-0.128-0.043-0.258-0.025-0.387
		c0.017-0.128,0.08-0.257,0.19-0.324c0.169-0.1,0.32-0.469,0.453-0.325s0.272,0.254,0.328,0.441"/>
	<path fill="#EEA820" d="M46.798,8.383c0.425-0.08,0.535,0.195,0.85,0.491c0.111,0.104,0.21,0.251,0.173,0.398
		c-0.036,0.15-0.193,0.233-0.335,0.29c-0.27,0.107-0.568,0.19-0.845,0.108c-0.076-0.022-0.15-0.058-0.207-0.113
		c-0.053-0.05-0.089-0.114-0.119-0.179c-0.094-0.206-0.129-0.448-0.045-0.657C46.353,8.512,46.576,8.351,46.798,8.383"/>
	<path fill="#EEA820" d="M45.404,9.738c-0.28-0.08-0.601-0.004-0.814,0.193c-0.215,0.198-0.316,0.509-0.261,0.795
		c0.01,0.05,0.024,0.101,0.058,0.14c0.064,0.073,0.172,0.082,0.269,0.086c0.313,0.014,0.684-0.002,0.854-0.264
		c0.145-0.222,0.07-0.515-0.016-0.764"/>
	<path fill="#EEA820" d="M49.879,15.795c-0.354,0.223-0.735,0.484-0.837,0.889c-0.028,0.111-0.032,0.232,0.012,0.337
		c0.062,0.152,0.217,0.253,0.379,0.281c0.161,0.028,0.328-0.008,0.48-0.068c0.233-0.093,0.453-0.255,0.546-0.489
		c0.11-0.279,0.02-0.595-0.104-0.868c-0.059-0.132-0.176-0.283-0.313-0.238"/>
	<path fill="#EEA820" d="M48.105,14.014c-0.267,0.18-0.325,0.474-0.376,0.791c-0.051,0.318,0.009,0.647,0.133,0.943
		c0.116,0.279,0.329,0.559,0.629,0.586c0.277,0.025,0.52-0.173,0.727-0.359c0.244-0.219,0.502-0.465,0.555-0.789
		c0.033-0.199-0.019-0.404-0.096-0.59c-0.097-0.232-0.232-0.446-0.401-0.631c-0.173-0.191-0.397-0.357-0.655-0.368
		c-0.257-0.012-0.531,0.188-0.521,0.445"/>
	<path fill="#EEA820" d="M47.571,12.64c-0.034-0.179-0.068-0.363-0.031-0.542c0.037-0.178,0.164-0.35,0.343-0.383
		c0.223-0.041,0.426,0.14,0.542,0.334c0.123,0.207,0.194,0.445,0.204,0.686c0.009,0.232-0.049,0.484-0.227,0.634
		c-0.078,0.067-0.193,0.109-0.285,0.06c-0.047-0.025-0.199-0.011-0.229-0.057C47.754,13.163,47.611,12.885,47.571,12.64"/>
	<path fill="#EEA820" d="M51.117,14.791c-0.193-0.109-0.417-0.162-0.638-0.152c-0.048,0.002-0.101,0.009-0.136,0.042
		c-0.044,0.041-0.048,0.109-0.047,0.17c0.012,0.429,0.131,0.856,0.346,1.229c0.066,0.116,0.154,0.236,0.283,0.272
		c0.207,0.057,0.401-0.122,0.524-0.299c0.142-0.205,0.259-0.444,0.246-0.694c-0.013-0.249-0.193-0.503-0.442-0.527"/>
	<path fill="#EEA820" d="M50.129,12.998c-0.186,0.096-0.287,0.298-0.361,0.494c-0.085,0.227-0.147,0.486-0.044,0.706
		C49.81,14.38,50,14.5,50.198,14.535c0.287,0.052,0.621-0.088,0.714-0.364c0.038-0.113,0.034-0.236,0.029-0.355
		c-0.011-0.239-0.03-0.494-0.177-0.683C50.617,12.945,50.274,12.808,50.129,12.998"/>
	<path fill="#EEA820" d="M50.151,12.27c0.002-0.133-0.083-0.255-0.192-0.333c-0.108-0.077-0.238-0.116-0.366-0.153
		c-0.178-0.052-0.396-0.091-0.526,0.04c-0.065,0.066-0.092,0.16-0.108,0.252c-0.056,0.298-0.043,0.604-0.021,0.907
		c0.009,0.115,0.025,0.244,0.116,0.314c0.057,0.043,0.13,0.055,0.2,0.054c0.2-0.002,0.397-0.097,0.524-0.251
		C49.903,12.945,50.187,12.466,50.151,12.27"/>
	<path fill="#EEA820" d="M49.384,8.346c-0.28-0.007-0.84,0.357-1.059,0.532c-0.218,0.175-0.327,0.508-0.183,0.748
		c0.096,0.158,0.279,0.247,0.464,0.27c0.184,0.023,0.369-0.011,0.551-0.047c0.109-0.022,0.223-0.047,0.307-0.12
		c0.092-0.078,0.133-0.199,0.162-0.315c0.057-0.227,0.082-0.462,0.075-0.696c-0.003-0.097-0.013-0.199-0.067-0.28
		C49.582,8.356,49.472,8.306,49.384,8.346"/>
	<path fill="#EEA820" d="M47.574,10.465c0.162-0.119,0.324-0.237,0.484-0.355c0.038-0.028,0.078-0.056,0.124-0.062
		c0.044-0.006,0.09,0.01,0.13,0.03c0.231,0.117,0.363,0.392,0.339,0.65c-0.025,0.259-0.193,0.492-0.417,0.625
		c-0.135,0.08-0.321,0.121-0.438,0.016c-0.075-0.068-0.097-0.176-0.106-0.277c-0.022-0.229-0.172-0.435-0.115-0.657"/>
	<path fill="#EEA820" d="M50.856,11.644c0.341-0.049,0.704,0.132,0.87,0.434c0.052,0.096,0.086,0.21,0.053,0.313
		c-0.025,0.076-0.081,0.136-0.14,0.19c-0.106,0.099-0.223,0.186-0.348,0.26c-0.122,0.072-0.256,0.133-0.397,0.136
		c-0.142,0.003-0.291-0.061-0.356-0.187c-0.079-0.151-0.019-0.334,0.044-0.493C50.665,12.083,50.628,11.676,50.856,11.644"/>
	<path fill="#EEA820" d="M50.137,10.487c0.209,0.274,0.228,0.679,0.043,0.971c-0.058,0.092-0.141,0.177-0.248,0.199
		c-0.077,0.015-0.157-0.005-0.232-0.03c-0.138-0.044-0.271-0.104-0.396-0.177c-0.122-0.071-0.239-0.159-0.312-0.281
		c-0.072-0.122-0.088-0.285-0.01-0.403c0.094-0.142,0.282-0.178,0.451-0.201C49.661,10.534,49.999,10.304,50.137,10.487"/>
	<path fill="#EEA820" d="M51.482,12.937c-0.239,0.079-0.267,0.418-0.351,0.655C51.1,13.68,51.1,13.777,51.109,13.87
		c0.015,0.181,0.06,0.36,0.132,0.527c0.093,0.218,0.278,0.44,0.515,0.419c0.149-0.013,0.275-0.124,0.343-0.257
		c0.068-0.132,0.088-0.284,0.101-0.433c0.029-0.377,0.016-0.759-0.041-1.133c-0.012-0.072-0.028-0.151-0.087-0.194
		c-0.039-0.027-0.089-0.033-0.138-0.034c-0.158-0.002-0.316,0.049-0.445,0.142"/>
	<path fill="#EEA820" d="M52.303,10.289c-0.238,0.079-0.266,0.418-0.35,0.655c-0.031,0.089-0.031,0.186-0.023,0.279
		c0.016,0.181,0.061,0.36,0.132,0.527c0.094,0.218,0.279,0.44,0.516,0.419c0.148-0.013,0.275-0.124,0.343-0.257
		c0.068-0.132,0.088-0.284,0.101-0.433c0.029-0.377,0.016-0.759-0.041-1.133c-0.012-0.072-0.028-0.151-0.088-0.194
		c-0.039-0.027-0.089-0.033-0.137-0.034c-0.158-0.002-0.316,0.049-0.445,0.142"/>
</g>
</svg>
