<?xml version="1.0" encoding="utf-8"?>
<!-- Generator: Adobe Illustrator 16.0.2, SVG Export Plug-In . SVG Version: 6.00 Build 0)  -->
<!DOCTYPE svg PUBLIC "-//W3C//DTD SVG 1.1//EN" "http://www.w3.org/Graphics/SVG/1.1/DTD/svg11.dtd">
<svg version="1.1" id="Layer_1" xmlns="http://www.w3.org/2000/svg" xmlns:xlink="http://www.w3.org/1999/xlink" x="0px" y="0px"
	 width="35.479px" height="43.268px" viewBox="0 0 35.479 43.268" enable-background="new 0 0 35.479 43.268" xml:space="preserve">
<g>
	<path fill="#FFCB0B" d="M12.357,0.266c4.865,0.879,8.086,2.93,11.853,6.131c3.769,3.2,6.767,7.252,9.013,11.656
		c0.969,1.899,1.811,3.895,2.115,6.006c0.319,2.215,0.035,4.468-0.248,6.689c-0.142,1.107-0.284,2.223-0.642,3.281
		c-0.69,2.047-2.142,3.752-3.728,5.219c-1.61,1.488-3.428,2.807-5.504,3.509c-2.076,0.703-4.443,0.736-6.398-0.256
		c-2.488-1.261-3.934-3.926-4.85-6.561c-0.916-2.634-1.474-5.43-2.897-7.828c-1.141-1.922-2.791-3.496-4.565-4.857
		c-2.063-1.584-4.421-3.024-5.559-5.363c-0.461-0.947-0.689-1.991-0.821-3.035c-0.44-3.52,0.261-7.245,2.307-10.142
		c2.047-2.897,5.512-4.851,9.056-4.708L12.357,0.266z"/>
	<path fill="#D2A12A" d="M29.851,38.976c0.084-0.185-0.003-0.413-0.158-0.544c-0.153-0.131-0.36-0.183-0.562-0.211
		c-0.31-0.043-0.631-0.037-0.93,0.056c-0.803,0.247-1.293,1.034-1.712,1.762c-0.11,0.194-0.226,0.424-0.141,0.631
		c0.083,0.203,0.336,0.292,0.553,0.257s0.405-0.164,0.585-0.289c0.777-0.539,1.555-1.079,2.332-1.618"/>
	<path fill="#D2A12A" d="M6.094,12.405c-1.123,0.488-2.207,1.067-3.24,1.729c0.653,0.1,1.128-0.568,1.53-1.091
		c0.403-0.523,1.209-0.985,1.66-0.502c-0.742,0.471-1.485,0.942-2.227,1.413c-0.191,0.121-0.408,0.297-0.367,0.519
		c0.069,0.383,0.653,0.24,0.964,0.005c0.594-0.451,1.188-0.901,1.782-1.351"/>
	<path fill="#D2A12A" d="M14.017,3.11c0.263,0.377,0.833,0.056,1.289,0.006c0.515-0.057,1.031,0.363,1.081,0.878
		c0.052,0.533-0.367,1.036-0.877,1.198c-0.511,0.161-1.076,0.034-1.549-0.218c-0.34-0.182-0.659-0.446-0.793-0.809
		c-0.135-0.362-0.026-0.83,0.313-1.013"/>
	<path fill="#D2A12A" d="M18.773,30.958c0.724,0.381,1.553,0.601,2.149,1.16s0.813,1.656,0.157,2.144
		c-0.71,0.527-1.688-0.069-2.359-0.644c-0.51-0.437-1.02-0.873-1.529-1.31c-0.151-0.129-0.307-0.265-0.381-0.449
		c-0.177-0.44,0.228-0.938,0.69-1.044c0.462-0.105,0.938,0.061,1.384,0.225"/>
	<path fill="#D2A12A" d="M14.438,18.871c-0.676,0.698-1.322,1.424-1.938,2.176c0.758-0.042,1.183-0.858,1.541-1.527
		c0.359-0.668,1.069-1.382,1.762-1.07c0.126,0.057,0.242,0.152,0.291,0.282c0.138,0.357-0.262,0.676-0.602,0.853
		c-0.934,0.486-1.867,0.973-2.802,1.46"/>
	<path fill="#D2A12A" d="M30.066,14.817c-0.183-0.741-1.451-0.815-1.719-0.1c0.46,0.204,0.962,0.312,1.465,0.314
		c0.029-0.175,0.059-0.351,0.088-0.526"/>
	<path fill="#D2A12A" d="M28.364,25.683c-0.243-0.873-1.71-0.988-2.087-0.163c0.593,0.413,1.543,0.108,1.782-0.573"/>
</g>
</svg>
