<?xml version="1.0" encoding="utf-8"?>
<!-- Generator: Adobe Illustrator 16.0.2, SVG Export Plug-In . SVG Version: 6.00 Build 0)  -->
<!DOCTYPE svg PUBLIC "-//W3C//DTD SVG 1.1//EN" "http://www.w3.org/Graphics/SVG/1.1/DTD/svg11.dtd">
<svg version="1.1" id="Layer_1" xmlns="http://www.w3.org/2000/svg" xmlns:xlink="http://www.w3.org/1999/xlink" x="0px" y="0px"
	 width="33.542px" height="34.859px" viewBox="0 0 33.542 34.859" enable-background="new 0 0 33.542 34.859" xml:space="preserve">
<g>
	<path fill="#9BC53D" d="M13.96,5.209c1.404-0.13,2.809-0.26,4.213-0.39c1.314-0.121,2.638-0.243,3.952-0.11
		c3.371,0.342,6.44,2.399,8.397,5.164c1.958,2.766,2.872,6.178,3.004,9.564c0.121,3.095-0.405,6.265-1.89,8.983
		c-1.484,2.718-3.99,4.946-6.987,5.732c-2.711,0.712-5.576,0.229-8.376,0.377c-2.527,0.133-5.169,0.766-7.514-0.187
		c-2.376-0.966-3.84-3.318-5.124-5.539c-0.901-1.556-1.796-3.125-2.444-4.802c-1.481-3.84-1.585-8.195-0.287-12.101
		c0.106-0.321,0.228-0.648,0.46-0.894c0.354-0.372,0.834-0.992,1.193-1.359c1.898-1.952,6.018-2.868,7.02-3.314
		c1.425-0.634,3-0.832,4.548-1.022"/>
	<path fill="#44612D" d="M13.327,6.735C14.492,6.31,15.758,6.245,17,6.286c0.598,0.02,1.211,0.065,1.756,0.315
		c0.544,0.25,1.013,0.743,1.074,1.339c0.075,0.731-0.485,1.409-1.156,1.71c-0.671,0.302-1.431,0.311-2.166,0.314
		c-1.287,0.008-2.573,0.015-3.859,0.021c-1.132,0.006-2.417-0.055-3.152-0.915C9.384,8.94,9.286,8.783,9.278,8.61
		c-0.011-0.272,0.2-0.498,0.412-0.669c0.499-0.404,1.089-0.695,1.713-0.847"/>
	<path fill="#D06728" d="M8.842,1.276C8.964,0.849,9.141,0.37,9.625,0.133c0.486-0.235,1.259-0.16,1.492,0.24
		c0.109,0.187,0.083,0.402,0.116,0.605c0.064,0.388,0.344,0.733,0.609,1.069c1.595,2.025,2.894,4.185,3.863,6.425
		c-0.446,0.353-1.281,0.047-1.559-0.394c-0.278-0.439-0.248-0.956-0.474-1.413c-0.29-0.589-0.965-1.011-1.466-1.512
		c-0.865-0.868-1.2-1.964-1.783-2.957C10.104,1.653,9.625,1.22,8.842,1.276"/>
</g>
</svg>
