<?xml version="1.0" encoding="utf-8"?>
<!-- Generator: Adobe Illustrator 16.0.2, SVG Export Plug-In . SVG Version: 6.00 Build 0)  -->
<!DOCTYPE svg PUBLIC "-//W3C//DTD SVG 1.1//EN" "http://www.w3.org/Graphics/SVG/1.1/DTD/svg11.dtd">
<svg version="1.1" id="Layer_1" xmlns="http://www.w3.org/2000/svg" xmlns:xlink="http://www.w3.org/1999/xlink" x="0px" y="0px"
	 width="33.827px" height="119.623px" viewBox="0 0 33.827 119.623" enable-background="new 0 0 33.827 119.623"
	 xml:space="preserve">
<g>
	<path fill="#2AAAE2" d="M9.317,7.478C9.29,5.535,9.355,3.592,9.514,1.656C9.533,1.419,9.558,1.169,9.7,0.977
		c0.175-0.237,0.484-0.327,0.771-0.394c1.538-0.352,3.123-0.429,4.698-0.504c2.745-0.132,5.619-0.24,8.103,0.938
		c0.39,0.184,0.785,0.419,0.987,0.799c0.195,0.367,0.178,0.804,0.162,1.218c-0.055,1.447-0.037,2.896,0.054,4.341
		c-0.847-0.992-2.322-1.082-3.625-1.063c-2.139,0.03-4.277,0.148-6.406,0.354C12.833,6.823,11.2,7.037,9.727,7.7"/>
	<path fill="#FFCB0B" d="M24.386,13.987c0.9,1.95,2.229,3.663,3.458,5.424c1.415,2.024,2.721,4.15,3.573,6.47
		c2.684,7.311,0.559,15.473,1.582,23.194c0.303,2.283,0.878,4.64,0.22,6.847c-0.411,1.375-1.295,2.719-1.005,4.125
		c0.102,0.494,0.343,0.946,0.528,1.415c0.521,1.326,0.572,2.783,0.616,4.207c0.059,1.891,0.117,3.782,0.176,5.673
		c0.054,1.745-0.246,3.008-0.506,4.69c-0.583,3.767-0.542,7.603-0.513,11.403c0.041,5.353,0.082,10.706,0.123,16.059
		c0.008,0.969-0.005,2.004-0.547,2.807c-0.073,0.107-0.159,0.225-0.138,0.354c0.034,0.206,0.293,0.263,0.477,0.363
		c0.506,0.277,0.489,0.998,0.402,1.568c-0.354,2.307-0.733,4.61-1.136,6.91c-0.075,0.428-0.156,0.87-0.392,1.235
		c-0.292,0.453-0.784,0.734-1.278,0.949c-1.646,0.717-3.473,0.875-5.263,1.025c-4.573,0.382-9.149,0.764-13.736,0.906
		c-0.667,0.02-1.345,0.035-1.997-0.114c-0.778-0.179-1.484-0.582-2.207-0.923c-1.592-0.75-3.319-1.211-5.073-1.353
		c-0.649-2.649-1.089-5.351-1.312-8.069c-0.031-0.377-0.055-0.769,0.088-1.119c0.132-0.323,0.398-0.582,0.508-0.914
		c0.181-0.545-0.096-1.123-0.287-1.666c-0.434-1.235-0.428-2.578-0.416-3.888c0.053-6.172,0.107-12.344,0.161-18.516
		c0.027-3.076,0.189-6.185,0.081-9.258c-0.096-2.705,0.565-5.369,0.602-8.097c0.027-2.011-0.188-4.044,0.198-6.018
		c0.169-0.864,0.454-1.723,0.394-2.602c-0.059-0.878-0.586-1.811-1.45-1.98c0.136-5.957-0.039-11.918,0.215-17.873
		c0.116-2.728-0.486-5.341-0.16-8.109c0.357-3.03,1.337-5.989,2.891-8.619c1.201-2.03,2.717-3.853,4.229-5.664
		c0.457-0.549,0.918-1.102,1.477-1.547c0.425-0.338,0.918-0.628,1.18-1.103c0.237-0.427,0.248-0.939,0.255-1.429
		c0.011-1.004,0.023-2.008,0.036-3.013c0.001-0.203,0.014-0.43,0.159-0.572c0.125-0.121,0.313-0.143,0.486-0.16
		c4.168-0.385,8.362-0.51,12.547-0.374c0.112,0.003-0.255,3.152-0.249,3.373C23.418,11.383,23.812,12.743,24.386,13.987"/>
	<path fill="#EEA820" d="M16.028,28.771c-1.597-0.06-3.201,0.077-4.765,0.407c-0.327,0.069-0.668,0.154-0.917,0.378
		c-0.388,0.349-0.447,0.925-0.477,1.446c-0.427,7.198-0.445,14.418-0.055,21.618c0.011,0.209,0.026,0.428,0.141,0.603
		c0.143,0.216,0.404,0.314,0.651,0.393c3.853,1.22,8.011,0.732,12.021,0.232c0.37-0.045,0.76-0.101,1.05-0.332
		c0.316-0.251,0.453-0.661,0.551-1.052c0.384-1.546,0.386-3.157,0.385-4.75c0-5.62-0.001-11.239-0.003-16.859
		c0-0.291-0.007-0.604-0.181-0.838c-0.21-0.282-0.594-0.357-0.942-0.411c-2.17-0.338-4.34-0.676-6.509-1.013L16.028,28.771z"/>
	<path fill="#FFFFFF" d="M0.691,64.054c10.775,0.212,21.105,0.391,31.878,0.091c0.229-0.006,0.494,0.003,0.632,0.185
		c0.089,0.119,0.097,0.277,0.1,0.425c0.041,2.259-0.123,4.525,0.085,6.774c0.131,1.418,0.408,2.825,0.438,4.249
		c0.039,1.868-0.348,3.714-0.621,5.561c-0.872,5.874-0.614,11.847-0.423,17.781c0.045,1.426,0.055,2.964-0.774,4.128
		c-1.296,1.816-3.938,1.878-6.174,1.73c-5.206-0.345-10.423-0.845-15.633-0.551c-3.174,0.179-6.583,0.604-9.34-0.969
		c-0.306-0.175-0.613-0.389-0.752-0.71c-0.093-0.213-0.1-0.452-0.104-0.685c-0.04-2.98,0.471-5.938,0.659-8.912
		c0.114-1.816,0.108-3.637,0.104-5.457C0.741,79.814,0.716,71.935,0.691,64.054"/>
</g>
</svg>
