<?xml version="1.0" encoding="utf-8"?>
<!-- Generator: Adobe Illustrator 16.0.2, SVG Export Plug-In . SVG Version: 6.00 Build 0)  -->
<!DOCTYPE svg PUBLIC "-//W3C//DTD SVG 1.1//EN" "http://www.w3.org/Graphics/SVG/1.1/DTD/svg11.dtd">
<svg version="1.1" id="Layer_1" xmlns="http://www.w3.org/2000/svg" xmlns:xlink="http://www.w3.org/1999/xlink" x="0px" y="0px"
	 width="38.944px" height="40.173px" viewBox="0 0 38.944 40.173" enable-background="new 0 0 38.944 40.173" xml:space="preserve">
<g>
	<path fill="#EB8B23" d="M0.173,15.901c-0.481,2.782,0.116,5.641,0.905,8.352c0.671,2.307,2.197,4.255,3.249,6.415
		c0.508,1.044,0.921,2.162,1.698,3.024c0.658,0.731,1.534,1.225,2.406,1.681c3.594,1.882,7.404,3.348,11.333,4.359
		c0.766,0.197,1.539,0.377,2.328,0.427c3.175,0.197,6.063-1.719,8.573-3.672c3.121-2.43,6.214-5.226,7.521-8.958
		c1.227-3.499,0.717-7.338,0.191-11.009c-0.246-1.722-0.496-3.458-1.087-5.094c-1.797-4.97-6.524-8.355-11.47-10.215
		c-1.684-0.633-3.439-1.131-5.235-1.202c-3.386-0.134-6.669,1.258-9.509,3.108c-3.838,2.501-7.093,5.889-9.44,9.824
		c-0.635,1.066-1.723,2.227-1.572,3.459"/>
	<path fill="#44612D" d="M21.048,10.696c0.308-0.686-1.978-0.221-1.271-1.724c0.319-0.681,0.61-1.923,0.222-2.566
		c1.009-0.332,2.073-0.498,3.136-0.49c0.358,0.002,0.73,0.028,1.041,0.205c0.336,0.191,0.556,0.532,0.75,0.866
		c0.366,0.63,0.686,1.45,0.268,2.047C24.602,9.879,21.97,10.236,21.048,10.696"/>
	<path fill="#412312" d="M22.688,8.488c-0.114-0.457-0.165-0.984,0.12-1.359s1.015-0.367,1.129,0.089
		c0.032,0.128,0.01,0.264-0.032,0.389c-0.096,0.284-0.316,0.538-0.606,0.613c-0.29,0.075-0.639-0.072-0.737-0.355"/>
</g>
</svg>
