<?xml version="1.0" encoding="utf-8"?>
<!-- Generator: Adobe Illustrator 16.0.2, SVG Export Plug-In . SVG Version: 6.00 Build 0)  -->
<!DOCTYPE svg PUBLIC "-//W3C//DTD SVG 1.1//EN" "http://www.w3.org/Graphics/SVG/1.1/DTD/svg11.dtd">
<svg version="1.1" id="Layer_1" xmlns="http://www.w3.org/2000/svg" xmlns:xlink="http://www.w3.org/1999/xlink" x="0px" y="0px"
	 width="33.526px" height="92.086px" viewBox="0 0 33.526 92.086" enable-background="new 0 0 33.526 92.086" xml:space="preserve">
<g>
	<path fill="#FFFFFF" d="M0.281,7.079c0.336,4.585,0.671,9.17,1.007,13.755c0.326,4.458,0.651,8.944,0.165,13.387
		c-0.31,2.825-0.044,5.608-0.298,8.438c-0.246,2.733-0.134,5.483-0.149,8.227C0.929,63.838,0.068,75.737,0.453,89.572
		c0.01,0.389,0.229,0.785,0.56,0.992c0.232,0.146,0.521,0.162,0.793,0.174c10.211,0.449,20.422,0.898,30.633,1.348
		c2.063-15.603,0.578-31.201,0.469-46.939c-0.022-3.173-0.351-8.683-0.6-11.846c-0.72-9.13-1.645-16.092-0.491-25.177"/>
	<path fill="#44612D" d="M10.863,4.215C8.076,4.443,5.303,4.828,2.559,5.368C1.833,5.51,0.31,5.289,0,7.087
		c0.617,0.495,2.228-0.085,3.019-0.067c9.427,0.216,19.154,0.388,28.584,0.376c0.425,0,0.247-0.463,0.365-0.871
		c0.073-0.252,0.306-0.539,0.057-0.619C30.449,5.4,30.457,5.35,29.511,5.323C23.291,5.154,17.084,4.384,10.863,4.215"/>
	<path fill="#44A84F" d="M11.277,6.149c0.568-1.896,0.594-3.951,0.073-5.86c0.274-0.248,0.682-0.267,1.053-0.271
		C15.331-0.017,18.261,0,21.188,0.07c0.195,0.005,0.408,0.016,0.556,0.143c0.158,0.135,0.197,0.36,0.226,0.567l0.526,3.844
		c0.022,0.159,0.038,0.34-0.064,0.464c-0.104,0.123-0.283,0.14-0.443,0.148C18.384,5.407,14.886,6.209,11.277,6.149"/>
	<path fill="#9BC53D" d="M0.081,7.084c0.19,4.699,0.94,7.998,1.016,12.422c0.005,0.275-0.05,1.478,0.075,1.724
		c0.188,0.373,1.491,0.46,1.892,0.581c9.761,2.961,19.521,5.921,29.282,8.881c-0.704-7.589-0.885-15.72-0.51-23.333
		c-10.294-0.93-19.268,0.15-30.829-0.553"/>
	<path fill="#9BC53D" d="M14.416,64.847c0.906-0.084,1.813-0.168,2.721-0.252c0.849-0.078,1.705-0.157,2.553-0.071
		c2.178,0.221,4.16,1.549,5.424,3.336c1.266,1.786,1.855,3.99,1.94,6.177c0.078,1.999-0.261,4.047-1.22,5.803
		s-2.578,3.195-4.514,3.703c-1.752,0.46-3.603,0.148-5.41,0.243c-1.633,0.087-3.34,0.496-4.854-0.12
		c-1.535-0.623-2.48-2.144-3.311-3.577c-0.581-1.006-1.16-2.019-1.578-3.103c-0.957-2.48-1.024-5.293-0.187-7.816
		c0.069-0.207,0.148-0.418,0.298-0.576c0.229-0.241,0.539-0.641,0.771-0.879c1.227-1.261,3.888-1.853,4.535-2.141
		c0.921-0.409,1.938-0.537,2.938-0.661"/>
	<path fill="#44612D" d="M14.007,65.833c0.753-0.275,1.57-0.316,2.372-0.29c0.387,0.012,0.782,0.042,1.135,0.204
		c0.351,0.161,0.653,0.48,0.693,0.865c0.049,0.472-0.313,0.91-0.746,1.104c-0.434,0.195-0.926,0.201-1.4,0.203
		c-0.83,0.005-1.661,0.009-2.492,0.014c-0.73,0.004-1.561-0.035-2.036-0.591c-0.073-0.085-0.136-0.186-0.14-0.298
		c-0.008-0.175,0.129-0.322,0.265-0.432c0.323-0.261,0.704-0.449,1.107-0.547"/>
	<path fill="#D06728" d="M11.109,62.307c0.079-0.276,0.193-0.585,0.507-0.738c0.313-0.153,0.813-0.104,0.964,0.155
		c0.069,0.121,0.054,0.259,0.074,0.39c0.042,0.251,0.223,0.475,0.394,0.692c1.03,1.308,1.87,2.703,2.496,4.15
		c-0.288,0.227-0.827,0.029-1.008-0.254c-0.18-0.284-0.16-0.619-0.306-0.913c-0.188-0.381-0.624-0.653-0.947-0.977
		c-0.559-0.56-0.775-1.268-1.151-1.91C11.926,62.55,11.616,62.271,11.109,62.307"/>
</g>
</svg>
