<?xml version="1.0" encoding="utf-8"?>
<!-- Generator: Adobe Illustrator 16.0.2, SVG Export Plug-In . SVG Version: 6.00 Build 0)  -->
<!DOCTYPE svg PUBLIC "-//W3C//DTD SVG 1.1//EN" "http://www.w3.org/Graphics/SVG/1.1/DTD/svg11.dtd">
<svg version="1.1" id="Layer_1" xmlns="http://www.w3.org/2000/svg" xmlns:xlink="http://www.w3.org/1999/xlink" x="0px" y="0px"
	 width="34.259px" height="117.219px" viewBox="0 0 34.259 117.219" enable-background="new 0 0 34.259 117.219"
	 xml:space="preserve">
<g>
	<path fill="#FFCB0B" d="M23.802,10.698c-1.089,2.403-0.123,5.282,1.446,7.403c1.568,2.121,3.69,3.775,5.332,5.84
		c3.125,3.929,4.313,9.328,3.126,14.206c-0.185,0.762-0.427,1.528-0.386,2.311c0.029,0.552,0.197,1.086,0.287,1.632
		c0.542,3.295-1.761,6.287-2.996,9.39c-2.238,5.623-0.917,12.137,1.913,17.485c0.968,1.83,1.949,4.456,0.247,5.635
		c0.485,0.085,1.087,1.004,1.014,1.491c-0.141,0.936,0.192,3.161,0.069,5.36c-0.201,3.562-0.4,7.15,0.105,10.683
		c0.211,1.471,0.537,3.012,0.031,4.41c-0.321,0.887-0.973,1.715-0.881,2.654c0.069,0.708,0.555,1.307,0.734,1.994
		c0.426,1.643-0.227,3.038-0.358,4.73c-0.199,2.594-0.751,3.397-1.995,5.587c-1.793,3.155-3.42,4.406-6.984,5.089
		s-8.607,0.877-12.172,0.199c-3.951-0.751-7.334-1.523-9.359-4.997c-0.942-1.616-1.22-3.521-1.479-5.373
		c-0.313-2.229-1.335-5.494-1.047-6.642c0.199-0.795,0.866-1.472,0.805-2.288c-0.043-0.582-0.376-1.094-0.647-1.61
		c-0.735-1.397-0.475-4.055-0.346-5.63c0.239-2.909,0.397-3.282,0.1-6.185c-0.166-1.621,0.04-4.424-0.264-6.022
		c-0.305-1.6,0.081-3.563,1.552-4.261c-1.23-1.899-0.672-4.468,0.443-6.438c1.115-1.97,2.39-3.737,2.958-5.929
		c0.699-2.694,1.91-4.494,0.32-6.105c-0.566-0.572-0.683-1.188-0.519-1.977c0.071-0.344,0.016-0.586,0.208-0.881
		c1.055-1.615-0.255-3.766-1.325-5.371c-1.07-1.605-2.36-3.37-1.99-5.263c0.297-1.516,0.659-2.543,0.313-4.049
		c-0.283-1.231-0.62-2.298-1.021-3.495C0.822,33.643,0.897,32.947,1,32.281c0.535-3.482,1.803-6.914,4.071-9.608
		c1.654-1.964,3.786-3.482,5.433-5.451c1.648-1.969,2.797-4.668,1.961-7.095c1.921-0.893,3.982-1.606,6.101-1.58
		c2.118,0.027,4.312,0.896,5.52,2.636"/>
	<path fill="#EEA820" d="M11.232,10.438c-0.085-2.195-0.17-4.389-0.255-6.584c-0.033-0.852-0.04-1.787,0.496-2.45
		c0.561-0.692,1.531-0.863,2.414-0.986c3.159-0.439,6.534-0.849,9.409,0.531c0.342,0.165,0.687,0.366,0.886,0.689
		c0.15,0.243,0.203,0.533,0.249,0.816c0.431,2.654,0.537,5.36,0.315,8.039c-2.776-0.848-5.698-1.212-8.597-1.072
		c-1.627,0.079-3.325,0.347-4.63,1.322"/>
</g>
</svg>
