<svg id="Layer_1" data-name="Layer 1" xmlns="http://www.w3.org/2000/svg" viewBox="0 0 65.83 63.15"><defs><style>.cls-1{fill:#091f2c;}.cls-2{fill:#febf44;}</style></defs><title>cart</title><g id="_Group_" data-name="&lt;Group&gt;"><g id="_Group_2" data-name="&lt;Group&gt;"><path class="cls-1" d="M585.46,1097.11c-3.09,2.46-8,2.63-11.91,3-14.18,1.52-23.38,1.34-38.36,2.24-4.41.26-3.07,4.67-3,5.67,0.65,7.25,1.68,9.49,3.11,17.53,0.2,1.11.51,3.07,1.41,3.73a5.36,5.36,0,0,0,2.91.76c10,0.62,19.82.55,29.77,1.18,1.87,0.12,6.4,1.06,7.91-5.67,2.33-10.41,5.38-18.64,8.17-28.47v0Z" transform="translate(-530.58 -1090.03)"/><path class="cls-2" d="M584.7,1095.82c-3.81,2.57-8.54,2.6-13,3s-8.78.75-13.18,1c-7.73.4-16.16-.28-23.76,1.12-4.82.89-4.41,4.75-3.93,8.7,0.37,3,.89,6,1.54,9s0.82,6.91,2.11,9.85a4.47,4.47,0,0,0,3.6,2.89c4.76,1.18,10.54.59,15.42,0.74,5.3,0.15,10.58.39,15.87,0.62a11.08,11.08,0,0,0,4.49-.34c5.58-2.06,5.74-10.37,7.09-15.15,1.23-4.37,2.62-8.69,3.95-13,0.57-1.86,2.83-6,1.84-7.9-0.91-1.7-3.5-.19-2.59,1.51a26.36,26.36,0,0,0-1.64,3.94c-0.5,1.64-1,3.27-1.51,4.9-1,3.25-2,6.5-2.94,9.78-1.3,4.63-1.47,13.38-7.65,13.36-6.93,0-13.94-.59-20.87-0.82-3-.1-8.58.67-11.14-1.12-2.24-1.56-2.16-5.47-2.72-8.14-0.46-2.17-1-4.33-1.34-6.51-0.29-1.75-1.39-5-.88-6.8,1.27-4.43,15.43-3.2,19.64-3.37,6.21-.26,12.42-0.62,18.61-1.23,5-.49,10.24-0.57,14.49-3.44C587.81,1097.33,586.31,1094.73,584.7,1095.82Z" transform="translate(-530.58 -1090.03)"/></g><g id="_Group_3" data-name="&lt;Group&gt;"><path class="cls-1" d="M538.48,1144.13c0.33-.9-0.2-2,1-2.42a8.77,8.77,0,0,1,2.74-.57q17.6-.67,35.22-0.72a4.64,4.64,0,0,0,3.28-.85,3.13,3.13,0,0,0,.75-2.85,7.48,7.48,0,0,0-1.32-2.75,26,26,0,0,0-3.83-4.39,3.29,3.29,0,0,0-1.84-1,1.09,1.09,0,0,0-.57.09,1.17,1.17,0,0,0-.37,1.51,4,4,0,0,0,1.15,1.26,14.08,14.08,0,0,1,3.73,5,1.44,1.44,0,0,1,.17.91c-0.17.68-1.5,0.3-2.19,0.24-11.84-1.1-23.35,1.12-35.22.43-1.63-.09-3.51-0.13-4.58,1.12-0.85,1-.85,2.45-0.81,3.77a2.48,2.48,0,0,0,.47,1.68A1.93,1.93,0,0,0,538.48,1144.13Z" transform="translate(-530.58 -1090.03)"/><path class="cls-2" d="M539.93,1144.53c0.49-3.28,11.32-2.19,14-2.26q7.83-.21,15.65-0.29c4,0,13.57,1.8,13.38-4.74-0.09-3.22-5.13-10.76-8.92-10.12a2.45,2.45,0,0,0-2,3c0.52,3,4.48,4.24,5.1,7.59l0.69-1.69c-0.55.42-2.71-.07-3.3-0.12-1.85-.13-3.72-0.17-5.57-0.16-3.7,0-7.39.22-11.08,0.43s-7.4.43-11.1,0.45c-2.69,0-5.88-.7-8.49,0-6.32,1.64-4.36,13,1.28,8.56,1.52-1.19-.62-3.3-2.12-2.12,4.18-3.29,1-3.59,5.61-3.46q2.79,0.08,5.58,0c4-.09,8-0.37,12-0.58s8-.38,12-0.2c1.87,0.08,5,1.09,6.68-.2A1.6,1.6,0,0,0,580,1137a10.2,10.2,0,0,0-2.14-4.3c-0.39-.51-1.87-2.64-2.39-2.15s1.32,1.69,1.79,2.23c1.84,2.11,2.51,5.09-.82,6.2-1.2.4-3.7,0-4.89,0q-4.89,0-9.78.13c-6.18.11-12.41,0.12-18.58,0.51-3.43.22-5.62,0.51-6.17,4.12C536.75,1145.62,539.64,1146.44,539.93,1144.53Z" transform="translate(-530.58 -1090.03)"/></g><g id="_Group_4" data-name="&lt;Group&gt;"><path class="cls-1" d="M586.33,1096.91c0.6-1,1.17-1.93,2.16-2a24.12,24.12,0,0,1,2.5-.27l2.16,0a1.64,1.64,0,0,0,1.22-.31,1.68,1.68,0,0,0,.35-0.66,1.7,1.7,0,0,0-.05-1.71,1.6,1.6,0,0,0-1.17-.33q-3.4,0-6.8.21a3.27,3.27,0,0,0-1.5.36,2.32,2.32,0,0,0-1,1.75,13,13,0,0,1-.78,2.66c-0.48,1.14-1.64,2.31-1.47,3.16,0.25,1.27,1.09,1,2.12,1.76C584.08,1101.52,585.6,1098.13,586.33,1096.91Z" transform="translate(-530.58 -1090.03)"/><path class="cls-2" d="M587.63,1097.67c2.07-3.38,7.82.61,8.7-4.2,0.81-4.38-5.12-3.37-7.69-3.25-1.69.08-3.79-.06-5,1.37-1,1.17-.91,2.8-1.47,4.16s-2,2.71-1.65,4.42,1.61,1.94,2.81,2.65a1.51,1.51,0,0,0,2.05-.54c0.7-1.56,1.4-3.13,2.25-4.61a1.5,1.5,0,0,0-2.59-1.51c-0.84,1.49-1.55,3.05-2.25,4.61l2.05-.54c-1.14-.68-1.39-0.6-0.67-1.85a12.13,12.13,0,0,0,1.08-2.4c0.42-1.29.36-2.23,1.93-2.69a18.47,18.47,0,0,1,4.37-.17c0.9,0,2.86,0,.88,0a24,24,0,0,0-3.31.17,5,5,0,0,0-4.09,2.85C584,1097.8,586.62,1099.31,587.63,1097.67Z" transform="translate(-530.58 -1090.03)"/></g><g id="_Group_5" data-name="&lt;Group&gt;"><path class="cls-1" d="M549.55,1150.23a4.3,4.3,0,0,0,.73-4.12,4.19,4.19,0,0,0-3.17-2.67,2.5,2.5,0,0,0-1.15,0,2.67,2.67,0,0,0-.84.47,5.3,5.3,0,0,0-1.33,6.47,1.91,1.91,0,0,0,.57.7,2.3,2.3,0,0,0,.91.29,7.42,7.42,0,0,0,2.29.16,2.54,2.54,0,0,0,1.9-1.18" transform="translate(-530.58 -1090.03)"/><path class="cls-2" d="M550.85,1151a5.75,5.75,0,0,0-.75-7.7,4.65,4.65,0,0,0-7.19.86c-1.45,2.11-1.75,5.48-.05,7.57,1.9,2.34,6.29,1.68,7.91-.56,1.13-1.57-1.47-3.07-2.59-1.51-0.48.67-1.83,0.56-2.5,0.33a1.26,1.26,0,0,1-.9-1.2,3.91,3.91,0,0,1,.77-3.15c0.92-1.1,2.33-.67,3.06.46a2.89,2.89,0,0,1-.34,3.39c-1.15,1.56,1.46,3.05,2.59,1.51h0Z" transform="translate(-530.58 -1090.03)"/></g><g id="_Group_6" data-name="&lt;Group&gt;"><path class="cls-1" d="M572.82,1150.23a4.3,4.3,0,0,0,.73-4.12,4.19,4.19,0,0,0-3.17-2.67,2.5,2.5,0,0,0-1.15,0,2.67,2.67,0,0,0-.84.47,5.3,5.3,0,0,0-1.33,6.47,1.91,1.91,0,0,0,.57.7,2.3,2.3,0,0,0,.91.29,7.42,7.42,0,0,0,2.29.16,2.54,2.54,0,0,0,1.9-1.18" transform="translate(-530.58 -1090.03)"/><path class="cls-2" d="M574.12,1151a5.75,5.75,0,0,0-.75-7.7,4.65,4.65,0,0,0-7.19.86c-1.45,2.11-1.75,5.48-.05,7.57,1.9,2.34,6.29,1.68,7.91-.56,1.13-1.57-1.47-3.07-2.59-1.51-0.48.67-1.83,0.56-2.5,0.33a1.26,1.26,0,0,1-.9-1.2,3.91,3.91,0,0,1,.77-3.15c0.92-1.1,2.33-.67,3.06.46a2.89,2.89,0,0,1-.34,3.39c-1.15,1.56,1.46,3.05,2.59,1.51h0Z" transform="translate(-530.58 -1090.03)"/></g></g><g id="_Group_7" data-name="&lt;Group&gt;"><g id="_Group_8" data-name="&lt;Group&gt;"><path class="cls-1" d="M585.46,1097.11c-3.09,2.46-8,2.63-11.91,3-14.18,1.52-23.38,1.34-38.36,2.24-4.41.26-3.07,4.67-3,5.67,0.65,7.25,1.68,9.49,3.11,17.53,0.2,1.11.51,3.07,1.41,3.73a5.36,5.36,0,0,0,2.91.76c10,0.62,19.82.55,29.77,1.18,1.87,0.12,6.4,1.06,7.91-5.67,2.33-10.41,5.38-18.64,8.17-28.47v0Z" transform="translate(-530.58 -1090.03)"/></g><g id="_Group_9" data-name="&lt;Group&gt;"><path class="cls-1" d="M538.48,1144.13c0.33-.9-0.2-2,1-2.42a8.77,8.77,0,0,1,2.74-.57q17.6-.67,35.22-0.72a4.64,4.64,0,0,0,3.28-.85,3.13,3.13,0,0,0,.75-2.85,7.48,7.48,0,0,0-1.32-2.75,26,26,0,0,0-3.83-4.39,3.29,3.29,0,0,0-1.84-1,1.09,1.09,0,0,0-.57.09,1.17,1.17,0,0,0-.37,1.51,4,4,0,0,0,1.15,1.26,14.08,14.08,0,0,1,3.73,5,1.44,1.44,0,0,1,.17.91c-0.17.68-1.5,0.3-2.19,0.24-11.84-1.1-23.35,1.12-35.22.43-1.63-.09-3.51-0.13-4.58,1.12-0.85,1-.85,2.45-0.81,3.77a2.48,2.48,0,0,0,.47,1.68A1.93,1.93,0,0,0,538.48,1144.13Z" transform="translate(-530.58 -1090.03)"/></g><g id="_Group_10" data-name="&lt;Group&gt;"><path class="cls-1" d="M586.33,1096.91c0.6-1,1.17-1.93,2.16-2a24.12,24.12,0,0,1,2.5-.27l2.16,0a1.64,1.64,0,0,0,1.22-.31,1.68,1.68,0,0,0,.35-0.66,1.7,1.7,0,0,0-.05-1.71,1.6,1.6,0,0,0-1.17-.33q-3.4,0-6.8.21a3.27,3.27,0,0,0-1.5.36,2.32,2.32,0,0,0-1,1.75,13,13,0,0,1-.78,2.66c-0.48,1.14-1.64,2.31-1.47,3.16,0.25,1.27,1.09,1,2.12,1.76C584.08,1101.52,585.6,1098.13,586.33,1096.91Z" transform="translate(-530.58 -1090.03)"/></g><g id="_Group_11" data-name="&lt;Group&gt;"><path class="cls-1" d="M549.55,1150.23a4.3,4.3,0,0,0,.73-4.12,4.19,4.19,0,0,0-3.17-2.67,2.5,2.5,0,0,0-1.15,0,2.67,2.67,0,0,0-.84.47,5.3,5.3,0,0,0-1.33,6.47,1.91,1.91,0,0,0,.57.7,2.3,2.3,0,0,0,.91.29,7.42,7.42,0,0,0,2.29.16,2.54,2.54,0,0,0,1.9-1.18" transform="translate(-530.58 -1090.03)"/></g><g id="_Group_12" data-name="&lt;Group&gt;"><path class="cls-1" d="M572.82,1150.23a4.3,4.3,0,0,0,.73-4.12,4.19,4.19,0,0,0-3.17-2.67,2.5,2.5,0,0,0-1.15,0,2.67,2.67,0,0,0-.84.47,5.3,5.3,0,0,0-1.33,6.47,1.91,1.91,0,0,0,.57.7,2.3,2.3,0,0,0,.91.29,7.42,7.42,0,0,0,2.29.16,2.54,2.54,0,0,0,1.9-1.18" transform="translate(-530.58 -1090.03)"/></g></g></svg>