<svg id="Layer_1" data-name="Layer 1" xmlns="http://www.w3.org/2000/svg" viewBox="0 0 82.62 21.92"><defs><style>.cls-1,.cls-4{fill:#fff5d9;}.cls-1{opacity:0.46;}.cls-2{opacity:0.41;}.cls-3{fill:#091f2c;}</style></defs><title>cart_lifes</title><g id="_Group_" data-name="&lt;Group&gt;"><g id="_Group_2" data-name="&lt;Group&gt;"><circle id="_Path_" data-name="&lt;Path&gt;" class="cls-1" cx="71.66" cy="10.96" r="10.96"/><g id="_Group_3" data-name="&lt;Group&gt;" class="cls-2"><g id="_Group_4" data-name="&lt;Group&gt;"><path class="cls-3" d="M1040.07,1130.81a5.1,5.1,0,0,1-2.52.62c-3,.31-4.94.27-8.1,0.46-0.93.05-.65,1-0.63,1.16a33.39,33.39,0,0,0,.66,3.58,1.34,1.34,0,0,0,.3.76,1.16,1.16,0,0,0,.62.15c2.1,0.13,4.19.11,6.29,0.24a1.32,1.32,0,0,0,1.67-1.16c0.49-2.13,1.14-3.81,1.72-5.82h0Z" transform="translate(-963.76 -1124.86)"/></g><g id="_Group_5" data-name="&lt;Group&gt;"><path class="cls-3" d="M1030.15,1140.42c0.07-.18,0-0.4.21-0.49a1.91,1.91,0,0,1,.58-0.12q3.72-.14,7.44-0.15a1,1,0,0,0,.69-0.17,0.63,0.63,0,0,0,.16-0.58,1.51,1.51,0,0,0-.28-0.56,5.38,5.38,0,0,0-.81-0.9,0.7,0.7,0,0,0-.39-0.21,0.24,0.24,0,0,0-.12,0,0.23,0.23,0,0,0-.08.31,0.82,0.82,0,0,0,.24.26,2.89,2.89,0,0,1,.79,1,0.29,0.29,0,0,1,0,.19c0,0.14-.32.06-0.46,0-2.5-.22-4.93.23-7.44,0.09a1.17,1.17,0,0,0-1,.23,1.08,1.08,0,0,0-.17.77,0.49,0.49,0,0,0,.1.34A0.42,0.42,0,0,0,1030.15,1140.42Z" transform="translate(-963.76 -1124.86)"/></g><g id="_Group_6" data-name="&lt;Group&gt;"><path class="cls-3" d="M1040.26,1130.77a0.68,0.68,0,0,1,.46-0.41,5.26,5.26,0,0,1,.53-0.06h0.46a0.36,0.36,0,0,0,.26-0.06,0.49,0.49,0,0,0,.06-0.49,0.34,0.34,0,0,0-.25-0.07q-0.72,0-1.44,0a0.71,0.71,0,0,0-.32.07,0.47,0.47,0,0,0-.21.36,2.59,2.59,0,0,1-.16.54,1.76,1.76,0,0,0-.31.65,0.63,0.63,0,0,0,.45.36S1040.11,1131,1040.26,1130.77Z" transform="translate(-963.76 -1124.86)"/></g><g id="_Group_7" data-name="&lt;Group&gt;"><path class="cls-3" d="M1032.49,1141.67a0.86,0.86,0,0,0,.15-0.84,0.88,0.88,0,0,0-.67-0.55,0.54,0.54,0,0,0-.24,0,0.57,0.57,0,0,0-.18.1,1.06,1.06,0,0,0-.28,1.32,0.39,0.39,0,0,0,.12.14,0.5,0.5,0,0,0,.19.06,1.62,1.62,0,0,0,.48,0,0.54,0.54,0,0,0,.4-0.24" transform="translate(-963.76 -1124.86)"/></g><g id="_Group_8" data-name="&lt;Group&gt;"><path class="cls-3" d="M1037.41,1141.67a0.86,0.86,0,0,0,.15-0.84,0.88,0.88,0,0,0-.67-0.55,0.54,0.54,0,0,0-.24,0,0.57,0.57,0,0,0-.18.1,1.06,1.06,0,0,0-.28,1.32,0.39,0.39,0,0,0,.12.14,0.5,0.5,0,0,0,.19.06,1.62,1.62,0,0,0,.48,0,0.54,0.54,0,0,0,.4-0.24" transform="translate(-963.76 -1124.86)"/></g></g></g><g id="_Group_9" data-name="&lt;Group&gt;"><circle id="_Path_2" data-name="&lt;Path&gt;" class="cls-4" cx="10.96" cy="10.96" r="10.96"/><g id="_Group_10" data-name="&lt;Group&gt;"><g id="_Group_11" data-name="&lt;Group&gt;"><path class="cls-3" d="M979.37,1130.81a5.1,5.1,0,0,1-2.52.62c-3,.31-4.94.27-8.1,0.46-0.93.05-.65,1-0.63,1.16a33.39,33.39,0,0,0,.66,3.58,1.34,1.34,0,0,0,.3.76,1.16,1.16,0,0,0,.62.15c2.1,0.13,4.19.11,6.29,0.24a1.32,1.32,0,0,0,1.67-1.16c0.49-2.13,1.14-3.81,1.72-5.82h0Z" transform="translate(-963.76 -1124.86)"/></g><g id="_Group_12" data-name="&lt;Group&gt;"><path class="cls-3" d="M969.45,1140.42c0.07-.18,0-0.4.21-0.49a1.91,1.91,0,0,1,.58-0.12q3.72-.14,7.44-0.15a1,1,0,0,0,.69-0.17,0.63,0.63,0,0,0,.16-0.58,1.51,1.51,0,0,0-.28-0.56,5.38,5.38,0,0,0-.81-0.9,0.7,0.7,0,0,0-.39-0.21,0.24,0.24,0,0,0-.12,0,0.23,0.23,0,0,0-.08.31,0.82,0.82,0,0,0,.24.26,2.89,2.89,0,0,1,.79,1,0.29,0.29,0,0,1,0,.19c0,0.14-.32.06-0.46,0-2.5-.22-4.93.23-7.44,0.09a1.17,1.17,0,0,0-1,.23,1.08,1.08,0,0,0-.17.77,0.49,0.49,0,0,0,.1.34A0.42,0.42,0,0,0,969.45,1140.42Z" transform="translate(-963.76 -1124.86)"/></g><g id="_Group_13" data-name="&lt;Group&gt;"><path class="cls-3" d="M979.56,1130.77a0.68,0.68,0,0,1,.46-0.41,5.26,5.26,0,0,1,.53-0.06H981a0.36,0.36,0,0,0,.26-0.06,0.49,0.49,0,0,0,.06-0.49,0.34,0.34,0,0,0-.25-0.07q-0.72,0-1.44,0a0.71,0.71,0,0,0-.32.07,0.47,0.47,0,0,0-.21.36,2.59,2.59,0,0,1-.16.54,1.76,1.76,0,0,0-.31.65,0.63,0.63,0,0,0,.45.36S979.4,1131,979.56,1130.77Z" transform="translate(-963.76 -1124.86)"/></g><g id="_Group_14" data-name="&lt;Group&gt;"><path class="cls-3" d="M971.79,1141.67a0.86,0.86,0,0,0,.15-0.84,0.88,0.88,0,0,0-.67-0.55,0.54,0.54,0,0,0-.24,0,0.57,0.57,0,0,0-.18.1,1.06,1.06,0,0,0-.28,1.32,0.39,0.39,0,0,0,.12.14,0.5,0.5,0,0,0,.19.06,1.62,1.62,0,0,0,.48,0,0.54,0.54,0,0,0,.4-0.24" transform="translate(-963.76 -1124.86)"/></g><g id="_Group_15" data-name="&lt;Group&gt;"><path class="cls-3" d="M976.7,1141.67a0.86,0.86,0,0,0,.15-0.84,0.88,0.88,0,0,0-.67-0.55,0.54,0.54,0,0,0-.24,0,0.57,0.57,0,0,0-.18.1,1.06,1.06,0,0,0-.28,1.32,0.39,0.39,0,0,0,.12.14,0.5,0.5,0,0,0,.19.06,1.62,1.62,0,0,0,.48,0,0.54,0.54,0,0,0,.4-0.24" transform="translate(-963.76 -1124.86)"/></g></g></g><g id="_Group_16" data-name="&lt;Group&gt;"><circle id="_Path_3" data-name="&lt;Path&gt;" class="cls-4" cx="41.31" cy="10.96" r="10.96"/><g id="_Group_17" data-name="&lt;Group&gt;"><g id="_Group_18" data-name="&lt;Group&gt;"><path class="cls-3" d="M1009.72,1130.81a5.1,5.1,0,0,1-2.52.62c-3,.31-4.94.27-8.1,0.46-0.93.05-.65,1-0.63,1.16a33.39,33.39,0,0,0,.66,3.58,1.34,1.34,0,0,0,.3.76,1.16,1.16,0,0,0,.62.15c2.1,0.13,4.19.11,6.29,0.24a1.32,1.32,0,0,0,1.67-1.16c0.49-2.13,1.14-3.81,1.72-5.82h0Z" transform="translate(-963.76 -1124.86)"/></g><g id="_Group_19" data-name="&lt;Group&gt;"><path class="cls-3" d="M999.8,1140.42c0.07-.18,0-0.4.21-0.49a1.91,1.91,0,0,1,.58-0.12q3.72-.14,7.44-0.15a1,1,0,0,0,.69-0.17,0.63,0.63,0,0,0,.16-0.58,1.51,1.51,0,0,0-.28-0.56,5.38,5.38,0,0,0-.81-0.9,0.7,0.7,0,0,0-.39-0.21,0.24,0.24,0,0,0-.12,0,0.23,0.23,0,0,0-.08.31,0.82,0.82,0,0,0,.24.26,2.89,2.89,0,0,1,.79,1,0.29,0.29,0,0,1,0,.19c0,0.14-.32.06-0.46,0-2.5-.22-4.93.23-7.44,0.09a1.17,1.17,0,0,0-1,.23,1.08,1.08,0,0,0-.17.77,0.49,0.49,0,0,0,.1.34A0.42,0.42,0,0,0,999.8,1140.42Z" transform="translate(-963.76 -1124.86)"/></g><g id="_Group_20" data-name="&lt;Group&gt;"><path class="cls-3" d="M1009.91,1130.77a0.68,0.68,0,0,1,.46-0.41,5.26,5.26,0,0,1,.53-0.06h0.46a0.36,0.36,0,0,0,.26-0.06,0.49,0.49,0,0,0,.06-0.49,0.34,0.34,0,0,0-.25-0.07q-0.72,0-1.44,0a0.71,0.71,0,0,0-.32.07,0.47,0.47,0,0,0-.21.36,2.59,2.59,0,0,1-.16.54,1.76,1.76,0,0,0-.31.65,0.63,0.63,0,0,0,.45.36S1009.75,1131,1009.91,1130.77Z" transform="translate(-963.76 -1124.86)"/></g><g id="_Group_21" data-name="&lt;Group&gt;"><path class="cls-3" d="M1002.14,1141.67a0.86,0.86,0,0,0,.15-0.84,0.88,0.88,0,0,0-.67-0.55,0.54,0.54,0,0,0-.24,0,0.57,0.57,0,0,0-.18.1,1.06,1.06,0,0,0-.28,1.32,0.39,0.39,0,0,0,.12.14,0.5,0.5,0,0,0,.19.06,1.62,1.62,0,0,0,.48,0,0.54,0.54,0,0,0,.4-0.24" transform="translate(-963.76 -1124.86)"/></g><g id="_Group_22" data-name="&lt;Group&gt;"><path class="cls-3" d="M1007.05,1141.67a0.86,0.86,0,0,0,.15-0.84,0.88,0.88,0,0,0-.67-0.55,0.54,0.54,0,0,0-.24,0,0.57,0.57,0,0,0-.18.1,1.06,1.06,0,0,0-.28,1.32,0.39,0.39,0,0,0,.12.14,0.5,0.5,0,0,0,.19.06,1.62,1.62,0,0,0,.48,0,0.54,0.54,0,0,0,.4-0.24" transform="translate(-963.76 -1124.86)"/></g></g></g><g id="_Group_23" data-name="&lt;Group&gt;"><circle id="_Path_4" data-name="&lt;Path&gt;" class="cls-4" cx="71.66" cy="10.96" r="10.96"/><g id="_Group_24" data-name="&lt;Group&gt;"><g id="_Group_25" data-name="&lt;Group&gt;"><path class="cls-3" d="M1040.07,1130.81a5.1,5.1,0,0,1-2.52.62c-3,.31-4.94.27-8.1,0.46-0.93.05-.65,1-0.63,1.16a33.39,33.39,0,0,0,.66,3.58,1.34,1.34,0,0,0,.3.76,1.16,1.16,0,0,0,.62.15c2.1,0.13,4.19.11,6.29,0.24a1.32,1.32,0,0,0,1.67-1.16c0.49-2.13,1.14-3.81,1.72-5.82h0Z" transform="translate(-963.76 -1124.86)"/></g><g id="_Group_26" data-name="&lt;Group&gt;"><path class="cls-3" d="M1030.15,1140.42c0.07-.18,0-0.4.21-0.49a1.91,1.91,0,0,1,.58-0.12q3.72-.14,7.44-0.15a1,1,0,0,0,.69-0.17,0.63,0.63,0,0,0,.16-0.58,1.51,1.51,0,0,0-.28-0.56,5.38,5.38,0,0,0-.81-0.9,0.7,0.7,0,0,0-.39-0.21,0.24,0.24,0,0,0-.12,0,0.23,0.23,0,0,0-.08.31,0.82,0.82,0,0,0,.24.26,2.89,2.89,0,0,1,.79,1,0.29,0.29,0,0,1,0,.19c0,0.14-.32.06-0.46,0-2.5-.22-4.93.23-7.44,0.09a1.17,1.17,0,0,0-1,.23,1.08,1.08,0,0,0-.17.77,0.49,0.49,0,0,0,.1.34A0.42,0.42,0,0,0,1030.15,1140.42Z" transform="translate(-963.76 -1124.86)"/></g><g id="_Group_27" data-name="&lt;Group&gt;"><path class="cls-3" d="M1040.26,1130.77a0.68,0.68,0,0,1,.46-0.41,5.26,5.26,0,0,1,.53-0.06h0.46a0.36,0.36,0,0,0,.26-0.06,0.49,0.49,0,0,0,.06-0.49,0.34,0.34,0,0,0-.25-0.07q-0.72,0-1.44,0a0.71,0.71,0,0,0-.32.07,0.47,0.47,0,0,0-.21.36,2.59,2.59,0,0,1-.16.54,1.76,1.76,0,0,0-.31.65,0.63,0.63,0,0,0,.45.36S1040.11,1131,1040.26,1130.77Z" transform="translate(-963.76 -1124.86)"/></g><g id="_Group_28" data-name="&lt;Group&gt;"><path class="cls-3" d="M1032.49,1141.67a0.86,0.86,0,0,0,.15-0.84,0.88,0.88,0,0,0-.67-0.55,0.54,0.54,0,0,0-.24,0,0.57,0.57,0,0,0-.18.1,1.06,1.06,0,0,0-.28,1.32,0.39,0.39,0,0,0,.12.14,0.5,0.5,0,0,0,.19.06,1.62,1.62,0,0,0,.48,0,0.54,0.54,0,0,0,.4-0.24" transform="translate(-963.76 -1124.86)"/></g><g id="_Group_29" data-name="&lt;Group&gt;"><path class="cls-3" d="M1037.41,1141.67a0.86,0.86,0,0,0,.15-0.84,0.88,0.88,0,0,0-.67-0.55,0.54,0.54,0,0,0-.24,0,0.57,0.57,0,0,0-.18.1,1.06,1.06,0,0,0-.28,1.32,0.39,0.39,0,0,0,.12.14,0.5,0.5,0,0,0,.19.06,1.62,1.62,0,0,0,.48,0,0.54,0.54,0,0,0,.4-0.24" transform="translate(-963.76 -1124.86)"/></g></g></g></g></svg>