<?xml version="1.0" encoding="utf-8"?>
<!-- Generator: Adobe Illustrator 19.0.0, SVG Export Plug-In . SVG Version: 6.00 Build 0)  -->
<svg version="1.1" id="Layer_1" xmlns="http://www.w3.org/2000/svg" xmlns:xlink="http://www.w3.org/1999/xlink" x="0px" y="0px"
	 viewBox="0 0 50.8 50.8" style="enable-background:new 0 0 50.8 50.8;" xml:space="preserve">
<style type="text/css">
	.st0{fill:#FDBF45;}
	.st1{fill:#081E2C;}
</style>
<circle id="XMLID_434_" class="st0" cx="25.4" cy="25.4" r="25.4"/>
<g id="XMLID_428_">
	<g id="XMLID_433_">
		<path id="XMLID_17_" class="st1" d="M39.6,13.5c-1.7,1.4-4.4,1.5-6.6,1.7c-7.9,0.8-13,0.7-21.3,1.2c-2.4,0.1-1.7,2.6-1.7,3.1
			c0.4,4,0.9,5.3,1.7,9.7c0.1,0.6,0.3,1.7,0.8,2.1c0.5,0.3,1.1,0.4,1.6,0.4c5.5,0.3,11,0.3,16.5,0.7c1,0.1,3.5,0.6,4.4-3.1
			C36.4,23.5,38.1,19,39.6,13.5L39.6,13.5z"/>
	</g>
	<g id="XMLID_432_">
		<path id="XMLID_15_" class="st1" d="M13.6,39.6c0.2-0.5-0.1-1.1,0.6-1.3c0.5-0.2,1-0.3,1.5-0.3c6.5-0.2,13-0.4,19.5-0.4
			c0.6,0,1.4,0,1.8-0.5c0.4-0.4,0.5-1,0.4-1.6c-0.1-0.6-0.4-1.1-0.7-1.5c-0.6-0.9-1.3-1.7-2.1-2.4c-0.3-0.3-0.6-0.5-1-0.6
			c-0.1,0-0.2,0-0.3,0c-0.3,0.1-0.3,0.5-0.2,0.8c0.1,0.3,0.4,0.5,0.6,0.7c0.9,0.8,1.6,1.7,2.1,2.8c0.1,0.2,0.1,0.3,0.1,0.5
			C35.7,36.2,35,36,34.6,36c-6.6-0.6-13,0.6-19.5,0.2c-0.9-0.1-1.9-0.1-2.5,0.6c-0.5,0.6-0.5,1.4-0.4,2.1c0,0.3,0,0.7,0.3,0.9
			C12.6,40.1,13.5,39.9,13.6,39.6z"/>
	</g>
	<g id="XMLID_431_">
		<path id="XMLID_13_" class="st1" d="M40.1,13.4c0.3-0.6,0.6-1.1,1.2-1.1c0.5,0,0.9-0.2,1.4-0.2c0.4,0,0.8,0,1.2,0
			c0.2,0,0.5,0,0.7-0.2c0.1-0.1,0.1-0.2,0.2-0.4c0.1-0.3,0.2-0.7,0-0.9c-0.2-0.2-0.4-0.2-0.7-0.2c-1.3,0-2.5,0-3.8,0.1
			c-0.3,0-0.6,0-0.8,0.2c-0.3,0.2-0.5,0.6-0.5,1c0,0.4-0.3,1.1-0.4,1.5c-0.3,0.6-0.9,1.3-0.8,1.8c0.1,0.7,0.6,0.6,1.2,1
			C38.9,16,39.7,14.1,40.1,13.4z"/>
	</g>
	<g id="XMLID_430_">
		<path id="XMLID_11_" class="st1" d="M19.7,43c0.5-0.6,0.7-1.5,0.4-2.3c-0.3-0.8-1-1.3-1.8-1.5c-0.2,0-0.4,0-0.6,0
			c-0.2,0.1-0.3,0.1-0.5,0.3c-1,0.8-1.4,2.4-0.7,3.6c0.1,0.1,0.2,0.3,0.3,0.4c0.2,0.1,0.3,0.1,0.5,0.2c0.4,0.1,0.8,0.1,1.3,0.1
			C19,43.7,19.5,43.4,19.7,43"/>
	</g>
	<g id="XMLID_429_">
		<path id="XMLID_9_" class="st1" d="M32.6,43c0.5-0.6,0.7-1.5,0.4-2.3c-0.3-0.8-1-1.3-1.8-1.5c-0.2,0-0.4,0-0.6,0
			c-0.2,0.1-0.3,0.1-0.5,0.3c-1,0.8-1.4,2.4-0.7,3.6c0.1,0.1,0.2,0.3,0.3,0.4c0.1,0.1,0.3,0.1,0.5,0.2c0.4,0.1,0.8,0.1,1.3,0.1
			C31.9,43.7,32.4,43.4,32.6,43"/>
	</g>
</g>
</svg>
