<?xml version="1.0" encoding="utf-8"?>
<!-- Generator: Adobe Illustrator 19.0.0, SVG Export Plug-In . SVG Version: 6.00 Build 0)  -->
<svg version="1.1" id="Layer_1" xmlns="http://www.w3.org/2000/svg" xmlns:xlink="http://www.w3.org/1999/xlink" x="0px" y="0px"
	 viewBox="0 0 41.9 39.7" style="enable-background:new 0 0 41.9 39.7;" xml:space="preserve">
<style type="text/css">
	.st0{fill:#BBBCBF;}
	.st1{fill:#F1F1F2;}
	.st2{fill:#BBBDBF;}
	.st3{fill:#F1F1F1;}
	.st4{fill:#929497;}
	.st5{fill:#929496;}
	.st6{fill:#8DC440;}
	.st7{fill:none;stroke:#FFFFFF;stroke-width:0.8;stroke-miterlimit:10;}
</style>
<g id="XMLID_110_">
	<g id="XMLID_111_">
		<path id="XMLID_112_" class="st0" d="M3.5,24.4c0.4,4.2,0,8.4,0,12.6c0,0.2,0.3,0.2,0.3,0c0-4.2,0.5-8.5,0-12.6
			C3.7,24.3,3.5,24.3,3.5,24.4L3.5,24.4z"/>
	</g>
	<g id="XMLID_113_">
		<path id="XMLID_114_" class="st0" d="M10.6,24.5c0.1,2.2-0.1,4.4-0.1,6.7c0,0.2,0.3,0.2,0.3,0c0-2.2,0.2-4.4,0.1-6.7
			C10.8,24.3,10.5,24.3,10.6,24.5L10.6,24.5z"/>
	</g>
	<path id="XMLID_115_" class="st1" d="M12.3,5.8c0,2.9-2.6,5.2-5.1,5.2c-2.5,0-5.1-2.3-5.1-5.2c0-2.9,2.3-5.2,5.1-5.2
		C10.1,0.6,12.3,2.9,12.3,5.8z"/>
	<rect id="XMLID_116_" x="6.4" y="10.5" class="st1" width="2" height="2"/>
	<path id="XMLID_117_" class="st1" d="M7.2,11.5L7.2,11.5c-3.9,0-5.9,2-5.9,5.9l-1.1,8.8v0.7v0.4c0,0.5,0,0.9,0.5,0.9
		s1.5-0.4,1.5-0.9v-0.8h0.2l0.6-5l0.3-4.4c0-2.6,1.4-2.6,3.9-2.6l0,0.1c2.6,0,3.9-0.1,3.9,2.4l0.9,9.5h0.3v0.8c0,0.5,0.5,0.9,1,0.9
		c0.5,0,1-0.4,1-0.9v-0.4l0-0.7l-1.3-8.8C12.9,13.6,11,11.5,7.2,11.5z"/>
	<path id="XMLID_118_" class="st2" d="M3.7,21.5l0,15.4l2.2,0.1c0,0,0.6-10.9,1.3-10.9c0.8,0,1.4,11.4,1.4,11.4h2.2l0-16H3.7z"/>
	<g id="XMLID_119_">
		<path id="XMLID_120_" class="st3" d="M2,6.4c0.4,2.6,2.6,4.6,5.2,4.7c0.2,0,0.2-0.3,0-0.3c-2.5-0.1-4.6-2-5-4.5
			C2.3,6.2,2,6.3,2,6.4L2,6.4z"/>
	</g>
	<g id="XMLID_121_">
		<path id="XMLID_122_" class="st3" d="M6.1,10.9c0.1,0.4,0.1,0.7,0.2,1.1c0,0.2,0.3,0.1,0.3-0.1c-0.1-0.4-0.1-0.7-0.2-1.1
			C6.3,10.7,6.1,10.8,6.1,10.9L6.1,10.9z"/>
	</g>
	<g id="XMLID_123_">
		<path id="XMLID_124_" class="st3" d="M6.3,11.7c-0.2,0-0.5,0-0.7,0.1c-0.2,0.1,0,0.3,0.1,0.2c0.2-0.1,0.4,0,0.6-0.1
			C6.5,11.9,6.5,11.6,6.3,11.7L6.3,11.7z"/>
	</g>
	<g id="XMLID_125_">
		<path id="XMLID_126_" class="st3" d="M8.2,10.8c0,0.4,0,0.7,0,1.1c0,0.2,0.3,0.2,0.3,0c0-0.4,0-0.7,0-1.1
			C8.6,10.6,8.3,10.6,8.2,10.8L8.2,10.8z"/>
	</g>
	<g id="XMLID_127_">
		<path id="XMLID_128_" class="st3" d="M12.1,5.4c0,0.4,0,0.9,0,1.3c0,0.8-0.5,1.3-0.9,1.9c-0.7,1-1.7,1.8-2.9,2
			c-0.2,0-0.1,0.3,0.1,0.3c1.2-0.2,2.2-1,2.9-1.9c0.9-1.2,1.1-2.1,1.1-3.6C12.4,5.2,12.1,5.2,12.1,5.4L12.1,5.4z"/>
	</g>
	<path id="XMLID_129_" class="st2" d="M12.2,5.4c0,0-2.1-1.6-2.4-3.4c0,0-2.2,1.1-4,1.8C4.1,4.5,2.1,6.3,2.1,6.3S1.3,3.4,3.8,1.5
		c2.5-1.9,5-1.4,6.2-0.6C11.2,1.8,12.3,3.8,12.2,5.4z"/>
	<g id="XMLID_130_">
		<path id="XMLID_131_" class="st0" d="M9.8,2c0.2,1.5,1.2,2.8,2.4,3.5c0.1,0.1,0.2,0,0.2-0.1c0-1.7-0.7-3.2-2-4.4
			C8.9-0.3,7.4-0.1,5.6,0.4c-0.2,0-0.1,0.3,0.1,0.3c1-0.3,1.8-0.6,2.8-0.3c1.2,0.2,2.2,1.2,2.8,2.1c0.3,0.4,0.5,0.9,0.7,1.4
			C12,3.9,12,5.1,12,5.1c-1-0.6-1.8-1.9-2-3.1C10,1.8,9.7,1.8,9.8,2L9.8,2z"/>
	</g>
	<g id="XMLID_132_">
		<path id="XMLID_133_" class="st0" d="M2.2,6.4c0.3-0.5,1-0.7,1.5-1c0.5-0.4,1.4-0.8,2-1.1C6.3,3.8,7,3.7,7.6,3.3
			C8.3,3,9,2.6,9.8,2.3C9.9,2.2,9.9,2,9.7,2c-0.6,0.2-1,0.4-1.5,0.7C7.3,3.2,6.4,3.4,5.5,3.9C4.8,4.3,4,4.6,3.5,5.1
			C3,5.6,2.4,5.6,2,6.2C1.9,6.4,2.1,6.5,2.2,6.4L2.2,6.4z"/>
	</g>
	<g id="XMLID_134_">
		<path id="XMLID_135_" class="st0" d="M2.1,6.4C2,3.8,3.3,1.6,5.7,0.6c0.2-0.1,0.1-0.3-0.1-0.3c-2.6,1-3.9,3.3-3.8,6
			C1.9,6.5,2.1,6.5,2.1,6.4L2.1,6.4z"/>
	</g>
	<path id="XMLID_136_" class="st4" d="M7.2,13.9c0,0-1.5-2-1.6-2c-2.3,0.4-3.8,1.7-4.2,4c-0.1,0.5-1.3,9.7-1.3,9.7l2.4,0.2l1.1-7.8
		l0,6.2l7.1,0.2l0.2-6.2l1,7.7l2.3,0c0,0-1.4-9.9-1.6-10.6c-0.6-1.8-1.8-3-3.8-3.3L7.2,13.9z"/>
	<g id="XMLID_137_">
		<path id="XMLID_138_" class="st5" d="M5.5,11.8c0.1,0.3,0.3,0.6,0.5,0.8c0.4,0.4,0.7,0.9,1,1.4c0.1,0.1,0.3,0,0.2-0.1
			c-0.3-0.4-0.6-0.8-0.8-1.1c-0.2-0.3-0.6-0.6-0.7-1C5.8,11.6,5.5,11.7,5.5,11.8L5.5,11.8z"/>
	</g>
	<g id="XMLID_139_">
		<path id="XMLID_140_" class="st5" d="M8.7,11.7c-0.5,0.7-1,1.5-1.5,2.2C7.1,14,7.3,14.1,7.4,14c0.5-0.7,1-1.3,1.5-2
			c0.1-0.1-0.1-0.3-0.2-0.1L8.7,11.7z"/>
	</g>
	<g id="XMLID_141_">
		<path id="XMLID_142_" class="st5" d="M3.6,24.4c1-0.2,2.3,0,3.4,0.1c1.2,0,2.4,0.1,3.7,0.1c0.2,0,0.2-0.3,0-0.3
			c-1.2,0-2.4,0-3.7-0.1c-1.1-0.1-2.4-0.3-3.4-0.1C3.4,24.1,3.5,24.4,3.6,24.4L3.6,24.4z"/>
	</g>
	<g id="XMLID_143_">
		<path id="XMLID_144_" class="st5" d="M10.7,18.3c0.2,2-0.1,4.1-0.1,6.1c0,0.2,0.3,0.2,0.3,0c0-2,0.3-4.1,0.1-6.1
			C11,18.1,10.7,18.1,10.7,18.3L10.7,18.3z"/>
	</g>
	<g id="XMLID_145_">
		<path id="XMLID_146_" class="st5" d="M3.6,24.3c0.1-1,0-1.9,0.1-2.9c0-1.1,0.2-2.2,0.2-3.3c0-0.2-0.3-0.2-0.3,0
			c0,1-0.2,1.9-0.2,2.9c0,1.1,0.1,2.2-0.1,3.3C3.3,24.5,3.6,24.5,3.6,24.3L3.6,24.3z"/>
	</g>
	<g id="XMLID_147_">
		<path id="XMLID_148_" class="st5" d="M11.9,26c0.8,0,1.5,0,2.3,0c0.2,0,0.2-0.3,0-0.3c-0.8,0-1.5,0-2.3,0
			C11.7,25.7,11.7,26,11.9,26L11.9,26z"/>
	</g>
	<g id="XMLID_149_">
		<path id="XMLID_150_" class="st5" d="M12,25.7c-0.2-1.6-0.4-3.2-0.3-4.8c0-0.2-0.3-0.2-0.3,0c0,1.6,0.1,3.3,0.3,4.9
			C11.8,26,12,25.9,12,25.7L12,25.7z"/>
	</g>
	<g id="XMLID_151_">
		<path id="XMLID_152_" class="st5" d="M0.1,25.9c0.8,0.1,1.6,0,2.4,0.1c0.2,0,0.2-0.3,0-0.3c-0.8-0.1-1.6,0-2.4-0.1
			C0,25.6,0,25.9,0.1,25.9L0.1,25.9z"/>
	</g>
	<g id="XMLID_153_">
		<path id="XMLID_154_" class="st5" d="M0.3,25.8c0-2.1,0.7-4.2,0.9-6.3c0-0.2-0.3-0.2-0.3,0C0.7,21.6,0,23.7,0,25.8
			C0,25.9,0.3,25.9,0.3,25.8L0.3,25.8z"/>
	</g>
	<g id="XMLID_155_">
		<path id="XMLID_156_" class="st5" d="M2.6,25.9c0.1-0.3,0.1-0.6,0-0.9c0-0.4,0-0.8,0-1.2c0-0.2-0.3-0.2-0.3,0c0,0.4,0,0.7,0,1.1
			c0,0.3,0.1,0.7,0,1C2.3,26,2.6,26.1,2.6,25.9L2.6,25.9z"/>
	</g>
	<g id="XMLID_157_">
		<path id="XMLID_158_" class="st5" d="M8.8,11.9c2.6,0.3,3.8,2.7,4.1,5c0.3,2.2,0.5,4.4,0.7,6.6c0,0.2,0.3,0.2,0.3,0
			c-0.3-2.7-0.4-5.5-1-8.2c-0.4-1.9-2.3-3.5-4.1-3.8C8.6,11.6,8.6,11.9,8.8,11.9L8.8,11.9z"/>
	</g>
	<g id="XMLID_159_">
		<path id="XMLID_160_" class="st5" d="M5.5,11.7c-1.8,0.4-2.8,1.2-3.6,2.6C1,16,1.2,18.1,0.9,20c0,0.2,0.2,0.3,0.3,0.1
			c0.2-1.5,0.3-3,0.6-4.5c0.5-2,2-2.9,3.8-3.6C5.8,11.9,5.7,11.6,5.5,11.7L5.5,11.7z"/>
	</g>
	<g id="XMLID_161_">
		<path id="XMLID_162_" class="st0" d="M3.6,37.3c0.4-0.1,0.8,0,1.2,0c0.3,0,0.7,0,1-0.1c0.2,0,0.1-0.3-0.1-0.3
			C5,37,4.3,36.9,3.5,37C3.4,37,3.4,37.3,3.6,37.3L3.6,37.3z"/>
	</g>
	<g id="XMLID_163_">
		<path id="XMLID_164_" class="st0" d="M5.9,37c0.2-1.4,0.1-2.9,0.3-4.3c0.2-1.5,0.4-3,0.5-4.5c0-0.2-0.3-0.2-0.3,0
			c0,1.3-0.3,2.6-0.4,3.9c-0.1,1.6-0.2,3.2-0.3,4.8C5.6,37.2,5.9,37.2,5.9,37L5.9,37z"/>
	</g>
	<g id="XMLID_165_">
		<path id="XMLID_166_" class="st0" d="M8.6,37c-0.2-1.2-0.2-2.4,0-3.6c0-0.2-0.3-0.2-0.3,0c0,0.1,0,0.1,0,0.2c0,0.2,0.3,0.2,0.3,0
			c0-0.1,0-0.1,0-0.2c-0.1,0-0.2,0-0.3,0c-0.1,1.2-0.1,2.4,0.1,3.7C8.4,37.2,8.6,37.2,8.6,37L8.6,37z"/>
	</g>
	<g id="XMLID_167_">
		<path id="XMLID_168_" class="st0" d="M7,26c0.9,1.2,1,3.6,1,5.1c0.1,1.6,0.1,3.3,0.2,4.9c0,0.2,0.3,0.2,0.3,0
			c-0.1-2-0.1-4-0.3-5.9c-0.1-1.3-0.2-3.1-1-4.2C7.1,25.8,6.9,25.9,7,26L7,26z"/>
	</g>
	<g id="XMLID_169_">
		<path id="XMLID_170_" class="st0" d="M6.6,29.2c0.1-0.4,0.1-0.9,0.1-1.3c0-0.3,0-0.6,0.1-0.8c0-0.2,0.1-0.8,0.4-0.6
			c0.1,0.1,0.3-0.1,0.2-0.2C7.3,26.2,7.2,26,7,26.1c-0.2,0.1-0.4,0.6-0.4,0.8c-0.2,0.7-0.1,1.5-0.2,2.2C6.3,29.3,6.6,29.4,6.6,29.2
			L6.6,29.2z"/>
	</g>
	<g id="XMLID_171_">
		<path id="XMLID_172_" class="st0" d="M9.3,37.3c0.4,0,1.5,0.3,1.5-0.3c-0.1-1.6-0.1-3.2-0.1-4.7c0-0.2-0.3-0.2-0.3,0
			c0,1.1,0,2.1,0,3.2c0,0.4,0,0.8,0,1.2c0,0.6-0.8,0.4-1.2,0.3C9.2,37,9.2,37.3,9.3,37.3L9.3,37.3z"/>
	</g>
	<path id="XMLID_173_" class="st4" d="M3.6,37.4c0,0-1,0.2-1.5,0.3c-0.5,0.1-0.8,0.8,0.1,0.8c0.9,0,3.5,0,3.5,0l0-1.3L3.6,37.4z"/>
	<path id="XMLID_174_" class="st5" d="M1.7,38.3c0.1,0.1,0.3,0.2,0.6,0.2c0.9,0,3.5,0,3.5,0v-0.2H1.7z"/>
	<path id="XMLID_175_" class="st5" d="M3,38.1c0,0,0-0.2-0.1-0.3c0,0-0.1-0.3-0.1-0.2c0,0,0-0.1-0.1-0.1c-0.3,0.1-0.6,0.1-0.8,0.2
		c-0.5,0.1-0.6,0.7,0.3,0.8c0.2,0,0.4,0,0.7,0C3,38.4,3,38.3,3,38.1z"/>
	<g id="XMLID_176_">
		<path id="XMLID_177_" class="st5" d="M2,37.8c0.7-0.3,1.4-0.2,2.2-0.3c0.4,0,1.5-0.3,1.5,0.2c0,0.3,0.1,0.6-0.3,0.6
			c-0.4,0-0.7,0-1.1,0c-0.4,0-0.8,0-1.1,0c-0.2,0-0.4,0-0.6,0C2.1,38.4,2,38.2,2,37.8c0.2-0.1,0.1-0.3-0.1-0.3
			c-0.2,0.1-0.5,0.3-0.4,0.6c0.3,0.6,1,0.4,1.5,0.5c0.5,0,0.9,0,1.4,0c0.4,0,0.9,0.1,1.3,0c0.3-0.1,0.2-1,0.2-1.3
			c0-0.1-0.1-0.1-0.1-0.1c-0.6,0-1.3,0.1-1.9,0.1c-0.7,0-1.3,0-1.9,0.3C1.8,37.6,1.9,37.9,2,37.8L2,37.8z"/>
	</g>
	<path id="XMLID_178_" class="st4" d="M10.6,37.4c0,0,1,0.2,1.5,0.3c0.5,0.1,0.8,0.8-0.1,0.8c-0.9,0-3.5,0-3.5,0l0-1.3L10.6,37.4z"
		/>
	<path id="XMLID_179_" class="st5" d="M12.5,38.3c-0.1,0.1-0.3,0.2-0.6,0.2c-0.9,0-3.5,0-3.5,0v-0.2H12.5z"/>
	<path id="XMLID_180_" class="st5" d="M11.2,38.1c0,0,0-0.2,0.1-0.3c0,0,0.1-0.3,0.1-0.2c0,0,0-0.1,0.1-0.1c0.3,0.1,0.6,0.1,0.8,0.2
		c0.5,0.1,0.6,0.7-0.3,0.8c-0.2,0-0.4,0-0.7,0C11.2,38.4,11.2,38.3,11.2,38.1z"/>
	<g id="XMLID_181_">
		<path id="XMLID_182_" class="st5" d="M12.2,37.5c-0.5-0.2-1.1-0.2-1.6-0.3c-0.7,0-1.5-0.1-2.2-0.1c-0.1,0-0.1,0.1-0.1,0.1
			c0,0.2-0.2,1.2,0.2,1.3c0.3,0.1,0.7,0,1,0c0.5,0,1.1,0.1,1.6,0c0.5,0,1.3,0.1,1.5-0.5C12.7,37.8,12.4,37.6,12.2,37.5
			c-0.2-0.1-0.2,0.2-0.1,0.3c0,0.2-0.1,0.3-0.1,0.5c-0.2,0-0.5,0-0.7,0c-0.4,0-0.8,0-1.2,0.1c-0.4,0-1.7,0.1-1.7-0.4
			c0-0.1-0.1-0.5,0.1-0.5c0.4,0,0.7,0,1.1,0.1c0.8,0.1,1.7,0,2.4,0.3C12.3,37.9,12.4,37.6,12.2,37.5L12.2,37.5z"/>
	</g>
</g>
<g id="XMLID_183_">
	<g id="XMLID_184_">
		<path id="XMLID_185_" class="st3" d="M30.9,21.4c-0.3,0.9-0.7,1.7-1.1,2.5c-0.4,0.9-0.7,2-1,3c-0.1,0.5-0.6,1.4-0.4,1.9
			c0.1,0.3,0.8,0.5,1,0.6c0.2,0.1,0.3-0.2,0.1-0.2c-1.4-0.6-0.4-2.6-0.1-3.7c0.4-1.4,1.3-2.6,1.6-3.9C31.2,21.3,31,21.2,30.9,21.4
			L30.9,21.4z"/>
	</g>
	<g id="XMLID_186_">
		<path id="XMLID_187_" class="st3" d="M37.3,21.6c0.1,0.4,0.3,0.7,0.4,1.1c0.3,0.5,0.5,1.1,0.7,1.6c0.1,0.2,0.3,0.1,0.3-0.1
			c-0.1-0.4-0.3-0.8-0.5-1.2c-0.2-0.5-0.6-1-0.7-1.5C37.6,21.3,37.3,21.4,37.3,21.6L37.3,21.6z"/>
	</g>
	<g id="XMLID_188_">
		<path id="XMLID_189_" class="st5" d="M36.6,29.8c-0.2,0.7-0.2,1.5-0.2,2.3c-0.1,1-0.1,2-0.3,2.9c0,0.2,0.2,0.3,0.3,0.1
			c0.1-0.7,0.2-1.5,0.2-2.3c0.1-0.9,0-2,0.3-2.9C36.9,29.7,36.6,29.7,36.6,29.8L36.6,29.8z"/>
	</g>
	<g id="XMLID_190_">
		<path id="XMLID_191_" class="st5" d="M31.4,29.8c0,1.4,0.4,2.9,0.5,4.3c0,0.2,0.3,0.2,0.3,0c-0.2-1.4-0.5-2.9-0.5-4.3
			C31.6,29.6,31.4,29.6,31.4,29.8L31.4,29.8z"/>
	</g>
	<g id="XMLID_192_">
		<path id="XMLID_193_" class="st5" d="M33.6,30.1c0.1,0.8,0,1.6,0,2.4c0,1.1,0,2.3-0.2,3.4c0,0.2,0.2,0.3,0.3,0.1
			c0.1-1,0.1-2,0.2-3c0.1-0.9,0.1-2,0-2.9C33.9,29.8,33.6,29.9,33.6,30.1L33.6,30.1z"/>
	</g>
	<g id="XMLID_194_">
		<path id="XMLID_195_" class="st5" d="M34.3,29.9c-0.1,1.1,0.1,2.3,0,3.4c0,1.1,0,2.3,0,3.4c0,0.2,0.3,0.2,0.3,0
			c-0.1-1.1-0.1-2.3,0-3.4c0-1.1-0.1-2.3,0-3.4C34.6,29.8,34.4,29.8,34.3,29.9L34.3,29.9z"/>
	</g>
	<g id="XMLID_196_">
		<path id="XMLID_197_" class="st0" d="M35.9,11.6c0.9,0.1,1.7,0.1,2.6,0.1c0.2,0,0.2-0.3,0-0.3c-0.9,0-1.7,0-2.6-0.1
			C35.7,11.3,35.7,11.6,35.9,11.6L35.9,11.6z"/>
	</g>
	<g id="XMLID_198_">
		<path id="XMLID_199_" class="st0" d="M30.3,11.6c0.7-0.1,1.4-0.1,2.2-0.1c0.2,0,0.2-0.3,0-0.3c-0.7,0-1.5,0-2.2,0.1
			C30,11.4,30.1,11.6,30.3,11.6L30.3,11.6z"/>
	</g>
	<path id="XMLID_200_" class="st4" d="M40.1,17.6c0-3.1-0.8-4.8-3.8-5.3v-0.8h-4v0.8c-3,0.5-3.8,2.2-3.8,5.3l-1.7,8.5l2.1,0.5
		l2.1-9.4c0-2.4,0.4-2.2,3.4-2.1v0c2,0,3.5-0.3,3.5,2.1l1.9,9.4l2.1-0.5L40.1,17.6z"/>
	<polygon id="XMLID_201_" class="st2" points="39,11.5 39,7.8 34.2,7.6 29.4,9.2 29.9,11.5 	"/>
	<path id="XMLID_1038_" class="st4" d="M34.3,26.3l2.7-0.1l-0.8,10.5c0,0,1.5,1.5,0.5,1.7c-1.7,0.3-2.3-1.6-2.3-1.6
		S34.5,30.1,34.3,26.3z"/>
	<path id="XMLID_1037_" class="st2" d="M36.2,36.6c0,0,2.1,2,0.6,2.6c-1.1,0.4-2.4-0.5-2.4-2.3c0,0,1.6,1.7,2,1.4
		C36.8,38.1,36.2,36.6,36.2,36.6z"/>
	<path id="XMLID_1036_" class="st4" d="M34,26.3l-2.7-0.1l0.8,10.5c0,0-1.5,1.5-0.5,1.7c1.7,0.3,2.3-1.6,2.3-1.6S33.7,30.1,34,26.3z
		"/>
	<path id="XMLID_1035_" class="st2" d="M32.1,36.6c0,0-2.1,2-0.6,2.6c1.1,0.4,2.5-0.5,2.5-2.3c0,0-1.7,1.6-2.1,1.4
		C31.4,38.1,32.1,36.6,32.1,36.6z"/>
	<path id="XMLID_202_" class="st1" d="M40.1,28.8c0,0-0.2,1.2-5.8,1.2c-5.7,0-5.8-1.2-5.8-1.2s2.1-9.9,5.8-9.9
		C38,18.8,40.1,28.8,40.1,28.8z"/>
	<path id="XMLID_203_" class="st4" d="M39.3,6.7c0,2.9-2.6,5.2-5.1,5.2c-2.5,0-5.1-2.3-5.1-5.2c0-2.9,2.3-5.2,5.1-5.2
		C37.1,1.4,39.3,3.8,39.3,6.7z"/>
	<path id="XMLID_1032_" class="st4" d="M28.4,27.1c-0.1,0.5-0.6,0.8-1.1,0.6l0,0c-0.5-0.1-0.8-0.6-0.6-1.1l0.3-1.1
		c0.1-0.5,0.6-0.8,1.1-0.6l0,0c0.5,0.1,0.8,0.6,0.6,1.1L28.4,27.1z"/>
	<path id="XMLID_1031_" class="st4" d="M40.1,27.1c0.1,0.5,0.6,0.8,1.1,0.6l0,0c0.5-0.1,0.8-0.6,0.6-1.1l-0.3-1.1
		c-0.1-0.5-0.6-0.8-1.1-0.6l0,0c-0.5,0.1-0.8,0.6-0.6,1.1L40.1,27.1z"/>
	<path id="XMLID_204_" class="st2" d="M39.6,15.2c-0.5-2.2-2.9-2.7-2.9-2.7s-0.1,0.6-0.5,1.1c-0.4,0.5-0.9,1-1.9,1
		c-2,0-2.4-2.1-2.4-2.1s-2.4,0.5-2.9,2.7c-0.4,1.5-0.6,3.5-0.6,3.5l2.5-0.2l0,3.1h3.4h3.4l0-3.1l2.5,0.1
		C40.2,18.5,39.9,16.7,39.6,15.2z"/>
	<path id="XMLID_205_" class="st1" d="M30.2,11.8c0,0-0.2-1.9,0.1-4.8c0.2-1.5,1.1-2.8,1.1-2.8s1.1,1.1,4.4,1.5
		c1.3,0.2,2.5,0.6,2.8,2.1c0.2,1.1,0.1,3.3-0.1,4.1h0.9c1.8-7.1-2-11.3-4.2-11.4c-2.3-0.1-3,1.3-3,1.3s-1.7-0.5-2.8,2.5
		c-1.1,2.9-0.2,7.6-0.2,7.6H30.2z"/>
	<g id="XMLID_206_">
		<path id="XMLID_207_" class="st5" d="M30.1,9.9c0.7,0.5,1.2,1.1,2,1.6c0.7,0.4,1.5,0.4,2.3,0.4c0.2,0,0.2-0.3,0-0.3
			c-0.9,0-1.6,0-2.4-0.5c-0.7-0.4-1.1-1-1.7-1.4C30.1,9.5,29.9,9.8,30.1,9.9L30.1,9.9z"/>
	</g>
	<g id="XMLID_208_">
		<path id="XMLID_209_" class="st5" d="M38.4,9.4c-1,1.1-2.1,2.1-3.7,2.1c-0.2,0-0.2,0.3,0,0.3c1.7,0.1,2.9-1,3.9-2.1
			C38.7,9.5,38.5,9.3,38.4,9.4L38.4,9.4z"/>
	</g>
	<g id="XMLID_210_">
		<path id="XMLID_211_" class="st3" d="M32.3,1.7c1.1-1.2,2.7-1.6,4.2-0.7c1.3,0.8,2.1,2.4,2.6,3.8c0.5,1.3,0.6,2.7,0.5,4
			c0,0.6-0.1,1.2-0.1,1.8c0.1,0.4-0.1,0.8-0.6,1c-0.3,0-0.1-0.9-0.1-1.2C39,9.3,39.2,7,38,6.2c-0.7-0.5-1.5-0.7-2.4-0.8
			c-1.2-0.2-3.1-0.4-4-1.3c-0.1-0.1-0.3,0.1-0.2,0.2c1,1,3.1,1.1,4.5,1.4c1.6,0.3,2.7,0.9,2.7,2.7c0,1.1-0.2,2.2-0.1,3.4
			c0,0.1,0.1,0.1,0.1,0.1c1.2,0.1,1.2-0.4,1.2-1.5c0.1-2.2,0.3-4.1-0.6-6.1c-0.7-1.6-1.7-3.2-3.4-3.9c-1.3-0.5-2.9,0.2-3.8,1.2
			C32,1.7,32.2,1.9,32.3,1.7L32.3,1.7z"/>
	</g>
	<g id="XMLID_212_">
		<path id="XMLID_213_" class="st3" d="M32.2,1.5c-2.9,0.4-3.4,3.7-3.3,6.1c0,1.2-0.1,2.7,0.2,3.8c0.1,0.6,0.7,0.5,1.2,0.4
			c0,0,0.1-0.1,0.1-0.1c0.1-0.7-0.1-1.5-0.1-2.3c-0.1-1.9,0.3-3.4,1.2-5c0.1-0.2-0.2-0.3-0.2-0.1c-0.6,1.2-1,2.3-1.2,3.7
			c-0.1,0.8-0.1,1.5,0,2.3c0,0.2,0,0.5,0.1,0.7c0.1,1.1-0.7,0.7-0.7,0.2c-0.1-2.9-1.2-8.8,2.9-9.3C32.4,1.8,32.3,1.5,32.2,1.5
			L32.2,1.5z"/>
	</g>
	<g id="XMLID_214_">
		<path id="XMLID_215_" class="st5" d="M32.5,11.5c0,0.3,0.1,0.5,0,0.8c0-0.1,0.1-0.1,0,0c-0.1,0-0.1,0-0.2,0
			c-0.1,0-0.3,0.1-0.4,0.1c-0.2,0.1,0,0.3,0.1,0.2c0.2-0.1,0.3-0.1,0.5-0.1c0.1,0,0.1,0,0.2-0.1c0.2-0.2,0.1-0.6,0.1-0.9
			C32.7,11.3,32.5,11.3,32.5,11.5L32.5,11.5z"/>
	</g>
	<g id="XMLID_216_">
		<path id="XMLID_217_" class="st5" d="M35.8,11.4c0,0.3,0,0.6,0,0.9c0,0.2,0.5,0.3,0.7,0.4c0.2,0.1,0.3-0.1,0.1-0.2
			c-0.1-0.1-0.2-0.1-0.3-0.1c-0.1,0-0.1-0.1-0.2-0.1c-0.1,0-0.1-0.1,0,0c-0.1-0.2,0-0.5,0-0.7C36.1,11.3,35.9,11.2,35.8,11.4
			L35.8,11.4z"/>
	</g>
	<g id="XMLID_218_">
		<path id="XMLID_219_" class="st0" d="M31.7,12.6c0.5,1.1,1.1,2.1,2.4,2.2c2.3,0.2,1.9-1.3,2.8-2.2c0.2-0.2-0.2-0.2-0.3-0.1
			c-0.4,1.2-1.1,2-2.5,2c-1.2,0-1.8-1.1-2.2-2.1C31.8,12.2,31.6,12.4,31.7,12.6L31.7,12.6z"/>
	</g>
	<g id="XMLID_220_">
		<path id="XMLID_221_" class="st0" d="M36.8,12.7c2.2,0.8,0.8,0.2,2,1.1c0.7,0.6,0.8,1.7,1,2.6c0.1,0.4,0.1,0.7,0.1,1
			c0.1,0.5,0.5,1.2-0.5,1c-0.5-0.1-1.1-0.1-1.7-0.1c-0.2,0-0.2,0.3,0,0.3c0.6,0,1.2,0,1.8,0.1c0.1,0,0.4,0.1,0.6,0
			c0.5-0.3,0.1-1.9,0.1-2.3c-0.1-0.9-0.3-2.1-1-2.8c-0.6-0.7-1.4-1.1-2.1-1.2C36.8,12.4,36.6,12.6,36.8,12.7L36.8,12.7z"/>
	</g>
	<g id="XMLID_222_">
		<path id="XMLID_223_" class="st0" d="M31.7,12.3c-0.9,0.3-2.1,0.9-2.6,1.9c-0.7,1.3-0.5,3-0.7,4.3c0,0.1,0,0.2,0.1,0.2
			c0.7,0.1,1.4,0.1,2.1,0c0.3,0,0.1,2.4,0.2,2.6c0,0.2,0.3,0.1,0.3-0.1c-0.2-0.8,0.1-1.9,0.1-2.8c0-0.1-0.1-0.2-0.2-0.1
			c-0.1,0-2.3,0.3-2.2-0.1c0.1-0.6,0.1-1.1,0.2-1.7c0.1-1.9,1.1-3.4,2.9-4C31.9,12.5,31.8,12.3,31.7,12.3L31.7,12.3z"/>
	</g>
	<g id="XMLID_224_">
		<path id="XMLID_225_" class="st0" d="M37.5,18.6c0,0.7,0,1.3,0,2c0,0.8-0.1,0.7-0.9,0.7c-1.5,0-3,0.3-4.5-0.1
			c-0.2,0-0.2,0.2-0.1,0.3c1.8,0.4,3.6-0.1,5.3,0.1c0.2,0,0.4,0,0.4-0.2c0-0.9,0-1.8-0.1-2.7C37.7,18.4,37.5,18.4,37.5,18.6
			L37.5,18.6z"/>
	</g>
	<g id="XMLID_226_">
		<path id="XMLID_227_" class="st3" d="M39.6,27.6c0.1,0.2,0.2,0.4,0.2,0.7c0,0.1,0,0.2,0.1,0.2c0.1,0.3-0.1,0.4-0.3,0.5
			c-0.5,0.3-1.2,0.3-1.8,0.2c-0.2,0-0.2,0.3,0,0.3c0.7,0.1,1.7,0,2.2-0.5c0.4-0.4,0-1.2-0.2-1.6C39.7,27.3,39.5,27.4,39.6,27.6
			L39.6,27.6z"/>
	</g>
	<g id="XMLID_228_">
		<path id="XMLID_229_" class="st3" d="M39.2,26.6c0.2,0.2,0.1,0.6,0.3,0.8c0.1,0.2,0.3,0,0.2-0.1c-0.1-0.3-0.1-0.6-0.3-0.8
			C39.3,26.3,39.1,26.4,39.2,26.6L39.2,26.6z"/>
	</g>
	<g id="XMLID_230_">
		<path id="XMLID_231_" class="st3" d="M39.9,27.5c-0.1-0.3-0.2-0.5-0.3-0.7c-0.1-0.2-0.3,0-0.2,0.1c0.1,0.2,0.2,0.4,0.3,0.7
			C39.6,27.8,39.9,27.7,39.9,27.5L39.9,27.5z"/>
	</g>
	<g id="XMLID_232_">
		<path id="XMLID_233_" class="st3" d="M39.5,26.7c-0.1-0.1-0.1-0.2-0.1-0.4c0-0.2-0.3-0.1-0.3,0.1c0,0.2,0.1,0.3,0.2,0.5
			C39.4,27,39.6,26.9,39.5,26.7L39.5,26.7z"/>
	</g>
	<g id="XMLID_234_">
		<path id="XMLID_235_" class="st6" d="M32.3,38.5c0.2,0,0.2-0.3,0-0.3C32.1,38.2,32.1,38.5,32.3,38.5L32.3,38.5z"/>
	</g>
	<g id="XMLID_236_">
		<path id="XMLID_237_" class="st0" d="M32,36.6c-0.4,0.4-0.8,1-1,1.5c-0.1,0.4,0.3,0.7,0.6,0.9c0.2,0.1,0.3-0.2,0.1-0.2
			c-0.1-0.1-0.3-0.2-0.4-0.3c-0.2-0.2,0.1-0.5,0.2-0.7c0.2-0.3,0.4-0.6,0.7-0.9C32.3,36.7,32.1,36.5,32,36.6L32,36.6z"/>
	</g>
	<g id="XMLID_238_">
		<path id="XMLID_239_" class="st0" d="M31.9,36.7c-0.2,0.4-0.5,1-0.4,1.5c0.2,0.6,0.9,0.3,1.3,0.1c0.2-0.1,0-0.3-0.1-0.2
			c-0.2,0.1-0.9,0.4-0.9-0.1c0-0.4,0.2-0.8,0.4-1.1C32.3,36.7,32,36.5,31.9,36.7L31.9,36.7z"/>
	</g>
	<g id="XMLID_240_">
		<path id="XMLID_241_" class="st0" d="M33,38.2c0.5-0.3,0.8-0.7,1-1.2c-0.1,0-0.2,0-0.3,0c0,0.2-0.1,0.4-0.2,0.6
			C33.4,37.9,33.2,38.1,33,38.2c-0.1,0.1,0,0.4,0.2,0.3c0.3-0.2,0.4-0.4,0.6-0.7c0.1-0.2,0.3-0.6,0.3-0.9c0-0.2-0.2-0.2-0.3,0
			c-0.1,0.5-0.4,0.8-0.8,1.1C32.7,38.1,32.8,38.3,33,38.2L33,38.2z"/>
	</g>
	<g id="XMLID_242_">
		<path id="XMLID_243_" class="st0" d="M34.3,37c0.1,0.3,0.3,0.6,0.5,0.8c0.2,0.3,0.4,0.6,0.7,0.7c0.2,0.1,0.3-0.1,0.1-0.2
			c-0.2-0.1-0.4-0.4-0.5-0.6c-0.2-0.3-0.4-0.5-0.5-0.8C34.5,36.7,34.2,36.8,34.3,37L34.3,37z"/>
	</g>
	<g id="XMLID_244_">
		<path id="XMLID_245_" class="st0" d="M34.2,36.9c0.2,1,0.6,2.1,1.7,2.3c0.2,0,0.2-0.2,0.1-0.3c-1-0.2-1.3-1.3-1.5-2.1
			C34.5,36.7,34.2,36.8,34.2,36.9L34.2,36.9z"/>
	</g>
	<g id="XMLID_246_">
		<path id="XMLID_247_" class="st0" d="M36,36.8c0.2,0.5,0.9,1.2,0.5,1.7c-0.1,0.1,0.1,0.3,0.2,0.2c0.6-0.7-0.1-1.4-0.4-2
			C36.2,36.5,35.9,36.6,36,36.8L36,36.8z"/>
	</g>
</g>
<polyline id="XMLID_248_" class="st7" points="19,0.4 23.7,3.2 19,5.9 23,10.9 19.2,13.7 22.7,17 19.4,20 22.2,22.5 19,26.4 
	22.7,29.4 18.2,31.8 23.5,35.5 18.2,39.4 "/>
</svg>
