<?xml version="1.0" encoding="utf-8"?>
<!-- Generator: Adobe Illustrator 19.0.0, SVG Export Plug-In . SVG Version: 6.00 Build 0)  -->
<svg version="1.1" id="Layer_1" xmlns="http://www.w3.org/2000/svg" xmlns:xlink="http://www.w3.org/1999/xlink" x="0px" y="0px"
	 viewBox="0 0 113 135" style="enable-background:new 0 0 113 135;" xml:space="preserve">
<style type="text/css">
	.st0{fill:#B71A25;stroke:#FFC044;stroke-width:3;stroke-miterlimit:10;}
	.st1{fill:none;}
	.st2{fill:#FFF5D9;}
	.st3{font-family:'AlenbiSans';}
	.st4{font-size:30px;}
	.st5{fill:#FFC044;}
</style>
<g id="XMLID_15236_">
	<rect id="XMLID_8058_" x="48.7" y="53.5" class="st0" width="15" height="80"/>
	<path id="XMLID_9133_" class="st0" d="M107.5,76.4L5.6,76.5c-2.2,0-4-1.8-4-4L1.5,5.6c0-2.2,1.8-4,4-4l101.9-0.1c2.2,0,4,1.8,4,4
		l0.1,66.9C111.5,74.6,109.7,76.4,107.5,76.4z"/>
	<g id="XMLID_9129_">
		
			<rect id="XMLID_47_" x="2.5" y="27.7" transform="matrix(-1 1.264254e-03 -1.264254e-03 -1 113.0485 76.7903)" class="st1" width="108" height="21.5"/>
		<text id="XMLID_46_" transform="matrix(1 -1.260000e-03 1.260000e-03 1 19.7949 49.022)" class="st2 st3 st4">לשכנ</text>
	</g>
	<circle id="XMLID_9163_" class="st5" cx="102.4" cy="70" r="2.5"/>
	<circle id="XMLID_8986_" class="st5" cx="96.4" cy="70" r="2.5"/>
	<circle id="XMLID_8992_" class="st5" cx="90.4" cy="70" r="2.5"/>
</g>
</svg>
