<?xml version="1.0" encoding="utf-8"?>
<!-- Generator: Adobe Illustrator 19.0.0, SVG Export Plug-In . SVG Version: 6.00 Build 0)  -->
<svg version="1.1" id="Layer_1" xmlns="http://www.w3.org/2000/svg" xmlns:xlink="http://www.w3.org/1999/xlink" x="0px" y="0px"
	 viewBox="0 0 39.6 41.9" style="enable-background:new 0 0 39.6 41.9;" xml:space="preserve">
<style type="text/css">
	.st0{fill:#BBBCBF;}
	.st1{fill:#BBBDBF;}
	.st2{fill:#929497;}
	.st3{fill:#F1F1F2;}
	.st4{fill:#929496;}
	.st5{fill:#F1F1F1;}
</style>
<g id="XMLID_932_">
	<g id="XMLID_1024_">
		<g id="XMLID_42_">
			<path id="XMLID_46_" class="st0" d="M25.1,40.7c3.1,0.2,6.2,0.2,9.3,0.2c0.6,0,0.6-1,0-1c-3.1,0-6.2,0-9.3-0.2
				C24.5,39.7,24.5,40.7,25.1,40.7L25.1,40.7z"/>
		</g>
	</g>
	<g id="XMLID_1017_">
		<g id="XMLID_36_">
			<path id="XMLID_40_" class="st0" d="M5,40.7c2.6-0.4,5.1-0.3,7.7-0.3c0.6,0,0.6-1,0-1c-2.7,0-5.3,0-8,0.4
				C4.1,39.8,4.4,40.8,5,40.7L5,40.7z"/>
		</g>
	</g>
	<polygon id="XMLID_943_" class="st1" points="36.3,40.1 36.1,27.1 19.1,26.2 2.1,32.1 3.7,40.1 	"/>
	<path id="XMLID_944_" class="st2" d="M37.1,23.1c0,10.4-9.5,18.8-18.3,18.8c-8.8,0-18.3-8.4-18.3-18.8S8.7,4.3,18.8,4.3
		C28.9,4.3,37.1,12.7,37.1,23.1z"/>
	<path id="XMLID_945_" class="st3" d="M4.8,41.3c0,0-0.6-6.9,0.4-17.2c0.6-5.5,4-10.1,4-10.1s4,3.8,15.8,5.3
		c4.6,0.6,8.8,2.3,9.9,7.4c0.8,4,0.4,11.7-0.3,14.7h3.3C44.2,16,30.8,0.8,22.7,0.4C14.5,0,12,5.2,12,5.2S5.9,3.5,2.1,14
		c-3.8,10.5-0.6,27.3-0.6,27.3H4.8z"/>
	<g id="XMLID_1007_">
		<g id="XMLID_30_">
			<path id="XMLID_34_" class="st4" d="M4.4,34.5c2.6,1.9,4.5,4.4,7.5,5.8c2.5,1.1,5.2,1.1,7.9,1.1c0.6,0,0.6-1,0-1
				c-3.3,0-6.2-0.1-9.1-1.9c-2.2-1.4-3.8-3.4-5.8-4.9C4.3,33.2,3.8,34.1,4.4,34.5L4.4,34.5z"/>
		</g>
	</g>
	<g id="XMLID_1000_">
		<g id="XMLID_24_">
			<path id="XMLID_28_" class="st4" d="M34.3,32.9c-3.7,3.9-7.7,7.6-13.4,7.4c-0.6,0-0.6,1,0,1c6,0.3,10.2-3.5,14.1-7.6
				C35.4,33.1,34.7,32.4,34.3,32.9L34.3,32.9z"/>
		</g>
	</g>
	<g id="XMLID_991_">
		<g id="XMLID_18_">
			<path id="XMLID_22_" class="st5" d="M12.5,5.4c3.7-4.2,9.9-5.9,15-2.7c4.8,3.1,7.9,9.1,9.7,14.3c1.6,4.8,1.8,9.6,1.4,14.6
				c-0.1,1.9,0.1,4.5-0.4,6.3c-0.1,0.4-1.6,3.2-2.2,3c-0.8-0.3-0.3-3.6-0.3-4.2c0.1-5,1.4-11.8-3-15.5c-2.5-2.1-6.1-2.4-9.2-3
				c-4-0.8-10.6-1.4-13.7-4.4c-0.5-0.4-1.2,0.3-0.7,0.7c3.9,3.8,11.6,4,16.6,5.1c5.8,1.3,9,3.9,9,10.3c0,3.8-0.6,7.6-0.5,11.3
				c0,0.3,0.2,0.5,0.5,0.5c5.3,0.6,4.2-2.8,4.6-7.3c0.5-7.4,0.6-13.9-2.4-20.8c-2.2-5.1-6-11.3-11.7-13.1c-5-1.6-10.1,0.4-13.4,4.1
				C11.3,5.2,12,5.9,12.5,5.4L12.5,5.4z"/>
		</g>
	</g>
	<g id="XMLID_966_">
		<g id="XMLID_12_">
			<path id="XMLID_16_" class="st5" d="M11.8,4.6C1.1,6-0.3,18.4,0.1,27.1c0.1,2.9,0.2,5.8,0.3,8.7c0.1,1.3-0.2,3.3,0.3,4.5
				c0.8,1.8,2.4,1.5,4.2,1.1c0.2,0,0.3-0.2,0.3-0.3c0.4-2.9-0.5-6.2-0.5-9.1C4.8,25.5,6,20.3,9,14.7c0.3-0.6-0.6-1.1-0.9-0.5
				c-2.2,4.3-3.8,8.3-4.2,13.2c-0.2,2.8-0.2,5.5,0,8.3C4,37.4,3.8,44,1.6,38.5c-0.7-1.7-0.2-4.7-0.2-6.5C1.2,29.2,1,26.5,1,23.7
				c0-7.5,2.4-17,11.1-18.2C12.7,5.5,12.4,4.5,11.8,4.6L11.8,4.6z"/>
		</g>
	</g>
</g>
</svg>
