<?xml version="1.0" encoding="utf-8"?>
<!-- Generator: Adobe Illustrator 19.0.0, SVG Export Plug-In . SVG Version: 6.00 Build 0)  -->
<svg version="1.1" id="Layer_1" xmlns="http://www.w3.org/2000/svg" xmlns:xlink="http://www.w3.org/1999/xlink" x="0px" y="0px"
	 viewBox="0 0 443.5 342.9" style="enable-background:new 0 0 443.5 342.9;" xml:space="preserve">
<style type="text/css">
	.st0{fill:#FFF5D9;stroke:#ED1C24;stroke-width:8.8587;stroke-miterlimit:10;}
	.st1{fill:#B71A25;}
	.st2{fill:#ED1C24;}
	.st3{fill:#EFA803;}
	.st4{fill:#FFCB05;}
</style>
<g id="frame">
	<path id="XMLID_1145_" class="st0" d="M408.6,333H30.2C16,333,4.4,321.4,4.4,307.2V99.8C4.4,85.6,16,74,30.2,74h378.4
		c14.2,0,25.8,11.6,25.8,25.8v207.4C434.4,321.4,422.8,333,408.6,333z"/>
	<g id="XMLID_287_">
		<g id="XMLID_1146_">
			<path id="XMLID_1149_" class="st1" d="M80.7,74.2c5.5,2.3,55.4,9.7,85.9-3.3c-72.5-37.5-94.2-39.7-98.9-8.6
				C70.9,69.2,77.7,72.9,80.7,74.2z M83.7,54.6c9.2-15.4,80.6,17.2,80.6,17.2S71.3,75.4,83.7,54.6z"/>
			<path id="XMLID_1148_" class="st2" d="M164.3,71.8c0,0-71.3-32.6-80.6-17.2C71.3,75.4,164.3,71.8,164.3,71.8z"/>
			<path id="XMLID_1147_" class="st2" d="M165.5,71.3c9.1-3.9,16.5-9.6,20.7-17.9c7.6-14.9-45.1-81.4-93.1-40.1
				C65.4,37.2,63.6,53.7,68.1,63.2C70.5,33.1,93,33.8,165.5,71.3z"/>
		</g>
		<g id="XMLID_974_">
			<path id="XMLID_1123_" class="st1" d="M294,74.2c-5.5,2.3-55.4,9.7-85.9-3.3c72.5-37.5,94.2-39.7,98.9-8.6
				C303.8,69.2,297,72.9,294,74.2z M291,54.6c-9.2-15.4-80.6,17.2-80.6,17.2S303.4,75.4,291,54.6z"/>
			<path id="XMLID_991_" class="st2" d="M210.4,71.8c0,0,71.3-32.6,80.6-17.2C303.4,75.4,210.4,71.8,210.4,71.8z"/>
			<path id="XMLID_989_" class="st2" d="M209.2,71.3c-9.1-3.9-16.5-9.6-20.7-17.9c-7.6-14.9,45.1-81.4,93.1-40.1
				c27.7,23.9,29.5,40.4,25.1,49.9C304.2,33.1,281.7,33.8,209.2,71.3z"/>
		</g>
		<g id="XMLID_946_">
			<path id="XMLID_968_" class="st2" d="M170.4,68.6c-16.8,11.7-28,29-31.8,35.2s41.3,21.4,41.3,21.4l19.4-56.4L170.4,68.6z"/>
			<g id="XMLID_963_">
				<path id="XMLID_967_" class="st1" d="M181.5,69.6c3.2,10.8,12.4,56,13.9,58.5c1.5,2.6,47.6-20.4,46.6-23.2
					c-1.1-2.8-33.1-34.2-37.7-36.6C199.7,66,181.5,69.6,181.5,69.6z"/>
				<path id="XMLID_964_" class="st2" d="M182.1,69.2c3.2,10.8,14.4,55.5,15.9,58.1c1.5,2.6,47.6-20.4,46.6-23.2
					s-33.1-34.2-37.7-36.6C202.2,65.2,182.1,69.2,182.1,69.2z"/>
			</g>
		</g>
		<ellipse id="XMLID_929_" class="st1" cx="186.3" cy="65.6" rx="21.5" ry="13"/>
	</g>
	<g id="XMLID_1131_">
		<g id="XMLID_1132_">
			<path id="XMLID_1135_" class="st3" d="M440.7,202L440.7,202c1.5,0,2.8,1.2,2.8,2.8v78.2c0,1.5-1.2,2.8-2.8,2.8l0,0
				c-1.5,0-2.8-21.2-2.8-22.8v-58.2C438,203.2,439.2,202,440.7,202z"/>
			<path id="XMLID_1134_" class="st3" d="M303.8,340.2L303.8,340.2c0-1.5,1.2-2.8,2.8-2.8h58.2c1.5,0,22.8,1.2,22.8,2.8l0,0
				c0,1.5-1.2,2.8-2.8,2.8h-78.2C305,342.9,303.8,341.7,303.8,340.2z"/>
			<polygon id="XMLID_1133_" class="st4" points="385.8,340.3 314.9,340.3 441.5,213.6 441.3,214.2 441.3,284.7 			"/>
		</g>
	</g>
</g>
</svg>
