<?xml version="1.0" encoding="utf-8"?>
<!-- Generator: Adobe Illustrator 19.0.0, SVG Export Plug-In . SVG Version: 6.00 Build 0)  -->
<svg version="1.1" id="Layer_1" xmlns="http://www.w3.org/2000/svg" xmlns:xlink="http://www.w3.org/1999/xlink" x="0px" y="0px"
	 viewBox="0 0 450.9 278.9" style="enable-background:new 0 0 450.9 278.9;" xml:space="preserve">
<style type="text/css">
	.st0{fill:#FFF5D9;stroke:#ED1C24;stroke-width:8.8587;stroke-miterlimit:10;}
	.st1{fill:#EFA803;}
	.st2{fill:#FFCB05;}
	.st3{fill:none;}
	.st4{fill:#001D2D;}
	.st5{font-family:'AlenbiSans';}
	.st6{font-size:20px;}
	.st7{font-size:34px;}
</style>
<g id="frame_2_">
	<path id="XMLID_11780_" class="st0" d="M415.1,269.1H36.7c-14.2,0-25.8-11.6-25.8-25.8V35.9C10.9,21.7,22.5,10,36.7,10h378.4
		c14.2,0,25.8,11.6,25.8,25.8v207.4C440.9,257.4,429.3,269.1,415.1,269.1z"/>
	<g id="XMLID_12811_">
		<g id="XMLID_11848_">
			<path id="XMLID_11689_" class="st1" d="M2.7,141.6L2.7,141.6c-1.5,0-2.8-1.2-2.8-2.7V80.6c0-1.5,1.2-2.8,2.7-2.8h0
				c1.5,0,2.7,1.2,2.7,2.8v58.2C5.5,140.3,4.3,141.6,2.7,141.6z"/>
			<path id="XMLID_11862_" class="st1" d="M140.3,2.8L140.3,2.8c0,1.5-1.2,2.8-2.8,2.8H79.3c-1.5,0-2.8-1.2-2.8-2.7v0
				c0-1.5,1.2-2.7,2.8-2.7l58.2,0C139,0,140.3,1.2,140.3,2.8z"/>
			<polygon id="XMLID_11864_" class="st2" points="78,2 128.9,2 2,129.3 2,129.4 2,78.9 			"/>
		</g>
		<g id="XMLID_12800_">
			<path id="XMLID_12810_" class="st1" d="M447.2,138L447.2,138c1.5,0,2.8,1.2,2.8,2.8v78.2c0,1.5-1.2,2.8-2.8,2.8l0,0
				c-1.5,0-2.8-21.2-2.8-22.8v-58.2C444.4,139.2,445.7,138,447.2,138z"/>
			<path id="XMLID_12797_" class="st1" d="M310.2,276.2L310.2,276.2c0-1.5,1.2-2.8,2.8-2.8h58.2c1.5,0,22.7,1.2,22.7,2.8l0,0
				c0,1.5-1.2,2.8-2.7,2.8H313C311.5,278.9,310.2,277.7,310.2,276.2z"/>
			<polygon id="XMLID_12796_" class="st2" points="392.3,277 321.4,277 448.1,150 448,150.2 448,220.7 			"/>
		</g>
	</g>
</g>
<rect id="XMLID_66_" x="-7" y="44.9" transform="matrix(-0.7062 0.708 -0.708 -0.7062 131.0714 55.4793)" class="st3" width="122" height="20.1"/>
<text id="XMLID_11827_" transform="matrix(0.7062 -0.708 0.708 0.7062 19.8237 95.1868)" class="st4 st5 st6"></text>
<g id="XMLID_11898_">
	
		<rect id="XMLID_46_" x="337" y="218.7" transform="matrix(-0.7062 0.708 -0.708 -0.7062 843.6745 115.1198)" class="st3" width="122" height="27.8"/>
	<text id="XMLID_45_" transform="matrix(0.7062 -0.708 0.708 0.7062 383.5438 261.6284)" class="st4 st5 st7"></text>
</g>
</svg>
