<?xml version="1.0" encoding="utf-8"?>
<!-- Generator: Adobe Illustrator 19.0.0, SVG Export Plug-In . SVG Version: 6.00 Build 0)  -->
<svg version="1.1" id="Layer_1" xmlns="http://www.w3.org/2000/svg" xmlns:xlink="http://www.w3.org/1999/xlink" x="0px" y="0px"
	 viewBox="0 0 46.4 85.1" style="enable-background:new 0 0 46.4 85.1;" xml:space="preserve">
<style type="text/css">
	.st0{fill:none;stroke:#FFFFFF;stroke-width:2.6551;stroke-linecap:round;stroke-miterlimit:10;stroke-dasharray:0,2.2126;}
	.st1{fill:#F1F1F1;}
	.st2{fill:#BBBCBF;}
	.st3{fill:#BBBDBF;}
	.st4{fill:#F1F1F2;}
	.st5{fill:#929497;}
	.st6{fill:#929496;}
	.st7{fill:#FFBF43;stroke:#FFFFFF;stroke-miterlimit:10;}
	.st8{fill:none;}
	.st9{display:none;fill:#081E2C;}
	.st10{font-family:'MekomiAAA-Medium';}
	.st11{font-size:15px;}
</style>
<g id="ילדה">
	<g id="XMLID_2_">
		<path id="XMLID_1073_" class="st0" d="M8.2,21.1"/>
	</g>
	<g id="XMLID_4_">
		<g id="XMLID_5_">
			<path id="XMLID_6_" class="st1" d="M8.8,64.1c0.5,5.5,1,10.9,1.1,16.3c0,0.5,0.8,0.5,0.8,0c-0.2-5.5-0.6-10.9-1.1-16.3
				C9.5,63.6,8.8,63.6,8.8,64.1L8.8,64.1z"/>
		</g>
	</g>
	<g id="XMLID_7_">
		<g id="XMLID_9_">
			<path id="XMLID_10_" class="st1" d="M13.5,64c0,5-0.2,10.1-0.5,15.1c0,0.5,0.7,0.5,0.8,0c0.3-5,0.5-10.1,0.5-15.1
				C14.2,63.5,13.5,63.5,13.5,64L13.5,64z"/>
		</g>
	</g>
	<g id="XMLID_12_">
		<g id="XMLID_13_">
			<path id="XMLID_15_" class="st1" d="M19,64.1c-0.6,5.5-0.5,11-1.3,16.5c-0.1,0.5,0.7,0.7,0.7,0.2c0.8-5.5,0.7-11.1,1.3-16.7
				C19.8,63.6,19.1,63.6,19,64.1L19,64.1z"/>
		</g>
	</g>
	<g id="XMLID_16_">
		<g id="XMLID_17_">
			<path id="XMLID_18_" class="st1" d="M14.5,64.3c0.7,5.3,0.2,10.9,0.3,16.2c0,0.5,0.8,0.5,0.8,0c0-5.4,0.5-11-0.3-16.4
				C15.2,63.6,14.5,63.8,14.5,64.3L14.5,64.3z"/>
		</g>
	</g>
	<g id="XMLID_19_">
		<g id="XMLID_20_">
			<path id="XMLID_21_" class="st1" d="M12.8,32c0,0.2,0.1,0.7-0.2,0.8c-0.3,0.1-0.6,0.1-0.9,0.1c-0.7,0.1-1.4,0.3-2,0.6
				c-0.4,0.2-0.1,0.9,0.4,0.7c0.9-0.4,1.8-0.5,2.7-0.7c0.8-0.2,0.8-0.9,0.8-1.5C13.5,31.5,12.8,31.5,12.8,32L12.8,32z"/>
		</g>
	</g>
	<g id="XMLID_22_">
		<g id="XMLID_23_">
			<path id="XMLID_24_" class="st1" d="M16.5,31.8c0,0.4,0,1.3,0.4,1.6c0.2,0.2,0.5,0.2,0.8,0.3c0.5,0.2,1,0.4,1.5,0.6
				c0.4,0.2,0.8-0.4,0.4-0.7c-0.6-0.3-1.3-0.5-1.9-0.8c-0.1,0-0.2-0.1-0.3-0.1c-0.1,0,0,0-0.1-0.1c0-0.3-0.1-0.6-0.1-0.9
				C17.3,31.3,16.5,31.3,16.5,31.8L16.5,31.8z"/>
		</g>
	</g>
	<g id="XMLID_25_">
		<g id="XMLID_26_">
			<path id="XMLID_27_" class="st2" d="M9.5,9.2C7.2,7.6,3.4,6.6,1.7,9.9c-1.1,2.3-1.3,4.7-1.3,7.2c0,3.3,1.9,7.7-0.1,10.7
				c-0.1,0.2,0,0.5,0.2,0.6c2,0.3,3.9-0.1,5.7-0.8c0.4-0.2,0.3-0.9-0.2-0.7c-0.3,0.1-4.7,1.5-4.4,0.3c0.5-1.7,0.3-3.3,0-5
				C1.2,17.4,0.6,3.8,9.2,9.9C9.6,10.2,9.9,9.5,9.5,9.2L9.5,9.2z"/>
		</g>
	</g>
	<g id="XMLID_28_">
		<path id="XMLID_29_" class="st3" d="M10.2,10.6c0,0-1.7-3.5-5.4-2.5c-3.7,1-5,6.6-3.7,12.5C2.3,26.6,0.5,28,0.5,28s5,1,7.1-1.9
			C9.7,23.2,10,11,10,11"/>
	</g>
	<g id="XMLID_30_">
		<g id="XMLID_31_">
			<path id="XMLID_32_" class="st2" d="M20.9,10.1c0.3-0.1,0.5-0.3,0.7-0.4c4.7-3.8,7.1,1.5,7.6,5.3c0.3,2.5-0.6,5.2-0.9,7.7
				c-0.2,1.5-0.4,3.5,0.4,4.9c0.4,0.6,1.6,0.6-1.2,0.2c-1.2-0.2-2.7-0.8-3.7-1.4c-0.4-0.3-0.8,0.4-0.4,0.7c1.6,1.1,4.3,2.2,6.2,1.4
				c0.3-0.1,0.4-0.4,0.2-0.6c-2-2.5-0.6-6.3-0.2-9.2c0.3-2.5,0.5-5.6-0.7-7.9c-2.1-4.1-5.4-3-8.6-1.2C20.1,9.6,20.5,10.3,20.9,10.1
				L20.9,10.1z"/>
		</g>
	</g>
	<g id="XMLID_33_">
		<path id="XMLID_34_" class="st3" d="M20.1,10.6c0,0,1.7-3.5,5.4-2.5c3.7,1,5,6.6,3.7,12.5C28,26.6,29.8,28,29.8,28s-5,1-7.1-1.9
			C20.6,23.2,20.3,11,20.3,11"/>
	</g>
	<g id="XMLID_35_">
		<path id="XMLID_36_" class="st4" d="M24.8,43.2c0-5.9-0.3-9.2-8.3-10.1v-3.3h-3v3.3c-6,0.9-8.7,4.2-8.7,10.1L0.9,59.6l3.6,1
			l3.6-18.1c0-4.6,6.2-2.1,6.2-2.1c4.6,0,6.9-2.5,6.9,2.1l3.7,18.1l3.6-1L24.8,43.2z"/>
	</g>
	<g id="XMLID_37_">
		<path id="XMLID_1041_" class="st4" d="M14.7,60l5.3-0.1l-1.6,20.3c0,0,3,2.9,1,3.2c-3.3,0.5-4.4-3.1-4.4-3.1S15.1,67.4,14.7,60z"
			/>
	</g>
	<g id="XMLID_38_">
		<path id="XMLID_1039_" class="st3" d="M18.3,79.9c0,0,3.9,3.9,1.2,4.9c-2.1,0.8-4.7-1.1-4.7-4.6c0,0,3.1,3.4,3.9,2.9
			C19.5,82.7,18.3,79.9,18.3,79.9z"/>
	</g>
	<g id="XMLID_39_">
		<path id="XMLID_1037_" class="st4" d="M14,60l-5.3-0.1l1.6,20.3c0,0-3,2.9-1,3.2c3.3,0.5,4.4-3.1,4.4-3.1S13.6,67.4,14,60z"/>
	</g>
	<g id="XMLID_40_">
		<path id="XMLID_1035_" class="st3" d="M10.4,79.9c0,0-3.9,3.9-1.2,4.9c2.1,0.8,4.7-1.1,4.7-4.6c0,0-3.1,3.4-3.9,2.9
			C9.2,82.7,10.4,79.9,10.4,79.9z"/>
	</g>
	<g id="XMLID_41_">
		<path id="XMLID_42_" class="st5" d="M23.5,64.2c-0.8-3.2-1.2-18.5-8.9-18.5C7,45.7,6.2,61,5.4,64.2H23.5z"/>
	</g>
	<g id="XMLID_43_">
		<path id="XMLID_44_" class="st4" d="M26,20.4c0,6.5-5.9,11.7-11.4,11.7c-5.5,0-11.4-5.2-11.4-11.7c0-6.5,5.1-11.7,11.4-11.7
			C20.9,8.6,26,13.9,26,20.4z"/>
	</g>
	<g id="XMLID_45_">
		<path id="XMLID_1029_" class="st4" d="M3.3,61.5c-0.2,0.9-1.1,1.5-2.1,1.2l0,0c-0.9-0.2-1.5-1.1-1.2-2.1l0.5-2.2
			c0.2-0.9,1.1-1.5,2.1-1.2l0,0c0.9,0.2,1.5,1.1,1.2,2.1L3.3,61.5z"/>
	</g>
	<g id="XMLID_46_">
		<path id="XMLID_1027_" class="st4" d="M25.9,61.5c0.2,0.9,1.1,1.5,2.1,1.2l0,0c0.9-0.2,1.5-1.1,1.2-2.1l-0.6-2.2
			c-0.2-0.9-1.1-1.5-2.1-1.2l0,0c-0.9,0.2-1.5,1.1-1.2,2.1L25.9,61.5z"/>
	</g>
	<g id="XMLID_47_">
		<path id="XMLID_48_" class="st5" d="M24.8,38.7c-1-4.3-5.6-5.2-5.6-5.2l-4.6,6.4L10,33.5c0,0-4.6,1-5.6,5.2
			c-0.7,2.9-1.1,6.6-1.1,6.6L8,45.5l0,9.2l6.6-2.6l6.6,2.6l0-9.2l4.7-0.1C25.9,45.4,25.5,41.6,24.8,38.7z"/>
	</g>
	<g id="XMLID_49_">
		<g id="XMLID_50_">
			<path id="XMLID_51_" class="st6" d="M14.6,14.4c2.1,4.2,5.7,8.4,10.5,9.5c0.2,0,0.4-0.1,0.5-0.3c0.8-2,0.5-4.5-0.1-6.6
				c-0.1-0.5-0.9-0.3-0.7,0.2c0.4,1.5,0.5,3.1,0.5,4.7c-0.1,2.4-2.7,0.2-3.7-0.4c-2.8-1.8-4.8-4.5-6.3-7.4
				C15,13.6,14.4,13.9,14.6,14.4L14.6,14.4z"/>
		</g>
	</g>
	<g id="XMLID_52_">
		<g id="XMLID_53_">
			<path id="XMLID_54_" class="st6" d="M9.8,10.1c7.8-3,17,2.1,15.5,11.1c-0.1,0.5,0.6,0.7,0.7,0.2c0.7-4.5-0.9-8.4-4.4-11.2
				c-2.9-2.4-8.6-2.1-12-0.9C9.2,9.6,9.4,10.3,9.8,10.1L9.8,10.1z"/>
		</g>
	</g>
	<g id="XMLID_55_">
		<g id="XMLID_56_">
			<path id="XMLID_57_" class="st1" d="M3.4,23c2.3,10.5,18.5,12.2,21.7,1.5c0.1-0.5-0.6-0.7-0.7-0.2c-3,10.1-18.1,8.2-20.3-1.5
				C4,22.4,3.3,22.6,3.4,23L3.4,23z"/>
		</g>
	</g>
	<g id="XMLID_58_">
		<path id="XMLID_59_" class="st5" d="M15.1,14.4c-0.1-0.2-0.3-0.3-0.6,0.2c-1.4,2.4-5.9,9-10.9,8.4c0,0-1-3,0-6.3
			c1.2-3.9,4.8-8.3,11.7-8.1c7.6,0.1,10.2,5.5,10.6,9.9c0.3,3.5-0.5,5-0.5,5S18,21.9,15.1,14.4z"/>
	</g>
	<g id="XMLID_60_">
		<g id="XMLID_64_">
			<path id="XMLID_65_" class="st6" d="M9.5,9.4c-2.4,1.8-4,3.2-5.7,5.7c-1.4,2.2-1.2,5.4-0.4,7.8c0,0.1,0.1,0.2,0.3,0.3
				c4.6,0.6,8.9-4.9,10.6-8.4c0.2-0.4-0.4-0.8-0.7-0.4c-0.9,1.8-2,3.3-3.5,4.7C9.8,19.5,4.6,24,4,22.3c-0.8-2.5-0.4-5.2,0.9-7.4
				c1.4-2.1,3-3.3,5-4.8C10.3,9.8,9.9,9.2,9.5,9.4L9.5,9.4z"/>
		</g>
	</g>
	<g id="XMLID_66_">
		<path id="XMLID_68_" class="st3" d="M15,80.4c-0.1,0.4,3,3.4,1.3,1.7c0.4,0.5,1.2,1.1,1.9,1.2c1.5,0.1,0.4-2.4,0.2-3.1
			c0.8,0.7,2.9,3.7,1.4,4.4c-1.6,0.8-3.2-0.3-4.1-1.6C15.4,82.3,15,81.2,15,80.4"/>
	</g>
	<g id="XMLID_70_">
		<path id="XMLID_71_" class="st3" d="M10.1,80.1c-0.5,1.2-2.9,3.9-0.8,4.7c0.8,0.3,1.5-0.3,2.2-0.6c0.9-0.4,1.5-0.9,1.8-1.9
			c0.2-0.6,0-1.2,0.2-1.8c-0.7,0.8-3,3.6-4.2,2.1"/>
	</g>
	<g id="XMLID_75_">
		<g id="XMLID_76_">
			<path id="XMLID_77_" class="st6" d="M9.6,33.6c0.4,1.1,1.3,2,1.9,3c0.9,1.2,1.7,2.4,2.7,3.5c0.3,0.3,0.9-0.2,0.5-0.5
				c-0.9-0.9-1.6-2-2.4-3c-0.6-0.9-1.7-2.1-2.1-3.1C10.1,32.9,9.4,33.1,9.6,33.6L9.6,33.6z"/>
		</g>
	</g>
	<g id="XMLID_78_">
		<g id="XMLID_79_">
			<path id="XMLID_80_" class="st6" d="M18.7,33.3c-0.5,1-1.3,2-1.9,2.9c-0.7,1.2-1.5,2.4-2.4,3.4c-0.3,0.4,0.2,0.9,0.5,0.5
				c0.9-1,1.6-2.1,2.3-3.2c0.7-1.1,1.6-2.1,2.1-3.3C19.6,33.2,18.9,32.8,18.7,33.3L18.7,33.3z"/>
		</g>
	</g>
	<g id="XMLID_81_">
		<g id="XMLID_82_">
			<path id="XMLID_83_" class="st6" d="M18.9,33.6c1.4,0.8,2.8,1.7,4,2.8c1.5,1.5,2.1,3.9,2.3,5.9c0.1,1,0.6,2.5-0.8,2.5
				c-1.3,0-2.8-0.1-4.1,0.1c-0.5,0.1-0.3,0.8,0.2,0.7c1.4-0.3,4.1,0.5,5.4-0.3c0.9-0.6,0.1-2.3,0.1-3.1c-0.2-4.6-3-7.3-6.7-9.4
				C18.9,32.7,18.5,33.4,18.9,33.6L18.9,33.6z"/>
		</g>
	</g>
	<g id="XMLID_84_">
		<g id="XMLID_85_">
			<path id="XMLID_86_" class="st6" d="M20.9,45.7c0,2.2-0.4,4.8,0,6.9c0.8,3.4,1.4,6.7,1.7,10.2c0.2,2.1-12.5,0.5-14.1,0.5
				C8,63.2,8,64,8.5,64c4.8,0.1,10,1.3,14.8,0.4c0.2,0,0.3-0.3,0.3-0.5c-1-6.1-2-12.2-2-18.3C21.6,45.2,20.9,45.2,20.9,45.7
				L20.9,45.7z"/>
		</g>
	</g>
	<g id="XMLID_87_">
		<g id="XMLID_88_">
			<path id="XMLID_89_" class="st6" d="M9.6,33.2C8,34.3,6.4,35,5.3,36.6c-1.2,1.9-1.4,3.8-1.8,6c-0.1,0.6-0.9,2.3-0.3,2.9
				c0.3,0.3,0.9,0.3,1.2,0.3c1.3,0.1,2.5,0.2,3.8,0.4c0.5,0.1,0.7-0.6,0.2-0.7c-1.1-0.2-2.2-0.3-3.3-0.4c-1.8-0.2-0.9-1.5-0.7-2.9
				c0.3-1.6,0.4-3,1.2-4.5c1.1-1.9,2.6-2.6,4.3-3.7C10.3,33.6,10,32.9,9.6,33.2L9.6,33.2z"/>
		</g>
	</g>
	<g id="XMLID_90_">
		<g id="XMLID_91_">
			<path id="XMLID_93_" class="st6" d="M7.7,46.1c0,6.2-1.5,11.8-2.5,17.9c0,0.3,0.2,0.5,0.5,0.5c0.5-0.1,1-0.3,1.5-0.4
				c0.5-0.1,0.3-0.8-0.2-0.7c-1.7,0.4-0.5-2-0.3-3c0.5-1.8,0.7-3.6,1.1-5.4c0.6-2.9,0.7-5.8,0.6-8.8C8.4,45.6,7.7,45.6,7.7,46.1
				L7.7,46.1z"/>
		</g>
	</g>
</g>
<g id="מספר">
	<circle id="XMLID_94_" class="st7" cx="34.6" cy="11.8" r="11.3"/>
	<rect id="XMLID_96_" x="27.8" y="3" class="st8" width="13.5" height="13.8"/>
	<text id="XMLID_95_" transform="matrix(1 0 0 1 30.771 13.6489)" class="st9 st10 st11">0</text>
</g>
</svg>
