<?xml version="1.0" encoding="utf-8"?>
<!-- Generator: Adobe Illustrator 19.0.0, SVG Export Plug-In . SVG Version: 6.00 Build 0)  -->
<svg version="1.1" id="Layer_1" xmlns="http://www.w3.org/2000/svg" xmlns:xlink="http://www.w3.org/1999/xlink" x="0px" y="0px"
	 viewBox="0 0 114.9 69.6" style="enable-background:new 0 0 114.9 69.6;" xml:space="preserve">
<style type="text/css">
	.st0{fill:#FEBF44;}
	.st1{fill:#071E2C;}
</style>
<g id="לוגו">
	<path id="XMLID_70_" class="st0" d="M99,2.5c-5.3-0.8-9.9-1.8-14.2-1.9C75.2,0.3,70.8,1.8,62.8,2c-4.1,0.1-11.9-1.6-16-1.9
		C35.4-0.5,11.9,1.5,11.2,1.7c-2.5,0.6,0.1,7.7-4.5,21.8C2,38.2,6.9,39.8,2.9,49.9c-1.9,4.9-3,10.6-2.9,15.9
		c0.1,2.9,16.6,1.7,29.7,3c17.8,1.8,26.8,0.3,38.9,0.8C81,70,92.4,67.1,97,67.4c2.2,0.1,7.3,0.2,8.8-1.8c1.3-1.7,1.3-4.3,1.4-6.3
		c1.1-21.3,8.6-29.2,7.6-54.9C114.6-1.2,105.4,3.5,99,2.5z"/>
	<path id="XMLID_69_" class="st1" d="M68.4,37.6c0-0.3-0.3-0.6-0.6-0.6c-1.5-0.1-3.5-0.7-4.9,0.3c-2,1.4-1,1.6-5.5,3.6
		c-0.3,0-0.5,0.3-0.4,0.6c-0.8,4.4-0.3,3.3,3.7,3.3c-0.3,12.3-0.7,13,0.3,12.9c2.3,0,4.6,0,6.9,0c0.3,0,0.6-0.3,0.6-0.6
		C68,50.6,68,44.1,68.4,37.6z"/>
	<path id="XMLID_68_" class="st1" d="M80.7,37.9c0-0.3-0.3-0.6-0.6-0.6c-0.9,0.1-1.9-0.2-2.8-0.1c-1,0.1-1.6,0.6-2.4,1.1
		c-4.4,2.4-5.3,1.4-4.9,5.9c0,0.3,0.2,0.6,0.6,0.6c1,0,2,0,3-0.1c-0.1,2.3-0.2,4.5-0.3,6.8c-0.1,1.5-0.7,4.1-0.2,5.5
		c0.2,0.6,0.4,0.7,1,0.9c0.8,0.2,1.9-0.3,2.8-0.3c1.3-0.1,2.6,0,3.9,0.2C81.7,57.8,81.4,58.2,80.7,37.9z"/>
	<path id="XMLID_67_" class="st1" d="M94.3,44.5c-0.5-0.1-3.9-0.2-3.8-0.7c7.6,0.2,8,0.9,7.9-2.2c-0.2-6.3-0.7-5.4-3.8-4.9
		c-3.6,0.6-7.4,0.5-11,0.4c-0.2,0-0.3,0.1-0.4,0.2c-0.1,0.1-0.1,0.2-0.1,0.4c0.4,11.3,0,11.3,1.4,11.7c1.5,0.5,6.8-1,7.6,0.8
		c0.8,1.8-2.1,1.3-7.7,1c-0.3,0-0.6,0.3-0.6,0.6c-0.2,1.6-0.5,3.2-0.9,4.8c-0.1,0.5,0.3,0.8,0.7,0.7c4.1-0.7,8.7,1.8,12.7-0.1
		C100.8,55.1,100.7,45.9,94.3,44.5z"/>
	<path id="XMLID_66_" class="st1" d="M37.3,14.1c-1.2-1.8-4.1-1.3-6-1.4c-9.9-0.2-11-0.6-11.1,0.2c-0.3,2-0.3,3.9-0.5,5.9
		c0,0.3,0.3,0.5,0.6,0.6c3.3,0.4,6.6,0.6,9.9,0.5c0,1.8-0.1,3.6-0.1,5.5c0,1.8-0.5,4.1-0.1,5.9c0.7,3,5,1.2,7,1.8
		c0.4,0.1,0.7-0.2,0.7-0.6c0.2-3.7,0.3-7.4,0.3-11.1C38,19.4,38.5,16,37.3,14.1z"/>
	<path id="XMLID_65_" class="st1" d="M49.9,12.8c-2.1-0.4-8,0-8.2,0.1c-0.2,0.1-0.3,0.2-0.3,0.5c0.3,6.9-2,6.6,3.4,6.2
		c0.2,1.3,0.5,2.8,0.3,3.9c-0.7,3.1-5.8,1.5-6.4,3.8c-0.2,0.8,0.3,1.9,0.4,2.7c0.1,0.7,0.1,1.9,0.7,2.5c1.1,1.1,4.2,0.4,5.5,0.3
		c0.4,0,0.6-0.4,0.6-0.8c-0.3-1.6-0.2-2.9,0.5-4.4c0.3,0.7,0.5,1.5,0.7,2.2c0.1,0.5,0.2,1.8,0.5,2.2c0.9,1.1,4.7,0,6-0.1
		c0.3,0,0.6-0.2,0.6-0.6C52.4,15.9,52.9,13.3,49.9,12.8z"/>
	<path id="XMLID_56_" class="st1" d="M74.2,13.3c-2-0.8-5-0.1-7.1,0.1c-4.3,0.4-10.6-0.6-10.6,0.7c0.1,6.9-1.5,6.5,2,6.2
		c-1.8,1.6-0.8,2.8-1,4.7c-0.1,1.4-0.2,1.1-1.6,1.3c-0.2,0-0.4,0.3-0.4,0.6c0.4,4.4-1.2,6.2,0.1,6.2c8.6-0.4,9.3,0,9.3-0.9
		c-0.1-4.1,0.1-8.2,0-12.3c1.3,0.1,2.5,0.1,3.8-0.1c0,2.6,0,5.1-0.1,7.7c0,1.1-0.8,5.5,0.6,5.4c4-0.1,7.5,0.6,7.4-0.6
		C75,20.4,78.2,15,74.2,13.3z"/>
	<path id="XMLID_4_" class="st1" d="M95.7,25.6c0.5-0.5,0.9-0.4,1.2-1.2c0.5-1.2,0.6-3,0.8-4.3c0.3-1.7,0.7-3.4,1-5.1
		c0.1-0.3-0.1-0.7-0.4-0.7c-2.1-0.4-4.2-0.9-6.2-1.9c-0.4-0.2-0.8,0.1-0.9,0.5c-0.2,2.2-1.3,4.2-1.9,6.4c-1.9-2.3-3.9-4.5-5.8-6.8
		c-0.6-0.8-4.6,2.2-5.3,2.9c-0.3,0.2-0.2,0.5-0.1,0.7c0.8,1.5,1.6,3.1,2.7,4.3c-0.5,0.4-1.2,0.7-1.8,0.9c-0.3,0.1-0.4,0.3-0.4,0.6
		c-0.1,1.9,0.4,3.7,0.4,5.6c0,2.7-0.7,6,0.7,5.7c2-0.4,3.9-0.4,5.8,0.1c0.4,0.1,0.7-0.2,0.7-0.6c0-1.7,0-3.3,0-5
		c6.7,7.4,4.1,5,9.9,5.6c0.8,0.1,1-1.7,1.7-4.4c0.1-0.3-0.1-0.5-0.3-0.7c-0.6-0.4-1.2-1-1.7-1.5C95.2,26,95.2,26.2,95.7,25.6z"/>
	<path id="XMLID_5_" class="st1" d="M39.9,37.2c-6.1-0.4-12.4-0.2-18.5-0.1c-0.3,0-0.6,0.3-0.6,0.6c-0.1,6.6-3,6.4,1.4,6.5
		c-1.4,1-1,1.2-1.3,12.7c0,0.1,0,0.2,0.1,0.3c0,0.2,0.2,0.3,0.4,0.4c1.3,0.2,6.4,0.4,6.4-0.9c-0.1-4.1,0-8.1,0.4-12.1
		c2.8-0.1,5.6-0.2,8.4-0.3c-0.1,0.9-0.3,2.5,0.5,2.5c4.2-0.2,5.2,0.9,5.3-0.8C42.8,42.3,43.3,37.4,39.9,37.2z"/>
	<path id="XMLID_6_" class="st1" d="M52.1,37.6c0-0.3-0.3-0.6-0.6-0.6c-5.8,0.4-7.3-0.2-6.8,1c-0.1,2.7-0.1,5.5-0.1,8.2
		c0,1.1,0.5,1.9-0.5,2.4c-1.5,0.8-4.1,0.7-5.8,1c-1.1,0.2-1.6,0.4-2.5,0c-0.8-0.4-0.5-1.5-0.5-2.1c0.1-0.9-0.3-0.6-0.6-0.7
		c-1.4-0.3-2.3-0.2-3.6-0.2c-0.2,0-0.6,2.6-0.3,4.2c0.4,2.3-0.5,6.8,0.8,6.7C37,57,42,56.3,47,54.1c1.3-0.6,2.8-1,3.9-1.9
		c1.2-0.9,1.2-1.3,1.3-2.8C52.4,45.5,52.4,41.6,52.1,37.6z"/>
</g>
</svg>
