<?xml version="1.0" encoding="utf-8"?>
<!-- Generator: Adobe Illustrator 19.0.0, SVG Export Plug-In . SVG Version: 6.00 Build 0)  -->
<svg version="1.1" id="Layer_1" xmlns="http://www.w3.org/2000/svg" xmlns:xlink="http://www.w3.org/1999/xlink" x="0px" y="0px"
	 viewBox="0 0 37.8 39.7" style="enable-background:new 0 0 37.8 39.7;" xml:space="preserve">
<style type="text/css">
	.st0{fill:#F1F1F2;}
	.st1{fill:#F1F1F1;}
	.st2{fill:#BBBDBF;}
	.st3{fill:#BBBCBF;}
</style>
<path id="XMLID_905_" class="st0" d="M35.4,18.8c0,10.4-9.5,18.8-18.3,18.8c-8.8,0-18.3-8.4-18.3-18.8C-1.1,8.4,7.1,0,17.2,0
	C27.3,0,35.4,8.4,35.4,18.8z"/>
<g id="XMLID_904_">
	<path id="XMLID_1_" class="st0" d="M37.4,20.8c0,10.4-9.5,18.8-18.3,18.8c-8.8,0-18.3-8.4-18.3-18.8C0.9,10.4,9.1,2,19.2,2
		C29.3,2,37.4,10.4,37.4,20.8z"/>
	<g id="XMLID_1015_">
		<g id="XMLID_37_">
			<path id="XMLID_41_" class="st1" d="M0.6,23c1.3,9.4,9.5,16.5,18.7,16.7c0.6,0,0.6-1,0-1c-8.8-0.2-16.6-7-17.8-15.9
				C1.5,22.1,0.5,22.4,0.6,23L0.6,23z"/>
		</g>
	</g>
	<g id="XMLID_1008_">
		<g id="XMLID_31_">
			<path id="XMLID_35_" class="st1" d="M36.8,19c0,2.2,0.3,4.6-0.3,6.7c-0.7,2.5-3,5.7-4.8,7.5c-3.2,3.2-7.9,5.3-12.4,5.5
				c-0.6,0-0.6,1,0,1c4.7-0.2,9.7-2.3,13.1-5.8c4.4-4.5,5.4-8.9,5.3-14.9C37.7,18.4,36.7,18.4,36.8,19L36.8,19z"/>
		</g>
	</g>
	<path id="XMLID_916_" class="st2" d="M37.1,19.3c0,0-7.6-5.7-8.5-12.2c0,0-8,4-14.3,6.5C8,16.1,0.8,22.6,0.8,22.6
		S-1.9,12.1,6.9,5.4c8.9-6.7,18-5.1,22.3-2.1C33.5,6.3,37.4,13.7,37.1,19.3z"/>
	<g id="XMLID_1000_">
		<g id="XMLID_25_">
			<path id="XMLID_29_" class="st3" d="M28.4,7.2C29,12.5,32.6,17,37,19.8c0.3,0.2,0.7-0.1,0.8-0.4c0-5.9-2.4-11.9-7-15.7
				C25.1-0.9,20-0.5,13.5,1.3c-0.6,0.2-0.4,1.1,0.3,1C18.2,1,21.9,0,26.3,2.1c3.3,1.6,5.9,3.9,7.8,7.1c0.5,0.8,4.1,8.2,2.4,9.1
				c-0.7,0.4-4.2-4.2-4.4-4.5c-1.3-2-2.4-4.2-2.7-6.6C29.3,6.5,28.3,6.5,28.4,7.2L28.4,7.2z"/>
		</g>
	</g>
	<g id="XMLID_991_">
		<g id="XMLID_19_">
			<path id="XMLID_23_" class="st3" d="M1.3,22.8C2.3,21.3,5,20,6.6,19c2.5-1.5,5.1-3.1,7.7-4.5c4.4-2.3,9.5-4.8,14.1-6.4
				c0.6-0.2,0.3-1.2-0.3-1c-2.4,0.8-4.5,1.9-6.8,3.1c-2.9,1.5-6,2.5-8.8,4.1c-3.8,2.2-9.6,4-12.1,7.8C0.1,22.8,1,23.3,1.3,22.8
				L1.3,22.8z"/>
		</g>
	</g>
	<g id="XMLID_966_">
		<g id="XMLID_13_">
			<path id="XMLID_17_" class="st3" d="M1,22.7C0.6,13.7,5.1,5.6,13.7,2.3c0.6-0.2,0.3-1.2-0.3-1C4.3,4.8-0.4,13,0,22.7
				C0.1,23.4,1.1,23.4,1,22.7L1,22.7z"/>
		</g>
	</g>
</g>
</svg>
