<?xml version="1.0" encoding="utf-8"?>
<!-- Generator: Adobe Illustrator 19.0.0, SVG Export Plug-In . SVG Version: 6.00 Build 0)  -->
<svg version="1.1" id="Layer_1" xmlns="http://www.w3.org/2000/svg" xmlns:xlink="http://www.w3.org/1999/xlink" x="0px" y="0px"
	 viewBox="0 0 28.9 39.3" style="enable-background:new 0 0 28.9 39.3;" xml:space="preserve">
<style type="text/css">
	.st0{fill:#BBBCBF;}
	.st1{fill:#F1F1F2;}
	.st2{fill:#BBBDBF;}
	.st3{fill:#F1F1F1;}
	.st4{fill:#929497;}
	.st5{fill:#929496;}
	.st6{fill:#8DC440;}
</style>
<g id="XMLID_256_">
	<g id="XMLID_257_">
		<g id="XMLID_258_">
			<path id="XMLID_259_" class="st0" d="M3.5,24.4c0.4,4.2,0,8.4,0,12.6c0,0.2,0.3,0.2,0.3,0c0-4.2,0.5-8.5,0-12.6
				C3.7,24.3,3.5,24.3,3.5,24.4L3.5,24.4z"/>
		</g>
		<g id="XMLID_260_">
			<path id="XMLID_261_" class="st0" d="M10.6,24.5c0.1,2.2-0.1,4.4-0.1,6.7c0,0.2,0.3,0.2,0.3,0c0-2.2,0.2-4.4,0.1-6.7
				C10.8,24.3,10.5,24.3,10.6,24.5L10.6,24.5z"/>
		</g>
		<path id="XMLID_262_" class="st1" d="M12.3,5.8c0,2.9-2.6,5.2-5.1,5.2c-2.5,0-5.1-2.3-5.1-5.2c0-2.9,2.3-5.2,5.1-5.2
			C10.1,0.6,12.3,2.9,12.3,5.8z"/>
		<rect id="XMLID_263_" x="6.4" y="10.5" class="st1" width="2" height="2"/>
		<path id="XMLID_264_" class="st1" d="M7.2,11.5L7.2,11.5c-3.9,0-5.9,2-5.9,5.9l-1.1,8.8v0.7v0.4c0,0.5,0,0.9,0.5,0.9
			s1.5-0.4,1.5-0.9v-0.8h0.2l0.6-5l0.3-4.4c0-2.6,1.4-2.6,3.9-2.6l0,0.1c2.6,0,3.9-0.1,3.9,2.4l0.9,9.5h0.3v0.8c0,0.5,0.5,0.9,1,0.9
			c0.5,0,1-0.4,1-0.9v-0.4l0-0.7l-1.3-8.8C12.9,13.6,11,11.5,7.2,11.5z"/>
		<path id="XMLID_265_" class="st2" d="M3.7,21.5l0,15.4l2.2,0.1c0,0,0.6-10.9,1.3-10.9c0.8,0,1.4,11.4,1.4,11.4h2.2l0-16H3.7z"/>
		<g id="XMLID_266_">
			<path id="XMLID_267_" class="st3" d="M2,6.4c0.4,2.6,2.6,4.6,5.2,4.7c0.2,0,0.2-0.3,0-0.3c-2.5-0.1-4.6-2-5-4.5
				C2.3,6.2,2,6.3,2,6.4L2,6.4z"/>
		</g>
		<g id="XMLID_268_">
			<path id="XMLID_269_" class="st3" d="M6.1,10.9c0.1,0.4,0.1,0.7,0.2,1.1c0,0.2,0.3,0.1,0.3-0.1c-0.1-0.4-0.1-0.7-0.2-1.1
				C6.3,10.7,6.1,10.8,6.1,10.9L6.1,10.9z"/>
		</g>
		<g id="XMLID_270_">
			<path id="XMLID_271_" class="st3" d="M6.3,11.7c-0.2,0-0.5,0-0.7,0.1c-0.2,0.1,0,0.3,0.1,0.2c0.2-0.1,0.4,0,0.6-0.1
				C6.5,11.9,6.5,11.6,6.3,11.7L6.3,11.7z"/>
		</g>
		<g id="XMLID_272_">
			<path id="XMLID_273_" class="st3" d="M8.2,10.8c0,0.4,0,0.7,0,1.1c0,0.2,0.3,0.2,0.3,0c0-0.4,0-0.7,0-1.1
				C8.6,10.6,8.3,10.6,8.2,10.8L8.2,10.8z"/>
		</g>
		<g id="XMLID_274_">
			<path id="XMLID_275_" class="st3" d="M12.1,5.4c0,0.4,0,0.9,0,1.3c0,0.8-0.5,1.3-0.9,1.9c-0.7,1-1.7,1.8-2.9,2
				c-0.2,0-0.1,0.3,0.1,0.3c1.2-0.2,2.2-1,2.9-1.9c0.9-1.2,1.1-2.1,1.1-3.6C12.4,5.2,12.1,5.2,12.1,5.4L12.1,5.4z"/>
		</g>
		<path id="XMLID_276_" class="st2" d="M12.2,5.4c0,0-2.1-1.6-2.4-3.4c0,0-2.2,1.1-4,1.8C4.1,4.5,2.1,6.3,2.1,6.3S1.3,3.4,3.8,1.5
			c2.5-1.9,5-1.4,6.2-0.6C11.2,1.8,12.3,3.8,12.2,5.4z"/>
		<g id="XMLID_277_">
			<path id="XMLID_278_" class="st0" d="M9.8,2c0.2,1.5,1.2,2.8,2.4,3.5c0.1,0.1,0.2,0,0.2-0.1c0-1.7-0.7-3.2-2-4.4
				C8.9-0.3,7.4-0.1,5.6,0.4c-0.2,0-0.1,0.3,0.1,0.3c1-0.3,1.8-0.6,2.8-0.3c1.2,0.2,2.2,1.2,2.8,2.1c0.3,0.4,0.5,0.9,0.7,1.4
				C12,3.9,12,5.1,12,5.1c-1-0.6-1.8-1.9-2-3.1C10,1.8,9.7,1.8,9.8,2L9.8,2z"/>
		</g>
		<g id="XMLID_279_">
			<path id="XMLID_280_" class="st0" d="M2.2,6.4c0.3-0.5,1-0.7,1.5-1c0.5-0.4,1.4-0.8,2-1.1C6.3,3.8,7,3.7,7.6,3.3
				C8.3,3,9,2.6,9.8,2.3C9.9,2.2,9.9,2,9.7,2c-0.6,0.2-1,0.4-1.5,0.7C7.3,3.2,6.4,3.4,5.5,3.9C4.8,4.3,4,4.6,3.5,5.1
				C3,5.6,2.4,5.6,2,6.2C1.9,6.4,2.1,6.5,2.2,6.4L2.2,6.4z"/>
		</g>
		<g id="XMLID_281_">
			<path id="XMLID_282_" class="st0" d="M2.1,6.4C2,3.8,3.3,1.6,5.7,0.6c0.2-0.1,0.1-0.3-0.1-0.3c-2.6,1-3.9,3.3-3.8,6
				C1.9,6.5,2.1,6.5,2.1,6.4L2.1,6.4z"/>
		</g>
		<path id="XMLID_283_" class="st4" d="M7.2,13.9c0,0-1.5-2-1.6-2c-2.3,0.4-3.8,1.7-4.2,4c-0.1,0.5-1.3,9.7-1.3,9.7l2.4,0.2l1.1-7.8
			l0,6.2l7.1,0.2l0.2-6.2l1,7.7l2.3,0c0,0-1.4-9.9-1.6-10.6c-0.6-1.8-1.8-3-3.8-3.3L7.2,13.9z"/>
		<g id="XMLID_284_">
			<path id="XMLID_285_" class="st5" d="M5.5,11.8c0.1,0.3,0.3,0.6,0.5,0.8c0.4,0.4,0.7,0.9,1,1.4c0.1,0.1,0.3,0,0.2-0.1
				c-0.3-0.4-0.6-0.8-0.8-1.1c-0.2-0.3-0.6-0.6-0.7-1C5.8,11.6,5.5,11.7,5.5,11.8L5.5,11.8z"/>
		</g>
		<g id="XMLID_286_">
			<path id="XMLID_287_" class="st5" d="M8.7,11.7c-0.5,0.7-1,1.5-1.5,2.2C7.1,14,7.3,14.1,7.4,14c0.5-0.7,1-1.3,1.5-2
				c0.1-0.1-0.1-0.3-0.2-0.1L8.7,11.7z"/>
		</g>
		<g id="XMLID_288_">
			<path id="XMLID_289_" class="st5" d="M3.6,24.4c1-0.2,2.3,0,3.4,0.1c1.2,0,2.4,0.1,3.7,0.1c0.2,0,0.2-0.3,0-0.3
				c-1.2,0-2.4,0-3.7-0.1c-1.1-0.1-2.4-0.3-3.4-0.1C3.4,24.1,3.5,24.4,3.6,24.4L3.6,24.4z"/>
		</g>
		<g id="XMLID_290_">
			<path id="XMLID_291_" class="st5" d="M10.7,18.3c0.2,2-0.1,4.1-0.1,6.1c0,0.2,0.3,0.2,0.3,0c0-2,0.3-4.1,0.1-6.1
				C11,18.1,10.7,18.1,10.7,18.3L10.7,18.3z"/>
		</g>
		<g id="XMLID_292_">
			<path id="XMLID_293_" class="st5" d="M3.6,24.3c0.1-1,0-1.9,0.1-2.9c0-1.1,0.2-2.2,0.2-3.3c0-0.2-0.3-0.2-0.3,0
				c0,1-0.2,1.9-0.2,2.9c0,1.1,0.1,2.2-0.1,3.3C3.3,24.5,3.6,24.5,3.6,24.3L3.6,24.3z"/>
		</g>
		<g id="XMLID_294_">
			<path id="XMLID_295_" class="st5" d="M11.9,26c0.8,0,1.5,0,2.3,0c0.2,0,0.2-0.3,0-0.3c-0.8,0-1.5,0-2.3,0
				C11.7,25.7,11.7,26,11.9,26L11.9,26z"/>
		</g>
		<g id="XMLID_296_">
			<path id="XMLID_297_" class="st5" d="M12,25.7c-0.2-1.6-0.4-3.2-0.3-4.8c0-0.2-0.3-0.2-0.3,0c0,1.6,0.1,3.3,0.3,4.9
				C11.8,26,12,25.9,12,25.7L12,25.7z"/>
		</g>
		<g id="XMLID_298_">
			<path id="XMLID_299_" class="st5" d="M0.1,25.9c0.8,0.1,1.6,0,2.4,0.1c0.2,0,0.2-0.3,0-0.3c-0.8-0.1-1.6,0-2.4-0.1
				C0,25.6,0,25.9,0.1,25.9L0.1,25.9z"/>
		</g>
		<g id="XMLID_300_">
			<path id="XMLID_301_" class="st5" d="M0.3,25.8c0-2.1,0.7-4.2,0.9-6.3c0-0.2-0.3-0.2-0.3,0C0.7,21.6,0,23.7,0,25.8
				C0,25.9,0.3,25.9,0.3,25.8L0.3,25.8z"/>
		</g>
		<g id="XMLID_302_">
			<path id="XMLID_303_" class="st5" d="M2.6,25.9c0.1-0.3,0.1-0.6,0-0.9c0-0.4,0-0.8,0-1.2c0-0.2-0.3-0.2-0.3,0c0,0.4,0,0.7,0,1.1
				c0,0.3,0.1,0.7,0,1C2.3,26,2.6,26.1,2.6,25.9L2.6,25.9z"/>
		</g>
		<g id="XMLID_304_">
			<path id="XMLID_305_" class="st5" d="M8.8,11.9c2.6,0.3,3.8,2.7,4.1,5c0.3,2.2,0.5,4.4,0.7,6.6c0,0.2,0.3,0.2,0.3,0
				c-0.3-2.7-0.4-5.5-1-8.2c-0.4-1.9-2.3-3.5-4.1-3.8C8.6,11.6,8.6,11.9,8.8,11.9L8.8,11.9z"/>
		</g>
		<g id="XMLID_306_">
			<path id="XMLID_307_" class="st5" d="M5.5,11.7c-1.8,0.4-2.8,1.2-3.6,2.6C1,16,1.2,18.1,0.9,20c0,0.2,0.2,0.3,0.3,0.1
				c0.2-1.5,0.3-3,0.6-4.5c0.5-2,2-2.9,3.8-3.6C5.8,11.9,5.7,11.6,5.5,11.7L5.5,11.7z"/>
		</g>
		<g id="XMLID_308_">
			<path id="XMLID_309_" class="st0" d="M3.6,37.3c0.4-0.1,0.8,0,1.2,0c0.3,0,0.7,0,1-0.1c0.2,0,0.1-0.3-0.1-0.3
				C5,37,4.3,36.9,3.5,37C3.4,37,3.4,37.3,3.6,37.3L3.6,37.3z"/>
		</g>
		<g id="XMLID_310_">
			<path id="XMLID_311_" class="st0" d="M5.9,37c0.2-1.4,0.1-2.9,0.3-4.3c0.2-1.5,0.4-3,0.5-4.5c0-0.2-0.3-0.2-0.3,0
				c0,1.3-0.3,2.6-0.4,3.9c-0.1,1.6-0.2,3.2-0.3,4.8C5.6,37.2,5.9,37.2,5.9,37L5.9,37z"/>
		</g>
		<g id="XMLID_312_">
			<path id="XMLID_313_" class="st0" d="M8.6,37c-0.2-1.2-0.2-2.4,0-3.6c0-0.2-0.3-0.2-0.3,0c0,0.1,0,0.1,0,0.2c0,0.2,0.3,0.2,0.3,0
				c0-0.1,0-0.1,0-0.2c-0.1,0-0.2,0-0.3,0c-0.1,1.2-0.1,2.4,0.1,3.7C8.4,37.2,8.6,37.2,8.6,37L8.6,37z"/>
		</g>
		<g id="XMLID_314_">
			<path id="XMLID_315_" class="st0" d="M7,26c0.9,1.2,1,3.6,1,5.1c0.1,1.6,0.1,3.3,0.2,4.9c0,0.2,0.3,0.2,0.3,0
				c-0.1-2-0.1-4-0.3-5.9c-0.1-1.3-0.2-3.1-1-4.2C7.1,25.8,6.9,25.9,7,26L7,26z"/>
		</g>
		<g id="XMLID_316_">
			<path id="XMLID_317_" class="st0" d="M6.6,29.2c0.1-0.4,0.1-0.9,0.1-1.3c0-0.3,0-0.6,0.1-0.8c0-0.2,0.1-0.8,0.4-0.6
				c0.1,0.1,0.3-0.1,0.2-0.2C7.3,26.2,7.2,26,7,26.1c-0.2,0.1-0.4,0.6-0.4,0.8c-0.2,0.7-0.1,1.5-0.2,2.2C6.3,29.3,6.6,29.4,6.6,29.2
				L6.6,29.2z"/>
		</g>
		<g id="XMLID_318_">
			<path id="XMLID_319_" class="st0" d="M9.3,37.3c0.4,0,1.5,0.3,1.5-0.3c-0.1-1.6-0.1-3.2-0.1-4.7c0-0.2-0.3-0.2-0.3,0
				c0,1.1,0,2.1,0,3.2c0,0.4,0,0.8,0,1.2c0,0.6-0.8,0.4-1.2,0.3C9.2,37,9.2,37.3,9.3,37.3L9.3,37.3z"/>
		</g>
		<path id="XMLID_320_" class="st4" d="M3.6,37.4c0,0-1,0.2-1.5,0.3c-0.5,0.1-0.8,0.8,0.1,0.8c0.9,0,3.5,0,3.5,0l0-1.3L3.6,37.4z"/>
		<path id="XMLID_321_" class="st5" d="M1.7,38.3c0.1,0.1,0.3,0.2,0.6,0.2c0.9,0,3.5,0,3.5,0v-0.2H1.7z"/>
		<path id="XMLID_322_" class="st5" d="M3,38.1c0,0,0-0.2-0.1-0.3c0,0-0.1-0.3-0.1-0.2c0,0,0-0.1-0.1-0.1c-0.3,0.1-0.6,0.1-0.8,0.2
			c-0.5,0.1-0.6,0.7,0.3,0.8c0.2,0,0.4,0,0.7,0C3,38.4,3,38.3,3,38.1z"/>
		<g id="XMLID_323_">
			<path id="XMLID_324_" class="st5" d="M2,37.8c0.7-0.3,1.4-0.2,2.2-0.3c0.4,0,1.5-0.3,1.5,0.2c0,0.3,0.1,0.6-0.3,0.6
				c-0.4,0-0.7,0-1.1,0c-0.4,0-0.8,0-1.1,0c-0.2,0-0.4,0-0.6,0C2.1,38.4,2,38.2,2,37.8c0.2-0.1,0.1-0.3-0.1-0.3
				c-0.2,0.1-0.5,0.3-0.4,0.6c0.3,0.6,1,0.4,1.5,0.5c0.5,0,0.9,0,1.4,0c0.4,0,0.9,0.1,1.3,0c0.3-0.1,0.2-1,0.2-1.3
				c0-0.1-0.1-0.1-0.1-0.1c-0.6,0-1.3,0.1-1.9,0.1c-0.7,0-1.3,0-1.9,0.3C1.8,37.6,1.9,37.9,2,37.8L2,37.8z"/>
		</g>
		<path id="XMLID_325_" class="st4" d="M10.6,37.4c0,0,1,0.2,1.5,0.3c0.5,0.1,0.8,0.8-0.1,0.8c-0.9,0-3.5,0-3.5,0l0-1.3L10.6,37.4z"
			/>
		<path id="XMLID_326_" class="st5" d="M12.5,38.3c-0.1,0.1-0.3,0.2-0.6,0.2c-0.9,0-3.5,0-3.5,0v-0.2H12.5z"/>
		<path id="XMLID_327_" class="st5" d="M11.2,38.1c0,0,0-0.2,0.1-0.3c0,0,0.1-0.3,0.1-0.2c0,0,0-0.1,0.1-0.1
			c0.3,0.1,0.6,0.1,0.8,0.2c0.5,0.1,0.6,0.7-0.3,0.8c-0.2,0-0.4,0-0.7,0C11.2,38.4,11.2,38.3,11.2,38.1z"/>
		<g id="XMLID_328_">
			<path id="XMLID_329_" class="st5" d="M12.2,37.5c-0.5-0.2-1.1-0.2-1.6-0.3c-0.7,0-1.5-0.1-2.2-0.1c-0.1,0-0.1,0.1-0.1,0.1
				c0,0.2-0.2,1.2,0.2,1.3c0.3,0.1,0.7,0,1,0c0.5,0,1.1,0.1,1.6,0c0.5,0,1.3,0.1,1.5-0.5C12.7,37.8,12.4,37.6,12.2,37.5
				c-0.2-0.1-0.2,0.2-0.1,0.3c0,0.2-0.1,0.3-0.1,0.5c-0.2,0-0.5,0-0.7,0c-0.4,0-0.8,0-1.2,0.1c-0.4,0-1.7,0.1-1.7-0.4
				c0-0.1-0.1-0.5,0.1-0.5c0.4,0,0.7,0,1.1,0.1c0.8,0.1,1.7,0,2.4,0.3C12.3,37.9,12.4,37.6,12.2,37.5L12.2,37.5z"/>
		</g>
	</g>
	<g id="XMLID_330_">
		<g id="XMLID_331_">
			<path id="XMLID_332_" class="st3" d="M17.9,21.4c-0.3,0.9-0.7,1.7-1.1,2.5c-0.4,0.9-0.7,2-1,3c-0.1,0.5-0.6,1.4-0.4,1.9
				c0.1,0.3,0.8,0.5,1,0.6c0.2,0.1,0.3-0.2,0.1-0.2c-1.4-0.6-0.4-2.6-0.1-3.7c0.4-1.4,1.3-2.6,1.6-3.9C18.2,21.3,18,21.2,17.9,21.4
				L17.9,21.4z"/>
		</g>
		<g id="XMLID_333_">
			<path id="XMLID_334_" class="st3" d="M24.3,21.6c0.1,0.4,0.3,0.7,0.4,1.1c0.3,0.5,0.5,1.1,0.7,1.6c0.1,0.2,0.3,0.1,0.3-0.1
				c-0.1-0.4-0.3-0.8-0.5-1.2c-0.2-0.5-0.6-1-0.7-1.5C24.6,21.3,24.3,21.4,24.3,21.6L24.3,21.6z"/>
		</g>
		<g id="XMLID_335_">
			<path id="XMLID_336_" class="st5" d="M23.6,29.8c-0.2,0.7-0.2,1.5-0.2,2.3c-0.1,1-0.1,2-0.3,2.9c0,0.2,0.2,0.3,0.3,0.1
				c0.1-0.7,0.2-1.5,0.2-2.3c0.1-0.9,0-2,0.3-2.9C23.9,29.7,23.6,29.7,23.6,29.8L23.6,29.8z"/>
		</g>
		<g id="XMLID_337_">
			<path id="XMLID_338_" class="st5" d="M18.4,29.8c0,1.4,0.4,2.9,0.5,4.3c0,0.2,0.3,0.2,0.3,0c-0.2-1.4-0.5-2.9-0.5-4.3
				C18.6,29.6,18.4,29.6,18.4,29.8L18.4,29.8z"/>
		</g>
		<g id="XMLID_339_">
			<path id="XMLID_340_" class="st5" d="M20.6,30.1c0.1,0.8,0,1.6,0,2.4c0,1.1,0,2.3-0.2,3.4c0,0.2,0.2,0.3,0.3,0.1
				c0.1-1,0.1-2,0.2-3c0.1-0.9,0.1-2,0-2.9C20.9,29.8,20.6,29.9,20.6,30.1L20.6,30.1z"/>
		</g>
		<g id="XMLID_341_">
			<path id="XMLID_342_" class="st5" d="M21.3,29.9c-0.1,1.1,0.1,2.3,0,3.4c0,1.1,0,2.3,0,3.4c0,0.2,0.3,0.2,0.3,0
				c-0.1-1.1-0.1-2.3,0-3.4c0-1.1-0.1-2.3,0-3.4C21.6,29.8,21.4,29.8,21.3,29.9L21.3,29.9z"/>
		</g>
		<g id="XMLID_343_">
			<path id="XMLID_344_" class="st0" d="M22.9,11.6c0.9,0.1,1.7,0.1,2.6,0.1c0.2,0,0.2-0.3,0-0.3c-0.9,0-1.7,0-2.6-0.1
				C22.7,11.3,22.7,11.6,22.9,11.6L22.9,11.6z"/>
		</g>
		<g id="XMLID_345_">
			<path id="XMLID_346_" class="st0" d="M17.3,11.6c0.7-0.1,1.4-0.1,2.2-0.1c0.2,0,0.2-0.3,0-0.3c-0.7,0-1.5,0-2.2,0.1
				C17,11.4,17.1,11.6,17.3,11.6L17.3,11.6z"/>
		</g>
		<path id="XMLID_347_" class="st4" d="M27.1,17.6c0-3.1-0.8-4.8-3.8-5.3v-0.8h-4v0.8c-3,0.5-3.8,2.2-3.8,5.3l-1.7,8.5l2.1,0.5
			l2.1-9.4c0-2.4,0.4-2.2,3.4-2.1v0c2,0,3.5-0.3,3.5,2.1l1.9,9.4l2.1-0.5L27.1,17.6z"/>
		<polygon id="XMLID_348_" class="st2" points="26,11.5 26,7.8 21.2,7.6 16.4,9.2 16.9,11.5 		"/>
		<path id="XMLID_1038_" class="st4" d="M21.3,26.3l2.7-0.1l-0.8,10.5c0,0,1.5,1.5,0.5,1.7c-1.7,0.3-2.3-1.6-2.3-1.6
			S21.5,30.1,21.3,26.3z"/>
		<path id="XMLID_1037_" class="st2" d="M23.2,36.6c0,0,2.1,2,0.6,2.6c-1.1,0.4-2.4-0.5-2.4-2.3c0,0,1.6,1.7,2,1.4
			C23.8,38.1,23.2,36.6,23.2,36.6z"/>
		<path id="XMLID_1036_" class="st4" d="M21,26.3l-2.7-0.1l0.8,10.5c0,0-1.5,1.5-0.5,1.7c1.7,0.3,2.3-1.6,2.3-1.6S20.7,30.1,21,26.3
			z"/>
		<path id="XMLID_1035_" class="st2" d="M19.1,36.6c0,0-2.1,2-0.6,2.6c1.1,0.4,2.5-0.5,2.5-2.3c0,0-1.7,1.6-2.1,1.4
			C18.4,38.1,19.1,36.6,19.1,36.6z"/>
		<path id="XMLID_349_" class="st1" d="M27.1,28.8c0,0-0.2,1.2-5.8,1.2c-5.7,0-5.8-1.2-5.8-1.2s2.1-9.9,5.8-9.9
			C25,18.8,27.1,28.8,27.1,28.8z"/>
		<path id="XMLID_350_" class="st4" d="M26.3,6.7c0,2.9-2.6,5.2-5.1,5.2c-2.5,0-5.1-2.3-5.1-5.2c0-2.9,2.3-5.2,5.1-5.2
			C24.1,1.4,26.3,3.8,26.3,6.7z"/>
		<path id="XMLID_1032_" class="st4" d="M15.4,27.1c-0.1,0.5-0.6,0.8-1.1,0.6l0,0c-0.5-0.1-0.8-0.6-0.6-1.1l0.3-1.1
			c0.1-0.5,0.6-0.8,1.1-0.6l0,0c0.5,0.1,0.8,0.6,0.6,1.1L15.4,27.1z"/>
		<path id="XMLID_1031_" class="st4" d="M27.1,27.1c0.1,0.5,0.6,0.8,1.1,0.6l0,0c0.5-0.1,0.8-0.6,0.6-1.1l-0.3-1.1
			c-0.1-0.5-0.6-0.8-1.1-0.6l0,0c-0.5,0.1-0.8,0.6-0.6,1.1L27.1,27.1z"/>
		<path id="XMLID_351_" class="st2" d="M26.6,15.2c-0.5-2.2-2.9-2.7-2.9-2.7s-0.1,0.6-0.5,1.1c-0.4,0.5-0.9,1-1.9,1
			c-2,0-2.4-2.1-2.4-2.1s-2.4,0.5-2.9,2.7c-0.4,1.5-0.6,3.5-0.6,3.5l2.5-0.2l0,3.1h3.4h3.4l0-3.1l2.5,0.1
			C27.2,18.5,26.9,16.7,26.6,15.2z"/>
		<path id="XMLID_352_" class="st1" d="M17.2,11.8c0,0-0.2-1.9,0.1-4.8c0.2-1.5,1.1-2.8,1.1-2.8s1.1,1.1,4.4,1.5
			c1.3,0.2,2.5,0.6,2.8,2.1c0.2,1.1,0.1,3.3-0.1,4.1h0.9c1.8-7.1-2-11.3-4.2-11.4c-2.3-0.1-3,1.3-3,1.3s-1.7-0.5-2.8,2.5
			c-1.1,2.9-0.2,7.6-0.2,7.6H17.2z"/>
		<g id="XMLID_353_">
			<path id="XMLID_354_" class="st5" d="M17.1,9.9c0.7,0.5,1.2,1.1,2,1.6c0.7,0.4,1.5,0.4,2.3,0.4c0.2,0,0.2-0.3,0-0.3
				c-0.9,0-1.6,0-2.4-0.5c-0.7-0.4-1.1-1-1.7-1.4C17.1,9.5,16.9,9.8,17.1,9.9L17.1,9.9z"/>
		</g>
		<g id="XMLID_355_">
			<path id="XMLID_356_" class="st5" d="M25.4,9.4c-1,1.1-2.1,2.1-3.7,2.1c-0.2,0-0.2,0.3,0,0.3c1.7,0.1,2.9-1,3.9-2.1
				C25.7,9.5,25.5,9.3,25.4,9.4L25.4,9.4z"/>
		</g>
		<g id="XMLID_357_">
			<path id="XMLID_358_" class="st3" d="M19.3,1.7c1.1-1.2,2.7-1.6,4.2-0.7c1.3,0.8,2.1,2.4,2.6,3.8c0.5,1.3,0.6,2.7,0.5,4
				c0,0.6-0.1,1.2-0.1,1.8c0.1,0.4-0.1,0.8-0.6,1c-0.3,0-0.1-0.9-0.1-1.2C26,9.3,26.2,7,25,6.2c-0.7-0.5-1.5-0.7-2.4-0.8
				c-1.2-0.2-3.1-0.4-4-1.3c-0.1-0.1-0.3,0.1-0.2,0.2c1,1,3.1,1.1,4.5,1.4c1.6,0.3,2.7,0.9,2.7,2.7c0,1.1-0.2,2.2-0.1,3.4
				c0,0.1,0.1,0.1,0.1,0.1c1.2,0.1,1.2-0.4,1.2-1.5c0.1-2.2,0.3-4.1-0.6-6.1c-0.7-1.6-1.7-3.2-3.4-3.9c-1.3-0.5-2.9,0.2-3.8,1.2
				C19,1.7,19.2,1.9,19.3,1.7L19.3,1.7z"/>
		</g>
		<g id="XMLID_359_">
			<path id="XMLID_360_" class="st3" d="M19.2,1.5c-2.9,0.4-3.4,3.7-3.3,6.1c0,1.2-0.1,2.7,0.2,3.8c0.1,0.6,0.7,0.5,1.2,0.4
				c0,0,0.1-0.1,0.1-0.1c0.1-0.7-0.1-1.5-0.1-2.3c-0.1-1.9,0.3-3.4,1.2-5c0.1-0.2-0.2-0.3-0.2-0.1c-0.6,1.2-1,2.3-1.2,3.7
				c-0.1,0.8-0.1,1.5,0,2.3c0,0.2,0,0.5,0.1,0.7c0.1,1.1-0.7,0.7-0.7,0.2c-0.1-2.9-1.2-8.8,2.9-9.3C19.4,1.8,19.3,1.5,19.2,1.5
				L19.2,1.5z"/>
		</g>
		<g id="XMLID_361_">
			<path id="XMLID_362_" class="st5" d="M19.5,11.5c0,0.3,0.1,0.5,0,0.8c0-0.1,0.1-0.1,0,0c-0.1,0-0.1,0-0.2,0
				c-0.1,0-0.3,0.1-0.4,0.1c-0.2,0.1,0,0.3,0.1,0.2c0.2-0.1,0.3-0.1,0.5-0.1c0.1,0,0.1,0,0.2-0.1c0.2-0.2,0.1-0.6,0.1-0.9
				C19.7,11.3,19.5,11.3,19.5,11.5L19.5,11.5z"/>
		</g>
		<g id="XMLID_363_">
			<path id="XMLID_364_" class="st5" d="M22.8,11.4c0,0.3,0,0.6,0,0.9c0,0.2,0.5,0.3,0.7,0.4c0.2,0.1,0.3-0.1,0.1-0.2
				c-0.1-0.1-0.2-0.1-0.3-0.1c-0.1,0-0.1-0.1-0.2-0.1c-0.1,0-0.1-0.1,0,0c-0.1-0.2,0-0.5,0-0.7C23.1,11.3,22.9,11.2,22.8,11.4
				L22.8,11.4z"/>
		</g>
		<g id="XMLID_365_">
			<path id="XMLID_366_" class="st0" d="M18.7,12.6c0.5,1.1,1.1,2.1,2.4,2.2c2.3,0.2,1.9-1.3,2.8-2.2c0.2-0.2-0.2-0.2-0.3-0.1
				c-0.4,1.2-1.1,2-2.5,2c-1.2,0-1.8-1.1-2.2-2.1C18.8,12.2,18.6,12.4,18.7,12.6L18.7,12.6z"/>
		</g>
		<g id="XMLID_367_">
			<path id="XMLID_368_" class="st0" d="M23.8,12.7c2.2,0.8,0.8,0.2,2,1.1c0.7,0.6,0.8,1.7,1,2.6c0.1,0.4,0.1,0.7,0.1,1
				c0.1,0.5,0.5,1.2-0.5,1c-0.5-0.1-1.1-0.1-1.7-0.1c-0.2,0-0.2,0.3,0,0.3c0.6,0,1.2,0,1.8,0.1c0.1,0,0.4,0.1,0.6,0
				c0.5-0.3,0.1-1.9,0.1-2.3c-0.1-0.9-0.3-2.1-1-2.8c-0.6-0.7-1.4-1.1-2.1-1.2C23.8,12.4,23.6,12.6,23.8,12.7L23.8,12.7z"/>
		</g>
		<g id="XMLID_369_">
			<path id="XMLID_370_" class="st0" d="M18.7,12.3c-0.9,0.3-2.1,0.9-2.6,1.9c-0.7,1.3-0.5,3-0.7,4.3c0,0.1,0,0.2,0.1,0.2
				c0.7,0.1,1.4,0.1,2.1,0c0.3,0,0.1,2.4,0.2,2.6c0,0.2,0.3,0.1,0.3-0.1c-0.2-0.8,0.1-1.9,0.1-2.8c0-0.1-0.1-0.2-0.2-0.1
				c-0.1,0-2.3,0.3-2.2-0.1c0.1-0.6,0.1-1.1,0.2-1.7c0.1-1.9,1.1-3.4,2.9-4C18.9,12.5,18.8,12.3,18.7,12.3L18.7,12.3z"/>
		</g>
		<g id="XMLID_371_">
			<path id="XMLID_372_" class="st0" d="M24.5,18.6c0,0.7,0,1.3,0,2c0,0.8-0.1,0.7-0.9,0.7c-1.5,0-3,0.3-4.5-0.1
				c-0.2,0-0.2,0.2-0.1,0.3c1.8,0.4,3.6-0.1,5.3,0.1c0.2,0,0.4,0,0.4-0.2c0-0.9,0-1.8-0.1-2.7C24.7,18.4,24.5,18.4,24.5,18.6
				L24.5,18.6z"/>
		</g>
		<g id="XMLID_373_">
			<path id="XMLID_374_" class="st3" d="M26.6,27.6c0.1,0.2,0.2,0.4,0.2,0.7c0,0.1,0,0.2,0.1,0.2c0.1,0.3-0.1,0.4-0.3,0.5
				c-0.5,0.3-1.2,0.3-1.8,0.2c-0.2,0-0.2,0.3,0,0.3c0.7,0.1,1.7,0,2.2-0.5c0.4-0.4,0-1.2-0.2-1.6C26.7,27.3,26.5,27.4,26.6,27.6
				L26.6,27.6z"/>
		</g>
		<g id="XMLID_375_">
			<path id="XMLID_376_" class="st3" d="M26.2,26.6c0.2,0.2,0.1,0.6,0.3,0.8c0.1,0.2,0.3,0,0.2-0.1c-0.1-0.3-0.1-0.6-0.3-0.8
				C26.3,26.3,26.1,26.4,26.2,26.6L26.2,26.6z"/>
		</g>
		<g id="XMLID_377_">
			<path id="XMLID_378_" class="st3" d="M26.9,27.5c-0.1-0.3-0.2-0.5-0.3-0.7c-0.1-0.2-0.3,0-0.2,0.1c0.1,0.2,0.2,0.4,0.3,0.7
				C26.6,27.8,26.9,27.7,26.9,27.5L26.9,27.5z"/>
		</g>
		<g id="XMLID_379_">
			<path id="XMLID_380_" class="st3" d="M26.5,26.7c-0.1-0.1-0.1-0.2-0.1-0.4c0-0.2-0.3-0.1-0.3,0.1c0,0.2,0.1,0.3,0.2,0.5
				C26.4,27,26.6,26.9,26.5,26.7L26.5,26.7z"/>
		</g>
		<g id="XMLID_381_">
			<path id="XMLID_382_" class="st6" d="M19.3,38.5c0.2,0,0.2-0.3,0-0.3C19.1,38.2,19.1,38.5,19.3,38.5L19.3,38.5z"/>
		</g>
		<g id="XMLID_383_">
			<path id="XMLID_384_" class="st0" d="M19,36.6c-0.4,0.4-0.8,1-1,1.5c-0.1,0.4,0.3,0.7,0.6,0.9c0.2,0.1,0.3-0.2,0.1-0.2
				c-0.1-0.1-0.3-0.2-0.4-0.3c-0.2-0.2,0.1-0.5,0.2-0.7c0.2-0.3,0.4-0.6,0.7-0.9C19.3,36.7,19.1,36.5,19,36.6L19,36.6z"/>
		</g>
		<g id="XMLID_385_">
			<path id="XMLID_386_" class="st0" d="M18.9,36.7c-0.2,0.4-0.5,1-0.4,1.5c0.2,0.6,0.9,0.3,1.3,0.1c0.2-0.1,0-0.3-0.1-0.2
				c-0.2,0.1-0.9,0.4-0.9-0.1c0-0.4,0.2-0.8,0.4-1.1C19.3,36.7,19,36.5,18.9,36.7L18.9,36.7z"/>
		</g>
		<g id="XMLID_387_">
			<path id="XMLID_388_" class="st0" d="M20,38.2c0.5-0.3,0.8-0.7,1-1.2c-0.1,0-0.2,0-0.3,0c0,0.2-0.1,0.4-0.2,0.6
				C20.4,37.9,20.2,38.1,20,38.2c-0.1,0.1,0,0.4,0.2,0.3c0.3-0.2,0.4-0.4,0.6-0.7c0.1-0.2,0.3-0.6,0.3-0.9c0-0.2-0.2-0.2-0.3,0
				c-0.1,0.5-0.4,0.8-0.8,1.1C19.7,38.1,19.8,38.3,20,38.2L20,38.2z"/>
		</g>
		<g id="XMLID_389_">
			<path id="XMLID_390_" class="st0" d="M21.3,37c0.1,0.3,0.3,0.6,0.5,0.8c0.2,0.3,0.4,0.6,0.7,0.7c0.2,0.1,0.3-0.1,0.1-0.2
				c-0.2-0.1-0.4-0.4-0.5-0.6c-0.2-0.3-0.4-0.5-0.5-0.8C21.5,36.7,21.2,36.8,21.3,37L21.3,37z"/>
		</g>
		<g id="XMLID_391_">
			<path id="XMLID_392_" class="st0" d="M21.2,36.9c0.2,1,0.6,2.1,1.7,2.3c0.2,0,0.2-0.2,0.1-0.3c-1-0.2-1.3-1.3-1.5-2.1
				C21.5,36.7,21.2,36.8,21.2,36.9L21.2,36.9z"/>
		</g>
		<g id="XMLID_393_">
			<path id="XMLID_394_" class="st0" d="M23,36.8c0.2,0.5,0.9,1.2,0.5,1.7c-0.1,0.1,0.1,0.3,0.2,0.2c0.6-0.7-0.1-1.4-0.4-2
				C23.2,36.5,22.9,36.6,23,36.8L23,36.8z"/>
		</g>
	</g>
</g>
</svg>
