<?xml version="1.0" encoding="utf-8"?>
<!-- Generator: Adobe Illustrator 19.0.0, SVG Export Plug-In . SVG Version: 6.00 Build 0)  -->
<svg version="1.1" id="Layer_1" xmlns="http://www.w3.org/2000/svg" xmlns:xlink="http://www.w3.org/1999/xlink" x="0px" y="0px"
	 viewBox="0 0 780.6 274.3" style="enable-background:new 0 0 780.6 274.3;" xml:space="preserve">
<style type="text/css">
	.st0{fill:#FFC044;}
	.st1{fill:#44414B;}
	.st2{fill:#F29000;}
	.st3{fill:#FFF5D9;}
	.st4{fill:none;stroke:#F29000;stroke-width:5.4377;stroke-miterlimit:10;}
	.st5{fill:none;stroke:#F29000;stroke-width:6;stroke-miterlimit:10;}
	.st6{fill:#C9A877;}
	.st7{fill:#FFEDD4;}
	.st8{opacity:0.2;}
	.st9{fill:#001D2D;}
</style>
<g id="קופה_1_">
	<g id="XMLID_9630_">
		<rect id="XMLID_9631_" x="288.6" y="140.9" class="st0" width="468.3" height="133.4"/>
	</g>
	<g id="XMLID_9628_">
		<polygon id="XMLID_9629_" class="st1" points="309.8,121 760.7,121.4 736.3,94.7 332.5,95.1 		"/>
	</g>
	<rect id="XMLID_9617_" x="756.8" y="139.4" class="st0" width="23.2" height="134.7"/>
	<g id="XMLID_9610_">
		<polygon id="XMLID_9614_" class="st0" points="314.3,121.1 332.5,95.1 314.3,95.1 294.3,121.1 		"/>
		<polygon id="XMLID_9613_" class="st2" points="312.3,121.1 317.7,121.1 337.7,95.1 332.5,95.1 		"/>
	</g>
	<g id="XMLID_6414_">
		<polygon id="XMLID_6418_" class="st0" points="760.7,121.1 740.7,94.8 760.7,94.8 780.6,121.1 		"/>
		<polygon id="XMLID_6416_" class="st2" points="762.6,121.1 757.2,121.1 736.8,94.7 742.6,94.8 		"/>
	</g>
	<g id="XMLID_8059_">
		<rect id="XMLID_8823_" x="293.5" y="121" class="st3" width="486.5" height="19.9"/>
	</g>
	<g id="XMLID_8990_">
		<polygon id="XMLID_8991_" class="st0" points="0,274.3 288.7,274.3 288.7,140.9 0,160.8 		"/>
	</g>
	<g id="XMLID_8988_">
		<polygon id="XMLID_8989_" class="st1" points="0,140.9 289.5,121.4 308.8,95.1 24.4,114.6 		"/>
	</g>
	<g id="XMLID_6419_">
		<polygon id="XMLID_8987_" class="st0" points="121.4,274.1 121.2,140.8 101.3,140.8 101.4,274.1 		"/>
		<path id="XMLID_8826_" class="st4" d="M122,274.1"/>
		<path id="XMLID_8825_" class="st4" d="M122,140.9"/>
	</g>
	<polygon id="XMLID_8976_" class="st0" points="122.1,132.7 141.7,106.6 122,108.1 102.3,134 	"/>
	<polygon id="XMLID_8974_" class="st2" points="119.6,131.7 125.3,131.9 145.1,106.3 139,106.7 	"/>
	<polygon id="XMLID_8967_" class="st2" points="294.3,121.1 288.9,121.1 308.8,95.1 314.3,95.1 	"/>
	<g id="XMLID_6420_">
		<polygon id="XMLID_6421_" class="st3" points="0,160.8 294.1,140.9 294.1,121 0,140.9 		"/>
	</g>
	<rect id="XMLID_9141_" x="321" y="185.1" class="st3" width="459" height="11"/>
	<polygon id="XMLID_9142_" class="st3" points="0.3,205.1 321,185.6 321,196.5 0,216.4 0,216 0,216 0,205.1 	"/>
	<line id="XMLID_8985_" class="st5" x1="122.2" y1="131.8" x2="122" y2="274.1"/>
	<polygon id="XMLID_12_" class="st2" points="97.3,134.1 102.9,134.5 122.7,108.1 116.9,108.5 	"/>
	<line id="XMLID_3_" class="st5" x1="100" y1="134.1" x2="100" y2="274.1"/>
	<line id="XMLID_9616_" class="st5" x1="315" y1="121.1" x2="315" y2="274.1"/>
	<line id="XMLID_6422_" class="st5" x1="292" y1="121.1" x2="292" y2="274.1"/>
	<line id="XMLID_9608_" class="st5" x1="760" y1="121.1" x2="760" y2="274.1"/>
</g>
<g id="שקיות">
	<g id="XMLID_8827_">
		<g id="XMLID_9500_">
			<g id="XMLID_9504_">
				<path id="XMLID_59_" class="st6" d="M192.7,1.7c0.6,13-0.7,24.1,0.2,37.1c0.7,10.6,1,20.5,0.2,32.8c-0.3,4.4,0.8,8.8-0.2,13.1
					c-0.4,1.8-0.9,3.5-0.5,5.3c0.9,4.8,1.7,11.8-0.1,13.5c-2,0.3-2.4-1.9-4.4-2.8c-0.4-3.9-0.6-7.7-0.2-11.6c0.3-2.4,1.1-4.7,0.9-7
					c-1-13.3-0.8-26.5-0.3-39.9c0.1-3.6-0.7-7.1-0.7-10.7c-0.1-4.5,0.5-9,1.1-13.5c0.6-4.6,1.2-7.4,1.8-12c0.3-2.1,2.1-4,4.2-4.6"/>
			</g>
			<g id="XMLID_9503_">
				<path id="XMLID_57_" class="st6" d="M231.3,0.7c-3.1,2,0.3,16.3-1.8,24.4c-0.2,0.8-1.5,2.5-1.5,3.4c0,0.9,0.3,1.8,1.1,2.3
					c0.7,0.4,1.5,0.4,2.3,0.2c0.7-0.1,1.3-0.3,1.8-0.8c0.6-0.6,0.9-1.4,1-2.2c0.8-4.2-0.5-8.6-0.8-12.9c-0.2-2.9,0.1-5.7,0.2-8.6
					c0.1-1.9-0.9-4.1-2.2-5.5"/>
			</g>
			<g id="XMLID_9502_">
				<path id="XMLID_55_" class="st7" d="M247.9,101.7c-0.1-12-0.1-21.6-0.2-33.5c0-3.9-0.1-7.7,0.1-11.6c0.2-4.2,1.7-8.4,1.6-12.6
					c-0.2-6.9,0.5-13.8,0-20.6c-0.6-8.5-1.7-14.3-3.7-22.6c-0.1-0.2-0.1-0.5-0.3-0.6c-0.1-0.1-0.3,0-0.5,0c-4.2,0.9-8.3-0.9-12.5,0
					c-0.5,0.1-1.2,0.3-1.4,0.8c-0.2,0.3-0.1,0.7,0,1.1c1.7,8.2,2.1,16.7,1.2,25.1c-0.1,0.5-0.1,1.1-0.4,1.5c-1,1.7-3.5,0.9-5.4,0.1
					c-3.7-1.5-7.9-0.2-11.9-0.9c-1.8-0.3-3.8,1.1-5.5,0.5c-2.6-1-3.2-4.3-3.4-7c-0.5-5.2-0.9-10.5-1.4-15.7c-0.1-1.4-0.3-3-1.3-4
					c-0.8-0.8-2-1.1-3.1-1.3c-1.3-0.3-2.5,1.3-3.8,1c-0.9-0.2-1.8-0.4-2.6,0c-1,0.5-1.4,1.9-1.5,3c-0.4,4.1,0.3,6.3,0.3,10.4
					c-0.1,4.3-1.1,8.6-1.2,12.9c-0.3,6.7,3,13.3,2,20c-1.1,7.9-0.4,15.4-0.9,23.1c-0.7,10.8-0.4,21.7,0.1,32.6
					c8.6-0.9,17.6,2.4,25.9,0.1c2.6-0.7,5-0.1,7.7-0.4c3.2-0.3,6.4-1,9.5-0.2C239.7,104,243.4,102.4,247.9,101.7z"/>
			</g>
			<g id="XMLID_9501_" class="st8">
				<path id="XMLID_54_" class="st6" d="M222.9,94.9c6-4.7,10.8-11,13.8-18.1c2.7-6.4,3.8-13.2,5.7-19.9c1.5-5.2,3.6-10.3,7-14.5
					c0,0.5,0.1,1,0.1,1.6c0.1,4.2-1.3,8.4-1.6,12.6c-0.2,3.9-0.2,7.7-0.1,11.6c0.1,12,0.1,21.6,0.2,33.5c-4.5,0.6-8.2,2.2-12.6,1.2
					c-3.1-0.7-6.3-0.1-9.5,0.2c-2.7,0.3-5.1-0.3-7.7,0.4c-1.5,0.4-3.1,0.7-4.6,0.8c1-1.4,1.9-2.9,3-4.2
					C218.4,98.1,220.7,96.6,222.9,94.9z"/>
			</g>
		</g>
		<g id="לוגו_4_">
			<path id="XMLID_167_" class="st0" d="M226,57.6c-1.2-0.1-2.2-0.3-3.1-0.2c-2.1,0-3,0.4-4.8,0.6c-0.9,0.1-2.6-0.2-3.5-0.2
				c-2.5,0-7.6,0.7-7.7,0.8c-0.5,0.2,0.1,1.7-0.7,4.8c-0.9,3.3,0.2,3.5-0.5,5.8c-0.4,1.1-0.5,2.3-0.4,3.5c0,0.6,3.6,0.2,6.5,0.3
				c3.9,0.2,5.8-0.3,8.5-0.3c2.7,0,4.8-1.1,5.8-1.1c0.5,0,1.9,0.2,2.2-0.3c0.3-0.4,0.2-1,0.2-1.4c0-4.6,1.5-6.5,1-12
				C229.3,56.6,227.4,57.7,226,57.6z"/>
			<path id="XMLID_166_" class="st9" d="M211.3,66c0-0.1-0.1-0.1-0.1-0.1c-0.3,0-0.8-0.1-1.1,0.1c-0.4,0.3-0.2,0.4-1.2,0.8
				c-0.1,0-0.1,0.1-0.1,0.1c-0.1,1,0,0.7,0.8,0.7c0.1,2.7,0,2.8,0.2,2.8c0.5,0,1-0.1,1.5-0.1c0.1,0,0.1-0.1,0.1-0.1
				C211.4,68.9,211.3,67.5,211.3,66z"/>
			<path id="XMLID_165_" class="st9" d="M213.9,65.9c0-0.1-0.1-0.1-0.1-0.1c-0.2,0-0.4,0-0.6,0c-0.2,0-0.3,0.2-0.5,0.3
				c-0.9,0.6-1.1,0.4-1,1.3c0,0.1,0.1,0.1,0.1,0.1c0.2,0,0.4,0,0.6-0.1c0,0.5,0,1,0,1.5c0,0.3-0.1,0.9,0,1.2
				c0.1,0.1,0.1,0.2,0.2,0.2c0.2,0,0.4-0.1,0.6-0.1c0.3,0,0.6,0,0.9,0C214.4,70.3,214.4,70.4,213.9,65.9z"/>
			<path id="XMLID_164_" class="st9" d="M217,67.2c-0.1,0-0.8,0-0.8-0.1c1.7-0.1,1.8,0.1,1.7-0.6c-0.1-1.4-0.2-1.2-0.9-1
				c-0.8,0.2-1.6,0.2-2.4,0.2c0,0-0.1,0-0.1,0c0,0,0,0,0,0.1c0.2,2.4,0.1,2.5,0.5,2.5c0.3,0.1,1.5-0.3,1.7,0.1
				c0.2,0.4-0.4,0.3-1.7,0.3c-0.1,0-0.1,0.1-0.1,0.1c0,0.4-0.1,0.7-0.1,1.1c0,0.1,0.1,0.2,0.2,0.1c0.9-0.2,1.9,0.3,2.8-0.2
				C218.5,69.4,218.4,67.4,217,67.2z"/>
			<path id="XMLID_163_" class="st9" d="M212.7,60.8c-0.3-0.4-0.9-0.2-1.3-0.2c-2.2,0.1-2.4,0-2.4,0.2c0,0.4,0,0.9,0,1.3
				c0,0.1,0.1,0.1,0.1,0.1c0.7,0.1,1.4,0.1,2.2,0c0,0.4,0,0.8,0,1.2c0,0.4-0.1,0.9,0.1,1.3c0.2,0.6,1.1,0.2,1.6,0.3
				c0.1,0,0.2-0.1,0.2-0.1c0-0.8,0-1.6-0.1-2.4C212.9,62,213,61.2,212.7,60.8z"/>
			<path id="XMLID_162_" class="st9" d="M215.4,60.4c-0.5-0.1-1.7,0.1-1.8,0.1c0,0-0.1,0.1-0.1,0.1c0.2,1.5-0.4,1.5,0.8,1.3
				c0.1,0.3,0.1,0.6,0.1,0.9c-0.1,0.7-1.3,0.4-1.3,0.9c0,0.2,0.1,0.4,0.1,0.6c0,0.2,0,0.4,0.2,0.5c0.2,0.2,0.9,0,1.2,0
				c0.1,0,0.1-0.1,0.1-0.2c-0.1-0.3-0.1-0.6,0.1-1c0.1,0.2,0.1,0.3,0.2,0.5c0,0.1,0.1,0.4,0.1,0.5c0.2,0.2,1,0,1.3-0.1
				c0.1,0,0.1-0.1,0.1-0.1C216,61,216.1,60.5,215.4,60.4z"/>
			<path id="XMLID_161_" class="st9" d="M220.7,60.2c-0.4-0.2-1.1,0-1.5,0.1c-0.9,0.1-2.3,0-2.3,0.3c0.1,1.5-0.3,1.4,0.5,1.3
				c-0.4,0.4-0.1,0.6-0.2,1c0,0.3,0,0.2-0.3,0.3c-0.1,0-0.1,0.1-0.1,0.1c0.1,1-0.2,1.4,0.1,1.3c1.9-0.2,2-0.1,2-0.3
				c-0.1-0.9-0.1-1.8-0.1-2.7c0.3,0,0.5,0,0.8-0.1c0,0.6,0.1,1.1,0.1,1.7c0,0.2-0.1,1.2,0.2,1.2c0.9-0.1,1.6,0,1.6-0.2
				C221,61.7,221.6,60.5,220.7,60.2z"/>
			<path id="XMLID_160_" class="st9" d="M225.6,62.6c0.1-0.1,0.2-0.1,0.2-0.3c0.1-0.3,0.1-0.7,0.1-0.9c0.1-0.4,0.1-0.7,0.2-1.1
				c0-0.1,0-0.1-0.1-0.2c-0.5-0.1-0.9-0.1-1.4-0.3c-0.1,0-0.2,0-0.2,0.1c0,0.5-0.2,0.9-0.3,1.4c-0.4-0.5-0.9-0.9-1.4-1.4
				c-0.1-0.2-1,0.5-1.1,0.7c-0.1,0.1,0,0.1,0,0.2c0.2,0.3,0.4,0.7,0.6,0.9c-0.1,0.1-0.2,0.2-0.4,0.2c-0.1,0-0.1,0.1-0.1,0.1
				c0,0.4,0.1,0.8,0.2,1.2c0,0.6-0.1,1.3,0.2,1.2c0.4-0.1,0.8-0.1,1.3,0c0.1,0,0.2,0,0.2-0.1c0-0.4,0-0.7-0.1-1.1
				c1.5,1.5,1,1,2.2,1.1c0.2,0,0.2-0.4,0.3-1c0-0.1,0-0.1-0.1-0.1c-0.1-0.1-0.3-0.2-0.4-0.3C225.4,62.7,225.4,62.8,225.6,62.6z"/>
			<g id="XMLID_157_">
				<path id="XMLID_159_" class="st9" d="M226.3,69.2c-0.2-0.8-0.3-1.7-0.2-2.5c0-0.4,0.1-0.9-0.2-1.2c-0.3-0.3-0.9-0.2-1.3-0.2
					c-0.7,0-1.5,0.1-2.2,0.1c-0.2,0-0.2,0.1-0.3,0.2c0,0,0,0.1,0,0.1c0,0.4-0.2,1,0.2,1.2c0.2,0.1,0.6,0,0.9,0c0.4,0,0.9,0,1.3-0.1
					c0.1,0.8-0.1,1.6,0,2.4c0,0.2,0.1,0.3,0.3,0.3c0.4,0,0.7,0,1.1,0C226.3,69.6,226.3,69.4,226.3,69.2z"/>
				<path id="XMLID_158_" class="st9" d="M223.7,67.3c-0.4,0-0.8,0-1.2,0c-0.2,0-0.2,0.1-0.2,0.3c0,0,0,0,0,0c0,0.3,0,0.6,0.1,0.9
					c0,0.3,0,0.6,0.1,0.9c0.1,0.5,0.8,0.3,1.2,0.3c0.2,0,0.3-0.2,0.3-0.3c0-0.6,0.1-1.2,0.1-1.8C224,67.4,223.8,67.2,223.7,67.3z"/>
			</g>
			<path id="XMLID_156_" class="st9" d="M221.3,66.8c-0.8,0.1-1.5,0.1-2.3,0c0,0-0.1,0-0.1,0c-0.1,0-0.3,0.1-0.3,0.3
				c0,0.3,0.1,0.6,0.2,0.9c0,0.1,0.1,0.2,0.2,0.2c0.3,0.1,0.6-0.1,0.9-0.1c0.4,0,0.7,0,1.1,0c0.6-0.1,0.4-0.6,0.5-1
				C221.7,67,221.5,66.8,221.3,66.8z"/>
		</g>
	</g>
	<g id="XMLID_9135_">
		<g id="XMLID_9448_">
			<g id="XMLID_8978_">
				<path id="XMLID_51_" class="st6" d="M275.6,14.5c-0.6,13,0.7,25.9-0.2,38.9c-0.7,10.6-1,20.5-0.2,32.8c0.3,4.4-0.8,8.8,0.2,13.1
					c0.4,1.8,0.9,3.5,0.5,5.3c-0.9,4.8-1.7,11.8,0.1,13.5c2,0.3,3.5-1.9,5.5-2.8c0.4-3.9-1.5-7.7-2-11.6c-0.3-2.4,0-4.7,0.2-7.1
					c1-13.3-0.6-26.7,0.3-39.9c0.3-3.6,0.7-7.1,0.7-10.7c0.1-4.5-0.5-9-1.1-13.5c-0.6-4.6-1.2-9.2-1.8-13.8c-0.3-2.1-2.1-4-4.2-4.6"
					/>
			</g>
			<g id="XMLID_9406_">
				<path id="XMLID_49_" class="st6" d="M236.9,15.3c3.1,2,0.7,17.1,2.9,25.2c0.2,0.8,0.5,1.7,0.5,2.6c0,0.9-0.3,1.8-1.1,2.3
					c-0.7,0.4-1.5,0.4-2.3,0.2c-0.7-0.1-1.3-0.3-1.8-0.8c-0.6-0.6-0.9-1.4-1-2.2c-0.8-4.2,0.5-8.6,0.8-12.9c0.2-2.9-0.1-5.7-0.2-8.6
					c-0.1-1.9,0.9-4.1,2.2-5.5"/>
			</g>
			<g id="XMLID_8973_">
				<path id="XMLID_47_" class="st3" d="M219.4,118.1c0.1-12,0.1-23.4,0.2-35.3c0-3.9,0.1-7.7-0.1-11.6c-0.2-4.2-0.8-8.4-0.7-12.6
					c0.2-6.9,2.2-13.6,2.8-20.4c0.6-8.5-1.1-17.2,1-25.5c0.1-0.2,0.1-0.5,0.3-0.6c0.1-0.1,0.3,0,0.5,0c4.2,0.9,8.3,1.8,12.5,2.7
					c0.5,0.1,1.2,0.3,1.4,0.8c0.2,0.3,0.1,0.7,0,1.1c-1.7,8.2-2.1,16.7-1.2,25.1c0.1,0.5,0.1,1.1,0.4,1.5c1,1.7,3.5,0.9,5.4,0.1
					c3.7-1.5,8-1.8,11.9-0.9c1.8,0.4,3.8,1.1,5.5,0.5c2.6-1,3.2-4.3,3.4-7c0.5-5.2,0.9-10.5,1.4-15.7c0.1-1.4,0.3-3,1.3-4
					c0.8-0.8,2-1.1,3.1-1.3c1.3-0.3,2.5-0.5,3.8-0.8c0.9-0.2,1.8-0.4,2.6,0c1,0.5,1.4,1.9,1.5,3c0.4,4.1-0.3,8.1-0.3,12.2
					c0.1,4.3,1.1,8.6,1.2,12.9c0.3,6.7-1.5,13.3-2,20c-0.6,7.7,0.4,15.4,0.9,23.1c0.7,10.8,0.4,21.7-0.1,32.6
					c-8.6-0.9-17.6,2.4-25.9,0.1c-2.6-0.7-5-1.9-7.7-2.2c-3.2-0.3-6.4,0.8-9.5,1.6C228.5,118.5,223.9,118.7,219.4,118.1z"/>
			</g>
			<g id="XMLID_9466_" class="st8">
				<path id="XMLID_46_" class="st6" d="M245.3,109.5c-6-4.7-10.8-11-13.8-18.1c-2.7-6.4-3.8-13.2-5.7-19.9
					c-1.5-5.2-3.6-10.3-7-14.5c0,0.5-0.1,1-0.1,1.6c-0.1,4.2,0.4,8.4,0.7,12.6c0.2,3.9,0.2,7.7,0.1,11.6c-0.1,12-0.1,23.4-0.2,35.3
					c4.5,0.6,9.1,0.4,13.5-0.6c3.1-0.7,6.3-1.9,9.5-1.6c2.7,0.3,5.1,1.5,7.7,2.2c1.5,0.4,3.1,0.7,4.6,0.8c-1-1.4-1.9-2.9-3-4.2
					C249.8,112.7,247.5,111.1,245.3,109.5z"/>
			</g>
		</g>
		<g id="לוגו_3_">
			<path id="XMLID_155_" class="st0" d="M258,68.6c-1.2-0.1-2.2-0.3-3.1-0.2c-2.1,0-3,0.4-4.8,0.6c-0.9,0.1-2.6-0.2-3.5-0.2
				c-2.5,0-7.6,0.7-7.7,0.8c-0.5,0.2,0.1,1.7-0.7,4.8c-0.9,3.3,0.2,3.5-0.5,5.8c-0.4,1.1-0.5,2.3-0.4,3.5c0,0.6,3.6,0.2,6.5,0.3
				c3.9,0.2,5.8-0.3,8.5-0.3c2.7,0,4.8-1.1,5.8-1.1c0.5,0,1.9,0.2,2.2-0.3c0.3-0.4,0.2-1,0.2-1.4c0-4.6,1.5-6.5,1-12
				C261.3,67.6,259.4,68.7,258,68.6z"/>
			<path id="XMLID_154_" class="st9" d="M243.3,77c0-0.1-0.1-0.1-0.1-0.1c-0.3,0-0.8-0.1-1.1,0.1c-0.4,0.3-0.2,0.4-1.2,0.8
				c-0.1,0-0.1,0.1-0.1,0.1c-0.1,1,0,0.7,0.8,0.7c0.1,2.7,0,2.8,0.2,2.8c0.5,0,1-0.1,1.5-0.1c0.1,0,0.1-0.1,0.1-0.1
				C243.4,79.9,243.3,78.5,243.3,77z"/>
			<path id="XMLID_153_" class="st9" d="M245.9,76.9c0-0.1-0.1-0.1-0.1-0.1c-0.2,0-0.4,0-0.6,0c-0.2,0-0.3,0.2-0.5,0.3
				c-0.9,0.6-1.1,0.4-1,1.3c0,0.1,0.1,0.1,0.1,0.1c0.2,0,0.4,0,0.6-0.1c0,0.5,0,1,0,1.5c0,0.3-0.1,0.9,0,1.2
				c0.1,0.1,0.1,0.2,0.2,0.2c0.2,0,0.4-0.1,0.6-0.1c0.3,0,0.6,0,0.9,0C246.4,81.3,246.4,81.4,245.9,76.9z"/>
			<path id="XMLID_152_" class="st9" d="M249,78.2c-0.1,0-0.8,0-0.8-0.1c1.7-0.1,1.8,0.1,1.7-0.6c-0.1-1.4-0.2-1.2-0.9-1
				c-0.8,0.2-1.6,0.2-2.4,0.2c0,0-0.1,0-0.1,0c0,0,0,0,0,0.1c0.2,2.4,0.1,2.5,0.5,2.5c0.3,0.1,1.5-0.3,1.7,0.1
				c0.2,0.4-0.4,0.3-1.7,0.3c-0.1,0-0.1,0.1-0.1,0.1c0,0.4-0.1,0.7-0.1,1.1c0,0.1,0.1,0.2,0.2,0.1c0.9-0.2,1.9,0.3,2.8-0.2
				C250.5,80.4,250.4,78.4,249,78.2z"/>
			<path id="XMLID_151_" class="st9" d="M244.7,71.8c-0.3-0.4-0.9-0.2-1.3-0.2c-2.2,0.1-2.4,0-2.4,0.2c0,0.4,0,0.9,0,1.3
				c0,0.1,0.1,0.1,0.1,0.1c0.7,0.1,1.4,0.1,2.2,0c0,0.4,0,0.8,0,1.2c0,0.4-0.1,0.9,0.1,1.3c0.2,0.6,1.1,0.2,1.6,0.3
				c0.1,0,0.2-0.1,0.2-0.1c0-0.8,0-1.6-0.1-2.4C244.9,73,245,72.2,244.7,71.8z"/>
			<path id="XMLID_150_" class="st9" d="M247.4,71.4c-0.5-0.1-1.7,0.1-1.8,0.1c0,0-0.1,0.1-0.1,0.1c0.2,1.5-0.4,1.5,0.8,1.3
				c0.1,0.3,0.1,0.6,0.1,0.9c-0.1,0.7-1.3,0.4-1.3,0.9c0,0.2,0.1,0.4,0.1,0.6c0,0.2,0,0.4,0.2,0.5c0.2,0.2,0.9,0,1.2,0
				c0.1,0,0.1-0.1,0.1-0.2c-0.1-0.3-0.1-0.6,0.1-1c0.1,0.2,0.1,0.3,0.2,0.5c0,0.1,0.1,0.4,0.1,0.5c0.2,0.2,1,0,1.3-0.1
				c0.1,0,0.1-0.1,0.1-0.1C248,72,248.1,71.5,247.4,71.4z"/>
			<path id="XMLID_149_" class="st9" d="M252.7,71.2c-0.4-0.2-1.1,0-1.5,0.1c-0.9,0.1-2.3,0-2.3,0.3c0.1,1.5-0.3,1.4,0.5,1.3
				c-0.4,0.4-0.1,0.6-0.2,1c0,0.3,0,0.2-0.3,0.3c-0.1,0-0.1,0.1-0.1,0.1c0.1,1-0.2,1.4,0.1,1.3c1.9-0.2,2-0.1,2-0.3
				c-0.1-0.9-0.1-1.8-0.1-2.7c0.3,0,0.5,0,0.8-0.1c0,0.6,0.1,1.1,0.1,1.7c0,0.2-0.1,1.2,0.2,1.2c0.9-0.1,1.6,0,1.6-0.2
				C253,72.7,253.6,71.5,252.7,71.2z"/>
			<path id="XMLID_148_" class="st9" d="M257.6,73.6c0.1-0.1,0.2-0.1,0.2-0.3c0.1-0.3,0.1-0.7,0.1-0.9c0.1-0.4,0.1-0.7,0.2-1.1
				c0-0.1,0-0.1-0.1-0.2c-0.5-0.1-0.9-0.1-1.4-0.3c-0.1,0-0.2,0-0.2,0.1c0,0.5-0.2,0.9-0.3,1.4c-0.4-0.5-0.9-0.9-1.4-1.4
				c-0.1-0.2-1,0.5-1.1,0.7c-0.1,0.1,0,0.1,0,0.2c0.2,0.3,0.4,0.7,0.6,0.9c-0.1,0.1-0.2,0.2-0.4,0.2c-0.1,0-0.1,0.1-0.1,0.1
				c0,0.4,0.1,0.8,0.2,1.2c0,0.6-0.1,1.3,0.2,1.2c0.4-0.1,0.8-0.1,1.3,0c0.1,0,0.2,0,0.2-0.1c0-0.4,0-0.7-0.1-1.1
				c1.5,1.5,1,1,2.2,1.1c0.2,0,0.2-0.4,0.3-1c0-0.1,0-0.1-0.1-0.1c-0.1-0.1-0.3-0.2-0.4-0.3C257.4,73.7,257.4,73.8,257.6,73.6z"/>
			<g id="XMLID_145_">
				<path id="XMLID_147_" class="st9" d="M258.3,80.2c-0.2-0.8-0.3-1.7-0.2-2.5c0-0.4,0.1-0.9-0.2-1.2c-0.3-0.3-0.9-0.2-1.3-0.2
					c-0.7,0-1.5,0.1-2.2,0.1c-0.2,0-0.2,0.1-0.3,0.2c0,0,0,0.1,0,0.1c0,0.4-0.2,1,0.2,1.2c0.2,0.1,0.6,0,0.9,0c0.4,0,0.9,0,1.3-0.1
					c0.1,0.8-0.1,1.6,0,2.4c0,0.2,0.1,0.3,0.3,0.3c0.4,0,0.7,0,1.1,0C258.3,80.6,258.3,80.4,258.3,80.2z"/>
				<path id="XMLID_146_" class="st9" d="M255.7,78.3c-0.4,0-0.8,0-1.2,0c-0.2,0-0.2,0.1-0.2,0.3c0,0,0,0,0,0c0,0.3,0,0.6,0.1,0.9
					c0,0.3,0,0.6,0.1,0.9c0.1,0.5,0.8,0.3,1.2,0.3c0.2,0,0.3-0.2,0.3-0.3c0-0.6,0.1-1.2,0.1-1.8C256,78.4,255.8,78.2,255.7,78.3z"/>
			</g>
			<path id="XMLID_144_" class="st9" d="M253.3,77.8c-0.8,0.1-1.5,0.1-2.3,0c0,0-0.1,0-0.1,0c-0.1,0-0.3,0.1-0.3,0.3
				c0,0.3,0.1,0.6,0.2,0.9c0,0.1,0.1,0.2,0.2,0.2c0.3,0.1,0.6-0.1,0.9-0.1c0.4,0,0.7,0,1.1,0c0.6-0.1,0.4-0.6,0.5-1
				C253.7,78,253.5,77.8,253.3,77.8z"/>
		</g>
	</g>
	<g id="XMLID_9126_">
		<g id="XMLID_9529_">
			<g id="XMLID_9533_">
				<path id="XMLID_43_" class="st7" d="M108.1,10.3c1,13,0.1,25.9,1.3,38.9c1,10.6,1.6,20.5,1.1,32.8c-0.2,4.4,1.1,8.8,0.2,13.1
					c-0.4,1.8-0.8,3.5-0.4,5.3c1,4.7,2,11.8,0.3,13.5c-2,0.3-3.5-1.8-5.5-2.6c-0.5-3.9,1.3-7.7,1.7-11.6c0.2-2.4-0.1-4.7-0.4-7.1
					c-1.4-13.3-0.2-26.7-1.5-39.9c-0.4-3.6-0.9-7.1-1-10.7c-0.2-4.5,0.3-9,0.7-13.6c0.5-4.6,0.9-9.3,1.4-13.9c0.2-2.1,2-4.1,4-4.7"
					/>
			</g>
			<g id="XMLID_9532_">
				<path id="XMLID_41_" class="st7" d="M146.8,10c-3.1,2.1-0.2,17.1-2.2,25.3c-0.2,0.9-0.5,1.7-0.4,2.6s0.4,1.8,1.1,2.2
					c0.7,0.4,1.5,0.3,2.3,0.2c0.6-0.1,1.3-0.4,1.8-0.8c0.6-0.6,0.8-1.4,1-2.3c0.7-4.3-0.8-8.5-1.2-12.8c-0.3-2.8,0-5.7,0-8.6
					c0-1.9-1-4.1-2.4-5.4"/>
			</g>
			<g id="XMLID_9531_">
				<path id="XMLID_39_" class="st7" d="M167.2,112.3c-0.5-11.9-0.7-23.4-1.2-35.3c-0.1-3.9-0.3-7.7-0.2-11.6
					c0.1-4.2,0.6-8.4,0.3-12.6c-0.4-6.9-2.6-13.5-3.3-20.3C162,24,163.4,15.2,161.1,7c-0.1-0.2-0.1-0.5-0.4-0.5
					c-0.2-0.1-0.3,0-0.5,0c-4.1,1-8.3,2-12.4,3.1c-0.5,0.1-1.1,0.3-1.4,0.8c-0.1,0.3-0.1,0.7,0,1.1c1.9,8.2,2.6,16.6,1.9,25
					c0,0.5-0.1,1.1-0.4,1.6c-1,1.7-3.5,1-5.4,0.3c-3.8-1.4-8-1.6-11.9-0.6c-1.8,0.5-3.7,1.2-5.5,0.6c-2.6-0.9-3.3-4.2-3.6-6.9
					c-0.6-5.2-1.2-10.5-1.8-15.7c-0.2-1.4-0.4-3-1.4-3.9c-0.8-0.8-2-1-3.2-1.2c-1.3-0.2-2.5-0.5-3.8-0.7c-0.9-0.2-1.8-0.3-2.6,0.1
					c-1,0.6-1.3,1.9-1.4,3.1c-0.3,4.1,0.6,8.1,0.6,12.2c0,4.3-0.8,8.6-0.9,12.9c-0.1,6.7,1.9,13.2,2.6,19.9
					c0.8,7.7,0.1,15.4-0.2,23.1c-0.4,10.9,0.2,21.7,1,32.6c8.6-1.2,17.6,1.9,25.9-0.6c2.5-0.8,5-2.1,7.6-2.4
					c3.2-0.4,6.4,0.7,9.5,1.3C158.1,112.9,162.8,113,167.2,112.3z"/>
			</g>
			<g id="XMLID_9530_" class="st8">
				<path id="XMLID_38_" class="st7" d="M141.1,104.4c5.9-4.9,10.5-11.3,13.2-18.4c2.5-6.4,3.4-13.4,5.2-20
					c1.4-5.2,3.3-10.4,6.6-14.7c0,0.5,0.1,1,0.1,1.6c0.2,4.2-0.2,8.4-0.3,12.6c-0.1,3.9,0,7.7,0.2,11.6c0.5,11.9,0.7,23.4,1.2,35.3
					c-4.5,0.8-9.1,0.7-13.5-0.2c-3.2-0.6-6.3-1.7-9.5-1.3c-2.6,0.3-5.1,1.6-7.6,2.4c-1.5,0.5-3.1,0.7-4.6,0.9
					c0.9-1.5,1.8-2.9,2.9-4.2C136.7,107.7,138.9,106.1,141.1,104.4z"/>
			</g>
		</g>
		<g id="לוגו_2_">
			<path id="XMLID_143_" class="st0" d="M144,65.6c-1.2-0.1-2.2-0.3-3.1-0.2c-2.1,0-3,0.4-4.8,0.6c-0.9,0.1-2.6-0.2-3.5-0.2
				c-2.5,0-7.6,0.7-7.7,0.8c-0.5,0.2,0.1,1.7-0.7,4.8c-0.9,3.3,0.2,3.5-0.5,5.8c-0.4,1.1-0.5,2.3-0.4,3.5c0,0.6,3.6,0.2,6.5,0.3
				c3.9,0.2,5.8-0.3,8.5-0.3c2.7,0,4.8-1.1,5.8-1.1c0.5,0,1.9,0.2,2.2-0.3c0.3-0.4,0.2-1,0.2-1.4c0-4.6,1.5-6.5,1-12
				C147.3,64.6,145.4,65.7,144,65.6z"/>
			<path id="XMLID_142_" class="st9" d="M129.3,74c0-0.1-0.1-0.1-0.1-0.1c-0.3,0-0.8-0.1-1.1,0.1c-0.4,0.3-0.2,0.4-1.2,0.8
				c-0.1,0-0.1,0.1-0.1,0.1c-0.1,1,0,0.7,0.8,0.7c0.1,2.7,0,2.8,0.2,2.8c0.5,0,1-0.1,1.5-0.1c0.1,0,0.1-0.1,0.1-0.1
				C129.4,76.9,129.3,75.5,129.3,74z"/>
			<path id="XMLID_141_" class="st9" d="M131.9,73.9c0-0.1-0.1-0.1-0.1-0.1c-0.2,0-0.4,0-0.6,0c-0.2,0-0.3,0.2-0.5,0.3
				c-0.9,0.6-1.1,0.4-1,1.3c0,0.1,0.1,0.1,0.1,0.1c0.2,0,0.4,0,0.6-0.1c0,0.5,0,1,0,1.5c0,0.3-0.1,0.9,0,1.2
				c0.1,0.1,0.1,0.2,0.2,0.2c0.2,0,0.4-0.1,0.6-0.1c0.3,0,0.6,0,0.9,0C132.4,78.3,132.4,78.4,131.9,73.9z"/>
			<path id="XMLID_140_" class="st9" d="M135,75.2c-0.1,0-0.8,0-0.8-0.1c1.7-0.1,1.8,0.1,1.7-0.6c-0.1-1.4-0.2-1.2-0.9-1
				c-0.8,0.2-1.6,0.2-2.4,0.2c0,0-0.1,0-0.1,0c0,0,0,0,0,0.1c0.2,2.4,0.1,2.5,0.5,2.5c0.3,0.1,1.5-0.3,1.7,0.1
				c0.2,0.4-0.4,0.3-1.7,0.3c-0.1,0-0.1,0.1-0.1,0.1c0,0.4-0.1,0.7-0.1,1.1c0,0.1,0.1,0.2,0.2,0.1c0.9-0.2,1.9,0.3,2.8-0.2
				C136.5,77.4,136.4,75.4,135,75.2z"/>
			<path id="XMLID_139_" class="st9" d="M130.7,68.8c-0.3-0.4-0.9-0.2-1.3-0.2c-2.2,0.1-2.4,0-2.4,0.2c0,0.4,0,0.9,0,1.3
				c0,0.1,0.1,0.1,0.1,0.1c0.7,0.1,1.4,0.1,2.2,0c0,0.4,0,0.8,0,1.2c0,0.4-0.1,0.9,0.1,1.3c0.2,0.6,1.1,0.2,1.6,0.3
				c0.1,0,0.2-0.1,0.2-0.1c0-0.8,0-1.6-0.1-2.4C130.9,70,131,69.2,130.7,68.8z"/>
			<path id="XMLID_138_" class="st9" d="M133.4,68.4c-0.5-0.1-1.7,0.1-1.8,0.1c0,0-0.1,0.1-0.1,0.1c0.2,1.5-0.4,1.5,0.8,1.3
				c0.1,0.3,0.1,0.6,0.1,0.9c-0.1,0.7-1.3,0.4-1.3,0.9c0,0.2,0.1,0.4,0.1,0.6c0,0.2,0,0.4,0.2,0.5c0.2,0.2,0.9,0,1.2,0
				c0.1,0,0.1-0.1,0.1-0.2c-0.1-0.3-0.1-0.6,0.1-1c0.1,0.2,0.1,0.3,0.2,0.5c0,0.1,0.1,0.4,0.1,0.5c0.2,0.2,1,0,1.3-0.1
				c0.1,0,0.1-0.1,0.1-0.1C134,69,134.1,68.5,133.4,68.4z"/>
			<path id="XMLID_137_" class="st9" d="M138.7,68.2c-0.4-0.2-1.1,0-1.5,0.1c-0.9,0.1-2.3,0-2.3,0.3c0.1,1.5-0.3,1.4,0.5,1.3
				c-0.4,0.4-0.1,0.6-0.2,1c0,0.3,0,0.2-0.3,0.3c-0.1,0-0.1,0.1-0.1,0.1c0.1,1-0.2,1.4,0.1,1.3c1.9-0.2,2-0.1,2-0.3
				c-0.1-0.9-0.1-1.8-0.1-2.7c0.3,0,0.5,0,0.8-0.1c0,0.6,0.1,1.1,0.1,1.7c0,0.2-0.1,1.2,0.2,1.2c0.9-0.1,1.6,0,1.6-0.2
				C139,69.7,139.6,68.5,138.7,68.2z"/>
			<path id="XMLID_136_" class="st9" d="M143.6,70.6c0.1-0.1,0.2-0.1,0.2-0.3c0.1-0.3,0.1-0.7,0.1-0.9c0.1-0.4,0.1-0.7,0.2-1.1
				c0-0.1,0-0.1-0.1-0.2c-0.5-0.1-0.9-0.1-1.4-0.3c-0.1,0-0.2,0-0.2,0.1c0,0.5-0.2,0.9-0.3,1.4c-0.4-0.5-0.9-0.9-1.4-1.4
				c-0.1-0.2-1,0.5-1.1,0.7c-0.1,0.1,0,0.1,0,0.2c0.2,0.3,0.4,0.7,0.6,0.9c-0.1,0.1-0.2,0.2-0.4,0.2c-0.1,0-0.1,0.1-0.1,0.1
				c0,0.4,0.1,0.8,0.2,1.2c0,0.6-0.1,1.3,0.2,1.2c0.4-0.1,0.8-0.1,1.3,0c0.1,0,0.2,0,0.2-0.1c0-0.4,0-0.7-0.1-1.1
				c1.5,1.5,1,1,2.2,1.1c0.2,0,0.2-0.4,0.3-1c0-0.1,0-0.1-0.1-0.1c-0.1-0.1-0.3-0.2-0.4-0.3C143.4,70.7,143.4,70.8,143.6,70.6z"/>
			<g id="XMLID_130_">
				<path id="XMLID_133_" class="st9" d="M144.3,77.2c-0.2-0.8-0.3-1.7-0.2-2.5c0-0.4,0.1-0.9-0.2-1.2c-0.3-0.3-0.9-0.2-1.3-0.2
					c-0.7,0-1.5,0.1-2.2,0.1c-0.2,0-0.2,0.1-0.3,0.2c0,0,0,0.1,0,0.1c0,0.4-0.2,1,0.2,1.2c0.2,0.1,0.6,0,0.9,0c0.4,0,0.9,0,1.3-0.1
					c0.1,0.8-0.1,1.6,0,2.4c0,0.2,0.1,0.3,0.3,0.3c0.4,0,0.7,0,1.1,0C144.3,77.6,144.3,77.4,144.3,77.2z"/>
				<path id="XMLID_132_" class="st9" d="M141.7,75.3c-0.4,0-0.8,0-1.2,0c-0.2,0-0.2,0.1-0.2,0.3c0,0,0,0,0,0c0,0.3,0,0.6,0.1,0.9
					c0,0.3,0,0.6,0.1,0.9c0.1,0.5,0.8,0.3,1.2,0.3c0.2,0,0.3-0.2,0.3-0.3c0-0.6,0.1-1.2,0.1-1.8C142,75.4,141.8,75.2,141.7,75.3z"/>
			</g>
			<path id="XMLID_129_" class="st9" d="M139.3,74.8c-0.8,0.1-1.5,0.1-2.3,0c0,0-0.1,0-0.1,0c-0.1,0-0.3,0.1-0.3,0.3
				c0,0.3,0.1,0.6,0.2,0.9c0,0.1,0.1,0.2,0.2,0.2c0.3,0.1,0.6-0.1,0.9-0.1c0.4,0,0.7,0,1.1,0c0.6-0.1,0.4-0.6,0.5-1
				C139.7,75,139.5,74.8,139.3,74.8z"/>
		</g>
	</g>
	<g id="XMLID_9115_">
		<g id="XMLID_9417_">
			<g id="XMLID_9472_">
				<path id="XMLID_35_" class="st6" d="M182,26.2c-0.6,13,0.7,22.3-0.2,35.3c-0.7,10.6-1,20.5-0.2,32.8c0.3,4.4-0.8,8.8,0.2,13.1
					c0.4,1.8,0.9,3.5,0.5,5.3c-0.9,4.8-1.7,11.8,0.1,13.5c2,0.3,3.5-1.9,5.5-2.8c0.4-3.9-1.5-7.7-2-11.6c-0.3-2.4,0-4.7,0.2-7.1
					c1-13.3-0.6-26.7,0.3-39.9c0.3-3.6,0.7-7.1,0.7-10.7c0.1-4.5-0.5-9-1.1-13.5c-0.6-4.6-1.2-5.6-1.8-10.2c-0.3-2.1-2.1-4-4.2-4.6"
					/>
			</g>
			<g id="XMLID_9469_">
				<path id="XMLID_33_" class="st6" d="M143.3,23.3c3.1,2,0.1,17.5,2.3,25.6c0.2,0.8,1.1,1.3,1.1,2.2s-0.3,1.8-1.1,2.3
					c-0.7,0.4-1.5,0.4-2.3,0.2c-0.7-0.1-1.3-0.3-1.8-0.8c-0.6-0.6-0.9-1.4-1-2.2c-0.8-4.2,0.5-8.6,0.8-12.9c0.2-2.9-0.1-5.7-0.2-8.6
					c-0.1-1.9,0.9-4.1,2.2-5.5"/>
			</g>
			<g id="XMLID_9464_">
				<path id="XMLID_31_" class="st3" d="M125.9,126.2c0.1-12,0.1-23.4,0.2-35.3c0-3.9,0.1-7.7-0.1-11.6c-0.2-4.2-0.8-8.4-0.7-12.6
					c0.2-6.9,2.2-13.6,2.8-20.4c0.6-8.5-1.1-14.5,1-22.8c0.1-0.2,0.1-0.5,0.3-0.6c0.1-0.1,0.3,0,0.5,0c4.2,0.9,8.3-0.9,12.5,0
					c0.5,0.1,1.2,0.3,1.4,0.8c0.2,0.3,0.1,0.7,0,1.1c-1.7,8.2-0.7,16.4-1.2,25.1c0,0.5,0.1,1.1,0.4,1.5c1,1.7,3.4-0.1,5.4,0.1
					c3.9,0.4,8-1.8,11.9-0.9c1.8,0.4,3.8,1.1,5.5,0.5c2.6-1,3.2-4.3,3.4-7c0.5-5.2,0.9-10.5,1.4-15.7c0.1-1.4-0.1-4.2,1.3-4
					c1.4,0.3,2,1.6,3.1,2.3c1.1,0.7,2.5-0.5,3.8-0.8c0.9-0.2,1.8-0.4,2.6,0c1,0.5,1.4,1.9,1.5,3c0.4,4.1-0.3,4.5-0.3,8.6
					c0.1,4.3,1.1,8.6,1.2,12.9c0.3,6.7,0.8,13,0.3,19.7c-0.6,7.7-0.5,15-0.8,23.6c-0.3,10.9-0.3,21.6-0.8,32.4
					c-8.6-0.9-17.6,2.4-25.9,0.1c-2.6-0.7-5.2,0.3-7.9,0.1c-3.2-0.3-6.1-1.4-9.3-0.7C135,126.6,130.4,126.8,125.9,126.2z"/>
			</g>
			<g id="XMLID_9421_" class="st8">
				<path id="XMLID_25_" class="st6" d="M155.9,115.5c-6-4.7-11.9-10.5-14.8-17.5c-2.7-6.4-6.9-11.8-8.8-18.4
					c-1.5-5.2-3.6-10.3-7-14.5c0,0.5-0.1,1-0.1,1.6c-0.1,4.2,0.4,8.4,0.7,12.6c0.2,3.9,0.2,7.7,0.1,11.6c-0.1,12-0.1,23.4-0.2,35.3
					c4.5,0.6,9.1,0.4,13.5-0.6c3.1-0.7,6.5,0.4,9.7,0.7c2.7,0.3,4.9-0.8,7.4-0.1c1.5,0.4,3.1,0.7,4.6,0.8c-1-1.4-1.9-2.9-3-4.2
					C156.3,120.7,158.1,117.2,155.9,115.5z"/>
			</g>
		</g>
		<g id="לוגו_1_">
			<path id="XMLID_128_" class="st0" d="M163.2,76.8c-1.2-0.1-2.2-0.3-3.1-0.3c-2.1,0-3.1,0.3-4.8,0.4c-0.9,0.1-2.6-0.3-3.5-0.3
				c-2.5-0.1-7.6,0.5-7.7,0.5c-0.5,0.2,0.1,1.7-0.9,4.8c-1,3.2,0.1,3.5-0.7,5.8c-0.4,1.1-0.6,2.3-0.5,3.5c0,0.6,3.6,0.3,6.5,0.5
				c3.9,0.3,5.8-0.1,8.5,0c2.7,0,4.8-0.9,5.8-0.9c0.5,0,1.9,0.3,2.2-0.2c0.3-0.4,0.3-0.9,0.3-1.4c0.1-4.6,1.7-6.4,1.4-12
				C166.6,75.9,164.6,77,163.2,76.8z"/>
			<path id="XMLID_127_" class="st9" d="M148.3,84.8c0-0.1-0.1-0.1-0.1-0.1c-0.3,0-0.8-0.1-1.1,0.1c-0.4,0.3-0.2,0.3-1.2,0.8
				c-0.1,0-0.1,0.1-0.1,0.1c-0.2,1,0,0.7,0.8,0.7c0,2.7-0.1,2.8,0.1,2.8c0.5,0,1,0,1.5,0c0.1,0,0.1-0.1,0.1-0.1
				C148.2,87.7,148.2,86.3,148.3,84.8z"/>
			<path id="XMLID_126_" class="st9" d="M150.9,84.8c0-0.1-0.1-0.1-0.1-0.1c-0.2,0-0.4,0-0.6,0c-0.2,0-0.3,0.1-0.5,0.3
				c-0.9,0.6-1.1,0.3-1,1.3c0,0.1,0.1,0.1,0.1,0.1c0.2,0,0.4,0,0.6,0c0,0.5,0,1,0,1.5c0,0.3-0.1,0.9,0,1.2c0,0.1,0.1,0.2,0.2,0.2
				c0.2,0,0.4-0.1,0.6-0.1c0.3,0,0.6,0,0.9,0C151.3,89.2,151.2,89.3,150.9,84.8z"/>
			<path id="XMLID_125_" class="st9" d="M153.9,86.2c-0.1,0-0.8,0-0.8-0.1c1.7,0,1.7,0.2,1.7-0.5c-0.1-1.4-0.2-1.2-0.9-1
				c-0.8,0.2-1.6,0.2-2.4,0.1c0,0-0.1,0-0.1,0c0,0,0,0,0,0.1c0.1,2.4,0.1,2.5,0.4,2.5c0.3,0.1,1.5-0.3,1.7,0.1
				c0.2,0.4-0.4,0.3-1.7,0.3c-0.1,0-0.1,0.1-0.1,0.1c0,0.4-0.1,0.7-0.2,1.1c0,0.1,0.1,0.2,0.2,0.2c0.9-0.2,1.9,0.3,2.8-0.1
				C155.4,88.5,155.3,86.5,153.9,86.2z"/>
			<path id="XMLID_124_" class="st9" d="M149.8,79.7c-0.3-0.4-0.9-0.3-1.3-0.3c-2.2,0-2.4-0.1-2.4,0.1c-0.1,0.4,0,0.9-0.1,1.3
				c0,0.1,0.1,0.1,0.1,0.1c0.7,0.1,1.4,0.1,2.2,0.1c0,0.4,0,0.8,0,1.2c0,0.4-0.1,0.9,0,1.3c0.2,0.6,1.1,0.2,1.5,0.4
				c0.1,0,0.2,0,0.2-0.1c0-0.8,0-1.6,0-2.4C150,80.8,150.1,80.1,149.8,79.7z"/>
			<path id="XMLID_116_" class="st9" d="M152.6,79.3c-0.5-0.1-1.7,0-1.8,0.1c0,0-0.1,0.1-0.1,0.1c0.1,1.5-0.4,1.4,0.8,1.3
				c0,0.3,0.1,0.6,0.1,0.9c-0.1,0.7-1.3,0.4-1.4,0.9c0,0.2,0.1,0.4,0.1,0.6c0,0.2,0,0.4,0.2,0.5c0.2,0.2,0.9,0.1,1.2,0
				c0.1,0,0.1-0.1,0.1-0.2c-0.1-0.3-0.1-0.6,0.1-1c0.1,0.2,0.1,0.3,0.2,0.5c0,0.1,0,0.4,0.1,0.5c0.2,0.2,1,0,1.3,0
				c0.1,0,0.1-0.1,0.1-0.1C153.1,80,153.2,79.4,152.6,79.3z"/>
			<path id="XMLID_115_" class="st9" d="M157.9,79.3c-0.4-0.2-1.1,0-1.5,0.1c-0.9,0.1-2.3-0.1-2.3,0.2c0.1,1.5-0.3,1.4,0.5,1.3
				c-0.4,0.4-0.2,0.6-0.2,1c0,0.3,0,0.2-0.3,0.3c-0.1,0-0.1,0.1-0.1,0.1c0.1,1-0.2,1.4,0.1,1.3c1.9-0.1,2,0,2-0.2
				c0-0.9,0-1.8-0.1-2.7c0.3,0,0.5,0,0.8,0c0,0.6,0,1.1,0,1.7c0,0.2-0.1,1.2,0.1,1.2c0.9,0,1.6,0.1,1.6-0.2
				C158.1,80.9,158.8,79.7,157.9,79.3z"/>
			<path id="XMLID_112_" class="st9" d="M162.6,81.9c0.1-0.1,0.2-0.1,0.3-0.3c0.1-0.3,0.1-0.7,0.2-0.9c0.1-0.4,0.1-0.7,0.2-1.1
				c0-0.1,0-0.1-0.1-0.2c-0.5-0.1-0.9-0.2-1.4-0.4c-0.1,0-0.2,0-0.2,0.1c0,0.5-0.3,0.9-0.4,1.4c-0.4-0.5-0.9-1-1.3-1.4
				c-0.1-0.2-1,0.5-1.1,0.7c-0.1,0.1,0,0.1,0,0.2c0.2,0.3,0.4,0.7,0.6,0.9c-0.1,0.1-0.2,0.2-0.4,0.2c-0.1,0-0.1,0.1-0.1,0.1
				c0,0.4,0.1,0.8,0.1,1.2c0,0.6-0.1,1.3,0.2,1.2c0.4-0.1,0.8-0.1,1.3,0c0.1,0,0.2,0,0.2-0.1c0-0.4,0-0.7,0-1.1
				c1.5,1.6,0.9,1.1,2.2,1.2c0.2,0,0.2-0.4,0.3-1c0-0.1,0-0.1-0.1-0.1c-0.1-0.1-0.3-0.2-0.4-0.3C162.5,82,162.5,82,162.6,81.9z"/>
			<g id="XMLID_89_">
				<path id="XMLID_91_" class="st9" d="M163.2,88.5c-0.1-0.8-0.2-1.7-0.2-2.6c0-0.4,0.2-0.9-0.1-1.2c-0.3-0.3-0.9-0.2-1.3-0.2
					c-0.7,0-1.5,0-2.2,0c-0.2,0-0.2,0.1-0.3,0.2c0,0,0,0.1,0,0.1c0,0.4-0.2,1,0.2,1.2c0.2,0.1,0.6,0.1,0.9,0.1c0.4,0,0.9,0,1.3-0.1
					c0,0.8-0.1,1.6-0.1,2.4c0,0.2,0.1,0.3,0.3,0.3c0.4,0,0.7,0.1,1.1,0.1C163.1,88.9,163.2,88.7,163.2,88.5z"/>
				<path id="XMLID_90_" class="st9" d="M160.6,86.5c-0.4,0-0.8-0.1-1.2,0c-0.2,0-0.2,0.1-0.2,0.3c0,0,0,0,0,0c0,0.3,0,0.6,0,0.9
					c0,0.3,0,0.6,0,0.9c0.1,0.5,0.8,0.3,1.2,0.3c0.2,0,0.3-0.2,0.3-0.3c0.1-0.6,0.1-1.2,0.2-1.8C160.9,86.6,160.8,86.4,160.6,86.5z"
					/>
			</g>
			<path id="XMLID_80_" class="st9" d="M158.3,85.9c-0.8,0.1-1.5,0.1-2.3,0c0,0-0.1,0-0.1,0c-0.1,0-0.3,0.1-0.3,0.3
				c0,0.3,0.1,0.6,0.1,0.9c0,0.1,0.1,0.2,0.2,0.2c0.3,0.1,0.6-0.1,0.9-0.1c0.4,0,0.7,0.1,1.1,0c0.6,0,0.4-0.6,0.5-1
				C158.6,86.1,158.4,85.9,158.3,85.9z"/>
		</g>
	</g>
	<g id="XMLID_8880_">
		<g id="XMLID_9149_">
			<g id="XMLID_9476_">
				<path id="XMLID_21_" class="st6" d="M91.2,28.2c0,13,1.8,24.1,1.6,37c-0.2,10.7,0,20.6,1.4,32.8c0.5,4.4-0.4,8.9,0.8,13.1
					c0.5,1.7,1,3.4,0.8,5.2c-0.6,4.8-1.1,11.9,0.7,13.4c2,0.2,2.3-2,4.3-3c0.2-3.9,0.2-7.7-0.4-11.6c-0.4-2.3-1.3-4.6-1.3-7
					c0.3-13.3-0.5-26.5-1.6-39.9c-0.3-3.6,0.3-7.1,0.2-10.7c-0.2-4.5-1-9-1.8-13.5c-0.8-4.6-1.5-7.3-2.4-11.9
					c-0.4-2.1-2.3-3.9-4.4-4.4"/>
			</g>
			<g id="XMLID_9473_">
				<path id="XMLID_19_" class="st6" d="M52.5,29c3.2,1.9,0.4,16.3,3,24.2c0.3,0.8,1.7,2.4,1.7,3.3s-0.3,1.8-1,2.3
					c-0.6,0.4-1.5,0.5-2.3,0.3c-0.7-0.1-1.3-0.3-1.8-0.7c-0.6-0.5-0.9-1.4-1.1-2.2c-1-4.2,0.1-8.6,0.2-12.9c0-2.9-0.4-5.7-0.6-8.6
					c-0.2-1.9,0.7-4.1,1.9-5.6"/>
			</g>
			<g id="XMLID_9467_">
				<path id="XMLID_17_" class="st3" d="M40.8,130.7c-0.5-11.9-1-21.6-1.5-33.5c-0.1-3.9-0.3-7.7-0.7-11.6
					c-0.4-4.2-2.1-8.3-2.2-12.5c-0.1-6.9-1.1-13.7-1-20.6c0.2-8.5,1-14.4,2.6-22.7c0-0.2,0.1-0.5,0.3-0.6c0.1-0.1,0.3-0.1,0.5,0
					c4.2,0.7,8.3-1.3,12.5-0.6c0.5,0.1,1.2,0.2,1.4,0.7c0.2,0.3,0.1,0.7,0.1,1.1c-1.3,8.3-1.3,16.8,0,25.1c0.1,0.5,0.2,1.1,0.5,1.5
					c1.1,1.6,3.6,0.7,5.4-0.1c3.7-1.7,7.8-0.6,11.8-1.5c1.8-0.4,3.8,1,5.5,0.2c2.5-1.1,3-4.4,3.1-7.2c0.2-5.3,0.4-10.5,0.6-15.8
					c0.1-1.4,0.2-3,1.1-4c0.8-0.9,2-1.2,3.1-1.5c1.2-0.3,2.6,1.2,3.8,0.8c0.9-0.2,1.8-0.5,2.6-0.1c1.1,0.5,1.5,1.8,1.6,3
					c0.6,4,0,6.3,0.2,10.4c0.3,4.3,1.5,8.5,1.9,12.8c0.6,6.7-2.3,13.5-1.1,20c1.5,7.8,1.1,15.4,2,23.1c1.2,10.8,1.5,21.7,1.5,32.6
					c-8.7-0.5-17.4,3.3-25.9,1.4c-2.6-0.6-5,0.1-7.7,0c-3.2-0.2-6.4-0.7-9.5,0.2C49.1,132.5,45.3,131.1,40.8,130.7z"/>
			</g>
			<g id="XMLID_9462_" class="st8">
				<path id="XMLID_16_" class="st6" d="M65.5,122.7c-6.2-4.4-11.3-10.5-14.6-17.4c-3-6.2-4.4-13-6.7-19.6
					c-1.8-5.1-4.1-10.2-7.7-14.1c0,0.5,0,1,0,1.6c0.1,4.2,1.7,8.3,2.2,12.5c0.4,3.8,0.6,7.7,0.7,11.6c0.5,11.9,1,21.6,1.5,33.5
					c4.5,0.4,8.3,1.8,12.7,0.6c3.1-0.9,6.3-0.4,9.5-0.2c2.7,0.1,5.1-0.6,7.7,0c1.5,0.3,3.1,0.5,4.7,0.5c-1-1.4-2-2.8-3.2-4
					C70.1,125.7,67.7,124.3,65.5,122.7z"/>
			</g>
		</g>
		<g id="לוגו">
			<path id="XMLID_29_" class="st0" d="M76,82.6c-1.2-0.1-2.2-0.3-3.1-0.2c-2.1,0-3,0.4-4.8,0.6c-0.9,0.1-2.6-0.2-3.5-0.2
				c-2.5,0-7.6,0.7-7.7,0.8c-0.5,0.2,0.1,1.7-0.7,4.8c-0.9,3.3,0.2,3.5-0.5,5.8c-0.4,1.1-0.5,2.3-0.4,3.5c0,0.6,3.6,0.2,6.5,0.3
				c3.9,0.2,5.8-0.3,8.5-0.3c2.7,0,4.8-1.1,5.8-1.1c0.5,0,1.9,0.2,2.2-0.3c0.3-0.4,0.2-1,0.2-1.4c0-4.6,1.5-6.5,1-12
				C79.3,81.6,77.4,82.7,76,82.6z"/>
			<path id="XMLID_28_" class="st9" d="M61.3,91c0-0.1-0.1-0.1-0.1-0.1c-0.3,0-0.8-0.1-1.1,0.1c-0.4,0.3-0.2,0.4-1.2,0.8
				c-0.1,0-0.1,0.1-0.1,0.1c-0.1,1,0,0.7,0.8,0.7c0.1,2.7,0,2.8,0.2,2.8c0.5,0,1-0.1,1.5-0.1c0.1,0,0.1-0.1,0.1-0.1
				C61.4,93.9,61.3,92.5,61.3,91z"/>
			<path id="XMLID_27_" class="st9" d="M63.9,90.9c0-0.1-0.1-0.1-0.1-0.1c-0.2,0-0.4,0-0.6,0c-0.2,0-0.3,0.2-0.5,0.3
				c-0.9,0.6-1.1,0.4-1,1.3c0,0.1,0.1,0.1,0.1,0.1c0.2,0,0.4,0,0.6-0.1c0,0.5,0,1,0,1.5c0,0.3-0.1,0.9,0,1.2
				c0.1,0.1,0.1,0.2,0.2,0.2c0.2,0,0.4-0.1,0.6-0.1c0.3,0,0.6,0,0.9,0C64.4,95.3,64.4,95.4,63.9,90.9z"/>
			<path id="XMLID_26_" class="st9" d="M67,92.2c-0.1,0-0.8,0-0.8-0.1c1.7-0.1,1.8,0.1,1.7-0.6c-0.1-1.4-0.2-1.2-0.9-1
				c-0.8,0.2-1.6,0.2-2.4,0.2c0,0-0.1,0-0.1,0c0,0,0,0,0,0.1c0.2,2.4,0.1,2.5,0.5,2.5c0.3,0.1,1.5-0.3,1.7,0.1
				c0.2,0.4-0.4,0.3-1.7,0.3c-0.1,0-0.1,0.1-0.1,0.1c0,0.4-0.1,0.7-0.1,1.1c0,0.1,0.1,0.2,0.2,0.1c0.9-0.2,1.9,0.3,2.8-0.2
				C68.5,94.4,68.4,92.4,67,92.2z"/>
			<path id="XMLID_11_" class="st9" d="M62.7,85.8c-0.3-0.4-0.9-0.2-1.3-0.2c-2.2,0.1-2.4,0-2.4,0.2c0,0.4,0,0.9,0,1.3
				c0,0.1,0.1,0.1,0.1,0.1c0.7,0.1,1.4,0.1,2.2,0c0,0.4,0,0.8,0,1.2c0,0.4-0.1,0.9,0.1,1.3c0.2,0.6,1.1,0.2,1.6,0.3
				c0.1,0,0.2-0.1,0.2-0.1c0-0.8,0-1.6-0.1-2.4C62.9,87,63,86.2,62.7,85.8z"/>
			<path id="XMLID_10_" class="st9" d="M65.4,85.4c-0.5-0.1-1.7,0.1-1.8,0.1c0,0-0.1,0.1-0.1,0.1c0.2,1.5-0.4,1.5,0.8,1.3
				c0.1,0.3,0.1,0.6,0.1,0.9c-0.1,0.7-1.3,0.4-1.3,0.9c0,0.2,0.1,0.4,0.1,0.6c0,0.2,0,0.4,0.2,0.5c0.2,0.2,0.9,0,1.2,0
				c0.1,0,0.1-0.1,0.1-0.2c-0.1-0.3-0.1-0.6,0.1-1c0.1,0.2,0.1,0.3,0.2,0.5c0,0.1,0.1,0.4,0.1,0.5c0.2,0.2,1,0,1.3-0.1
				c0.1,0,0.1-0.1,0.1-0.1C66,86,66.1,85.5,65.4,85.4z"/>
			<path id="XMLID_9_" class="st9" d="M70.7,85.2c-0.4-0.2-1.1,0-1.5,0.1c-0.9,0.1-2.3,0-2.3,0.3c0.1,1.5-0.3,1.4,0.5,1.3
				c-0.4,0.4-0.1,0.6-0.2,1c0,0.3,0,0.2-0.3,0.3c-0.1,0-0.1,0.1-0.1,0.1c0.1,1-0.2,1.4,0.1,1.3c1.9-0.2,2-0.1,2-0.3
				c-0.1-0.9-0.1-1.8-0.1-2.7c0.3,0,0.5,0,0.8-0.1c0,0.6,0.1,1.1,0.1,1.7c0,0.2-0.1,1.2,0.2,1.2c0.9-0.1,1.6,0,1.6-0.2
				C71,86.7,71.6,85.5,70.7,85.2z"/>
			<path id="XMLID_8_" class="st9" d="M75.6,87.6c0.1-0.1,0.2-0.1,0.2-0.3c0.1-0.3,0.1-0.7,0.1-0.9c0.1-0.4,0.1-0.7,0.2-1.1
				c0-0.1,0-0.1-0.1-0.2c-0.5-0.1-0.9-0.1-1.4-0.3c-0.1,0-0.2,0-0.2,0.1c0,0.5-0.2,0.9-0.3,1.4c-0.4-0.5-0.9-0.9-1.4-1.4
				c-0.1-0.2-1,0.5-1.1,0.7c-0.1,0.1,0,0.1,0,0.2c0.2,0.3,0.4,0.7,0.6,0.9c-0.1,0.1-0.2,0.2-0.4,0.2c-0.1,0-0.1,0.1-0.1,0.1
				c0,0.4,0.1,0.8,0.2,1.2c0,0.6-0.1,1.3,0.2,1.2c0.4-0.1,0.8-0.1,1.3,0c0.1,0,0.2,0,0.2-0.1c0-0.4,0-0.7-0.1-1.1
				c1.5,1.5,1,1,2.2,1.1c0.2,0,0.2-0.4,0.3-1c0-0.1,0-0.1-0.1-0.1c-0.1-0.1-0.3-0.2-0.4-0.3C75.4,87.7,75.4,87.8,75.6,87.6z"/>
			<g id="XMLID_30_">
				<path id="XMLID_6_" class="st9" d="M76.3,94.2c-0.2-0.8-0.3-1.7-0.2-2.5c0-0.4,0.1-0.9-0.2-1.2c-0.3-0.3-0.9-0.2-1.3-0.2
					c-0.7,0-1.5,0.1-2.2,0.1c-0.2,0-0.2,0.1-0.3,0.2c0,0,0,0.1,0,0.1c0,0.4-0.2,1,0.2,1.2c0.2,0.1,0.6,0,0.9,0c0.4,0,0.9,0,1.3-0.1
					c0.1,0.8-0.1,1.6,0,2.4c0,0.2,0.1,0.3,0.3,0.3c0.4,0,0.7,0,1.1,0C76.3,94.6,76.3,94.4,76.3,94.2z"/>
				<path id="XMLID_7_" class="st9" d="M73.7,92.3c-0.4,0-0.8,0-1.2,0c-0.2,0-0.2,0.1-0.2,0.3c0,0,0,0,0,0c0,0.3,0,0.6,0.1,0.9
					c0,0.3,0,0.6,0.1,0.9c0.1,0.5,0.8,0.3,1.2,0.3c0.2,0,0.3-0.2,0.3-0.3c0-0.6,0.1-1.2,0.1-1.8C74,92.4,73.8,92.2,73.7,92.3z"/>
			</g>
			<path id="XMLID_23_" class="st9" d="M71.3,91.8c-0.8,0.1-1.5,0.1-2.3,0c0,0-0.1,0-0.1,0c-0.1,0-0.3,0.1-0.3,0.3
				c0,0.3,0.1,0.6,0.2,0.9c0,0.1,0.1,0.2,0.2,0.2c0.3,0.1,0.6-0.1,0.9-0.1c0.4,0,0.7,0,1.1,0c0.6-0.1,0.4-0.6,0.5-1
				C71.7,92,71.5,91.8,71.3,91.8z"/>
		</g>
	</g>
</g>
</svg>
