<?xml version="1.0" encoding="utf-8"?>
<!-- Generator: Adobe Illustrator 19.0.0, SVG Export Plug-In . SVG Version: 6.00 Build 0)  -->
<svg version="1.1" id="Layer_1" xmlns="http://www.w3.org/2000/svg" xmlns:xlink="http://www.w3.org/1999/xlink" x="0px" y="0px"
	 viewBox="0 0 32 32" style="enable-background:new 0 0 32 32;" xml:space="preserve">
<style type="text/css">
	.st0{fill:#FFF5D9;}
	.st1{fill:#FFFFFF;stroke:#FFF5D9;stroke-width:2.9481;stroke-miterlimit:10;}
</style>
<g id="XMLID_283_">
	<g id="XMLID_375_">
		<path id="XMLID_13_" class="st0" d="M20.5,1.5c-1,0.4-1.8,2.7-2,3.7c-0.3,1.4,0.3,2.9,1,4.1c1.8,2.9,3.7,4.1,6.6,3.3
			c3.1-0.8,4.4-5,4.1-7.5C30,3.2,29.5,2.4,28.2,1c-0.7-0.8-2.3-1-3.4-1c-2.2,0-4.4,0.7-5.3,3c-1,2.5-1.5,5.2,0.6,7.2
			C20,10,19.9,9.8,19.7,9.7c0.3,1.6,1.2,1.7,3.3,2.5c0.4,0.1,0.6,0,1-0.1c0.2,0,0.5-0.1,0.7-0.1c0.2-0.1,0.4-0.3,0.5-0.4
			c1.1-0.5,1.4,0.4,2.2-0.6c0.8,1.3,2.5-2.1,2.7-2.5c0.5-1,0.4-2.6,0-3.6"/>
	</g>
	<line id="XMLID_301_" class="st1" x1="23.2" y1="8.5" x2="9.6" y2="15.6"/>
	<g id="XMLID_293_">
		<path id="XMLID_11_" class="st0" d="M29.2,20.6c-0.6-0.9-3-1.1-4-1c-1.4,0.1-2.7,1-3.6,2c-2.3,2.6-2.9,4.7-1.5,7.4
			c1.5,2.8,5.8,3.1,8.1,2.1c1.7-0.7,2.4-1.4,3.4-3.1c0.6-0.9,0.3-2.5,0.1-3.6c-0.6-2.2-1.8-4.2-4.2-4.5c-2.6-0.3-5.3-0.2-6.7,2.5
			c0.2-0.1,0.3-0.3,0.4-0.6c-1.4,0.7-1.3,1.6-1.5,3.9c0,0.4,0.1,0.6,0.3,1c0.1,0.2,0.2,0.5,0.3,0.6c0.2,0.2,0.4,0.3,0.6,0.4
			c0.7,0.9,0,1.5,1.1,2.1c-1.1,1.1,2.6,1.9,3,2c1.1,0.2,2.6-0.3,3.5-0.9"/>
	</g>
	<g id="XMLID_286_">
		<path id="XMLID_9_" class="st0" d="M3,22.7c0.6,0.9,3,1,4,0.9c1.4-0.1,2.7-1.1,3.5-2.1c2.2-2.6,2.8-4.8,1.3-7.4
			c-1.6-2.8-5.9-2.9-8.2-1.9c-1.7,0.8-2.4,1.5-3.3,3.2c-0.5,0.9-0.3,2.5,0,3.6C1,21.1,2.3,23,4.6,23.3c2.7,0.2,5.3,0,6.6-2.6
			c-0.2,0.2-0.3,0.3-0.3,0.6c1.4-0.7,1.3-1.6,1.4-4c0-0.4-0.1-0.6-0.3-1c-0.1-0.2-0.2-0.5-0.3-0.6c-0.2-0.2-0.4-0.3-0.6-0.4
			c-0.7-0.9,0-1.5-1.2-2c1-1.1-2.6-1.9-3.1-1.9c-1.1-0.2-2.5,0.3-3.4,1"/>
	</g>
	<line id="XMLID_285_" class="st1" x1="22.3" y1="23.8" x2="7.6" y2="19.3"/>
</g>
</svg>
