<?xml version="1.0" encoding="utf-8"?>
<!-- Generator: Adobe Illustrator 19.0.0, SVG Export Plug-In . SVG Version: 6.00 Build 0)  -->
<svg version="1.1" id="Layer_1" xmlns="http://www.w3.org/2000/svg" xmlns:xlink="http://www.w3.org/1999/xlink" x="0px" y="0px"
	 viewBox="0 0 26.6 22" style="enable-background:new 0 0 26.6 22;" xml:space="preserve">
<style type="text/css">
	.st0{fill:#193442;}
</style>
<g id="לוגו_שנקר">
	<rect id="rect53_2_" x="6.7" class="st0" width="2.4" height="2.1"/>
	<rect id="rect55_2_" x="6.7" y="5.8" class="st0" width="2.4" height="6.6"/>
	<rect id="rect57_2_" x="15.1" y="2.8" class="st0" width="9.1" height="2.4"/>
	<rect id="rect59_2_" x="17.3" class="st0" width="2.4" height="2.1"/>
	<rect id="rect61_2_" x="12" class="st0" width="2.4" height="7.2"/>
	<rect id="rect63_2_" x="17.5" y="5.8" class="st0" width="2.4" height="6.6"/>
	<rect id="rect65_2_" x="9.6" y="7.9" class="st0" width="7.3" height="2.4"/>
	<rect id="rect67_2_" x="2.2" y="12.9" class="st0" width="9.3" height="2.4"/>
	<polyline id="polyline69_2_" class="st0" points="3.7,2.8 11.5,2.8 11.5,5.2 4.7,5.2 3.5,6.5 4.7,7.8 6.1,7.8 6.1,10.3 3.8,10.3 
		0,6.6 3.7,2.8 	"/>
	<polyline id="polyline71_2_" class="st0" points="22.8,15.4 15,15.4 15,12.9 21.8,12.9 23,11.6 21.8,10.3 20.5,10.3 20.5,7.9 
		22.7,7.9 26.6,11.5 22.8,15.4 	"/>
	<polyline id="polyline73_2_" class="st0" points="12,10.8 14.5,10.8 14.5,17.1 16,18.5 17.3,17.3 17.3,15.9 19.7,15.9 19.7,18.2 
		16,22 13.2,19.3 10.6,22 6.8,18.3 6.8,15.9 9.2,15.9 9.2,17.3 10.5,18.5 12,17 12,10.8 	"/>
</g>
</svg>
