<?xml version="1.0" encoding="utf-8"?>
<!-- Generator: Adobe Illustrator 19.0.0, SVG Export Plug-In . SVG Version: 6.00 Build 0)  -->
<svg version="1.1" id="Layer_1" xmlns="http://www.w3.org/2000/svg" xmlns:xlink="http://www.w3.org/1999/xlink" x="0px" y="0px"
	 viewBox="0 0 14.3 38.6" style="enable-background:new 0 0 14.3 38.6;" xml:space="preserve">
<style type="text/css">
	.st0{fill:#BBBCBF;}
	.st1{fill:#F1F1F2;}
	.st2{fill:#BBBDBF;}
	.st3{fill:#F1F1F1;}
	.st4{fill:#929497;}
	.st5{fill:#929496;}
</style>
<g id="XMLID_403_">
	<g id="XMLID_404_">
		<path id="XMLID_405_" class="st0" d="M3.5,24.4c0.4,4.2,0,8.4,0,12.6c0,0.2,0.3,0.2,0.3,0c0-4.2,0.5-8.5,0-12.6
			C3.7,24.3,3.5,24.3,3.5,24.4L3.5,24.4z"/>
	</g>
	<g id="XMLID_406_">
		<path id="XMLID_407_" class="st0" d="M10.6,24.5c0.1,2.2-0.1,4.4-0.1,6.7c0,0.2,0.3,0.2,0.3,0c0-2.2,0.2-4.4,0.1-6.7
			C10.8,24.3,10.5,24.3,10.6,24.5L10.6,24.5z"/>
	</g>
	<path id="XMLID_408_" class="st1" d="M12.3,5.8c0,2.9-2.6,5.2-5.1,5.2c-2.5,0-5.1-2.3-5.1-5.2c0-2.9,2.3-5.2,5.1-5.2
		C10.1,0.6,12.3,2.9,12.3,5.8z"/>
	<rect id="XMLID_409_" x="6.4" y="10.5" class="st1" width="2" height="2"/>
	<path id="XMLID_410_" class="st1" d="M7.2,11.5L7.2,11.5c-3.9,0-5.9,2-5.9,5.9l-1.1,8.8v0.7v0.4c0,0.5,0,0.9,0.5,0.9
		c0.5,0,1.5-0.4,1.5-0.9v-0.8h0.2l0.6-5l0.3-4.4c0-2.6,1.4-2.6,3.9-2.6l0,0.1c2.6,0,3.9-0.1,3.9,2.4l0.9,9.5h0.3v0.8
		c0,0.5,0.5,0.9,1,0.9c0.5,0,1-0.4,1-0.9v-0.4l0-0.7l-1.3-8.8C12.9,13.6,11,11.5,7.2,11.5z"/>
	<path id="XMLID_411_" class="st2" d="M3.7,21.5l0,15.4l2.2,0.1c0,0,0.6-10.9,1.3-10.9c0.8,0,1.4,11.4,1.4,11.4h2.2l0-16H3.7z"/>
	<g id="XMLID_412_">
		<path id="XMLID_413_" class="st3" d="M2,6.4c0.4,2.6,2.6,4.6,5.2,4.7c0.2,0,0.2-0.3,0-0.3c-2.5-0.1-4.6-2-5-4.5
			C2.3,6.2,2,6.3,2,6.4L2,6.4z"/>
	</g>
	<g id="XMLID_414_">
		<path id="XMLID_415_" class="st3" d="M6.1,10.9c0.1,0.4,0.1,0.7,0.2,1.1c0,0.2,0.3,0.1,0.3-0.1c-0.1-0.4-0.1-0.7-0.2-1.1
			C6.3,10.7,6.1,10.8,6.1,10.9L6.1,10.9z"/>
	</g>
	<g id="XMLID_416_">
		<path id="XMLID_417_" class="st3" d="M6.3,11.7c-0.2,0-0.5,0-0.7,0.1c-0.2,0.1,0,0.3,0.1,0.2c0.2-0.1,0.4,0,0.6-0.1
			C6.5,11.9,6.5,11.6,6.3,11.7L6.3,11.7z"/>
	</g>
	<g id="XMLID_418_">
		<path id="XMLID_419_" class="st3" d="M8.2,10.8c0,0.4,0,0.7,0,1.1c0,0.2,0.3,0.2,0.3,0c0-0.4,0-0.7,0-1.1
			C8.6,10.6,8.3,10.6,8.2,10.8L8.2,10.8z"/>
	</g>
	<g id="XMLID_420_">
		<path id="XMLID_421_" class="st3" d="M12.1,5.4c0,0.4,0,0.9,0,1.3c0,0.8-0.5,1.3-0.9,1.9c-0.7,1-1.7,1.8-2.9,2
			c-0.2,0-0.1,0.3,0.1,0.3c1.2-0.2,2.2-1,2.9-1.9c0.9-1.2,1.1-2.1,1.1-3.6C12.4,5.2,12.1,5.2,12.1,5.4L12.1,5.4z"/>
	</g>
	<path id="XMLID_422_" class="st2" d="M12.2,5.4c0,0-2.1-1.6-2.4-3.4c0,0-2.2,1.1-4,1.8C4.1,4.5,2.1,6.3,2.1,6.3S1.3,3.4,3.8,1.5
		c2.5-1.9,5-1.4,6.2-0.6C11.2,1.8,12.3,3.8,12.2,5.4z"/>
	<g id="XMLID_423_">
		<path id="XMLID_424_" class="st0" d="M9.8,2c0.2,1.5,1.2,2.8,2.4,3.5c0.1,0.1,0.2,0,0.2-0.1c0-1.7-0.7-3.2-2-4.4
			C8.9-0.3,7.4-0.1,5.6,0.4c-0.2,0-0.1,0.3,0.1,0.3c1-0.3,1.8-0.6,2.8-0.3c1.2,0.2,2.2,1.2,2.8,2.1c0.3,0.4,0.5,0.9,0.7,1.4
			C12,3.9,12,5.1,12,5.1c-1-0.6-1.8-1.9-2-3.1C10,1.8,9.7,1.8,9.8,2L9.8,2z"/>
	</g>
	<g id="XMLID_425_">
		<path id="XMLID_426_" class="st0" d="M2.2,6.4c0.3-0.5,1-0.7,1.5-1c0.5-0.4,1.4-0.8,2-1.1C6.3,3.8,7,3.7,7.6,3.3
			C8.3,3,9,2.6,9.8,2.3C9.9,2.2,9.9,2,9.7,2c-0.6,0.2-1,0.4-1.5,0.7C7.3,3.2,6.4,3.4,5.5,3.9C4.8,4.3,4,4.6,3.5,5.1
			C3,5.6,2.4,5.6,2,6.2C1.9,6.4,2.1,6.5,2.2,6.4L2.2,6.4z"/>
	</g>
	<g id="XMLID_427_">
		<path id="XMLID_428_" class="st0" d="M2.1,6.4C2,3.8,3.3,1.6,5.7,0.6c0.2-0.1,0.1-0.3-0.1-0.3c-2.6,1-3.9,3.3-3.8,6
			C1.9,6.5,2.1,6.5,2.1,6.4L2.1,6.4z"/>
	</g>
	<path id="XMLID_429_" class="st4" d="M7.2,13.9c0,0-1.5-2-1.6-2c-2.3,0.4-3.8,1.7-4.2,4c-0.1,0.5-1.3,9.7-1.3,9.7l2.4,0.2l1.1-7.8
		l0,6.2l7.1,0.2l0.2-6.2l1,7.7l2.3,0c0,0-1.4-9.9-1.6-10.6c-0.6-1.8-1.8-3-3.8-3.3L7.2,13.9z"/>
	<g id="XMLID_430_">
		<path id="XMLID_431_" class="st5" d="M5.5,11.8c0.1,0.3,0.3,0.6,0.5,0.8c0.4,0.4,0.7,0.9,1,1.4c0.1,0.1,0.3,0,0.2-0.1
			c-0.3-0.4-0.6-0.8-0.8-1.1c-0.2-0.3-0.6-0.6-0.7-1C5.8,11.6,5.5,11.7,5.5,11.8L5.5,11.8z"/>
	</g>
	<g id="XMLID_432_">
		<path id="XMLID_433_" class="st5" d="M8.7,11.7c-0.5,0.7-1,1.5-1.5,2.2C7.1,14,7.3,14.1,7.4,14c0.5-0.7,1-1.3,1.5-2
			c0.1-0.1-0.1-0.3-0.2-0.1L8.7,11.7z"/>
	</g>
	<g id="XMLID_434_">
		<path id="XMLID_435_" class="st5" d="M3.6,24.4c1-0.2,2.3,0,3.4,0.1c1.2,0,2.4,0.1,3.7,0.1c0.2,0,0.2-0.3,0-0.3
			c-1.2,0-2.4,0-3.7-0.1c-1.1-0.1-2.4-0.3-3.4-0.1C3.4,24.1,3.5,24.4,3.6,24.4L3.6,24.4z"/>
	</g>
	<g id="XMLID_436_">
		<path id="XMLID_437_" class="st5" d="M10.7,18.3c0.2,2-0.1,4.1-0.1,6.1c0,0.2,0.3,0.2,0.3,0c0-2,0.3-4.1,0.1-6.1
			C11,18.1,10.7,18.1,10.7,18.3L10.7,18.3z"/>
	</g>
	<g id="XMLID_438_">
		<path id="XMLID_439_" class="st5" d="M3.6,24.3c0.1-1,0-1.9,0.1-2.9c0-1.1,0.2-2.2,0.2-3.3c0-0.2-0.3-0.2-0.3,0
			c0,1-0.2,1.9-0.2,2.9c0,1.1,0.1,2.2-0.1,3.3C3.3,24.5,3.6,24.5,3.6,24.3L3.6,24.3z"/>
	</g>
	<g id="XMLID_440_">
		<path id="XMLID_441_" class="st5" d="M11.9,26c0.8,0,1.5,0,2.3,0c0.2,0,0.2-0.3,0-0.3c-0.8,0-1.5,0-2.3,0
			C11.7,25.7,11.7,26,11.9,26L11.9,26z"/>
	</g>
	<g id="XMLID_442_">
		<path id="XMLID_443_" class="st5" d="M12,25.7c-0.2-1.6-0.4-3.2-0.3-4.8c0-0.2-0.3-0.2-0.3,0c0,1.6,0.1,3.3,0.3,4.9
			C11.8,26,12,25.9,12,25.7L12,25.7z"/>
	</g>
	<g id="XMLID_444_">
		<path id="XMLID_445_" class="st5" d="M0.1,25.9c0.8,0.1,1.6,0,2.4,0.1c0.2,0,0.2-0.3,0-0.3c-0.8-0.1-1.6,0-2.4-0.1
			C0,25.6,0,25.9,0.1,25.9L0.1,25.9z"/>
	</g>
	<g id="XMLID_446_">
		<path id="XMLID_447_" class="st5" d="M0.3,25.8c0-2.1,0.7-4.2,0.9-6.3c0-0.2-0.3-0.2-0.3,0C0.7,21.6,0,23.7,0,25.8
			C0,25.9,0.3,25.9,0.3,25.8L0.3,25.8z"/>
	</g>
	<g id="XMLID_448_">
		<path id="XMLID_449_" class="st5" d="M2.6,25.9c0.1-0.3,0.1-0.6,0-0.9c0-0.4,0-0.8,0-1.2c0-0.2-0.3-0.2-0.3,0c0,0.4,0,0.7,0,1.1
			c0,0.3,0.1,0.7,0,1C2.3,26,2.6,26.1,2.6,25.9L2.6,25.9z"/>
	</g>
	<g id="XMLID_450_">
		<path id="XMLID_451_" class="st5" d="M8.8,11.9c2.6,0.3,3.8,2.7,4.1,5c0.3,2.2,0.5,4.4,0.7,6.6c0,0.2,0.3,0.2,0.3,0
			c-0.3-2.7-0.4-5.5-1-8.2c-0.4-1.9-2.3-3.5-4.1-3.8C8.6,11.6,8.6,11.9,8.8,11.9L8.8,11.9z"/>
	</g>
	<g id="XMLID_452_">
		<path id="XMLID_453_" class="st5" d="M5.5,11.7c-1.8,0.4-2.8,1.2-3.6,2.6C1,16,1.2,18.1,0.9,20c0,0.2,0.2,0.3,0.3,0.1
			c0.2-1.5,0.3-3,0.6-4.5c0.5-2,2-2.9,3.8-3.6C5.8,11.9,5.7,11.6,5.5,11.7L5.5,11.7z"/>
	</g>
	<g id="XMLID_454_">
		<path id="XMLID_455_" class="st0" d="M3.6,37.3c0.4-0.1,0.8,0,1.2,0c0.3,0,0.7,0,1-0.1c0.2,0,0.1-0.3-0.1-0.3
			C5,37,4.3,36.9,3.5,37C3.4,37,3.4,37.3,3.6,37.3L3.6,37.3z"/>
	</g>
	<g id="XMLID_456_">
		<path id="XMLID_457_" class="st0" d="M5.9,37c0.2-1.4,0.1-2.9,0.3-4.3c0.2-1.5,0.4-3,0.5-4.5c0-0.2-0.3-0.2-0.3,0
			c0,1.3-0.3,2.6-0.4,3.9c-0.1,1.6-0.2,3.2-0.3,4.8C5.6,37.2,5.9,37.2,5.9,37L5.9,37z"/>
	</g>
	<g id="XMLID_458_">
		<path id="XMLID_459_" class="st0" d="M8.6,37c-0.2-1.2-0.2-2.4,0-3.6c0-0.2-0.3-0.2-0.3,0c0,0.1,0,0.1,0,0.2c0,0.2,0.3,0.2,0.3,0
			c0-0.1,0-0.1,0-0.2c-0.1,0-0.2,0-0.3,0c-0.1,1.2-0.1,2.4,0.1,3.7C8.4,37.2,8.6,37.2,8.6,37L8.6,37z"/>
	</g>
	<g id="XMLID_460_">
		<path id="XMLID_461_" class="st0" d="M7,26c0.9,1.2,1,3.6,1,5.1c0.1,1.6,0.1,3.3,0.2,4.9c0,0.2,0.3,0.2,0.3,0
			c-0.1-2-0.1-4-0.3-5.9c-0.1-1.3-0.2-3.1-1-4.2C7.1,25.8,6.9,25.9,7,26L7,26z"/>
	</g>
	<g id="XMLID_462_">
		<path id="XMLID_463_" class="st0" d="M6.6,29.2c0.1-0.4,0.1-0.9,0.1-1.3c0-0.3,0-0.6,0.1-0.8c0-0.2,0.1-0.8,0.4-0.6
			c0.1,0.1,0.3-0.1,0.2-0.2C7.3,26.2,7.2,26,7,26.1c-0.2,0.1-0.4,0.6-0.4,0.8c-0.2,0.7-0.1,1.5-0.2,2.2C6.3,29.3,6.6,29.4,6.6,29.2
			L6.6,29.2z"/>
	</g>
	<g id="XMLID_464_">
		<path id="XMLID_465_" class="st0" d="M9.3,37.3c0.4,0,1.5,0.3,1.5-0.3c-0.1-1.6-0.1-3.2-0.1-4.7c0-0.2-0.3-0.2-0.3,0
			c0,1.1,0,2.1,0,3.2c0,0.4,0,0.8,0,1.2c0,0.6-0.8,0.4-1.2,0.3C9.2,37,9.2,37.3,9.3,37.3L9.3,37.3z"/>
	</g>
	<path id="XMLID_466_" class="st4" d="M3.6,37.4c0,0-1,0.2-1.5,0.3c-0.5,0.1-0.8,0.8,0.1,0.8c0.9,0,3.5,0,3.5,0l0-1.3L3.6,37.4z"/>
	<path id="XMLID_467_" class="st5" d="M1.7,38.3c0.1,0.1,0.3,0.2,0.6,0.2c0.9,0,3.5,0,3.5,0v-0.2H1.7z"/>
	<path id="XMLID_468_" class="st5" d="M3,38.1c0,0,0-0.2-0.1-0.3c0,0-0.1-0.3-0.1-0.2c0,0,0-0.1-0.1-0.1c-0.3,0.1-0.6,0.1-0.8,0.2
		c-0.5,0.1-0.6,0.7,0.3,0.8c0.2,0,0.4,0,0.7,0C3,38.4,3,38.3,3,38.1z"/>
	<g id="XMLID_469_">
		<path id="XMLID_470_" class="st5" d="M2,37.8c0.7-0.3,1.4-0.2,2.2-0.3c0.4,0,1.5-0.3,1.5,0.2c0,0.3,0.1,0.6-0.3,0.6
			c-0.4,0-0.7,0-1.1,0c-0.4,0-0.8,0-1.1,0c-0.2,0-0.4,0-0.6,0C2.1,38.4,2,38.2,2,37.8c0.2-0.1,0.1-0.3-0.1-0.3
			c-0.2,0.1-0.5,0.3-0.4,0.6c0.3,0.6,1,0.4,1.5,0.5c0.5,0,0.9,0,1.4,0c0.4,0,0.9,0.1,1.3,0c0.3-0.1,0.2-1,0.2-1.3
			c0-0.1-0.1-0.1-0.1-0.1c-0.6,0-1.3,0.1-1.9,0.1c-0.7,0-1.3,0-1.9,0.3C1.8,37.6,1.9,37.9,2,37.8L2,37.8z"/>
	</g>
	<path id="XMLID_471_" class="st4" d="M10.6,37.4c0,0,1,0.2,1.5,0.3c0.5,0.1,0.8,0.8-0.1,0.8c-0.9,0-3.5,0-3.5,0l0-1.3L10.6,37.4z"
		/>
	<path id="XMLID_472_" class="st5" d="M12.5,38.3c-0.1,0.1-0.3,0.2-0.6,0.2c-0.9,0-3.5,0-3.5,0v-0.2H12.5z"/>
	<path id="XMLID_473_" class="st5" d="M11.2,38.1c0,0,0-0.2,0.1-0.3c0,0,0.1-0.3,0.1-0.2c0,0,0-0.1,0.1-0.1c0.3,0.1,0.6,0.1,0.8,0.2
		c0.5,0.1,0.6,0.7-0.3,0.8c-0.2,0-0.4,0-0.7,0C11.2,38.4,11.2,38.3,11.2,38.1z"/>
	<g id="XMLID_474_">
		<path id="XMLID_475_" class="st5" d="M12.2,37.5c-0.5-0.2-1.1-0.2-1.6-0.3c-0.7,0-1.5-0.1-2.2-0.1c-0.1,0-0.1,0.1-0.1,0.1
			c0,0.2-0.2,1.2,0.2,1.3c0.3,0.1,0.7,0,1,0c0.5,0,1.1,0.1,1.6,0c0.5,0,1.3,0.1,1.5-0.5C12.7,37.8,12.4,37.6,12.2,37.5
			c-0.2-0.1-0.2,0.2-0.1,0.3c0,0.2-0.1,0.3-0.1,0.5c-0.2,0-0.5,0-0.7,0c-0.4,0-0.8,0-1.2,0.1c-0.4,0-1.7,0.1-1.7-0.4
			c0-0.1-0.1-0.5,0.1-0.5c0.4,0,0.7,0,1.1,0.1c0.8,0.1,1.7,0,2.4,0.3C12.3,37.9,12.4,37.6,12.2,37.5L12.2,37.5z"/>
	</g>
</g>
</svg>
