<?xml version="1.0" encoding="utf-8"?>
<!-- Generator: Adobe Illustrator 19.0.0, SVG Export Plug-In . SVG Version: 6.00 Build 0)  -->
<svg version="1.1" id="Layer_1" xmlns="http://www.w3.org/2000/svg" xmlns:xlink="http://www.w3.org/1999/xlink" x="0px" y="0px"
	 viewBox="0 0 32.7 32.6" style="enable-background:new 0 0 32.7 32.6;" xml:space="preserve">
<style type="text/css">
	.st0{fill:#FFF5D9;}
	.st1{fill:#FFFFFF;}
</style>
<g id="XMLID_93_">
	<g id="XMLID_204_">
		<rect id="XMLID_279_" x="11.9" y="0.5" class="st0" width="8.5" height="31.4"/>
		<g id="XMLID_258_">
			<path id="XMLID_97_" class="st0" d="M12.4,0.4c1.3-0.3,2.7,0,4,0.1c1.2,0.1,2.5,0,3.8,0"/>
			<g id="XMLID_89_">
				<path id="XMLID_96_" class="st1" d="M12.4,0.7c1.4-0.2,2.7,0.1,4.2,0.2c1.2,0.1,2.3,0,3.5,0c0.4,0,0.4-0.7,0-0.7
					c-1.3,0-2.7,0.1-4-0.1c-1.3-0.1-2.5-0.3-3.8-0.1C11.8,0.2,12,0.8,12.4,0.7L12.4,0.7z"/>
			</g>
		</g>
		<g id="XMLID_239_">
			<path id="XMLID_87_" class="st0" d="M12,31.9c-0.3-5.2,0-10.9,0.2-16.2c0.1-5,0.1-10.2,0.1-15.2"/>
			<g id="XMLID_82_">
				<path id="XMLID_86_" class="st1" d="M12.3,31.9c-0.5-10.4,0.2-21,0.2-31.4c0-0.4-0.7-0.4-0.7,0c0,10.4-0.7,21-0.2,31.4
					C11.7,32.3,12.4,32.3,12.3,31.9L12.3,31.9z"/>
			</g>
		</g>
		<g id="XMLID_224_">
			<path id="XMLID_80_" class="st0" d="M20.5,32c0.3-5.2,0-10.9-0.1-16.2c-0.1-5,0-10.2,0-15.2"/>
			<g id="XMLID_75_">
				<path id="XMLID_79_" class="st1" d="M20.9,32c0.5-10.4-0.2-21-0.2-31.4c0-0.4-0.7-0.4-0.7,0c0,10.4,0.7,21,0.2,31.4
					C20.2,32.5,20.8,32.5,20.9,32L20.9,32z"/>
			</g>
		</g>
		<g id="XMLID_206_">
			<path id="XMLID_73_" class="st0" d="M12.4,31.9c1.3-0.3,2.7,0,4,0.1c1.2,0.1,2.5,0,3.8,0"/>
			<g id="XMLID_68_">
				<path id="XMLID_72_" class="st1" d="M12.4,32.2c1.4-0.2,2.7,0.1,4.2,0.2c1.2,0.1,2.3,0,3.5,0c0.4,0,0.4-0.7,0-0.7
					c-1.3,0-2.7,0.1-4-0.1c-1.3-0.1-2.5-0.3-3.8-0.1C11.8,31.6,12,32.3,12.4,32.2L12.4,32.2z"/>
			</g>
		</g>
	</g>
	<g id="XMLID_147_">
		<rect id="XMLID_203_" x="23.9" y="6.4" class="st0" width="8.3" height="25.6"/>
		<g id="XMLID_182_">
			<path id="XMLID_66_" class="st0" d="M24.1,6.4c1.3-0.2,2.7,0,4,0.1c1.2,0.1,2.5,0,3.8,0"/>
			<g id="XMLID_61_">
				<path id="XMLID_65_" class="st1" d="M24.1,6.7c2.5-0.3,5.2,0.2,7.7,0.1c0.4,0,0.4-0.7,0-0.7c-2.5,0-5.2-0.5-7.7-0.1
					C23.6,6.1,23.6,6.8,24.1,6.7L24.1,6.7z"/>
			</g>
		</g>
		<g id="XMLID_165_">
			<path id="XMLID_59_" class="st0" d="M23.7,32c-0.3-4.3,0-8.9,0.2-13.2c0.1-4.1,0.1-8.3,0.1-12.4"/>
			<g id="XMLID_54_">
				<path id="XMLID_58_" class="st1" d="M24,32c-0.5-8.5,0.2-17.1,0.2-25.6c0-0.4-0.7-0.4-0.7,0c0,8.5-0.7,17.1-0.2,25.6
					C23.4,32.4,24.1,32.4,24,32L24,32z"/>
			</g>
		</g>
		<g id="XMLID_156_">
			<path id="XMLID_52_" class="st0" d="M32.2,32.2c0.3-4.3,0-8.9-0.1-13.2c-0.1-4.1,0-8.3,0-12.4"/>
			<g id="XMLID_47_">
				<path id="XMLID_51_" class="st1" d="M32.6,32.2c0.4-8.5-0.2-17.1-0.2-25.6c0-0.4-0.7-0.4-0.7,0c0,8.5,0.6,17.1,0.2,25.6
					C31.9,32.6,32.5,32.6,32.6,32.2L32.6,32.2z"/>
			</g>
		</g>
		<g id="XMLID_148_">
			<path id="XMLID_45_" class="st0" d="M24.1,32.1c1.3-0.2,2.7,0,4,0.1c1.2,0.1,2.5,0,3.8,0"/>
			<g id="XMLID_40_">
				<path id="XMLID_44_" class="st1" d="M24.1,32.5c2.5-0.3,5.2,0.2,7.7,0.1c0.4,0,0.4-0.7,0-0.7c-2.5,0-5.2-0.5-7.7-0.1
					C23.6,31.9,23.6,32.5,24.1,32.5L24.1,32.5z"/>
			</g>
		</g>
	</g>
	<g id="XMLID_94_">
		<rect id="XMLID_146_" x="0.6" y="15.7" class="st0" width="8.2" height="16.3"/>
		<g id="XMLID_137_">
			<path id="XMLID_38_" class="st0" d="M0.7,15.7c1.3-0.1,2.7,0,4,0.1c1.2,0,2.5,0,3.8,0"/>
			<g id="XMLID_33_">
				<path id="XMLID_37_" class="st1" d="M0.7,16c2.6-0.2,5.2,0.1,7.7,0.1c0.4,0,0.4-0.7,0-0.7c-2.6,0-5.2-0.3-7.7-0.1
					C0.3,15.4,0.3,16,0.7,16L0.7,16z"/>
			</g>
		</g>
		<g id="XMLID_128_">
			<path id="XMLID_31_" class="st0" d="M0.5,32.1c-0.3-2.7,0-5.7,0.2-8.4c0.1-2.6,0.1-5.3,0.1-7.9"/>
			<g id="XMLID_26_">
				<path id="XMLID_30_" class="st1" d="M0.8,32.1c-0.5-5.4,0.2-11,0.2-16.4c0-0.4-0.7-0.4-0.7,0c0,5.4-0.7,11-0.2,16.4
					C0.2,32.5,0.9,32.5,0.8,32.1L0.8,32.1z"/>
			</g>
		</g>
		<g id="XMLID_114_">
			<path id="XMLID_24_" class="st0" d="M8.9,32.2c0.3-2.7,0-5.7-0.1-8.4c-0.1-2.6,0-5.3,0-7.9"/>
			<g id="XMLID_19_">
				<path id="XMLID_23_" class="st1" d="M9.2,32.2C9.6,26.8,9,21.2,9,15.8c0-0.4-0.7-0.4-0.7,0c0,5.4,0.6,11,0.2,16.4
					C8.5,32.6,9.2,32.6,9.2,32.2L9.2,32.2z"/>
			</g>
		</g>
		<g id="XMLID_95_">
			<path id="XMLID_17_" class="st0" d="M0.7,32.1c1.3-0.1,2.7,0,4,0.1c1.2,0,2.5,0,3.8,0"/>
			<g id="XMLID_12_">
				<path id="XMLID_16_" class="st1" d="M0.7,32.5c2.6-0.2,5.2,0.1,7.7,0.1c0.4,0,0.4-0.7,0-0.7c-2.6,0-5.2-0.3-7.7-0.1
					C0.3,31.8,0.3,32.5,0.7,32.5L0.7,32.5z"/>
			</g>
		</g>
	</g>
</g>
</svg>
