<?xml version="1.0" encoding="utf-8"?>
<!-- Generator: Adobe Illustrator 19.0.0, SVG Export Plug-In . SVG Version: 6.00 Build 0)  -->
<svg version="1.1" id="Layer_1" xmlns="http://www.w3.org/2000/svg" xmlns:xlink="http://www.w3.org/1999/xlink" x="0px" y="0px"
	 viewBox="0 0 23.5 26.6" style="enable-background:new 0 0 23.5 26.6;" xml:space="preserve">
<style type="text/css">
	.st0{fill:#FFF5D9;}
</style>
<g id="XMLID_1411_">
	<path id="XMLID_11_" class="st0" d="M4.8,0.6c-1.5,0-2.9,0.1-4.4,0.1C0,3.1-0.1,6.2,2.2,7.3c0.6,0.3,1.4,0.4,2.1,0.5
		c3.1,0.3,6.2,0.6,9.3,0.9c0.6,0.1,1.2,0.1,1.7,0.5c1,0.7,1.1,2.1,1.1,3.3c0,1.3,0,2.6,0,3.9c0,0.5,0,1.1-0.5,1.5
		C15.5,18,15.1,18,14.7,18c-2.3,0-4.5,0-6.8,0.1c-1.8,0-3.6,0-5.2,0.8s-2.9,2.5-2.6,4.2c0.3,1.4,1.5,2.5,2.8,3s2.8,0.5,4.2,0.5
		c3.1,0,6.2,0,9.4,0c1.6,0,3.4-0.1,4.6-1.2c0.8-0.8,1.2-1.9,1.4-2.9c1.7-6.6,1.3-13.8-1.1-20.1c-0.2-0.5-0.4-1.1-0.9-1.4
		C20,0.7,19.5,0.7,19,0.6C14.6,0.4,10.2,0.2,5.9,0"/>
</g>
</svg>
