<?xml version="1.0" encoding="utf-8"?>
<!-- Generator: Adobe Illustrator 19.0.0, SVG Export Plug-In . SVG Version: 6.00 Build 0)  -->
<svg version="1.1" id="Layer_1" xmlns="http://www.w3.org/2000/svg" xmlns:xlink="http://www.w3.org/1999/xlink" x="0px" y="0px"
	 viewBox="0 0 26 26" style="enable-background:new 0 0 26 26;" xml:space="preserve">
<style type="text/css">
	.st0{fill:#001D2D;}
	.st1{opacity:0.46;fill:#FFF5D9;}
</style>
<g id="XMLID_238_">
	<g id="XMLID_239_">
		<g id="XMLID_269_">
			<path id="XMLID_17_" class="st0" d="M18.5,7.1c-0.8,0.6-2,0.6-3,0.7C12,8.2,9.7,8.1,5.9,8.3C4.8,8.4,5.2,9.5,5.2,9.7
				C5.3,11.5,5.6,12,6,14c0,0.3,0.1,0.7,0.4,0.9C6.5,15,6.8,15,7,15.1c2.5,0.2,5,0.1,7.5,0.3c0.5,0,1.6,0.3,2-1.4
				C17.1,11.4,17.8,9.4,18.5,7.1L18.5,7.1z"/>
		</g>
		<g id="XMLID_249_">
			<path id="XMLID_15_" class="st0" d="M6.8,18.5c0.1-0.2,0-0.5,0.3-0.6c0.2-0.1,0.5-0.1,0.7-0.1c2.9-0.1,5.9-0.2,8.8-0.2
				c0.3,0,0.6,0,0.8-0.2c0.2-0.2,0.2-0.4,0.2-0.7c0-0.2-0.2-0.5-0.3-0.7c-0.3-0.4-0.6-0.7-1-1.1c-0.1-0.1-0.3-0.2-0.5-0.2
				c0,0-0.1,0-0.1,0c-0.1,0.1-0.2,0.2-0.1,0.4c0.1,0.1,0.2,0.2,0.3,0.3c0.4,0.3,0.7,0.7,0.9,1.2c0,0.1,0.1,0.1,0,0.2
				c0,0.2-0.4,0.1-0.5,0.1c-3-0.3-5.9,0.3-8.8,0.1c-0.4,0-0.9,0-1.1,0.3c-0.2,0.2-0.2,0.6-0.2,0.9c0,0.1,0,0.3,0.1,0.4
				C6.3,18.7,6.7,18.6,6.8,18.5z"/>
		</g>
		<g id="XMLID_246_">
			<path id="XMLID_13_" class="st0" d="M18.7,7c0.2-0.2,0.3-0.5,0.5-0.5c0.2,0,0.4-0.1,0.6-0.1c0.2,0,0.4,0,0.5,0
				c0.1,0,0.2,0,0.3-0.1c0,0,0.1-0.1,0.1-0.2c0-0.1,0.1-0.3,0-0.4c-0.1-0.1-0.2-0.1-0.3-0.1c-0.6,0-1.1,0-1.7,0.1
				c-0.1,0-0.3,0-0.4,0.1c-0.1,0.1-0.2,0.3-0.2,0.4c0,0.2-0.1,0.5-0.2,0.6c-0.1,0.3-0.4,0.6-0.4,0.8c0.1,0.3,0.3,0.2,0.5,0.4
				C18.2,8.1,18.6,7.3,18.7,7z"/>
		</g>
		<g id="XMLID_243_">
			<path id="XMLID_11_" class="st0" d="M9.5,19.9c0.2-0.3,0.3-0.7,0.2-1c-0.1-0.3-0.4-0.6-0.8-0.6c-0.1,0-0.2,0-0.3,0
				c-0.1,0-0.1,0.1-0.2,0.1c-0.5,0.4-0.6,1.1-0.3,1.6c0,0.1,0.1,0.1,0.1,0.2c0.1,0,0.1,0.1,0.2,0.1c0.2,0,0.4,0.1,0.6,0
				C9.2,20.2,9.4,20.1,9.5,19.9"/>
		</g>
		<g id="XMLID_240_">
			<path id="XMLID_9_" class="st0" d="M15.4,19.9c0.2-0.3,0.3-0.7,0.2-1c-0.1-0.3-0.4-0.6-0.8-0.6c-0.1,0-0.2,0-0.3,0
				c-0.1,0-0.1,0.1-0.2,0.1c-0.5,0.4-0.6,1.1-0.3,1.6c0,0.1,0.1,0.1,0.1,0.2c0.1,0,0.1,0.1,0.2,0.1c0.2,0,0.4,0.1,0.6,0
				C15,20.2,15.2,20.1,15.4,19.9"/>
		</g>
	</g>
</g>
<circle id="XMLID_237_" class="st1" cx="13" cy="13" r="13"/>
</svg>
