<?xml version="1.0" encoding="utf-8"?>
<!-- Generator: Adobe Illustrator 18.1.0, SVG Export Plug-In . SVG Version: 6.00 Build 0)  -->
<svg version="1.1" id="Layer_1" xmlns="http://www.w3.org/2000/svg" xmlns:xlink="http://www.w3.org/1999/xlink" x="0px" y="0px"
	 viewBox="0 0 142.6 100.4" style="enable-background:new 0 0 142.6 100.4;" xml:space="preserve">
<style type="text/css">
	.st0{fill:#FFFFFF;}
	.st1{fill:#0071FC;}
	.st2{fill:none;stroke:#001D2D;stroke-width:2;stroke-linecap:round;stroke-linejoin:round;stroke-miterlimit:10;}
	.st3{fill:#F4D49D;}
	.st4{fill:#44612D;}
	.st5{fill:#9BC53D;}
	.st6{fill:#CDCED0;}
	.st7{fill:#E7E9E6;}
	.st8{fill:#C9A877;}
	.st9{fill:#D2A12A;}
	.st10{fill:#EEA820;}
	.st11{fill:#6E1F3F;}
	.st12{fill:#2AAAE2;}
	.st13{fill:#25809A;}
	.st14{fill:#F48CA3;}
	.st15{fill:#BD294C;}
	.st16{fill:#6B3315;}
	.st17{fill:#ED2024;}
	.st18{fill:#FFCB0B;}
	.st19{fill:#412312;}
	.st20{fill:#282A73;}
	.st21{fill:#228099;}
	.st22{fill:#0000B2;}
	.st23{fill:#FFCB05;}
	.st24{fill:#EFA803;}
	.st25{fill:#D16502;}
	.st26{fill:#902924;}
	.st27{fill:#B71A25;}
	.st28{fill:#FF0005;}
	.st29{fill:#AD8104;}
	.st30{fill:#FFDB9C;}
	.st31{fill:#FFEDD4;}
	.st32{fill:#D3A100;}
	.st33{fill:#006837;}
	.st34{fill:#ED1C24;}
	.st35{fill:#6D6C73;}
	.st36{fill:#BFBEBE;}
	.st37{fill:#FFF5D9;}
	.st38{fill:#FF5005;}
	.st39{fill:#F26636;}
	.st40{fill:#EC2227;}
	.st41{fill:#2C3A96;}
	.st42{fill:#B72027;}
	.st43{fill:#C89754;}
	.st44{fill:#F19121;}
	.st45{fill:#FDEB07;}
	.st46{fill:#FEC045;}
	.st47{fill:#732644;}
	.st48{fill:#BB1E72;}
	.st49{fill:#AD832D;}
	.st50{fill:#08549E;}
	.st51{fill:#416FB6;}
	.st52{fill:#9A3D21;}
	.st53{fill:#BD4D27;}
</style>
<g id="XMLID_635_">
	<g id="_x2B__5_">
		<line id="XMLID_97_" class="st2" x1="89" y1="70.7" x2="73" y2="70.7"/>
		<line id="XMLID_95_" class="st2" x1="81" y1="78.7" x2="81" y2="62.7"/>
	</g>
	<g id="XMLID_13242_">
		<path id="XMLID_17650_" class="st29" d="M51.2,4.9c0.5-1.3,0.9-3,0-4c-0.6-0.6-1.6-0.8-2.5-0.8c-2.4-0.1-4.7,0.1-7.1,0.5
			C39,1.1,36.5,2,33.9,1.8c-1.3-0.1-2.5-0.5-3.8-0.8c-2.6-0.5-5.3-0.2-7.9,0C17.1,1.5,12,2,7.2,3.7C6.7,3.9,6.1,4.1,5.7,4.5
			C5.2,5.1,5,5.9,4.8,6.6c-2.1,9.7-4.2,19.6-3.9,29.5c0.1,5.5,1,11.1,0.4,16.6c-0.3,2.8-1,5.5-1.2,8.3c-0.3,3.2,0.1,6.4,0.4,9.7
			c0.5,4.8,1,9.6,1.5,14.5c0.1,0.7,0.2,1.5,0.7,2c0.5,0.6,1.4,0.7,2.1,0.8c3.3,0.3,6.5,0.3,9.8,0.3c9.4,0,18.7,0.1,28.1,0.1
			c2.3,0,5-0.2,6.2-2.1c0.6-0.9,0.7-1.9,0.8-2.9c1-8.2,2.1-16.5,0.9-24.6c-0.3-2.2-0.8-4.4-0.8-6.6c0-3.1,1-6.2,1.6-9.3
			c2.4-12.3-0.9-25,0.3-37.4"/>
		<g id="XMLID_17429_">
			<path id="XMLID_17649_" class="st30" d="M7.2,3.4C6.7,3.6,6.1,3.8,5.7,4.2C5.2,4.8,5,5.6,4.8,6.4c-2.1,9.7-4.2,19.6-3.9,29.5
				C1,41.4,1.9,47,1.3,52.5c-0.3,2.8-1,5.5-1.2,8.3c-0.3,3.2,0.1,6.4,0.4,9.7c0.5,4.8,1,9.6,1.5,14.5c0.1,0.7,0.2,1.5,0.7,2
				c0.5,0.6,1.4,0.7,2.1,0.8c3.3,0.3,6.5,0.3,9.8,0.3c1.4,0,2.8,0,4.2,0c0.4-29.1,1.4-58.1,2.9-87.2C16.8,1.3,11.9,1.8,7.2,3.4z"/>
			<g id="XMLID_17431_">
				<g id="XMLID_17647_">
					<path id="XMLID_17648_" class="st31" d="M14.1,4.2c-0.3-0.4-0.7-0.7-1-1.1c-0.4-0.4-0.9,0.2-0.6,0.6c0.3,0.4,0.7,0.7,1,1.1
						C13.8,5.2,14.4,4.6,14.1,4.2L14.1,4.2z"/>
				</g>
				<g id="XMLID_17645_">
					<path id="XMLID_17646_" class="st31" d="M13.8,35.2c0.4-0.2,0.9-0.3,1.3-0.5c0.5-0.2,0.3-0.9-0.2-0.8c-0.4,0.2-0.9,0.3-1.3,0.5
						C13.1,34.6,13.3,35.3,13.8,35.2L13.8,35.2z"/>
				</g>
				<g id="XMLID_17643_">
					<path id="XMLID_17644_" class="st31" d="M7.1,68.6c-0.3-0.4-0.7-0.8-1-1.1c-0.4-0.4-0.9,0.2-0.6,0.6c0.3,0.4,0.7,0.8,1,1.1
						C6.9,69.6,7.5,69,7.1,68.6L7.1,68.6z"/>
				</g>
				<g id="XMLID_17641_">
					<path id="XMLID_17642_" class="st31" d="M9.3,84.9c-0.6,0-1.3,0-1.9,0c-0.7,0-0.7,1.1,0,1.1c0.6,0,1.3,0,1.9,0
						C10,86,10,84.9,9.3,84.9L9.3,84.9z"/>
				</g>
				<g id="XMLID_17639_">
					<path id="XMLID_17640_" class="st31" d="M6.2,77.5c0.5-0.2,0.9-0.3,1.4-0.5c0.5-0.2,0.3-1-0.2-0.8c-0.5,0.2-0.9,0.3-1.4,0.5
						C5.5,76.9,5.7,77.7,6.2,77.5L6.2,77.5z"/>
				</g>
				<g id="XMLID_17637_">
					<path id="XMLID_17638_" class="st31" d="M2.5,74.2c0.5-0.3,1-0.5,1.6-0.8c0.6-0.3,0.1-1.1-0.5-0.8c-0.5,0.3-1,0.5-1.6,0.8
						C1.4,73.6,1.9,74.4,2.5,74.2L2.5,74.2z"/>
				</g>
				<g id="XMLID_17635_">
					<path id="XMLID_17636_" class="st31" d="M3.3,49.3c0-0.5,0-1.1,0-1.6c0-0.6-0.9-0.6-0.9,0c0,0.5,0,1.1,0,1.6
						C2.4,49.8,3.3,49.8,3.3,49.3L3.3,49.3z"/>
				</g>
				<g id="XMLID_17633_">
					<path id="XMLID_17634_" class="st31" d="M5.2,84.3c-0.1-0.6-0.2-1.3-0.4-1.9c-0.1-0.7-1.2-0.4-1,0.3C3.9,83.4,4,84,4.1,84.6
						C4.3,85.3,5.3,85,5.2,84.3L5.2,84.3z"/>
				</g>
				<g id="XMLID_17631_">
					<path id="XMLID_17632_" class="st31" d="M17.5,87c0.3-0.4,0.5-0.9,0.8-1.3c0.3-0.5-0.5-0.9-0.8-0.4c-0.3,0.4-0.5,0.9-0.8,1.3
						C16.4,87.1,17.2,87.5,17.5,87L17.5,87z"/>
				</g>
				<g id="XMLID_17629_">
					<path id="XMLID_17630_" class="st31" d="M4.1,51.4c-0.5,0.4-1,0.8-1.5,1.1c-0.2,0.2-0.4,0.5-0.2,0.7c0.1,0.2,0.5,0.4,0.7,0.2
						c0.5-0.4,1-0.8,1.5-1.1c0.2-0.2,0.4-0.5,0.2-0.7C4.7,51.3,4.4,51.2,4.1,51.4L4.1,51.4z"/>
				</g>
				<g id="XMLID_17627_">
					<path id="XMLID_17628_" class="st31" d="M7.2,62.5c-0.4-0.5-0.8-1-1.3-1.5c-0.2-0.2-0.6-0.2-0.8,0c-0.2,0.2-0.2,0.5,0,0.8
						c0.4,0.5,0.8,1,1.3,1.5c0.2,0.2,0.6,0.2,0.8,0C7.4,63,7.4,62.7,7.2,62.5L7.2,62.5z"/>
				</g>
				<g id="XMLID_17625_">
					<path id="XMLID_17626_" class="st31" d="M16.9,75.8c0,0.6,0.1,1.3,0.1,1.9c0,0.7,1.1,0.7,1.1,0c0-0.6-0.1-1.3-0.1-1.9
						C17.9,75.2,16.8,75.1,16.9,75.8L16.9,75.8z"/>
				</g>
				<g id="XMLID_17623_">
					<path id="XMLID_17624_" class="st31" d="M15.2,8.7c-0.1-0.5-0.1-1.1-0.2-1.6c0-0.2-0.2-0.5-0.5-0.5c-0.2,0-0.5,0.2-0.5,0.5
						c0.1,0.5,0.1,1.1,0.2,1.6c0,0.2,0.2,0.5,0.5,0.5C14.9,9.2,15.2,9,15.2,8.7L15.2,8.7z"/>
				</g>
				<g id="XMLID_17621_">
					<path id="XMLID_17622_" class="st31" d="M9.6,60.3c0.4-0.4,0.7-0.7,1.1-1.1c0.4-0.4-0.2-1-0.6-0.6C9.7,59,9.3,59.4,9,59.7
						C8.6,60.1,9.2,60.7,9.6,60.3L9.6,60.3z"/>
				</g>
				<g id="XMLID_17619_">
					<path id="XMLID_17620_" class="st31" d="M3.4,65.5c0.5,0.2,0.9,0.5,1.4,0.7c0.5,0.3,1-0.5,0.4-0.8c-0.5-0.2-0.9-0.5-1.4-0.7
						C3.4,64.4,2.9,65.2,3.4,65.5L3.4,65.5z"/>
				</g>
				<g id="XMLID_17617_">
					<path id="XMLID_17618_" class="st31" d="M13.4,47c0.5-0.3,1.1-0.7,1.6-1c0.6-0.4,0-1.3-0.5-0.9c-0.5,0.3-1.1,0.7-1.6,1
						C12.3,46.5,12.8,47.4,13.4,47L13.4,47z"/>
				</g>
				<g id="XMLID_17615_">
					<path id="XMLID_17616_" class="st31" d="M7.4,39.6C7.6,40,7.8,40.5,8,40.9c0.1,0.2,0.4,0.3,0.6,0.2c0.2-0.1,0.2-0.4,0.2-0.6
						c-0.2-0.5-0.4-0.9-0.6-1.4C8,38.9,7.7,38.9,7.6,39C7.3,39.1,7.3,39.4,7.4,39.6L7.4,39.6z"/>
				</g>
				<g id="XMLID_17613_">
					<path id="XMLID_17614_" class="st31" d="M18,8c0.6,0.1,1.2,0.1,1.8,0.2c0.6,0.1,0.6-0.9,0-1C19.2,7.1,18.6,7.1,18,7
						C17.4,7,17.4,8,18,8L18,8z"/>
				</g>
				<g id="XMLID_17611_">
					<path id="XMLID_17612_" class="st31" d="M1.9,61.1c0.3-0.4,0.7-0.7,1-1.1c0.4-0.4-0.2-1-0.6-0.6c-0.3,0.4-0.7,0.7-1,1.1
						C1,60.9,1.6,61.5,1.9,61.1L1.9,61.1z"/>
				</g>
				<g id="XMLID_17609_">
					<path id="XMLID_17610_" class="st31" d="M0.9,65.1c0.5-0.2,1.1-0.4,1.6-0.7c0.2-0.1,0.4-0.3,0.3-0.6c-0.1-0.2-0.4-0.4-0.6-0.3
						c-0.5,0.2-1.1,0.4-1.6,0.7c-0.2,0.1-0.4,0.3-0.3,0.6C0.4,65,0.7,65.2,0.9,65.1L0.9,65.1z"/>
				</g>
				<g id="XMLID_17607_">
					<path id="XMLID_17608_" class="st31" d="M8.1,81c-0.4-0.3-0.8-0.6-1.2-0.9c-0.2-0.1-0.5,0-0.6,0.2c-0.1,0.2,0,0.4,0.2,0.6
						c0.4,0.3,0.8,0.6,1.2,0.9c0.2,0.1,0.5,0,0.6-0.2C8.4,81.4,8.3,81.2,8.1,81L8.1,81z"/>
				</g>
				<g id="XMLID_17605_">
					<path id="XMLID_17606_" class="st31" d="M17.6,68.5c-0.5-0.1-1.1-0.2-1.6-0.3c-0.6-0.1-0.8,0.8-0.2,0.9
						c0.5,0.1,1.1,0.2,1.6,0.3C18,69.5,18.2,68.6,17.6,68.5L17.6,68.5z"/>
				</g>
				<g id="XMLID_17603_">
					<path id="XMLID_17604_" class="st31" d="M17.9,24.6c0.6-0.1,1.1-0.2,1.7-0.4c0.6-0.1,0.4-1.1-0.3-1c-0.6,0.1-1.1,0.2-1.7,0.4
						C17,23.8,17.3,24.8,17.9,24.6L17.9,24.6z"/>
				</g>
				<g id="XMLID_17601_">
					<path id="XMLID_17602_" class="st31" d="M7.2,7.5C7.1,7,7,6.5,6.9,6C6.8,5.5,6,5.7,6.1,6.3c0.1,0.5,0.2,1,0.3,1.5
						C6.5,8.3,7.3,8.1,7.2,7.5L7.2,7.5z"/>
				</g>
				<g id="XMLID_17599_">
					<path id="XMLID_17600_" class="st31" d="M11.1,46.1c-0.4,0.2-0.9,0.5-1.3,0.7c-0.5,0.3,0,1,0.4,0.7c0.4-0.2,0.9-0.5,1.3-0.7
						C11.9,46.5,11.5,45.8,11.1,46.1L11.1,46.1z"/>
				</g>
				<g id="XMLID_17597_">
					<path id="XMLID_17598_" class="st31" d="M16.1,62.6c0.5-0.1,0.9-0.3,1.4-0.4c0.5-0.2,0.3-1-0.2-0.8c-0.5,0.1-0.9,0.3-1.4,0.4
						C15.4,61.9,15.6,62.7,16.1,62.6L16.1,62.6z"/>
				</g>
				<g id="XMLID_17595_">
					<path id="XMLID_17596_" class="st31" d="M9.9,5.2c-0.4-0.5-0.7-1-1.1-1.6C8.5,3,7.5,3.6,7.9,4.1c0.4,0.5,0.7,1,1.1,1.6
						C9.4,6.3,10.3,5.7,9.9,5.2L9.9,5.2z"/>
				</g>
				<g id="XMLID_17593_">
					<path id="XMLID_17594_" class="st31" d="M17.1,45c0.1,0.6,0.2,1.2,0.3,1.8c0.1,0.7,1.1,0.4,1-0.3c-0.1-0.6-0.2-1.2-0.3-1.8
						C18,44,17,44.3,17.1,45L17.1,45z"/>
				</g>
				<g id="XMLID_17591_">
					<path id="XMLID_17592_" class="st31" d="M7.1,54.6c-0.3,0.5-0.5,1.1-0.8,1.6c-0.3,0.6,0.6,1.1,0.9,0.5c0.3-0.5,0.5-1.1,0.8-1.6
						C8.2,54.5,7.4,54,7.1,54.6L7.1,54.6z"/>
				</g>
				<g id="XMLID_17589_">
					<path id="XMLID_17590_" class="st31" d="M11.4,50.9c-0.6,0.3-1.1,0.6-1.7,0.9c-0.6,0.3-0.1,1.3,0.5,0.9
						c0.6-0.3,1.1-0.6,1.7-0.9C12.5,51.5,12,50.6,11.4,50.9L11.4,50.9z"/>
				</g>
				<g id="XMLID_17587_">
					<path id="XMLID_17588_" class="st31" d="M13,20.6c-0.5,0-1-0.1-1.5-0.1c-0.6,0-0.6,0.8,0,0.9c0.5,0,1,0.1,1.5,0.1
						C13.6,21.5,13.6,20.6,13,20.6L13,20.6z"/>
				</g>
				<g id="XMLID_17585_">
					<path id="XMLID_17586_" class="st31" d="M6.5,13.7c-0.5,0-1,0-1.5,0c-0.5,0-0.5,0.9,0,0.9c0.5,0,1,0,1.5,0
						C7.1,14.5,7.1,13.6,6.5,13.7L6.5,13.7z"/>
				</g>
				<g id="XMLID_17583_">
					<path id="XMLID_17584_" class="st31" d="M7.1,35.2c-0.3,0.5-0.7,1-1,1.5c-0.4,0.6,0.5,1.1,0.9,0.5c0.3-0.5,0.7-1,1-1.5
						C8.3,35.2,7.4,34.6,7.1,35.2L7.1,35.2z"/>
				</g>
				<g id="XMLID_17581_">
					<path id="XMLID_17582_" class="st31" d="M11,32.6c0.4-0.4,0.7-0.8,1.1-1.1c0.4-0.4-0.2-1-0.6-0.6c-0.4,0.4-0.7,0.8-1.1,1.1
						C10,32.4,10.6,33,11,32.6L11,32.6z"/>
				</g>
				<g id="XMLID_17579_">
					<path id="XMLID_17580_" class="st31" d="M8.1,27.7c0.4,0.4,0.9,0.9,1.3,1.3c0.5,0.5,1.2-0.3,0.7-0.7c-0.4-0.4-0.9-0.9-1.3-1.3
						C8.3,26.4,7.6,27.2,8.1,27.7L8.1,27.7z"/>
				</g>
				<g id="XMLID_17577_">
					<path id="XMLID_17578_" class="st31" d="M13.2,50.2c0.3,0.4,0.6,0.7,1,1.1c0.3,0.4,0.9-0.2,0.6-0.6c-0.3-0.4-0.6-0.7-1-1.1
						C13.4,49.2,12.9,49.8,13.2,50.2L13.2,50.2z"/>
				</g>
				<g id="XMLID_17575_">
					<path id="XMLID_17576_" class="st31" d="M5.3,10.9c0.5-0.1,1.1-0.2,1.6-0.3c0.6-0.1,0.3-1-0.2-0.9C6.1,9.8,5.6,9.9,5,10
						C4.4,10.1,4.7,11,5.3,10.9L5.3,10.9z"/>
				</g>
				<g id="XMLID_17573_">
					<path id="XMLID_17574_" class="st31" d="M10.7,68.7c-0.5,0.2-1,0.3-1.6,0.5c-0.6,0.2-0.3,1.1,0.2,0.9c0.5-0.2,1-0.3,1.6-0.5
						C11.5,69.4,11.2,68.5,10.7,68.7L10.7,68.7z"/>
				</g>
				<g id="XMLID_17571_">
					<path id="XMLID_17572_" class="st31" d="M9.5,44.2c0.6-0.3,1.1-0.7,1.7-1c0.6-0.4,0.1-1.3-0.6-1c-0.6,0.3-1.1,0.7-1.7,1
						C8.4,43.6,8.9,44.6,9.5,44.2L9.5,44.2z"/>
				</g>
				<g id="XMLID_17569_">
					<path id="XMLID_17570_" class="st31" d="M14.6,30.4c0.2,0.4,0.4,0.9,0.6,1.3c0.2,0.5,1,0.1,0.7-0.4c-0.2-0.4-0.4-0.9-0.6-1.3
						C15.1,29.5,14.4,30,14.6,30.4L14.6,30.4z"/>
				</g>
				<g id="XMLID_17567_">
					<path id="XMLID_17568_" class="st31" d="M9.2,17.7c-0.5,0.1-1,0.3-1.5,0.4c-0.5,0.1-0.3,1,0.2,0.8c0.5-0.1,1-0.3,1.5-0.4
						C9.9,18.4,9.7,17.6,9.2,17.7L9.2,17.7z"/>
				</g>
				<g id="XMLID_17565_">
					<path id="XMLID_17566_" class="st31" d="M18.1,4.1c0.4-0.3,0.9-0.5,1.3-0.8c0.5-0.3,0-1-0.4-0.7c-0.4,0.3-0.9,0.5-1.3,0.8
						C17.2,3.7,17.6,4.4,18.1,4.1L18.1,4.1z"/>
				</g>
				<g id="XMLID_17563_">
					<path id="XMLID_17564_" class="st31" d="M10.5,14c-0.4,0.4-0.9,0.7-1.3,1.1c-0.2,0.2-0.2,0.5,0,0.7c0.2,0.2,0.5,0.2,0.7,0
						c0.4-0.4,0.9-0.7,1.3-1.1c0.2-0.2,0.2-0.5,0-0.7C10.9,13.8,10.7,13.9,10.5,14L10.5,14z"/>
				</g>
				<g id="XMLID_17561_">
					<path id="XMLID_17562_" class="st31" d="M6.3,51.8c0.4,0.5,0.8,1,1.1,1.5c0.2,0.2,0.5,0.3,0.7,0.2c0.2-0.1,0.4-0.5,0.2-0.7
						c-0.4-0.5-0.8-1-1.1-1.5c-0.2-0.2-0.5-0.3-0.7-0.2C6.3,51.2,6.1,51.6,6.3,51.8L6.3,51.8z"/>
				</g>
				<g id="XMLID_17559_">
					<path id="XMLID_17560_" class="st31" d="M16,79.2c-0.4-0.3-0.9-0.6-1.3-0.9c-0.5-0.3-0.9,0.4-0.4,0.8c0.4,0.3,0.9,0.6,1.3,0.9
						C16.1,80.3,16.5,79.5,16,79.2L16,79.2z"/>
				</g>
				<g id="XMLID_17557_">
					<path id="XMLID_17558_" class="st31" d="M12.9,82.8c0.5,0.1,1,0.2,1.5,0.3c0.5,0.1,0.7-0.7,0.2-0.8c-0.5-0.1-1-0.2-1.5-0.3
						C12.6,81.8,12.4,82.6,12.9,82.8L12.9,82.8z"/>
				</g>
				<g id="XMLID_17555_">
					<path id="XMLID_17556_" class="st31" d="M1.9,55.7c0.4,0.3,0.8,0.7,1.2,1c0.4,0.4,1-0.2,0.6-0.6c-0.4-0.3-0.8-0.7-1.2-1
						C2,54.8,1.4,55.4,1.9,55.7L1.9,55.7z"/>
				</g>
				<g id="XMLID_17553_">
					<path id="XMLID_17554_" class="st31" d="M11.7,86.6c0.3-0.4,0.6-0.8,0.9-1.3c0.1-0.2,0-0.5-0.2-0.6c-0.2-0.1-0.5,0-0.6,0.2
						c-0.3,0.4-0.6,0.8-0.9,1.3c-0.1,0.2,0,0.5,0.2,0.6C11.3,86.9,11.6,86.8,11.7,86.6L11.7,86.6z"/>
				</g>
				<g id="XMLID_17551_">
					<path id="XMLID_17552_" class="st31" d="M5.8,19.1c-0.6,0.2-1.2,0.4-1.8,0.6c-0.6,0.2-0.4,1.2,0.3,1c0.6-0.2,1.2-0.4,1.8-0.6
						C6.8,19.9,6.5,18.9,5.8,19.1L5.8,19.1z"/>
				</g>
				<g id="XMLID_17549_">
					<path id="XMLID_17550_" class="st31" d="M6.3,48.6c-0.5-0.1-1.1-0.1-1.6-0.2c-0.2,0-0.4,0.2-0.5,0.5c0,0.3,0.2,0.4,0.5,0.5
						c0.5,0.1,1.1,0.1,1.6,0.2c0.2,0,0.4-0.2,0.5-0.5C6.7,48.8,6.5,48.6,6.3,48.6L6.3,48.6z"/>
				</g>
				<g id="XMLID_17547_">
					<path id="XMLID_17548_" class="st31" d="M11.1,28.2c0.5,0.4,1,0.8,1.6,1.2c0.2,0.2,0.6,0.2,0.8,0c0.2-0.2,0.2-0.6,0-0.8
						c-0.5-0.4-1-0.8-1.6-1.2c-0.2-0.2-0.6-0.2-0.8,0C10.9,27.6,10.9,28,11.1,28.2L11.1,28.2z"/>
				</g>
				<g id="XMLID_17545_">
					<path id="XMLID_17546_" class="st31" d="M4.7,22.2C4.2,22,3.6,21.8,3,21.6c-0.6-0.2-0.9,0.8-0.3,1c0.6,0.2,1.1,0.4,1.7,0.6
						C5.1,23.4,5.3,22.4,4.7,22.2L4.7,22.2z"/>
				</g>
				<g id="XMLID_17543_">
					<path id="XMLID_17544_" class="st31" d="M15.1,43.6c0.5-0.4,0.9-0.8,1.4-1.2c0.5-0.4-0.2-1.2-0.7-0.7c-0.5,0.4-0.9,0.8-1.4,1.2
						C13.9,43.3,14.6,44,15.1,43.6L15.1,43.6z"/>
				</g>
				<g id="XMLID_17541_">
					<path id="XMLID_17542_" class="st31" d="M5.8,41.3c-0.4,0.3-0.8,0.7-1.1,1c-0.4,0.4,0.2,1,0.6,0.6c0.4-0.3,0.8-0.7,1.1-1
						C6.8,41.5,6.2,40.9,5.8,41.3L5.8,41.3z"/>
				</g>
				<g id="XMLID_17539_">
					<path id="XMLID_17540_" class="st8" d="M6.3,31c-0.4,0.9,0,1.9,1,2.2c0.7,0.2,0.9-0.8,0.3-1c-0.2-0.1-0.4-0.4-0.3-0.6
						C7.3,31.3,7.3,31,7,30.8C6.8,30.7,6.4,30.7,6.3,31L6.3,31z"/>
				</g>
				<g id="XMLID_17537_">
					<path id="XMLID_17538_" class="st8" d="M13,65.8c-0.6,0.6-0.6,1.7,0.1,2.3c0.2,0.2,0.5,0.2,0.7,0c0.2-0.2,0.2-0.6,0-0.7
						c-0.2-0.2-0.3-0.5-0.1-0.8C14.2,66.1,13.5,65.3,13,65.8L13,65.8z"/>
				</g>
				<g id="XMLID_17535_">
					<path id="XMLID_17536_" class="st8" d="M18.7,11.3c-0.7,0.4-0.9,1.4-0.5,2c0.2,0.2,0.4,0.3,0.7,0.2c0.2-0.1,0.3-0.4,0.2-0.7
						c-0.2-0.2-0.1-0.6,0.1-0.7C19.7,11.8,19.2,11,18.7,11.3L18.7,11.3z"/>
				</g>
				<g id="XMLID_17533_">
					<path id="XMLID_17534_" class="st8" d="M17.1,21.6c0.1-0.7-0.7-1.4-1.5-1.4c0,0,0,0.9,0,0.9c0.8,0,0.6,0.2,0.6,0.5
						c0,0.2,0.2,0.4,0.4,0.4C16.9,22.1,17.1,21.9,17.1,21.6L17.1,21.6z"/>
				</g>
				<g id="XMLID_17531_">
					<path id="XMLID_17532_" class="st8" d="M3.8,28.8c-0.6-0.7-1.8-0.7-2.4-0.1c-0.5,0.5,0.3,1.3,0.8,0.8c0.2-0.3,0.6-0.2,0.8,0.1
						c0.2,0.2,0.6,0.2,0.8,0C4,29.3,4,29,3.8,28.8L3.8,28.8z"/>
				</g>
				<g id="XMLID_17529_">
					<path id="XMLID_17530_" class="st8" d="M15,38.6c0.7,0.3,1.5-0.2,1.7-0.9c0.1-0.6-0.7-0.8-0.9-0.2c-0.1,0.3-0.3,0.4-0.6,0.3
						c-0.2-0.1-0.5,0.1-0.5,0.3C14.6,38.3,14.8,38.5,15,38.6L15,38.6z"/>
				</g>
				<g id="XMLID_17527_">
					<path id="XMLID_17528_" class="st8" d="M16.9,34.1c0.3,0.9,1.4,1.3,2.2,0.8c0.6-0.3,0.1-1.2-0.5-0.9c-0.2,0.1-0.6,0-0.7-0.2
						c-0.1-0.3-0.4-0.4-0.6-0.4C17,33.5,16.8,33.8,16.9,34.1L16.9,34.1z"/>
				</g>
				<g id="XMLID_17525_">
					<path id="XMLID_17526_" class="st8" d="M13.9,55.7c0.7-0.2,1.2-1,1-1.8c-0.1-0.2-0.3-0.4-0.6-0.3c-0.2,0.1-0.4,0.3-0.3,0.6
						c0.1,0.3,0,0.6-0.3,0.6C13.1,55,13.4,55.9,13.9,55.7L13.9,55.7z"/>
				</g>
				<g id="XMLID_17523_">
					<path id="XMLID_17524_" class="st8" d="M5.5,59.7c0.7-0.5,0.8-1.6,0.2-2.2C5.3,57,4.6,57.7,5,58.2c0.2,0.2,0.2,0.5,0,0.7
						c-0.2,0.2-0.3,0.4-0.2,0.7C4.9,59.7,5.3,59.9,5.5,59.7L5.5,59.7z"/>
				</g>
				<g id="XMLID_17521_">
					<path id="XMLID_17522_" class="st8" d="M18.4,42.5c0.6-0.6,0.6-1.6,0-2.2c-0.5-0.4-1.2,0.3-0.7,0.7c0.2,0.2,0.2,0.6,0,0.8
						C17.2,42.3,17.9,43,18.4,42.5L18.4,42.5z"/>
				</g>
				<g id="XMLID_17519_">
					<path id="XMLID_17520_" class="st8" d="M9.7,73c-0.9,0.4-1.3,1.4-0.8,2.3c0.3,0.6,1.3,0.1,0.9-0.5c-0.1-0.2-0.1-0.6,0.2-0.7
						c0.3-0.1,0.5-0.4,0.4-0.7C10.3,73.2,10,72.9,9.7,73L9.7,73z"/>
				</g>
				<g id="XMLID_17517_">
					<path id="XMLID_17518_" class="st8" d="M14.4,59.2c0.6,0.5,1.4,0.4,1.8-0.3c0.3-0.5-0.4-0.9-0.7-0.4c-0.1,0.2-0.4,0.2-0.5,0.1
						c-0.2-0.1-0.4-0.2-0.6,0C14.3,58.8,14.2,59.1,14.4,59.2L14.4,59.2z"/>
				</g>
				<g id="XMLID_17515_">
					<path id="XMLID_17516_" class="st8" d="M4.6,24.5c-0.9-0.2-1.7,0.5-1.8,1.4c0,0.3,0.2,0.5,0.5,0.5c0.3,0,0.5-0.2,0.5-0.5
						c0-0.2,0.3-0.5,0.5-0.4c0.3,0,0.5-0.1,0.6-0.4C5,24.8,4.9,24.5,4.6,24.5L4.6,24.5z"/>
				</g>
				<g id="XMLID_17513_">
					<path id="XMLID_17514_" class="st8" d="M18.3,26.7c-0.6,0.6-0.4,1.6,0.3,2.1c0.2,0.1,0.5,0,0.6-0.2c0.1-0.2,0-0.5-0.2-0.6
						c-0.2-0.1-0.2-0.4-0.1-0.6C19.4,26.9,18.7,26.3,18.3,26.7L18.3,26.7z"/>
				</g>
				<g id="XMLID_17511_">
					<path id="XMLID_17512_" class="st8" d="M16.8,66.4c0.9-0.1,1.4-1.1,1.2-1.9c-0.2-0.6-1.2-0.4-1,0.3c0.1,0.3-0.1,0.6-0.5,0.6
						c-0.3,0-0.4,0.4-0.4,0.6C16.3,66.4,16.6,66.5,16.8,66.4L16.8,66.4z"/>
				</g>
				<g id="XMLID_17509_">
					<path id="XMLID_17510_" class="st8" d="M12.7,12.2c0.5,0.7,1.4,0.8,2,0.2c0.4-0.4-0.2-1-0.6-0.6c-0.1,0.1-0.5,0.1-0.6,0
						c-0.1-0.2-0.4-0.3-0.6-0.2C12.7,11.7,12.6,12,12.7,12.2L12.7,12.2z"/>
				</g>
				<g id="XMLID_17507_">
					<path id="XMLID_17508_" class="st8" d="M11.3,35c-0.1-0.7-0.9-1.1-1.6-0.9c-0.5,0.1-0.3,1,0.2,0.8c0.3-0.1,0.5,0.1,0.5,0.4
						c0,0.2,0.3,0.3,0.5,0.3C11.2,35.4,11.3,35.2,11.3,35L11.3,35z"/>
				</g>
				<g id="XMLID_17505_">
					<path id="XMLID_17506_" class="st8" d="M15.3,75.5c0-0.9-0.9-1.5-1.7-1.4c-0.3,0-0.4,0.4-0.3,0.6c0.1,0.3,0.3,0.4,0.6,0.3
						c0.2,0,0.5,0.2,0.5,0.4C14.4,76.2,15.3,76.2,15.3,75.5L15.3,75.5z"/>
				</g>
				<g id="XMLID_17503_">
					<path id="XMLID_17504_" class="st8" d="M15.1,16c0.4,0.7,1.3,0.8,1.9,0.3c0.2-0.1,0.2-0.5,0-0.6c-0.2-0.2-0.4-0.1-0.6,0
						c-0.2,0.1-0.4,0.1-0.6-0.1C15.5,15.1,14.8,15.6,15.1,16L15.1,16z"/>
				</g>
				<g id="XMLID_17501_">
					<path id="XMLID_17502_" class="st8" d="M17.2,81.7c-0.6,0.3-0.8,1.1-0.5,1.6c0.2,0.4,0.9,0,0.7-0.4c-0.1-0.2,0-0.5,0.2-0.5
						c0.2-0.1,0.2-0.4,0.1-0.5C17.6,81.6,17.4,81.6,17.2,81.7L17.2,81.7z"/>
				</g>
				<g id="XMLID_17499_">
					<path id="XMLID_17500_" class="st8" d="M18.5,54.4c-0.7-0.4-1.6,0-1.9,0.7c-0.1,0.2,0.1,0.5,0.3,0.5c0.3,0.1,0.5-0.1,0.5-0.3
						c0.1-0.2,0.4-0.3,0.6-0.2C18.6,55.5,19,54.7,18.5,54.4L18.5,54.4z"/>
				</g>
				<g id="XMLID_17497_">
					<path id="XMLID_17498_" class="st8" d="M2.2,33.5c0.3,0.6,1.1,0.8,1.7,0.5c0.4-0.3,0-1-0.4-0.7c-0.2,0.1-0.5,0.1-0.6-0.2
						C2.7,32.6,2,33.1,2.2,33.5L2.2,33.5z"/>
				</g>
				<g id="XMLID_17495_">
					<path id="XMLID_17496_" class="st8" d="M4.7,84.9c-0.8,0.3-1.3,1.3-0.8,2.2c0.3,0.6,1.2,0.1,0.9-0.5C4.7,86.4,4.8,86,5,85.9
						c0.3-0.1,0.4-0.3,0.4-0.6C5.3,85,5,84.8,4.7,84.9L4.7,84.9z"/>
				</g>
				<g id="XMLID_17493_">
					<path id="XMLID_17494_" class="st8" d="M3.2,39.3c0.8-0.3,1-1.3,0.6-2c-0.3-0.5-1.2-0.1-0.8,0.5c0.2,0.3,0,0.6-0.3,0.7
						c-0.2,0.1-0.3,0.5-0.2,0.7C2.7,39.4,3,39.4,3.2,39.3L3.2,39.3z"/>
				</g>
				<g id="XMLID_17491_">
					<path id="XMLID_17492_" class="st8" d="M19.3,38.4c0.2-0.7-0.2-1.5-0.9-1.7c-0.6-0.1-0.8,0.7-0.2,0.9c0.3,0.1,0.4,0.3,0.3,0.6
						C18.3,38.7,19.2,39,19.3,38.4L19.3,38.4z"/>
				</g>
				<g id="XMLID_17489_">
					<path id="XMLID_17490_" class="st8" d="M11.6,72.4c0.7,0.4,1.7,0.2,2-0.6c0.1-0.2,0.1-0.5-0.2-0.7c-0.2-0.1-0.6-0.1-0.7,0.2
						c-0.1,0.3-0.4,0.4-0.7,0.2C11.5,71.2,11,72.1,11.6,72.4L11.6,72.4z"/>
				</g>
				<g id="XMLID_17487_">
					<path id="XMLID_17488_" class="st8" d="M9.6,48.8c-0.4-0.7-1.3-0.9-2-0.5c-0.5,0.3,0,1.1,0.5,0.8c0.2-0.2,0.5-0.1,0.7,0.2
						C9.1,49.8,9.9,49.3,9.6,48.8L9.6,48.8z"/>
				</g>
				<g id="XMLID_17485_">
					<path id="XMLID_17486_" class="st8" d="M6.2,27.6c-0.9,0-1.7,0.8-1.7,1.7c0,0.3,0.2,0.6,0.6,0.6c0.3,0,0.6-0.3,0.6-0.6
						c0-0.3,0.2-0.6,0.6-0.6C6.9,28.7,6.9,27.6,6.2,27.6L6.2,27.6z"/>
				</g>
				<g id="XMLID_17483_">
					<path id="XMLID_17484_" class="st8" d="M3.9,76c-0.8-0.1-1.6,0.4-1.6,1.3c0,0.6,0.9,0.6,0.9,0c0-0.2,0.3-0.4,0.5-0.4
						c0.2,0,0.5-0.1,0.6-0.3C4.3,76.4,4.2,76.1,3.9,76L3.9,76z"/>
				</g>
				<g id="XMLID_17481_">
					<path id="XMLID_17482_" class="st8" d="M5.6,44.3C5,45,5,46.1,5.6,46.7C6.2,47.2,7,46.4,6.4,46c-0.3-0.2-0.3-0.6,0-0.8
						C7,44.6,6.2,43.9,5.6,44.3L5.6,44.3z"/>
				</g>
				<g id="XMLID_17479_">
					<path id="XMLID_17480_" class="st8" d="M12.9,18.8c0.9-0.5,1-1.7,0.4-2.4c-0.2-0.2-0.6-0.2-0.8,0c-0.2,0.2-0.2,0.5,0,0.8
						c0.2,0.2,0,0.6-0.2,0.7C11.7,18.3,12.3,19.2,12.9,18.8L12.9,18.8z"/>
				</g>
				<g id="XMLID_17477_">
					<path id="XMLID_17478_" class="st8" d="M12.4,37.2c-0.8-0.4-1.8,0-2.1,0.8c-0.1,0.3,0.1,0.6,0.4,0.6c0.3,0.1,0.5-0.1,0.6-0.4
						c0.1-0.2,0.4-0.3,0.6-0.2C12.5,38.4,13,37.5,12.4,37.2L12.4,37.2z"/>
				</g>
				<g id="XMLID_17475_">
					<path id="XMLID_17476_" class="st8" d="M7.7,72.1c-0.4-0.8-1.6-1.1-2.3-0.5c-0.2,0.2-0.4,0.5-0.2,0.7c0.1,0.2,0.5,0.4,0.7,0.2
						c0.3-0.2,0.6-0.2,0.8,0.1C7.1,73.2,8.1,72.7,7.7,72.1L7.7,72.1z"/>
				</g>
				<g id="XMLID_17473_">
					<path id="XMLID_17474_" class="st8" d="M11.1,54.8c-0.8,0.4-1.1,1.5-0.6,2.3c0.4,0.6,1.3,0,0.9-0.5c-0.2-0.3-0.1-0.6,0.2-0.8
						C12.2,55.4,11.7,54.5,11.1,54.8L11.1,54.8z"/>
				</g>
				<g id="XMLID_17471_">
					<path id="XMLID_17472_" class="st8" d="M11.4,82.3c0.2-0.7-0.2-1.6-1-1.8c-0.6-0.1-0.8,0.8-0.3,0.9c0.3,0.1,0.4,0.3,0.4,0.6
						C10.3,82.7,11.2,82.9,11.4,82.3L11.4,82.3z"/>
				</g>
				<g id="XMLID_17469_">
					<path id="XMLID_17470_" class="st8" d="M3,44.3c0.5-0.6,0.4-1.5-0.3-2c-0.5-0.3-0.9,0.4-0.4,0.8c0.2,0.1,0.2,0.4,0.1,0.6
						C2,44.1,2.6,44.8,3,44.3L3,44.3z"/>
				</g>
				<g id="XMLID_17467_">
					<path id="XMLID_17468_" class="st8" d="M3.2,68.3c-0.9-0.2-1.7,0.5-1.8,1.4c0,0.3,0.2,0.5,0.5,0.5c0.3,0,0.5-0.2,0.5-0.5
						c0-0.2,0.3-0.4,0.5-0.4c0.3,0.1,0.5-0.1,0.6-0.4C3.6,68.7,3.5,68.3,3.2,68.3L3.2,68.3z"/>
				</g>
				<g id="XMLID_17465_">
					<path id="XMLID_17466_" class="st8" d="M18.5,17.7c-0.2,0.7,0.3,1.3,1,1.4c0.2,0,0.4-0.2,0.4-0.4c0-0.2-0.2-0.4-0.4-0.4
						c-0.2,0-0.3-0.3-0.3-0.4C19.4,17.4,18.6,17.2,18.5,17.7L18.5,17.7z"/>
				</g>
				<g id="XMLID_17463_">
					<path id="XMLID_17464_" class="st8" d="M9.9,65.4c-0.6-0.8-1.7-1-2.5-0.3c-0.2,0.2-0.2,0.6,0,0.8C7.7,66,8,66,8.2,65.8
						c0.2-0.2,0.6-0.1,0.7,0.1C9.3,66.5,10.3,66,9.9,65.4L9.9,65.4z"/>
				</g>
				<g id="XMLID_17461_">
					<path id="XMLID_17462_" class="st8" d="M4.5,16.2c-0.6,0.3-0.8,1.1-0.5,1.7c0.3,0.4,1,0,0.7-0.4c-0.1-0.2,0-0.5,0.2-0.6
						C5.4,16.7,5,16,4.5,16.2L4.5,16.2z"/>
				</g>
				<g id="XMLID_17459_">
					<path id="XMLID_17460_" class="st8" d="M9.5,22.6c0.1-0.8-0.6-1.5-1.4-1.5c-0.6,0-0.6,0.9,0,1c0.3,0,0.5,0.3,0.4,0.6
						C8.5,22.8,8.8,23,9,23C9.3,23,9.5,22.8,9.5,22.6L9.5,22.6z"/>
				</g>
				<g id="XMLID_17457_">
					<path id="XMLID_17458_" class="st8" d="M10.9,63.8c0.8,0.2,1.7-0.3,1.8-1.1c0-0.3-0.1-0.5-0.4-0.6c-0.2-0.1-0.6,0.1-0.6,0.4
						c0,0.3-0.3,0.5-0.6,0.4C10.6,62.6,10.3,63.6,10.9,63.8L10.9,63.8z"/>
				</g>
				<g id="XMLID_17455_">
					<path id="XMLID_17456_" class="st8" d="M11.2,76.6c-0.9,0.2-1.4,1.3-1.1,2.1c0.1,0.3,0.4,0.5,0.7,0.4c0.3-0.1,0.5-0.4,0.4-0.7
						c-0.1-0.3,0-0.7,0.3-0.8C12.2,77.4,11.9,76.4,11.2,76.6L11.2,76.6z"/>
				</g>
				<g id="XMLID_17453_">
					<path id="XMLID_17454_" class="st8" d="M8.9,24.5c-0.7-0.6-1.7-0.4-2.2,0.4c-0.3,0.6,0.5,1.1,0.9,0.5c0.1-0.2,0.5-0.3,0.6-0.2
						c0.2,0.2,0.5,0.2,0.7,0C9,25,9.1,24.7,8.9,24.5L8.9,24.5z"/>
				</g>
				<g id="XMLID_17451_">
					<path id="XMLID_17452_" class="st8" d="M18.1,72.2c-0.4-0.7-1.3-1-2-0.6c-0.5,0.3,0,1.2,0.5,0.8c0.3-0.2,0.6-0.1,0.7,0.2
						c0.1,0.2,0.5,0.3,0.7,0.2C18.1,72.7,18.2,72.4,18.1,72.2L18.1,72.2z"/>
				</g>
				<g id="XMLID_17449_">
					<path id="XMLID_17450_" class="st8" d="M4,79.5c-0.7,0-1.4,0.6-1.3,1.3c0,0.6,0.9,0.6,0.9,0c0-0.3,0.2-0.5,0.5-0.5
						C4.6,80.4,4.6,79.5,4,79.5L4,79.5z"/>
				</g>
				<g id="XMLID_17447_">
					<path id="XMLID_17448_" class="st8" d="M16.5,49.2c-0.2,1,0.5,1.9,1.5,1.9c0.7,0,0.7-1.1,0-1.1c-0.2,0-0.5-0.3-0.5-0.5
						c0-0.3-0.1-0.6-0.4-0.7C16.9,48.8,16.6,49,16.5,49.2L16.5,49.2z"/>
				</g>
				<g id="XMLID_17445_">
					<path id="XMLID_17446_" class="st8" d="M12.7,39.6c-0.6,0.6-0.6,1.7,0.1,2.3c0.2,0.2,0.5,0.2,0.7,0c0.2-0.2,0.2-0.6,0-0.7
						c-0.2-0.2-0.3-0.5-0.1-0.8C14,39.8,13.2,39.1,12.7,39.6L12.7,39.6z"/>
				</g>
				<g id="XMLID_17443_">
					<path id="XMLID_17444_" class="st8" d="M19.6,31.5c0-0.8-0.7-1.5-1.5-1.4c-0.3,0-0.5,0.2-0.5,0.5c0,0.2,0.2,0.5,0.5,0.5
						c0.3,0,0.5,0.2,0.5,0.5C18.6,32.1,19.6,32.1,19.6,31.5L19.6,31.5z"/>
				</g>
				<g id="XMLID_17441_">
					<path id="XMLID_17442_" class="st8" d="M15.8,85.9c-0.4-0.5-1.3-0.5-1.7,0c-0.4,0.4,0.2,0.9,0.6,0.6c0.2-0.2,0.4-0.1,0.6,0
						C15.5,86.9,16.1,86.3,15.8,85.9L15.8,85.9z"/>
				</g>
				<g id="XMLID_17439_">
					<path id="XMLID_17440_" class="st8" d="M9.9,8.5c0.7,0.3,1.5-0.2,1.7-0.9c0.1-0.6-0.7-0.8-0.9-0.2c-0.1,0.3-0.4,0.4-0.6,0.3
						C9.9,7.5,9.6,7.7,9.6,7.9C9.5,8.2,9.7,8.4,9.9,8.5L9.9,8.5z"/>
				</g>
				<g id="XMLID_17437_">
					<path id="XMLID_17438_" class="st8" d="M16.4,27.5c0.2-1-0.5-1.8-1.4-1.9c-0.3,0-0.5,0.3-0.5,0.5c0,0.3,0.2,0.5,0.5,0.5
						c0.2,0,0.4,0.4,0.4,0.6C15.3,27.9,16.3,28.1,16.4,27.5L16.4,27.5z"/>
				</g>
				<g id="XMLID_17435_">
					<path id="XMLID_17436_" class="st8" d="M12.8,25.2c0.5-0.4,0.5-1.3,0.1-1.7c-0.4-0.4-0.9,0.2-0.6,0.6c0.2,0.2,0.1,0.4-0.1,0.6
						c-0.2,0.1-0.1,0.4,0,0.6C12.4,25.4,12.6,25.4,12.8,25.2L12.8,25.2z"/>
				</g>
				<g id="XMLID_17433_">
					<path id="XMLID_17434_" class="st8" d="M10.4,11.6c-0.2-0.7-1.1-1.2-1.8-0.9c-0.2,0.1-0.4,0.3-0.3,0.6c0.1,0.2,0.3,0.4,0.6,0.3
						c0.3-0.1,0.6,0,0.6,0.3C9.7,12.4,10.6,12.1,10.4,11.6L10.4,11.6z"/>
				</g>
			</g>
		</g>
		<path id="XMLID_13531_" d="M26.1,20.3c3.8-1.2,7.5-2.4,11.3-3.6c0.7-0.2,1.5-0.5,2.3-0.4c0.8,0,1.6,0.3,2.3,0.7
			c1.6,0.7,3.2,1.3,4.9,2c0.6,0.2,1.2,0.5,1.5,1c0.3,0.5,0.3,1.1,0.3,1.7c0,0.9,0,1.9,0,2.8c0,0.3,0,0.7-0.2,0.9
			c-0.2,0.3-0.6,0.4-1,0.4c-6.7,1-13.5,0.7-20.1-0.9c-0.6-0.1-1.2-0.3-1.7-0.7c-1-0.8-1.1-2.5-0.2-3.5s2.3-1.3,3.6-1"/>
	</g>
	<g id="XMLID_13012_">
		<path id="XMLID_17426_" class="st32" d="M63.2,16.9c0.5-1.3,0.9-3,0-4c-0.6-0.6-1.6-0.8-2.5-0.8c-2.4-0.1-4.7,0.1-7.1,0.5
			c-2.6,0.5-5.1,1.5-7.8,1.2c-1.3-0.1-2.5-0.5-3.8-0.8c-2.6-0.5-5.3-0.2-7.9,0c-5,0.5-10.1,1-14.9,2.6c-0.6,0.2-1.1,0.4-1.5,0.8
			c-0.5,0.6-0.7,1.4-0.9,2.1c-2.1,9.7-4.2,19.6-3.9,29.5c0.1,5.5,1,11.1,0.4,16.6c-0.3,2.8-1,5.5-1.2,8.3c-0.3,3.2,0.1,6.4,0.4,9.7
			c0.5,4.8,1,9.6,1.5,14.5c0.1,0.7,0.2,1.5,0.7,2c0.5,0.6,1.4,0.7,2.1,0.8c3.3,0.3,6.5,0.3,9.8,0.3c9.4,0,18.7,0.1,28.1,0.1
			c2.3,0,5-0.2,6.2-2.1c0.6-0.9,0.7-1.9,0.8-2.9c1-8.2,2.1-16.5,0.9-24.6c-0.3-2.2-0.8-4.4-0.8-6.6c0-3.1,1-6.2,1.6-9.3
			c2.4-12.3-0.9-25,0.3-37.4"/>
		<g id="XMLID_14655_">
			<path id="XMLID_17425_" class="st30" d="M19.2,15.4c-0.6,0.2-1.1,0.4-1.5,0.8c-0.5,0.6-0.7,1.4-0.9,2.1
				c-2.1,9.7-4.2,19.6-3.9,29.5c0.1,5.5,1,11.1,0.4,16.6c-0.3,2.8-1,5.5-1.2,8.3c-0.3,3.2,0.1,6.4,0.4,9.7c0.5,4.8,1,9.6,1.5,14.5
				c0.1,0.7,0.2,1.5,0.7,2c0.5,0.6,1.4,0.7,2.1,0.8c3.3,0.3,6.5,0.3,9.8,0.3c1.4,0,2.8,0,4.2,0c0.4-29.1,1.4-58.1,2.9-87.2
				C28.8,13.3,23.9,13.8,19.2,15.4z"/>
			<g id="XMLID_14985_">
				<g id="XMLID_17423_">
					<path id="XMLID_17424_" class="st31" d="M26.1,16.2c-0.3-0.4-0.7-0.7-1-1.1c-0.4-0.4-0.9,0.2-0.6,0.6c0.3,0.4,0.7,0.7,1,1.1
						C25.8,17.2,26.4,16.6,26.1,16.2L26.1,16.2z"/>
				</g>
				<g id="XMLID_17421_">
					<path id="XMLID_17422_" class="st31" d="M25.8,47.2c0.4-0.2,0.9-0.3,1.3-0.5c0.5-0.2,0.3-0.9-0.2-0.8c-0.4,0.2-0.9,0.3-1.3,0.5
						C25.1,46.6,25.3,47.3,25.8,47.2L25.8,47.2z"/>
				</g>
				<g id="XMLID_17419_">
					<path id="XMLID_17420_" class="st31" d="M19.1,80.6c-0.3-0.4-0.7-0.8-1-1.1c-0.4-0.4-0.9,0.2-0.6,0.6c0.3,0.4,0.7,0.8,1,1.1
						C18.9,81.6,19.5,81,19.1,80.6L19.1,80.6z"/>
				</g>
				<g id="XMLID_17417_">
					<path id="XMLID_17418_" class="st31" d="M21.3,96.9c-0.6,0-1.3,0-1.9,0c-0.7,0-0.7,1.1,0,1.1c0.6,0,1.3,0,1.9,0
						C22,98,22,96.9,21.3,96.9L21.3,96.9z"/>
				</g>
				<g id="XMLID_17415_">
					<path id="XMLID_17416_" class="st31" d="M18.2,89.5c0.5-0.2,0.9-0.3,1.4-0.5c0.5-0.2,0.3-1-0.2-0.8c-0.5,0.2-0.9,0.3-1.4,0.5
						C17.5,88.9,17.7,89.7,18.2,89.5L18.2,89.5z"/>
				</g>
				<g id="XMLID_17413_">
					<path id="XMLID_17414_" class="st31" d="M14.5,86.2c0.5-0.3,1-0.5,1.6-0.8c0.6-0.3,0.1-1.1-0.5-0.8c-0.5,0.3-1,0.5-1.6,0.8
						C13.4,85.6,13.9,86.4,14.5,86.2L14.5,86.2z"/>
				</g>
				<g id="XMLID_17411_">
					<path id="XMLID_17412_" class="st31" d="M15.3,61.3c0-0.5,0-1.1,0-1.6c0-0.6-0.9-0.6-0.9,0c0,0.5,0,1.1,0,1.6
						C14.4,61.8,15.3,61.8,15.3,61.3L15.3,61.3z"/>
				</g>
				<g id="XMLID_17409_">
					<path id="XMLID_17410_" class="st31" d="M17.2,96.3c-0.1-0.6-0.2-1.3-0.4-1.9c-0.1-0.7-1.2-0.4-1,0.3c0.1,0.6,0.2,1.3,0.4,1.9
						C16.3,97.3,17.3,97,17.2,96.3L17.2,96.3z"/>
				</g>
				<g id="XMLID_17407_">
					<path id="XMLID_17408_" class="st31" d="M29.5,99c0.3-0.4,0.5-0.9,0.8-1.3c0.3-0.5-0.5-0.9-0.8-0.4c-0.3,0.4-0.5,0.9-0.8,1.3
						C28.4,99.1,29.2,99.5,29.5,99L29.5,99z"/>
				</g>
				<g id="XMLID_17405_">
					<path id="XMLID_17406_" class="st31" d="M16.1,63.4c-0.5,0.4-1,0.8-1.5,1.1c-0.2,0.2-0.4,0.5-0.2,0.7c0.1,0.2,0.5,0.4,0.7,0.2
						c0.5-0.4,1-0.8,1.5-1.1c0.2-0.2,0.4-0.5,0.2-0.7C16.7,63.3,16.4,63.2,16.1,63.4L16.1,63.4z"/>
				</g>
				<g id="XMLID_17403_">
					<path id="XMLID_17404_" class="st31" d="M19.2,74.5c-0.4-0.5-0.8-1-1.3-1.5c-0.2-0.2-0.6-0.2-0.8,0c-0.2,0.2-0.2,0.5,0,0.8
						c0.4,0.5,0.8,1,1.3,1.5c0.2,0.2,0.6,0.2,0.8,0C19.4,75,19.4,74.7,19.2,74.5L19.2,74.5z"/>
				</g>
				<g id="XMLID_17401_">
					<path id="XMLID_17402_" class="st31" d="M28.9,87.8c0,0.6,0.1,1.3,0.1,1.9c0,0.7,1.1,0.7,1.1,0c0-0.6-0.1-1.3-0.1-1.9
						C29.9,87.2,28.8,87.1,28.9,87.8L28.9,87.8z"/>
				</g>
				<g id="XMLID_17399_">
					<path id="XMLID_17400_" class="st31" d="M27.2,20.7c-0.1-0.5-0.1-1.1-0.2-1.6c0-0.2-0.2-0.5-0.5-0.5c-0.2,0-0.5,0.2-0.5,0.5
						c0.1,0.5,0.1,1.1,0.2,1.6c0,0.2,0.2,0.5,0.5,0.5C26.9,21.2,27.2,21,27.2,20.7L27.2,20.7z"/>
				</g>
				<g id="XMLID_17397_">
					<path id="XMLID_17398_" class="st31" d="M21.6,72.3c0.4-0.4,0.7-0.7,1.1-1.1c0.4-0.4-0.2-1-0.6-0.6c-0.4,0.4-0.7,0.7-1.1,1.1
						C20.6,72.1,21.2,72.7,21.6,72.3L21.6,72.3z"/>
				</g>
				<g id="XMLID_17395_">
					<path id="XMLID_17396_" class="st31" d="M15.4,77.5c0.5,0.2,0.9,0.5,1.4,0.7c0.5,0.3,1-0.5,0.4-0.8c-0.5-0.2-0.9-0.5-1.4-0.7
						C15.4,76.4,14.9,77.2,15.4,77.5L15.4,77.5z"/>
				</g>
				<g id="XMLID_17393_">
					<path id="XMLID_17394_" class="st31" d="M25.4,59c0.5-0.3,1.1-0.7,1.6-1c0.6-0.4,0-1.3-0.5-0.9c-0.5,0.3-1.1,0.7-1.6,1
						C24.3,58.5,24.8,59.4,25.4,59L25.4,59z"/>
				</g>
				<g id="XMLID_17391_">
					<path id="XMLID_17392_" class="st31" d="M19.4,51.6c0.2,0.5,0.4,0.9,0.6,1.4c0.1,0.2,0.4,0.3,0.6,0.2c0.2-0.1,0.2-0.4,0.2-0.6
						c-0.2-0.5-0.4-0.9-0.6-1.4c-0.1-0.2-0.4-0.3-0.6-0.2C19.3,51.1,19.3,51.4,19.4,51.6L19.4,51.6z"/>
				</g>
				<g id="XMLID_17389_">
					<path id="XMLID_17390_" class="st31" d="M30,20c0.6,0.1,1.2,0.1,1.8,0.2c0.6,0.1,0.6-0.9,0-1c-0.6-0.1-1.2-0.1-1.8-0.2
						C29.4,19,29.4,20,30,20L30,20z"/>
				</g>
				<g id="XMLID_17387_">
					<path id="XMLID_17388_" class="st31" d="M13.9,73.1c0.3-0.4,0.7-0.7,1-1.1c0.4-0.4-0.2-1-0.6-0.6c-0.3,0.4-0.7,0.7-1,1.1
						C13,72.9,13.6,73.5,13.9,73.1L13.9,73.1z"/>
				</g>
				<g id="XMLID_17385_">
					<path id="XMLID_17386_" class="st31" d="M12.9,77.1c0.5-0.2,1.1-0.4,1.6-0.7c0.2-0.1,0.4-0.3,0.3-0.6c-0.1-0.2-0.4-0.4-0.6-0.3
						c-0.5,0.2-1.1,0.4-1.6,0.7c-0.2,0.1-0.4,0.3-0.3,0.6C12.4,77,12.7,77.2,12.9,77.1L12.9,77.1z"/>
				</g>
				<g id="XMLID_17383_">
					<path id="XMLID_17384_" class="st31" d="M20.1,93c-0.4-0.3-0.8-0.6-1.2-0.9c-0.2-0.1-0.5,0-0.6,0.2c-0.1,0.2,0,0.4,0.2,0.6
						c0.4,0.3,0.8,0.6,1.2,0.9c0.2,0.1,0.5,0,0.6-0.2C20.4,93.4,20.3,93.2,20.1,93L20.1,93z"/>
				</g>
				<g id="XMLID_17381_">
					<path id="XMLID_17382_" class="st31" d="M29.6,80.5c-0.5-0.1-1.1-0.2-1.6-0.3c-0.6-0.1-0.8,0.8-0.2,0.9
						c0.5,0.1,1.1,0.2,1.6,0.3C30,81.5,30.2,80.6,29.6,80.5L29.6,80.5z"/>
				</g>
				<g id="XMLID_17379_">
					<path id="XMLID_17380_" class="st31" d="M29.9,36.6c0.6-0.1,1.1-0.2,1.7-0.4c0.6-0.1,0.4-1.1-0.3-1c-0.6,0.1-1.1,0.2-1.7,0.4
						C29,35.8,29.3,36.8,29.9,36.6L29.9,36.6z"/>
				</g>
				<g id="XMLID_17377_">
					<path id="XMLID_17378_" class="st31" d="M19.2,19.5c-0.1-0.5-0.2-1-0.3-1.5c-0.1-0.5-0.9-0.3-0.8,0.2c0.1,0.5,0.2,1,0.3,1.5
						C18.5,20.3,19.3,20.1,19.2,19.5L19.2,19.5z"/>
				</g>
				<g id="XMLID_17375_">
					<path id="XMLID_17376_" class="st31" d="M23.1,58.1c-0.4,0.2-0.9,0.5-1.3,0.7c-0.5,0.3,0,1,0.4,0.7c0.4-0.2,0.9-0.5,1.3-0.7
						C23.9,58.5,23.5,57.8,23.1,58.1L23.1,58.1z"/>
				</g>
				<g id="XMLID_17373_">
					<path id="XMLID_17374_" class="st31" d="M28.1,74.6c0.5-0.1,0.9-0.3,1.4-0.4c0.5-0.2,0.3-1-0.2-0.8c-0.5,0.1-0.9,0.3-1.4,0.4
						C27.4,73.9,27.6,74.7,28.1,74.6L28.1,74.6z"/>
				</g>
				<g id="XMLID_17371_">
					<path id="XMLID_17372_" class="st31" d="M21.9,17.2c-0.4-0.5-0.7-1-1.1-1.6c-0.4-0.6-1.3,0-0.9,0.5c0.4,0.5,0.7,1,1.1,1.6
						C21.4,18.3,22.3,17.7,21.9,17.2L21.9,17.2z"/>
				</g>
				<g id="XMLID_17369_">
					<path id="XMLID_17370_" class="st31" d="M29.1,57c0.1,0.6,0.2,1.2,0.3,1.8c0.1,0.7,1.1,0.4,1-0.3c-0.1-0.6-0.2-1.2-0.3-1.8
						C30,56,29,56.3,29.1,57L29.1,57z"/>
				</g>
				<g id="XMLID_17367_">
					<path id="XMLID_17368_" class="st31" d="M19.1,66.6c-0.3,0.5-0.5,1.1-0.8,1.6c-0.3,0.6,0.6,1.1,0.9,0.5
						c0.3-0.5,0.5-1.1,0.8-1.6C20.2,66.5,19.4,66,19.1,66.6L19.1,66.6z"/>
				</g>
				<g id="XMLID_17365_">
					<path id="XMLID_17366_" class="st31" d="M23.4,62.9c-0.6,0.3-1.1,0.6-1.7,0.9c-0.6,0.3-0.1,1.3,0.5,0.9
						c0.6-0.3,1.1-0.6,1.7-0.9C24.5,63.5,24,62.6,23.4,62.9L23.4,62.9z"/>
				</g>
				<g id="XMLID_17363_">
					<path id="XMLID_17364_" class="st31" d="M25,32.6c-0.5,0-1-0.1-1.5-0.1c-0.6,0-0.6,0.8,0,0.9c0.5,0,1,0.1,1.5,0.1
						C25.6,33.5,25.6,32.6,25,32.6L25,32.6z"/>
				</g>
				<g id="XMLID_17361_">
					<path id="XMLID_17362_" class="st31" d="M18.5,25.7c-0.5,0-1,0-1.5,0c-0.5,0-0.5,0.9,0,0.9c0.5,0,1,0,1.5,0
						C19.1,26.5,19.1,25.6,18.5,25.7L18.5,25.7z"/>
				</g>
				<g id="XMLID_17359_">
					<path id="XMLID_17360_" class="st31" d="M19.1,47.2c-0.3,0.5-0.7,1-1,1.5c-0.4,0.6,0.5,1.1,0.9,0.5c0.3-0.5,0.7-1,1-1.5
						C20.3,47.2,19.4,46.6,19.1,47.2L19.1,47.2z"/>
				</g>
				<g id="XMLID_17357_">
					<path id="XMLID_17358_" class="st31" d="M23,44.6c0.4-0.4,0.7-0.8,1.1-1.1c0.4-0.4-0.2-1-0.6-0.6c-0.4,0.4-0.7,0.8-1.1,1.1
						C22,44.4,22.6,45,23,44.6L23,44.6z"/>
				</g>
				<g id="XMLID_17355_">
					<path id="XMLID_17356_" class="st31" d="M20.1,39.7c0.4,0.4,0.9,0.9,1.3,1.3c0.5,0.5,1.2-0.3,0.7-0.7c-0.4-0.4-0.9-0.9-1.3-1.3
						C20.3,38.4,19.6,39.2,20.1,39.7L20.1,39.7z"/>
				</g>
				<g id="XMLID_17353_">
					<path id="XMLID_17354_" class="st31" d="M25.2,62.2c0.3,0.4,0.6,0.7,1,1.1c0.3,0.4,0.9-0.2,0.6-0.6c-0.3-0.4-0.6-0.7-1-1.1
						C25.4,61.2,24.9,61.8,25.2,62.2L25.2,62.2z"/>
				</g>
				<g id="XMLID_17351_">
					<path id="XMLID_17352_" class="st31" d="M17.3,22.9c0.5-0.1,1.1-0.2,1.6-0.3c0.6-0.1,0.3-1-0.2-0.9c-0.5,0.1-1.1,0.2-1.6,0.3
						C16.4,22.1,16.7,23,17.3,22.9L17.3,22.9z"/>
				</g>
				<g id="XMLID_17349_">
					<path id="XMLID_17350_" class="st31" d="M22.7,80.7c-0.5,0.2-1,0.3-1.6,0.5c-0.6,0.2-0.3,1.1,0.2,0.9c0.5-0.2,1-0.3,1.6-0.5
						C23.5,81.4,23.2,80.5,22.7,80.7L22.7,80.7z"/>
				</g>
				<g id="XMLID_17347_">
					<path id="XMLID_17348_" class="st31" d="M21.5,56.2c0.6-0.3,1.1-0.7,1.7-1c0.6-0.4,0.1-1.3-0.6-1c-0.6,0.3-1.1,0.7-1.7,1
						C20.4,55.6,20.9,56.6,21.5,56.2L21.5,56.2z"/>
				</g>
				<g id="XMLID_17345_">
					<path id="XMLID_17346_" class="st31" d="M26.6,42.4c0.2,0.4,0.4,0.9,0.6,1.3c0.2,0.5,1,0.1,0.7-0.4c-0.2-0.4-0.4-0.9-0.6-1.3
						C27.1,41.5,26.4,42,26.6,42.4L26.6,42.4z"/>
				</g>
				<g id="XMLID_17343_">
					<path id="XMLID_17344_" class="st31" d="M21.2,29.7c-0.5,0.1-1,0.3-1.5,0.4c-0.5,0.1-0.3,1,0.2,0.8c0.5-0.1,1-0.3,1.5-0.4
						C21.9,30.4,21.7,29.6,21.2,29.7L21.2,29.7z"/>
				</g>
				<g id="XMLID_17341_">
					<path id="XMLID_17342_" class="st31" d="M30.1,16.1c0.4-0.3,0.9-0.5,1.3-0.8c0.5-0.3,0-1-0.4-0.7c-0.4,0.3-0.9,0.5-1.3,0.8
						C29.2,15.7,29.6,16.4,30.1,16.1L30.1,16.1z"/>
				</g>
				<g id="XMLID_17339_">
					<path id="XMLID_17340_" class="st31" d="M22.5,26c-0.4,0.4-0.9,0.7-1.3,1.1c-0.2,0.2-0.2,0.5,0,0.7c0.2,0.2,0.5,0.2,0.7,0
						c0.4-0.4,0.9-0.7,1.3-1.1c0.2-0.2,0.2-0.5,0-0.7C22.9,25.8,22.7,25.9,22.5,26L22.5,26z"/>
				</g>
				<g id="XMLID_17337_">
					<path id="XMLID_17338_" class="st31" d="M18.3,63.8c0.4,0.5,0.8,1,1.1,1.5c0.2,0.2,0.5,0.3,0.7,0.2c0.2-0.1,0.4-0.5,0.2-0.7
						c-0.4-0.5-0.8-1-1.1-1.5c-0.2-0.2-0.5-0.3-0.7-0.2C18.3,63.2,18.1,63.6,18.3,63.8L18.3,63.8z"/>
				</g>
				<g id="XMLID_17335_">
					<path id="XMLID_17336_" class="st31" d="M28,91.2c-0.4-0.3-0.9-0.6-1.3-0.9c-0.5-0.3-0.9,0.4-0.4,0.8c0.4,0.3,0.9,0.6,1.3,0.9
						C28.1,92.3,28.5,91.5,28,91.2L28,91.2z"/>
				</g>
				<g id="XMLID_17333_">
					<path id="XMLID_17334_" class="st31" d="M24.9,94.8c0.5,0.1,1,0.2,1.5,0.3c0.5,0.1,0.7-0.7,0.2-0.8c-0.5-0.1-1-0.2-1.5-0.3
						C24.6,93.8,24.4,94.6,24.9,94.8L24.9,94.8z"/>
				</g>
				<g id="XMLID_17331_">
					<path id="XMLID_17332_" class="st31" d="M13.9,67.7c0.4,0.3,0.8,0.7,1.2,1c0.4,0.4,1-0.2,0.6-0.6c-0.4-0.3-0.8-0.7-1.2-1
						C14,66.8,13.4,67.4,13.9,67.7L13.9,67.7z"/>
				</g>
				<g id="XMLID_17329_">
					<path id="XMLID_17330_" class="st31" d="M23.7,98.6c0.3-0.4,0.6-0.8,0.9-1.3c0.1-0.2,0-0.5-0.2-0.6c-0.2-0.1-0.5,0-0.6,0.2
						c-0.3,0.4-0.6,0.8-0.9,1.3c-0.1,0.2,0,0.5,0.2,0.6C23.3,98.9,23.6,98.8,23.7,98.6L23.7,98.6z"/>
				</g>
				<g id="XMLID_17327_">
					<path id="XMLID_17328_" class="st31" d="M17.8,31.1c-0.6,0.2-1.2,0.4-1.8,0.6c-0.6,0.2-0.4,1.2,0.3,1c0.6-0.2,1.2-0.4,1.8-0.6
						C18.8,31.9,18.5,30.9,17.8,31.1L17.8,31.1z"/>
				</g>
				<g id="XMLID_17325_">
					<path id="XMLID_17326_" class="st31" d="M18.3,60.6c-0.5-0.1-1.1-0.1-1.6-0.2c-0.2,0-0.4,0.2-0.5,0.5c0,0.3,0.2,0.4,0.5,0.5
						c0.5,0.1,1.1,0.1,1.6,0.2c0.2,0,0.4-0.2,0.5-0.5C18.7,60.8,18.5,60.6,18.3,60.6L18.3,60.6z"/>
				</g>
				<g id="XMLID_17323_">
					<path id="XMLID_17324_" class="st31" d="M23.1,40.2c0.5,0.4,1,0.8,1.6,1.2c0.2,0.2,0.6,0.2,0.8,0c0.2-0.2,0.2-0.6,0-0.8
						c-0.5-0.4-1-0.8-1.6-1.2c-0.2-0.2-0.6-0.2-0.8,0C22.9,39.6,22.9,40,23.1,40.2L23.1,40.2z"/>
				</g>
				<g id="XMLID_17321_">
					<path id="XMLID_17322_" class="st31" d="M16.7,34.2c-0.6-0.2-1.1-0.4-1.7-0.6c-0.6-0.2-0.9,0.8-0.3,1c0.6,0.2,1.1,0.4,1.7,0.6
						C17.1,35.4,17.3,34.4,16.7,34.2L16.7,34.2z"/>
				</g>
				<g id="XMLID_17319_">
					<path id="XMLID_17320_" class="st31" d="M27.1,55.6c0.5-0.4,0.9-0.8,1.4-1.2c0.5-0.4-0.2-1.2-0.7-0.7c-0.5,0.4-0.9,0.8-1.4,1.2
						C25.9,55.3,26.6,56,27.1,55.6L27.1,55.6z"/>
				</g>
				<g id="XMLID_17317_">
					<path id="XMLID_17318_" class="st31" d="M17.8,53.3c-0.4,0.3-0.8,0.7-1.1,1c-0.4,0.4,0.2,1,0.6,0.6c0.4-0.3,0.8-0.7,1.1-1
						C18.8,53.5,18.2,52.9,17.8,53.3L17.8,53.3z"/>
				</g>
				<g id="XMLID_17315_">
					<path id="XMLID_17316_" class="st8" d="M18.3,43c-0.4,0.9,0,1.9,1,2.2c0.7,0.2,0.9-0.8,0.3-1c-0.2-0.1-0.4-0.4-0.3-0.6
						c0.1-0.3,0.1-0.6-0.2-0.7C18.8,42.7,18.4,42.7,18.3,43L18.3,43z"/>
				</g>
				<g id="XMLID_17313_">
					<path id="XMLID_17314_" class="st8" d="M25,77.8c-0.6,0.6-0.6,1.7,0.1,2.3c0.2,0.2,0.5,0.2,0.7,0c0.2-0.2,0.2-0.6,0-0.7
						c-0.2-0.2-0.3-0.5-0.1-0.8C26.2,78.1,25.5,77.3,25,77.8L25,77.8z"/>
				</g>
				<g id="XMLID_17311_">
					<path id="XMLID_17312_" class="st8" d="M30.7,23.3c-0.7,0.4-0.9,1.4-0.5,2c0.2,0.2,0.4,0.3,0.7,0.2c0.2-0.1,0.3-0.4,0.2-0.7
						c-0.2-0.2-0.1-0.6,0.1-0.7C31.7,23.8,31.2,23,30.7,23.3L30.7,23.3z"/>
				</g>
				<g id="XMLID_17309_">
					<path id="XMLID_17310_" class="st8" d="M29.1,33.6c0.1-0.7-0.7-1.4-1.5-1.4c0,0,0,0.9,0,0.9c0.8,0,0.6,0.2,0.6,0.5
						c0,0.2,0.2,0.4,0.4,0.4C28.9,34.1,29.1,33.9,29.1,33.6L29.1,33.6z"/>
				</g>
				<g id="XMLID_17307_">
					<path id="XMLID_17308_" class="st8" d="M15.8,40.8c-0.6-0.7-1.8-0.7-2.4-0.1c-0.5,0.5,0.3,1.3,0.8,0.8c0.2-0.3,0.6-0.2,0.8,0.1
						c0.2,0.2,0.6,0.2,0.8,0C16,41.3,16,41,15.8,40.8L15.8,40.8z"/>
				</g>
				<g id="XMLID_17305_">
					<path id="XMLID_17306_" class="st8" d="M27,50.6c0.7,0.3,1.5-0.2,1.7-0.9c0.1-0.6-0.7-0.8-0.9-0.2c-0.1,0.3-0.3,0.4-0.6,0.3
						c-0.2-0.1-0.5,0.1-0.5,0.3C26.6,50.3,26.8,50.5,27,50.6L27,50.6z"/>
				</g>
				<g id="XMLID_17303_">
					<path id="XMLID_17304_" class="st8" d="M28.9,46.1c0.3,0.9,1.4,1.3,2.2,0.8c0.6-0.3,0.1-1.2-0.5-0.9c-0.2,0.1-0.6,0-0.7-0.2
						c-0.1-0.3-0.4-0.4-0.6-0.4C29,45.5,28.8,45.8,28.9,46.1L28.9,46.1z"/>
				</g>
				<g id="XMLID_17301_">
					<path id="XMLID_17302_" class="st8" d="M25.9,67.7c0.7-0.2,1.2-1,1-1.8c-0.1-0.2-0.3-0.4-0.6-0.3c-0.2,0.1-0.4,0.3-0.3,0.6
						c0.1,0.3,0,0.6-0.3,0.6C25.1,67,25.4,67.9,25.9,67.7L25.9,67.7z"/>
				</g>
				<g id="XMLID_17299_">
					<path id="XMLID_17300_" class="st8" d="M17.5,71.7c0.7-0.5,0.8-1.6,0.2-2.2c-0.4-0.5-1.1,0.2-0.7,0.7c0.2,0.2,0.2,0.5,0,0.7
						c-0.2,0.2-0.3,0.4-0.2,0.7C16.9,71.7,17.3,71.9,17.5,71.7L17.5,71.7z"/>
				</g>
				<g id="XMLID_17297_">
					<path id="XMLID_17298_" class="st8" d="M30.4,54.5c0.6-0.6,0.6-1.6,0-2.2c-0.5-0.4-1.2,0.3-0.7,0.7c0.2,0.2,0.2,0.6,0,0.8
						C29.2,54.3,29.9,55,30.4,54.5L30.4,54.5z"/>
				</g>
				<g id="XMLID_17295_">
					<path id="XMLID_17296_" class="st8" d="M21.7,85c-0.9,0.4-1.3,1.4-0.8,2.3c0.3,0.6,1.3,0.1,0.9-0.5c-0.1-0.2-0.1-0.6,0.2-0.7
						c0.3-0.1,0.5-0.4,0.4-0.7C22.3,85.2,22,84.9,21.7,85L21.7,85z"/>
				</g>
				<g id="XMLID_17293_">
					<path id="XMLID_17294_" class="st8" d="M26.4,71.2c0.6,0.5,1.4,0.4,1.8-0.3c0.3-0.5-0.4-0.9-0.7-0.4c-0.1,0.2-0.4,0.2-0.5,0.1
						c-0.2-0.1-0.4-0.2-0.6,0C26.3,70.8,26.2,71.1,26.4,71.2L26.4,71.2z"/>
				</g>
				<g id="XMLID_17291_">
					<path id="XMLID_17292_" class="st8" d="M16.6,36.5c-0.9-0.2-1.7,0.5-1.8,1.4c0,0.3,0.2,0.5,0.5,0.5c0.3,0,0.5-0.2,0.5-0.5
						c0-0.2,0.3-0.5,0.5-0.4c0.3,0,0.5-0.1,0.6-0.4C17,36.8,16.9,36.5,16.6,36.5L16.6,36.5z"/>
				</g>
				<g id="XMLID_17289_">
					<path id="XMLID_17290_" class="st8" d="M30.3,38.7c-0.6,0.6-0.4,1.6,0.3,2.1c0.2,0.1,0.5,0,0.6-0.2c0.1-0.2,0-0.5-0.2-0.6
						c-0.2-0.1-0.2-0.4-0.1-0.6C31.4,38.9,30.7,38.3,30.3,38.7L30.3,38.7z"/>
				</g>
				<g id="XMLID_17287_">
					<path id="XMLID_17288_" class="st8" d="M28.8,78.4c0.9-0.1,1.4-1.1,1.2-1.9c-0.2-0.6-1.2-0.4-1,0.3c0.1,0.3-0.1,0.6-0.5,0.6
						c-0.3,0-0.4,0.4-0.4,0.6C28.3,78.4,28.6,78.5,28.8,78.4L28.8,78.4z"/>
				</g>
				<g id="XMLID_17285_">
					<path id="XMLID_17286_" class="st8" d="M24.7,24.2c0.5,0.7,1.4,0.8,2,0.2c0.4-0.4-0.2-1-0.6-0.6c-0.1,0.1-0.5,0.1-0.6,0
						c-0.1-0.2-0.4-0.3-0.6-0.2C24.7,23.7,24.6,24,24.7,24.2L24.7,24.2z"/>
				</g>
				<g id="XMLID_17283_">
					<path id="XMLID_17284_" class="st8" d="M23.3,47c-0.1-0.7-0.9-1.1-1.6-0.9c-0.5,0.1-0.3,1,0.2,0.8c0.3-0.1,0.5,0.1,0.5,0.4
						c0,0.2,0.3,0.3,0.5,0.3C23.2,47.4,23.3,47.2,23.3,47L23.3,47z"/>
				</g>
				<g id="XMLID_17281_">
					<path id="XMLID_17282_" class="st8" d="M27.3,87.5c0-0.9-0.9-1.5-1.7-1.4c-0.3,0-0.4,0.4-0.3,0.6c0.1,0.3,0.3,0.4,0.6,0.3
						c0.2,0,0.5,0.2,0.5,0.4C26.4,88.2,27.3,88.2,27.3,87.5L27.3,87.5z"/>
				</g>
				<g id="XMLID_17279_">
					<path id="XMLID_17280_" class="st8" d="M27.1,28c0.4,0.7,1.3,0.8,1.9,0.3c0.2-0.1,0.2-0.5,0-0.6c-0.2-0.2-0.4-0.1-0.6,0
						c-0.2,0.1-0.4,0.1-0.6-0.1C27.5,27.1,26.8,27.6,27.1,28L27.1,28z"/>
				</g>
				<g id="XMLID_17277_">
					<path id="XMLID_17278_" class="st8" d="M29.2,93.7c-0.6,0.3-0.8,1.1-0.5,1.6c0.2,0.4,0.9,0,0.7-0.4c-0.1-0.2,0-0.5,0.2-0.5
						c0.2-0.1,0.2-0.4,0.1-0.5C29.6,93.6,29.4,93.6,29.2,93.7L29.2,93.7z"/>
				</g>
				<g id="XMLID_17275_">
					<path id="XMLID_17276_" class="st8" d="M30.5,66.4c-0.7-0.4-1.6,0-1.9,0.7c-0.1,0.2,0.1,0.5,0.3,0.5c0.3,0.1,0.5-0.1,0.5-0.3
						c0.1-0.2,0.4-0.3,0.6-0.2C30.6,67.5,31,66.7,30.5,66.4L30.5,66.4z"/>
				</g>
				<g id="XMLID_17273_">
					<path id="XMLID_17274_" class="st8" d="M14.2,45.5c0.3,0.6,1.1,0.8,1.7,0.5c0.4-0.3,0-1-0.4-0.7c-0.2,0.1-0.5,0.1-0.6-0.2
						C14.7,44.6,14,45.1,14.2,45.5L14.2,45.5z"/>
				</g>
				<g id="XMLID_17271_">
					<path id="XMLID_17272_" class="st8" d="M16.7,96.9c-0.8,0.3-1.3,1.3-0.8,2.2c0.3,0.6,1.2,0.1,0.9-0.5c-0.1-0.2-0.1-0.6,0.2-0.7
						c0.3-0.1,0.4-0.3,0.4-0.6C17.3,97,17,96.8,16.7,96.9L16.7,96.9z"/>
				</g>
				<g id="XMLID_17269_">
					<path id="XMLID_17270_" class="st8" d="M15.2,51.3c0.8-0.3,1-1.3,0.6-2c-0.3-0.5-1.2-0.1-0.8,0.5c0.2,0.3,0,0.6-0.3,0.7
						c-0.2,0.1-0.3,0.5-0.2,0.7C14.7,51.4,15,51.4,15.2,51.3L15.2,51.3z"/>
				</g>
				<g id="XMLID_17267_">
					<path id="XMLID_17268_" class="st8" d="M31.3,50.4c0.2-0.7-0.2-1.5-0.9-1.7c-0.6-0.1-0.8,0.7-0.2,0.9c0.3,0.1,0.4,0.3,0.3,0.6
						C30.3,50.7,31.2,51,31.3,50.4L31.3,50.4z"/>
				</g>
				<g id="XMLID_17265_">
					<path id="XMLID_17266_" class="st8" d="M23.6,84.4c0.7,0.4,1.7,0.2,2-0.6c0.1-0.2,0.1-0.5-0.2-0.7c-0.2-0.1-0.6-0.1-0.7,0.2
						c-0.1,0.3-0.4,0.4-0.7,0.2C23.5,83.2,23,84.1,23.6,84.4L23.6,84.4z"/>
				</g>
				<g id="XMLID_17263_">
					<path id="XMLID_17264_" class="st8" d="M21.6,60.8c-0.4-0.7-1.3-0.9-2-0.5c-0.5,0.3,0,1.1,0.5,0.8c0.2-0.2,0.5-0.1,0.7,0.2
						C21.1,61.8,21.9,61.3,21.6,60.8L21.6,60.8z"/>
				</g>
				<g id="XMLID_17261_">
					<path id="XMLID_17262_" class="st8" d="M18.2,39.6c-0.9,0-1.7,0.8-1.7,1.7c0,0.3,0.2,0.6,0.6,0.6c0.3,0,0.6-0.3,0.6-0.6
						c0-0.3,0.2-0.6,0.6-0.6C18.9,40.7,18.9,39.6,18.2,39.6L18.2,39.6z"/>
				</g>
				<g id="XMLID_17259_">
					<path id="XMLID_17260_" class="st8" d="M15.9,88c-0.8-0.1-1.6,0.4-1.6,1.3c0,0.6,0.9,0.6,0.9,0c0-0.2,0.3-0.4,0.5-0.4
						c0.2,0,0.5-0.1,0.6-0.3C16.3,88.4,16.2,88.1,15.9,88L15.9,88z"/>
				</g>
				<g id="XMLID_17257_">
					<path id="XMLID_17258_" class="st8" d="M17.6,56.3c-0.7,0.6-0.7,1.8,0,2.4c0.5,0.5,1.3-0.3,0.8-0.8c-0.3-0.2-0.3-0.6,0-0.8
						C19,56.6,18.2,55.9,17.6,56.3L17.6,56.3z"/>
				</g>
				<g id="XMLID_17255_">
					<path id="XMLID_17256_" class="st8" d="M24.9,30.8c0.9-0.5,1-1.7,0.4-2.4c-0.2-0.2-0.6-0.2-0.8,0c-0.2,0.2-0.2,0.5,0,0.8
						c0.2,0.2,0,0.6-0.2,0.7C23.7,30.3,24.3,31.2,24.9,30.8L24.9,30.8z"/>
				</g>
				<g id="XMLID_17253_">
					<path id="XMLID_17254_" class="st8" d="M24.4,49.2c-0.8-0.4-1.8,0-2.1,0.8c-0.1,0.3,0.1,0.6,0.4,0.6c0.3,0.1,0.5-0.1,0.6-0.4
						c0.1-0.2,0.4-0.3,0.6-0.2C24.5,50.4,25,49.5,24.4,49.2L24.4,49.2z"/>
				</g>
				<g id="XMLID_17251_">
					<path id="XMLID_17252_" class="st8" d="M19.7,84.1c-0.4-0.8-1.6-1.1-2.3-0.5c-0.2,0.2-0.4,0.5-0.2,0.7c0.1,0.2,0.5,0.4,0.7,0.2
						c0.3-0.2,0.6-0.2,0.8,0.1C19.1,85.2,20.1,84.7,19.7,84.1L19.7,84.1z"/>
				</g>
				<g id="XMLID_17249_">
					<path id="XMLID_17250_" class="st8" d="M23.1,66.8c-0.8,0.4-1.1,1.5-0.6,2.3c0.4,0.6,1.3,0,0.9-0.5c-0.2-0.3-0.1-0.6,0.2-0.8
						C24.2,67.4,23.7,66.5,23.1,66.8L23.1,66.8z"/>
				</g>
				<g id="XMLID_17247_">
					<path id="XMLID_17248_" class="st8" d="M23.4,94.3c0.2-0.7-0.2-1.6-1-1.8c-0.6-0.1-0.8,0.8-0.3,0.9c0.3,0.1,0.4,0.3,0.4,0.6
						C22.3,94.7,23.2,94.9,23.4,94.3L23.4,94.3z"/>
				</g>
				<g id="XMLID_17245_">
					<path id="XMLID_17246_" class="st8" d="M15,56.3c0.5-0.6,0.4-1.5-0.3-2c-0.5-0.3-0.9,0.4-0.4,0.8c0.2,0.1,0.2,0.4,0.1,0.6
						C14,56.1,14.6,56.8,15,56.3L15,56.3z"/>
				</g>
				<g id="XMLID_17243_">
					<path id="XMLID_17244_" class="st8" d="M15.2,80.3c-0.9-0.2-1.7,0.5-1.8,1.4c0,0.3,0.2,0.5,0.5,0.5c0.3,0,0.5-0.2,0.5-0.5
						c0-0.2,0.3-0.4,0.5-0.4c0.3,0.1,0.5-0.1,0.6-0.4C15.6,80.7,15.5,80.3,15.2,80.3L15.2,80.3z"/>
				</g>
				<g id="XMLID_17241_">
					<path id="XMLID_17242_" class="st8" d="M30.5,29.7c-0.2,0.7,0.3,1.3,1,1.4c0.2,0,0.4-0.2,0.4-0.4c0-0.2-0.2-0.4-0.4-0.4
						c-0.2,0-0.3-0.3-0.3-0.4C31.4,29.4,30.6,29.2,30.5,29.7L30.5,29.7z"/>
				</g>
				<g id="XMLID_17239_">
					<path id="XMLID_17240_" class="st8" d="M21.9,77.4c-0.6-0.8-1.7-1-2.5-0.3c-0.2,0.2-0.2,0.6,0,0.8c0.2,0.2,0.6,0.2,0.8,0
						c0.2-0.2,0.6-0.1,0.7,0.1C21.3,78.5,22.3,78,21.9,77.4L21.9,77.4z"/>
				</g>
				<g id="XMLID_17237_">
					<path id="XMLID_17238_" class="st8" d="M16.5,28.2c-0.6,0.3-0.8,1.1-0.5,1.7c0.3,0.4,1,0,0.7-0.4c-0.1-0.2,0-0.5,0.2-0.6
						C17.4,28.7,17,28,16.5,28.2L16.5,28.2z"/>
				</g>
				<g id="XMLID_17235_">
					<path id="XMLID_17236_" class="st8" d="M21.5,34.6c0.1-0.8-0.6-1.5-1.4-1.5c-0.6,0-0.6,0.9,0,1c0.3,0,0.5,0.3,0.4,0.6
						c0,0.3,0.2,0.5,0.5,0.5C21.3,35,21.5,34.8,21.5,34.6L21.5,34.6z"/>
				</g>
				<g id="XMLID_17233_">
					<path id="XMLID_17234_" class="st8" d="M22.9,75.8c0.8,0.2,1.7-0.3,1.8-1.1c0-0.3-0.1-0.5-0.4-0.6c-0.2-0.1-0.6,0.1-0.6,0.4
						c0,0.3-0.3,0.5-0.6,0.4C22.6,74.6,22.3,75.6,22.9,75.8L22.9,75.8z"/>
				</g>
				<g id="XMLID_17231_">
					<path id="XMLID_17232_" class="st8" d="M23.2,88.6c-0.9,0.2-1.4,1.3-1.1,2.1c0.1,0.3,0.4,0.5,0.7,0.4c0.3-0.1,0.5-0.4,0.4-0.7
						c-0.1-0.3,0-0.7,0.3-0.8C24.2,89.4,23.9,88.4,23.2,88.6L23.2,88.6z"/>
				</g>
				<g id="XMLID_17229_">
					<path id="XMLID_17230_" class="st8" d="M20.9,36.5c-0.7-0.6-1.7-0.4-2.2,0.4c-0.3,0.6,0.5,1.1,0.9,0.5c0.1-0.2,0.5-0.3,0.6-0.2
						c0.2,0.2,0.5,0.2,0.7,0C21,37,21.1,36.7,20.9,36.5L20.9,36.5z"/>
				</g>
				<g id="XMLID_17227_">
					<path id="XMLID_17228_" class="st8" d="M30.1,84.2c-0.4-0.7-1.3-1-2-0.6c-0.5,0.3,0,1.2,0.5,0.8c0.3-0.2,0.6-0.1,0.7,0.2
						c0.1,0.2,0.5,0.3,0.7,0.2C30.1,84.7,30.2,84.4,30.1,84.2L30.1,84.2z"/>
				</g>
				<g id="XMLID_17225_">
					<path id="XMLID_17226_" class="st8" d="M16,91.5c-0.7,0-1.4,0.6-1.3,1.3c0,0.6,0.9,0.6,0.9,0c0-0.3,0.2-0.5,0.5-0.5
						C16.6,92.4,16.6,91.5,16,91.5L16,91.5z"/>
				</g>
				<g id="XMLID_17223_">
					<path id="XMLID_17224_" class="st8" d="M28.5,61.2c-0.2,1,0.5,1.9,1.5,1.9c0.7,0,0.7-1.1,0-1.1c-0.2,0-0.5-0.3-0.5-0.5
						c0-0.3-0.1-0.6-0.4-0.7C28.9,60.8,28.6,61,28.5,61.2L28.5,61.2z"/>
				</g>
				<g id="XMLID_17221_">
					<path id="XMLID_17222_" class="st8" d="M24.7,51.6c-0.6,0.6-0.6,1.7,0.1,2.3c0.2,0.2,0.5,0.2,0.7,0c0.2-0.2,0.2-0.6,0-0.7
						c-0.2-0.2-0.3-0.5-0.1-0.8C26,51.8,25.2,51.1,24.7,51.6L24.7,51.6z"/>
				</g>
				<g id="XMLID_17219_">
					<path id="XMLID_17220_" class="st8" d="M31.6,43.5c0-0.8-0.7-1.5-1.5-1.4c-0.3,0-0.5,0.2-0.5,0.5c0,0.2,0.2,0.5,0.5,0.5
						c0.3,0,0.5,0.2,0.5,0.5C30.6,44.1,31.6,44.1,31.6,43.5L31.6,43.5z"/>
				</g>
				<g id="XMLID_17217_">
					<path id="XMLID_17218_" class="st8" d="M27.8,97.9c-0.4-0.5-1.3-0.5-1.7,0c-0.4,0.4,0.2,0.9,0.6,0.6c0.2-0.2,0.4-0.1,0.6,0
						C27.5,98.9,28.1,98.3,27.8,97.9L27.8,97.9z"/>
				</g>
				<g id="XMLID_17215_">
					<path id="XMLID_17216_" class="st8" d="M21.9,20.5c0.7,0.3,1.5-0.2,1.7-0.9c0.1-0.6-0.7-0.8-0.9-0.2c-0.1,0.3-0.4,0.4-0.6,0.3
						c-0.2-0.1-0.5,0.1-0.6,0.3C21.5,20.2,21.7,20.4,21.9,20.5L21.9,20.5z"/>
				</g>
				<g id="XMLID_17213_">
					<path id="XMLID_17214_" class="st8" d="M28.4,39.5c0.2-1-0.5-1.8-1.4-1.9c-0.3,0-0.5,0.3-0.5,0.5c0,0.3,0.2,0.5,0.5,0.5
						c0.2,0,0.4,0.4,0.4,0.6C27.3,39.9,28.3,40.1,28.4,39.5L28.4,39.5z"/>
				</g>
				<g id="XMLID_17211_">
					<path id="XMLID_17212_" class="st8" d="M24.8,37.2c0.5-0.4,0.5-1.3,0.1-1.7c-0.4-0.4-0.9,0.2-0.6,0.6c0.2,0.2,0.1,0.4-0.1,0.6
						c-0.2,0.1-0.1,0.4,0,0.6C24.4,37.4,24.6,37.4,24.8,37.2L24.8,37.2z"/>
				</g>
				<g id="XMLID_17209_">
					<path id="XMLID_17210_" class="st8" d="M22.4,23.6c-0.2-0.7-1.1-1.2-1.8-0.9c-0.2,0.1-0.4,0.3-0.3,0.6c0.1,0.2,0.3,0.4,0.6,0.3
						c0.3-0.1,0.6,0,0.6,0.3C21.7,24.4,22.6,24.1,22.4,23.6L22.4,23.6z"/>
				</g>
			</g>
		</g>
		<path id="XMLID_13014_" d="M38.1,32.3c3.8-1.2,7.5-2.4,11.3-3.6c0.7-0.2,1.5-0.5,2.3-0.4c0.8,0,1.6,0.3,2.3,0.7
			c1.6,0.7,3.2,1.3,4.9,2c0.6,0.2,1.2,0.5,1.5,1c0.3,0.5,0.3,1.1,0.3,1.7c0,0.9,0,1.9,0,2.8c0,0.3,0,0.7-0.2,0.9
			c-0.2,0.3-0.6,0.4-1,0.4c-6.7,1-13.5,0.7-20.1-0.9c-0.6-0.1-1.2-0.3-1.7-0.7c-1-0.8-1.1-2.5-0.2-3.5s2.3-1.3,3.6-1"/>
	</g>
	<g id="XMLID_3131_">
		<g id="XMLID_3671_">
			<g id="XMLID_3672_">
				<path id="XMLID_110_" class="st5" d="M93.2,36.9C93.8,55,94.3,73,94.9,91c0,0.5,0,1,0.2,1.4c0.3,0.5,0.7,0.8,1.2,1
					c6.9,3.4,14.3,4.2,21.7,5c7.6,0.8,15.7,1.5,22.4-2.8c0.6-0.4,1.3-0.9,1.6-1.7c0.3-0.6,0.2-1.4,0.2-2.1
					c-0.4-17.3-0.8-34.5-1.2-51.8c-8.3,3.3-17.3,3.1-26,3C110.5,43,99.4,42.3,93.2,36.9L93.2,36.9z"/>
			</g>
		</g>
		<g id="XMLID_3505_">
			<g id="XMLID_79_">
				<g id="XMLID_81_">
					<path id="XMLID_84_" class="st5" d="M93.8,57.6c0.6,11.6,0.5,24.8,1.1,36.3c0,0.3,0,0.6,0.2,0.9c0.3,0.3,0.7,0.5,1.2,0.7
						c6.9,2.1,14.3,2.7,21.7,3.2c7.6,0.5,15.7,1,22.4-1.8c0.6-0.3,1.3-0.6,1.6-1.1c0.3-0.4,0.2-0.9,0.2-1.3
						c-0.4-11-0.8-22.1-1.2-33.1c-8.3,2.1-17.3,2-26,1.9c-4.6-0.1-15.1-3.5-21.3-7L93.8,57.6z"/>
				</g>
			</g>
			<g id="XMLID_103_">
				<g id="XMLID_126_">
					<path id="XMLID_657_" class="st33" d="M140.8,92.8c0.5,1,0.7,2.6-0.3,3.3c-0.6,0.4-1.4,0.2-2-0.1c-1-0.5-1.9-1.7-1.3-2.8
						c0.4-0.7,1.2-1.1,1.9-1.1S140.2,92.5,140.8,92.8"/>
				</g>
				<g id="XMLID_640_">
					<path id="XMLID_655_" class="st33" d="M100.3,73.3c0.7-1.3,2.1-2.8,3.7-2.2c0.9,0.4,1.3,1.3,1.4,2.2c0.2,1.5-0.3,3.3-2,3.6
						c-1,0.2-2.1-0.4-2.7-1.2C100.1,74.9,100.5,74.1,100.3,73.3"/>
				</g>
				<g id="XMLID_284_">
					<path id="XMLID_644_" class="st33" d="M132.8,68.2c-1,1.1-2.8,2.3-4.2,1.3c-0.8-0.6-1-1.6-0.9-2.5c0.1-1.5,1-3.2,2.8-3.1
						c1.1,0.1,2,0.9,2.4,1.8C133.3,66.6,132.8,67.3,132.8,68.2"/>
				</g>
				<g id="XMLID_281_">
					<path id="XMLID_642_" class="st33" d="M133.1,83.2c1.2,0.4,2.6,1.3,2.4,2.7c-0.2,0.8-0.9,1.2-1.6,1.5c-1.2,0.4-2.8,0.3-3.2-1.1
						c-0.3-0.8,0-1.8,0.6-2.4C131.7,83.3,132.4,83.5,133.1,83.2"/>
				</g>
				<g id="XMLID_278_">
					<path id="XMLID_286_" class="st33" d="M104,62c1.1,0.1,2.5,0.5,2.6,1.8c0.1,0.7-0.5,1.3-1,1.6c-0.9,0.6-2.3,0.9-3-0.2
						c-0.4-0.6-0.4-1.5-0.1-2.1C102.9,62.4,103.5,62.4,104,62"/>
				</g>
				<g id="XMLID_275_">
					<path id="XMLID_282_" class="st33" d="M139.7,90.4c-1.2-0.1-2.9-0.6-3-2c-0.1-0.8,0.5-1.5,1.1-1.9c1-0.7,2.6-1,3.4,0.2
						c0.5,0.7,0.5,1.8,0.1,2.5C141,89.9,140.3,89.9,139.7,90.4"/>
				</g>
				<g id="XMLID_272_">
					<path id="XMLID_279_" class="st33" d="M137.2,79.8c-0.7,1.2-2.2,2.7-3.7,2c-0.9-0.4-1.2-1.3-1.3-2.2c-0.2-1.4,0.4-3.2,2-3.4
						c1-0.1,2,0.5,2.6,1.2C137.4,78.2,137.1,78.9,137.2,79.8"/>
				</g>
				<g id="XMLID_269_">
					<path id="XMLID_276_" class="st33" d="M101.9,81.3c-1.1,0-2.7-0.4-2.8-1.7c-0.1-0.8,0.4-1.3,1-1.7c0.9-0.7,2.3-1,3.1,0
						c0.5,0.6,0.5,1.6,0.2,2.2C103.1,80.8,102.5,80.8,101.9,81.3"/>
				</g>
				<g id="XMLID_266_">
					<path id="XMLID_273_" class="st33" d="M111,75.7c0.2,1.5-0.1,3.6-1.8,4c-1,0.3-1.8-0.4-2.4-1c-1-1.1-1.7-2.9-0.5-4.1
						c0.8-0.7,2-0.9,2.9-0.6C110.2,74.3,110.3,75.1,111,75.7"/>
				</g>
				<g id="XMLID_263_">
					<path id="XMLID_270_" class="st33" d="M126.7,91.4c0.7-1.2,2.1-2.6,3.6-2c0.9,0.4,1.2,1.3,1.3,2.1c0.2,1.4-0.4,3.2-2,3.4
						c-1,0.1-2-0.5-2.5-1.2S126.8,92.3,126.7,91.4"/>
				</g>
				<g id="XMLID_260_">
					<path id="XMLID_267_" class="st33" d="M137.2,81.4c0.5-1,1.5-2.3,2.8-1.9c0.7,0.2,1,1,1.2,1.6c0.2,1.1-0.1,2.6-1.4,2.8
						c-0.8,0.2-1.6-0.2-2.1-0.8S137.3,82.1,137.2,81.4"/>
				</g>
				<g id="XMLID_257_">
					<path id="XMLID_264_" class="st33" d="M131.1,75.9c-1-1-2-2.7-1.1-3.9c0.6-0.8,1.5-0.8,2.3-0.7c1.4,0.2,2.9,1.1,2.7,2.7
						c-0.1,1-0.9,1.8-1.8,2.1C132.6,76.4,132,75.9,131.1,75.9"/>
				</g>
				<g id="XMLID_254_">
					<path id="XMLID_261_" class="st33" d="M135.2,64c0.6-1,1.8-2.1,2.9-1.6c0.7,0.3,0.9,1.1,1,1.7c0.1,1.1-0.3,2.5-1.6,2.7
						c-0.8,0.1-1.6-0.4-2-1C135,65.2,135.3,64.6,135.2,64"/>
				</g>
				<g id="XMLID_251_">
					<path id="XMLID_258_" class="st33" d="M134.3,88.5c1.3,0.2,3.1,1,3,2.6c0,0.9-0.8,1.5-1.5,1.9c-1.2,0.6-3,0.7-3.7-0.7
						c-0.5-0.9-0.3-2,0.2-2.7S133.5,88.9,134.3,88.5"/>
				</g>
				<g id="XMLID_248_">
					<path id="XMLID_255_" class="st33" d="M123.5,85.8c-0.1,1.2-0.5,2.7-1.8,2.8c-0.8,0.1-1.4-0.5-1.7-1.1c-0.6-1-1-2.4,0.1-3.2
						c0.7-0.5,1.6-0.4,2.3-0.1S123.1,85.2,123.5,85.8"/>
				</g>
				<g id="XMLID_245_">
					<path id="XMLID_252_" class="st33" d="M126.8,70.5c1.2,0.5,2.8,1.6,2.4,3.1c-0.2,0.9-1.1,1.3-1.8,1.5c-1.3,0.4-3,0.1-3.5-1.4
						c-0.3-0.9,0.1-2,0.8-2.6C125.3,70.6,126,70.8,126.8,70.5"/>
				</g>
				<g id="XMLID_123_">
					<path id="XMLID_249_" class="st33" d="M127.8,85.5c1,1,2,2.8,1,4.1c-0.6,0.8-1.6,0.8-2.4,0.7c-1.4-0.2-3-1.2-2.8-2.8
						c0.1-1,1-1.9,1.9-2.2C126.3,84.9,126.9,85.4,127.8,85.5"/>
				</g>
				<g id="XMLID_236_">
					<path id="XMLID_246_" class="st33" d="M117.7,98.8c-1.5-0.4-3.3-1.4-3.1-3.1c0.1-1,1-1.6,1.8-2c1.4-0.6,3.3-0.6,4.1,1
						c0.4,1,0.1,2.2-0.5,3S118.5,98.4,117.7,98.8"/>
				</g>
				<g id="XMLID_232_">
					<path id="XMLID_238_" class="st33" d="M127.8,100c-1.7-0.5-3.9-1.7-3.6-3.7c0.2-1.2,1.2-1.9,2.2-2.3c1.6-0.7,3.9-0.6,4.7,1.3
						c0.5,1.2,0.1,2.6-0.6,3.5C129.7,99.7,128.8,99.5,127.8,100"/>
				</g>
				<g id="XMLID_228_">
					<path id="XMLID_234_" class="st33" d="M122.7,73.2c1.2,1.2,2.4,3.2,1.2,4.7c-0.7,0.9-1.9,1-2.8,0.8c-1.7-0.2-3.5-1.4-3.3-3.3
						c0.2-1.2,1.1-2.2,2.1-2.6C121,72.5,121.7,73.1,122.7,73.2"/>
				</g>
				<g id="XMLID_224_">
					<path id="XMLID_230_" class="st33" d="M103.4,82.3c0.6-1.4,1.8-3.2,3.5-2.8c1,0.2,1.5,1.2,1.7,2.1c0.4,1.5,0.2,3.5-1.6,4
						c-1.1,0.3-2.2-0.1-2.9-0.9S103.7,83.2,103.4,82.3"/>
				</g>
				<g id="XMLID_220_">
					<path id="XMLID_226_" class="st33" d="M116.9,77.8c-1.2,0.8-3.1,1.5-4.2,0.3c-0.7-0.7-0.5-1.7-0.3-2.5c0.5-1.4,1.7-2.8,3.3-2.3
						c1,0.3,1.7,1.3,1.8,2.2C117.7,76.4,117.1,76.9,116.9,77.8"/>
				</g>
				<g id="XMLID_214_">
					<path id="XMLID_221_" class="st33" d="M105,93.4c-1.8-0.7-4.1-2.2-3.6-4.4c0.3-1.3,1.5-1.9,2.6-2.3c1.9-0.6,4.4-0.3,5.1,1.8
						c0.4,1.3-0.1,2.8-1,3.7C107.2,93.3,106.2,93,105,93.4"/>
				</g>
				<g id="XMLID_210_">
					<path id="XMLID_215_" class="st33" d="M119.2,83.2c-1,1-2.6,2.1-3.9,1.2c-0.8-0.6-0.9-1.5-0.8-2.4c0.2-1.4,1-3,2.7-2.9
						c1,0.1,1.8,0.9,2.2,1.7C119.7,81.7,119.2,82.3,119.2,83.2"/>
				</g>
				<g id="XMLID_206_">
					<path id="XMLID_211_" class="st33" d="M111.4,62.9c1.3,0.5,3,1.6,2.7,3.2c-0.2,0.9-1.1,1.4-1.9,1.7c-1.4,0.4-3.2,0.3-3.7-1.3
						c-0.3-1,0.1-2.1,0.7-2.7C109.8,63,110.6,63.2,111.4,62.9"/>
				</g>
				<g id="XMLID_203_">
					<path id="XMLID_207_" class="st33" d="M107.8,89.4c-0.1-2,0.4-4.7,2.6-5.2c1.3-0.3,2.4,0.6,3.2,1.5c1.3,1.5,2.1,3.9,0.4,5.5
						c-1.1,0.9-2.7,1.1-3.9,0.6C108.8,91.3,108.6,90.3,107.8,89.4"/>
				</g>
				<g id="XMLID_200_">
					<path id="XMLID_204_" class="st33" d="M95.3,92.9c0.1-1.9,0.8-4.5,2.9-4.7c1.3-0.1,2.2,0.8,2.9,1.7c1.1,1.5,1.6,4-0.1,5.3
						c-1.1,0.8-2.7,0.8-3.8,0.2C96.2,94.9,96.1,93.9,95.3,92.9"/>
				</g>
				<g id="XMLID_193_">
					<path id="XMLID_201_" class="st33" d="M102.4,68c0.9-1.5,2.7-3.3,4.6-2.5c1.1,0.5,1.5,1.7,1.6,2.7c0.2,1.8-0.5,4-2.6,4.3
						c-1.3,0.2-2.5-0.6-3.2-1.6C102.2,70,102.6,69.1,102.4,68"/>
				</g>
				<g id="XMLID_189_">
					<path id="XMLID_195_" class="st33" d="M96.1,77.9c1.7,0.2,4,1,4.1,2.9c0.1,1.2-0.8,2-1.7,2.5c-1.5,0.9-3.7,1.3-4.7-0.4
						c-0.7-1-0.6-2.4,0-3.4S95.3,78.5,96.1,77.9"/>
				</g>
				<g id="XMLID_186_">
					<path id="XMLID_190_" class="st33" d="M108.7,69.7c1.2-0.7,3.2-1.3,4.2,0c0.6,0.8,0.4,1.7,0.1,2.5c-0.6,1.3-1.9,2.6-3.4,2
						c-0.9-0.4-1.5-1.4-1.6-2.3C107.7,71,108.4,70.5,108.7,69.7"/>
				</g>
				<g id="XMLID_183_">
					<path id="XMLID_187_" class="st33" d="M99.1,70c-1.7,0-4-0.5-4.2-2.4c-0.2-1.1,0.6-2,1.3-2.6c1.3-1,3.4-1.6,4.6-0.1
						c0.8,0.9,0.8,2.3,0.4,3.3S99.9,69.3,99.1,70"/>
				</g>
				<g id="XMLID_180_">
					<path id="XMLID_184_" class="st33" d="M119.3,66.9c0,2-0.6,4.8-2.8,5.2c-1.4,0.2-2.4-0.7-3.2-1.6c-1.2-1.6-2-4.1-0.2-5.6
						c1.1-0.9,2.8-1,4-0.5C118.3,64.9,118.5,65.9,119.3,66.9"/>
				</g>
				<g id="XMLID_112_">
					<path id="XMLID_181_" class="st33" d="M121.4,79c0.7-1,1.5-1.1,2.7-0.4c0.8,0.4,1,1.2,1,2c0.1,1.2-0.5,2.8-1.9,2.9
						c-0.9,0.1-1.8-0.5-2.2-1.2c-0.4-0.7-0.1-1.3-0.2-2.1C120.9,79.8,120.5,80.2,121.4,79"/>
				</g>
				<g id="XMLID_176_">
					<path id="XMLID_177_" class="st33" d="M138.6,76.2c-0.9,0.2-1.3-0.2-1.6-1.2c-0.2-0.6,0.1-1.2,0.5-1.5c0.6-0.7,1.7-1.2,2.5-0.5
						c0.5,0.4,0.6,1.2,0.5,1.8c-0.1,0.6-0.6,0.7-1,1.2C139.2,76.1,139.6,76.1,138.6,76.2"/>
				</g>
				<g id="XMLID_172_">
					<path id="XMLID_173_" class="st33" d="M100.7,83.9c1,0,1.4,0.5,1.6,1.6c0.1,0.7-0.4,1.2-0.8,1.6c-0.8,0.6-2.1,1-2.9,0.1
						c-0.5-0.6-0.5-1.4-0.2-2c0.3-0.6,0.8-0.7,1.3-1.1C99.9,83.9,99.5,83.8,100.7,83.9"/>
				</g>
				<g id="XMLID_169_">
					<path id="XMLID_170_" class="st33" d="M133.3,94.2c0.9-0.4,1.4-0.1,2,0.8c0.4,0.5,0.2,1.2-0.1,1.7c-0.4,0.8-1.4,1.6-2.4,1.1
						c-0.6-0.3-0.9-1-1-1.6c0-0.6,0.4-0.9,0.7-1.4C132.7,94.5,132.3,94.6,133.3,94.2"/>
				</g>
				<g id="XMLID_166_">
					<path id="XMLID_167_" class="st33" d="M114.3,91.8c1.1,0.1,1.4,0.7,1.4,2c0,0.7-0.6,1.2-1.1,1.6c-0.9,0.5-2.4,0.7-3-0.4
						c-0.4-0.7-0.3-1.6,0.1-2.2c0.4-0.6,1-0.6,1.5-1C113.6,91.7,113.1,91.6,114.3,91.8"/>
				</g>
				<g id="XMLID_163_">
					<path id="XMLID_164_" class="st33" d="M116.3,87.8c0.5-0.8,1.1-0.8,2-0.4c0.6,0.3,0.8,0.9,0.8,1.5c0.1,0.9-0.3,2.1-1.4,2.2
						c-0.7,0.1-1.3-0.4-1.7-0.9s-0.1-1-0.2-1.5C115.9,88.4,115.6,88.7,116.3,87.8"/>
				</g>
				<g id="XMLID_160_">
					<path id="XMLID_161_" class="st33" d="M106.9,97.2c-1.2,0-1.6-0.6-1.8-2c-0.1-0.8,0.5-1.4,1.1-1.8c1-0.7,2.5-1.1,3.4,0.1
						c0.5,0.7,0.5,1.7,0.2,2.4s-1,0.8-1.6,1.2C107.8,97.2,108.3,97.4,106.9,97.2"/>
				</g>
				<g id="XMLID_157_">
					<path id="XMLID_158_" class="st33" d="M97.5,62c-0.2-0.9,0.1-1.3,1.1-1.7c0.6-0.2,1.1,0.1,1.5,0.4c0.7,0.6,1.3,1.6,0.6,2.4
						c-0.4,0.5-1.1,0.7-1.7,0.6c-0.6-0.1-0.7-0.6-1.2-0.9C97.7,62.6,97.7,63,97.5,62"/>
				</g>
				<g id="XMLID_154_">
					<path id="XMLID_155_" class="st33" d="M121.3,69.4c0.7,0.6,0.7,1.1,0.2,2c-0.3,0.5-0.9,0.6-1.5,0.6c-0.9,0-2-0.5-2-1.5
						c0-0.6,0.4-1.2,1-1.5c0.5-0.3,0.9,0,1.5,0C120.8,69,120.6,68.7,121.3,69.4"/>
				</g>
				<g id="XMLID_151_">
					<path id="XMLID_152_" class="st33" d="M98.3,74.4c-0.6,0.7-1.1,0.7-2,0.1c-0.5-0.3-0.6-0.9-0.6-1.5c0-0.9,0.5-2,1.6-1.9
						c0.6,0,1.2,0.5,1.5,1s0,0.9,0,1.5C98.7,73.9,99,73.6,98.3,74.4"/>
				</g>
				<g id="XMLID_148_">
					<path id="XMLID_149_" class="st33" d="M109.4,83c-0.5-1-0.2-1.7,0.8-2.4c0.6-0.5,1.4-0.3,2,0c1,0.5,2.1,1.6,1.5,2.8
						c-0.3,0.8-1.2,1.2-1.9,1.3s-1.1-0.5-1.8-0.7C109.8,83.7,109.9,84.2,109.4,83"/>
				</g>
				<g id="XMLID_145_">
					<path id="XMLID_146_" class="st33" d="M121.3,96.3c-1.2-0.4-1.4-1.1-1.1-2.5c0.2-0.8,0.9-1.2,1.6-1.5c1.2-0.4,2.8-0.3,3.2,1
						c0.3,0.8,0,1.8-0.5,2.4c-0.5,0.6-1.2,0.4-1.9,0.7C122.2,96.5,122.6,96.8,121.3,96.3"/>
				</g>
				<g id="XMLID_142_">
					<path id="XMLID_143_" class="st33" d="M129.8,82.2c-0.8,0.9-1.5,0.8-2.6,0.1c-0.7-0.4-0.8-1.2-0.8-1.9c0.1-1.2,0.7-2.6,2.1-2.5
						c0.8,0,1.6,0.6,1.9,1.3c0.3,0.7,0,1.2,0,1.9C130.3,81.5,130.7,81.2,129.8,82.2"/>
				</g>
				<g id="XMLID_135_">
					<path id="XMLID_136_" class="st33" d="M136,68.4c0.1-0.9,0.6-1.2,1.6-1.2c0.6,0,1,0.5,1.3,0.9c0.5,0.8,0.6,2-0.3,2.5
						c-0.6,0.3-1.3,0.3-1.8,0s-0.5-0.8-0.8-1.3C136,69,135.8,69.4,136,68.4"/>
				</g>
				<g id="XMLID_132_">
					<path id="XMLID_133_" class="st33" d="M93.9,61.7c-0.9-0.7-0.9-1.4-0.2-2.5c0.4-0.7,1.2-0.8,1.9-0.8c1.1,0,2.5,0.7,2.5,2
						c0,0.8-0.6,1.6-1.3,1.9c-0.7,0.3-1.2,0-1.9,0C94.6,62.3,94.9,62.6,93.9,61.7"/>
				</g>
				<g id="XMLID_129_">
					<path id="XMLID_130_" class="st33" d="M122.6,68.4c-1.2,0-1.6-0.5-1.8-1.9c-0.1-0.8,0.4-1.4,1-1.8c0.9-0.7,2.4-1.1,3.3-0.1
						c0.5,0.7,0.6,1.6,0.3,2.3c-0.3,0.7-0.9,0.8-1.5,1.3C123.5,68.3,123.9,68.4,122.6,68.4"/>
				</g>
			</g>
		</g>
		<g id="XMLID_3133_">
			<g id="XMLID_3502_">
				<path id="XMLID_104_" class="st34" d="M93.6,59.5c8.6,0.8,36.1,2.8,44.7,1.9c1.4-0.1,2.9-0.4,3.6-1.6c0.4-0.6,0.4-1.4,0.4-2.2
					c0.1-5.8,0.6-12.9-0.5-18.6c-16.3,1.4-33.4,3.7-48.7-2.1c0.1,5.9,0.1,13.5,0.6,19.4"/>
			</g>
			<g id="XMLID_3493_">
				<path id="XMLID_111_" class="st35" d="M93.8,37.5c2.5,1.7,5.5,2.5,8.5,3.1c12,2.3,24.5,2.3,36.5-0.1c1.2-0.2,2.4-0.6,3.1-1.5
					c0.9-1.3,0.3-3.3-1-4.3s-2.9-1.3-4.5-1.5c-7.9-1-15.9-1-23.8-1c-5.9,0-12,0-17.5,2.2c-0.4,0.2-0.9,0.4-1.2,0.7
					c-1,1.1,0.3,3.3,1.7,2.9"/>
			</g>
			<g id="XMLID_3311_">
				<path id="XMLID_285_" class="st36" d="M95.3,36.1c6.4-3.3,44.8-2.5,44.8,1.4c-14.7,3-30,2.7-44.5-1"/>
			</g>
		</g>
	</g>
</g>
</svg>
