<?xml version="1.0" encoding="utf-8"?>
<!-- Generator: Adobe Illustrator 18.1.0, SVG Export Plug-In . SVG Version: 6.00 Build 0)  -->
<svg version="1.1" id="Layer_1" xmlns="http://www.w3.org/2000/svg" xmlns:xlink="http://www.w3.org/1999/xlink" x="0px" y="0px"
	 viewBox="0 0 133.3 105.9" style="enable-background:new 0 0 133.3 105.9;" xml:space="preserve">
<style type="text/css">
	.st0{fill:#FFFFFF;}
	.st1{fill:#0071FC;}
	.st2{fill:none;stroke:#001D2D;stroke-width:2;stroke-linecap:round;stroke-linejoin:round;stroke-miterlimit:10;}
	.st3{fill:#F4D49D;}
	.st4{fill:#44612D;}
	.st5{fill:#9BC53D;}
	.st6{fill:#CDCED0;}
	.st7{fill:#E7E9E6;}
	.st8{fill:#C9A877;}
	.st9{fill:#D2A12A;}
	.st10{fill:#EEA820;}
	.st11{fill:#6E1F3F;}
	.st12{fill:#2AAAE2;}
	.st13{fill:#25809A;}
	.st14{fill:#F48CA3;}
	.st15{fill:#BD294C;}
	.st16{fill:#6B3315;}
	.st17{fill:#ED2024;}
	.st18{fill:#FFCB0B;}
	.st19{fill:#412312;}
	.st20{fill:#282A73;}
	.st21{fill:#228099;}
	.st22{fill:#0000B2;}
	.st23{fill:#FFCB05;}
	.st24{fill:#EFA803;}
	.st25{fill:#D16502;}
	.st26{fill:#902924;}
	.st27{fill:#B71A25;}
	.st28{fill:#FF0005;}
	.st29{fill:#AD8104;}
	.st30{fill:#FFDB9C;}
	.st31{fill:#FFEDD4;}
	.st32{fill:#D3A100;}
	.st33{fill:#006837;}
	.st34{fill:#ED1C24;}
	.st35{fill:#6D6C73;}
	.st36{fill:#BFBEBE;}
	.st37{fill:#FFF5D9;}
	.st38{fill:#FF5005;}
	.st39{fill:#F26636;}
	.st40{fill:#EC2227;}
	.st41{fill:#2C3A96;}
	.st42{fill:#B72027;}
	.st43{fill:#C89754;}
	.st44{fill:#F19121;}
	.st45{fill:#FDEB07;}
	.st46{fill:#FEC045;}
	.st47{fill:#732644;}
	.st48{fill:#BB1E72;}
	.st49{fill:#AD832D;}
	.st50{fill:#08549E;}
	.st51{fill:#416FB6;}
	.st52{fill:#9A3D21;}
	.st53{fill:#BD4D27;}
</style>
<g id="XMLID_603_">
	<g id="XMLID_1362_">
		<g id="XMLID_1646_">
			<path id="XMLID_441_" class="st38" d="M71.2,12.7c3,6,4.1,13,2.9,19.7c-0.2,0.9-0.3,1.8,0,2.6c0.2,0.5,0.6,0.8,0.8,1.3
				c0.4,0.7,0.5,1.5,0.6,2.3c0.3,3.2,0.6,6.3,0.4,9.5c-0.2,2.5-0.7,5-0.8,7.6c-0.4,5.9,0.9,12-0.1,17.8c-0.4,2.4-1.2,4.7-1.4,7.1
				c-0.2,1.8,0,3.6,0.2,5.4c0.2,2.5,0.4,4.9,0.7,7.4c0.2,2,0.3,4-0.1,5.9c-0.5,1.9-2.9,2.5-2.5,4.5c0.8,3.4,11.9,1.7,18.5,1.7
				c9.4,0,18.7-0.2,28.1-0.5c5.3-0.2,15.5,0.3,14.9-2.1c-0.5-2.2-2.7-3.1-2.7-5.3c0-0.9,0.3-1.8,0.3-2.8c0-1.2-0.5-2.4-0.9-3.5
				c-1.2-3.2-1.8-6.7-1.6-10.1c0.2-4.1,1.4-8.1,1.1-12.1c-0.4-4.6-2.8-9-2.1-13.6c0.1-0.7,0.3-1.4,0.4-2.2c0.1-0.9,0-1.7-0.1-2.6
				c-0.5-5.6-1.1-11.1-1.6-16.7c-0.3-2.9-0.6-5.9,0-8.8c0.4-2.1,1.3-4.1,1.7-6.2c0.7-3.9-0.3-8.2,1.7-11.6
				C117.9,5.6,106,8.8,94.2,8.8c-4,0-8.1-0.3-12.1,0.1c-4,0.4-8,1.4-10.9,4.1"/>
		</g>
		<g id="XMLID_1636_">
			<path id="XMLID_437_" class="st34" d="M69.4,8.7c-0.8-0.9-0.3-2.4,0.6-3.1c0.9-0.7,2.1-0.9,3.3-1c9.7-0.9,19.4-0.4,29.1,0.5
				c1.2,0.1,2.4,0.2,3.5-0.1c0.9-0.3,1.7-0.8,2.6-1.2c0.9-0.3,1.9-0.5,2.8-0.6c5.8-0.7,11.6-1.4,17.4-2c0.2,0,0.5,0,0.7,0.1
				c0.2,0.1,0.3,0.5,0.4,0.7c0.3,1.4,0.4,2.7,0.4,4.1c0,0.4,0,0.8-0.3,1.1c-0.3,0.3-0.7,0.4-1.1,0.4c-4.9,0.6-9.8,0.3-14.7,0.6
				c-4.9,0.3-9.9,1.1-14.1,3.6c-0.5-1.3-2-1.8-3.4-2.1C89,8.5,81.1,9.3,73.9,12c-0.6,0.2-1.2,0.5-1.8,0.4c-1.7-0.1-2.5-2.2-2.9-3.9"
				/>
		</g>
		<g id="XMLID_1622_">
			<path id="XMLID_434_" class="st23" d="M94.3,53.5c1.4-1.7,4.3-1.3,5.8-3c0.4-0.4,0.6-0.9,1-1.3c0.6-0.6,1.4-0.9,2.2-1.2
				c1-0.3,2-0.6,3-0.6s2.1,0.5,2.6,1.4c0.6,1.1,0.2,2.5-0.7,3.4c-0.8,0.9-2,1.4-3.2,1.9c-2.9,1.2-5.9,2.2-9,2.4
				c-0.3,0-0.6,0-0.8-0.1c-0.4-0.1-0.6-0.5-0.8-0.8c-0.3-0.5-0.6-1-0.6-1.6c0-0.6,0.6-1.1,1.2-0.9"/>
		</g>
		<g id="XMLID_1614_">
			<path id="XMLID_432_" class="st23" d="M107.9,58.9c2,0.1,3,2.4,4.9,2.7c0.5,0.1,1,0,1.5,0.1c0.8,0.1,1.4,0.6,1.9,1
				c0.7,0.5,1.4,1.1,1.8,1.9c0.4,0.8,0.6,1.8,0.1,2.6c-0.6,1-1.9,1.4-3,1.2s-2-0.7-2.9-1.3c-2.2-1.5-4.4-3.1-6-5.2
				c-0.1-0.2-0.3-0.4-0.3-0.6c0-0.3,0.1-0.7,0.3-1c0.3-0.5,0.5-1,1-1.2c0.5-0.3,1.2-0.1,1.2,0.4"/>
		</g>
		<g id="XMLID_1606_">
			<path id="XMLID_430_" class="st23" d="M97.1,61.3c-0.2-1-0.3-2.2,0.3-3c0.6-0.9,1.9-1.1,3-1c2.2,0.3,4.2,1.9,5.1,4
				c0.1,0.4,0.3,0.7,0.4,1.1c0.2,0.7,0.4,1.5,0.6,2.2c0.1,0.3,0.2,0.7,0.2,1.1c-0.1,0.8-0.8,1.4-1.6,1.5c-0.8,0.1-1.5-0.1-2.3-0.5
				C100.4,65.6,98.2,63.6,97.1,61.3"/>
		</g>
		<g id="XMLID_1596_">
			<path id="XMLID_428_" class="st23" d="M114.3,51.7c-2.1,0.4-4.2,0.8-6.3,1.2c-0.4,0.1-0.7,0.1-1,0.3c-0.5,0.3-0.9,0.9-0.9,1.5
				c-0.3,2,1.6,3.8,3.6,4.1s4-0.5,5.8-1.4c0.3-0.2,0.6-0.3,0.8-0.7c0.1-0.3,0.1-0.6,0-0.9c-0.5-1.5-1.9-2.7-1.6-4.2"/>
		</g>
		<g id="XMLID_1587_">
			<path id="XMLID_426_" class="st23" d="M91.7,65.1c-0.3-0.8,0.2-1.8,1-2.2c0.8-0.4,1.7-0.4,2.6-0.3c1.6,0.3,3.3,1,4.2,2.4
				c1,1.3,1.2,3.3,0.2,4.6c-0.3,0.5-0.9,0.8-1.4,0.7c-0.3,0-0.5-0.2-0.7-0.4c-0.8-0.6-1.4-1.3-2-2C94.2,66.5,93.5,66,91.7,65.1"/>
		</g>
		<g id="XMLID_1580_">
			<path id="XMLID_424_" class="st23" d="M90,52.3c0.7-0.6,1.8-0.4,2.4,0.2c0.7,0.6,0.9,1.5,1.1,2.4c0.3,1.6,0.1,3.4-0.9,4.8
				c-1,1.4-2.8,2.2-4.3,1.6c-0.5-0.2-1.1-0.6-1.1-1.1c0-0.3,0-0.5,0.1-0.8c0.3-0.9,0.8-1.7,1.3-2.6C89.4,55.1,89.7,54.2,90,52.3"/>
		</g>
		<g id="XMLID_1575_">
			<path id="XMLID_415_" class="st22" d="M90.4,63.4c-0.6-1.9-0.7-3.8-0.7-5.8c0-1.4,0.1-2.8,0.6-4.2c0.8-2.3,2.7-3.9,4.7-5.3
				c3.5-2.4,7.7-3.7,11.9-3.5c1.5,0.1,3,0.1,4.5,0.4c1,0.2,2.1,0.4,3.1,0.7c0.5-0.6-0.2-1.5-0.8-2c-1.3-1.1-2.7-2.2-4.4-2.8
				c-1.4-0.5-3-0.6-4.5-0.7c-2.8-0.1-5.6-0.1-8.2,0.8c-1.7,0.6-3.3,1.7-4.8,2.8c-0.6,0.4-1.2,0.8-1.5,1.5c-0.2,0.5-0.3,1-0.4,1.6
				c-0.2,1.3-0.7,2.6-1.1,4c-0.5,2.1-0.7,4.2-0.8,6.4c0,0.7-0.1,1.4,0,2.2c0.2,1.7,1.3,3.4,2.8,4.2"/>
		</g>
		<g id="XMLID_1557_">
			<path id="XMLID_384_" class="st22" d="M90.6,72.7c2.2,1.3,4.8,1.5,7.4,1.6c1.4,0.1,2.9,0.1,4.3-0.2c1.1-0.2,2.1-0.7,3.1-1.2
				c3.3-1.8,6-4.6,7.6-8c1.6-3.4,2-8.3,1.2-11.9c1.2,0.2,2.1,2.1,2.7,3.1c0.6,1,0.8,2.2,1,3.4c0.7,5.4-0.3,11.1-3.8,15.3
				c-0.6,0.7-1.2,1.4-2,1.9c-1.3,0.9-2.9,1.2-4.5,1.5c-1.3,0.3-2.5,0.5-3.8,0.5c-0.7,0-1.4-0.1-2.1-0.2c-4.2-0.8-8.1-3-11.3-5.8"/>
		</g>
		<g id="XMLID_1415_">
			<path id="XMLID_418_" class="st27" d="M114.2,45.6c2.3,0.4,3.8,2.6,5,4.7c1.6,2.7,3,5.8,2.8,8.9c-0.1,1.8-0.8,3.5-1.5,5.1
				c-0.4,1-0.9,2-1.3,3.1c-0.8,1.8-1.8,4.8-3.6,5.5c0.1-2,0.8-4.8,1.1-6.8c0.4-2.4,0.6-4.9,0.3-7.4c-0.1-1.5-0.4-3.1-1.4-4.4
				c-0.7-1-1.8-1.6-2.9-2.3c-1.7-1.1-3.5-2.2-5.5-2.8c-1.8-0.6-3.8-0.7-5.7-0.8c-2.1-0.1-6.4,0-8.3,1c2.1-2.9,7.8-4.7,11.4-5
				c3.6-0.3,7.2,0.5,10.7,1.3"/>
		</g>
		<g id="XMLID_1369_">
			<path id="XMLID_416_" class="st27" d="M90,45.9c-2.2,2.1-4.8,5.7-5.5,8.7c-0.3,1.1-0.3,2.3-0.4,3.5c-0.1,1.1-0.3,2.3-0.1,3.4
				c0.2,1,0.6,2,0.9,3c0.2,0.7,0.4,1.5,0.6,2.2c0.5,1.4,1.4,2.6,2.3,3.8c0.4,0.6,0.8,1.1,1.4,1.6c2,1.9,5.1,2.3,7.9,2.5
				c2.4,0.1,4.8,0.1,7.1-0.7c2.2-0.8,6-3.2,6.6-5.5c-4.6,2-12.1,1.8-15.9-1.5c-0.9-0.8-1.6-1.6-2.6-2.3c-1.6-1.2-3-1.6-3.8-3.4
				c-0.8-1.8-0.7-4.2-0.1-6.1c0.7-2.3,1.7-6.4,1.6-8.8"/>
		</g>
	</g>
	<g id="XMLID_362_">
		<g id="XMLID_677_">
			<path id="XMLID_414_" class="st38" d="M2.2,12.7c3,6,4.1,13,2.9,19.7c-0.2,0.9-0.3,1.8,0,2.6c0.2,0.5,0.6,0.8,0.8,1.3
				c0.4,0.7,0.5,1.5,0.6,2.3c0.3,3.2,0.6,6.3,0.4,9.5c-0.2,2.5-0.7,5-0.8,7.6C5.7,61.6,7,67.6,6,73.5c-0.4,2.4-1.2,4.7-1.4,7.1
				c-0.2,1.8,0,3.6,0.2,5.4c0.2,2.5,0.4,4.9,0.7,7.4c0.2,2,0.3,4-0.1,5.9c-0.5,1.9-2.9,2.5-2.5,4.5c0.8,3.4,11.9,1.7,18.5,1.7
				c9.4,0,18.7-0.2,28.1-0.5c5.3-0.2,15.5,0.3,14.9-2.1c-0.5-2.2-2.7-3.1-2.7-5.3c0-0.9,0.3-1.8,0.3-2.8c0-1.2-0.5-2.4-0.9-3.5
				c-1.2-3.2-1.8-6.7-1.6-10.1c0.2-4.1,1.4-8.1,1.1-12.1c-0.4-4.6-2.8-9-2.1-13.6c0.1-0.7,0.3-1.4,0.4-2.2c0.1-0.9,0-1.7-0.1-2.6
				c-0.5-5.6-1.1-11.1-1.6-16.7c-0.3-2.9-0.6-5.9,0-8.8c0.4-2.1,1.3-4.1,1.7-6.2c0.7-3.9-0.3-8.2,1.7-11.6C48.9,5.6,37,8.8,25.2,8.8
				c-4,0-8.1-0.3-12.1,0.1s-8,1.4-10.9,4.1"/>
		</g>
		<g id="XMLID_674_">
			<path id="XMLID_410_" class="st34" d="M0.4,8.7C-0.4,7.8,0.1,6.4,1,5.6s2.1-0.9,3.3-1C14,3.8,23.7,4.3,33.3,5.2
				c1.2,0.1,2.4,0.2,3.5-0.1c0.9-0.3,1.7-0.8,2.6-1.2c0.9-0.3,1.9-0.5,2.8-0.6C48,2.6,53.8,2,59.6,1.3c0.2,0,0.5,0,0.7,0.1
				c0.2,0.1,0.3,0.5,0.4,0.7c0.3,1.4,0.4,2.7,0.4,4.1c0,0.4,0,0.8-0.3,1.1c-0.3,0.3-0.7,0.4-1.1,0.4C54.8,8.3,49.9,8,45,8.3
				c-4.9,0.3-9.9,1.1-14.1,3.6c-0.5-1.3-2-1.8-3.4-2.1C20,8.5,12.1,9.3,4.9,12c-0.6,0.2-1.2,0.5-1.8,0.4c-1.7-0.1-2.5-2.2-2.9-3.9"
				/>
		</g>
		<g id="XMLID_671_">
			<path id="XMLID_407_" class="st23" d="M25.3,53.5c1.4-1.7,4.3-1.3,5.8-3c0.4-0.4,0.6-0.9,1-1.3c0.6-0.6,1.4-0.9,2.2-1.2
				c1-0.3,2-0.6,3-0.6s2.1,0.5,2.6,1.4c0.6,1.1,0.2,2.5-0.7,3.4s-2,1.4-3.2,1.9c-2.9,1.2-5.9,2.2-9,2.4c-0.3,0-0.6,0-0.8-0.1
				c-0.4-0.1-0.6-0.5-0.8-0.8c-0.3-0.5-0.6-1-0.6-1.6c0-0.6,0.6-1.1,1.2-0.9"/>
		</g>
		<g id="XMLID_667_">
			<path id="XMLID_404_" class="st23" d="M38.9,58.9c2,0.1,3,2.4,4.9,2.7c0.5,0.1,1,0,1.5,0.1c0.8,0.1,1.4,0.6,1.9,1
				c0.7,0.5,1.4,1.1,1.8,1.9c0.4,0.8,0.6,1.8,0.1,2.6c-0.6,1-1.9,1.4-3,1.2s-2-0.7-2.9-1.3c-2.2-1.5-4.4-3.1-6-5.2
				c-0.1-0.2-0.3-0.4-0.3-0.6c0-0.3,0.1-0.7,0.3-1c0.3-0.5,0.5-1,1-1.2c0.5-0.3,1.2-0.1,1.2,0.4"/>
		</g>
		<g id="XMLID_661_">
			<path id="XMLID_401_" class="st23" d="M28.1,61.3c-0.2-1-0.3-2.2,0.3-3c0.6-0.9,1.9-1.1,3-1c2.2,0.3,4.2,1.9,5.1,4
				c0.1,0.4,0.3,0.7,0.4,1.1c0.2,0.7,0.4,1.5,0.6,2.2c0.1,0.3,0.2,0.7,0.2,1.1c-0.1,0.8-0.8,1.4-1.6,1.5c-0.8,0.1-1.5-0.1-2.3-0.5
				C31.4,65.6,29.2,63.6,28.1,61.3"/>
		</g>
		<g id="XMLID_658_">
			<path id="XMLID_398_" class="st23" d="M45.3,51.7c-2.1,0.4-4.2,0.8-6.3,1.2c-0.4,0.1-0.7,0.1-1,0.3c-0.5,0.3-0.9,0.9-0.9,1.5
				c-0.3,2,1.6,3.8,3.6,4.1s4-0.5,5.8-1.4c0.3-0.2,0.6-0.3,0.8-0.7c0.1-0.3,0.1-0.6,0-0.9c-0.5-1.5-1.9-2.7-1.6-4.2"/>
		</g>
		<g id="XMLID_652_">
			<path id="XMLID_394_" class="st23" d="M22.7,65.1c-0.3-0.8,0.2-1.8,1-2.2c0.8-0.4,1.7-0.4,2.6-0.3c1.6,0.3,3.3,1,4.2,2.4
				c1,1.3,1.2,3.3,0.2,4.6c-0.3,0.5-0.9,0.8-1.4,0.7c-0.3,0-0.5-0.2-0.7-0.4c-0.8-0.6-1.4-1.3-2-2C25.2,66.5,24.5,66,22.7,65.1"/>
		</g>
		<g id="XMLID_645_">
			<path id="XMLID_391_" class="st23" d="M21,52.3c0.7-0.6,1.8-0.4,2.4,0.2s0.9,1.5,1.1,2.4c0.3,1.6,0.1,3.4-0.9,4.8
				c-1,1.4-2.8,2.2-4.3,1.6c-0.5-0.2-1.1-0.6-1.1-1.1c0-0.3,0-0.5,0.1-0.8c0.3-0.9,0.8-1.7,1.3-2.6C20.4,55.1,20.7,54.2,21,52.3"/>
		</g>
		<g id="XMLID_641_">
			<path id="XMLID_381_" class="st22" d="M21.4,63.4c-0.6-1.9-0.7-3.8-0.7-5.8c0-1.4,0.1-2.8,0.6-4.2c0.8-2.3,2.7-3.9,4.7-5.3
				c3.5-2.4,7.7-3.7,11.9-3.5c1.5,0.1,3,0.1,4.5,0.4c1,0.2,2.1,0.4,3.1,0.7c0.5-0.6-0.2-1.5-0.8-2c-1.3-1.1-2.7-2.2-4.4-2.8
				c-1.4-0.5-3-0.6-4.5-0.7c-2.8-0.1-5.6-0.1-8.2,0.8c-1.7,0.6-3.3,1.7-4.8,2.8c-0.6,0.4-1.2,0.8-1.5,1.5c-0.2,0.5-0.3,1-0.4,1.6
				c-0.2,1.3-0.7,2.6-1.1,4c-0.5,2.1-0.7,4.2-0.8,6.4c0,0.7-0.1,1.4,0,2.2c0.2,1.7,1.3,3.4,2.8,4.2"/>
		</g>
		<g id="XMLID_637_">
			<path id="XMLID_377_" class="st22" d="M21.6,72.7c2.2,1.3,4.8,1.5,7.4,1.6c1.4,0.1,2.9,0.1,4.3-0.2c1.1-0.2,2.1-0.7,3.1-1.2
				c3.3-1.8,6-4.6,7.6-8c1.6-3.4,2-8.3,1.2-11.9c1.2,0.2,2.1,2.1,2.7,3.1s0.8,2.2,1,3.4c0.7,5.4-0.3,11.1-3.8,15.3
				c-0.6,0.7-1.2,1.4-2,1.9c-1.3,0.9-2.9,1.2-4.5,1.5c-1.3,0.3-2.5,0.5-3.8,0.5c-0.7,0-1.4-0.1-2.1-0.2c-4.2-0.8-8.1-3-11.3-5.8"/>
		</g>
		<g id="XMLID_364_">
			<path id="XMLID_421_" class="st27" d="M45.2,45.6c2.3,0.4,3.8,2.6,5,4.7c1.6,2.7,3,5.8,2.8,8.9c-0.1,1.8-0.8,3.5-1.5,5.1
				c-0.4,1-0.9,2-1.3,3.1c-0.8,1.8-1.8,4.8-3.6,5.5c0.1-2,0.8-4.8,1.1-6.8c0.4-2.4,0.6-4.9,0.3-7.4c-0.1-1.5-0.4-3.1-1.4-4.4
				c-0.7-1-1.8-1.6-2.9-2.3c-1.7-1.1-3.5-2.2-5.5-2.8c-1.8-0.6-3.8-0.7-5.7-0.8c-2.1-0.1-6.4,0-8.3,1c2.1-2.9,7.8-4.7,11.4-5
				s7.2,0.5,10.7,1.3"/>
		</g>
		<g id="XMLID_363_">
			<path id="XMLID_439_" class="st27" d="M21,45.9c-2.2,2.1-4.8,5.7-5.5,8.7c-0.3,1.1-0.3,2.3-0.4,3.5c-0.1,1.1-0.3,2.3-0.1,3.4
				c0.2,1,0.6,2,0.9,3c0.2,0.7,0.4,1.5,0.6,2.2c0.5,1.4,1.4,2.6,2.3,3.8c0.4,0.6,0.8,1.1,1.4,1.6c2,1.9,5.1,2.3,7.9,2.5
				c2.4,0.1,4.8,0.1,7.1-0.7c2.2-0.8,6-3.2,6.6-5.5c-4.6,2-12.1,1.8-15.9-1.5c-0.9-0.8-1.6-1.6-2.6-2.3c-1.6-1.2-3-1.6-3.8-3.4
				c-0.8-1.8-0.7-4.2-0.1-6.1c0.7-2.3,1.7-6.4,1.6-8.8"/>
		</g>
	</g>
	<g id="XMLID_76_">
		<path id="XMLID_361_" class="st39" d="M39.1,11.5c3,6,4.1,13,2.9,19.7c-0.2,0.9-0.3,1.8,0,2.6c0.2,0.5,0.6,0.8,0.8,1.3
			c0.4,0.7,0.5,1.5,0.6,2.3c0.3,3.2,0.6,6.3,0.4,9.5c-0.2,2.5-0.7,5-0.8,7.6c-0.4,5.9,0.9,12-0.1,17.8c-0.4,2.4-1.2,4.7-1.4,7.1
			c-0.2,1.8,0,3.6,0.2,5.4c0.2,2.5,0.4,4.9,0.7,7.4c0.2,2,0.4,4-0.1,5.9s-2.9,2.5-2.5,4.5c0.8,3.4,11.9,1.7,18.5,1.7
			c9.4,0,18.7-0.2,28.1-0.5c5.3-0.2,15.5,0.3,14.9-2.1c-0.5-2.2-2.7-3.1-2.7-5.3c0-0.9,0.3-1.8,0.3-2.8c0-1.2-0.5-2.4-0.9-3.5
			c-1.2-3.2-1.8-6.7-1.6-10.1c0.2-4.1,1.4-8.1,1.1-12.1c-0.4-4.6-2.8-9-2.1-13.6c0.1-0.7,0.3-1.4,0.4-2.2c0.1-0.9,0-1.7-0.1-2.6
			C95,44,94.5,38.4,93.9,32.9c-0.3-2.9-0.6-5.9,0-8.8c0.4-2.1,1.3-4.1,1.7-6.2c0.7-3.9-0.3-8.2,1.7-11.6C85.7,4.3,73.9,7.5,62.1,7.6
			C58,7.6,54,7.3,50,7.7C46,8.1,42,9,39,11.8"/>
		<path id="XMLID_360_" class="st40" d="M37.2,7.5c-0.8-0.9-0.3-2.4,0.6-3.1c0.9-0.7,2.1-0.9,3.3-1C50.8,2.5,60.5,3,70.2,4
			c1.2,0.1,2.4,0.2,3.5-0.1c0.9-0.3,1.7-0.8,2.6-1.2c0.9-0.3,1.9-0.5,2.8-0.6c5.8-0.7,11.6-1.4,17.4-2c0.2,0,0.5,0,0.7,0.1
			c0.3,0.1,0.3,0.5,0.4,0.7c0.3,1.4,0.4,2.7,0.4,4.1c0,0.4,0,0.8-0.3,1.1c-0.3,0.3-0.7,0.4-1.1,0.4C91.6,7,86.7,6.8,81.8,7.1
			c-4.9,0.3-9.9,1.1-14.1,3.6c-0.5-1.3-2-1.8-3.4-2.1C56.8,7.3,48.9,8,41.8,10.7c-0.6,0.2-1.2,0.5-1.8,0.4c-1.7-0.1-2.5-2.2-2.9-3.9
			"/>
		<path id="XMLID_359_" class="st18" d="M62.2,52.3c1.4-1.7,4.3-1.3,5.8-3c0.4-0.4,0.6-0.9,1-1.3c0.6-0.6,1.4-0.9,2.2-1.2
			c1-0.3,2-0.7,3-0.6c1,0,2.1,0.5,2.6,1.4c0.6,1.1,0.2,2.5-0.7,3.4c-0.8,0.9-2,1.4-3.2,1.9c-2.9,1.2-5.9,2.2-9,2.4
			c-0.3,0-0.6,0-0.8-0.1c-0.4-0.1-0.6-0.5-0.8-0.8c-0.3-0.5-0.6-1-0.6-1.6c0-0.6,0.6-1.1,1.2-0.9"/>
		<path id="XMLID_358_" class="st18" d="M75.8,57.6c2,0.1,3,2.4,4.9,2.7c0.5,0.1,1,0,1.5,0.1c0.8,0.1,1.4,0.6,1.9,1
			c0.7,0.5,1.4,1.1,1.8,1.9c0.4,0.8,0.6,1.8,0.1,2.6c-0.6,1-1.9,1.4-3,1.2c-1.1-0.2-2-0.7-2.9-1.3c-2.2-1.5-4.4-3.1-6-5.2
			c-0.1-0.2-0.3-0.4-0.3-0.6c0-0.3,0.1-0.7,0.3-1c0.3-0.5,0.5-1,1-1.2c0.5-0.3,1.2-0.1,1.2,0.4"/>
		<path id="XMLID_356_" class="st18" d="M64.9,60c-0.2-1-0.3-2.2,0.3-3c0.6-0.9,1.9-1.1,3-1c2.2,0.3,4.2,1.9,5.1,4
			c0.1,0.4,0.3,0.7,0.4,1.1l0.7,2.2c0.1,0.3,0.2,0.7,0.2,1.1c-0.1,0.8-0.8,1.4-1.6,1.5c-0.8,0.1-1.5-0.1-2.3-0.5
			C68.3,64.3,66,62.3,64.9,60"/>
		<path id="XMLID_353_" class="st18" d="M82.1,50.5c-2.1,0.4-4.2,0.8-6.3,1.2c-0.4,0.1-0.7,0.1-1,0.3c-0.5,0.3-0.9,0.9-0.9,1.5
			c-0.3,2,1.6,3.8,3.6,4.1c2,0.3,4-0.5,5.8-1.4c0.3-0.2,0.6-0.3,0.8-0.7c0.1-0.3,0.1-0.6,0-0.9c-0.5-1.5-1.9-2.7-1.6-4.2"/>
		<path id="XMLID_351_" class="st18" d="M59.6,63.8c-0.3-0.8,0.2-1.8,1-2.2c0.8-0.4,1.7-0.4,2.6-0.3c1.6,0.3,3.3,1,4.2,2.4
			c1,1.3,1.2,3.3,0.2,4.6c-0.3,0.5-0.9,0.8-1.4,0.7c-0.3-0.1-0.5-0.2-0.7-0.4c-0.8-0.6-1.4-1.3-2-2C62,65.3,61.3,64.7,59.6,63.8"/>
		<path id="XMLID_324_" class="st18" d="M57.8,51c0.7-0.6,1.8-0.4,2.4,0.2c0.7,0.6,0.9,1.5,1.1,2.4c0.3,1.6,0.1,3.4-0.9,4.8
			c-1,1.4-2.8,2.2-4.3,1.6c-0.5-0.2-1.1-0.6-1.1-1.1c0-0.3,0-0.5,0.1-0.8c0.3-0.9,0.8-1.7,1.3-2.6C57.3,53.8,57.6,53,57.8,51"/>
		<path id="XMLID_322_" class="st41" d="M58.2,62.1c-0.6-1.9-0.7-3.8-0.7-5.8c0-1.4,0.1-2.8,0.6-4.2c0.8-2.3,2.7-3.9,4.7-5.3
			c3.5-2.4,7.7-3.7,11.9-3.5c1.5,0.1,3,0.1,4.5,0.4l3.1,0.7c0.5-0.6-0.2-1.5-0.8-2c-1.3-1.1-2.7-2.2-4.4-2.8c-1.4-0.5-3-0.6-4.5-0.7
			c-2.8-0.1-5.6-0.1-8.2,0.8c-1.7,0.6-3.3,1.7-4.8,2.8c-0.6,0.4-1.2,0.8-1.5,1.5c-0.2,0.5-0.3,1-0.4,1.5c-0.2,1.3-0.7,2.6-1.1,4
			c-0.5,2.1-0.7,4.2-0.8,6.4c0,0.7-0.1,1.4,0,2.2c0.2,1.8,1.3,3.4,2.8,4.2"/>
		<path id="XMLID_297_" class="st41" d="M58.4,71.5c2.2,1.3,4.8,1.5,7.4,1.6c1.4,0.1,2.9,0.1,4.3-0.2c1.1-0.2,2.1-0.7,3.1-1.2
			c3.3-1.8,6-4.6,7.6-8c1.6-3.4,2-8.3,1.3-11.9c1.2,0.2,2.1,2.1,2.7,3.1c0.6,1,0.8,2.2,1,3.4c0.7,5.4-0.3,11.1-3.8,15.3
			c-0.6,0.7-1.2,1.4-2,1.9c-1.3,0.9-2.9,1.2-4.5,1.5c-1.3,0.3-2.5,0.5-3.8,0.5c-0.7,0-1.4-0.1-2.1-0.2c-4.2-0.8-8.1-3-11.3-5.8"/>
		<path id="XMLID_365_" class="st42" d="M82,44.4c2.3,0.4,3.8,2.6,5,4.7c1.6,2.7,3,5.8,2.8,8.9c-0.1,1.8-0.8,3.5-1.5,5.1
			c-0.4,1-0.9,2-1.3,3.1c-0.8,1.8-1.8,4.8-3.6,5.5c0.1-2,0.8-4.8,1.1-6.8c0.4-2.4,0.6-4.9,0.3-7.4c-0.1-1.5-0.4-3.1-1.4-4.4
			c-0.7-1-1.8-1.6-2.9-2.3c-1.8-1.1-3.5-2.2-5.5-2.8c-1.8-0.6-3.8-0.7-5.7-0.8c-2.1-0.1-6.4,0-8.3,1c2.1-2.9,7.8-4.7,11.4-5
			c3.6-0.3,7.2,0.5,10.7,1.3"/>
		<path id="XMLID_489_" class="st42" d="M57.8,44.7c-2.2,2.1-4.8,5.7-5.5,8.7c-0.3,1.1-0.3,2.3-0.4,3.5c-0.1,1.1-0.3,2.3-0.1,3.4
			c0.2,1,0.6,2,0.9,3c0.2,0.7,0.4,1.5,0.6,2.2c0.5,1.4,1.4,2.6,2.3,3.8c0.4,0.6,0.8,1.1,1.4,1.6c2,1.9,5.1,2.3,7.9,2.5
			c2.4,0.1,4.8,0.1,7.1-0.7c2.2-0.8,6-3.2,6.6-5.5c-4.6,2-12.1,1.8-15.9-1.5c-0.9-0.8-1.6-1.6-2.6-2.3c-1.6-1.2-3-1.6-3.8-3.4
			c-0.8-1.8-0.7-4.2-0.1-6.1c0.7-2.3,1.7-6.4,1.6-8.8"/>
	</g>
</g>
</svg>
