<?xml version="1.0" encoding="utf-8"?>
<!-- Generator: Adobe Illustrator 18.1.0, SVG Export Plug-In . SVG Version: 6.00 Build 0)  -->
<svg version="1.1" id="Layer_1" xmlns="http://www.w3.org/2000/svg" xmlns:xlink="http://www.w3.org/1999/xlink" x="0px" y="0px"
	 viewBox="0 0 129.9 92.8" style="enable-background:new 0 0 129.9 92.8;" xml:space="preserve">
<style type="text/css">
	.st0{fill:#FFFFFF;}
	.st1{fill:#0071FC;}
	.st2{fill:none;stroke:#001D2D;stroke-width:2;stroke-linecap:round;stroke-linejoin:round;stroke-miterlimit:10;}
	.st3{fill:#F4D49D;}
	.st4{fill:#44612D;}
	.st5{fill:#9BC53D;}
	.st6{fill:#CDCED0;}
	.st7{fill:#E7E9E6;}
	.st8{fill:#C9A877;}
	.st9{fill:#D2A12A;}
	.st10{fill:#EEA820;}
	.st11{fill:#6E1F3F;}
	.st12{fill:#2AAAE2;}
	.st13{fill:#25809A;}
	.st14{fill:#F48CA3;}
	.st15{fill:#BD294C;}
	.st16{fill:#6B3315;}
	.st17{fill:#ED2024;}
	.st18{fill:#FFCB0B;}
	.st19{fill:#412312;}
	.st20{fill:#282A73;}
	.st21{fill:#228099;}
	.st22{fill:#0000B2;}
	.st23{fill:#FFCB05;}
	.st24{fill:#EFA803;}
	.st25{fill:#D16502;}
	.st26{fill:#902924;}
	.st27{fill:#B71A25;}
	.st28{fill:#FF0005;}
	.st29{fill:#AD8104;}
	.st30{fill:#FFDB9C;}
	.st31{fill:#FFEDD4;}
	.st32{fill:#D3A100;}
	.st33{fill:#006837;}
	.st34{fill:#ED1C24;}
	.st35{fill:#6D6C73;}
	.st36{fill:#BFBEBE;}
	.st37{fill:#FFF5D9;}
	.st38{fill:#FF5005;}
	.st39{fill:#F26636;}
	.st40{fill:#EC2227;}
	.st41{fill:#2C3A96;}
	.st42{fill:#B72027;}
	.st43{fill:#C89754;}
	.st44{fill:#F19121;}
	.st45{fill:#FDEB07;}
	.st46{fill:#FEC045;}
	.st47{fill:#732644;}
	.st48{fill:#BB1E72;}
	.st49{fill:#AD832D;}
	.st50{fill:#08549E;}
	.st51{fill:#416FB6;}
	.st52{fill:#9A3D21;}
	.st53{fill:#BD4D27;}
</style>
<g id="גבינה">
	<g id="XMLID_11874_">
		<path id="XMLID_23_" class="st0" d="M12.5,12.4c0.6,16.7,2.1,35.7,1.1,52.3c-0.1,1.8-0.2,3.6,0.4,5.2c0.7,1.6,2.3,3,4.1,2.7
			c-0.1,4.4-0.3,8.7-0.4,13.1c0,1.1,0,2.2,0.6,3.1c0.9,1.3,2.6,1.5,4.2,1.6c23.4,1.8,46.8,2.5,70.2,2c4.1-0.1,8.3-0.2,12.2-1.4
			c2.1-0.7,4.2-1.7,5.3-3.7c0.6-1.1,0.8-2.5,0.9-3.8c0.2-2.7,0.2-5.4,0-8.1c-0.1-1.5-0.4-3,0-4.4c0.4-1.4,1.5-2.8,3-2.9
			c0.8-0.1,1.8,0.2,2.4-0.4c0.2-0.3,0.3-0.7,0.3-1.1c0.3-3.6,0.1-7.3-0.6-10.8c-0.6-2.8-1.5-5.6-1.8-8.4c-0.4-2.9-0.2-5.8,0-8.6
			c0.3-6.4,0.4-12.8,0.4-19.2c0-2,0.8-6.2-0.7-7.4c-1.3-1-4.4-0.5-6-0.8C78,7,51.4,12.8,23,13c-3.5,0-6.9-2.5-10.1-1.1"/>
	</g>
	<g id="XMLID_11872_">
		<path id="XMLID_21_" class="st1" d="M12.4,20c33.2-1.8,66.6-1.9,99.8-0.5c0.7,0,1.5,0.1,2.1,0.5c0.9,0.6,1.1,1.8,1.2,2.9
			c0.9,8.7-0.1,17.4,0.6,26.1c0.4,5.4-0.2,7.3,0.6,11.4c0.2,0.8,0.1,4.8,0.2,5.7c0.4,3.6-3.3,4.9-5.1,5.3c-10.5,2-19.7,1.4-30.4,1.1
			c-21.4-0.6-38.4,3.2-59.8,1.5c-0.7-0.1-2.7-0.8-3.4-0.8c-6.8,0-6.9-5.9-6.9-6.8c-0.3-9.6-0.4-12.8-0.1-15.6
			C12.8,38,13,32.5,12.6,19.8"/>
	</g>
	<g id="XMLID_11865_">
		<g id="XMLID_11868_">
			<path id="XMLID_19_" class="st0" d="M7.1,7.9C7,5,9.3,2.3,12,1.2S17.8,0,20.8,0c29,0,58.1,0.1,87.1,0.1c2.8,0,5.7,0,8.4,0.9
				c2.7,0.9,5.2,2.8,6,5.5C97.3,9.5,72,9.6,47,6.8C36.6,5.6,23.7,6.9,13.2,6.4C10.2,6.3,10,9,7.6,7.7"/>
		</g>
		<g id="XMLID_11867_">
			<path id="XMLID_17_" class="st1" d="M1.8,13.3c42,0.3,84,0.6,126,0.8c5.4-0.2-0.2-8.5-7.2-8.4C75.6,7.1,65.3,5.6,28.4,5.6
				c-9.3,0-19.5-1.4-26.9,4.2c-0.6,0.5-1.3,1.1-1.5,1.9s0.4,1.8,1.2,1.7"/>
		</g>
	</g>
	<g id="XMLID_11863_">
		<g id="XMLID_12_">
			<path id="XMLID_4_" class="st0" d="M54.6,35.9c6.3-1.1,12.8-1.3,19.1-0.3c2.6,0.4,5.2,1,7.8,1.7c1.3,0.4,3,0.7,4.2,1.4
				c1.7,1,1.5,0.5,2,2.4c3.8,13.5-9.6,15.9-19.4,16.3C63,57.5,56.4,57.7,52,54.2c-3.8-3-1.8-6.8,2.2-8.3c2.8-1,5.8-1.1,8.7-1.4
				c3.1-0.2,6.1-0.5,9.2-0.7c1.7-0.1,12.4,0.3,6.4,3.8c-2.2,1.3-6.1,1.1-8.6,1.2c-3.7,0.1-7.3-0.2-10.9-1c0.7,1.8,1.5,3.6,2.2,5.4
				c3-4.7,7.5-4.6,12.3-2.9c4.4,1.6,6.4-5.5,1.9-7.1c-8-2.9-15.8-1.2-20.6,6.2c-1.2,1.9-0.1,4.9,2.2,5.4c7.8,1.6,17.2,2.3,24.8-0.7
				c5.8-2.3,8-8.6,4-13.6c-4.9-6.3-14.3-4.1-21.1-3.6c-6.9,0.6-15.1,0.6-19.8,6.6C40.6,49.2,42.2,56,47.5,60
				c6,4.6,14.3,4.9,21.6,4.6c6.2-0.3,12.9-0.8,18.3-4.1c6.1-3.7,8.1-10.2,7.8-17.1c-0.1-3.3-0.2-7-2.7-9.4
				c-2.9-2.7-7.9-3.7-11.6-4.6c-9.3-2.3-18.8-2.4-28.2-0.7C48,29.6,49.9,36.7,54.6,35.9L54.6,35.9z"/>
		</g>
	</g>
</g>
</svg>
