<?xml version="1.0" encoding="utf-8"?>
<!-- Generator: Adobe Illustrator 18.1.0, SVG Export Plug-In . SVG Version: 6.00 Build 0)  -->
<svg version="1.1" id="Layer_1" xmlns="http://www.w3.org/2000/svg" xmlns:xlink="http://www.w3.org/1999/xlink" x="0px" y="0px"
	 viewBox="0 0 130.8 89.4" style="enable-background:new 0 0 130.8 89.4;" xml:space="preserve">
<style type="text/css">
	.st0{fill:#FFFFFF;}
	.st1{fill:#0071FC;}
	.st2{fill:none;stroke:#001D2D;stroke-width:2;stroke-linecap:round;stroke-linejoin:round;stroke-miterlimit:10;}
	.st3{fill:#F4D49D;}
	.st4{fill:#44612D;}
	.st5{fill:#9BC53D;}
	.st6{fill:#CDCED0;}
	.st7{fill:#E7E9E6;}
	.st8{fill:#C9A877;}
	.st9{fill:#D2A12A;}
	.st10{fill:#EEA820;}
	.st11{fill:#6E1F3F;}
	.st12{fill:#2AAAE2;}
	.st13{fill:#25809A;}
	.st14{fill:#F48CA3;}
	.st15{fill:#BD294C;}
	.st16{fill:#6B3315;}
	.st17{fill:#ED2024;}
	.st18{fill:#FFCB0B;}
	.st19{fill:#412312;}
	.st20{fill:#282A73;}
	.st21{fill:#228099;}
	.st22{fill:#0000B2;}
	.st23{fill:#FFCB05;}
	.st24{fill:#EFA803;}
	.st25{fill:#D16502;}
	.st26{fill:#902924;}
	.st27{fill:#B71A25;}
	.st28{fill:#FF0005;}
	.st29{fill:#AD8104;}
	.st30{fill:#FFDB9C;}
	.st31{fill:#FFEDD4;}
	.st32{fill:#D3A100;}
	.st33{fill:#006837;}
	.st34{fill:#ED1C24;}
	.st35{fill:#6D6C73;}
	.st36{fill:#BFBEBE;}
	.st37{fill:#FFF5D9;}
	.st38{fill:#FF5005;}
	.st39{fill:#F26636;}
	.st40{fill:#EC2227;}
	.st41{fill:#2C3A96;}
	.st42{fill:#B72027;}
	.st43{fill:#C89754;}
	.st44{fill:#F19121;}
	.st45{fill:#FDEB07;}
	.st46{fill:#FEC045;}
	.st47{fill:#732644;}
	.st48{fill:#BB1E72;}
	.st49{fill:#AD832D;}
	.st50{fill:#08549E;}
	.st51{fill:#416FB6;}
	.st52{fill:#9A3D21;}
	.st53{fill:#BD4D27;}
</style>
<g id="XMLID_627_">
	<g id="_x2B__8_">
		<line id="XMLID_523_" class="st2" x1="84.4" y1="59.7" x2="68.4" y2="59.7"/>
		<line id="XMLID_522_" class="st2" x1="76.4" y1="67.7" x2="76.4" y2="51.7"/>
	</g>
	<g id="XMLID_507_">
		<path id="XMLID_521_" class="st44" d="M5.6,4.1c-0.1,9.4,1.3,16.3,0.3,25.6c-0.4,3.7-1.1,7.4-1.5,11.1C4,44.4,3.8,48,4,51.6
			c1.8,25.5,0,24.7,0.1,37c-0.6-2-2.3-3.1-3.3-4.8c-1.4-2.6-0.7-5.9-0.3-8.9C1,71.2,1,67.5,1,63.8c0.1-21-0.4-37.5-1-58.5
			c1.7-0.1,4-2,5.7-1.8"/>
		<path id="XMLID_520_" class="st45" d="M4.6,3.3C24.3,4,44.9,2.7,64.5,4.1c0.3,0-0.3-0.2,0,0c0.7,0.5,0.5,1.4,0.3,2.2
			c-1.9,7-0.9,14.3-0.9,21.6c0,17.2-4.3,37.3-3.3,54.4c0,0.5,0,1-0.3,1.3c-0.2,0.3-0.6,0.3-1,0.4c-7.6,1.5-13.9,0.7-23.9,1.3
			c-2.9,0.2-5.8,1.1-8.7,1.3c-5,0.3-9.3,1-14.4,2c-2,0.4-5.8,1.5-7.8,0.4c-1.4-0.8-0.8-1.8-0.6-3.4c0.1-1.7,0.3-3.4,0.3-5.2
			c0.4-7-0.2-11.6-0.7-18.6c-0.2-3.8-0.1-10,0-13.8c0-2.6,0.3-5.2,0.5-7.8C4.7,33,5.4,25.7,6,18.5c0.2-2.6-0.6-5.3-0.7-7.9
			C5.3,7.1,5.6,6.5,4.4,3.2"/>
		<path id="XMLID_519_" class="st0" d="M64.7,6.4c-0.4,5.6-1,11.4-4.1,16c-2.5,3.7-6.3,6.2-9.9,8.8c-3.6,2.6-7.2,5.7-8.7,9.8
			c-1.1,2.9-1.1,6.1-1,9.2c0,0.6,0,1.3,0.5,1.8c0.8,0.9,2.3,0.1,3.1-0.8c0.8-0.9,1.5-2.1,2.8-2.2c0.1,1.5-0.3,2.9-1.1,4.2
			c1.7,0.9,1.7,3.4,0.8,5.1c-1.1,2.2-3.2,3.7-5.5,4.6c-2.3,0.8-4.8,1-7.2,1c-0.5,0-1,0-1.5-0.2c-0.4-0.2-0.7-0.5-1.1-0.8
			c-0.8-0.7-1.6-1.4-2.4-2.1c-0.7-0.7-1.5-1.4-2.1-2.2c-1.2-1.9-1.3-4.2-1.3-6.4c0.4-0.7,1.5-0.5,2.1,0.1c0.6,0.5,1,1.3,1.8,1.6
			c1.2,0.4,2.4-0.6,3.7-0.7c0.3,0,0.7,0,1-0.1c0.5-0.2,0.7-0.7,0.9-1.1c0.9-2.2,1.9-4.3,2.2-6.7c0.3-2.3,0-4.8-1.4-6.7
			c-1-1.3-2.4-2.3-3.9-3.2c-3.3-2.1-6.6-4.2-9.9-6.2c-2.6-1.6-5.3-3.3-7.4-5.6c-1.5-1.7-2.7-3.6-4.3-5.2c-1.8-1.7-4.1-3-5-5.2
			c-0.5-1.2-0.6-2.6-0.6-4c0-2.5-0.7-3.2-0.7-5.7c0-0.3,0.7,0.2,1,0c0.1-0.1,0.3-0.1,0.5-0.1c17.7-0.8,35.4-2.2,53.1-1
			c1.7,0.1,4.4,0.7,5.5,1.9c0.8,0.9,0.1,1.8,0.1,3c0.2,3.1-0.2,6.2-1,9.2"/>
		<path id="XMLID_518_" class="st46" d="M51.1,50.9c1.5-2.3,3.2-4.7,5.8-5.6c0.5-0.2,1-0.3,1.5-0.1c1,0.3,1.4,1.6,1.5,2.7
			c0.1,1.5,0,3.2-0.8,4.5c-0.8,1.3-2.5,2.2-3.9,1.6c-0.7-0.3-1.2-0.8-1.8-1.1c-0.5-0.3-1-0.4-1.5-0.7c-0.5-0.3-0.9-0.8-0.8-1.4"/>
		<path id="XMLID_517_" class="st46" d="M8,55.1c1,0,1.7-1,2.6-1.5c1.1-0.6,2.5-0.3,3.8,0.1c0.8,0.2,1.6,0.5,2.2,1
			c1.1,0.8,1.6,2.2,2.1,3.5c0.1,0.2,0.2,0.5,0.1,0.7c-0.1,0.4-0.5,0.6-0.9,0.7c-1.1,0.4-2.3,0.6-3.5,0.7c-1.5,0-3-0.3-4.3-1.1
			C9,58.4,8,57.1,7.9,55.6c0-0.4,0.2-0.9,0.5-0.8"/>
		<path id="XMLID_516_" class="st46" d="M13.7,80.1c0.8-1,1.1-1.8,1.4-3.1c0.5-1.8,1.4-3.5,2.9-4.7c1.5-1.1,3.6-1.6,5.3-0.8
			c0.5,0.2,0.9,0.6,1.2,1c0.3,0.6,0.3,1.3,0.2,1.9c-0.1,1.1-0.2,2.3-0.9,3.2c-0.3,0.4-0.8,0.7-1.2,1c-1.3,0.9-2.7,1.7-4.2,2.1
			c-1.5,0.4-3.2,0.4-4.6-0.3C13.7,80.4,13.5,80.1,13.7,80.1"/>
		<path id="XMLID_515_" class="st46" d="M48.2,73.5c0-1.4,1.3-2.5,2.5-3.3c0.8-0.6,1.6-1.1,2.4-1.7c0.1-0.1,0.3-0.2,0.4-0.2
			c0.1,0,0.2,0.1,0.4,0.2c0.7,0.5,1.3,1,1.5,1.8c0.2,0.6,0.1,1.2,0,1.7c-0.5,2.1-2.1,3.9-4.1,4.7C51,77,50.6,77.1,50.2,77
			c-0.4-0.1-0.7-0.3-1-0.6c-0.5-0.4-0.9-0.8-1.2-1.3c-0.3-0.5-0.4-1.2-0.1-1.7c0.3-0.5,0.9-0.8,1-1.3"/>
		<path id="XMLID_514_" class="st46" d="M43,64.3c-0.9-0.4-1.9,0-2.6,0.7s-1.1,1.5-1.5,2.4c-0.3,0.6-0.6,1.3-0.4,2
			c0.2,0.7,0.8,1.2,1.5,1.4c0.7,0.2,1.4,0.2,2.1,0.1c0.4,0,0.8,0,1.1-0.2c0.3-0.2,0.4-0.4,0.6-0.7c0.7-0.8,1.7-1.4,1.9-2.5
			c0.1-0.7-0.3-1.4-0.7-2.1c-0.2-0.4-0.5-0.8-0.9-1c-0.4-0.2-0.9-0.3-1.2,0.1"/>
		<path id="XMLID_513_" class="st46" d="M48.7,60.7c0.3-1.1,0.5-2.3,0.8-3.4c0.1-0.2,0.1-0.5,0.3-0.7c0.2-0.2,0.4-0.3,0.7-0.3
			c1.1-0.3,2.2-0.6,3.3-0.8c0.1,0,0.2-0.1,0.3,0c0.1,0,0.1,0.1,0.2,0.2c0.7,1.5,0.8,3.2,0.3,4.8c-0.2,0.6-0.4,1.2-0.9,1.5
			c-0.4,0.3-0.9,0.5-1.4,0.6c-1.1,0.3-2.5,0.5-3.1-0.4c-0.4-0.5-0.3-1.2-0.3-1.9"/>
		<path id="XMLID_512_" class="st46" d="M17,64.9c1.1,0.6,2.5,0.5,3.6,0.1c1.2-0.5,2.1-1.3,3-2.2c0.4-0.4,0.7-0.8,0.9-1.3
			c0.2-0.5,0.2-1.1-0.1-1.5c-0.3-0.5-0.9-0.6-1.5-0.7c-1.5-0.2-3-0.2-4.4,0.4c-1.4,0.6-2.5,1.7-2.9,3.2c-0.1,0.2-0.1,0.5,0.1,0.6
			c0.1,0.1,0.3,0.2,0.4,0.2c1.2,0.4-0.1,0.9,1.1,1.3"/>
		<path id="XMLID_511_" class="st46" d="M32.8,72.5c-0.6,0.4-1.4,0.2-2-0.2c-0.6-0.4-0.9-1-1.3-1.6c-0.3-0.5-0.5-1-0.5-1.5
			c0.1-1.1,1.3-1.7,2.4-1.9c1-0.2,2.1-0.2,3.1,0.1c1,0.4,1.8,1.1,2.2,2.1c0.2,0.6,0.2,1.2,0.2,1.8c0,0.2,0,0.5-0.1,0.6
			c-0.1,0.1-0.3,0.2-0.5,0.3c-1.3,0.4-2.6,0.6-3.9,0.5"/>
		<path id="XMLID_510_" class="st46" d="M28.7,76.9c0.1-1.6,1.6-2.9,3.2-3c0.3,0,0.6,0,0.8,0.2c0.2,0.1,0.3,0.4,0.4,0.6
			c0.2,0.4,0.3,0.7,0.5,1.1c0.1,0.3,0.2,0.6,0.2,0.8c-0.1,0.4-0.5,0.7-0.9,0.9c-1.3,0.6-2.7,0.9-4.1,0.8c-0.2,0-0.4,0-0.6-0.2
			c-0.2-0.2-0.2-0.5-0.1-0.8c0.2-0.6,0.5-1.2,0.9-1.6"/>
		<path id="XMLID_509_" class="st46" d="M27.3,49c0-0.5,0.1-1.1-0.1-1.6c-0.1-0.5-0.5-1-1-1.2c-0.8-0.3-1.7,0.3-2.2,0.9
			c-0.6,0.8-1,1.9-0.4,2.7c0.5,0.7,1.6,0.8,2.4,0.6c0.5-0.1,1.1-0.4,1.3-0.9c0.2-0.5-0.4-1.2-0.9-0.9"/>
		<path id="XMLID_508_" class="st46" d="M18.7,51.8c0.8-0.3,1.5-0.1,2.2,0.5c0.2,0.2,0.4,0.5,0.5,0.8c0.6,1.4,1.3,2.8,1.9,4.2
			c0.1,0.1,0.1,0.3,0.1,0.4c0,0.1-0.1,0.2-0.2,0.2c-0.8,0.3-1.7-0.2-2.5-0.7c-0.9-0.6-1.9-1.3-2.4-2.3
			C17.8,53.9,17.8,52.5,18.7,51.8"/>
	</g>
	<g id="XMLID_503_">
		<path id="XMLID_506_" class="st12" d="M91.9,19.8c0.3-4.4-0.2-0.7,1.9-2c2.1-1.3,4.7-1.3,7.1-1.2c9.3,0.4,19.7,1,29,1.3
			c1.6,5.3,0.6,10.6,0.6,16.1c0,15.1-0.4,30.3-0.8,45.4c-0.1,2.7-0.5,6-2.9,7.3c-1.1,0.6-2.4,0.6-3.6,0.6
			c-9.4,0.1-18.8,0.3-28.1,0.4c-0.6,0-1.3,0-1.8-0.4c-0.4-0.4-0.6-1-0.6-1.6c-1.4-10.1-1.3-20-1-30.2c0.3-10.8,0.3-24.7,0.7-35.1"/>
		<path id="XMLID_505_" class="st12" d="M126.7,8.4c0-2.3,0-4.5,0-6.8c0-0.3,0-0.7-0.2-1c-0.3-0.6-1.1-0.6-1.7-0.6
			C115.9,0,107,0,98,0c-0.8,0-1.8,0.1-2.2,0.8c-0.2,0.4-0.2,0.9-0.2,1.4c0,1.8,0,3.6,0.1,5.4c0,0.2,0,0.5,0.2,0.7
			c0.2,0.2,0.5,0.3,0.7,0.3c9.4,1.1,19,1.4,28.4,0.8C126,9.3,127,9.4,126.7,8.4"/>
		<path id="XMLID_504_" class="st13" d="M95.4,7.9c-2,3.1-3.2,6.7-3.5,10.4c-0.1,0.7-0.1,1.5,0.3,2c0.5,0.7,1.5,0.8,2.3,0.8
			c7,0,13.9,0,20.9,0c4.5,0,9,0,13.5-0.8c0.4-0.1,0.9-0.2,1.2-0.6c0.2-0.3,0.2-0.7,0.1-1c-0.2-3.4-1.2-6.8-2.8-9.7
			c-0.4-0.7-0.8-1.4-1.5-1.8c-0.7-0.4-1.5-0.4-2.3-0.4c-8.4,0-16.8,0-25.1,0c-1,0-1.3,0.3-2.3,0.7"/>
		<path id="XMLID_524_" class="st6" d="M114.8,10.4c-0.2,2,0.2,3.9-0.1,4.6c-0.3,0.7-5.1,0.6-7.4,0.6c-1.2,0-1.1-0.7-1.1-0.8
			c-0.1-1.4-0.2-3.3,0-4.7"/>
		<path id="XMLID_525_" class="st7" d="M108.2,8.8c1.1,0,2.2-0.1,3.3-0.1c0.6,0,1.2,0,1.7,0.2s1.3,0.6,1.5,1.1
			c0.3,1,0.1,1.8-0.4,2.1c-0.6,0.3-2.1,0.4-2.7,0.4c-0.9,0-1.5,0-2.4,0.1c-0.5,0-1.3,0-1.8,0c-1.4,0-2-2.3-0.9-3.1
			C106.8,9,107,8.8,108.2,8.8"/>
	</g>
</g>
</svg>
