<?xml version="1.0" encoding="utf-8"?>
<!-- Generator: Adobe Illustrator 18.1.0, SVG Export Plug-In . SVG Version: 6.00 Build 0)  -->
<svg version="1.1" id="Layer_1" xmlns="http://www.w3.org/2000/svg" xmlns:xlink="http://www.w3.org/1999/xlink" x="0px" y="0px"
	 viewBox="0 0 103.2 85.8" style="enable-background:new 0 0 103.2 85.8;" xml:space="preserve">
<style type="text/css">
	.st0{fill:#FFFFFF;}
	.st1{fill:#0071FC;}
	.st2{fill:none;stroke:#001D2D;stroke-width:2;stroke-linecap:round;stroke-linejoin:round;stroke-miterlimit:10;}
	.st3{fill:#F4D49D;}
	.st4{fill:#44612D;}
	.st5{fill:#9BC53D;}
	.st6{fill:#CDCED0;}
	.st7{fill:#E7E9E6;}
	.st8{fill:#C9A877;}
	.st9{fill:#D2A12A;}
	.st10{fill:#EEA820;}
	.st11{fill:#6E1F3F;}
	.st12{fill:#2AAAE2;}
	.st13{fill:#25809A;}
	.st14{fill:#F48CA3;}
	.st15{fill:#BD294C;}
	.st16{fill:#6B3315;}
	.st17{fill:#ED2024;}
	.st18{fill:#FFCB0B;}
	.st19{fill:#412312;}
	.st20{fill:#282A73;}
	.st21{fill:#228099;}
	.st22{fill:#0000B2;}
	.st23{fill:#FFCB05;}
	.st24{fill:#EFA803;}
	.st25{fill:#D16502;}
	.st26{fill:#902924;}
	.st27{fill:#B71A25;}
	.st28{fill:#FF0005;}
	.st29{fill:#AD8104;}
	.st30{fill:#FFDB9C;}
	.st31{fill:#FFEDD4;}
	.st32{fill:#D3A100;}
	.st33{fill:#006837;}
	.st34{fill:#ED1C24;}
	.st35{fill:#6D6C73;}
	.st36{fill:#BFBEBE;}
	.st37{fill:#FFF5D9;}
	.st38{fill:#FF5005;}
	.st39{fill:#F26636;}
	.st40{fill:#EC2227;}
	.st41{fill:#2C3A96;}
	.st42{fill:#B72027;}
	.st43{fill:#C89754;}
	.st44{fill:#F19121;}
	.st45{fill:#FDEB07;}
	.st46{fill:#FEC045;}
	.st47{fill:#732644;}
	.st48{fill:#BB1E72;}
	.st49{fill:#AD832D;}
	.st50{fill:#08549E;}
	.st51{fill:#416FB6;}
	.st52{fill:#9A3D21;}
	.st53{fill:#BD4D27;}
</style>
<g id="XMLID_611_">
	<g id="XMLID_366_">
		<path id="XMLID_464_" class="st16" d="M64.6,5.8c0.7,22.7,1.3,45.5,1.6,68.2c0,0.5,0,1-0.3,1.3c-0.3,0.3-0.7,0.3-1.2,0.3
			c-15,0.3-30.1,0.5-45.1,0.8c-4.5,0.1-9,0.2-13.4,1.1c-0.5,0.1-1.1,0.2-1.6,0c-0.8-0.4-0.9-1.5-0.9-2.4C4.2,56,4.7,36.9,5.2,17.9
			c0-0.3,0-0.6,0.2-0.7C5.5,17,5.7,17,5.9,16.9C16.7,13.6,27.8,11.2,39,10c8.7-1,17.9,2.4,25.8-1.2"/>
		<path id="XMLID_463_" class="st19" d="M4.3,77.2c0.6,1.3-0.5,2.8-1.6,3.7c-1.1,0.9-2.5,1.8-2.7,3.3c4.7-0.8,9.4-1.7,14.2-2.5
			c2.2-0.4,4.4-0.8,6.7-0.9c3.5-0.3,7,0.1,10.5,0.4c4.9,0.4,9.9,0.9,14.8,1.3c7.4,0.7,14.7,1.3,22.1,2.1c0.9,0.1,2.2-0.3,1.8-1.1
			c-0.1-0.3-0.4-0.4-0.7-0.6c-2.5-1.4-3.8-4.6-3.1-7.4C57.5,74.1,48,76.1,39.1,76C28,75.9,14.4,75.6,3.7,75.9
			c-1.1,0,1.3,1.2,1.2,2.3"/>
		<path id="XMLID_462_" class="st20" d="M5.1,22.4c0.2,2.3-0.4,5.8-0.2,8.1c0,0.5,0.3-0.2,0.7,0.1c0.3,0.3,0.8,0.3,1.3,0.2
			c19-0.5,38-0.9,57-1.4c0.3,0,0.6,0,0.9-0.2c0.3-0.2,0.4-0.6,0.4-1c0.2-2.7,0.1-5.4-0.3-8.1c-13.9,0.5-27.8,1-41.7,2.5
			c-5.6,0.6-11.3,1.4-16.7,0.1"/>
		<path id="XMLID_461_" class="st8" d="M18,48.8c1.4-2.1,2.8-4.2,4.3-6.2c0.1-0.2,0.2-0.3,0.4-0.4c0.2-0.1,0.5,0.1,0.7,0.2
			c5.5,3.6,9.6,9.6,16,11.1c-0.9,2.2-2.4,4.1-4.3,5.5c-0.5,0.4-1.1,0.8-1.7,0.7c-0.9,0-1.6-0.8-2.3-1.5C27.3,54.2,22.5,51.9,18,48.8
			"/>
		<path id="XMLID_460_" class="st3" d="M30,47.3c0.7-1.9,1.7-3.6,3-5.1c1.3,1.5,3.4,2,5.3,2.5c4.8,1.2,9.5,2.7,14.1,4.6
			c0.5,0.2,1.1,0.5,1.3,1c0.2,0.4,0.1,0.9,0,1.4c-0.5,2.1-1.2,4.1-2.2,6c-0.2,0.3-0.4,0.7-0.8,0.8c-0.2,0-0.5-0.1-0.7-0.2
			c-1.8-0.9-3.5-2.2-5.4-3.1c-1.5-0.7-3.1-1.1-4.6-1.6c-3.8-1.4-7.4-3.6-10.3-6.4"/>
		<path id="XMLID_459_" class="st8" d="M27.6,44.2c0.4-2.8,0.8-5.5,1.3-8.3c2.5,1.4,5.6,0.9,8.5,0.7c4.9-0.4,9.8,0.2,14.6,0.7
			c0.2,0,0.5,0.1,0.6,0.3c0.1,0.2,0.1,0.4,0.1,0.5c-0.2,2.1-0.4,4.1-0.6,6.2c0,0.1,0,0.3-0.1,0.4c-0.2,0.3-0.6,0.2-1,0.1
			C43.5,42.5,34.9,47,27.6,44.2"/>
		<path id="XMLID_458_" class="st3" d="M33.8,34.5c2-2,3.7-3.6,6.2-4.9c1.3-0.6,2.7-1.1,4.1-1.6c3.2-1.3,5.9-3.5,8.6-5.7
			c2,1.5,3.9,2.9,5.9,4.4c-6.8,3-13.3,6.8-19.2,11.4c-0.4,0.3-0.8,0.6-1.2,0.6c-0.4,0-0.7-0.3-1.1-0.5
			C35.8,37.2,34.7,35.9,33.8,34.5"/>
		<path id="XMLID_457_" class="st19" d="M20.4,35.6c1.4-0.9,1.3-2,2.3-3.4c0.1-0.2,0.3-0.4,0.3-0.6c0.1-0.5-0.3-0.9-0.7-1.2
			c-2.3-1.9-5-3.2-8-3.8c-0.2,0-0.4-0.1-0.5,0.1c-0.1,0.1-0.1,0.2-0.1,0.3c-0.1,0.5-0.2,1.1-0.3,1.6c-0.2,0.8-0.3,1.7-0.1,2.4
			c0.6,1.4,2.4,1.8,3.8,2.4c1.3,0.6,2.5,1.5,3.6,2.4"/>
		<path id="XMLID_456_" class="st19" d="M50.8,42.2c1.3,0.7,2.6,1.4,3.9,2.1c0.2,0.1,0.4,0.2,0.4,0.4c0,0.1-0.1,0.3-0.1,0.4
			c-0.5,0.8-1,1.6-1.6,2.4c-0.2,0.4-0.5,0.8-0.9,0.9c-0.4,0.1-0.9-0.1-1.3-0.3c-2.4-1.2-4.8-2.3-7.1-3.5c0.4-0.9,0.9-1.9,1.9-2.2
			c0.6-0.2,1.4-0.2,2.1-0.1C49.3,42.5,49.5,42,50.8,42.2"/>
		<path id="XMLID_455_" class="st19" d="M35.1,35.7c3.1-1.8,6.3-3.4,9.2-5.4c2.8-1.9,5.2-4.5,8.6-5.2c0.3-0.1,0.2-0.6-0.1-0.5
			c-2.8,0.6-4.9,2.3-7.1,4.1c-3.3,2.6-7.2,4.5-10.8,6.6C34.5,35.4,34.8,35.9,35.1,35.7"/>
		<path id="XMLID_454_" class="st19" d="M36.7,36.8c6.4-2.9,12.5-6.3,18.3-10.3c0.3-0.2,0-0.6-0.3-0.5C49,30,42.9,33.4,36.5,36.4
			C36.2,36.5,36.4,37,36.7,36.8"/>
		<path id="XMLID_453_" class="st19" d="M35.8,32.6c1.8,0.9,3.5,1.9,5.1,3.1c0.3,0.2,0.5-0.3,0.3-0.5c-1.6-1.2-3.3-2.3-5.1-3.1
			C35.7,32,35.5,32.5,35.8,32.6"/>
		<path id="XMLID_452_" class="st19" d="M41.1,30.5c1.9,1,3.7,2.1,5.6,3.2c0.3,0.2,0.6-0.3,0.3-0.5c-1.8-1.1-3.7-2.1-5.6-3.2
			C41.1,29.9,40.8,30.4,41.1,30.5"/>
		<path id="XMLID_450_" class="st19" d="M46.6,27.4c1.8,0.9,3.5,2,5.2,3.1c0.3,0.2,0.5-0.3,0.3-0.5c-1.7-1.2-3.4-2.2-5.2-3.1
			C46.5,26.8,46.2,27.3,46.6,27.4"/>
		<path id="XMLID_448_" class="st19" d="M50.3,24.6c1.6,0.8,3.1,1.9,4.5,3c0.3,0.2,0.6-0.1,0.4-0.4c-1.4-1.2-2.9-2.3-4.6-3.1
			C50.2,24,50,24.5,50.3,24.6"/>
		<path id="XMLID_446_" class="st19" d="M32.5,44.5c3.4,1.2,6.3,3.4,9.6,4.6c3.5,1.3,7,1.9,10.4,3.5c0.3,0.1,0.6-0.3,0.3-0.5
			c-3.2-1.5-6.2-2.3-9.6-3.3c-3.7-1.1-6.9-3.6-10.6-4.9C32.3,43.9,32.2,44.4,32.5,44.5"/>
		<path id="XMLID_435_" class="st19" d="M30.9,46.6c3.4,1.4,7,1.9,10.4,3.3c3.1,1.3,6.1,2.8,9.4,3.7c0.3,0.1,0.5-0.4,0.1-0.5
			c-3.3-0.9-6.2-2.4-9.3-3.7c-3.4-1.4-7-1.8-10.4-3.2C30.8,46,30.6,46.5,30.9,46.6"/>
		<path id="XMLID_417_" class="st19" d="M51.6,49.8c-1.5,1.9-2.6,4-3.2,6.3c-0.1,0.3,0.4,0.5,0.5,0.1c0.6-2.3,1.6-4.3,3.1-6.1
			C52.2,49.9,51.8,49.6,51.6,49.8"/>
		<path id="XMLID_387_" class="st19" d="M47.9,49.5c-1.5,1.7-2.8,3.6-3.8,5.7c-0.1,0.3,0.3,0.6,0.5,0.3c0.9-2,2.2-3.9,3.7-5.6
			C48.5,49.6,48.2,49.2,47.9,49.5"/>
		<path id="XMLID_371_" class="st19" d="M44.2,47.8c-1.2,1.8-2.4,3.5-3.6,5.3c-0.2,0.3,0.3,0.5,0.5,0.3c1.2-1.8,2.4-3.5,3.6-5.3
			C44.9,47.8,44.4,47.5,44.2,47.8"/>
		<path id="XMLID_370_" class="st19" d="M41.2,46.7c-1.5,1-3,2-4.5,3.1c-0.3,0.2,0,0.7,0.3,0.5c1.5-1.1,3-2.2,4.5-3.1
			C41.7,47,41.5,46.5,41.2,46.7"/>
		<path id="XMLID_368_" class="st19" d="M36.9,45.3c-2.2,1.2-4.3,2.6-6.4,3.9c-0.3,0.2,0,0.6,0.3,0.5c2.1-1.4,4.2-2.7,6.4-3.9
			C37.4,45.5,37.2,45.1,36.9,45.3"/>
		<path id="XMLID_367_" class="st19" d="M5.2,17.6c19.1-7.3,41.4-1.7,60.6-8.8C65.5,7,65,1.8,65.1,0c-8.7,0.6-17.3,2.1-25.8,4.4
			c-3.1,0.8-6.3,1.8-9.5,2.1c-2.3,0.2-4.6,0.2-6.9,0.3c-3,0.1-6.1,0.5-9,1.1c-3.8,0.8-8,1.9-11.3-0.1c-0.4,3.3,0.4,6.8,2.2,9.6"/>
	</g>
	<g id="XMLID_465_">
		<path id="XMLID_488_" class="st16" d="M97.7,7c0.7,22.7,1.3,45.5,1.6,68.2c0,0.5,0,1-0.3,1.3c-0.3,0.3-0.7,0.3-1.2,0.3
			c-15,0.3-30.1,0.5-45.1,0.8c-4.5,0.1-9,0.2-13.4,1.1c-0.5,0.1-1.1,0.2-1.6,0c-0.8-0.4-0.9-1.5-0.9-2.4c0.5-19.1,1.1-38.1,1.6-57.2
			c0-0.3,0-0.6,0.2-0.7c0.1-0.1,0.3-0.2,0.5-0.2c10.8-3.4,21.9-5.7,33.1-6.9c8.7-1,17.9,2.4,25.8-1.2"/>
		<path id="XMLID_487_" class="st19" d="M37.4,78.4c0.6,1.3-0.5,2.8-1.6,3.7c-1.1,0.9-2.5,1.8-2.7,3.3c4.7-0.8,9.4-1.7,14.2-2.5
			c2.2-0.4,4.4-0.8,6.7-0.9c3.5-0.3,7,0.1,10.5,0.4c4.9,0.4,9.9,0.9,14.8,1.3c7.4,0.7,14.7,1.3,22.1,2.1c0.9,0.1,2.2-0.3,1.8-1.1
			c-0.1-0.3-0.4-0.4-0.7-0.6c-2.5-1.4-3.8-4.6-3.1-7.4c-8.8-1.3-18.3,0.6-27.2,0.5c-11.1-0.1-24.7-0.4-35.5-0.1
			c-1.1,0,1.3,1.2,1.2,2.3"/>
		<path id="XMLID_486_" class="st20" d="M38.2,23.6c0.2,2.3-0.4,5.8-0.2,8.1c0,0.5,0.3-0.2,0.7,0.1c0.3,0.3,0.8,0.3,1.3,0.2
			c19-0.5,38-0.9,57-1.4c0.3,0,0.6,0,0.9-0.2c0.3-0.2,0.4-0.6,0.4-1c0.2-2.7,0.1-5.4-0.3-8.1c-13.9,0.5-27.8,1-41.7,2.5
			c-5.6,0.6-11.3,1.4-16.7,0.1"/>
		<path id="XMLID_485_" class="st8" d="M51.1,50c1.4-2.1,2.8-4.2,4.3-6.2c0.1-0.2,0.2-0.3,0.4-0.4c0.2-0.1,0.5,0.1,0.7,0.2
			c5.5,3.6,9.6,9.6,16,11.1c-0.9,2.2-2.4,4.1-4.3,5.5c-0.5,0.4-1.1,0.8-1.7,0.7c-0.9,0-1.6-0.8-2.3-1.5C60.5,55.4,55.7,53.1,51.1,50
			"/>
		<path id="XMLID_484_" class="st3" d="M63.2,48.5c0.7-1.9,1.7-3.6,3-5.1c1.3,1.5,3.4,2,5.3,2.5c4.8,1.2,9.5,2.7,14.1,4.6
			c0.5,0.2,1.1,0.5,1.3,1c0.2,0.4,0.1,0.9,0,1.4c-0.5,2.1-1.2,4.1-2.2,6c-0.2,0.3-0.4,0.7-0.8,0.8c-0.2,0-0.5-0.1-0.7-0.2
			c-1.8-0.9-3.5-2.2-5.4-3.1c-1.5-0.7-3.1-1.1-4.6-1.6c-3.8-1.4-7.4-3.6-10.3-6.4"/>
		<path id="XMLID_483_" class="st8" d="M60.7,45.4c0.4-2.8,0.8-5.5,1.3-8.3c2.5,1.4,5.6,0.9,8.5,0.7c4.9-0.4,9.8,0.2,14.6,0.7
			c0.2,0,0.5,0.1,0.6,0.3c0.1,0.2,0.1,0.4,0.1,0.5c-0.2,2.1-0.4,4.1-0.6,6.2c0,0.1,0,0.3-0.1,0.4c-0.2,0.3-0.6,0.2-1,0.1
			C76.6,43.7,68,48.2,60.7,45.4"/>
		<path id="XMLID_482_" class="st3" d="M66.9,35.7c2-2,3.7-3.6,6.2-4.9c1.3-0.6,2.7-1.1,4.1-1.6c3.2-1.3,5.9-3.5,8.6-5.7
			c2,1.5,3.9,2.9,5.9,4.4c-6.8,3-13.3,6.8-19.2,11.4c-0.4,0.3-0.8,0.6-1.2,0.6c-0.4,0-0.7-0.3-1.1-0.5
			C68.9,38.4,67.8,37.1,66.9,35.7"/>
		<path id="XMLID_481_" class="st19" d="M53.5,36.8c1.4-0.9,1.3-2,2.3-3.4c0.1-0.2,0.3-0.4,0.3-0.6c0.1-0.5-0.3-0.9-0.7-1.2
			c-2.3-1.9-5-3.2-8-3.8c-0.2,0-0.4-0.1-0.5,0.1c-0.1,0.1-0.1,0.2-0.1,0.3c-0.1,0.5-0.2,1.1-0.3,1.6c-0.2,0.8-0.3,1.7-0.1,2.4
			c0.6,1.4,2.4,1.8,3.8,2.4c1.3,0.6,2.5,1.5,3.6,2.4"/>
		<path id="XMLID_480_" class="st19" d="M83.9,43.4c1.3,0.7,2.6,1.4,3.9,2.1c0.2,0.1,0.4,0.2,0.4,0.4c0,0.1-0.1,0.3-0.1,0.4
			c-0.5,0.8-1,1.6-1.6,2.4c-0.2,0.4-0.5,0.8-0.9,0.9c-0.4,0.1-0.9-0.1-1.3-0.3c-2.4-1.2-4.8-2.3-7.1-3.5c0.4-0.9,0.9-1.9,1.9-2.2
			c0.6-0.2,1.4-0.2,2.1-0.1C82.5,43.7,82.7,43.2,83.9,43.4"/>
		<path id="XMLID_479_" class="st19" d="M68.2,36.9c3.1-1.8,6.3-3.4,9.2-5.4c2.8-1.9,5.2-4.5,8.6-5.2c0.3-0.1,0.2-0.6-0.1-0.5
			c-2.8,0.6-4.9,2.3-7.1,4.1c-3.3,2.6-7.2,4.5-10.8,6.6C67.6,36.6,67.9,37.1,68.2,36.9"/>
		<path id="XMLID_478_" class="st19" d="M69.9,38c6.4-2.9,12.5-6.3,18.3-10.3c0.3-0.2,0-0.6-0.3-0.5c-5.8,3.9-11.9,7.4-18.3,10.3
			C69.3,37.7,69.6,38.2,69.9,38"/>
		<path id="XMLID_477_" class="st19" d="M68.9,33.8c1.8,0.9,3.5,1.9,5.1,3.1c0.3,0.2,0.5-0.3,0.3-0.5c-1.6-1.2-3.3-2.3-5.1-3.1
			C68.9,33.2,68.6,33.7,68.9,33.8"/>
		<path id="XMLID_476_" class="st19" d="M74.3,31.7c1.9,1,3.7,2.1,5.6,3.2c0.3,0.2,0.6-0.3,0.3-0.5c-1.8-1.1-3.7-2.1-5.6-3.2
			C74.2,31.1,74,31.6,74.3,31.7"/>
		<path id="XMLID_475_" class="st19" d="M79.7,28.7c1.8,0.9,3.5,2,5.2,3.1c0.3,0.2,0.5-0.3,0.3-0.5c-1.7-1.2-3.4-2.2-5.2-3.1
			C79.7,28,79.4,28.5,79.7,28.7"/>
		<path id="XMLID_474_" class="st19" d="M83.4,25.8c1.6,0.8,3.1,1.9,4.5,3c0.3,0.2,0.6-0.1,0.4-0.4c-1.4-1.2-2.9-2.3-4.6-3.1
			C83.4,25.2,83.1,25.7,83.4,25.8"/>
		<path id="XMLID_473_" class="st19" d="M65.7,45.7c3.4,1.2,6.3,3.4,9.6,4.6c3.5,1.3,7,1.9,10.4,3.5c0.3,0.1,0.6-0.3,0.3-0.5
			c-3.2-1.5-6.2-2.3-9.6-3.3c-3.7-1.1-6.9-3.6-10.6-4.9C65.5,45.1,65.3,45.6,65.7,45.7"/>
		<path id="XMLID_472_" class="st19" d="M64,47.8c3.4,1.4,7,1.9,10.4,3.3c3.1,1.3,6.1,2.8,9.4,3.7c0.3,0.1,0.5-0.4,0.1-0.5
			c-3.3-0.9-6.2-2.4-9.3-3.7c-3.4-1.4-7-1.8-10.4-3.2C64,47.2,63.7,47.7,64,47.8"/>
		<path id="XMLID_471_" class="st19" d="M84.7,51c-1.5,1.9-2.6,4-3.2,6.3c-0.1,0.3,0.4,0.5,0.5,0.1c0.6-2.3,1.6-4.3,3.1-6.1
			C85.3,51.1,85,50.8,84.7,51"/>
		<path id="XMLID_470_" class="st19" d="M81.1,50.7c-1.5,1.7-2.8,3.6-3.8,5.7c-0.1,0.3,0.3,0.6,0.5,0.3c0.9-2,2.2-3.9,3.7-5.6
			C81.7,50.8,81.3,50.4,81.1,50.7"/>
		<path id="XMLID_469_" class="st19" d="M77.4,49c-1.2,1.8-2.4,3.5-3.6,5.3c-0.2,0.3,0.3,0.5,0.5,0.3c1.2-1.8,2.4-3.5,3.6-5.3
			C78,49,77.5,48.7,77.4,49"/>
		<path id="XMLID_468_" class="st19" d="M74.3,47.9c-1.5,1-3,2-4.5,3.1c-0.3,0.2,0,0.7,0.3,0.5c1.5-1.1,3-2.2,4.5-3.1
			C74.9,48.2,74.6,47.7,74.3,47.9"/>
		<path id="XMLID_467_" class="st19" d="M70,46.5c-2.2,1.2-4.3,2.6-6.4,3.9c-0.3,0.2,0,0.6,0.3,0.5c2.1-1.4,4.2-2.7,6.4-3.9
			C70.6,46.7,70.3,46.3,70,46.5"/>
		<path id="XMLID_466_" class="st19" d="M38.3,18.8c19.1-7.3,41.4-1.7,60.6-8.8c-0.3-1.7-0.8-7-0.7-8.8c-8.7,0.6-17.3,2.1-25.8,4.4
			c-3.1,0.8-6.3,1.8-9.5,2.1C60.6,8,58.3,7.9,56,8c-3,0.1-6.1,0.5-9,1.1c-3.8,0.8-8,1.9-11.3-0.1c-0.4,3.3,0.4,6.8,2.2,9.6"/>
	</g>
</g>
</svg>
