<?xml version="1.0" encoding="utf-8"?>
<!-- Generator: Adobe Illustrator 18.1.0, SVG Export Plug-In . SVG Version: 6.00 Build 0)  -->
<svg version="1.1" id="Layer_1" xmlns="http://www.w3.org/2000/svg" xmlns:xlink="http://www.w3.org/1999/xlink" x="0px" y="0px"
	 viewBox="0 0 94.5 107.7" style="enable-background:new 0 0 94.5 107.7;" xml:space="preserve">
<style type="text/css">
	.st0{fill:#FFFFFF;}
	.st1{fill:#0071FC;}
	.st2{fill:none;stroke:#001D2D;stroke-width:2;stroke-linecap:round;stroke-linejoin:round;stroke-miterlimit:10;}
	.st3{fill:#F4D49D;}
	.st4{fill:#44612D;}
	.st5{fill:#9BC53D;}
	.st6{fill:#CDCED0;}
	.st7{fill:#E7E9E6;}
	.st8{fill:#C9A877;}
	.st9{fill:#D2A12A;}
	.st10{fill:#EEA820;}
	.st11{fill:#6E1F3F;}
	.st12{fill:#2AAAE2;}
	.st13{fill:#25809A;}
	.st14{fill:#F48CA3;}
	.st15{fill:#BD294C;}
	.st16{fill:#6B3315;}
	.st17{fill:#ED2024;}
	.st18{fill:#FFCB0B;}
	.st19{fill:#412312;}
	.st20{fill:#282A73;}
	.st21{fill:#228099;}
	.st22{fill:#0000B2;}
	.st23{fill:#FFCB05;}
	.st24{fill:#EFA803;}
	.st25{fill:#D16502;}
	.st26{fill:#902924;}
	.st27{fill:#B71A25;}
	.st28{fill:#FF0005;}
	.st29{fill:#AD8104;}
	.st30{fill:#FFDB9C;}
	.st31{fill:#FFEDD4;}
	.st32{fill:#D3A100;}
	.st33{fill:#006837;}
	.st34{fill:#ED1C24;}
	.st35{fill:#6D6C73;}
	.st36{fill:#BFBEBE;}
	.st37{fill:#FFF5D9;}
	.st38{fill:#FF5005;}
	.st39{fill:#F26636;}
	.st40{fill:#EC2227;}
	.st41{fill:#2C3A96;}
	.st42{fill:#B72027;}
	.st43{fill:#C89754;}
	.st44{fill:#F19121;}
	.st45{fill:#FDEB07;}
	.st46{fill:#FEC045;}
	.st47{fill:#732644;}
	.st48{fill:#BB1E72;}
	.st49{fill:#AD832D;}
	.st50{fill:#08549E;}
	.st51{fill:#416FB6;}
	.st52{fill:#9A3D21;}
	.st53{fill:#BD4D27;}
</style>
<g id="XMLID_62_">
	<path id="XMLID_499_" class="st3" d="M86.6,46.5c0.6,1.8-0.4,3.8-1.8,5.1c-1.4,1.3-3.2,2.1-4.8,3.1c-1.7,1.1-3.3,2.4-5,3.5
		c-2.4,1.4-5.1,2.1-7.9,2.7c-7.2,1.7-14.5,2.7-21.9,3.8c-3,0.4-6.1,0.9-9.1,0.9c-4.9,0-9.8-1.1-14.6-0.5c-1.8,0.2-3.6,0.7-5.4,0.6
		c-2.6-0.1-5.1-1.2-7.5-2.3c-1.7-0.8-3.4-1.6-4.6-3c-1.6-1.8-2-4.3-2.2-6.7c0-0.6-0.1-1.2,0.2-1.7c0.5-1.1,2-1.4,3.1-1.1
		c1.1,0.4,2.1,1.2,3,2c4.4,3.5,9.9,5.4,15.5,6.1c5.6,0.7,11.3,0.2,16.8-0.6c15.6-2.1,30.9-6.5,45.6-12.3"/>
	<path id="XMLID_498_" class="st43" d="M81.3,38c2.3,1.1,2.7,1.8,4.4,3.7c0.7,0.8,1.3,1.8,1.2,2.8c-0.1,0.7-0.6,1.3-1.1,1.9
		c-2,2.2-4.5,4-7.2,5.2c-5.1,2.1-10.8,2.1-16.2,2.8c-7.4,1.1-14.5,3.8-21.8,5.7c-7.3,1.9-15,3-22.2,0.9c-4.7-1.4-9-4-13-6.8
		c-0.6-0.4-1.1-0.8-1.6-1.3C2,51,2.4,47.7,4.5,46.2c0.7-0.5,1.4-0.8,2.2-1c19-6.2,40.2-0.2,59.5-5.4c3.7-1,7.3-2.4,10.9-3.8
		c0.6-0.2,1.2-0.4,1.8-0.3c0.6,0.1,1.1,0.7,1,1.3"/>
	<path id="XMLID_497_" class="st3" d="M83.2,26.4c2.4,0.7,3.1,4.1,1.8,6.3s-3.8,3.2-6.2,4.1c-2,0.7-4.1,1.3-6.2,1.7
		c-1.9,0.4-3.9,0.7-5.8,1.4c-1.4,0.6-2.8,1.5-4.1,2.2c-2.9,1.5-6,2.4-9.2,3.3c-3.3,0.9-6.6,1.7-10,1.7c-4.9,0.1-9.6-1.5-14.5-1.7
		c-7.3-0.3-14.5,2.5-21.7,1.6c-2.7-0.3-5.7-1.4-6.7-4c-0.7-2,0-4.2,0.7-6.1c0.1-0.4,0.3-0.8,0.6-1c1-0.8,2.2,0.6,3.2,1.3
		c1.4,1.1,3.4,1.1,5.3,1.1c10.5-0.3,20.9-1.3,31.3-2.7c5.3-0.7,10.6-1.6,16-1.9c3.7-0.2,7.4,0,11-0.6c4.7-0.7,9.2-2.6,13.6-4.5
		c0.6-0.3,1.3-0.6,1.6-1.2c0.3-0.6-0.1-1.6-0.8-1.4"/>
	<path id="XMLID_496_" class="st43" d="M4.8,31.7c-1.5,0.9-2.9,2.5-2.9,4.2c0,0.7,1.3,2.1,1.9,2.7c0.3,0.3,0.8,0.5,1.2,0.6
		c4.7,1.2,10.2,0.4,15-0.1c5.9-0.6,11-0.1,16.9-1c3-0.4,6-1.6,9-1.7c1.9,0,3.7,0.3,5.6,0.6c3.6,0.5,7.2,0.7,10.8,0.2
		c7.6-0.9,14.5-4.6,21.3-8.1c0.4-0.2,1.6,0,1.7-0.7c0.1-1,0-1.2-0.1-1.5c-0.9-1.8-3-3.5-5-3.9c-1.1-0.2-6.5-1-7.6-0.7
		c-7.7,2.2-11.4,4.7-19.3,6c-5.3,0.9-13.8,0-19.1,0.9c-8.5,1.5-13.9,4.8-22.4,3.6C9.1,32.4,7.4,31.2,4.8,31.7"/>
	<path id="XMLID_495_" class="st3" d="M0,25.5c0.1-2.1,0.3-4.4,1.3-6.3c1.7-3,5.2-4.5,8.4-5.7l23.5-8.9c2.1-0.8,4.3-1.6,6.5-2.2
		c2.9-0.7,6-1,9-1.2C59.1,0.5,70,0.7,79.4,5.2c3.6,1.7,7.2,4.6,7.4,8.6c0.1,3-1.9,5.7-4.4,7.3c-2.5,1.6-5.5,2.3-8.4,2.9
		c-12.4,2.8-22.9,6.8-35.6,8.2c-2.8,0.3-7.7-0.8-10.4-0.3c-6.6,1.2-13.5,3.9-19.9,1.6C4,32.2,1.3,29.5,0,25.5"/>
	<path id="XMLID_494_" class="st43" d="M1.3,19.3c-0.8,2-0.6,3.1,0.2,5.1c0.3,0.7,0.8,1.4,1.5,1.8c0.6,0.3,1.4,0.3,2.1,0.3
		c6.7,0,13.5-1,19.6-4c6.3-3.1,11.9-8.2,18.9-9.2c8.2-1.1,16.1,4,24.4,3.7c3.5-0.1,6.9-1.2,10.2-2.6c1.2-0.5,2.5-1.1,3.4-2.1
		s1.6-2.3,1.3-3.6c-0.4-1.9-2.4-3-4.3-3.8C68.2,0.8,56.8-0.8,45.7,0.4c-3,0.3-6.1,0.8-8.9,2C35,3.2,33.3,4.2,31.6,5
		c-3.2,1.7-6.7,2.9-10.1,4.1c-6.2,2.3-10.1,3.8-16.2,6.4c-0.6,0.3-2,1.3-2.5,1.8c-0.4,0.5-1.5,2-1.7,2.1"/>
	<path id="XMLID_493_" class="st3" d="M84.4,52.4c3-0.3,5.2,3.3,4.5,6.3c-0.6,2.9-3.1,5.1-5.5,6.8c-4.6,3.2-9.7,5.5-15.2,6.5
		c-2.5,0.4-5,0.6-7.5,1.1c-2.4,0.5-4.7,1.5-7.1,2.2c-3.4,1-6.9,1.6-10.3,2.1c-3,0.5-6,1-9,0.7c-3.3-0.3-6.5-1.4-9.6-2.5
		c-6.4-2.3-13.5-4.1-14-9.9c0-0.5,1-1,1.4-0.8c0.4,0.2,0.1,0.1,0.4,0.4c1.1,1.2,0.9,1,2.5,1.6c1.8,0.7,5.1,0.8,6.9,1.4
		c1.8,0.7,2,1.8,4,1.8c8.7-0.3,17.3-0.5,26-1.2c2.8-0.2,5.5-0.5,8.2-1.2c2.3-0.6,4.6-1.5,6.8-2.4c4.5-1.8,9-3.6,13.5-5.4
		c0.7-0.3,1.5-0.6,2.1-1.2c1.6-1.6,0.9-4.3,1.9-6.3"/>
	<path id="XMLID_492_" class="st43" d="M85.1,52.1c0.5,3.5-1.5,6.9-4.2,9.1c-2.7,2.2-6.1,3.3-9.5,4.3c-18.6,5.4-38.6,8-57.2,2.4
		c-1.3-0.4-3-1.3-2.7-2.6c0.3-0.9,8.3-1.1,12.6-0.8c13.1,0.7,26.1-1.6,39-3.9c3-0.5,6-1.1,8.9-2.2c4-1.5,7.6-4,11.6-5.6
		c0.4-0.2,0.8-0.3,1.2-0.2c0.4,0.1,0.7,0.6,0.4,1"/>
	<path id="XMLID_491_" class="st3" d="M85.3,64.7c2.3,3.7,4.6,7.6,4.4,11.9c-0.2,3.9-2.6,7.4-5.6,9.7c-3.1,2.3-6.8,3.6-10.6,4.5
		c-3.4,0.8-6.8,1.3-10.3,1.9c-5.7,0.9-11.4,1.7-17.1,2.6c-2.1,0.3-4.2,0.6-6.3,0.7c-3.3,0-6.5-0.6-9.8-1.3c-6.6-1.4-13.8-3-18.3-8.1
		c-1.3-1.4-2.2-3.9-0.7-5.1c0.4-0.3,1-0.5,1.5-0.6c3.8-0.7,7.6,0.8,11.5,1.4c4.5,0.7,9.2,0.2,13.7-0.3c6.7-0.8,13.4-1.5,20-3.3
		c8.7-2.3,16.8-6.4,24.9-10.4c1.3-0.7,2.8-1.5,3.1-3"/>
	<path id="XMLID_490_" class="st43" d="M86.3,65c1.4,2.5,1.1,4.7-0.1,7.3c-1.5,3.1-5.3,4.1-8.7,4.8c-5.1,1-10.2,2-15.3,3
		c-1.4,0.3-2.9,0.6-4.1,1.5c-1.2,0.9-1.9,2.3-2.9,3.4c-1,1.1-2.6,2-4,1.3c-0.6-0.3-1-0.9-1.5-1.3c-2.2-2-5.6-2.1-8.5-1.4
		c-2.9,0.7-5.6,2.2-8.5,2.8c-1.7,0.4-3.5,0.5-5.2-0.1c-2.3-0.9-4-3.1-6.5-3.7c-3.2-0.8-6.9,1.5-9.7-0.3c-2.3-1.5-2.4-5.1-0.6-7.1
		c1.7-2.1,4.6-2.8,7.3-2.8c2,0,3.9,0.4,5.8,1.1c2.4,0.9,4.6,2.4,7.1,3c2.8,0.7,5.7,0.3,8.6-0.1c3.5-0.5,6.9-1,10.4-1.5
		c11.6-1.7,23.5-3.5,33.3-9.9C84.1,64.3,85.3,63.4,86.3,65"/>
	<path id="XMLID_500_" class="st3" d="M86.8,66.7c-0.3,1.6-0.2,3.1,0,4.7c0.8,4.9,0.9,10.6-2.7,13.9c-1.2,1.1-2.8,1.8-4.3,2.5
		c-10.8,4.7-22.1,8.4-33.6,11c-6,1.4-12.3,0.7-18.3-0.5s-11.7-4.3-14-10c-0.2,4.1-1.8,8.9,5.7,12.4c3.4,1.6,6.9,3,10.7,3.1
		c3.8,0.2,7.6-0.1,11.2,1c2.8,0.8,5.3,2.2,8.2,2.7c2.1,0.4,4.3,0.2,6.4-0.1c4-0.4,8.1-1,11.9-2.1c6-1.8,11.6-4.8,17.1-7.8
		c2.7-1.5,5.6-3.1,7.3-5.6c3.2-4.6,2-10.8,0.7-16.2c-0.4-1.8-0.9-3.7-2.2-5.1c-1.4-1.5-2.4-2.3-3.4-4C87.5,66.3,87,65.8,86.8,66.7"
		/>
	<path id="XMLID_501_" class="st43" d="M86.7,70.9c-0.4-0.8,2.8,6.9-0.8,10.4c-0.6,0.6-2.3-0.5-2.9,0.2c-3.2,3.8-8.4,5.2-13.3,6.5
		c-3,0.8-6,1.8-8.7,3.2c-1.2,0.7-2.3,1.4-3.6,2c-2.5,1.1-5.4,1.2-8.2,1.3c-6.5,0.2-13.1,0.5-19.4-1c-4.2-1-8.2-2.7-12.1-4.7
		c-1.3-0.7-2.8-1.4-4.1-0.7c-0.4,2.8,1.4,7.3,3.8,8.8c3.7,2.4,8.5,2.4,12.8,3.4c4.7,1,9.5,0.3,14.2-0.6c12.6-2.5,24.9-6.4,36.6-11.7
		c2.9-1.3,6.1-3.1,6.7-6.2c0.3-1.3,0.3-2.5,0.6-3.9c0.7-3.2,1.3-4.6,0.2-7c-0.2-0.6-2.6-3.5-2.3-1.2"/>
</g>
</svg>
