<?xml version="1.0" encoding="utf-8"?>
<!-- Generator: Adobe Illustrator 18.1.0, SVG Export Plug-In . SVG Version: 6.00 Build 0)  -->
<svg version="1.1" id="Layer_1" xmlns="http://www.w3.org/2000/svg" xmlns:xlink="http://www.w3.org/1999/xlink" x="0px" y="0px"
	 viewBox="0 0 110.9 108.2" style="enable-background:new 0 0 110.9 108.2;" xml:space="preserve">
<style type="text/css">
	.st0{fill:#FFFFFF;}
	.st1{fill:#0071FC;}
	.st2{fill:none;stroke:#001D2D;stroke-width:2;stroke-linecap:round;stroke-linejoin:round;stroke-miterlimit:10;}
	.st3{fill:#F4D49D;}
	.st4{fill:#44612D;}
	.st5{fill:#9BC53D;}
	.st6{fill:#CDCED0;}
	.st7{fill:#E7E9E6;}
	.st8{fill:#C9A877;}
	.st9{fill:#D2A12A;}
	.st10{fill:#EEA820;}
	.st11{fill:#6E1F3F;}
	.st12{fill:#2AAAE2;}
	.st13{fill:#25809A;}
	.st14{fill:#F48CA3;}
	.st15{fill:#BD294C;}
	.st16{fill:#6B3315;}
	.st17{fill:#ED2024;}
	.st18{fill:#FFCB0B;}
	.st19{fill:#412312;}
	.st20{fill:#282A73;}
	.st21{fill:#228099;}
	.st22{fill:#0000B2;}
	.st23{fill:#FFCB05;}
	.st24{fill:#EFA803;}
	.st25{fill:#D16502;}
	.st26{fill:#902924;}
	.st27{fill:#B71A25;}
	.st28{fill:#FF0005;}
	.st29{fill:#AD8104;}
	.st30{fill:#FFDB9C;}
	.st31{fill:#FFEDD4;}
	.st32{fill:#D3A100;}
	.st33{fill:#006837;}
	.st34{fill:#ED1C24;}
	.st35{fill:#6D6C73;}
	.st36{fill:#BFBEBE;}
	.st37{fill:#FFF5D9;}
	.st38{fill:#FF5005;}
	.st39{fill:#F26636;}
	.st40{fill:#EC2227;}
	.st41{fill:#2C3A96;}
	.st42{fill:#B72027;}
	.st43{fill:#C89754;}
	.st44{fill:#F19121;}
	.st45{fill:#FDEB07;}
	.st46{fill:#FEC045;}
	.st47{fill:#732644;}
	.st48{fill:#BB1E72;}
	.st49{fill:#AD832D;}
	.st50{fill:#08549E;}
	.st51{fill:#416FB6;}
	.st52{fill:#9A3D21;}
	.st53{fill:#BD4D27;}
</style>
<g id="XMLID_60_">
	<g id="_x2B_">
		<line id="XMLID_72_" class="st2" x1="65.1" y1="70.2" x2="49.1" y2="70.2"/>
		<line id="XMLID_69_" class="st2" x1="57.1" y1="78.2" x2="57.1" y2="62.2"/>
	</g>
	<g id="XMLID_233_">
		<path id="XMLID_243_" class="st3" d="M0.5,40.2c0.3-4.4-0.2-0.7,1.9-2c2.1-1.3,4.7-1.3,7.1-1.2c9.3,0.4,19.7,1,29,1.3
			c1.6,5.3,0.6,10.6,0.6,16.1c0,15.1-0.4,30.3-0.8,45.4c-0.1,2.7-0.5,6-2.9,7.3c-1.1,0.6-2.4,0.6-3.6,0.6
			c-9.4,0.1-18.8,0.3-28.1,0.4c-0.6,0-1.3,0-1.8-0.4c-0.4-0.4-0.6-1-0.6-1.6c-1.4-10.1-1.3-20-1-30.2c0.3-10.8,0.3-24.7,0.7-35.1"/>
		<path id="XMLID_242_" class="st4" d="M35.3,28.9c0-2.3,0-4.5,0-6.8c0-0.3,0-0.7-0.2-1c-0.3-0.6-1.1-0.6-1.7-0.6
			c-8.9,0-17.8,0-26.7-0.1c-0.8,0-1.8,0.1-2.2,0.8c-0.2,0.4-0.2,0.9-0.2,1.4c0,1.8,0,3.6,0.1,5.4c0,0.2,0,0.5,0.2,0.7
			C4.6,29,4.9,29,5.2,29c9.4,1.1,19,1.4,28.4,0.8C34.6,29.8,35.6,29.9,35.3,28.9"/>
		<path id="XMLID_241_" class="st5" d="M4,28.4c-2,3.1-3.2,6.7-3.5,10.4c-0.1,0.7-0.1,1.5,0.3,2c0.5,0.7,1.5,0.8,2.3,0.8
			c7,0,13.9,0,20.9,0c4.5,0,9,0,13.5-0.8c0.4-0.1,0.9-0.2,1.2-0.6c0.2-0.3,0.2-0.7,0.1-1c-0.2-3.4-1.2-6.8-2.8-9.7
			c-0.4-0.7-0.8-1.4-1.5-1.8c-0.7-0.4-1.5-0.4-2.3-0.4c-8.4,0-16.8,0-25.1,0c-1,0-1.3,0.3-2.3,0.7"/>
		<path id="XMLID_240_" class="st6" d="M23.4,30.9c-0.2,2,0.2,3.9-0.1,4.6c-0.3,0.7-5.1,0.6-7.4,0.6c-1.2,0-1.1-0.7-1.1-0.8
			c-0.1-1.4-0.2-3.3,0-4.7"/>
		<path id="XMLID_237_" class="st7" d="M16.8,29.3c1.1,0,2.2-0.1,3.3-0.1c0.6,0,1.1,0,1.7,0.2c0.5,0.2,1.3,0.6,1.5,1.1
			c0.3,1,0.1,1.8-0.4,2.1c-0.6,0.3-2.1,0.4-2.7,0.4c-0.9,0-1.5,0-2.5,0.1c-0.5,0-1.3,0-1.8,0c-1.4,0-2-2.3-0.9-3.1
			C15.4,29.5,15.6,29.3,16.8,29.3"/>
	</g>
	<g id="XMLID_229_">
		<path id="XMLID_225_" class="st8" d="M77.7,12.9c-0.1-3.2,1.4-5.9,0.1-8.4C85.1,4,92.5,3.5,99.9,2.9c3.4-0.2,6.9-0.5,10.2,0.7
			c-1,2.5-1.3,5.4-0.7,8.1c-8.1,0.5-16.2,1.1-24.3,1.6C82.7,13.5,80.1,13.6,77.7,12.9"/>
		<path id="XMLID_223_" class="st9" d="M77.6,4.6c0-1.3-0.1-2.6-0.1-3.9c6.1,0,12.2,0,18.3,0c2.2,0,4.3,0,6.5-0.2
			c2.2-0.2,4.4-0.7,6.5-0.4c0.6,0.1,1.1,0.2,1.6,0.6c0.4,0.4,0.7,1.2,0.4,1.8c-0.3,0.6-1,0.7-1.6,0.8C98.6,3.7,88,4.1,77.5,4.5"/>
		<path id="XMLID_219_" class="st3" d="M77.6,95c0.1-27.8,0.2-54,0.2-81.8c8.8-0.4,17.7-0.7,26.5-1.1c1.7-0.1,4.6-1.5,5.8-0.1
			c1.1,1.4,0.1,5,0.1,6.9c0.2,23.7,0.4,47.4,0.6,71.1c0,1.8-0.1,3.9-1.3,4.8c-0.7,0.6-1.6,0.6-2.5,0.6C97.2,95.3,87.4,95.1,77.6,95"
			/>
		<path id="XMLID_218_" class="st10" d="M78.4,92.8c-0.4,0.6,0.4,1.6,0.9,1.2c0.2-0.1,0.3-0.4,0.5-0.5c0.4-0.3,0.8,0.1,1.2,0.3
			c0.4,0.2,1.1,0,1-0.5c0.5,0.7,1.4,0.7,2.1,0.6c0.6-0.1,1.2-0.1,1.8-0.2c0.4,0,0.9-0.1,1-0.6c0.5,0.6,1.3,0.8,1.9,0.5
			c0.2-0.1,0.5-0.2,0.7-0.2c0.8,0,1.4,1.4,2.1,1.1c0.2-0.1,0.4-0.4,0.6-0.6c0.9-0.5,1.9,1.5,2.7,0.9c0.3-0.2,0.4-0.7,0.7-0.9
			c0.7-0.7,1.8,0.7,2.6,0.3c0.2-0.1,0.4-0.3,0.6-0.5c1-0.6,2.2,1.4,3.1,0.8c0.5-0.3,0.7-1.2,1.2-1.1c0.3,0,0.5,0.3,0.7,0.6
			c0.4,0.4,1,0.4,1.5,0.1c0.2-0.1,0.4-0.3,0.6-0.4c0.6-0.1,1,0.8,1.6,0.7c0.3-0.1,0.5-0.4,0.8-0.4c0.2,0,0.4,0.2,0.6,0.3
			c0.5,0.3,1.1,0,1.3-0.6c0.2-0.6-0.1-1.4-0.6-1.5c-0.2-0.1-0.5,0-0.7,0c-1.5,0.1-3-0.1-4.4-0.7c-0.2,0.6-1,0.4-1.5,0.2
			c-0.5-0.3-1.4-0.2-1.3,0.5c-0.5-0.6-1-1-1.6-1.4c-0.2,0.3-0.4,0.6-0.5,0.9c-0.9-0.8-2.1-0.6-3.2-0.3c-0.5,0.1-1.2,0.4-1.4,1
			c-0.3-0.9-1.4-1.4-2.1-0.9c-0.3,0.2-0.5,0.5-0.8,0.4c-0.3-0.1-0.5-0.5-0.8-0.6c-0.5-0.3-1.1,0.3-1.7,0.4c-0.4,0-0.8-0.2-1.2-0.3
			c-0.4-0.1-0.9,0.3-0.9,0.8c-0.2-0.6-0.8-0.9-1.3-0.9c-0.5,0-1.1,0.1-1.6,0c-0.2-0.1-0.4-0.2-0.7-0.3c-0.5-0.1-1.1,0.6-1,1.3
			c-0.4-0.4-0.8-0.7-1.2-0.8c-0.5-0.1-1,0.2-1.1,0.7c-0.3-0.6-0.8-1.1-1.3-1c-0.6,0.1-0.9,1-0.6,1.6"/>
		<path id="XMLID_217_" class="st10" d="M78.4,89.5c-0.4,0.6,0.4,1.6,0.9,1.2c0.2-0.1,0.3-0.4,0.5-0.5c0.4-0.3,0.8,0.1,1.2,0.3
			c0.4,0.2,1.1,0,1-0.5c0.5,0.7,1.4,0.7,2.1,0.6c0.6-0.1,1.2-0.1,1.8-0.2c0.4,0,0.9-0.1,1-0.6c0.5,0.6,1.3,0.8,1.9,0.5
			c0.2-0.1,0.5-0.2,0.7-0.2c0.8,0,1.4,1.4,2.1,1.1c0.2-0.1,0.4-0.4,0.6-0.6c0.9-0.5,1.9,1.5,2.7,0.9c0.3-0.2,0.4-0.7,0.7-0.9
			c0.7-0.7,1.8,0.7,2.6,0.3c0.2-0.1,0.4-0.3,0.6-0.5c1-0.6,2.2,1.4,3.1,0.8c0.5-0.3,0.7-1.2,1.2-1.1c0.3,0,0.5,0.3,0.7,0.6
			c0.4,0.4,1,0.4,1.5,0.1c0.2-0.1,0.4-0.3,0.6-0.4c0.6-0.1,1,0.8,1.6,0.7c0.3-0.1,0.5-0.4,0.8-0.4c0.2,0,0.4,0.2,0.6,0.3
			c0.5,0.3,1.1,0,1.3-0.6c0.2-0.6-0.1-1.4-0.6-1.5c-0.2-0.1-0.5,0-0.7,0c-1.5,0.1-3-0.1-4.4-0.7c-0.2,0.6-1,0.4-1.5,0.2
			c-0.5-0.3-1.4-0.2-1.3,0.5c-0.5-0.6-1-1-1.6-1.4c-0.2,0.3-0.4,0.6-0.5,0.9c-0.9-0.8-2.1-0.6-3.2-0.3c-0.5,0.1-1.2,0.4-1.4,1
			c-0.3-0.9-1.4-1.4-2.1-0.9c-0.3,0.2-0.5,0.5-0.8,0.4c-0.3-0.1-0.5-0.5-0.8-0.6c-0.5-0.3-1.1,0.3-1.7,0.4c-0.4,0-0.8-0.2-1.2-0.3
			c-0.4-0.1-0.9,0.3-0.9,0.8c-0.2-0.6-0.8-0.9-1.3-0.9c-0.5,0-1.1,0.1-1.6,0c-0.2-0.1-0.4-0.2-0.7-0.3c-0.5-0.1-1.1,0.6-1,1.3
			c-0.4-0.4-0.8-0.7-1.2-0.8c-0.5-0.1-1,0.2-1.1,0.7c-0.3-0.6-0.8-1.1-1.3-1c-0.6,0.1-0.9,1-0.6,1.6"/>
		<path id="XMLID_198_" class="st10" d="M78.4,85.3c-0.4,0.6,0.4,1.6,0.9,1.2c0.2-0.1,0.3-0.4,0.5-0.5c0.4-0.3,0.8,0.1,1.2,0.3
			c0.4,0.2,1.1,0,1-0.5c0.5,0.7,1.4,0.7,2.1,0.6c0.6-0.1,1.2-0.1,1.8-0.2c0.4,0,0.9-0.1,1-0.6c0.5,0.6,1.3,0.8,1.9,0.5
			c0.2-0.1,0.5-0.2,0.7-0.2c0.8,0,1.4,1.4,2.1,1.1c0.2-0.1,0.4-0.4,0.6-0.6c0.9-0.5,1.9,1.5,2.7,0.9c0.3-0.2,0.4-0.7,0.7-0.9
			c0.7-0.7,1.8,0.7,2.6,0.3c0.2-0.1,0.4-0.3,0.6-0.5c1-0.6,2.2,1.4,3.1,0.8c0.5-0.3,0.7-1.2,1.2-1.1c0.3,0,0.5,0.3,0.7,0.6
			c0.4,0.4,1,0.4,1.5,0.1c0.2-0.1,0.4-0.3,0.6-0.4c0.6-0.1,1,0.8,1.6,0.7c0.3-0.1,0.5-0.4,0.8-0.4c0.2,0,0.4,0.2,0.6,0.3
			c0.5,0.3,1.1,0,1.3-0.6c0.2-0.6-0.1-1.4-0.6-1.5c-0.2-0.1-0.5,0-0.7,0c-1.5,0.1-3-0.1-4.4-0.7c-0.2,0.6-1,0.4-1.5,0.2
			c-0.5-0.3-1.4-0.2-1.3,0.5c-0.5-0.6-1-1-1.6-1.4c-0.2,0.3-0.4,0.6-0.5,0.9c-0.9-0.8-2.1-0.6-3.2-0.3c-0.5,0.1-1.2,0.4-1.4,1
			c-0.3-0.9-1.4-1.4-2.1-0.9c-0.3,0.2-0.5,0.5-0.8,0.4c-0.3-0.1-0.5-0.5-0.8-0.6c-0.5-0.3-1.1,0.3-1.7,0.4c-0.4,0-0.8-0.2-1.2-0.3
			c-0.4-0.1-0.9,0.3-0.9,0.8c-0.2-0.6-0.8-0.9-1.3-0.9c-0.5,0-1.1,0.1-1.6,0c-0.2-0.1-0.4-0.2-0.7-0.3c-0.5-0.1-1.1,0.6-1,1.3
			c-0.4-0.4-0.8-0.7-1.2-0.8c-0.5-0.1-1,0.2-1.1,0.7c-0.3-0.6-0.8-1.1-1.3-1c-0.6,0.1-0.9,1-0.6,1.6"/>
		<path id="XMLID_197_" class="st10" d="M78.4,81.1c-0.4,0.6,0.4,1.6,0.9,1.2c0.2-0.1,0.3-0.4,0.5-0.5c0.4-0.3,0.8,0.1,1.2,0.3
			c0.4,0.2,1.1,0,1-0.5c0.5,0.7,1.4,0.7,2.1,0.6c0.6-0.1,1.2-0.1,1.8-0.2c0.4,0,0.9-0.1,1-0.6c0.5,0.6,1.3,0.8,1.9,0.5
			c0.2-0.1,0.5-0.2,0.7-0.2c0.8,0,1.4,1.4,2.1,1.1c0.2-0.1,0.4-0.4,0.6-0.6c0.9-0.5,1.9,1.5,2.7,0.9c0.3-0.2,0.4-0.7,0.7-0.9
			c0.7-0.7,1.8,0.7,2.6,0.3c0.2-0.1,0.4-0.4,0.6-0.5c1-0.6,2.2,1.4,3.1,0.8c0.5-0.3,0.7-1.2,1.2-1.1c0.3,0,0.5,0.3,0.7,0.6
			c0.4,0.4,1,0.4,1.5,0.1c0.2-0.1,0.4-0.3,0.6-0.4c0.6-0.1,1,0.8,1.6,0.7c0.3-0.1,0.5-0.4,0.8-0.4c0.2,0,0.4,0.2,0.6,0.3
			c0.5,0.3,1.1,0,1.3-0.6c0.2-0.6-0.1-1.4-0.6-1.5c-0.2-0.1-0.5,0-0.7,0c-1.5,0.1-3-0.1-4.4-0.7c-0.2,0.6-1,0.4-1.5,0.2
			c-0.5-0.3-1.4-0.2-1.3,0.5c-0.5-0.6-1-1-1.6-1.4c-0.2,0.3-0.4,0.6-0.5,0.9c-0.9-0.8-2.1-0.6-3.2-0.3c-0.5,0.1-1.2,0.4-1.4,1
			c-0.3-0.9-1.4-1.4-2.1-0.9c-0.3,0.2-0.5,0.5-0.8,0.4c-0.3-0.1-0.5-0.5-0.8-0.6c-0.5-0.3-1.1,0.3-1.7,0.4c-0.4,0-0.8-0.2-1.2-0.3
			c-0.4-0.1-0.9,0.3-0.9,0.8c-0.2-0.6-0.8-0.9-1.3-0.9c-0.5,0-1.1,0.1-1.6,0c-0.2-0.1-0.4-0.2-0.7-0.3c-0.5-0.1-1.1,0.6-1,1.3
			c-0.4-0.4-0.8-0.7-1.2-0.8c-0.5-0.1-1,0.2-1.1,0.7c-0.3-0.6-0.8-1.1-1.3-1c-0.6,0.1-0.9,1-0.6,1.6"/>
		<path id="XMLID_196_" class="st10" d="M78.4,76.9c-0.4,0.6,0.4,1.6,0.9,1.2c0.2-0.1,0.3-0.4,0.5-0.5c0.4-0.3,0.8,0.1,1.2,0.3
			c0.4,0.2,1.1,0,1-0.5c0.5,0.7,1.4,0.7,2.1,0.6c0.6-0.1,1.2-0.1,1.8-0.2c0.4,0,0.9-0.1,1-0.6c0.5,0.6,1.3,0.8,1.9,0.5
			c0.2-0.1,0.5-0.2,0.7-0.2c0.8,0,1.4,1.4,2.1,1.1c0.2-0.1,0.4-0.4,0.6-0.6c0.9-0.5,1.9,1.5,2.7,0.9c0.3-0.2,0.4-0.7,0.7-0.9
			c0.7-0.7,1.8,0.7,2.6,0.3c0.2-0.1,0.4-0.3,0.6-0.5c1-0.6,2.2,1.4,3.1,0.8c0.5-0.3,0.7-1.2,1.2-1.1c0.3,0,0.5,0.3,0.7,0.6
			c0.4,0.4,1,0.4,1.5,0.1c0.2-0.1,0.4-0.4,0.6-0.4c0.6-0.1,1,0.8,1.6,0.7c0.3-0.1,0.5-0.4,0.8-0.4c0.2,0,0.4,0.2,0.6,0.3
			c0.5,0.3,1.1,0,1.3-0.6c0.2-0.6-0.1-1.4-0.6-1.5c-0.2-0.1-0.5,0-0.7,0c-1.5,0.1-3-0.1-4.4-0.7c-0.2,0.6-1,0.4-1.5,0.2
			c-0.5-0.3-1.4-0.2-1.3,0.5c-0.5-0.6-1-1-1.6-1.4c-0.2,0.3-0.4,0.6-0.5,0.9c-0.9-0.8-2.1-0.6-3.2-0.3c-0.5,0.1-1.2,0.4-1.4,1
			c-0.3-0.9-1.4-1.4-2.1-0.9c-0.3,0.2-0.5,0.5-0.8,0.4c-0.3-0.1-0.5-0.5-0.8-0.6c-0.5-0.3-1.1,0.3-1.7,0.4c-0.4,0-0.8-0.2-1.2-0.3
			c-0.4-0.1-0.9,0.3-0.9,0.8c-0.2-0.6-0.8-0.9-1.3-0.9c-0.5,0-1.1,0.1-1.6,0c-0.2-0.1-0.4-0.2-0.7-0.3c-0.5-0.1-1.1,0.6-1,1.3
			c-0.4-0.4-0.8-0.7-1.2-0.8c-0.5-0.1-1,0.2-1.1,0.7c-0.3-0.6-0.8-1.1-1.3-1c-0.6,0.1-0.9,1-0.6,1.6"/>
		<path id="XMLID_194_" class="st10" d="M78.4,72.7c-0.4,0.6,0.4,1.6,0.9,1.2c0.2-0.1,0.3-0.4,0.5-0.5c0.4-0.3,0.8,0.1,1.2,0.3
			c0.4,0.2,1.1,0,1-0.5c0.5,0.7,1.4,0.7,2.1,0.6c0.6-0.1,1.2-0.1,1.8-0.2c0.4,0,0.9-0.1,1-0.6c0.5,0.6,1.3,0.8,1.9,0.5
			c0.2-0.1,0.5-0.2,0.7-0.2c0.8,0,1.4,1.4,2.1,1.1c0.2-0.1,0.4-0.4,0.6-0.6c0.9-0.5,1.9,1.5,2.7,0.9c0.3-0.2,0.4-0.7,0.7-0.9
			c0.7-0.7,1.8,0.7,2.6,0.3c0.2-0.1,0.4-0.3,0.6-0.5c1-0.6,2.2,1.4,3.1,0.8c0.5-0.3,0.7-1.2,1.2-1.1c0.3,0,0.5,0.3,0.7,0.6
			c0.4,0.4,1,0.4,1.5,0.1c0.2-0.1,0.4-0.3,0.6-0.4c0.6-0.1,1,0.8,1.6,0.7c0.3-0.1,0.5-0.4,0.8-0.4c0.2,0,0.4,0.2,0.6,0.3
			c0.5,0.3,1.1,0,1.3-0.6c0.2-0.6-0.1-1.4-0.6-1.5c-0.2-0.1-0.5-0.1-0.7,0c-1.5,0.1-3-0.1-4.4-0.7c-0.2,0.6-1,0.4-1.5,0.2
			c-0.5-0.3-1.4-0.2-1.3,0.5c-0.5-0.6-1-1-1.6-1.4c-0.2,0.3-0.4,0.6-0.5,0.9c-0.9-0.8-2.1-0.6-3.2-0.3c-0.5,0.1-1.2,0.4-1.4,1
			c-0.3-0.9-1.4-1.4-2.1-0.9c-0.3,0.2-0.5,0.5-0.8,0.4c-0.3-0.1-0.5-0.5-0.8-0.6c-0.5-0.3-1.1,0.3-1.7,0.4c-0.4,0-0.8-0.2-1.2-0.3
			c-0.4-0.1-0.9,0.3-0.9,0.8c-0.2-0.6-0.8-0.9-1.3-0.9c-0.5,0-1.1,0.1-1.6,0c-0.2-0.1-0.4-0.2-0.7-0.3c-0.5-0.1-1.1,0.6-1,1.3
			c-0.4-0.4-0.8-0.7-1.2-0.8c-0.5-0.1-1,0.2-1.1,0.7c-0.3-0.6-0.8-1.1-1.3-1c-0.6,0.1-0.9,1-0.6,1.6"/>
		<path id="XMLID_192_" class="st10" d="M78.4,68.6c-0.4,0.6,0.4,1.6,0.9,1.2c0.2-0.1,0.3-0.4,0.5-0.5c0.4-0.3,0.8,0.1,1.2,0.3
			c0.4,0.2,1.1,0,1-0.5c0.5,0.7,1.4,0.7,2.1,0.6c0.6-0.1,1.2-0.1,1.8-0.2c0.4,0,0.9-0.1,1-0.6c0.5,0.6,1.3,0.8,1.9,0.5
			c0.2-0.1,0.5-0.2,0.7-0.2c0.8,0,1.4,1.4,2.1,1.1c0.2-0.1,0.4-0.4,0.6-0.6c0.9-0.5,1.9,1.5,2.7,0.9c0.3-0.2,0.4-0.7,0.7-0.9
			c0.7-0.7,1.8,0.7,2.6,0.3c0.2-0.1,0.4-0.3,0.6-0.5c1-0.6,2.2,1.4,3.1,0.8c0.5-0.3,0.7-1.2,1.2-1.1c0.3,0,0.5,0.3,0.7,0.6
			c0.4,0.4,1,0.4,1.5,0.1c0.2-0.1,0.4-0.3,0.6-0.4c0.6-0.1,1,0.8,1.6,0.7c0.3-0.1,0.5-0.4,0.8-0.4c0.2,0,0.4,0.2,0.6,0.3
			c0.5,0.3,1.1,0,1.3-0.6c0.2-0.6-0.1-1.4-0.6-1.5c-0.2-0.1-0.5,0-0.7,0c-1.5,0.1-3-0.1-4.4-0.7c-0.2,0.6-1,0.4-1.5,0.2
			c-0.5-0.3-1.4-0.2-1.3,0.5c-0.5-0.6-1-1-1.6-1.4c-0.2,0.3-0.4,0.6-0.5,0.9c-0.9-0.8-2.1-0.6-3.2-0.3c-0.5,0.1-1.2,0.4-1.4,1
			c-0.3-0.9-1.4-1.4-2.1-0.9c-0.3,0.2-0.5,0.5-0.8,0.4c-0.3-0.1-0.5-0.5-0.8-0.6c-0.5-0.3-1.1,0.3-1.7,0.4c-0.4,0-0.8-0.2-1.2-0.3
			c-0.4-0.1-0.9,0.3-0.9,0.8c-0.2-0.6-0.8-0.9-1.3-0.9c-0.5,0-1.1,0.1-1.6,0c-0.2-0.1-0.4-0.2-0.7-0.3c-0.5-0.1-1.1,0.6-1,1.3
			c-0.4-0.4-0.8-0.7-1.2-0.8c-0.5-0.1-1,0.2-1.1,0.7c-0.3-0.6-0.8-1.1-1.3-1c-0.6,0.1-0.9,1-0.6,1.6"/>
		<path id="XMLID_178_" class="st10" d="M78.4,64.4C78,65,78.8,66,79.3,65.6c0.2-0.1,0.3-0.4,0.5-0.5c0.4-0.3,0.8,0.1,1.2,0.3
			c0.4,0.2,1.1,0,1-0.5c0.5,0.7,1.4,0.7,2.1,0.6c0.6-0.1,1.2-0.1,1.8-0.2c0.4,0,0.9-0.1,1-0.6c0.5,0.6,1.3,0.8,1.9,0.5
			c0.2-0.1,0.5-0.2,0.7-0.2c0.8,0,1.4,1.4,2.1,1.1c0.2-0.1,0.4-0.4,0.6-0.6c0.9-0.5,1.9,1.5,2.7,0.9c0.3-0.2,0.4-0.7,0.7-0.9
			c0.7-0.7,1.8,0.7,2.6,0.3c0.2-0.1,0.4-0.3,0.6-0.5c1-0.6,2.2,1.4,3.1,0.8c0.5-0.3,0.7-1.2,1.2-1.1c0.3,0,0.5,0.3,0.7,0.6
			c0.4,0.4,1,0.4,1.5,0.1c0.2-0.1,0.4-0.3,0.6-0.4c0.6-0.1,1,0.8,1.6,0.7c0.3-0.1,0.5-0.4,0.8-0.4c0.2,0,0.4,0.2,0.6,0.3
			c0.5,0.3,1.1,0,1.3-0.6c0.2-0.6-0.1-1.4-0.6-1.5c-0.2-0.1-0.5,0-0.7,0c-1.5,0.1-3-0.1-4.4-0.7c-0.2,0.6-1,0.4-1.5,0.2
			c-0.5-0.3-1.4-0.2-1.3,0.5c-0.5-0.6-1-1-1.6-1.4c-0.2,0.3-0.4,0.6-0.5,0.9c-0.9-0.8-2.1-0.6-3.2-0.3c-0.5,0.1-1.2,0.4-1.4,1
			c-0.3-0.9-1.4-1.4-2.1-0.9c-0.3,0.2-0.5,0.5-0.8,0.4c-0.3-0.1-0.5-0.5-0.8-0.6c-0.5-0.3-1.1,0.3-1.7,0.4c-0.4,0-0.8-0.2-1.2-0.3
			c-0.4-0.1-0.9,0.3-0.9,0.8c-0.2-0.6-0.8-0.9-1.3-0.9c-0.5,0-1.1,0.1-1.6,0c-0.2-0.1-0.4-0.2-0.7-0.3c-0.5-0.1-1.1,0.6-1,1.3
			c-0.4-0.4-0.8-0.7-1.2-0.8c-0.5-0.1-1,0.2-1.1,0.7c-0.3-0.6-0.8-1.1-1.3-1c-0.6,0.1-0.9,1-0.6,1.6"/>
		<path id="XMLID_175_" class="st9" d="M78,107.5c-1-2.5-0.1-5.9,1.9-7.3c1.5-1,3.3-0.9,5-0.8c7.2,0.5,14.5,1,21.7,1.5
			c0.9,0.1,1.8,0.1,2.6,0.6c0.8,0.4,0.3,3.3-0.2,2.3c-0.2-0.5,1.1,2.3,0.2,3.3c-0.8,0.9-2.1,0.6-3.2,0.7c-5.3,0.2-10.8,0.3-16-1.1
			c-1.6-0.4-3.3-1-4.9-0.7c-1.3,0.3-2.4,1.1-3.6,1.7c-1.2,0.6-2.6,0.9-3.8,0.1"/>
		<path id="XMLID_107_" class="st8" d="M78.3,103.7c-1.2-1.3-0.7-3.4-1-5.3c-0.2-1.2-0.2-2.6,0.6-3.3c0.5-0.5,1.3-0.6,2-0.6
			c7.5-0.2,14.9-0.4,22.4-0.7c1.1,0,2.2-0.1,3.3,0c1.6,0.1,5.4-1.4,5.4,0.6c0.1,4.1-0.5,5.1-0.8,8.6c-0.2,2.6-6.1,1-8.2,0.8
			c-7.7-0.5-15.4-2.6-22.9-0.5"/>
		<path id="XMLID_78_" class="st11" d="M81.7,54.8c8.4-0.5,16.9-1.1,25.3-1.8c0-1.6-0.4-3.2-0.7-4.9c-0.7-4.8,0.2-9.6,0.4-14.4
			c0.1-2.3,0.1-4.6,0-6.8c-0.1-2.7-0.2-5.4-0.3-8c0-0.2,0-0.3-0.1-0.5c-0.1-0.2-0.3-0.2-0.5-0.3c-5.4-1.5-11,0.4-16.6,0.7
			c-2.4,0.1-4.8-0.1-7,0.7c-0.2,0.1-0.3,0.1-0.4,0.3c-0.2,0.2-0.2,0.6-0.1,0.9c0.6,11.3,0.8,22.7-0.3,34"/>
	</g>
</g>
</svg>
