<?xml version="1.0" encoding="utf-8"?>
<!-- Generator: Adobe Illustrator 18.1.0, SVG Export Plug-In . SVG Version: 6.00 Build 0)  -->
<svg version="1.1" id="Layer_1" xmlns="http://www.w3.org/2000/svg" xmlns:xlink="http://www.w3.org/1999/xlink" x="0px" y="0px"
	 viewBox="0 0 113.7 102.1" style="enable-background:new 0 0 113.7 102.1;" xml:space="preserve">
<style type="text/css">
	.st0{fill:#FFFFFF;}
	.st1{fill:#0071FC;}
	.st2{fill:none;stroke:#001D2D;stroke-width:2;stroke-linecap:round;stroke-linejoin:round;stroke-miterlimit:10;}
	.st3{fill:#F4D49D;}
	.st4{fill:#44612D;}
	.st5{fill:#9BC53D;}
	.st6{fill:#CDCED0;}
	.st7{fill:#E7E9E6;}
	.st8{fill:#C9A877;}
	.st9{fill:#D2A12A;}
	.st10{fill:#EEA820;}
	.st11{fill:#6E1F3F;}
	.st12{fill:#2AAAE2;}
	.st13{fill:#25809A;}
	.st14{fill:#F48CA3;}
	.st15{fill:#BD294C;}
	.st16{fill:#6B3315;}
	.st17{fill:#ED2024;}
	.st18{fill:#FFCB0B;}
	.st19{fill:#412312;}
	.st20{fill:#282A73;}
	.st21{fill:#228099;}
	.st22{fill:#0000B2;}
	.st23{fill:#FFCB05;}
	.st24{fill:#EFA803;}
	.st25{fill:#D16502;}
	.st26{fill:#902924;}
	.st27{fill:#B71A25;}
	.st28{fill:#FF0005;}
	.st29{fill:#AD8104;}
	.st30{fill:#FFDB9C;}
	.st31{fill:#FFEDD4;}
	.st32{fill:#D3A100;}
	.st33{fill:#006837;}
	.st34{fill:#ED1C24;}
	.st35{fill:#6D6C73;}
	.st36{fill:#BFBEBE;}
	.st37{fill:#FFF5D9;}
	.st38{fill:#FF5005;}
	.st39{fill:#F26636;}
	.st40{fill:#EC2227;}
	.st41{fill:#2C3A96;}
	.st42{fill:#B72027;}
	.st43{fill:#C89754;}
	.st44{fill:#F19121;}
	.st45{fill:#FDEB07;}
	.st46{fill:#FEC045;}
	.st47{fill:#732644;}
	.st48{fill:#BB1E72;}
	.st49{fill:#AD832D;}
	.st50{fill:#08549E;}
	.st51{fill:#416FB6;}
	.st52{fill:#9A3D21;}
	.st53{fill:#BD4D27;}
</style>
<g id="XMLID_502_">
	<g id="_x2B__12_">
		<line id="XMLID_576_" class="st2" x1="63.2" y1="58.6" x2="47.2" y2="58.6"/>
		<line id="XMLID_575_" class="st2" x1="55.2" y1="66.6" x2="55.2" y2="50.6"/>
	</g>
	<g id="XMLID_538_">
		<path id="XMLID_574_" class="st52" d="M26.6,13.6c1.6,3.7,2.5,8.1,4.3,11.6c0.9,1.8,2.1,3.5,2.6,5.6c0.2,1,0.3,2,0.5,3
			c0.2,1,0.5,1.8,0.8,2.7c1,3.1,1.9,6.3,2.2,9.8c0.9,8.7-1.3,19.1-3.7,27.8c-2.5,9-6.9,17.6-12.6,24.2c-1.5,1.7-3.2,3.4-5,3.7
			c-1.6,0.2-3-0.6-4.2-1.8c-1.3-1.2-2.4-2.7-3.2-4.5c-1.1-2.3-1.8-5-2.5-7.6C2.1,74.9-1.4,60.9,0.6,46c0.7-5.3,2.1-10.6,3.6-15.8
			c2.8-9.5,6.1-18.8,10-27.9C15,0.2,15.8-0.6,17,0.5c1.3,1.2,2.5,2.6,3.7,4C23,7.2,25.1,10.1,26.6,13.6"/>
		<path id="XMLID_573_" class="st53" d="M18.6,17.1c-0.8,2.3-0.6,4.8-0.7,7.2c0,1.4-0.2,2.9-0.3,4.4c-0.5,4.8-1.1,9.9-3.5,13.9
			c-2.3,3.7-5.8,5.6-9,7.4c0.2-2.6,0.7-5.2,1.2-7.8c1-5,2-10.1,4.4-14.4c0.7-1.3,1.6-2.5,2.5-3.7l4.5-6.3
			C17.9,17.2,18.3,17.4,18.6,17.1"/>
		<path id="XMLID_571_" class="st53" d="M22.8,44.9c0.6,6.4-1,13.5-4.3,19.2c-0.5,0.9-1.1,1.8-1.8,2.6c-1,1-2.1,1.7-3.2,2.3
			l-4.8,2.8c-0.2,0.1-0.4,0.2-0.6,0.2c-0.2,0-0.3-0.2-0.5-0.3c-1.2-1.5-1.3-4-0.8-6.3c0.5-2.3,1.6-4.3,2.7-6.3
			c1.7-3.1,3.6-6,5.5-8.9c1-1.5,2-2.9,3.3-3.8C19.8,45.5,21.3,45.3,22.8,44.9"/>
		<path id="XMLID_540_" class="st53" d="M25.7,61.3c-1,3.7-1.8,7.5-2.4,11.3c-0.4,2.6-0.8,5.3-2,7.5c-1.2,2.4-3.3,4-5.3,5.1
			c-2,1.1-4.1,1.7-6.2,2.6C9.4,84,11.5,80,13.4,76.6c1.2-2,2.3-4.1,3.7-5.8c1.8-2.2,4-3.8,5.8-6.1c0.9-1.2,1.7-2.7,2.8-3.6"/>
		<path id="XMLID_539_" class="st53" d="M27,77.3c-0.3,3.8-1.2,7.6-2.6,11.1c-0.3,0.6-0.5,1.3-1,1.8c-0.3,0.4-0.7,0.7-1.1,0.9
			c-2.9,2-6.1,3.4-9.2,3.9c-0.4,0.1-0.8,0-0.9-0.4c-0.1-0.5,0.4-1,0.8-1.3c2-1.6,3.5-4.1,5.1-6.4c1.5-2.1,3.2-4.1,4.9-6
			c1.1-1.2,2.1-2.5,3.2-3.7c0.2-0.2,0.4-0.5,0.7-0.5C27.1,76.8,27.2,77.2,27,77.3"/>
	</g>
	<g id="XMLID_532_">
		<path id="XMLID_537_" class="st52" d="M103.1,13.6c1.6,3.7,2.5,8.1,4.3,11.6c0.9,1.8,2.1,3.5,2.6,5.6c0.2,1,0.3,2,0.5,3
			c0.2,1,0.5,1.8,0.8,2.7c1,3.1,1.9,6.3,2.2,9.8c0.9,8.7-1.3,19.1-3.7,27.8c-2.5,9-6.9,17.6-12.6,24.2c-1.5,1.7-3.2,3.4-5,3.7
			c-1.6,0.2-3-0.6-4.2-1.8c-1.3-1.2-2.4-2.7-3.2-4.5c-1.1-2.3-1.8-5-2.5-7.6c-3.5-13.3-7-27.3-5.1-42.2c0.7-5.3,2.1-10.6,3.6-15.8
			c2.8-9.5,6.1-18.8,10-27.9c0.9-2.1,1.6-2.9,2.9-1.8c1.3,1.2,2.5,2.6,3.7,4C99.5,7.2,101.6,10.1,103.1,13.6"/>
		<path id="XMLID_536_" class="st53" d="M95.2,17.1c-0.8,2.3-0.6,4.8-0.7,7.2c0,1.4-0.2,2.9-0.3,4.4c-0.5,4.8-1.1,9.9-3.5,13.9
			c-2.3,3.7-5.8,5.6-9,7.4c0.2-2.6,0.7-5.2,1.2-7.8c1-5,2-10.1,4.4-14.4c0.7-1.3,1.6-2.5,2.5-3.7l4.5-6.3
			C94.4,17.2,94.8,17.4,95.2,17.1"/>
		<path id="XMLID_535_" class="st53" d="M99.4,44.9c0.6,6.4-1,13.5-4.3,19.2c-0.5,0.9-1.1,1.8-1.8,2.6c-1,1-2.1,1.7-3.2,2.3
			l-4.8,2.8c-0.2,0.1-0.4,0.2-0.6,0.2c-0.2,0-0.3-0.2-0.5-0.3c-1.2-1.5-1.3-4-0.8-6.3c0.5-2.3,1.6-4.3,2.7-6.3
			c1.7-3.1,3.6-6,5.5-8.9c1-1.5,2-2.9,3.3-3.8C96.4,45.5,97.9,45.3,99.4,44.9"/>
		<path id="XMLID_632_" class="st53" d="M102.2,61.3c-1,3.7-1.8,7.5-2.4,11.3c-0.4,2.6-0.8,5.3-2,7.5c-1.2,2.4-3.3,4-5.3,5.1
			c-2,1.1-4.1,1.7-6.2,2.6C85.9,84,88,80,89.9,76.6c1.2-2,2.3-4.1,3.7-5.8c1.8-2.2,4-3.8,5.8-6.1c0.9-1.2,1.7-2.7,2.8-3.6"/>
		<path id="XMLID_638_" class="st53" d="M103.5,77.3c-0.3,3.8-1.2,7.6-2.6,11.1c-0.3,0.6-0.5,1.3-1,1.8c-0.3,0.4-0.7,0.7-1.1,0.9
			c-2.9,2-6.1,3.4-9.2,3.9c-0.4,0.1-0.8,0-0.9-0.4c-0.1-0.5,0.4-1,0.8-1.3c2-1.6,3.5-4.1,5.1-6.4c1.5-2.1,3.2-4.1,4.9-6
			c1.1-1.2,2.1-2.5,3.2-3.7c0.2-0.2,0.4-0.5,0.7-0.5C103.6,76.8,103.8,77.2,103.5,77.3"/>
	</g>
</g>
</svg>
