<?xml version="1.0" encoding="utf-8"?>
<!-- Generator: Adobe Illustrator 18.1.0, SVG Export Plug-In . SVG Version: 6.00 Build 0)  -->
<svg version="1.1" id="Layer_1" xmlns="http://www.w3.org/2000/svg" xmlns:xlink="http://www.w3.org/1999/xlink" x="0px" y="0px"
	 viewBox="0 0 143.3 56.7" style="enable-background:new 0 0 143.3 56.7;" xml:space="preserve">
<style type="text/css">
	.st0{fill:#FFFFFF;}
	.st1{fill:#0071FC;}
	.st2{fill:none;stroke:#001D2D;stroke-width:2;stroke-linecap:round;stroke-linejoin:round;stroke-miterlimit:10;}
	.st3{fill:#F4D49D;}
	.st4{fill:#44612D;}
	.st5{fill:#9BC53D;}
	.st6{fill:#CDCED0;}
	.st7{fill:#E7E9E6;}
	.st8{fill:#C9A877;}
	.st9{fill:#D2A12A;}
	.st10{fill:#EEA820;}
	.st11{fill:#6E1F3F;}
	.st12{fill:#2AAAE2;}
	.st13{fill:#25809A;}
	.st14{fill:#F48CA3;}
	.st15{fill:#BD294C;}
	.st16{fill:#6B3315;}
	.st17{fill:#ED2024;}
	.st18{fill:#FFCB0B;}
	.st19{fill:#412312;}
	.st20{fill:#282A73;}
	.st21{fill:#228099;}
	.st22{fill:#0000B2;}
	.st23{fill:#FFCB05;}
	.st24{fill:#EFA803;}
	.st25{fill:#D16502;}
	.st26{fill:#902924;}
	.st27{fill:#B71A25;}
	.st28{fill:#FF0005;}
	.st29{fill:#AD8104;}
	.st30{fill:#FFDB9C;}
	.st31{fill:#FFEDD4;}
	.st32{fill:#D3A100;}
	.st33{fill:#006837;}
	.st34{fill:#ED1C24;}
	.st35{fill:#6D6C73;}
	.st36{fill:#BFBEBE;}
	.st37{fill:#FFF5D9;}
	.st38{fill:#FF5005;}
	.st39{fill:#F26636;}
	.st40{fill:#EC2227;}
	.st41{fill:#2C3A96;}
	.st42{fill:#B72027;}
	.st43{fill:#C89754;}
	.st44{fill:#F19121;}
	.st45{fill:#FDEB07;}
	.st46{fill:#FEC045;}
	.st47{fill:#732644;}
	.st48{fill:#BB1E72;}
	.st49{fill:#AD832D;}
	.st50{fill:#08549E;}
	.st51{fill:#416FB6;}
	.st52{fill:#9A3D21;}
	.st53{fill:#BD4D27;}
</style>
<g id="XMLID_634_">
	<g id="טונה_2_">
		<g id="XMLID_1553_">
			<path id="XMLID_334_" class="st35" d="M0.4,29.5c1.5-1.7,3.9-2.2,6.1-2.6c6.1-1,12.4-1.3,18.6-1.6c3.7-0.2,7.4-0.3,11.1-0.4
				c4.7,0,9.4,0.2,13.9,1.3c1.1,0.3,2.2,0.7,3.1,1.4c0.9,0.7,1.4,2,1.1,3c-0.5,1.6-2.4,2.1-4,2.3c-12.8,2-25.9,2.3-38.8,0.9
				C8.2,33.7,5,33.2,2,32.3c-0.7-0.2-1.4-0.5-1.8-1.1c-0.4-0.6-0.1-1.6,0.6-1.7"/>
		</g>
		<g id="XMLID_291_">
			<path id="XMLID_323_" class="st36" d="M2.8,29.8c2.9-1.8,6.6-1.9,10-2c5-0.2,10-0.3,15-0.2c8.1,0.2,16.1-1.8,24.1,1.8
				c0.2,0.4,0.1,0.9-0.2,1.2c-0.3,0.3-0.8,0.5-1.2,0.6c-4.7,1.3-9.7,1.3-14.6,1.3c-5.5,0-11,0-16.5-0.1c-2.1,0-4.1,0-6.1-0.4
				c-3.5-0.6-8.8-0.7-10.2-2.3"/>
		</g>
		<g id="XMLID_1547_">
			<path id="XMLID_321_" class="st3" d="M54.2,30.9c-0.3,6.4-0.8,12.8-1.4,19.2c-3.2-0.2-6.1,2-9.3,2.7c-2.1,0.5-4.4,0.2-6.5,0.3
				c-1.9,0.1-3.7,0.4-5.5,0.7c-5.8,0.8-11.7,0.5-17.5-0.3c-3.8-0.5-7.6-1.2-10.9-3.1c-0.5-0.3-0.9-0.6-1.3-1c-0.7-1-0.4-2.4-0.1-3.6
				c1-4.6,0.7-9.5-0.8-14c13.1,2.5,26.6,2.4,39.9,2.4c2.1,0,4.1,0,6.2-0.2c2.6-0.3,5.3-0.9,7.2-2.8"/>
		</g>
		<g id="XMLID_290_">
			<path id="XMLID_318_" class="st35" d="M52.9,50.2c-1,1.8-2.7,3.1-4.6,4c-1.9,0.8-3.9,1.2-5.9,1.5c-7.2,1-14.4,1-21.7,1
				c-2.3,0-4.6,0-6.8-0.4c-2.1-0.4-4.2-1.2-6.3-1.6c-1.5-0.3-3-0.5-4.3-1.3s-2.2-2.4-1.7-3.8c3.5,2.2,7.6,3,11.7,3.5
				C26.6,54.7,39.5,53,52.9,50.2"/>
		</g>
		<g id="XMLID_1541_">
			<path id="XMLID_315_" class="st33" d="M1.9,44.1c2.8-1,5.7-1.5,8.6-1.5c0.5,0,0.9,0,1.3,0.3c0.2,0.2,0.4,0.5,0.6,0.7
				c0.9,1.2,2.6,1.6,4.1,1.3s2.9-0.9,4.3-1.4c2.4-0.9,5.1-1.3,7.7-1.3c0.8,0,1.7,0.2,2,0.9c0.2,0.6-0.1,1.3,0.1,1.9
				c0.3,0.6,1,0.7,1.7,0.8c1.8,0.2,3.7,0.4,5.4-0.1c1.5-0.5,2.9-1.5,4.4-2c1.3-0.5,2.8-0.6,4.2-0.4c0.4,0.1,0.8,0.2,1.1,0.4
				c0.4,0.3,0.5,0.8,0.9,1.2c0.5,0.6,1.4,0.8,2.2,0.7c0.6,0,1.3-0.2,1.8,0c0.8,0.3,1.2,1.3,1.1,2.2c-0.1,0.9,0.2,1.6-0.3,2.3
				c-5.9,1.4-12.6,2.9-18.6,3.5c-10.7,1.2-21.6,0.1-31.9-3.2c-0.5-0.2-1-0.3-1.3-0.8C0.9,49.4,1,48.9,1,48.4
				C1.1,46.7,1.5,45.7,1.9,44.1"/>
		</g>
	</g>
	<g id="טונה_1_">
		<g id="XMLID_289_">
			<path id="XMLID_320_" class="st35" d="M89.4,29.5c1.5-1.7,3.9-2.2,6.1-2.6c6.1-1,12.4-1.3,18.6-1.6c3.7-0.2,7.4-0.3,11.1-0.4
				c4.7,0,9.4,0.2,13.9,1.3c1.1,0.3,2.2,0.7,3.1,1.4c0.9,0.7,1.4,2,1.1,3c-0.5,1.6-2.4,2.1-4,2.3c-12.8,2-25.9,2.3-38.8,0.9
				c-3.2-0.3-6.3-0.8-9.4-1.7c-0.7-0.2-1.4-0.5-1.8-1.1c-0.4-0.6-0.1-1.6,0.6-1.7"/>
		</g>
		<g id="XMLID_288_">
			<path id="XMLID_312_" class="st36" d="M91.8,29.8c2.9-1.8,6.6-1.9,10-2c5-0.2,10-0.3,15-0.2c8.1,0.2,16.1-1.8,24.1,1.8
				c0.2,0.4,0.1,0.9-0.2,1.2s-0.8,0.5-1.2,0.6c-4.7,1.3-9.7,1.3-14.6,1.3c-5.5,0-11,0-16.5-0.1c-2.1,0-4.1,0-6.1-0.4
				c-3.5-0.6-8.8-0.7-10.2-2.3"/>
		</g>
		<g id="XMLID_287_">
			<path id="XMLID_329_" class="st3" d="M143.2,30.9c-0.3,6.4-0.8,12.8-1.4,19.2c-3.2-0.2-6.1,2-9.3,2.7c-2.1,0.5-4.4,0.2-6.5,0.3
				c-1.9,0.1-3.7,0.4-5.5,0.7c-5.8,0.8-11.7,0.5-17.5-0.3c-3.8-0.5-7.6-1.2-10.9-3.1c-0.5-0.3-0.9-0.6-1.3-1c-0.7-1-0.4-2.4-0.1-3.6
				c1-4.6,0.7-9.5-0.8-14c13.1,2.5,26.6,2.4,39.9,2.4c2.1,0,4.1,0,6.2-0.2c2.6-0.3,5.3-0.9,7.2-2.8"/>
		</g>
		<g id="XMLID_244_">
			<path id="XMLID_309_" class="st35" d="M141.9,50.2c-1,1.8-2.7,3.1-4.6,4c-1.9,0.8-3.9,1.2-5.9,1.5c-7.2,1-14.4,1-21.7,1
				c-2.3,0-4.6,0-6.8-0.4c-2.1-0.4-4.2-1.2-6.3-1.6c-1.5-0.3-3-0.5-4.3-1.3s-2.2-2.4-1.7-3.8c3.5,2.2,7.6,3,11.7,3.5
				C115.6,54.7,128.5,53,141.9,50.2"/>
		</g>
		<g id="XMLID_120_">
			<path id="XMLID_308_" class="st33" d="M90.9,44.1c2.8-1,5.7-1.5,8.6-1.5c0.5,0,0.9,0,1.3,0.3c0.2,0.2,0.4,0.5,0.6,0.7
				c0.9,1.2,2.6,1.6,4.1,1.3c1.5-0.2,2.9-0.9,4.3-1.4c2.4-0.9,5.1-1.3,7.7-1.3c0.8,0,1.7,0.2,2,0.9c0.2,0.6-0.1,1.3,0.1,1.9
				c0.3,0.6,1,0.7,1.7,0.8c1.8,0.2,3.7,0.4,5.4-0.1c1.5-0.5,2.9-1.5,4.4-2c1.3-0.5,2.8-0.6,4.2-0.4c0.4,0.1,0.8,0.2,1.1,0.4
				c0.4,0.3,0.5,0.8,0.9,1.2c0.5,0.6,1.4,0.8,2.2,0.7c0.6,0,1.3-0.2,1.8,0c0.8,0.3,1.2,1.3,1.1,2.2c-0.1,0.9,0.2,1.6-0.3,2.3
				c-5.9,1.4-12.6,2.9-18.6,3.5c-10.7,1.2-21.6,0.1-31.9-3.2c-0.5-0.2-1-0.3-1.3-0.8c-0.3-0.4-0.2-0.9-0.2-1.4
				C90.1,46.7,90.5,45.7,90.9,44.1"/>
		</g>
	</g>
	<g id="טונה">
		<g id="XMLID_109_">
			<path id="XMLID_333_" class="st35" d="M0.4,4.5c1.5-1.7,3.9-2.2,6.1-2.6c6.1-1,12.4-1.3,18.6-1.6C28.8,0.2,32.6,0,36.3,0
				c4.7,0,9.4,0.2,13.9,1.3c1.1,0.3,2.2,0.7,3.1,1.4c0.9,0.7,1.4,2,1.1,3c-0.5,1.6-2.4,2.1-4,2.3c-12.8,2-25.9,2.3-38.8,0.9
				C8.2,8.7,5,8.2,2,7.3C1.3,7.1,0.6,6.8,0.2,6.1S0,4.5,0.8,4.4"/>
		</g>
		<g id="XMLID_98_">
			<path id="XMLID_306_" class="st36" d="M2.8,4.8c2.9-1.8,6.6-1.9,10-2c5-0.2,10-0.3,15-0.2c8.1,0.2,16.1-1.8,24.1,1.8
				c0.2,0.4,0.1,0.9-0.2,1.2c-0.3,0.3-0.8,0.5-1.2,0.6c-4.7,1.3-9.7,1.3-14.6,1.3c-5.5,0-11,0-16.5-0.1c-2.1,0-4.1,0-6.1-0.4
				C9.7,6.4,4.4,6.3,2.9,4.7"/>
		</g>
		<g id="XMLID_92_">
			<path id="XMLID_304_" class="st3" d="M54.2,5.9c-0.3,6.4-0.8,12.8-1.4,19.2c-3.2-0.2-6.1,2-9.3,2.7c-2.1,0.5-4.4,0.2-6.5,0.3
				c-1.9,0.1-3.7,0.4-5.5,0.7c-5.8,0.8-11.7,0.5-17.5-0.3c-3.8-0.5-7.6-1.2-10.9-3.1c-0.5-0.3-0.9-0.6-1.3-1c-0.7-1-0.4-2.4-0.1-3.6
				c1-4.6,0.7-9.5-0.8-14C14,9.3,27.4,9.3,40.8,9.3c2.1,0,4.1,0,6.2-0.2c2.6-0.3,5.3-0.9,7.2-2.8"/>
		</g>
		<g id="XMLID_77_">
			<path id="XMLID_302_" class="st35" d="M52.9,25.2c-1,1.8-2.7,3.1-4.6,4s-3.9,1.2-5.9,1.5c-7.2,1-14.4,1-21.7,1
				c-2.3,0-4.6,0-6.8-0.4c-2.1-0.4-4.2-1.2-6.3-1.6c-1.5-0.3-3-0.5-4.3-1.3s-2.2-2.4-1.7-3.8c3.5,2.2,7.6,3,11.7,3.5
				C26.6,29.7,39.5,28,52.9,25.2"/>
		</g>
		<g id="XMLID_292_">
			<path id="XMLID_326_" class="st33" d="M1.9,19.1c2.8-1,5.7-1.5,8.6-1.5c0.5,0,0.9,0,1.3,0.3c0.2,0.2,0.4,0.5,0.6,0.7
				c0.9,1.2,2.6,1.6,4.1,1.3c1.5-0.2,2.9-0.9,4.3-1.4c2.4-0.9,5.1-1.3,7.7-1.3c0.8,0,1.7,0.2,2,0.9c0.2,0.6-0.1,1.3,0.1,1.9
				c0.3,0.6,1,0.7,1.7,0.8c1.8,0.2,3.7,0.4,5.4-0.1c1.5-0.5,2.9-1.5,4.4-2c1.3-0.5,2.8-0.6,4.2-0.4c0.4,0.1,0.8,0.2,1.1,0.4
				c0.4,0.3,0.5,0.8,0.9,1.2c0.5,0.6,1.4,0.8,2.2,0.7c0.6,0,1.3-0.2,1.8,0c0.8,0.3,1.2,1.3,1.1,2.2s0.2,1.6-0.3,2.3
				c-5.9,1.4-12.6,2.9-18.6,3.5c-10.7,1.2-21.6,0.1-31.9-3.2c-0.5-0.2-1-0.3-1.3-0.8C0.9,24.4,1,23.9,1,23.4
				C1.1,21.7,1.5,20.7,1.9,19.1"/>
		</g>
	</g>
	<g id="_x2B__6_">
		<line id="XMLID_293_" class="st2" x1="82.6" y1="20.9" x2="66.6" y2="20.9"/>
		<line id="XMLID_294_" class="st2" x1="74.6" y1="28.9" x2="74.6" y2="12.9"/>
	</g>
</g>
</svg>
