<?xml version="1.0" encoding="utf-8"?>
<!-- Generator: Adobe Illustrator 18.1.0, SVG Export Plug-In . SVG Version: 6.00 Build 0)  -->
<svg version="1.1" id="Layer_1" xmlns="http://www.w3.org/2000/svg" xmlns:xlink="http://www.w3.org/1999/xlink" x="0px" y="0px"
	 viewBox="0 0 140.4 100.5" style="enable-background:new 0 0 140.4 100.5;" xml:space="preserve">
<style type="text/css">
	.st0{fill:#FFFFFF;}
	.st1{fill:#0071FC;}
	.st2{fill:none;stroke:#001D2D;stroke-width:2;stroke-linecap:round;stroke-linejoin:round;stroke-miterlimit:10;}
	.st3{fill:#F4D49D;}
	.st4{fill:#44612D;}
	.st5{fill:#9BC53D;}
	.st6{fill:#CDCED0;}
	.st7{fill:#E7E9E6;}
	.st8{fill:#C9A877;}
	.st9{fill:#D2A12A;}
	.st10{fill:#EEA820;}
	.st11{fill:#6E1F3F;}
	.st12{fill:#2AAAE2;}
	.st13{fill:#25809A;}
	.st14{fill:#F48CA3;}
	.st15{fill:#BD294C;}
	.st16{fill:#6B3315;}
	.st17{fill:#ED2024;}
	.st18{fill:#FFCB0B;}
	.st19{fill:#412312;}
	.st20{fill:#282A73;}
	.st21{fill:#228099;}
	.st22{fill:#0000B2;}
	.st23{fill:#FFCB05;}
	.st24{fill:#EFA803;}
	.st25{fill:#D16502;}
	.st26{fill:#902924;}
	.st27{fill:#B71A25;}
	.st28{fill:#FF0005;}
	.st29{fill:#AD8104;}
	.st30{fill:#FFDB9C;}
	.st31{fill:#FFEDD4;}
	.st32{fill:#D3A100;}
	.st33{fill:#006837;}
	.st34{fill:#ED1C24;}
	.st35{fill:#6D6C73;}
	.st36{fill:#BFBEBE;}
	.st37{fill:#FFF5D9;}
	.st38{fill:#FF5005;}
	.st39{fill:#F26636;}
	.st40{fill:#EC2227;}
	.st41{fill:#2C3A96;}
	.st42{fill:#B72027;}
	.st43{fill:#C89754;}
	.st44{fill:#F19121;}
	.st45{fill:#FDEB07;}
	.st46{fill:#FEC045;}
	.st47{fill:#732644;}
	.st48{fill:#BB1E72;}
	.st49{fill:#AD832D;}
	.st50{fill:#08549E;}
	.st51{fill:#416FB6;}
	.st52{fill:#9A3D21;}
	.st53{fill:#BD4D27;}
</style>
<g id="XMLID_636_">
	<g id="שמנת">
		<g id="XMLID_86_">
			<path id="XMLID_208_" class="st3" d="M117.7,66.8c-4.6,0-9.1,0-13.7,0c-2.3,0-4.6,0-6.8,0c-1.5,0-1.8,0.3-2-1.1c-0.1-1,0-2,0-3
				l-0.1-0.3c-0.3-1.6-0.7-3.2-0.4-4.8c0.2-1.6,1.2-3.2,2.7-3.7c0.7-0.3,1.4-0.3,2.2-0.3c11.5-0.2,23-0.4,34.5-0.6
				c1.3,0,2.7,0,3.8,0.8c1,0.8,1.6,2,1.6,3.2c0.2,7.3,0.2,13.4,0.4,20.2c0.2,5.9,1.1,12.1-0.6,17.9c-0.3,1.2-0.9,2.4-2,2.9
				c-0.8,0.4-1.7,0.4-2.6,0.4c-12.4,0.1-24.8,0.1-37.3,0.2c-0.8,0-1.8,0-2.3-0.7c-0.5-0.6-0.4-1.5-0.3-2.3c1.6-9.7,0.4-19,0.2-28.9"
				/>
		</g>
		<g id="XMLID_83_">
			<path id="XMLID_328_" class="st21" d="M94.9,63.2c14.9-0.1,29.8-0.2,44.6-0.2c0.6-2.7,0.7-5.4,0.5-8.1c0-0.4-0.1-0.9-0.4-1.2
				c-0.3-0.3-0.5-0.7-1-0.7c-4.1-0.3-8.6-0.1-12.7-0.2c-1.5,0-3,0-4.6,0.1c-1.2,0.1-3.1,0-4.3,0.2c-1.7,0.2-3.2-0.2-4.9-0.2
				c-5.1,0-9.9,0.7-15,0.7c-0.5,0-0.9,0-1.3,0.2c-0.7,0.4-0.9,1.4-1,2.2c-0.2,2.5-0.2,5,0.2,7.5"/>
		</g>
		<g id="XMLID_80_">
			<path id="XMLID_330_" class="st22" d="M95.4,67.5c12.9,0.1,25.9,0.1,38.8,0.2c1.5,0,3,0,4.5-0.2c0.2,0,0.8,0,1-0.2
				c0.1-0.2,0.2-0.3,0.2-0.5c0-0.7,0-1.2,0-2c0-0.5,0.2-2.5-0.3-2.5c-1.1-0.1-1.7,0-2.5,0c-11.8,0-23.6,0-35.5,0
				c-2,0-4.9-0.6-6.6,0.5c-0.3,0.2-0.2,1.9-0.2,2.2C94.8,65.5,94.8,66.1,95.4,67.5"/>
		</g>
		<g id="XMLID_74_">
			<path id="XMLID_332_" class="st6" d="M96.8,53.7c0-2.1,0-4.1,0-6.2c0-0.3,0-0.6,0.2-0.8c0.2-0.2,0.5-0.2,0.7-0.3
				c1.9-0.3,3.8-0.2,5.7-0.2c1.5,0,3.1,0,4.6,0c0.2,0,0.4,0,0.5,0.1c0.2,0.1,0.2,0.3,0.3,0.5c0.9,2.2,0.3,4.8,0.5,7.1
				c-4.1,0.1-8.2,0.1-12.3,0c-0.2,0-0.5-0.2-0.4-0.3"/>
		</g>
	</g>
	<g id="_x2B__4_">
		<line id="XMLID_68_" class="st2" x1="88.6" y1="70.5" x2="72.6" y2="70.5"/>
		<line id="XMLID_70_" class="st2" x1="80.6" y1="78.5" x2="80.6" y2="62.5"/>
	</g>
	<g id="XMLID_1337_">
		<g id="XMLID_11481_">
			<path id="XMLID_11812_" class="st23" d="M3.8,13.4c-1.2,7.4,1.4,16.7,1.8,24.3c0.2,4.1-0.2,8.2,0.5,12.2c0.5,2.9,1.6,6,0.7,8.8
				c-0.5,1.8-1.7,3.2-2.3,5c-0.5,1.8-0.2,3.8-0.1,5.7c0.4,6.3-0.8,12.7-3.6,18.3c18.1-3,36.6,0.9,54.9,0.1c0.3,0,0.6,0,0.8-0.3
				c0.2-0.2,0.2-0.4,0.2-0.7c0.1-1.8-1.1-3.4-1.9-5.1c-1.5-3.3-1.2-7-2-10.5c-0.8-3.6-2.8-7-2.7-10.6c0.1-1.7,0.6-3.4,1-5
				c1.9-7.4,1.9-15.1,2.1-22.7c0.2-6.1,0.5-12.4,3.7-17.7c-6.6-2.8-11.7-0.2-17.8-0.6c-4-0.2-8.4,0.7-12.3,0.2
				c-7.7-0.8-14-2.7-21.6-1.5"/>
			<g id="XMLID_11482_">
				<g id="XMLID_11805_">
					<path id="XMLID_11809_" class="st24" d="M51.3,17.1c-0.2,0.9-1.1,1.5-2,1.8c-0.9,0.2-1.8,0.1-2.8,0c-3.7-0.3-7.5,0-11.1,0.9
						c0.5-0.3,1-0.6,1.5-1c0.3-0.2,0.7-0.4,0.8-0.8c0.1-0.4-1-0.9-1.4-0.8C41,16.7,46.6,17,51.3,17.1"/>
					<path id="XMLID_11806_" class="st25" d="M35.2,19.7c0.9,0.1,0.8,0,1.2-0.3c0.3-0.2,0.6-0.4,0.9-0.6c0.2-0.1,0.3-0.2,0.4-0.3
						c0.2-0.4-0.1-0.9-0.5-1.1c-0.5-0.2-1.1-0.2-1.5,0c-0.4,0.2-0.7,0.6-1,0.9c-0.2,0.3-0.3,0.5-0.3,0.8
						C34.5,19.4,34.9,19.7,35.2,19.7"/>
				</g>
				<g id="XMLID_11798_">
					<path id="XMLID_11802_" class="st24" d="M6.9,55.4c-0.7-0.6-0.8-1.7-0.5-2.6c0.3-0.9,0.9-1.6,1.4-2.4c2.2-3,3.9-6.4,4.9-10
						c0,0.6,0,1.2,0.1,1.8c0,0.4,0,0.8,0.3,1.1s1.3-0.4,1.4-0.8C12.4,46.8,9.4,51.4,6.9,55.4"/>
					<path id="XMLID_11799_" class="st25" d="M12.9,40.3c-0.6,0.7-0.4,0.7-0.4,1.2c0,0.3,0,0.7,0,1c0,0.2,0,0.4,0.1,0.5
						c0.2,0.4,0.8,0.4,1.3,0.1c0.4-0.3,0.7-0.8,0.7-1.3c0-0.5-0.1-0.9-0.3-1.3c-0.1-0.3-0.3-0.6-0.6-0.7
						C13.5,39.8,13,39.9,12.9,40.3"/>
				</g>
				<g id="XMLID_11791_">
					<path id="XMLID_11795_" class="st24" d="M49,34.9c0.8,0.4,1.3,1.4,1.3,2.3c0,0.9-0.3,1.8-0.6,2.7c-1.2,3.5-1.7,7.3-1.7,11
						c-0.2-0.6-0.4-1.1-0.6-1.7c-0.1-0.4-0.3-0.7-0.6-0.9c-0.3-0.2-1.1,0.8-1.1,1.1C46.3,44.8,47.8,39.5,49,34.9"/>
					<path id="XMLID_11792_" class="st25" d="M47.8,51.1c0.3-0.8,0.1-0.8,0-1.2c-0.1-0.3-0.2-0.7-0.4-1c-0.1-0.2-0.1-0.3-0.2-0.5
						c-0.3-0.3-0.9-0.2-1.2,0.3c-0.3,0.4-0.4,1-0.3,1.5c0.1,0.5,0.4,0.8,0.7,1.2c0.2,0.2,0.4,0.4,0.8,0.4
						C47.4,51.8,47.8,51.5,47.8,51.1"/>
				</g>
				<g id="XMLID_11784_">
					<path id="XMLID_11788_" class="st24" d="M55.7,16.1c-0.5,0.8-1.5,1.1-2.4,1s-1.8-0.5-2.6-0.9c-3.4-1.5-7.1-2.5-10.8-2.8
						c0.6-0.1,1.2-0.3,1.7-0.4c0.4-0.1,0.8-0.2,1-0.5c0.2-0.3-0.6-1.2-1-1.2C46.1,12.4,51.2,14.5,55.7,16.1"/>
					<path id="XMLID_11785_" class="st25" d="M39.6,13.2c0.8,0.4,0.8,0.2,1.2,0.1c0.3-0.1,0.7-0.2,1-0.2c0.2,0,0.4-0.1,0.5-0.2
						c0.3-0.3,0.2-0.9-0.1-1.3c-0.4-0.4-0.9-0.5-1.4-0.4c-0.5,0.1-0.9,0.3-1.2,0.6c-0.2,0.2-0.5,0.4-0.5,0.7
						C39,12.8,39.3,13.2,39.6,13.2"/>
				</g>
				<g id="XMLID_11776_">
					<path id="XMLID_11781_" class="st24" d="M4.1,8.8C5,8.6,5.9,9.1,6.5,9.8s0.9,1.6,1.2,2.5c1.2,3.5,3,6.8,5.3,9.8
						c-0.5-0.3-1-0.6-1.5-1c-0.3-0.2-0.7-0.4-1-0.4s-0.4,1.3-0.2,1.6C7.9,18.3,5.9,13.1,4.1,8.8"/>
					<path id="XMLID_11778_" class="st25" d="M13,22.4c-0.3-0.9-0.4-0.7-0.7-1c-0.3-0.2-0.6-0.4-0.9-0.6c-0.2-0.1-0.3-0.2-0.5-0.2
						c-0.4-0.1-0.8,0.4-0.8,1c0,0.5,0.3,1,0.6,1.3c0.4,0.3,0.8,0.4,1.2,0.5c0.3,0.1,0.6,0.1,0.9-0.1S13.2,22.7,13,22.4"/>
				</g>
				<g id="XMLID_11769_">
					<path id="XMLID_11773_" class="st24" d="M32,57c-0.6,0.7-1.7,0.8-2.6,0.6c-0.9-0.3-1.7-0.8-2.4-1.3c-3.1-2.1-6.5-3.7-10.1-4.7
						c0.6,0,1.2-0.1,1.8-0.1c0.4,0,0.8-0.1,1.1-0.3c0.3-0.3-0.4-1.3-0.8-1.4C23.2,51.7,27.9,54.6,32,57"/>
					<path id="XMLID_11770_" class="st25" d="M16.7,51.3c0.7,0.5,0.7,0.4,1.2,0.3c0.3,0,0.7,0,1-0.1c0.2,0,0.4,0,0.5-0.1
						c0.4-0.2,0.4-0.8,0.1-1.3c-0.3-0.4-0.8-0.7-1.3-0.7c-0.5,0-0.9,0.1-1.3,0.3c-0.3,0.1-0.5,0.3-0.6,0.6
						C16.2,50.8,16.4,51.2,16.7,51.3"/>
				</g>
				<g id="XMLID_11762_">
					<path id="XMLID_11766_" class="st24" d="M18.9,73.8c0.9-0.3,1.9,0.1,2.5,0.8c0.6,0.7,1,1.5,1.4,2.4c1.6,3.4,3.8,6.5,6.4,9.1
						c-0.5-0.3-1.1-0.5-1.6-0.8c-0.3-0.2-0.7-0.3-1.1-0.2c-0.4,0.1-0.3,1.3,0,1.6C23.8,82.8,21.2,77.9,18.9,73.8"/>
					<path id="XMLID_11763_" class="st25" d="M29.3,86.4c-0.4-0.8-0.5-0.7-0.8-0.9c-0.3-0.2-0.6-0.3-0.9-0.5
						c-0.2-0.1-0.3-0.2-0.5-0.2c-0.4,0-0.8,0.5-0.7,1c0,0.5,0.4,1,0.8,1.3c0.4,0.3,0.9,0.3,1.3,0.4c0.3,0,0.6,0,0.9-0.2
						S29.5,86.6,29.3,86.4"/>
				</g>
				<g id="XMLID_11755_">
					<path id="XMLID_11759_" class="st24" d="M50.9,32.8c-0.9-0.2-1.6-1-1.8-1.9S49,29,49.1,28.1c0.3-3.7-0.1-7.5-1-11.1
						c0.3,0.5,0.7,1,1,1.5c0.2,0.3,0.4,0.7,0.8,0.7s0.9-1,0.8-1.4C51.1,22.5,50.9,28.1,50.9,32.8"/>
					<path id="XMLID_11756_" class="st25" d="M48.1,16.7c-0.1,0.9,0.1,0.8,0.3,1.2c0.2,0.3,0.4,0.6,0.6,0.9c0.1,0.2,0.2,0.3,0.4,0.4
						c0.4,0.2,0.9-0.1,1.1-0.6c0.2-0.5,0.2-1.1-0.1-1.5c-0.2-0.4-0.6-0.7-0.9-1C49.2,16,49,15.9,48.7,16
						C48.4,16,48.1,16.4,48.1,16.7"/>
				</g>
				<g id="XMLID_11748_">
					<path id="XMLID_11752_" class="st24" d="M27.7,35.4c0.9,0.1,1.7,0.9,2,1.8s0.3,1.8,0.3,2.8c0.1,3.7,0.8,7.4,2.1,10.9
						c-0.4-0.5-0.8-0.9-1.1-1.4c-0.2-0.3-0.5-0.6-0.9-0.7s-0.8,1.1-0.6,1.4C28.5,45.6,28.2,40.1,27.7,35.4"/>
					<path id="XMLID_11749_" class="st25" d="M32.1,51c0-0.9-0.1-0.8-0.4-1.1c-0.2-0.3-0.4-0.5-0.7-0.8c-0.1-0.1-0.2-0.3-0.4-0.4
						c-0.4-0.2-0.9,0.2-1.1,0.7c-0.2,0.5,0,1.1,0.2,1.5c0.3,0.4,0.6,0.7,1,0.9c0.3,0.1,0.6,0.3,0.9,0.2C32,51.8,32.2,51.4,32.1,51"
						/>
				</g>
				<g id="XMLID_11741_">
					<path id="XMLID_11745_" class="st24" d="M28.7,70.5c-0.9,0.2-1.9-0.3-2.4-1s-0.9-1.6-1.2-2.5c-1.3-3.5-3.2-6.8-5.6-9.6
						c0.5,0.3,1,0.6,1.5,0.9c0.3,0.2,0.7,0.4,1,0.3s0.4-1.3,0.1-1.6C24.6,61.1,26.7,66.2,28.7,70.5"/>
					<path id="XMLID_11742_" class="st25" d="M19.5,57.1c0.3,0.9,0.4,0.7,0.8,1c0.3,0.2,0.6,0.4,0.9,0.6c0.2,0.1,0.3,0.2,0.5,0.2
						c0.4,0.1,0.8-0.4,0.8-1c0-0.5-0.3-1-0.7-1.3c-0.4-0.3-0.8-0.4-1.3-0.5c-0.3,0-0.6-0.1-0.9,0.1C19.3,56.3,19.2,56.8,19.5,57.1"
						/>
				</g>
				<g id="XMLID_11734_">
					<path id="XMLID_11738_" class="st24" d="M25.7,18.3c-0.2,0.9-1,1.6-1.9,1.8c-0.9,0.2-1.8,0.1-2.8,0.1c-3.7-0.3-7.5,0-11.1,1
						c0.5-0.3,1-0.7,1.5-1c0.3-0.2,0.7-0.4,0.7-0.8s-1-0.9-1.4-0.8C15.5,18,21,18.3,25.7,18.3"/>
					<path id="XMLID_11735_" class="st25" d="M9.7,21c0.9,0.1,0.8-0.1,1.2-0.3c0.3-0.2,0.6-0.4,0.9-0.6c0.2-0.1,0.3-0.2,0.4-0.4
						c0.2-0.4-0.1-0.9-0.6-1.1c-0.5-0.2-1.1-0.2-1.5,0.1c-0.4,0.2-0.7,0.6-1,0.9c-0.2,0.3-0.3,0.5-0.3,0.8C9,20.8,9.3,21.1,9.7,21"
						/>
				</g>
				<g id="XMLID_11727_">
					<path id="XMLID_11731_" class="st24" d="M24,32.1c-0.4-0.8-0.1-1.9,0.4-2.6s1.4-1.2,2.1-1.8c3.1-2.1,5.8-4.7,8.1-7.6
						c-0.2,0.6-0.4,1.1-0.6,1.7c-0.1,0.4-0.2,0.8-0.1,1.1c0.1,0.3,1.4,0.1,1.6-0.2C32.2,25.9,27.7,29.2,24,32.1"/>
					<path id="XMLID_11728_" class="st25" d="M34.9,20c-0.8,0.5-0.6,0.6-0.8,1c-0.1,0.3-0.2,0.7-0.3,1c-0.1,0.2-0.1,0.4-0.1,0.5
						c0,0.4,0.6,0.7,1.1,0.5c0.5-0.1,0.9-0.5,1.1-1c0.2-0.4,0.2-0.9,0.2-1.3c0-0.3-0.1-0.6-0.3-0.8C35.6,19.7,35.1,19.7,34.9,20"/>
				</g>
				<g id="XMLID_11720_">
					<path id="XMLID_11724_" class="st24" d="M40.4,76.6c-0.1,0.9-0.9,1.7-1.7,2c-0.9,0.3-1.8,0.3-2.8,0.4
						c-3.7,0.1-7.4,0.9-10.9,2.2c0.5-0.4,0.9-0.8,1.4-1.1c0.3-0.2,0.6-0.5,0.7-0.9c0.1-0.4-1.1-0.8-1.4-0.6
						C30.2,77.4,35.7,77,40.4,76.6"/>
					<path id="XMLID_11721_" class="st25" d="M24.8,81.1c0.9,0,0.8-0.1,1.1-0.4c0.3-0.2,0.5-0.4,0.8-0.7c0.1-0.1,0.3-0.2,0.4-0.4
						c0.2-0.4-0.2-0.9-0.7-1.1c-0.5-0.2-1.1,0-1.5,0.2c-0.4,0.3-0.6,0.6-0.9,1c-0.1,0.3-0.3,0.6-0.2,0.9
						C24,80.9,24.5,81.2,24.8,81.1"/>
				</g>
				<g id="XMLID_11713_">
					<path id="XMLID_11717_" class="st24" d="M32.3,64.7c0.7-0.6,1.8-0.6,2.6-0.2c0.8,0.4,1.5,1.1,2.2,1.7c2.7,2.5,5.9,4.6,9.3,6.1
						c-0.6-0.1-1.2-0.1-1.8-0.2c-0.4,0-0.8-0.1-1.1,0.2c-0.3,0.2,0.2,1.3,0.6,1.5C40.1,71.3,36,67.7,32.3,64.7"/>
					<path id="XMLID_11714_" class="st25" d="M46.5,72.6c-0.6-0.6-0.7-0.5-1.1-0.5c-0.3,0-0.7-0.1-1-0.1c-0.2,0-0.4,0-0.5,0
						c-0.4,0.1-0.5,0.8-0.3,1.2s0.7,0.8,1.2,0.9c0.5,0.1,0.9,0,1.3-0.1c0.3-0.1,0.6-0.2,0.7-0.5S46.9,72.7,46.5,72.6"/>
				</g>
				<g id="XMLID_11706_">
					<path id="XMLID_11710_" class="st24" d="M50.9,45.5c0.6,0.7,0.7,1.8,0.3,2.6c-0.3,0.9-1,1.6-1.6,2.3c-2.4,2.9-4.3,6.1-5.6,9.6
						c0-0.6,0-1.2,0.1-1.8c0-0.4,0-0.8-0.2-1.1c-0.2-0.3-1.3,0.3-1.4,0.7C44.8,53.7,48.1,49.3,50.9,45.5"/>
					<path id="XMLID_11707_" class="st25" d="M43.8,60.1c0.6-0.7,0.4-0.7,0.5-1.1c0-0.3,0-0.7,0-1c0-0.2,0-0.4-0.1-0.5
						C44.1,57,43.5,57,43,57.2c-0.5,0.3-0.7,0.8-0.8,1.2c-0.1,0.5,0.1,0.9,0.2,1.3c0.1,0.3,0.3,0.6,0.5,0.7
						C43.3,60.6,43.7,60.5,43.8,60.1"/>
				</g>
				<g id="XMLID_11699_">
					<path id="XMLID_11703_" class="st24" d="M44.8,44.2c-0.8-0.4-1.2-1.4-1.2-2.3c0-0.9,0.3-1.8,0.6-2.7c1.2-3.5,1.8-7.2,1.9-11
						c0.2,0.6,0.4,1.1,0.6,1.7c0.1,0.4,0.3,0.7,0.6,0.9c0.3,0.2,1.1-0.8,1.1-1.1C47.6,34.4,46,39.7,44.8,44.2"/>
					<path id="XMLID_11700_" class="st25" d="M46.2,28c-0.3,0.8-0.2,0.8,0,1.2c0.1,0.3,0.2,0.7,0.3,1c0.1,0.2,0.1,0.4,0.2,0.5
						c0.3,0.3,0.9,0.2,1.2-0.2s0.4-1,0.3-1.5c-0.1-0.5-0.4-0.8-0.7-1.2c-0.2-0.2-0.4-0.4-0.7-0.5C46.6,27.4,46.2,27.7,46.2,28"/>
				</g>
				<g id="XMLID_11692_">
					<path id="XMLID_11696_" class="st24" d="M52.2,71.5c0.8,0.5,1.1,1.5,1.1,2.4c-0.1,0.9-0.5,1.8-0.8,2.6
						c-1.4,3.4-2.3,7.1-2.6,10.8c-0.2-0.6-0.3-1.1-0.5-1.7c-0.1-0.4-0.2-0.8-0.5-1c-0.3-0.2-1.2,0.7-1.2,1
						C48.7,81.1,50.7,75.9,52.2,71.5"/>
					<path id="XMLID_11693_" class="st25" d="M49.7,87.5c0.4-0.8,0.2-0.8,0.1-1.2c-0.1-0.3-0.2-0.7-0.3-1c0-0.2-0.1-0.4-0.2-0.5
						c-0.3-0.3-0.9-0.2-1.3,0.2s-0.5,1-0.4,1.4c0.1,0.5,0.3,0.9,0.6,1.2c0.2,0.2,0.4,0.5,0.7,0.5C49.3,88.2,49.7,87.9,49.7,87.5"/>
				</g>
				<g id="XMLID_11685_">
					<path id="XMLID_11689_" class="st24" d="M11.8,30.6c-0.9,0-1.8-0.7-2.2-1.5S9,27.4,8.9,26.5c-0.6-3.7-1.7-7.3-3.5-10.6
						c0.4,0.4,0.9,0.8,1.3,1.2c0.3,0.3,0.6,0.5,1,0.5c0.4,0,0.7-1.2,0.4-1.5C9.7,20.6,10.7,26,11.8,30.6"/>
					<path id="XMLID_11686_" class="st25" d="M5.4,15.6c0.1,0.9,0.2,0.8,0.5,1.1c0.3,0.2,0.5,0.5,0.8,0.7c0.1,0.1,0.3,0.3,0.4,0.3
						c0.4,0.1,0.9-0.3,1-0.8c0.1-0.5-0.1-1.1-0.4-1.4c-0.3-0.4-0.7-0.6-1.1-0.7c-0.3-0.1-0.6-0.2-0.9-0.1
						C5.5,14.9,5.3,15.3,5.4,15.6"/>
				</g>
				<g id="XMLID_11678_">
					<path id="XMLID_11682_" class="st24" d="M43.6,60.6c0.9-0.2,1.9,0.3,2.4,1c0.6,0.7,0.9,1.6,1.2,2.5c1.3,3.5,3.1,6.8,5.5,9.7
						c-0.5-0.3-1-0.6-1.5-0.9c-0.3-0.2-0.7-0.4-1-0.3s-0.4,1.3-0.1,1.6C47.6,70.1,45.5,64.9,43.6,60.6"/>
					<path id="XMLID_11679_" class="st25" d="M52.7,74.1c-0.3-0.9-0.4-0.7-0.7-1c-0.3-0.2-0.6-0.4-0.9-0.6c-0.2-0.1-0.3-0.2-0.5-0.2
						c-0.4-0.1-0.8,0.4-0.8,1c0,0.5,0.3,1,0.7,1.3c0.4,0.3,0.8,0.4,1.2,0.5c0.3,0,0.6,0.1,0.9-0.1C52.8,74.9,52.9,74.4,52.7,74.1"/>
				</g>
				<g id="XMLID_11671_">
					<path id="XMLID_11675_" class="st24" d="M12.4,55.2c-0.4-0.8-0.2-1.9,0.4-2.6s1.4-1.3,2.1-1.8c3.1-2.1,5.8-4.7,8-7.7
						c-0.2,0.6-0.4,1.1-0.5,1.7c-0.1,0.4-0.2,0.8-0.1,1.1s1.4,0.1,1.6-0.3C20.5,48.9,16.1,52.2,12.4,55.2"/>
					<path id="XMLID_11672_" class="st25" d="M23.2,42.9c-0.8,0.5-0.6,0.6-0.7,1c-0.1,0.3-0.2,0.7-0.3,1c-0.1,0.2-0.1,0.4-0.1,0.5
						c0.1,0.4,0.6,0.7,1.1,0.5c0.5-0.1,0.9-0.5,1.1-1s0.2-0.9,0.2-1.3c0-0.3-0.1-0.6-0.3-0.8C23.9,42.7,23.4,42.7,23.2,42.9"/>
				</g>
				<g id="XMLID_11664_">
					<path id="XMLID_11668_" class="st24" d="M44.9,52.5c-0.8,0.4-1.9,0.1-2.6-0.5c-0.7-0.6-1.2-1.4-1.7-2.2c-2-3.2-4.4-6-7.3-8.4
						c0.6,0.2,1.1,0.4,1.7,0.6c0.4,0.1,0.7,0.3,1.1,0.1c0.4-0.1,0.1-1.4-0.2-1.6C39.1,44.1,42.2,48.7,44.9,52.5"/>
					<path id="XMLID_11665_" class="st25" d="M33.2,41.2c0.4,0.8,0.5,0.6,0.9,0.8c0.3,0.1,0.7,0.2,1,0.4c0.2,0.1,0.3,0.1,0.5,0.1
						c0.4,0,0.7-0.6,0.6-1.1c-0.1-0.5-0.5-1-0.9-1.2s-0.9-0.2-1.3-0.2c-0.3,0-0.6,0.1-0.8,0.3C33,40.4,33,40.9,33.2,41.2"/>
				</g>
				<g id="XMLID_11657_">
					<path id="XMLID_11661_" class="st24" d="M30.7,63.9c0.8,0.4,1.2,1.4,1.2,2.4c0,0.9-0.4,1.8-0.7,2.7c-1.3,3.5-2.1,7.2-2.2,10.9
						c-0.2-0.6-0.3-1.1-0.5-1.7c-0.1-0.4-0.2-0.8-0.6-0.9c-0.3-0.2-1.2,0.7-1.1,1.1C27.6,73.7,29.3,68.4,30.7,63.9"/>
					<path id="XMLID_11658_" class="st25" d="M28.8,80.1c0.4-0.8,0.2-0.8,0.1-1.2c-0.1-0.3-0.2-0.7-0.3-1c-0.1-0.2-0.1-0.4-0.2-0.5
						c-0.3-0.3-0.9-0.2-1.2,0.2s-0.4,1-0.4,1.4c0.1,0.5,0.3,0.8,0.6,1.2c0.2,0.2,0.4,0.5,0.7,0.5C28.4,80.7,28.8,80.4,28.8,80.1"/>
				</g>
				<g id="XMLID_11650_">
					<path id="XMLID_11654_" class="st24" d="M28.1,34.3c0.5-0.8,1.5-1.1,2.4-1c0.9,0.1,1.8,0.5,2.6,0.9c3.4,1.5,7,2.5,10.8,2.8
						c-0.6,0.1-1.2,0.3-1.7,0.4c-0.4,0.1-0.8,0.2-1,0.5c-0.2,0.3,0.6,1.2,1,1.2C37.6,38,32.5,36,28.1,34.3"/>
					<path id="XMLID_11651_" class="st25" d="M44.1,37.2c-0.8-0.4-0.8-0.2-1.2-0.1c-0.3,0.1-0.7,0.2-1,0.2c-0.2,0-0.4,0.1-0.5,0.2
						c-0.3,0.3-0.2,0.9,0.1,1.3s0.9,0.5,1.4,0.4s0.9-0.3,1.2-0.6c0.2-0.2,0.5-0.4,0.5-0.7C44.7,37.6,44.4,37.2,44.1,37.2"/>
				</g>
				<g id="XMLID_11643_">
					<path id="XMLID_11647_" class="st24" d="M35.6,23.3c-1.1-2.4-2.2-4.9-3.2-7.3c0.9,0.8,1,2.3,1.9,3.1c0.3,0.3,0.9,0.4,1.1,0
						c0.1-0.2,0.1-0.5,0-0.7c-0.2-0.7-0.4-1.3-0.7-2c0.8,0.8,1.5,1.9,2,3c0.3,0.8,0.6,1.5,0.8,2.3c0.5,1.7,0.9,3.3,1.4,5
						c-1.4-0.8-2.5-2.2-3.5-3.5"/>
					<path id="XMLID_11644_" class="st25" d="M32.7,16.9c-0.2-0.3-0.3-0.7-0.4-1s0.1-0.8,0.5-0.9c0.4-0.2,0.9,0.1,1.2,0.5
						c0.6,0.5,1,1.2,1.3,1.9c0.2,0.4,0.3,0.7,0.3,1.1c0,0.4-0.2,0.8-0.6,0.9c-0.4,0.1-0.9-0.1-1.3-0.4C33,18.2,33.1,17.9,32.7,16.9"
						/>
				</g>
				<g id="XMLID_11636_">
					<path id="XMLID_11640_" class="st24" d="M38.9,76.5c1.3,2.3,2.6,4.7,3.9,7c-1-0.7-1.2-2.2-2.2-2.9c-0.4-0.2-1-0.3-1.1,0.1
						c-0.1,0.2,0,0.5,0.1,0.7c0.3,0.7,0.6,1.3,0.9,1.9c-0.9-0.8-1.7-1.7-2.3-2.8c-0.4-0.7-0.7-1.5-1-2.2c-0.6-1.6-1.2-3.2-1.9-4.8
						c1.5,0.7,2.7,1.9,3.8,3.2"/>
					<path id="XMLID_11637_" class="st25" d="M42.4,82.6c0.2,0.3,0.4,0.6,0.5,1c0.1,0.4-0.1,0.8-0.4,0.9c-0.4,0.2-0.9-0.1-1.2-0.4
						c-0.6-0.5-1.1-1.1-1.5-1.7c-0.2-0.3-0.4-0.7-0.4-1.1c0-0.4,0.2-0.8,0.5-0.9c0.4-0.2,0.9,0.1,1.3,0.3
						C42,81.3,41.9,81.6,42.4,82.6"/>
				</g>
				<g id="XMLID_11629_">
					<path id="XMLID_11633_" class="st24" d="M30.9,34.3c-1.4,2.2-2.9,4.5-4.3,6.7c0.2-1.2,1.4-2.1,1.5-3.3c0-0.4-0.2-1-0.6-0.9
						c-0.2,0-0.4,0.2-0.6,0.4c-0.5,0.5-0.9,1.1-1.2,1.7c0.2-1.2,0.7-2.3,1.4-3.3c0.5-0.7,1-1.3,1.5-1.9c1.1-1.3,2.2-2.6,3.4-3.9
						c0.1,1.6-0.4,3.3-1,4.8"/>
					<path id="XMLID_11630_" class="st25" d="M27.1,40.2c-0.2,0.3-0.4,0.7-0.7,0.9c-0.3,0.2-0.7,0.3-1,0.1c-0.4-0.3-0.4-0.8-0.3-1.3
						c0.1-0.8,0.4-1.5,0.8-2.2c0.2-0.3,0.4-0.7,0.8-0.9c0.3-0.2,0.8-0.2,1.1,0c0.4,0.3,0.4,0.8,0.3,1.3C28,39.3,27.7,39.3,27.1,40.2
						"/>
				</g>
				<g id="XMLID_11622_">
					<path id="XMLID_11626_" class="st24" d="M10.9,67.9c1.7,2,3.5,4,5.2,6.1c-1.1-0.5-1.6-2-2.7-2.4c-0.4-0.2-1-0.1-1.1,0.4
						c-0.1,0.2,0.1,0.5,0.2,0.7c0.4,0.6,0.8,1.1,1.3,1.7c-1.1-0.6-2-1.3-2.8-2.3c-0.5-0.6-1-1.3-1.4-2c-0.9-1.4-1.9-2.9-2.8-4.3
						c1.6,0.4,3,1.3,4.3,2.3"/>
					<path id="XMLID_11623_" class="st25" d="M15.5,73.2c0.3,0.3,0.5,0.5,0.7,0.9c0.1,0.3,0.1,0.8-0.2,1c-0.3,0.3-0.9,0.1-1.3-0.1
						c-0.7-0.4-1.3-0.8-1.8-1.4c-0.3-0.3-0.5-0.6-0.6-1s0-0.8,0.3-1c0.4-0.3,0.9-0.1,1.3,0.1C14.9,72.1,14.8,72.4,15.5,73.2"/>
				</g>
				<g id="XMLID_11615_">
					<path id="XMLID_11619_" class="st24" d="M18.2,37.8c2.4,1.1,4.8,2.3,7.2,3.4c-1.2,0-2.2-1.1-3.5-1.1c-0.4,0-0.9,0.3-0.9,0.8
						c0,0.2,0.3,0.4,0.5,0.6c0.6,0.4,1.2,0.7,1.8,1C22.2,42.4,21,42,20,41.5c-0.7-0.4-1.4-0.8-2.1-1.3c-1.4-0.9-2.9-1.9-4.3-2.8
						c1.6-0.3,3.3,0,4.9,0.4"/>
					<path id="XMLID_11616_" class="st25" d="M24.5,40.7c0.3,0.1,0.7,0.3,1,0.5c0.3,0.3,0.4,0.7,0.2,1c-0.2,0.4-0.8,0.5-1.2,0.4
						c-0.8,0-1.5-0.2-2.2-0.5c-0.4-0.2-0.7-0.3-1-0.7c-0.2-0.3-0.3-0.7-0.1-1.1c0.2-0.4,0.8-0.5,1.2-0.5
						C23.5,39.9,23.6,40.3,24.5,40.7"/>
				</g>
				<g id="XMLID_11608_">
					<path id="XMLID_11612_" class="st24" d="M24.4,16.1c2.3,1.3,4.6,2.7,6.9,4c-1.2-0.1-2.1-1.3-3.4-1.4c-0.4,0-1,0.3-0.9,0.7
						c0,0.2,0.2,0.4,0.4,0.6c0.5,0.4,1.1,0.8,1.7,1.2C28,21,26.8,20.6,25.8,20c-0.7-0.4-1.3-0.9-2-1.4c-1.4-1.1-2.7-2.1-4.1-3.2
						c1.6-0.2,3.3,0.3,4.8,0.8"/>
					<path id="XMLID_11609_" class="st25" d="M30.4,19.6c0.3,0.2,0.7,0.3,0.9,0.6s0.4,0.7,0.2,1c-0.2,0.4-0.8,0.4-1.2,0.3
						c-0.8-0.1-1.5-0.4-2.2-0.7c-0.3-0.2-0.7-0.4-0.9-0.7c-0.2-0.3-0.3-0.8-0.1-1.1c0.3-0.4,0.8-0.4,1.3-0.4
						C29.5,18.7,29.5,19.1,30.4,19.6"/>
				</g>
				<g id="XMLID_11601_">
					<path id="XMLID_11605_" class="st24" d="M9.5,81.7c2.2-1.5,4.4-3,6.7-4.4c-0.6,1.1-2.1,1.3-2.7,2.4c-0.2,0.4-0.2,1,0.2,1.1
						c0.2,0.1,0.5,0,0.7-0.1c0.6-0.3,1.2-0.7,1.8-1c-0.7,1-1.6,1.8-2.6,2.5c-0.7,0.4-1.4,0.8-2.2,1.2c-1.5,0.7-3.1,1.5-4.6,2.2
						c0.6-1.5,1.7-2.8,2.9-4"/>
					<path id="XMLID_11602_" class="st25" d="M15.3,77.8c0.3-0.2,0.6-0.5,1-0.6c0.4-0.1,0.8,0,1,0.3c0.2,0.4,0,0.9-0.3,1.3
						c-0.4,0.6-1,1.2-1.6,1.6c-0.3,0.2-0.7,0.4-1,0.5s-0.8-0.1-1-0.4c-0.2-0.4,0-0.9,0.2-1.3C14.1,78.3,14.4,78.4,15.3,77.8"/>
				</g>
				<g id="XMLID_11594_">
					<path id="XMLID_11598_" class="st24" d="M43.1,76.8c1.1-2.4,2.3-4.8,3.4-7.2c0,1.2-1.1,2.2-1.1,3.5c0,0.4,0.3,0.9,0.8,0.9
						c0.2,0,0.4-0.3,0.6-0.5c0.4-0.6,0.7-1.2,1-1.8c-0.1,1.2-0.4,2.4-0.9,3.4c-0.4,0.7-0.8,1.4-1.3,2.1c-0.9,1.4-1.9,2.9-2.8,4.3
						c-0.3-1.6,0-3.3,0.4-4.9"/>
					<path id="XMLID_11595_" class="st25" d="M46.1,70.5c0.1-0.3,0.3-0.7,0.5-1s0.7-0.4,1-0.2c0.4,0.2,0.5,0.8,0.4,1.2
						c0,0.8-0.2,1.5-0.5,2.2c-0.2,0.4-0.3,0.7-0.7,1s-0.7,0.3-1.1,0.1c-0.4-0.2-0.5-0.8-0.5-1.2C45.3,71.5,45.6,71.5,46.1,70.5"/>
				</g>
				<g id="XMLID_11587_">
					<path id="XMLID_11591_" class="st24" d="M13.1,38.1c-1,2.5-1.9,5-2.9,7.5c-0.1-1.2,1-2.3,0.8-3.5c-0.1-0.4-0.4-0.9-0.8-0.8
						c-0.2,0.1-0.4,0.3-0.5,0.5C9.3,42.3,9,43,8.8,43.6c0-1.2,0.2-2.4,0.7-3.5c0.3-0.8,0.7-1.5,1.1-2.2c0.8-1.5,1.7-3,2.5-4.5
						c0.4,1.6,0.2,3.3,0,4.9"/>
					<path id="XMLID_11588_" class="st25" d="M10.6,44.6c-0.1,0.4-0.2,0.7-0.5,1c-0.2,0.3-0.6,0.5-1,0.3c-0.4-0.2-0.5-0.7-0.5-1.2
						c0-0.8,0.1-1.5,0.4-2.3c0.1-0.4,0.3-0.7,0.6-1c0.3-0.3,0.7-0.4,1-0.2c0.4,0.2,0.5,0.7,0.6,1.2C11.3,43.5,11,43.6,10.6,44.6"/>
				</g>
				<g id="XMLID_11580_">
					<path id="XMLID_11584_" class="st24" d="M40.7,59.6c2.6,0.4,5.3,0.7,7.9,1.1c-1.2,0.4-2.5-0.4-3.6,0c-0.4,0.2-0.8,0.6-0.6,1
						c0.1,0.2,0.4,0.3,0.6,0.4c0.7,0.2,1.4,0.3,2.1,0.4c-1.2,0.3-2.4,0.3-3.6,0.1c-0.8-0.1-1.6-0.3-2.4-0.6c-1.7-0.5-3.3-0.9-5-1.4
						c1.5-0.8,3.1-1,4.8-1.1"/>
					<path id="XMLID_11581_" class="st25" d="M47.6,60.6c0.4,0,0.8,0.1,1.1,0.2s0.6,0.5,0.5,0.9c-0.1,0.4-0.6,0.7-1,0.8
						c-0.7,0.2-1.5,0.2-2.3,0.2c-0.4,0-0.8-0.1-1.1-0.3s-0.5-0.6-0.5-1c0.1-0.4,0.6-0.7,1-0.8C46.4,60.1,46.5,60.4,47.6,60.6"/>
				</g>
				<g id="XMLID_11573_">
					<path id="XMLID_11577_" class="st24" d="M35,62.4c-1.4,2.3-2.8,4.5-4.2,6.8c0.1-1.2,1.4-2.1,1.5-3.3c0-0.4-0.2-1-0.7-0.9
						c-0.2,0-0.4,0.2-0.6,0.4c-0.4,0.5-0.9,1.1-1.2,1.7c0.2-1.2,0.7-2.3,1.3-3.3c0.4-0.7,1-1.3,1.5-2c1.1-1.3,2.2-2.6,3.3-4
						c0.1,1.6-0.4,3.3-0.9,4.8"/>
					<path id="XMLID_11574_" class="st25" d="M31.3,68.4c-0.2,0.3-0.4,0.7-0.6,0.9c-0.3,0.2-0.7,0.3-1,0.1c-0.4-0.2-0.4-0.8-0.3-1.3
						c0.1-0.8,0.4-1.5,0.8-2.2c0.2-0.3,0.4-0.7,0.8-0.9c0.3-0.2,0.8-0.3,1.1,0c0.4,0.3,0.4,0.8,0.4,1.3
						C32.2,67.4,31.9,67.4,31.3,68.4"/>
				</g>
				<g id="XMLID_11566_">
					<path id="XMLID_11570_" class="st24" d="M40.8,83.3c2.6,0.3,5.3,0.7,7.9,1c-1.2,0.4-2.5-0.4-3.6,0.1c-0.4,0.2-0.8,0.6-0.6,1
						c0.1,0.2,0.4,0.3,0.6,0.4c0.7,0.2,1.4,0.3,2.1,0.4c-1.2,0.3-2.4,0.4-3.6,0.2c-0.8-0.1-1.6-0.3-2.4-0.5c-1.7-0.4-3.3-0.9-5-1.3
						c1.4-0.8,3.1-1,4.8-1.2"/>
					<path id="XMLID_11567_" class="st25" d="M47.8,84.2c0.4,0,0.8,0,1.1,0.2c0.3,0.2,0.6,0.5,0.5,0.9c-0.1,0.4-0.6,0.7-1,0.8
						c-0.7,0.2-1.5,0.3-2.3,0.2c-0.4,0-0.8-0.1-1.1-0.3s-0.6-0.6-0.5-1c0.1-0.4,0.6-0.7,1-0.9C46.6,83.8,46.7,84,47.8,84.2"/>
				</g>
				<g id="XMLID_11558_">
					<path id="XMLID_11563_" class="st24" d="M9.8,30c0.8,2.5,1.6,5.1,2.4,7.6c-0.8-0.9-0.7-2.4-1.6-3.3c-0.3-0.3-0.9-0.5-1.1-0.1
						c-0.1,0.2-0.1,0.5-0.1,0.7c0.1,0.7,0.3,1.4,0.5,2c-0.7-0.9-1.3-2-1.7-3.2C8,33,7.8,32.2,7.7,31.4c-0.3-1.7-0.6-3.4-0.9-5.1
						c1.3,1,2.2,2.4,3.1,3.8"/>
					<path id="XMLID_11560_" class="st25" d="M11.9,36.7c0.1,0.3,0.3,0.7,0.3,1.1c0,0.4-0.2,0.8-0.6,0.9c-0.4,0.1-0.9-0.2-1.1-0.6
						c-0.5-0.6-0.9-1.3-1.1-2c-0.1-0.4-0.2-0.8-0.2-1.1c0.1-0.4,0.3-0.7,0.7-0.8c0.4-0.1,0.9,0.2,1.2,0.6
						C11.8,35.3,11.6,35.6,11.9,36.7"/>
				</g>
				<g id="XMLID_11550_">
					<path id="XMLID_11555_" class="st24" d="M43.6,26.6c-0.2,2.7-0.5,5.3-0.7,8c-0.4-1.2,0.3-2.5-0.2-3.6c-0.2-0.4-0.6-0.8-1-0.5
						c-0.2,0.1-0.3,0.4-0.4,0.6c-0.2,0.7-0.3,1.4-0.3,2.1c-0.3-1.2-0.4-2.4-0.3-3.6c0.1-0.8,0.3-1.6,0.5-2.4c0.4-1.7,0.8-3.3,1.2-5
						c0.8,1.4,1.1,3.1,1.3,4.7"/>
					<path id="XMLID_11551_" class="st25" d="M42.9,33.6c0,0.4,0,0.8-0.2,1.1c-0.2,0.3-0.5,0.6-0.8,0.6c-0.4-0.1-0.7-0.6-0.8-1
						c-0.2-0.7-0.3-1.5-0.3-2.3c0-0.4,0.1-0.8,0.3-1.1s0.6-0.6,0.9-0.5c0.4,0.1,0.7,0.6,0.9,1C43.3,32.3,43,32.5,42.9,33.6"/>
				</g>
				<g id="XMLID_11543_">
					<path id="XMLID_11547_" class="st24" d="M17.5,55.4c-0.6,2.6-1.2,5.2-1.8,7.8c-0.3-1.2,0.6-2.4,0.3-3.6
						c-0.1-0.4-0.5-0.8-0.9-0.7c-0.2,0.1-0.3,0.3-0.4,0.6c-0.3,0.7-0.5,1.3-0.6,2c-0.2-1.2-0.1-2.4,0.2-3.6c0.2-0.8,0.5-1.6,0.8-2.3
						c0.6-1.6,1.2-3.2,1.9-4.8c0.6,1.5,0.7,3.2,0.7,4.9"/>
					<path id="XMLID_11544_" class="st25" d="M16,62.2c-0.1,0.4-0.1,0.7-0.3,1.1c-0.2,0.3-0.6,0.5-0.9,0.4c-0.4-0.1-0.6-0.6-0.7-1.1
						c-0.1-0.8-0.1-1.5,0.1-2.3c0.1-0.4,0.2-0.8,0.4-1.1c0.2-0.3,0.6-0.5,1-0.4c0.4,0.1,0.6,0.6,0.7,1.1C16.5,61,16.2,61.2,16,62.2"
						/>
				</g>
				<g id="XMLID_11532_">
					<path id="XMLID_11540_" class="st24" d="M52.6,87.6c-2.5-0.8-5.1-1.6-7.6-2.3c1.2-0.2,2.4,0.8,3.6,0.6c0.4-0.1,0.9-0.5,0.7-0.9
						c-0.1-0.2-0.3-0.4-0.6-0.5c-0.6-0.3-1.3-0.5-2-0.7c1.2-0.1,2.4,0.1,3.5,0.4c0.8,0.2,1.5,0.6,2.3,0.9c1.6,0.7,3.1,1.5,4.7,2.2
						c-1.6,0.5-3.3,0.5-4.9,0.3"/>
					<path id="XMLID_11536_" class="st25" d="M45.9,85.5c-0.4-0.1-0.7-0.2-1-0.4c-0.3-0.2-0.5-0.6-0.4-0.9c0.1-0.4,0.7-0.6,1.1-0.6
						c0.8-0.1,1.6,0,2.3,0.2c0.4,0.1,0.8,0.2,1,0.5c0.3,0.3,0.4,0.7,0.3,1c-0.2,0.4-0.7,0.6-1.2,0.7C47,86.2,46.9,85.9,45.9,85.5"/>
				</g>
				<g id="XMLID_11525_">
					<path id="XMLID_11529_" class="st24" d="M37.1,57.5c-0.4-2.6-0.7-5.3-1.1-7.9c0.7,1,0.3,2.5,1,3.5c0.3,0.4,0.8,0.6,1.1,0.3
						c0.2-0.2,0.2-0.4,0.2-0.7c0-0.7,0-1.4-0.1-2.1c0.6,1.1,0.9,2.2,1.1,3.4c0.1,0.8,0.1,1.6,0.1,2.5c0,1.7,0,3.4,0,5.2
						c-1.1-1.2-1.8-2.8-2.3-4.3"/>
					<path id="XMLID_11526_" class="st25" d="M36.2,50.6c-0.1-0.4-0.1-0.7-0.1-1.1c0.1-0.4,0.3-0.7,0.7-0.7c0.4,0,0.8,0.4,1,0.8
						c0.4,0.7,0.6,1.4,0.8,2.2c0.1,0.4,0.1,0.8,0,1.2s-0.4,0.7-0.8,0.7c-0.5,0-0.8-0.4-1.1-0.8C36.1,51.9,36.3,51.7,36.2,50.6"/>
				</g>
				<g id="XMLID_11518_">
					<path id="XMLID_11522_" class="st24" d="M28.9,53.7c0.7-2.6,1.5-5.1,2.2-7.7c0.2,1.2-0.8,2.4-0.5,3.6c0.1,0.4,0.5,0.9,0.9,0.7
						c0.2-0.1,0.4-0.3,0.5-0.6c0.3-0.6,0.5-1.3,0.7-2c0.1,1.2,0,2.4-0.3,3.6c-0.2,0.8-0.6,1.5-0.9,2.3c-0.7,1.6-1.4,3.1-2.1,4.7
						c-0.6-1.6-0.5-3.2-0.4-4.9"/>
					<path id="XMLID_11519_" class="st25" d="M30.8,46.9c0.1-0.4,0.2-0.7,0.4-1s0.6-0.5,0.9-0.4c0.4,0.1,0.6,0.7,0.6,1.1
						c0.1,0.8,0,1.6-0.2,2.3c-0.1,0.4-0.2,0.8-0.5,1s-0.7,0.5-1,0.3c-0.4-0.2-0.6-0.7-0.7-1.1C30.2,48.1,30.5,48,30.8,46.9"/>
				</g>
				<g id="XMLID_11511_">
					<path id="XMLID_11515_" class="st24" d="M8.5,63.8c-0.1-2.7-0.2-5.3-0.3-8c0.6,1.1,0,2.5,0.7,3.6C9,59.7,9.5,60,9.9,59.7
						c0.2-0.2,0.2-0.4,0.3-0.7c0.1-0.7,0.1-1.4,0.1-2.1c0.5,1.1,0.7,2.3,0.8,3.5c0,0.8-0.1,1.6-0.1,2.4c-0.2,1.7-0.3,3.4-0.5,5.1
						c-1-1.3-1.5-2.9-1.9-4.5"/>
					<path id="XMLID_11512_" class="st25" d="M8.2,56.7c0-0.4-0.1-0.8,0-1.1S8.6,55,9,55c0.4,0,0.8,0.5,0.9,0.9
						c0.3,0.7,0.5,1.5,0.6,2.2c0,0.4,0,0.8-0.1,1.1c-0.2,0.4-0.5,0.6-0.9,0.6c-0.5,0-0.8-0.5-1-0.9C7.9,58,8.2,57.8,8.2,56.7"/>
				</g>
				<g id="XMLID_11504_">
					<path id="XMLID_11508_" class="st24" d="M15.1,26.1c0.9,2.5,1.8,5,2.7,7.5c-0.9-0.9-0.8-2.4-1.7-3.2c-0.3-0.3-0.9-0.4-1.1-0.1
						c-0.1,0.2-0.1,0.5,0,0.7c0.1,0.7,0.3,1.4,0.6,2c-0.8-0.9-1.4-2-1.8-3.1c-0.3-0.8-0.4-1.6-0.6-2.4c-0.4-1.7-0.7-3.4-1.1-5
						c1.4,0.9,2.3,2.3,3.2,3.7"/>
					<path id="XMLID_11505_" class="st25" d="M17.6,32.7c0.2,0.3,0.3,0.7,0.3,1.1c0,0.4-0.2,0.8-0.5,0.9c-0.4,0.1-0.9-0.2-1.2-0.5
						c-0.5-0.6-0.9-1.2-1.2-2c-0.1-0.4-0.3-0.7-0.2-1.1c0-0.4,0.3-0.8,0.6-0.9c0.4-0.1,0.9,0.2,1.2,0.5
						C17.4,31.4,17.2,31.7,17.6,32.7"/>
				</g>
				<g id="XMLID_11497_">
					<path id="XMLID_11501_" class="st24" d="M24.8,28.3c-1.5,2.2-2.9,4.5-4.4,6.7c0.2-1.2,1.4-2.1,1.5-3.3c0-0.4-0.2-1-0.6-0.9
						c-0.2,0-0.4,0.2-0.6,0.4c-0.5,0.5-0.9,1.1-1.3,1.7c0.3-1.2,0.7-2.3,1.4-3.3c0.5-0.7,1-1.3,1.5-1.9c1.1-1.3,2.3-2.6,3.4-3.9
						c0.1,1.6-0.5,3.3-1.1,4.8"/>
					<path id="XMLID_11498_" class="st25" d="M21,34.1c-0.2,0.3-0.4,0.7-0.7,0.9s-0.7,0.3-1,0.1c-0.4-0.3-0.4-0.8-0.3-1.3
						c0.2-0.8,0.4-1.5,0.8-2.1c0.2-0.3,0.4-0.7,0.8-0.9c0.3-0.2,0.8-0.2,1.1,0c0.4,0.3,0.4,0.8,0.3,1.3C21.9,33.2,21.6,33.2,21,34.1
						"/>
				</g>
				<g id="XMLID_11490_">
					<path id="XMLID_11494_" class="st24" d="M19.7,73.7c-0.1-2.7-0.3-5.3-0.4-8c0.6,1.1,0.1,2.5,0.7,3.6c0.2,0.4,0.7,0.7,1.1,0.4
						c0.2-0.2,0.2-0.4,0.3-0.7c0.1-0.7,0.1-1.4,0-2.1c0.5,1.1,0.8,2.3,0.8,3.5c0,0.8,0,1.6-0.1,2.5c-0.1,1.7-0.3,3.4-0.4,5.1
						c-1-1.3-1.6-2.9-2-4.5"/>
					<path id="XMLID_11491_" class="st25" d="M19.3,66.7c0-0.4-0.1-0.8,0-1.1c0.1-0.4,0.4-0.7,0.8-0.7c0.4,0,0.8,0.4,1,0.9
						c0.3,0.7,0.5,1.5,0.6,2.2c0,0.4,0,0.8-0.1,1.1c-0.2,0.4-0.5,0.6-0.9,0.6c-0.5,0-0.8-0.4-1-0.9C19.1,67.9,19.4,67.7,19.3,66.7"
						/>
				</g>
				<g id="XMLID_11483_">
					<path id="XMLID_11487_" class="st24" d="M30.8,83.6c2.7,0,5.3,0,8,0c-1.1,0.5-2.5-0.1-3.6,0.5c-0.4,0.2-0.7,0.7-0.4,1.1
						c0.1,0.2,0.4,0.3,0.7,0.3c0.7,0.1,1.4,0.1,2.1,0.1c-1.1,0.4-2.3,0.6-3.5,0.6c-0.8,0-1.6-0.1-2.4-0.2c-1.7-0.2-3.4-0.5-5.1-0.7
						c1.3-1,3-1.4,4.6-1.8"/>
					<path id="XMLID_11484_" class="st25" d="M37.8,83.6c0.4,0,0.8,0,1.1,0.1c0.3,0.1,0.7,0.4,0.6,0.8c0,0.4-0.5,0.7-0.9,0.9
						c-0.7,0.3-1.5,0.4-2.3,0.5c-0.4,0-0.8,0-1.1-0.2c-0.3-0.2-0.6-0.5-0.6-0.9c0-0.5,0.5-0.8,0.9-1C36.6,83.3,36.8,83.5,37.8,83.6"
						/>
				</g>
			</g>
		</g>
		<path id="XMLID_11478_" class="st26" d="M1.2,3.8c0.4-1.2-0.6-2.1,0.1-3.1C1.8,0,2.8,0,3.7,0c3.6,0.3,7.1,0.6,10.7,0.8
			c3,0.2,6,0.5,8.9,0.3C25.2,1,27,0.8,28.8,0.6c2.6-0.2,5.1-0.2,7.7-0.1c6.6,0.1,13.3,0.2,19.9,0.3c1.2,0,2.7,0.5,2.6,1.6
			c-0.1,1-1.5,1.3-2.5,1.3C38.1,3.8,19.6,3.8,1.2,3.8"/>
		<path id="XMLID_11318_" class="st27" d="M0.9,3.9C2.3,7.4,3.4,11,4.1,14.6c17.8,0.4,35.6,0.5,53.3,0.4c-0.6-3.7-0.4-7.5,0.5-11.2
			c-11.4,0-24.8,0.1-36.1-0.1C14,3.7,8.4,2.5,1,3.1"/>
		<path id="XMLID_8218_" class="st26" d="M0.2,87.6c-0.1,1.4,0,2.9,0.2,4.3c18.7-1.7,37.5-0.1,56.2-0.6c0.3,0,0.6,0,0.9-0.2
			c0.2-0.2,0.3-0.5,0.4-0.8c0.2-0.8,0.4-1.8-0.2-2.5c-0.7-0.8-1.9-0.6-3-0.5c-3.4,0.5-6.8-0.3-10.2-0.5c-2.4-0.1-4.8,0.1-7.3,0.2
			C24.8,87.7,12.3,86.2,0,87.7"/>
		<path id="XMLID_1344_" class="st27" d="M54.9,81.9c-1.5-3.3-1.2-7-2-10.5c-0.7-3.2-2.4-6.2-2.7-9.4c-1.6,0.1-3.1,0.2-4.7,0.3
			c-5.1,0.4-10.3-0.1-15.2-1.4c-2.4-0.6-4.7-1.4-7.1-1.5c-3.6-0.2-7.1,1-10.5,1.8c-2.4,0.6-4.9,0.9-7.3,0.6c-0.3,0.6-0.6,1.3-0.8,2
			c-0.5,1.8-0.2,3.8-0.1,5.7c0.4,6.3-0.8,12.7-3.6,18.3c19-1.1,36.6,0.9,54.9,0.1c0.3,0,0.6,0,0.8-0.3c0.2-0.2,0.2-0.4,0.2-0.7
			C56.9,85.1,55.7,83.5,54.9,81.9z"/>
	</g>
	<g id="XMLID_65_">
		<g id="XMLID_71_">
			<path id="XMLID_8786_" class="st23" d="M17.1,22c-1.1,7.5,1.6,16.7,2.1,24.2c0.3,4.1-0.1,8.2,0.6,12.2c0.5,2.9,1.7,5.9,0.8,8.8
				c-0.5,1.8-1.7,3.3-2.2,5c-0.5,1.8-0.2,3.8,0,5.7c0.5,6.3-0.7,12.7-3.4,18.4c18-3.2,36.6,0.4,54.9-0.5c0.3,0,0.6,0,0.8-0.3
				c0.2-0.2,0.2-0.4,0.2-0.7c0.1-1.8-1.2-3.4-2-5.1c-1.5-3.2-1.3-7-2.1-10.5c-0.9-3.6-2.9-6.9-2.8-10.6c0-1.7,0.6-3.4,1-5
				c1.8-7.4,1.7-15.1,1.8-22.7c0.1-6.1,0.4-12.4,3.5-17.7c-6.7-2.7-11.7-0.1-17.8-0.3c-4-0.2-8.3,0.8-12.3,0.4
				c-7.7-0.7-14.1-2.5-21.6-1.3"/>
			<g id="XMLID_1351_">
				<g id="XMLID_8779_">
					<path id="XMLID_8783_" class="st24" d="M64.6,25.1c-0.2,0.9-1,1.6-1.9,1.8s-1.8,0.1-2.8,0.1c-3.7-0.3-7.5,0-11.1,1
						c0.5-0.3,1-0.7,1.5-1c0.3-0.2,0.7-0.4,0.7-0.8c0.1-0.4-1-0.9-1.4-0.8C54.4,24.8,59.9,25,64.6,25.1"/>
					<path id="XMLID_8780_" class="st25" d="M48.6,27.8c0.9,0.1,0.8-0.1,1.2-0.3c0.3-0.2,0.6-0.4,0.9-0.6c0.2-0.1,0.3-0.2,0.4-0.4
						c0.2-0.4-0.1-0.9-0.6-1.1c-0.5-0.2-1.1-0.2-1.5,0.1c-0.4,0.2-0.7,0.6-1,0.9c-0.2,0.3-0.3,0.5-0.3,0.8
						C47.9,27.6,48.2,27.9,48.6,27.8"/>
				</g>
				<g id="XMLID_8772_">
					<path id="XMLID_8776_" class="st24" d="M20.7,63.9c-0.7-0.6-0.8-1.7-0.5-2.6c0.3-0.9,0.8-1.7,1.4-2.4c2.1-3.1,3.8-6.5,4.8-10
						c0,0.6,0.1,1.2,0.1,1.8c0,0.4,0.1,0.8,0.3,1.1c0.3,0.3,1.3-0.4,1.4-0.8C26.1,55.2,23.1,59.8,20.7,63.9"/>
					<path id="XMLID_8773_" class="st25" d="M26.5,48.7c-0.5,0.7-0.4,0.7-0.4,1.2c0,0.3,0,0.7,0.1,1c0,0.2,0,0.4,0.1,0.5
						c0.2,0.4,0.8,0.4,1.3,0.1c0.4-0.3,0.7-0.8,0.7-1.3s-0.1-0.9-0.3-1.3c-0.1-0.3-0.3-0.6-0.6-0.6C27.1,48.2,26.6,48.4,26.5,48.7"
						/>
				</g>
				<g id="XMLID_8758_">
					<path id="XMLID_8763_" class="st24" d="M62.6,42.9c0.8,0.4,1.3,1.4,1.3,2.3c0,0.9-0.3,1.8-0.6,2.7c-1.1,3.6-1.7,7.3-1.6,11
						c-0.2-0.6-0.4-1.1-0.6-1.7c-0.1-0.4-0.3-0.7-0.6-0.9c-0.3-0.2-1.1,0.8-1.1,1.2C60,52.8,61.4,47.5,62.6,42.9"/>
					<path id="XMLID_8759_" class="st25" d="M61.6,59.1c0.3-0.9,0.1-0.8,0-1.2c-0.1-0.3-0.2-0.7-0.4-1c-0.1-0.2-0.1-0.3-0.3-0.5
						c-0.3-0.3-0.9-0.1-1.2,0.3c-0.3,0.4-0.4,1-0.3,1.5c0.1,0.5,0.4,0.8,0.7,1.1c0.2,0.2,0.4,0.4,0.8,0.4
						C61.2,59.8,61.6,59.5,61.6,59.1"/>
				</g>
				<g id="XMLID_8751_">
					<path id="XMLID_8755_" class="st24" d="M69,24c-0.5,0.8-1.5,1.1-2.4,1.1c-0.9-0.1-1.8-0.5-2.6-0.9c-3.4-1.5-7.1-2.4-10.8-2.7
						c0.6-0.1,1.1-0.3,1.7-0.4c0.4-0.1,0.8-0.2,1-0.5c0.2-0.3-0.7-1.2-1-1.2C59.4,20.4,64.6,22.4,69,24"/>
					<path id="XMLID_8752_" class="st25" d="M52.9,21.3c0.8,0.4,0.8,0.2,1.2,0.1c0.3-0.1,0.7-0.2,1-0.3c0.2,0,0.4-0.1,0.5-0.2
						c0.3-0.3,0.2-0.9-0.2-1.3c-0.4-0.4-1-0.5-1.4-0.4c-0.5,0.1-0.9,0.3-1.2,0.6c-0.2,0.2-0.5,0.4-0.5,0.7S52.6,21.3,52.9,21.3"/>
				</g>
				<g id="XMLID_8744_">
					<path id="XMLID_8748_" class="st24" d="M17.3,17.3c0.9-0.2,1.8,0.3,2.4,1c0.6,0.7,0.9,1.6,1.2,2.5c1.3,3.5,3.1,6.8,5.4,9.7
						c-0.5-0.3-1-0.6-1.5-1c-0.3-0.2-0.7-0.4-1-0.4c-0.4,0.1-0.4,1.3-0.2,1.6C21.3,26.7,19.2,21.6,17.3,17.3"/>
					<path id="XMLID_8745_" class="st25" d="M26.4,30.8c-0.3-0.9-0.4-0.7-0.7-1c-0.3-0.2-0.6-0.4-0.9-0.6c-0.2-0.1-0.3-0.2-0.5-0.2
						c-0.4-0.1-0.8,0.4-0.8,1c0,0.5,0.3,1,0.7,1.3c0.4,0.3,0.8,0.4,1.2,0.5c0.3,0.1,0.6,0.1,0.9-0.1S26.6,31.1,26.4,30.8"/>
				</g>
				<g id="XMLID_8736_">
					<path id="XMLID_8740_" class="st24" d="M45.8,65.2c-0.6,0.7-1.7,0.8-2.6,0.6c-0.9-0.2-1.7-0.8-2.4-1.3
						c-3.1-2.1-6.5-3.6-10.1-4.6c0.6,0,1.2-0.1,1.8-0.1c0.4,0,0.8-0.1,1-0.3c0.3-0.3-0.4-1.3-0.8-1.4C37,60,41.7,62.8,45.8,65.2"/>
					<path id="XMLID_8737_" class="st25" d="M30.5,59.7c0.7,0.5,0.7,0.4,1.2,0.3c0.3,0,0.7,0,1-0.1c0.2,0,0.4,0,0.5-0.1
						c0.4-0.2,0.4-0.8,0.1-1.3s-0.8-0.7-1.3-0.7c-0.5,0-0.9,0.1-1.3,0.3c-0.3,0.1-0.5,0.3-0.6,0.6C29.9,59.2,30.1,59.6,30.5,59.7"/>
				</g>
				<g id="XMLID_8729_">
					<path id="XMLID_8733_" class="st24" d="M32.9,82.2c0.9-0.3,1.9,0.1,2.5,0.8c0.7,0.7,1,1.5,1.5,2.4c1.7,3.3,3.8,6.4,6.5,9
						c-0.5-0.3-1.1-0.5-1.6-0.8c-0.3-0.2-0.7-0.3-1.1-0.2c-0.4,0.1-0.3,1.3,0,1.6C37.9,91.1,35.3,86.2,32.9,82.2"/>
					<path id="XMLID_8730_" class="st25" d="M43.5,94.6c-0.4-0.8-0.5-0.7-0.8-0.9c-0.3-0.2-0.6-0.3-0.9-0.5
						c-0.2-0.1-0.3-0.2-0.5-0.2c-0.4,0-0.8,0.5-0.7,1.1c0.1,0.5,0.4,1,0.8,1.2c0.4,0.3,0.9,0.3,1.3,0.4c0.3,0,0.6,0,0.9-0.2
						C43.6,95.3,43.7,94.8,43.5,94.6"/>
				</g>
				<g id="XMLID_8722_">
					<path id="XMLID_8726_" class="st24" d="M64.4,40.7c-0.9-0.2-1.6-1-1.8-1.9c-0.2-0.9-0.2-1.8-0.1-2.8c0.2-3.7-0.1-7.5-1.1-11.1
						c0.3,0.5,0.7,1,1,1.5c0.2,0.3,0.5,0.6,0.8,0.7s0.9-1,0.8-1.4C64.5,30.5,64.4,36,64.4,40.7"/>
					<path id="XMLID_8723_" class="st25" d="M61.5,24.7c-0.1,0.9,0.1,0.8,0.3,1.2c0.2,0.3,0.4,0.6,0.6,0.9c0.1,0.2,0.2,0.3,0.4,0.4
						c0.4,0.2,0.9-0.1,1.1-0.6c0.2-0.5,0.1-1.1-0.1-1.5c-0.2-0.4-0.6-0.7-1-0.9c-0.3-0.2-0.5-0.3-0.8-0.2
						C61.7,24,61.4,24.4,61.5,24.7"/>
				</g>
				<g id="XMLID_8715_">
					<path id="XMLID_8719_" class="st24" d="M41.3,43.6c0.9,0.1,1.7,0.9,2,1.7s0.3,1.8,0.4,2.7c0.2,3.7,0.9,7.4,2.2,10.9
						c-0.4-0.5-0.8-0.9-1.1-1.4c-0.2-0.3-0.5-0.6-0.9-0.7c-0.4-0.1-0.8,1.1-0.6,1.4C42.2,53.8,41.8,48.3,41.3,43.6"/>
					<path id="XMLID_8716_" class="st25" d="M45.9,59.2c0-0.9-0.1-0.8-0.4-1.1c-0.2-0.3-0.5-0.5-0.7-0.8c-0.1-0.1-0.2-0.3-0.4-0.4
						c-0.4-0.2-0.9,0.2-1.1,0.7c-0.2,0.5,0,1.1,0.2,1.5s0.7,0.6,1,0.8c0.3,0.1,0.6,0.3,0.9,0.2C45.7,60,46,59.5,45.9,59.2"/>
				</g>
				<g id="XMLID_8708_">
					<path id="XMLID_8712_" class="st24" d="M42.7,78.7c-0.9,0.2-1.9-0.3-2.5-1c-0.6-0.7-0.9-1.6-1.2-2.5c-1.4-3.5-3.3-6.7-5.7-9.6
						c0.5,0.3,1,0.6,1.5,0.9c0.3,0.2,0.7,0.4,1.1,0.3c0.4-0.1,0.4-1.3,0.1-1.6C38.5,69.3,40.7,74.4,42.7,78.7"/>
					<path id="XMLID_8709_" class="st25" d="M33.3,65.4c0.3,0.9,0.4,0.7,0.8,0.9c0.3,0.2,0.6,0.4,0.9,0.5c0.2,0.1,0.3,0.2,0.5,0.2
						c0.4,0.1,0.8-0.5,0.8-1s-0.3-1-0.7-1.3c-0.4-0.3-0.8-0.4-1.3-0.5c-0.3,0-0.6-0.1-0.9,0.1C33.2,64.6,33.1,65.1,33.3,65.4"/>
				</g>
				<g id="XMLID_8701_">
					<path id="XMLID_8705_" class="st24" d="M39.1,26.6c-0.2,0.9-1,1.6-1.9,1.8c-0.9,0.2-1.8,0.1-2.8,0.1c-3.7-0.2-7.5,0.1-11.1,1.1
						c0.5-0.3,1-0.7,1.5-1c0.3-0.2,0.6-0.5,0.7-0.8c0.1-0.4-1-0.9-1.4-0.8C28.8,26.4,34.4,26.6,39.1,26.6"/>
					<path id="XMLID_8702_" class="st25" d="M23.1,29.5c0.9,0.1,0.8-0.1,1.2-0.3c0.3-0.2,0.6-0.4,0.9-0.6c0.2-0.1,0.3-0.2,0.4-0.4
						c0.2-0.4-0.1-0.9-0.6-1.1s-1.1-0.1-1.5,0.1c-0.4,0.2-0.7,0.6-0.9,0.9c-0.2,0.3-0.3,0.5-0.2,0.8S22.7,29.6,23.1,29.5"/>
				</g>
				<g id="XMLID_8694_">
					<path id="XMLID_8698_" class="st24" d="M37.5,40.3c-0.4-0.8-0.2-1.9,0.4-2.6c0.6-0.7,1.4-1.3,2.1-1.8c3.1-2.1,5.8-4.7,8-7.7
						c-0.2,0.6-0.4,1.1-0.5,1.7c-0.1,0.4-0.2,0.8-0.1,1.1c0.2,0.3,1.4,0.1,1.6-0.3C45.6,34.1,41.2,37.4,37.5,40.3"/>
					<path id="XMLID_8695_" class="st25" d="M48.3,28.1c-0.8,0.5-0.6,0.6-0.7,1c-0.1,0.3-0.2,0.7-0.3,1c-0.1,0.2-0.1,0.4-0.1,0.5
						c0.1,0.4,0.6,0.7,1.1,0.5s0.9-0.5,1.1-1c0.2-0.4,0.2-0.9,0.2-1.3c0-0.3-0.1-0.6-0.3-0.8S48.5,27.8,48.3,28.1"/>
				</g>
				<g id="XMLID_8687_">
					<path id="XMLID_8691_" class="st24" d="M54.5,84.6c-0.1,0.9-0.8,1.7-1.7,2C51.9,87,50.9,87,50,87c-3.7,0.2-7.4,1-10.9,2.3
						c0.5-0.4,0.9-0.8,1.4-1.2c0.3-0.2,0.6-0.5,0.6-0.9c0.1-0.4-1.1-0.8-1.5-0.6C44.3,85.7,49.8,85.2,54.5,84.6"/>
					<path id="XMLID_8688_" class="st25" d="M38.9,89.3c0.9,0,0.8-0.2,1.1-0.4c0.3-0.2,0.5-0.5,0.8-0.7c0.1-0.1,0.3-0.2,0.4-0.4
						c0.2-0.4-0.2-0.9-0.7-1.1s-1.1,0-1.5,0.2c-0.4,0.3-0.6,0.7-0.8,1c-0.1,0.3-0.3,0.6-0.1,0.9S38.6,89.4,38.9,89.3"/>
				</g>
				<g id="XMLID_8680_">
					<path id="XMLID_8684_" class="st24" d="M46.2,72.9c0.7-0.6,1.8-0.6,2.6-0.2c0.9,0.4,1.5,1,2.2,1.7c2.8,2.5,5.9,4.6,9.3,6
						c-0.6,0-1.2-0.1-1.8-0.1c-0.4,0-0.8,0-1.1,0.2c-0.3,0.2,0.2,1.3,0.6,1.5C54.1,79.4,49.9,75.8,46.2,72.9"/>
					<path id="XMLID_8681_" class="st25" d="M60.5,80.6c-0.6-0.6-0.7-0.5-1.1-0.5c-0.3,0-0.7-0.1-1-0.1c-0.2,0-0.4,0-0.5,0
						c-0.4,0.1-0.5,0.8-0.3,1.2s0.7,0.8,1.2,0.9c0.5,0.1,0.9,0,1.3-0.1c0.3-0.1,0.6-0.2,0.7-0.5C61,81.2,60.9,80.7,60.5,80.6"/>
				</g>
				<g id="XMLID_8673_">
					<path id="XMLID_8677_" class="st24" d="M64.6,53.4c0.6,0.7,0.7,1.7,0.4,2.6c-0.3,0.9-0.9,1.6-1.5,2.3c-2.3,2.9-4.2,6.2-5.5,9.7
						c0-0.6,0-1.2,0-1.8c0-0.4,0-0.8-0.2-1.1s-1.3,0.3-1.4,0.7C58.5,61.7,61.8,57.3,64.6,53.4"/>
					<path id="XMLID_8674_" class="st25" d="M57.7,68.2c0.6-0.7,0.4-0.7,0.4-1.1c0-0.3,0-0.7,0-1c0-0.2,0-0.4-0.1-0.5
						c-0.2-0.4-0.8-0.5-1.2-0.2c-0.5,0.3-0.7,0.8-0.8,1.3c-0.1,0.5,0.1,0.9,0.2,1.3c0.1,0.3,0.3,0.6,0.5,0.7S57.6,68.5,57.7,68.2"/>
				</g>
				<g id="XMLID_8666_">
					<path id="XMLID_8670_" class="st24" d="M58.5,52.3c-0.8-0.4-1.3-1.4-1.3-2.3s0.3-1.8,0.6-2.7c1.2-3.5,1.8-7.3,1.7-11
						c0.2,0.6,0.4,1.1,0.6,1.7c0.1,0.4,0.3,0.7,0.6,0.9c0.3,0.2,1.1-0.8,1.1-1.1C61.2,42.4,59.6,47.7,58.5,52.3"/>
					<path id="XMLID_8667_" class="st25" d="M59.7,36c-0.3,0.8-0.1,0.8,0,1.2c0.1,0.3,0.2,0.7,0.4,1c0.1,0.2,0.1,0.3,0.2,0.5
						c0.3,0.3,0.9,0.2,1.2-0.3s0.4-1,0.3-1.5c-0.1-0.5-0.4-0.8-0.7-1.2c-0.2-0.2-0.4-0.4-0.8-0.4C60,35.4,59.7,35.7,59.7,36"/>
				</g>
				<g id="XMLID_8659_">
					<path id="XMLID_8663_" class="st24" d="M66.2,79.4c0.8,0.5,1.2,1.5,1.1,2.4c-0.1,0.9-0.4,1.8-0.8,2.7
						c-1.4,3.4-2.3,7.1-2.5,10.8c-0.2-0.6-0.3-1.1-0.5-1.7c-0.1-0.4-0.2-0.8-0.5-1s-1.2,0.7-1.2,1.1C62.9,89.1,64.7,83.9,66.2,79.4"
						/>
					<path id="XMLID_8660_" class="st25" d="M63.9,95.5c0.4-0.8,0.2-0.8,0.1-1.2c-0.1-0.3-0.2-0.7-0.3-1c0-0.2-0.1-0.4-0.2-0.5
						c-0.3-0.3-0.9-0.2-1.2,0.2c-0.4,0.4-0.5,1-0.4,1.4c0.1,0.5,0.3,0.9,0.6,1.2c0.2,0.2,0.4,0.5,0.7,0.5S63.9,95.9,63.9,95.5"/>
				</g>
				<g id="XMLID_8652_">
					<path id="XMLID_8656_" class="st24" d="M25.3,39.1c-0.9,0-1.8-0.6-2.2-1.5s-0.6-1.8-0.7-2.7c-0.6-3.7-1.8-7.2-3.6-10.5
						c0.4,0.4,0.9,0.8,1.3,1.2c0.3,0.3,0.6,0.5,1,0.5c0.4,0,0.6-1.2,0.4-1.5C23.1,29.1,24.2,34.5,25.3,39.1"/>
					<path id="XMLID_8653_" class="st25" d="M18.8,24.2c0.1,0.9,0.3,0.8,0.6,1.1c0.3,0.2,0.5,0.5,0.8,0.7c0.1,0.1,0.3,0.3,0.4,0.3
						c0.4,0.1,0.9-0.3,1-0.8s-0.1-1.1-0.4-1.4s-0.7-0.6-1.1-0.7c-0.3-0.1-0.6-0.2-0.9,0C18.8,23.4,18.6,23.8,18.8,24.2"/>
				</g>
				<g id="XMLID_8645_">
					<path id="XMLID_8649_" class="st24" d="M57.4,68.7c0.9-0.2,1.9,0.3,2.4,1c0.6,0.7,0.9,1.6,1.2,2.5c1.3,3.5,3.2,6.8,5.6,9.6
						c-0.5-0.3-1-0.6-1.5-0.9c-0.3-0.2-0.7-0.4-1-0.3c-0.4,0.1-0.4,1.3-0.1,1.6C61.5,78.1,59.4,73,57.4,68.7"/>
					<path id="XMLID_8646_" class="st25" d="M66.7,82.1c-0.3-0.9-0.4-0.7-0.8-1c-0.3-0.2-0.6-0.4-0.9-0.5c-0.2-0.1-0.3-0.2-0.5-0.2
						c-0.4-0.1-0.8,0.4-0.8,1s0.3,1,0.7,1.3c0.4,0.3,0.8,0.4,1.3,0.5c0.3,0,0.6,0.1,0.9-0.1C66.8,82.8,66.9,82.3,66.7,82.1"/>
				</g>
				<g id="XMLID_8638_">
					<path id="XMLID_8642_" class="st24" d="M26.2,63.6c-0.4-0.8-0.2-1.9,0.4-2.6c0.5-0.8,1.3-1.3,2.1-1.8c3-2.2,5.7-4.8,7.9-7.8
						c-0.2,0.6-0.3,1.1-0.5,1.7c-0.1,0.4-0.2,0.8-0.1,1.1c0.2,0.3,1.4,0.1,1.6-0.3C34.2,57.2,29.9,60.6,26.2,63.6"/>
					<path id="XMLID_8639_" class="st25" d="M36.8,51.2c-0.8,0.5-0.6,0.6-0.7,1c-0.1,0.3-0.2,0.7-0.3,1c-0.1,0.2-0.1,0.4-0.1,0.5
						c0.1,0.4,0.6,0.7,1.1,0.5c0.5-0.1,0.9-0.6,1.1-1s0.2-0.9,0.1-1.3c0-0.3-0.1-0.6-0.3-0.8S37,51,36.8,51.2"/>
				</g>
				<g id="XMLID_8631_">
					<path id="XMLID_8635_" class="st24" d="M58.7,60.5c-0.8,0.4-1.9,0.1-2.6-0.5c-0.7-0.6-1.2-1.4-1.7-2.2c-2-3.1-4.5-6-7.4-8.3
						c0.6,0.2,1.1,0.4,1.7,0.6c0.4,0.1,0.7,0.3,1.1,0.1c0.3-0.1,0.1-1.4-0.2-1.6C52.7,52.2,55.9,56.7,58.7,60.5"/>
					<path id="XMLID_8632_" class="st25" d="M46.9,49.3c0.5,0.8,0.5,0.6,0.9,0.8c0.3,0.1,0.7,0.2,1,0.4c0.2,0.1,0.3,0.1,0.5,0.1
						c0.4,0,0.7-0.6,0.6-1.1c-0.1-0.5-0.5-0.9-0.9-1.2c-0.4-0.2-0.9-0.2-1.3-0.2c-0.3,0-0.6,0.1-0.8,0.3
						C46.6,48.6,46.6,49.1,46.9,49.3"/>
				</g>
				<g id="XMLID_8624_">
					<path id="XMLID_8628_" class="st24" d="M44.6,72.1c0.8,0.4,1.2,1.4,1.2,2.4s-0.4,1.8-0.7,2.7c-1.3,3.5-2,7.2-2,10.9
						c-0.2-0.6-0.4-1.1-0.5-1.7c-0.1-0.4-0.3-0.7-0.6-0.9c-0.3-0.2-1.1,0.7-1.1,1.1C41.6,81.9,43.3,76.6,44.6,72.1"/>
					<path id="XMLID_8625_" class="st25" d="M42.9,88.3c0.3-0.8,0.2-0.8,0-1.2c-0.1-0.3-0.2-0.7-0.3-1c-0.1-0.2-0.1-0.4-0.2-0.5
						c-0.3-0.3-0.9-0.2-1.2,0.2c-0.3,0.4-0.4,1-0.3,1.4c0.1,0.5,0.4,0.8,0.6,1.2c0.2,0.2,0.4,0.5,0.7,0.5S42.9,88.6,42.9,88.3"/>
				</g>
				<g id="XMLID_8616_">
					<path id="XMLID_8621_" class="st24" d="M41.6,42.6c0.5-0.8,1.5-1.1,2.4-1s1.8,0.5,2.6,0.9c3.4,1.5,7.1,2.4,10.8,2.7
						c-0.6,0.1-1.1,0.3-1.7,0.4c-0.4,0.1-0.8,0.2-1,0.5c-0.2,0.3,0.7,1.2,1,1.2C51.2,46.2,46.1,44.1,41.6,42.6"/>
					<path id="XMLID_8617_" class="st25" d="M57.7,45.2c-0.8-0.4-0.8-0.2-1.2-0.1c-0.3,0.1-0.7,0.2-1,0.3c-0.2,0-0.4,0.1-0.5,0.2
						c-0.3,0.3-0.2,0.9,0.1,1.3c0.4,0.4,1,0.5,1.4,0.4c0.5-0.1,0.9-0.3,1.2-0.6c0.2-0.2,0.5-0.4,0.5-0.7
						C58.3,45.7,58,45.3,57.7,45.2"/>
				</g>
				<g id="XMLID_8609_">
					<path id="XMLID_8613_" class="st24" d="M49,31.5c-1.1-2.4-2.2-4.8-3.3-7.3c0.9,0.8,1,2.3,2,3.1c0.3,0.3,0.9,0.3,1.1,0
						c0.1-0.2,0.1-0.5,0-0.7c-0.2-0.7-0.5-1.3-0.7-2c0.9,0.8,1.6,1.8,2,2.9c0.3,0.7,0.6,1.5,0.8,2.3c0.5,1.6,1,3.3,1.5,4.9
						c-1.4-0.8-2.5-2.1-3.5-3.4"/>
					<path id="XMLID_8610_" class="st25" d="M46,25.1c-0.2-0.3-0.4-0.7-0.4-1s0.1-0.8,0.4-0.9c0.4-0.2,0.9,0.1,1.2,0.5
						c0.6,0.5,1,1.2,1.4,1.9c0.2,0.3,0.3,0.7,0.3,1.1c0,0.4-0.2,0.8-0.6,0.9c-0.4,0.2-0.9-0.1-1.3-0.4C46.3,26.4,46.5,26.1,46,25.1"
						/>
				</g>
				<g id="XMLID_8602_">
					<path id="XMLID_8606_" class="st24" d="M53,84.6c1.3,2.3,2.6,4.6,4,6.9c-1-0.7-1.2-2.2-2.2-2.9c-0.4-0.2-1-0.3-1.1,0.1
						c-0.1,0.2,0,0.5,0.1,0.7c0.3,0.7,0.6,1.3,0.9,1.9c-0.9-0.8-1.7-1.7-2.3-2.7c-0.4-0.7-0.7-1.5-1-2.2c-0.6-1.6-1.3-3.2-1.9-4.8
						c1.5,0.7,2.7,1.9,3.8,3.1"/>
					<path id="XMLID_8603_" class="st25" d="M56.5,90.7c0.2,0.3,0.4,0.6,0.5,1c0.1,0.4,0,0.8-0.4,0.9c-0.4,0.2-0.9-0.1-1.2-0.3
						c-0.6-0.5-1.1-1.1-1.5-1.7c-0.2-0.3-0.4-0.7-0.4-1.1c0-0.4,0.1-0.8,0.5-1c0.4-0.2,0.9,0,1.3,0.3C56.1,89.4,56,89.7,56.5,90.7"
						/>
				</g>
				<g id="XMLID_8595_">
					<path id="XMLID_8599_" class="st24" d="M44.4,42.5c-1.4,2.3-2.8,4.5-4.3,6.8c0.1-1.2,1.4-2.1,1.5-3.3c0-0.4-0.2-1-0.7-0.9
						c-0.2,0-0.4,0.2-0.6,0.4c-0.5,0.5-0.9,1.1-1.2,1.7c0.2-1.2,0.7-2.3,1.3-3.3c0.4-0.7,1-1.3,1.5-1.9c1.1-1.3,2.2-2.6,3.3-3.9
						c0.1,1.6-0.4,3.3-1,4.8"/>
					<path id="XMLID_8596_" class="st25" d="M40.7,48.5c-0.2,0.3-0.4,0.7-0.7,0.9c-0.3,0.2-0.7,0.3-1,0.1c-0.4-0.3-0.4-0.8-0.3-1.3
						c0.1-0.8,0.4-1.5,0.8-2.2c0.2-0.3,0.4-0.7,0.8-0.9c0.3-0.2,0.8-0.2,1.1,0c0.4,0.3,0.4,0.8,0.3,1.3
						C41.6,47.5,41.3,47.6,40.7,48.5"/>
				</g>
				<g id="XMLID_8588_">
					<path id="XMLID_8592_" class="st24" d="M24.9,76.4c1.8,2,3.5,4,5.3,6c-1.1-0.5-1.6-1.9-2.8-2.4c-0.4-0.1-1-0.1-1.1,0.4
						c-0.1,0.2,0.1,0.5,0.2,0.7c0.4,0.6,0.8,1.1,1.3,1.7c-1.1-0.6-2-1.3-2.8-2.2c-0.5-0.6-1-1.3-1.4-2c-0.9-1.4-1.9-2.9-2.8-4.3
						c1.6,0.4,3,1.3,4.4,2.3"/>
					<path id="XMLID_8589_" class="st25" d="M29.5,81.6c0.3,0.3,0.5,0.5,0.7,0.9c0.1,0.3,0.1,0.8-0.2,1c-0.3,0.3-0.9,0.1-1.3-0.1
						c-0.7-0.3-1.3-0.8-1.9-1.4c-0.3-0.3-0.5-0.6-0.6-1c-0.1-0.4,0-0.8,0.3-1c0.4-0.3,0.9-0.1,1.3,0C28.9,80.5,28.8,80.8,29.5,81.6"
						/>
				</g>
				<g id="XMLID_8581_">
					<path id="XMLID_8585_" class="st24" d="M31.8,46.1c2.4,1.1,4.8,2.2,7.3,3.3c-1.2,0-2.3-1.1-3.5-1c-0.4,0-0.9,0.3-0.8,0.8
						c0,0.2,0.3,0.4,0.5,0.5c0.6,0.4,1.2,0.7,1.8,1c-1.2-0.1-2.4-0.4-3.5-0.9c-0.7-0.3-1.4-0.8-2.1-1.2c-1.4-0.9-2.9-1.9-4.3-2.8
						c1.6-0.3,3.3,0,4.9,0.3"/>
					<path id="XMLID_8582_" class="st25" d="M38.2,49c0.3,0.1,0.7,0.3,1,0.5s0.4,0.7,0.3,1c-0.2,0.4-0.7,0.5-1.2,0.4
						c-0.8,0-1.5-0.2-2.3-0.5c-0.4-0.2-0.7-0.3-1-0.6c-0.2-0.3-0.3-0.7-0.2-1.1c0.2-0.4,0.8-0.5,1.2-0.5
						C37.1,48.2,37.2,48.6,38.2,49"/>
				</g>
				<g id="XMLID_8574_">
					<path id="XMLID_8578_" class="st24" d="M37.7,24.4c2.3,1.3,4.6,2.6,7,3.9c-1.2-0.1-2.2-1.3-3.4-1.3c-0.4,0-1,0.3-0.9,0.7
						c0,0.2,0.2,0.4,0.4,0.6c0.6,0.4,1.1,0.8,1.8,1.1c-1.2-0.2-2.3-0.6-3.4-1.2c-0.7-0.4-1.4-0.9-2-1.4c-1.4-1-2.7-2.1-4.1-3.1
						c1.6-0.2,3.3,0.2,4.9,0.7"/>
					<path id="XMLID_8575_" class="st25" d="M43.8,27.8c0.3,0.2,0.7,0.3,0.9,0.6s0.4,0.7,0.2,1c-0.2,0.4-0.8,0.4-1.2,0.3
						c-0.8-0.1-1.5-0.3-2.2-0.7c-0.3-0.2-0.7-0.4-0.9-0.7c-0.2-0.3-0.3-0.8-0.1-1.1c0.3-0.4,0.8-0.4,1.3-0.4
						C42.8,27,42.9,27.3,43.8,27.8"/>
				</g>
				<g id="XMLID_8567_">
					<path id="XMLID_8571_" class="st24" d="M23.6,90.2c2.2-1.5,4.4-3,6.6-4.5c-0.6,1.1-2.1,1.4-2.7,2.5c-0.2,0.4-0.2,1,0.2,1.1
						c0.2,0.1,0.5,0,0.7-0.1c0.6-0.3,1.2-0.7,1.8-1.1c-0.7,1-1.6,1.8-2.5,2.5c-0.7,0.5-1.4,0.8-2.1,1.2C24,92.5,22.5,93.2,21,94
						c0.6-1.6,1.7-2.8,2.8-4"/>
					<path id="XMLID_8568_" class="st25" d="M29.4,86.2c0.3-0.2,0.6-0.5,1-0.6c0.4-0.1,0.8,0,1,0.3c0.2,0.4,0,0.9-0.2,1.3
						c-0.4,0.6-1,1.2-1.6,1.7c-0.3,0.2-0.7,0.4-1,0.5s-0.8-0.1-1-0.4c-0.2-0.4,0-0.9,0.2-1.3C28.2,86.7,28.5,86.8,29.4,86.2"/>
				</g>
				<g id="XMLID_8560_">
					<path id="XMLID_8564_" class="st24" d="M57.2,84.9c1.1-2.4,2.2-4.8,3.3-7.3c0,1.2-1.1,2.3-1,3.5c0,0.4,0.3,0.9,0.8,0.8
						c0.2,0,0.4-0.3,0.5-0.5c0.4-0.6,0.7-1.2,1-1.8c-0.1,1.2-0.4,2.4-0.9,3.5c-0.3,0.7-0.8,1.4-1.2,2.1c-0.9,1.4-1.9,2.9-2.8,4.3
						c-0.3-1.6,0-3.3,0.3-4.9"/>
					<path id="XMLID_8561_" class="st25" d="M60.1,78.5c0.1-0.3,0.3-0.7,0.5-1c0.3-0.3,0.7-0.4,1-0.3c0.4,0.2,0.5,0.7,0.4,1.2
						c0,0.8-0.2,1.5-0.5,2.3c-0.2,0.4-0.3,0.7-0.6,1c-0.3,0.2-0.7,0.3-1.1,0.2c-0.4-0.2-0.5-0.8-0.5-1.2
						C59.3,79.6,59.6,79.5,60.1,78.5"/>
				</g>
				<g id="XMLID_8553_">
					<path id="XMLID_8557_" class="st24" d="M26.7,46.5c-0.9,2.5-1.9,5-2.8,7.5c-0.1-1.2,1-2.3,0.8-3.5c-0.1-0.4-0.4-0.9-0.8-0.8
						c-0.2,0.1-0.4,0.3-0.5,0.5c-0.3,0.6-0.6,1.3-0.9,1.9c0-1.2,0.2-2.4,0.6-3.5c0.3-0.8,0.7-1.5,1.1-2.2c0.8-1.5,1.6-3,2.5-4.5
						c0.4,1.6,0.3,3.3,0,4.9"/>
					<path id="XMLID_8554_" class="st25" d="M24.3,53.1c-0.1,0.4-0.2,0.7-0.5,1c-0.2,0.3-0.6,0.5-1,0.3c-0.4-0.2-0.5-0.7-0.5-1.2
						c0-0.8,0.1-1.5,0.3-2.3c0.1-0.4,0.3-0.7,0.6-1c0.3-0.3,0.7-0.4,1-0.2c0.4,0.2,0.5,0.7,0.6,1.2C25,52,24.6,52.1,24.3,53.1"/>
				</g>
				<g id="XMLID_8546_">
					<path id="XMLID_8550_" class="st24" d="M54.5,67.7c2.6,0.3,5.3,0.7,7.9,1c-1.2,0.4-2.5-0.4-3.6,0.1c-0.4,0.2-0.8,0.6-0.6,1
						c0.1,0.2,0.4,0.3,0.6,0.4c0.7,0.2,1.4,0.3,2.1,0.4c-1.2,0.3-2.4,0.3-3.6,0.2c-0.8-0.1-1.6-0.3-2.4-0.5c-1.7-0.4-3.3-0.9-5-1.3
						c1.5-0.8,3.1-1,4.8-1.2"/>
					<path id="XMLID_8547_" class="st25" d="M61.5,68.6c0.4,0,0.8,0,1.1,0.2c0.3,0.2,0.6,0.5,0.5,0.9c-0.1,0.4-0.6,0.7-1,0.8
						c-0.7,0.2-1.5,0.3-2.3,0.2c-0.4,0-0.8-0.1-1.1-0.3c-0.3-0.2-0.5-0.6-0.5-1c0.1-0.4,0.6-0.7,1-0.9
						C60.2,68.1,60.4,68.4,61.5,68.6"/>
				</g>
				<g id="XMLID_8539_">
					<path id="XMLID_8543_" class="st24" d="M48.9,70.5c-1.4,2.3-2.8,4.6-4.1,6.9c0.1-1.2,1.4-2.1,1.4-3.3c0-0.4-0.2-1-0.7-0.9
						c-0.2,0-0.4,0.2-0.6,0.4c-0.4,0.5-0.8,1.1-1.2,1.7c0.2-1.2,0.6-2.3,1.3-3.3c0.4-0.7,0.9-1.3,1.5-2c1.1-1.3,2.2-2.7,3.2-4
						c0.1,1.6-0.3,3.3-0.9,4.8"/>
					<path id="XMLID_8540_" class="st25" d="M45.3,76.5c-0.2,0.3-0.3,0.7-0.6,0.9c-0.3,0.2-0.7,0.3-1,0.1c-0.4-0.2-0.4-0.8-0.3-1.3
						c0.1-0.8,0.4-1.5,0.8-2.2c0.2-0.3,0.4-0.7,0.7-0.9c0.3-0.2,0.8-0.3,1.1,0c0.4,0.3,0.4,0.8,0.4,1.3
						C46.2,75.6,45.8,75.6,45.3,76.5"/>
				</g>
				<g id="XMLID_8532_">
					<path id="XMLID_8536_" class="st24" d="M55,91.4c2.6,0.3,5.3,0.6,7.9,0.9c-1.2,0.4-2.5-0.3-3.6,0.1c-0.4,0.2-0.8,0.6-0.6,1
						c0.1,0.2,0.4,0.3,0.6,0.4c0.7,0.2,1.4,0.3,2.1,0.4c-1.2,0.3-2.4,0.4-3.6,0.2c-0.8-0.1-1.6-0.3-2.4-0.5c-1.7-0.4-3.3-0.8-5-1.3
						c1.4-0.8,3.1-1.1,4.8-1.2"/>
					<path id="XMLID_8533_" class="st25" d="M62,92.2c0.4,0,0.8,0,1.1,0.2c0.3,0.2,0.6,0.5,0.6,0.9c-0.1,0.4-0.6,0.7-1,0.8
						c-0.7,0.2-1.5,0.3-2.3,0.2c-0.4,0-0.8-0.1-1.1-0.3s-0.6-0.6-0.5-1c0.1-0.4,0.6-0.7,1-0.9C60.7,91.8,60.9,92,62,92.2"/>
				</g>
				<g id="XMLID_8525_">
					<path id="XMLID_8529_" class="st24" d="M23.3,38.4c0.8,2.5,1.7,5.1,2.5,7.6c-0.8-0.9-0.7-2.4-1.6-3.3c-0.3-0.3-0.9-0.4-1.1-0.1
						c-0.1,0.2-0.1,0.5-0.1,0.7c0.1,0.7,0.3,1.4,0.5,2c-0.8-0.9-1.3-2-1.7-3.1c-0.3-0.8-0.4-1.6-0.5-2.4c-0.3-1.7-0.6-3.4-0.9-5.1
						c1.3,1,2.3,2.4,3.1,3.8"/>
					<path id="XMLID_8526_" class="st25" d="M25.5,45.1c0.1,0.3,0.3,0.7,0.3,1.1c0,0.4-0.2,0.8-0.5,0.9c-0.4,0.1-0.9-0.2-1.2-0.6
						c-0.5-0.6-0.9-1.3-1.2-2c-0.1-0.4-0.2-0.8-0.2-1.1c0.1-0.4,0.3-0.8,0.7-0.8c0.4-0.1,0.9,0.2,1.2,0.6
						C25.3,43.8,25.2,44.1,25.5,45.1"/>
				</g>
				<g id="XMLID_8518_">
					<path id="XMLID_8522_" class="st24" d="M57,34.7c-0.2,2.7-0.4,5.3-0.7,8c-0.4-1.1,0.3-2.5-0.2-3.6c-0.2-0.4-0.6-0.8-1-0.5
						c-0.2,0.1-0.3,0.4-0.3,0.6c-0.2,0.7-0.3,1.4-0.3,2.1c-0.3-1.2-0.5-2.4-0.3-3.6c0.1-0.8,0.3-1.6,0.4-2.4c0.4-1.7,0.8-3.4,1.1-5
						c0.9,1.4,1.2,3.1,1.4,4.7"/>
					<path id="XMLID_8519_" class="st25" d="M56.5,41.6c0,0.4,0,0.8-0.2,1.1s-0.5,0.6-0.8,0.6c-0.4-0.1-0.7-0.5-0.8-1
						c-0.2-0.7-0.3-1.5-0.3-2.3c0-0.4,0.1-0.8,0.3-1.1s0.6-0.6,0.9-0.5c0.4,0.1,0.7,0.5,0.9,1C56.8,40.4,56.6,40.6,56.5,41.6"/>
				</g>
				<g id="XMLID_8511_">
					<path id="XMLID_8515_" class="st24" d="M31.3,63.7c-0.6,2.6-1.1,5.2-1.7,7.8c-0.3-1.2,0.6-2.4,0.3-3.6
						c-0.1-0.4-0.5-0.8-0.9-0.7c-0.2,0.1-0.3,0.4-0.4,0.6c-0.2,0.7-0.4,1.3-0.6,2c-0.2-1.2-0.1-2.4,0.1-3.6c0.2-0.8,0.5-1.6,0.8-2.3
						c0.6-1.6,1.2-3.2,1.8-4.8c0.7,1.5,0.7,3.2,0.7,4.9"/>
					<path id="XMLID_8512_" class="st25" d="M29.9,70.6c-0.1,0.4-0.1,0.7-0.3,1.1s-0.6,0.5-0.9,0.5C28.2,72,28,71.5,28,71
						c-0.1-0.8-0.1-1.5,0-2.3c0.1-0.4,0.2-0.8,0.4-1.1s0.6-0.5,1-0.4c0.4,0.1,0.6,0.6,0.8,1.1C30.4,69.4,30.1,69.5,29.9,70.6"/>
				</g>
				<g id="XMLID_8504_">
					<path id="XMLID_8508_" class="st24" d="M66.8,95.5c-2.6-0.8-5.1-1.5-7.7-2.3c1.2-0.2,2.4,0.8,3.6,0.5c0.4-0.1,0.9-0.5,0.7-0.9
						c-0.1-0.2-0.3-0.4-0.6-0.5c-0.6-0.3-1.3-0.5-2-0.7c1.2-0.1,2.4,0,3.6,0.4c0.8,0.2,1.5,0.6,2.3,0.9c1.6,0.7,3.1,1.4,4.7,2.1
						c-1.6,0.5-3.3,0.5-4.9,0.4"/>
					<path id="XMLID_8505_" class="st25" d="M60,93.6c-0.4-0.1-0.7-0.2-1-0.4c-0.3-0.2-0.5-0.6-0.4-0.9c0.1-0.4,0.7-0.6,1.1-0.6
						c0.8-0.1,1.6,0,2.3,0.2c0.4,0.1,0.8,0.2,1,0.5c0.3,0.3,0.4,0.7,0.3,1c-0.2,0.4-0.7,0.6-1.1,0.7C61.2,94.2,61.1,93.9,60,93.6"/>
				</g>
				<g id="XMLID_8497_">
					<path id="XMLID_8501_" class="st24" d="M50.9,65.7c-0.4-2.6-0.8-5.3-1.1-7.9c0.7,1,0.3,2.5,1,3.5c0.3,0.3,0.8,0.6,1.1,0.3
						c0.2-0.2,0.2-0.5,0.2-0.7c0-0.7-0.1-1.4-0.2-2.1c0.6,1,1,2.2,1.1,3.4c0.1,0.8,0.1,1.6,0.1,2.5c0,1.7,0,3.4,0,5.2
						c-1.1-1.2-1.8-2.7-2.4-4.3"/>
					<path id="XMLID_8498_" class="st25" d="M49.9,58.7c-0.1-0.4-0.2-0.7-0.1-1.1c0.1-0.4,0.3-0.7,0.7-0.7c0.4,0,0.8,0.4,1,0.8
						c0.4,0.7,0.7,1.4,0.8,2.2c0.1,0.4,0.1,0.8,0,1.2c-0.1,0.4-0.4,0.7-0.8,0.7c-0.5,0-0.8-0.4-1.1-0.8C49.8,60,50,59.8,49.9,58.7"
						/>
				</g>
				<g id="XMLID_8490_">
					<path id="XMLID_8494_" class="st24" d="M42.7,61.9c0.7-2.6,1.4-5.1,2.1-7.7c0.2,1.2-0.7,2.4-0.4,3.6c0.1,0.4,0.5,0.9,0.9,0.7
						c0.2-0.1,0.4-0.3,0.5-0.6c0.3-0.6,0.5-1.3,0.7-2c0.1,1.2,0,2.4-0.3,3.6c-0.2,0.8-0.5,1.5-0.9,2.3c-0.7,1.6-1.3,3.2-2,4.7
						c-0.6-1.5-0.6-3.2-0.5-4.9"/>
					<path id="XMLID_8491_" class="st25" d="M44.5,55.1c0.1-0.4,0.2-0.7,0.4-1c0.2-0.3,0.6-0.5,0.9-0.4c0.4,0.1,0.6,0.7,0.6,1.1
						c0.1,0.8,0,1.6-0.1,2.3c-0.1,0.4-0.2,0.8-0.5,1.1s-0.7,0.5-1,0.3c-0.4-0.2-0.6-0.7-0.7-1.1C43.9,56.3,44.2,56.2,44.5,55.1"/>
				</g>
				<g id="XMLID_8483_">
					<path id="XMLID_8487_" class="st24" d="M22.4,72.2c-0.1-2.7-0.3-5.3-0.4-8c0.6,1.1,0.1,2.5,0.7,3.6c0.2,0.4,0.7,0.7,1.1,0.4
						c0.2-0.2,0.2-0.4,0.3-0.7c0.1-0.7,0.1-1.4,0-2.1c0.5,1.1,0.8,2.3,0.8,3.5c0,0.8,0,1.6-0.1,2.5c-0.1,1.7-0.3,3.4-0.4,5.1
						c-1-1.3-1.6-2.9-2-4.5"/>
					<path id="XMLID_8484_" class="st25" d="M22,65.2c0-0.4-0.1-0.8,0-1.1c0.1-0.4,0.4-0.7,0.8-0.7c0.4,0,0.8,0.4,1,0.9
						c0.3,0.7,0.5,1.5,0.6,2.2c0,0.4,0,0.8-0.1,1.1s-0.5,0.6-0.9,0.6c-0.5,0-0.8-0.4-1-0.9C21.8,66.5,22,66.3,22,65.2"/>
				</g>
				<g id="XMLID_8476_">
					<path id="XMLID_8480_" class="st24" d="M28.6,34.5c0.9,2.5,1.9,5,2.8,7.5c-0.9-0.8-0.8-2.4-1.8-3.2c-0.3-0.3-0.9-0.4-1.1,0
						c-0.1,0.2-0.1,0.5,0,0.7c0.2,0.7,0.4,1.4,0.6,2c-0.8-0.9-1.4-1.9-1.8-3.1c-0.3-0.8-0.5-1.6-0.6-2.4c-0.4-1.7-0.8-3.4-1.1-5
						c1.4,0.9,2.4,2.3,3.3,3.7"/>
					<path id="XMLID_8477_" class="st25" d="M31.1,41.1c0.2,0.3,0.3,0.7,0.3,1.1c0,0.4-0.2,0.8-0.5,0.9c-0.4,0.1-0.9-0.2-1.2-0.5
						c-0.5-0.6-0.9-1.2-1.2-1.9c-0.2-0.4-0.3-0.7-0.2-1.1c0-0.4,0.3-0.8,0.6-0.9c0.4-0.1,0.9,0.2,1.2,0.5
						C30.9,39.8,30.7,40.1,31.1,41.1"/>
				</g>
				<g id="XMLID_8469_">
					<path id="XMLID_8473_" class="st24" d="M38.3,36.5c-1.4,2.2-2.9,4.5-4.3,6.7c0.2-1.2,1.4-2.1,1.5-3.3c0-0.4-0.2-1-0.7-0.9
						c-0.2,0-0.4,0.2-0.6,0.4c-0.5,0.5-0.9,1.1-1.2,1.7c0.2-1.2,0.7-2.3,1.4-3.3c0.4-0.7,1-1.3,1.5-1.9c1.1-1.3,2.2-2.6,3.3-3.9
						c0.1,1.6-0.4,3.3-1,4.8"/>
					<path id="XMLID_8470_" class="st25" d="M34.5,42.5c-0.2,0.3-0.4,0.7-0.7,0.9c-0.3,0.2-0.7,0.3-1,0.1c-0.4-0.3-0.4-0.8-0.3-1.3
						c0.1-0.8,0.4-1.5,0.8-2.2c0.2-0.3,0.4-0.7,0.8-0.9c0.3-0.2,0.8-0.2,1.1,0c0.4,0.3,0.4,0.8,0.3,1.3
						C35.4,41.5,35.1,41.6,34.5,42.5"/>
				</g>
				<g id="XMLID_8462_">
					<path id="XMLID_8466_" class="st24" d="M33.7,82c-0.2-2.7-0.3-5.3-0.5-8c0.6,1.1,0.1,2.5,0.7,3.6c0.2,0.4,0.7,0.7,1.1,0.4
						c0.2-0.2,0.2-0.4,0.3-0.7c0.1-0.7,0.1-1.4,0-2.1c0.5,1.1,0.8,2.3,0.9,3.5c0,0.8,0,1.6-0.1,2.5c-0.1,1.7-0.3,3.4-0.4,5.1
						c-1-1.3-1.6-2.9-2-4.5"/>
					<path id="XMLID_8463_" class="st25" d="M33.3,75c0-0.4-0.1-0.8,0-1.1c0.1-0.4,0.4-0.7,0.7-0.7c0.4,0,0.8,0.4,1,0.9
						c0.3,0.7,0.5,1.5,0.6,2.2c0,0.4,0,0.8-0.1,1.1c-0.1,0.4-0.5,0.7-0.9,0.6c-0.5,0-0.8-0.4-1-0.8C33.1,76.3,33.3,76.1,33.3,75"/>
				</g>
				<g id="XMLID_1380_">
					<path id="XMLID_1477_" class="st24" d="M45,91.8c2.7,0,5.3-0.1,8-0.1c-1.1,0.5-2.5,0-3.6,0.6c-0.4,0.2-0.7,0.7-0.4,1.1
						c0.1,0.2,0.4,0.3,0.7,0.3c0.7,0.1,1.4,0.1,2.1,0.1c-1.1,0.4-2.3,0.7-3.5,0.7c-0.8,0-1.6-0.1-2.4-0.2c-1.7-0.2-3.4-0.4-5.1-0.6
						c1.3-1,3-1.4,4.6-1.8"/>
					<path id="XMLID_1387_" class="st25" d="M52,91.7c0.4,0,0.8-0.1,1.1,0.1c0.4,0.1,0.7,0.4,0.7,0.8c0,0.4-0.5,0.7-0.9,0.9
						c-0.7,0.3-1.5,0.5-2.3,0.5c-0.4,0-0.8,0-1.1-0.2c-0.3-0.2-0.6-0.5-0.6-0.9c0-0.5,0.5-0.8,0.9-1C50.7,91.4,50.9,91.7,52,91.7"/>
				</g>
			</g>
		</g>
		<path id="XMLID_73_" class="st27" d="M14.4,12.3c0.3-1.2-0.7-2.1,0-3.1c0.5-0.7,1.5-0.7,2.4-0.7C20.4,8.8,24,9,27.5,9.3
			c3,0.2,6,0.4,8.9,0.2C38.3,9.3,40.2,9,42,8.8c2.6-0.2,5.1-0.2,7.7-0.2c6.6,0,13.3,0.1,19.9,0.1c1.2,0,2.7,0.4,2.6,1.6
			c-0.1,1.1-1.5,1.4-2.5,1.4C51.3,11.9,32.8,12.1,14.4,12.3"/>
		<path id="XMLID_75_" class="st28" d="M14.1,12.5c1.4,3.5,2.5,7,3.3,10.7c17.8,0.2,35.6,0.1,53.3-0.2c-0.7-3.7-0.5-7.5,0.4-11.2
			c-11.4,0.1-24.8,0.4-36.1,0.4c-7.9,0-13.5-1.1-20.9-0.4"/>
		<path id="XMLID_1325_" class="st27" d="M14.4,96.2c-0.1,1.4,0,2.9,0.2,4.3c18.6-1.9,37.5-0.6,56.2-1.2c0.3,0,0.6,0,0.9-0.2
			c0.2-0.2,0.3-0.5,0.4-0.8c0.2-0.8,0.4-1.8-0.2-2.5c-0.7-0.8-1.9-0.6-3-0.4c-3.4,0.5-6.8-0.3-10.2-0.4c-2.4-0.1-4.8,0.1-7.3,0.3
			c-12.4,0.8-24.9-0.6-37.2,1"/>
		<path id="XMLID_1416_" class="st28" d="M69,89.8c-1.5-3.2-1.3-7-2.1-10.5c-0.8-3.2-2.5-6.2-2.8-9.4c-1.6,0.1-3.1,0.3-4.7,0.4
			c-5.1,0.4-10.3,0-15.2-1.2c-2.4-0.6-4.7-1.3-7.1-1.4c-3.6-0.2-7,1-10.5,1.9c-2.4,0.6-4.9,1-7.3,0.7c-0.3,0.6-0.6,1.3-0.8,2
			c-0.5,1.8-0.2,3.8,0,5.7c0.5,6.3-0.7,12.7-3.4,18.4c19.2-1.8,36.6,0.4,54.9-0.5c0.3,0,0.6,0,0.8-0.3c0.2-0.2,0.2-0.4,0.2-0.7
			C71.1,93,69.8,91.4,69,89.8z"/>
	</g>
</g>
</svg>
