<?xml version="1.0" encoding="utf-8"?>
<!-- Generator: Adobe Illustrator 18.1.0, SVG Export Plug-In . SVG Version: 6.00 Build 0)  -->
<svg version="1.1" id="Layer_1" xmlns="http://www.w3.org/2000/svg" xmlns:xlink="http://www.w3.org/1999/xlink" x="0px" y="0px"
	 viewBox="0 0 118.6 88.7" style="enable-background:new 0 0 118.6 88.7;" xml:space="preserve">
<style type="text/css">
	.st0{fill:#FFFFFF;}
	.st1{fill:#0071FC;}
	.st2{fill:none;stroke:#001D2D;stroke-width:2;stroke-linecap:round;stroke-linejoin:round;stroke-miterlimit:10;}
	.st3{fill:#F4D49D;}
	.st4{fill:#44612D;}
	.st5{fill:#9BC53D;}
	.st6{fill:#CDCED0;}
	.st7{fill:#E7E9E6;}
	.st8{fill:#C9A877;}
	.st9{fill:#D2A12A;}
	.st10{fill:#EEA820;}
	.st11{fill:#6E1F3F;}
	.st12{fill:#2AAAE2;}
	.st13{fill:#25809A;}
	.st14{fill:#F48CA3;}
	.st15{fill:#BD294C;}
	.st16{fill:#6B3315;}
	.st17{fill:#ED2024;}
	.st18{fill:#FFCB0B;}
	.st19{fill:#412312;}
	.st20{fill:#282A73;}
	.st21{fill:#228099;}
	.st22{fill:#0000B2;}
	.st23{fill:#FFCB05;}
	.st24{fill:#EFA803;}
	.st25{fill:#D16502;}
	.st26{fill:#902924;}
	.st27{fill:#B71A25;}
	.st28{fill:#FF0005;}
	.st29{fill:#AD8104;}
	.st30{fill:#FFDB9C;}
	.st31{fill:#FFEDD4;}
	.st32{fill:#D3A100;}
	.st33{fill:#006837;}
	.st34{fill:#ED1C24;}
	.st35{fill:#6D6C73;}
	.st36{fill:#BFBEBE;}
	.st37{fill:#FFF5D9;}
	.st38{fill:#FF5005;}
	.st39{fill:#F26636;}
	.st40{fill:#EC2227;}
	.st41{fill:#2C3A96;}
	.st42{fill:#B72027;}
	.st43{fill:#C89754;}
	.st44{fill:#F19121;}
	.st45{fill:#FDEB07;}
	.st46{fill:#FEC045;}
	.st47{fill:#732644;}
	.st48{fill:#BB1E72;}
	.st49{fill:#AD832D;}
	.st50{fill:#08549E;}
	.st51{fill:#416FB6;}
	.st52{fill:#9A3D21;}
	.st53{fill:#BD4D27;}
</style>
<g id="XMLID_577_">
	<g id="XMLID_649_">
		<path id="XMLID_654_" class="st16" d="M1.6,12c-0.4,1-0.3,2.1-0.2,3.1c0.7,11.5,1.4,23,2.1,34.5c0.3,5.3,0.6,10.6-0.2,15.8
			c-0.5,3.3-1.5,6.5-1.9,9.9c-0.4,3.3,0,6.9,1.9,9.7c0.3,0.4,0.6,0.8,1,1c0.6,0.4,1.6,1.3,2.3,1.4c6.3,0.6,12.6,1.4,18.7,0.9
			c3.2-0.2,6.4,0.6,9.5,0.3c3-0.3,7.2,0.4,9.7-1.8c2.6-2.3,2.1-6.9,1.8-9.9c-0.5-5.2-1-10.4-1.5-15.6c-0.7-7-1.4-13.9-0.9-20.9
			c0.7-9.8,3.7-19.4,3.1-29.1c-0.9-0.2-1.8-0.9-2.2-1.8c-0.2-0.4-4.7,0-5.3,0c-2,0-4,0-5.9,0c-3.9,0-7.7,0-11.6,0.1
			s-7.7,0.1-11.6,0.2C8,9.9,2.8,8.9,1.6,12"/>
		<path id="XMLID_653_" class="st17" d="M6.2,26.8c-0.7-1.1,0-2.6,1-3.2c1.1-0.7,2.4-0.7,3.7-0.8c7.6-0.2,15.2-0.4,22.8-0.6
			c2.4-0.1,5,0,6.6,1.8c1.3,1.5,1.3,3.8,1.2,5.8c-0.3,5.1-0.6,10.2-0.8,15.3c-0.2,6.4-0.1,12.8,0.1,19.2c0,0.3,0,0.7-0.2,1
			c-0.2,0.4-0.8,0.5-1.2,0.6c-9.1,1.9-18.5,1.8-27.9,1.7c-1.3,0-2.7-0.1-3.7-0.8c-0.7-0.4-1.1-1.1-1.3-1.9c-0.2-0.6-0.1-1.2-0.1-1.9
			c0.3-12.3,0.3-24.7-0.1-37"/>
		<path id="XMLID_651_" class="st18" d="M8.8,26.5c1.4-3,12.8-1.4,15.6-1.4c2.5,0,5.5-0.5,7.9,0c2.7-0.5,4.5,0.9,5.5,4.1
			c0.1,1.3,0.2,2.5,0.2,3.8c0.2,5.1,0.2,10.2,0.2,15.3c0,2.4,0,4.8-0.2,7.2c-0.2,3.4,0.2,6.3-3,7.9c-4.3,2.2-10.2,1.7-15,1.8
			c-2.2,0-5.3,0.5-7.4-0.1C8,63.8,9.1,61,9,57.3c-0.3-10.3-0.3-20.7-0.2-31c0-0.5-0.7-0.5-0.8,0C8,34.7,8,43.1,8.2,51.5
			c0.1,3.7-0.5,8,0.3,11.6c0.2,1,0,1.7,0.9,2.4c1.6,1.2,6.1,0.5,7.9,0.5c4,0,8-0.1,12.1-0.4c4.1-0.3,7.3,0.5,8.6-3.8
			c2-6.5,1.1-14.4,1-21.1c0-3.8-0.1-7.7-0.4-11.5c-0.1-1.4,0-3.1-1.1-4.1c-1.3-1.1-3.8-0.7-5.1-0.7c-4,0-7.9,0-11.9,0
			c-2.8,0-10.7-1.6-12.3,1.8C7.9,26.5,8.5,26.9,8.8,26.5"/>
		<path id="XMLID_650_" class="st17" d="M0.6,10.1c0.6-2.2,0.5-4.6-0.3-6.7C0.1,3-0.1,2.6,0,2.2c0.2-1,1.6-1.1,2.6-1
			c1.7,0.2,3.5,0.1,5.2,0C10,1,12.1,0.6,14.3,0.4c2.4-0.2,4.7-0.2,7.1-0.3c4.7,0,9.4-0.1,14.1-0.1c3.3,0,6.7,0,9.9,0.9
			c0.4,0.1,0.7,0.2,1,0.5c0.3,0.3,0.3,0.8,0.3,1.3c0.1,2.2,0.1,4.4,0.2,6.6c0,0.1,0,0.3-0.1,0.4c-0.1,0.1-0.3,0.1-0.5,0.1
			c-7,0.1-14,0.1-21,0c-1.9,0-3.8,0-5.7,0C13.2,9.9,6.9,10.1,0.6,10.1"/>
	</g>
	<g id="XMLID_597_">
		<path id="XMLID_601_" class="st16" d="M73.1,12c-0.4,1-0.3,2.1-0.2,3.1c0.7,11.5,1.4,23,2.1,34.5c0.3,5.3,0.6,10.6-0.2,15.8
			c-0.5,3.3-1.5,6.5-1.9,9.9c-0.3,3.3,0,6.9,1.9,9.7c0.3,0.4,0.6,0.8,1,1c0.6,0.4,1.6,1.3,2.3,1.4c6.3,0.6,12.6,1.4,18.7,0.9
			c3.2-0.2,6.4,0.6,9.5,0.3c3-0.3,7.2,0.4,9.7-1.8c2.6-2.3,2.1-6.9,1.8-9.9c-0.5-5.2-1-10.4-1.5-15.6c-0.7-7-1.4-13.9-0.9-20.9
			c0.7-9.8,3.7-19.4,3.1-29.1c-0.9-0.2-1.8-0.9-2.2-1.8c-0.2-0.4-4.7,0-5.3,0c-2,0-4,0-5.9,0c-3.9,0-7.7,0-11.6,0.1
			C89.7,9.6,85.8,9.7,82,9.8C79.5,9.9,74.2,8.9,73.1,12"/>
		<path id="XMLID_600_" class="st17" d="M77.7,26.8c-0.7-1.1,0-2.6,1-3.2c1.1-0.7,2.4-0.7,3.7-0.8c7.6-0.2,15.2-0.4,22.8-0.6
			c2.4-0.1,5,0,6.6,1.8c1.3,1.5,1.3,3.8,1.2,5.8c-0.3,5.1-0.6,10.2-0.8,15.3c-0.2,6.4-0.1,12.8,0.1,19.2c0,0.3,0,0.7-0.2,1
			c-0.2,0.4-0.8,0.5-1.2,0.6c-9.1,1.9-18.5,1.8-27.9,1.7c-1.3,0-2.7-0.1-3.7-0.8c-0.7-0.4-1.1-1.1-1.3-1.9c-0.2-0.6-0.1-1.2-0.1-1.9
			C78,50.7,78,38.4,77.6,26"/>
		<path id="XMLID_599_" class="st18" d="M80.2,26.5c1.4-3,12.8-1.4,15.6-1.4c2.5,0,5.5-0.5,7.9,0c2.7-0.5,4.5,0.9,5.5,4.1
			c0.1,1.3,0.2,2.5,0.2,3.8c0.2,5.1,0.2,10.2,0.2,15.3c0,2.4,0,4.8-0.2,7.2c-0.2,3.4,0.2,6.3-3,7.9c-4.3,2.2-10.2,1.7-15,1.8
			c-2.2,0-5.3,0.5-7.4-0.1c-4.7-1.3-3.5-4.1-3.6-7.8c-0.3-10.3-0.3-20.7-0.2-31c0-0.5-0.7-0.5-0.8,0c-0.1,8.4,0,16.8,0.1,25.2
			c0.1,3.7-0.5,8,0.3,11.6c0.2,1,0,1.7,0.9,2.4c1.6,1.2,6.1,0.5,7.9,0.5c4,0,8-0.1,12.1-0.4c4.1-0.3,7.3,0.5,8.6-3.8
			c2-6.5,1.1-14.4,1-21.1c0-3.8-0.1-7.7-0.4-11.5c-0.1-1.4,0-3.1-1.1-4.1c-1.3-1.1-3.8-0.7-5.1-0.7c-4,0-7.9,0-11.9,0
			c-2.8,0-10.7-1.6-12.3,1.8C79.4,26.5,80,26.9,80.2,26.5"/>
		<path id="XMLID_598_" class="st17" d="M72,10.1c0.6-2.2,0.5-4.6-0.3-6.7c-0.1-0.4-0.3-0.8-0.2-1.2c0.2-1,1.6-1.1,2.6-1
			c1.7,0.2,3.5,0.1,5.2,0c2.2-0.2,4.3-0.6,6.5-0.8c2.4-0.2,4.7-0.2,7.1-0.3c4.7,0,9.4-0.1,14.1-0.1c3.3,0,6.7,0,9.9,0.9
			c0.4,0.1,0.7,0.2,1,0.5c0.3,0.3,0.3,0.8,0.3,1.3c0.1,2.2,0.1,4.4,0.2,6.6c0,0.1,0,0.3-0.1,0.4c-0.1,0.1-0.3,0.1-0.5,0.1
			c-7,0.1-14,0.1-21,0c-1.9,0-3.8,0-5.7,0C84.7,9.9,78.4,10.1,72,10.1"/>
	</g>
	<g id="_x2B__13_">
		<line id="XMLID_648_" class="st2" x1="67.6" y1="60" x2="51.6" y2="60"/>
		<line id="XMLID_647_" class="st2" x1="59.6" y1="68" x2="59.6" y2="52"/>
	</g>
</g>
</svg>
