<?xml version="1.0" encoding="utf-8"?>
<!-- Generator: Adobe Illustrator 18.1.0, SVG Export Plug-In . SVG Version: 6.00 Build 0)  -->
<svg version="1.1" id="Layer_1" xmlns="http://www.w3.org/2000/svg" xmlns:xlink="http://www.w3.org/1999/xlink" x="0px" y="0px"
	 viewBox="0 0 139.6 88.7" style="enable-background:new 0 0 139.6 88.7;" xml:space="preserve">
<style type="text/css">
	.st0{fill:#FFFFFF;}
	.st1{fill:#0071FC;}
	.st2{fill:none;stroke:#001D2D;stroke-width:2;stroke-linecap:round;stroke-linejoin:round;stroke-miterlimit:10;}
	.st3{fill:#F4D49D;}
	.st4{fill:#44612D;}
	.st5{fill:#9BC53D;}
	.st6{fill:#CDCED0;}
	.st7{fill:#E7E9E6;}
	.st8{fill:#C9A877;}
	.st9{fill:#D2A12A;}
	.st10{fill:#EEA820;}
	.st11{fill:#6E1F3F;}
	.st12{fill:#2AAAE2;}
	.st13{fill:#25809A;}
	.st14{fill:#F48CA3;}
	.st15{fill:#BD294C;}
	.st16{fill:#6B3315;}
	.st17{fill:#ED2024;}
	.st18{fill:#FFCB0B;}
	.st19{fill:#412312;}
	.st20{fill:#282A73;}
	.st21{fill:#228099;}
	.st22{fill:#0000B2;}
	.st23{fill:#FFCB05;}
	.st24{fill:#EFA803;}
	.st25{fill:#D16502;}
	.st26{fill:#902924;}
	.st27{fill:#B71A25;}
	.st28{fill:#FF0005;}
	.st29{fill:#AD8104;}
	.st30{fill:#FFDB9C;}
	.st31{fill:#FFEDD4;}
	.st32{fill:#D3A100;}
	.st33{fill:#006837;}
	.st34{fill:#ED1C24;}
	.st35{fill:#6D6C73;}
	.st36{fill:#BFBEBE;}
	.st37{fill:#FFF5D9;}
	.st38{fill:#FF5005;}
	.st39{fill:#F26636;}
	.st40{fill:#EC2227;}
	.st41{fill:#2C3A96;}
	.st42{fill:#B72027;}
	.st43{fill:#C89754;}
	.st44{fill:#F19121;}
	.st45{fill:#FDEB07;}
	.st46{fill:#FEC045;}
	.st47{fill:#732644;}
	.st48{fill:#BB1E72;}
	.st49{fill:#AD832D;}
	.st50{fill:#08549E;}
	.st51{fill:#416FB6;}
	.st52{fill:#9A3D21;}
	.st53{fill:#BD4D27;}
</style>
<g id="XMLID_602_">
	<g id="XMLID_63_">
		<path id="XMLID_89_" class="st16" d="M1.6,12c-0.4,1-0.3,2.1-0.2,3.1c0.7,11.5,1.4,23,2.1,34.5c0.3,5.3,0.6,10.6-0.2,15.8
			c-0.5,3.3-1.5,6.5-1.9,9.9c-0.4,3.3,0,6.9,1.9,9.7c0.3,0.4,0.6,0.8,1,1c0.6,0.4,1.6,1.3,2.3,1.4c6.3,0.6,12.6,1.4,18.7,0.9
			c3.2-0.2,6.4,0.6,9.5,0.3c3-0.3,7.2,0.4,9.7-1.8c2.6-2.3,2.1-6.9,1.8-9.9c-0.5-5.2-1-10.4-1.5-15.6c-0.7-7-1.4-13.9-0.9-20.9
			c0.7-9.8,3.7-19.4,3.1-29.1c-0.9-0.2-1.8-0.9-2.2-1.8c-0.2-0.4-4.7,0-5.3,0c-2,0-4,0-5.9,0c-3.9,0-7.7,0-11.6,0.1
			s-7.7,0.1-11.6,0.2C8,9.9,2.8,8.9,1.6,12"/>
		<path id="XMLID_87_" class="st17" d="M6.2,26.8c-0.7-1.1,0-2.6,1-3.2c1.1-0.7,2.4-0.7,3.7-0.8c7.6-0.2,15.2-0.4,22.8-0.6
			c2.4-0.1,5,0,6.6,1.8c1.3,1.5,1.3,3.8,1.2,5.8c-0.3,5.1-0.6,10.2-0.8,15.3c-0.2,6.4-0.1,12.8,0.1,19.2c0,0.3,0,0.7-0.2,1
			c-0.2,0.4-0.8,0.5-1.2,0.6c-9.1,1.9-18.5,1.8-27.9,1.7c-1.3,0-2.7-0.1-3.7-0.8c-0.7-0.4-1.1-1.1-1.3-1.9c-0.2-0.6-0.1-1.2-0.1-1.9
			c0.3-12.3,0.3-24.7-0.1-37"/>
		<path id="XMLID_85_" class="st18" d="M8.8,26.5c1.4-3,12.8-1.4,15.6-1.4c2.5,0,5.5-0.5,7.9,0c2.7-0.5,4.5,0.9,5.5,4.1
			c0.1,1.3,0.2,2.5,0.2,3.8c0.2,5.1,0.2,10.2,0.2,15.3c0,2.4,0,4.8-0.2,7.2c-0.2,3.4,0.2,6.3-3,7.9c-4.3,2.2-10.2,1.7-15,1.8
			c-2.2,0-5.3,0.5-7.4-0.1C8,63.8,9.1,61,9,57.3c-0.3-10.3-0.3-20.7-0.2-31c0-0.5-0.7-0.5-0.8,0C8,34.7,8,43.1,8.2,51.5
			c0.1,3.7-0.5,8,0.3,11.6c0.2,1,0,1.7,0.9,2.4c1.6,1.2,6.1,0.5,7.9,0.5c4,0,8-0.1,12.1-0.4c4.1-0.3,7.3,0.5,8.6-3.8
			c2-6.5,1.1-14.4,1-21.1c0-3.8-0.1-7.7-0.4-11.5c-0.1-1.4,0-3.1-1.1-4.1c-1.3-1.1-3.8-0.7-5.1-0.7c-4,0-7.9,0-11.9,0
			c-2.8,0-10.7-1.6-12.3,1.8C7.9,26.5,8.5,26.9,8.8,26.5"/>
		<path id="XMLID_64_" class="st17" d="M0.6,10.1c0.6-2.2,0.5-4.6-0.3-6.7C0.1,3-0.1,2.6,0,2.2c0.2-1,1.6-1.1,2.6-1
			c1.7,0.2,3.5,0.1,5.2,0C10,1,12.1,0.6,14.3,0.4c2.4-0.2,4.7-0.2,7.1-0.3c4.7,0,9.4-0.1,14.1-0.1c3.3,0,6.7,0,9.9,0.9
			c0.4,0.1,0.7,0.2,1,0.5c0.3,0.3,0.3,0.8,0.3,1.3c0.1,2.2,0.1,4.4,0.2,6.6c0,0.1,0,0.3-0.1,0.4c-0.1,0.1-0.3,0.1-0.5,0.1
			c-7,0.1-14,0.1-21,0c-1.9,0-3.8,0-5.7,0C13.2,9.9,6.9,10.1,0.6,10.1"/>
	</g>
	<g id="_x2B__3_">
		<line id="XMLID_94_" class="st2" x1="67.6" y1="60" x2="51.6" y2="60"/>
		<line id="XMLID_93_" class="st2" x1="59.6" y1="68" x2="59.6" y2="52"/>
	</g>
	<g id="XMLID_595_">
		<path id="XMLID_631_" class="st16" d="M134,9.9c0.7,22.7,1.3,45.5,1.6,68.2c0,0.5,0,1-0.3,1.3c-0.3,0.3-0.7,0.3-1.2,0.3
			c-15,0.3-30.1,0.5-45.1,0.8c-4.5,0.1-9,0.2-13.4,1.1c-0.5,0.1-1.1,0.2-1.6,0c-0.8-0.4-0.9-1.5-0.9-2.4C73.6,60.1,74.2,41,74.7,22
			c0-0.3,0-0.6,0.2-0.7c0.1-0.1,0.3-0.2,0.5-0.2c10.8-3.4,21.9-5.7,33.1-6.9c8.7-1,17.9,2.4,25.8-1.2"/>
		<path id="XMLID_630_" class="st19" d="M73.8,81.3c0.6,1.3-0.5,2.8-1.6,3.7c-1.1,0.9-2.5,1.8-2.7,3.3c4.7-0.8,9.4-1.7,14.2-2.5
			c2.2-0.4,4.4-0.8,6.7-0.9c3.5-0.3,7,0.1,10.5,0.4c4.9,0.4,9.9,0.9,14.8,1.3c7.4,0.7,14.7,1.3,22.1,2.1c0.9,0.1,2.2-0.3,1.8-1.1
			c-0.1-0.3-0.4-0.4-0.7-0.6c-2.5-1.4-3.8-4.6-3.1-7.4c-8.8-1.3-18.3,0.6-27.2,0.5C97.5,80,83.9,79.7,73.1,80
			c-1.1,0,1.3,1.2,1.2,2.3"/>
		<path id="XMLID_629_" class="st20" d="M74.6,26.5c0.2,2.3-0.4,5.8-0.2,8.1c0,0.5,0.3-0.2,0.7,0.1c0.3,0.3,0.8,0.3,1.3,0.2
			c19-0.5,38-0.9,57-1.4c0.3,0,0.6,0,0.9-0.2c0.3-0.2,0.4-0.6,0.4-1c0.2-2.7,0.1-5.4-0.3-8.1c-13.9,0.5-27.8,1-41.7,2.5
			c-5.6,0.6-11.3,1.4-16.7,0.1"/>
		<path id="XMLID_628_" class="st8" d="M87.4,52.9c1.4-2.1,2.8-4.2,4.3-6.2c0.1-0.2,0.2-0.3,0.4-0.4c0.2-0.1,0.5,0.1,0.7,0.2
			c5.5,3.6,9.6,9.6,16,11.1c-0.9,2.2-2.4,4.1-4.3,5.5c-0.5,0.4-1.1,0.8-1.7,0.7c-0.9,0-1.6-0.8-2.3-1.5C96.8,58.3,92,56,87.4,52.9"
			/>
		<path id="XMLID_625_" class="st3" d="M99.5,51.4c0.7-1.9,1.7-3.6,3-5.1c1.3,1.5,3.4,2,5.3,2.5c4.8,1.2,9.5,2.7,14.1,4.6
			c0.5,0.2,1.1,0.5,1.3,1c0.2,0.4,0.1,0.9,0,1.4c-0.5,2.1-1.2,4.1-2.2,6c-0.2,0.3-0.4,0.7-0.8,0.8c-0.2,0-0.5-0.1-0.7-0.2
			c-1.8-0.9-3.5-2.2-5.4-3.1c-1.5-0.7-3.1-1.1-4.6-1.6c-3.8-1.4-7.4-3.6-10.3-6.4"/>
		<path id="XMLID_624_" class="st8" d="M97.1,48.3c0.4-2.8,0.8-5.5,1.3-8.3c2.5,1.4,5.6,0.9,8.5,0.7c4.9-0.4,9.8,0.2,14.6,0.7
			c0.2,0,0.5,0.1,0.6,0.3c0.1,0.2,0.1,0.4,0.1,0.5c-0.2,2.1-0.4,4.1-0.6,6.2c0,0.1,0,0.3-0.1,0.4c-0.2,0.3-0.6,0.2-1,0.1
			C112.9,46.6,104.3,51.1,97.1,48.3"/>
		<path id="XMLID_623_" class="st3" d="M103.2,38.6c2-2,3.7-3.6,6.2-4.9c1.3-0.6,2.7-1.1,4.1-1.6c3.2-1.3,5.9-3.5,8.6-5.7
			c2,1.5,3.9,2.9,5.9,4.4c-6.8,3-13.3,6.8-19.2,11.4c-0.4,0.3-0.8,0.6-1.2,0.6c-0.4,0-0.7-0.3-1.1-0.5
			C105.3,41.3,104.1,40,103.2,38.6"/>
		<path id="XMLID_622_" class="st19" d="M89.8,39.6c1.4-0.9,1.3-2,2.3-3.4c0.1-0.2,0.3-0.4,0.3-0.6c0.1-0.5-0.3-0.9-0.7-1.2
			c-2.3-1.9-5-3.2-8-3.8c-0.2,0-0.4-0.1-0.5,0.1c-0.1,0.1-0.1,0.2-0.1,0.3c-0.1,0.5-0.2,1.1-0.3,1.6c-0.2,0.8-0.3,1.7,0,2.4
			c0.6,1.4,2.4,1.8,3.8,2.4c1.3,0.6,2.5,1.5,3.6,2.4"/>
		<path id="XMLID_621_" class="st19" d="M120.3,46.3c1.3,0.7,2.6,1.4,3.9,2.1c0.2,0.1,0.4,0.2,0.4,0.4c0,0.1-0.1,0.3-0.1,0.4
			c-0.5,0.8-1,1.6-1.6,2.4c-0.2,0.4-0.5,0.8-0.9,0.9c-0.4,0.1-0.9-0.1-1.3-0.3c-2.4-1.2-4.8-2.3-7.1-3.5c0.4-0.9,0.9-1.9,1.9-2.2
			c0.6-0.2,1.4-0.2,2.1-0.1C118.8,46.6,119,46.1,120.3,46.3"/>
		<path id="XMLID_620_" class="st19" d="M104.5,39.8c3.1-1.8,6.3-3.4,9.2-5.4c2.8-1.9,5.2-4.5,8.6-5.2c0.3-0.1,0.2-0.6-0.1-0.5
			c-2.8,0.6-4.9,2.3-7.1,4.1c-3.3,2.6-7.2,4.5-10.8,6.6C104,39.5,104.2,40,104.5,39.8"/>
		<path id="XMLID_619_" class="st19" d="M106.2,40.9c6.4-2.9,12.5-6.3,18.3-10.3c0.3-0.2,0-0.6-0.3-0.5c-5.8,3.9-11.9,7.4-18.3,10.3
			C105.6,40.6,105.9,41.1,106.2,40.9"/>
		<path id="XMLID_617_" class="st19" d="M105.2,36.7c1.8,0.9,3.5,1.9,5.1,3.1c0.3,0.2,0.5-0.3,0.3-0.5c-1.6-1.2-3.3-2.3-5.1-3.1
			C105.2,36.1,104.9,36.6,105.2,36.7"/>
		<path id="XMLID_616_" class="st19" d="M110.6,34.6c1.9,1,3.7,2.1,5.6,3.2c0.3,0.2,0.6-0.3,0.3-0.5c-1.8-1.1-3.7-2.1-5.6-3.2
			C110.6,34,110.3,34.5,110.6,34.6"/>
		<path id="XMLID_615_" class="st19" d="M116,31.5c1.8,0.9,3.5,2,5.2,3.1c0.3,0.2,0.5-0.3,0.3-0.5c-1.7-1.2-3.4-2.2-5.2-3.1
			C116,30.9,115.7,31.4,116,31.5"/>
		<path id="XMLID_614_" class="st19" d="M119.7,28.7c1.6,0.8,3.1,1.9,4.5,3c0.3,0.2,0.6-0.1,0.4-0.4c-1.4-1.2-2.9-2.3-4.6-3.1
			C119.7,28.1,119.4,28.6,119.7,28.7"/>
		<path id="XMLID_613_" class="st19" d="M102,48.6c3.4,1.2,6.3,3.4,9.6,4.6c3.5,1.3,7,1.9,10.4,3.5c0.3,0.1,0.6-0.3,0.3-0.5
			c-3.2-1.5-6.2-2.3-9.6-3.3c-3.7-1.1-6.9-3.6-10.6-4.9C101.8,48,101.7,48.5,102,48.6"/>
		<path id="XMLID_610_" class="st19" d="M100.3,50.7c3.4,1.4,7,1.9,10.4,3.3c3.1,1.3,6.1,2.8,9.4,3.7c0.3,0.1,0.5-0.4,0.1-0.5
			c-3.3-0.9-6.2-2.4-9.3-3.7c-3.4-1.4-7-1.8-10.4-3.2C100.3,50.1,100,50.6,100.3,50.7"/>
		<path id="XMLID_609_" class="st19" d="M121.1,53.9c-1.5,1.9-2.6,4-3.2,6.3c-0.1,0.3,0.4,0.5,0.5,0.1c0.6-2.3,1.6-4.3,3.1-6.1
			C121.7,54,121.3,53.7,121.1,53.9"/>
		<path id="XMLID_608_" class="st19" d="M117.4,53.6c-1.5,1.7-2.8,3.6-3.8,5.7c-0.1,0.3,0.3,0.6,0.5,0.3c0.9-2,2.2-3.9,3.7-5.6
			C118,53.7,117.6,53.3,117.4,53.6"/>
		<path id="XMLID_607_" class="st19" d="M113.7,51.9c-1.2,1.8-2.4,3.5-3.6,5.3c-0.2,0.3,0.3,0.5,0.5,0.3c1.2-1.8,2.4-3.5,3.6-5.3
			C114.3,51.9,113.9,51.6,113.7,51.9"/>
		<path id="XMLID_606_" class="st19" d="M110.7,50.8c-1.5,1-3,2-4.5,3.1c-0.3,0.2,0,0.7,0.3,0.5c1.5-1.1,3-2.2,4.5-3.1
			C111.2,51,110.9,50.6,110.7,50.8"/>
		<path id="XMLID_605_" class="st19" d="M106.3,49.3c-2.2,1.2-4.3,2.6-6.4,3.9c-0.3,0.2,0,0.6,0.3,0.5c2.1-1.4,4.2-2.7,6.4-3.9
			C106.9,49.6,106.6,49.2,106.3,49.3"/>
		<path id="XMLID_604_" class="st19" d="M74.7,21.6c19.1-7.3,41.4-1.7,60.6-8.8c-0.3-1.7-0.8-7-0.7-8.8c-8.7,0.6-17.3,2.1-25.8,4.4
			c-3.1,0.8-6.3,1.8-9.5,2.1c-2.3,0.2-4.6,0.2-6.9,0.3c-3,0.1-6.1,0.5-9,1.1c-3.8,0.8-8,1.9-11.3-0.1c-0.4,3.3,0.4,6.8,2.2,9.6"/>
	</g>
</g>
</svg>
